<?xml version="1.0" encoding="utf-8"?>
<!DOCTYPE svg PUBLIC "-//W3C//DTD SVG 1.1//EN" "http://www.w3.org/Graphics/SVG/1.1/DTD/svg11.dtd">
<svg version="1.1" xmlns="http://www.w3.org/2000/svg" xmlns:xlink="http://www.w3.org/1999/xlink" width="50" height="50" viewBox="0 0 50 50">
<path fill="#FFFFFF" d="M19.886,1c-1.474,0-3.2,0.932-3.2,3.556c0,0,0,9.528,0,12.221c-2.689,0-12.128,0-12.128,0
	C1.935,16.777,1,18.504,1,19.979v9.862c0,1.477,0.936,3.199,3.559,3.199c0,0,9.438,0,12.128,0c0,2.689,0,12.131,0,12.131
	c0,2.623,1.729,3.557,3.2,3.557h9.866c1.475,0,3.199-0.934,3.199-3.557c0,0,0-9.44,0-12.131c2.693,0,12.223,0,12.223,0
	c2.621,0,3.554-1.723,3.554-3.199v-9.862c0-1.475-0.933-3.202-3.554-3.202c0,0-9.527,0-12.223,0c0-2.693,0-12.221,0-12.221
	C32.952,1.932,31.225,1,29.753,1H19.886z"/>
<path fill="#333333" d="M39.598,28.041c0,0.666-0.426,0.97-1.207,0.97h-9.442v9.381c0,0.784-0.305,1.21-0.968,1.21h-6.66
	c-0.663,0-0.966-0.426-0.966-1.21V29.01h-9.381c-0.784,0-1.208-0.304-1.208-0.97v-6.656c0-0.666,0.425-0.968,1.208-0.968h9.381
	v-9.442c0-0.787,0.303-1.209,0.966-1.209h6.66c0.663,0,0.968,0.423,0.968,1.209v9.443h9.442c0.781,0,1.207,0.302,1.207,0.968V28.041
	z"/>
</svg>