<?xml version="1.0" encoding="utf-8"?>
<!DOCTYPE svg PUBLIC "-//W3C//DTD SVG 1.1//EN" "http://www.w3.org/Graphics/SVG/1.1/DTD/svg11.dtd">
<svg version="1.1" xmlns="http://www.w3.org/2000/svg" xmlns:xlink="http://www.w3.org/1999/xlink" width="78" height="78" viewBox="0 0 78 78">
<path fill="#006F3B" d="M1,39.947c0,20.925,17.022,37.943,37.939,37.943c20.926,0,37.949-17.019,37.949-37.943S59.866,2,38.939,2
	C18.022,2,1,19.022,1,39.947z"/>
<g opacity="0.7">
	<g>
		<linearGradient id="SVGID_1_" gradientUnits="userSpaceOnUse" x1="299.5664" y1="390.9502" x2="299.5664" y2="456.3901" gradientTransform="matrix(-1 0 0 -1 338.5117 463.6133)">
			<stop  offset="0" style="stop-color:#FFFFFF"/>
			<stop  offset="0.0159" style="stop-color:#F7F7F7"/>
			<stop  offset="0.1324" style="stop-color:#BEBEBE"/>
			<stop  offset="0.2522" style="stop-color:#8B8B8B"/>
			<stop  offset="0.3727" style="stop-color:#606060"/>
			<stop  offset="0.4941" style="stop-color:#3D3D3D"/>
			<stop  offset="0.6165" style="stop-color:#222222"/>
			<stop  offset="0.7404" style="stop-color:#0F0F0F"/>
			<stop  offset="0.867" style="stop-color:#040404"/>
			<stop  offset="1" style="stop-color:#000000"/>
		</linearGradient>
		<path fill="url(#SVGID_1_)" d="M38.947,8.642c18.001,0,32.634,13.956,33.026,31.301c0.005-0.237,0.019-0.472,0.019-0.71
			c0-17.676-14.797-32.01-33.044-32.01c-18.247,0-33.046,14.334-33.046,32.01c0,0.238,0.013,0.473,0.019,0.71
			C6.311,22.598,20.946,8.642,38.947,8.642z"/>
	</g>
</g>
<linearGradient id="SVGID_2_" gradientUnits="userSpaceOnUse" x1="39.1807" y1="3.2603" x2="39.1807" y2="76.0078">
	<stop  offset="0" style="stop-color:#8DC63F"/>
	<stop  offset="0.1047" style="stop-color:#71B43E"/>
	<stop  offset="0.2571" style="stop-color:#53A43D"/>
	<stop  offset="0.4309" style="stop-color:#3D983C"/>
	<stop  offset="0.6427" style="stop-color:#2D923B"/>
	<stop  offset="1" style="stop-color:#28903B"/>
</linearGradient>
<path fill="url(#SVGID_2_)" d="M75.553,39.635c0,20.082-16.283,36.373-36.376,36.373c-20.085,0-36.369-16.291-36.369-36.373
	c0-20.089,16.284-36.375,36.369-36.375C59.27,3.26,75.553,19.546,75.553,39.635z"/>
<path opacity="0.4" fill="#FFFFFF" d="M38.756,71.158c-8.751,0-20.693-4.066-28.423-12.946c6.174,9.097,16.599,15.08,28.423,15.08
	c12.894,0,24.123-7.121,29.995-17.636C62.065,64.986,50.757,71.158,38.756,71.158z"/>
<g opacity="0.5">
	<linearGradient id="SVGID_3_" gradientUnits="userSpaceOnUse" x1="38.8276" y1="9.5938" x2="38.8276" y2="46.9385">
		<stop  offset="0" style="stop-color:#FFFFFF"/>
		<stop  offset="0.1075" style="stop-color:#FAFAFA"/>
		<stop  offset="0.2312" style="stop-color:#ECECEC"/>
		<stop  offset="0.363" style="stop-color:#D5D5D5"/>
		<stop  offset="0.5005" style="stop-color:#B5B5B5"/>
		<stop  offset="0.6425" style="stop-color:#8B8B8B"/>
		<stop  offset="0.7882" style="stop-color:#585858"/>
		<stop  offset="0.9342" style="stop-color:#1D1D1D"/>
		<stop  offset="1" style="stop-color:#000000"/>
	</linearGradient>
	<path fill="url(#SVGID_3_)" d="M7.649,37.472c8.697,7.33,18.826,9.467,31.02,9.467c12.341,0,22.601-1.976,31.336-9.264
		C66.348,23.277,54.339,9.594,38.798,9.594C23.341,9.594,11.385,23.177,7.649,37.472z"/>
</g>
<g opacity="0.5">
	
		<linearGradient id="SVGID_4_" gradientUnits="userSpaceOnUse" x1="198.0825" y1="172.6875" x2="198.0825" y2="210.0317" gradientTransform="matrix(-1 0 0 -1 236.9102 242.4473)">
		<stop  offset="0" style="stop-color:#FFFFFF"/>
		<stop  offset="0.1075" style="stop-color:#FAFAFA"/>
		<stop  offset="0.2312" style="stop-color:#ECECEC"/>
		<stop  offset="0.363" style="stop-color:#D5D5D5"/>
		<stop  offset="0.5005" style="stop-color:#B5B5B5"/>
		<stop  offset="0.6425" style="stop-color:#8B8B8B"/>
		<stop  offset="0.7882" style="stop-color:#585858"/>
		<stop  offset="0.9342" style="stop-color:#1D1D1D"/>
		<stop  offset="1" style="stop-color:#000000"/>
	</linearGradient>
	<path fill="url(#SVGID_4_)" d="M70.005,41.878c-8.697-7.326-18.822-9.462-31.017-9.462c-12.337,0-22.598,1.976-31.339,9.262
		C11.31,56.074,23.315,69.76,38.854,69.76C54.32,69.76,66.273,56.176,70.005,41.878z"/>
</g>
<g>
	<path fill="#6D9D31" d="M33.968,16.776c-1.474,0-3.202,0.932-3.202,3.556c0,0,0,9.528,0,12.221c-2.689,0-12.128,0-12.128,0
		c-2.623,0-3.557,1.727-3.557,3.202v9.862c0,1.477,0.934,3.199,3.557,3.199c0,0,9.439,0,12.128,0c0,2.691,0,12.132,0,12.132
		c0,2.622,1.729,3.556,3.202,3.556h9.866c1.473,0,3.199-0.934,3.199-3.556c0,0,0-9.44,0-12.132c2.693,0,12.223,0,12.223,0
		c2.621,0,3.552-1.723,3.552-3.199v-9.862c0-1.475-0.931-3.202-3.552-3.202c0,0-9.529,0-12.223,0c0-2.693,0-12.221,0-12.221
		c0-2.624-1.727-3.556-3.199-3.556H33.968z"/>
	<path fill="#FFFFFF" d="M61.044,45.617c0,0.985-0.629,1.436-1.789,1.436h-13.99v13.896c0,1.163-0.449,1.794-1.432,1.794h-9.866
		c-0.983,0-1.431-0.631-1.431-1.794V47.053H18.637c-1.161,0-1.791-0.45-1.791-1.436v-9.862c0-0.987,0.629-1.433,1.791-1.433h13.899
		v-13.99c0-1.166,0.448-1.792,1.431-1.792h9.866c0.982,0,1.432,0.626,1.432,1.792v13.99h13.99c1.16,0,1.789,0.446,1.789,1.433
		V45.617z"/>
</g>
</svg>
