<?xml version="1.0" encoding="utf-8"?>
<!DOCTYPE svg PUBLIC "-//W3C//DTD SVG 1.1//EN" "http://www.w3.org/Graphics/SVG/1.1/DTD/svg11.dtd">
<svg version="1.1" xmlns="http://www.w3.org/2000/svg" xmlns:xlink="http://www.w3.org/1999/xlink" width="60" height="30" viewBox="0 0 60 30">
<g>
	<polygon fill="#0D96D4" points="0,16.408 0,30.308 46.711,30.308 46.711,16.408 	"/>
	<polygon fill="#0D96D4" points="0,16.408 0,30.308 46.711,30.308 46.711,16.408 	"/>
	
		<rect x="0" y="16.408" fill="none" stroke="#AEE2FA" stroke-width="0.293" stroke-linecap="round" stroke-miterlimit="10" width="46.71" height="13.898"/>
	<polygon fill="#015B80" points="46.711,16.408 61.14,0 61.14,13.918 46.711,30.308 	"/>
	<polygon fill="#015B80" points="46.711,16.408 61.14,0 61.14,13.918 46.711,30.308 	"/>
	<polygon fill="none" stroke="#AEE2FA" stroke-width="0.293" stroke-linecap="round" stroke-miterlimit="10" points="46.711,16.408 
		61.14,0 61.14,13.918 46.711,30.308 	"/>
	<polygon fill="#45AFE3" points="46.711,16.408 61.14,0 14.444,0 0,16.408 	"/>
	<polygon fill="#45AFE3" points="46.711,16.408 61.14,0 14.444,0 0,16.408 	"/>
	<polygon fill="none" stroke="#AEE2FA" stroke-width="0.293" stroke-linecap="round" stroke-miterlimit="10" points="46.711,16.408 
		61.14,0 14.444,0 0,16.408 	"/>
	<polygon fill="#010101" points="29.307,8.46 27.61,10.438 39.499,10.438 37.8,12.93 47.555,9.944 42.459,7.455 41.196,8.46 	"/>
	<polygon fill="#010101" points="29.307,8.46 27.61,10.438 39.499,10.438 37.8,12.93 47.555,9.944 42.459,7.455 41.196,8.46 	"/>
	<polygon fill="#010101" points="35.246,1.997 33.545,3.992 45.434,3.992 43.315,6.464 53.506,2.986 47.988,0.513 47.133,1.997 	"/>
	<polygon fill="#010101" points="35.246,1.997 33.545,3.992 45.434,3.992 43.315,6.464 53.506,2.986 47.988,0.513 47.133,1.997 	"/>
	<polygon fill="#010101" points="25.054,13.918 26.752,11.939 14.444,11.939 16.562,9.45 6.793,12.434 11.887,14.907 12.745,13.918 
			"/>
	<polygon fill="#010101" points="25.054,13.918 26.752,11.939 14.444,11.939 16.562,9.45 6.793,12.434 11.887,14.907 12.745,13.918 
			"/>
	<polygon fill="#010101" points="30.571,6.96 32.267,4.98 20.381,4.98 22.515,2.491 12.325,5.97 17.84,8.46 18.681,6.96 	"/>
	<polygon fill="#010101" points="30.571,6.96 32.267,4.98 20.381,4.98 22.515,2.491 12.325,5.97 17.84,8.46 18.681,6.96 	"/>
	<polygon fill="#FFFFFF" points="29.729,8.955 28.03,10.933 39.92,10.933 38.221,13.424 47.988,10.438 42.895,7.965 41.618,8.955 	
		"/>
	<polygon fill="#FFFFFF" points="29.729,8.955 28.03,10.933 39.92,10.933 38.221,13.424 47.988,10.438 42.895,7.965 41.618,8.955 	
		"/>
	<polygon fill="#FFFFFF" points="35.664,2.491 33.967,4.486 45.855,4.486 43.737,6.96 53.926,3.48 48.41,1.008 47.555,2.491 	"/>
	<polygon fill="#FFFFFF" points="35.664,2.491 33.967,4.486 45.855,4.486 43.737,6.96 53.926,3.48 48.41,1.008 47.555,2.491 	"/>
	<polygon fill="#FFFFFF" points="25.475,14.413 27.173,12.434 14.864,12.434 16.983,9.944 7.229,12.93 12.325,15.4 13.166,14.413 	
		"/>
	<polygon fill="#FFFFFF" points="25.475,14.413 27.173,12.434 14.864,12.434 16.983,9.944 7.229,12.93 12.325,15.4 13.166,14.413 	
		"/>
	<polygon fill="#FFFFFF" points="31.006,7.455 32.703,5.475 20.815,5.475 22.936,2.986 12.745,6.464 18.26,8.955 19.117,7.455 	"/>
	<polygon fill="#FFFFFF" points="31.006,7.455 32.703,5.475 20.815,5.475 22.936,2.986 12.745,6.464 18.26,8.955 19.117,7.455 	"/>
</g>
</svg>
