<?xml version="1.0" encoding="iso-8859-1"?>
<!DOCTYPE svg PUBLIC "-//W3C//DTD SVG 1.1//EN" "http://www.w3.org/Graphics/SVG/1.1/DTD/svg11.dtd">
<svg version="1.1" xmlns="http://www.w3.org/2000/svg" xmlns:xlink="http://www.w3.org/1999/xlink" width="52" height="45" viewBox="0 0 52 45">
<g>
	<polygon style="fill-rule:evenodd;clip-rule:evenodd;fill:#117CB0;" points="51.51,35.976 51.477,36.429 51.377,36.871 
		51.221,37.312 50.989,37.743 50.7,38.162 50.356,38.57 49.956,38.978 49.499,39.375 48.989,39.762 48.422,40.137 47.799,40.501 
		47.133,40.854 46.411,41.197 45.655,41.528 44.844,41.847 44,42.145 43.11,42.444 42.178,42.708 41.211,42.973 40.2,43.216 
		39.167,43.437 38.088,43.646 36.989,43.845 35.844,44.022 34.688,44.176 33.489,44.308 32.278,44.43 31.034,44.529 29.778,44.606 
		28.489,44.662 27.188,44.695 25.866,44.706 24.555,44.695 23.255,44.662 21.966,44.606 20.7,44.529 19.466,44.43 18.255,44.308 
		17.055,44.176 15.889,44.022 14.755,43.845 13.655,43.646 12.578,43.437 11.533,43.216 10.533,42.973 9.566,42.708 8.633,42.444 
		7.744,42.145 6.9,41.847 6.089,41.528 5.322,41.197 4.611,40.854 3.944,40.501 3.322,40.137 2.755,39.762 2.245,39.375 
		1.789,38.978 1.378,38.57 1.044,38.162 0.755,37.743 0.522,37.312 0.367,36.871 0.267,36.429 0.233,35.976 0.267,35.535 
		0.367,35.083 0.522,34.652 0.755,34.222 1.044,33.802 1.378,33.383 1.789,32.975 2.245,32.588 2.755,32.203 3.322,31.827 
		3.944,31.462 4.611,31.099 5.322,30.756 6.089,30.437 6.9,30.117 7.744,29.807 8.633,29.521 9.566,29.245 10.533,28.991 
		11.533,28.749 12.578,28.516 13.655,28.307 14.755,28.119 15.889,27.943 17.055,27.788 18.255,27.644 19.466,27.534 20.7,27.435 
		21.966,27.358 23.255,27.302 24.555,27.269 25.866,27.258 27.188,27.269 28.489,27.302 29.778,27.358 31.034,27.435 32.278,27.534 
		33.489,27.644 34.688,27.788 35.844,27.943 36.989,28.119 38.088,28.307 39.167,28.516 40.2,28.749 41.211,28.991 42.178,29.245 
		43.11,29.521 44,29.807 44.844,30.117 45.655,30.437 46.411,30.756 47.133,31.099 47.799,31.462 48.422,31.827 48.989,32.203 
		49.499,32.588 49.956,32.975 50.356,33.383 50.7,33.802 50.989,34.222 51.221,34.652 51.377,35.083 51.477,35.535 	"/>
	<polygon style="fill:#AED7E7;" points="25.866,45.026 25.866,45.026 26.533,45.026 27.188,45.015 27.844,45.003 28.5,44.982 
		29.145,44.959 29.788,44.926 30.422,44.893 31.055,44.849 31.678,44.805 32.299,44.75 32.911,44.695 33.522,44.639 34.122,44.574 
		34.711,44.496 35.299,44.418 35.877,44.341 36.456,44.264 37.022,44.165 37.577,44.077 38.133,43.977 38.678,43.867 39.211,43.768 
		39.733,43.646 40.254,43.536 40.766,43.415 41.266,43.293 41.754,43.161 42.245,43.028 42.477,42.962 42.711,42.896 42.944,42.819 
		43.178,42.752 43.399,42.686 43.633,42.609 43.856,42.542 44.077,42.465 44.288,42.388 44.51,42.311 44.721,42.234 44.932,42.157 
		45.133,42.08 45.344,42.002 45.543,41.924 45.745,41.836 45.932,41.759 46.133,41.671 46.321,41.593 46.51,41.505 46.7,41.417 
		46.877,41.34 47.055,41.251 47.233,41.152 47.411,41.075 47.577,40.976 47.745,40.887 47.911,40.799 48.067,40.71 48.221,40.623 
		48.389,40.523 48.534,40.435 48.688,40.335 48.833,40.236 48.977,40.148 49.11,40.048 49.245,39.95 49.377,39.85 49.51,39.75 
		49.633,39.651 49.754,39.552 49.877,39.453 49.999,39.342 50.11,39.243 50.221,39.144 50.321,39.034 50.422,38.934 50.522,38.824 
		50.622,38.724 50.711,38.614 50.799,38.503 50.889,38.393 50.965,38.283 51.043,38.172 51.11,38.062 51.188,37.952 51.254,37.841 
		51.311,37.731 51.366,37.621 51.422,37.5 51.477,37.389 51.522,37.268 51.555,37.158 51.6,37.036 51.633,36.925 51.655,36.804 
		51.676,36.683 51.7,36.561 51.721,36.44 51.733,36.319 51.733,36.208 51.733,36.076 51.288,36.076 51.288,36.186 51.278,36.286 
		51.266,36.396 51.254,36.496 51.245,36.606 51.221,36.705 51.188,36.804 51.167,36.915 51.133,37.014 51.1,37.113 51.055,37.212 
		51.01,37.323 50.965,37.422 50.911,37.522 50.856,37.621 50.799,37.72 50.733,37.82 50.667,37.93 50.6,38.029 50.522,38.128 
		50.444,38.228 50.366,38.327 50.278,38.426 50.188,38.526 50.1,38.625 49.999,38.724 49.899,38.824 49.799,38.923 49.7,39.011 
		49.588,39.111 49.465,39.209 49.356,39.298 49.233,39.398 49.11,39.497 48.989,39.585 48.856,39.684 48.721,39.773 48.577,39.873 
		48.444,39.96 48.299,40.048 48.143,40.137 47.999,40.236 47.844,40.325 47.688,40.413 47.534,40.501 47.366,40.589 47.2,40.667 
		47.034,40.755 46.856,40.843 46.688,40.931 46.499,41.008 46.321,41.097 46.133,41.185 45.956,41.262 45.766,41.34 45.567,41.428 
		45.366,41.505 45.178,41.583 44.977,41.66 44.766,41.737 44.567,41.814 44.356,41.892 44.143,41.969 43.922,42.035 43.711,42.113 
		43.489,42.178 43.266,42.255 43.043,42.322 42.811,42.399 42.588,42.465 42.356,42.532 42.122,42.598 41.643,42.73 41.155,42.852 
		40.655,42.973 40.155,43.094 39.643,43.216 39.122,43.327 38.588,43.437 38.043,43.536 37.5,43.635 36.944,43.723 36.389,43.812 
		35.823,43.9 35.245,43.977 34.655,44.054 34.067,44.132 33.467,44.187 32.866,44.253 32.254,44.308 31.645,44.364 31.022,44.408 
		30.399,44.441 29.766,44.485 29.133,44.518 28.489,44.541 27.833,44.562 27.188,44.574 26.533,44.584 25.866,44.584 25.866,44.584 
		25.866,44.584 25.844,44.584 25.822,44.584 25.789,44.595 25.767,44.606 25.755,44.618 25.733,44.618 25.722,44.639 25.7,44.651 
		25.688,44.672 25.678,44.684 25.667,44.706 25.667,44.728 25.655,44.75 25.644,44.761 25.644,44.783 25.644,44.805 25.644,44.827 
		25.644,44.849 25.655,44.872 25.667,44.893 25.667,44.905 25.678,44.926 25.688,44.949 25.7,44.959 25.722,44.982 25.733,44.993 
		25.755,45.003 25.767,45.015 25.789,45.026 25.822,45.026 25.844,45.026 	"/>
	<polygon style="fill:#AED7E7;" points="0,36.076 0,36.076 0.011,36.208 0.011,36.319 0.022,36.44 0.044,36.561 0.056,36.683 
		0.089,36.804 0.111,36.925 0.145,37.036 0.178,37.158 0.222,37.268 0.267,37.389 0.322,37.5 0.378,37.621 0.433,37.731 
		0.489,37.841 0.556,37.952 0.622,38.062 0.7,38.172 0.778,38.283 0.855,38.393 0.944,38.503 1.033,38.614 1.122,38.724 
		1.222,38.824 1.311,38.934 1.422,39.034 1.522,39.144 1.633,39.243 1.745,39.342 1.867,39.453 1.978,39.552 2.111,39.651 
		2.233,39.75 2.367,39.85 2.5,39.95 2.633,40.048 2.767,40.148 2.911,40.236 3.056,40.335 3.211,40.435 3.355,40.523 3.511,40.623 
		3.667,40.71 3.833,40.799 4,40.887 4.167,40.976 4.333,41.075 4.511,41.152 4.689,41.251 4.867,41.34 5.044,41.417 5.233,41.505 
		5.422,41.593 5.611,41.671 5.811,41.759 6,41.836 6.2,41.924 6.4,42.002 6.611,42.08 6.811,42.157 7.022,42.234 7.233,42.311 
		7.456,42.388 7.667,42.465 7.889,42.542 8.111,42.609 8.344,42.686 8.566,42.752 8.8,42.819 9.033,42.896 9.267,42.962 9.5,43.028 
		9.989,43.161 10.478,43.293 10.978,43.415 11.489,43.536 12.011,43.646 12.533,43.768 13.066,43.867 13.611,43.977 14.167,44.077 
		14.722,44.165 15.289,44.264 15.867,44.341 16.444,44.418 17.033,44.496 17.622,44.574 18.222,44.639 18.833,44.695 19.444,44.75 
		20.066,44.805 20.688,44.849 21.322,44.893 21.955,44.926 22.6,44.959 23.244,44.982 23.889,45.003 24.544,45.015 25.211,45.026 
		25.866,45.026 25.866,44.584 25.211,44.584 24.555,44.574 23.911,44.562 23.255,44.541 22.611,44.518 21.978,44.485 21.344,44.441 
		20.722,44.408 20.1,44.364 19.489,44.308 18.877,44.253 18.277,44.187 17.678,44.132 17.089,44.054 16.5,43.977 15.922,43.9 
		15.355,43.812 14.8,43.723 14.244,43.635 13.688,43.536 13.155,43.437 12.622,43.327 12.1,43.216 11.589,43.094 11.089,42.973 
		10.589,42.852 10.1,42.73 9.622,42.598 9.389,42.532 9.155,42.465 8.933,42.399 8.7,42.322 8.478,42.255 8.255,42.178 
		8.033,42.113 7.822,42.035 7.6,41.969 7.389,41.892 7.178,41.814 6.978,41.737 6.767,41.66 6.566,41.583 6.367,41.505 
		6.178,41.428 5.978,41.34 5.789,41.262 5.6,41.185 5.422,41.097 5.244,41.008 5.056,40.931 4.889,40.843 4.711,40.755 
		4.544,40.667 4.378,40.589 4.211,40.501 4.056,40.413 3.9,40.325 3.744,40.236 3.589,40.137 3.444,40.048 3.3,39.96 3.155,39.873 
		3.022,39.773 2.889,39.684 2.755,39.585 2.633,39.497 2.511,39.398 2.389,39.298 2.267,39.209 2.155,39.111 2.044,39.011 
		1.944,38.923 1.833,38.824 1.733,38.724 1.645,38.625 1.556,38.526 1.467,38.426 1.378,38.327 1.3,38.228 1.222,38.128 
		1.145,38.029 1.078,37.93 1.011,37.82 0.944,37.72 0.889,37.621 0.833,37.522 0.778,37.422 0.733,37.323 0.689,37.212 
		0.645,37.113 0.611,37.014 0.578,36.915 0.544,36.804 0.522,36.705 0.5,36.606 0.489,36.496 0.478,36.396 0.467,36.286 
		0.456,36.186 0.456,36.076 0.456,36.076 0.456,36.076 0.456,36.054 0.456,36.032 0.444,36.009 0.433,35.988 0.422,35.965 
		0.411,35.944 0.4,35.932 0.389,35.911 0.367,35.899 0.355,35.888 0.333,35.877 0.311,35.877 0.289,35.866 0.278,35.866 
		0.255,35.855 0.233,35.855 0.211,35.855 0.189,35.866 0.167,35.866 0.145,35.877 0.133,35.877 0.111,35.888 0.089,35.899 
		0.078,35.911 0.056,35.932 0.044,35.944 0.033,35.965 0.022,35.988 0.011,36.009 0.011,36.032 0,36.054 	"/>
	<polygon style="fill:#AED7E7;" points="25.866,27.125 25.866,27.125 25.211,27.137 24.544,27.148 23.889,27.159 23.244,27.181 
		22.6,27.203 21.955,27.236 21.322,27.269 20.688,27.313 20.066,27.358 19.444,27.413 18.833,27.468 18.222,27.523 17.622,27.589 
		17.033,27.667 16.444,27.744 15.867,27.821 15.289,27.91 14.722,27.998 14.167,28.086 13.611,28.185 13.066,28.295 12.533,28.406 
		12.011,28.516 11.489,28.626 10.978,28.749 10.478,28.87 9.989,29.001 9.5,29.134 9.033,29.267 8.566,29.411 8.344,29.488 
		8.111,29.553 7.889,29.631 7.667,29.697 7.456,29.774 7.233,29.852 7.022,29.929 6.811,30.006 6.611,30.083 6.4,30.161 6.2,30.249 
		6,30.327 5.811,30.415 5.611,30.492 5.422,30.569 5.233,30.658 5.044,30.746 4.867,30.833 4.689,30.922 4.511,31 4.333,31.099 
		4.167,31.187 4,31.275 3.833,31.364 3.667,31.452 3.511,31.551 3.355,31.639 3.211,31.739 3.056,31.827 2.911,31.926 2.767,32.026 
		2.633,32.114 2.5,32.213 2.367,32.313 2.233,32.412 2.111,32.511 1.978,32.611 1.867,32.721 1.745,32.82 1.633,32.919 1.522,33.03 
		1.422,33.129 1.311,33.229 1.222,33.339 1.122,33.438 1.033,33.548 0.944,33.659 0.855,33.769 0.778,33.879 0.7,33.99 0.633,34.1 
		0.556,34.21 0.489,34.321 0.433,34.431 0.378,34.553 0.322,34.664 0.267,34.774 0.222,34.895 0.178,35.005 0.145,35.126 
		0.111,35.249 0.089,35.359 0.056,35.48 0.044,35.601 0.022,35.723 0.011,35.844 0.011,35.965 0,36.076 0.456,36.076 0.456,35.976 
		0.467,35.877 0.478,35.767 0.489,35.667 0.5,35.568 0.522,35.458 0.544,35.359 0.578,35.259 0.611,35.149 0.645,35.049 
		0.689,34.95 0.733,34.851 0.778,34.741 0.833,34.641 0.889,34.542 0.944,34.443 1.011,34.333 1.078,34.233 1.145,34.133 
		1.222,34.034 1.3,33.935 1.378,33.835 1.467,33.736 1.556,33.637 1.645,33.538 1.733,33.438 1.833,33.339 1.944,33.25 
		2.044,33.151 2.155,33.052 2.267,32.953 2.389,32.865 2.511,32.765 2.633,32.666 2.755,32.578 2.889,32.478 3.022,32.39 
		3.155,32.301 3.3,32.203 3.444,32.114 3.589,32.026 3.744,31.937 3.9,31.849 4.056,31.75 4.211,31.672 4.378,31.573 4.544,31.485 
		4.711,31.408 4.889,31.32 5.056,31.231 5.244,31.154 5.422,31.066 5.6,30.977 5.789,30.9 5.978,30.823 6.178,30.746 6.367,30.658 
		6.566,30.58 6.767,30.502 6.978,30.425 7.178,30.348 7.389,30.271 7.6,30.205 7.822,30.127 8.033,30.05 8.255,29.984 8.478,29.907 
		8.7,29.84 9.155,29.697 9.622,29.565 10.1,29.432 10.589,29.311 11.089,29.178 11.589,29.068 12.1,28.947 12.622,28.836 
		13.155,28.737 13.688,28.626 14.244,28.539 14.8,28.439 15.355,28.351 15.922,28.262 16.5,28.185 17.089,28.108 17.678,28.042 
		18.277,27.975 18.877,27.91 19.489,27.854 20.1,27.799 20.722,27.754 21.344,27.722 21.978,27.677 22.611,27.644 23.255,27.623 
		23.911,27.612 24.555,27.589 25.211,27.589 25.866,27.579 25.866,27.579 25.866,27.579 25.9,27.579 25.922,27.579 25.944,27.567 
		25.966,27.567 25.989,27.556 26.011,27.545 26.022,27.523 26.044,27.512 26.055,27.49 26.066,27.479 26.078,27.457 26.078,27.435 
		26.088,27.423 26.1,27.402 26.1,27.379 26.1,27.358 26.1,27.335 26.1,27.313 26.088,27.292 26.078,27.281 26.078,27.258 
		26.066,27.236 26.055,27.214 26.044,27.203 26.022,27.192 26.011,27.17 25.989,27.159 25.966,27.148 25.944,27.148 25.922,27.137 
		25.9,27.137 	"/>
	<polygon style="fill:#AED7E7;" points="51.733,36.076 51.733,35.965 51.733,35.844 51.721,35.723 51.7,35.601 51.676,35.48 
		51.655,35.359 51.633,35.249 51.6,35.126 51.555,35.005 51.522,34.895 51.477,34.774 51.422,34.664 51.366,34.553 51.311,34.431 
		51.254,34.321 51.188,34.21 51.11,34.1 51.043,33.99 50.965,33.879 50.889,33.769 50.799,33.659 50.711,33.548 50.622,33.438 
		50.522,33.339 50.422,33.229 50.321,33.129 50.221,33.03 50.11,32.919 49.999,32.82 49.877,32.721 49.754,32.611 49.633,32.511 
		49.51,32.412 49.377,32.313 49.245,32.213 49.11,32.114 48.977,32.026 48.833,31.926 48.688,31.827 48.534,31.739 48.389,31.639 
		48.221,31.551 48.067,31.452 47.911,31.364 47.745,31.275 47.577,31.187 47.411,31.099 47.233,31 47.055,30.922 46.877,30.833 
		46.7,30.746 46.51,30.658 46.321,30.569 46.133,30.492 45.932,30.415 45.745,30.327 45.543,30.249 45.344,30.161 45.133,30.083 
		44.932,30.006 44.721,29.929 44.51,29.852 44.288,29.774 44.077,29.697 43.856,29.631 43.633,29.553 43.399,29.488 43.178,29.411 
		42.711,29.267 42.245,29.134 41.754,29.001 41.266,28.87 40.766,28.749 40.254,28.626 39.733,28.516 39.211,28.406 38.678,28.295 
		38.133,28.185 37.577,28.086 37.022,27.998 36.456,27.91 35.877,27.821 35.299,27.744 34.711,27.667 34.122,27.589 33.522,27.523 
		32.911,27.468 32.299,27.413 31.678,27.358 31.055,27.313 30.422,27.269 29.788,27.236 29.145,27.203 28.5,27.181 27.844,27.159 
		27.188,27.148 26.533,27.137 25.866,27.125 25.866,27.579 26.533,27.589 27.188,27.589 27.833,27.612 28.489,27.623 29.133,27.644 
		29.766,27.677 30.399,27.722 31.022,27.754 31.645,27.799 32.254,27.854 32.866,27.91 33.467,27.975 34.067,28.042 34.655,28.108 
		35.245,28.185 35.823,28.262 36.389,28.351 36.944,28.439 37.5,28.539 38.043,28.626 38.588,28.737 39.122,28.836 39.643,28.947 
		40.155,29.068 40.655,29.178 41.155,29.311 41.643,29.432 42.122,29.565 42.588,29.697 43.043,29.84 43.266,29.907 43.489,29.984 
		43.711,30.05 43.922,30.127 44.143,30.205 44.356,30.271 44.567,30.348 44.766,30.425 44.977,30.502 45.178,30.58 45.377,30.658 
		45.567,30.746 45.766,30.823 45.956,30.9 46.133,30.977 46.321,31.066 46.499,31.154 46.688,31.231 46.856,31.32 47.034,31.408 
		47.2,31.485 47.366,31.573 47.534,31.672 47.688,31.75 47.844,31.849 47.999,31.937 48.143,32.026 48.299,32.114 48.444,32.203 
		48.577,32.301 48.721,32.39 48.856,32.478 48.989,32.578 49.11,32.666 49.233,32.765 49.356,32.865 49.465,32.953 49.588,33.052 
		49.7,33.151 49.799,33.25 49.899,33.339 49.999,33.438 50.1,33.538 50.188,33.637 50.278,33.736 50.366,33.835 50.444,33.935 
		50.522,34.034 50.6,34.133 50.667,34.233 50.733,34.333 50.799,34.443 50.856,34.542 50.911,34.641 50.965,34.741 51.01,34.851 
		51.055,34.95 51.1,35.049 51.133,35.149 51.167,35.259 51.188,35.359 51.221,35.458 51.245,35.568 51.254,35.667 51.266,35.767 
		51.278,35.877 51.288,35.976 51.288,36.076 	"/>
	<polygon style="fill-rule:evenodd;clip-rule:evenodd;fill:#117CB0;" points="0.156,8.873 0.156,35.436 51.51,35.436 51.522,8.884 	
		"/>
	
		<rect x="-13.462" y="22.699" transform="matrix(-0.0016 1 -1 -0.0016 23.1992 22.681)" style="fill:#AED7E7;" width="27.479" height="0.445"/>
	<polygon style="fill-rule:evenodd;clip-rule:evenodd;fill:#AED7E7;" points="51.254,9.182 51.254,36.716 51.711,36.716 
		51.711,9.182 51.254,9.182 	"/>
	<polygon style="fill-rule:evenodd;clip-rule:evenodd;fill:#1F1A17;" points="7.544,19.787 7.544,23.307 9.556,23.307 9.556,24.367 
		7.578,24.367 7.578,27.612 2.956,23.837 	"/>
	<polygon style="fill-rule:evenodd;clip-rule:evenodd;fill:#1F1A17;" points="4.444,38.703 4.444,35.17 2.444,35.17 2.444,34.123 
		4.411,34.123 4.411,30.878 9.022,34.641 	"/>
	<polygon style="fill-rule:evenodd;clip-rule:evenodd;fill:#1F1A17;" points="44.944,19.787 44.944,23.307 42.932,23.307 
		42.932,24.367 44.899,24.367 44.899,27.612 49.522,23.837 	"/>
	<polygon style="fill-rule:evenodd;clip-rule:evenodd;fill:#1F1A17;" points="48.034,38.703 48.034,35.17 50.043,35.17 
		50.043,34.123 48.077,34.123 48.077,30.878 43.456,34.641 	"/>
	<polygon style="fill-rule:evenodd;clip-rule:evenodd;fill:#FFFFFF;" points="7.233,19.478 7.233,22.999 9.233,22.999 9.233,24.058 
		7.267,24.058 7.267,27.302 2.655,23.528 	"/>
	<polygon style="fill-rule:evenodd;clip-rule:evenodd;fill:#FFFFFF;" points="4.133,38.382 4.133,34.862 2.122,34.862 2.122,33.802 
		4.1,33.802 4.1,30.569 8.711,34.333 	"/>
	<polygon style="fill-rule:evenodd;clip-rule:evenodd;fill:#FFFFFF;" points="44.633,19.478 44.633,22.999 42.622,22.999 
		42.622,24.058 44.588,24.058 44.588,27.302 49.211,23.528 	"/>
	<polygon style="fill-rule:evenodd;clip-rule:evenodd;fill:#FFFFFF;" points="47.721,38.382 47.721,34.862 49.721,34.862 
		49.721,33.802 47.766,33.802 47.766,30.569 43.143,34.333 	"/>
	<polygon style="fill-rule:evenodd;clip-rule:evenodd;fill:#1E9AD7;" points="51.51,8.95 51.477,9.402 51.377,9.844 51.221,10.285 
		50.989,10.716 50.7,11.135 50.356,11.543 49.956,11.952 49.499,12.349 48.989,12.735 48.422,13.11 47.799,13.475 47.133,13.828 
		46.411,14.17 45.655,14.501 44.844,14.821 44,15.119 43.11,15.417 42.178,15.682 41.211,15.947 40.2,16.189 39.167,16.41 
		38.088,16.62 36.989,16.818 35.844,16.995 34.688,17.149 33.489,17.282 32.278,17.403 31.034,17.502 29.778,17.58 28.489,17.635 
		27.188,17.668 25.866,17.679 24.555,17.668 23.255,17.635 21.966,17.58 20.7,17.502 19.466,17.403 18.255,17.282 17.055,17.149 
		15.889,16.995 14.755,16.818 13.655,16.62 12.578,16.41 11.533,16.189 10.533,15.947 9.566,15.682 8.633,15.417 7.744,15.119 
		6.9,14.821 6.089,14.501 5.322,14.17 4.611,13.828 3.944,13.475 3.322,13.11 2.755,12.735 2.245,12.349 1.789,11.952 1.378,11.543 
		1.044,11.135 0.755,10.716 0.522,10.285 0.367,9.844 0.267,9.402 0.233,8.95 0.267,8.508 0.367,8.067 0.522,7.625 0.755,7.195 
		1.044,6.776 1.378,6.356 1.789,5.959 2.245,5.562 2.755,5.176 3.322,4.8 3.944,4.437 4.611,4.083 5.322,3.741 6.089,3.41 6.9,3.09 
		7.744,2.781 8.633,2.494 9.566,2.218 10.533,1.964 11.533,1.722 12.578,1.49 13.655,1.28 14.755,1.092 15.889,0.916 17.055,0.761 
		18.255,0.618 19.466,0.508 20.7,0.408 21.966,0.331 23.255,0.276 24.555,0.243 25.866,0.232 27.188,0.243 28.489,0.276 
		29.778,0.331 31.034,0.408 32.278,0.508 33.489,0.618 34.688,0.761 35.844,0.916 36.989,1.092 38.088,1.28 39.167,1.49 40.2,1.722 
		41.211,1.964 42.178,2.218 43.11,2.494 44,2.781 44.844,3.09 45.655,3.41 46.411,3.741 47.133,4.083 47.799,4.437 48.422,4.8 
		48.989,5.176 49.499,5.562 49.956,5.959 50.356,6.356 50.7,6.776 50.989,7.195 51.221,7.625 51.377,8.067 51.477,8.508 	"/>
	<polyline style="fill:none;stroke:#AED7E7;stroke-width:0.0662;stroke-linecap:round;stroke-miterlimit:10;" points="51.51,8.95 
		51.477,9.402 51.377,9.844 51.221,10.285 50.989,10.716 50.7,11.135 50.356,11.543 49.956,11.952 49.499,12.349 48.989,12.735 
		48.422,13.11 47.799,13.475 47.133,13.828 46.411,14.17 45.655,14.501 44.844,14.821 44,15.119 43.11,15.417 42.178,15.682 
		41.211,15.947 40.2,16.189 39.167,16.41 38.088,16.62 36.989,16.818 35.844,16.995 34.688,17.149 33.489,17.282 32.278,17.403 
		31.034,17.502 29.778,17.58 28.489,17.635 27.188,17.668 25.866,17.679 24.555,17.668 23.255,17.635 21.966,17.58 20.7,17.502 
		19.466,17.403 18.255,17.282 17.055,17.149 15.889,16.995 14.755,16.818 13.655,16.62 12.578,16.41 11.533,16.189 10.533,15.947 
		9.566,15.682 8.633,15.417 7.744,15.119 6.9,14.821 6.089,14.501 5.322,14.17 4.611,13.828 3.944,13.475 3.322,13.11 2.755,12.735 
		2.245,12.349 1.789,11.952 1.378,11.543 1.044,11.135 0.755,10.716 0.522,10.285 0.367,9.844 0.267,9.402 0.233,8.95 0.267,8.508 
		0.367,8.067 0.522,7.625 0.755,7.195 1.044,6.776 1.378,6.356 1.789,5.959 2.245,5.562 2.755,5.176 3.322,4.8 3.944,4.437 
		4.611,4.083 5.322,3.741 6.089,3.41 6.9,3.09 7.744,2.781 8.633,2.494 9.566,2.218 10.533,1.964 11.533,1.722 12.578,1.49 
		13.655,1.28 14.755,1.092 15.889,0.916 17.055,0.761 18.255,0.618 19.466,0.508 20.7,0.408 21.966,0.331 23.255,0.276 
		24.555,0.243 25.866,0.232 27.188,0.243 28.489,0.276 29.778,0.331 31.034,0.408 32.278,0.508 33.489,0.618 34.688,0.761 
		35.844,0.916 36.989,1.092 38.088,1.28 39.167,1.49 40.2,1.722 41.211,1.964 42.178,2.218 43.11,2.494 44,2.781 44.844,3.09 
		45.655,3.41 46.411,3.741 47.133,4.083 47.799,4.437 48.422,4.8 48.989,5.176 49.499,5.562 49.956,5.959 50.356,6.356 50.7,6.776 
		50.989,7.195 51.221,7.625 51.377,8.067 51.477,8.508 51.51,8.95 	"/>
	<polygon style="fill:#AED7E7;" points="25.866,17.9 25.866,17.9 26.533,17.9 27.188,17.889 27.844,17.878 28.5,17.856 
		29.145,17.833 29.788,17.801 30.422,17.768 31.055,17.723 31.678,17.679 32.299,17.624 32.911,17.569 33.522,17.514 34.122,17.447 
		34.711,17.37 35.299,17.293 35.877,17.216 36.456,17.127 37.022,17.039 37.577,16.951 38.133,16.852 38.678,16.741 39.211,16.631 
		39.733,16.521 40.254,16.41 40.766,16.289 41.266,16.156 41.754,16.035 42.245,15.902 42.477,15.836 42.711,15.77 42.944,15.693 
		43.178,15.626 43.399,15.549 43.633,15.483 43.856,15.406 44.077,15.34 44.288,15.262 44.51,15.185 44.721,15.108 44.932,15.031 
		45.133,14.954 45.344,14.876 45.543,14.788 45.745,14.71 45.932,14.623 46.133,14.545 46.321,14.468 46.51,14.379 46.7,14.292 
		46.877,14.203 47.055,14.115 47.233,14.026 47.411,13.949 47.577,13.85 47.745,13.762 47.911,13.673 48.067,13.585 48.221,13.486 
		48.389,13.397 48.534,13.298 48.688,13.21 48.833,13.11 48.977,13.011 49.11,12.923 49.245,12.824 49.377,12.724 49.51,12.625 
		49.633,12.525 49.754,12.426 49.877,12.327 49.999,12.216 50.11,12.117 50.221,12.018 50.321,11.908 50.422,11.808 50.522,11.698 
		50.622,11.587 50.711,11.488 50.799,11.378 50.889,11.268 50.965,11.157 51.043,11.047 51.11,10.937 51.188,10.826 51.254,10.716 
		51.311,10.605 51.366,10.495 51.422,10.374 51.477,10.263 51.522,10.142 51.555,10.032 51.6,9.91 51.633,9.789 51.655,9.667 
		51.676,9.557 51.7,9.436 51.721,9.314 51.733,9.193 51.733,9.071 51.733,8.95 51.288,8.95 51.288,9.061 51.278,9.16 51.266,9.27 
		51.254,9.369 51.245,9.469 51.221,9.579 51.188,9.678 51.167,9.778 51.133,9.888 51.1,9.987 51.055,10.086 51.01,10.186 
		50.965,10.296 50.911,10.396 50.856,10.495 50.799,10.594 50.733,10.694 50.667,10.793 50.6,10.903 50.522,11.002 50.444,11.102 
		50.366,11.201 50.278,11.301 50.188,11.4 50.1,11.499 49.999,11.587 49.899,11.698 49.799,11.786 49.7,11.885 49.588,11.985 
		49.465,12.084 49.356,12.172 49.233,12.272 49.11,12.36 48.989,12.459 48.856,12.559 48.721,12.647 48.577,12.735 48.444,12.834 
		48.299,12.923 48.143,13.011 47.999,13.11 47.844,13.199 47.688,13.287 47.534,13.375 47.366,13.463 47.2,13.541 47.034,13.629 
		46.856,13.717 46.688,13.806 46.499,13.883 46.321,13.971 46.133,14.06 45.956,14.137 45.766,14.214 45.567,14.292 45.366,14.379 
		45.178,14.457 44.977,14.534 44.766,14.611 44.567,14.688 44.356,14.766 44.143,14.832 43.922,14.909 43.711,14.986 43.489,15.053 
		43.266,15.13 43.043,15.196 42.811,15.262 42.588,15.34 42.356,15.406 42.122,15.472 41.643,15.604 41.155,15.726 40.655,15.847 
		40.155,15.969 39.643,16.079 39.122,16.201 38.588,16.3 38.043,16.41 37.5,16.499 36.944,16.598 36.389,16.686 35.823,16.774 
		35.245,16.852 34.655,16.929 34.067,16.995 33.467,17.061 32.866,17.127 32.254,17.183 31.645,17.238 31.022,17.282 30.399,17.315 
		29.766,17.359 29.133,17.392 28.489,17.415 27.833,17.425 27.188,17.447 26.533,17.447 25.866,17.458 25.866,17.458 25.866,17.458 
		25.844,17.458 25.822,17.458 25.789,17.47 25.767,17.47 25.755,17.48 25.733,17.492 25.722,17.514 25.7,17.525 25.688,17.536 
		25.678,17.558 25.667,17.58 25.667,17.591 25.655,17.613 25.644,17.635 25.644,17.657 25.644,17.679 25.644,17.701 25.644,17.723 
		25.655,17.746 25.667,17.756 25.667,17.779 25.678,17.801 25.688,17.823 25.7,17.833 25.722,17.845 25.733,17.867 25.755,17.878 
		25.767,17.889 25.789,17.889 25.822,17.9 25.844,17.9 	"/>
	<polygon style="fill:#AED7E7;" points="0,8.95 0,8.95 0.011,9.071 0.011,9.193 0.022,9.314 0.044,9.436 0.056,9.557 0.089,9.667 
		0.111,9.789 0.145,9.91 0.178,10.032 0.222,10.142 0.267,10.263 0.322,10.374 0.378,10.495 0.433,10.605 0.489,10.716 
		0.556,10.826 0.622,10.937 0.7,11.047 0.778,11.157 0.855,11.268 0.944,11.378 1.033,11.488 1.122,11.587 1.222,11.698 
		1.311,11.808 1.422,11.908 1.522,12.018 1.633,12.117 1.745,12.216 1.867,12.327 1.978,12.426 2.111,12.525 2.233,12.625 
		2.367,12.724 2.5,12.824 2.633,12.923 2.767,13.011 2.911,13.11 3.056,13.21 3.211,13.298 3.355,13.397 3.511,13.486 3.667,13.585 
		3.833,13.673 4,13.762 4.167,13.85 4.333,13.949 4.511,14.026 4.689,14.115 4.867,14.203 5.044,14.292 5.233,14.379 5.422,14.468 
		5.611,14.545 5.811,14.623 6,14.71 6.2,14.788 6.4,14.876 6.611,14.954 6.811,15.031 7.022,15.108 7.233,15.185 7.456,15.262 
		7.667,15.34 7.889,15.406 8.111,15.483 8.344,15.549 8.566,15.626 8.8,15.693 9.033,15.77 9.267,15.836 9.5,15.902 9.989,16.035 
		10.478,16.156 10.978,16.289 11.489,16.41 12.011,16.521 12.533,16.631 13.066,16.741 13.611,16.852 14.167,16.951 14.722,17.039 
		15.289,17.127 15.867,17.216 16.444,17.293 17.033,17.37 17.622,17.447 18.222,17.514 18.833,17.569 19.444,17.624 20.066,17.679 
		20.688,17.723 21.322,17.768 21.955,17.801 22.6,17.833 23.244,17.856 23.889,17.878 24.544,17.889 25.211,17.9 25.866,17.9 
		25.866,17.458 25.211,17.447 24.555,17.447 23.911,17.425 23.255,17.415 22.611,17.392 21.978,17.359 21.344,17.315 20.722,17.282 
		20.1,17.238 19.489,17.183 18.877,17.127 18.277,17.061 17.678,16.995 17.089,16.929 16.5,16.852 15.922,16.774 15.355,16.686 
		14.8,16.598 14.244,16.499 13.688,16.41 13.155,16.3 12.622,16.201 12.1,16.079 11.589,15.969 11.089,15.847 10.589,15.726 
		10.1,15.604 9.622,15.472 9.389,15.406 9.155,15.34 8.933,15.262 8.7,15.196 8.478,15.13 8.255,15.053 8.033,14.986 7.822,14.909 
		7.6,14.832 7.389,14.766 7.178,14.688 6.978,14.611 6.767,14.534 6.566,14.457 6.367,14.379 6.178,14.292 5.978,14.214 
		5.789,14.137 5.6,14.06 5.422,13.971 5.244,13.883 5.056,13.806 4.889,13.717 4.711,13.629 4.544,13.541 4.378,13.463 
		4.211,13.375 4.056,13.287 3.9,13.199 3.744,13.11 3.589,13.011 3.444,12.923 3.3,12.834 3.155,12.735 3.022,12.647 2.889,12.559 
		2.755,12.459 2.633,12.36 2.511,12.272 2.389,12.172 2.267,12.084 2.155,11.985 2.044,11.885 1.944,11.786 1.833,11.698 
		1.733,11.587 1.645,11.499 1.556,11.4 1.467,11.301 1.378,11.201 1.3,11.102 1.222,11.002 1.145,10.903 1.078,10.793 1.011,10.694 
		0.944,10.594 0.889,10.495 0.833,10.396 0.778,10.296 0.733,10.186 0.689,10.086 0.645,9.987 0.611,9.888 0.578,9.778 0.544,9.678 
		0.522,9.579 0.5,9.469 0.489,9.369 0.478,9.27 0.467,9.16 0.456,9.061 0.456,8.95 0.456,8.95 0.456,8.95 0.456,8.928 0.456,8.895 
		0.444,8.873 0.433,8.851 0.422,8.84 0.411,8.817 0.4,8.795 0.389,8.785 0.367,8.773 0.355,8.762 0.333,8.751 0.311,8.74 
		0.289,8.74 0.278,8.729 0.255,8.729 0.233,8.729 0.211,8.729 0.189,8.729 0.167,8.74 0.145,8.74 0.133,8.751 0.111,8.762 
		0.089,8.773 0.078,8.785 0.056,8.795 0.044,8.817 0.033,8.84 0.022,8.851 0.011,8.873 0.011,8.895 0,8.928 	"/>
	<polygon style="fill:#AED7E7;" points="25.866,0 25.866,0 25.211,0.011 24.544,0.022 23.889,0.033 23.244,0.055 22.6,0.077 
		21.955,0.11 21.322,0.144 20.688,0.188 20.066,0.232 19.444,0.287 18.833,0.342 18.222,0.397 17.622,0.463 17.033,0.541 
		16.444,0.618 15.867,0.695 15.289,0.784 14.722,0.872 14.167,0.96 13.611,1.06 13.066,1.17 12.533,1.28 12.011,1.391 11.489,1.501 
		10.978,1.622 10.478,1.744 9.989,1.876 9.5,2.008 9.033,2.141 8.566,2.284 8.344,2.351 8.111,2.428 7.889,2.505 7.667,2.571 
		7.456,2.648 7.233,2.726 7.022,2.803 6.811,2.88 6.611,2.958 6.4,3.035 6.2,3.123 6,3.2 5.811,3.278 5.611,3.366 5.422,3.443 
		5.233,3.531 5.044,3.62 4.867,3.708 4.689,3.796 4.511,3.874 4.333,3.962 4.167,4.05 4,4.149 3.833,4.238 3.667,4.326 3.511,4.415 
		3.355,4.514 3.211,4.613 3.056,4.701 2.911,4.8 2.767,4.9 2.633,4.988 2.5,5.087 2.367,5.187 2.233,5.286 2.111,5.385 1.978,5.485 
		1.867,5.584 1.745,5.694 1.633,5.794 1.522,5.893 1.422,6.003 1.311,6.103 1.222,6.213 1.122,6.313 1.033,6.423 0.944,6.533 
		0.855,6.644 0.778,6.754 0.7,6.864 0.633,6.975 0.556,7.085 0.489,7.195 0.433,7.306 0.378,7.416 0.322,7.538 0.267,7.648 
		0.222,7.769 0.178,7.879 0.145,8.001 0.111,8.111 0.089,8.233 0.056,8.354 0.044,8.476 0.022,8.597 0.011,8.718 0.011,8.829 
		0,8.95 0.456,8.95 0.456,8.851 0.467,8.751 0.478,8.641 0.489,8.542 0.5,8.431 0.522,8.332 0.544,8.233 0.578,8.122 0.611,8.023 
		0.645,7.924 0.689,7.824 0.733,7.714 0.778,7.615 0.833,7.515 0.889,7.416 0.944,7.306 1.011,7.207 1.078,7.107 1.145,7.008 
		1.222,6.908 1.3,6.809 1.378,6.709 1.467,6.61 1.556,6.511 1.645,6.412 1.733,6.313 1.833,6.213 1.944,6.125 2.044,6.025 
		2.155,5.926 2.267,5.827 2.389,5.739 2.511,5.639 2.633,5.54 2.755,5.452 2.889,5.353 3.022,5.264 3.155,5.165 3.3,5.077 
		3.444,4.988 3.589,4.9 3.744,4.8 3.9,4.712 4.056,4.624 4.211,4.536 4.378,4.447 4.544,4.359 4.711,4.282 4.889,4.193 5.056,4.105 
		5.244,4.028 5.422,3.94 5.6,3.852 5.789,3.774 5.978,3.697 6.178,3.609 6.367,3.531 6.566,3.454 6.767,3.377 6.978,3.3 
		7.178,3.223 7.389,3.145 7.6,3.068 7.822,3.001 8.033,2.924 8.255,2.847 8.478,2.781 8.7,2.715 9.155,2.571 9.622,2.439 
		10.1,2.307 10.589,2.185 11.089,2.053 11.589,1.942 12.1,1.821 12.622,1.71 13.155,1.611 13.688,1.501 14.244,1.401 14.8,1.313 
		15.355,1.225 15.922,1.137 16.5,1.06 17.089,0.982 17.678,0.916 18.277,0.85 18.877,0.784 19.489,0.729 20.1,0.673 20.722,0.629 
		21.344,0.596 21.978,0.552 22.611,0.519 23.255,0.497 23.911,0.475 24.555,0.463 25.211,0.453 25.866,0.453 25.866,0.453 
		25.866,0.453 25.9,0.453 25.922,0.453 25.944,0.441 25.966,0.441 25.989,0.419 26.011,0.408 26.022,0.397 26.044,0.386 
		26.055,0.364 26.066,0.353 26.078,0.331 26.078,0.309 26.088,0.287 26.1,0.276 26.1,0.254 26.1,0.232 26.1,0.209 26.1,0.188 
		26.088,0.166 26.078,0.144 26.078,0.132 26.066,0.11 26.055,0.088 26.044,0.077 26.022,0.055 26.011,0.044 25.989,0.033 
		25.966,0.022 25.944,0.011 25.922,0.011 25.9,0 	"/>
	<polygon style="fill:#AED7E7;" points="51.733,8.95 51.733,8.829 51.733,8.718 51.721,8.597 51.7,8.476 51.676,8.354 51.655,8.233 
		51.633,8.111 51.6,8.001 51.555,7.879 51.522,7.769 51.477,7.648 51.422,7.538 51.366,7.416 51.311,7.306 51.254,7.195 
		51.188,7.085 51.11,6.975 51.043,6.864 50.965,6.754 50.889,6.644 50.799,6.533 50.711,6.423 50.622,6.313 50.522,6.213 
		50.422,6.103 50.321,6.003 50.221,5.893 50.11,5.794 49.999,5.694 49.877,5.584 49.754,5.485 49.633,5.385 49.51,5.286 
		49.377,5.187 49.245,5.087 49.11,4.988 48.977,4.9 48.833,4.8 48.688,4.701 48.534,4.613 48.389,4.514 48.221,4.415 48.067,4.326 
		47.911,4.238 47.745,4.149 47.577,4.05 47.411,3.962 47.233,3.874 47.055,3.796 46.877,3.708 46.7,3.62 46.51,3.531 46.321,3.443 
		46.133,3.366 45.932,3.278 45.745,3.2 45.543,3.123 45.344,3.035 45.133,2.958 44.932,2.88 44.721,2.803 44.51,2.726 44.288,2.648 
		44.077,2.571 43.856,2.505 43.633,2.428 43.399,2.351 43.178,2.284 42.711,2.141 42.245,2.008 41.754,1.876 41.266,1.744 
		40.766,1.622 40.254,1.501 39.733,1.391 39.211,1.28 38.678,1.17 38.133,1.06 37.577,0.96 37.022,0.872 36.456,0.784 35.877,0.695 
		35.299,0.618 34.711,0.541 34.122,0.463 33.522,0.397 32.911,0.342 32.299,0.287 31.678,0.232 31.055,0.188 30.422,0.144 
		29.788,0.11 29.145,0.077 28.5,0.055 27.844,0.033 27.188,0.022 26.533,0.011 25.866,0 25.866,0.453 26.533,0.453 27.188,0.463 
		27.833,0.475 28.489,0.497 29.133,0.519 29.766,0.552 30.399,0.596 31.022,0.629 31.645,0.673 32.254,0.729 32.866,0.784 
		33.467,0.85 34.067,0.916 34.655,0.982 35.245,1.06 35.823,1.137 36.389,1.225 36.944,1.313 37.5,1.401 38.043,1.501 38.588,1.611 
		39.122,1.71 39.643,1.821 40.155,1.942 40.655,2.053 41.155,2.185 41.643,2.307 42.122,2.439 42.588,2.571 43.043,2.715 
		43.266,2.781 43.489,2.847 43.711,2.924 43.922,3.001 44.143,3.068 44.356,3.145 44.567,3.223 44.766,3.3 44.977,3.377 
		45.178,3.454 45.377,3.531 45.567,3.609 45.766,3.697 45.956,3.774 46.133,3.852 46.321,3.94 46.499,4.028 46.688,4.105 
		46.856,4.193 47.034,4.282 47.2,4.359 47.366,4.447 47.534,4.536 47.688,4.624 47.844,4.712 47.999,4.8 48.143,4.9 48.299,4.988 
		48.444,5.077 48.577,5.165 48.721,5.264 48.856,5.353 48.989,5.452 49.11,5.54 49.233,5.639 49.356,5.739 49.465,5.827 
		49.588,5.926 49.7,6.025 49.799,6.125 49.899,6.213 49.999,6.313 50.1,6.412 50.188,6.511 50.278,6.61 50.366,6.709 50.444,6.809 
		50.522,6.908 50.6,7.008 50.667,7.107 50.733,7.207 50.799,7.306 50.856,7.416 50.911,7.515 50.965,7.615 51.01,7.714 
		51.055,7.824 51.1,7.924 51.133,8.023 51.167,8.122 51.188,8.233 51.221,8.332 51.245,8.431 51.254,8.542 51.266,8.641 
		51.278,8.751 51.288,8.851 51.288,8.95 	"/>
	<polygon style="fill-rule:evenodd;clip-rule:evenodd;fill:#1F1A17;" points="26.533,7.03 30.311,8.266 39.233,4.734 43.411,5.75 
		41.211,2.604 30.456,2.604 34.944,3.697 	"/>
	<polygon style="fill-rule:evenodd;clip-rule:evenodd;fill:#1F1A17;" points="24.966,10.627 21.188,9.38 12.267,12.923 8.1,11.908 
		10.289,15.053 21.044,15.053 16.555,13.96 	"/>
	<polygon style="fill-rule:evenodd;clip-rule:evenodd;fill:#1F1A17;" points="9.011,3.697 12.789,2.45 21.722,5.981 25.889,4.977 
		23.688,8.111 12.933,8.111 17.433,7.03 	"/>
	<polygon style="fill-rule:evenodd;clip-rule:evenodd;fill:#1F1A17;" points="42.856,14.192 39.077,15.439 30.145,11.896 
		25.978,12.912 28.178,9.767 38.932,9.767 34.444,10.859 	"/>
	<polygon style="fill-rule:evenodd;clip-rule:evenodd;fill:#FFFFFF;" points="26.844,7.339 30.622,8.586 39.555,5.043 43.721,6.059 
		41.522,2.914 30.766,2.914 35.266,4.006 	"/>
	<polygon style="fill-rule:evenodd;clip-rule:evenodd;fill:#FFFFFF;" points="25.289,10.937 21.511,9.7 12.578,13.232 8.411,12.216 
		10.611,15.362 21.366,15.362 16.867,14.269 	"/>
	<polygon style="fill-rule:evenodd;clip-rule:evenodd;fill:#FFFFFF;" points="9.322,4.006 13.1,2.759 22.033,6.301 26.2,5.286 
		24,8.431 13.244,8.431 17.744,7.339 	"/>
	<polygon style="fill-rule:evenodd;clip-rule:evenodd;fill:#FFFFFF;" points="43.167,14.501 39.389,15.748 30.467,12.216 
		26.3,13.221 28.489,10.086 39.245,10.086 34.754,11.179 	"/>
	<polygon style="fill-rule:evenodd;clip-rule:evenodd;fill:#FFFFFF;" points="38.799,25.514 38.778,42.907 13.278,42.907 
		13.255,25.514 	"/>
	<polygon style="fill:#0D6187;" points="38.778,43.282 39.143,42.907 39.178,25.514 38.422,25.514 38.399,42.907 38.778,43.282 
		38.778,43.282 39.143,43.282 39.143,42.907 	"/>
	<polygon style="fill:#0D6187;" points="12.911,42.907 13.278,43.282 38.778,43.282 38.778,42.532 13.278,42.532 12.911,42.907 
		12.911,42.907 12.911,43.282 13.278,43.282 	"/>
	<polygon style="fill:#0D6187;" points="13.255,25.139 12.877,25.514 12.911,42.907 13.655,42.907 13.633,25.514 13.255,25.139 
		13.255,25.139 12.877,25.139 12.877,25.514 	"/>
	<polygon style="fill:#0D6187;" points="39.178,25.514 38.799,25.139 13.255,25.139 13.255,25.89 38.799,25.89 39.178,25.514 
		39.178,25.514 39.178,25.139 38.799,25.139 	"/>
	<polygon style="fill-rule:evenodd;clip-rule:evenodd;fill:#FFFFFF;" points="37.555,26.497 37.534,29.631 14.589,29.631 
		14.566,26.497 	"/>
	<polygon style="fill:#0D6187;" points="37.534,30.006 37.911,29.631 37.932,26.508 37.188,26.497 37.155,29.631 37.534,30.006 
		37.534,30.006 37.911,30.006 37.911,29.631 	"/>
	<polygon style="fill:#0D6187;" points="14.222,29.631 14.589,30.006 37.534,30.006 37.534,29.255 14.589,29.255 14.222,29.631 
		14.222,29.631 14.222,30.006 14.589,30.006 	"/>
	<polygon style="fill:#0D6187;" points="14.566,26.132 14.2,26.497 14.222,29.631 14.966,29.631 14.944,26.497 14.566,26.132 
		14.566,26.132 14.2,26.132 14.2,26.497 	"/>
	<polygon style="fill:#0D6187;" points="37.932,26.508 37.555,26.132 14.566,26.132 14.566,26.872 37.555,26.872 37.932,26.508 
		37.932,26.508 37.932,26.132 37.555,26.132 	"/>
	<polygon style="fill-rule:evenodd;clip-rule:evenodd;fill:#FFFFFF;" points="37.344,30.977 37.323,41.792 14.688,41.792 
		14.678,30.977 	"/>
	<polygon style="fill:#0D6187;" points="37.323,42.178 37.688,41.792 37.711,30.977 36.965,30.977 36.944,41.792 37.323,42.178 
		37.323,42.178 37.688,42.178 37.688,41.792 	"/>
	<polygon style="fill:#0D6187;" points="14.311,41.792 14.688,42.178 37.323,42.178 37.323,41.428 14.688,41.428 14.311,41.792 
		14.311,41.792 14.311,42.178 14.688,42.178 	"/>
	<polygon style="fill:#0D6187;" points="14.678,30.602 14.3,30.977 14.311,41.792 15.066,41.792 15.044,30.977 14.678,30.602 
		14.678,30.602 14.3,30.602 14.3,30.977 	"/>
	<polygon style="fill:#0D6187;" points="37.711,30.977 37.344,30.602 14.678,30.602 14.678,31.352 37.344,31.352 37.711,30.977 
		37.711,30.977 37.711,30.602 37.344,30.602 	"/>
	<polygon style="fill:#0D6187;" points="15.989,40.943 16.367,41.307 35.688,41.307 35.688,40.567 16.367,40.567 15.989,40.943 
		15.989,40.943 15.989,41.307 16.367,41.307 	"/>
	<polygon style="fill:#0D6187;" points="16.367,31.143 15.989,31.518 15.989,40.943 16.744,40.943 16.744,31.518 16.367,31.143 
		16.367,31.143 15.989,31.143 15.989,31.518 	"/>
	<polygon style="fill:#0D6187;" points="36.067,31.518 35.688,31.143 16.367,31.143 16.367,31.882 35.688,31.882 36.067,31.518 
		36.067,31.518 36.067,31.143 35.688,31.143 	"/>
	<polygon style="fill:#0D6187;" points="35.688,41.307 36.067,40.943 36.067,31.518 35.311,31.518 35.311,40.943 35.688,41.307 
		35.688,41.307 36.067,41.307 36.067,40.943 	"/>
	<polygon style="fill-rule:evenodd;clip-rule:evenodd;fill:#FFFFFF;" points="14.678,30.977 26.433,36.892 37.344,30.977 	"/>
	<polygon style="fill:#0D6187;" points="26.61,37.223 26.6,36.561 14.844,30.646 14.5,31.308 26.255,37.235 26.61,37.223 
		26.255,37.235 26.433,37.312 	"/>
	<polygon style="fill:#0D6187;" points="37.344,30.602 37.155,30.646 26.255,36.573 26.61,37.223 37.522,31.308 37.344,30.602 
		37.522,31.308 38.778,30.602 	"/>
	<polygon style="fill:#0D6187;" points="14.5,31.308 14.678,31.352 37.344,31.352 37.344,30.602 14.678,30.602 14.5,31.308 
		14.678,30.602 13.133,30.602 	"/>
	<polygon style="fill-rule:evenodd;clip-rule:evenodd;fill:#1F1A17;" points="12.7,20.516 11.078,24.356 11.855,25.57 
		17.978,24.477 18.066,21.851 18.111,21.597 18.188,21.343 18.355,21.089 18.622,20.891 18.911,20.736 19.222,20.681 19.178,20.703 
		33.043,20.703 33.356,20.714 33.543,20.769 33.754,20.857 34.043,21.034 34.188,21.244 34.311,21.52 34.356,21.729 34.543,24.543 
		40.643,25.537 41.311,24.102 39.866,20.516 39.333,20.25 38.288,19.986 37.178,19.721 36.055,19.511 34.788,19.301 33.522,19.136 
		32.2,19.015 30.922,18.959 23.544,18.948 22.533,18.97 21.511,18.959 20.5,19.003 18.922,19.114 17.566,19.324 16.422,19.533 
		15.433,19.743 14.456,19.963 13.411,20.262 	"/>
	<polygon style="fill-rule:evenodd;clip-rule:evenodd;fill:#FFFFFF;" points="12.5,20.306 10.867,24.146 11.655,25.372 
		17.767,24.268 17.855,21.641 17.911,21.387 17.989,21.133 18.155,20.891 18.422,20.692 18.711,20.538 19.011,20.471 18.966,20.493 
		32.844,20.493 33.155,20.516 33.344,20.571 33.543,20.648 33.833,20.835 33.989,21.045 34.11,21.321 34.155,21.531 34.333,24.333 
		40.444,25.338 41.11,23.904 39.655,20.306 39.133,20.052 38.088,19.776 36.965,19.511 35.856,19.301 34.577,19.103 33.323,18.938 
		32,18.805 30.721,18.75 23.344,18.739 22.333,18.772 21.3,18.761 20.3,18.794 18.722,18.904 17.366,19.125 16.211,19.334 
		15.233,19.544 14.255,19.754 13.211,20.052 	"/>
</g>
</svg>