<?xml version="1.0" encoding="utf-8"?>
<!DOCTYPE svg PUBLIC "-//W3C//DTD SVG 1.1//EN" "http://www.w3.org/Graphics/SVG/1.1/DTD/svg11.dtd">
<svg version="1.1" xmlns="http://www.w3.org/2000/svg" xmlns:xlink="http://www.w3.org/1999/xlink" width="46" height="32" viewBox="0 0 46 32">
<g>
	<polygon fill="#117CAE" points="45.848,22.191 45.818,22.65 45.729,23.11 45.591,23.568 45.393,24.017 45.135,24.452 
		44.827,24.878 44.461,25.302 44.053,25.715 43.598,26.117 43.093,26.507 42.538,26.886 41.943,27.253 41.309,27.609 40.635,27.955 
		39.911,28.276 39.158,28.597 38.366,28.895 37.534,29.182 36.671,29.446 35.778,29.699 34.847,29.94 33.885,30.158 32.905,30.354 
		31.894,30.538 30.853,30.697 29.792,30.847 28.703,30.973 27.602,31.065 26.471,31.146 25.333,31.203 24.173,31.237 22.993,31.249 
		21.823,31.237 20.665,31.203 19.524,31.146 18.395,31.065 17.295,30.973 16.204,30.847 15.144,30.697 14.104,30.538 13.093,30.354 
		12.112,30.158 11.15,29.94 10.219,29.699 9.326,29.446 8.465,29.182 7.631,28.895 6.839,28.597 6.086,28.276 5.362,27.955 
		4.688,27.609 4.044,27.253 3.449,26.886 2.904,26.507 2.398,26.117 1.942,25.715 1.527,25.302 1.17,24.878 0.862,24.452 
		0.604,24.017 0.406,23.568 0.267,23.11 0.178,22.65 0.149,22.191 0.178,21.721 0.267,21.261 0.406,20.801 0.604,20.365 
		0.862,19.918 1.17,19.494 1.527,19.069 1.942,18.655 2.398,18.253 2.904,17.863 3.449,17.484 4.044,17.117 4.688,16.761 
		5.362,16.417 6.086,16.095 6.839,15.774 7.631,15.475 8.465,15.188 9.326,14.925 10.219,14.671 11.15,14.431 12.112,14.213 
		13.093,14.017 14.104,13.833 15.144,13.673 16.204,13.523 17.295,13.409 18.395,13.305 19.524,13.225 20.665,13.168 21.823,13.133 
		22.993,13.121 24.173,13.133 25.333,13.168 26.471,13.225 27.602,13.305 28.703,13.409 29.792,13.523 30.853,13.673 31.894,13.833 
		32.905,14.017 33.885,14.213 34.847,14.431 35.778,14.671 36.671,14.925 37.534,15.188 38.366,15.475 39.158,15.774 39.911,16.095 
		40.635,16.417 41.309,16.761 41.943,17.117 42.538,17.484 43.093,17.863 43.598,18.253 44.053,18.655 44.461,19.069 44.827,19.494 
		45.135,19.918 45.393,20.365 45.591,20.801 45.729,21.261 45.818,21.721 	"/>
	<polygon fill="#AED7E7" points="22.993,31.409 22.993,31.409 23.588,31.409 24.173,31.398 24.758,31.386 25.342,31.364 
		25.917,31.341 26.481,31.306 27.047,31.272 27.612,31.226 28.167,31.18 28.721,31.122 29.268,31.065 29.802,31.008 30.338,30.938 
		30.873,30.869 31.399,30.791 31.912,30.697 32.419,30.606 32.924,30.514 33.419,30.422 33.915,30.319 34.401,30.216 34.877,30.101 
		35.343,29.986 35.808,29.86 36.254,29.734 36.699,29.607 37.147,29.469 37.573,29.343 37.781,29.262 37.989,29.193 38.198,29.125 
		38.405,29.056 38.603,28.976 38.802,28.895 38.999,28.826 39.198,28.747 39.396,28.666 39.585,28.597 39.773,28.516 39.962,28.436 
		40.15,28.355 40.328,28.276 40.506,28.183 40.684,28.104 40.863,28.023 41.031,27.93 41.201,27.839 41.369,27.758 41.527,27.667 
		41.695,27.575 41.855,27.495 42.013,27.403 42.161,27.312 42.321,27.219 42.469,27.116 42.608,27.024 42.756,26.933 42.894,26.84 
		43.033,26.737 43.163,26.645 43.302,26.542 43.43,26.451 43.558,26.347 43.678,26.243 43.797,26.152 43.916,26.049 44.034,25.946 
		44.143,25.842 44.253,25.739 44.352,25.635 44.461,25.532 44.561,25.417 44.659,25.313 44.748,25.21 44.838,25.095 44.927,24.991 
		45.016,24.878 45.095,24.774 45.174,24.66 45.243,24.545 45.313,24.442 45.383,24.326 45.441,24.211 45.501,24.097 45.56,23.982 
		45.619,23.867 45.67,23.752 45.719,23.637 45.759,23.512 45.799,23.396 45.837,23.282 45.868,23.156 45.896,23.042 45.917,22.914 
		45.948,22.799 45.957,22.673 45.977,22.558 45.987,22.432 45.987,22.305 45.987,22.191 45.709,22.191 45.709,22.294 45.7,22.409 
		45.7,22.524 45.679,22.627 45.67,22.742 45.649,22.845 45.63,22.96 45.601,23.063 45.571,23.179 45.541,23.282 45.501,23.396 
		45.462,23.5 45.413,23.615 45.372,23.718 45.323,23.821 45.263,23.925 45.215,24.039 45.145,24.142 45.085,24.246 45.016,24.349 
		44.946,24.464 44.877,24.567 44.797,24.67 44.718,24.774 44.639,24.878 44.55,24.981 44.461,25.084 44.372,25.188 44.272,25.291 
		44.174,25.382 44.074,25.486 43.965,25.589 43.856,25.692 43.747,25.784 43.639,25.887 43.52,25.98 43.4,26.083 43.271,26.174 
		43.143,26.278 43.013,26.37 42.885,26.461 42.756,26.564 42.616,26.657 42.479,26.748 42.329,26.84 42.181,26.933 42.032,27.024 
		41.883,27.116 41.725,27.196 41.577,27.288 41.408,27.381 41.25,27.46 41.092,27.552 40.922,27.633 40.754,27.724 40.576,27.805 
		40.397,27.886 40.229,27.965 40.04,28.046 39.862,28.126 39.684,28.207 39.495,28.287 39.307,28.368 39.11,28.447 38.911,28.516 
		38.721,28.597 38.524,28.666 38.315,28.747 38.117,28.815 37.91,28.884 37.702,28.953 37.492,29.034 37.067,29.159 36.631,29.296 
		36.195,29.424 35.74,29.55 35.283,29.665 34.818,29.779 34.343,29.895 33.866,29.998 33.37,30.101 32.874,30.192 32.379,30.295 
		31.874,30.376 31.357,30.468 30.833,30.538 30.308,30.617 29.772,30.686 29.238,30.744 28.692,30.8 28.148,30.859 27.591,30.904 
		27.036,30.95 26.471,30.985 25.898,31.019 25.333,31.042 24.748,31.065 24.173,31.077 23.588,31.088 22.993,31.088 22.993,31.088 
		22.993,31.088 22.984,31.088 22.964,31.1 22.954,31.1 22.934,31.1 22.924,31.111 22.914,31.122 22.905,31.134 22.894,31.146 
		22.875,31.169 22.864,31.191 22.864,31.226 22.855,31.249 22.864,31.283 22.864,31.306 22.875,31.341 22.894,31.364 22.905,31.374 
		22.914,31.386 22.924,31.398 22.934,31.398 22.954,31.409 22.964,31.409 22.984,31.409 	"/>
	<polygon fill="#AED7E7" points="0,22.191 0,22.191 0.01,22.305 0.01,22.432 0.019,22.558 0.04,22.673 0.049,22.799 0.069,22.914 
		0.099,23.042 0.129,23.156 0.159,23.282 0.198,23.396 0.239,23.512 0.278,23.637 0.326,23.752 0.377,23.867 0.436,23.982 
		0.486,24.097 0.555,24.211 0.615,24.326 0.684,24.442 0.753,24.545 0.823,24.66 0.902,24.774 0.981,24.878 1.071,24.991 
		1.16,25.095 1.248,25.21 1.338,25.313 1.437,25.417 1.536,25.532 1.635,25.635 1.745,25.739 1.853,25.842 1.963,25.946 
		2.081,26.049 2.199,26.152 2.319,26.243 2.438,26.347 2.566,26.451 2.697,26.542 2.834,26.645 2.963,26.737 3.102,26.84 
		3.24,26.933 3.389,27.024 3.528,27.116 3.677,27.219 3.836,27.312 3.984,27.403 4.143,27.495 4.301,27.575 4.47,27.667 
		4.628,27.758 4.797,27.839 4.966,27.93 5.134,28.023 5.312,28.104 5.491,28.183 5.669,28.276 5.847,28.355 6.036,28.436 
		6.224,28.516 6.413,28.597 6.601,28.666 6.798,28.747 6.987,28.826 7.185,28.895 7.393,28.976 7.591,29.056 7.8,29.125 
		8.008,29.193 8.217,29.262 8.424,29.343 8.851,29.469 9.287,29.607 9.742,29.734 10.188,29.86 10.655,29.986 11.119,30.101 
		11.596,30.216 12.082,30.319 12.577,30.422 13.073,30.514 13.578,30.606 14.084,30.697 14.599,30.791 15.124,30.869 15.658,30.938 
		16.184,31.008 16.73,31.065 17.275,31.122 17.83,31.18 18.385,31.226 18.949,31.272 19.515,31.306 20.079,31.341 20.655,31.364 
		21.24,31.386 21.823,31.398 22.408,31.409 22.993,31.409 22.993,31.088 22.408,31.088 21.823,31.077 21.249,31.065 20.665,31.042 
		20.099,31.019 19.524,30.985 18.96,30.95 18.405,30.904 17.849,30.859 17.305,30.8 16.759,30.744 16.214,30.686 15.689,30.617 
		15.164,30.538 14.638,30.468 14.123,30.376 13.617,30.295 13.112,30.192 12.617,30.101 12.131,29.998 11.656,29.895 11.179,29.779 
		10.714,29.665 10.258,29.55 9.801,29.424 9.356,29.296 8.929,29.159 8.504,29.034 8.296,28.953 8.087,28.884 7.879,28.815 
		7.671,28.747 7.473,28.666 7.275,28.597 7.075,28.516 6.887,28.447 6.69,28.368 6.501,28.287 6.314,28.207 6.135,28.126 
		5.947,28.046 5.768,27.965 5.589,27.886 5.422,27.805 5.243,27.724 5.074,27.633 4.906,27.552 4.748,27.46 4.578,27.381 
		4.42,27.288 4.272,27.196 4.113,27.116 3.965,27.024 3.816,26.933 3.667,26.84 3.518,26.748 3.38,26.657 3.24,26.564 3.112,26.461 
		2.973,26.37 2.855,26.278 2.726,26.174 2.596,26.083 2.478,25.98 2.359,25.887 2.25,25.784 2.14,25.692 2.031,25.589 1.922,25.486 
		1.823,25.382 1.725,25.291 1.625,25.188 1.536,25.084 1.448,24.981 1.358,24.878 1.278,24.774 1.199,24.67 1.119,24.567 
		1.041,24.464 0.97,24.361 0.911,24.246 0.843,24.142 0.782,24.039 0.733,23.925 0.674,23.821 0.624,23.718 0.574,23.615 
		0.535,23.5 0.495,23.396 0.456,23.282 0.427,23.179 0.397,23.063 0.366,22.96 0.346,22.845 0.326,22.742 0.307,22.627 
		0.297,22.524 0.287,22.409 0.287,22.294 0.287,22.191 0.287,22.191 0.287,22.191 0.287,22.168 0.278,22.146 0.278,22.133 
		0.267,22.111 0.267,22.099 0.258,22.087 0.247,22.077 0.239,22.064 0.218,22.053 0.198,22.03 0.168,22.03 0.149,22.03 0.119,22.03 
		0.089,22.03 0.069,22.053 0.049,22.064 0.04,22.077 0.03,22.087 0.019,22.099 0.019,22.111 0.01,22.133 0.01,22.146 0,22.168 	"/>
	<polygon fill="#AED7E7" points="22.993,12.961 22.993,12.961 22.408,12.961 21.823,12.973 21.24,12.984 20.655,13.007 
		20.079,13.03 19.515,13.064 18.949,13.099 18.385,13.144 17.83,13.191 17.275,13.248 16.73,13.305 16.184,13.363 15.658,13.432 
		15.124,13.513 14.599,13.592 14.084,13.673 13.578,13.765 13.073,13.856 12.577,13.948 12.082,14.052 11.596,14.167 11.119,14.281 
		10.655,14.384 10.188,14.511 9.742,14.637 9.287,14.764 8.851,14.901 8.424,15.039 8.008,15.177 7.591,15.326 7.393,15.395 
		7.185,15.475 6.987,15.544 6.798,15.625 6.601,15.705 6.413,15.785 6.224,15.866 6.036,15.946 5.847,16.015 5.669,16.107 
		5.491,16.187 5.312,16.268 5.134,16.359 4.966,16.439 4.797,16.531 4.628,16.612 4.47,16.704 4.301,16.796 4.143,16.887 
		3.984,16.979 3.836,17.071 3.677,17.164 3.528,17.254 3.389,17.347 3.24,17.438 3.102,17.53 2.963,17.634 2.834,17.725 
		2.697,17.828 2.566,17.931 2.438,18.024 2.319,18.127 2.199,18.231 2.081,18.322 1.963,18.426 1.853,18.529 1.745,18.633 
		1.635,18.736 1.536,18.851 1.437,18.954 1.338,19.057 1.248,19.16 1.16,19.275 1.071,19.378 0.981,19.494 0.902,19.597 
		0.823,19.711 0.753,19.826 0.684,19.94 0.615,20.043 0.555,20.159 0.486,20.274 0.436,20.389 0.377,20.504 0.326,20.629 
		0.278,20.745 0.239,20.86 0.198,20.974 0.159,21.101 0.129,21.215 0.099,21.33 0.069,21.456 0.049,21.572 0.04,21.697 
		0.019,21.824 0.01,21.939 0.01,22.064 0,22.191 0.287,22.191 0.287,22.077 0.287,21.961 0.297,21.858 0.307,21.744 0.326,21.64 
		0.346,21.525 0.366,21.41 0.397,21.307 0.427,21.204 0.456,21.089 0.495,20.986 0.535,20.87 0.574,20.767 0.624,20.653 
		0.674,20.549 0.733,20.446 0.782,20.331 0.843,20.228 0.911,20.125 0.97,20.021 1.041,19.918 1.119,19.804 1.199,19.7 
		1.278,19.597 1.358,19.494 1.448,19.391 1.536,19.287 1.625,19.183 1.725,19.091 1.823,18.988 1.922,18.885 2.031,18.782 
		2.14,18.689 2.25,18.586 2.359,18.483 2.478,18.391 2.596,18.288 2.726,18.196 2.855,18.093 2.973,18 3.112,17.909 3.24,17.817 
		3.38,17.725 3.518,17.622 3.667,17.53 3.816,17.45 3.965,17.357 4.113,17.266 4.272,17.173 4.42,17.082 4.578,17.002 4.748,16.911 
		4.906,16.818 5.074,16.738 5.243,16.658 5.422,16.565 5.589,16.486 5.768,16.405 5.947,16.324 6.135,16.244 6.314,16.165 
		6.501,16.083 6.69,16.003 6.887,15.935 7.075,15.854 7.275,15.774 7.473,15.705 7.671,15.625 8.087,15.486 8.504,15.349 
		8.929,15.211 9.356,15.084 9.801,14.948 10.258,14.833 10.714,14.706 11.179,14.591 11.656,14.477 12.131,14.373 12.617,14.27 
		13.112,14.178 13.617,14.074 14.123,13.995 14.638,13.914 15.164,13.833 15.689,13.753 16.214,13.685 16.759,13.627 17.305,13.569 
		17.849,13.513 18.405,13.466 18.96,13.421 19.524,13.386 20.099,13.352 20.665,13.329 21.249,13.305 21.823,13.294 22.408,13.282 
		22.993,13.282 22.993,13.282 22.993,13.282 23.013,13.282 23.033,13.282 23.043,13.271 23.062,13.271 23.073,13.26 23.082,13.248 
		23.093,13.248 23.102,13.236 23.122,13.202 23.133,13.179 23.133,13.144 23.141,13.121 23.133,13.087 23.133,13.064 23.122,13.03 
		23.102,13.007 23.093,12.996 23.082,12.984 23.073,12.984 23.062,12.973 23.043,12.961 23.033,12.961 23.013,12.961 	"/>
	<polygon fill="#AED7E7" points="45.987,22.191 45.987,22.064 45.987,21.939 45.977,21.824 45.957,21.697 45.948,21.572 
		45.917,21.456 45.896,21.33 45.868,21.215 45.837,21.101 45.799,20.974 45.759,20.86 45.719,20.745 45.67,20.629 45.619,20.504 
		45.56,20.389 45.501,20.274 45.441,20.159 45.383,20.043 45.313,19.94 45.243,19.826 45.174,19.711 45.095,19.597 45.016,19.494 
		44.927,19.378 44.838,19.275 44.748,19.16 44.659,19.057 44.561,18.954 44.461,18.851 44.352,18.736 44.253,18.633 44.143,18.529 
		44.034,18.426 43.916,18.322 43.797,18.231 43.678,18.127 43.558,18.024 43.43,17.931 43.302,17.828 43.163,17.725 43.033,17.634 
		42.894,17.53 42.756,17.438 42.608,17.347 42.469,17.254 42.321,17.164 42.161,17.071 42.013,16.979 41.855,16.887 41.695,16.796 
		41.527,16.704 41.369,16.612 41.201,16.531 41.031,16.439 40.863,16.359 40.684,16.268 40.506,16.187 40.328,16.107 40.15,16.015 
		39.962,15.946 39.773,15.866 39.585,15.785 39.396,15.705 39.198,15.625 38.999,15.544 38.802,15.475 38.603,15.395 38.405,15.326 
		37.989,15.177 37.573,15.039 37.147,14.901 36.699,14.764 36.254,14.637 35.808,14.511 35.343,14.384 34.877,14.281 34.401,14.167 
		33.915,14.052 33.419,13.948 32.924,13.856 32.419,13.765 31.912,13.673 31.399,13.592 30.873,13.513 30.338,13.432 29.802,13.363 
		29.268,13.305 28.721,13.248 28.167,13.191 27.612,13.144 27.047,13.099 26.481,13.064 25.917,13.03 25.342,13.007 24.758,12.984 
		24.173,12.973 23.588,12.961 22.993,12.961 22.993,13.282 23.588,13.282 24.173,13.294 24.748,13.305 25.333,13.329 25.898,13.352 
		26.471,13.386 27.036,13.421 27.591,13.466 28.148,13.513 28.692,13.569 29.238,13.627 29.772,13.685 30.308,13.753 30.833,13.833 
		31.357,13.914 31.874,13.995 32.379,14.074 32.874,14.178 33.37,14.27 33.866,14.373 34.343,14.477 34.818,14.591 35.283,14.706 
		35.74,14.833 36.195,14.948 36.631,15.084 37.067,15.211 37.492,15.349 37.91,15.486 38.315,15.625 38.524,15.705 38.721,15.774 
		38.911,15.854 39.11,15.935 39.307,16.003 39.495,16.083 39.684,16.165 39.862,16.244 40.04,16.324 40.229,16.405 40.406,16.486 
		40.576,16.565 40.754,16.658 40.922,16.738 41.092,16.818 41.25,16.911 41.408,17.002 41.577,17.082 41.725,17.173 41.883,17.266 
		42.032,17.357 42.181,17.45 42.329,17.53 42.479,17.622 42.616,17.725 42.756,17.817 42.885,17.909 43.013,18 43.143,18.093 
		43.271,18.196 43.4,18.288 43.52,18.391 43.639,18.483 43.747,18.586 43.856,18.689 43.965,18.782 44.074,18.885 44.174,18.988 
		44.272,19.091 44.372,19.183 44.461,19.287 44.55,19.391 44.639,19.494 44.718,19.597 44.797,19.7 44.877,19.804 44.946,19.918 
		45.016,20.021 45.085,20.125 45.145,20.228 45.215,20.331 45.263,20.446 45.323,20.549 45.372,20.653 45.413,20.767 45.462,20.87 
		45.501,20.974 45.541,21.089 45.571,21.204 45.601,21.307 45.63,21.41 45.649,21.525 45.67,21.64 45.679,21.744 45.7,21.858 
		45.7,21.961 45.709,22.077 45.709,22.191 	"/>
	<polygon fill="#117CAE" points="0.069,9.483 0.069,22.432 45.848,22.432 45.858,9.483 	"/>
	<polygon fill="#3FAEE3" points="45.848,9.23 45.818,9.7 45.729,10.16 45.591,10.619 45.393,11.066 45.135,11.503 44.827,11.928 
		44.461,12.353 44.053,12.766 43.598,13.168 43.093,13.558 42.538,13.937 41.943,14.304 41.309,14.661 40.635,15.004 39.911,15.326 
		39.158,15.647 38.366,15.946 37.534,16.233 36.671,16.496 35.778,16.749 34.847,16.991 33.885,17.208 32.905,17.404 31.894,17.587 
		30.853,17.748 29.792,17.897 28.703,18.012 27.602,18.116 26.471,18.196 25.333,18.253 24.173,18.288 22.993,18.3 21.823,18.288 
		20.665,18.253 19.524,18.196 18.395,18.116 17.295,18.012 16.204,17.897 15.144,17.748 14.104,17.587 13.093,17.404 12.112,17.208 
		11.15,16.991 10.219,16.749 9.326,16.496 8.465,16.233 7.631,15.946 6.839,15.647 6.086,15.326 5.362,15.004 4.688,14.661 
		4.044,14.304 3.449,13.937 2.904,13.558 2.398,13.168 1.942,12.766 1.527,12.353 1.17,11.928 0.862,11.503 0.604,11.066 
		0.406,10.619 0.267,10.16 0.178,9.7 0.149,9.23 0.178,8.77 0.267,8.312 0.406,7.853 0.604,7.404 0.862,6.969 1.17,6.533 
		1.527,6.119 1.942,5.706 2.398,5.304 2.904,4.914 3.449,4.535 4.044,4.167 4.688,3.812 5.362,3.467 6.086,3.134 6.839,2.825 
		7.631,2.526 8.465,2.239 9.326,1.975 10.219,1.71 11.15,1.481 12.112,1.263 13.093,1.068 14.104,0.884 15.144,0.723 16.204,0.574 
		17.295,0.448 18.395,0.356 19.524,0.275 20.665,0.218 21.823,0.184 22.993,0.172 24.173,0.184 25.333,0.218 26.471,0.275 
		27.602,0.356 28.703,0.448 29.792,0.574 30.853,0.723 31.894,0.884 32.905,1.068 33.885,1.263 34.847,1.481 35.778,1.71 
		36.671,1.975 37.534,2.239 38.366,2.526 39.158,2.825 39.911,3.134 40.635,3.467 41.309,3.812 41.943,4.167 42.538,4.535 
		43.093,4.914 43.598,5.304 44.053,5.706 44.461,6.119 44.827,6.533 45.135,6.969 45.393,7.404 45.591,7.853 45.729,8.312 
		45.818,8.77 	"/>
	<polygon fill="#AED7E7" points="22.993,18.46 22.993,18.46 23.588,18.46 24.173,18.448 24.758,18.438 25.342,18.414 25.917,18.391 
		26.481,18.356 27.047,18.322 27.612,18.276 28.167,18.231 28.721,18.173 29.268,18.116 29.802,18.059 30.338,17.99 30.873,17.909 
		31.399,17.828 31.912,17.748 32.419,17.656 32.924,17.565 33.419,17.473 33.915,17.37 34.401,17.254 34.877,17.151 35.343,17.025 
		35.808,16.911 36.254,16.784 36.699,16.658 37.147,16.521 37.573,16.383 37.781,16.313 37.989,16.244 38.198,16.175 38.405,16.095 
		38.603,16.026 38.802,15.946 38.999,15.877 39.198,15.797 39.396,15.716 39.585,15.636 39.773,15.556 39.962,15.475 40.15,15.395 
		40.328,15.314 40.506,15.234 40.684,15.153 40.863,15.062 41.031,14.982 41.201,14.89 41.369,14.798 41.527,14.717 41.695,14.626 
		41.855,14.534 42.013,14.442 42.161,14.362 42.321,14.259 42.469,14.167 42.608,14.074 42.756,13.982 42.894,13.891 43.033,13.787 
		43.163,13.696 43.302,13.592 43.43,13.5 43.558,13.397 43.678,13.294 43.797,13.191 43.916,13.087 44.034,12.984 44.143,12.892 
		44.253,12.79 44.352,12.674 44.461,12.57 44.561,12.467 44.659,12.364 44.748,12.261 44.838,12.146 44.927,12.043 45.016,11.928 
		45.095,11.825 45.174,11.709 45.243,11.595 45.313,11.48 45.383,11.377 45.441,11.262 45.501,11.147 45.56,11.033 45.619,10.918 
		45.67,10.803 45.719,10.677 45.759,10.562 45.799,10.447 45.837,10.321 45.868,10.206 45.896,10.091 45.917,9.964 45.948,9.85 
		45.957,9.724 45.977,9.597 45.987,9.483 45.987,9.356 45.987,9.23 45.709,9.23 45.709,9.345 45.7,9.459 45.7,9.563 45.679,9.678 
		45.67,9.792 45.649,9.896 45.63,10.011 45.601,10.114 45.571,10.229 45.541,10.332 45.501,10.447 45.462,10.551 45.413,10.654 
		45.372,10.768 45.323,10.871 45.263,10.975 45.215,11.09 45.145,11.193 45.085,11.296 45.016,11.4 44.946,11.503 44.877,11.618 
		44.797,11.721 44.718,11.825 44.639,11.928 44.55,12.031 44.461,12.134 44.372,12.238 44.272,12.341 44.174,12.433 44.074,12.536 
		43.965,12.639 43.856,12.731 43.747,12.834 43.639,12.938 43.52,13.03 43.4,13.133 43.271,13.225 43.143,13.329 43.013,13.421 
		42.885,13.513 42.756,13.604 42.616,13.696 42.479,13.787 42.329,13.891 42.181,13.971 42.032,14.074 41.883,14.155 41.725,14.248 
		41.577,14.338 41.408,14.418 41.25,14.511 41.092,14.591 40.922,14.683 40.754,14.764 40.576,14.856 40.397,14.936 40.229,15.017 
		40.04,15.096 39.862,15.177 39.684,15.256 39.495,15.337 39.307,15.417 39.11,15.486 38.911,15.567 38.721,15.647 38.524,15.716 
		38.315,15.785 38.117,15.866 37.91,15.935 37.702,16.003 37.492,16.072 37.067,16.209 36.631,16.348 36.195,16.474 35.74,16.589 
		35.283,16.715 34.818,16.83 34.343,16.944 33.866,17.048 33.37,17.151 32.874,17.243 32.379,17.335 31.874,17.426 31.357,17.507 
		30.833,17.587 30.308,17.668 29.772,17.725 29.238,17.794 28.692,17.852 28.148,17.909 27.591,17.956 27.036,18 26.471,18.035 
		25.898,18.069 25.333,18.093 24.748,18.116 24.173,18.127 23.588,18.139 22.993,18.139 22.993,18.139 22.993,18.139 22.984,18.139 
		22.964,18.139 22.954,18.15 22.934,18.15 22.924,18.162 22.914,18.173 22.905,18.173 22.894,18.196 22.875,18.219 22.864,18.242 
		22.864,18.276 22.855,18.3 22.864,18.334 22.864,18.356 22.875,18.391 22.894,18.414 22.905,18.426 22.914,18.438 22.924,18.438 
		22.934,18.448 22.954,18.46 22.964,18.46 22.984,18.46 	"/>
	<polygon fill="#AED7E7" points="0,9.23 0,9.23 0.01,9.356 0.01,9.483 0.019,9.597 0.04,9.724 0.049,9.85 0.069,9.964 0.099,10.091 
		0.129,10.206 0.159,10.321 0.198,10.447 0.239,10.562 0.278,10.677 0.326,10.803 0.377,10.918 0.436,11.033 0.486,11.147 
		0.555,11.262 0.615,11.377 0.684,11.48 0.753,11.595 0.823,11.709 0.902,11.825 0.981,11.928 1.071,12.043 1.16,12.146 
		1.248,12.261 1.338,12.364 1.437,12.467 1.536,12.57 1.635,12.674 1.745,12.79 1.853,12.892 1.963,12.984 2.081,13.087 
		2.199,13.191 2.319,13.294 2.438,13.397 2.566,13.5 2.697,13.592 2.834,13.696 2.963,13.787 3.102,13.891 3.24,13.982 
		3.389,14.074 3.528,14.167 3.677,14.259 3.836,14.362 3.984,14.442 4.143,14.534 4.301,14.626 4.47,14.717 4.628,14.798 
		4.797,14.89 4.966,14.982 5.134,15.062 5.312,15.153 5.491,15.234 5.669,15.314 5.847,15.395 6.036,15.475 6.224,15.556 
		6.413,15.636 6.601,15.716 6.798,15.797 6.987,15.877 7.185,15.946 7.393,16.026 7.591,16.095 7.8,16.175 8.008,16.244 
		8.217,16.313 8.424,16.383 8.851,16.521 9.287,16.658 9.742,16.784 10.188,16.911 10.655,17.025 11.119,17.151 11.596,17.254 
		12.082,17.37 12.577,17.473 13.073,17.565 13.578,17.656 14.084,17.748 14.599,17.828 15.124,17.909 15.658,17.99 16.184,18.059 
		16.73,18.116 17.275,18.173 17.83,18.231 18.385,18.276 18.949,18.322 19.515,18.356 20.079,18.391 20.655,18.414 21.24,18.438 
		21.823,18.448 22.408,18.46 22.993,18.46 22.993,18.139 22.408,18.139 21.823,18.127 21.249,18.116 20.665,18.093 20.099,18.069 
		19.524,18.035 18.96,18 18.405,17.956 17.849,17.909 17.305,17.852 16.759,17.794 16.214,17.725 15.689,17.668 15.164,17.587 
		14.638,17.507 14.123,17.426 13.617,17.335 13.112,17.243 12.617,17.151 12.131,17.048 11.656,16.944 11.179,16.83 10.714,16.715 
		10.258,16.589 9.801,16.474 9.356,16.348 8.929,16.209 8.504,16.072 8.296,16.003 8.087,15.935 7.879,15.866 7.671,15.785 
		7.473,15.716 7.275,15.647 7.075,15.567 6.887,15.486 6.69,15.417 6.501,15.337 6.314,15.256 6.135,15.177 5.947,15.096 
		5.768,15.017 5.589,14.936 5.422,14.856 5.243,14.764 5.074,14.683 4.906,14.591 4.748,14.511 4.578,14.418 4.42,14.338 
		4.272,14.248 4.113,14.155 3.965,14.074 3.816,13.971 3.667,13.891 3.518,13.787 3.38,13.696 3.24,13.604 3.112,13.513 
		2.973,13.421 2.855,13.329 2.726,13.225 2.596,13.133 2.478,13.03 2.359,12.938 2.25,12.834 2.14,12.731 2.031,12.639 
		1.922,12.536 1.823,12.433 1.725,12.341 1.625,12.238 1.536,12.134 1.448,12.031 1.358,11.928 1.278,11.825 1.199,11.721 
		1.119,11.618 1.041,11.515 0.97,11.4 0.911,11.296 0.843,11.193 0.782,11.09 0.733,10.975 0.674,10.871 0.624,10.768 0.574,10.654 
		0.535,10.551 0.495,10.447 0.456,10.332 0.427,10.229 0.397,10.114 0.366,10.011 0.346,9.896 0.326,9.792 0.307,9.678 0.297,9.563 
		0.287,9.459 0.287,9.345 0.287,9.23 0.287,9.23 0.287,9.23 0.287,9.218 0.278,9.195 0.278,9.173 0.267,9.161 0.267,9.149 
		0.258,9.139 0.247,9.126 0.239,9.115 0.218,9.092 0.198,9.081 0.168,9.07 0.149,9.07 0.119,9.07 0.089,9.081 0.069,9.092 
		0.049,9.115 0.04,9.126 0.03,9.139 0.019,9.149 0.019,9.161 0.01,9.173 0.01,9.195 0,9.218 	"/>
	<polygon fill="#AED7E7" points="22.993,0 22.993,0 22.408,0.012 21.823,0.023 21.24,0.035 20.655,0.058 20.079,0.081 19.515,0.115 
		18.949,0.149 18.385,0.184 17.83,0.241 17.275,0.287 16.73,0.356 16.184,0.413 15.658,0.483 15.124,0.563 14.599,0.631 
		14.084,0.723 13.578,0.804 13.073,0.907 12.577,0.999 12.082,1.102 11.596,1.205 11.119,1.321 10.655,1.435 10.188,1.562 
		9.742,1.687 9.287,1.813 8.851,1.952 8.424,2.079 8.008,2.228 7.591,2.365 7.393,2.445 7.185,2.514 6.987,2.595 6.798,2.675 
		6.601,2.756 6.413,2.825 6.224,2.905 6.036,2.984 5.847,3.065 5.669,3.146 5.491,3.238 5.312,3.317 5.134,3.398 4.966,3.491 
		4.797,3.582 4.628,3.663 4.47,3.753 4.301,3.834 4.143,3.926 3.984,4.018 3.836,4.11 3.677,4.202 3.528,4.305 3.389,4.397 
		3.24,4.488 3.102,4.581 2.963,4.684 2.834,4.776 2.697,4.879 2.566,4.971 2.438,5.074 2.319,5.178 2.199,5.27 2.081,5.373 
		1.963,5.476 1.853,5.579 1.745,5.683 1.635,5.786 1.536,5.889 1.437,6.004 1.338,6.108 1.248,6.21 1.16,6.326 1.071,6.43 
		0.981,6.544 0.902,6.647 0.823,6.761 0.753,6.865 0.684,6.98 0.615,7.095 0.555,7.209 0.486,7.324 0.436,7.438 0.377,7.554 
		0.326,7.669 0.278,7.784 0.239,7.91 0.198,8.024 0.159,8.139 0.129,8.265 0.099,8.381 0.069,8.507 0.049,8.622 0.04,8.748 
		0.019,8.862 0.01,8.989 0.01,9.115 0,9.23 0.287,9.23 0.287,9.126 0.287,9.012 0.297,8.897 0.307,8.794 0.326,8.679 0.346,8.576 
		0.366,8.46 0.397,8.357 0.427,8.243 0.456,8.139 0.495,8.024 0.535,7.921 0.574,7.807 0.624,7.704 0.674,7.6 0.733,7.496 
		0.782,7.382 0.843,7.278 0.911,7.175 0.97,7.072 1.041,6.957 1.119,6.854 1.199,6.75 1.278,6.647 1.358,6.544 1.448,6.44 
		1.536,6.337 1.625,6.234 1.725,6.13 1.823,6.039 1.922,5.936 2.031,5.832 2.14,5.729 2.25,5.637 2.359,5.534 2.478,5.442 
		2.596,5.338 2.726,5.235 2.855,5.143 2.973,5.051 3.112,4.96 3.24,4.857 3.38,4.765 3.518,4.673 3.667,4.581 3.816,4.488 
		3.965,4.397 4.113,4.305 4.272,4.225 4.42,4.133 4.578,4.042 4.748,3.961 4.906,3.869 5.074,3.788 5.243,3.697 5.422,3.616 
		5.589,3.536 5.768,3.456 5.947,3.375 6.135,3.295 6.314,3.214 6.501,3.134 6.69,3.053 6.887,2.973 7.075,2.905 7.275,2.825 
		7.473,2.756 7.671,2.675 8.087,2.538 8.504,2.387 8.929,2.262 9.356,2.124 9.801,1.998 10.258,1.871 10.714,1.757 11.179,1.642 
		11.656,1.527 12.131,1.424 12.617,1.321 13.112,1.217 13.617,1.125 14.123,1.044 14.638,0.953 15.164,0.884 15.689,0.804 
		16.214,0.735 16.759,0.678 17.305,0.621 17.849,0.563 18.405,0.517 18.96,0.471 19.524,0.436 20.099,0.402 20.665,0.378 
		21.249,0.356 21.823,0.344 22.408,0.333 22.993,0.333 22.993,0.333 22.993,0.333 23.013,0.333 23.033,0.322 23.043,0.322 
		23.062,0.31 23.073,0.31 23.082,0.299 23.093,0.287 23.102,0.275 23.122,0.252 23.133,0.23 23.133,0.195 23.141,0.172 
		23.133,0.138 23.133,0.104 23.122,0.081 23.102,0.058 23.093,0.046 23.082,0.035 23.073,0.023 23.062,0.023 23.043,0.012 
		23.033,0.012 23.013,0 	"/>
	<polygon fill="#AED7E7" points="45.987,9.23 45.987,9.115 45.987,8.989 45.977,8.862 45.957,8.748 45.948,8.622 45.917,8.507 
		45.896,8.381 45.868,8.265 45.837,8.139 45.799,8.024 45.759,7.91 45.719,7.784 45.67,7.669 45.619,7.554 45.56,7.438 
		45.501,7.324 45.441,7.209 45.383,7.095 45.313,6.98 45.243,6.865 45.174,6.761 45.095,6.647 45.016,6.544 44.927,6.43 
		44.838,6.326 44.748,6.21 44.659,6.108 44.561,6.004 44.461,5.889 44.352,5.786 44.253,5.683 44.143,5.579 44.034,5.476 
		43.916,5.373 43.797,5.27 43.678,5.178 43.558,5.074 43.43,4.971 43.302,4.879 43.163,4.776 43.033,4.684 42.894,4.581 
		42.756,4.488 42.608,4.397 42.469,4.305 42.321,4.202 42.161,4.11 42.013,4.018 41.855,3.926 41.695,3.834 41.527,3.753 
		41.369,3.663 41.201,3.582 41.031,3.491 40.863,3.398 40.684,3.317 40.506,3.238 40.328,3.146 40.15,3.065 39.962,2.984 
		39.773,2.905 39.585,2.825 39.396,2.756 39.198,2.675 38.999,2.595 38.802,2.514 38.603,2.445 38.405,2.365 37.989,2.228 
		37.573,2.079 37.147,1.952 36.699,1.813 36.254,1.687 35.808,1.562 35.343,1.435 34.877,1.321 34.401,1.205 33.915,1.102 
		33.419,0.999 32.924,0.907 32.419,0.804 31.912,0.723 31.399,0.631 30.873,0.563 30.338,0.483 29.802,0.413 29.268,0.356 
		28.721,0.287 28.167,0.241 27.612,0.184 27.047,0.149 26.481,0.115 25.917,0.081 25.342,0.058 24.758,0.035 24.173,0.023 
		23.588,0.012 22.993,0 22.993,0.333 23.588,0.333 24.173,0.344 24.748,0.356 25.333,0.378 25.898,0.402 26.471,0.436 27.036,0.471 
		27.591,0.517 28.148,0.563 28.692,0.621 29.238,0.678 29.772,0.735 30.308,0.804 30.833,0.884 31.357,0.953 31.874,1.044 
		32.379,1.125 32.874,1.217 33.37,1.321 33.866,1.424 34.343,1.527 34.818,1.642 35.283,1.757 35.74,1.871 36.195,1.998 
		36.631,2.124 37.067,2.262 37.492,2.387 37.91,2.538 38.315,2.675 38.524,2.756 38.721,2.825 38.911,2.905 39.11,2.973 
		39.307,3.053 39.495,3.134 39.684,3.214 39.862,3.295 40.04,3.375 40.229,3.456 40.406,3.536 40.576,3.616 40.754,3.697 
		40.922,3.788 41.092,3.869 41.25,3.961 41.408,4.042 41.577,4.133 41.725,4.225 41.883,4.305 42.032,4.397 42.181,4.488 
		42.329,4.581 42.479,4.673 42.616,4.765 42.756,4.857 42.885,4.96 43.013,5.051 43.143,5.143 43.271,5.235 43.4,5.338 43.52,5.442 
		43.639,5.534 43.747,5.637 43.856,5.729 43.965,5.832 44.074,5.936 44.174,6.039 44.272,6.13 44.372,6.234 44.461,6.337 
		44.55,6.44 44.639,6.544 44.718,6.647 44.797,6.75 44.877,6.854 44.946,6.957 45.016,7.072 45.085,7.175 45.145,7.278 
		45.215,7.382 45.263,7.496 45.323,7.6 45.372,7.704 45.413,7.807 45.462,7.921 45.501,8.024 45.541,8.139 45.571,8.243 
		45.601,8.357 45.63,8.46 45.649,8.576 45.67,8.679 45.679,8.794 45.7,8.897 45.7,9.012 45.709,9.126 45.709,9.23 	"/>
	<polygon fill="#151718" points="23.588,7.233 26.958,8.53 34.915,4.844 38.623,5.901 36.671,2.64 27.087,2.64 31.091,3.766 	"/>
	<polygon fill="#151718" points="22.2,10.975 18.831,9.678 10.872,13.352 7.156,12.307 9.109,15.567 18.702,15.567 14.698,14.431 	
		"/>
	<polygon fill="#151718" points="7.969,3.766 11.338,2.468 19.296,6.142 23.013,5.097 21.051,8.357 11.468,8.357 15.471,7.233 	"/>
	<polygon fill="#151718" points="38.136,14.683 34.767,15.969 26.809,12.295 23.093,13.352 25.056,10.08 34.638,10.08 
		30.635,11.216 	"/>
	<polygon fill="#FFFFFF" points="23.865,7.554 27.235,8.852 35.194,5.178 38.911,6.222 36.948,2.962 27.365,2.962 31.368,4.099 	"/>
	<polygon fill="#FFFFFF" points="22.478,11.296 19.108,9.999 11.15,13.673 7.433,12.628 9.395,15.888 18.98,15.888 14.975,14.751 	
		"/>
	<polygon fill="#FFFFFF" points="8.246,4.086 11.616,2.801 19.575,6.475 23.29,5.418 21.328,8.679 11.745,8.679 15.748,7.554 	"/>
	<polygon fill="#FFFFFF" points="38.414,15.004 35.045,16.29 27.087,12.628 23.369,13.673 25.333,10.413 34.915,10.413 
		30.912,11.538 	"/>
	<polygon fill="#AED7E7" points="0,9.23 0,9.391 0.287,9.391 0.287,9.23 	"/>
	<polygon fill="#AED7E7" points="0,9.391 0,22.432 0.287,22.432 0.287,9.391 	"/>
	<polygon fill="#AED7E7" points="0,22.432 0,22.593 0.287,22.593 0.287,22.432 	"/>
	<polygon fill="#AED7E7" points="45.709,9.23 45.709,9.391 45.987,9.391 45.987,9.23 	"/>
	<polygon fill="#AED7E7" points="45.709,9.391 45.709,22.432 45.987,22.432 45.987,9.391 	"/>
	<polygon fill="#AED7E7" points="45.709,22.432 45.709,22.593 45.987,22.593 45.987,22.432 	"/>
	<polygon fill="#151718" points="15.967,23.856 15.967,25.129 21.794,25.129 21.794,25.911 23.013,24.511 21.794,23.063 
		21.794,23.856 	"/>
	<polygon fill="#151718" points="24.252,23.856 24.252,25.129 30.09,25.129 30.09,25.911 31.309,24.511 30.09,23.063 30.09,23.856 	
		"/>
	<polygon fill="#151718" points="23.776,22.168 24.222,23.328 29.555,20.573 29.833,21.285 30.447,19.435 28.831,18.689 
		29.108,19.413 	"/>
	<polygon fill="#151718" points="23.776,26.771 24.222,25.612 29.555,28.368 29.833,27.655 30.447,29.503 28.831,30.25 
		29.108,29.527 	"/>
	<polygon fill="#FFFFFF" points="16.145,24.062 16.145,25.336 21.972,25.336 21.972,26.117 23.191,24.717 21.972,23.27 
		21.972,24.062 	"/>
	<polygon fill="#FFFFFF" points="24.441,24.062 24.441,25.336 30.268,25.336 30.268,26.117 31.487,24.717 30.268,23.27 
		30.268,24.062 	"/>
	<polygon fill="#FFFFFF" points="23.955,22.374 24.41,23.534 29.733,20.792 30.001,21.503 30.624,19.643 29.009,18.896 
		29.286,19.62 	"/>
	<polygon fill="#FFFFFF" points="23.955,26.978 24.41,25.818 29.733,28.574 30.001,27.861 30.624,29.71 29.009,30.457 
		29.286,29.734 	"/>
</g>
</svg>
