<?xml version="1.0" encoding="iso-8859-1"?>
<!DOCTYPE svg PUBLIC "-//W3C//DTD SVG 1.1//EN" "http://www.w3.org/Graphics/SVG/1.1/DTD/svg11.dtd">
<svg version="1.1" xmlns="http://www.w3.org/2000/svg" xmlns:xlink="http://www.w3.org/1999/xlink" width="31" height="48" viewBox="0 0 31 48">
<g>
	<polygon style="fill-rule:evenodd;clip-rule:evenodd;fill:#1E97CE;" points="1,3.609 1,48.521 27.218,48.521 27.218,3.609 1,3.609 
			"/>
	<polygon style="fill:none;stroke:#AED7E7;stroke-width:0.2757;stroke-linecap:square;stroke-miterlimit:1;" points="1,3.609 
		1,48.521 27.218,48.521 27.218,3.609 1,3.609 	"/>
	<polygon style="fill-rule:evenodd;clip-rule:evenodd;fill:#3FAEE3;" points="1,3.609 4.558,0 30.774,0 27.218,3.609 1,3.609 	"/>
	<polygon style="fill:none;stroke:#AED7E7;stroke-width:0.2757;stroke-linecap:square;stroke-miterlimit:1;" points="1,3.609 
		4.558,0 30.774,0 27.218,3.609 1,3.609 	"/>
	<polygon style="fill-rule:evenodd;clip-rule:evenodd;fill:#1E97CE;" points="2.582,6.14 2.582,11.754 14.17,11.754 14.17,6.14 
		2.582,6.14 	"/>
	<polygon style="fill:#0D6187;" points="14.294,6.14 14.17,6.015 2.582,6.015 2.582,6.416 14.17,6.416 14.294,6.14 14.294,6.14 
		14.294,6.015 14.17,6.015 	"/>
	<polygon style="fill:#0D6187;" points="14.17,11.88 14.294,11.754 14.294,6.14 14.047,6.14 14.047,11.754 14.17,11.88 14.17,11.88 
		14.294,11.88 14.294,11.754 	"/>
	<polygon style="fill:#0D6187;" points="2.433,11.754 2.582,11.88 14.17,11.88 14.17,11.629 2.582,11.629 2.433,11.754 
		2.433,11.754 2.433,11.88 2.582,11.88 	"/>
	<polygon style="fill:#0D6187;" points="2.582,6.015 2.433,6.14 2.433,11.754 2.705,11.754 2.705,6.14 2.582,6.015 2.582,6.015 
		2.433,6.015 2.433,6.14 	"/>
	
		<polygon style="fill:none;stroke:#FFFFFF;stroke-width:0.401;stroke-linecap:round;stroke-linejoin:round;stroke-miterlimit:10;" points="
		2.582,6.015 2.433,6.14 2.433,11.754 2.705,11.754 2.705,6.14 2.582,6.015 2.582,6.015 2.433,6.015 2.433,6.14 	"/>
	
		<line style="fill:none;stroke:#AED7E7;stroke-width:0.2757;stroke-linecap:square;stroke-miterlimit:1;" x1="4.558" y1="8.947" x2="12.193" y2="8.947"/>
	<polygon style="fill-rule:evenodd;clip-rule:evenodd;fill:#0D6187;" points="27.218,48.521 30.774,44.912 30.774,0 27.218,3.609 
		27.218,48.521 	"/>
	<polygon style="fill:none;stroke:#AED7E7;stroke-width:0.2757;stroke-linecap:square;stroke-miterlimit:1;" points="27.218,48.521 
		30.774,44.912 30.774,0 27.218,3.609 27.218,48.521 	"/>
	
		<line style="fill:none;stroke:#AED7E7;stroke-width:0.2757;stroke-linecap:square;stroke-miterlimit:1;" x1="1.519" y1="45.438" x2="26.698" y2="45.438"/>
	
		<line style="fill:none;stroke:#AED7E7;stroke-width:0.2757;stroke-linecap:square;stroke-miterlimit:1;" x1="1.519" y1="21.503" x2="26.698" y2="21.503"/>
	<polygon style="fill-rule:evenodd;clip-rule:evenodd;fill:#0D6187;" points="1.124,45.038 1.124,45.438 1.395,45.438 1.395,45.038 
		1.124,45.038 	"/>
	<polygon style="fill-rule:evenodd;clip-rule:evenodd;fill:#0D6187;" points="1.395,45.038 1.395,45.438 26.821,45.438 
		26.821,45.038 1.395,45.038 	"/>
	<polygon style="fill-rule:evenodd;clip-rule:evenodd;fill:#0D6187;" points="26.821,45.038 26.821,45.438 27.093,45.438 
		27.093,45.038 26.821,45.038 	"/>
	<polygon style="fill-rule:evenodd;clip-rule:evenodd;fill:#0D6187;" points="1.124,20.978 1.124,21.503 1.395,21.503 1.395,20.978 
		1.124,20.978 	"/>
	<polygon style="fill-rule:evenodd;clip-rule:evenodd;fill:#0D6187;" points="1.395,20.978 1.395,21.503 26.944,21.503 
		26.944,20.978 1.395,20.978 	"/>
	<polygon style="fill-rule:evenodd;clip-rule:evenodd;fill:#0D6187;" points="26.944,20.978 26.944,21.503 27.093,21.503 
		27.093,20.978 26.944,20.978 	"/>
	<polyline style="fill:none;stroke:#AED7E7;stroke-width:0.2757;stroke-linecap:square;stroke-miterlimit:1;" points="2.582,11.754 
		2.582,6.14 14.17,6.14 	"/>
	<polygon style="fill:none;stroke:#AED7E7;stroke-width:0.2757;stroke-linecap:square;stroke-miterlimit:1;" points="1,3.458 
		1,48.371 27.218,48.371 27.218,3.458 1,3.458 	"/>
</g>
</svg>
