<?xml version="1.0" encoding="utf-8"?>
<!DOCTYPE svg PUBLIC "-//W3C//DTD SVG 1.1//EN" "http://www.w3.org/Graphics/SVG/1.1/DTD/svg11.dtd">
<svg version="1.1" xmlns="http://www.w3.org/2000/svg" xmlns:xlink="http://www.w3.org/1999/xlink" width="37" height="36" viewBox="0 0 37 36">
<g>
	<polygon fill="#0D96D4" points="0,3.817 0,35.82 32.426,35.82 32.426,3.817 	"/>
	<polygon fill="#0D96D4" points="0,3.817 0,35.82 32.426,35.82 32.426,3.817 	"/>
	
		<rect x="0" y="3.817" fill="none" stroke="#AEE2FA" stroke-width="0.3584" stroke-linecap="round" stroke-miterlimit="10" width="32.425" height="32.003"/>
	<polygon fill="#45AFE3" points="0,3.817 4.134,0 36.55,0 32.426,3.817 	"/>
	<polygon fill="#45AFE3" points="0,3.817 4.134,0 36.55,0 32.426,3.817 	"/>
	<polygon fill="none" stroke="#AEE2FA" stroke-width="0.3584" stroke-linecap="round" stroke-miterlimit="10" points="0,3.817 
		4.134,0 36.55,0 32.426,3.817 	"/>
	<polygon fill="#015B80" points="32.426,3.817 36.55,0 36.55,31.711 32.426,35.528 	"/>
	<polygon fill="#015B80" points="32.426,3.817 36.55,0 36.55,31.711 32.426,35.528 	"/>
	<polygon fill="none" stroke="#AEE2FA" stroke-width="0.3584" stroke-linecap="round" stroke-miterlimit="10" points="32.426,3.817 
		36.55,0 36.55,31.711 32.426,35.528 	"/>
	<polygon fill="#010101" points="6.49,6.76 6.49,9.984 12.978,9.984 16.506,17.328 20.044,9.984 26.534,9.984 26.534,6.76 
		30.657,10.868 26.534,14.977 26.534,12.043 21.812,12.043 17.981,20.261 21.812,28.488 26.534,28.488 26.534,25.545 30.657,29.652 
		26.534,33.771 26.534,30.828 20.044,30.828 16.506,23.194 12.978,30.828 6.49,30.828 6.49,33.771 2.366,29.652 6.49,25.545 
		6.49,28.488 10.906,28.488 15.041,20.261 10.906,12.043 6.49,12.043 6.49,14.977 2.366,10.868 	"/>
	<polygon fill="#010101" points="6.49,6.76 6.49,9.984 12.978,9.984 16.506,17.328 20.044,9.984 26.534,9.984 26.534,6.76 
		30.657,10.868 26.534,14.977 26.534,12.043 21.812,12.043 17.981,20.261 21.812,28.488 26.534,28.488 26.534,25.545 30.657,29.652 
		26.534,33.771 26.534,30.828 20.044,30.828 16.506,23.194 12.978,30.828 6.49,30.828 6.49,33.771 2.366,29.652 6.49,25.545 
		6.49,28.488 10.906,28.488 15.041,20.261 10.906,12.043 6.49,12.043 6.49,14.977 2.366,10.868 	"/>
	<polygon fill="#FFFFFF" points="6.782,7.052 6.782,10.276 13.272,10.276 16.81,17.619 20.347,10.276 26.826,10.276 26.826,7.052 
		30.95,11.159 26.826,15.269 26.826,12.336 22.107,12.336 18.275,20.552 22.107,28.779 26.826,28.779 26.826,25.846 30.95,29.954 
		26.826,34.063 26.826,31.129 20.347,31.129 16.81,23.495 13.272,31.129 6.782,31.129 6.782,34.063 2.658,29.954 6.782,25.846 
		6.782,28.779 11.21,28.779 15.334,20.552 11.21,12.336 6.782,12.336 6.782,15.269 2.658,11.159 	"/>
	<polygon fill="#FFFFFF" points="6.782,7.052 6.782,10.276 13.272,10.276 16.81,17.619 20.347,10.276 26.826,10.276 26.826,7.052 
		30.95,11.159 26.826,15.269 26.826,12.336 22.107,12.336 18.275,20.552 22.107,28.779 26.826,28.779 26.826,25.846 30.95,29.954 
		26.826,34.063 26.826,31.129 20.347,31.129 16.81,23.495 13.272,31.129 6.782,31.129 6.782,34.063 2.658,29.954 6.782,25.846 
		6.782,28.779 11.21,28.779 15.334,20.552 11.21,12.336 6.782,12.336 6.782,15.269 2.658,11.159 	"/>
</g>
</svg>
