<?xml version="1.0" encoding="iso-8859-1"?>
<!DOCTYPE svg PUBLIC "-//W3C//DTD SVG 1.1//EN" "http://www.w3.org/Graphics/SVG/1.1/DTD/svg11.dtd">
<svg version="1.1" xmlns="http://www.w3.org/2000/svg" xmlns:xlink="http://www.w3.org/1999/xlink" width="50" height="40" viewBox="0 0 50 40">
<g>
	<polygon style="fill-rule:evenodd;clip-rule:evenodd;fill:#3BAEE2;" points="11.781,1.895 0.23,7.339 2.841,8.769 5.386,10.02 
		7.857,11.083 10.263,11.982 12.594,12.723 14.852,13.308 17.036,13.757 19.145,14.064 21.182,14.258 23.144,14.333 25.023,14.311 
		26.83,14.191 28.554,13.981 30.196,13.697 31.755,13.345 33.242,12.94 34.638,12.491 35.95,11.997 37.183,11.473 38.324,10.934 
		39.383,10.379 40.359,9.825 41.238,9.278 42.035,8.754 42.741,8.252 43.348,7.789 43.874,7.369 44.3,7.009 44.637,6.71 
		44.875,6.485 45.023,6.343 45.071,6.291 43.497,7.092 41.928,7.758 40.368,8.313 38.817,8.747 37.281,9.076 35.763,9.309 
		34.268,9.443 32.79,9.488 31.328,9.458 29.908,9.354 28.521,9.181 27.158,8.949 25.836,8.665 24.556,8.328 23.324,7.953 
		22.134,7.548 20.984,7.114 19.9,6.658 18.866,6.193 17.889,5.714 16.978,5.234 16.125,4.77 15.336,4.313 14.622,3.879 
		13.981,3.467 13.415,3.085 12.93,2.748 12.528,2.456 12.2,2.224 11.97,2.044 11.831,1.932 	"/>
	<polygon style="fill:#AED7E7;" points="0.107,7.503 0.329,7.519 11.888,2.074 11.683,1.715 0.131,7.159 0.107,7.503 0.131,7.159 
		0.099,7.167 0.082,7.182 0.066,7.197 0.049,7.211 0.033,7.227 0.025,7.249 0.017,7.264 0.008,7.279 0.008,7.302 0,7.316 0,7.339 
		0.008,7.354 0.008,7.376 0.017,7.391 0.025,7.414 0.033,7.429 0.041,7.444 0.049,7.459 0.066,7.474 0.082,7.489 0.099,7.503 
		0.115,7.511 0.131,7.519 0.148,7.526 0.173,7.534 0.189,7.541 0.213,7.541 0.238,7.541 0.255,7.534 0.279,7.534 0.304,7.526 
		0.329,7.519 	"/>
	<polygon style="fill:#AED7E7;" points="45.187,6.463 44.899,6.163 44.859,6.208 44.71,6.343 44.613,6.44 44.481,6.568 
		44.325,6.702 44.144,6.859 43.948,7.032 43.725,7.219 43.479,7.421 43.208,7.638 42.913,7.863 42.6,8.095 42.428,8.215 
		42.263,8.335 42.083,8.462 41.903,8.589 41.714,8.724 41.517,8.852 41.321,8.979 41.114,9.114 40.901,9.249 40.689,9.383 
		40.466,9.518 40.236,9.653 40.006,9.795 39.768,9.93 39.522,10.065 39.275,10.207 39.013,10.342 38.758,10.484 38.487,10.619 
		38.225,10.753 37.946,10.889 37.667,11.023 37.379,11.158 37.083,11.293 36.789,11.42 36.485,11.555 36.172,11.682 35.86,11.81 
		35.549,11.937 35.221,12.057 34.891,12.184 34.556,12.304 34.219,12.417 33.874,12.528 33.53,12.641 33.167,12.753 32.806,12.858 
		32.445,12.956 32.076,13.061 31.698,13.15 31.321,13.248 30.934,13.337 30.54,13.419 30.146,13.502 29.753,13.577 29.342,13.652 
		28.932,13.719 28.513,13.779 28.093,13.839 27.668,13.899 27.241,13.944 26.805,13.989 26.362,14.026 25.918,14.056 25.697,14.071 
		25.467,14.086 25.237,14.094 25.015,14.109 24.786,14.116 24.556,14.124 24.326,14.131 24.087,14.131 23.858,14.139 23.62,14.139 
		23.382,14.139 23.144,14.131 22.906,14.131 22.667,14.124 22.429,14.116 22.183,14.109 21.937,14.101 21.69,14.086 21.444,14.071 
		21.198,14.056 20.951,14.041 20.705,14.019 20.451,14.004 20.196,13.974 19.942,13.952 19.688,13.929 19.433,13.899 19.178,13.869 
		18.916,13.839 18.661,13.801 18.398,13.764 18.135,13.727 17.873,13.689 17.61,13.644 17.348,13.6 17.076,13.555 16.814,13.51 
		16.543,13.458 16.272,13.405 16.001,13.353 15.73,13.292 15.459,13.24 15.188,13.172 14.909,13.113 14.63,13.045 14.351,12.978 
		14.072,12.911 13.792,12.835 13.513,12.768 13.234,12.686 12.947,12.611 12.66,12.528 12.372,12.446 12.085,12.356 11.797,12.274 
		11.51,12.184 11.223,12.087 10.928,11.989 10.64,11.892 10.345,11.794 10.049,11.69 9.753,11.585 9.458,11.48 9.154,11.368 
		8.851,11.255 8.555,11.143 8.251,11.023 7.947,10.904 7.643,10.776 7.34,10.649 7.036,10.521 6.724,10.394 6.42,10.26 
		6.108,10.117 5.796,9.975 5.484,9.84 5.172,9.69 4.86,9.541 4.54,9.391 4.229,9.241 3.908,9.083 3.596,8.919 3.268,8.762 
		2.956,8.597 2.627,8.425 2.307,8.252 1.987,8.08 1.659,7.908 1.33,7.721 1.002,7.541 0.673,7.354 0.345,7.167 0.107,7.503 
		0.443,7.698 0.772,7.885 1.1,8.065 1.429,8.252 1.757,8.425 2.085,8.604 2.406,8.777 2.734,8.949 3.054,9.114 3.375,9.278 
		3.694,9.436 4.015,9.593 4.335,9.75 4.655,9.9 4.976,10.05 5.287,10.199 5.599,10.342 5.911,10.484 6.223,10.619 6.535,10.753 
		6.847,10.889 7.159,11.016 7.463,11.143 7.767,11.271 8.079,11.391 8.382,11.51 8.686,11.63 8.981,11.742 9.286,11.854 
		9.589,11.959 9.885,12.064 10.18,12.169 10.484,12.274 10.78,12.371 11.075,12.469 11.362,12.559 11.658,12.656 11.954,12.746 
		12.241,12.828 12.528,12.911 12.816,12.993 13.103,13.075 13.39,13.15 13.669,13.225 13.957,13.3 14.236,13.375 14.515,13.435 
		14.794,13.502 15.073,13.569 15.353,13.629 15.632,13.689 15.911,13.749 16.182,13.801 16.453,13.854 16.724,13.906 16.994,13.952 
		17.265,14.004 17.536,14.049 17.799,14.086 18.07,14.124 18.333,14.168 18.595,14.198 18.858,14.236 19.121,14.266 19.383,14.303 
		19.638,14.326 19.9,14.355 20.155,14.378 20.41,14.401 20.664,14.423 20.919,14.446 21.165,14.46 21.419,14.476 21.666,14.491 
		21.92,14.506 22.167,14.513 22.413,14.521 22.651,14.528 22.897,14.536 23.135,14.536 23.382,14.543 23.62,14.543 23.858,14.536 
		24.096,14.536 24.334,14.536 24.564,14.528 24.802,14.521 25.032,14.513 25.262,14.498 25.492,14.491 25.722,14.476 25.951,14.46 
		26.403,14.431 26.846,14.393 27.29,14.349 27.725,14.296 28.159,14.244 28.586,14.184 29.005,14.116 29.423,14.049 29.835,13.974 
		30.245,13.899 30.639,13.816 31.042,13.727 31.427,13.637 31.813,13.54 32.2,13.45 32.577,13.345 32.938,13.24 33.308,13.135 
		33.668,13.023 34.021,12.911 34.375,12.798 34.719,12.678 35.056,12.559 35.393,12.431 35.721,12.304 36.041,12.184 36.362,12.049 
		36.673,11.922 36.977,11.787 37.281,11.652 37.577,11.518 37.864,11.383 38.152,11.248 38.43,11.113 38.709,10.971 38.98,10.829 
		39.243,10.694 39.498,10.552 39.752,10.409 39.998,10.274 40.245,10.132 40.475,9.998 40.705,9.855 40.933,9.72 41.156,9.585 
		41.37,9.443 41.575,9.309 41.779,9.173 41.977,9.046 42.167,8.919 42.354,8.784 42.535,8.657 42.708,8.529 42.88,8.41 43.2,8.17 
		43.497,7.945 43.767,7.728 44.021,7.519 44.251,7.332 44.457,7.151 44.637,6.994 44.793,6.852 44.923,6.725 45.04,6.62 
		45.187,6.478 45.236,6.425 44.957,6.118 45.236,6.425 45.251,6.403 45.269,6.38 45.278,6.365 45.285,6.343 45.293,6.328 
		45.293,6.305 45.293,6.291 45.293,6.268 45.285,6.253 45.285,6.23 45.278,6.215 45.269,6.193 45.251,6.178 45.245,6.163 
		45.227,6.148 45.211,6.141 45.195,6.125 45.179,6.118 45.162,6.104 45.146,6.104 45.122,6.096 45.104,6.088 45.088,6.088 
		45.064,6.088 45.04,6.088 45.023,6.088 44.999,6.096 44.981,6.104 44.957,6.11 44.941,6.125 44.923,6.141 44.899,6.163 	"/>
	<polygon style="fill:#AED7E7;" points="11.888,2.074 11.633,2.044 11.683,2.082 11.831,2.194 12.061,2.374 12.389,2.613 
		12.578,2.756 12.791,2.913 13.029,3.07 13.284,3.25 13.563,3.438 13.85,3.632 14.17,3.834 14.499,4.044 14.843,4.261 15.213,4.478 
		15.599,4.71 16.009,4.942 16.419,5.175 16.863,5.414 17.084,5.534 17.314,5.654 17.544,5.774 17.783,5.894 18.021,6.014 
		18.267,6.133 18.513,6.253 18.768,6.365 19.014,6.485 19.277,6.605 19.54,6.725 19.802,6.837 20.073,6.957 20.344,7.069 
		20.623,7.189 20.902,7.302 21.182,7.414 21.469,7.519 21.756,7.631 22.052,7.736 22.347,7.841 22.643,7.945 22.946,8.042 
		23.25,8.147 23.554,8.245 23.866,8.335 24.178,8.432 24.498,8.522 24.81,8.612 25.13,8.694 25.459,8.777 25.779,8.859 
		26.107,8.934 26.444,9.009 26.78,9.083 27.109,9.144 27.454,9.211 27.79,9.271 28.135,9.331 28.48,9.383 28.833,9.428 
		29.178,9.473 29.531,9.518 29.883,9.555 30.245,9.585 30.599,9.616 30.96,9.646 31.321,9.66 31.689,9.675 32.05,9.69 32.42,9.69 
		32.79,9.69 33.16,9.69 33.53,9.675 33.907,9.66 34.276,9.646 34.653,9.616 35.032,9.585 35.409,9.548 35.795,9.511 36.172,9.458 
		36.558,9.406 36.943,9.346 37.322,9.278 37.518,9.241 37.716,9.204 37.905,9.166 38.101,9.121 38.291,9.083 38.487,9.039 
		38.685,8.994 38.875,8.941 39.071,8.896 39.268,8.844 39.464,8.792 39.654,8.739 39.85,8.679 40.048,8.62 40.245,8.56 40.442,8.5 
		40.638,8.439 40.836,8.372 41.033,8.305 41.23,8.238 41.426,8.17 41.625,8.095 41.821,8.021 42.018,7.945 42.215,7.871 
		42.412,7.789 42.609,7.706 42.805,7.624 43.003,7.541 43.2,7.451 43.397,7.361 43.593,7.271 43.792,7.174 43.988,7.084 
		44.194,6.979 44.39,6.882 44.586,6.785 44.785,6.68 44.981,6.575 45.187,6.463 44.957,6.118 44.76,6.223 44.562,6.328 
		44.366,6.425 44.177,6.53 43.981,6.627 43.783,6.725 43.593,6.815 43.397,6.912 43.2,7.002 43.003,7.084 42.814,7.174 
		42.618,7.256 42.419,7.339 42.231,7.421 42.035,7.496 41.838,7.579 41.649,7.653 41.451,7.721 41.263,7.795 41.066,7.863 
		40.876,7.931 40.68,7.99 40.491,8.058 40.294,8.118 40.105,8.178 39.908,8.238 39.719,8.297 39.522,8.35 39.333,8.402 
		39.145,8.455 38.947,8.507 38.758,8.552 38.57,8.597 38.381,8.642 38.192,8.687 37.996,8.732 37.806,8.769 37.617,8.807 
		37.428,8.844 37.24,8.881 36.862,8.949 36.485,9.009 36.106,9.062 35.737,9.106 35.36,9.151 34.99,9.188 34.62,9.219 34.252,9.241 
		33.882,9.264 33.512,9.278 33.151,9.286 32.782,9.293 32.42,9.293 32.059,9.286 31.707,9.278 31.345,9.256 30.991,9.241 
		30.639,9.219 30.286,9.188 29.934,9.151 29.588,9.114 29.243,9.076 28.899,9.031 28.554,8.979 28.209,8.934 27.873,8.874 
		27.536,8.814 27.208,8.754 26.879,8.687 26.542,8.62 26.222,8.544 25.894,8.47 25.574,8.387 25.253,8.305 24.941,8.223 
		24.621,8.133 24.318,8.05 24.005,7.953 23.702,7.863 23.398,7.766 23.094,7.668 22.799,7.563 22.503,7.466 22.216,7.361 
		21.92,7.256 21.641,7.145 21.354,7.04 21.075,6.927 20.804,6.815 20.525,6.702 20.262,6.59 19.999,6.478 19.736,6.358 
		19.474,6.246 19.219,6.125 18.964,6.014 18.718,5.894 18.472,5.774 18.234,5.654 17.996,5.534 17.766,5.414 17.536,5.302 
		17.306,5.182 17.084,5.063 16.649,4.83 16.239,4.598 15.837,4.366 15.459,4.141 15.098,3.924 14.745,3.707 14.417,3.504 
		14.113,3.302 13.817,3.108 13.546,2.928 13.3,2.756 13.062,2.591 12.856,2.441 12.66,2.299 12.348,2.067 12.118,1.887 
		11.978,1.775 11.929,1.745 11.683,1.715 11.929,1.745 11.913,1.73 11.888,1.715 11.872,1.7 11.847,1.7 11.822,1.692 11.806,1.685 
		11.781,1.685 11.765,1.685 11.74,1.692 11.724,1.692 11.699,1.7 11.683,1.707 11.667,1.715 11.65,1.73 11.633,1.745 11.617,1.76 
		11.609,1.775 11.592,1.79 11.584,1.805 11.576,1.82 11.568,1.834 11.56,1.857 11.56,1.872 11.56,1.895 11.56,1.91 11.56,1.932 
		11.568,1.955 11.576,1.969 11.584,1.984 11.601,2.007 11.617,2.022 11.633,2.044 	"/>
	<polygon style="fill-rule:evenodd;clip-rule:evenodd;fill:#0D6187;" points="52.321,0.209 52.132,0.532 51.919,0.854 51.697,1.168 
		51.451,1.475 51.197,1.775 50.926,2.074 50.646,2.366 50.351,2.651 50.054,2.928 49.752,3.198 49.44,3.46 49.127,3.714 
		48.816,3.961 48.503,4.193 48.191,4.418 47.887,4.643 47.583,4.845 47.289,5.04 47.009,5.227 46.731,5.399 46.467,5.564 
		46.22,5.714 45.992,5.849 45.778,5.976 45.401,6.186 45.122,6.335 44.941,6.433 44.875,6.463 44.875,38.979 52.321,33.415 	"/>
	<polygon style="fill:#AED7E7;" points="45.104,6.463 44.99,6.643 45.055,6.605 45.236,6.515 45.515,6.358 45.892,6.148 
		46.106,6.021 46.344,5.878 46.59,5.729 46.862,5.564 47.132,5.392 47.42,5.205 47.715,5.01 48.019,4.8 48.332,4.583 48.643,4.351 
		48.799,4.239 48.956,4.111 49.112,3.991 49.275,3.864 49.431,3.737 49.587,3.609 49.744,3.475 49.9,3.34 50.054,3.205 50.21,3.07 
		50.359,2.936 50.514,2.793 50.663,2.644 50.81,2.501 50.951,2.359 51.098,2.209 51.23,2.059 51.369,1.902 51.5,1.745 51.631,1.595 
		51.754,1.438 51.877,1.281 52,1.124 52.108,0.958 52.223,0.794 52.329,0.629 52.428,0.464 52.518,0.299 52.125,0.12 52.034,0.27 
		51.935,0.434 51.837,0.584 51.739,0.741 51.624,0.899 51.507,1.048 51.393,1.206 51.279,1.355 51.147,1.505 51.023,1.655 
		50.893,1.797 50.752,1.939 50.623,2.089 50.482,2.231 50.334,2.374 50.195,2.508 50.047,2.651 49.9,2.786 49.752,2.92 
		49.596,3.056 49.44,3.183 49.292,3.31 49.136,3.438 48.98,3.564 48.824,3.685 48.667,3.804 48.52,3.924 48.364,4.036 48.052,4.261 
		47.749,4.478 47.454,4.68 47.157,4.875 46.878,5.063 46.608,5.234 46.344,5.399 46.097,5.549 45.868,5.684 45.655,5.804 
		45.285,6.014 45.006,6.163 44.833,6.253 44.776,6.291 44.662,6.463 44.776,6.291 44.751,6.298 44.727,6.313 44.71,6.328 
		44.695,6.343 44.686,6.365 44.677,6.38 44.662,6.396 44.662,6.418 44.653,6.433 44.653,6.455 44.653,6.47 44.662,6.493 
		44.662,6.507 44.67,6.53 44.677,6.545 44.686,6.56 44.695,6.575 44.71,6.59 44.718,6.605 44.736,6.62 44.751,6.635 44.767,6.643 
		44.785,6.65 44.809,6.658 44.827,6.665 44.85,6.665 44.867,6.672 44.891,6.665 44.917,6.665 44.941,6.658 44.965,6.65 44.99,6.643 
			"/>
	<polygon style="fill:#AED7E7;" points="45.023,39.136 45.104,38.979 45.104,6.463 44.662,6.463 44.662,38.979 45.023,39.136 
		44.662,38.979 44.662,39.008 44.662,39.032 44.67,39.046 44.677,39.069 44.686,39.091 44.695,39.106 44.71,39.121 44.727,39.136 
		44.743,39.144 44.76,39.159 44.776,39.167 44.793,39.173 44.818,39.181 44.842,39.181 44.859,39.181 44.875,39.181 44.899,39.181 
		44.923,39.181 44.941,39.181 44.957,39.173 44.981,39.167 44.999,39.159 45.014,39.144 45.031,39.136 45.047,39.121 45.064,39.106 
		45.071,39.091 45.08,39.069 45.088,39.046 45.097,39.032 45.104,39.008 45.104,38.979 	"/>
	<polygon style="fill:#AED7E7;" points="52.542,33.415 52.181,33.265 44.743,38.829 45.023,39.136 52.46,33.572 52.542,33.415 
		52.46,33.572 52.477,33.557 52.502,33.542 52.509,33.519 52.527,33.504 52.534,33.49 52.542,33.467 52.542,33.445 52.542,33.43 
		52.542,33.407 52.542,33.392 52.542,33.37 52.534,33.355 52.527,33.339 52.518,33.325 52.502,33.302 52.494,33.288 52.477,33.28 
		52.46,33.265 52.444,33.25 52.428,33.242 52.411,33.235 52.395,33.22 52.371,33.22 52.353,33.212 52.329,33.212 52.313,33.212 
		52.289,33.212 52.263,33.22 52.248,33.227 52.223,33.235 52.199,33.25 52.181,33.265 	"/>
	<polygon style="fill:#AED7E7;" points="52.125,0.12 52.1,0.209 52.1,33.415 52.542,33.415 52.542,0.209 52.125,0.12 52.542,0.209 
		52.542,0.18 52.542,0.157 52.534,0.135 52.527,0.12 52.509,0.097 52.502,0.083 52.494,0.067 52.477,0.052 52.46,0.045 52.444,0.03 
		52.419,0.022 52.404,0.015 52.379,0.007 52.362,0.007 52.346,0 52.321,0 52.296,0 52.281,0.007 52.263,0.007 52.239,0.015 
		52.223,0.022 52.199,0.03 52.181,0.045 52.166,0.052 52.149,0.067 52.14,0.083 52.132,0.097 52.116,0.12 52.108,0.135 52.1,0.157 
		52.1,0.18 52.1,0.209 	"/>
	<polygon style="fill-rule:evenodd;clip-rule:evenodd;fill:#1E97CE;" points="44.875,6.463 44.833,6.515 44.686,6.65 44.448,6.875 
		44.12,7.174 43.693,7.534 43.184,7.945 42.576,8.402 41.87,8.896 41.089,9.421 40.211,9.96 39.251,10.507 38.201,11.053 
		37.06,11.585 35.844,12.094 34.53,12.581 33.143,13.03 31.674,13.427 30.114,13.772 28.48,14.041 26.764,14.244 24.975,14.355 
		23.103,14.378 21.148,14.288 19.121,14.094 17.011,13.779 14.835,13.322 12.578,12.731 10.254,11.989 7.857,11.091 5.386,10.02 
		2.841,8.769 0.23,7.339 0.23,38.979 44.875,38.979 	"/>
	<polygon style="fill:#AED7E7;" points="0.452,7.339 0.107,7.503 0.443,7.698 0.772,7.885 1.1,8.065 1.429,8.252 1.757,8.425 
		2.085,8.604 2.406,8.777 2.734,8.949 3.054,9.114 3.375,9.278 3.694,9.436 4.015,9.593 4.335,9.75 4.655,9.9 4.967,10.05 
		5.287,10.199 5.599,10.342 5.911,10.484 6.223,10.619 6.535,10.761 6.847,10.889 7.151,11.023 7.455,11.15 7.767,11.271 
		8.07,11.397 8.374,11.518 8.678,11.63 8.981,11.75 9.277,11.862 9.581,11.967 9.876,12.079 10.18,12.184 10.476,12.281 
		10.771,12.379 11.059,12.476 11.354,12.574 11.65,12.664 11.937,12.753 12.225,12.835 12.512,12.925 12.799,13.008 13.086,13.09 
		13.374,13.165 13.662,13.24 13.94,13.315 14.22,13.39 14.499,13.45 14.778,13.517 15.057,13.584 15.336,13.644 15.615,13.705 
		15.886,13.764 16.157,13.824 16.436,13.869 16.699,13.929 16.97,13.974 17.241,14.019 17.512,14.064 17.774,14.109 18.045,14.154 
		18.308,14.191 18.571,14.229 18.833,14.258 19.088,14.296 19.351,14.326 19.605,14.355 19.868,14.386 20.122,14.408 20.376,14.431 
		20.623,14.453 20.877,14.476 21.132,14.491 21.378,14.506 21.625,14.521 21.879,14.536 22.117,14.55 22.363,14.558 22.61,14.565 
		22.856,14.573 23.094,14.581 23.333,14.581 23.579,14.581 23.809,14.581 24.046,14.581 24.285,14.581 24.515,14.573 24.745,14.565 
		24.983,14.558 25.212,14.55 25.442,14.536 25.664,14.528 25.894,14.513 26.345,14.483 26.789,14.446 27.224,14.401 27.668,14.355 
		28.093,14.303 28.521,14.244 28.932,14.184 29.351,14.116 29.76,14.041 30.163,13.966 30.566,13.884 30.96,13.801 31.345,13.719 
		31.731,13.622 32.109,13.524 32.478,13.427 32.847,13.33 33.217,13.225 33.57,13.113 33.922,13 34.268,12.888 34.613,12.775 
		34.95,12.656 35.278,12.528 35.606,12.409 35.926,12.281 36.247,12.154 36.551,12.027 36.862,11.899 37.157,11.765 37.454,11.63 
		37.741,11.495 38.029,11.36 38.306,11.226 38.578,11.091 38.841,10.956 39.103,10.814 39.359,10.679 39.612,10.544 39.859,10.402 
		40.096,10.267 40.334,10.125 40.556,9.99 40.786,9.855 41,9.72 41.213,9.585 41.418,9.451 41.625,9.323 41.821,9.188 42.01,9.062 
		42.191,8.934 42.371,8.807 42.543,8.679 42.708,8.56 43.028,8.328 43.323,8.095 43.593,7.885 43.84,7.684 44.071,7.489 
		44.267,7.316 44.448,7.159 44.613,7.017 44.743,6.897 44.85,6.792 44.999,6.65 45.047,6.597 44.71,6.335 44.67,6.373 44.53,6.515 
		44.423,6.612 44.292,6.732 44.144,6.875 43.963,7.024 43.767,7.197 43.544,7.384 43.298,7.579 43.036,7.789 42.741,8.013 
		42.428,8.245 42.263,8.365 42.1,8.485 41.919,8.612 41.739,8.739 41.558,8.867 41.361,8.994 41.165,9.121 40.959,9.256 
		40.753,9.391 40.54,9.518 40.319,9.653 40.088,9.788 39.859,9.922 39.621,10.057 39.383,10.199 39.136,10.334 38.881,10.469 
		38.627,10.604 38.357,10.739 38.093,10.874 37.815,11.008 37.536,11.143 37.256,11.271 36.961,11.405 36.666,11.533 36.369,11.66 
		36.066,11.787 35.754,11.915 35.433,12.035 35.113,12.154 34.785,12.274 34.457,12.394 34.12,12.514 33.775,12.618 33.431,12.731 
		33.077,12.835 32.715,12.94 32.354,13.038 31.986,13.135 31.616,13.232 31.238,13.322 30.853,13.412 30.467,13.495 30.073,13.569 
		29.67,13.644 29.269,13.719 28.866,13.779 28.447,13.847 28.029,13.899 27.609,13.952 27.174,14.004 26.748,14.041 26.304,14.079 
		25.861,14.109 25.64,14.124 25.417,14.139 25.188,14.146 24.966,14.154 24.736,14.161 24.506,14.168 24.276,14.176 24.039,14.176 
		23.809,14.176 23.579,14.176 23.34,14.176 23.103,14.176 22.864,14.168 22.626,14.161 22.38,14.154 22.142,14.146 21.904,14.139 
		21.658,14.124 21.411,14.109 21.165,14.094 20.919,14.071 20.664,14.049 20.418,14.034 20.164,14.004 19.917,13.981 19.663,13.952 
		19.408,13.929 19.145,13.899 18.891,13.862 18.636,13.824 18.374,13.794 18.111,13.749 17.848,13.711 17.585,13.667 17.323,13.622 
		17.06,13.577 16.789,13.524 16.526,13.479 16.255,13.419 15.984,13.367 15.714,13.315 15.443,13.255 15.164,13.195 14.893,13.128 
		14.614,13.061 14.334,12.993 14.055,12.925 13.776,12.851 13.497,12.775 13.218,12.701 12.938,12.618 12.651,12.543 12.364,12.454 
		12.077,12.371 11.789,12.281 11.502,12.191 11.215,12.094 10.919,12.004 10.624,11.899 10.336,11.802 10.041,11.697 9.745,11.592 
		9.441,11.48 9.146,11.375 8.851,11.255 8.546,11.143 8.251,11.023 7.947,10.904 7.643,10.784 7.34,10.657 7.028,10.529 
		6.724,10.394 6.412,10.26 6.108,10.125 5.796,9.982 5.484,9.84 5.172,9.69 4.86,9.541 4.54,9.398 4.229,9.241 3.908,9.083 
		3.588,8.926 3.268,8.762 2.947,8.597 2.627,8.425 2.307,8.252 1.987,8.08 1.659,7.908 1.33,7.728 1.002,7.541 0.673,7.354 
		0.345,7.167 0.008,7.339 0.345,7.167 0.329,7.151 0.304,7.145 0.279,7.137 0.255,7.129 0.23,7.129 0.213,7.129 0.189,7.129 
		0.173,7.137 0.148,7.145 0.131,7.151 0.115,7.159 0.099,7.174 0.082,7.182 0.066,7.197 0.049,7.211 0.041,7.227 0.033,7.241 
		0.017,7.264 0.017,7.279 0.008,7.294 0,7.316 0,7.332 0,7.354 0.008,7.369 0.008,7.391 0.017,7.406 0.025,7.429 0.033,7.444 
		0.049,7.459 0.066,7.474 0.09,7.489 0.107,7.503 	"/>
	<polygon style="fill:#AED7E7;" points="0.23,39.181 0.452,38.979 0.452,7.339 0.008,7.339 0.008,38.979 0.23,39.181 0.008,38.979 
		0.008,39.008 0.008,39.032 0.017,39.046 0.025,39.069 0.033,39.091 0.049,39.106 0.058,39.121 0.074,39.136 0.09,39.144 
		0.107,39.159 0.131,39.167 0.148,39.173 0.165,39.181 0.189,39.181 0.205,39.181 0.23,39.181 0.247,39.181 0.271,39.181 
		0.288,39.181 0.312,39.173 0.329,39.167 0.345,39.159 0.361,39.144 0.377,39.136 0.394,39.121 0.411,39.106 0.419,39.091 
		0.427,39.069 0.443,39.046 0.443,39.032 0.452,39.008 0.452,38.979 	"/>
	<polygon style="fill:#AED7E7;" points="45.104,38.979 44.875,38.785 0.23,38.785 0.23,39.181 44.875,39.181 45.104,38.979 
		44.875,39.181 44.908,39.181 44.932,39.181 44.957,39.173 44.974,39.167 44.999,39.159 45.014,39.151 45.031,39.136 45.047,39.121 
		45.055,39.106 45.071,39.091 45.08,39.076 45.088,39.053 45.097,39.039 45.097,39.016 45.104,39.001 45.104,38.979 45.104,38.964 
		45.097,38.941 45.097,38.926 45.088,38.904 45.08,38.889 45.071,38.874 45.055,38.859 45.047,38.843 45.031,38.829 45.014,38.814 
		44.999,38.806 44.974,38.799 44.957,38.792 44.932,38.785 44.908,38.785 44.875,38.785 	"/>
	<polygon style="fill:#AED7E7;" points="44.71,6.335 44.662,6.463 44.662,38.979 45.104,38.979 45.104,6.463 44.71,6.335 
		45.104,6.463 45.104,6.44 45.097,6.418 45.088,6.396 45.08,6.373 45.071,6.358 45.064,6.343 45.047,6.328 45.031,6.313 
		45.014,6.298 44.999,6.291 44.981,6.283 44.957,6.275 44.941,6.268 44.923,6.268 44.899,6.261 44.875,6.261 44.859,6.261 
		44.842,6.268 44.818,6.268 44.793,6.275 44.776,6.283 44.76,6.291 44.743,6.298 44.727,6.313 44.71,6.328 44.695,6.343 
		44.686,6.358 44.677,6.373 44.67,6.396 44.662,6.418 44.662,6.44 44.662,6.463 	"/>
	<polygon style="fill:#1F1A17;" points="42.018,26.315 42.026,26.285 42.035,26.248 42.035,26.218 42.042,26.188 42.035,26.158 
		42.026,26.128 42.018,26.098 42.01,26.076 41.993,26.053 41.968,26.031 41.953,26.008 41.928,25.986 41.903,25.971 41.878,25.956 
		41.854,25.94 41.821,25.934 41.796,25.926 41.763,25.911 41.739,25.911 41.707,25.911 41.673,25.911 41.64,25.911 41.616,25.918 
		41.583,25.926 41.558,25.94 41.526,25.956 41.501,25.971 41.475,25.986 41.459,26.016 41.435,26.038 41.418,26.068 41.402,26.105 	
		"/>
	<polygon style="fill:#1F1A17;" points="35.089,26.315 35.089,26.315 35.17,26.473 35.252,26.63 35.335,26.779 35.417,26.922 
		35.499,27.064 35.582,27.199 35.664,27.334 35.746,27.454 35.827,27.581 35.91,27.694 35.992,27.805 36.074,27.918 36.148,28.022 
		36.23,28.12 36.312,28.225 36.395,28.315 36.476,28.405 36.558,28.495 36.632,28.57 36.714,28.652 36.796,28.727 36.879,28.794 
		36.961,28.861 37.042,28.929 37.125,28.989 37.208,29.041 37.289,29.093 37.371,29.146 37.445,29.191 37.527,29.236 37.609,29.273 
		37.692,29.311 37.773,29.341 37.855,29.371 37.938,29.401 38.02,29.423 38.101,29.438 38.183,29.46 38.266,29.468 38.348,29.483 
		38.422,29.49 38.504,29.49 38.586,29.49 38.667,29.49 38.743,29.483 38.817,29.475 38.898,29.468 38.971,29.453 39.046,29.438 
		39.119,29.416 39.194,29.401 39.259,29.378 39.333,29.349 39.408,29.326 39.473,29.295 39.539,29.266 39.604,29.236 39.669,29.199 
		39.736,29.161 39.801,29.124 39.924,29.049 40.048,28.959 40.163,28.876 40.277,28.779 40.384,28.689 40.491,28.584 40.589,28.479 
		40.689,28.375 40.786,28.27 40.885,28.165 40.966,28.053 41.049,27.94 41.131,27.835 41.213,27.723 41.288,27.619 41.361,27.506 
		41.426,27.409 41.493,27.304 41.607,27.102 41.714,26.922 41.805,26.757 41.878,26.607 41.977,26.406 42.018,26.315 41.402,26.105 
		41.37,26.166 41.279,26.36 41.213,26.495 41.123,26.653 41.033,26.825 40.917,27.012 40.861,27.109 40.794,27.199 40.729,27.304 
		40.656,27.401 40.589,27.499 40.515,27.604 40.433,27.701 40.352,27.798 40.269,27.896 40.187,27.993 40.096,28.083 40.015,28.18 
		39.916,28.262 39.826,28.345 39.736,28.419 39.636,28.495 39.539,28.562 39.44,28.629 39.39,28.652 39.341,28.682 39.292,28.705 
		39.243,28.734 39.194,28.757 39.145,28.779 39.087,28.794 39.038,28.809 38.989,28.832 38.939,28.846 38.89,28.854 38.833,28.869 
		38.784,28.876 38.734,28.884 38.685,28.892 38.627,28.892 38.578,28.892 38.529,28.892 38.471,28.892 38.422,28.884 38.364,28.876 
		38.306,28.869 38.257,28.861 38.201,28.846 38.143,28.832 38.085,28.809 38.029,28.794 37.969,28.764 37.905,28.742 37.848,28.711 
		37.782,28.674 37.725,28.644 37.659,28.599 37.593,28.562 37.527,28.517 37.46,28.464 37.396,28.412 37.331,28.36 37.256,28.3 
		37.19,28.232 37.125,28.165 37.051,28.09 36.977,28.015 36.912,27.94 36.829,27.858 36.763,27.768 36.69,27.671 36.615,27.581 
		36.534,27.476 36.46,27.371 36.386,27.267 36.312,27.146 36.23,27.027 36.157,26.907 36.082,26.779 36,26.645 35.926,26.51 
		35.844,26.36 35.763,26.218 35.688,26.061 35.688,26.061 35.089,26.315 35.089,26.315 	"/>
	<polygon style="fill:#1F1A17;" points="29.375,26.285 29.375,26.285 29.408,26.218 29.498,26.023 29.564,25.888 29.654,25.739 
		29.745,25.566 29.859,25.379 29.917,25.282 29.982,25.185 30.048,25.08 30.114,24.982 30.188,24.885 30.262,24.78 30.344,24.683 
		30.425,24.585 30.508,24.488 30.59,24.391 30.672,24.301 30.762,24.211 30.853,24.129 30.951,24.039 31.042,23.964 31.141,23.889 
		31.238,23.821 31.337,23.762 31.386,23.732 31.436,23.702 31.484,23.68 31.535,23.649 31.592,23.634 31.641,23.612 31.689,23.589 
		31.74,23.574 31.788,23.559 31.837,23.544 31.887,23.529 31.936,23.515 31.993,23.515 32.043,23.5 32.092,23.5 32.149,23.492 
		32.2,23.492 32.249,23.492 32.306,23.5 32.363,23.5 32.412,23.507 32.471,23.515 32.528,23.529 32.577,23.537 32.634,23.559 
		32.691,23.574 32.749,23.597 32.806,23.62 32.872,23.649 32.929,23.68 32.986,23.709 33.052,23.739 33.118,23.784 33.184,23.821 
		33.25,23.867 33.316,23.919 33.38,23.971 33.446,24.023 33.521,24.083 33.587,24.151 33.66,24.218 33.726,24.286 33.8,24.361 
		33.874,24.443 33.939,24.526 34.021,24.615 34.087,24.706 34.169,24.803 34.235,24.908 34.316,25.012 34.391,25.118 34.465,25.237 
		34.547,25.35 34.62,25.477 34.695,25.604 34.776,25.739 34.851,25.873 34.933,26.016 35.007,26.166 35.089,26.315 35.688,26.061 
		35.606,25.903 35.523,25.753 35.441,25.604 35.36,25.461 35.278,25.319 35.195,25.185 35.113,25.049 35.032,24.93 34.95,24.803 
		34.867,24.69 34.785,24.57 34.71,24.465 34.629,24.361 34.547,24.256 34.465,24.159 34.382,24.069 34.301,23.979 34.219,23.889 
		34.136,23.814 34.063,23.732 33.981,23.657 33.898,23.589 33.816,23.522 33.734,23.455 33.651,23.395 33.578,23.342 33.497,23.29 
		33.414,23.238 33.332,23.192 33.25,23.147 33.167,23.11 33.085,23.073 33.003,23.043 32.922,23.013 32.839,22.982 32.757,22.96 
		32.675,22.945 32.592,22.923 32.511,22.915 32.429,22.9 32.347,22.9 32.273,22.893 32.191,22.893 32.117,22.893 32.035,22.9 
		31.96,22.908 31.878,22.915 31.806,22.93 31.731,22.945 31.656,22.968 31.583,22.982 31.509,23.005 31.444,23.036 31.37,23.058 
		31.304,23.088 31.238,23.118 31.165,23.155 31.099,23.185 31.042,23.223 30.967,23.26 30.853,23.335 30.729,23.425 30.614,23.515 
		30.5,23.604 30.392,23.702 30.286,23.799 30.179,23.904 30.082,24.008 29.991,24.114 29.901,24.226 29.811,24.331 29.72,24.443 
		29.637,24.548 29.564,24.66 29.489,24.765 29.417,24.877 29.351,24.982 29.285,25.087 29.161,25.282 29.063,25.469 28.972,25.634 
		28.899,25.776 28.8,25.986 28.758,26.068 28.758,26.068 29.375,26.285 29.375,26.285 	"/>
	<polygon style="fill:#1F1A17;" points="22.454,26.293 22.454,26.293 22.544,26.45 22.626,26.6 22.7,26.75 22.791,26.899 
		22.864,27.035 22.946,27.169 23.028,27.304 23.11,27.431 23.193,27.551 23.275,27.671 23.357,27.783 23.439,27.888 23.513,27.993 
		23.595,28.098 23.677,28.195 23.759,28.285 23.841,28.375 23.923,28.464 24.005,28.54 24.087,28.622 24.162,28.697 24.244,28.764 
		24.326,28.832 24.408,28.898 24.49,28.959 24.572,29.011 24.646,29.063 24.728,29.116 24.81,29.161 24.893,29.206 24.975,29.243 
		25.057,29.281 25.139,29.311 25.221,29.341 25.303,29.371 25.385,29.393 25.467,29.408 25.549,29.431 25.631,29.438 25.713,29.453 
		25.787,29.46 25.869,29.46 25.943,29.46 26.025,29.46 26.107,29.453 26.181,29.446 26.255,29.438 26.337,29.423 26.411,29.408 
		26.485,29.386 26.551,29.371 26.633,29.341 26.699,29.318 26.764,29.295 26.837,29.266 26.903,29.236 26.969,29.199 27.035,29.168 
		27.101,29.131 27.167,29.093 27.29,29.019 27.413,28.929 27.527,28.839 27.642,28.749 27.75,28.652 27.855,28.555 27.955,28.45 
		28.053,28.345 28.152,28.24 28.243,28.128 28.333,28.022 28.415,27.911 28.496,27.798 28.571,27.694 28.652,27.581 28.718,27.476 
		28.784,27.371 28.857,27.267 28.972,27.072 29.071,26.885 29.161,26.72 29.236,26.57 29.342,26.368 29.375,26.285 28.758,26.068 
		28.734,26.135 28.635,26.331 28.571,26.465 28.488,26.615 28.39,26.794 28.274,26.974 28.217,27.072 28.159,27.169 28.093,27.274 
		28.021,27.371 27.946,27.469 27.873,27.566 27.798,27.671 27.716,27.768 27.635,27.866 27.552,27.963 27.461,28.053 27.371,28.143 
		27.281,28.225 27.191,28.315 27.093,28.39 26.994,28.464 26.903,28.532 26.797,28.599 26.756,28.622 26.699,28.652 26.649,28.674 
		26.6,28.705 26.551,28.727 26.501,28.749 26.452,28.764 26.403,28.779 26.354,28.794 26.304,28.809 26.247,28.824 26.198,28.839 
		26.148,28.846 26.099,28.854 26.042,28.854 25.992,28.861 25.943,28.861 25.886,28.861 25.836,28.861 25.779,28.854 25.73,28.846 
		25.672,28.839 25.623,28.832 25.565,28.816 25.508,28.802 25.451,28.779 25.393,28.764 25.335,28.734 25.27,28.711 25.212,28.682 
		25.155,28.644 25.089,28.614 25.023,28.577 24.958,28.532 24.893,28.487 24.827,28.435 24.761,28.382 24.695,28.33 24.629,28.27 
		24.556,28.202 24.482,28.135 24.416,28.067 24.342,27.993 24.268,27.911 24.203,27.828 24.129,27.738 24.055,27.648 23.981,27.551 
		23.907,27.454 23.825,27.349 23.751,27.236 23.677,27.124 23.603,27.004 23.521,26.877 23.447,26.75 23.365,26.615 23.291,26.48 
		23.209,26.337 23.135,26.188 23.053,26.038 23.053,26.038 22.454,26.293 22.454,26.293 	"/>
	<polygon style="fill:#1F1A17;" points="16.765,26.315 16.765,26.315 16.789,26.248 16.888,26.046 16.954,25.911 17.036,25.753 
		17.134,25.582 17.241,25.394 17.306,25.296 17.364,25.2 17.43,25.103 17.503,24.997 17.569,24.9 17.651,24.795 17.725,24.69 
		17.799,24.593 17.881,24.496 17.971,24.398 18.062,24.301 18.144,24.218 18.234,24.129 18.333,24.046 18.423,23.964 18.521,23.889 
		18.62,23.821 18.718,23.754 18.768,23.724 18.817,23.702 18.866,23.672 18.916,23.649 18.964,23.626 19.014,23.604 19.063,23.582 
		19.113,23.567 19.17,23.544 19.219,23.529 19.269,23.522 19.318,23.507 19.375,23.5 19.424,23.492 19.474,23.485 19.523,23.485 
		19.572,23.485 19.629,23.485 19.679,23.485 19.736,23.485 19.786,23.492 19.843,23.5 19.9,23.515 19.95,23.522 20.007,23.537 
		20.065,23.559 20.122,23.574 20.18,23.604 20.246,23.626 20.303,23.657 20.36,23.687 20.426,23.724 20.492,23.762 20.557,23.799 
		20.623,23.844 20.689,23.896 20.754,23.949 20.82,24.008 20.886,24.062 20.959,24.129 21.025,24.196 21.099,24.264 21.165,24.338 
		21.239,24.42 21.313,24.503 21.387,24.585 21.46,24.683 21.534,24.78 21.608,24.877 21.682,24.982 21.756,25.095 21.838,25.207 
		21.912,25.327 21.986,25.447 22.068,25.574 22.142,25.708 22.216,25.851 22.298,25.986 22.38,26.135 22.454,26.293 23.053,26.038 
		22.971,25.881 22.889,25.724 22.807,25.574 22.725,25.432 22.643,25.29 22.561,25.155 22.479,25.027 22.396,24.9 22.314,24.78 
		22.241,24.66 22.158,24.548 22.076,24.436 21.994,24.331 21.912,24.233 21.83,24.136 21.756,24.039 21.674,23.956 21.592,23.867 
		21.51,23.784 21.428,23.709 21.346,23.634 21.264,23.567 21.189,23.5 21.107,23.439 21.025,23.379 20.943,23.32 20.861,23.268 
		20.779,23.215 20.697,23.17 20.615,23.125 20.533,23.088 20.459,23.05 20.369,23.021 20.287,22.99 20.212,22.968 20.13,22.945 
		20.048,22.923 19.966,22.908 19.884,22.9 19.802,22.885 19.72,22.885 19.638,22.878 19.564,22.878 19.482,22.885 19.408,22.885 
		19.326,22.9 19.252,22.908 19.178,22.923 19.104,22.938 19.031,22.96 18.957,22.976 18.882,23.005 18.817,23.028 18.743,23.058 
		18.677,23.088 18.612,23.118 18.538,23.147 18.472,23.185 18.415,23.223 18.349,23.26 18.226,23.342 18.103,23.425 17.988,23.515 
		17.881,23.612 17.766,23.709 17.659,23.807 17.561,23.912 17.462,24.023 17.372,24.129 17.273,24.233 17.191,24.346 17.101,24.458 
		17.019,24.57 16.945,24.675 16.872,24.788 16.797,24.9 16.731,25.005 16.666,25.109 16.551,25.304 16.444,25.491 16.354,25.656 
		16.28,25.806 16.182,26.016 16.149,26.098 16.149,26.098 16.765,26.315 16.765,26.315 	"/>
	<polygon style="fill:#1F1A17;" points="9.844,26.315 9.844,26.315 9.926,26.473 10.008,26.63 10.09,26.779 10.172,26.922 
		10.254,27.064 10.336,27.199 10.418,27.334 10.5,27.454 10.583,27.581 10.665,27.694 10.747,27.805 10.821,27.918 10.903,28.022 
		10.985,28.12 11.067,28.225 11.149,28.315 11.231,28.405 11.313,28.495 11.396,28.57 11.469,28.652 11.551,28.727 11.633,28.794 
		11.715,28.861 11.797,28.929 11.879,28.989 11.954,29.041 12.036,29.093 12.118,29.146 12.2,29.191 12.282,29.236 12.364,29.273 
		12.446,29.311 12.528,29.341 12.61,29.371 12.692,29.401 12.774,29.423 12.856,29.438 12.938,29.46 13.021,29.468 13.095,29.475 
		13.177,29.49 13.259,29.49 13.333,29.49 13.415,29.49 13.497,29.483 13.571,29.475 13.645,29.46 13.727,29.453 13.801,29.438 
		13.875,29.416 13.949,29.401 14.014,29.371 14.088,29.349 14.154,29.326 14.228,29.295 14.293,29.266 14.359,29.228 14.424,29.199 
		14.491,29.161 14.556,29.124 14.679,29.049 14.794,28.959 14.917,28.869 15.024,28.779 15.139,28.682 15.238,28.584 15.344,28.479 
		15.443,28.375 15.533,28.27 15.632,28.158 15.714,28.045 15.804,27.94 15.886,27.828 15.96,27.723 16.034,27.611 16.108,27.506 
		16.173,27.401 16.239,27.296 16.354,27.102 16.461,26.914 16.551,26.75 16.625,26.6 16.724,26.397 16.765,26.315 16.149,26.098 
		16.116,26.166 16.025,26.36 15.96,26.495 15.878,26.645 15.779,26.825 15.664,27.004 15.607,27.102 15.542,27.199 15.476,27.296 
		15.41,27.401 15.336,27.499 15.262,27.596 15.188,27.701 15.106,27.798 15.024,27.896 14.934,27.993 14.852,28.083 14.761,28.172 
		14.671,28.254 14.581,28.345 14.482,28.419 14.384,28.495 14.285,28.562 14.187,28.629 14.137,28.652 14.088,28.682 14.039,28.705 
		13.99,28.734 13.94,28.757 13.891,28.772 13.842,28.794 13.792,28.809 13.744,28.824 13.694,28.839 13.637,28.854 13.587,28.869 
		13.538,28.876 13.489,28.884 13.431,28.884 13.382,28.892 13.333,28.892 13.275,28.892 13.226,28.884 13.168,28.884 13.119,28.876 
		13.062,28.869 13.004,28.854 12.955,28.846 12.898,28.824 12.84,28.809 12.783,28.787 12.726,28.764 12.66,28.734 12.602,28.711 
		12.536,28.674 12.479,28.644 12.414,28.599 12.348,28.562 12.282,28.517 12.216,28.464 12.151,28.412 12.085,28.36 12.011,28.3 
		11.945,28.232 11.872,28.165 11.806,28.09 11.732,28.015 11.658,27.94 11.592,27.851 11.51,27.768 11.444,27.671 11.362,27.581 
		11.297,27.476 11.215,27.371 11.141,27.267 11.067,27.146 10.985,27.027 10.911,26.907 10.837,26.779 10.755,26.645 10.681,26.51 
		10.599,26.36 10.525,26.218 10.443,26.061 10.443,26.061 9.844,26.315 9.844,26.315 	"/>
	<polygon style="fill:#1F1A17;" points="4.146,26.278 4.17,26.21 4.269,26.016 4.335,25.881 4.417,25.731 4.515,25.559 4.63,25.372 
		4.688,25.274 4.746,25.177 4.811,25.08 4.885,24.982 4.959,24.877 5.033,24.78 5.106,24.675 5.188,24.585 5.271,24.48 
		5.353,24.391 5.443,24.301 5.534,24.203 5.624,24.121 5.714,24.039 5.813,23.964 5.903,23.889 6.001,23.821 6.1,23.754 
		6.149,23.732 6.199,23.702 6.248,23.68 6.297,23.649 6.346,23.626 6.404,23.604 6.453,23.589 6.502,23.574 6.552,23.552 
		6.601,23.537 6.65,23.529 6.699,23.515 6.749,23.507 6.806,23.5 6.855,23.5 6.904,23.492 6.962,23.492 7.011,23.492 7.061,23.492 
		7.118,23.5 7.175,23.507 7.225,23.515 7.282,23.522 7.34,23.537 7.389,23.552 7.455,23.574 7.504,23.597 7.569,23.62 7.627,23.642 
		7.685,23.672 7.75,23.709 7.816,23.739 7.874,23.784 7.939,23.821 8.004,23.867 8.07,23.919 8.136,23.971 8.21,24.023 
		8.276,24.083 8.341,24.151 8.415,24.218 8.48,24.286 8.555,24.361 8.628,24.443 8.703,24.526 8.768,24.615 8.851,24.706 
		8.924,24.803 8.998,24.908 9.072,25.005 9.146,25.118 9.22,25.237 9.302,25.35 9.375,25.477 9.45,25.604 9.532,25.739 
		9.606,25.873 9.688,26.016 9.77,26.166 9.844,26.315 10.443,26.061 10.361,25.903 10.279,25.753 10.197,25.604 10.115,25.461 
		10.033,25.319 9.95,25.185 9.868,25.049 9.786,24.93 9.704,24.803 9.622,24.69 9.54,24.57 9.458,24.465 9.384,24.361 9.302,24.256 
		9.22,24.159 9.137,24.069 9.055,23.979 8.981,23.889 8.899,23.814 8.817,23.732 8.735,23.657 8.653,23.589 8.571,23.522 
		8.489,23.455 8.415,23.395 8.333,23.342 8.251,23.29 8.169,23.238 8.087,23.192 8.004,23.147 7.922,23.11 7.84,23.073 
		7.758,23.036 7.676,23.013 7.603,22.982 7.521,22.96 7.438,22.945 7.356,22.923 7.274,22.915 7.192,22.9 7.11,22.893 7.028,22.893 
		6.954,22.893 6.872,22.893 6.798,22.9 6.716,22.908 6.642,22.915 6.568,22.93 6.494,22.945 6.42,22.96 6.346,22.982 6.272,23.005 
		6.207,23.036 6.133,23.058 6.067,23.088 5.993,23.118 5.928,23.147 5.862,23.185 5.805,23.223 5.73,23.26 5.616,23.335 
		5.493,23.425 5.377,23.507 5.263,23.604 5.156,23.694 5.049,23.799 4.942,23.904 4.852,24.008 4.753,24.114 4.663,24.218 
		4.573,24.331 4.491,24.436 4.409,24.548 4.335,24.66 4.252,24.765 4.187,24.87 4.122,24.975 4.047,25.08 3.933,25.274 
		3.834,25.461 3.744,25.626 3.67,25.776 3.572,25.979 3.53,26.061 	"/>
	<polygon style="fill:#1F1A17;" points="3.53,26.061 3.522,26.098 3.514,26.128 3.505,26.166 3.505,26.196 3.514,26.226 
		3.514,26.255 3.53,26.278 3.539,26.308 3.555,26.331 3.572,26.353 3.596,26.375 3.612,26.391 3.637,26.413 3.662,26.428 
		3.694,26.435 3.719,26.45 3.752,26.458 3.776,26.465 3.81,26.473 3.842,26.473 3.875,26.473 3.9,26.465 3.933,26.465 3.957,26.458 
		3.99,26.443 4.015,26.428 4.04,26.413 4.072,26.391 4.088,26.368 4.113,26.345 4.13,26.315 4.146,26.278 	"/>
	<polygon style="fill:#1F1A17;" points="4.45,25.994 4.433,25.956 4.417,25.926 4.401,25.896 4.384,25.866 4.359,25.844 
		4.343,25.814 4.319,25.791 4.294,25.769 4.269,25.747 4.245,25.731 4.22,25.708 4.195,25.693 4.17,25.679 4.138,25.664 
		4.113,25.656 4.081,25.641 4.023,25.626 3.965,25.619 3.9,25.612 3.842,25.604 3.776,25.612 3.719,25.619 3.662,25.634 
		3.604,25.649 3.547,25.679 3.489,25.701 3.44,25.731 3.391,25.769 3.35,25.806 3.309,25.844 3.268,25.888 3.235,25.94 
		3.227,25.963 3.218,25.994 3.202,26.016 3.194,26.046 3.186,26.076 3.186,26.105 3.177,26.135 3.177,26.166 3.169,26.196 
		3.177,26.226 3.177,26.255 3.186,26.293 3.194,26.323 3.202,26.36 3.21,26.391 3.227,26.428 	"/>
	<polygon style="fill:#1F1A17;" points="9.556,25.94 9.556,25.94 9.482,26.09 9.409,26.233 9.327,26.368 9.252,26.502 9.179,26.638 
		9.097,26.765 9.031,26.877 8.949,26.997 8.883,27.109 8.801,27.214 8.735,27.311 8.662,27.409 8.587,27.499 8.522,27.588 
		8.448,27.671 8.382,27.753 8.316,27.828 8.243,27.896 8.177,27.963 8.12,28.03 8.054,28.083 7.997,28.135 7.931,28.187 
		7.874,28.24 7.816,28.277 7.75,28.323 7.701,28.36 7.643,28.39 7.586,28.419 7.537,28.45 7.487,28.472 7.438,28.495 7.389,28.51 
		7.34,28.532 7.299,28.54 7.257,28.555 7.208,28.57 7.167,28.577 7.126,28.584 7.085,28.584 7.052,28.592 7.011,28.592 6.97,28.592 
		6.929,28.592 6.896,28.592 6.855,28.584 6.814,28.577 6.773,28.57 6.732,28.562 6.699,28.555 6.658,28.54 6.617,28.532 
		6.576,28.517 6.535,28.502 6.494,28.487 6.453,28.464 6.412,28.442 6.371,28.419 6.33,28.397 6.289,28.382 6.207,28.323 
		6.116,28.262 6.026,28.195 5.944,28.12 5.862,28.053 5.771,27.97 5.689,27.888 5.607,27.798 5.534,27.708 5.452,27.619 
		5.377,27.521 5.304,27.431 5.238,27.334 5.164,27.244 5.098,27.146 5.033,27.049 4.976,26.959 4.917,26.87 4.811,26.682 
		4.712,26.517 4.63,26.368 4.565,26.241 4.475,26.046 4.45,25.994 3.227,26.428 3.268,26.525 3.366,26.734 3.448,26.885 
		3.539,27.057 3.646,27.244 3.76,27.446 3.834,27.551 3.908,27.664 3.974,27.775 4.056,27.888 4.138,28 4.22,28.12 4.311,28.232 
		4.401,28.345 4.499,28.458 4.598,28.57 4.705,28.682 4.811,28.787 4.926,28.898 5.041,29.004 5.172,29.102 5.295,29.191 
		5.427,29.289 5.558,29.371 5.632,29.416 5.706,29.46 5.78,29.498 5.854,29.536 5.928,29.565 6.01,29.596 6.092,29.625 
		6.174,29.655 6.256,29.685 6.338,29.708 6.42,29.73 6.51,29.746 6.593,29.76 6.683,29.775 6.773,29.783 6.864,29.79 6.962,29.79 
		7.052,29.79 7.143,29.79 7.241,29.775 7.332,29.768 7.43,29.752 7.521,29.73 7.619,29.715 7.709,29.685 7.799,29.655 7.898,29.618 
		7.988,29.581 8.079,29.542 8.177,29.498 8.268,29.446 8.358,29.401 8.448,29.341 8.539,29.281 8.628,29.221 8.719,29.154 
		8.801,29.086 8.891,29.019 8.981,28.937 9.063,28.854 9.154,28.779 9.236,28.689 9.318,28.599 9.409,28.502 9.491,28.405 
		9.573,28.3 9.663,28.195 9.745,28.09 9.827,27.97 9.917,27.858 10,27.731 10.082,27.611 10.164,27.484 10.246,27.341 
		10.336,27.207 10.418,27.064 10.5,26.914 10.583,26.765 10.673,26.607 10.755,26.443 10.755,26.443 9.556,25.94 9.556,25.94 	"/>
	<polygon style="fill:#1F1A17;" points="17.093,25.956 17.093,25.956 17.052,25.866 16.945,25.656 16.863,25.5 16.781,25.334 
		16.666,25.14 16.551,24.938 16.485,24.833 16.411,24.721 16.337,24.615 16.255,24.496 16.173,24.383 16.091,24.271 16.001,24.159 
		15.911,24.039 15.812,23.926 15.714,23.814 15.607,23.709 15.5,23.597 15.385,23.492 15.27,23.387 15.147,23.283 15.016,23.185 
		14.885,23.095 14.761,23.013 14.679,22.968 14.605,22.93 14.531,22.885 14.458,22.856 14.384,22.818 14.302,22.781 14.228,22.75 
		14.146,22.728 14.063,22.698 13.981,22.676 13.891,22.653 13.809,22.639 13.719,22.624 13.628,22.608 13.538,22.601 13.448,22.594 
		13.349,22.594 13.267,22.594 13.168,22.601 13.079,22.601 12.98,22.616 12.89,22.631 12.791,22.653 12.692,22.676 12.602,22.698 
		12.512,22.728 12.414,22.766 12.323,22.803 12.233,22.841 12.134,22.885 12.044,22.93 11.954,22.982 11.863,23.043 11.773,23.103 
		11.683,23.163 11.592,23.23 11.51,23.297 11.42,23.365 11.338,23.447 11.248,23.522 11.166,23.604 11.075,23.694 10.993,23.784 
		10.903,23.882 10.821,23.979 10.739,24.083 10.648,24.188 10.566,24.293 10.484,24.406 10.394,24.526 10.312,24.646 10.229,24.773 
		10.147,24.9 10.065,25.035 9.975,25.177 9.893,25.319 9.811,25.469 9.729,25.619 9.646,25.776 9.556,25.94 10.755,26.443 
		10.829,26.293 10.911,26.15 10.985,26.008 11.059,25.881 11.132,25.747 11.215,25.619 11.289,25.506 11.362,25.387 11.437,25.274 
		11.51,25.17 11.576,25.072 11.65,24.975 11.724,24.885 11.789,24.795 11.863,24.713 11.929,24.63 11.995,24.556 12.068,24.488 
		12.134,24.42 12.2,24.361 12.257,24.301 12.315,24.249 12.38,24.196 12.446,24.151 12.496,24.106 12.561,24.062 12.61,24.023 
		12.668,23.994 12.726,23.964 12.774,23.934 12.824,23.912 12.873,23.889 12.922,23.874 12.972,23.852 13.013,23.844 13.054,23.829 
		13.095,23.814 13.136,23.814 13.185,23.799 13.218,23.799 13.267,23.799 13.3,23.792 13.341,23.792 13.382,23.792 13.415,23.799 
		13.456,23.799 13.497,23.807 13.538,23.814 13.571,23.821 13.612,23.829 13.653,23.844 13.694,23.852 13.735,23.867 13.776,23.889 
		13.817,23.904 13.858,23.919 13.899,23.941 13.94,23.964 13.981,23.986 14.022,24.008 14.113,24.069 14.203,24.129 14.285,24.188 
		14.367,24.256 14.449,24.331 14.54,24.413 14.622,24.496 14.704,24.585 14.786,24.675 14.86,24.765 14.934,24.862 15.007,24.96 
		15.082,25.049 15.155,25.147 15.221,25.244 15.278,25.334 15.344,25.432 15.402,25.521 15.508,25.701 15.599,25.866 15.681,26.016 
		15.747,26.15 15.837,26.337 15.861,26.391 15.861,26.391 17.093,25.956 17.093,25.956 	"/>
	<polygon style="fill:#1F1A17;" points="22.191,25.911 22.191,25.911 22.117,26.061 22.035,26.203 21.961,26.345 21.887,26.48 
		21.805,26.607 21.731,26.734 21.658,26.854 21.584,26.967 21.51,27.079 21.436,27.184 21.362,27.289 21.296,27.378 21.222,27.476 
		21.148,27.558 21.083,27.641 21.017,27.723 20.951,27.798 20.877,27.866 20.812,27.933 20.747,28 20.689,28.053 20.623,28.105 
		20.565,28.158 20.5,28.21 20.442,28.248 20.385,28.292 20.328,28.33 20.278,28.36 20.221,28.39 20.172,28.419 20.122,28.442 
		20.073,28.464 20.024,28.479 19.983,28.502 19.934,28.51 19.884,28.525 19.843,28.54 19.802,28.547 19.761,28.555 19.728,28.555 
		19.688,28.562 19.646,28.562 19.605,28.562 19.564,28.562 19.523,28.562 19.49,28.555 19.449,28.547 19.417,28.54 19.375,28.532 
		19.334,28.525 19.293,28.51 19.26,28.502 19.211,28.487 19.178,28.472 19.129,28.45 19.096,28.435 19.047,28.412 19.006,28.39 
		18.964,28.367 18.932,28.345 18.833,28.285 18.751,28.232 18.669,28.165 18.579,28.09 18.497,28.015 18.415,27.94 18.333,27.851 
		18.25,27.768 18.168,27.679 18.095,27.588 18.012,27.499 17.938,27.401 17.873,27.304 17.799,27.207 17.733,27.109 17.667,27.02 
		17.61,26.922 17.553,26.832 17.446,26.653 17.355,26.488 17.273,26.331 17.208,26.21 17.118,26.016 17.093,25.956 15.861,26.391 
		15.902,26.488 16.009,26.697 16.083,26.854 16.173,27.02 16.28,27.214 16.403,27.409 16.469,27.521 16.543,27.625 16.617,27.738 
		16.69,27.851 16.773,27.97 16.863,28.083 16.945,28.195 17.044,28.315 17.134,28.427 17.241,28.54 17.339,28.652 17.446,28.757 
		17.561,28.861 17.684,28.967 17.799,29.071 17.93,29.161 18.062,29.258 18.193,29.341 18.267,29.386 18.341,29.423 18.415,29.46 
		18.488,29.498 18.563,29.536 18.645,29.565 18.718,29.596 18.8,29.625 18.882,29.655 18.964,29.678 19.055,29.7 19.137,29.715 
		19.228,29.73 19.318,29.746 19.408,29.752 19.499,29.76 19.589,29.76 19.679,29.76 19.778,29.76 19.868,29.746 19.966,29.738 
		20.057,29.723 20.155,29.7 20.246,29.685 20.344,29.655 20.435,29.625 20.533,29.588 20.623,29.55 20.713,29.513 20.804,29.468 
		20.902,29.416 20.993,29.371 21.083,29.311 21.173,29.251 21.264,29.191 21.346,29.131 21.436,29.056 21.526,28.989 21.608,28.914 
		21.698,28.832 21.781,28.749 21.871,28.659 21.953,28.57 22.035,28.472 22.125,28.375 22.208,28.277 22.298,28.165 22.38,28.061 
		22.462,27.948 22.544,27.828 22.626,27.708 22.708,27.581 22.799,27.454 22.881,27.319 22.963,27.176 23.053,27.035 23.135,26.885 
		23.217,26.734 23.299,26.578 23.382,26.42 23.382,26.42 22.191,25.911 22.191,25.911 	"/>
	<polygon style="fill:#1F1A17;" points="29.703,25.986 29.703,25.994 29.663,25.896 29.564,25.686 29.489,25.529 29.391,25.357 
		29.285,25.17 29.17,24.967 29.104,24.855 29.029,24.743 28.956,24.63 28.882,24.518 28.8,24.406 28.718,24.286 28.628,24.173 
		28.538,24.054 28.439,23.941 28.34,23.829 28.234,23.717 28.126,23.604 28.012,23.5 27.897,23.395 27.774,23.29 27.65,23.192 
		27.519,23.095 27.388,23.013 27.307,22.968 27.241,22.93 27.167,22.885 27.093,22.848 27.01,22.818 26.937,22.781 26.854,22.75 
		26.78,22.721 26.699,22.691 26.608,22.668 26.526,22.646 26.436,22.631 26.354,22.616 26.263,22.601 26.173,22.594 26.074,22.585 
		25.992,22.579 25.894,22.579 25.804,22.585 25.713,22.594 25.615,22.601 25.516,22.616 25.426,22.631 25.327,22.653 25.237,22.683 
		25.139,22.713 25.048,22.743 24.958,22.781 24.859,22.818 24.769,22.863 24.679,22.915 24.58,22.96 24.498,23.021 24.408,23.08 
		24.318,23.14 24.228,23.208 24.137,23.275 24.055,23.342 23.964,23.425 23.882,23.5 23.792,23.582 23.71,23.672 23.62,23.762 
		23.538,23.852 23.447,23.949 23.365,24.054 23.283,24.159 23.201,24.271 23.11,24.383 23.028,24.496 22.946,24.623 22.864,24.75 
		22.774,24.877 22.692,25.012 22.61,25.155 22.528,25.296 22.445,25.439 22.355,25.589 22.273,25.753 22.191,25.911 23.382,26.42 
		23.464,26.27 23.538,26.121 23.611,25.986 23.693,25.851 23.768,25.724 23.841,25.597 23.916,25.477 23.989,25.365 24.063,25.252 
		24.137,25.147 24.211,25.042 24.285,24.945 24.35,24.855 24.424,24.765 24.49,24.683 24.564,24.608 24.629,24.533 24.695,24.465 
		24.761,24.398 24.827,24.331 24.884,24.278 24.95,24.226 25.007,24.173 25.073,24.129 25.122,24.083 25.188,24.046 25.237,24.008 
		25.294,23.979 25.352,23.949 25.401,23.919 25.451,23.896 25.5,23.874 25.549,23.852 25.59,23.836 25.64,23.821 25.68,23.814 
		25.722,23.807 25.762,23.799 25.804,23.792 25.844,23.784 25.877,23.784 25.927,23.784 25.959,23.784 26,23.784 26.042,23.784 
		26.074,23.792 26.116,23.792 26.156,23.799 26.189,23.814 26.23,23.821 26.271,23.829 26.313,23.844 26.354,23.859 26.395,23.874 
		26.436,23.889 26.477,23.912 26.518,23.934 26.559,23.956 26.6,23.979 26.641,24.001 26.731,24.062 26.813,24.121 26.903,24.188 
		26.986,24.264 27.076,24.338 27.158,24.42 27.241,24.503 27.322,24.585 27.404,24.683 27.479,24.773 27.552,24.87 27.626,24.967 
		27.699,25.064 27.765,25.155 27.831,25.259 27.897,25.35 27.955,25.447 28.012,25.537 28.126,25.724 28.217,25.888 28.291,26.046 
		28.357,26.166 28.455,26.368 28.48,26.42 28.48,26.42 28.48,26.42 28.48,26.42 28.48,26.42 	"/>
	<polygon style="fill:#1F1A17;" points="34.801,25.94 34.801,25.94 34.728,26.09 34.646,26.233 34.572,26.368 34.497,26.502 
		34.416,26.638 34.35,26.765 34.268,26.885 34.202,26.997 34.12,27.109 34.054,27.214 33.981,27.311 33.907,27.409 33.832,27.499 
		33.768,27.588 33.693,27.671 33.627,27.753 33.561,27.828 33.497,27.896 33.431,27.963 33.365,28.022 33.299,28.083 33.233,28.135 
		33.176,28.187 33.118,28.232 33.052,28.277 33.003,28.323 32.946,28.36 32.889,28.39 32.839,28.419 32.79,28.45 32.733,28.472 
		32.684,28.495 32.643,28.51 32.592,28.532 32.543,28.54 32.502,28.555 32.462,28.57 32.42,28.57 32.38,28.577 32.33,28.584 
		32.297,28.584 32.257,28.592 32.215,28.592 32.183,28.592 32.141,28.584 32.101,28.584 32.068,28.577 32.026,28.57 31.986,28.562 
		31.944,28.555 31.912,28.54 31.87,28.532 31.83,28.517 31.788,28.495 31.747,28.479 31.707,28.464 31.656,28.442 31.625,28.419 
		31.583,28.397 31.542,28.375 31.452,28.315 31.361,28.254 31.279,28.195 31.198,28.12 31.107,28.045 31.024,27.97 30.943,27.88 
		30.861,27.798 30.779,27.708 30.705,27.619 30.63,27.521 30.557,27.431 30.482,27.334 30.418,27.236 30.344,27.139 30.286,27.049 
		30.229,26.952 30.171,26.862 30.064,26.682 29.965,26.51 29.883,26.36 29.817,26.241 29.727,26.046 29.703,25.986 28.48,26.42 
		28.521,26.51 28.62,26.727 28.701,26.877 28.792,27.049 28.899,27.244 29.014,27.438 29.088,27.551 29.153,27.656 29.227,27.768 
		29.309,27.88 29.391,27.993 29.474,28.113 29.564,28.225 29.654,28.337 29.753,28.45 29.851,28.57 29.95,28.674 30.064,28.787 
		30.179,28.892 30.295,28.996 30.418,29.102 30.54,29.191 30.672,29.289 30.804,29.371 30.877,29.416 30.951,29.453 31.024,29.49 
		31.099,29.528 31.173,29.565 31.255,29.596 31.337,29.625 31.411,29.655 31.493,29.685 31.583,29.7 31.665,29.73 31.755,29.746 
		31.837,29.76 31.936,29.775 32.019,29.783 32.117,29.79 32.207,29.79 32.297,29.79 32.387,29.79 32.486,29.775 32.577,29.768 
		32.675,29.752 32.766,29.73 32.865,29.708 32.955,29.685 33.052,29.655 33.143,29.618 33.233,29.581 33.332,29.542 33.422,29.49 
		33.512,29.446 33.603,29.401 33.693,29.341 33.783,29.281 33.874,29.221 33.964,29.154 34.045,29.086 34.136,29.019 34.219,28.937 
		34.309,28.854 34.399,28.779 34.481,28.689 34.563,28.599 34.653,28.502 34.736,28.405 34.827,28.3 34.908,28.195 34.99,28.09 
		35.072,27.97 35.155,27.858 35.245,27.731 35.327,27.611 35.409,27.476 35.499,27.341 35.582,27.207 35.664,27.064 35.746,26.914 
		35.827,26.765 35.91,26.607 36,26.443 36,26.443 34.801,25.94 34.801,25.94 	"/>
	<polygon style="fill:#1F1A17;" points="42.321,25.956 42.281,25.866 42.182,25.649 42.1,25.5 42.01,25.327 41.903,25.14 
		41.788,24.938 41.714,24.825 41.64,24.721 41.566,24.608 41.493,24.496 41.411,24.383 41.328,24.271 41.238,24.159 41.147,24.039 
		41.049,23.926 40.951,23.814 40.843,23.702 40.737,23.597 40.623,23.485 40.508,23.379 40.384,23.283 40.261,23.185 40.129,23.095 
		39.998,23.013 39.916,22.96 39.85,22.923 39.768,22.885 39.703,22.848 39.621,22.818 39.546,22.781 39.464,22.75 39.383,22.721 
		39.299,22.698 39.218,22.676 39.136,22.653 39.046,22.639 38.956,22.616 38.866,22.608 38.784,22.601 38.685,22.594 38.594,22.594 
		38.504,22.594 38.414,22.594 38.315,22.601 38.225,22.616 38.125,22.631 38.036,22.653 37.938,22.676 37.848,22.698 37.749,22.728 
		37.659,22.766 37.569,22.795 37.469,22.841 37.379,22.885 37.289,22.93 37.199,22.99 37.108,23.043 37.018,23.103 36.928,23.163 
		36.837,23.23 36.756,23.297 36.666,23.372 36.583,23.447 36.492,23.529 36.402,23.604 36.32,23.694 36.238,23.784 36.148,23.882 
		36.066,23.979 35.976,24.083 35.893,24.188 35.811,24.293 35.729,24.406 35.646,24.526 35.556,24.646 35.475,24.773 35.393,24.9 
		35.302,25.035 35.221,25.177 35.138,25.319 35.056,25.469 34.974,25.619 34.891,25.776 34.801,25.94 36,26.443 36.074,26.293 
		36.157,26.15 36.23,26.008 36.304,25.881 36.386,25.747 36.452,25.619 36.534,25.506 36.6,25.387 36.681,25.274 36.747,25.17 
		36.822,25.072 36.895,24.975 36.969,24.885 37.034,24.795 37.108,24.713 37.174,24.63 37.24,24.556 37.306,24.488 37.371,24.42 
		37.437,24.353 37.502,24.301 37.56,24.241 37.625,24.196 37.683,24.144 37.741,24.106 37.797,24.062 37.855,24.023 37.913,23.994 
		37.962,23.964 38.02,23.934 38.069,23.912 38.119,23.889 38.159,23.874 38.209,23.852 38.257,23.844 38.299,23.829 38.339,23.814 
		38.39,23.814 38.422,23.799 38.462,23.799 38.504,23.792 38.544,23.792 38.586,23.792 38.619,23.792 38.661,23.792 38.701,23.799 
		38.734,23.807 38.775,23.814 38.817,23.821 38.848,23.829 38.898,23.844 38.931,23.852 38.971,23.867 39.013,23.882 39.054,23.896 
		39.095,23.919 39.136,23.941 39.178,23.964 39.227,23.986 39.259,24.001 39.35,24.062 39.431,24.121 39.522,24.188 39.604,24.256 
		39.687,24.331 39.777,24.413 39.859,24.496 39.94,24.585 40.015,24.675 40.096,24.765 40.171,24.855 40.245,24.953 40.31,25.042 
		40.384,25.14 40.449,25.237 40.515,25.334 40.573,25.424 40.629,25.514 40.737,25.693 40.836,25.866 40.91,26.016 40.975,26.135 
		41.066,26.331 41.098,26.391 	"/>
	<polygon style="fill:#1F1A17;" points="41.098,26.391 41.107,26.42 41.123,26.45 41.147,26.48 41.165,26.51 41.18,26.54 
		41.205,26.57 41.23,26.592 41.246,26.615 41.279,26.63 41.294,26.653 41.328,26.675 41.353,26.69 41.377,26.705 41.411,26.72 
		41.435,26.727 41.459,26.734 41.526,26.757 41.583,26.765 41.64,26.772 41.707,26.772 41.763,26.772 41.83,26.765 41.886,26.75 
		41.944,26.727 42.001,26.705 42.05,26.682 42.109,26.653 42.158,26.615 42.199,26.578 42.24,26.54 42.272,26.488 42.305,26.443 
		42.321,26.42 42.33,26.391 42.347,26.36 42.354,26.337 42.363,26.308 42.363,26.278 42.371,26.248 42.371,26.218 42.371,26.188 
		42.371,26.158 42.363,26.121 42.363,26.09 42.354,26.061 42.347,26.023 42.33,25.986 42.321,25.956 	"/>
	<polygon style="fill:#FFFFFF;" points="41.353,26.315 41.361,26.285 41.37,26.248 41.377,26.218 41.377,26.188 41.37,26.158 
		41.361,26.128 41.353,26.098 41.345,26.076 41.328,26.053 41.312,26.031 41.288,26.008 41.263,25.986 41.246,25.971 41.213,25.956 
		41.189,25.94 41.165,25.934 41.131,25.926 41.098,25.911 41.074,25.911 41.042,25.911 41.008,25.911 40.984,25.911 40.951,25.918 
		40.917,25.926 40.893,25.94 40.869,25.956 40.836,25.971 40.819,25.986 40.794,26.016 40.77,26.038 40.753,26.068 40.737,26.105 	
		"/>
	<polygon style="fill:#FFFFFF;" points="34.424,26.315 34.424,26.315 34.514,26.473 34.587,26.63 34.67,26.779 34.752,26.922 
		34.834,27.064 34.917,27.199 34.999,27.334 35.081,27.454 35.162,27.581 35.245,27.694 35.327,27.805 35.409,27.918 35.483,28.022 
		35.565,28.12 35.646,28.225 35.729,28.315 35.811,28.405 35.893,28.495 35.976,28.57 36.058,28.652 36.131,28.727 36.214,28.794 
		36.296,28.861 36.377,28.929 36.46,28.989 36.542,29.041 36.624,29.093 36.698,29.146 36.78,29.191 36.862,29.236 36.943,29.273 
		37.027,29.311 37.108,29.341 37.19,29.371 37.273,29.401 37.355,29.423 37.437,29.438 37.518,29.46 37.601,29.468 37.683,29.483 
		37.765,29.49 37.839,29.49 37.921,29.49 37.996,29.49 38.078,29.483 38.152,29.475 38.234,29.468 38.306,29.453 38.381,29.438 
		38.455,29.416 38.529,29.401 38.603,29.378 38.667,29.349 38.743,29.326 38.808,29.295 38.881,29.266 38.947,29.236 39.013,29.199 
		39.071,29.161 39.145,29.124 39.259,29.049 39.383,28.959 39.498,28.876 39.612,28.779 39.719,28.689 39.826,28.584 39.933,28.479 
		40.031,28.375 40.121,28.27 40.211,28.165 40.301,28.053 40.392,27.94 40.475,27.835 40.548,27.723 40.623,27.619 40.696,27.506 
		40.761,27.409 40.828,27.304 40.951,27.102 41.049,26.922 41.14,26.757 41.213,26.607 41.312,26.406 41.353,26.315 40.737,26.105 
		40.705,26.166 40.614,26.36 40.54,26.495 40.458,26.653 40.359,26.825 40.252,27.012 40.196,27.109 40.129,27.199 40.064,27.304 
		39.998,27.401 39.924,27.499 39.85,27.604 39.768,27.701 39.687,27.798 39.604,27.896 39.522,27.993 39.44,28.083 39.35,28.18 
		39.259,28.262 39.161,28.345 39.071,28.419 38.971,28.495 38.875,28.562 38.775,28.629 38.725,28.652 38.676,28.682 38.627,28.705 
		38.578,28.734 38.529,28.757 38.471,28.779 38.422,28.794 38.373,28.809 38.324,28.832 38.274,28.846 38.225,28.854 38.176,28.869 
		38.119,28.876 38.069,28.884 38.02,28.892 37.962,28.892 37.913,28.892 37.864,28.892 37.806,28.892 37.757,28.884 37.699,28.876 
		37.65,28.869 37.593,28.861 37.536,28.846 37.478,28.832 37.42,28.809 37.364,28.794 37.306,28.764 37.24,28.742 37.183,28.711 
		37.125,28.674 37.06,28.644 36.994,28.599 36.928,28.562 36.862,28.517 36.796,28.464 36.731,28.412 36.666,28.36 36.6,28.3 
		36.525,28.232 36.46,28.165 36.386,28.09 36.312,28.015 36.238,27.94 36.172,27.858 36.098,27.768 36.025,27.671 35.95,27.581 
		35.877,27.476 35.795,27.371 35.721,27.267 35.646,27.146 35.565,27.027 35.492,26.907 35.417,26.779 35.335,26.645 35.261,26.51 
		35.179,26.36 35.104,26.218 35.023,26.061 35.023,26.061 34.424,26.315 34.424,26.315 	"/>
	<polygon style="fill:#FFFFFF;" points="28.709,26.285 28.709,26.285 28.743,26.218 28.833,26.023 28.899,25.888 28.989,25.739 
		29.088,25.566 29.194,25.379 29.251,25.282 29.317,25.185 29.383,25.08 29.457,24.982 29.522,24.885 29.604,24.78 29.679,24.683 
		29.76,24.585 29.843,24.488 29.925,24.391 30.015,24.301 30.097,24.211 30.196,24.129 30.286,24.039 30.376,23.964 30.476,23.889 
		30.573,23.821 30.68,23.762 30.721,23.732 30.771,23.702 30.819,23.68 30.87,23.649 30.927,23.634 30.976,23.612 31.024,23.589 
		31.075,23.574 31.123,23.559 31.181,23.544 31.231,23.529 31.279,23.515 31.328,23.515 31.378,23.5 31.427,23.5 31.484,23.492 
		31.535,23.492 31.592,23.492 31.641,23.5 31.698,23.5 31.747,23.507 31.806,23.515 31.854,23.529 31.912,23.537 31.969,23.559 
		32.026,23.574 32.083,23.597 32.149,23.62 32.207,23.649 32.264,23.68 32.33,23.709 32.396,23.739 32.453,23.784 32.519,23.821 
		32.585,23.867 32.651,23.919 32.715,23.971 32.79,24.023 32.856,24.083 32.922,24.151 32.995,24.218 33.061,24.286 33.135,24.361 
		33.208,24.443 33.283,24.526 33.356,24.615 33.431,24.706 33.504,24.803 33.578,24.908 33.651,25.012 33.726,25.118 33.808,25.237 
		33.882,25.35 33.955,25.477 34.039,25.604 34.111,25.739 34.186,25.873 34.268,26.016 34.35,26.166 34.424,26.315 35.023,26.061 
		34.941,25.903 34.858,25.753 34.776,25.604 34.695,25.461 34.613,25.319 34.53,25.185 34.448,25.049 34.367,24.93 34.285,24.803 
		34.202,24.69 34.12,24.57 34.045,24.465 33.964,24.361 33.882,24.256 33.8,24.159 33.717,24.069 33.636,23.979 33.561,23.889 
		33.479,23.814 33.398,23.732 33.316,23.657 33.233,23.589 33.151,23.522 33.069,23.455 32.986,23.395 32.914,23.342 32.832,23.29 
		32.749,23.238 32.667,23.192 32.585,23.147 32.502,23.11 32.42,23.073 32.338,23.043 32.257,23.013 32.174,22.982 32.092,22.96 
		32.01,22.945 31.929,22.923 31.846,22.915 31.772,22.9 31.689,22.9 31.608,22.893 31.526,22.893 31.452,22.893 31.37,22.9 
		31.295,22.908 31.213,22.915 31.147,22.93 31.066,22.945 30.991,22.968 30.918,22.982 30.853,23.005 30.779,23.036 30.705,23.058 
		30.639,23.088 30.573,23.118 30.508,23.155 30.442,23.185 30.376,23.223 30.311,23.26 30.188,23.335 30.064,23.425 29.95,23.515 
		29.835,23.604 29.727,23.702 29.621,23.799 29.522,23.904 29.423,24.008 29.326,24.114 29.236,24.226 29.146,24.331 29.063,24.443 
		28.98,24.548 28.899,24.66 28.824,24.765 28.751,24.877 28.686,24.982 28.62,25.087 28.505,25.282 28.397,25.469 28.307,25.634 
		28.234,25.776 28.135,25.986 28.093,26.068 28.093,26.068 28.709,26.285 28.709,26.285 	"/>
	<polygon style="fill:#FFFFFF;" points="21.789,26.293 21.789,26.293 21.871,26.45 21.953,26.6 22.035,26.75 22.117,26.899 
		22.199,27.035 22.281,27.169 22.363,27.304 22.445,27.431 22.528,27.551 22.61,27.671 22.692,27.783 22.774,27.888 22.856,27.993 
		22.938,28.098 23.012,28.195 23.094,28.285 23.176,28.375 23.258,28.464 23.34,28.54 23.415,28.622 23.497,28.697 23.579,28.764 
		23.661,28.832 23.743,28.898 23.825,28.959 23.907,29.011 23.989,29.063 24.071,29.116 24.153,29.161 24.236,29.206 24.318,29.243 
		24.392,29.281 24.474,29.311 24.556,29.341 24.638,29.371 24.72,29.393 24.802,29.408 24.884,29.431 24.966,29.438 25.048,29.453 
		25.122,29.46 25.204,29.46 25.286,29.46 25.369,29.46 25.442,29.453 25.516,29.446 25.598,29.438 25.672,29.423 25.746,29.408 
		25.82,29.386 25.894,29.371 25.968,29.341 26.033,29.318 26.107,29.295 26.173,29.266 26.239,29.236 26.304,29.199 26.37,29.168 
		26.436,29.131 26.501,29.093 26.625,29.019 26.748,28.929 26.863,28.839 26.978,28.749 27.084,28.652 27.191,28.555 27.29,28.45 
		27.388,28.345 27.487,28.24 27.578,28.128 27.668,28.022 27.75,27.911 27.831,27.798 27.913,27.694 27.987,27.581 28.062,27.476 
		28.126,27.371 28.192,27.267 28.307,27.072 28.415,26.885 28.505,26.72 28.571,26.57 28.677,26.368 28.709,26.285 28.093,26.068 
		28.069,26.128 27.979,26.331 27.906,26.465 27.823,26.615 27.725,26.794 27.618,26.974 27.552,27.072 27.494,27.169 27.428,27.274 
		27.355,27.371 27.29,27.469 27.208,27.566 27.133,27.671 27.051,27.768 26.969,27.866 26.887,27.963 26.797,28.053 26.707,28.143 
		26.616,28.225 26.526,28.315 26.427,28.39 26.337,28.464 26.239,28.532 26.14,28.599 26.091,28.622 26.042,28.652 25.992,28.674 
		25.943,28.705 25.894,28.727 25.836,28.749 25.787,28.764 25.738,28.779 25.688,28.794 25.64,28.809 25.582,28.824 25.533,28.839 
		25.483,28.846 25.434,28.854 25.385,28.854 25.327,28.861 25.278,28.861 25.221,28.861 25.171,28.861 25.122,28.854 25.065,28.846 
		25.007,28.839 24.958,28.832 24.9,28.816 24.843,28.802 24.786,28.779 24.728,28.764 24.67,28.734 24.613,28.711 24.547,28.682 
		24.482,28.644 24.424,28.614 24.358,28.577 24.301,28.532 24.236,28.487 24.169,28.435 24.096,28.382 24.03,28.33 23.964,28.27 
		23.891,28.202 23.825,28.135 23.751,28.067 23.677,27.993 23.611,27.911 23.538,27.828 23.464,27.738 23.39,27.648 23.316,27.551 
		23.242,27.454 23.168,27.349 23.086,27.236 23.012,27.124 22.938,27.004 22.856,26.877 22.782,26.75 22.708,26.615 22.626,26.48 
		22.544,26.337 22.47,26.188 22.388,26.038 22.388,26.038 21.789,26.293 21.789,26.293 	"/>
	<polygon style="fill:#FFFFFF;" points="16.1,26.315 16.1,26.308 16.125,26.248 16.223,26.046 16.289,25.911 16.371,25.753 
		16.469,25.582 16.576,25.394 16.633,25.296 16.699,25.2 16.765,25.095 16.838,24.997 16.912,24.9 16.978,24.795 17.06,24.69 
		17.142,24.593 17.224,24.496 17.306,24.398 17.396,24.301 17.487,24.218 17.569,24.129 17.667,24.046 17.758,23.964 17.856,23.889 
		17.955,23.821 18.053,23.754 18.103,23.724 18.152,23.702 18.201,23.672 18.25,23.649 18.3,23.62 18.349,23.604 18.406,23.582 
		18.456,23.559 18.505,23.544 18.554,23.529 18.604,23.522 18.653,23.507 18.702,23.5 18.76,23.492 18.809,23.485 18.858,23.485 
		18.916,23.485 18.964,23.485 19.014,23.485 19.071,23.485 19.121,23.492 19.178,23.5 19.228,23.515 19.285,23.522 19.342,23.537 
		19.4,23.559 19.458,23.574 19.515,23.604 19.581,23.626 19.638,23.657 19.704,23.687 19.761,23.724 19.827,23.762 19.893,23.799 
		19.958,23.844 20.024,23.896 20.089,23.949 20.155,24.001 20.221,24.062 20.294,24.129 20.36,24.196 20.435,24.264 20.508,24.338 
		20.574,24.42 20.648,24.503 20.722,24.585 20.795,24.683 20.869,24.78 20.943,24.877 21.017,24.982 21.099,25.095 21.173,25.207 
		21.247,25.327 21.321,25.447 21.403,25.574 21.477,25.708 21.559,25.851 21.633,25.986 21.715,26.135 21.789,26.293 22.388,26.038 
		22.306,25.881 22.224,25.724 22.142,25.574 22.06,25.432 21.978,25.29 21.896,25.155 21.822,25.027 21.74,24.9 21.658,24.78 
		21.576,24.66 21.494,24.548 21.411,24.436 21.329,24.331 21.247,24.233 21.165,24.136 21.091,24.039 21.009,23.956 20.927,23.867 
		20.845,23.784 20.763,23.709 20.689,23.634 20.607,23.567 20.525,23.5 20.442,23.433 20.36,23.372 20.278,23.32 20.196,23.268 
		20.114,23.215 20.032,23.17 19.95,23.125 19.868,23.088 19.786,23.05 19.704,23.021 19.622,22.99 19.547,22.968 19.465,22.945 
		19.383,22.923 19.301,22.908 19.219,22.9 19.137,22.885 19.055,22.885 18.981,22.878 18.899,22.878 18.817,22.885 18.743,22.885 
		18.669,22.9 18.587,22.908 18.513,22.923 18.439,22.938 18.366,22.96 18.292,22.976 18.218,23.005 18.152,23.028 18.078,23.058 
		18.012,23.088 17.947,23.118 17.881,23.147 17.815,23.185 17.75,23.223 17.684,23.26 17.561,23.335 17.438,23.425 17.323,23.515 
		17.208,23.612 17.101,23.709 16.994,23.807 16.896,23.912 16.797,24.016 16.699,24.129 16.608,24.233 16.526,24.346 16.436,24.458 
		16.354,24.57 16.28,24.675 16.207,24.788 16.132,24.893 16.067,25.005 16.001,25.109 15.886,25.304 15.779,25.491 15.697,25.656 
		15.615,25.806 15.517,26.016 15.484,26.098 15.484,26.098 16.1,26.315 16.1,26.308 16.1,26.308 	"/>
	<polygon style="fill:#FFFFFF;" points="9.179,26.315 9.179,26.315 9.261,26.473 9.343,26.63 9.425,26.779 9.507,26.922 
		9.589,27.064 9.671,27.199 9.753,27.334 9.835,27.454 9.917,27.581 10,27.694 10.082,27.805 10.164,27.918 10.246,28.022 
		10.32,28.12 10.402,28.225 10.484,28.315 10.566,28.405 10.648,28.495 10.722,28.57 10.804,28.652 10.886,28.727 10.968,28.794 
		11.05,28.861 11.132,28.929 11.215,28.989 11.297,29.041 11.379,29.093 11.461,29.146 11.535,29.191 11.617,29.236 11.699,29.273 
		11.781,29.311 11.863,29.341 11.945,29.371 12.027,29.401 12.109,29.423 12.191,29.438 12.273,29.46 12.356,29.468 12.438,29.475 
		12.512,29.483 12.594,29.49 12.676,29.49 12.75,29.49 12.832,29.483 12.906,29.475 12.988,29.46 13.062,29.453 13.136,29.438 
		13.209,29.416 13.284,29.401 13.349,29.371 13.423,29.349 13.497,29.326 13.563,29.295 13.628,29.266 13.694,29.228 13.76,29.191 
		13.826,29.161 13.891,29.124 14.014,29.049 14.137,28.959 14.252,28.869 14.367,28.779 14.474,28.682 14.581,28.584 14.679,28.479 
		14.778,28.375 14.876,28.27 14.967,28.158 15.057,28.045 15.139,27.94 15.221,27.828 15.295,27.716 15.369,27.611 15.443,27.506 
		15.508,27.401 15.574,27.296 15.697,27.102 15.796,26.914 15.886,26.75 15.96,26.6 16.059,26.397 16.1,26.315 15.484,26.098 
		15.451,26.158 15.361,26.36 15.287,26.488 15.205,26.645 15.114,26.817 15,27.004 14.942,27.102 14.876,27.199 14.811,27.296 
		14.745,27.401 14.671,27.499 14.597,27.596 14.515,27.701 14.441,27.798 14.359,27.896 14.269,27.985 14.187,28.083 14.096,28.172 
		14.006,28.254 13.908,28.345 13.817,28.419 13.719,28.495 13.628,28.562 13.521,28.629 13.481,28.652 13.431,28.682 13.382,28.705 
		13.325,28.734 13.275,28.749 13.226,28.772 13.177,28.794 13.127,28.809 13.07,28.824 13.021,28.839 12.972,28.854 12.922,28.869 
		12.873,28.869 12.824,28.884 12.774,28.884 12.717,28.892 12.668,28.892 12.61,28.892 12.561,28.884 12.512,28.884 12.454,28.876 
		12.397,28.869 12.348,28.854 12.29,28.846 12.233,28.824 12.175,28.809 12.118,28.787 12.061,28.764 11.995,28.734 11.937,28.705 
		11.872,28.674 11.814,28.644 11.749,28.599 11.683,28.562 11.617,28.517 11.551,28.464 11.486,28.412 11.42,28.36 11.346,28.3 
		11.28,28.232 11.215,28.165 11.141,28.09 11.067,28.015 11.001,27.94 10.919,27.851 10.854,27.768 10.78,27.671 10.706,27.581 
		10.624,27.476 10.55,27.371 10.476,27.267 10.402,27.146 10.328,27.027 10.246,26.907 10.172,26.779 10.09,26.645 10.016,26.51 
		9.934,26.36 9.852,26.218 9.778,26.061 9.778,26.061 9.179,26.315 9.179,26.315 	"/>
	<polygon style="fill:#FFFFFF;" points="3.481,26.278 3.514,26.21 3.604,26.016 3.67,25.881 3.752,25.731 3.851,25.559 
		3.965,25.372 4.023,25.274 4.088,25.177 4.154,25.08 4.22,24.982 4.294,24.877 4.368,24.78 4.441,24.675 4.523,24.585 4.605,24.48 
		4.688,24.391 4.778,24.301 4.869,24.203 4.959,24.121 5.049,24.039 5.148,23.964 5.238,23.889 5.336,23.821 5.435,23.754 
		5.484,23.732 5.534,23.702 5.583,23.68 5.632,23.649 5.681,23.626 5.73,23.604 5.78,23.589 5.837,23.574 5.887,23.552 
		5.936,23.537 5.985,23.529 6.034,23.515 6.092,23.507 6.141,23.5 6.19,23.5 6.239,23.492 6.297,23.492 6.346,23.492 6.404,23.492 
		6.453,23.5 6.502,23.507 6.56,23.515 6.617,23.522 6.675,23.537 6.732,23.552 6.781,23.574 6.847,23.597 6.904,23.62 6.962,23.642 
		7.02,23.672 7.085,23.709 7.143,23.739 7.208,23.784 7.274,23.821 7.34,23.867 7.405,23.919 7.471,23.971 7.545,24.023 
		7.611,24.083 7.676,24.151 7.75,24.218 7.816,24.286 7.89,24.361 7.963,24.443 8.038,24.526 8.111,24.615 8.177,24.706 
		8.259,24.803 8.333,24.908 8.407,25.005 8.48,25.118 8.555,25.237 8.637,25.35 8.71,25.477 8.785,25.604 8.867,25.739 
		8.949,25.873 9.023,26.016 9.105,26.166 9.179,26.315 9.778,26.061 9.696,25.903 9.614,25.753 9.532,25.604 9.45,25.461 
		9.368,25.319 9.286,25.185 9.204,25.049 9.121,24.93 9.039,24.803 8.965,24.69 8.883,24.57 8.801,24.465 8.719,24.361 
		8.637,24.256 8.555,24.159 8.473,24.069 8.39,23.979 8.316,23.889 8.234,23.814 8.152,23.732 8.07,23.657 7.988,23.589 
		7.914,23.522 7.832,23.455 7.75,23.395 7.668,23.342 7.586,23.29 7.504,23.238 7.422,23.192 7.34,23.147 7.257,23.11 7.175,23.073 
		7.093,23.036 7.011,23.013 6.929,22.982 6.847,22.96 6.773,22.945 6.691,22.923 6.609,22.915 6.527,22.9 6.445,22.893 
		6.371,22.893 6.289,22.893 6.207,22.893 6.133,22.9 6.059,22.908 5.977,22.915 5.903,22.93 5.829,22.945 5.755,22.96 5.681,22.982 
		5.607,23.005 5.542,23.036 5.468,23.058 5.402,23.088 5.336,23.118 5.271,23.147 5.205,23.185 5.14,23.223 5.074,23.26 
		4.951,23.335 4.828,23.425 4.712,23.507 4.598,23.604 4.491,23.694 4.384,23.799 4.286,23.904 4.187,24.008 4.088,24.114 
		3.999,24.218 3.908,24.331 3.826,24.436 3.744,24.548 3.662,24.66 3.596,24.765 3.522,24.87 3.448,24.975 3.382,25.08 
		3.268,25.274 3.169,25.461 3.079,25.626 3.005,25.776 2.907,25.979 2.865,26.061 	"/>
	<polygon style="fill:#FFFFFF;" points="2.865,26.061 2.857,26.098 2.849,26.128 2.841,26.166 2.841,26.196 2.841,26.226 
		2.857,26.255 2.857,26.278 2.874,26.308 2.89,26.331 2.907,26.353 2.931,26.375 2.956,26.391 2.972,26.413 3.005,26.428 
		3.029,26.435 3.054,26.45 3.087,26.458 3.12,26.465 3.145,26.473 3.177,26.473 3.202,26.473 3.235,26.465 3.268,26.465 3.3,26.458 
		3.325,26.443 3.35,26.428 3.382,26.413 3.399,26.391 3.423,26.368 3.448,26.345 3.465,26.315 3.481,26.278 	"/>
	<polygon style="fill:#FFFFFF;" points="3.785,25.994 3.776,25.956 3.76,25.926 3.736,25.896 3.719,25.866 3.694,25.844 
		3.678,25.814 3.654,25.791 3.629,25.769 3.604,25.747 3.58,25.731 3.555,25.708 3.53,25.693 3.505,25.679 3.473,25.664 
		3.448,25.656 3.416,25.641 3.358,25.626 3.3,25.619 3.235,25.612 3.177,25.604 3.12,25.612 3.054,25.619 2.997,25.634 
		2.939,25.649 2.882,25.679 2.824,25.701 2.775,25.731 2.726,25.769 2.685,25.806 2.644,25.844 2.611,25.888 2.578,25.94 
		2.562,25.963 2.545,25.994 2.537,26.016 2.529,26.046 2.521,26.076 2.512,26.105 2.512,26.135 2.512,26.166 2.512,26.196 
		2.512,26.226 2.512,26.255 2.521,26.293 2.529,26.323 2.537,26.36 2.545,26.391 2.562,26.428 	"/>
	<polygon style="fill:#FFFFFF;" points="8.891,25.94 8.891,25.94 8.817,26.09 8.744,26.233 8.662,26.368 8.587,26.502 8.514,26.638 
		8.44,26.765 8.358,26.877 8.292,26.997 8.21,27.109 8.144,27.214 8.07,27.311 7.997,27.409 7.922,27.499 7.857,27.588 
		7.783,27.671 7.717,27.753 7.651,27.828 7.586,27.896 7.521,27.963 7.455,28.03 7.389,28.083 7.332,28.135 7.266,28.187 
		7.208,28.24 7.151,28.277 7.093,28.323 7.036,28.36 6.979,28.39 6.929,28.419 6.872,28.45 6.822,28.472 6.773,28.495 6.724,28.51 
		6.683,28.532 6.634,28.54 6.593,28.555 6.552,28.57 6.502,28.577 6.47,28.584 6.42,28.584 6.387,28.592 6.346,28.592 6.305,28.592 
		6.272,28.592 6.231,28.592 6.19,28.584 6.149,28.577 6.108,28.57 6.075,28.562 6.034,28.555 5.993,28.54 5.952,28.532 
		5.911,28.517 5.878,28.502 5.829,28.487 5.796,28.464 5.747,28.442 5.706,28.419 5.665,28.397 5.632,28.382 5.534,28.323 
		5.452,28.262 5.361,28.195 5.279,28.12 5.197,28.053 5.106,27.97 5.024,27.888 4.942,27.798 4.869,27.708 4.795,27.619 
		4.712,27.521 4.639,27.431 4.565,27.334 4.499,27.244 4.433,27.146 4.368,27.049 4.311,26.959 4.252,26.87 4.146,26.682 
		4.047,26.517 3.965,26.368 3.908,26.241 3.81,26.046 3.785,25.994 2.562,26.428 2.603,26.525 2.701,26.734 2.783,26.885 
		2.874,27.057 2.98,27.244 3.103,27.446 3.169,27.551 3.243,27.664 3.317,27.775 3.391,27.888 3.473,28 3.555,28.12 3.646,28.232 
		3.736,28.345 3.834,28.458 3.941,28.57 4.04,28.682 4.154,28.787 4.261,28.898 4.384,29.004 4.499,29.102 4.63,29.191 
		4.762,29.289 4.893,29.371 4.967,29.416 5.041,29.46 5.115,29.498 5.188,29.536 5.263,29.565 5.345,29.596 5.427,29.625 
		5.5,29.655 5.583,29.685 5.673,29.708 5.755,29.73 5.845,29.746 5.928,29.76 6.018,29.775 6.108,29.783 6.199,29.79 6.297,29.79 
		6.387,29.79 6.478,29.79 6.576,29.775 6.667,29.768 6.765,29.752 6.855,29.73 6.954,29.715 7.044,29.685 7.143,29.655 
		7.233,29.618 7.323,29.581 7.422,29.542 7.512,29.498 7.603,29.446 7.693,29.401 7.783,29.341 7.874,29.281 7.963,29.221 
		8.054,29.154 8.136,29.086 8.226,29.019 8.308,28.937 8.398,28.854 8.489,28.779 8.571,28.689 8.653,28.599 8.744,28.502 
		8.826,28.405 8.916,28.3 8.998,28.195 9.08,28.09 9.162,27.97 9.252,27.858 9.334,27.731 9.417,27.611 9.499,27.484 9.589,27.341 
		9.671,27.207 9.753,27.064 9.835,26.914 9.917,26.765 10,26.607 10.09,26.443 10.09,26.443 8.891,25.94 8.891,25.94 	"/>
	<polygon style="fill:#FFFFFF;" points="16.428,25.956 16.428,25.956 16.387,25.866 16.28,25.656 16.207,25.5 16.108,25.334 
		16.009,25.14 15.886,24.938 15.812,24.833 15.747,24.721 15.672,24.615 15.599,24.496 15.517,24.383 15.426,24.271 15.336,24.159 
		15.246,24.039 15.147,23.926 15.049,23.814 14.942,23.709 14.835,23.597 14.72,23.492 14.605,23.387 14.482,23.283 14.351,23.185 
		14.22,23.095 14.088,23.013 14.014,22.968 13.94,22.93 13.866,22.885 13.792,22.856 13.719,22.818 13.645,22.781 13.563,22.75 
		13.481,22.728 13.398,22.698 13.316,22.676 13.226,22.653 13.136,22.639 13.054,22.624 12.963,22.608 12.873,22.601 12.783,22.594 
		12.692,22.594 12.602,22.594 12.504,22.601 12.414,22.601 12.315,22.616 12.225,22.631 12.134,22.653 12.036,22.676 11.937,22.698 
		11.847,22.728 11.749,22.766 11.658,22.803 11.568,22.841 11.469,22.885 11.379,22.93 11.289,22.982 11.198,23.043 11.108,23.103 
		11.018,23.163 10.936,23.23 10.845,23.297 10.755,23.365 10.673,23.447 10.583,23.522 10.492,23.604 10.41,23.694 10.328,23.784 
		10.238,23.882 10.156,23.979 10.074,24.083 9.983,24.188 9.901,24.293 9.819,24.406 9.737,24.526 9.655,24.646 9.564,24.773 
		9.482,24.9 9.4,25.035 9.31,25.177 9.228,25.319 9.146,25.469 9.063,25.619 8.981,25.776 8.891,25.94 10.09,26.443 10.164,26.293 
		10.246,26.15 10.32,26.008 10.394,25.881 10.476,25.747 10.55,25.619 10.624,25.506 10.697,25.387 10.771,25.274 10.845,25.17 
		10.919,25.072 10.985,24.975 11.059,24.885 11.124,24.795 11.198,24.713 11.264,24.63 11.33,24.556 11.403,24.488 11.461,24.42 
		11.527,24.361 11.592,24.301 11.658,24.249 11.715,24.196 11.773,24.151 11.839,24.106 11.896,24.062 11.945,24.023 12.003,23.994 
		12.061,23.964 12.109,23.934 12.159,23.912 12.208,23.889 12.257,23.874 12.307,23.852 12.348,23.844 12.397,23.829 12.43,23.814 
		12.479,23.814 12.52,23.799 12.561,23.799 12.594,23.799 12.635,23.792 12.676,23.792 12.717,23.792 12.758,23.799 12.791,23.799 
		12.832,23.807 12.873,23.814 12.906,23.821 12.947,23.829 12.988,23.844 13.029,23.852 13.07,23.867 13.111,23.889 13.152,23.904 
		13.193,23.919 13.234,23.941 13.275,23.964 13.316,23.986 13.357,24.008 13.448,24.069 13.538,24.129 13.62,24.188 13.71,24.256 
		13.792,24.331 13.875,24.413 13.957,24.496 14.039,24.585 14.121,24.675 14.195,24.765 14.269,24.862 14.351,24.96 14.417,25.049 
		14.482,25.147 14.556,25.244 14.614,25.334 14.679,25.432 14.737,25.521 14.843,25.701 14.942,25.866 15.016,26.016 15.082,26.15 
		15.172,26.337 15.196,26.391 15.196,26.391 16.428,25.956 16.428,25.956 	"/>
	<polygon style="fill:#FFFFFF;" points="21.526,25.911 21.526,25.911 21.452,26.061 21.37,26.203 21.296,26.345 21.222,26.48 
		21.14,26.607 21.066,26.734 20.993,26.854 20.919,26.967 20.845,27.079 20.771,27.184 20.705,27.289 20.631,27.378 20.557,27.476 
		20.492,27.558 20.418,27.641 20.353,27.723 20.287,27.798 20.212,27.866 20.147,27.933 20.082,28 20.024,28.053 19.958,28.105 
		19.9,28.158 19.835,28.21 19.778,28.248 19.72,28.292 19.671,28.33 19.613,28.36 19.556,28.39 19.507,28.419 19.458,28.442 
		19.408,28.464 19.359,28.479 19.31,28.502 19.269,28.51 19.228,28.525 19.178,28.54 19.145,28.547 19.096,28.555 19.063,28.555 
		19.022,28.562 18.981,28.562 18.94,28.562 18.899,28.562 18.866,28.562 18.825,28.555 18.784,28.547 18.751,28.54 18.71,28.532 
		18.669,28.525 18.636,28.51 18.587,28.502 18.554,28.487 18.505,28.472 18.472,28.45 18.423,28.435 18.382,28.412 18.341,28.39 
		18.3,28.367 18.267,28.345 18.177,28.285 18.086,28.232 18.004,28.165 17.914,28.09 17.832,28.015 17.75,27.94 17.667,27.851 
		17.585,27.768 17.503,27.679 17.43,27.588 17.348,27.499 17.273,27.401 17.208,27.304 17.134,27.207 17.068,27.109 17.011,27.02 
		16.945,26.922 16.896,26.832 16.781,26.653 16.683,26.488 16.608,26.331 16.543,26.21 16.453,26.016 16.428,25.956 15.196,26.391 
		15.238,26.488 15.344,26.697 15.418,26.854 15.517,27.02 15.615,27.214 15.738,27.409 15.804,27.521 15.878,27.625 15.952,27.738 
		16.025,27.851 16.108,27.97 16.19,28.083 16.28,28.195 16.371,28.315 16.469,28.427 16.576,28.54 16.674,28.652 16.781,28.757 
		16.896,28.861 17.011,28.967 17.134,29.071 17.265,29.161 17.396,29.258 17.528,29.341 17.602,29.386 17.676,29.423 17.75,29.46 
		17.823,29.498 17.897,29.536 17.979,29.565 18.062,29.596 18.135,29.625 18.218,29.655 18.308,29.678 18.39,29.7 18.472,29.715 
		18.563,29.73 18.653,29.746 18.743,29.752 18.833,29.76 18.932,29.76 19.014,29.76 19.113,29.76 19.203,29.746 19.301,29.738 
		19.392,29.723 19.49,29.7 19.589,29.685 19.679,29.655 19.77,29.625 19.868,29.588 19.958,29.55 20.048,29.513 20.147,29.468 
		20.237,29.416 20.328,29.371 20.418,29.311 20.508,29.251 20.59,29.191 20.689,29.131 20.771,29.056 20.861,28.989 20.943,28.914 
		21.034,28.832 21.116,28.749 21.206,28.659 21.288,28.57 21.378,28.472 21.46,28.375 21.542,28.277 21.633,28.165 21.715,28.061 
		21.797,27.948 21.879,27.828 21.97,27.708 22.052,27.581 22.134,27.454 22.216,27.319 22.298,27.176 22.38,27.035 22.47,26.885 
		22.552,26.734 22.635,26.578 22.725,26.42 22.725,26.42 21.526,25.911 21.526,25.911 	"/>
	<polygon style="fill:#FFFFFF;" points="29.038,25.986 29.038,25.986 28.998,25.896 28.899,25.686 28.824,25.529 28.734,25.357 
		28.62,25.17 28.505,24.96 28.439,24.855 28.364,24.743 28.291,24.63 28.217,24.518 28.135,24.406 28.053,24.286 27.963,24.173 
		27.873,24.054 27.774,23.941 27.675,23.829 27.569,23.717 27.461,23.604 27.347,23.5 27.232,23.395 27.109,23.29 26.978,23.192 
		26.846,23.095 26.723,23.013 26.641,22.968 26.575,22.93 26.501,22.885 26.427,22.848 26.345,22.818 26.271,22.781 26.189,22.75 
		26.107,22.721 26.025,22.691 25.943,22.668 25.861,22.646 25.771,22.631 25.68,22.616 25.598,22.601 25.508,22.594 25.417,22.585 
		25.319,22.579 25.229,22.579 25.139,22.585 25.048,22.594 24.95,22.601 24.859,22.616 24.761,22.631 24.663,22.653 24.572,22.683 
		24.482,22.713 24.383,22.743 24.285,22.781 24.194,22.818 24.104,22.863 24.014,22.915 23.923,22.96 23.833,23.021 23.743,23.08 
		23.653,23.14 23.563,23.208 23.472,23.275 23.39,23.342 23.299,23.425 23.217,23.5 23.127,23.582 23.045,23.672 22.955,23.762 
		22.873,23.852 22.791,23.949 22.7,24.054 22.618,24.159 22.536,24.271 22.445,24.383 22.363,24.496 22.281,24.623 22.199,24.75 
		22.117,24.877 22.027,25.012 21.945,25.155 21.863,25.296 21.772,25.439 21.69,25.589 21.608,25.753 21.526,25.911 22.725,26.42 
		22.799,26.27 22.873,26.121 22.955,25.986 23.028,25.851 23.103,25.724 23.176,25.597 23.25,25.477 23.324,25.365 23.398,25.252 
		23.472,25.147 23.546,25.042 23.611,24.945 23.685,24.855 23.759,24.765 23.825,24.683 23.899,24.608 23.964,24.533 24.03,24.465 
		24.096,24.398 24.153,24.331 24.219,24.278 24.285,24.226 24.35,24.173 24.4,24.129 24.465,24.083 24.522,24.046 24.58,24.008 
		24.629,23.979 24.679,23.949 24.736,23.919 24.786,23.896 24.834,23.874 24.884,23.852 24.925,23.836 24.975,23.821 25.015,23.814 
		25.057,23.799 25.097,23.799 25.139,23.792 25.179,23.784 25.221,23.784 25.253,23.784 25.294,23.784 25.335,23.784 25.376,23.784 
		25.409,23.784 25.451,23.792 25.492,23.799 25.524,23.807 25.565,23.821 25.606,23.829 25.647,23.844 25.688,23.859 25.73,23.874 
		25.771,23.889 25.812,23.912 25.853,23.934 25.894,23.956 25.935,23.979 25.976,24.001 26.066,24.062 26.156,24.121 26.239,24.188 
		26.321,24.256 26.411,24.338 26.493,24.42 26.575,24.503 26.657,24.585 26.739,24.675 26.813,24.773 26.887,24.87 26.961,24.96 
		27.035,25.064 27.101,25.155 27.167,25.259 27.232,25.35 27.29,25.447 27.347,25.537 27.454,25.724 27.552,25.888 27.635,26.038 
		27.699,26.166 27.79,26.36 27.815,26.42 27.815,26.42 27.815,26.42 27.815,26.42 27.815,26.42 	"/>
	<polygon style="fill:#FFFFFF;" points="34.136,25.94 34.136,25.94 34.063,26.09 33.988,26.233 33.907,26.368 33.832,26.502 
		33.759,26.638 33.685,26.765 33.611,26.877 33.537,26.997 33.464,27.109 33.389,27.214 33.316,27.311 33.242,27.409 33.167,27.499 
		33.103,27.588 33.037,27.671 32.962,27.753 32.896,27.828 32.832,27.896 32.766,27.963 32.7,28.022 32.634,28.083 32.577,28.135 
		32.511,28.187 32.453,28.232 32.396,28.277 32.338,28.323 32.281,28.36 32.224,28.39 32.174,28.419 32.117,28.45 32.068,28.472 
		32.019,28.495 31.969,28.51 31.929,28.532 31.887,28.54 31.837,28.555 31.797,28.57 31.755,28.57 31.715,28.577 31.674,28.584 
		31.632,28.584 31.592,28.592 31.55,28.592 31.518,28.592 31.476,28.584 31.436,28.584 31.394,28.577 31.361,28.57 31.321,28.562 
		31.279,28.555 31.247,28.54 31.205,28.525 31.165,28.517 31.123,28.495 31.082,28.479 31.042,28.464 31,28.442 30.96,28.419 
		30.918,28.397 30.877,28.375 30.787,28.315 30.705,28.254 30.614,28.195 30.533,28.12 30.442,28.045 30.359,27.97 30.278,27.88 
		30.196,27.798 30.114,27.708 30.04,27.611 29.965,27.521 29.892,27.431 29.817,27.334 29.753,27.236 29.687,27.139 29.621,27.042 
		29.555,26.952 29.506,26.862 29.399,26.675 29.3,26.51 29.227,26.36 29.161,26.233 29.063,26.046 29.038,25.986 27.815,26.42 
		27.855,26.51 27.955,26.72 28.029,26.877 28.126,27.049 28.234,27.236 28.349,27.438 28.423,27.551 28.488,27.656 28.562,27.768 
		28.644,27.88 28.718,27.993 28.809,28.105 28.899,28.225 28.989,28.337 29.088,28.45 29.186,28.562 29.293,28.674 29.399,28.787 
		29.514,28.892 29.63,28.996 29.753,29.102 29.875,29.191 30.007,29.281 30.139,29.371 30.212,29.416 30.286,29.453 30.359,29.49 
		30.434,29.528 30.508,29.565 30.59,29.596 30.672,29.625 30.753,29.655 30.836,29.685 30.918,29.7 31,29.73 31.09,29.746 
		31.181,29.76 31.264,29.775 31.361,29.783 31.444,29.79 31.542,29.79 31.632,29.79 31.722,29.79 31.821,29.775 31.912,29.768 
		32.002,29.752 32.101,29.73 32.2,29.708 32.29,29.685 32.387,29.655 32.478,29.618 32.577,29.581 32.658,29.542 32.757,29.498 
		32.847,29.446 32.938,29.401 33.028,29.341 33.118,29.281 33.208,29.221 33.299,29.154 33.38,29.086 33.471,29.019 33.561,28.937 
		33.644,28.861 33.734,28.779 33.816,28.689 33.907,28.599 33.988,28.502 34.071,28.405 34.162,28.3 34.243,28.195 34.325,28.09 
		34.416,27.97 34.497,27.858 34.58,27.731 34.662,27.611 34.744,27.484 34.834,27.341 34.917,27.207 34.999,27.064 35.089,26.914 
		35.17,26.765 35.252,26.607 35.335,26.443 35.335,26.443 34.136,25.94 34.136,25.94 	"/>
	<polygon style="fill:#FFFFFF;" points="41.656,25.956 41.616,25.866 41.508,25.649 41.435,25.5 41.345,25.327 41.238,25.14 
		41.114,24.938 41.049,24.825 40.984,24.721 40.901,24.608 40.828,24.496 40.746,24.383 40.663,24.271 40.573,24.159 40.482,24.039 
		40.384,23.926 40.286,23.814 40.178,23.702 40.072,23.597 39.958,23.485 39.843,23.379 39.719,23.283 39.596,23.185 39.464,23.095 
		39.333,23.013 39.251,22.96 39.185,22.923 39.112,22.885 39.038,22.848 38.956,22.818 38.881,22.781 38.799,22.75 38.718,22.721 
		38.634,22.698 38.553,22.676 38.471,22.653 38.381,22.639 38.291,22.616 38.209,22.608 38.119,22.601 38.029,22.594 37.929,22.594 
		37.839,22.594 37.749,22.594 37.65,22.601 37.56,22.616 37.46,22.631 37.371,22.653 37.273,22.676 37.183,22.698 37.092,22.728 
		36.994,22.766 36.903,22.795 36.805,22.841 36.714,22.885 36.624,22.93 36.534,22.99 36.443,23.043 36.353,23.103 36.263,23.163 
		36.172,23.23 36.091,23.297 36,23.372 35.917,23.447 35.827,23.529 35.746,23.604 35.655,23.694 35.573,23.784 35.483,23.882 
		35.401,23.979 35.318,24.083 35.228,24.188 35.146,24.293 35.064,24.406 34.981,24.526 34.891,24.646 34.81,24.773 34.728,24.9 
		34.646,25.035 34.563,25.177 34.481,25.319 34.391,25.469 34.309,25.619 34.226,25.776 34.136,25.94 35.335,26.443 35.409,26.293 
		35.492,26.15 35.565,26.008 35.639,25.873 35.721,25.747 35.795,25.619 35.869,25.506 35.943,25.387 36.016,25.274 36.091,25.17 
		36.157,25.072 36.23,24.975 36.304,24.885 36.369,24.795 36.443,24.713 36.509,24.63 36.575,24.556 36.648,24.488 36.714,24.42 
		36.78,24.353 36.837,24.301 36.895,24.241 36.961,24.196 37.027,24.144 37.076,24.106 37.141,24.062 37.19,24.023 37.248,23.994 
		37.306,23.964 37.355,23.934 37.404,23.912 37.454,23.889 37.502,23.874 37.544,23.852 37.593,23.844 37.634,23.829 37.683,23.814 
		37.725,23.814 37.765,23.799 37.797,23.799 37.839,23.792 37.879,23.792 37.921,23.792 37.962,23.792 37.996,23.792 38.036,23.799 
		38.078,23.807 38.11,23.814 38.152,23.821 38.192,23.829 38.234,23.844 38.266,23.852 38.306,23.867 38.348,23.882 38.39,23.896 
		38.43,23.919 38.471,23.941 38.513,23.964 38.562,23.986 38.594,24.001 38.685,24.062 38.766,24.121 38.857,24.188 38.939,24.256 
		39.029,24.331 39.112,24.413 39.194,24.496 39.275,24.585 39.359,24.675 39.431,24.765 39.506,24.855 39.58,24.953 39.654,25.042 
		39.719,25.14 39.784,25.237 39.85,25.334 39.908,25.424 39.964,25.514 40.072,25.693 40.171,25.866 40.245,26.016 40.31,26.135 
		40.409,26.331 40.425,26.391 	"/>
	<polygon style="fill:#FFFFFF;" points="40.425,26.391 40.442,26.42 40.458,26.45 40.482,26.48 40.5,26.51 40.524,26.54 
		40.54,26.57 40.565,26.592 40.589,26.615 40.605,26.63 40.638,26.653 40.663,26.675 40.689,26.69 40.712,26.705 40.737,26.72 
		40.77,26.727 40.803,26.734 40.861,26.757 40.917,26.765 40.984,26.772 41.042,26.772 41.098,26.772 41.165,26.765 41.222,26.75 
		41.279,26.727 41.336,26.705 41.394,26.682 41.444,26.653 41.493,26.615 41.534,26.578 41.575,26.54 41.607,26.488 41.64,26.443 
		41.656,26.42 41.665,26.391 41.682,26.36 41.689,26.337 41.698,26.308 41.698,26.278 41.707,26.248 41.707,26.218 41.707,26.188 
		41.707,26.158 41.707,26.121 41.698,26.09 41.689,26.061 41.682,26.023 41.673,25.986 41.656,25.956 	"/>
</g>
</svg>