<?xml version="1.0" encoding="utf-8"?>
<!DOCTYPE svg PUBLIC "-//W3C//DTD SVG 1.1//EN" "http://www.w3.org/Graphics/SVG/1.1/DTD/svg11.dtd">
<svg version="1.1" xmlns="http://www.w3.org/2000/svg" xmlns:xlink="http://www.w3.org/1999/xlink" width="48" height="39" viewBox="0 0 48 39">
<g>
	<polygon fill="#0D96D4" points="0,3.78 0,37.811 44.269,37.811 44.269,3.78 	"/>
	<polygon fill="#0D96D4" points="0,3.78 0,37.811 44.269,37.811 44.269,3.78 	"/>
	
		<rect x="0" y="3.78" fill="none" stroke="#AEE2FA" stroke-width="0.2971" stroke-linecap="round" stroke-miterlimit="10" width="44.269" height="34.03"/>
	<polygon fill="#45AFE3" points="0,3.78 2.87,0 47.14,0 44.269,3.78 	"/>
	<polygon fill="#45AFE3" points="0,3.78 2.87,0 47.14,0 44.269,3.78 	"/>
	<polygon fill="none" stroke="#AEE2FA" stroke-width="0.2971" stroke-linecap="round" stroke-miterlimit="10" points="0,3.78 
		2.87,0 47.14,0 44.269,3.78 	"/>
	<polygon fill="#015B80" points="44.269,37.811 47.14,34.031 47.14,0 44.269,3.78 	"/>
	<polygon fill="#015B80" points="44.269,37.811 47.14,34.031 47.14,0 44.269,3.78 	"/>
	<polygon fill="none" stroke="#AEE2FA" stroke-width="0.2971" stroke-linecap="round" stroke-miterlimit="10" points="
		44.269,37.811 47.14,34.031 47.14,0 44.269,3.78 	"/>
	
		<rect x="2.05" y="6.3" fill="none" stroke="#FFFFFF" stroke-width="0.5942" stroke-linecap="round" stroke-miterlimit="10" width="40.17" height="28.989"/>
	<path fill="#015B80" d="M39.35,25.71c0,3.896-7.565,7.061-16.91,7.061c-9.338,0-16.91-3.164-16.91-7.061
		c0-3.896,7.571-7.06,16.91-7.06C31.784,18.65,39.35,21.814,39.35,25.71"/>
	<path fill="none" stroke="#AEE2FA" stroke-width="0.2971" stroke-linecap="round" stroke-miterlimit="10" d="M39.35,25.71
		c0,3.896-7.565,7.061-16.91,7.061c-9.338,0-16.91-3.164-16.91-7.061c0-3.896,7.571-7.06,16.91-7.06
		C31.784,18.65,39.35,21.814,39.35,25.71"/>
	<polygon fill="#015B80" points="5.531,15.88 5.531,25.96 39.145,25.96 39.145,15.88 	"/>
	<polygon fill="#015B80" points="5.531,15.88 5.531,25.96 39.145,25.96 39.145,15.88 	"/>
	<path fill="#4DBCEC" d="M39.35,15.63c0,3.896-7.565,7.061-16.91,7.061c-9.338,0-16.91-3.165-16.91-7.061
		c0-3.906,7.571-7.061,16.91-7.061C31.784,8.57,39.35,11.724,39.35,15.63"/>
	<path fill="none" stroke="#AEE2FA" stroke-width="0.2971" stroke-linecap="round" stroke-miterlimit="10" d="M39.35,15.63
		c0,3.896-7.565,7.061-16.91,7.061c-9.338,0-16.91-3.165-16.91-7.061c0-3.906,7.571-7.061,16.91-7.061
		C31.784,8.57,39.35,11.724,39.35,15.63"/>
	<polygon fill="#010101" points="22.752,14.111 25.208,15.12 31.152,12.1 33.82,13.109 32.381,10.589 25.412,10.589 28.283,11.34 	
		"/>
	<polygon fill="#010101" points="22.752,14.111 25.208,15.12 31.152,12.1 33.82,13.109 32.381,10.589 25.412,10.589 28.283,11.34 	
		"/>
	<polygon fill="#010101" points="21.728,16.89 19.263,15.88 13.523,18.901 10.654,17.899 12.092,20.67 19.263,20.67 16.191,19.66 	
		"/>
	<polygon fill="#010101" points="21.728,16.89 19.263,15.88 13.523,18.901 10.654,17.899 12.092,20.67 19.263,20.67 16.191,19.66 	
		"/>
	<polygon fill="#010101" points="11.271,11.34 13.735,10.331 19.678,13.109 22.338,12.351 20.906,14.871 13.938,14.871 
		16.807,14.111 	"/>
	<polygon fill="#010101" points="11.271,11.34 13.735,10.331 19.678,13.109 22.338,12.351 20.906,14.871 13.938,14.871 
		16.807,14.111 	"/>
	<polygon fill="#010101" points="33.405,19.911 30.949,20.92 25.208,17.899 22.338,18.901 23.778,16.38 30.949,16.38 27.875,17.14 	
		"/>
	<polygon fill="#010101" points="33.405,19.911 30.949,20.92 25.208,17.899 22.338,18.901 23.778,16.38 30.949,16.38 27.875,17.14 	
		"/>
	<polygon fill="#FFFFFF" points="22.955,14.371 25.412,15.379 31.355,12.351 34.023,13.36 32.592,10.839 25.622,10.839 
		28.486,11.591 	"/>
	<polygon fill="#FFFFFF" points="22.955,14.371 25.412,15.379 31.355,12.351 34.023,13.36 32.592,10.839 25.622,10.839 
		28.486,11.591 	"/>
	<polygon fill="#FFFFFF" points="21.931,17.14 19.468,16.13 13.735,19.159 10.864,18.15 12.296,20.92 19.468,20.92 16.394,19.911 	
		"/>
	<polygon fill="#FFFFFF" points="21.931,17.14 19.468,16.13 13.735,19.159 10.864,18.15 12.296,20.92 19.468,20.92 16.394,19.911 	
		"/>
	<polygon fill="#FFFFFF" points="11.474,11.591 13.938,10.589 19.882,13.36 22.541,12.601 21.11,15.12 14.141,15.12 17.011,14.371 	
		"/>
	<polygon fill="#FFFFFF" points="11.474,11.591 13.938,10.589 19.882,13.36 22.541,12.601 21.11,15.12 14.141,15.12 17.011,14.371 	
		"/>
	<polygon fill="#FFFFFF" points="33.615,20.169 31.152,21.169 25.412,18.15 22.541,19.159 23.98,16.64 31.152,16.64 28.078,17.39 	
		"/>
	<polygon fill="#FFFFFF" points="33.615,20.169 31.152,21.169 25.412,18.15 22.541,19.159 23.98,16.64 31.152,16.64 28.078,17.39 	
		"/>
	<g>
		<g>
			<defs>
				<rect id="SVGID_1_" x="5.37" y="15.754" width="0.466" height="10.009"/>
			</defs>
			<clipPath id="SVGID_2_">
				<use xlink:href="#SVGID_1_"  overflow="visible"/>
			</clipPath>
			
				<line clip-path="url(#SVGID_2_)" fill="none" stroke="#AEE2FA" stroke-width="0.2971" stroke-linecap="round" stroke-miterlimit="10" x1="5.531" y1="5.541" x2="5.531" y2="35.799"/>
		</g>
	</g>
	<g>
		<g>
			<defs>
				<rect id="SVGID_3_" x="38.972" y="15.754" width="0.465" height="10.009"/>
			</defs>
			<clipPath id="SVGID_4_">
				<use xlink:href="#SVGID_3_"  overflow="visible"/>
			</clipPath>
			
				<line clip-path="url(#SVGID_4_)" fill="none" stroke="#AEE2FA" stroke-width="0.2971" stroke-linecap="round" stroke-miterlimit="10" x1="39.145" y1="5.541" x2="39.145" y2="35.799"/>
		</g>
	</g>
</g>
</svg>
