<?xml version="1.0" encoding="utf-8"?>
<!DOCTYPE svg PUBLIC "-//W3C//DTD SVG 1.1//EN" "http://www.w3.org/Graphics/SVG/1.1/DTD/svg11.dtd">
<svg version="1.1" xmlns="http://www.w3.org/2000/svg" xmlns:xlink="http://www.w3.org/1999/xlink"  width="49" height="32" viewBox="0 0 49 32">
<g>
	<polygon fill="#117CAE" points="48.639,22.207 48.608,22.665 48.514,23.125 48.366,23.584 48.156,24.033 47.883,24.47 
		47.557,24.894 47.168,25.319 46.736,25.733 46.254,26.135 45.718,26.526 45.127,26.904 44.497,27.272 43.824,27.628 43.107,27.973 
		42.342,28.294 41.542,28.615 40.701,28.916 39.818,29.203 38.904,29.466 37.956,29.719 36.969,29.96 35.949,30.179 34.908,30.374 
		33.835,30.558 32.731,30.718 31.606,30.868 30.45,30.995 29.282,31.086 28.083,31.167 26.875,31.224 25.644,31.259 24.393,31.27 
		23.153,31.259 21.923,31.224 20.713,31.167 19.514,31.086 18.347,30.995 17.191,30.868 16.065,30.718 14.963,30.558 13.889,30.374 
		12.849,30.179 11.828,29.96 10.839,29.719 9.894,29.466 8.979,29.203 8.097,28.916 7.256,28.615 6.456,28.294 5.689,27.973 
		4.973,27.628 4.289,27.272 3.658,26.904 3.08,26.526 2.545,26.135 2.061,25.733 1.619,25.319 1.24,24.894 0.915,24.47 
		0.642,24.033 0.43,23.584 0.283,23.125 0.189,22.665 0.157,22.207 0.189,21.735 0.283,21.276 0.43,20.816 0.642,20.368 
		0.915,19.932 1.24,19.506 1.619,19.081 2.061,18.668 2.545,18.265 3.08,17.875 3.658,17.496 4.289,17.129 4.973,16.772 
		5.689,16.427 6.456,16.105 7.256,15.784 8.097,15.485 8.979,15.199 9.894,14.935 10.839,14.681 11.828,14.44 12.849,14.222 
		13.889,14.027 14.963,13.843 16.065,13.681 17.191,13.533 18.347,13.418 19.514,13.315 20.713,13.234 21.923,13.176 23.153,13.142 
		24.393,13.13 25.644,13.142 26.875,13.176 28.083,13.234 29.282,13.315 30.45,13.418 31.606,13.533 32.731,13.681 33.835,13.843 
		34.908,14.027 35.949,14.222 36.969,14.44 37.956,14.681 38.904,14.935 39.818,15.199 40.701,15.485 41.542,15.784 42.342,16.105 
		43.107,16.427 43.824,16.772 44.497,17.129 45.127,17.496 45.718,17.875 46.254,18.265 46.736,18.668 47.168,19.081 47.557,19.506 
		47.883,19.932 48.156,20.368 48.366,20.816 48.514,21.276 48.608,21.735 	"/>
	<polygon fill="#AED7E7" points="24.393,31.431 24.393,31.431 25.025,31.431 25.644,31.419 26.264,31.408 26.885,31.385 
		27.495,31.361 28.094,31.327 28.695,31.292 29.294,31.247 29.882,31.201 30.47,31.143 31.05,31.086 31.617,31.03 32.184,30.961 
		32.752,30.892 33.309,30.81 33.857,30.718 34.392,30.627 34.928,30.535 35.454,30.443 35.98,30.339 36.496,30.236 37.001,30.122 
		37.495,30.006 37.988,29.88 38.461,29.754 38.936,29.627 39.408,29.489 39.859,29.363 40.081,29.283 40.302,29.214 40.522,29.145 
		40.743,29.076 40.954,28.996 41.165,28.916 41.375,28.846 41.583,28.766 41.793,28.685 41.994,28.615 42.194,28.536 42.393,28.455 
		42.595,28.375 42.783,28.294 42.973,28.203 43.161,28.122 43.35,28.042 43.53,27.95 43.708,27.858 43.887,27.778 44.055,27.686 
		44.234,27.594 44.403,27.513 44.571,27.421 44.729,27.33 44.896,27.238 45.054,27.134 45.201,27.042 45.36,26.951 45.507,26.86 
		45.654,26.755 45.79,26.664 45.937,26.56 46.073,26.468 46.211,26.365 46.337,26.261 46.463,26.169 46.589,26.065 46.714,25.962 
		46.832,25.859 46.947,25.756 47.053,25.652 47.168,25.549 47.272,25.434 47.378,25.331 47.473,25.227 47.566,25.113 47.661,25.009 
		47.757,24.894 47.84,24.791 47.923,24.676 47.998,24.562 48.071,24.458 48.146,24.342 48.209,24.228 48.272,24.114 48.335,23.999 
		48.397,23.883 48.45,23.769 48.503,23.653 48.546,23.527 48.586,23.412 48.63,23.297 48.661,23.171 48.693,23.056 48.713,22.93 
		48.744,22.815 48.755,22.689 48.777,22.574 48.786,22.447 48.786,22.321 48.786,22.207 48.492,22.207 48.492,22.309 48.482,22.425 
		48.482,22.539 48.46,22.643 48.45,22.758 48.428,22.86 48.409,22.977 48.377,23.08 48.345,23.194 48.314,23.297 48.272,23.412 
		48.229,23.516 48.177,23.63 48.135,23.733 48.083,23.838 48.019,23.94 47.967,24.055 47.893,24.159 47.83,24.262 47.757,24.366 
		47.683,24.481 47.609,24.583 47.526,24.688 47.441,24.791 47.357,24.894 47.263,24.997 47.168,25.101 47.072,25.205 46.968,25.308 
		46.863,25.4 46.758,25.503 46.642,25.606 46.526,25.71 46.41,25.802 46.294,25.905 46.169,25.996 46.043,26.101 45.906,26.192 
		45.77,26.296 45.631,26.388 45.496,26.479 45.36,26.583 45.213,26.674 45.066,26.766 44.907,26.86 44.749,26.951 44.592,27.042 
		44.434,27.134 44.265,27.215 44.109,27.307 43.929,27.398 43.76,27.478 43.593,27.572 43.414,27.651 43.236,27.743 43.046,27.824 
		42.857,27.903 42.679,27.984 42.478,28.065 42.288,28.146 42.099,28.225 41.9,28.306 41.699,28.386 41.49,28.467 41.28,28.536 
		41.079,28.615 40.871,28.685 40.648,28.766 40.438,28.835 40.217,28.904 39.997,28.972 39.776,29.054 39.323,29.179 38.872,29.317 
		38.399,29.444 37.915,29.57 37.431,29.685 36.938,29.8 36.432,29.915 35.928,30.018 35.412,30.122 34.877,30.213 34.351,30.317 
		33.815,30.397 33.268,30.489 32.711,30.558 32.154,30.639 31.596,30.708 31.018,30.765 30.438,30.822 29.862,30.879 29.271,30.925 
		28.683,30.971 28.083,31.005 27.474,31.04 26.875,31.063 26.255,31.086 25.644,31.098 25.025,31.109 24.393,31.109 24.393,31.109 
		24.393,31.109 24.384,31.109 24.362,31.121 24.351,31.121 24.33,31.121 24.319,31.132 24.309,31.143 24.299,31.155 24.289,31.167 
		24.266,31.19 24.257,31.212 24.257,31.247 24.246,31.27 24.257,31.304 24.257,31.327 24.266,31.361 24.289,31.385 24.299,31.396 
		24.309,31.408 24.319,31.419 24.33,31.419 24.351,31.431 24.362,31.431 24.384,31.431 	"/>
	<polygon fill="#AED7E7" points="0,22.207 0,22.207 0.01,22.321 0.01,22.447 0.021,22.574 0.043,22.689 0.053,22.815 0.073,22.93 
		0.105,23.056 0.135,23.171 0.168,23.297 0.21,23.412 0.252,23.527 0.294,23.653 0.347,23.769 0.4,23.883 0.463,23.999 
		0.515,24.114 0.589,24.228 0.651,24.342 0.724,24.458 0.799,24.562 0.872,24.676 0.956,24.791 1.041,24.894 1.136,25.009 
		1.23,25.113 1.325,25.227 1.419,25.331 1.525,25.434 1.629,25.549 1.735,25.652 1.85,25.756 1.966,25.859 2.082,25.962 
		2.209,26.065 2.334,26.169 2.461,26.261 2.586,26.365 2.723,26.468 2.86,26.56 3.007,26.664 3.143,26.755 3.291,26.86 
		3.437,26.951 3.595,27.042 3.742,27.134 3.901,27.238 4.07,27.33 4.227,27.421 4.395,27.513 4.563,27.594 4.731,27.686 
		4.909,27.778 5.089,27.858 5.268,27.95 5.447,28.042 5.636,28.122 5.824,28.203 6.014,28.294 6.202,28.375 6.404,28.455 
		6.603,28.536 6.803,28.615 7.002,28.685 7.213,28.766 7.412,28.846 7.624,28.916 7.844,28.996 8.054,29.076 8.275,29.145 
		8.495,29.214 8.717,29.283 8.937,29.363 9.389,29.489 9.853,29.627 10.336,29.754 10.809,29.88 11.303,30.006 11.796,30.122 
		12.302,30.236 12.817,30.339 13.343,30.443 13.869,30.535 14.405,30.627 14.941,30.718 15.489,30.81 16.046,30.892 16.613,30.961 
		17.169,31.03 17.748,31.086 18.326,31.143 18.916,31.201 19.505,31.247 20.103,31.292 20.702,31.327 21.302,31.361 21.912,31.385 
		22.532,31.408 23.153,31.419 23.773,31.431 24.393,31.431 24.393,31.109 23.773,31.109 23.153,31.098 22.543,31.086 21.923,31.063 
		21.323,31.04 20.713,31.005 20.114,30.971 19.525,30.925 18.936,30.879 18.359,30.822 17.78,30.765 17.201,30.708 16.645,30.639 
		16.087,30.558 15.53,30.489 14.983,30.397 14.446,30.317 13.91,30.213 13.385,30.122 12.87,30.018 12.365,29.915 11.86,29.8 
		11.366,29.685 10.883,29.57 10.399,29.444 9.926,29.317 9.473,29.179 9.021,29.054 8.801,28.972 8.58,28.904 8.359,28.835 
		8.137,28.766 7.928,28.685 7.718,28.615 7.507,28.536 7.307,28.467 7.098,28.386 6.897,28.306 6.698,28.225 6.51,28.146 
		6.308,28.065 6.119,27.984 5.93,27.903 5.752,27.824 5.562,27.743 5.383,27.651 5.205,27.572 5.036,27.478 4.858,27.398 
		4.69,27.307 4.532,27.215 4.364,27.134 4.206,27.042 4.038,26.951 3.89,26.86 3.733,26.766 3.586,26.674 3.437,26.583 
		3.301,26.479 3.154,26.388 3.028,26.296 2.89,26.192 2.755,26.101 2.628,25.996 2.503,25.905 2.387,25.802 2.271,25.71 
		2.155,25.606 2.039,25.503 1.934,25.4 1.831,25.308 1.725,25.205 1.629,25.101 1.535,24.997 1.441,24.894 1.357,24.791 
		1.272,24.688 1.188,24.583 1.104,24.481 1.031,24.376 0.967,24.262 0.894,24.159 0.831,24.055 0.778,23.94 0.714,23.838 
		0.662,23.733 0.61,23.63 0.567,23.516 0.526,23.412 0.484,23.297 0.452,23.194 0.42,23.08 0.388,22.977 0.367,22.86 0.347,22.758 
		0.326,22.643 0.316,22.539 0.304,22.425 0.304,22.309 0.304,22.207 0.304,22.207 0.304,22.207 0.304,22.183 0.294,22.16 
		0.294,22.148 0.283,22.126 0.283,22.114 0.273,22.103 0.263,22.091 0.252,22.08 0.232,22.068 0.21,22.045 0.179,22.045 
		0.157,22.045 0.126,22.045 0.094,22.045 0.073,22.068 0.053,22.08 0.043,22.091 0.031,22.103 0.021,22.114 0.021,22.126 
		0.01,22.148 0.01,22.16 0,22.183 	"/>
	<polygon fill="#AED7E7" points="24.393,12.969 24.393,12.969 23.773,12.969 23.153,12.981 22.532,12.993 21.912,13.016 
		21.302,13.039 20.702,13.074 20.103,13.107 19.505,13.154 18.916,13.199 18.326,13.257 17.748,13.315 17.169,13.371 16.613,13.44 
		16.046,13.521 15.489,13.602 14.941,13.681 14.405,13.774 13.869,13.866 13.343,13.958 12.817,14.062 12.302,14.176 11.796,14.291 
		11.303,14.394 10.809,14.52 10.336,14.647 9.853,14.773 9.389,14.911 8.937,15.049 8.495,15.187 8.054,15.336 7.844,15.405 
		7.624,15.485 7.412,15.555 7.213,15.635 7.002,15.715 6.803,15.796 6.603,15.876 6.404,15.957 6.202,16.026 6.014,16.118 
		5.824,16.198 5.636,16.279 5.447,16.37 5.268,16.451 5.089,16.543 4.909,16.623 4.731,16.715 4.563,16.807 4.395,16.899 
		4.227,16.991 4.07,17.083 3.901,17.173 3.742,17.266 3.595,17.358 3.437,17.45 3.291,17.542 3.143,17.646 3.007,17.737 
		2.86,17.841 2.723,17.943 2.586,18.037 2.461,18.139 2.334,18.243 2.209,18.334 2.082,18.438 1.966,18.542 1.85,18.645 
		1.735,18.749 1.629,18.863 1.525,18.967 1.419,19.07 1.325,19.173 1.23,19.288 1.136,19.392 1.041,19.506 0.956,19.61 
		0.872,19.725 0.799,19.84 0.724,19.954 0.651,20.058 0.589,20.172 0.515,20.288 0.463,20.402 0.4,20.518 0.347,20.644 
		0.294,20.758 0.252,20.874 0.21,20.988 0.168,21.114 0.135,21.23 0.105,21.344 0.073,21.47 0.053,21.586 0.043,21.712 
		0.021,21.838 0.01,21.953 0.01,22.08 0,22.207 0.304,22.207 0.304,22.091 0.304,21.976 0.316,21.873 0.326,21.757 0.347,21.655 
		0.367,21.54 0.388,21.426 0.42,21.321 0.452,21.218 0.484,21.104 0.526,21 0.567,20.885 0.61,20.783 0.662,20.667 0.714,20.563 
		0.778,20.46 0.831,20.345 0.894,20.241 0.967,20.139 1.031,20.036 1.104,19.932 1.188,19.816 1.272,19.713 1.357,19.61 
		1.441,19.506 1.535,19.403 1.629,19.3 1.725,19.197 1.831,19.105 1.934,19.001 2.039,18.898 2.155,18.794 2.271,18.702 
		2.387,18.599 2.503,18.495 2.628,18.404 2.755,18.299 2.89,18.208 3.028,18.104 3.154,18.012 3.301,17.921 3.437,17.83 
		3.586,17.737 3.733,17.634 3.89,17.542 4.038,17.461 4.206,17.369 4.364,17.278 4.532,17.186 4.69,17.094 4.858,17.014 
		5.036,16.922 5.205,16.83 5.383,16.749 5.562,16.668 5.752,16.578 5.93,16.497 6.119,16.417 6.308,16.336 6.51,16.255 
		6.698,16.175 6.897,16.095 7.098,16.014 7.307,15.945 7.507,15.865 7.718,15.784 7.928,15.715 8.137,15.635 8.58,15.497 
		9.021,15.359 9.473,15.222 9.926,15.095 10.399,14.957 10.883,14.842 11.366,14.716 11.86,14.601 12.365,14.486 12.87,14.383 
		13.385,14.279 13.91,14.188 14.446,14.084 14.983,14.003 15.53,13.923 16.087,13.843 16.645,13.763 17.201,13.693 17.78,13.636 
		18.359,13.579 18.936,13.521 19.525,13.476 20.114,13.43 20.713,13.395 21.323,13.361 21.923,13.337 22.543,13.315 23.153,13.302 
		23.773,13.292 24.393,13.292 24.393,13.292 24.393,13.292 24.414,13.292 24.436,13.292 24.446,13.28 24.468,13.28 24.477,13.268 
		24.488,13.257 24.498,13.257 24.509,13.234 24.53,13.21 24.541,13.188 24.541,13.154 24.551,13.13 24.541,13.096 24.541,13.074 
		24.53,13.039 24.509,13.016 24.498,13.004 24.488,12.993 24.477,12.993 24.468,12.981 24.446,12.969 24.436,12.969 24.414,12.969 	
		"/>
	<polygon fill="#AED7E7" points="48.786,22.207 48.786,22.08 48.786,21.953 48.777,21.838 48.755,21.712 48.744,21.586 
		48.713,21.47 48.693,21.344 48.661,21.23 48.63,21.114 48.586,20.988 48.546,20.874 48.503,20.758 48.45,20.644 48.397,20.518 
		48.335,20.402 48.272,20.288 48.209,20.172 48.146,20.058 48.071,19.954 47.998,19.84 47.923,19.725 47.84,19.61 47.757,19.506 
		47.661,19.392 47.566,19.288 47.473,19.173 47.378,19.07 47.272,18.967 47.168,18.863 47.053,18.749 46.947,18.645 46.832,18.542 
		46.714,18.438 46.589,18.334 46.463,18.243 46.337,18.139 46.211,18.037 46.073,17.943 45.937,17.841 45.79,17.737 45.654,17.646 
		45.507,17.542 45.36,17.45 45.201,17.358 45.054,17.266 44.896,17.173 44.729,17.083 44.571,16.991 44.403,16.899 44.234,16.807 
		44.055,16.715 43.887,16.623 43.708,16.543 43.53,16.451 43.35,16.37 43.161,16.279 42.973,16.198 42.783,16.118 42.595,16.026 
		42.393,15.957 42.194,15.876 41.994,15.796 41.793,15.715 41.583,15.635 41.375,15.555 41.165,15.485 40.954,15.405 40.743,15.336 
		40.302,15.187 39.859,15.049 39.408,14.911 38.936,14.773 38.461,14.647 37.988,14.52 37.495,14.394 37.001,14.291 36.496,14.176 
		35.98,14.062 35.454,13.958 34.928,13.866 34.392,13.774 33.857,13.681 33.309,13.602 32.752,13.521 32.184,13.44 31.617,13.371 
		31.05,13.315 30.47,13.257 29.882,13.199 29.294,13.154 28.695,13.107 28.094,13.074 27.495,13.039 26.885,13.016 26.264,12.993 
		25.644,12.981 25.025,12.969 24.393,12.969 24.393,13.292 25.025,13.292 25.644,13.302 26.255,13.315 26.875,13.337 27.474,13.361 
		28.083,13.395 28.683,13.43 29.271,13.476 29.862,13.521 30.438,13.579 31.018,13.636 31.596,13.693 32.154,13.763 32.711,13.843 
		33.268,13.923 33.815,14.003 34.351,14.084 34.877,14.188 35.412,14.279 35.928,14.383 36.432,14.486 36.938,14.601 37.431,14.716 
		37.915,14.842 38.399,14.957 38.872,15.095 39.323,15.222 39.776,15.359 40.217,15.497 40.648,15.635 40.871,15.715 41.079,15.784 
		41.28,15.865 41.49,15.945 41.699,16.014 41.9,16.095 42.099,16.175 42.288,16.255 42.478,16.336 42.679,16.417 42.867,16.497 
		43.046,16.578 43.236,16.668 43.414,16.749 43.593,16.83 43.76,16.922 43.929,17.014 44.109,17.094 44.265,17.186 44.434,17.278 
		44.592,17.369 44.749,17.461 44.907,17.542 45.066,17.634 45.213,17.737 45.36,17.83 45.496,17.921 45.631,18.012 45.77,18.104 
		45.906,18.208 46.043,18.299 46.169,18.404 46.294,18.495 46.41,18.599 46.526,18.702 46.642,18.794 46.758,18.898 46.863,19.001 
		46.968,19.105 47.072,19.197 47.168,19.3 47.263,19.403 47.357,19.506 47.441,19.61 47.526,19.713 47.609,19.816 47.683,19.932 
		47.757,20.036 47.83,20.139 47.893,20.241 47.967,20.345 48.019,20.46 48.083,20.563 48.135,20.667 48.177,20.783 48.229,20.885 
		48.272,20.988 48.314,21.104 48.345,21.218 48.377,21.321 48.409,21.426 48.428,21.54 48.45,21.655 48.46,21.757 48.482,21.873 
		48.482,21.976 48.492,22.091 48.492,22.207 	"/>
	<polygon fill="#117CAE" points="0.073,9.489 0.073,22.447 48.639,22.447 48.65,9.489 	"/>
	<polygon fill="#3FAEE3" points="48.639,9.236 48.608,9.708 48.514,10.167 48.366,10.626 48.156,11.074 47.883,11.511 
		47.557,11.936 47.168,12.361 46.736,12.774 46.254,13.176 45.718,13.567 45.127,13.946 44.497,14.314 43.824,14.67 43.107,15.015 
		42.342,15.336 41.542,15.658 40.701,15.957 39.818,16.244 38.904,16.508 37.956,16.761 36.969,17.002 35.949,17.22 34.908,17.416 
		33.835,17.6 32.731,17.761 31.606,17.909 30.45,18.024 29.282,18.128 28.083,18.208 26.875,18.265 25.644,18.299 24.393,18.312 
		23.153,18.299 21.923,18.265 20.713,18.208 19.514,18.128 18.347,18.024 17.191,17.909 16.065,17.761 14.963,17.6 13.889,17.416 
		12.849,17.22 11.828,17.002 10.839,16.761 9.894,16.508 8.979,16.244 8.097,15.957 7.256,15.658 6.456,15.336 5.689,15.015 
		4.973,14.67 4.289,14.314 3.658,13.946 3.08,13.567 2.545,13.176 2.061,12.774 1.619,12.361 1.24,11.936 0.915,11.511 
		0.642,11.074 0.43,10.626 0.283,10.167 0.189,9.708 0.157,9.236 0.189,8.777 0.283,8.317 0.43,7.857 0.642,7.41 0.915,6.973 
		1.24,6.537 1.619,6.123 2.061,5.709 2.545,5.307 3.08,4.917 3.658,4.538 4.289,4.17 4.973,3.814 5.689,3.47 6.456,3.136 
		7.256,2.827 8.097,2.526 8.979,2.24 9.894,1.976 10.839,1.711 11.828,1.482 12.849,1.264 13.889,1.068 14.963,0.884 16.065,0.724 
		17.191,0.574 18.347,0.448 19.514,0.356 20.713,0.275 21.923,0.218 23.153,0.184 24.393,0.172 25.644,0.184 26.875,0.218 
		28.083,0.275 29.282,0.356 30.45,0.448 31.606,0.574 32.731,0.724 33.835,0.884 34.908,1.068 35.949,1.264 36.969,1.482 
		37.956,1.711 38.904,1.976 39.818,2.24 40.701,2.526 41.542,2.827 42.342,3.136 43.107,3.47 43.824,3.814 44.497,4.17 
		45.127,4.538 45.718,4.917 46.254,5.307 46.736,5.709 47.168,6.123 47.557,6.537 47.883,6.973 48.156,7.41 48.366,7.857 
		48.514,8.317 48.608,8.777 	"/>
	<polygon fill="#AED7E7" points="24.393,18.473 24.393,18.473 25.025,18.473 25.644,18.461 26.264,18.45 26.885,18.426 
		27.495,18.404 28.094,18.368 28.695,18.334 29.294,18.289 29.882,18.243 30.47,18.185 31.05,18.128 31.617,18.071 32.184,18.002 
		32.752,17.921 33.309,17.841 33.857,17.761 34.392,17.668 34.928,17.577 35.454,17.485 35.98,17.381 36.496,17.266 37.001,17.163 
		37.495,17.036 37.988,16.922 38.461,16.795 38.936,16.668 39.408,16.531 39.859,16.393 40.081,16.324 40.302,16.255 40.522,16.186 
		40.743,16.105 40.954,16.037 41.165,15.957 41.375,15.888 41.583,15.808 41.793,15.727 41.994,15.646 42.194,15.565 42.393,15.485 
		42.595,15.405 42.783,15.325 42.973,15.244 43.161,15.164 43.35,15.072 43.53,14.992 43.708,14.9 43.887,14.808 44.055,14.727 
		44.234,14.636 44.403,14.544 44.571,14.451 44.729,14.372 44.896,14.269 45.054,14.176 45.201,14.084 45.36,13.992 45.507,13.901 
		45.654,13.797 45.79,13.705 45.937,13.602 46.073,13.509 46.211,13.407 46.337,13.302 46.463,13.199 46.589,13.096 46.714,12.993 
		46.832,12.9 46.947,12.797 47.053,12.683 47.168,12.58 47.272,12.476 47.378,12.372 47.473,12.269 47.566,12.154 47.661,12.051 
		47.757,11.936 47.84,11.832 47.923,11.717 47.998,11.603 48.071,11.488 48.146,11.384 48.209,11.27 48.272,11.155 48.335,11.04 
		48.397,10.925 48.45,10.798 48.503,10.684 48.546,10.569 48.586,10.454 48.63,10.328 48.661,10.213 48.693,10.098 48.713,9.972 
		48.744,9.857 48.755,9.73 48.777,9.604 48.786,9.489 48.786,9.363 48.786,9.236 48.492,9.236 48.492,9.351 48.482,9.466 
		48.482,9.569 48.46,9.684 48.45,9.799 48.428,9.903 48.409,10.018 48.377,10.121 48.345,10.235 48.314,10.339 48.272,10.454 
		48.229,10.557 48.177,10.661 48.135,10.776 48.083,10.879 48.019,10.983 47.967,11.098 47.893,11.201 47.83,11.304 47.757,11.408 
		47.683,11.523 47.609,11.625 47.526,11.729 47.441,11.832 47.357,11.936 47.263,12.04 47.168,12.143 47.072,12.246 46.968,12.349 
		46.863,12.441 46.758,12.544 46.642,12.648 46.526,12.74 46.41,12.843 46.294,12.947 46.169,13.039 46.043,13.142 45.906,13.234 
		45.77,13.337 45.631,13.43 45.496,13.521 45.36,13.613 45.213,13.705 45.066,13.797 44.907,13.901 44.749,13.981 44.592,14.084 
		44.434,14.164 44.265,14.256 44.109,14.348 43.929,14.429 43.76,14.52 43.593,14.601 43.414,14.693 43.236,14.773 43.046,14.866 
		42.857,14.946 42.679,15.026 42.478,15.106 42.288,15.187 42.099,15.268 41.9,15.348 41.699,15.428 41.49,15.497 41.28,15.578 
		41.079,15.658 40.871,15.727 40.648,15.796 40.438,15.876 40.217,15.945 39.997,16.014 39.776,16.083 39.323,16.221 38.872,16.358 
		38.399,16.486 37.915,16.6 37.431,16.726 36.938,16.842 36.432,16.956 35.928,17.06 35.412,17.163 34.877,17.255 34.351,17.347 
		33.815,17.438 33.268,17.52 32.711,17.6 32.154,17.68 31.596,17.737 31.018,17.806 30.438,17.863 29.862,17.921 29.271,17.968 
		28.683,18.012 28.083,18.047 27.474,18.082 26.875,18.104 26.255,18.128 25.644,18.139 25.025,18.151 24.393,18.151 24.393,18.151 
		24.393,18.151 24.384,18.151 24.362,18.151 24.351,18.163 24.33,18.163 24.319,18.174 24.309,18.185 24.299,18.185 24.289,18.208 
		24.266,18.231 24.257,18.254 24.257,18.289 24.246,18.312 24.257,18.346 24.257,18.368 24.266,18.404 24.289,18.426 24.299,18.438 
		24.309,18.45 24.319,18.45 24.33,18.461 24.351,18.473 24.362,18.473 24.384,18.473 	"/>
	<polygon fill="#AED7E7" points="0,9.236 0,9.236 0.01,9.363 0.01,9.489 0.021,9.604 0.043,9.73 0.053,9.857 0.073,9.972 
		0.105,10.098 0.135,10.213 0.168,10.328 0.21,10.454 0.252,10.569 0.294,10.684 0.347,10.798 0.4,10.925 0.463,11.04 0.515,11.155 
		0.589,11.27 0.651,11.384 0.724,11.488 0.799,11.603 0.872,11.717 0.956,11.832 1.041,11.936 1.136,12.051 1.23,12.154 
		1.325,12.269 1.419,12.372 1.525,12.476 1.629,12.58 1.735,12.683 1.85,12.797 1.966,12.9 2.082,12.993 2.209,13.096 2.334,13.199 
		2.461,13.302 2.586,13.407 2.723,13.509 2.86,13.602 3.007,13.705 3.143,13.797 3.291,13.901 3.437,13.992 3.595,14.084 
		3.742,14.176 3.901,14.269 4.07,14.372 4.227,14.451 4.395,14.544 4.563,14.636 4.731,14.727 4.909,14.808 5.089,14.9 
		5.268,14.992 5.447,15.072 5.636,15.164 5.824,15.244 6.014,15.325 6.202,15.405 6.404,15.485 6.603,15.565 6.803,15.646 
		7.002,15.727 7.213,15.808 7.412,15.888 7.624,15.957 7.844,16.037 8.054,16.105 8.275,16.186 8.495,16.255 8.717,16.324 
		8.937,16.393 9.389,16.531 9.853,16.668 10.336,16.795 10.809,16.922 11.303,17.036 11.796,17.163 12.302,17.266 12.817,17.381 
		13.343,17.485 13.869,17.577 14.405,17.668 14.941,17.761 15.489,17.841 16.046,17.921 16.613,18.002 17.169,18.071 17.748,18.128 
		18.326,18.185 18.916,18.243 19.505,18.289 20.103,18.334 20.702,18.368 21.302,18.404 21.912,18.426 22.532,18.45 23.153,18.461 
		23.773,18.473 24.393,18.473 24.393,18.151 23.773,18.151 23.153,18.139 22.543,18.128 21.923,18.104 21.323,18.082 20.713,18.047 
		20.114,18.012 19.525,17.968 18.936,17.921 18.359,17.863 17.78,17.806 17.201,17.737 16.645,17.68 16.087,17.6 15.53,17.52 
		14.983,17.438 14.446,17.347 13.91,17.255 13.385,17.163 12.87,17.06 12.365,16.956 11.86,16.842 11.366,16.726 10.883,16.6 
		10.399,16.486 9.926,16.358 9.473,16.221 9.021,16.083 8.801,16.014 8.58,15.945 8.359,15.876 8.137,15.796 7.928,15.727 
		7.718,15.658 7.507,15.578 7.307,15.497 7.098,15.428 6.897,15.348 6.698,15.268 6.51,15.187 6.308,15.106 6.119,15.026 
		5.93,14.946 5.752,14.866 5.562,14.773 5.383,14.693 5.205,14.601 5.036,14.52 4.858,14.429 4.69,14.348 4.532,14.256 
		4.364,14.164 4.206,14.084 4.038,13.981 3.89,13.901 3.733,13.797 3.586,13.705 3.437,13.613 3.301,13.521 3.154,13.43 
		3.028,13.337 2.89,13.234 2.755,13.142 2.628,13.039 2.503,12.947 2.387,12.843 2.271,12.74 2.155,12.648 2.039,12.544 
		1.934,12.441 1.831,12.349 1.725,12.246 1.629,12.143 1.535,12.04 1.441,11.936 1.357,11.832 1.272,11.729 1.188,11.625 
		1.104,11.523 1.031,11.408 0.967,11.304 0.894,11.201 0.831,11.098 0.778,10.983 0.714,10.879 0.662,10.776 0.61,10.661 
		0.567,10.557 0.526,10.454 0.484,10.339 0.452,10.235 0.42,10.121 0.388,10.018 0.367,9.903 0.347,9.799 0.326,9.684 0.316,9.569 
		0.304,9.466 0.304,9.351 0.304,9.236 0.304,9.236 0.304,9.236 0.304,9.225 0.294,9.201 0.294,9.179 0.283,9.167 0.283,9.156 
		0.273,9.145 0.263,9.132 0.252,9.122 0.232,9.098 0.21,9.086 0.179,9.076 0.157,9.076 0.126,9.076 0.094,9.086 0.073,9.098 
		0.053,9.122 0.043,9.132 0.031,9.145 0.021,9.156 0.021,9.167 0.01,9.179 0.01,9.201 0,9.225 	"/>
	<polygon fill="#AED7E7" points="24.393,0 24.393,0 23.773,0.012 23.153,0.022 22.532,0.034 21.912,0.058 21.302,0.081 
		20.702,0.115 20.103,0.149 19.505,0.184 18.916,0.241 18.326,0.288 17.748,0.356 17.169,0.414 16.613,0.482 16.046,0.551 
		15.489,0.631 14.941,0.724 14.405,0.805 13.869,0.907 13.343,1 12.817,1.103 12.302,1.207 11.796,1.321 11.303,1.436 10.809,1.563 
		10.336,1.688 9.853,1.814 9.389,1.953 8.937,2.08 8.495,2.229 8.054,2.366 7.844,2.447 7.624,2.516 7.412,2.596 7.213,2.677 
		7.002,2.757 6.803,2.827 6.603,2.907 6.404,2.987 6.202,3.068 6.014,3.148 5.824,3.239 5.636,3.32 5.447,3.4 5.268,3.492 
		5.089,3.584 4.909,3.665 4.731,3.756 4.563,3.836 4.395,3.929 4.227,4.021 4.07,4.113 3.901,4.204 3.742,4.308 3.595,4.4 
		3.437,4.492 3.291,4.583 3.143,4.687 3.007,4.779 2.86,4.882 2.723,4.975 2.586,5.077 2.461,5.181 2.334,5.272 2.209,5.376 
		2.082,5.479 1.966,5.583 1.85,5.687 1.735,5.79 1.629,5.893 1.525,6.008 1.419,6.111 1.325,6.215 1.23,6.33 1.136,6.433 
		1.041,6.548 0.956,6.651 0.872,6.766 0.799,6.869 0.724,6.984 0.651,7.1 0.589,7.214 0.515,7.33 0.463,7.444 0.4,7.559 
		0.347,7.673 0.294,7.789 0.252,7.916 0.21,8.03 0.168,8.145 0.135,8.271 0.105,8.386 0.073,8.512 0.053,8.627 0.043,8.754 
		0.021,8.869 0.01,8.995 0.01,9.122 0,9.236 0.304,9.236 0.304,9.132 0.304,9.018 0.316,8.903 0.326,8.799 0.347,8.685 0.367,8.582 
		0.388,8.467 0.42,8.364 0.452,8.248 0.484,8.145 0.526,8.03 0.567,7.926 0.61,7.812 0.662,7.708 0.714,7.604 0.778,7.501 
		0.831,7.387 0.894,7.284 0.967,7.18 1.031,7.077 1.104,6.961 1.188,6.858 1.272,6.755 1.357,6.651 1.441,6.548 1.535,6.445 
		1.629,6.341 1.725,6.238 1.831,6.135 1.934,6.043 2.039,5.939 2.155,5.836 2.271,5.733 2.387,5.64 2.503,5.537 2.628,5.446 
		2.755,5.341 2.89,5.238 3.028,5.146 3.154,5.054 3.301,4.962 3.437,4.859 3.586,4.768 3.733,4.675 3.89,4.583 4.038,4.492 
		4.206,4.4 4.364,4.308 4.532,4.228 4.69,4.136 4.858,4.043 5.036,3.963 5.205,3.872 5.383,3.791 5.562,3.699 5.752,3.619 
		5.93,3.539 6.119,3.458 6.308,3.377 6.51,3.297 6.698,3.217 6.897,3.136 7.098,3.055 7.307,2.975 7.507,2.907 7.718,2.827 
		7.928,2.757 8.137,2.677 8.58,2.539 9.021,2.39 9.473,2.263 9.926,2.125 10.399,1.999 10.883,1.873 11.366,1.758 11.86,1.643 
		12.365,1.528 12.87,1.424 13.385,1.321 13.91,1.217 14.446,1.125 14.983,1.045 15.53,0.953 16.087,0.884 16.645,0.805 
		17.201,0.736 17.78,0.678 18.359,0.62 18.936,0.563 19.525,0.517 20.114,0.471 20.713,0.437 21.323,0.402 21.923,0.379 
		22.543,0.356 23.153,0.344 23.773,0.333 24.393,0.333 24.393,0.333 24.393,0.333 24.414,0.333 24.436,0.322 24.446,0.322 
		24.468,0.31 24.477,0.31 24.488,0.299 24.498,0.288 24.509,0.275 24.53,0.253 24.541,0.229 24.541,0.195 24.551,0.172 
		24.541,0.138 24.541,0.103 24.53,0.081 24.509,0.058 24.498,0.046 24.488,0.034 24.477,0.022 24.468,0.022 24.446,0.012 
		24.436,0.012 24.414,0 	"/>
	<polygon fill="#AED7E7" points="48.786,9.236 48.786,9.122 48.786,8.995 48.777,8.869 48.755,8.754 48.744,8.627 48.713,8.512 
		48.693,8.386 48.661,8.271 48.63,8.145 48.586,8.03 48.546,7.916 48.503,7.789 48.45,7.673 48.397,7.559 48.335,7.444 48.272,7.33 
		48.209,7.214 48.146,7.1 48.071,6.984 47.998,6.869 47.923,6.766 47.84,6.651 47.757,6.548 47.661,6.433 47.566,6.33 47.473,6.215 
		47.378,6.111 47.272,6.008 47.168,5.893 47.053,5.79 46.947,5.687 46.832,5.583 46.714,5.479 46.589,5.376 46.463,5.272 
		46.337,5.181 46.211,5.077 46.073,4.975 45.937,4.882 45.79,4.779 45.654,4.687 45.507,4.583 45.36,4.492 45.201,4.4 45.054,4.308 
		44.896,4.204 44.729,4.113 44.571,4.021 44.403,3.929 44.234,3.836 44.055,3.756 43.887,3.665 43.708,3.584 43.53,3.492 43.35,3.4 
		43.161,3.32 42.973,3.239 42.783,3.148 42.595,3.068 42.393,2.987 42.194,2.907 41.994,2.827 41.793,2.757 41.583,2.677 
		41.375,2.596 41.165,2.516 40.954,2.447 40.743,2.366 40.302,2.229 39.859,2.08 39.408,1.953 38.936,1.814 38.461,1.688 
		37.988,1.563 37.495,1.436 37.001,1.321 36.496,1.207 35.98,1.103 35.454,1 34.928,0.907 34.392,0.805 33.857,0.724 33.309,0.631 
		32.752,0.551 32.184,0.482 31.617,0.414 31.05,0.356 30.47,0.288 29.882,0.241 29.294,0.184 28.695,0.149 28.094,0.115 
		27.495,0.081 26.885,0.058 26.264,0.034 25.644,0.022 25.025,0.012 24.393,0 24.393,0.333 25.025,0.333 25.644,0.344 26.255,0.356 
		26.875,0.379 27.474,0.402 28.083,0.437 28.683,0.471 29.271,0.517 29.862,0.563 30.438,0.62 31.018,0.678 31.596,0.736 
		32.154,0.805 32.711,0.884 33.268,0.953 33.815,1.045 34.351,1.125 34.877,1.217 35.412,1.321 35.928,1.424 36.432,1.528 
		36.938,1.643 37.431,1.758 37.915,1.873 38.399,1.999 38.872,2.125 39.323,2.263 39.776,2.39 40.217,2.539 40.648,2.677 
		40.871,2.757 41.079,2.827 41.28,2.907 41.49,2.975 41.699,3.055 41.9,3.136 42.099,3.217 42.288,3.297 42.478,3.377 42.679,3.458 
		42.867,3.539 43.046,3.619 43.236,3.699 43.414,3.791 43.593,3.872 43.76,3.963 43.929,4.043 44.109,4.136 44.265,4.228 
		44.434,4.308 44.592,4.4 44.749,4.492 44.907,4.583 45.066,4.675 45.213,4.768 45.36,4.859 45.496,4.962 45.631,5.054 45.77,5.146 
		45.906,5.238 46.043,5.341 46.169,5.446 46.294,5.537 46.41,5.64 46.526,5.733 46.642,5.836 46.758,5.939 46.863,6.043 
		46.968,6.135 47.072,6.238 47.168,6.341 47.263,6.445 47.357,6.548 47.441,6.651 47.526,6.755 47.609,6.858 47.683,6.961 
		47.757,7.077 47.83,7.18 47.893,7.284 47.967,7.387 48.019,7.501 48.083,7.604 48.135,7.708 48.177,7.812 48.229,7.926 
		48.272,8.03 48.314,8.145 48.345,8.248 48.377,8.364 48.409,8.467 48.428,8.582 48.45,8.685 48.46,8.799 48.482,8.903 
		48.482,9.018 48.492,9.132 48.492,9.236 	"/>
	<polygon fill="#151718" points="25.025,7.238 28.599,8.535 37.041,4.848 40.974,5.905 38.904,2.643 28.735,2.643 32.984,3.767 	"/>
	<polygon fill="#151718" points="23.552,10.983 19.978,9.684 11.534,13.361 7.592,12.315 9.662,15.578 19.841,15.578 15.593,14.44 	
		"/>
	<polygon fill="#151718" points="8.454,3.767 12.029,2.481 20.471,6.146 24.414,5.101 22.332,8.364 12.164,8.364 16.413,7.238 	"/>
	<polygon fill="#151718" points="40.458,14.693 36.884,15.98 28.441,12.303 24.498,13.361 26.581,10.085 36.747,10.085 32.5,11.223 
			"/>
	<polygon fill="#FFFFFF" points="25.319,7.559 28.894,8.858 37.336,5.181 41.28,6.226 39.198,2.963 29.031,2.963 33.278,4.101 	"/>
	<polygon fill="#FFFFFF" points="23.847,11.304 20.272,10.006 11.828,13.681 7.886,12.637 9.968,15.899 20.135,15.899 
		15.887,14.762 	"/>
	<polygon fill="#FFFFFF" points="8.748,4.089 12.323,2.803 20.766,6.479 24.708,5.422 22.627,8.685 12.458,8.685 16.707,7.559 	"/>
	<polygon fill="#FFFFFF" points="40.753,15.015 37.179,16.3 28.735,12.637 24.793,13.681 26.875,10.419 37.041,10.419 
		32.795,11.545 	"/>
	<polygon fill="#AED7E7" points="0,9.236 0,9.397 0.304,9.397 0.304,9.236 	"/>
	<polygon fill="#AED7E7" points="0,9.397 0,22.447 0.304,22.447 0.304,9.397 	"/>
	<polygon fill="#AED7E7" points="0,22.447 0,22.608 0.304,22.608 0.304,22.447 	"/>
	<polygon fill="#AED7E7" points="48.492,9.236 48.492,9.397 48.786,9.397 48.786,9.236 	"/>
	<polygon fill="#AED7E7" points="48.492,9.397 48.492,22.447 48.786,22.447 48.786,9.397 	"/>
	<polygon fill="#AED7E7" points="48.492,22.447 48.492,22.608 48.786,22.608 48.786,22.447 	"/>
	<polygon fill="#0C6088" points="33.3,24.791 33.289,25.055 33.247,25.331 33.195,25.596 33.12,25.848 33.016,26.101 32.899,26.353 
		32.762,26.605 32.605,26.835 32.417,27.077 32.226,27.307 32.017,27.525 31.785,27.732 31.533,27.938 31.27,28.146 30.995,28.329 
		30.701,28.513 30.387,28.685 30.072,28.857 29.734,29.018 29.388,29.157 29.031,29.293 28.651,29.42 28.273,29.535 27.884,29.65 
		27.474,29.742 27.064,29.822 26.644,29.891 26.211,29.96 25.782,30.006 25.34,30.029 24.887,30.053 24.436,30.063 23.972,30.053 
		23.531,30.029 23.078,30.006 22.648,29.96 22.217,29.891 21.796,29.822 21.385,29.742 20.976,29.65 20.587,29.535 20.209,29.42 
		19.831,29.293 19.472,29.157 19.127,29.018 18.788,28.857 18.475,28.685 18.158,28.513 17.874,28.329 17.59,28.146 17.327,27.938 
		17.076,27.732 16.844,27.525 16.634,27.307 16.444,27.077 16.265,26.835 16.109,26.605 15.96,26.353 15.844,26.101 15.74,25.848 
		15.666,25.596 15.614,25.331 15.572,25.055 15.561,24.791 15.572,24.515 15.614,24.251 15.666,23.986 15.74,23.723 15.844,23.47 
		15.96,23.216 16.109,22.977 16.265,22.734 16.444,22.504 16.634,22.275 16.844,22.057 17.076,21.838 17.327,21.631 17.59,21.436 
		17.874,21.241 18.158,21.057 18.475,20.885 18.788,20.724 19.127,20.563 19.472,20.414 19.831,20.275 20.209,20.15 20.587,20.036 
		20.976,19.932 21.385,19.84 21.796,19.748 22.217,19.679 22.648,19.622 23.078,19.575 23.531,19.541 23.972,19.519 24.436,19.519 
		24.887,19.519 25.34,19.541 25.782,19.575 26.211,19.622 26.644,19.679 27.064,19.748 27.474,19.84 27.884,19.932 28.273,20.036 
		28.651,20.15 29.031,20.275 29.388,20.414 29.734,20.563 30.072,20.724 30.387,20.885 30.701,21.057 30.995,21.241 31.27,21.436 
		31.533,21.631 31.785,21.838 32.017,22.057 32.226,22.275 32.417,22.504 32.605,22.734 32.762,22.977 32.899,23.216 33.016,23.47 
		33.12,23.723 33.195,23.986 33.247,24.251 33.289,24.515 	"/>
	<polygon fill="#AED7E7" points="24.436,30.225 24.436,30.225 24.656,30.225 24.887,30.213 25.117,30.213 25.35,30.191 
		25.571,30.179 25.792,30.167 26.013,30.132 26.234,30.11 26.454,30.087 26.665,30.053 26.885,30.018 27.095,29.983 27.305,29.937 
		27.505,29.903 27.717,29.857 27.916,29.8 28.116,29.754 28.316,29.696 28.503,29.639 28.695,29.581 28.883,29.513 29.072,29.454 
		29.251,29.385 29.44,29.306 29.619,29.237 29.787,29.167 29.956,29.087 30.134,29.007 30.291,28.916 30.459,28.835 30.617,28.742 
		30.776,28.663 30.924,28.571 31.07,28.467 31.218,28.375 31.354,28.272 31.491,28.18 31.617,28.077 31.754,27.973 31.88,27.858 
		31.995,27.754 32.111,27.64 32.226,27.525 32.332,27.41 32.437,27.295 32.532,27.181 32.627,27.065 32.72,26.939 32.806,26.813 
		32.878,26.687 32.952,26.56 33.025,26.435 33.089,26.308 33.153,26.169 33.204,26.043 33.256,25.905 33.3,25.767 33.331,25.63 
		33.373,25.491 33.394,25.354 33.414,25.215 33.435,25.078 33.447,24.928 33.447,24.791 33.153,24.791 33.141,24.917 33.141,25.044 
		33.12,25.17 33.109,25.296 33.077,25.422 33.047,25.549 33.016,25.675 32.984,25.791 32.93,25.917 32.889,26.043 32.826,26.158 
		32.774,26.273 32.699,26.399 32.636,26.514 32.563,26.629 32.48,26.744 32.394,26.86 32.311,26.962 32.215,27.077 32.122,27.181 
		32.017,27.295 31.911,27.398 31.805,27.503 31.69,27.605 31.575,27.708 31.448,27.812 31.321,27.903 31.185,28.008 31.06,28.099 
		30.912,28.191 30.776,28.284 30.629,28.375 30.482,28.455 30.323,28.546 30.165,28.628 30.009,28.708 29.84,28.789 29.683,28.869 
		29.513,28.938 29.334,29.007 29.156,29.076 28.977,29.145 28.799,29.203 28.619,29.271 28.431,29.329 28.241,29.385 28.043,29.432 
		27.841,29.489 27.652,29.535 27.453,29.581 27.242,29.627 27.043,29.662 26.832,29.696 26.621,29.73 26.413,29.766 26.203,29.788 
		25.992,29.822 25.769,29.834 25.551,29.857 25.329,29.869 25.109,29.88 24.887,29.891 24.656,29.903 24.436,29.903 24.436,29.903 
		24.436,29.903 24.414,29.903 24.393,29.903 24.384,29.903 24.362,29.915 24.351,29.926 24.342,29.926 24.33,29.937 24.319,29.949 
		24.299,29.972 24.289,30.006 24.289,30.029 24.278,30.063 24.289,30.087 24.289,30.122 24.299,30.145 24.319,30.167 24.33,30.179 
		24.342,30.191 24.351,30.201 24.362,30.213 24.384,30.213 24.393,30.213 24.414,30.225 	"/>
	<polygon fill="#AED7E7" points="15.414,24.791 15.414,24.791 15.425,24.928 15.435,25.078 15.446,25.215 15.466,25.354 
		15.489,25.491 15.53,25.63 15.561,25.767 15.604,25.905 15.655,26.043 15.708,26.169 15.771,26.308 15.834,26.435 15.907,26.56 
		15.983,26.687 16.065,26.813 16.139,26.939 16.234,27.065 16.328,27.181 16.423,27.295 16.529,27.41 16.634,27.525 16.749,27.64 
		16.865,27.754 16.991,27.858 17.107,27.973 17.244,28.077 17.37,28.18 17.507,28.272 17.654,28.375 17.79,28.467 17.937,28.571 
		18.095,28.663 18.253,28.742 18.41,28.835 18.569,28.916 18.736,29.007 18.905,29.087 19.073,29.167 19.241,29.237 19.421,29.306 
		19.61,29.385 19.788,29.454 19.978,29.513 20.167,29.581 20.356,29.639 20.545,29.696 20.745,29.754 20.945,29.8 21.156,29.857 
		21.355,29.903 21.565,29.937 21.765,29.983 21.985,30.018 22.196,30.053 22.406,30.087 22.627,30.11 22.848,30.132 23.069,30.167 
		23.29,30.179 23.521,30.191 23.741,30.213 23.972,30.213 24.204,30.225 24.436,30.225 24.436,29.903 24.204,29.903 23.972,29.891 
		23.751,29.88 23.531,29.869 23.31,29.857 23.09,29.834 22.88,29.822 22.658,29.788 22.448,29.766 22.238,29.73 22.027,29.696 
		21.817,29.662 21.617,29.627 21.418,29.581 21.207,29.535 21.017,29.489 20.818,29.432 20.63,29.385 20.429,29.329 20.251,29.271 
		20.061,29.203 19.883,29.145 19.703,29.076 19.525,29.007 19.358,28.938 19.188,28.869 19.021,28.789 18.851,28.708 18.695,28.628 
		18.537,28.546 18.378,28.455 18.231,28.375 18.085,28.284 17.948,28.191 17.801,28.099 17.675,28.008 17.538,27.903 17.411,27.812 
		17.285,27.708 17.169,27.605 17.054,27.503 16.949,27.398 16.844,27.295 16.739,27.181 16.645,27.077 16.55,26.962 16.466,26.86 
		16.381,26.744 16.297,26.629 16.224,26.514 16.161,26.399 16.098,26.273 16.034,26.158 15.983,26.043 15.93,25.917 15.887,25.791 
		15.844,25.675 15.814,25.549 15.782,25.422 15.761,25.296 15.74,25.17 15.719,25.044 15.719,24.917 15.719,24.791 15.719,24.791 
		15.719,24.791 15.708,24.768 15.708,24.745 15.708,24.733 15.697,24.722 15.697,24.699 15.688,24.688 15.677,24.676 15.666,24.665 
		15.645,24.653 15.624,24.641 15.593,24.63 15.561,24.63 15.54,24.63 15.508,24.641 15.489,24.653 15.466,24.665 15.457,24.676 
		15.446,24.688 15.435,24.699 15.435,24.722 15.425,24.733 15.425,24.745 15.414,24.768 	"/>
	<polygon fill="#AED7E7" points="24.436,19.357 24.436,19.357 24.204,19.357 23.972,19.357 23.741,19.369 23.521,19.38 
		23.29,19.403 23.069,19.415 22.848,19.438 22.627,19.46 22.406,19.495 22.196,19.519 21.985,19.553 21.765,19.598 21.565,19.633 
		21.355,19.679 21.156,19.725 20.945,19.771 20.745,19.828 20.545,19.875 20.356,19.944 20.167,20 19.978,20.058 19.788,20.126 
		19.61,20.196 19.421,20.265 19.241,20.333 19.073,20.414 18.905,20.494 18.736,20.575 18.569,20.656 18.41,20.748 18.253,20.827 
		18.095,20.919 17.937,21.012 17.79,21.104 17.654,21.207 17.507,21.299 17.37,21.401 17.244,21.505 17.107,21.609 16.991,21.712 
		16.865,21.826 16.749,21.931 16.634,22.045 16.529,22.16 16.423,22.275 16.328,22.401 16.234,22.516 16.139,22.643 16.065,22.758 
		15.983,22.884 15.907,23.01 15.834,23.137 15.771,23.275 15.708,23.402 15.655,23.539 15.604,23.665 15.561,23.803 15.53,23.94 
		15.489,24.079 15.466,24.216 15.446,24.354 15.435,24.503 15.425,24.641 15.414,24.791 15.719,24.791 15.719,24.665 15.719,24.538 
		15.74,24.401 15.761,24.274 15.782,24.148 15.814,24.033 15.844,23.907 15.887,23.78 15.93,23.665 15.983,23.539 16.034,23.423 
		16.098,23.297 16.161,23.182 16.224,23.068 16.297,22.953 16.381,22.838 16.466,22.723 16.55,22.608 16.645,22.504 16.739,22.39 
		16.844,22.287 16.949,22.172 17.054,22.068 17.169,21.964 17.285,21.861 17.411,21.77 17.538,21.666 17.675,21.574 17.801,21.47 
		17.948,21.379 18.085,21.299 18.231,21.207 18.378,21.114 18.537,21.034 18.695,20.954 18.851,20.874 19.021,20.793 19.188,20.713 
		19.358,20.644 19.525,20.563 19.703,20.494 19.883,20.437 20.061,20.368 20.251,20.311 20.429,20.253 20.63,20.196 20.818,20.139 
		21.017,20.092 21.207,20.036 21.418,20 21.617,19.954 21.817,19.909 22.027,19.875 22.238,19.84 22.448,19.816 22.658,19.782 
		22.88,19.758 23.09,19.737 23.31,19.713 23.531,19.702 23.751,19.689 23.972,19.689 24.204,19.679 24.436,19.679 24.436,19.679 
		24.436,19.679 24.446,19.679 24.468,19.679 24.477,19.667 24.498,19.667 24.509,19.656 24.52,19.644 24.53,19.633 24.541,19.633 
		24.561,19.598 24.572,19.575 24.572,19.541 24.583,19.519 24.572,19.483 24.572,19.46 24.561,19.426 24.541,19.403 24.53,19.392 
		24.52,19.38 24.509,19.38 24.498,19.369 24.477,19.357 24.468,19.357 24.446,19.357 	"/>
	<polygon fill="#AED7E7" points="33.447,24.791 33.447,24.641 33.435,24.503 33.414,24.354 33.394,24.216 33.373,24.079 
		33.331,23.94 33.3,23.803 33.256,23.665 33.204,23.539 33.153,23.402 33.089,23.275 33.025,23.137 32.952,23.01 32.878,22.884 
		32.806,22.758 32.72,22.643 32.627,22.516 32.532,22.401 32.437,22.275 32.332,22.16 32.226,22.045 32.111,21.931 31.995,21.826 
		31.88,21.712 31.754,21.609 31.617,21.505 31.491,21.401 31.354,21.299 31.218,21.207 31.07,21.104 30.924,21.012 30.776,20.919 
		30.617,20.827 30.459,20.748 30.291,20.656 30.134,20.575 29.956,20.494 29.787,20.414 29.619,20.333 29.44,20.265 29.251,20.196 
		29.072,20.126 28.883,20.058 28.695,20 28.503,19.944 28.316,19.875 28.116,19.828 27.916,19.771 27.717,19.725 27.505,19.679 
		27.305,19.633 27.095,19.598 26.885,19.553 26.665,19.519 26.454,19.495 26.234,19.46 26.013,19.438 25.792,19.415 25.571,19.403 
		25.35,19.38 25.117,19.369 24.887,19.357 24.656,19.357 24.436,19.357 24.436,19.679 24.656,19.679 24.887,19.689 25.109,19.689 
		25.329,19.702 25.551,19.713 25.769,19.737 25.992,19.758 26.203,19.782 26.413,19.816 26.621,19.84 26.832,19.875 27.043,19.909 
		27.242,19.954 27.453,20 27.652,20.036 27.841,20.092 28.043,20.139 28.241,20.196 28.431,20.253 28.619,20.311 28.799,20.368 
		28.977,20.437 29.156,20.494 29.334,20.563 29.513,20.644 29.683,20.713 29.84,20.793 30.009,20.874 30.165,20.954 30.323,21.034 
		30.482,21.114 30.629,21.207 30.776,21.299 30.912,21.379 31.06,21.47 31.185,21.574 31.321,21.666 31.448,21.77 31.575,21.861 
		31.69,21.964 31.805,22.068 31.911,22.172 32.017,22.287 32.122,22.39 32.215,22.504 32.311,22.608 32.394,22.723 32.48,22.838 
		32.563,22.953 32.636,23.068 32.699,23.182 32.774,23.297 32.826,23.423 32.889,23.539 32.93,23.665 32.984,23.78 33.016,23.907 
		33.047,24.033 33.077,24.148 33.109,24.274 33.12,24.401 33.141,24.538 33.141,24.665 33.153,24.791 	"/>
	<polygon fill="#151718" points="19.808,26.261 23.078,22.677 22.217,21.735 24.814,21.735 24.814,24.688 23.952,23.733 
		20.766,27.215 	"/>
	<polygon fill="#151718" points="23.658,28.168 26.938,24.572 26.064,23.63 28.674,23.63 28.674,26.583 27.8,25.63 24.624,29.11 	
		"/>
	<polygon fill="#FFFFFF" points="19.61,26.055 22.89,22.47 22.027,21.517 24.624,21.517 24.624,24.47 23.763,23.527 20.576,26.996 	
		"/>
	<polygon fill="#FFFFFF" points="23.468,27.95 26.739,24.366 25.876,23.423 28.472,23.423 28.472,26.376 27.611,25.422 
		24.436,28.904 	"/>
</g>
</svg>
