<?xml version="1.0" encoding="utf-8"?>
<!DOCTYPE svg PUBLIC "-//W3C//DTD SVG 1.1//EN" "http://www.w3.org/Graphics/SVG/1.1/DTD/svg11.dtd">
<svg version="1.1" xmlns="http://www.w3.org/2000/svg" xmlns:xlink="http://www.w3.org/1999/xlink" width="38" height="46" viewBox="0 0 38 46">
<g>
	<polygon fill="#0D96D4" points="0,3.809 0,44.424 33.984,44.424 33.984,3.809 	"/>
	<polygon fill="#0D96D4" points="0,3.809 0,44.424 33.984,44.424 33.984,3.809 	"/>
	
		<rect x="0" y="3.809" fill="none" stroke="#AEE2FA" stroke-width="0.3284" stroke-linecap="round" stroke-miterlimit="10" width="33.984" height="40.614"/>
	<polygon fill="#45AFE3" points="0,3.809 4.333,0 38.306,0 33.984,3.809 	"/>
	<polygon fill="#45AFE3" points="0,3.809 4.333,0 38.306,0 33.984,3.809 	"/>
	<polygon fill="none" stroke="#AEE2FA" stroke-width="0.3284" stroke-linecap="round" stroke-miterlimit="10" points="0,3.809 
		4.333,0 38.306,0 33.984,3.809 	"/>
	<polygon fill="#015B80" points="33.984,3.809 38.306,0 38.306,40.336 33.984,44.135 	"/>
	<polygon fill="#015B80" points="33.984,3.809 38.306,0 38.306,40.336 33.984,44.135 	"/>
	<polygon fill="none" stroke="#AEE2FA" stroke-width="0.3284" stroke-linecap="round" stroke-miterlimit="10" points="33.984,3.809 
		38.306,0 38.306,40.336 33.984,44.135 	"/>
	<polygon fill="#010101" points="6.494,39.167 6.494,9.647 4.948,9.647 7.722,7.307 10.202,9.647 8.963,9.647 8.963,39.167 
		10.202,39.167 7.722,41.505 4.948,39.167 	"/>
	<polygon fill="#010101" points="6.494,39.167 6.494,9.647 4.948,9.647 7.722,7.307 10.202,9.647 8.963,9.647 8.963,39.167 
		10.202,39.167 7.722,41.505 4.948,39.167 	"/>
	<polygon fill="#010101" points="15.764,39.167 15.764,9.647 14.216,9.647 16.991,7.307 19.471,9.647 18.231,9.647 18.231,39.167 
		19.471,39.167 16.991,41.505 14.216,39.167 	"/>
	<polygon fill="#010101" points="15.764,39.167 15.764,9.647 14.216,9.647 16.991,7.307 19.471,9.647 18.231,9.647 18.231,39.167 
		19.471,39.167 16.991,41.505 14.216,39.167 	"/>
	<polygon fill="#010101" points="25.022,39.167 25.022,9.647 23.487,9.647 26.26,7.307 28.729,9.647 27.501,9.647 27.501,39.167 
		28.729,39.167 26.26,41.505 23.487,39.167 	"/>
	<polygon fill="#010101" points="25.022,39.167 25.022,9.647 23.487,9.647 26.26,7.307 28.729,9.647 27.501,9.647 27.501,39.167 
		28.729,39.167 26.26,41.505 23.487,39.167 	"/>
	<polygon fill="#FFFFFF" points="6.802,39.456 6.802,9.936 5.254,9.936 8.04,7.607 10.509,9.936 9.269,9.936 9.269,39.456 
		10.509,39.456 8.04,41.794 5.254,39.456 	"/>
	<polygon fill="#FFFFFF" points="6.802,39.456 6.802,9.936 5.254,9.936 8.04,7.607 10.509,9.936 9.269,9.936 9.269,39.456 
		10.509,39.456 8.04,41.794 5.254,39.456 	"/>
	<polygon fill="#FFFFFF" points="16.07,39.456 16.07,9.936 14.524,9.936 17.299,7.607 19.778,9.936 18.537,9.936 18.537,39.456 
		19.778,39.456 17.299,41.794 14.524,39.456 	"/>
	<polygon fill="#FFFFFF" points="16.07,39.456 16.07,9.936 14.524,9.936 17.299,7.607 19.778,9.936 18.537,9.936 18.537,39.456 
		19.778,39.456 17.299,41.794 14.524,39.456 	"/>
	<polygon fill="#FFFFFF" points="25.339,39.456 25.339,9.936 23.793,9.936 26.567,7.607 29.047,9.936 27.808,9.936 27.808,39.456 
		29.047,39.456 26.567,41.794 23.793,39.456 	"/>
	<polygon fill="#FFFFFF" points="25.339,39.456 25.339,9.936 23.793,9.936 26.567,7.607 29.047,9.936 27.808,9.936 27.808,39.456 
		29.047,39.456 26.567,41.794 23.793,39.456 	"/>
</g>
</svg>
