<?xml version="1.0" encoding="iso-8859-1"?>
<!DOCTYPE svg PUBLIC "-//W3C//DTD SVG 1.1//EN" "http://www.w3.org/Graphics/SVG/1.1/DTD/svg11.dtd">
<svg version="1.1" xmlns="http://www.w3.org/2000/svg" xmlns:xlink="http://www.w3.org/1999/xlink" width="40" height="42" viewBox="0 0 40 42">
<g>
	<path style="fill-rule:evenodd;clip-rule:evenodd;fill:#0978AA;" d="M39.258,35.399L39.258,35.399
		c0,3.711-8.799,6.694-19.573,6.694c-10.83,0-19.629-2.983-19.629-6.694c0-3.712,8.799-6.694,19.629-6.694
		C30.459,28.705,39.258,31.688,39.258,35.399"/>
	<path style="fill:none;stroke:#AEE2FA;stroke-width:0.2355;stroke-linejoin:round;stroke-miterlimit:10;" d="M39.258,35.399
		L39.258,35.399c0,3.711-8.799,6.694-19.573,6.694c-10.83,0-19.629-2.983-19.629-6.694c0-3.712,8.799-6.694,19.629-6.694
		C30.459,28.705,39.258,31.688,39.258,35.399"/>
	<polygon style="fill-rule:evenodd;clip-rule:evenodd;fill:#0978AA;" points="0,6.874 0,35.579 39.258,35.579 39.258,6.874 0,6.874 
			"/>
	<path style="fill-rule:evenodd;clip-rule:evenodd;fill:#45AFE3;" d="M39.258,6.694L39.258,6.694c0,3.711-8.799,6.694-19.573,6.694
		c-10.83,0-19.629-2.983-19.629-6.694S8.855,0,19.685,0C30.459,0,39.258,2.982,39.258,6.694"/>
	<path style="fill:none;stroke:#AEE2FA;stroke-width:0.2355;stroke-linejoin:round;stroke-miterlimit:10;" d="M39.258,6.694
		L39.258,6.694c0,3.711-8.799,6.694-19.573,6.694c-10.83,0-19.629-2.983-19.629-6.694S8.855,0,19.685,0
		C30.459,0,39.258,2.982,39.258,6.694"/>
	<polygon style="fill-rule:evenodd;clip-rule:evenodd;fill:#010101;" points="20.168,5.203 23.042,6.156 29.864,3.465 33.042,4.238 
		31.358,1.794 23.165,1.794 26.577,2.624 20.168,5.203 	"/>
	<polygon style="fill-rule:evenodd;clip-rule:evenodd;fill:#010101;" points="18.967,7.95 16.094,6.997 9.27,9.744 6.038,8.97 
		7.777,11.358 15.981,11.358 12.502,10.518 18.967,7.95 	"/>
	<polygon style="fill-rule:evenodd;clip-rule:evenodd;fill:#010101;" points="6.756,2.624 9.629,1.67 16.453,4.417 19.685,3.644 
		18.013,6.032 9.753,6.032 13.221,5.203 6.756,2.624 	"/>
	<polygon style="fill-rule:evenodd;clip-rule:evenodd;fill:#010101;" points="32.614,10.697 29.741,11.661 22.918,8.97 
		19.752,9.744 21.424,7.288 29.629,7.288 26.217,8.129 32.614,10.697 	"/>
	<polygon style="fill-rule:evenodd;clip-rule:evenodd;fill:#FFFFFF;" points="20.403,5.438 23.276,6.391 30.1,3.7 33.276,4.485 
		31.604,2.029 23.401,2.029 26.811,2.87 20.403,5.438 	"/>
	<polygon style="fill-rule:evenodd;clip-rule:evenodd;fill:#FFFFFF;" points="19.214,8.185 16.341,7.232 9.517,9.979 6.285,9.206 
		8.013,11.594 16.217,11.594 12.75,10.764 19.214,8.185 	"/>
	<polygon style="fill-rule:evenodd;clip-rule:evenodd;fill:#FFFFFF;" points="7.003,2.87 9.876,1.906 16.7,4.665 19.932,3.879 
		18.249,6.279 9.988,6.279 13.468,5.438 7.003,2.87 	"/>
	<polygon style="fill-rule:evenodd;clip-rule:evenodd;fill:#FFFFFF;" points="32.862,10.944 29.989,11.897 23.165,9.206 
		19.988,9.979 21.661,7.535 29.864,7.535 26.454,8.365 32.862,10.944 	"/>
	
		<line style="fill:none;stroke:#AEE2FA;stroke-width:0.2355;stroke-linecap:square;stroke-linejoin:bevel;stroke-miterlimit:10;" x1="0.056" y1="6.817" x2="0.056" y2="35.455"/>
	
		<line style="fill:none;stroke:#AEE2FA;stroke-width:0.2355;stroke-linecap:square;stroke-linejoin:bevel;stroke-miterlimit:10;" x1="39.258" y1="6.817" x2="39.258" y2="35.455"/>
	<polygon style="fill-rule:evenodd;clip-rule:evenodd;fill:#010101;" points="8.855,14.409 8.855,17.335 15.735,17.335 19.45,24.04 
		23.221,17.402 30.168,17.402 30.168,14.409 34.59,18.176 30.168,21.888 30.168,19.376 25.252,19.376 21.01,26.664 25.252,33.964 
		30.168,33.964 30.168,31.217 34.59,34.984 30.168,38.752 30.168,35.993 23.221,35.993 19.45,29.176 15.735,35.993 8.855,35.993 
		8.855,38.629 4.422,34.984 8.855,31.217 8.855,33.964 13.703,33.964 17.957,26.608 13.703,19.376 8.855,19.376 8.855,21.82 
		4.422,18.12 8.855,14.409 	"/>
	<polygon style="fill-rule:evenodd;clip-rule:evenodd;fill:#FFFFFF;" points="9.091,14.644 9.091,17.582 15.981,17.582 
		19.685,24.276 23.456,17.638 30.403,17.638 30.403,14.644 34.836,18.412 30.403,22.123 30.403,19.611 25.499,19.611 21.245,26.911 
		25.499,34.199 30.403,34.199 30.403,31.452 34.836,35.22 30.403,38.987 30.403,36.24 23.456,36.24 19.685,29.423 15.981,36.24 
		9.091,36.24 9.091,38.864 4.668,35.22 9.091,31.452 9.091,34.199 13.939,34.199 18.192,26.844 13.939,19.611 9.091,19.611 
		9.091,22.067 4.668,18.355 9.091,14.644 	"/>
</g>
</svg>