<?xml version="1.0" encoding="iso-8859-1"?>
<!DOCTYPE svg PUBLIC "-//W3C//DTD SVG 1.1//EN" "http://www.w3.org/Graphics/SVG/1.1/DTD/svg11.dtd">
<svg version="1.1" xmlns="http://www.w3.org/2000/svg" xmlns:xlink="http://www.w3.org/1999/xlink" width="41" height="40" viewBox="0 0 41 40">
<g>
	<polygon style="fill:#45AFE3;" points="34.814,3.436 0,3.436 4.291,0.112 39.105,0.112 	"/>
	<polygon style="fill:none;stroke:#AEE2FA;stroke-width:0.2454;stroke-linecap:square;stroke-miterlimit:1;" points="34.814,3.436 
		0,3.436 4.291,0.112 39.105,0.112 	"/>
	<polygon style="fill:#015B80;" points="39.105,34.736 34.814,38.061 34.814,3.324 39.105,0 	"/>
	<polygon style="fill:none;stroke:#AEE2FA;stroke-width:0.2454;stroke-linecap:square;stroke-miterlimit:1;" points="39.105,34.736 
		34.814,38.061 34.814,3.324 39.105,0 	"/>
	<polygon style="fill-rule:evenodd;clip-rule:evenodd;fill:#0D96D4;" points="0,3.324 0,38.061 34.814,38.061 34.814,3.324 0,3.324 
			"/>
	
		<rect y="3.324" style="fill:none;stroke:#AEE2FA;stroke-width:0.2454;stroke-linecap:square;stroke-miterlimit:1;" width="34.814" height="34.736"/>
	<path style="fill:#010101;" d="M17.519,19.989c0,0.112-0.111,0.224-0.223,0.224c-4.894,0-4.894,0-4.894,0
		c-0.112,0-0.246-0.111-0.246-0.224c0-4.885,0-4.885,0-4.885c0-0.112,0.134-0.246,0.246-0.246c4.894,0,4.894,0,4.894,0
		c0.112,0,0.223,0.134,0.223,0.246"/>
	<path style="fill:#010101;" d="M23.843,19.989c0,0,0,0.112-0.113,0.112c-3.575,0-3.575,0-3.575,0c-0.134,0-0.134-0.112-0.134-0.112
		c0-3.569,0-3.569,0-3.569c0-0.134,0-0.245,0.134-0.245c3.575,0,3.575,0,3.575,0c0.113,0,0.113,0.111,0.113,0.245"/>
	<path style="fill:#010101;" d="M16.334,25.567c0,0.134-0.112,0.245-0.246,0.245c-3.576,0-3.576,0-3.576,0s-0.111-0.111-0.111-0.245
		c0-3.57,0-3.57,0-3.57l0.111-0.111c3.576,0,3.576,0,3.576,0c0.134,0,0.246,0.111,0.246,0.111"/>
	<path style="fill:#010101;" d="M23.373,26.526c0,0.111,0,0.245-0.133,0.245c-4.403,0-4.403,0-4.403,0
		c-0.111,0-0.246-0.134-0.246-0.245c0-4.395,0-4.395,0-4.395c0-0.135,0.134-0.135,0.246-0.135c4.403,0,4.403,0,4.403,0
		c0.133,0,0.133,0,0.133,0.135"/>
	<polygon style="fill:#010101;" points="13.362,9.504 6.569,9.504 6.569,24.741 9.653,24.741 9.653,12.717 13.362,12.717 	"/>
	<polygon style="fill:#010101;" points="17.876,9.504 17.876,12.717 26.345,12.717 26.345,21.886 29.562,21.886 29.562,9.504 	"/>
	<polygon style="fill:#010101;" points="26.345,26.415 26.345,29.382 6.569,29.382 6.569,32.483 29.562,32.483 29.562,26.415 	"/>
	<path style="fill:#FFFFFF;" d="M17.049,19.499c0,0.134-0.112,0.245-0.246,0.245c-4.871,0-4.871,0-4.871,0
		c-0.134,0-0.246-0.111-0.246-0.245c0-4.864,0-4.864,0-4.864c0-0.134,0.112-0.246,0.246-0.246c4.871,0,4.871,0,4.871,0
		c0.134,0,0.246,0.112,0.246,0.246"/>
	<path style="fill:#FFFFFF;" d="M23.373,19.499c0,0,0,0.134-0.133,0.134c-3.576,0-3.576,0-3.576,0c-0.112,0-0.112-0.134-0.112-0.134
		c0-3.57,0-3.57,0-3.57c0-0.111,0-0.223,0.112-0.223c3.576,0,3.576,0,3.576,0c0.133,0,0.133,0.112,0.133,0.223"/>
	<path style="fill:#FFFFFF;" d="M15.865,25.099c0,0.111-0.134,0.245-0.246,0.245c-3.575,0-3.575,0-3.575,0s-0.111-0.134-0.111-0.245
		c0-3.569,0-3.569,0-3.569l0.111-0.112c3.575,0,3.575,0,3.575,0c0.112,0,0.246,0.112,0.246,0.112"/>
	<path style="fill:#FFFFFF;" d="M22.882,26.058c0,0.111,0,0.224-0.113,0.224c-4.401,0-4.401,0-4.401,0
		c-0.134,0-0.246-0.112-0.246-0.224c0-4.417,0-4.417,0-4.417c0-0.111,0.112-0.111,0.246-0.111c4.401,0,4.401,0,4.401,0
		c0.113,0,0.113,0,0.113,0.111"/>
	<path style="fill:#010101;" d="M21.093,23.425c0,0.246-0.111,0.357-0.223,0.357c-5.363,0-5.363,0-5.363,0
		c-0.246,0-0.358-0.111-0.358-0.357c0-5.354,0-5.354,0-5.354c0-0.111,0.112-0.223,0.358-0.223c5.363,0,5.363,0,5.363,0
		c0.111,0,0.223,0.112,0.223,0.223"/>
	<path style="fill:#FFFFFF;" d="M20.625,22.957c0,0.245-0.112,0.356-0.246,0.356c-5.363,0-5.363,0-5.363,0
		c-0.224,0-0.357-0.111-0.357-0.356c0-5.354,0-5.354,0-5.354c0-0.112,0.134-0.246,0.357-0.246c5.363,0,5.363,0,5.363,0
		c0.134,0,0.246,0.134,0.246,0.246"/>
	<path style="fill:none;stroke:#010101;stroke-width:0.2454;stroke-miterlimit:1;" d="M20.625,22.957
		c0,0.245-0.112,0.356-0.246,0.356c-5.363,0-5.363,0-5.363,0c-0.224,0-0.357-0.111-0.357-0.356c0-5.354,0-5.354,0-5.354
		c0-0.112,0.134-0.246,0.357-0.246c5.363,0,5.363,0,5.363,0c0.134,0,0.246,0.134,0.246,0.246V22.957z"/>
	<polygon style="fill:#FFFFFF;" points="12.871,9.036 6.078,9.036 6.078,24.273 9.184,24.273 9.184,12.248 12.871,12.248 	"/>
	<polygon style="fill:#FFFFFF;" points="17.407,9.036 17.407,12.248 25.876,12.248 25.876,21.417 29.093,21.417 29.093,9.036 	"/>
	<polygon style="fill:#FFFFFF;" points="25.876,25.924 25.876,28.913 6.078,28.913 6.078,31.992 29.093,31.992 29.093,25.924 	"/>
</g>
</svg>
