<?xml version="1.0" encoding="utf-8"?>
<!DOCTYPE svg PUBLIC "-//W3C//DTD SVG 1.1//EN" "http://www.w3.org/Graphics/SVG/1.1/DTD/svg11.dtd">
<svg version="1.1" xmlns="http://www.w3.org/2000/svg" xmlns:xlink="http://www.w3.org/1999/xlink" width="20" height="46" viewBox="0 0 20 46">
<g>
	<polygon fill="#003D55" points="11.368,7.886 19.405,0 19.405,37.309 11.368,45.196 	"/>
	<polygon fill="#003D55" points="11.562,8.078 19.598,0.197 19.598,37.5 11.562,45.386 	"/>
	<polygon fill="none" stroke="#ABABAB" stroke-width="0.7479" stroke-linecap="round" stroke-miterlimit="10" points="11.562,8.078 
		19.598,0.197 19.598,37.5 11.562,45.386 	"/>
	<g>
		<g>
			<g>
				<defs>
					<rect id="SVGID_1_" x="11.437" y="6.429" width="8.438" height="8.282"/>
				</defs>
				<clipPath id="SVGID_2_">
					<use xlink:href="#SVGID_1_"  overflow="visible"/>
				</clipPath>
				
					<line clip-path="url(#SVGID_2_)" fill="none" stroke="#ABABAB" stroke-width="0.9943" stroke-linecap="round" stroke-miterlimit="10" x1="3.533" y1="22.313" x2="27.636" y2="-1.341"/>
			</g>
		</g>
	</g>
	<g>
		<g>
			<g>
				<defs>
					<rect id="SVGID_3_" x="11.437" y="12.314" width="8.438" height="8.281"/>
				</defs>
				<clipPath id="SVGID_4_">
					<use xlink:href="#SVGID_3_"  overflow="visible"/>
				</clipPath>
				
					<line clip-path="url(#SVGID_4_)" fill="none" stroke="#ABABAB" stroke-width="0.9943" stroke-linecap="round" stroke-miterlimit="10" x1="3.533" y1="28.271" x2="27.636" y2="4.618"/>
			</g>
		</g>
	</g>
	<g>
		<g>
			<g>
				<defs>
					<rect id="SVGID_5_" x="11.437" y="18.307" width="8.438" height="8.282"/>
				</defs>
				<clipPath id="SVGID_6_">
					<use xlink:href="#SVGID_5_"  overflow="visible"/>
				</clipPath>
				
					<line clip-path="url(#SVGID_6_)" fill="none" stroke="#ABABAB" stroke-width="0.9943" stroke-linecap="round" stroke-miterlimit="10" x1="3.533" y1="34.231" x2="27.636" y2="10.578"/>
			</g>
		</g>
	</g>
	<g>
		<g>
			<g>
				<defs>
					<rect id="SVGID_7_" x="11.437" y="24.3" width="8.438" height="8.282"/>
				</defs>
				<clipPath id="SVGID_8_">
					<use xlink:href="#SVGID_7_"  overflow="visible"/>
				</clipPath>
				
					<line clip-path="url(#SVGID_8_)" fill="none" stroke="#ABABAB" stroke-width="0.9943" stroke-linecap="round" stroke-miterlimit="10" x1="3.533" y1="40.197" x2="27.636" y2="16.543"/>
			</g>
		</g>
	</g>
	<g>
		<g>
			<g>
				<defs>
					<rect id="SVGID_9_" x="11.437" y="31.057" width="8.438" height="8.173"/>
				</defs>
				<clipPath id="SVGID_10_">
					<use xlink:href="#SVGID_9_"  overflow="visible"/>
				</clipPath>
				
					<line clip-path="url(#SVGID_10_)" fill="none" stroke="#ABABAB" stroke-width="0.9943" stroke-linecap="round" stroke-miterlimit="10" x1="3.533" y1="46.925" x2="27.636" y2="23.271"/>
			</g>
		</g>
	</g>
	<g>
		<g>
			<g>
				<defs>
					<rect id="SVGID_11_" x="13.991" y="5.667" width="0.776" height="6.319"/>
				</defs>
				<clipPath id="SVGID_12_">
					<use xlink:href="#SVGID_11_"  overflow="visible"/>
				</clipPath>
				
					<line clip-path="url(#SVGID_12_)" fill="none" stroke="#ABABAB" stroke-width="0.7479" stroke-linecap="round" stroke-miterlimit="10" x1="14.311" y1="-0.191" x2="14.311" y2="17.694"/>
			</g>
		</g>
	</g>
	<g>
		<g>
			<g>
				<defs>
					<rect id="SVGID_13_" x="16.101" y="9.48" width="0.777" height="6.321"/>
				</defs>
				<clipPath id="SVGID_14_">
					<use xlink:href="#SVGID_13_"  overflow="visible"/>
				</clipPath>
				
					<line clip-path="url(#SVGID_14_)" fill="none" stroke="#ABABAB" stroke-width="0.7479" stroke-linecap="round" stroke-miterlimit="10" x1="16.462" y1="3.657" x2="16.462" y2="21.542"/>
			</g>
		</g>
	</g>
	<g>
		<g>
			<g>
				<defs>
					<rect id="SVGID_15_" x="14.213" y="17.763" width="0.777" height="5.774"/>
				</defs>
				<clipPath id="SVGID_16_">
					<use xlink:href="#SVGID_15_"  overflow="visible"/>
				</clipPath>
				
					<line clip-path="url(#SVGID_16_)" fill="none" stroke="#ABABAB" stroke-width="0.7479" stroke-linecap="round" stroke-miterlimit="10" x1="14.505" y1="12.505" x2="14.505" y2="28.659"/>
			</g>
		</g>
	</g>
	<g>
		<g>
			<g>
				<defs>
					<rect id="SVGID_17_" x="16.324" y="21.794" width="0.777" height="5.558"/>
				</defs>
				<clipPath id="SVGID_18_">
					<use xlink:href="#SVGID_17_"  overflow="visible"/>
				</clipPath>
				
					<line clip-path="url(#SVGID_18_)" fill="none" stroke="#ABABAB" stroke-width="0.7479" stroke-linecap="round" stroke-miterlimit="10" x1="16.656" y1="16.734" x2="16.656" y2="32.309"/>
			</g>
		</g>
	</g>
	<g>
		<g>
			<g>
				<defs>
					<rect id="SVGID_19_" x="14.324" y="29.64" width="0.778" height="6.321"/>
				</defs>
				<clipPath id="SVGID_20_">
					<use xlink:href="#SVGID_19_"  overflow="visible"/>
				</clipPath>
				
					<line clip-path="url(#SVGID_20_)" fill="none" stroke="#ABABAB" stroke-width="0.7479" stroke-linecap="round" stroke-miterlimit="10" x1="14.7" y1="23.851" x2="14.7" y2="41.735"/>
			</g>
		</g>
	</g>
	<g>
		<g>
			<g>
				<defs>
					<rect id="SVGID_21_" x="16.545" y="33.671" width="0.776" height="6.431"/>
				</defs>
				<clipPath id="SVGID_22_">
					<use xlink:href="#SVGID_21_"  overflow="visible"/>
				</clipPath>
				
					<line clip-path="url(#SVGID_22_)" fill="none" stroke="#ABABAB" stroke-width="0.7479" stroke-linecap="round" stroke-miterlimit="10" x1="16.857" y1="27.89" x2="16.857" y2="45.769"/>
			</g>
		</g>
	</g>
	<polygon fill="#0D96D4" points="0,7.886 0,14.043 11.368,14.043 11.368,7.886 	"/>
	<polygon fill="#0D96D4" points="0.201,8.078 0.201,14.235 11.562,14.235 11.562,8.078 	"/>
	
		<rect x="0.201" y="8.078" fill="none" stroke="#C8C7C7" stroke-width="0.7479" stroke-linecap="round" stroke-miterlimit="10" width="11.361" height="6.156"/>
	<polygon fill="#0D96D4" points="0,14.043 0,20.194 11.368,20.194 11.368,14.043 	"/>
	<polygon fill="#0D96D4" points="0.201,14.235 0.201,20.384 11.562,20.384 11.562,14.235 	"/>
	
		<rect x="0.201" y="14.235" fill="none" stroke="#C8C7C7" stroke-width="0.7479" stroke-linecap="round" stroke-miterlimit="10" width="11.361" height="6.15"/>
	<polygon fill="#0D96D4" points="0,20.194 0,26.35 11.368,26.35 11.368,20.194 	"/>
	<polygon fill="#0D96D4" points="0.201,20.384 0.201,26.541 11.562,26.541 11.562,20.384 	"/>
	
		<rect x="0.201" y="20.384" fill="none" stroke="#C8C7C7" stroke-width="0.7479" stroke-linecap="round" stroke-miterlimit="10" width="11.361" height="6.157"/>
	<polygon fill="#0D96D4" points="0,26.35 0,32.69 11.368,32.69 11.368,26.35 	"/>
	<polygon fill="#0D96D4" points="0.201,26.541 0.201,32.888 11.562,32.888 11.562,26.541 	"/>
	
		<rect x="0.201" y="26.541" fill="none" stroke="#C8C7C7" stroke-width="0.7479" stroke-linecap="round" stroke-miterlimit="10" width="11.361" height="6.347"/>
	<polygon fill="#0D96D4" points="0,32.69 0,38.848 11.368,38.848 11.368,32.69 	"/>
	<polygon fill="#0D96D4" points="0.201,32.888 0.201,39.038 11.562,39.038 11.562,32.888 	"/>
	
		<rect x="0.201" y="32.888" fill="none" stroke="#C8C7C7" stroke-width="0.7479" stroke-linecap="round" stroke-miterlimit="10" width="11.361" height="6.149"/>
	<polygon fill="#0D96D4" points="0,38.848 0,45.005 11.368,45.005 11.368,38.848 	"/>
	<polygon fill="#0D96D4" points="0.201,39.038 0.201,45.196 11.562,45.196 11.562,39.038 	"/>
	
		<rect x="0.201" y="39.038" fill="none" stroke="#C8C7C7" stroke-width="0.7479" stroke-linecap="round" stroke-miterlimit="10" width="11.361" height="6.157"/>
	<g>
		<g>
			<g>
				<defs>
					<rect id="SVGID_23_" x="3.553" y="8.173" width="0.776" height="6.102"/>
				</defs>
				<clipPath id="SVGID_24_">
					<use xlink:href="#SVGID_23_"  overflow="visible"/>
				</clipPath>
				
					<line clip-path="url(#SVGID_24_)" fill="none" stroke="#C8C7C7" stroke-width="0.7479" stroke-linecap="round" stroke-miterlimit="10" x1="3.922" y1="2.506" x2="3.922" y2="19.812"/>
			</g>
		</g>
	</g>
	<g>
		<g>
			<g>
				<defs>
					<rect id="SVGID_25_" x="7.329" y="14.275" width="0.776" height="5.994"/>
				</defs>
				<clipPath id="SVGID_26_">
					<use xlink:href="#SVGID_25_"  overflow="visible"/>
				</clipPath>
				
					<line clip-path="url(#SVGID_26_)" fill="none" stroke="#C8C7C7" stroke-width="0.7479" stroke-linecap="round" stroke-miterlimit="10" x1="7.648" y1="8.848" x2="7.648" y2="25.581"/>
			</g>
		</g>
	</g>
	<g>
		<g>
			<g>
				<defs>
					<rect id="SVGID_27_" x="3.553" y="20.595" width="0.776" height="5.994"/>
				</defs>
				<clipPath id="SVGID_28_">
					<use xlink:href="#SVGID_27_"  overflow="visible"/>
				</clipPath>
				
					<line clip-path="url(#SVGID_28_)" fill="none" stroke="#C8C7C7" stroke-width="0.7479" stroke-linecap="round" stroke-miterlimit="10" x1="3.922" y1="15.194" x2="3.922" y2="31.928"/>
			</g>
		</g>
	</g>
	<g>
		<g>
			<g>
				<defs>
					<rect id="SVGID_29_" x="7.329" y="26.589" width="0.776" height="6.101"/>
				</defs>
				<clipPath id="SVGID_30_">
					<use xlink:href="#SVGID_29_"  overflow="visible"/>
				</clipPath>
				
					<line clip-path="url(#SVGID_30_)" fill="none" stroke="#C8C7C7" stroke-width="0.7479" stroke-linecap="round" stroke-miterlimit="10" x1="7.648" y1="20.963" x2="7.648" y2="38.269"/>
			</g>
		</g>
	</g>
	<g>
		<g>
			<g>
				<defs>
					<rect id="SVGID_31_" x="3.553" y="32.91" width="0.776" height="6.211"/>
				</defs>
				<clipPath id="SVGID_32_">
					<use xlink:href="#SVGID_31_"  overflow="visible"/>
				</clipPath>
				
					<line clip-path="url(#SVGID_32_)" fill="none" stroke="#C8C7C7" stroke-width="0.7479" stroke-linecap="round" stroke-miterlimit="10" x1="3.922" y1="27.311" x2="3.922" y2="44.617"/>
			</g>
		</g>
	</g>
	<g>
		<g>
			<g>
				<defs>
					<rect id="SVGID_33_" x="7.329" y="39.121" width="0.776" height="5.885"/>
				</defs>
				<clipPath id="SVGID_34_">
					<use xlink:href="#SVGID_33_"  overflow="visible"/>
				</clipPath>
				
					<line clip-path="url(#SVGID_34_)" fill="none" stroke="#C8C7C7" stroke-width="0.7479" stroke-linecap="round" stroke-miterlimit="10" x1="7.648" y1="33.658" x2="7.648" y2="50.385"/>
			</g>
		</g>
	</g>
	<polygon fill="#63C9F3" points="0,7.886 8.231,0 19.405,0 11.173,7.886 	"/>
	<polygon fill="#63C9F3" points="0.201,8.078 8.432,0.197 19.598,0.197 11.368,8.078 	"/>
	<polygon fill="none" stroke="#E3E3E3" stroke-width="0.7479" stroke-linecap="round" stroke-miterlimit="10" points="0.201,8.078 
		8.432,0.197 19.598,0.197 11.368,8.078 	"/>
	<g>
		<g>
			<g>
				<defs>
					<rect id="SVGID_35_" x="6.33" y="5.448" width="8.216" height="0.762"/>
				</defs>
				<clipPath id="SVGID_36_">
					<use xlink:href="#SVGID_35_"  overflow="visible"/>
				</clipPath>
				
					<line clip-path="url(#SVGID_36_)" fill="none" stroke="#E3E3E3" stroke-width="0.7479" stroke-linecap="round" stroke-miterlimit="10" x1="22.145" y1="5.775" x2="-1.367" y2="5.775"/>
			</g>
		</g>
	</g>
	<g>
		<g>
			<g>
				<defs>
					<rect id="SVGID_37_" x="3.776" y="0.217" width="8.438" height="8.282"/>
				</defs>
				<clipPath id="SVGID_38_">
					<use xlink:href="#SVGID_37_"  overflow="visible"/>
				</clipPath>
				
					<line clip-path="url(#SVGID_38_)" fill="none" stroke="#E3E3E3" stroke-width="0.9943" stroke-linecap="round" stroke-miterlimit="10" x1="-4.108" y1="16.155" x2="19.988" y2="-7.499"/>
			</g>
		</g>
	</g>
	<g>
		<g>
			<g>
				<defs>
					<rect id="SVGID_39_" x="4.996" y="3.16" width="4.11" height="0.762"/>
				</defs>
				<clipPath id="SVGID_40_">
					<use xlink:href="#SVGID_39_"  overflow="visible"/>
				</clipPath>
				
					<line clip-path="url(#SVGID_40_)" fill="none" stroke="#E3E3E3" stroke-width="0.7479" stroke-linecap="round" stroke-miterlimit="10" x1="1.375" y1="3.466" x2="12.548" y2="3.466"/>
			</g>
		</g>
	</g>
</g>
</svg>
