<?xml version="1.0" encoding="iso-8859-1"?>
<!DOCTYPE svg PUBLIC "-//W3C//DTD SVG 1.1//EN" "http://www.w3.org/Graphics/SVG/1.1/DTD/svg11.dtd">
<svg version="1.1" xmlns="http://www.w3.org/2000/svg" xmlns:xlink="http://www.w3.org/1999/xlink" width="57" height="34" viewBox="0 0 57 34">
<g>
	<path style="fill-rule:evenodd;clip-rule:evenodd;fill:#0978AA;" d="M28.27,14.134c-15.492,0-28.051,4.345-28.051,9.75
		c0,5.378,12.559,9.75,28.051,9.75s28.026-4.371,28.026-9.75C56.295,18.479,43.762,14.134,28.27,14.134"/>
	<path style="fill:none;stroke:#AEE2FA;stroke-width:0.2881;stroke-linecap:round;stroke-linejoin:round;stroke-miterlimit:10;" d="
		M28.27,14.134c-15.492,0-28.051,4.345-28.051,9.75c0,5.378,12.559,9.75,28.051,9.75s28.026-4.371,28.026-9.75
		C56.295,18.479,43.762,14.134,28.27,14.134"/>
	<polygon style="fill-rule:evenodd;clip-rule:evenodd;fill:#0978AA;" points="0.116,10.254 0.116,24.038 56.295,24.038 
		56.295,10.254 0.116,10.254 	"/>
	<polygon style="fill-rule:evenodd;clip-rule:evenodd;fill:#0978AA;" points="0.116,10.254 0.116,24.038 56.295,24.038 
		56.295,10.254 0.116,10.254 	"/>
	
		<line style="fill:none;stroke:#AEE2FA;stroke-width:0.2881;stroke-linecap:round;stroke-linejoin:round;stroke-miterlimit:10;" x1="0.116" y1="9.918" x2="0.219" y2="23.935"/>
	
		<line style="fill:none;stroke:#AEE2FA;stroke-width:0.2881;stroke-linecap:round;stroke-linejoin:round;stroke-miterlimit:10;" x1="56.397" y1="10.564" x2="56.295" y2="23.599"/>
	<path style="fill-rule:evenodd;clip-rule:evenodd;fill:#45AFE3;" d="M28.257,0C12.764,0,0.219,4.513,0.219,10.073
		c0,5.573,12.545,10.073,28.038,10.073c15.492,0,28.039-4.5,28.039-10.073C56.295,4.513,43.749,0,28.257,0"/>
	<path style="fill:none;stroke:#AEE2FA;stroke-width:0.277;stroke-linecap:round;stroke-linejoin:round;stroke-miterlimit:10;" d="
		M28.257,0C12.764,0,0.219,4.513,0.219,10.073c0,5.573,12.545,10.073,28.038,10.073c15.492,0,28.039-4.5,28.039-10.073
		C56.295,4.513,43.749,0,28.257,0"/>
	<polygon style="fill-rule:evenodd;clip-rule:evenodd;fill:#015B80;" points="2.573,6.039 4.928,4.746 7.617,3.336 11.04,2.263 
		12.442,1.617 13.189,1.617 13.833,1.617 14.154,1.94 14.476,2.263 14.9,2.69 15.543,3.336 15.865,3.66 16.625,4.422 17.589,4.746 
		18.233,5.069 19.301,5.069 19.944,5.069 21.012,5.069 21.655,4.746 22.415,4.422 23.058,3.66 24.126,3.013 25.516,1.94 
		26.481,1.617 27.562,1.617 28.527,1.617 29.595,1.617 30.561,1.94 31.627,2.69 32.709,3.336 33.673,3.983 34.742,4.746 
		35.706,5.069 37.096,5.069 38.178,5.069 39.142,4.746 40.21,4.422 41.175,3.66 41.923,3.013 42.564,2.263 43.646,1.94 44.29,1.94 
		45.036,1.94 46.322,2.69 47.712,3.013 48.794,3.336 50.183,3.983 51.147,4.422 51.791,4.746 52.537,5.069 49.758,4.422 
		48.035,4.422 47.068,4.422 45.679,4.746 44.61,5.069 43.646,5.715 42.564,6.465 41.6,6.789 40.531,7.112 38.821,7.436 
		37.096,7.758 35.706,7.436 34.419,7.436 33.673,6.789 33.03,6.465 32.271,5.715 31.627,5.069 30.561,4.746 29.595,4.422 
		28.205,4.422 27.24,4.422 26.159,4.746 25.516,5.069 24.448,5.715 23.38,6.465 22.415,7.112 21.334,7.436 20.369,7.758 
		18.657,7.758 16.946,7.758 15.865,7.112 15.222,6.789 14.154,6.039 13.511,5.392 12.764,5.069 11.799,4.422 10.075,4.422 
		9.007,4.422 7.617,4.422 6.974,4.422 5.893,4.746 4.606,5.069 2.573,6.039 	"/>
	<polygon style="fill-rule:evenodd;clip-rule:evenodd;fill:#015B80;" points="2.573,6.039 4.928,4.746 7.617,3.336 11.04,2.263 
		12.442,1.617 13.189,1.617 13.833,1.617 14.154,1.94 14.476,2.263 14.9,2.69 15.543,3.336 15.865,3.66 16.625,4.422 17.589,4.746 
		18.233,5.069 19.301,5.069 19.944,5.069 21.012,5.069 21.655,4.746 22.415,4.422 23.058,3.66 24.126,3.013 25.516,1.94 
		26.481,1.617 27.562,1.617 28.527,1.617 29.595,1.617 30.561,1.94 31.627,2.69 32.709,3.336 33.673,3.983 34.742,4.746 
		35.706,5.069 37.096,5.069 38.178,5.069 39.142,4.746 40.21,4.422 41.175,3.66 41.923,3.013 42.564,2.263 43.646,1.94 44.29,1.94 
		45.036,1.94 46.322,2.69 47.712,3.013 48.794,3.336 50.183,3.983 51.147,4.422 51.791,4.746 52.537,5.069 49.758,4.422 
		48.035,4.422 47.068,4.422 45.679,4.746 44.61,5.069 43.646,5.715 42.564,6.465 41.6,6.789 40.531,7.112 38.821,7.436 
		37.096,7.758 35.706,7.436 34.419,7.436 33.673,6.789 33.03,6.465 32.271,5.715 31.627,5.069 30.561,4.746 29.595,4.422 
		28.205,4.422 27.24,4.422 26.159,4.746 25.516,5.069 24.448,5.715 23.38,6.465 22.415,7.112 21.334,7.436 20.369,7.758 
		18.657,7.758 16.946,7.758 15.865,7.112 15.222,6.789 14.154,6.039 13.511,5.392 12.764,5.069 11.799,4.422 10.075,4.422 
		9.007,4.422 7.617,4.422 6.974,4.422 5.893,4.746 4.606,5.069 2.573,6.039 	"/>
	<polygon style="fill-rule:evenodd;clip-rule:evenodd;fill:#015B80;" points="0.425,8.508 0.103,9.155 0.103,9.918 0.103,10.241 
		0.103,10.888 0.425,11.638 0.425,11.961 1.827,11.211 2.895,10.564 3.539,10.241 4.285,9.918 5.25,9.918 6.331,9.479 7.617,9.479 
		9.007,9.479 9.753,9.479 10.718,9.918 11.478,10.241 12.121,10.241 12.764,10.888 13.511,11.211 14.9,11.961 15.543,12.607 
		16.946,12.931 18.657,12.931 19.944,12.931 21.012,12.931 21.655,12.931 22.736,12.607 23.38,11.961 24.126,11.211 24.77,10.564 
		26.159,9.918 27.24,9.479 28.849,9.918 29.917,9.918 30.561,10.241 31.307,10.888 32.271,11.638 33.03,11.961 33.673,12.284 
		35.063,12.931 36.775,12.931 37.855,12.931 39.142,12.607 40.854,11.961 41.6,11.638 42.564,11.211 43.646,10.564 44.61,10.241 
		45.679,9.918 47.068,9.479 48.471,9.479 49.758,9.479 50.504,9.479 51.47,9.918 52.537,10.241 53.503,10.241 55.754,11.535 
		55.87,10.241 55.972,9.155 54.906,8.508 53.503,7.758 52.216,7.436 50.504,6.789 49.435,6.789 48.471,6.789 47.391,7.112 
		46.322,7.436 45.358,7.758 44.29,8.185 42.887,8.832 41.923,9.155 40.531,9.918 39.142,10.241 37.855,10.564 36.775,10.564 
		35.706,10.241 35.063,10.241 33.996,9.918 33.353,9.155 32.709,8.508 31.95,7.758 30.984,7.436 30.238,7.112 29.595,6.789 
		28.849,6.789 27.883,6.465 27.24,6.789 26.481,6.789 25.837,7.112 25.091,7.436 24.448,8.185 23.38,9.155 22.415,9.918 
		21.655,10.241 21.012,10.241 19.944,10.564 18.979,10.564 18.233,10.564 17.268,10.241 16.625,9.918 15.543,9.155 14.476,8.508 
		13.511,8.185 12.764,7.436 12.121,7.112 11.478,6.789 10.397,6.465 9.007,6.465 8.042,6.465 6.974,6.465 5.893,6.789 5.25,6.789 
		4.606,7.112 3.539,7.436 2.895,7.436 2.148,7.758 1.827,8.185 1.184,8.185 0.425,8.508 	"/>
	<polygon style="fill-rule:evenodd;clip-rule:evenodd;fill:#015B80;" points="28.205,11.961 28.849,11.961 29.917,11.961 
		30.561,12.284 30.984,12.607 31.627,12.931 32.271,13.357 32.709,14.004 33.353,14.328 33.673,14.65 34.419,15.091 34.742,15.414 
		35.386,15.414 36.131,15.737 36.775,15.737 37.418,15.737 38.499,15.414 39.142,15.414 39.888,15.091 40.854,14.65 41.923,14.004 
		42.564,13.681 43.323,13.357 43.967,12.607 44.61,12.284 45.679,11.961 46.748,11.961 47.391,11.961 48.035,11.961 49.115,11.961 
		50.183,12.284 51.147,12.284 52.216,12.607 52.859,12.931 53.503,13.357 54.262,13.681 53.18,14.328 51.791,15.414 51.147,15.091 
		50.504,14.65 49.758,14.328 48.794,14.328 47.712,14.328 46.748,14.328 46,14.65 45.036,15.091 44.29,15.414 43.323,16.06 
		42.564,16.81 41.6,17.457 40.21,17.78 38.821,18.104 37.418,18.104 36.452,18.426 35.386,18.104 34.419,17.78 33.673,17.457 
		33.03,17.134 32.271,16.384 31.95,15.737 31.307,15.414 30.561,15.091 29.917,15.091 28.849,15.091 27.883,15.091 26.803,15.091 
		25.837,15.414 25.091,15.737 24.448,16.06 24.126,16.384 23.38,17.134 22.736,17.78 21.655,18.104 21.012,18.426 19.944,18.426 
		18.979,18.426 17.911,18.426 16.946,18.104 16.187,18.104 15.543,17.457 14.476,16.81 13.833,16.06 13.189,15.737 12.121,15.414 
		11.478,15.091 10.397,15.091 9.329,15.091 8.042,15.091 6.974,15.091 6.331,15.414 5.893,15.414 5.571,15.737 5.571,16.06 
		4.285,15.414 3.539,14.65 2.895,14.328 3.86,13.357 5.25,12.607 6.331,12.284 7.617,11.961 8.685,11.961 10.075,11.961 
		10.718,12.284 11.478,12.284 12.442,12.607 13.189,12.931 13.833,13.681 14.476,14.004 15.543,14.65 16.625,15.414 17.589,15.737 
		18.979,15.737 19.944,15.737 21.334,15.414 22.093,15.091 22.736,14.65 23.38,14.328 24.126,13.681 24.77,12.931 25.837,12.284 
		26.481,11.961 27.562,11.961 28.205,11.961 	"/>
	<polygon style="fill-rule:evenodd;clip-rule:evenodd;fill:#015B80;" points="28.205,11.961 28.849,11.961 29.917,11.961 
		30.561,12.284 30.984,12.607 31.627,12.931 32.271,13.357 32.709,14.004 33.353,14.328 33.673,14.65 34.419,15.091 34.742,15.414 
		35.386,15.414 36.131,15.737 36.775,15.737 37.418,15.737 38.499,15.414 39.142,15.414 39.888,15.091 40.854,14.65 41.923,14.004 
		42.564,13.681 43.323,13.357 43.967,12.607 44.61,12.284 45.679,11.961 46.748,11.961 47.391,11.961 48.035,11.961 49.115,11.961 
		50.183,12.284 51.147,12.284 52.216,12.607 52.859,12.931 53.503,13.357 54.262,13.681 53.18,14.328 51.791,15.414 51.147,15.091 
		50.504,14.65 49.758,14.328 48.794,14.328 47.712,14.328 46.748,14.328 46,14.65 45.036,15.091 44.29,15.414 43.323,16.06 
		42.564,16.81 41.6,17.457 40.21,17.78 38.821,18.104 37.418,18.104 36.452,18.426 35.386,18.104 34.419,17.78 33.673,17.457 
		33.03,17.134 32.271,16.384 31.95,15.737 31.307,15.414 30.561,15.091 29.917,15.091 28.849,15.091 27.883,15.091 26.803,15.091 
		25.837,15.414 25.091,15.737 24.448,16.06 24.126,16.384 23.38,17.134 22.736,17.78 21.655,18.104 21.012,18.426 19.944,18.426 
		18.979,18.426 17.911,18.426 16.946,18.104 16.187,18.104 15.543,17.457 14.476,16.81 13.833,16.06 13.189,15.737 12.121,15.414 
		11.478,15.091 10.397,15.091 9.329,15.091 8.042,15.091 6.974,15.091 6.331,15.414 5.893,15.414 5.571,15.737 5.571,16.06 
		4.285,15.414 3.539,14.65 2.895,14.328 3.86,13.357 5.25,12.607 6.331,12.284 7.617,11.961 8.685,11.961 10.075,11.961 
		10.718,12.284 11.478,12.284 12.442,12.607 13.189,12.931 13.833,13.681 14.476,14.004 15.543,14.65 16.625,15.414 17.589,15.737 
		18.979,15.737 19.944,15.737 21.334,15.414 22.093,15.091 22.736,14.65 23.38,14.328 24.126,13.681 24.77,12.931 25.837,12.284 
		26.481,11.961 27.562,11.961 28.205,11.961 	"/>
	<polygon style="fill-rule:evenodd;clip-rule:evenodd;fill:#010101;" points="28.527,7.758 32.709,9.155 41.923,5.392 46.322,6.465 
		44.29,3.013 32.709,3.013 37.418,3.983 28.527,7.758 	"/>
	<polygon style="fill-rule:evenodd;clip-rule:evenodd;fill:#010101;" points="28.527,7.758 32.709,9.155 41.923,5.392 46.322,6.465 
		44.29,3.013 32.709,3.013 37.418,3.983 28.527,7.758 	"/>
	<polygon style="fill-rule:evenodd;clip-rule:evenodd;fill:#010101;" points="26.803,11.638 23.058,10.241 13.511,14.328 
		9.007,13.357 11.478,16.81 22.736,16.81 17.911,15.414 26.803,11.638 	"/>
	<polygon style="fill-rule:evenodd;clip-rule:evenodd;fill:#010101;" points="26.803,11.638 23.058,10.241 13.511,14.328 
		9.007,13.357 11.478,16.81 22.736,16.81 17.911,15.414 26.803,11.638 	"/>
	<polygon style="fill-rule:evenodd;clip-rule:evenodd;fill:#010101;" points="10.075,3.983 14.154,2.69 23.38,6.789 27.883,5.392 
		25.516,8.832 14.154,8.832 18.979,7.758 10.075,3.983 	"/>
	<polygon style="fill-rule:evenodd;clip-rule:evenodd;fill:#010101;" points="10.075,3.983 14.154,2.69 23.38,6.789 27.883,5.392 
		25.516,8.832 14.154,8.832 18.979,7.758 10.075,3.983 	"/>
	<polygon style="fill-rule:evenodd;clip-rule:evenodd;fill:#010101;" points="46,15.737 41.923,17.134 32.271,13.357 28.205,14.328 
		30.238,10.888 41.923,10.888 37.096,11.961 46,15.737 	"/>
	<polygon style="fill-rule:evenodd;clip-rule:evenodd;fill:#010101;" points="46,15.737 41.923,17.134 32.271,13.357 28.205,14.328 
		30.238,10.888 41.923,10.888 37.096,11.961 46,15.737 	"/>
	<polygon style="fill-rule:evenodd;clip-rule:evenodd;fill:#FFFFFF;" points="28.849,8.185 33.03,9.479 42.243,5.715 46.748,6.789 
		44.61,3.336 33.03,3.336 37.855,4.422 28.849,8.185 	"/>
	<polygon style="fill-rule:evenodd;clip-rule:evenodd;fill:#FFFFFF;" points="28.849,8.185 33.03,9.479 42.243,5.715 46.748,6.789 
		44.61,3.336 33.03,3.336 37.855,4.422 28.849,8.185 	"/>
	<polygon style="fill-rule:evenodd;clip-rule:evenodd;fill:#FFFFFF;" points="27.24,11.961 23.38,10.564 13.833,14.65 9.329,13.681 
		11.799,17.134 23.058,17.134 18.233,15.737 27.24,11.961 	"/>
	<polygon style="fill-rule:evenodd;clip-rule:evenodd;fill:#FFFFFF;" points="27.24,11.961 23.38,10.564 13.833,14.65 9.329,13.681 
		11.799,17.134 23.058,17.134 18.233,15.737 27.24,11.961 	"/>
	<polygon style="fill-rule:evenodd;clip-rule:evenodd;fill:#FFFFFF;" points="10.397,4.422 14.476,3.013 23.805,7.112 28.205,5.715 
		25.837,9.155 14.476,9.155 19.301,8.185 10.397,4.422 	"/>
	<polygon style="fill-rule:evenodd;clip-rule:evenodd;fill:#FFFFFF;" points="10.397,4.422 14.476,3.013 23.805,7.112 28.205,5.715 
		25.837,9.155 14.476,9.155 19.301,8.185 10.397,4.422 	"/>
	<polygon style="fill-rule:evenodd;clip-rule:evenodd;fill:#FFFFFF;" points="46.322,16.06 42.243,17.457 32.709,13.681 
		28.205,14.65 30.561,11.211 41.923,11.211 37.418,12.284 46.322,16.06 	"/>
	<polygon style="fill-rule:evenodd;clip-rule:evenodd;fill:#FFFFFF;" points="46.322,16.06 42.243,17.457 32.709,13.681 
		28.205,14.65 30.561,11.211 41.923,11.211 37.418,12.284 46.322,16.06 	"/>
	<path style="fill:none;stroke:#AEE2FA;stroke-width:0.277;stroke-linecap:round;stroke-linejoin:round;stroke-miterlimit:10;" d="
		M28.038,0C12.558,0,0,4.513,0,10.073c0,5.573,12.558,10.073,28.038,10.073c15.492,0,28.037-4.5,28.037-10.073
		C56.075,4.513,43.53,0,28.038,0"/>
	<path style="fill-rule:evenodd;clip-rule:evenodd;fill:#0978AA;" d="M28.27,14.134c-15.492,0-28.051,4.345-28.051,9.75
		c0,5.378,12.559,9.75,28.051,9.75s28.026-4.371,28.026-9.75C56.295,18.479,43.762,14.134,28.27,14.134"/>
	<path style="fill:none;stroke:#AEE2FA;stroke-width:0.2881;stroke-linecap:round;stroke-linejoin:round;stroke-miterlimit:10;" d="
		M28.27,14.134c-15.492,0-28.051,4.345-28.051,9.75c0,5.378,12.559,9.75,28.051,9.75s28.026-4.371,28.026-9.75
		C56.295,18.479,43.762,14.134,28.27,14.134"/>
	<polygon style="fill-rule:evenodd;clip-rule:evenodd;fill:#0978AA;" points="0.116,10.254 0.116,24.038 56.295,24.038 
		56.295,10.254 0.116,10.254 	"/>
	<polygon style="fill-rule:evenodd;clip-rule:evenodd;fill:#0978AA;" points="0.116,10.254 0.116,24.038 56.295,24.038 
		56.295,10.254 0.116,10.254 	"/>
	
		<line style="fill:none;stroke:#AEE2FA;stroke-width:0.2881;stroke-linecap:round;stroke-linejoin:round;stroke-miterlimit:10;" x1="0.116" y1="9.918" x2="0.219" y2="23.935"/>
	
		<line style="fill:none;stroke:#AEE2FA;stroke-width:0.2881;stroke-linecap:round;stroke-linejoin:round;stroke-miterlimit:10;" x1="56.397" y1="10.564" x2="56.295" y2="23.599"/>
	<path style="fill-rule:evenodd;clip-rule:evenodd;fill:#45AFE3;" d="M28.257,0C12.764,0,0.219,4.513,0.219,10.073
		c0,5.573,12.545,10.073,28.038,10.073c15.492,0,28.039-4.5,28.039-10.073C56.295,4.513,43.749,0,28.257,0"/>
	<path style="fill:none;stroke:#AEE2FA;stroke-width:0.277;stroke-linecap:round;stroke-linejoin:round;stroke-miterlimit:10;" d="
		M28.257,0C12.764,0,0.219,4.513,0.219,10.073c0,5.573,12.545,10.073,28.038,10.073c15.492,0,28.039-4.5,28.039-10.073
		C56.295,4.513,43.749,0,28.257,0"/>
	<polygon style="fill-rule:evenodd;clip-rule:evenodd;fill:#015B80;" points="2.573,6.039 4.928,4.746 7.617,3.336 11.04,2.263 
		12.442,1.617 13.189,1.617 13.833,1.617 14.154,1.94 14.476,2.263 14.9,2.69 15.543,3.336 15.865,3.66 16.625,4.422 17.589,4.746 
		18.233,5.069 19.301,5.069 19.944,5.069 21.012,5.069 21.655,4.746 22.415,4.422 23.058,3.66 24.126,3.013 25.516,1.94 
		26.481,1.617 27.562,1.617 28.527,1.617 29.595,1.617 30.561,1.94 31.627,2.69 32.709,3.336 33.673,3.983 34.742,4.746 
		35.706,5.069 37.096,5.069 38.178,5.069 39.142,4.746 40.21,4.422 41.175,3.66 41.923,3.013 42.564,2.263 43.646,1.94 44.29,1.94 
		45.036,1.94 46.322,2.69 47.712,3.013 48.794,3.336 50.183,3.983 51.147,4.422 51.791,4.746 52.537,5.069 49.758,4.422 
		48.035,4.422 47.068,4.422 45.679,4.746 44.61,5.069 43.646,5.715 42.564,6.465 41.6,6.789 40.531,7.112 38.821,7.436 
		37.096,7.758 35.706,7.436 34.419,7.436 33.673,6.789 33.03,6.465 32.271,5.715 31.627,5.069 30.561,4.746 29.595,4.422 
		28.205,4.422 27.24,4.422 26.159,4.746 25.516,5.069 24.448,5.715 23.38,6.465 22.415,7.112 21.334,7.436 20.369,7.758 
		18.657,7.758 16.946,7.758 15.865,7.112 15.222,6.789 14.154,6.039 13.511,5.392 12.764,5.069 11.799,4.422 10.075,4.422 
		9.007,4.422 7.617,4.422 6.974,4.422 5.893,4.746 4.606,5.069 2.573,6.039 	"/>
	<polygon style="fill-rule:evenodd;clip-rule:evenodd;fill:#015B80;" points="2.573,6.039 4.928,4.746 7.617,3.336 11.04,2.263 
		12.442,1.617 13.189,1.617 13.833,1.617 14.154,1.94 14.476,2.263 14.9,2.69 15.543,3.336 15.865,3.66 16.625,4.422 17.589,4.746 
		18.233,5.069 19.301,5.069 19.944,5.069 21.012,5.069 21.655,4.746 22.415,4.422 23.058,3.66 24.126,3.013 25.516,1.94 
		26.481,1.617 27.562,1.617 28.527,1.617 29.595,1.617 30.561,1.94 31.627,2.69 32.709,3.336 33.673,3.983 34.742,4.746 
		35.706,5.069 37.096,5.069 38.178,5.069 39.142,4.746 40.21,4.422 41.175,3.66 41.923,3.013 42.564,2.263 43.646,1.94 44.29,1.94 
		45.036,1.94 46.322,2.69 47.712,3.013 48.794,3.336 50.183,3.983 51.147,4.422 51.791,4.746 52.537,5.069 49.758,4.422 
		48.035,4.422 47.068,4.422 45.679,4.746 44.61,5.069 43.646,5.715 42.564,6.465 41.6,6.789 40.531,7.112 38.821,7.436 
		37.096,7.758 35.706,7.436 34.419,7.436 33.673,6.789 33.03,6.465 32.271,5.715 31.627,5.069 30.561,4.746 29.595,4.422 
		28.205,4.422 27.24,4.422 26.159,4.746 25.516,5.069 24.448,5.715 23.38,6.465 22.415,7.112 21.334,7.436 20.369,7.758 
		18.657,7.758 16.946,7.758 15.865,7.112 15.222,6.789 14.154,6.039 13.511,5.392 12.764,5.069 11.799,4.422 10.075,4.422 
		9.007,4.422 7.617,4.422 6.974,4.422 5.893,4.746 4.606,5.069 2.573,6.039 	"/>
	<polygon style="fill-rule:evenodd;clip-rule:evenodd;fill:#015B80;" points="0.425,8.508 0.103,9.155 0.103,9.918 0.103,10.241 
		0.103,10.888 0.425,11.638 0.425,11.961 1.827,11.211 2.895,10.564 3.539,10.241 4.285,9.918 5.25,9.918 6.331,9.479 7.617,9.479 
		9.007,9.479 9.753,9.479 10.718,9.918 11.478,10.241 12.121,10.241 12.764,10.888 13.511,11.211 14.9,11.961 15.543,12.607 
		16.946,12.931 18.657,12.931 19.944,12.931 21.012,12.931 21.655,12.931 22.736,12.607 23.38,11.961 24.126,11.211 24.77,10.564 
		26.159,9.918 27.24,9.479 28.849,9.918 29.917,9.918 30.561,10.241 31.307,10.888 32.271,11.638 33.03,11.961 33.673,12.284 
		35.063,12.931 36.775,12.931 37.855,12.931 39.142,12.607 40.854,11.961 41.6,11.638 42.564,11.211 43.646,10.564 44.61,10.241 
		45.679,9.918 47.068,9.479 48.471,9.479 49.758,9.479 50.504,9.479 51.47,9.918 52.537,10.241 53.503,10.241 55.754,11.535 
		55.87,10.241 55.972,9.155 54.906,8.508 53.503,7.758 52.216,7.436 50.504,6.789 49.435,6.789 48.471,6.789 47.391,7.112 
		46.322,7.436 45.358,7.758 44.29,8.185 42.887,8.832 41.923,9.155 40.531,9.918 39.142,10.241 37.855,10.564 36.775,10.564 
		35.706,10.241 35.063,10.241 33.996,9.918 33.353,9.155 32.709,8.508 31.95,7.758 30.984,7.436 30.238,7.112 29.595,6.789 
		28.849,6.789 27.883,6.465 27.24,6.789 26.481,6.789 25.837,7.112 25.091,7.436 24.448,8.185 23.38,9.155 22.415,9.918 
		21.655,10.241 21.012,10.241 19.944,10.564 18.979,10.564 18.233,10.564 17.268,10.241 16.625,9.918 15.543,9.155 14.476,8.508 
		13.511,8.185 12.764,7.436 12.121,7.112 11.478,6.789 10.397,6.465 9.007,6.465 8.042,6.465 6.974,6.465 5.893,6.789 5.25,6.789 
		4.606,7.112 3.539,7.436 2.895,7.436 2.148,7.758 1.827,8.185 1.184,8.185 0.425,8.508 	"/>
	<polygon style="fill-rule:evenodd;clip-rule:evenodd;fill:#015B80;" points="28.205,11.961 28.849,11.961 29.917,11.961 
		30.561,12.284 30.984,12.607 31.627,12.931 32.271,13.357 32.709,14.004 33.353,14.328 33.673,14.65 34.419,15.091 34.742,15.414 
		35.386,15.414 36.131,15.737 36.775,15.737 37.418,15.737 38.499,15.414 39.142,15.414 39.888,15.091 40.854,14.65 41.923,14.004 
		42.564,13.681 43.323,13.357 43.967,12.607 44.61,12.284 45.679,11.961 46.748,11.961 47.391,11.961 48.035,11.961 49.115,11.961 
		50.183,12.284 51.147,12.284 52.216,12.607 52.859,12.931 53.503,13.357 54.262,13.681 53.18,14.328 51.791,15.414 51.147,15.091 
		50.504,14.65 49.758,14.328 48.794,14.328 47.712,14.328 46.748,14.328 46,14.65 45.036,15.091 44.29,15.414 43.323,16.06 
		42.564,16.81 41.6,17.457 40.21,17.78 38.821,18.104 37.418,18.104 36.452,18.426 35.386,18.104 34.419,17.78 33.673,17.457 
		33.03,17.134 32.271,16.384 31.95,15.737 31.307,15.414 30.561,15.091 29.917,15.091 28.849,15.091 27.883,15.091 26.803,15.091 
		25.837,15.414 25.091,15.737 24.448,16.06 24.126,16.384 23.38,17.134 22.736,17.78 21.655,18.104 21.012,18.426 19.944,18.426 
		18.979,18.426 17.911,18.426 16.946,18.104 16.187,18.104 15.543,17.457 14.476,16.81 13.833,16.06 13.189,15.737 12.121,15.414 
		11.478,15.091 10.397,15.091 9.329,15.091 8.042,15.091 6.974,15.091 6.331,15.414 5.893,15.414 5.571,15.737 5.571,16.06 
		4.285,15.414 3.539,14.65 2.895,14.328 3.86,13.357 5.25,12.607 6.331,12.284 7.617,11.961 8.685,11.961 10.075,11.961 
		10.718,12.284 11.478,12.284 12.442,12.607 13.189,12.931 13.833,13.681 14.476,14.004 15.543,14.65 16.625,15.414 17.589,15.737 
		18.979,15.737 19.944,15.737 21.334,15.414 22.093,15.091 22.736,14.65 23.38,14.328 24.126,13.681 24.77,12.931 25.837,12.284 
		26.481,11.961 27.562,11.961 28.205,11.961 	"/>
	<polygon style="fill-rule:evenodd;clip-rule:evenodd;fill:#015B80;" points="28.205,11.961 28.849,11.961 29.917,11.961 
		30.561,12.284 30.984,12.607 31.627,12.931 32.271,13.357 32.709,14.004 33.353,14.328 33.673,14.65 34.419,15.091 34.742,15.414 
		35.386,15.414 36.131,15.737 36.775,15.737 37.418,15.737 38.499,15.414 39.142,15.414 39.888,15.091 40.854,14.65 41.923,14.004 
		42.564,13.681 43.323,13.357 43.967,12.607 44.61,12.284 45.679,11.961 46.748,11.961 47.391,11.961 48.035,11.961 49.115,11.961 
		50.183,12.284 51.147,12.284 52.216,12.607 52.859,12.931 53.503,13.357 54.262,13.681 53.18,14.328 51.791,15.414 51.147,15.091 
		50.504,14.65 49.758,14.328 48.794,14.328 47.712,14.328 46.748,14.328 46,14.65 45.036,15.091 44.29,15.414 43.323,16.06 
		42.564,16.81 41.6,17.457 40.21,17.78 38.821,18.104 37.418,18.104 36.452,18.426 35.386,18.104 34.419,17.78 33.673,17.457 
		33.03,17.134 32.271,16.384 31.95,15.737 31.307,15.414 30.561,15.091 29.917,15.091 28.849,15.091 27.883,15.091 26.803,15.091 
		25.837,15.414 25.091,15.737 24.448,16.06 24.126,16.384 23.38,17.134 22.736,17.78 21.655,18.104 21.012,18.426 19.944,18.426 
		18.979,18.426 17.911,18.426 16.946,18.104 16.187,18.104 15.543,17.457 14.476,16.81 13.833,16.06 13.189,15.737 12.121,15.414 
		11.478,15.091 10.397,15.091 9.329,15.091 8.042,15.091 6.974,15.091 6.331,15.414 5.893,15.414 5.571,15.737 5.571,16.06 
		4.285,15.414 3.539,14.65 2.895,14.328 3.86,13.357 5.25,12.607 6.331,12.284 7.617,11.961 8.685,11.961 10.075,11.961 
		10.718,12.284 11.478,12.284 12.442,12.607 13.189,12.931 13.833,13.681 14.476,14.004 15.543,14.65 16.625,15.414 17.589,15.737 
		18.979,15.737 19.944,15.737 21.334,15.414 22.093,15.091 22.736,14.65 23.38,14.328 24.126,13.681 24.77,12.931 25.837,12.284 
		26.481,11.961 27.562,11.961 28.205,11.961 	"/>
	<polygon style="fill-rule:evenodd;clip-rule:evenodd;fill:#010101;" points="28.527,7.758 32.709,9.155 41.923,5.392 46.322,6.465 
		44.29,3.013 32.709,3.013 37.418,3.983 28.527,7.758 	"/>
	<polygon style="fill-rule:evenodd;clip-rule:evenodd;fill:#010101;" points="28.527,7.758 32.709,9.155 41.923,5.392 46.322,6.465 
		44.29,3.013 32.709,3.013 37.418,3.983 28.527,7.758 	"/>
	<polygon style="fill-rule:evenodd;clip-rule:evenodd;fill:#010101;" points="26.803,11.638 23.058,10.241 13.511,14.328 
		9.007,13.357 11.478,16.81 22.736,16.81 17.911,15.414 26.803,11.638 	"/>
	<polygon style="fill-rule:evenodd;clip-rule:evenodd;fill:#010101;" points="26.803,11.638 23.058,10.241 13.511,14.328 
		9.007,13.357 11.478,16.81 22.736,16.81 17.911,15.414 26.803,11.638 	"/>
	<polygon style="fill-rule:evenodd;clip-rule:evenodd;fill:#010101;" points="10.075,3.983 14.154,2.69 23.38,6.789 27.883,5.392 
		25.516,8.832 14.154,8.832 18.979,7.758 10.075,3.983 	"/>
	<polygon style="fill-rule:evenodd;clip-rule:evenodd;fill:#010101;" points="10.075,3.983 14.154,2.69 23.38,6.789 27.883,5.392 
		25.516,8.832 14.154,8.832 18.979,7.758 10.075,3.983 	"/>
	<polygon style="fill-rule:evenodd;clip-rule:evenodd;fill:#010101;" points="46,15.737 41.923,17.134 32.271,13.357 28.205,14.328 
		30.238,10.888 41.923,10.888 37.096,11.961 46,15.737 	"/>
	<polygon style="fill-rule:evenodd;clip-rule:evenodd;fill:#010101;" points="46,15.737 41.923,17.134 32.271,13.357 28.205,14.328 
		30.238,10.888 41.923,10.888 37.096,11.961 46,15.737 	"/>
	<polygon style="fill-rule:evenodd;clip-rule:evenodd;fill:#FFFFFF;" points="28.849,8.185 33.03,9.479 42.243,5.715 46.748,6.789 
		44.61,3.336 33.03,3.336 37.855,4.422 28.849,8.185 	"/>
	<polygon style="fill-rule:evenodd;clip-rule:evenodd;fill:#FFFFFF;" points="28.849,8.185 33.03,9.479 42.243,5.715 46.748,6.789 
		44.61,3.336 33.03,3.336 37.855,4.422 28.849,8.185 	"/>
	<polygon style="fill-rule:evenodd;clip-rule:evenodd;fill:#FFFFFF;" points="27.24,11.961 23.38,10.564 13.833,14.65 9.329,13.681 
		11.799,17.134 23.058,17.134 18.233,15.737 27.24,11.961 	"/>
	<polygon style="fill-rule:evenodd;clip-rule:evenodd;fill:#FFFFFF;" points="27.24,11.961 23.38,10.564 13.833,14.65 9.329,13.681 
		11.799,17.134 23.058,17.134 18.233,15.737 27.24,11.961 	"/>
	<polygon style="fill-rule:evenodd;clip-rule:evenodd;fill:#FFFFFF;" points="10.397,4.422 14.476,3.013 23.805,7.112 28.205,5.715 
		25.837,9.155 14.476,9.155 19.301,8.185 10.397,4.422 	"/>
	<polygon style="fill-rule:evenodd;clip-rule:evenodd;fill:#FFFFFF;" points="10.397,4.422 14.476,3.013 23.805,7.112 28.205,5.715 
		25.837,9.155 14.476,9.155 19.301,8.185 10.397,4.422 	"/>
	<polygon style="fill-rule:evenodd;clip-rule:evenodd;fill:#FFFFFF;" points="46.322,16.06 42.243,17.457 32.709,13.681 
		28.205,14.65 30.561,11.211 41.923,11.211 37.418,12.284 46.322,16.06 	"/>
	<polygon style="fill-rule:evenodd;clip-rule:evenodd;fill:#FFFFFF;" points="46.322,16.06 42.243,17.457 32.709,13.681 
		28.205,14.65 30.561,11.211 41.923,11.211 37.418,12.284 46.322,16.06 	"/>
	<polygon style="fill-rule:evenodd;clip-rule:evenodd;fill:#010101;" points="28.527,7.758 32.709,9.155 41.923,5.392 46.322,6.465 
		44.29,3.013 32.709,3.013 37.418,3.983 28.527,7.758 	"/>
	<polygon style="fill-rule:evenodd;clip-rule:evenodd;fill:#010101;" points="28.527,7.758 32.709,9.155 41.923,5.392 46.322,6.465 
		44.29,3.013 32.709,3.013 37.418,3.983 28.527,7.758 	"/>
	<polygon style="fill-rule:evenodd;clip-rule:evenodd;fill:#010101;" points="26.803,11.638 23.058,10.241 13.511,14.328 
		9.007,13.357 11.478,16.81 22.736,16.81 17.911,15.414 26.803,11.638 	"/>
	<polygon style="fill-rule:evenodd;clip-rule:evenodd;fill:#010101;" points="26.803,11.638 23.058,10.241 13.511,14.328 
		9.007,13.357 11.478,16.81 22.736,16.81 17.911,15.414 26.803,11.638 	"/>
	<polygon style="fill-rule:evenodd;clip-rule:evenodd;fill:#010101;" points="10.075,3.983 14.154,2.69 23.38,6.789 27.883,5.392 
		25.516,8.832 14.154,8.832 18.979,7.758 10.075,3.983 	"/>
	<polygon style="fill-rule:evenodd;clip-rule:evenodd;fill:#010101;" points="10.075,3.983 14.154,2.69 23.38,6.789 27.883,5.392 
		25.516,8.832 14.154,8.832 18.979,7.758 10.075,3.983 	"/>
	<polygon style="fill-rule:evenodd;clip-rule:evenodd;fill:#010101;" points="46,15.737 41.923,17.134 32.271,13.357 28.205,14.328 
		30.238,10.888 41.923,10.888 37.096,11.961 46,15.737 	"/>
	<polygon style="fill-rule:evenodd;clip-rule:evenodd;fill:#010101;" points="46,15.737 41.923,17.134 32.271,13.357 28.205,14.328 
		30.238,10.888 41.923,10.888 37.096,11.961 46,15.737 	"/>
	<polygon style="fill-rule:evenodd;clip-rule:evenodd;fill:#010101;" points="28.527,7.758 32.709,9.155 41.923,5.392 46.322,6.465 
		44.29,3.013 32.709,3.013 37.418,3.983 28.527,7.758 	"/>
	<polygon style="fill-rule:evenodd;clip-rule:evenodd;fill:#010101;" points="28.527,7.758 32.709,9.155 41.923,5.392 46.322,6.465 
		44.29,3.013 32.709,3.013 37.418,3.983 28.527,7.758 	"/>
	<polygon style="fill-rule:evenodd;clip-rule:evenodd;fill:#010101;" points="26.803,11.638 23.058,10.241 13.511,14.328 
		9.007,13.357 11.478,16.81 22.736,16.81 17.911,15.414 26.803,11.638 	"/>
	<polygon style="fill-rule:evenodd;clip-rule:evenodd;fill:#010101;" points="26.803,11.638 23.058,10.241 13.511,14.328 
		9.007,13.357 11.478,16.81 22.736,16.81 17.911,15.414 26.803,11.638 	"/>
	<polygon style="fill-rule:evenodd;clip-rule:evenodd;fill:#010101;" points="10.075,3.983 14.154,2.69 23.38,6.789 27.883,5.392 
		25.516,8.832 14.154,8.832 18.979,7.758 10.075,3.983 	"/>
	<polygon style="fill-rule:evenodd;clip-rule:evenodd;fill:#010101;" points="10.075,3.983 14.154,2.69 23.38,6.789 27.883,5.392 
		25.516,8.832 14.154,8.832 18.979,7.758 10.075,3.983 	"/>
	<polygon style="fill-rule:evenodd;clip-rule:evenodd;fill:#010101;" points="46,15.737 41.923,17.134 32.271,13.357 28.205,14.328 
		30.238,10.888 41.923,10.888 37.096,11.961 46,15.737 	"/>
	<polygon style="fill-rule:evenodd;clip-rule:evenodd;fill:#010101;" points="46,15.737 41.923,17.134 32.271,13.357 28.205,14.328 
		30.238,10.888 41.923,10.888 37.096,11.961 46,15.737 	"/>
	<polygon style="fill-rule:evenodd;clip-rule:evenodd;fill:#FFFFFF;" points="28.849,8.185 33.03,9.479 42.243,5.715 46.748,6.789 
		44.61,3.336 33.03,3.336 37.855,4.422 28.849,8.185 	"/>
	<polygon style="fill-rule:evenodd;clip-rule:evenodd;fill:#FFFFFF;" points="28.849,8.185 33.03,9.479 42.243,5.715 46.748,6.789 
		44.61,3.336 33.03,3.336 37.855,4.422 28.849,8.185 	"/>
	<polygon style="fill-rule:evenodd;clip-rule:evenodd;fill:#FFFFFF;" points="27.24,11.961 23.38,10.564 13.833,14.65 9.329,13.681 
		11.799,17.134 23.058,17.134 18.233,15.737 27.24,11.961 	"/>
	<polygon style="fill-rule:evenodd;clip-rule:evenodd;fill:#FFFFFF;" points="27.24,11.961 23.38,10.564 13.833,14.65 9.329,13.681 
		11.799,17.134 23.058,17.134 18.233,15.737 27.24,11.961 	"/>
	<polygon style="fill-rule:evenodd;clip-rule:evenodd;fill:#FFFFFF;" points="10.397,4.422 14.476,3.013 23.805,7.112 28.205,5.715 
		25.837,9.155 14.476,9.155 19.301,8.185 10.397,4.422 	"/>
	<polygon style="fill-rule:evenodd;clip-rule:evenodd;fill:#FFFFFF;" points="10.397,4.422 14.476,3.013 23.805,7.112 28.205,5.715 
		25.837,9.155 14.476,9.155 19.301,8.185 10.397,4.422 	"/>
	<polygon style="fill-rule:evenodd;clip-rule:evenodd;fill:#FFFFFF;" points="46.322,16.06 42.243,17.457 32.709,13.681 
		28.205,14.65 30.561,11.211 41.923,11.211 37.418,12.284 46.322,16.06 	"/>
	<polygon style="fill-rule:evenodd;clip-rule:evenodd;fill:#FFFFFF;" points="46.322,16.06 42.243,17.457 32.709,13.681 
		28.205,14.65 30.561,11.211 41.923,11.211 37.418,12.284 46.322,16.06 	"/>
	<polygon style="fill-rule:evenodd;clip-rule:evenodd;fill:#FFFFFF;" points="28.849,8.185 33.03,9.479 42.243,5.715 46.748,6.789 
		44.61,3.336 33.03,3.336 37.855,4.422 28.849,8.185 	"/>
	<polygon style="fill-rule:evenodd;clip-rule:evenodd;fill:#FFFFFF;" points="28.849,8.185 33.03,9.479 42.243,5.715 46.748,6.789 
		44.61,3.336 33.03,3.336 37.855,4.422 28.849,8.185 	"/>
	<polygon style="fill-rule:evenodd;clip-rule:evenodd;fill:#FFFFFF;" points="27.24,11.961 23.38,10.564 13.833,14.65 9.329,13.681 
		11.799,17.134 23.058,17.134 18.233,15.737 27.24,11.961 	"/>
	<polygon style="fill-rule:evenodd;clip-rule:evenodd;fill:#FFFFFF;" points="27.24,11.961 23.38,10.564 13.833,14.65 9.329,13.681 
		11.799,17.134 23.058,17.134 18.233,15.737 27.24,11.961 	"/>
	<polygon style="fill-rule:evenodd;clip-rule:evenodd;fill:#FFFFFF;" points="10.397,4.422 14.476,3.013 23.805,7.112 28.205,5.715 
		25.837,9.155 14.476,9.155 19.301,8.185 10.397,4.422 	"/>
	<polygon style="fill-rule:evenodd;clip-rule:evenodd;fill:#FFFFFF;" points="10.397,4.422 14.476,3.013 23.805,7.112 28.205,5.715 
		25.837,9.155 14.476,9.155 19.301,8.185 10.397,4.422 	"/>
	<polygon style="fill-rule:evenodd;clip-rule:evenodd;fill:#FFFFFF;" points="46.322,16.06 42.243,17.457 32.709,13.681 
		28.205,14.65 30.561,11.211 41.923,11.211 37.418,12.284 46.322,16.06 	"/>
	<polygon style="fill-rule:evenodd;clip-rule:evenodd;fill:#FFFFFF;" points="46.322,16.06 42.243,17.457 32.709,13.681 
		28.205,14.65 30.561,11.211 41.923,11.211 37.418,12.284 46.322,16.06 	"/>
	<path style="fill:none;stroke:#AEE2FA;stroke-width:0.277;stroke-linecap:round;stroke-linejoin:round;stroke-miterlimit:10;" d="
		M28.038,0C12.558,0,0,4.513,0,10.073c0,5.573,12.558,10.073,28.038,10.073c15.492,0,28.037-4.5,28.037-10.073
		C56.075,4.513,43.53,0,28.038,0"/>
</g>
</svg>
