<?xml version="1.0" encoding="iso-8859-1"?>
<!DOCTYPE svg PUBLIC "-//W3C//DTD SVG 1.1//EN" "http://www.w3.org/Graphics/SVG/1.1/DTD/svg11.dtd">
<svg version="1.1" xmlns="http://www.w3.org/2000/svg" xmlns:xlink="http://www.w3.org/1999/xlink" width="32" height="42" viewBox="0 0 32 42">
<g>
	<polygon style="fill:#097EBA;" points="31.169,18.044 25.888,23.076 0.097,23.076 6.739,18.044 	"/>
	<polygon style="fill:none;stroke:#FFFFFF;stroke-width:0.4128;stroke-miterlimit:1;" points="31.169,18.044 25.888,23.076 
		0.097,23.076 6.739,18.044 	"/>
	<polygon style="fill:#1596D4;" points="25.79,22.958 0,23.273 0.213,42.988 26.003,42.772 	"/>
	
		<rect x="0.097" y="23.076" style="fill:none;stroke:#B0E2FA;stroke-width:0.2162;stroke-linecap:round;stroke-linejoin:round;stroke-miterlimit:10;" width="25.791" height="19.813"/>
	<polygon style="fill:#035B80;" points="30.665,38.055 30.665,18.241 25.692,23.076 25.692,42.89 	"/>
	
		<polygon style="fill:none;stroke:#B0E2FA;stroke-width:0.2162;stroke-linecap:round;stroke-linejoin:round;stroke-miterlimit:10;" points="
		30.665,38.055 30.665,18.241 25.692,23.076 25.692,42.89 	"/>
	<polygon style="fill:#48AFE2;" points="30.665,0.118 25.888,4.835 0.213,4.835 6.312,0.118 	"/>
	<polygon style="fill:none;stroke:#B0E2FA;stroke-width:0.2162;stroke-miterlimit:1;" points="30.665,0.118 25.888,4.835 
		0.213,4.835 6.312,0.118 	"/>
	<polygon style="fill-rule:evenodd;clip-rule:evenodd;fill:#1596D4;" points="0.097,4.835 0.097,23.273 25.888,23.273 25.888,4.835 
		0.097,4.835 	"/>
	
		<rect x="0.097" y="4.835" style="fill:none;stroke:#B0E2FA;stroke-width:0.2162;stroke-linecap:round;stroke-linejoin:round;stroke-miterlimit:10;" width="25.791" height="18.438"/>
	<polygon style="fill:#035B80;" points="30.665,18.457 30.665,0 25.692,4.835 25.692,23.273 	"/>
	
		<polygon style="fill:none;stroke:#B0E2FA;stroke-width:0.2162;stroke-linecap:round;stroke-linejoin:round;stroke-miterlimit:10;" points="
		30.665,18.457 30.665,0 25.692,4.835 25.692,23.273 	"/>
	<path style="fill:#010101;" d="M19.788,14.585c0,1.042,0,1.042,0,1.042c1.438-1.474,1.438-1.474,1.438-1.474
		c-1.438-1.455-1.438-1.455-1.438-1.455c0,0.944,0,0.944,0,0.944c-3.223,0-3.223,0-3.223,0c1.864-2.202,3.01-4.089,3.01-5.15
		c0-0.196-0.098-0.413-0.213-0.629c-0.098-0.098-0.311-0.196-0.506-0.196c-1.049,0.098-3.01,1.258-5.185,3.145
		c0-3.145,0-3.145,0-3.145c1.029,0,1.029,0,1.029,0c-1.437-1.475-1.437-1.475-1.437-1.475c-1.457,1.475-1.457,1.475-1.457,1.475
		c0.932,0,0.932,0,0.932,0c0,3.145,0,3.145,0,3.145C10.564,8.924,8.7,7.764,7.671,7.764c-0.214,0-0.427,0-0.622,0.216
		C6.933,8.079,6.836,8.295,6.836,8.491c0.097,1.062,1.243,2.949,3.107,5.15c-3.204,0-3.204,0-3.204,0c0-0.944,0-0.944,0-0.944
		c-1.457,1.455-1.457,1.455-1.457,1.455c1.457,1.474,1.457,1.474,1.457,1.474c0-1.042,0-1.042,0-1.042c3.204,0,3.204,0,3.204,0
		c-1.961,2.3-3.204,4.285-3.204,5.347c0,0.314,0.097,0.511,0.194,0.629c0.213,0.098,0.311,0.196,0.524,0.196l0,0
		c1.146,0,3.107-1.258,5.282-3.243c0,3.243,0,3.243,0,3.243c-0.932,0-0.932,0-0.932,0c1.457,1.475,1.457,1.475,1.457,1.475
		c1.437-1.475,1.437-1.475,1.437-1.475c-1.029,0-1.029,0-1.029,0c0-3.243,0-3.243,0-3.243c2.272,1.985,4.253,3.243,5.283,3.243l0,0
		c0.311,0,0.523-0.098,0.621-0.196c-0.098-0.118-0.098-0.118-0.098-0.118c0.098,0.118,0.098,0.118,0.098,0.118
		c0.098-0.216,0.213-0.433,0.213-0.629c0-1.062-1.359-3.047-3.32-5.347H19.788z M18.856,8.079c0.098,0,0.195,0,0.311,0.098
		c0,0,0.098,0.118,0.098,0.314c0,0.845-1.242,2.949-3.205,5.15c-0.213,0-0.213,0-0.213,0c0,0.196,0,0.196,0,0.196l0,0
		c-0.311-0.314-0.719-0.727-1.146-1.14c-0.311-0.432-0.718-0.747-1.126-1.16c0.097,0,0.097,0,0.097,0c0-0.216,0-0.216,0-0.216
		C15.944,9.336,17.925,8.079,18.856,8.079L18.856,8.079z M15.633,14.152c-0.408,0.433-0.815,0.845-1.243,1.258
		c-0.408,0.432-0.719,0.845-1.126,1.16c-0.427-0.314-0.738-0.629-1.146-1.042c-0.408-0.433-0.835-0.943-1.243-1.376
		c0.311-0.413,0.622-0.727,1.029-1.14c0.427-0.432,0.835-0.845,1.359-1.258c0.408,0.413,0.816,0.826,1.243,1.258
		C14.915,13.327,15.225,13.74,15.633,14.152L15.633,14.152z M7.244,8.491c0-0.098,0-0.196,0.116-0.314c0,0,0.097-0.098,0.311-0.098
		l0,0c0.815,0,2.894,1.258,5.068,3.243c0,0.216,0,0.216,0,0.216c0.214,0,0.214,0,0.214,0c-0.427,0.413-0.835,0.845-1.359,1.258
		c-0.311,0.315-0.622,0.728-1.029,1.042l0,0c0-0.196,0-0.196,0-0.196c-0.214,0-0.214,0-0.214,0C8.486,11.44,7.244,9.336,7.244,8.491
		L7.244,8.491z M7.457,20.344c-0.097,0-0.213,0-0.213,0c-0.097-0.098-0.097-0.216-0.097-0.413c-0.097-0.846,1.243-2.949,3.321-5.347
		c0.097,0,0.097,0,0.097,0c0-0.118,0-0.118,0-0.118l0,0c0.408,0.433,0.835,0.845,1.34,1.258c0.311,0.432,0.738,0.747,1.049,1.061
		c-0.214,0-0.214,0-0.214,0c0,0.197,0,0.197,0,0.197C10.467,19.086,8.389,20.442,7.457,20.344L7.457,20.344z M19.362,19.932
		c0,0.196,0,0.314-0.098,0.314l0,0c0,0.098-0.098,0.098-0.311,0.098c-0.836,0.098-2.894-1.258-5.283-3.361c0-0.197,0-0.197,0-0.197
		c-0.213,0-0.213,0-0.213,0c0.427-0.314,0.835-0.747,1.243-1.061c0.427-0.511,0.835-0.944,1.146-1.356v0.098
		c0,0.118,0,0.118,0,0.118c0.213,0,0.213,0,0.213,0C18.118,16.983,19.362,19.086,19.362,19.932L19.362,19.932z"/>
	<path style="fill:#FFFFFF;" d="M19.362,14.683c0,1.042,0,1.042,0,1.042c1.455-1.573,1.455-1.573,1.455-1.573
		c-1.455-1.455-1.455-1.455-1.455-1.455c0,1.042,0,1.042,0,1.042c-3.205,0-3.205,0-3.205,0c1.865-2.202,3.107-4.088,3.107-5.13
		c0-0.314-0.098-0.531-0.213-0.629c-0.195-0.118-0.408-0.216-0.623-0.216c-1.029,0-2.893,1.258-5.068,3.145c0-3.145,0-3.145,0-3.145
		c1.029,0,1.029,0,1.029,0C12.836,6.29,12.836,6.29,12.836,6.29c-1.437,1.474-1.437,1.474-1.437,1.474c1.029,0,1.029,0,1.029,0
		c0,3.145,0,3.145,0,3.145c-2.175-1.887-4.136-3.047-5.185-3.047c-0.194,0-0.408,0-0.505,0.216C6.622,8.177,6.525,8.393,6.525,8.609
		c0,1.042,1.243,2.929,3.01,5.13c-3.224,0-3.224,0-3.224,0c0-1.042,0-1.042,0-1.042c-1.437,1.455-1.437,1.455-1.437,1.455
		c1.437,1.573,1.437,1.573,1.437,1.573c0-1.042,0-1.042,0-1.042c3.321,0,3.321,0,3.321,0c-1.961,2.3-3.205,4.305-3.205,5.347
		c0,0.216,0,0.413,0.194,0.629c0.117,0.098,0.311,0.216,0.524,0.216l0,0c1.029-0.118,3.01-1.376,5.282-3.263
		c0,3.145,0,3.145,0,3.145c-1.029,0-1.029,0-1.029,0c1.437,1.475,1.437,1.475,1.437,1.475c1.554-1.475,1.554-1.475,1.554-1.475
		c-1.029,0-1.029,0-1.029,0c0-3.243,0-3.243,0-3.243c2.272,1.985,4.253,3.243,5.283,3.243l0,0c0.213,0,0.408,0,0.621-0.196
		c-0.213-0.118-0.213-0.118-0.213-0.118c0.213,0.118,0.213,0.118,0.213,0.118c0.098-0.118,0.098-0.314,0.098-0.531
		c0-1.042-1.244-3.047-3.205-5.347H19.362z M18.429,8.177c0.215,0,0.313,0,0.313,0.118c0.115,0,0.115,0.098,0.115,0.314
		c0,0.826-1.145,2.831-3.107,5.13c-0.213,0-0.213,0-0.213,0c0,0.216,0,0.216,0,0.216l0,0c-0.408-0.433-0.719-0.747-1.146-1.16
		c-0.408-0.413-0.815-0.845-1.243-1.16c0.213,0,0.213,0,0.213,0c0-0.196,0-0.196,0-0.196C15.633,9.336,17.614,8.079,18.429,8.177
		L18.429,8.177z M15.225,14.271c-0.311,0.413-0.718,0.825-1.146,1.258c-0.408,0.413-0.816,0.728-1.243,1.14
		c-0.311-0.314-0.718-0.727-1.029-1.042c-0.524-0.531-0.932-0.943-1.34-1.356c0.408-0.433,0.719-0.845,1.126-1.16
		c0.427-0.413,0.835-0.845,1.243-1.258c0.427,0.314,0.932,0.728,1.359,1.16C14.507,13.425,14.915,13.838,15.225,14.271
		L15.225,14.271z M6.836,8.609c0.097-0.216,0.097-0.216,0.097-0.314c0.116-0.118,0.213-0.118,0.311-0.118H7.36
		c0.816,0,2.797,1.258,5.069,3.263c0,0.196,0,0.196,0,0.196c0.097,0,0.097,0,0.097,0c-0.408,0.433-0.816,0.747-1.243,1.16
		c-0.311,0.413-0.718,0.846-1.029,1.16l0,0c0-0.216,0-0.216,0-0.216c-0.213,0-0.213,0-0.213,0C8.079,11.44,6.836,9.435,6.836,8.609
		L6.836,8.609z M7.146,20.442c-0.097,0-0.213,0-0.311-0.098c0,0-0.097-0.098-0.097-0.314c0-0.845,1.34-3.047,3.301-5.347
		c0.213,0,0.213,0,0.213,0c0-0.216,0-0.216,0-0.216l0,0c0.408,0.433,0.835,0.944,1.243,1.376c0.408,0.413,0.719,0.728,1.146,1.042
		c-0.213,0-0.213,0-0.213,0c0,0.216,0,0.216,0,0.216C10.157,19.185,7.981,20.442,7.146,20.442L7.146,20.442z M19.052,20.03
		c0,0.216,0,0.216-0.098,0.314l0,0c0,0.098-0.098,0.098-0.311,0.098c-0.836,0-3.011-1.258-5.283-3.341c0-0.216,0-0.216,0-0.216
		c-0.213,0-0.213,0-0.213,0c0.427-0.314,0.835-0.728,1.146-1.16c0.408-0.413,0.835-0.826,1.243-1.258l0,0c0,0.216,0,0.216,0,0.216
		c0.213,0,0.213,0,0.213,0C17.712,16.983,19.052,19.185,19.052,20.03L19.052,20.03z"/>
	<path style="fill:#035B80;" d="M14.817,16.354c1.243-0.826,1.553-2.614,0.719-3.873c-0.932-1.356-2.7-1.67-3.942-0.727
		c-1.34,0.826-1.651,2.614-0.719,3.971C11.807,16.983,13.575,17.297,14.817,16.354"/>
	<path style="fill:none;stroke:#003E56;stroke-width:0.3145;stroke-linecap:square;stroke-miterlimit:1;" d="M14.817,16.354
		c1.243-0.826,1.553-2.614,0.719-3.873c-0.932-1.356-2.7-1.67-3.942-0.727c-1.34,0.826-1.651,2.614-0.719,3.971
		C11.807,16.983,13.575,17.297,14.817,16.354"/>
	<polygon style="fill:#010101;" points="22.896,27.264 19.983,24.747 19.983,26.418 14.507,26.418 14.507,27.99 19.983,27.99 
		19.983,29.563 	"/>
	<polygon style="fill:#010101;" points="12.118,28.619 6.312,28.619 6.312,27.047 3.418,29.366 6.312,31.765 6.312,30.094 
		12.118,30.094 	"/>
	<polygon style="fill:#010101;" points="22.896,35.853 19.983,33.337 19.983,35.126 14.507,35.126 14.507,36.6 19.983,36.6 
		19.983,38.173 	"/>
	<polygon style="fill:#010101;" points="12.118,37.229 6.312,37.229 6.312,35.656 3.418,37.956 6.312,40.473 6.312,38.802 
		12.118,38.802 	"/>
	<polygon style="fill:#FFFFFF;" points="22.47,27.578 19.673,25.062 19.673,26.851 14.196,26.851 14.196,28.305 19.673,28.305 
		19.673,29.878 	"/>
	<polygon style="fill:#FFFFFF;" points="11.71,28.934 5.904,28.934 5.904,27.361 3.107,29.681 5.904,32.197 5.904,30.408 
		11.71,30.408 	"/>
	<polygon style="fill:#FFFFFF;" points="22.47,36.285 19.673,33.77 19.673,35.44 14.196,35.44 14.196,37.013 19.673,37.013 
		19.673,38.487 	"/>
	<polygon style="fill:#FFFFFF;" points="11.71,37.642 5.904,37.642 5.904,35.971 3.107,38.271 5.904,40.787 5.904,39.116 
		11.71,39.116 	"/>
</g>
</svg>