<?xml version="1.0" encoding="iso-8859-1"?>
<!DOCTYPE svg PUBLIC "-//W3C//DTD SVG 1.1//EN" "http://www.w3.org/Graphics/SVG/1.1/DTD/svg11.dtd">
<svg version="1.1" xmlns="http://www.w3.org/2000/svg" xmlns:xlink="http://www.w3.org/1999/xlink" width="37" height="37" viewBox="0 0 37 37">
<g>
	<polygon style="fill-rule:evenodd;clip-rule:evenodd;fill:#0D96D4;" points="0,3.848 0,36.099 32.601,36.099 32.601,3.848 0,3.848 
			"/>
	<polygon style="fill-rule:evenodd;clip-rule:evenodd;fill:#0D96D4;" points="0,3.848 0,36.099 32.601,36.099 32.601,3.848 0,3.848 
			"/>
	
		<rect y="3.848" style="fill:none;stroke:#AEE2FA;stroke-width:0.2936;stroke-linecap:round;stroke-miterlimit:10;" width="32.601" height="32.25"/>
	<polygon style="fill-rule:evenodd;clip-rule:evenodd;fill:#45AFE3;" points="0,3.848 4.15,0 36.749,0 32.601,3.848 	"/>
	<polygon style="fill-rule:evenodd;clip-rule:evenodd;fill:#45AFE3;" points="0,3.848 4.15,0 36.749,0 32.601,3.848 	"/>
	<polygon style="fill:none;stroke:#AEE2FA;stroke-width:0.2936;stroke-linecap:round;stroke-miterlimit:10;" points="0,3.848 
		4.15,0 36.749,0 32.601,3.848 	"/>
	<polygon style="fill-rule:evenodd;clip-rule:evenodd;fill:#015B80;" points="32.601,3.848 36.749,0 36.749,31.957 32.601,35.805 	
		"/>
	<polygon style="fill-rule:evenodd;clip-rule:evenodd;fill:#015B80;" points="32.601,3.848 36.749,0 36.749,31.957 32.601,35.805 	
		"/>
	<polygon style="fill:none;stroke:#AEE2FA;stroke-width:0.2936;stroke-linecap:round;stroke-miterlimit:10;" points="32.601,3.848 
		36.749,0 36.749,31.957 32.601,35.805 	"/>
	<polygon style="fill-rule:evenodd;clip-rule:evenodd;fill:#010101;" points="10.667,20.12 10.667,10.359 7.702,10.359 
		11.852,5.326 16.001,10.359 12.743,10.359 12.743,16.566 12.743,16.566 	"/>
	<polygon style="fill-rule:evenodd;clip-rule:evenodd;fill:#010101;" points="10.667,20.12 10.667,10.359 7.702,10.359 
		11.852,5.326 16.001,10.359 12.743,10.359 12.743,16.566 	"/>
	<polygon style="fill-rule:evenodd;clip-rule:evenodd;fill:#010101;" points="16.599,13.609 26.376,13.609 26.376,10.652 
		31.417,14.794 26.376,18.936 26.376,15.979 19.858,15.979 19.858,15.979 	"/>
	<polygon style="fill-rule:evenodd;clip-rule:evenodd;fill:#010101;" points="16.599,13.609 26.376,13.609 26.376,10.652 
		31.417,14.794 26.376,18.936 26.376,15.979 19.858,15.979 	"/>
	<polygon style="fill-rule:evenodd;clip-rule:evenodd;fill:#010101;" points="23.116,20.12 23.116,29.588 26.083,29.588 
		21.933,34.62 17.479,29.588 20.749,29.588 20.749,23.37 20.749,23.37 20.444,23.37 20.444,23.37 20.444,23.37 	"/>
	<polygon style="fill-rule:evenodd;clip-rule:evenodd;fill:#010101;" points="23.116,20.12 23.116,29.588 26.083,29.588 
		21.933,34.62 17.479,29.588 20.749,29.588 20.749,23.37 20.444,23.37 	"/>
	<polygon style="fill-rule:evenodd;clip-rule:evenodd;fill:#010101;" points="16.892,26.631 7.115,26.631 7.115,29.588 
		2.075,25.446 7.115,21.305 7.115,24.262 13.633,24.262 13.633,24.262 	"/>
	<polygon style="fill-rule:evenodd;clip-rule:evenodd;fill:#010101;" points="16.892,26.631 7.115,26.631 7.115,29.588 
		2.075,25.446 7.115,21.305 7.115,24.262 13.633,24.262 	"/>
	<path style="fill:none;stroke:#010101;stroke-width:1.7824;stroke-linecap:round;stroke-miterlimit:10;" d="M22.823,20.12
		c0,3.596-2.725,6.511-6.078,6.511c-3.354,0-6.078-2.915-6.078-6.511c0-3.596,2.725-6.511,6.078-6.511
		C20.099,13.609,22.823,16.524,22.823,20.12"/>
	<polygon style="fill-rule:evenodd;clip-rule:evenodd;fill:#FFFFFF;" points="10.961,20.414 10.961,10.652 8.006,10.652 
		12.145,5.62 16.295,10.652 13.036,10.652 13.036,16.859 13.036,16.859 	"/>
	<polygon style="fill-rule:evenodd;clip-rule:evenodd;fill:#FFFFFF;" points="10.961,20.414 10.961,10.652 8.006,10.652 
		12.145,5.62 16.295,10.652 13.036,10.652 13.036,16.859 	"/>
	<polygon style="fill-rule:evenodd;clip-rule:evenodd;fill:#FFFFFF;" points="16.892,13.903 26.669,13.903 26.669,10.946 
		31.71,15.087 26.669,19.229 26.669,16.272 20.151,16.272 20.151,16.272 	"/>
	<polygon style="fill-rule:evenodd;clip-rule:evenodd;fill:#FFFFFF;" points="16.892,13.903 26.669,13.903 26.669,10.946 
		31.71,15.087 26.669,19.229 26.669,16.272 20.151,16.272 	"/>
	<polygon style="fill-rule:evenodd;clip-rule:evenodd;fill:#FFFFFF;" points="23.409,20.414 23.409,29.881 26.376,29.881 
		22.226,34.914 17.783,29.881 21.042,29.881 21.042,23.675 21.042,23.675 20.749,23.675 20.749,23.675 20.749,23.675 	"/>
	<polygon style="fill-rule:evenodd;clip-rule:evenodd;fill:#FFFFFF;" points="23.409,20.414 23.409,29.881 26.376,29.881 
		22.226,34.914 17.783,29.881 21.042,29.881 21.042,23.675 20.749,23.675 	"/>
	<polygon style="fill-rule:evenodd;clip-rule:evenodd;fill:#FFFFFF;" points="17.186,26.925 7.409,26.925 7.409,29.881 2.368,25.74 
		7.409,21.599 7.409,24.555 13.927,24.555 13.927,24.555 	"/>
	<polygon style="fill-rule:evenodd;clip-rule:evenodd;fill:#FFFFFF;" points="17.186,26.925 7.409,26.925 7.409,29.881 2.368,25.74 
		7.409,21.599 7.409,24.555 13.927,24.555 	"/>
	<path style="fill:none;stroke:#FFFFFF;stroke-width:1.7824;stroke-linecap:round;stroke-miterlimit:10;" d="M23.116,20.414
		c0,3.596-2.725,6.511-6.077,6.511c-3.354,0-6.078-2.915-6.078-6.511c0-3.597,2.725-6.511,6.078-6.511
		C20.392,13.903,23.116,16.817,23.116,20.414"/>
</g>
</svg>