<?xml version="1.0" encoding="iso-8859-1"?>
<!DOCTYPE svg PUBLIC "-//W3C//DTD SVG 1.1//EN" "http://www.w3.org/Graphics/SVG/1.1/DTD/svg11.dtd">
<svg version="1.1" xmlns="http://www.w3.org/2000/svg" xmlns:xlink="http://www.w3.org/1999/xlink" width="53" height="27" viewBox="0 0 53 27">
<g>
	<polygon style="fill-rule:evenodd;clip-rule:evenodd;fill:#1B95C2;" points="1.807,12.49 1.807,26.474 43.367,26.474 43.367,12.49 
		1.807,12.49 	"/>
	<polygon style="fill:none;stroke:#AEDDEA;stroke-width:0.3701;stroke-linecap:round;stroke-miterlimit:10;" points="1.807,12.49 
		1.807,26.474 43.367,26.474 43.367,12.49 1.807,12.49 	"/>
	<polygon style="fill-rule:evenodd;clip-rule:evenodd;fill:#185C80;" points="43.367,12.49 55.994,0 55.994,13.984 43.367,26.474 
		43.367,12.49 	"/>
	<polygon style="fill:none;stroke:#AEDDEA;stroke-width:0.3701;stroke-linecap:round;stroke-miterlimit:10;" points="43.367,12.49 
		55.994,0 55.994,13.984 43.367,26.474 43.367,12.49 	"/>
	<polygon style="fill:#23A8CB;" points="43.367,12.49 55.994,0 14.434,0 1.807,12.49 43.367,12.49 	"/>
	<polygon style="fill:none;stroke:#AEDDEA;stroke-width:0.3701;stroke-linecap:round;stroke-miterlimit:10;" points="43.367,12.49 
		55.994,0 14.434,0 1.807,12.49 43.367,12.49 	"/>
	<polygon style="fill-rule:evenodd;clip-rule:evenodd;fill:#010101;" points="27.529,6.331 26.031,7.825 36.865,7.825 34.979,9.596 
		43.74,7.177 39.127,5.406 38.189,6.331 27.529,6.331 	"/>
	<polygon style="fill-rule:evenodd;clip-rule:evenodd;fill:#010101;" points="32.719,1.203 31.207,2.696 42.043,2.696 40.17,4.467 
		48.932,2.049 44.316,0.278 43.367,1.203 32.719,1.203 	"/>
	<polygon style="fill-rule:evenodd;clip-rule:evenodd;fill:#010101;" points="23.663,10.164 25.175,8.67 14.434,8.67 16.226,6.899 
		7.451,9.318 12.08,11.089 13.109,10.164 23.663,10.164 	"/>
	<polygon style="fill-rule:evenodd;clip-rule:evenodd;fill:#010101;" points="28.853,5.036 30.365,3.542 19.61,3.542 21.403,1.771 
		12.641,4.19 17.256,5.961 18.299,5.036 28.853,5.036 	"/>
	<polygon style="fill-rule:evenodd;clip-rule:evenodd;fill:#FFFFFF;" points="27.903,6.714 26.405,8.195 37.24,8.195 35.354,9.979 
		44.115,7.547 39.5,5.776 38.564,6.714 27.903,6.714 	"/>
	<polygon style="fill-rule:evenodd;clip-rule:evenodd;fill:#FFFFFF;" points="33.094,1.586 31.582,3.066 42.43,3.066 40.545,4.837 
		49.305,2.419 44.691,0.648 43.74,1.586 33.094,1.586 	"/>
	<polygon style="fill-rule:evenodd;clip-rule:evenodd;fill:#FFFFFF;" points="24.051,10.534 25.549,9.041 14.808,9.041 16.601,7.27 
		7.839,9.688 12.454,11.459 13.484,10.534 24.051,10.534 	"/>
	<polygon style="fill-rule:evenodd;clip-rule:evenodd;fill:#FFFFFF;" points="29.228,5.406 30.738,3.913 19.998,3.913 21.777,2.141 
		13.016,4.56 17.63,6.331 18.674,5.406 29.228,5.406 	"/>
	<polygon style="fill:#010101;" points="13.109,17.803 13.109,15.015 13.578,15.015 12.829,13.984 12.173,15.015 12.641,15.015 
		12.641,17.803 	"/>
	<polygon style="fill:#010101;" points="11.691,18.266 9.712,16.217 10.006,15.94 8.775,15.663 9.056,16.878 9.337,16.587 
		11.317,18.557 	"/>
	<polygon style="fill:#010101;" points="10.942,19.482 8.12,19.482 8.12,19.02 7.077,19.759 8.12,20.42 8.12,19.945 10.942,19.945 	
		"/>
	<polygon style="fill:#010101;" points="11.317,20.883 9.337,22.932 9.056,22.562 8.775,23.778 10.006,23.592 9.712,23.209 
		11.691,21.253 	"/>
	<polygon style="fill:#010101;" points="12.641,21.624 12.641,24.425 12.173,24.425 12.829,25.457 13.578,24.425 13.109,24.425 
		13.109,21.624 	"/>
	<polygon style="fill:#010101;" points="14.434,18.557 16.413,16.587 16.694,16.878 16.975,15.663 15.745,15.94 16.039,16.217 
		14.059,18.266 	"/>
	<polygon style="fill:#010101;" points="14.621,22.099 14.621,22.099 14.996,21.729 15.37,21.253 15.651,20.698 15.745,20.236 
		15.852,19.667 15.745,19.112 15.557,18.557 15.276,18.082 15.276,18.082 14.902,17.619 14.434,17.249 13.965,17.063 13.39,16.878 
		12.829,16.878 12.267,16.878 11.798,17.063 11.223,17.341 11.223,17.341 10.849,17.711 10.474,18.173 10.193,18.65 10.1,19.205 
		10.006,19.759 10.1,20.328 10.287,20.883 10.568,21.346 10.568,21.346 10.942,21.822 11.411,22.192 11.892,22.376 12.454,22.562 
		12.922,22.562 13.484,22.562 14.059,22.376 14.621,22.099 	"/>
	<polygon style="fill:#010101;" points="14.34,21.253 16.32,23.209 15.945,23.592 17.256,23.778 16.975,22.562 16.601,22.932 
		14.621,20.883 	"/>
	
		<line style="fill:none;stroke:#010101;stroke-width:1.216;stroke-linecap:round;stroke-miterlimit:10;" x1="14.527" y1="19.759" x2="33" y2="19.759"/>
	<polygon style="fill:#010101;" points="34.23,20.976 34.23,22.932 33.842,22.932 34.324,23.685 34.887,22.932 34.512,22.932 
		34.512,20.976 	"/>
	<polygon style="fill:#010101;" points="35.166,20.698 36.584,22.099 36.396,22.284 37.24,22.469 37.053,21.624 36.865,21.915 
		35.447,20.513 	"/>
	<polygon style="fill:#010101;" points="35.729,19.852 37.709,19.852 37.709,20.143 38.471,19.667 37.709,19.205 37.709,19.482 
		35.729,19.482 	"/>
	<polygon style="fill:#010101;" points="35.447,18.834 36.865,17.433 37.053,17.711 37.24,16.786 36.396,16.971 36.584,17.249 
		35.166,18.65 	"/>
	<polygon style="fill:#010101;" points="34.512,18.372 34.512,16.403 34.887,16.403 34.324,15.663 33.842,16.403 34.23,16.403 
		34.23,18.372 	"/>
	<polygon style="fill:#010101;" points="33.281,20.513 31.863,21.915 31.676,21.624 31.488,22.469 32.344,22.284 32.156,22.099 
		33.563,20.698 	"/>
	<polygon style="fill:#010101;" points="33.188,17.989 33.188,17.989 32.813,18.266 32.625,18.65 32.438,18.927 32.344,19.297 
		32.344,19.667 32.344,20.143 32.438,20.513 32.625,20.791 32.625,20.791 32.906,21.161 33.281,21.346 33.563,21.531 33.936,21.624 
		34.324,21.729 34.793,21.624 35.166,21.531 35.447,21.346 35.447,21.346 35.822,21.068 36.01,20.791 36.211,20.42 36.305,20.05 
		36.396,19.667 36.305,19.297 36.211,18.927 36.01,18.557 36.01,18.557 35.729,18.173 35.447,17.989 35.072,17.803 34.699,17.711 
		34.324,17.711 33.936,17.711 33.563,17.803 33.188,17.989 	"/>
	<polygon style="fill:#010101;" points="33.375,18.65 31.957,17.249 32.156,16.971 31.301,16.786 31.488,17.711 31.676,17.433 
		33.094,18.834 	"/>
	<polygon style="fill:#FFFFFF;" points="12.735,17.433 12.735,14.631 13.203,14.631 12.454,13.614 11.798,14.631 12.267,14.631 
		12.267,17.433 	"/>
	<polygon style="fill:#FFFFFF;" points="11.317,17.896 9.337,15.847 9.618,15.57 8.401,15.292 8.682,16.495 8.963,16.217 
		10.942,18.173 	"/>
	<polygon style="fill:#FFFFFF;" points="10.568,19.112 7.732,19.112 7.732,18.65 6.702,19.389 7.732,20.05 7.732,19.575 
		10.568,19.575 	"/>
	<polygon style="fill:#FFFFFF;" points="10.942,20.513 8.963,22.562 8.682,22.192 8.401,23.408 9.618,23.209 9.337,22.839 
		11.317,20.883 	"/>
	<polygon style="fill:#FFFFFF;" points="12.267,21.253 12.267,24.055 11.798,24.055 12.454,25.086 13.203,24.055 12.735,24.055 
		12.735,21.253 	"/>
	<polygon style="fill:#FFFFFF;" points="14.059,18.173 16.039,16.217 16.32,16.495 16.601,15.292 15.37,15.57 15.651,15.847 
		13.671,17.896 	"/>
	<polygon style="fill:#FFFFFF;" points="14.246,21.729 14.246,21.729 14.621,21.346 14.996,20.883 15.276,20.328 15.37,19.852 
		15.463,19.297 15.37,18.742 15.183,18.173 14.902,17.711 14.902,17.711 14.527,17.249 14.059,16.878 13.578,16.693 13.016,16.495 
		12.454,16.495 11.892,16.495 11.411,16.693 10.849,16.971 10.849,16.971 10.474,17.341 10.1,17.803 9.819,18.266 9.712,18.834 
		9.618,19.389 9.712,19.945 9.913,20.513 10.193,20.976 10.193,20.976 10.568,21.438 11.036,21.822 11.504,22.006 12.08,22.192 
		12.547,22.192 13.109,22.192 13.671,22.006 14.246,21.729 	"/>
	<polygon style="fill:#FFFFFF;" points="13.965,20.883 15.945,22.839 15.557,23.209 16.881,23.408 16.601,22.192 16.226,22.562 
		14.246,20.513 	"/>
	
		<line style="fill:none;stroke:#FFFFFF;stroke-width:1.216;stroke-linecap:round;stroke-miterlimit:10;" x1="14.153" y1="19.389" x2="32.625" y2="19.389"/>
	<polygon style="fill:#FFFFFF;" points="33.842,20.606 33.842,22.562 33.469,22.562 33.936,23.302 34.512,22.562 34.137,22.562 
		34.137,20.606 	"/>
	<polygon style="fill:#FFFFFF;" points="34.793,20.328 36.211,21.729 36.01,21.915 36.865,22.099 36.678,21.253 36.49,21.531 
		35.072,20.143 	"/>
	<polygon style="fill:#FFFFFF;" points="35.354,19.482 37.334,19.482 37.334,19.759 38.096,19.297 37.334,18.834 37.334,19.112 
		35.354,19.112 	"/>
	<polygon style="fill:#FFFFFF;" points="35.072,18.464 36.49,17.063 36.678,17.341 36.865,16.403 36.01,16.587 36.211,16.878 
		34.793,18.266 	"/>
	<polygon style="fill:#FFFFFF;" points="34.137,17.989 34.137,16.033 34.512,16.033 33.936,15.292 33.469,16.033 33.842,16.033 
		33.842,17.989 	"/>
	<polygon style="fill:#FFFFFF;" points="32.906,20.143 31.488,21.531 31.301,21.253 31.113,22.099 31.957,21.915 31.77,21.729 
		33.188,20.328 	"/>
	<polygon style="fill:#FFFFFF;" points="32.813,17.619 32.813,17.619 32.438,17.896 32.25,18.266 32.063,18.557 31.957,18.927 
		31.957,19.297 31.957,19.759 32.063,20.143 32.25,20.42 32.25,20.42 32.531,20.791 32.906,20.976 33.188,21.161 33.563,21.253 
		33.936,21.346 34.418,21.253 34.793,21.161 35.072,20.976 35.072,20.976 35.447,20.698 35.635,20.42 35.822,20.05 35.916,19.667 
		36.01,19.297 35.916,18.927 35.822,18.557 35.635,18.173 35.635,18.173 35.354,17.803 35.072,17.619 34.699,17.433 34.324,17.341 
		33.936,17.341 33.563,17.341 33.188,17.433 32.813,17.619 	"/>
	<polygon style="fill:#FFFFFF;" points="33,18.266 31.582,16.878 31.77,16.587 30.926,16.403 31.113,17.341 31.301,17.063 
		32.719,18.464 	"/>
</g>
</svg>