<?xml version="1.0" encoding="utf-8"?>
<!DOCTYPE svg PUBLIC "-//W3C//DTD SVG 1.1//EN" "http://www.w3.org/Graphics/SVG/1.1/DTD/svg11.dtd">
<svg version="1.1" xmlns="http://www.w3.org/2000/svg" xmlns:xlink="http://www.w3.org/1999/xlink" width="40" height="37" viewBox="0 0 40 37">
<g>
	<polygon fill="#0D96D4" points="0,3.908 0,36.666 34.884,36.666 34.884,3.908 	"/>
	<polygon fill="#0D96D4" points="0,3.908 0,36.666 34.884,36.666 34.884,3.908 	"/>
	
		<rect x="0" y="3.908" fill="none" stroke="#AEE2FA" stroke-width="0.2205" stroke-linecap="round" stroke-miterlimit="10" width="34.883" height="32.758"/>
	<polygon fill="#45AFE3" points="0,3.908 4.447,0 39.32,0 34.884,3.908 	"/>
	<polygon fill="#45AFE3" points="0,3.908 4.447,0 39.32,0 34.884,3.908 	"/>
	<polygon fill="none" stroke="#AEE2FA" stroke-width="0.2205" stroke-linecap="round" stroke-miterlimit="10" points="0,3.908 
		4.447,0 39.32,0 34.884,3.908 	"/>
	<polygon fill="#015B80" points="34.884,3.908 39.32,0 39.32,32.46 34.884,36.367 	"/>
	<polygon fill="#015B80" points="34.884,3.908 39.32,0 39.32,32.46 34.884,36.367 	"/>
	<polygon fill="none" stroke="#AEE2FA" stroke-width="0.2205" stroke-linecap="round" stroke-miterlimit="10" points="34.884,3.908 
		39.32,0 39.32,32.46 34.884,36.367 	"/>
	<polygon fill="#010101" points="13.635,18.643 4.447,18.643 4.447,17.439 1.588,19.835 4.447,22.55 4.447,21.347 13.635,21.347 	
		"/>
	<polygon fill="#010101" points="13.635,18.643 4.447,18.643 4.447,17.439 1.588,19.835 4.447,22.55 4.447,21.347 13.635,21.347 	
		"/>
	<polygon fill="#010101" points="15.538,16.833 8.884,10.52 9.83,9.625 6.035,9.625 6.035,13.224 6.981,12.329 13.635,18.643 	"/>
	<polygon fill="#010101" points="15.538,16.833 8.884,10.52 9.83,9.625 6.035,9.625 6.035,13.224 6.981,12.329 13.635,18.643 	"/>
	<polygon fill="#010101" points="18.398,16.833 18.398,7.815 19.659,7.815 17.125,5.419 14.277,7.815 15.538,7.815 15.538,16.833 	
		"/>
	<polygon fill="#010101" points="18.398,16.833 18.398,7.815 19.659,7.815 17.125,5.419 14.277,7.815 15.538,7.815 15.538,16.833 	
		"/>
	<polygon fill="#010101" points="20.301,18.643 26.955,12.329 27.914,13.224 27.914,9.625 24.107,9.625 25.053,10.52 18.398,16.833 
			"/>
	<polygon fill="#010101" points="20.301,18.643 26.955,12.329 27.914,13.224 27.914,9.625 24.107,9.625 25.053,10.52 18.398,16.833 
			"/>
	<polygon fill="#010101" points="20.301,21.347 29.817,21.347 29.817,22.55 32.35,19.835 29.817,17.439 29.817,18.643 
		20.301,18.643 	"/>
	<polygon fill="#010101" points="20.301,21.347 29.817,21.347 29.817,22.55 32.35,19.835 29.817,17.439 29.817,18.643 
		20.301,18.643 	"/>
	<polygon fill="#010101" points="18.398,23.145 25.053,29.459 24.107,30.353 27.914,30.056 27.914,26.755 26.955,27.649 
		20.301,21.347 	"/>
	<polygon fill="#010101" points="18.398,23.145 25.053,29.459 24.107,30.353 27.914,30.056 27.914,26.755 26.955,27.649 
		20.301,21.347 	"/>
	<polygon fill="#010101" points="15.538,23.145 15.538,32.164 14.277,32.164 17.125,34.569 19.659,32.164 18.398,32.164 
		18.398,23.145 	"/>
	<polygon fill="#010101" points="15.538,23.145 15.538,32.164 14.277,32.164 17.125,34.569 19.659,32.164 18.398,32.164 
		18.398,23.145 	"/>
	<polygon fill="#010101" points="13.635,21.347 6.981,27.649 6.035,26.755 6.035,30.353 9.83,30.353 8.884,29.459 15.538,23.145 	
		"/>
	<polygon fill="#010101" points="13.635,21.347 6.981,27.649 6.035,26.755 6.035,30.353 9.83,30.353 8.884,29.459 15.538,23.145 	
		"/>
	<polygon fill="#FFFFFF" points="13.962,18.94 4.763,18.94 4.763,17.737 1.902,20.142 4.763,22.846 4.763,21.644 13.962,21.644 	"/>
	<polygon fill="#FFFFFF" points="13.962,18.94 4.763,18.94 4.763,17.737 1.902,20.142 4.763,22.846 4.763,21.644 13.962,21.644 	"/>
	<polygon fill="#FFFFFF" points="15.853,17.129 9.199,10.827 10.156,9.923 6.35,9.923 6.35,13.531 7.296,12.627 13.962,18.94 	"/>
	<polygon fill="#FFFFFF" points="15.853,17.129 9.199,10.827 10.156,9.923 6.35,9.923 6.35,13.531 7.296,12.627 13.962,18.94 	"/>
	<polygon fill="#FFFFFF" points="18.715,17.129 18.715,8.123 19.986,8.123 17.441,5.718 14.593,8.123 15.853,8.123 15.853,17.129 	
		"/>
	<polygon fill="#FFFFFF" points="18.715,17.129 18.715,8.123 19.986,8.123 17.441,5.718 14.593,8.123 15.853,8.123 15.853,17.129 	
		"/>
	<polygon fill="#FFFFFF" points="20.615,18.94 27.271,12.627 28.227,13.531 28.227,9.923 24.424,9.923 25.369,10.827 18.715,17.129 
			"/>
	<polygon fill="#FFFFFF" points="20.615,18.94 27.271,12.627 28.227,13.531 28.227,9.923 24.424,9.923 25.369,10.827 18.715,17.129 
			"/>
	<polygon fill="#FFFFFF" points="20.615,21.644 30.132,21.644 30.132,22.846 32.667,20.142 30.132,17.737 30.132,18.94 
		20.615,18.94 	"/>
	<polygon fill="#FFFFFF" points="20.615,21.644 30.132,21.644 30.132,22.846 32.667,20.142 30.132,17.737 30.132,18.94 
		20.615,18.94 	"/>
	<polygon fill="#FFFFFF" points="18.715,23.444 25.369,29.756 24.424,30.662 28.227,30.353 28.227,27.052 27.271,27.958 
		20.615,21.644 	"/>
	<polygon fill="#FFFFFF" points="18.715,23.444 25.369,29.756 24.424,30.662 28.227,30.353 28.227,27.052 27.271,27.958 
		20.615,21.644 	"/>
	<polygon fill="#FFFFFF" points="15.853,23.444 15.853,32.46 14.593,32.46 17.441,34.868 19.986,32.46 18.715,32.46 18.715,23.444 	
		"/>
	<polygon fill="#FFFFFF" points="15.853,23.444 15.853,32.46 14.593,32.46 17.441,34.868 19.986,32.46 18.715,32.46 18.715,23.444 	
		"/>
	<polygon fill="#FFFFFF" points="13.962,21.644 7.296,27.958 6.35,27.052 6.35,30.662 10.156,30.662 9.199,29.756 15.853,23.444 	
		"/>
	<polygon fill="#FFFFFF" points="13.962,21.644 7.296,27.958 6.35,27.052 6.35,30.662 10.156,30.662 9.199,29.756 15.853,23.444 	
		"/>
	<path fill="#010101" d="M22.204,20.142c0,2.651-2.342,4.803-5.234,4.803c-2.894,0-5.236-2.151-5.236-4.803
		c0-2.661,2.342-4.813,5.236-4.813C19.862,15.331,22.204,17.481,22.204,20.142"/>
	<path fill="#FFFFFF" d="M22.836,20.739c0,2.663-2.343,4.813-5.235,4.813c-2.883,0-5.225-2.15-5.225-4.813
		c0-2.65,2.342-4.801,5.225-4.801C20.491,15.938,22.836,18.088,22.836,20.739"/>
	<path fill="#045C76" d="M22.519,20.441c0,2.651-2.34,4.813-5.235,4.813c-2.882,0-5.225-2.162-5.225-4.813
		c0-2.65,2.343-4.812,5.225-4.812C20.178,15.629,22.519,17.791,22.519,20.441"/>
</g>
</svg>
