<?xml version="1.0" encoding="iso-8859-1"?>
<!DOCTYPE svg PUBLIC "-//W3C//DTD SVG 1.1//EN" "http://www.w3.org/Graphics/SVG/1.1/DTD/svg11.dtd">
<svg version="1.1" xmlns="http://www.w3.org/2000/svg" xmlns:xlink="http://www.w3.org/1999/xlink" width="69" height="42" viewBox="0 0 69 42">
<g>
	<path style="fill-rule:evenodd;clip-rule:evenodd;fill:#0A99D3;" d="M53.433,8.58c0,4.646-6.688,8.414-14.945,8.414
		c-8.251,0-14.94-3.769-14.94-8.414c0-4.645,6.688-8.414,14.94-8.414C46.745,0.166,53.433,3.935,53.433,8.58"/>
	<path style="fill-rule:evenodd;clip-rule:evenodd;fill:#0A99D3;" d="M29.893,13.038c0,4.645-5.126,8.414-11.441,8.414
		c-6.316,0-11.436-3.769-11.436-8.414c0-4.651,5.12-8.414,11.436-8.414C24.767,4.624,29.893,8.387,29.893,13.038"/>
	<path style="fill-rule:evenodd;clip-rule:evenodd;fill:#0A99D3;" d="M15.361,21.697c0,3.781-3.439,6.849-7.677,6.849
		c-4.244,0-7.683-3.067-7.683-6.849c0-3.78,3.439-6.848,7.683-6.848C11.922,14.849,15.361,17.917,15.361,21.697"/>
	<path style="fill-rule:evenodd;clip-rule:evenodd;fill:#0A99D3;" d="M27.886,28.375c0,4.103-5.197,7.427-11.607,7.427
		c-6.405,0-11.602-3.324-11.602-7.427c0-4.096,5.197-7.42,11.602-7.42C22.689,20.955,27.886,24.28,27.886,28.375"/>
	<path style="fill-rule:evenodd;clip-rule:evenodd;fill:#0A99D3;" d="M55.937,32.255c0,4.873-7.771,8.829-17.359,8.829
		c-9.596,0-17.368-3.956-17.368-8.829s7.772-8.829,17.368-8.829C48.165,23.426,55.937,27.382,55.937,32.255"/>
	<path style="fill-rule:evenodd;clip-rule:evenodd;fill:#0A99D3;" d="M65.626,11.717c0,3.64-4.971,6.597-11.104,6.597
		s-11.104-2.957-11.104-6.597c0-3.646,4.971-6.603,11.104-6.603S65.626,8.071,65.626,11.717"/>
	<path style="fill-rule:evenodd;clip-rule:evenodd;fill:#0A99D3;" d="M68.8,20.295c0,3.646-4.938,6.597-11.021,6.597
		c-6.092,0-11.021-2.951-11.021-6.597s4.93-6.603,11.021-6.603C63.862,13.692,68.8,16.649,68.8,20.295"/>
	<path style="fill-rule:evenodd;clip-rule:evenodd;fill:#0A99D3;" d="M66.628,27.388c0,6.013-4.896,10.892-10.939,10.892
		c-6.037,0-10.939-4.879-10.939-10.892s4.902-10.891,10.939-10.891C61.731,16.497,66.628,21.375,66.628,27.388"/>
	<path style="fill-rule:evenodd;clip-rule:evenodd;fill:#0A99D3;" d="M57.108,20.792c0,6.013-9.979,10.886-22.291,10.886
		c-12.312,0-22.292-4.873-22.292-10.886c0-6.018,9.98-10.891,22.292-10.891C47.13,9.9,57.108,14.773,57.108,20.792"/>
	<path style="fill-rule:evenodd;clip-rule:evenodd;fill:#0A99D3;" d="M52.741,5.413C49.71,1.042,40.95-1.12,33.172,0.581
		c-4.208,0.923-7.458,2.852-8.873,5.265l14.36,2.653L52.741,5.413z"/>
	<path style="fill:none;stroke:#6C8F93;stroke-width:0.3272;stroke-linecap:round;stroke-miterlimit:10;" d="M52.741,5.413
		C49.71,1.042,40.95-1.12,33.172,0.581c-4.208,0.923-7.458,2.852-8.873,5.265"/>
	<path style="fill-rule:evenodd;clip-rule:evenodd;fill:#0A99D3;" d="M24.684,5.769c-5.381-2.506-12.496-1.32-15.893,2.647
		c-1.634,1.911-2.172,4.225-1.492,6.427l11.234-1.893L24.684,5.769z"/>
	<path style="fill:none;stroke:#6C8F93;stroke-width:0.3272;stroke-linecap:round;stroke-miterlimit:10;" d="M24.684,5.769
		c-5.381-2.506-12.496-1.32-15.893,2.647c-1.634,1.911-2.172,4.225-1.492,6.427"/>
	<path style="fill-rule:evenodd;clip-rule:evenodd;fill:#0A99D3;" d="M4.518,27.996c-0.255,4.236,4.877,7.801,11.465,7.965
		c2.196,0.058,4.368-0.281,6.286-0.965l-5.819-6.701L4.518,27.996z"/>
	<path style="fill:none;stroke:#6C8F93;stroke-width:0.3272;stroke-linecap:round;stroke-miterlimit:10;" d="M4.518,27.996
		c-0.255,4.236,4.877,7.801,11.465,7.965c2.196,0.058,4.368-0.281,6.286-0.965"/>
	<path style="fill-rule:evenodd;clip-rule:evenodd;fill:#0A99D3;" d="M64.276,14.873c3.09-3.144,1.303-7.187-3.994-9.021
		c-2.35-0.818-5.127-1.087-7.797-0.771l2.203,6.468L64.276,14.873z"/>
	<path style="fill:none;stroke:#6C8F93;stroke-width:0.3272;stroke-linecap:round;stroke-miterlimit:10;" d="M64.276,14.873
		c3.09-3.144,1.303-7.187-3.994-9.021c-2.35-0.818-5.127-1.087-7.797-0.771"/>
	<path style="fill-rule:evenodd;clip-rule:evenodd;fill:#0A99D3;" d="M66.497,24.613c4.014-3.079,3.037-7.38-2.227-9.793
		l-8.078,5.557L66.497,24.613z"/>
	<path style="fill:none;stroke:#6C8F93;stroke-width:0.3272;stroke-linecap:round;stroke-miterlimit:10;" d="M66.497,24.613
		c4.014-3.079,3.037-7.38-2.227-9.793"/>
	<path style="fill-rule:evenodd;clip-rule:evenodd;fill:#0A99D3;" d="M52.101,38.035c5.902,1.928,12.295-1.163,14.271-6.907
		c0.734-2.127,0.781-4.417,0.137-6.567l-10.82,3.073L52.101,38.035z"/>
	<path style="fill:none;stroke:#6C8F93;stroke-width:0.3272;stroke-linecap:round;stroke-miterlimit:10;" d="M52.101,38.035
		c5.902,1.928,12.295-1.163,14.271-6.907c0.734-2.127,0.781-4.417,0.137-6.567"/>
	<path style="fill-rule:evenodd;clip-rule:evenodd;fill:#0A99D3;" d="M7.643,14.697c-4.463,0.216-7.878,3.529-7.63,7.391
		c0.172,2.647,2.048,4.979,4.854,6.036l3.232-6.428L7.643,14.697z"/>
	<path style="fill:none;stroke:#6C8F93;stroke-width:0.3272;stroke-linecap:round;stroke-miterlimit:10;" d="M7.643,14.697
		c-4.463,0.216-7.878,3.529-7.63,7.391c0.172,2.647,2.048,4.979,4.854,6.036"/>
	<path style="fill-rule:evenodd;clip-rule:evenodd;fill:#0A99D3;" d="M21.766,34.827c2.007,4.405,11.087,7.192,20.278,6.234
		c4.15-0.438,7.814-1.602,10.266-3.267L38.405,33.08L21.766,34.827z"/>
	<path style="fill:none;stroke:#6C8F93;stroke-width:0.3272;stroke-linecap:round;stroke-miterlimit:10;" d="M21.766,34.827
		c2.007,4.405,11.087,7.192,20.278,6.234c4.15-0.438,7.814-1.602,10.266-3.267"/>
</g>
</svg>