<?xml version="1.0" encoding="utf-8"?>
<!DOCTYPE svg PUBLIC "-//W3C//DTD SVG 1.1//EN" "http://www.w3.org/Graphics/SVG/1.1/DTD/svg11.dtd">
<svg version="1.1" xmlns="http://www.w3.org/2000/svg" xmlns:xlink="http://www.w3.org/1999/xlink" width="46" height="20" viewBox="0 0 46 20">
<g>
	<polygon fill="#003D55" points="7.915,8.619 0,0.61 37.308,0.478 45.224,8.486 	"/>
	<polygon fill="#003D55" points="8.106,8.423 0.197,0.416 37.5,0.283 45.414,8.291 	"/>
	<polygon fill="none" stroke="#ACACAC" stroke-width="0.7479" stroke-linecap="round" stroke-miterlimit="10" points="8.106,8.423 
		0.197,0.416 37.5,0.283 45.414,8.291 	"/>
	<g>
		<g>
			<g>
				<g>
					<defs>
						
							<rect id="SVGID_1_" x="6.365" y="0.18" transform="matrix(0.0035 1 -1 0.0035 14.8667 -6.2781)" width="8.438" height="8.282"/>
					</defs>
					<clipPath id="SVGID_2_">
						<use xlink:href="#SVGID_1_"  overflow="visible"/>
					</clipPath>
					
						<line clip-path="url(#SVGID_2_)" fill="none" stroke="#ACACAC" stroke-width="0.9943" stroke-linecap="round" stroke-miterlimit="10" x1="22.37" y1="16.402" x2="-1.37" y2="-7.618"/>
				</g>
			</g>
		</g>
	</g>
	<g>
		<g>
			<g>
				<g>
					<defs>
						
							<rect id="SVGID_3_" x="12.249" y="0.159" transform="matrix(0.0035 1 -1 0.0035 20.7094 -12.183)" width="8.438" height="8.281"/>
					</defs>
					<clipPath id="SVGID_4_">
						<use xlink:href="#SVGID_3_"  overflow="visible"/>
					</clipPath>
					
						<line clip-path="url(#SVGID_4_)" fill="none" stroke="#ACACAC" stroke-width="0.9943" stroke-linecap="round" stroke-miterlimit="10" x1="28.328" y1="16.381" x2="4.589" y2="-7.639"/>
				</g>
			</g>
		</g>
	</g>
	<g>
		<g>
			<g>
				<g>
					<defs>
						
							<rect id="SVGID_5_" x="18.242" y="0.138" transform="matrix(0.0035 1 -1 0.0035 26.6607 -18.1978)" width="8.438" height="8.282"/>
					</defs>
					<clipPath id="SVGID_6_">
						<use xlink:href="#SVGID_5_"  overflow="visible"/>
					</clipPath>
					
						<line clip-path="url(#SVGID_6_)" fill="none" stroke="#ACACAC" stroke-width="0.9943" stroke-linecap="round" stroke-miterlimit="10" x1="34.287" y1="16.359" x2="10.549" y2="-7.66"/>
				</g>
			</g>
		</g>
	</g>
	<g>
		<g>
			<g>
				<g>
					<defs>
						
							<rect id="SVGID_7_" x="24.235" y="0.116" transform="matrix(0.0035 1 -1 0.0035 32.611 -24.2121)" width="8.438" height="8.282"/>
					</defs>
					<clipPath id="SVGID_8_">
						<use xlink:href="#SVGID_7_"  overflow="visible"/>
					</clipPath>
					
						<line clip-path="url(#SVGID_8_)" fill="none" stroke="#ACACAC" stroke-width="0.9943" stroke-linecap="round" stroke-miterlimit="10" x1="40.253" y1="16.339" x2="16.514" y2="-7.681"/>
				</g>
			</g>
		</g>
	</g>
	<g>
		<g>
			<g>
				<g>
					<defs>
						
							<rect id="SVGID_9_" x="30.938" y="0.146" transform="matrix(0.0035 1 -1 0.0035 39.268 -30.9378)" width="8.438" height="8.174"/>
					</defs>
					<clipPath id="SVGID_10_">
						<use xlink:href="#SVGID_9_"  overflow="visible"/>
					</clipPath>
					
						<line clip-path="url(#SVGID_10_)" fill="none" stroke="#ACACAC" stroke-width="0.9943" stroke-linecap="round" stroke-miterlimit="10" x1="46.981" y1="16.314" x2="23.241" y2="-7.705"/>
				</g>
			</g>
		</g>
	</g>
	<g>
		<g>
			<g>
				<g>
					<defs>
						<rect id="SVGID_11_" x="5.685" y="5.215" width="6.319" height="0.777"/>
					</defs>
					<clipPath id="SVGID_12_">
						<use xlink:href="#SVGID_11_"  overflow="visible"/>
					</clipPath>
					
						<line clip-path="url(#SVGID_12_)" fill="none" stroke="#ACACAC" stroke-width="0.7479" stroke-linecap="round" stroke-miterlimit="10" x1="-0.173" y1="5.705" x2="17.712" y2="5.641"/>
				</g>
			</g>
		</g>
	</g>
	<g>
		<g>
			<g>
				<g>
					<defs>
						<rect id="SVGID_13_" x="9.49" y="3.092" width="6.321" height="0.775"/>
					</defs>
					<clipPath id="SVGID_14_">
						<use xlink:href="#SVGID_13_"  overflow="visible"/>
					</clipPath>
					
						<line clip-path="url(#SVGID_14_)" fill="none" stroke="#ACACAC" stroke-width="0.7479" stroke-linecap="round" stroke-miterlimit="10" x1="3.668" y1="3.541" x2="21.552" y2="3.477"/>
				</g>
			</g>
		</g>
	</g>
	<g>
		<g>
			<g>
				<g>
					<defs>
						<rect id="SVGID_15_" x="17.78" y="4.951" width="5.774" height="0.777"/>
					</defs>
					<clipPath id="SVGID_16_">
						<use xlink:href="#SVGID_15_"  overflow="visible"/>
					</clipPath>
					
						<line clip-path="url(#SVGID_16_)" fill="none" stroke="#ACACAC" stroke-width="0.7479" stroke-linecap="round" stroke-miterlimit="10" x1="12.522" y1="5.466" x2="28.676" y2="5.409"/>
				</g>
			</g>
		</g>
	</g>
	<g>
		<g>
			<g>
				<g>
					<defs>
						<rect id="SVGID_17_" x="21.803" y="2.825" width="5.558" height="0.777"/>
					</defs>
					<clipPath id="SVGID_18_">
						<use xlink:href="#SVGID_17_"  overflow="visible"/>
					</clipPath>
					
						<line clip-path="url(#SVGID_18_)" fill="none" stroke="#ACACAC" stroke-width="0.7479" stroke-linecap="round" stroke-miterlimit="10" x1="16.744" y1="3.299" x2="32.318" y2="3.243"/>
				</g>
			</g>
		</g>
	</g>
	<g>
		<g>
			<g>
				<g>
					<defs>
						<rect id="SVGID_19_" x="29.657" y="4.796" width="6.32" height="0.777"/>
					</defs>
					<clipPath id="SVGID_20_">
						<use xlink:href="#SVGID_19_"  overflow="visible"/>
					</clipPath>
					
						<line clip-path="url(#SVGID_20_)" fill="none" stroke="#ACACAC" stroke-width="0.7479" stroke-linecap="round" stroke-miterlimit="10" x1="23.868" y1="5.23" x2="41.75" y2="5.167"/>
				</g>
			</g>
		</g>
	</g>
	<g>
		<g>
			<g>
				<g>
					<defs>
						<rect id="SVGID_21_" x="33.68" y="2.563" width="6.431" height="0.775"/>
					</defs>
					<clipPath id="SVGID_22_">
						<use xlink:href="#SVGID_21_"  overflow="visible"/>
					</clipPath>
					
						<line clip-path="url(#SVGID_22_)" fill="none" stroke="#ACACAC" stroke-width="0.7479" stroke-linecap="round" stroke-miterlimit="10" x1="27.9" y1="3.058" x2="45.779" y2="2.994"/>
				</g>
			</g>
		</g>
	</g>
	<polygon fill="#0D96D4" points="7.955,19.986 14.112,19.965 14.072,8.597 7.915,8.619 	"/>
	<polygon fill="#0D96D4" points="8.146,19.785 14.303,19.763 14.263,8.402 8.106,8.423 	"/>
	
		<rect x="5.523" y="11.016" transform="matrix(0.0036 1 -1 0.0036 25.2576 2.8392)" fill="none" stroke="#C9C7C7" stroke-width="0.7479" stroke-linecap="round" stroke-miterlimit="10" width="11.362" height="6.156"/>
	<polygon fill="#0D96D4" points="14.112,19.965 20.263,19.943 20.223,8.575 14.072,8.597 	"/>
	<polygon fill="#0D96D4" points="14.303,19.763 20.452,19.741 20.412,8.38 14.263,8.402 	"/>
	
		<rect x="11.677" y="10.996" transform="matrix(0.0036 1 -1 0.0036 31.3672 -3.3367)" fill="none" stroke="#C9C7C7" stroke-width="0.7479" stroke-linecap="round" stroke-miterlimit="10" width="11.361" height="6.15"/>
	<polygon fill="#0D96D4" points="20.263,19.943 26.418,19.921 26.378,8.553 20.223,8.575 	"/>
	<polygon fill="#0D96D4" points="20.452,19.741 26.609,19.719 26.569,8.358 20.412,8.38 	"/>
	
		<rect x="17.83" y="10.971" transform="matrix(0.0036 1 -1 0.0036 37.4761 -9.5109)" fill="none" stroke="#C9C7C7" stroke-width="0.7479" stroke-linecap="round" stroke-miterlimit="10" width="11.361" height="6.157"/>
	<polygon fill="#0D96D4" points="26.418,19.921 32.758,19.898 32.718,8.53 26.378,8.553 	"/>
	<polygon fill="#0D96D4" points="26.609,19.719 32.957,19.696 32.917,8.335 26.569,8.358 	"/>
	
		<rect x="24.082" y="10.853" transform="matrix(0.0035 1 -1 0.0035 43.6848 -15.7848)" fill="none" stroke="#C9C7C7" stroke-width="0.7479" stroke-linecap="round" stroke-miterlimit="10" width="11.361" height="6.348"/>
	<polygon fill="#0D96D4" points="32.758,19.898 38.917,19.877 38.876,8.508 32.718,8.53 	"/>
	<polygon fill="#0D96D4" points="32.957,19.696 39.106,19.675 39.066,8.313 32.917,8.335 	"/>
	
		<rect x="30.33" y="10.931" transform="matrix(0.0035 1 -1 0.0035 49.8886 -22.055)" fill="none" stroke="#C9C7C7" stroke-width="0.7479" stroke-linecap="round" stroke-miterlimit="10" width="11.361" height="6.148"/>
	<polygon fill="#0D96D4" points="38.917,19.877 45.074,19.854 45.034,8.487 38.876,8.508 	"/>
	<polygon fill="#0D96D4" points="39.106,19.675 45.263,19.652 45.223,8.292 39.066,8.313 	"/>
	
		<rect x="36.484" y="10.905" transform="matrix(0.0035 1 -1 0.0035 55.999 -28.2304)" fill="none" stroke="#C9C7C7" stroke-width="0.7479" stroke-linecap="round" stroke-miterlimit="10" width="11.361" height="6.157"/>
	<g>
		<g>
			<g>
				<g>
					<defs>
						<rect id="SVGID_23_" x="8.228" y="15.646" width="6.102" height="0.775"/>
					</defs>
					<clipPath id="SVGID_24_">
						<use xlink:href="#SVGID_23_"  overflow="visible"/>
					</clipPath>
					
						<line clip-path="url(#SVGID_24_)" fill="none" stroke="#C9C7C7" stroke-width="0.7479" stroke-linecap="round" stroke-miterlimit="10" x1="2.561" y1="16.084" x2="19.867" y2="16.022"/>
				</g>
			</g>
		</g>
	</g>
	<g>
		<g>
			<g>
				<g>
					<defs>
						<rect id="SVGID_25_" x="14.316" y="11.848" width="5.994" height="0.776"/>
					</defs>
					<clipPath id="SVGID_26_">
						<use xlink:href="#SVGID_25_"  overflow="visible"/>
					</clipPath>
					
						<line clip-path="url(#SVGID_26_)" fill="none" stroke="#C9C7C7" stroke-width="0.7479" stroke-linecap="round" stroke-miterlimit="10" x1="8.89" y1="12.335" x2="25.623" y2="12.275"/>
				</g>
			</g>
		</g>
	</g>
	<g>
		<g>
			<g>
				<g>
					<defs>
						<rect id="SVGID_27_" x="20.65" y="15.602" width="5.994" height="0.775"/>
					</defs>
					<clipPath id="SVGID_28_">
						<use xlink:href="#SVGID_27_"  overflow="visible"/>
					</clipPath>
					
						<line clip-path="url(#SVGID_28_)" fill="none" stroke="#C9C7C7" stroke-width="0.7479" stroke-linecap="round" stroke-miterlimit="10" x1="15.249" y1="16.039" x2="31.983" y2="15.979"/>
				</g>
			</g>
		</g>
	</g>
	<g>
		<g>
			<g>
				<g>
					<defs>
						<rect id="SVGID_29_" x="26.63" y="11.804" width="6.101" height="0.776"/>
					</defs>
					<clipPath id="SVGID_30_">
						<use xlink:href="#SVGID_29_"  overflow="visible"/>
					</clipPath>
					
						<line clip-path="url(#SVGID_30_)" fill="none" stroke="#C9C7C7" stroke-width="0.7479" stroke-linecap="round" stroke-miterlimit="10" x1="21.005" y1="12.292" x2="38.311" y2="12.23"/>
				</g>
			</g>
		</g>
	</g>
	<g>
		<g>
			<g>
				<g>
					<defs>
						<rect id="SVGID_31_" x="32.965" y="15.558" width="6.211" height="0.775"/>
					</defs>
					<clipPath id="SVGID_32_">
						<use xlink:href="#SVGID_31_"  overflow="visible"/>
					</clipPath>
					
						<line clip-path="url(#SVGID_32_)" fill="none" stroke="#C9C7C7" stroke-width="0.7479" stroke-linecap="round" stroke-miterlimit="10" x1="27.366" y1="15.996" x2="44.672" y2="15.935"/>
				</g>
			</g>
		</g>
	</g>
	<g>
		<g>
			<g>
				<g>
					<defs>
						<rect id="SVGID_33_" x="39.163" y="11.76" width="5.884" height="0.776"/>
					</defs>
					<clipPath id="SVGID_34_">
						<use xlink:href="#SVGID_33_"  overflow="visible"/>
					</clipPath>
					
						<line clip-path="url(#SVGID_34_)" fill="none" stroke="#C9C7C7" stroke-width="0.7479" stroke-linecap="round" stroke-miterlimit="10" x1="33.7" y1="12.247" x2="50.426" y2="12.188"/>
				</g>
			</g>
		</g>
	</g>
	<polygon fill="#63C9F3" points="7.955,19.986 0.04,11.783 0,0.61 7.915,8.814 	"/>
	<polygon fill="#63C9F3" points="8.146,19.785 0.236,11.581 0.197,0.416 8.107,8.618 	"/>
	<polygon fill="none" stroke="#E3E3E3" stroke-width="0.7479" stroke-linecap="round" stroke-miterlimit="10" points="8.146,19.785 
		0.236,11.581 0.197,0.416 8.107,8.618 	"/>
	<g>
		<g>
			<g>
				<g>
					<defs>
						
							<rect id="SVGID_35_" x="1.754" y="9.175" transform="matrix(0.0035 1 -1 0.0035 15.3966 3.6616)" width="8.215" height="0.762"/>
					</defs>
					<clipPath id="SVGID_36_">
						<use xlink:href="#SVGID_35_"  overflow="visible"/>
					</clipPath>
					
						<line clip-path="url(#SVGID_36_)" fill="none" stroke="#E3E3E3" stroke-width="0.7479" stroke-linecap="round" stroke-miterlimit="10" x1="5.765" y1="-2.151" x2="5.849" y2="21.361"/>
				</g>
			</g>
		</g>
	</g>
	<g>
		<g>
			<g>
				<g>
					<defs>
						
							<rect id="SVGID_37_" x="0.18" y="7.863" transform="matrix(0.0035 1 -1 0.0035 16.387 7.5629)" width="8.437" height="8.282"/>
					</defs>
					<clipPath id="SVGID_38_">
						<use xlink:href="#SVGID_37_"  overflow="visible"/>
					</clipPath>
					
						<line clip-path="url(#SVGID_38_)" fill="none" stroke="#E3E3E3" stroke-width="0.9943" stroke-linecap="round" stroke-miterlimit="10" x1="16.239" y1="24.064" x2="-7.501" y2="0.053"/>
				</g>
			</g>
		</g>
	</g>
	<g>
		<g>
			<g>
				<g>
					<defs>
						
							<rect id="SVGID_39_" x="1.53" y="12.57" transform="matrix(0.0036 1 -1 0.0036 16.5233 9.3201)" width="4.11" height="0.762"/>
					</defs>
					<clipPath id="SVGID_40_">
						<use xlink:href="#SVGID_39_"  overflow="visible"/>
					</clipPath>
					
						<line clip-path="url(#SVGID_40_)" fill="none" stroke="#E3E3E3" stroke-width="0.7479" stroke-linecap="round" stroke-miterlimit="10" x1="3.53" y1="18.627" x2="3.49" y2="7.455"/>
				</g>
			</g>
		</g>
	</g>
</g>
</svg>
