<?xml version="1.0" encoding="iso-8859-1"?>
<!DOCTYPE svg PUBLIC "-//W3C//DTD SVG 1.1//EN" "http://www.w3.org/Graphics/SVG/1.1/DTD/svg11.dtd">
<svg version="1.1" xmlns="http://www.w3.org/2000/svg" xmlns:xlink="http://www.w3.org/1999/xlink" width="42" height="29" viewBox="0 0 42 29">
<g>
	<polygon style="fill-rule:evenodd;clip-rule:evenodd;fill:#0D96D4;" points="4.406,0.168 0.262,4.594 0.262,28.211 38.452,28.211 
		38.452,4.594 37.854,5.779 37.56,6.66 34.308,8.726 31.349,9.911 25.714,10.792 21.571,10.792 16.251,9.911 12.988,9.019 
		9.736,7.551 7.071,5.475 4.994,2.234 4.7,1.049 	"/>
	<polygon style="fill-rule:evenodd;clip-rule:evenodd;fill:#0D96D4;" points="4.406,0.168 0.262,4.594 0.262,28.211 38.452,28.211 
		38.452,4.594 37.854,5.779 37.56,6.66 34.308,8.726 31.349,9.911 25.714,10.792 21.571,10.792 16.251,9.911 12.988,9.019 
		9.736,7.551 7.071,5.475 4.994,2.234 4.7,1.049 	"/>
	<polygon style="fill:none;stroke:#AEE2FA;stroke-width:0.2936;stroke-linecap:round;stroke-miterlimit:10;" points="4.406,0.168 
		0.262,4.594 0.262,28.211 38.452,28.211 38.452,4.594 37.854,5.779 37.56,6.66 34.308,8.726 31.349,9.911 25.714,10.792 
		21.571,10.792 16.251,9.911 12.988,9.019 9.736,7.551 7.071,5.475 4.994,2.234 4.7,1.049 	"/>
	<polygon style="fill-rule:evenodd;clip-rule:evenodd;fill:#63C9F3;" points="4.406,0.755 0.262,4.887 0.556,5.475 0.85,6.072 
		1.154,6.66 1.448,7.247 2.035,7.845 2.633,8.726 3.515,9.313 4.113,9.911 4.994,10.498 5.886,11.085 7.071,11.683 8.257,12.27 
		9.442,12.564 10.617,13.151 11.803,13.455 12.988,13.749 13.88,13.749 14.762,14.043 15.947,14.043 16.839,14.336 18.024,14.336 
		19.21,14.336 20.396,14.336 21.571,14.336 23.354,14.043 23.942,14.043 24.833,13.749 26.019,13.749 27.204,13.455 28.38,13.151 
		29.272,12.857 30.163,12.27 31.044,11.977 31.644,11.683 32.524,11.389 33.122,10.792 33.71,10.498 34.308,10.204 34.896,9.617 
		35.493,9.019 36.081,8.726 36.669,8.138 37.267,7.551 37.56,6.953 37.56,6.66 36.081,7.551 35.493,7.845 34.601,8.138 
		34.308,8.138 33.122,8.726 31.937,9.019 30.458,9.313 28.978,9.617 27.499,9.911 25.714,10.204 24.235,10.204 23.06,10.204 
		21.571,10.204 20.396,9.911 19.21,9.911 18.024,9.617 16.839,9.313 15.947,9.019 15.066,9.019 14.468,8.726 13.282,8.432 
		12.107,7.845 10.921,7.247 10.03,6.953 9.138,6.366 7.963,5.181 7.071,4.594 6.473,3.713 5.592,2.821 4.994,1.94 4.994,1.636 	"/>
	<polygon style="fill-rule:evenodd;clip-rule:evenodd;fill:#63C9F3;" points="4.406,0.755 0.262,4.887 0.556,5.475 0.85,6.072 
		1.154,6.66 1.448,7.247 2.035,7.845 2.633,8.726 3.515,9.313 4.113,9.911 4.994,10.498 5.886,11.085 7.071,11.683 8.257,12.27 
		9.442,12.564 10.617,13.151 11.803,13.455 12.988,13.749 13.88,13.749 14.762,14.043 15.947,14.043 16.839,14.336 18.024,14.336 
		19.21,14.336 20.396,14.336 21.571,14.336 23.354,14.043 23.942,14.043 24.833,13.749 26.019,13.749 27.204,13.455 28.38,13.151 
		29.272,12.857 30.163,12.27 31.044,11.977 31.644,11.683 32.524,11.389 33.122,10.792 33.71,10.498 34.308,10.204 34.896,9.617 
		35.493,9.019 36.081,8.726 36.669,8.138 37.267,7.551 37.56,6.953 37.56,6.66 36.081,7.551 35.493,7.845 34.601,8.138 
		34.308,8.138 33.122,8.726 31.937,9.019 30.458,9.313 28.978,9.617 27.499,9.911 25.714,10.204 24.235,10.204 23.06,10.204 
		21.571,10.204 20.396,9.911 19.21,9.911 18.024,9.617 16.839,9.313 15.947,9.019 15.066,9.019 14.468,8.726 13.282,8.432 
		12.107,7.845 10.921,7.247 10.03,6.953 9.138,6.366 7.963,5.181 7.071,4.594 6.473,3.713 5.592,2.821 4.994,1.94 4.994,1.636 	"/>
	<polygon style="fill-rule:evenodd;clip-rule:evenodd;fill:#003D55;" points="38.157,4.3 42.597,0.168 42.597,23.785 38.157,28.211 
			"/>
	<polygon style="fill-rule:evenodd;clip-rule:evenodd;fill:#003D55;" points="38.157,4.3 42.597,0.168 42.597,23.785 38.157,28.211 
			"/>
	<polygon style="fill:none;stroke:#AEE2FA;stroke-width:0.2936;stroke-linecap:round;stroke-miterlimit:10;" points="38.157,4.3 
		42.597,0.168 42.597,23.785 38.157,28.211 	"/>
	<g>
		<defs>
			<polygon id="SVGID_1_" points="0,4.678 0.671,4.678 0.671,5.852 0,5.852 0,4.678 			"/>
		</defs>
		<clipPath id="SVGID_2_">
			<use xlink:href="#SVGID_1_"  style="overflow:visible;"/>
		</clipPath>
		
			<line style="clip-path:url(#SVGID_2_);fill:none;stroke:#AEE2FA;stroke-width:0.2936;stroke-linecap:round;stroke-miterlimit:10;" x1="0.262" y1="6.953" x2="0.262" y2="3.409"/>
	</g>
	<path style="fill:none;stroke:#AEE2FA;stroke-width:0.2936;stroke-linecap:round;stroke-miterlimit:10;" d="M0.031,4.625
		c2.078,6.324,12.349,10.435,22.935,9.197c7.795-0.912,13.891-4.551,15.412-9.197"/>
	<path style="fill:none;stroke:#AEE2FA;stroke-width:0.2936;stroke-linecap:round;stroke-miterlimit:10;" d="M4.396,0
		c1.836,6.513,11.876,10.865,22.431,9.732c4.154-0.451,7.953-1.72,10.838-3.618"/>
</g>
</svg>