<?xml version="1.0" encoding="iso-8859-1"?>
<!DOCTYPE svg PUBLIC "-//W3C//DTD SVG 1.1//EN" "http://www.w3.org/Graphics/SVG/1.1/DTD/svg11.dtd">
<svg version="1.1" xmlns="http://www.w3.org/2000/svg" xmlns:xlink="http://www.w3.org/1999/xlink" width="55" height="40" viewBox="0 0 55 40">
<g>
	<polygon style="fill-rule:evenodd;clip-rule:evenodd;fill:#2A3174;" points="54.424,15.874 54.424,23.917 27.779,39.685 
		27.779,31.677 54.424,15.874 54.424,15.874 54.424,15.874 54.424,15.874 54.424,15.874 	"/>
	<polygon style="fill-rule:evenodd;clip-rule:evenodd;fill:#37468B;" points="27.779,31.677 27.779,39.685 0,23.917 0,15.874 
		27.779,31.677 27.779,31.677 27.779,31.677 27.779,31.677 27.779,31.677 	"/>
	<polygon style="fill-rule:evenodd;clip-rule:evenodd;fill:#4F62A5;" points="54.424,15.945 27.319,31.749 0,15.945 27.142,0 
		54.424,15.945 54.424,15.945 54.424,15.945 54.424,15.945 54.424,15.945 	"/>
	<polygon style="fill-rule:evenodd;clip-rule:evenodd;fill:#2A3174;" points="46.489,13.5 43.37,13.5 43.477,16.229 39.401,13.996 
		38.729,13.606 37.807,13.712 29.657,14.811 31.428,10.169 31.641,9.603 30.969,9.142 27,6.874 31.713,6.874 31.713,5.103 
		21.295,5.103 21.295,11.09 24.449,11.09 24.449,8.397 27.744,10.24 25.654,15.271 16.866,16.512 13.536,14.528 18.284,14.528 
		18.284,12.862 7.937,12.862 7.937,18.744 11.091,18.744 11.091,16.051 15.059,18.354 15.732,18.744 16.76,18.567 24.803,17.54 
		22.925,22.181 22.713,22.749 23.492,23.138 27.461,25.37 22.713,25.37 22.713,27.212 33.165,27.212 33.059,21.26 30.012,21.26 
		30.012,23.953 26.717,22.11 28.702,17.043 37.594,15.838 40.819,17.716 36.071,17.716 36.071,19.488 46.489,19.488 46.489,13.5 
		46.489,13.5 46.489,13.5 46.489,13.5 	"/>
	<polygon style="fill-rule:evenodd;clip-rule:evenodd;fill:#FFFFFF;" points="46.489,12.969 43.37,12.969 43.477,15.697 
		39.401,13.464 38.729,12.969 37.807,13.075 29.657,14.208 31.428,9.532 31.641,9.036 30.969,8.575 27,6.342 31.713,6.342 
		31.713,4.536 21.295,4.536 21.295,10.453 24.449,10.453 24.449,7.725 27.744,9.708 25.654,14.775 16.866,15.874 13.536,14.032 
		18.284,14.032 18.284,12.225 7.937,12.225 7.937,18.248 11.091,18.248 11.091,15.52 15.059,17.752 15.732,18.142 16.76,18.036 
		24.803,17.008 22.925,21.614 22.713,22.181 23.492,22.536 27.461,24.874 22.713,24.874 22.713,26.646 33.165,26.646 33.059,20.658 
		30.012,20.658 30.012,23.386 26.717,21.508 28.702,16.441 37.594,15.342 40.819,17.114 36.071,17.114 36.071,18.886 46.489,18.886 
		46.489,12.969 46.489,12.969 46.489,12.969 46.489,12.969 	"/>
</g>
</svg>