<?xml version="1.0" encoding="utf-8"?>
<!DOCTYPE svg PUBLIC "-//W3C//DTD SVG 1.1//EN" "http://www.w3.org/Graphics/SVG/1.1/DTD/svg11.dtd">
<svg version="1.1" xmlns="http://www.w3.org/2000/svg" xmlns:xlink="http://www.w3.org/1999/xlink" width="60" height="35" viewBox="0 0 60 35">
<g>
	<path fill-rule="evenodd" clip-rule="evenodd" fill="#4F62A5" d="M59.85,17.055C59.85,6.058,47.5,5.626,47.5,5.626
		S43.758-1.792,29.99,0.408C16.135-1.792,12.392,5.626,12.392,5.626S0,6.058,0,17.055c0,0.086,0.129,0.086,0.129,0.086
		C0.129,17.228,0,17.228,0,17.228c0,11.084,12.392,11.386,12.392,11.386s3.743,7.461,17.598,5.261
		c13.769,2.2,17.511-5.261,17.511-5.261S59.85,28.312,59.85,17.228c0,0,0,0,0-0.086C59.85,17.142,59.85,17.142,59.85,17.055"/>
</g>
</svg>
