<?xml version="1.0" encoding="iso-8859-1"?>
<!DOCTYPE svg PUBLIC "-//W3C//DTD SVG 1.1//EN" "http://www.w3.org/Graphics/SVG/1.1/DTD/svg11.dtd">
<svg version="1.1" xmlns="http://www.w3.org/2000/svg" xmlns:xlink="http://www.w3.org/1999/xlink" width="76" height="74" viewBox="0 0 76 74">
<g>
	<polygon style="fill-rule:evenodd;clip-rule:evenodd;fill:#273778;" points="44.826,70.66 71.044,56.918 70.939,59.599 
		44.826,73.291 44.826,70.66 44.826,70.66 44.826,70.66 44.826,70.66 	"/>
	<polygon style="fill-rule:evenodd;clip-rule:evenodd;fill:#7979B2;" points="5.92,50.095 32.139,35.866 71.044,56.771 
		44.72,70.953 5.92,50.095 5.92,50.095 5.92,50.095 5.92,50.095 	"/>
	<polygon style="fill-rule:evenodd;clip-rule:evenodd;fill:#37478D;" points="44.826,70.611 44.826,73.291 5.92,52.775 5.92,49.9 
		44.826,70.611 44.826,70.611 44.826,70.611 44.826,70.611 	"/>
	<polygon style="fill-rule:evenodd;clip-rule:evenodd;fill:#273778;" points="39.91,47.024 75.275,28.068 75.167,53.604 
		39.751,72.512 39.91,47.024 39.91,47.024 39.91,47.024 39.91,47.024 	"/>
	<polygon style="fill-rule:evenodd;clip-rule:evenodd;fill:#7979B2;" points="0,26.12 35.205,7.017 75.275,28.604 40.122,47.562 
		0,26.12 0,26.12 0,26.12 0,26.12 	"/>
	<polygon style="fill-rule:evenodd;clip-rule:evenodd;fill:#37478D;" points="40.597,47.123 40.492,72.512 0,51.167 0.159,25.729 
		40.597,47.123 40.597,47.123 40.597,47.123 40.597,47.123 	"/>
	<polygon style="fill-rule:evenodd;clip-rule:evenodd;fill:#8287BE;" points="38.906,67.443 38.799,70.953 0.846,50.34 
		1.004,46.781 38.906,67.443 38.906,67.443 38.906,67.443 38.906,67.443 	"/>
	<polygon style="fill-rule:evenodd;clip-rule:evenodd;fill:#918EC1;" points="60.896,58.477 87.697,44.442 87.961,45.124 
		61.213,59.258 60.896,58.477 60.896,58.477 60.896,58.477 60.896,58.477 	"/>
	<polygon style="fill-rule:evenodd;clip-rule:evenodd;fill:#4D5592;" points="83.996,44.442 83.414,44.442 82.729,44.442 
		75.698,44.442 75.01,44.442 70.727,44.442 43.981,58.477 48.157,58.477 49.001,58.477 55.875,58.379 56.72,58.379 57.3,58.379 
		61.161,58.379 87.961,44.442 83.996,44.442 83.996,44.442 	"/>
	<polygon style="fill-rule:evenodd;clip-rule:evenodd;fill:#3E4A88;" points="61.478,58.477 61.741,59.159 44.138,59.258 
		43.981,58.623 48.209,58.623 49.107,58.623 56.085,58.477 56.983,58.477 57.565,58.477 61.478,58.477 61.478,58.477 61.478,58.477 
		61.478,58.477 	"/>
	<polygon style="fill-rule:evenodd;clip-rule:evenodd;fill:#273778;" points="40.597,42.834 76.12,24.17 76.12,27.386 
		40.597,46.001 40.597,42.834 40.597,42.834 40.597,42.834 40.597,42.834 	"/>
	<polygon style="fill-rule:evenodd;clip-rule:evenodd;fill:#4F62A5;" points="0,21.441 35.523,2.339 76.12,23.927 40.65,42.883 
		0,21.441 0,21.441 0,21.441 0,21.441 	"/>
	<polygon style="fill-rule:evenodd;clip-rule:evenodd;fill:#37478D;" points="40.597,42.834 40.597,46.001 0,25.047 0,21.832 
		40.597,42.834 40.597,42.834 40.597,42.834 40.597,42.834 	"/>
	<polygon style="fill-rule:evenodd;clip-rule:evenodd;fill:#6A7AB7;" points="70.2,24.56 40.597,40.544 5.074,21.49 34.624,5.458 
		70.2,24.56 70.2,24.56 70.2,24.56 70.2,24.56 	"/>
	<polygon style="fill-rule:evenodd;clip-rule:evenodd;fill:#273778;" points="42.871,21.832 73.583,24.17 72.895,25.729 
		42.289,23.293 42.871,21.832 42.871,21.832 42.871,21.832 42.871,21.832 	"/>
	<polygon style="fill-rule:evenodd;clip-rule:evenodd;fill:#495390;" points="2.537,0 33.143,2.534 73.583,24.17 42.871,21.832 
		2.537,0 2.537,0 2.537,0 2.537,0 	"/>
	<polygon style="fill-rule:evenodd;clip-rule:evenodd;fill:#37478D;" points="43.134,21.929 42.606,23.391 1.691,1.607 2.432,0 
		43.134,21.929 43.134,21.929 43.134,21.929 43.134,21.929 	"/>
</g>
</svg>