<?xml version="1.0" encoding="utf-8"?>
<!DOCTYPE svg PUBLIC "-//W3C//DTD SVG 1.1//EN" "http://www.w3.org/Graphics/SVG/1.1/DTD/svg11.dtd">
<svg version="1.1" xmlns="http://www.w3.org/2000/svg" xmlns:xlink="http://www.w3.org/1999/xlink" width="44" height="35" viewBox="0 0 44 35">
<g>
	<polygon fill="#6F83B9" points="45.045,14.948 40.858,18.071 39.864,17.283 43.936,14.188 	"/>
	<polygon fill="#6F83B9" points="43.311,13.868 39.239,16.816 38.267,16.057 42.339,13.079 	"/>
	<polygon fill="#6F83B9" points="41.714,12.612 37.642,15.589 36.648,14.802 40.72,11.853 	"/>
	<polygon fill="#6F83B9" points="40.118,11.532 36.045,14.48 35.051,13.722 39.124,10.743 	"/>
	<polygon fill="#6F83B9" points="38.499,10.276 34.426,13.254 33.317,12.466 37.388,9.517 	"/>
	<polygon fill="#6F83B9" points="36.902,9.051 32.83,12.145 31.72,11.386 35.792,8.262 	"/>
	<polygon fill="#6F83B9" points="35.305,7.941 31.233,10.918 30.124,10.13 34.196,7.182 	"/>
	<polygon fill="#6F83B9" points="33.686,6.715 29.614,9.663 28.504,9.051 32.576,5.926 	"/>
	<polygon fill="#6F83B9" points="31.973,5.605 27.902,8.583 26.908,7.795 30.979,4.846 	"/>
	<polygon fill="#6F83B9" points="30.354,4.379 26.283,7.328 25.311,6.54 29.382,3.591 	"/>
	<polygon fill="#6F83B9" points="28.757,3.124 24.686,6.248 23.692,5.459 27.763,2.511 	"/>
	<polygon fill="#6F83B9" points="27.161,2.044 23.089,4.992 21.98,4.204 26.167,1.255 	"/>
	<polygon fill="#6F83B9" points="25.542,0.789 21.47,3.912 20.36,3.124 24.432,0 	"/>
	<polygon fill="#2A336F" points="40.604,17.925 40.604,19.473 20.499,34.099 20.499,32.697 	"/>
	<polygon fill="#364776" points="20.499,32.697 20.499,34.099 0,19.327 0,17.75 	"/>
	<polygon fill="#6F83B9" points="40.604,17.925 20.499,32.697 0,17.75 20.129,2.978 	"/>
	<polygon fill="#3E5183" points="21.47,2.044 21.47,7.182 19.989,8.262 19.989,3.124 	"/>
	<polygon fill="#43578B" points="19.989,3.124 19.989,8.262 18.51,7.182 18.51,2.044 	"/>
	<polygon fill="#6F83B9" points="18.51,2.044 19.989,0.935 21.47,2.044 19.989,3.124 	"/>
	<polygon fill="#3E5183" points="24.202,3.912 24.061,9.051 22.583,10.13 22.583,4.992 	"/>
	<polygon fill="#43578B" points="22.583,4.992 22.583,10.13 21.101,9.051 21.101,3.912 	"/>
	<polygon fill="#6F83B9" points="21.101,3.912 22.583,2.803 24.202,3.912 22.583,4.992 	"/>
	<polygon fill="#3E5183" points="26.792,5.926 26.792,10.918 25.311,11.999 25.311,7.007 	"/>
	<polygon fill="#43578B" points="25.311,7.007 25.311,11.999 23.692,10.918 23.83,5.926 	"/>
	<polygon fill="#6F83B9" points="23.83,5.926 25.311,4.846 26.792,5.926 25.311,7.007 	"/>
	<polygon fill="#3E5183" points="29.382,7.795 29.382,12.933 27.902,14.014 27.902,8.875 	"/>
	<polygon fill="#43578B" points="27.902,8.875 27.902,14.014 26.42,12.933 26.42,7.795 	"/>
	<polygon fill="#6F83B9" points="26.42,7.795 27.902,6.715 29.382,7.795 27.902,8.875 	"/>
	<polygon fill="#3E5183" points="32.089,9.809 32.089,14.802 30.611,15.881 30.611,10.918 	"/>
	<polygon fill="#43578B" points="30.611,10.918 30.611,15.881 29.014,14.802 29.014,9.809 	"/>
	<polygon fill="#6F83B9" points="29.014,9.809 30.611,8.583 32.089,9.809 30.611,10.918 	"/>
	<polygon fill="#3E5183" points="34.682,11.678 34.682,16.816 33.202,17.925 33.202,12.787 	"/>
	<polygon fill="#43578B" points="33.202,12.787 33.202,17.925 31.72,16.816 31.72,11.678 	"/>
	<polygon fill="#6F83B9" points="31.72,11.678 33.202,10.597 34.682,11.678 33.202,12.787 	"/>
	<polygon fill="#3E5183" points="37.388,13.546 37.388,18.685 35.792,19.794 35.908,14.656 	"/>
	<polygon fill="#43578B" points="35.908,14.656 35.792,19.794 34.311,18.685 34.311,13.546 	"/>
	<polygon fill="#6F83B9" points="35.792,12.466 37.388,13.546 35.908,14.656 34.311,13.546 	"/>
	<polygon fill="#3E5183" points="18.879,3.912 18.879,9.051 17.398,10.13 17.398,4.992 	"/>
	<polygon fill="#43578B" points="17.398,4.992 17.398,10.13 15.917,9.051 15.917,3.912 	"/>
	<polygon fill="#6F83B9" points="15.917,3.912 17.398,2.803 18.879,3.912 17.398,4.992 	"/>
	<polygon fill="#3E5183" points="21.611,5.78 21.611,10.918 20.129,11.999 20.129,6.861 	"/>
	<polygon fill="#43578B" points="20.129,6.861 20.129,11.999 18.51,10.918 18.51,5.78 	"/>
	<polygon fill="#6F83B9" points="18.51,5.78 20.129,4.671 21.611,5.78 20.129,6.861 	"/>
	<polygon fill="#3E5183" points="24.202,7.795 24.202,12.787 22.72,13.868 22.72,8.875 	"/>
	<polygon fill="#43578B" points="22.72,8.875 22.72,13.868 21.239,12.787 21.239,7.795 	"/>
	<polygon fill="#6F83B9" points="21.239,7.795 22.72,6.715 24.202,7.795 22.72,8.875 	"/>
	<polygon fill="#3E5183" points="26.908,9.663 26.908,14.802 25.311,15.881 25.426,10.743 	"/>
	<polygon fill="#43578B" points="25.426,10.743 25.311,15.881 23.83,14.802 23.83,9.663 	"/>
	<polygon fill="#6F83B9" points="23.83,9.663 25.311,8.583 26.908,9.663 25.426,10.743 	"/>
	<polygon fill="#3E5183" points="29.499,11.678 29.499,16.67 28.017,17.75 28.017,12.787 	"/>
	<polygon fill="#43578B" points="28.017,12.787 28.017,17.75 26.539,16.67 26.539,11.678 	"/>
	<polygon fill="#6F83B9" points="26.539,11.678 28.017,10.451 29.499,11.678 28.017,12.787 	"/>
	<polygon fill="#3E5183" points="32.205,13.546 32.089,18.685 30.611,19.794 30.611,14.656 	"/>
	<polygon fill="#43578B" points="30.611,14.656 30.611,19.794 29.129,18.685 29.129,13.546 	"/>
	<polygon fill="#6F83B9" points="29.129,13.546 30.611,12.466 32.205,13.546 30.611,14.656 	"/>
	<polygon fill="#3E5183" points="34.797,15.414 34.797,20.553 33.317,21.662 33.317,16.524 	"/>
	<polygon fill="#43578B" points="33.317,16.524 33.317,21.662 31.835,20.553 31.835,15.414 	"/>
	<polygon fill="#6F83B9" points="31.835,15.414 33.317,14.334 34.797,15.414 33.317,16.524 	"/>
	<polygon fill="#3E5183" points="16.426,5.78 16.426,10.918 14.807,11.999 14.945,6.861 	"/>
	<polygon fill="#43578B" points="14.945,6.861 14.807,11.999 13.326,10.918 13.326,5.78 	"/>
	<polygon fill="#6F83B9" points="13.326,5.78 14.945,4.671 16.426,5.78 14.945,6.861 	"/>
	<polygon fill="#3E5183" points="19.017,7.649 19.017,12.787 17.539,13.868 17.539,8.875 	"/>
	<polygon fill="#43578B" points="17.539,8.875 17.539,13.868 16.057,12.787 16.057,7.649 	"/>
	<polygon fill="#6F83B9" points="16.057,7.649 17.539,6.54 19.017,7.649 17.539,8.875 	"/>
	<polygon fill="#3E5183" points="21.726,9.663 21.726,14.656 20.129,15.881 20.129,10.743 	"/>
	<polygon fill="#43578B" points="20.129,10.743 20.129,15.881 18.648,14.656 18.648,9.663 	"/>
	<polygon fill="#6F83B9" points="18.648,9.663 20.129,8.583 21.726,9.663 20.129,10.743 	"/>
	<polygon fill="#3E5183" points="24.317,11.532 24.317,16.67 22.835,17.75 22.835,12.612 	"/>
	<polygon fill="#43578B" points="22.835,12.612 22.835,17.75 21.354,16.67 21.354,11.532 	"/>
	<polygon fill="#6F83B9" points="21.354,11.532 22.835,10.451 24.317,11.532 22.835,12.612 	"/>
	<polygon fill="#3E5183" points="26.908,13.546 26.908,18.539 25.426,19.619 25.426,14.656 	"/>
	<polygon fill="#43578B" points="25.426,14.656 25.426,19.619 23.945,18.539 23.945,13.546 	"/>
	<polygon fill="#6F83B9" points="23.945,13.546 25.426,12.32 26.908,13.546 25.426,14.656 	"/>
	<polygon fill="#3E5183" points="29.614,15.414 29.614,20.553 28.132,21.662 28.132,16.524 	"/>
	<polygon fill="#43578B" points="28.132,16.524 28.132,21.662 26.539,20.553 26.539,15.414 	"/>
	<polygon fill="#6F83B9" points="26.539,15.414 28.132,14.334 29.614,15.414 28.132,16.524 	"/>
	<polygon fill="#3E5183" points="32.205,17.283 32.205,22.421 30.726,23.53 30.726,18.393 	"/>
	<polygon fill="#43578B" points="30.726,18.393 30.726,23.53 29.245,22.421 29.245,17.283 	"/>
	<polygon fill="#6F83B9" points="29.245,17.283 30.726,16.203 32.205,17.283 30.726,18.393 	"/>
	<polygon fill="#3E5183" points="13.835,7.649 13.835,12.787 12.354,13.868 12.354,8.729 	"/>
	<polygon fill="#43578B" points="12.354,8.729 12.354,13.868 10.874,12.787 10.874,7.649 	"/>
	<polygon fill="#6F83B9" points="10.874,7.649 12.354,6.54 13.835,7.649 12.354,8.729 	"/>
	<polygon fill="#3E5183" points="16.542,9.517 16.426,14.656 14.945,15.735 14.945,10.743 	"/>
	<polygon fill="#43578B" points="14.945,10.743 14.945,15.735 13.466,14.656 13.466,9.517 	"/>
	<polygon fill="#6F83B9" points="13.466,9.517 14.945,8.408 16.542,9.517 14.945,10.743 	"/>
	<polygon fill="#3E5183" points="19.132,11.532 19.132,16.524 17.654,17.75 17.654,12.612 	"/>
	<polygon fill="#43578B" points="17.654,12.612 17.654,17.75 16.057,16.524 16.173,11.532 	"/>
	<polygon fill="#6F83B9" points="16.173,11.532 17.654,10.451 19.132,11.532 17.654,12.612 	"/>
	<polygon fill="#3E5183" points="21.726,13.4 21.726,18.539 20.245,19.619 20.245,14.48 	"/>
	<polygon fill="#43578B" points="20.245,14.48 20.245,19.619 18.763,18.539 18.763,13.4 	"/>
	<polygon fill="#6F83B9" points="18.763,13.4 20.245,12.32 21.726,13.4 20.245,14.48 	"/>
	<polygon fill="#3E5183" points="24.432,15.414 24.432,20.407 22.951,21.486 22.951,16.524 	"/>
	<polygon fill="#43578B" points="22.951,16.524 22.951,21.486 21.354,20.407 21.354,15.414 	"/>
	<polygon fill="#6F83B9" points="21.354,15.414 22.951,14.334 24.432,15.414 22.951,16.524 	"/>
	<polygon fill="#3E5183" points="27.023,17.283 27.023,22.421 25.542,23.53 25.542,18.393 	"/>
	<polygon fill="#43578B" points="25.542,18.393 25.542,23.53 24.061,22.421 24.061,17.283 	"/>
	<polygon fill="#6F83B9" points="24.061,17.283 25.542,16.203 27.023,17.283 25.542,18.393 	"/>
	<polygon fill="#3E5183" points="29.754,19.151 29.754,24.29 28.132,25.399 28.132,20.261 	"/>
	<polygon fill="#43578B" points="28.132,20.261 28.132,25.399 26.654,24.29 26.654,19.151 	"/>
	<polygon fill="#6F83B9" points="26.654,19.151 28.132,18.071 29.754,19.151 28.132,20.261 	"/>
	<polygon fill="#3E5183" points="11.245,9.517 11.245,14.656 9.764,15.735 9.764,10.597 	"/>
	<polygon fill="#43578B" points="9.764,10.597 9.764,15.735 8.283,14.656 8.283,9.517 	"/>
	<polygon fill="#6F83B9" points="8.283,9.517 9.764,8.408 11.245,9.517 9.764,10.597 	"/>
	<polygon fill="#3E5183" points="13.951,11.386 13.951,16.524 12.47,17.604 12.47,12.612 	"/>
	<polygon fill="#43578B" points="12.47,12.612 12.47,17.604 10.874,16.524 10.874,11.386 	"/>
	<polygon fill="#6F83B9" points="10.874,11.386 12.47,10.276 13.951,11.386 12.47,12.612 	"/>
	<polygon fill="#3E5183" points="16.542,13.4 16.542,18.393 15.061,19.619 15.061,14.48 	"/>
	<polygon fill="#43578B" points="15.061,14.48 15.061,19.619 13.583,18.393 13.583,13.4 	"/>
	<polygon fill="#6F83B9" points="13.583,13.4 15.061,12.32 16.542,13.4 15.061,14.48 	"/>
	<polygon fill="#3E5183" points="19.25,15.268 19.25,20.407 17.654,21.486 17.769,16.349 	"/>
	<polygon fill="#43578B" points="17.769,16.349 17.654,21.486 16.173,20.407 16.173,15.268 	"/>
	<polygon fill="#6F83B9" points="16.173,15.268 17.654,14.188 19.25,15.268 17.769,16.349 	"/>
	<polygon fill="#3E5183" points="21.841,17.283 21.841,22.275 20.36,23.355 20.36,18.393 	"/>
	<polygon fill="#43578B" points="20.36,18.393 20.36,23.355 18.879,22.275 18.879,17.283 	"/>
	<polygon fill="#6F83B9" points="18.879,17.283 20.36,16.203 21.841,17.283 20.36,18.393 	"/>
	<polygon fill="#3E5183" points="24.57,19.151 24.432,24.29 22.951,25.399 22.951,20.261 	"/>
	<polygon fill="#43578B" points="22.951,20.261 22.951,25.399 21.47,24.29 21.47,19.151 	"/>
	<polygon fill="#6F83B9" points="21.47,19.151 22.951,18.071 24.57,19.151 22.951,20.261 	"/>
	<polygon fill="#3E5183" points="27.161,21.02 27.161,26.158 25.682,27.268 25.682,22.129 	"/>
	<polygon fill="#43578B" points="25.682,22.129 25.682,27.268 24.061,26.158 24.202,21.02 	"/>
	<polygon fill="#6F83B9" points="24.202,21.02 25.682,19.94 27.161,21.02 25.682,22.129 	"/>
	<polygon fill="#3E5183" points="8.77,11.386 8.77,16.524 7.172,17.604 7.288,12.466 	"/>
	<polygon fill="#43578B" points="7.288,12.466 7.172,17.604 5.692,16.524 5.692,11.386 	"/>
	<polygon fill="#6F83B9" points="5.692,11.386 7.172,10.276 8.77,11.386 7.288,12.466 	"/>
	<polygon fill="#3E5183" points="11.36,13.254 11.36,18.393 9.879,19.473 9.879,14.48 	"/>
	<polygon fill="#43578B" points="9.879,14.48 9.879,19.473 8.398,18.393 8.398,13.4 	"/>
	<polygon fill="#6F83B9" points="8.398,13.4 9.879,12.145 11.36,13.254 9.879,14.48 	"/>
	<polygon fill="#3E5183" points="14.067,15.268 13.951,20.261 12.47,21.486 12.47,16.349 	"/>
	<polygon fill="#43578B" points="12.47,16.349 12.47,21.486 10.989,20.261 10.989,15.268 	"/>
	<polygon fill="#6F83B9" points="10.989,15.268 12.47,14.188 14.067,15.268 12.47,16.349 	"/>
	<polygon fill="#3E5183" points="16.658,17.137 16.658,22.275 15.176,23.355 15.176,18.217 	"/>
	<polygon fill="#43578B" points="15.176,18.217 15.176,23.355 13.583,22.275 13.698,17.137 	"/>
	<polygon fill="#6F83B9" points="13.698,17.137 15.176,16.057 16.658,17.137 15.176,18.217 	"/>
	<polygon fill="#3E5183" points="19.25,19.151 19.25,24.144 17.769,25.224 17.769,20.261 	"/>
	<polygon fill="#43578B" points="17.769,20.261 17.769,25.224 16.289,24.144 16.289,19.151 	"/>
	<polygon fill="#6F83B9" points="16.289,19.151 17.769,18.071 19.25,19.151 17.769,20.261 	"/>
	<polygon fill="#3E5183" points="21.98,21.02 21.98,26.158 20.499,27.268 20.499,22.129 	"/>
	<polygon fill="#43578B" points="20.499,22.129 20.499,27.268 18.879,26.158 18.879,21.02 	"/>
	<polygon fill="#6F83B9" points="18.879,21.02 20.499,19.94 21.98,21.02 20.499,22.129 	"/>
	<polygon fill="#3E5183" points="24.57,22.888 24.57,28.026 23.089,29.136 23.089,23.998 	"/>
	<polygon fill="#43578B" points="23.089,23.998 23.089,29.136 21.611,28.026 21.611,22.888 	"/>
	<polygon fill="#6F83B9" points="21.611,22.888 23.089,21.808 24.57,22.888 23.089,23.998 	"/>
	<polygon fill="#3E5183" points="6.177,13.254 6.177,18.393 4.697,19.473 4.697,14.334 	"/>
	<polygon fill="#43578B" points="4.697,14.334 4.697,19.473 3.216,18.393 3.216,13.254 	"/>
	<polygon fill="#6F83B9" points="3.216,13.254 4.697,12.145 6.177,13.254 4.697,14.334 	"/>
	<polygon fill="#3E5183" points="8.77,15.268 8.77,20.261 7.288,21.341 7.288,16.349 	"/>
	<polygon fill="#43578B" points="7.288,16.349 7.288,21.341 5.807,20.261 5.807,15.268 	"/>
	<polygon fill="#6F83B9" points="5.807,15.268 7.288,14.014 8.77,15.268 7.288,16.349 	"/>
	<polygon fill="#3E5183" points="11.476,17.137 11.476,22.129 9.995,23.355 9.995,18.217 	"/>
	<polygon fill="#43578B" points="9.995,18.217 9.995,23.355 8.398,22.275 8.398,17.137 	"/>
	<polygon fill="#6F83B9" points="8.398,17.137 9.995,16.057 11.476,17.137 9.995,18.217 	"/>
	<polygon fill="#3E5183" points="14.067,19.006 14.067,24.144 12.585,25.224 12.585,20.086 	"/>
	<polygon fill="#43578B" points="12.585,20.086 12.585,25.224 11.104,24.144 11.104,19.006 	"/>
	<polygon fill="#6F83B9" points="11.104,19.006 12.585,17.925 14.067,19.006 12.585,20.086 	"/>
	<polygon fill="#3E5183" points="16.798,21.02 16.798,26.013 15.176,27.092 15.317,22.129 	"/>
	<polygon fill="#43578B" points="15.317,22.129 15.176,27.092 13.698,26.013 13.698,21.02 	"/>
	<polygon fill="#6F83B9" points="13.698,21.02 15.317,19.94 16.798,21.02 15.317,22.129 	"/>
	<polygon fill="#3E5183" points="19.389,22.888 19.389,28.026 17.908,29.136 17.908,23.998 	"/>
	<polygon fill="#43578B" points="17.908,23.998 17.908,29.136 16.426,28.026 16.426,22.888 	"/>
	<polygon fill="#6F83B9" points="16.426,22.888 17.908,21.808 19.389,22.888 17.908,23.998 	"/>
	<polygon fill="#3E5183" points="22.095,24.757 22.095,29.895 20.499,31.005 20.499,25.866 	"/>
	<polygon fill="#43578B" points="20.499,25.866 20.499,31.005 19.017,29.895 19.017,24.757 	"/>
	<polygon fill="#6F83B9" points="19.017,24.757 20.499,23.677 22.095,24.757 20.499,25.866 	"/>
</g>
</svg>
