<?xml version="1.0" encoding="iso-8859-1"?>
<!DOCTYPE svg PUBLIC "-//W3C//DTD SVG 1.1//EN" "http://www.w3.org/Graphics/SVG/1.1/DTD/svg11.dtd">
<svg version="1.1" xmlns="http://www.w3.org/2000/svg" xmlns:xlink="http://www.w3.org/1999/xlink" width="64" height="70" viewBox="0 0 64 70">
<g>
	<path style="fill-rule:evenodd;clip-rule:evenodd;fill:#4B5F9F;" d="M27.35,60.064c0,9.648,0,9.648,0,9.648
		c-6.743-0.392-13.295-2.155-18.471-5.24C3.656,61.436,0.76,57.518,0,53.551c0-9.697,0-9.697,0-9.697
		c0.76,4.065,3.704,7.886,8.879,10.971C14.055,57.959,20.607,59.673,27.35,60.064L27.35,60.064L27.35,60.064"/>
	<path style="fill-rule:evenodd;clip-rule:evenodd;fill:#6A7AB6;" d="M30.388,42.286c-3.086,18.022-3.086,18.022-3.086,18.022
		c-6.743-0.392-13.295-2.105-18.471-5.191C3.704,52.033,0.76,48.212,0,44.196C30.388,42.286,30.388,42.286,30.388,42.286
		L30.388,42.286L30.388,42.286"/>
	<polygon style="fill-rule:evenodd;clip-rule:evenodd;fill:#292C6A;" points="30.388,42.286 30.388,51.935 27.35,69.713 
		27.35,60.26 30.388,42.286 30.388,42.286 30.388,42.286 30.388,42.286 	"/>
	<path style="fill-rule:evenodd;clip-rule:evenodd;fill:#5065A9;" d="M53.369,28.23c11.917,7.053,11.966,18.562,0.188,25.614
		c-6.742,4.016-15.857,5.682-24.642,5.143c3.086-17.926,3.086-17.926,3.086-17.926C1.709,42.924,1.709,42.924,1.709,42.924
		C0.76,37.683,3.704,32.246,10.446,28.23C22.221,21.129,41.498,21.129,53.369,28.23L53.369,28.23L53.369,28.23"/>
	<path style="fill-rule:evenodd;clip-rule:evenodd;fill:#273675;" d="M63.056,40.719c0,3.38,0,6.611-0.047,9.943
		c0,4.75-2.991,9.501-8.975,13.174c-6.839,4.163-16.144,5.877-25.165,5.338c0.095-9.942,0.095-9.942,0.095-9.942
		c8.927,0.589,18.231-1.176,25.117-5.338C60.064,50.221,63.056,45.52,63.056,40.719L63.056,40.719L63.056,40.719"/>
	<path style="fill-rule:evenodd;clip-rule:evenodd;fill:#4B5F9F;" d="M27.35,49.583c0,9.943,0,9.943,0,9.943
		c-6.743-0.441-13.295-2.253-18.471-5.388C3.656,51.005,0.76,47.038,0,42.873c0-9.99,0-9.99,0-9.99
		c0.76,4.163,3.704,8.131,8.927,11.313C14.055,47.381,20.607,49.144,27.35,49.583L27.35,49.583L27.35,49.583"/>
	<path style="fill-rule:evenodd;clip-rule:evenodd;fill:#6A7AB6;" d="M30.388,31.315c-3.086,18.023-3.086,18.023-3.086,18.023
		c-6.743-0.392-13.295-2.105-18.423-5.191C3.704,41.062,0.76,37.242,0,33.226C30.388,31.315,30.388,31.315,30.388,31.315
		L30.388,31.315L30.388,31.315"/>
	<polygon style="fill-rule:evenodd;clip-rule:evenodd;fill:#292C6A;" points="30.388,31.315 30.388,41.16 27.35,59.526 27.35,49.73 
		30.388,31.315 30.388,31.315 30.388,31.315 30.388,31.315 	"/>
	<path style="fill-rule:evenodd;clip-rule:evenodd;fill:#5065A9;" d="M53.369,17.26c11.917,7.102,11.966,18.561,0.188,25.613
		c-6.742,4.018-15.857,5.682-24.642,5.144c3.086-17.925,3.086-17.925,3.086-17.925C1.709,31.953,1.709,31.953,1.709,31.953
		C0.76,26.712,3.704,21.276,10.446,17.26C22.221,10.158,41.498,10.158,53.369,17.26L53.369,17.26L53.369,17.26"/>
	<path style="fill-rule:evenodd;clip-rule:evenodd;fill:#273675;" d="M63.056,30.532c-0.047,9.697-0.047,9.697-0.047,9.697
		c0,4.652-2.991,9.257-8.975,12.782c-6.839,4.016-16.144,5.729-25.165,5.191c0.095-9.648,0.095-9.648,0.095-9.648
		c8.927,0.539,18.231-1.174,25.117-5.191C60.064,39.789,63.056,35.185,63.056,30.532L63.056,30.532L63.056,30.532"/>
	<polygon style="fill-rule:evenodd;clip-rule:evenodd;fill:#3B4D84;" points="31.907,19.562 31.813,29.356 1.52,31.315 1.52,21.423 
		31.907,19.562 31.907,19.562 31.907,19.562 31.907,19.562 	"/>
	<path style="fill-rule:evenodd;clip-rule:evenodd;fill:#4B5F9F;" d="M27.35,38.908c0,9.646,0,9.646,0,9.646
		c-6.743-0.392-13.295-2.105-18.471-5.24C3.656,40.277,0.76,36.409,0,32.394c0-9.698,0-9.698,0-9.698
		c0.76,4.065,3.704,7.984,8.927,11.02C14.055,36.801,20.607,38.515,27.35,38.908L27.35,38.908L27.35,38.908"/>
	<path style="fill-rule:evenodd;clip-rule:evenodd;fill:#6A7AB6;" d="M30.388,20.345c-3.086,18.023-3.086,18.023-3.086,18.023
		c-6.743-0.392-13.295-2.106-18.423-5.143C3.704,30.189,0.76,26.271,0,22.255C30.388,20.345,30.388,20.345,30.388,20.345
		L30.388,20.345L30.388,20.345"/>
	<polygon style="fill-rule:evenodd;clip-rule:evenodd;fill:#292C6A;" points="30.388,20.345 30.388,30.189 27.35,48.555 
		27.35,38.761 30.388,20.345 30.388,20.345 30.388,20.345 30.388,20.345 	"/>
	<path style="fill-rule:evenodd;clip-rule:evenodd;fill:#5065A9;" d="M53.369,6.437c11.917,7.199,11.966,18.904,0.188,26.104
		c-6.742,4.113-15.857,5.828-24.642,5.289c3.086-18.365,3.086-18.365,3.086-18.365C1.709,21.423,1.709,21.423,1.709,21.423
		C0.76,16.084,3.704,10.55,10.446,6.437C22.221-0.812,41.498-0.812,53.369,6.437L53.369,6.437L53.369,6.437"/>
	<path style="fill-rule:evenodd;clip-rule:evenodd;fill:#273675;" d="M63.056,19.562c0,3.282,0,6.465-0.047,9.697
		c0,4.652-2.991,9.256-8.975,12.783c-6.839,4.016-16.144,5.729-25.165,5.191c0.095-9.648,0.095-9.648,0.095-9.648
		c8.927,0.538,18.231-1.176,25.117-5.191C60.064,28.818,63.056,24.214,63.056,19.562L63.056,19.562L63.056,19.562"/>
</g>
</svg>