<?xml version="1.0" encoding="utf-8"?>
<!DOCTYPE svg PUBLIC "-//W3C//DTD SVG 1.1//EN" "http://www.w3.org/Graphics/SVG/1.1/DTD/svg11.dtd">
<svg version="1.1" xmlns="http://www.w3.org/2000/svg" xmlns:xlink="http://www.w3.org/1999/xlink" width="62" height="40" viewBox="0 0 62 40">
<g>
	<polygon fill-rule="evenodd" clip-rule="evenodd" fill="#2C3B6B" points="56.126,10.488 56.056,14.74 55.56,14.386 55.56,10.205 
		56.126,10.488 56.126,10.488 56.126,10.488 56.126,10.488 	"/>
	<path fill-rule="evenodd" clip-rule="evenodd" fill="#2A3969" d="M59.103,10.098c-0.178-0.106-0.178-0.106-0.178-0.106
		c-0.566-0.354-1.523-0.354-2.09,0c-0.639,0.39-0.639,0.39-0.639,0.39c-0.07,4.606-0.07,4.606-0.07,4.606
		c0.674-0.354,0.674-0.354,0.674-0.354c0.602-0.39,1.523-0.39,2.125,0c0.178,0.071,0.178,0.071,0.178,0.071
		c0.283,0.177,0.389,0.425,0.389,0.603c0.035-4.571,0.035-4.571,0.035-4.571C59.527,10.488,59.386,10.275,59.103,10.098"/>
	<path fill-rule="evenodd" clip-rule="evenodd" fill="#42548F" d="M59.847,11.693c-0.816,0.354-0.816,0.354-0.816,0.354
		c-0.07,4.394-0.07,4.394-0.07,4.394c0.852-0.39,0.852-0.39,0.852-0.39c0.566-0.212,0.85-0.531,0.85-0.886c0-1.453,0-2.905,0-4.394
		C60.662,11.09,60.378,11.409,59.847,11.693"/>
	<path fill-rule="evenodd" clip-rule="evenodd" fill="#495A99" d="M59.74,9.708c0.922,0.46,0.922,1.311,0.035,1.842
		c-0.672,0.354-0.672,0.354-0.672,0.354c-0.568-0.319-0.568-0.319-0.568-0.319c0.674-0.354,0.674-0.354,0.674-0.354
		c0.566-0.354,0.566-0.886,0-1.205c-0.178-0.142-0.178-0.142-0.178-0.142c-0.602-0.319-1.594-0.319-2.195,0
		c-0.674,0.425-0.674,0.425-0.674,0.425C55.56,9.992,55.56,9.992,55.56,9.992c0.707-0.425,0.707-0.425,0.707-0.425
		c0.922-0.496,2.445-0.496,3.332,0C59.74,9.708,59.74,9.708,59.74,9.708L59.74,9.708L59.74,9.708"/>
	<polygon fill-rule="evenodd" clip-rule="evenodd" fill="#2C3B6B" points="58.96,12.295 58.89,16.441 58.394,16.193 58.394,11.905 
		58.96,12.295 58.96,12.295 58.96,12.295 58.96,12.295 	"/>
	<polygon fill-rule="evenodd" clip-rule="evenodd" fill="#2C3B6B" points="40.82,1.523 40.82,5.669 40.251,5.421 40.251,1.134 
		40.82,1.523 40.82,1.523 40.82,1.523 40.82,1.523 	"/>
	<path fill-rule="evenodd" clip-rule="evenodd" fill="#2A3969" d="M43.794,1.027c-0.176-0.071-0.176-0.071-0.176-0.071
		c-0.604-0.39-1.523-0.39-2.092,0C40.89,1.311,40.89,1.311,40.89,1.311c-0.07,4.606-0.07,4.606-0.07,4.606
		c0.672-0.39,0.672-0.39,0.672-0.39c0.604-0.354,1.523-0.354,2.127,0c0.141,0.071,0.141,0.071,0.141,0.071
		c0.32,0.213,0.426,0.425,0.426,0.638c0.035-4.571,0.035-4.571,0.035-4.571C44.22,1.453,44.08,1.205,43.794,1.027"/>
	<path fill-rule="evenodd" clip-rule="evenodd" fill="#42548F" d="M44.255,2.622c-0.602,0.354-0.602,0.354-0.602,0.354
		c0,4.394,0,4.394,0,4.394c0.566-0.354,0.566-0.354,0.566-0.354c0.391-0.248,0.531-0.567,0.531-0.886
		c0.035-1.453,0.035-2.941,0.035-4.429C44.787,2.02,44.611,2.374,44.255,2.622"/>
	<path fill-rule="evenodd" clip-rule="evenodd" fill="#495A99" d="M43.972,0.638c0.814,0.496,0.814,1.311,0.035,1.842
		c-0.637,0.354-0.637,0.354-0.637,0.354C42.91,2.516,42.91,2.516,42.91,2.516c0.566-0.354,0.566-0.354,0.566-0.354
		c0.531-0.319,0.531-0.886,0-1.205C43.335,0.85,43.335,0.85,43.335,0.85c-0.568-0.354-1.418-0.354-1.949,0
		c-0.604,0.39-0.604,0.39-0.604,0.39c-0.531-0.319-0.531-0.319-0.531-0.319c0.604-0.39,0.604-0.39,0.604-0.39
		c0.85-0.531,2.16-0.531,2.977,0C43.972,0.638,43.972,0.638,43.972,0.638L43.972,0.638L43.972,0.638"/>
	<polygon fill-rule="evenodd" clip-rule="evenodd" fill="#2C3B6B" points="43.654,3.189 43.654,7.37 43.087,7.051 43.087,2.834 
		43.654,3.189 43.654,3.189 43.654,3.189 43.654,3.189 	"/>
	<polygon fill-rule="evenodd" clip-rule="evenodd" fill="#3B4D84" points="39.119,0.567 39.119,6.874 0.567,29.48 0.567,23.102 
		39.119,0.567 39.119,0.567 39.119,0.567 39.119,0.567 	"/>
	<polygon fill-rule="evenodd" clip-rule="evenodd" fill="#273462" points="0.567,22.89 0.567,29.48 0,29.303 0.213,22.677 
		0.567,22.89 0.567,22.89 0.567,22.89 0.567,22.89 	"/>
	<polygon fill-rule="evenodd" clip-rule="evenodd" fill="#44548F" points="39.119,0.779 0.213,23.244 0,23.066 38.941,0.567 
		39.119,0.779 39.119,0.779 39.119,0.779 39.119,0.779 	"/>
	<polygon fill-rule="evenodd" clip-rule="evenodd" fill="#334276" points="58.96,12.437 58.96,18.708 38.552,6.98 38.552,0.567 
		58.96,12.437 58.96,12.437 58.96,12.437 58.96,12.437 	"/>
	<polygon fill-rule="evenodd" clip-rule="evenodd" fill="#5065A9" points="57.259,13.712 22.961,33.448 3.969,22.605 38.41,2.834 
		57.259,13.712 57.259,13.712 57.259,13.712 57.259,13.712 	"/>
	<path fill-rule="evenodd" clip-rule="evenodd" fill="#273462" d="M35.611,18.39c0.105,0.071,0.105,0.212,0,0.283
		c-2.977,1.666-2.977,1.666-2.977,1.666c-0.107,0.071-0.355,0.071-0.461,0c-0.283-0.142-0.283-0.142-0.283-0.142
		c-0.143-0.071-0.143-0.213,0-0.248c2.977-1.701,2.977-1.701,2.977-1.701c0.105-0.106,0.354-0.106,0.461,0
		C35.611,18.39,35.611,18.39,35.611,18.39L35.611,18.39L35.611,18.39"/>
	<path fill-rule="evenodd" clip-rule="evenodd" fill="#273462" d="M33.91,13.748c0.105,0.035,0.105,0.142,0,0.212
		c-0.248,0.142-0.248,0.142-0.248,0.142c-0.143,0.071-0.354,0.071-0.496,0c-3.543-1.701-3.543-1.701-3.543-1.701
		c-0.142-0.071-0.142-0.177,0-0.248c0.319-0.142,0.319-0.142,0.319-0.142c0.106-0.106,0.319-0.106,0.461,0
		C33.91,13.748,33.91,13.748,33.91,13.748L33.91,13.748L33.91,13.748"/>
	<path fill-rule="evenodd" clip-rule="evenodd" fill="#273462" d="M32.74,14.315c0.143,0.071,0.143,0.177,0.035,0.248
		c-0.318,0.142-0.318,0.142-0.318,0.142c-0.105,0.036-0.318,0.036-0.461,0c-3.507-1.771-3.507-1.771-3.507-1.771
		c-0.142-0.036-0.142-0.142,0-0.213c0.248-0.142,0.248-0.142,0.248-0.142c0.142-0.106,0.354-0.106,0.496,0
		C32.74,14.315,32.74,14.315,32.74,14.315L32.74,14.315L32.74,14.315"/>
	<path fill-rule="evenodd" clip-rule="evenodd" fill="#273462" d="M39.011,9.779c0.107,0.071,0.107,0.177,0,0.248
		c-0.248,0.106-0.248,0.106-0.248,0.106c-0.105,0.071-0.318,0.071-0.424,0c-4.182-2.303-4.182-2.303-4.182-2.303
		c-0.143-0.071-0.143-0.177,0-0.248c0.248-0.106,0.248-0.106,0.248-0.106c0.105-0.106,0.318-0.106,0.426,0
		C39.011,9.779,39.011,9.779,39.011,9.779L39.011,9.779L39.011,9.779"/>
	<path fill-rule="evenodd" clip-rule="evenodd" fill="#273462" d="M45.816,12.685c0.105,0.035,0.105,0.106,0,0.106
		c-0.604,0.213-0.604,0.213-0.604,0.213c-0.105,0.035-0.283,0.035-0.426,0c-0.424-0.142-0.424-0.142-0.424-0.142
		c-0.143-0.035-0.143-0.106,0-0.142c0.602-0.177,0.602-0.177,0.602-0.177c0.107-0.071,0.283-0.071,0.391,0
		C45.816,12.685,45.816,12.685,45.816,12.685L45.816,12.685L45.816,12.685"/>
	<path fill-rule="evenodd" clip-rule="evenodd" fill="#273462" d="M43.548,7.264c0.105,0.071,0.105,0.212,0,0.283
		c-1.453,0.886-1.453,0.886-1.453,0.886c-0.143,0.071-0.355,0.071-0.461,0c-0.674-0.39-0.674-0.39-0.674-0.39
		c-0.141-0.071-0.141-0.212,0-0.319c1.453-0.85,1.453-0.85,1.453-0.85c0.105-0.071,0.354-0.071,0.461,0
		C43.548,7.264,43.548,7.264,43.548,7.264L43.548,7.264L43.548,7.264"/>
	<path fill-rule="evenodd" clip-rule="evenodd" fill="#273462" d="M45.248,8.397c0.107,0.106,0.107,0.248,0,0.284
		c-1.488,0.921-1.488,0.921-1.488,0.921c-0.105,0.036-0.354,0.036-0.459,0c-0.639-0.425-0.639-0.425-0.639-0.425
		c-0.143-0.035-0.143-0.177,0-0.248c1.453-0.886,1.453-0.886,1.453-0.886c0.141-0.106,0.318-0.106,0.496,0
		C45.248,8.397,45.248,8.397,45.248,8.397L45.248,8.397L45.248,8.397"/>
	<polygon fill-rule="evenodd" clip-rule="evenodd" fill="#273462" points="30.047,15.413 26.185,17.575 22.11,15.307 26.008,13.039 
		30.047,15.413 30.047,15.413 30.047,15.413 30.047,15.413 	"/>
	<polygon fill-rule="evenodd" clip-rule="evenodd" fill="#273462" points="23.244,17.504 21.083,18.708 19.276,17.681 
		21.473,16.441 23.244,17.504 23.244,17.504 23.244,17.504 23.244,17.504 	"/>
	<path fill-rule="evenodd" clip-rule="evenodd" fill="#7D92C6" d="M35.611,18.39c0.105,0.071,0.105,0.212,0,0.248
		c-2.977,1.701-2.977,1.701-2.977,1.701c-0.107,0.071-0.355,0.071-0.461,0c-0.283-0.142-0.283-0.142-0.283-0.142
		c-0.143-0.071-0.143-0.213,0-0.284c2.977-1.665,2.977-1.665,2.977-1.665c0.105-0.106,0.354-0.106,0.461,0
		C35.611,18.39,35.611,18.39,35.611,18.39L35.611,18.39L35.611,18.39"/>
	<path fill-rule="evenodd" clip-rule="evenodd" fill="#7D92C6" d="M33.91,13.642c0.105,0.071,0.105,0.212,0,0.319
		c-0.248,0.177-0.248,0.177-0.248,0.177c-0.143,0.035-0.354,0.035-0.496,0c-3.543-2.232-3.543-2.232-3.543-2.232
		c-0.142-0.071-0.142-0.177,0-0.283c0.319-0.177,0.319-0.177,0.319-0.177c0.106-0.106,0.319-0.106,0.461,0
		C33.91,13.642,33.91,13.642,33.91,13.642L33.91,13.642L33.91,13.642"/>
	<path fill-rule="evenodd" clip-rule="evenodd" fill="#7D92C6" d="M32.74,14.208c0.143,0.071,0.143,0.212,0.035,0.284
		c-0.318,0.177-0.318,0.177-0.318,0.177c-0.105,0.071-0.318,0.071-0.461,0c-3.507-2.197-3.507-2.197-3.507-2.197
		c-0.142-0.071-0.142-0.212,0-0.283c0.248-0.177,0.248-0.177,0.248-0.177c0.142-0.106,0.354-0.106,0.496,0
		C32.74,14.208,32.74,14.208,32.74,14.208L32.74,14.208L32.74,14.208"/>
	<path fill-rule="evenodd" clip-rule="evenodd" fill="#7D92C6" d="M39.011,9.744c0.107,0.106,0.107,0.212,0,0.283
		c-0.248,0.106-0.248,0.106-0.248,0.106c-0.105,0.071-0.318,0.071-0.424,0c-4.182-2.303-4.182-2.303-4.182-2.303
		c-0.143-0.106-0.143-0.177,0-0.248c0.248-0.142,0.248-0.142,0.248-0.142c0.105-0.071,0.318-0.071,0.426,0
		C39.011,9.744,39.011,9.744,39.011,9.744L39.011,9.744L39.011,9.744"/>
	<path fill-rule="evenodd" clip-rule="evenodd" fill="#7D92C6" d="M45.816,12.331c0.105,0.036,0.105,0.142,0,0.248
		c-0.604,0.39-0.604,0.39-0.604,0.39c-0.105,0.071-0.283,0.071-0.426,0c-0.424-0.319-0.424-0.319-0.424-0.319
		c-0.143-0.071-0.143-0.177,0-0.248c0.602-0.425,0.602-0.425,0.602-0.425c0.107-0.071,0.283-0.071,0.391,0
		C45.816,12.331,45.816,12.331,45.816,12.331L45.816,12.331L45.816,12.331"/>
	<path fill-rule="evenodd" clip-rule="evenodd" fill="#7D92C6" d="M43.548,7.264c0.105,0.106,0.105,0.212,0,0.319
		c-1.453,0.851-1.453,0.851-1.453,0.851c-0.143,0.071-0.355,0.071-0.461,0c-0.674-0.39-0.674-0.39-0.674-0.39
		c-0.141-0.071-0.141-0.177,0-0.283c1.453-0.851,1.453-0.851,1.453-0.851c0.105-0.106,0.354-0.106,0.461,0
		C43.548,7.264,43.548,7.264,43.548,7.264L43.548,7.264L43.548,7.264"/>
	<path fill-rule="evenodd" clip-rule="evenodd" fill="#7D92C6" d="M45.248,8.397c0.107,0.106,0.107,0.212,0,0.284
		c-1.488,0.886-1.488,0.886-1.488,0.886c-0.105,0.071-0.354,0.071-0.459,0c-0.639-0.39-0.639-0.39-0.639-0.39
		c-0.143-0.071-0.143-0.212,0-0.248c1.453-0.921,1.453-0.921,1.453-0.921c0.141-0.071,0.318-0.071,0.496,0
		C45.248,8.397,45.248,8.397,45.248,8.397L45.248,8.397L45.248,8.397"/>
	<polygon fill-rule="evenodd" clip-rule="evenodd" fill="#7D92C6" points="30.047,14.811 26.185,17.008 22.11,14.705 26.008,12.472 
		30.047,14.811 30.047,14.811 30.047,14.811 30.047,14.811 	"/>
	<polygon fill-rule="evenodd" clip-rule="evenodd" fill="#7D92C6" points="23.244,17.504 21.083,18.708 19.276,17.787 
		21.473,16.441 23.244,17.504 23.244,17.504 23.244,17.504 23.244,17.504 	"/>
	<polygon fill-rule="evenodd" clip-rule="evenodd" fill="#40518A" points="39.685,0.567 39.685,1.063 37.417,2.268 37.417,1.913 
		39.685,0.567 39.685,0.567 39.685,0.567 39.685,0.567 	"/>
	<polygon fill-rule="evenodd" clip-rule="evenodd" fill="#19244C" points="37.417,1.949 37.417,2.268 36.851,2.126 36.851,1.701 
		37.417,1.949 37.417,1.949 37.417,1.949 37.417,1.949 	"/>
	<polygon fill-rule="evenodd" clip-rule="evenodd" fill="#4A5C9C" points="39.685,0.319 37.275,1.701 36.851,1.417 39.189,0 
		39.685,0.319 39.685,0.319 39.685,0.319 39.685,0.319 	"/>
	<polygon fill-rule="evenodd" clip-rule="evenodd" fill="#40518A" points="40.251,1.134 40.251,1.63 37.984,2.834 37.984,2.48 
		40.251,1.134 40.251,1.134 40.251,1.134 40.251,1.134 	"/>
	<polygon fill-rule="evenodd" clip-rule="evenodd" fill="#19244C" points="37.984,2.197 37.984,2.834 37.417,2.516 37.417,1.701 
		37.984,2.197 37.984,2.197 37.984,2.197 37.984,2.197 	"/>
	<polygon fill-rule="evenodd" clip-rule="evenodd" fill="#4A5C9C" points="40.251,0.779 37.843,2.268 37.417,1.949 39.755,0.567 
		40.251,0.779 40.251,0.779 40.251,0.779 40.251,0.779 	"/>
	<polygon fill-rule="evenodd" clip-rule="evenodd" fill="#40518A" points="40.82,1.134 40.82,1.594 38.552,2.834 38.552,2.303 
		40.82,1.134 40.82,1.134 40.82,1.134 40.82,1.134 	"/>
	<polygon fill-rule="evenodd" clip-rule="evenodd" fill="#19244C" points="38.552,2.409 38.552,2.834 37.984,2.622 37.984,2.268 
		38.552,2.409 38.552,2.409 38.552,2.409 38.552,2.409 	"/>
	<polygon fill-rule="evenodd" clip-rule="evenodd" fill="#4A5C9C" points="40.82,1.311 38.41,2.268 37.984,2.126 40.429,1.134 
		40.82,1.311 40.82,1.311 40.82,1.311 40.82,1.311 	"/>
	<polygon fill-rule="evenodd" clip-rule="evenodd" fill="#40518A" points="41.386,1.701 41.386,2.197 39.119,3.401 39.119,3.047 
		41.386,1.701 41.386,1.701 41.386,1.701 41.386,1.701 	"/>
	<polygon fill-rule="evenodd" clip-rule="evenodd" fill="#19244C" points="39.119,3.083 39.119,3.401 38.552,3.26 38.552,2.834 
		39.119,3.083 39.119,3.083 39.119,3.083 39.119,3.083 	"/>
	<polygon fill-rule="evenodd" clip-rule="evenodd" fill="#4A5C9C" points="41.386,1.453 39.083,2.834 38.552,2.551 40.996,1.134 
		41.386,1.453 41.386,1.453 41.386,1.453 41.386,1.453 	"/>
	<polygon fill-rule="evenodd" clip-rule="evenodd" fill="#40518A" points="41.953,2.268 41.953,2.764 39.685,3.968 39.685,3.614 
		41.953,2.268 41.953,2.268 41.953,2.268 41.953,2.268 	"/>
	<polygon fill-rule="evenodd" clip-rule="evenodd" fill="#4A5C9C" points="41.953,1.913 40.039,3.401 39.685,3.083 41.634,1.701 
		41.953,1.913 41.953,1.913 41.953,1.913 41.953,1.913 	"/>
	<polygon fill-rule="evenodd" clip-rule="evenodd" fill="#40518A" points="42.519,2.268 42.519,2.764 40.82,3.968 40.82,3.508 
		42.519,2.268 42.519,2.268 42.519,2.268 42.519,2.268 	"/>
	<polygon fill-rule="evenodd" clip-rule="evenodd" fill="#19244C" points="40.82,3.579 40.82,3.968 40.251,3.827 40.251,3.401 
		40.82,3.579 40.82,3.579 40.82,3.579 40.82,3.579 	"/>
	<polygon fill-rule="evenodd" clip-rule="evenodd" fill="#4A5C9C" points="42.519,2.445 40.607,3.401 40.251,3.26 42.201,2.268 
		42.519,2.445 42.519,2.445 42.519,2.445 42.519,2.445 	"/>
	<polygon fill-rule="evenodd" clip-rule="evenodd" fill="#40518A" points="43.654,2.834 43.654,3.331 41.386,4.535 41.386,4.181 
		43.654,2.834 43.654,2.834 43.654,2.834 43.654,2.834 	"/>
	<polygon fill-rule="evenodd" clip-rule="evenodd" fill="#19244C" points="41.386,4.216 41.386,4.535 40.82,4.394 40.82,3.968 
		41.386,4.216 41.386,4.216 41.386,4.216 41.386,4.216 	"/>
	<polygon fill-rule="evenodd" clip-rule="evenodd" fill="#4A5C9C" points="43.654,2.586 41.351,3.968 40.82,3.685 43.263,2.268 
		43.654,2.586 43.654,2.586 43.654,2.586 43.654,2.586 	"/>
	<polygon fill-rule="evenodd" clip-rule="evenodd" fill="#40518A" points="44.22,3.401 44.22,3.897 41.953,5.102 41.953,4.642 
		44.22,3.401 44.22,3.401 44.22,3.401 44.22,3.401 	"/>
	<polygon fill-rule="evenodd" clip-rule="evenodd" fill="#19244C" points="41.953,4.323 41.953,5.102 41.386,4.783 41.386,3.968 
		41.953,4.323 41.953,4.323 41.953,4.323 41.953,4.323 	"/>
	<polygon fill-rule="evenodd" clip-rule="evenodd" fill="#4A5C9C" points="44.22,3.153 41.917,4.535 41.386,4.323 43.724,2.834 
		44.22,3.153 44.22,3.153 44.22,3.153 44.22,3.153 	"/>
	<polygon fill-rule="evenodd" clip-rule="evenodd" fill="#40518A" points="44.787,3.401 44.787,3.897 42.519,5.102 42.519,4.642 
		44.787,3.401 44.787,3.401 44.787,3.401 44.787,3.401 	"/>
	<polygon fill-rule="evenodd" clip-rule="evenodd" fill="#19244C" points="42.519,4.712 42.519,5.102 41.953,4.89 41.953,4.535 
		42.519,4.712 42.519,4.712 42.519,4.712 42.519,4.712 	"/>
	<polygon fill-rule="evenodd" clip-rule="evenodd" fill="#4A5C9C" points="44.787,3.579 42.378,4.535 41.953,4.394 44.291,3.401 
		44.787,3.579 44.787,3.579 44.787,3.579 44.787,3.579 	"/>
	<polygon fill-rule="evenodd" clip-rule="evenodd" fill="#40518A" points="45.355,3.968 45.355,4.464 43.087,5.669 43.087,5.315 
		45.355,3.968 45.355,3.968 45.355,3.968 45.355,3.968 	"/>
	<polygon fill-rule="evenodd" clip-rule="evenodd" fill="#19244C" points="43.087,5.35 43.087,5.669 42.519,5.527 42.519,5.102 
		43.087,5.35 43.087,5.35 43.087,5.35 43.087,5.35 	"/>
	<polygon fill-rule="evenodd" clip-rule="evenodd" fill="#4A5C9C" points="45.355,3.72 42.945,5.102 42.519,4.819 44.859,3.401 
		45.355,3.72 45.355,3.72 45.355,3.72 45.355,3.72 	"/>
	<polygon fill-rule="evenodd" clip-rule="evenodd" fill="#40518A" points="45.921,4.535 45.921,4.925 43.654,6.236 43.654,5.775 
		45.921,4.535 45.921,4.535 45.921,4.535 45.921,4.535 	"/>
	<polygon fill-rule="evenodd" clip-rule="evenodd" fill="#4A5C9C" points="45.921,4.287 44.007,5.669 43.654,5.457 45.531,3.968 
		45.921,4.287 45.921,4.287 45.921,4.287 45.921,4.287 	"/>
	<polygon fill-rule="evenodd" clip-rule="evenodd" fill="#40518A" points="46.488,4.535 46.488,5.031 44.22,6.236 44.22,5.775 
		46.488,4.535 46.488,4.535 46.488,4.535 46.488,4.535 	"/>
	<polygon fill-rule="evenodd" clip-rule="evenodd" fill="#4A5C9C" points="46.488,4.748 44.576,5.669 44.22,5.527 46.099,4.535 
		46.488,4.748 46.488,4.748 46.488,4.748 46.488,4.748 	"/>
	<polygon fill-rule="evenodd" clip-rule="evenodd" fill="#40518A" points="47.056,5.102 47.056,5.598 45.355,6.803 45.355,6.342 
		47.056,5.102 47.056,5.102 47.056,5.102 47.056,5.102 	"/>
	<polygon fill-rule="evenodd" clip-rule="evenodd" fill="#19244C" points="45.355,6.413 45.355,6.803 44.787,6.661 44.787,6.236 
		45.355,6.413 45.355,6.413 45.355,6.413 45.355,6.413 	"/>
	<polygon fill-rule="evenodd" clip-rule="evenodd" fill="#4A5C9C" points="47.056,4.854 45.142,6.236 44.787,6.023 46.736,4.535 
		47.056,4.854 47.056,4.854 47.056,4.854 47.056,4.854 	"/>
	<polygon fill-rule="evenodd" clip-rule="evenodd" fill="#40518A" points="48.189,5.669 48.189,6.059 45.921,7.37 45.921,6.909 
		48.189,5.669 48.189,5.669 48.189,5.669 48.189,5.669 	"/>
	<polygon fill-rule="evenodd" clip-rule="evenodd" fill="#19244C" points="45.921,6.59 45.921,7.37 45.355,7.051 45.355,6.236 
		45.921,6.59 45.921,6.59 45.921,6.59 45.921,6.59 	"/>
	<polygon fill-rule="evenodd" clip-rule="evenodd" fill="#4A5C9C" points="48.189,5.421 45.779,6.803 45.355,6.59 47.8,5.102 
		48.189,5.421 48.189,5.421 48.189,5.421 48.189,5.421 	"/>
	<polygon fill-rule="evenodd" clip-rule="evenodd" fill="#40518A" points="48.755,5.669 48.755,6.165 46.488,7.37 46.488,6.909 
		48.755,5.669 48.755,5.669 48.755,5.669 48.755,5.669 	"/>
	<polygon fill-rule="evenodd" clip-rule="evenodd" fill="#19244C" points="46.488,6.98 46.488,7.37 45.921,7.157 45.921,6.803 
		46.488,6.98 46.488,6.98 46.488,6.98 46.488,6.98 	"/>
	<polygon fill-rule="evenodd" clip-rule="evenodd" fill="#4A5C9C" points="48.755,5.882 46.347,6.803 45.921,6.661 48.367,5.669 
		48.755,5.882 48.755,5.882 48.755,5.882 48.755,5.882 	"/>
	<polygon fill-rule="evenodd" clip-rule="evenodd" fill="#40518A" points="49.324,6.236 49.324,6.732 47.056,7.937 47.056,7.476 
		49.324,6.236 49.324,6.236 49.324,6.236 49.324,6.236 	"/>
	<polygon fill-rule="evenodd" clip-rule="evenodd" fill="#19244C" points="47.056,7.547 47.056,7.937 46.488,7.795 46.488,7.37 
		47.056,7.547 47.056,7.547 47.056,7.547 47.056,7.547 	"/>
	<polygon fill-rule="evenodd" clip-rule="evenodd" fill="#4A5C9C" points="49.324,5.988 46.914,7.37 46.488,7.157 48.933,5.669 
		49.324,5.988 49.324,5.988 49.324,5.988 49.324,5.988 	"/>
	<polygon fill-rule="evenodd" clip-rule="evenodd" fill="#40518A" points="49.89,6.803 49.89,7.193 47.623,8.504 47.623,8.043 
		49.89,6.803 49.89,6.803 49.89,6.803 49.89,6.803 	"/>
	<polygon fill-rule="evenodd" clip-rule="evenodd" fill="#19244C" points="47.623,7.724 47.623,8.504 47.056,8.185 47.056,7.37 
		47.623,7.724 47.623,7.724 47.623,7.724 47.623,7.724 	"/>
	<polygon fill-rule="evenodd" clip-rule="evenodd" fill="#4A5C9C" points="49.89,6.555 47.587,7.937 47.056,7.724 49.5,6.236 
		49.89,6.555 49.89,6.555 49.89,6.555 49.89,6.555 	"/>
	<polygon fill-rule="evenodd" clip-rule="evenodd" fill="#40518A" points="50.457,6.803 50.457,7.299 48.189,8.504 48.189,8.043 
		50.457,6.803 50.457,6.803 50.457,6.803 50.457,6.803 	"/>
	<polygon fill-rule="evenodd" clip-rule="evenodd" fill="#4A5C9C" points="50.457,7.016 48.615,7.937 48.189,7.795 50.138,6.803 
		50.457,7.016 50.457,7.016 50.457,7.016 50.457,7.016 	"/>
	<polygon fill-rule="evenodd" clip-rule="evenodd" fill="#40518A" points="51.023,7.37 51.023,7.866 48.755,9.071 48.755,8.61 
		51.023,7.37 51.023,7.37 51.023,7.37 51.023,7.37 	"/>
	<polygon fill-rule="evenodd" clip-rule="evenodd" fill="#4A5C9C" points="51.023,7.122 49.111,8.504 48.755,8.291 50.634,6.803 
		51.023,7.122 51.023,7.122 51.023,7.122 51.023,7.122 	"/>
	<polygon fill-rule="evenodd" clip-rule="evenodd" fill="#40518A" points="52.158,7.937 52.158,8.327 49.89,9.638 49.89,9.177 
		52.158,7.937 52.158,7.937 52.158,7.937 52.158,7.937 	"/>
	<polygon fill-rule="evenodd" clip-rule="evenodd" fill="#19244C" points="49.89,8.858 49.89,9.638 49.324,9.319 49.324,8.504 
		49.89,8.858 49.89,8.858 49.89,8.858 49.89,8.858 	"/>
	<polygon fill-rule="evenodd" clip-rule="evenodd" fill="#4A5C9C" points="52.158,7.689 49.748,9.071 49.324,8.858 51.767,7.37 
		52.158,7.689 52.158,7.689 52.158,7.689 52.158,7.689 	"/>
	<polygon fill-rule="evenodd" clip-rule="evenodd" fill="#40518A" points="52.724,7.937 52.724,8.327 50.457,9.638 50.457,9.177 
		52.724,7.937 52.724,7.937 52.724,7.937 52.724,7.937 	"/>
	<polygon fill-rule="evenodd" clip-rule="evenodd" fill="#19244C" points="50.457,9.248 50.457,9.638 49.89,9.425 49.89,9.071 
		50.457,9.248 50.457,9.248 50.457,9.248 50.457,9.248 	"/>
	<polygon fill-rule="evenodd" clip-rule="evenodd" fill="#4A5C9C" points="52.724,8.149 50.421,9.071 49.89,8.929 52.335,7.937 
		52.724,8.149 52.724,8.149 52.724,8.149 52.724,8.149 	"/>
	<polygon fill-rule="evenodd" clip-rule="evenodd" fill="#40518A" points="53.291,8.504 53.291,9 51.023,10.205 51.023,9.744 
		53.291,8.504 53.291,8.504 53.291,8.504 53.291,8.504 	"/>
	<polygon fill-rule="evenodd" clip-rule="evenodd" fill="#19244C" points="51.023,9.815 51.023,10.205 50.457,9.992 50.457,9.638 
		51.023,9.815 51.023,9.815 51.023,9.815 51.023,9.815 	"/>
	<polygon fill-rule="evenodd" clip-rule="evenodd" fill="#4A5C9C" points="53.291,8.256 50.988,9.638 50.457,9.425 52.794,7.937 
		53.291,8.256 53.291,8.256 53.291,8.256 53.291,8.256 	"/>
	<polygon fill-rule="evenodd" clip-rule="evenodd" fill="#40518A" points="53.859,9.071 53.859,9.46 51.591,10.771 51.591,10.311 
		53.859,9.071 53.859,9.071 53.859,9.071 53.859,9.071 	"/>
	<polygon fill-rule="evenodd" clip-rule="evenodd" fill="#19244C" points="51.591,9.992 51.591,10.771 51.023,10.453 51.023,9.638 
		51.591,9.992 51.591,9.992 51.591,9.992 51.591,9.992 	"/>
	<polygon fill-rule="evenodd" clip-rule="evenodd" fill="#4A5C9C" points="53.859,8.823 51.449,10.205 51.023,9.992 53.363,8.504 
		53.859,8.823 53.859,8.823 53.859,8.823 53.859,8.823 	"/>
	<polygon fill-rule="evenodd" clip-rule="evenodd" fill="#40518A" points="54.425,9.071 54.425,9.46 52.158,10.771 52.158,10.311 
		54.425,9.071 54.425,9.071 54.425,9.071 54.425,9.071 	"/>
	<polygon fill-rule="evenodd" clip-rule="evenodd" fill="#4A5C9C" points="54.425,9.283 52.511,10.205 52.158,10.063 54.107,9.071 
		54.425,9.283 54.425,9.283 54.425,9.283 54.425,9.283 	"/>
	<polygon fill-rule="evenodd" clip-rule="evenodd" fill="#40518A" points="54.992,9.638 54.992,10.205 52.724,11.338 52.724,10.913 
		54.992,9.638 54.992,9.638 54.992,9.638 54.992,9.638 	"/>
	<polygon fill-rule="evenodd" clip-rule="evenodd" fill="#4A5C9C" points="54.992,9.283 53.08,10.771 52.724,10.559 54.673,9.071 
		54.992,9.283 54.992,9.283 54.992,9.283 54.992,9.283 	"/>
	<polygon fill-rule="evenodd" clip-rule="evenodd" fill="#40518A" points="55.56,10.205 55.56,10.594 53.859,11.905 53.859,11.445 
		55.56,10.205 55.56,10.205 55.56,10.205 55.56,10.205 	"/>
	<polygon fill-rule="evenodd" clip-rule="evenodd" fill="#19244C" points="53.859,11.197 53.859,11.905 53.291,11.622 
		53.291,10.771 53.859,11.197 53.859,11.197 53.859,11.197 53.859,11.197 	"/>
	<polygon fill-rule="evenodd" clip-rule="evenodd" fill="#4A5C9C" points="55.56,9.957 53.646,11.338 53.291,11.02 55.24,9.638 
		55.56,9.957 55.56,9.957 55.56,9.957 55.56,9.957 	"/>
	<polygon fill-rule="evenodd" clip-rule="evenodd" fill="#40518A" points="56.693,10.205 56.693,10.594 54.425,11.905 
		54.425,11.445 56.693,10.205 56.693,10.205 56.693,10.205 56.693,10.205 	"/>
	<polygon fill-rule="evenodd" clip-rule="evenodd" fill="#19244C" points="54.425,11.516 54.425,11.905 53.859,11.693 
		53.859,11.338 54.425,11.516 54.425,11.516 54.425,11.516 54.425,11.516 	"/>
	<polygon fill-rule="evenodd" clip-rule="evenodd" fill="#4A5C9C" points="56.693,10.417 54.283,11.338 53.859,11.197 
		56.304,10.205 56.693,10.417 56.693,10.417 56.693,10.417 56.693,10.417 	"/>
	<polygon fill-rule="evenodd" clip-rule="evenodd" fill="#40518A" points="57.259,10.771 57.259,11.338 54.992,12.472 
		54.992,12.047 57.259,10.771 57.259,10.771 57.259,10.771 57.259,10.771 	"/>
	<polygon fill-rule="evenodd" clip-rule="evenodd" fill="#19244C" points="54.992,12.083 54.992,12.472 54.425,12.26 54.425,11.905 
		54.992,12.083 54.992,12.083 54.992,12.083 54.992,12.083 	"/>
	<polygon fill-rule="evenodd" clip-rule="evenodd" fill="#4A5C9C" points="57.259,10.417 54.957,11.905 54.425,11.693 
		56.871,10.205 57.259,10.417 57.259,10.417 57.259,10.417 57.259,10.417 	"/>
	<polygon fill-rule="evenodd" clip-rule="evenodd" fill="#40518A" points="57.828,11.338 57.828,11.728 55.56,13.039 55.56,12.579 
		57.828,11.338 57.828,11.338 57.828,11.338 57.828,11.338 	"/>
	<polygon fill-rule="evenodd" clip-rule="evenodd" fill="#19244C" points="55.56,12.331 55.56,13.039 54.992,12.614 54.992,11.905 
		55.56,12.331 55.56,12.331 55.56,12.331 55.56,12.331 	"/>
	<polygon fill-rule="evenodd" clip-rule="evenodd" fill="#4A5C9C" points="57.828,11.09 55.523,12.472 54.992,12.153 57.437,10.771 
		57.828,11.09 57.828,11.09 57.828,11.09 57.828,11.09 	"/>
	<polygon fill-rule="evenodd" clip-rule="evenodd" fill="#40518A" points="58.394,11.338 58.394,11.728 56.126,13.039 
		56.232,12.579 58.394,11.338 58.394,11.338 58.394,11.338 58.394,11.338 	"/>
	<polygon fill-rule="evenodd" clip-rule="evenodd" fill="#19244C" points="56.126,12.649 56.019,13.039 55.56,12.827 55.56,12.472 
		56.126,12.649 56.126,12.649 56.126,12.649 56.126,12.649 	"/>
	<polygon fill-rule="evenodd" clip-rule="evenodd" fill="#4A5C9C" points="58.394,11.551 56.091,12.472 55.56,12.331 58.003,11.338 
		58.394,11.551 58.394,11.551 58.394,11.551 58.394,11.551 	"/>
	<polygon fill-rule="evenodd" clip-rule="evenodd" fill="#4A5C9C" points="58.642,11.338 56.693,12.756 57.119,13.075 
		57.119,13.606 58.96,12.118 58.96,11.586 58.642,11.338 58.642,11.338 	"/>
	<polygon fill-rule="evenodd" clip-rule="evenodd" fill="#273462" points="20.977,22.217 15.378,25.512 10.205,22.605 
		15.839,19.275 20.977,22.217 20.977,22.217 20.977,22.217 20.977,22.217 	"/>
	<polygon fill-rule="evenodd" clip-rule="evenodd" fill="#273462" points="26.646,26.61 23.067,28.913 19.843,26.822 23.457,24.378 
		26.646,26.61 26.646,26.61 26.646,26.61 26.646,26.61 	"/>
	<path fill-rule="evenodd" clip-rule="evenodd" fill="#273462" d="M16.193,15.874c19.523,11.339,19.523,11.339,19.523,11.339
		C24.13,34.016,24.13,34.016,24.13,34.016C4.536,22.713,4.536,22.713,4.536,22.713C16.193,15.874,16.193,15.874,16.193,15.874
		L16.193,15.874L16.193,15.874L16.193,15.874z M25.973,32.103c6.626-3.862,6.626-3.862,6.626-3.862c0.141-0.071,0.141-0.213,0-0.248
		c-0.248-0.142-0.248-0.142-0.248-0.142c-0.107-0.106-0.107-0.213,0-0.284c0.744-0.425,0.744-0.425,0.744-0.425
		c0.105-0.071,0.105-0.213,0-0.248c-1.56-0.886-1.56-0.886-1.56-0.886c-0.105-0.071-0.318-0.071-0.425,0
		c-0.744,0.39-0.744,0.39-0.744,0.39c-0.106,0.106-0.319,0.106-0.425,0C17.61,19.275,17.61,19.275,17.61,19.275
		c-0.106-0.071-0.319-0.177-0.39-0.212c-0.071-0.036-0.248-0.142-0.354-0.248c-1.063-0.603-1.063-0.603-1.063-0.603
		c-0.142-0.036-0.142-0.177,0-0.248c0.248-0.142,0.248-0.142,0.248-0.142c0.106-0.071,0.106-0.177,0-0.248
		c-0.177-0.142-0.177-0.142-0.177-0.142c-0.106-0.036-0.319-0.036-0.425,0c-0.283,0.177-0.283,0.177-0.283,0.177
		c-0.142,0.071-0.248,0.071-0.354,0.071c-0.071-0.036-0.177-0.036-0.319,0.035c-7.653,4.5-7.653,4.5-7.653,4.5
		c-0.142,0.035-0.142,0.141,0,0.248c2.232,1.311,2.232,1.311,2.232,1.311c0.106,0.071,0.319,0.071,0.425,0
		c0.567-0.354,0.567-0.354,0.567-0.354c0.142-0.07,0.319-0.07,0.461,0c14.031,8.114,14.031,8.114,14.031,8.114
		c0.142,0.106,0.142,0.213,0,0.283c-0.567,0.354-0.567,0.354-0.567,0.354c-0.106,0.071-0.106,0.178,0,0.213
		c0.39,0.213,0.39,0.213,0.39,0.213c0.106,0.105,0.319,0.105,0.425,0c0.567-0.319,0.567-0.319,0.567-0.319
		c0.142-0.071,0.248-0.106,0.284-0.071C25.689,32.244,25.866,32.208,25.973,32.103"/>
	<polygon fill-rule="evenodd" clip-rule="evenodd" fill="#7D92C6" points="20.977,22.182 15.378,25.512 10.205,22.535 
		15.839,19.275 20.977,22.182 20.977,22.182 20.977,22.182 20.977,22.182 	"/>
	<polygon fill-rule="evenodd" clip-rule="evenodd" fill="#7D92C6" points="26.646,26.256 23.067,28.347 19.843,26.433 
		23.457,24.378 26.646,26.256 26.646,26.256 26.646,26.256 26.646,26.256 	"/>
	<path fill-rule="evenodd" clip-rule="evenodd" fill="#495C9B" d="M16.193,15.874c19.523,11.339,19.523,11.339,19.523,11.339
		C24.13,34.016,24.13,34.016,24.13,34.016C4.536,22.713,4.536,22.713,4.536,22.713C16.193,15.874,16.193,15.874,16.193,15.874
		L16.193,15.874L16.193,15.874L16.193,15.874z M25.973,32.103c6.626-3.862,6.626-3.862,6.626-3.862c0.141-0.071,0.141-0.213,0-0.284
		c-0.248-0.105-0.248-0.105-0.248-0.105c-0.107-0.106-0.107-0.213,0-0.284c0.744-0.425,0.744-0.425,0.744-0.425
		c0.105-0.071,0.105-0.213,0-0.283c-1.56-0.851-1.56-0.851-1.56-0.851c-0.105-0.071-0.318-0.071-0.425,0
		c-0.744,0.39-0.744,0.39-0.744,0.39c-0.106,0.106-0.319,0.106-0.425,0C17.61,19.275,17.61,19.275,17.61,19.275
		c-0.106-0.071-0.319-0.177-0.39-0.212c-0.071-0.071-0.248-0.142-0.354-0.248c-1.063-0.603-1.063-0.603-1.063-0.603
		c-0.142-0.036-0.142-0.177,0-0.248c0.248-0.142,0.248-0.142,0.248-0.142c0.106-0.106,0.106-0.177,0-0.248
		c-0.177-0.142-0.177-0.142-0.177-0.142c-0.106-0.036-0.319-0.071-0.425,0c-0.283,0.177-0.283,0.177-0.283,0.177
		c-0.142,0.071-0.248,0.071-0.354,0.071c-0.071-0.036-0.177-0.036-0.319,0.035c-7.653,4.5-7.653,4.5-7.653,4.5
		c-0.142,0.035-0.142,0.141,0,0.248c2.232,1.311,2.232,1.311,2.232,1.311c0.106,0.035,0.319,0.071,0.425,0
		c0.567-0.39,0.567-0.39,0.567-0.39c0.142-0.035,0.319-0.035,0.461,0c14.031,8.149,14.031,8.149,14.031,8.149
		c0.142,0.106,0.142,0.213,0,0.283c-0.567,0.354-0.567,0.354-0.567,0.354c-0.106,0.071-0.106,0.178,0,0.213
		c0.39,0.213,0.39,0.213,0.39,0.213c0.106,0.105,0.319,0.105,0.425,0c0.567-0.319,0.567-0.319,0.567-0.319
		c0.142-0.071,0.248-0.106,0.284-0.071C25.689,32.208,25.866,32.208,25.973,32.103"/>
	<polygon fill-rule="evenodd" clip-rule="evenodd" fill="#273462" points="22.677,33.307 22.677,39.685 2.268,27.851 2.374,21.543 
		22.677,33.307 22.677,33.307 22.677,33.307 22.677,33.307 	"/>
	<polygon fill-rule="evenodd" clip-rule="evenodd" fill="#44548F" points="22.677,33.378 22.429,33.448 2.268,21.756 2.48,21.543 
		22.677,33.378 22.677,33.378 22.677,33.378 22.677,33.378 	"/>
	<polygon fill-rule="evenodd" clip-rule="evenodd" fill="#3B4D84" points="59.527,12.472 59.457,18.779 20.977,40.818 
		21.083,34.653 59.527,12.472 59.527,12.472 59.527,12.472 59.527,12.472 	"/>
	<polygon fill-rule="evenodd" clip-rule="evenodd" fill="#44548F" points="59.527,12.118 21.26,34.583 20.977,34.405 59.279,11.905 
		59.527,12.118 59.527,12.118 59.527,12.118 59.527,12.118 	"/>
	<path fill-rule="evenodd" clip-rule="evenodd" fill="#7D92C6" d="M54.177,19.949c0.143-0.106,0.248,0,0.248,0.248
		c0,0.212-0.105,0.531-0.248,0.638c-0.178,0.142-0.318,0.036-0.318-0.212S54,20.09,54.177,19.949L54.177,19.949L54.177,19.949"/>
	<path fill-rule="evenodd" clip-rule="evenodd" fill="#7D92C6" d="M54.142,18.85c0.178-0.142,0.283,0,0.283,0.213
		c0,0.248-0.105,0.567-0.248,0.673c-0.178,0.106-0.318,0.036-0.318-0.212S54,18.992,54.142,18.85L54.142,18.85L54.142,18.85"/>
	<path fill-rule="evenodd" clip-rule="evenodd" fill="#7D92C6" d="M54.142,17.716c0.178-0.142,0.283-0.035,0.283,0.212
		c0,0.248-0.105,0.532-0.283,0.673c-0.143,0.106-0.283,0-0.283-0.212C53.859,18.142,54,17.858,54.142,17.716L54.142,17.716
		L54.142,17.716"/>
	<path fill-rule="evenodd" clip-rule="evenodd" fill="#7D92C6" d="M54.142,16.583c0.178-0.142,0.283-0.036,0.283,0.212
		s-0.105,0.532-0.283,0.673c-0.143,0.106-0.283,0-0.283-0.248C53.859,17.008,54,16.689,54.142,16.583L54.142,16.583L54.142,16.583"
		/>
	<path fill-rule="evenodd" clip-rule="evenodd" fill="#7D92C6" d="M52.724,19.984c0.318-0.142,0.566-0.035,0.566,0.213
		s-0.248,0.531-0.566,0.673c-0.283,0.106-0.566,0-0.566-0.248C52.158,20.409,52.441,20.09,52.724,19.984L52.724,19.984
		L52.724,19.984"/>
	<path fill-rule="evenodd" clip-rule="evenodd" fill="#7D92C6" d="M52.724,18.85c0.318-0.142,0.566-0.035,0.566,0.213
		s-0.248,0.531-0.566,0.638c-0.283,0.142-0.566,0.035-0.566-0.212C52.158,19.24,52.441,18.957,52.724,18.85L52.724,18.85
		L52.724,18.85"/>
	<path fill-rule="evenodd" clip-rule="evenodd" fill="#7D92C6" d="M52.724,17.716c0.318-0.142,0.566-0.035,0.566,0.212
		c0,0.248-0.248,0.532-0.566,0.638c-0.283,0.142-0.566,0.035-0.566-0.213S52.441,17.823,52.724,17.716L52.724,17.716L52.724,17.716"
		/>
	<path fill-rule="evenodd" clip-rule="evenodd" fill="#7D92C6" d="M51.875,21.118c0.178-0.142,0.283-0.036,0.283,0.212
		s-0.105,0.531-0.283,0.673c-0.143,0.105-0.283,0-0.283-0.213C51.591,21.543,51.732,21.26,51.875,21.118L51.875,21.118
		L51.875,21.118"/>
	<path fill-rule="evenodd" clip-rule="evenodd" fill="#7D92C6" d="M51.591,19.984c0.318-0.142,0.566-0.035,0.566,0.213
		s-0.248,0.531-0.566,0.673c-0.283,0.106-0.568,0-0.568-0.248C51.023,20.409,51.308,20.09,51.591,19.984L51.591,19.984
		L51.591,19.984"/>
	<path fill-rule="evenodd" clip-rule="evenodd" fill="#7D92C6" d="M51.591,18.85c0.318-0.142,0.566-0.035,0.566,0.213
		s-0.248,0.531-0.566,0.638c-0.283,0.142-0.568,0.035-0.568-0.212C51.023,19.24,51.308,18.957,51.591,18.85L51.591,18.85
		L51.591,18.85"/>
	<path fill-rule="evenodd" clip-rule="evenodd" fill="#7D92C6" d="M51.591,17.716c0.318-0.142,0.566-0.035,0.566,0.212
		c0,0.248-0.248,0.532-0.566,0.638c-0.283,0.142-0.568,0.035-0.568-0.213S51.308,17.823,51.591,17.716L51.591,17.716L51.591,17.716"
		/>
	<path fill-rule="evenodd" clip-rule="evenodd" fill="#7D92C6" d="M50.457,21.189c0.318-0.213,0.566-0.036,0.566,0.319
		c0,0.39-0.248,0.814-0.566,0.957c-0.283,0.212-0.566,0.07-0.566-0.319C49.89,21.791,50.173,21.366,50.457,21.189L50.457,21.189
		L50.457,21.189"/>
	<path fill-rule="evenodd" clip-rule="evenodd" fill="#7D92C6" d="M50.457,20.02c0.318-0.177,0.531,0,0.531,0.39
		c0.035,0.319-0.213,0.815-0.531,0.992c-0.283,0.142-0.566,0.036-0.566-0.319C49.89,20.693,50.173,20.232,50.457,20.02L50.457,20.02
		L50.457,20.02"/>
	<path fill-rule="evenodd" clip-rule="evenodd" fill="#7D92C6" d="M50.492,18.886c0.32-0.177,0.531,0,0.531,0.319
		c0,0.39-0.211,0.851-0.531,1.063c-0.318,0.142-0.602,0.035-0.602-0.319C49.89,19.559,50.173,19.098,50.492,18.886L50.492,18.886
		L50.492,18.886"/>
	<path fill-rule="evenodd" clip-rule="evenodd" fill="#7D92C6" d="M49.324,22.322c0.318-0.213,0.566-0.035,0.566,0.319
		c0,0.39-0.248,0.814-0.566,0.957c-0.285,0.212-0.568,0.07-0.568-0.319C48.755,22.925,49.039,22.5,49.324,22.322L49.324,22.322
		L49.324,22.322"/>
	<path fill-rule="evenodd" clip-rule="evenodd" fill="#7D92C6" d="M49.324,21.189c0.318-0.213,0.566-0.036,0.566,0.319
		c0,0.39-0.248,0.814-0.566,0.957c-0.285,0.212-0.568,0.07-0.568-0.319C48.755,21.791,49.039,21.366,49.324,21.189L49.324,21.189
		L49.324,21.189"/>
	<path fill-rule="evenodd" clip-rule="evenodd" fill="#7D92C6" d="M49.324,20.551c0.318-0.142,0.566,0,0.566,0.213
		c0,0.248-0.248,0.567-0.566,0.673c-0.285,0.106-0.568,0.035-0.568-0.213S49.039,20.693,49.324,20.551L49.324,20.551L49.324,20.551"
		/>
	<path fill-rule="evenodd" clip-rule="evenodd" fill="#7D92C6" d="M49.324,19.417c0.318-0.142,0.566-0.035,0.566,0.213
		s-0.248,0.531-0.566,0.673c-0.285,0.106-0.568,0.036-0.568-0.212S49.039,19.559,49.324,19.417L49.324,19.417L49.324,19.417"/>
	<path fill-rule="evenodd" clip-rule="evenodd" fill="#7D92C6" d="M48.224,22.818c0.283-0.142,0.531,0,0.531,0.213
		c0,0.248-0.213,0.531-0.531,0.673c-0.318,0.106-0.602,0.036-0.602-0.212S47.906,22.961,48.224,22.818L48.224,22.818L48.224,22.818"
		/>
	<path fill-rule="evenodd" clip-rule="evenodd" fill="#7D92C6" d="M48.189,21.685c0.318-0.142,0.566-0.036,0.566,0.212
		s-0.248,0.531-0.531,0.673c-0.318,0.106-0.602,0-0.602-0.213C47.623,22.109,47.906,21.791,48.189,21.685L48.189,21.685
		L48.189,21.685"/>
	<path fill-rule="evenodd" clip-rule="evenodd" fill="#7D92C6" d="M48.189,20.551c0.318-0.142,0.566-0.035,0.566,0.213
		s-0.248,0.531-0.566,0.638c-0.283,0.142-0.566,0.036-0.566-0.212C47.623,20.976,47.871,20.657,48.189,20.551L48.189,20.551
		L48.189,20.551"/>
	<path fill-rule="evenodd" clip-rule="evenodd" fill="#7D92C6" d="M47.056,23.952c0.318-0.142,0.531,0,0.531,0.248
		c0.035,0.213-0.213,0.532-0.531,0.639c-0.285,0.105-0.568,0.035-0.568-0.213S46.771,24.095,47.056,23.952L47.056,23.952
		L47.056,23.952"/>
	<path fill-rule="evenodd" clip-rule="evenodd" fill="#7D92C6" d="M47.091,22.818c0.318-0.142,0.531,0,0.531,0.213
		c0,0.248-0.213,0.531-0.531,0.673c-0.32,0.106-0.604,0.036-0.604-0.212S46.771,22.961,47.091,22.818L47.091,22.818L47.091,22.818"
		/>
	<path fill-rule="evenodd" clip-rule="evenodd" fill="#7D92C6" d="M47.091,21.685c0.283-0.142,0.531-0.036,0.531,0.212
		s-0.213,0.531-0.531,0.673c-0.32,0.106-0.604,0-0.604-0.213C46.488,22.109,46.771,21.791,47.091,21.685L47.091,21.685
		L47.091,21.685"/>
	<path fill-rule="evenodd" clip-rule="evenodd" fill="#7D92C6" d="M47.056,20.551c0.318-0.142,0.566-0.035,0.566,0.213
		s-0.248,0.531-0.531,0.638c-0.32,0.142-0.604,0.036-0.604-0.212C46.488,20.976,46.771,20.657,47.056,20.551L47.056,20.551
		L47.056,20.551"/>
	<path fill-rule="evenodd" clip-rule="evenodd" fill="#7D92C6" d="M45.638,23.952c0.178-0.142,0.283-0.035,0.283,0.213
		s-0.105,0.531-0.283,0.674c-0.143,0.105-0.283,0-0.283-0.248C45.355,24.378,45.496,24.059,45.638,23.952L45.638,23.952
		L45.638,23.952"/>
	<path fill-rule="evenodd" clip-rule="evenodd" fill="#7D92C6" d="M45.638,22.818c0.178-0.142,0.283-0.035,0.283,0.213
		s-0.105,0.531-0.283,0.638c-0.143,0.142-0.248,0.035-0.283-0.213C45.355,23.208,45.496,22.925,45.638,22.818L45.638,22.818
		L45.638,22.818"/>
	<path fill-rule="evenodd" clip-rule="evenodd" fill="#7D92C6" d="M45.638,21.649c0.178-0.106,0.283,0,0.283,0.248
		c0,0.212-0.105,0.531-0.283,0.638c-0.143,0.142-0.283,0.035-0.283-0.213S45.496,21.791,45.638,21.649L45.638,21.649L45.638,21.649"
		/>
	<path fill-rule="evenodd" clip-rule="evenodd" fill="#4F65A8" d="M3.047,29.729l-0.212,0.106l3.791,2.479l0.177-0.07L3.047,29.729
		L3.047,29.729L3.047,29.729z M6.803,31.818l-3.756-2.622l-0.212,0.106l3.791,2.516H6.803L6.803,31.818L6.803,31.818z M6.803,31.287
		l-3.756-2.516l-0.212,0.106l3.791,2.516L6.803,31.287L6.803,31.287L6.803,31.287z M6.803,30.862l-3.756-2.516l-0.212,0.105
		l3.791,2.41H6.803L6.803,30.862L6.803,30.862z"/>
	<path fill-rule="evenodd" clip-rule="evenodd" fill="#2A3869" d="M2.835,29.94v0.284l3.791,2.09v-0.248L2.835,29.94L2.835,29.94
		L2.835,29.94z M3.047,29.87l3.756,2.126v-0.178l-0.177-0.105v-0.071l-3.791-2.126v0.177l0.212,0.071V29.87L3.047,29.87L3.047,29.87
		z M3.047,29.409l3.756,2.232v-0.283l-0.177-0.071l0,0l-3.791-2.126v0.178L3.047,29.409L3.047,29.409L3.047,29.409L3.047,29.409z
		 M3.047,29.055l3.756,2.126v-0.177l-0.177-0.071v-0.106l-3.791-2.02v0.178L3.047,29.055L3.047,29.055L3.047,29.055L3.047,29.055z
		 M3.047,28.7l3.756,2.126v-0.248H6.626v-0.105l-3.791-2.126v0.177l0.212,0.106V28.7L3.047,28.7L3.047,28.7z"/>
	<polygon fill-rule="evenodd" clip-rule="evenodd" fill="#485B98" points="10.205,28.347 10.205,30.33 6.803,32.314 6.803,32.031 
		7.016,31.961 7.016,31.748 6.803,31.854 6.803,31.57 7.016,31.57 7.016,31.287 6.803,31.394 6.803,31.181 7.016,31.11 
		7.016,30.897 6.803,31.004 6.803,30.721 7.016,30.721 7.016,30.437 6.803,30.543 6.803,30.33 10.205,28.347 10.205,28.347 
		10.205,28.347 10.205,28.347 	"/>
	<polygon fill-rule="evenodd" clip-rule="evenodd" fill="#4F65A8" points="6.732,30.614 2.835,28.204 6.236,26.078 10.205,28.523 
		6.732,30.614 6.732,30.614 6.732,30.614 6.732,30.614 	"/>
	<path fill-rule="evenodd" clip-rule="evenodd" fill="#4F65A8" d="M8.043,32.917l-0.106,0.106l3.792,2.126l0.177-0.071L8.043,32.917
		L8.043,32.917L8.043,32.917z M11.906,34.725l-3.862-2.232l-0.106,0.07l3.792,2.232L11.906,34.725L11.906,34.725L11.906,34.725z
		 M11.906,34.264l-3.862-2.126l-0.106,0.07l3.792,2.162L11.906,34.264L11.906,34.264L11.906,34.264z M11.906,33.909l-3.862-2.161
		l-0.106,0.106l3.792,2.161L11.906,33.909L11.906,33.909L11.906,33.909z"/>
	<path fill-rule="evenodd" clip-rule="evenodd" fill="#2A3869" d="M7.477,32.775v0.283l4.252,2.091v-0.248L7.477,32.775
		L7.477,32.775L7.477,32.775z M7.583,32.704l4.323,2.126v-0.177l-0.177-0.106l0,0l-4.252-2.196v0.177L7.583,32.704L7.583,32.704
		L7.583,32.704L7.583,32.704z M7.583,32.244l4.323,2.232v-0.284l-0.177-0.07l0,0l-4.252-2.126v0.177L7.583,32.244L7.583,32.244
		L7.583,32.244L7.583,32.244z M7.583,31.89l4.323,2.126v-0.177l-0.177-0.071l0,0l-4.252-2.126v0.177L7.583,31.89L7.583,31.89
		L7.583,31.89L7.583,31.89z M7.583,31.535l4.323,2.126v-0.177l-0.177-0.071v-0.106L7.37,31.181v0.178l0.213,0.106V31.535
		L7.583,31.535L7.583,31.535z"/>
	<polygon fill-rule="evenodd" clip-rule="evenodd" fill="#485B98" points="15.307,31.181 15.307,33.165 11.339,35.149 
		11.339,34.866 11.587,34.795 11.587,34.583 11.339,34.688 11.339,34.512 11.587,34.405 11.587,34.122 11.339,34.229 11.339,34.016 
		11.587,33.944 11.587,33.732 11.339,33.839 11.339,33.661 11.587,33.555 11.587,33.378 11.339,33.378 11.339,33.165 15.307,31.181 
		15.307,31.181 15.307,31.181 15.307,31.181 	"/>
	<polygon fill-rule="evenodd" clip-rule="evenodd" fill="#4F65A8" points="11.622,33.448 7.37,31.039 11.091,28.913 15.307,31.358 
		11.622,33.448 11.622,33.448 11.622,33.448 11.622,33.448 	"/>
	<path fill-rule="evenodd" clip-rule="evenodd" fill="#4F65A8" d="M12.685,35.752l-0.212,0.106l3.897,2.126l0.071-0.071
		L12.685,35.752L12.685,35.752L12.685,35.752z M16.441,37.559l-3.756-2.232l-0.212,0.071l3.897,2.232L16.441,37.559L16.441,37.559
		L16.441,37.559z M16.441,37.099l-3.756-2.126l-0.212,0.07l3.897,2.161L16.441,37.099L16.441,37.099L16.441,37.099z M16.441,36.744
		l-3.756-2.161l-0.212,0.105l3.897,2.162L16.441,36.744L16.441,36.744L16.441,36.744z"/>
	<path fill-rule="evenodd" clip-rule="evenodd" fill="#2A3869" d="M12.473,35.858v0.283l3.897,2.409v-0.283L12.473,35.858
		L12.473,35.858L12.473,35.858z M12.685,35.752l3.756,2.409v-0.213l-0.071-0.07l0,0l-3.897-2.552v0.213L12.685,35.752L12.685,35.752
		L12.685,35.752L12.685,35.752z M12.685,35.256l3.756,2.516v-0.319l-0.071-0.105l0,0l-3.897-2.41v0.213L12.685,35.256L12.685,35.256
		L12.685,35.256L12.685,35.256z M12.685,34.83l3.756,2.41v-0.178l-0.071-0.106l0,0l-3.897-2.409v0.178L12.685,34.83L12.685,34.83
		L12.685,34.83L12.685,34.83z M12.685,34.44l3.756,2.41v-0.213l-0.071-0.071v-0.105l-3.897-2.445v0.319h0.212V34.44L12.685,34.44
		L12.685,34.44z"/>
	<polygon fill-rule="evenodd" clip-rule="evenodd" fill="#485B98" points="19.772,34.583 19.843,36.566 16.441,38.551 
		16.441,38.268 16.547,38.196 16.547,37.984 16.441,38.091 16.441,37.913 16.547,37.807 16.547,37.523 16.441,37.7 16.441,37.417 
		16.547,37.347 16.547,37.134 16.441,37.24 16.441,37.063 16.547,36.956 16.547,36.779 16.441,36.851 16.441,36.566 19.772,34.583 
		19.772,34.583 19.772,34.583 19.772,34.583 	"/>
	<polygon fill-rule="evenodd" clip-rule="evenodd" fill="#4F65A8" points="16.441,36.283 12.473,34.192 15.98,32.314 19.843,34.44 
		16.441,36.283 16.441,36.283 16.441,36.283 16.441,36.283 	"/>
	<polygon fill-rule="evenodd" clip-rule="evenodd" fill="#FFFFFF" points="18.709,14.953 18.39,15.307 18.142,14.953 18.39,14.74 
		18.709,14.953 18.709,14.953 	"/>
	<polygon fill-rule="evenodd" clip-rule="evenodd" fill="#0F163D" points="18.709,15.13 18.496,15.307 18.142,15.13 18.496,14.74 
		18.709,15.13 18.709,15.13 	"/>
	<polygon fill-rule="evenodd" clip-rule="evenodd" fill="#0F163D" points="19.276,15.13 18.992,15.307 18.709,15.13 18.992,14.74 
		19.276,15.13 19.276,15.13 	"/>
	<polygon fill-rule="evenodd" clip-rule="evenodd" fill="#0F163D" points="18.709,14.563 18.496,14.74 18.142,14.563 18.39,14.173 
		18.709,14.563 18.709,14.563 	"/>
	<polygon fill-rule="evenodd" clip-rule="evenodd" fill="#0F163D" points="19.843,14.563 19.63,14.74 19.276,14.563 19.63,14.173 
		19.843,14.563 19.843,14.563 	"/>
	<polygon fill-rule="evenodd" clip-rule="evenodd" fill="#0F163D" points="19.276,14.563 18.992,14.74 18.709,14.563 18.992,14.173 
		19.276,14.563 19.276,14.563 	"/>
	<polygon fill-rule="evenodd" clip-rule="evenodd" fill="#FFFFFF" points="19.276,14.386 18.957,14.74 18.709,14.386 18.957,14.173 
		19.276,14.386 19.276,14.386 	"/>
	<polygon fill-rule="evenodd" clip-rule="evenodd" fill="#FFFFFF" points="19.843,14.386 19.63,14.74 19.276,14.386 19.63,14.173 
		19.843,14.386 19.843,14.386 	"/>
	<polygon fill-rule="evenodd" clip-rule="evenodd" fill="#FFFFFF" points="20.41,14.386 20.126,14.74 19.843,14.386 20.126,14.173 
		20.41,14.386 20.41,14.386 	"/>
	<polygon fill-rule="evenodd" clip-rule="evenodd" fill="#0F163D" points="19.843,13.819 19.63,14.173 19.276,13.819 19.524,13.606 
		19.843,13.819 19.843,13.819 	"/>
	<polygon fill-rule="evenodd" clip-rule="evenodd" fill="#0F163D" points="20.41,13.819 20.197,14.173 19.843,13.819 20.197,13.606 
		20.41,13.819 20.41,13.819 	"/>
	<polygon fill-rule="evenodd" clip-rule="evenodd" fill="#FFFFFF" points="19.843,13.89 19.63,14.173 19.276,13.89 19.63,13.606 
		19.843,13.89 19.843,13.89 	"/>
	<polygon fill-rule="evenodd" clip-rule="evenodd" fill="#FFFFFF" points="20.41,13.89 20.126,14.173 19.843,13.89 20.126,13.606 
		20.41,13.89 20.41,13.89 	"/>
	<polygon fill-rule="evenodd" clip-rule="evenodd" fill="#0F163D" points="20.977,13.819 20.693,14.173 20.41,13.819 20.693,13.606 
		20.977,13.819 20.977,13.819 	"/>
	<polygon fill-rule="evenodd" clip-rule="evenodd" fill="#FFFFFF" points="20.977,13.89 20.693,14.173 20.41,13.89 20.693,13.606 
		20.977,13.89 20.977,13.89 	"/>
	<polygon fill-rule="evenodd" clip-rule="evenodd" fill="#0F163D" points="20.977,13.429 20.693,13.606 20.41,13.429 20.693,13.039 
		20.977,13.429 20.977,13.429 	"/>
	<polygon fill-rule="evenodd" clip-rule="evenodd" fill="#FFFFFF" points="20.977,13.323 20.693,13.606 20.41,13.323 20.693,13.039 
		20.977,13.323 20.977,13.323 	"/>
	<polygon fill-rule="evenodd" clip-rule="evenodd" fill="#FFFFFF" points="21.543,13.323 21.331,13.606 20.977,13.323 
		21.331,13.039 21.543,13.323 21.543,13.323 	"/>
	<polygon fill-rule="evenodd" clip-rule="evenodd" fill="#FFFFFF" points="22.11,13.323 21.827,13.606 21.543,13.323 21.827,13.039 
		22.11,13.323 22.11,13.323 	"/>
	<polygon fill-rule="evenodd" clip-rule="evenodd" fill="#0F163D" points="21.543,13.429 21.331,13.606 20.977,13.429 
		21.225,13.039 21.543,13.429 21.543,13.429 	"/>
	<polygon fill-rule="evenodd" clip-rule="evenodd" fill="#0F163D" points="22.11,13.429 21.898,13.606 21.543,13.429 21.898,13.039 
		22.11,13.429 22.11,13.429 	"/>
	<polygon fill-rule="evenodd" clip-rule="evenodd" fill="#0F163D" points="22.677,12.862 22.394,13.039 22.11,12.862 22.394,12.472 
		22.677,12.862 22.677,12.862 	"/>
	<polygon fill-rule="evenodd" clip-rule="evenodd" fill="#FFFFFF" points="22.11,12.685 21.827,13.039 21.543,12.685 21.827,12.472 
		22.11,12.685 22.11,12.685 	"/>
	<polygon fill-rule="evenodd" clip-rule="evenodd" fill="#0F163D" points="22.11,12.862 21.792,13.039 21.543,12.862 21.792,12.472 
		22.11,12.862 22.11,12.862 	"/>
	<polygon fill-rule="evenodd" clip-rule="evenodd" fill="#FFFFFF" points="22.677,12.685 22.358,13.039 22.11,12.685 22.358,12.472 
		22.677,12.685 22.677,12.685 	"/>
	<polygon fill-rule="evenodd" clip-rule="evenodd" fill="#0F163D" points="23.244,12.862 23.032,13.039 22.677,12.862 
		23.032,12.472 23.244,12.862 23.244,12.862 	"/>
	<polygon fill-rule="evenodd" clip-rule="evenodd" fill="#FFFFFF" points="23.244,12.685 22.961,13.039 22.677,12.685 
		22.961,12.472 23.244,12.685 23.244,12.685 	"/>
	<polygon fill-rule="evenodd" clip-rule="evenodd" fill="#0F163D" points="22.677,12.295 22.394,12.472 22.11,12.295 22.394,11.905 
		22.677,12.295 22.677,12.295 	"/>
	<polygon fill-rule="evenodd" clip-rule="evenodd" fill="#FFFFFF" points="22.677,12.118 22.394,12.472 22.11,12.118 22.394,11.905 
		22.677,12.118 22.677,12.118 	"/>
	<polygon fill-rule="evenodd" clip-rule="evenodd" fill="#0F163D" points="23.244,12.295 22.925,12.472 22.677,12.295 
		22.925,11.905 23.244,12.295 23.244,12.295 	"/>
	<polygon fill-rule="evenodd" clip-rule="evenodd" fill="#FFFFFF" points="23.244,12.118 23.032,12.472 22.677,12.118 
		23.032,11.905 23.244,12.118 23.244,12.118 	"/>
	<polygon fill-rule="evenodd" clip-rule="evenodd" fill="#FFFFFF" points="23.811,12.118 23.528,12.472 23.244,12.118 
		23.528,11.905 23.811,12.118 23.811,12.118 	"/>
	<polygon fill-rule="evenodd" clip-rule="evenodd" fill="#0F163D" points="23.811,12.295 23.599,12.472 23.244,12.295 
		23.599,11.905 23.811,12.295 23.811,12.295 	"/>
	<polygon fill-rule="evenodd" clip-rule="evenodd" fill="#FFFFFF" points="23.811,11.622 23.528,11.905 23.244,11.622 
		23.528,11.338 23.811,11.622 23.811,11.622 	"/>
	<polygon fill-rule="evenodd" clip-rule="evenodd" fill="#0F163D" points="23.811,11.622 23.492,11.905 23.244,11.622 
		23.492,11.338 23.811,11.622 23.811,11.622 	"/>
	<polygon fill-rule="evenodd" clip-rule="evenodd" fill="#FFFFFF" points="24.378,11.622 24.095,11.905 23.811,11.622 
		24.095,11.338 24.378,11.622 24.378,11.622 	"/>
	<polygon fill-rule="evenodd" clip-rule="evenodd" fill="#0F163D" points="24.945,11.622 24.732,11.905 24.378,11.622 
		24.626,11.338 24.945,11.622 24.945,11.622 	"/>
	<polygon fill-rule="evenodd" clip-rule="evenodd" fill="#FFFFFF" points="24.945,11.622 24.662,11.905 24.378,11.622 
		24.662,11.338 24.945,11.622 24.945,11.622 	"/>
	<polygon fill-rule="evenodd" clip-rule="evenodd" fill="#0F163D" points="24.378,11.622 24.095,11.905 23.811,11.622 
		24.095,11.338 24.378,11.622 24.378,11.622 	"/>
	<polygon fill-rule="evenodd" clip-rule="evenodd" fill="#0F163D" points="24.945,11.161 24.626,11.338 24.378,11.161 
		24.626,10.771 24.945,11.161 24.945,11.161 	"/>
	<polygon fill-rule="evenodd" clip-rule="evenodd" fill="#0F163D" points="25.512,11.161 25.193,11.338 24.945,11.161 
		25.193,10.771 25.512,11.161 25.512,11.161 	"/>
	<polygon fill-rule="evenodd" clip-rule="evenodd" fill="#FFFFFF" points="24.945,10.984 24.732,11.338 24.378,10.984 
		24.732,10.771 24.945,10.984 24.945,10.984 	"/>
	<polygon fill-rule="evenodd" clip-rule="evenodd" fill="#FFFFFF" points="25.512,10.984 25.229,11.338 24.945,10.984 
		25.229,10.771 25.512,10.984 25.512,10.984 	"/>
	<polygon fill-rule="evenodd" clip-rule="evenodd" fill="#0F163D" points="26.079,11.161 25.795,11.338 25.512,11.161 
		25.795,10.771 26.079,11.161 26.079,11.161 	"/>
	<polygon fill-rule="evenodd" clip-rule="evenodd" fill="#FFFFFF" points="26.079,10.984 25.795,11.338 25.512,10.984 
		25.795,10.771 26.079,10.984 26.079,10.984 	"/>
	<polygon fill-rule="evenodd" clip-rule="evenodd" fill="#0F163D" points="25.512,10.594 25.229,10.771 24.945,10.594 
		25.229,10.205 25.512,10.594 25.512,10.594 	"/>
	<polygon fill-rule="evenodd" clip-rule="evenodd" fill="#0F163D" points="27.78,19.665 27.496,19.842 27.213,19.665 27.496,19.275 
		27.78,19.665 27.78,19.665 	"/>
	<polygon fill-rule="evenodd" clip-rule="evenodd" fill="#0F163D" points="27.213,19.665 26.894,19.842 26.646,19.665 
		26.894,19.275 27.213,19.665 27.213,19.665 	"/>
	<polygon fill-rule="evenodd" clip-rule="evenodd" fill="#FFFFFF" points="27.213,19.488 27,19.842 26.646,19.488 27,19.275 
		27.213,19.488 27.213,19.488 	"/>
	<polygon fill-rule="evenodd" clip-rule="evenodd" fill="#FFFFFF" points="27.78,19.488 27.496,19.842 27.213,19.488 27.496,19.275 
		27.78,19.488 27.78,19.488 	"/>
	<polygon fill-rule="evenodd" clip-rule="evenodd" fill="#FFFFFF" points="28.347,19.488 28.134,19.842 27.78,19.488 28.134,19.275 
		28.347,19.488 28.347,19.488 	"/>
	<polygon fill-rule="evenodd" clip-rule="evenodd" fill="#0F163D" points="27.78,18.921 27.496,19.275 27.213,18.921 27.496,18.708 
		27.78,18.921 27.78,18.921 	"/>
	<polygon fill-rule="evenodd" clip-rule="evenodd" fill="#0F163D" points="28.347,18.921 28.063,19.275 27.78,18.921 28.063,18.708 
		28.347,18.921 28.347,18.921 	"/>
	<polygon fill-rule="evenodd" clip-rule="evenodd" fill="#FFFFFF" points="27.78,18.992 27.496,19.275 27.213,18.992 27.496,18.708 
		27.78,18.992 27.78,18.992 	"/>
	<polygon fill-rule="evenodd" clip-rule="evenodd" fill="#FFFFFF" points="28.347,18.992 28.134,19.275 27.78,18.992 28.134,18.708 
		28.347,18.992 28.347,18.992 	"/>
	<polygon fill-rule="evenodd" clip-rule="evenodd" fill="#0F163D" points="28.914,18.921 28.595,19.275 28.347,18.921 
		28.595,18.708 28.914,18.921 28.914,18.921 	"/>
	<polygon fill-rule="evenodd" clip-rule="evenodd" fill="#FFFFFF" points="28.914,18.992 28.701,19.275 28.347,18.992 
		28.701,18.708 28.914,18.992 28.914,18.992 	"/>
	<polygon fill-rule="evenodd" clip-rule="evenodd" fill="#0F163D" points="28.914,18.531 28.595,18.708 28.347,18.531 
		28.595,18.142 28.914,18.531 28.914,18.531 	"/>
	<polygon fill-rule="evenodd" clip-rule="evenodd" fill="#FFFFFF" points="28.914,18.425 28.701,18.708 28.347,18.425 
		28.701,18.142 28.914,18.425 28.914,18.425 	"/>
	<polygon fill-rule="evenodd" clip-rule="evenodd" fill="#FFFFFF" points="29.48,18.425 29.197,18.708 28.914,18.425 29.197,18.142 
		29.48,18.425 29.48,18.425 	"/>
	<polygon fill-rule="evenodd" clip-rule="evenodd" fill="#FFFFFF" points="30.047,18.425 29.835,18.708 29.48,18.425 29.835,18.142 
		30.047,18.425 30.047,18.425 	"/>
	<polygon fill-rule="evenodd" clip-rule="evenodd" fill="#0F163D" points="29.48,18.531 29.197,18.708 28.914,18.531 29.197,18.142 
		29.48,18.531 29.48,18.531 	"/>
	<polygon fill-rule="evenodd" clip-rule="evenodd" fill="#0F163D" points="30.047,18.531 29.764,18.708 29.48,18.531 29.764,18.142 
		30.047,18.531 30.047,18.531 	"/>
	<polygon fill-rule="evenodd" clip-rule="evenodd" fill="#0F163D" points="30.614,17.964 30.295,18.142 30.047,17.964 
		30.295,17.575 30.614,17.964 30.614,17.964 	"/>
	<polygon fill-rule="evenodd" clip-rule="evenodd" fill="#FFFFFF" points="30.047,17.787 29.835,18.142 29.48,17.787 29.835,17.575 
		30.047,17.787 30.047,17.787 	"/>
	<polygon fill-rule="evenodd" clip-rule="evenodd" fill="#0F163D" points="30.047,17.964 29.764,18.142 29.48,17.964 29.764,17.575 
		30.047,17.964 30.047,17.964 	"/>
	<polygon fill-rule="evenodd" clip-rule="evenodd" fill="#FFFFFF" points="30.614,17.787 30.402,18.142 30.047,17.787 
		30.402,17.575 30.614,17.787 30.614,17.787 	"/>
	<polygon fill-rule="evenodd" clip-rule="evenodd" fill="#0F163D" points="31.182,17.964 30.897,18.142 30.614,17.964 
		30.897,17.575 31.182,17.964 31.182,17.964 	"/>
	<polygon fill-rule="evenodd" clip-rule="evenodd" fill="#FFFFFF" points="31.182,17.787 30.897,18.142 30.614,17.787 
		30.897,17.575 31.182,17.787 31.182,17.787 	"/>
	<polygon fill-rule="evenodd" clip-rule="evenodd" fill="#0F163D" points="30.614,17.22 30.295,17.575 30.047,17.22 30.295,17.008 
		30.614,17.22 30.614,17.22 	"/>
	<polygon fill-rule="evenodd" clip-rule="evenodd" fill="#FFFFFF" points="30.614,17.291 30.402,17.575 30.047,17.291 
		30.402,17.008 30.614,17.291 30.614,17.291 	"/>
	<polygon fill-rule="evenodd" clip-rule="evenodd" fill="#0F163D" points="31.182,17.22 30.897,17.575 30.614,17.22 30.897,17.008 
		31.182,17.22 31.182,17.22 	"/>
	<polygon fill-rule="evenodd" clip-rule="evenodd" fill="#FFFFFF" points="31.182,17.291 30.897,17.575 30.614,17.291 
		30.897,17.008 31.182,17.291 31.182,17.291 	"/>
	<polygon fill-rule="evenodd" clip-rule="evenodd" fill="#FFFFFF" points="31.748,17.291 31.535,17.575 31.182,17.291 
		31.535,17.008 31.748,17.291 31.748,17.291 	"/>
	<polygon fill-rule="evenodd" clip-rule="evenodd" fill="#0F163D" points="31.748,17.22 31.465,17.575 31.182,17.22 31.465,17.008 
		31.748,17.22 31.748,17.22 	"/>
	<polygon fill-rule="evenodd" clip-rule="evenodd" fill="#FFFFFF" points="31.748,16.724 31.535,17.008 31.182,16.724 
		31.535,16.441 31.748,16.724 31.748,16.724 	"/>
	<polygon fill-rule="evenodd" clip-rule="evenodd" fill="#0F163D" points="31.748,16.831 31.465,17.008 31.182,16.831 
		31.465,16.441 31.748,16.831 31.748,16.831 	"/>
	<polygon fill-rule="evenodd" clip-rule="evenodd" fill="#FFFFFF" points="32.316,16.724 32.103,17.008 31.748,16.724 
		32.103,16.441 32.316,16.724 32.316,16.724 	"/>
	<polygon fill-rule="evenodd" clip-rule="evenodd" fill="#0F163D" points="32.882,16.831 32.599,17.008 32.316,16.831 
		32.599,16.441 32.882,16.831 32.882,16.831 	"/>
	<polygon fill-rule="evenodd" clip-rule="evenodd" fill="#FFFFFF" points="32.882,16.724 32.599,17.008 32.316,16.724 
		32.599,16.441 32.882,16.724 32.882,16.724 	"/>
	<polygon fill-rule="evenodd" clip-rule="evenodd" fill="#0F163D" points="32.316,16.831 31.996,17.008 31.748,16.831 
		31.996,16.441 32.316,16.831 32.316,16.831 	"/>
	<polygon fill-rule="evenodd" clip-rule="evenodd" fill="#0F163D" points="32.882,16.264 32.599,16.441 32.316,16.264 
		32.599,15.874 32.882,16.264 32.882,16.264 	"/>
	<polygon fill-rule="evenodd" clip-rule="evenodd" fill="#0F163D" points="33.449,16.264 33.166,16.441 32.882,16.264 
		33.166,15.874 33.449,16.264 33.449,16.264 	"/>
	<polygon fill-rule="evenodd" clip-rule="evenodd" fill="#FFFFFF" points="32.882,16.086 32.599,16.441 32.316,16.086 
		32.599,15.874 32.882,16.086 32.882,16.086 	"/>
	<polygon fill-rule="evenodd" clip-rule="evenodd" fill="#FFFFFF" points="33.449,16.086 33.236,16.441 32.882,16.086 
		33.236,15.874 33.449,16.086 33.449,16.086 	"/>
	<polygon fill-rule="evenodd" clip-rule="evenodd" fill="#0F163D" points="34.015,16.264 33.697,16.441 33.449,16.264 
		33.697,15.874 34.015,16.264 34.015,16.264 	"/>
	<polygon fill-rule="evenodd" clip-rule="evenodd" fill="#FFFFFF" points="34.015,16.086 33.804,16.441 33.449,16.086 
		33.804,15.874 34.015,16.086 34.015,16.086 	"/>
	<polygon fill-rule="evenodd" clip-rule="evenodd" fill="#0F163D" points="33.449,15.52 33.166,15.874 32.882,15.52 33.166,15.307 
		33.449,15.52 33.449,15.52 	"/>
	<polygon fill-rule="evenodd" clip-rule="evenodd" fill="#0F163D" points="29.48,20.799 29.162,20.976 28.914,20.799 29.162,20.409 
		29.48,20.799 29.48,20.799 	"/>
	<polygon fill-rule="evenodd" clip-rule="evenodd" fill="#FFFFFF" points="28.914,20.622 28.701,20.976 28.347,20.622 
		28.701,20.409 28.914,20.622 28.914,20.622 	"/>
	<polygon fill-rule="evenodd" clip-rule="evenodd" fill="#FFFFFF" points="29.48,20.622 29.197,20.976 28.914,20.622 29.197,20.409 
		29.48,20.622 29.48,20.622 	"/>
	<polygon fill-rule="evenodd" clip-rule="evenodd" fill="#0F163D" points="30.047,20.799 29.764,20.976 29.48,20.799 29.764,20.409 
		30.047,20.799 30.047,20.799 	"/>
	<polygon fill-rule="evenodd" clip-rule="evenodd" fill="#FFFFFF" points="30.047,20.622 29.764,20.976 29.48,20.622 29.764,20.409 
		30.047,20.622 30.047,20.622 	"/>
	<polygon fill-rule="evenodd" clip-rule="evenodd" fill="#0F163D" points="29.48,20.055 29.162,20.409 28.914,20.055 29.162,19.842 
		29.48,20.055 29.48,20.055 	"/>
	<polygon fill-rule="evenodd" clip-rule="evenodd" fill="#0F163D" points="30.614,20.055 30.295,20.409 30.047,20.055 
		30.295,19.842 30.614,20.055 30.614,20.055 	"/>
	<polygon fill-rule="evenodd" clip-rule="evenodd" fill="#0F163D" points="30.047,20.055 29.764,20.409 29.48,20.055 29.764,19.842 
		30.047,20.055 30.047,20.055 	"/>
	<polygon fill-rule="evenodd" clip-rule="evenodd" fill="#FFFFFF" points="30.047,20.126 29.764,20.409 29.48,20.126 29.764,19.842 
		30.047,20.126 30.047,20.126 	"/>
	<polygon fill-rule="evenodd" clip-rule="evenodd" fill="#FFFFFF" points="30.614,20.126 30.402,20.409 30.047,20.126 
		30.402,19.842 30.614,20.126 30.614,20.126 	"/>
	<polygon fill-rule="evenodd" clip-rule="evenodd" fill="#FFFFFF" points="31.182,20.126 30.897,20.409 30.614,20.126 
		30.897,19.842 31.182,20.126 31.182,20.126 	"/>
	<polygon fill-rule="evenodd" clip-rule="evenodd" fill="#FFFFFF" points="30.614,19.559 30.402,19.842 30.047,19.559 
		30.402,19.275 30.614,19.559 30.614,19.559 	"/>
	<polygon fill-rule="evenodd" clip-rule="evenodd" fill="#FFFFFF" points="31.182,19.559 30.897,19.842 30.614,19.559 
		30.897,19.275 31.182,19.559 31.182,19.559 	"/>
	<polygon fill-rule="evenodd" clip-rule="evenodd" fill="#0F163D" points="31.748,19.665 31.535,19.842 31.182,19.665 
		31.535,19.275 31.748,19.665 31.748,19.665 	"/>
	<polygon fill-rule="evenodd" clip-rule="evenodd" fill="#FFFFFF" points="31.748,19.559 31.465,19.842 31.182,19.559 
		31.465,19.275 31.748,19.559 31.748,19.559 	"/>
	<polygon fill-rule="evenodd" clip-rule="evenodd" fill="#0F163D" points="31.182,19.665 30.862,19.842 30.614,19.665 
		30.862,19.275 31.182,19.665 31.182,19.665 	"/>
	<polygon fill-rule="evenodd" clip-rule="evenodd" fill="#0F163D" points="32.316,19.665 31.996,19.842 31.748,19.665 
		31.996,19.275 32.316,19.665 32.316,19.665 	"/>
	<polygon fill-rule="evenodd" clip-rule="evenodd" fill="#0F163D" points="31.748,19.098 31.465,19.275 31.182,19.098 
		31.465,18.708 31.748,19.098 31.748,19.098 	"/>
	<polygon fill-rule="evenodd" clip-rule="evenodd" fill="#0F163D" points="32.316,19.098 32.103,19.275 31.748,19.098 
		32.103,18.708 32.316,19.098 32.316,19.098 	"/>
	<polygon fill-rule="evenodd" clip-rule="evenodd" fill="#FFFFFF" points="31.748,18.921 31.465,19.275 31.182,18.921 
		31.465,18.708 31.748,18.921 31.748,18.921 	"/>
	<polygon fill-rule="evenodd" clip-rule="evenodd" fill="#0F163D" points="32.316,19.098 31.996,19.275 31.748,19.098 
		31.996,18.708 32.316,19.098 32.316,19.098 	"/>
	<polygon fill-rule="evenodd" clip-rule="evenodd" fill="#FFFFFF" points="32.316,18.921 32.103,19.275 31.748,18.921 
		32.103,18.708 32.316,18.921 32.316,18.921 	"/>
	<polygon fill-rule="evenodd" clip-rule="evenodd" fill="#FFFFFF" points="32.882,18.921 32.599,19.275 32.316,18.921 
		32.599,18.708 32.882,18.921 32.882,18.921 	"/>
	<polygon fill-rule="evenodd" clip-rule="evenodd" fill="#0F163D" points="32.882,19.098 32.564,19.275 32.316,19.098 
		32.564,18.708 32.882,19.098 32.882,19.098 	"/>
	<polygon fill-rule="evenodd" clip-rule="evenodd" fill="#0F163D" points="33.449,18.425 33.236,18.708 32.882,18.425 
		33.236,18.142 33.449,18.425 33.449,18.425 	"/>
	<polygon fill-rule="evenodd" clip-rule="evenodd" fill="#FFFFFF" points="32.882,18.531 32.599,18.708 32.316,18.531 
		32.599,18.142 32.882,18.531 32.882,18.531 	"/>
	<polygon fill-rule="evenodd" clip-rule="evenodd" fill="#0F163D" points="32.882,18.354 32.564,18.708 32.316,18.354 
		32.564,18.142 32.882,18.354 32.882,18.354 	"/>
	<polygon fill-rule="evenodd" clip-rule="evenodd" fill="#FFFFFF" points="33.449,18.531 33.166,18.708 32.882,18.531 
		33.166,18.142 33.449,18.531 33.449,18.531 	"/>
	<polygon fill-rule="evenodd" clip-rule="evenodd" fill="#0F163D" points="34.015,18.354 33.697,18.708 33.449,18.354 
		33.697,18.142 34.015,18.354 34.015,18.354 	"/>
	<polygon fill-rule="evenodd" clip-rule="evenodd" fill="#FFFFFF" points="34.015,18.531 33.804,18.708 33.449,18.531 
		33.804,18.142 34.015,18.531 34.015,18.531 	"/>
	<polygon fill-rule="evenodd" clip-rule="evenodd" fill="#FFFFFF" points="33.449,17.964 33.166,18.142 32.882,17.964 
		33.166,17.575 33.449,17.964 33.449,17.964 	"/>
	<polygon fill-rule="evenodd" clip-rule="evenodd" fill="#0F163D" points="34.015,17.787 33.697,18.142 33.449,17.787 
		33.697,17.575 34.015,17.787 34.015,17.787 	"/>
	<polygon fill-rule="evenodd" clip-rule="evenodd" fill="#FFFFFF" points="34.015,17.964 33.804,18.142 33.449,17.964 
		33.697,17.575 34.015,17.964 34.015,17.964 	"/>
	<polygon fill-rule="evenodd" clip-rule="evenodd" fill="#FFFFFF" points="34.583,17.964 34.3,18.142 34.015,17.964 34.3,17.575 
		34.583,17.964 34.583,17.964 	"/>
	<polygon fill-rule="evenodd" clip-rule="evenodd" fill="#0F163D" points="34.583,17.787 34.263,18.142 34.015,17.787 
		34.263,17.575 34.583,17.787 34.583,17.787 	"/>
	<polygon fill-rule="evenodd" clip-rule="evenodd" fill="#0F163D" points="35.15,17.787 34.867,18.142 34.583,17.787 34.867,17.575 
		35.15,17.787 35.15,17.787 	"/>
	<polygon fill-rule="evenodd" clip-rule="evenodd" fill="#FFFFFF" points="34.583,17.22 34.3,17.575 34.015,17.22 34.3,17.008 
		34.583,17.22 34.583,17.22 	"/>
	<polygon fill-rule="evenodd" clip-rule="evenodd" fill="#0F163D" points="34.583,17.291 34.263,17.575 34.015,17.291 
		34.263,17.008 34.583,17.291 34.583,17.291 	"/>
	<polygon fill-rule="evenodd" clip-rule="evenodd" fill="#FFFFFF" points="35.15,17.22 34.867,17.575 34.583,17.22 34.867,17.008 
		35.15,17.22 35.15,17.22 	"/>
	<polygon fill-rule="evenodd" clip-rule="evenodd" fill="#FFFFFF" points="35.716,17.22 35.398,17.575 35.15,17.22 35.398,17.008 
		35.716,17.22 35.716,17.22 	"/>
	<polygon fill-rule="evenodd" clip-rule="evenodd" fill="#0F163D" points="35.15,17.397 34.937,17.575 34.583,17.397 34.937,17.008 
		35.15,17.397 35.15,17.397 	"/>
	<polygon fill-rule="evenodd" clip-rule="evenodd" fill="#FFFFFF" points="35.15,17.22 34.867,17.575 34.583,17.22 34.867,17.008 
		35.15,17.22 35.15,17.22 	"/>
	<polygon fill-rule="evenodd" clip-rule="evenodd" fill="#0F163D" points="35.716,17.291 35.503,17.575 35.15,17.291 35.503,17.008 
		35.716,17.291 35.716,17.291 	"/>
	<polygon fill-rule="evenodd" clip-rule="evenodd" fill="#FFFFFF" points="31.182,21.756 30.897,22.109 30.614,21.756 
		30.897,21.543 31.182,21.756 31.182,21.756 	"/>
	<polygon fill-rule="evenodd" clip-rule="evenodd" fill="#FFFFFF" points="31.748,21.756 31.43,22.109 31.182,21.756 31.43,21.543 
		31.748,21.756 31.748,21.756 	"/>
	<polygon fill-rule="evenodd" clip-rule="evenodd" fill="#0F163D" points="31.182,21.826 30.969,22.109 30.614,21.826 
		30.969,21.543 31.182,21.826 31.182,21.826 	"/>
	<polygon fill-rule="evenodd" clip-rule="evenodd" fill="#0F163D" points="31.748,21.826 31.535,22.109 31.182,21.826 
		31.535,21.543 31.748,21.826 31.748,21.826 	"/>
	<polygon fill-rule="evenodd" clip-rule="evenodd" fill="#0F163D" points="32.316,21.26 32.031,21.543 31.748,21.26 32.031,20.976 
		32.316,21.26 32.316,21.26 	"/>
	<polygon fill-rule="evenodd" clip-rule="evenodd" fill="#FFFFFF" points="31.748,21.366 31.43,21.543 31.182,21.366 31.43,20.976 
		31.748,21.366 31.748,21.366 	"/>
	<polygon fill-rule="evenodd" clip-rule="evenodd" fill="#0F163D" points="31.748,21.26 31.535,21.543 31.182,21.26 31.535,20.976 
		31.748,21.26 31.748,21.26 	"/>
	<polygon fill-rule="evenodd" clip-rule="evenodd" fill="#FFFFFF" points="32.316,21.366 32.031,21.543 31.748,21.366 
		32.031,20.976 32.316,21.366 32.316,21.366 	"/>
	<polygon fill-rule="evenodd" clip-rule="evenodd" fill="#0F163D" points="32.882,21.26 32.669,21.543 32.316,21.26 32.669,20.976 
		32.882,21.26 32.882,21.26 	"/>
	<polygon fill-rule="evenodd" clip-rule="evenodd" fill="#FFFFFF" points="32.882,21.366 32.599,21.543 32.316,21.366 
		32.599,20.976 32.882,21.366 32.882,21.366 	"/>
	<polygon fill-rule="evenodd" clip-rule="evenodd" fill="#0F163D" points="32.882,20.622 32.669,20.976 32.316,20.622 
		32.669,20.409 32.882,20.622 32.882,20.622 	"/>
	<polygon fill-rule="evenodd" clip-rule="evenodd" fill="#FFFFFF" points="32.882,20.799 32.599,20.976 32.316,20.799 
		32.599,20.409 32.882,20.799 32.882,20.799 	"/>
	<polygon fill-rule="evenodd" clip-rule="evenodd" fill="#FFFFFF" points="33.449,20.799 33.13,20.976 32.882,20.799 33.13,20.409 
		33.449,20.799 33.449,20.799 	"/>
	<polygon fill-rule="evenodd" clip-rule="evenodd" fill="#0F163D" points="33.449,20.622 33.236,20.976 32.882,20.622 
		33.236,20.409 33.449,20.622 33.449,20.622 	"/>
	<polygon fill-rule="evenodd" clip-rule="evenodd" fill="#FFFFFF" points="34.015,20.799 33.732,20.976 33.449,20.799 
		33.732,20.409 34.015,20.799 34.015,20.799 	"/>
	<polygon fill-rule="evenodd" clip-rule="evenodd" fill="#0F163D" points="34.015,20.622 33.732,20.976 33.449,20.622 
		33.732,20.409 34.015,20.622 34.015,20.622 	"/>
	<polygon fill-rule="evenodd" clip-rule="evenodd" fill="#FFFFFF" points="33.449,20.055 33.13,20.409 32.882,20.055 33.13,19.842 
		33.449,20.055 33.449,20.055 	"/>
	<polygon fill-rule="evenodd" clip-rule="evenodd" fill="#0F163D" points="33.449,20.126 33.236,20.409 32.882,20.126 
		33.236,19.842 33.449,20.126 33.449,20.126 	"/>
	<polygon fill-rule="evenodd" clip-rule="evenodd" fill="#FFFFFF" points="34.015,20.055 33.732,20.409 33.449,20.055 
		33.732,19.842 34.015,20.055 34.015,20.055 	"/>
	<polygon fill-rule="evenodd" clip-rule="evenodd" fill="#0F163D" points="34.583,20.126 34.371,20.409 34.015,20.126 
		34.371,19.842 34.583,20.126 34.583,20.126 	"/>
	<polygon fill-rule="evenodd" clip-rule="evenodd" fill="#FFFFFF" points="34.583,20.055 34.3,20.409 34.015,20.055 34.3,19.842 
		34.583,20.055 34.583,20.055 	"/>
	<polygon fill-rule="evenodd" clip-rule="evenodd" fill="#0F163D" points="34.015,20.126 33.732,20.409 33.449,20.126 
		33.732,19.842 34.015,20.126 34.015,20.126 	"/>
	<polygon fill-rule="evenodd" clip-rule="evenodd" fill="#0F163D" points="34.583,19.559 34.371,19.842 34.015,19.559 
		34.371,19.275 34.583,19.559 34.583,19.559 	"/>
	<polygon fill-rule="evenodd" clip-rule="evenodd" fill="#0F163D" points="35.15,19.559 34.937,19.842 34.583,19.559 34.937,19.275 
		35.15,19.559 35.15,19.559 	"/>
	<polygon fill-rule="evenodd" clip-rule="evenodd" fill="#FFFFFF" points="34.583,19.665 34.371,19.842 34.015,19.665 
		34.371,19.275 34.583,19.665 34.583,19.665 	"/>
	<polygon fill-rule="evenodd" clip-rule="evenodd" fill="#FFFFFF" points="35.15,19.665 34.867,19.842 34.583,19.665 34.867,19.275 
		35.15,19.665 35.15,19.665 	"/>
	<polygon fill-rule="evenodd" clip-rule="evenodd" fill="#FFFFFF" points="35.716,19.665 35.503,19.842 35.15,19.665 35.503,19.275 
		35.716,19.665 35.716,19.665 	"/>
	<polygon fill-rule="evenodd" clip-rule="evenodd" fill="#0F163D" points="35.716,19.559 35.433,19.842 35.15,19.559 35.433,19.275 
		35.716,19.559 35.716,19.559 	"/>
	<polygon fill-rule="evenodd" clip-rule="evenodd" fill="#FFFFFF" points="35.716,19.098 35.503,19.275 35.15,19.098 35.503,18.708 
		35.716,19.098 35.716,19.098 	"/>
	<polygon fill-rule="evenodd" clip-rule="evenodd" fill="#0F163D" points="35.716,18.921 35.433,19.275 35.15,18.921 35.433,18.708 
		35.716,18.921 35.716,18.921 	"/>
	<polygon fill-rule="evenodd" clip-rule="evenodd" fill="#FFFFFF" points="36.283,19.098 36.072,19.275 35.716,19.098 
		36.072,18.708 36.283,19.098 36.283,19.098 	"/>
	<polygon fill-rule="evenodd" clip-rule="evenodd" fill="#FFFFFF" points="36.851,19.098 36.531,19.275 36.283,19.098 
		36.531,18.708 36.851,19.098 36.851,19.098 	"/>
	<polygon fill-rule="evenodd" clip-rule="evenodd" fill="#0F163D" points="36.283,18.921 36.072,19.275 35.716,18.921 
		36.072,18.708 36.283,18.921 36.283,18.921 	"/>
	<polygon fill-rule="evenodd" clip-rule="evenodd" fill="#0F163D" points="36.851,18.921 36.638,19.275 36.283,18.921 
		36.638,18.708 36.851,18.921 36.851,18.921 	"/>
	<polygon fill-rule="evenodd" clip-rule="evenodd" fill="#FFFFFF" points="36.283,18.354 36.072,18.708 35.716,18.354 
		36.072,18.142 36.283,18.354 36.283,18.354 	"/>
	<polygon fill-rule="evenodd" clip-rule="evenodd" fill="#FFFFFF" points="36.851,18.354 36.568,18.708 36.283,18.354 
		36.568,18.142 36.851,18.354 36.851,18.354 	"/>
	<polygon fill-rule="evenodd" clip-rule="evenodd" fill="#FFFFFF" points="37.417,18.354 37.205,18.708 36.851,18.354 
		37.205,18.142 37.417,18.354 37.417,18.354 	"/>
	<polygon fill-rule="evenodd" clip-rule="evenodd" fill="#0F163D" points="37.417,18.425 37.134,18.708 36.851,18.425 
		37.134,18.142 37.417,18.425 37.417,18.425 	"/>
	<polygon fill-rule="evenodd" clip-rule="evenodd" fill="#0F163D" points="36.851,18.425 36.531,18.708 36.283,18.425 
		36.531,18.142 36.851,18.425 36.851,18.425 	"/>
	<polygon fill-rule="evenodd" clip-rule="evenodd" fill="#0F163D" points="37.984,18.425 37.666,18.708 37.417,18.425 
		37.666,18.142 37.984,18.425 37.984,18.425 	"/>
	<polygon fill-rule="evenodd" clip-rule="evenodd" fill="#0F163D" points="37.417,17.858 37.205,18.142 36.851,17.858 
		37.205,17.575 37.417,17.858 37.417,17.858 	"/>
	<polygon fill-rule="evenodd" clip-rule="evenodd" fill="#FFFFFF" points="32.882,22.961 32.599,23.244 32.316,22.961 
		32.599,22.677 32.882,22.961 32.882,22.961 	"/>
	<polygon fill-rule="evenodd" clip-rule="evenodd" fill="#FFFFFF" points="33.449,22.961 33.13,23.244 32.882,22.961 33.13,22.677 
		33.449,22.961 33.449,22.961 	"/>
	<polygon fill-rule="evenodd" clip-rule="evenodd" fill="#0F163D" points="33.449,22.5 33.236,22.677 32.882,22.5 33.236,22.109 
		33.449,22.5 33.449,22.5 	"/>
	<polygon fill-rule="evenodd" clip-rule="evenodd" fill="#FFFFFF" points="32.882,22.5 32.599,22.677 32.316,22.5 32.599,22.109 
		32.882,22.5 32.882,22.5 	"/>
	<polygon fill-rule="evenodd" clip-rule="evenodd" fill="#FFFFFF" points="33.449,22.5 33.13,22.677 32.882,22.5 33.13,22.109 
		33.449,22.5 33.449,22.5 	"/>
	<polygon fill-rule="evenodd" clip-rule="evenodd" fill="#FFFFFF" points="34.015,22.394 33.732,22.677 33.449,22.394 
		33.732,22.109 34.015,22.394 34.015,22.394 	"/>
	<polygon fill-rule="evenodd" clip-rule="evenodd" fill="#0F163D" points="34.015,22.5 33.732,22.677 33.449,22.5 33.732,22.109 
		34.015,22.5 34.015,22.5 	"/>
	<polygon fill-rule="evenodd" clip-rule="evenodd" fill="#0F163D" points="33.449,22.5 33.236,22.677 32.882,22.5 33.236,22.109 
		33.449,22.5 33.449,22.5 	"/>
	<polygon fill-rule="evenodd" clip-rule="evenodd" fill="#0F163D" points="34.583,22.322 34.371,22.677 34.015,22.322 
		34.371,22.109 34.583,22.322 34.583,22.322 	"/>
	<polygon fill-rule="evenodd" clip-rule="evenodd" fill="#FFFFFF" points="34.015,21.934 33.732,22.109 33.449,21.934 
		33.732,21.543 34.015,21.934 34.015,21.934 	"/>
	<polygon fill-rule="evenodd" clip-rule="evenodd" fill="#0F163D" points="34.015,21.756 33.732,22.109 33.449,21.756 
		33.732,21.543 34.015,21.756 34.015,21.756 	"/>
	<polygon fill-rule="evenodd" clip-rule="evenodd" fill="#FFFFFF" points="34.583,21.756 34.3,22.109 34.015,21.756 34.3,21.543 
		34.583,21.756 34.583,21.756 	"/>
	<polygon fill-rule="evenodd" clip-rule="evenodd" fill="#FFFFFF" points="35.15,21.756 34.832,22.109 34.583,21.756 34.832,21.543 
		35.15,21.756 35.15,21.756 	"/>
	<polygon fill-rule="evenodd" clip-rule="evenodd" fill="#0F163D" points="34.583,21.756 34.371,22.109 34.015,21.756 
		34.371,21.543 34.583,21.756 34.583,21.756 	"/>
	<polygon fill-rule="evenodd" clip-rule="evenodd" fill="#0F163D" points="35.15,21.826 34.937,22.109 34.583,21.826 34.937,21.543 
		35.15,21.826 35.15,21.826 	"/>
	<polygon fill-rule="evenodd" clip-rule="evenodd" fill="#0F163D" points="35.716,21.26 35.433,21.543 35.15,21.26 35.433,20.976 
		35.716,21.26 35.716,21.26 	"/>
	<polygon fill-rule="evenodd" clip-rule="evenodd" fill="#FFFFFF" points="35.15,21.366 34.832,21.543 34.583,21.366 34.832,20.976 
		35.15,21.366 35.15,21.366 	"/>
	<polygon fill-rule="evenodd" clip-rule="evenodd" fill="#0F163D" points="35.15,21.189 34.937,21.543 34.583,21.189 34.937,20.976 
		35.15,21.189 35.15,21.189 	"/>
	<polygon fill-rule="evenodd" clip-rule="evenodd" fill="#FFFFFF" points="35.716,21.366 35.433,21.543 35.15,21.366 35.433,20.976 
		35.716,21.366 35.716,21.366 	"/>
	<polygon fill-rule="evenodd" clip-rule="evenodd" fill="#0F163D" points="36.283,21.26 36.072,21.543 35.716,21.26 36.072,20.976 
		36.283,21.26 36.283,21.26 	"/>
	<polygon fill-rule="evenodd" clip-rule="evenodd" fill="#FFFFFF" points="36.283,21.366 36,21.543 35.716,21.366 36,20.976 
		36.283,21.366 36.283,21.366 	"/>
	<polygon fill-rule="evenodd" clip-rule="evenodd" fill="#0F163D" points="36.283,20.622 36.072,20.976 35.716,20.622 
		36.072,20.409 36.283,20.622 36.283,20.622 	"/>
	<polygon fill-rule="evenodd" clip-rule="evenodd" fill="#FFFFFF" points="36.283,20.799 36,20.976 35.716,20.799 36,20.409 
		36.283,20.799 36.283,20.799 	"/>
	<polygon fill-rule="evenodd" clip-rule="evenodd" fill="#FFFFFF" points="36.851,20.799 36.531,20.976 36.283,20.799 
		36.531,20.409 36.851,20.799 36.851,20.799 	"/>
	<polygon fill-rule="evenodd" clip-rule="evenodd" fill="#0F163D" points="36.851,20.622 36.638,20.976 36.283,20.622 
		36.638,20.409 36.851,20.622 36.851,20.622 	"/>
	<polygon fill-rule="evenodd" clip-rule="evenodd" fill="#FFFFFF" points="37.417,20.799 37.134,20.976 36.851,20.799 
		37.134,20.409 37.417,20.799 37.417,20.799 	"/>
	<polygon fill-rule="evenodd" clip-rule="evenodd" fill="#0F163D" points="37.417,20.622 37.134,20.976 36.851,20.622 
		37.134,20.409 37.417,20.622 37.417,20.622 	"/>
	<polygon fill-rule="evenodd" clip-rule="evenodd" fill="#FFFFFF" points="36.851,20.055 36.531,20.409 36.283,20.055 
		36.531,19.842 36.851,20.055 36.851,20.055 	"/>
	<polygon fill-rule="evenodd" clip-rule="evenodd" fill="#0F163D" points="36.851,20.126 36.638,20.409 36.283,20.126 
		36.638,19.842 36.851,20.126 36.851,20.126 	"/>
	<polygon fill-rule="evenodd" clip-rule="evenodd" fill="#FFFFFF" points="37.417,20.055 37.134,20.409 36.851,20.055 
		37.134,19.842 37.417,20.055 37.417,20.055 	"/>
	<polygon fill-rule="evenodd" clip-rule="evenodd" fill="#0F163D" points="37.984,20.126 37.771,20.409 37.417,20.126 
		37.771,19.842 37.984,20.126 37.984,20.126 	"/>
	<polygon fill-rule="evenodd" clip-rule="evenodd" fill="#FFFFFF" points="37.984,20.055 37.701,20.409 37.417,20.055 
		37.701,19.842 37.984,20.055 37.984,20.055 	"/>
	<polygon fill-rule="evenodd" clip-rule="evenodd" fill="#0F163D" points="37.417,20.126 37.134,20.409 36.851,20.126 
		37.134,19.842 37.417,20.126 37.417,20.126 	"/>
	<polygon fill-rule="evenodd" clip-rule="evenodd" fill="#0F163D" points="37.984,19.559 37.771,19.842 37.417,19.559 
		37.771,19.275 37.984,19.559 37.984,19.559 	"/>
	<polygon fill-rule="evenodd" clip-rule="evenodd" fill="#0F163D" points="38.552,19.559 38.339,19.842 37.984,19.559 
		38.339,19.275 38.552,19.559 38.552,19.559 	"/>
	<polygon fill-rule="evenodd" clip-rule="evenodd" fill="#FFFFFF" points="37.984,19.665 37.701,19.842 37.417,19.665 
		37.701,19.275 37.984,19.665 37.984,19.665 	"/>
	<polygon fill-rule="evenodd" clip-rule="evenodd" fill="#FFFFFF" points="38.552,19.665 38.232,19.842 37.984,19.665 
		38.232,19.275 38.552,19.665 38.552,19.665 	"/>
	<polygon fill-rule="evenodd" clip-rule="evenodd" fill="#FFFFFF" points="39.119,19.665 38.835,19.842 38.552,19.665 
		38.835,19.275 39.119,19.665 39.119,19.665 	"/>
	<polygon fill-rule="evenodd" clip-rule="evenodd" fill="#0F163D" points="39.119,19.559 38.835,19.842 38.552,19.559 
		38.835,19.275 39.119,19.559 39.119,19.559 	"/>
	<polygon fill-rule="evenodd" clip-rule="evenodd" fill="#FFFFFF" points="39.119,19.098 38.835,19.275 38.552,19.098 
		38.835,18.708 39.119,19.098 39.119,19.098 	"/>
	<polygon fill-rule="evenodd" clip-rule="evenodd" fill="#0F163D" points="39.119,18.921 38.835,19.275 38.552,18.921 
		38.835,18.708 39.119,18.921 39.119,18.921 	"/>
	<polygon fill-rule="evenodd" clip-rule="evenodd" fill="#0F163D" points="35.15,15.59 34.867,15.874 34.583,15.59 34.867,15.307 
		35.15,15.59 35.15,15.59 	"/>
	<polygon fill-rule="evenodd" clip-rule="evenodd" fill="#0F163D" points="34.583,15.023 34.263,15.307 34.015,15.023 34.263,14.74 
		34.583,15.023 34.583,15.023 	"/>
	<polygon fill-rule="evenodd" clip-rule="evenodd" fill="#FFFFFF" points="34.583,15.13 34.371,15.307 34.015,15.13 34.371,14.74 
		34.583,15.13 34.583,15.13 	"/>
	<polygon fill-rule="evenodd" clip-rule="evenodd" fill="#0F163D" points="35.15,15.023 34.867,15.307 34.583,15.023 34.867,14.74 
		35.15,15.023 35.15,15.023 	"/>
	<polygon fill-rule="evenodd" clip-rule="evenodd" fill="#FFFFFF" points="35.15,15.13 34.867,15.307 34.583,15.13 34.867,14.74 
		35.15,15.13 35.15,15.13 	"/>
	<polygon fill-rule="evenodd" clip-rule="evenodd" fill="#FFFFFF" points="35.716,15.13 35.503,15.307 35.15,15.13 35.503,14.74 
		35.716,15.13 35.716,15.13 	"/>
	<polygon fill-rule="evenodd" clip-rule="evenodd" fill="#0F163D" points="35.716,15.023 35.433,15.307 35.15,15.023 35.433,14.74 
		35.716,15.023 35.716,15.023 	"/>
	<polygon fill-rule="evenodd" clip-rule="evenodd" fill="#FFFFFF" points="35.716,14.563 35.503,14.74 35.15,14.563 35.503,14.173 
		35.716,14.563 35.716,14.563 	"/>
	<polygon fill-rule="evenodd" clip-rule="evenodd" fill="#0F163D" points="35.716,14.386 35.503,14.74 35.15,14.386 35.503,14.173 
		35.716,14.386 35.716,14.386 	"/>
	<polygon fill-rule="evenodd" clip-rule="evenodd" fill="#FFFFFF" points="36.283,14.563 36.072,14.74 35.716,14.563 36.072,14.173 
		36.283,14.563 36.283,14.563 	"/>
	<polygon fill-rule="evenodd" clip-rule="evenodd" fill="#0F163D" points="36.851,14.386 36.568,14.74 36.283,14.386 36.568,14.173 
		36.851,14.386 36.851,14.386 	"/>
	<polygon fill-rule="evenodd" clip-rule="evenodd" fill="#FFFFFF" points="36.851,14.563 36.568,14.74 36.283,14.563 36.568,14.173 
		36.851,14.563 36.851,14.563 	"/>
	<polygon fill-rule="evenodd" clip-rule="evenodd" fill="#0F163D" points="36.283,14.386 35.964,14.74 35.716,14.386 35.964,14.173 
		36.283,14.386 36.283,14.386 	"/>
	<polygon fill-rule="evenodd" clip-rule="evenodd" fill="#FFFFFF" points="36.283,13.819 36.072,14.173 35.716,13.819 
		36.072,13.606 36.283,13.819 36.283,13.819 	"/>
	<polygon fill-rule="evenodd" clip-rule="evenodd" fill="#0F163D" points="36.851,13.996 36.638,14.173 36.283,13.996 
		36.638,13.606 36.851,13.996 36.851,13.996 	"/>
	<polygon fill-rule="evenodd" clip-rule="evenodd" fill="#FFFFFF" points="36.851,13.819 36.568,14.173 36.283,13.819 
		36.568,13.606 36.851,13.819 36.851,13.819 	"/>
	<polygon fill-rule="evenodd" clip-rule="evenodd" fill="#FFFFFF" points="37.417,13.819 37.205,14.173 36.851,13.819 
		37.205,13.606 37.417,13.819 37.417,13.819 	"/>
	<polygon fill-rule="evenodd" clip-rule="evenodd" fill="#0F163D" points="37.417,13.89 37.134,14.173 36.851,13.89 37.134,13.606 
		37.417,13.89 37.417,13.89 	"/>
	<polygon fill-rule="evenodd" clip-rule="evenodd" fill="#0F163D" points="37.984,13.996 37.666,14.173 37.417,13.996 
		37.666,13.606 37.984,13.996 37.984,13.996 	"/>
	<polygon fill-rule="evenodd" clip-rule="evenodd" fill="#0F163D" points="37.417,13.429 37.205,13.606 36.851,13.429 
		37.205,13.039 37.417,13.429 37.417,13.429 	"/>
	<polygon fill-rule="evenodd" clip-rule="evenodd" fill="#0F163D" points="38.552,13.429 38.267,13.606 37.984,13.429 
		38.267,13.039 38.552,13.429 38.552,13.429 	"/>
	<polygon fill-rule="evenodd" clip-rule="evenodd" fill="#0F163D" points="37.984,13.323 37.666,13.606 37.417,13.323 
		37.666,13.039 37.984,13.323 37.984,13.323 	"/>
	<polygon fill-rule="evenodd" clip-rule="evenodd" fill="#FFFFFF" points="37.984,13.429 37.771,13.606 37.417,13.429 
		37.771,13.039 37.984,13.429 37.984,13.429 	"/>
	<polygon fill-rule="evenodd" clip-rule="evenodd" fill="#FFFFFF" points="38.552,13.252 38.267,13.606 37.984,13.252 
		38.267,13.039 38.552,13.252 38.552,13.252 	"/>
	<polygon fill-rule="evenodd" clip-rule="evenodd" fill="#FFFFFF" points="39.119,13.252 38.906,13.606 38.552,13.252 
		38.906,13.039 39.119,13.252 39.119,13.252 	"/>
	<polygon fill-rule="evenodd" clip-rule="evenodd" fill="#0F163D" points="38.552,12.685 38.339,13.039 37.984,12.685 
		38.339,12.472 38.552,12.685 38.552,12.685 	"/>
	<polygon fill-rule="evenodd" clip-rule="evenodd" fill="#0F163D" points="39.119,12.685 38.835,13.039 38.552,12.685 
		38.835,12.472 39.119,12.685 39.119,12.685 	"/>
	<polygon fill-rule="evenodd" clip-rule="evenodd" fill="#FFFFFF" points="38.552,12.862 38.267,13.039 37.984,12.862 
		38.267,12.472 38.552,12.862 38.552,12.862 	"/>
	<polygon fill-rule="evenodd" clip-rule="evenodd" fill="#FFFFFF" points="39.119,12.862 38.906,13.039 38.552,12.862 
		38.906,12.472 39.119,12.862 39.119,12.862 	"/>
	<polygon fill-rule="evenodd" clip-rule="evenodd" fill="#0F163D" points="39.685,12.685 39.367,13.039 39.119,12.685 
		39.367,12.472 39.685,12.685 39.685,12.685 	"/>
	<polygon fill-rule="evenodd" clip-rule="evenodd" fill="#FFFFFF" points="39.685,12.756 39.472,13.039 39.119,12.756 
		39.472,12.472 39.685,12.756 39.685,12.756 	"/>
	<polygon fill-rule="evenodd" clip-rule="evenodd" fill="#0F163D" points="39.685,12.189 39.367,12.472 39.119,12.189 
		39.367,11.905 39.685,12.189 39.685,12.189 	"/>
	<polygon fill-rule="evenodd" clip-rule="evenodd" fill="#FFFFFF" points="39.685,12.189 39.472,12.472 39.119,12.189 
		39.472,11.905 39.685,12.189 39.685,12.189 	"/>
	<polygon fill-rule="evenodd" clip-rule="evenodd" fill="#0F163D" points="36.851,16.831 36.568,17.008 36.283,16.831 
		36.568,16.441 36.851,16.831 36.851,16.831 	"/>
	<polygon fill-rule="evenodd" clip-rule="evenodd" fill="#0F163D" points="36.283,16.264 36.072,16.441 35.716,16.264 
		36.072,15.874 36.283,16.264 36.283,16.264 	"/>
	<polygon fill-rule="evenodd" clip-rule="evenodd" fill="#0F163D" points="37.417,16.264 37.205,16.441 36.851,16.264 
		37.205,15.874 37.417,16.264 37.417,16.264 	"/>
	<polygon fill-rule="evenodd" clip-rule="evenodd" fill="#FFFFFF" points="36.851,16.086 36.568,16.441 36.283,16.086 
		36.568,15.874 36.851,16.086 36.851,16.086 	"/>
	<polygon fill-rule="evenodd" clip-rule="evenodd" fill="#0F163D" points="36.851,16.264 36.568,16.441 36.283,16.264 
		36.568,15.874 36.851,16.264 36.851,16.264 	"/>
	<polygon fill-rule="evenodd" clip-rule="evenodd" fill="#FFFFFF" points="37.417,16.086 37.134,16.441 36.851,16.086 
		37.134,15.874 37.417,16.086 37.417,16.086 	"/>
	<polygon fill-rule="evenodd" clip-rule="evenodd" fill="#FFFFFF" points="37.984,16.086 37.666,16.441 37.417,16.086 
		37.666,15.874 37.984,16.086 37.984,16.086 	"/>
	<polygon fill-rule="evenodd" clip-rule="evenodd" fill="#0F163D" points="37.417,15.52 37.205,15.874 36.851,15.52 37.205,15.307 
		37.417,15.52 37.417,15.52 	"/>
	<polygon fill-rule="evenodd" clip-rule="evenodd" fill="#0F163D" points="37.984,15.52 37.771,15.874 37.417,15.52 37.771,15.307 
		37.984,15.52 37.984,15.52 	"/>
	<polygon fill-rule="evenodd" clip-rule="evenodd" fill="#FFFFFF" points="37.417,15.59 37.134,15.874 36.851,15.59 37.134,15.307 
		37.417,15.59 37.417,15.59 	"/>
	<polygon fill-rule="evenodd" clip-rule="evenodd" fill="#FFFFFF" points="37.984,15.59 37.666,15.874 37.417,15.59 37.666,15.307 
		37.984,15.59 37.984,15.59 	"/>
	<polygon fill-rule="evenodd" clip-rule="evenodd" fill="#FFFFFF" points="38.552,15.59 38.267,15.874 37.984,15.59 38.267,15.307 
		38.552,15.59 38.552,15.59 	"/>
	<polygon fill-rule="evenodd" clip-rule="evenodd" fill="#0F163D" points="38.552,15.52 38.267,15.874 37.984,15.52 38.267,15.307 
		38.552,15.52 38.552,15.52 	"/>
	<polygon fill-rule="evenodd" clip-rule="evenodd" fill="#FFFFFF" points="38.552,15.023 38.267,15.307 37.984,15.023 38.267,14.74 
		38.552,15.023 38.552,15.023 	"/>
	<polygon fill-rule="evenodd" clip-rule="evenodd" fill="#0F163D" points="38.552,15.13 38.267,15.307 37.984,15.13 38.267,14.74 
		38.552,15.13 38.552,15.13 	"/>
	<polygon fill-rule="evenodd" clip-rule="evenodd" fill="#FFFFFF" points="39.119,15.023 38.835,15.307 38.552,15.023 38.835,14.74 
		39.119,15.023 39.119,15.023 	"/>
	<polygon fill-rule="evenodd" clip-rule="evenodd" fill="#FFFFFF" points="39.685,15.023 39.367,15.307 39.119,15.023 39.367,14.74 
		39.685,15.023 39.685,15.023 	"/>
	<polygon fill-rule="evenodd" clip-rule="evenodd" fill="#0F163D" points="39.119,15.13 38.906,15.307 38.552,15.13 38.906,14.74 
		39.119,15.13 39.119,15.13 	"/>
	<polygon fill-rule="evenodd" clip-rule="evenodd" fill="#0F163D" points="39.685,15.13 39.472,15.307 39.119,15.13 39.472,14.74 
		39.685,15.13 39.685,15.13 	"/>
	<polygon fill-rule="evenodd" clip-rule="evenodd" fill="#0F163D" points="40.251,14.563 39.968,14.74 39.685,14.563 39.968,14.173 
		40.251,14.563 40.251,14.563 	"/>
	<polygon fill-rule="evenodd" clip-rule="evenodd" fill="#FFFFFF" points="39.685,14.386 39.367,14.74 39.119,14.386 39.367,14.173 
		39.685,14.386 39.685,14.386 	"/>
	<polygon fill-rule="evenodd" clip-rule="evenodd" fill="#0F163D" points="39.685,14.563 39.472,14.74 39.119,14.563 39.472,14.173 
		39.685,14.563 39.685,14.563 	"/>
	<polygon fill-rule="evenodd" clip-rule="evenodd" fill="#FFFFFF" points="40.251,14.386 39.968,14.74 39.685,14.386 39.968,14.173 
		40.251,14.386 40.251,14.386 	"/>
	<polygon fill-rule="evenodd" clip-rule="evenodd" fill="#0F163D" points="40.82,14.563 40.607,14.74 40.251,14.563 40.607,14.173 
		40.82,14.563 40.82,14.563 	"/>
	<polygon fill-rule="evenodd" clip-rule="evenodd" fill="#FFFFFF" points="40.82,14.386 40.535,14.74 40.251,14.386 40.535,14.173 
		40.82,14.386 40.82,14.386 	"/>
	<polygon fill-rule="evenodd" clip-rule="evenodd" fill="#0F163D" points="40.251,13.819 39.968,14.173 39.685,13.819 
		39.968,13.606 40.251,13.819 40.251,13.819 	"/>
	<polygon fill-rule="evenodd" clip-rule="evenodd" fill="#0F163D" points="40.82,13.819 40.607,14.173 40.251,13.819 40.607,13.606 
		40.82,13.819 40.82,13.819 	"/>
	<polygon fill-rule="evenodd" clip-rule="evenodd" fill="#FFFFFF" points="40.82,13.89 40.535,14.173 40.251,13.89 40.535,13.606 
		40.82,13.89 40.82,13.89 	"/>
	<polygon fill-rule="evenodd" clip-rule="evenodd" fill="#FFFFFF" points="41.386,13.89 41.068,14.173 40.82,13.89 41.068,13.606 
		41.386,13.89 41.386,13.89 	"/>
	<polygon fill-rule="evenodd" clip-rule="evenodd" fill="#0F163D" points="41.386,13.819 41.173,14.173 40.82,13.819 41.173,13.606 
		41.386,13.819 41.386,13.819 	"/>
	<polygon fill-rule="evenodd" clip-rule="evenodd" fill="#FFFFFF" points="41.953,13.89 41.669,14.173 41.386,13.89 41.669,13.606 
		41.953,13.89 41.953,13.89 	"/>
	<polygon fill-rule="evenodd" clip-rule="evenodd" fill="#FFFFFF" points="41.386,13.323 41.068,13.606 40.82,13.323 41.068,13.039 
		41.386,13.323 41.386,13.323 	"/>
	<polygon fill-rule="evenodd" clip-rule="evenodd" fill="#0F163D" points="41.386,13.429 41.173,13.606 40.82,13.429 41.173,13.039 
		41.386,13.429 41.386,13.429 	"/>
	<polygon fill-rule="evenodd" clip-rule="evenodd" fill="#FFFFFF" points="41.953,13.323 41.669,13.606 41.386,13.323 
		41.669,13.039 41.953,13.323 41.953,13.323 	"/>
	<polygon fill-rule="evenodd" clip-rule="evenodd" fill="#0F163D" points="38.552,17.397 38.267,17.575 37.984,17.397 
		38.267,17.008 38.552,17.397 38.552,17.397 	"/>
	<polygon fill-rule="evenodd" clip-rule="evenodd" fill="#0F163D" points="39.119,17.397 38.835,17.575 38.552,17.397 
		38.835,17.008 39.119,17.397 39.119,17.397 	"/>
	<polygon fill-rule="evenodd" clip-rule="evenodd" fill="#FFFFFF" points="38.552,17.22 38.267,17.575 37.984,17.22 38.267,17.008 
		38.552,17.22 38.552,17.22 	"/>
	<polygon fill-rule="evenodd" clip-rule="evenodd" fill="#FFFFFF" points="39.119,17.22 38.906,17.575 38.552,17.22 38.906,17.008 
		39.119,17.22 39.119,17.22 	"/>
	<polygon fill-rule="evenodd" clip-rule="evenodd" fill="#0F163D" points="39.685,17.397 39.367,17.575 39.119,17.397 
		39.367,17.008 39.685,17.397 39.685,17.397 	"/>
	<polygon fill-rule="evenodd" clip-rule="evenodd" fill="#FFFFFF" points="39.685,17.22 39.472,17.575 39.119,17.22 39.472,17.008 
		39.685,17.22 39.685,17.22 	"/>
	<polygon fill-rule="evenodd" clip-rule="evenodd" fill="#0F163D" points="39.119,16.653 38.835,17.008 38.552,16.653 
		38.835,16.441 39.119,16.653 39.119,16.653 	"/>
	<polygon fill-rule="evenodd" clip-rule="evenodd" fill="#0F163D" points="40.251,16.653 39.968,17.008 39.685,16.653 
		39.968,16.441 40.251,16.653 40.251,16.653 	"/>
	<polygon fill-rule="evenodd" clip-rule="evenodd" fill="#0F163D" points="39.685,16.653 39.367,17.008 39.119,16.653 
		39.367,16.441 39.685,16.653 39.685,16.653 	"/>
	<polygon fill-rule="evenodd" clip-rule="evenodd" fill="#FFFFFF" points="39.685,16.724 39.472,17.008 39.119,16.724 
		39.472,16.441 39.685,16.724 39.685,16.724 	"/>
	<polygon fill-rule="evenodd" clip-rule="evenodd" fill="#FFFFFF" points="40.251,16.724 39.968,17.008 39.685,16.724 
		39.968,16.441 40.251,16.724 40.251,16.724 	"/>
	<polygon fill-rule="evenodd" clip-rule="evenodd" fill="#FFFFFF" points="40.82,16.724 40.607,17.008 40.251,16.724 40.607,16.441 
		40.82,16.724 40.82,16.724 	"/>
	<polygon fill-rule="evenodd" clip-rule="evenodd" fill="#FFFFFF" points="40.251,16.157 39.968,16.441 39.685,16.157 
		39.968,15.874 40.251,16.157 40.251,16.157 	"/>
	<polygon fill-rule="evenodd" clip-rule="evenodd" fill="#FFFFFF" points="40.82,16.157 40.607,16.441 40.251,16.157 40.607,15.874 
		40.82,16.157 40.82,16.157 	"/>
	<polygon fill-rule="evenodd" clip-rule="evenodd" fill="#0F163D" points="41.386,16.264 41.068,16.441 40.82,16.264 41.068,15.874 
		41.386,16.264 41.386,16.264 	"/>
	<polygon fill-rule="evenodd" clip-rule="evenodd" fill="#FFFFFF" points="41.386,16.157 41.173,16.441 40.82,16.157 41.173,15.874 
		41.386,16.157 41.386,16.157 	"/>
	<polygon fill-rule="evenodd" clip-rule="evenodd" fill="#0F163D" points="40.82,16.264 40.535,16.441 40.251,16.264 40.535,15.874 
		40.82,16.264 40.82,16.264 	"/>
	<polygon fill-rule="evenodd" clip-rule="evenodd" fill="#0F163D" points="41.953,16.264 41.669,16.441 41.386,16.264 
		41.669,15.874 41.953,16.264 41.953,16.264 	"/>
	<polygon fill-rule="evenodd" clip-rule="evenodd" fill="#0F163D" points="41.386,15.697 41.068,15.874 40.82,15.697 41.068,15.307 
		41.386,15.697 41.386,15.697 	"/>
	<polygon fill-rule="evenodd" clip-rule="evenodd" fill="#FFFFFF" points="41.953,15.697 41.669,15.874 41.386,15.697 
		41.669,15.307 41.953,15.697 41.953,15.697 	"/>
	<polygon fill-rule="evenodd" clip-rule="evenodd" fill="#FFFFFF" points="42.519,15.697 42.308,15.874 41.953,15.697 
		42.308,15.307 42.519,15.697 42.519,15.697 	"/>
	<polygon fill-rule="evenodd" clip-rule="evenodd" fill="#FFFFFF" points="41.386,15.52 41.173,15.874 40.82,15.52 41.173,15.307 
		41.386,15.52 41.386,15.52 	"/>
	<polygon fill-rule="evenodd" clip-rule="evenodd" fill="#0F163D" points="41.953,15.697 41.669,15.874 41.386,15.697 
		41.669,15.307 41.953,15.697 41.953,15.697 	"/>
	<polygon fill-rule="evenodd" clip-rule="evenodd" fill="#FFFFFF" points="41.953,15.52 41.669,15.874 41.386,15.52 41.669,15.307 
		41.953,15.52 41.953,15.52 	"/>
	<polygon fill-rule="evenodd" clip-rule="evenodd" fill="#0F163D" points="42.519,15.52 42.236,15.874 41.953,15.52 42.236,15.307 
		42.519,15.52 42.519,15.52 	"/>
	<polygon fill-rule="evenodd" clip-rule="evenodd" fill="#0F163D" points="43.087,14.953 42.767,15.307 42.519,14.953 42.767,14.74 
		43.087,14.953 43.087,14.953 	"/>
	<polygon fill-rule="evenodd" clip-rule="evenodd" fill="#FFFFFF" points="42.519,15.023 42.308,15.307 41.953,15.023 42.308,14.74 
		42.519,15.023 42.519,15.023 	"/>
	<polygon fill-rule="evenodd" clip-rule="evenodd" fill="#0F163D" points="42.519,14.953 42.236,15.307 41.953,14.953 42.236,14.74 
		42.519,14.953 42.519,14.953 	"/>
	<polygon fill-rule="evenodd" clip-rule="evenodd" fill="#FFFFFF" points="43.087,15.13 42.875,15.307 42.519,15.13 42.875,14.74 
		43.087,15.13 43.087,15.13 	"/>
	<polygon fill-rule="evenodd" clip-rule="evenodd" fill="#0F163D" points="43.654,14.953 43.371,15.307 43.087,14.953 43.371,14.74 
		43.654,14.953 43.654,14.953 	"/>
	<polygon fill-rule="evenodd" clip-rule="evenodd" fill="#FFFFFF" points="43.654,15.13 43.371,15.307 43.087,15.13 43.371,14.74 
		43.654,15.13 43.654,15.13 	"/>
	<polygon fill-rule="evenodd" clip-rule="evenodd" fill="#FFFFFF" points="43.087,14.563 42.875,14.74 42.519,14.563 42.875,14.173 
		43.087,14.563 43.087,14.563 	"/>
	<polygon fill-rule="evenodd" clip-rule="evenodd" fill="#0F163D" points="43.654,14.386 43.371,14.74 43.087,14.386 43.371,14.173 
		43.654,14.386 43.654,14.386 	"/>
	<polygon fill-rule="evenodd" clip-rule="evenodd" fill="#FFFFFF" points="43.654,14.563 43.371,14.74 43.087,14.563 43.371,14.173 
		43.654,14.563 43.654,14.563 	"/>
	<polygon fill-rule="evenodd" clip-rule="evenodd" fill="#0F163D" points="40.251,18.354 40.039,18.708 39.685,18.354 
		40.039,18.142 40.251,18.354 40.251,18.354 	"/>
	<polygon fill-rule="evenodd" clip-rule="evenodd" fill="#FFFFFF" points="40.251,18.425 39.968,18.708 39.685,18.425 
		39.968,18.142 40.251,18.425 40.251,18.425 	"/>
	<polygon fill-rule="evenodd" clip-rule="evenodd" fill="#FFFFFF" points="40.82,18.425 40.535,18.708 40.251,18.425 40.535,18.142 
		40.82,18.425 40.82,18.425 	"/>
	<polygon fill-rule="evenodd" clip-rule="evenodd" fill="#0F163D" points="40.82,18.354 40.607,18.708 40.251,18.354 40.5,18.142 
		40.82,18.354 40.82,18.354 	"/>
	<polygon fill-rule="evenodd" clip-rule="evenodd" fill="#FFFFFF" points="41.386,18.425 41.173,18.708 40.82,18.425 41.173,18.142 
		41.386,18.425 41.386,18.425 	"/>
	<polygon fill-rule="evenodd" clip-rule="evenodd" fill="#FFFFFF" points="40.82,17.858 40.535,18.142 40.251,17.858 40.535,17.575 
		40.82,17.858 40.82,17.858 	"/>
	<polygon fill-rule="evenodd" clip-rule="evenodd" fill="#0F163D" points="40.82,17.964 40.607,18.142 40.251,17.964 40.5,17.575 
		40.82,17.964 40.82,17.964 	"/>
	<polygon fill-rule="evenodd" clip-rule="evenodd" fill="#FFFFFF" points="41.386,17.858 41.173,18.142 40.82,17.858 41.173,17.575 
		41.386,17.858 41.386,17.858 	"/>
	<polygon fill-rule="evenodd" clip-rule="evenodd" fill="#0F163D" points="41.953,17.964 41.634,18.142 41.386,17.964 
		41.634,17.575 41.953,17.964 41.953,17.964 	"/>
	<polygon fill-rule="evenodd" clip-rule="evenodd" fill="#FFFFFF" points="41.953,17.858 41.74,18.142 41.386,17.858 41.74,17.575 
		41.953,17.858 41.953,17.858 	"/>
	<polygon fill-rule="evenodd" clip-rule="evenodd" fill="#0F163D" points="41.386,17.964 41.103,18.142 40.82,17.964 41.103,17.575 
		41.386,17.964 41.386,17.964 	"/>
	<polygon fill-rule="evenodd" clip-rule="evenodd" fill="#0F163D" points="41.953,17.397 41.74,17.575 41.386,17.397 41.634,17.008 
		41.953,17.397 41.953,17.397 	"/>
	<polygon fill-rule="evenodd" clip-rule="evenodd" fill="#0F163D" points="42.519,17.397 42.201,17.575 41.953,17.397 
		42.201,17.008 42.519,17.397 42.519,17.397 	"/>
	<polygon fill-rule="evenodd" clip-rule="evenodd" fill="#FFFFFF" points="41.953,17.22 41.74,17.575 41.386,17.22 41.74,17.008 
		41.953,17.22 41.953,17.22 	"/>
	<polygon fill-rule="evenodd" clip-rule="evenodd" fill="#FFFFFF" points="42.519,17.22 42.236,17.575 41.953,17.22 42.236,17.008 
		42.519,17.22 42.519,17.22 	"/>
	<polygon fill-rule="evenodd" clip-rule="evenodd" fill="#FFFFFF" points="43.087,17.22 42.875,17.575 42.519,17.22 42.875,17.008 
		43.087,17.22 43.087,17.22 	"/>
	<polygon fill-rule="evenodd" clip-rule="evenodd" fill="#0F163D" points="43.087,17.397 42.804,17.575 42.519,17.397 
		42.804,17.008 43.087,17.397 43.087,17.397 	"/>
	<polygon fill-rule="evenodd" clip-rule="evenodd" fill="#0F163D" points="42.519,16.653 42.201,17.008 41.953,16.653 
		42.201,16.441 42.519,16.653 42.519,16.653 	"/>
	<polygon fill-rule="evenodd" clip-rule="evenodd" fill="#0F163D" points="43.654,16.653 43.335,17.008 43.087,16.653 
		43.335,16.441 43.654,16.653 43.654,16.653 	"/>
	<polygon fill-rule="evenodd" clip-rule="evenodd" fill="#FFFFFF" points="43.087,16.724 42.875,17.008 42.519,16.724 
		42.875,16.441 43.087,16.724 43.087,16.724 	"/>
	<polygon fill-rule="evenodd" clip-rule="evenodd" fill="#0F163D" points="43.087,16.653 42.804,17.008 42.519,16.653 
		42.804,16.441 43.087,16.653 43.087,16.653 	"/>
	<polygon fill-rule="evenodd" clip-rule="evenodd" fill="#FFFFFF" points="43.654,16.724 43.441,17.008 43.087,16.724 
		43.441,16.441 43.654,16.724 43.654,16.724 	"/>
	<polygon fill-rule="evenodd" clip-rule="evenodd" fill="#FFFFFF" points="44.22,16.724 43.937,17.008 43.654,16.724 43.937,16.441 
		44.22,16.724 44.22,16.724 	"/>
	<polygon fill-rule="evenodd" clip-rule="evenodd" fill="#FFFFFF" points="43.654,16.157 43.441,16.441 43.087,16.157 
		43.441,15.874 43.654,16.157 43.654,16.157 	"/>
	<polygon fill-rule="evenodd" clip-rule="evenodd" fill="#FFFFFF" points="44.22,16.157 43.937,16.441 43.654,16.157 43.937,15.874 
		44.22,16.157 44.22,16.157 	"/>
	<polygon fill-rule="evenodd" clip-rule="evenodd" fill="#FFFFFF" points="44.787,16.157 44.576,16.441 44.22,16.157 44.576,15.874 
		44.787,16.157 44.787,16.157 	"/>
	<polygon fill-rule="evenodd" clip-rule="evenodd" fill="#0F163D" points="44.787,16.264 44.503,16.441 44.22,16.264 44.503,15.874 
		44.787,16.264 44.787,16.264 	"/>
	<polygon fill-rule="evenodd" clip-rule="evenodd" fill="#0F163D" points="44.22,16.264 43.902,16.441 43.654,16.264 43.902,15.874 
		44.22,16.264 44.22,16.264 	"/>
	<polygon fill-rule="evenodd" clip-rule="evenodd" fill="#0F163D" points="45.355,16.264 45.035,16.441 44.787,16.264 
		45.035,15.874 45.355,16.264 45.355,16.264 	"/>
	<polygon fill-rule="evenodd" clip-rule="evenodd" fill="#0F163D" points="44.787,15.697 44.576,15.874 44.22,15.697 44.576,15.307 
		44.787,15.697 44.787,15.697 	"/>
	<polygon fill-rule="evenodd" clip-rule="evenodd" fill="#0F163D" points="45.355,15.697 45.142,15.874 44.787,15.697 
		45.035,15.307 45.355,15.697 45.355,15.697 	"/>
	<polygon fill-rule="evenodd" clip-rule="evenodd" fill="#FFFFFF" points="45.355,15.52 45.142,15.874 44.787,15.52 45.142,15.307 
		45.355,15.52 45.355,15.52 	"/>
</g>
</svg>
