<?xml version="1.0" encoding="iso-8859-1"?>
<!DOCTYPE svg PUBLIC "-//W3C//DTD SVG 1.1//EN" "http://www.w3.org/Graphics/SVG/1.1/DTD/svg11.dtd">
<svg version="1.1" xmlns="http://www.w3.org/2000/svg" xmlns:xlink="http://www.w3.org/1999/xlink" width="80" height="72" viewBox="0 0 80 72">
<g>
	<polygon style="fill-rule:evenodd;clip-rule:evenodd;fill:#6A7AB7;" points="66.997,25.976 45.15,13.684 58.482,0 80.181,12.338 
		66.997,25.976 66.997,25.976 66.997,25.976 66.997,25.976 	"/>
	<polygon style="fill-rule:evenodd;clip-rule:evenodd;fill:#273778;" points="80.863,12.617 80.961,12.895 67.093,25.976 
		66.949,25.651 80.863,12.617 80.863,12.617 80.863,12.617 80.863,12.617 	"/>
	<polygon style="fill-rule:evenodd;clip-rule:evenodd;fill:#37478D;" points="39.605,71.992 4.671,51.768 4.817,48.985 
		39.702,69.117 39.605,71.992 39.605,71.992 39.605,71.992 39.605,71.992 	"/>
	<polygon style="fill-rule:evenodd;clip-rule:evenodd;fill:#6266A2;" points="39.848,69.023 4.671,49.355 40.383,29.687 
		75.512,49.495 39.848,69.023 39.848,69.023 39.848,69.023 39.848,69.023 	"/>
	<polygon style="fill-rule:evenodd;clip-rule:evenodd;fill:#273778;" points="75.512,49.726 75.416,52.555 39.702,71.992 
		39.848,69.163 75.512,49.726 75.512,49.726 75.512,49.726 75.512,49.726 	"/>
	<polygon style="fill-rule:evenodd;clip-rule:evenodd;fill:#37478D;" points="26.468,20.781 21.749,18.647 21.019,16.328 
		25.787,18.508 26.468,20.781 26.468,20.781 26.468,20.781 26.468,20.781 	"/>
	<polygon style="fill-rule:evenodd;clip-rule:evenodd;fill:#37478D;" points="12.456,31.915 7.979,29.641 7.006,25.976 
		11.434,28.157 12.456,31.915 12.456,31.915 12.456,31.915 12.456,31.915 	"/>
	<polygon style="fill-rule:evenodd;clip-rule:evenodd;fill:#4F62A5;" points="11.288,28.203 7.006,25.884 24.571,11.875 
		28.804,14.379 11.288,28.203 11.288,28.203 11.288,28.203 11.288,28.203 	"/>
	<polygon style="fill-rule:evenodd;clip-rule:evenodd;fill:#273778;" points="28.707,14.102 29.582,18.044 25.981,21.105 
		25.349,18.554 15.813,26.394 16.445,28.852 12.699,31.915 11.677,27.878 28.707,14.102 28.707,14.102 28.707,14.102 28.707,14.102 
			"/>
	<polygon style="fill-rule:evenodd;clip-rule:evenodd;fill:#37478D;" points="39.605,68.282 4.671,48.613 4.963,34.14 
		39.702,54.087 39.605,68.282 39.605,68.282 39.605,68.282 39.605,68.282 	"/>
	<polygon style="fill-rule:evenodd;clip-rule:evenodd;fill:#4F62A5;" points="40.675,8.164 35.518,10.761 5.45,34.418 
		40.189,54.179 70.5,30.569 75.512,27.832 40.675,8.164 40.675,8.164 	"/>
	<polygon style="fill-rule:evenodd;clip-rule:evenodd;fill:#273778;" points="70.452,30.244 75.512,27.46 75.416,48.706 
		39.702,68.282 39.848,54.087 70.452,30.244 70.452,30.244 70.452,30.244 70.452,30.244 	"/>
	<polygon style="fill-rule:evenodd;clip-rule:evenodd;fill:#6A7AB7;" points="21.603,59.375 0,47.037 13.477,45.273 35.032,57.612 
		21.603,59.375 21.603,59.375 21.603,59.375 21.603,59.375 	"/>
	<polygon style="fill-rule:evenodd;clip-rule:evenodd;fill:#4E5593;" points="21.797,59.375 0,47.872 0,47.5 21.797,59.05 
		21.797,59.375 21.797,59.375 21.797,59.375 21.797,59.375 	"/>
	<polygon style="fill-rule:evenodd;clip-rule:evenodd;fill:#6265A3;" points="21.797,59.143 35.032,57.89 34.934,58.169 
		21.797,59.375 21.797,59.143 21.797,59.143 21.797,59.143 21.797,59.143 	"/>
	<polygon style="fill-rule:evenodd;clip-rule:evenodd;fill:#7070AC;" points="23.792,57.149 23.354,56.777 32.988,53.438 
		33.474,53.716 23.792,57.149 23.792,57.149 23.792,57.149 23.792,57.149 	"/>
	<polygon style="fill-rule:evenodd;clip-rule:evenodd;fill:#6265A3;" points="23.354,57.149 33.474,53.438 33.474,56.731 
		23.354,57.89 23.354,57.149 23.354,57.149 23.354,57.149 23.354,57.149 	"/>
	<polygon style="fill-rule:evenodd;clip-rule:evenodd;fill:#7070AC;" points="6.617,46.757 6.228,46.572 15.229,43.789 15.57,44.02 
		6.617,46.757 6.617,46.757 6.617,46.757 6.617,46.757 	"/>
	<polygon style="fill-rule:evenodd;clip-rule:evenodd;fill:#6265A3;" points="6.228,47.361 15.57,43.789 15.57,47.083 6.228,48.242 
		6.228,47.361 6.228,47.361 6.228,47.361 6.228,47.361 	"/>
	<path style="fill-rule:evenodd;clip-rule:evenodd;fill:#FFFFFF;" d="M64.224,28.064c-0.293,0.417-0.877,0.835-1.459,1.206
		c-0.389,0.557-2.092,1.902-2.677,1.67C35.615,17.302,35.615,17.302,35.615,17.302c-0.583-0.232,1.021-1.763,1.558-2.133
		c0.438-0.417,2.141-1.809,2.725-1.531c24.619,13.591,24.619,13.591,24.619,13.591C64.613,27.368,64.516,27.507,64.224,28.064
		L64.224,28.064L64.224,28.064L64.224,28.064z M60.38,30.522c0.293,0,1.119-0.557,2.141-1.391c0.974-0.929,1.558-1.485,1.558-1.624
		C39.605,13.916,39.605,13.916,39.605,13.916c-0.292,0.139-0.974,0.556-2.141,1.484c-0.974,0.834-1.412,1.53-1.412,1.669
		C60.38,30.522,60.38,30.522,60.38,30.522"/>
	<path style="fill-rule:evenodd;clip-rule:evenodd;fill:#4F62A5;" d="M63.835,27.507c0,0.139-0.537,0.649-1.559,1.624
		c-0.974,0.788-1.848,1.298-2.14,1.298C35.81,17.209,35.81,17.209,35.81,17.209c0-0.14,0.438-0.789,1.46-1.624
		c1.118-0.927,1.848-1.345,2.141-1.484C63.835,27.507,63.835,27.507,63.835,27.507L63.835,27.507L63.835,27.507"/>
	<path style="fill-rule:evenodd;clip-rule:evenodd;fill:#37478D;" d="M59.844,30.94c-24.667-13.73-24.667-13.73-24.667-13.73
		c-0.146,0-0.146-0.14-0.146-0.14c0.146,0.279,0.146,0.279,0.146,0.279c0,0.139,0,0.139,0,0.139
		c24.764,13.685,24.764,13.685,24.764,13.685C59.844,30.94,59.844,30.94,59.844,30.94"/>
	<path style="fill-rule:evenodd;clip-rule:evenodd;fill:#6468A5;" d="M64.468,27.46c0.145,0.14,0,0.279-0.293,0.649
		c-0.292,0.372-0.877,0.742-1.459,1.113c-0.439,0.464-2.19,1.717-2.775,1.484c0.147,0.232,0.147,0.232,0.147,0.232
		c0.585,0.232,2.336-0.975,2.773-1.346c0.584-0.371,1.021-0.882,1.313-1.252c0.293-0.232,0.438-0.51,0.438-0.603
		C64.613,27.6,64.613,27.6,64.468,27.46"/>
	<polygon style="fill-rule:evenodd;clip-rule:evenodd;fill:#252F68;" points="38.145,23.008 38.145,24.167 35.032,26.718 
		35.032,25.605 38.145,23.008 38.145,23.008 38.145,23.008 38.145,23.008 	"/>
	<polygon style="fill-rule:evenodd;clip-rule:evenodd;fill:#384382;" points="35.032,25.559 35.032,26.718 31.139,24.956 
		31.139,23.75 35.032,25.559 35.032,25.559 35.032,25.559 35.032,25.559 	"/>
	<polygon style="fill-rule:evenodd;clip-rule:evenodd;fill:#FFFFFF;" points="38.145,23.054 34.739,25.234 31.139,23.75 
		34.739,21.523 38.145,23.054 38.145,23.054 38.145,23.054 38.145,23.054 	"/>
	<polygon style="fill-rule:evenodd;clip-rule:evenodd;fill:#252F68;" points="43.595,25.976 43.595,26.904 40.481,29.687 
		40.481,28.527 43.595,25.976 43.595,25.976 43.595,25.976 43.595,25.976 	"/>
	<polygon style="fill-rule:evenodd;clip-rule:evenodd;fill:#384382;" points="40.481,28.527 40.481,29.687 36.588,27.925 
		36.588,26.718 40.481,28.527 40.481,28.527 40.481,28.527 40.481,28.527 	"/>
	<polygon style="fill-rule:evenodd;clip-rule:evenodd;fill:#FFFFFF;" points="43.595,26.208 40.189,28.203 36.588,26.718 
		40.189,24.492 43.595,26.208 43.595,26.208 43.595,26.208 43.595,26.208 	"/>
	<polygon style="fill-rule:evenodd;clip-rule:evenodd;fill:#252F68;" points="49.044,28.945 49.044,30.012 45.931,32.656 
		45.931,31.542 49.044,28.945 49.044,28.945 49.044,28.945 49.044,28.945 	"/>
	<polygon style="fill-rule:evenodd;clip-rule:evenodd;fill:#384382;" points="45.931,31.542 45.931,32.656 42.817,30.708 
		42.961,29.687 45.931,31.542 45.931,31.542 45.931,31.542 45.931,31.542 	"/>
	<polygon style="fill-rule:evenodd;clip-rule:evenodd;fill:#FFFFFF;" points="49.044,29.456 45.931,31.915 42.817,30.058 
		46.076,27.46 49.044,29.456 49.044,29.456 49.044,29.456 49.044,29.456 	"/>
	<polygon style="fill-rule:evenodd;clip-rule:evenodd;fill:#252F68;" points="32.696,26.718 32.696,27.832 29.582,30.429 
		29.582,29.316 32.696,26.718 32.696,26.718 32.696,26.718 32.696,26.718 	"/>
	<polygon style="fill-rule:evenodd;clip-rule:evenodd;fill:#384382;" points="29.582,29.27 29.582,30.429 26.468,28.389 
		26.468,27.46 29.582,29.27 29.582,29.27 29.582,29.27 29.582,29.27 	"/>
	<polygon style="fill-rule:evenodd;clip-rule:evenodd;fill:#FFFFFF;" points="32.696,26.718 29.582,28.945 26.468,27.46 
		29.582,25.234 32.696,26.718 32.696,26.718 32.696,26.718 32.696,26.718 	"/>
	<polygon style="fill-rule:evenodd;clip-rule:evenodd;fill:#252F68;" points="38.145,29.687 38.145,30.847 35.032,33.398 
		35.032,32.377 38.145,29.687 38.145,29.687 38.145,29.687 38.145,29.687 	"/>
	<polygon style="fill-rule:evenodd;clip-rule:evenodd;fill:#384382;" points="35.032,32.377 35.032,33.398 31.917,31.635 
		31.917,30.429 35.032,32.377 35.032,32.377 35.032,32.377 35.032,32.377 	"/>
	<polygon style="fill-rule:evenodd;clip-rule:evenodd;fill:#FFFFFF;" points="38.145,30.012 35.032,32.656 31.917,30.753 
		35.032,28.203 38.145,30.012 38.145,30.012 38.145,30.012 38.145,30.012 	"/>
	<polygon style="fill-rule:evenodd;clip-rule:evenodd;fill:#252F68;" points="44.373,33.398 44.373,34.373 40.481,36.367 
		40.481,35.625 44.373,33.398 44.373,33.398 44.373,33.398 44.373,33.398 	"/>
	<polygon style="fill-rule:evenodd;clip-rule:evenodd;fill:#384382;" points="40.481,35.486 40.481,36.367 37.367,34.604 
		37.367,33.398 40.481,35.486 40.481,35.486 40.481,35.486 40.481,35.486 	"/>
	<polygon style="fill-rule:evenodd;clip-rule:evenodd;fill:#FFFFFF;" points="44.373,33.027 40.87,35.625 37.367,33.676 
		40.87,31.172 44.373,33.027 44.373,33.027 44.373,33.027 44.373,33.027 	"/>
	<polygon style="fill-rule:evenodd;clip-rule:evenodd;fill:#252F68;" points="28.025,30.429 28.025,31.589 24.133,34.14 
		24.133,33.027 28.025,30.429 28.025,30.429 28.025,30.429 28.025,30.429 	"/>
	<polygon style="fill-rule:evenodd;clip-rule:evenodd;fill:#384382;" points="24.133,32.981 24.133,34.14 21.019,32.239 
		21.019,31.172 24.133,32.981 24.133,32.981 24.133,32.981 24.133,32.981 	"/>
	<polygon style="fill-rule:evenodd;clip-rule:evenodd;fill:#FFFFFF;" points="28.025,30.8 24.474,33.398 21.019,31.589 
		24.474,28.945 28.025,30.8 28.025,30.8 28.025,30.8 28.025,30.8 	"/>
	<polygon style="fill-rule:evenodd;clip-rule:evenodd;fill:#252F68;" points="33.474,34.14 33.474,35.068 30.36,37.109 
		30.36,36.228 33.474,34.14 33.474,34.14 33.474,34.14 33.474,34.14 	"/>
	<polygon style="fill-rule:evenodd;clip-rule:evenodd;fill:#384382;" points="30.36,36.274 30.36,37.109 26.468,35.764 
		26.468,34.882 30.36,36.274 30.36,36.274 30.36,36.274 30.36,36.274 	"/>
	<polygon style="fill-rule:evenodd;clip-rule:evenodd;fill:#FFFFFF;" points="33.474,33.769 29.922,36.367 26.468,34.558 
		29.922,31.915 33.474,33.769 33.474,33.769 33.474,33.769 33.474,33.769 	"/>
	<polygon style="fill-rule:evenodd;clip-rule:evenodd;fill:#252F68;" points="38.923,37.109 38.923,38.176 35.81,40.821 
		35.81,39.799 38.923,37.109 38.923,37.109 38.923,37.109 38.923,37.109 	"/>
	<polygon style="fill-rule:evenodd;clip-rule:evenodd;fill:#384382;" points="35.81,39.336 35.81,40.078 32.696,38.733 
		32.696,37.852 35.81,39.336 35.81,39.336 35.81,39.336 35.81,39.336 	"/>
	<polygon style="fill-rule:evenodd;clip-rule:evenodd;fill:#FFFFFF;" points="38.923,36.831 35.761,39.336 32.696,37.434 
		35.761,34.882 38.923,36.831 38.923,36.831 38.923,36.831 38.923,36.831 	"/>
	<polygon style="fill-rule:evenodd;clip-rule:evenodd;fill:#252F68;" points="22.576,34.882 22.576,35.717 19.462,37.852 
		19.462,36.969 22.576,34.882 22.576,34.882 22.576,34.882 22.576,34.882 	"/>
	<polygon style="fill-rule:evenodd;clip-rule:evenodd;fill:#384382;" points="19.462,37.016 19.462,37.852 16.348,36.32 
		16.348,35.625 19.462,37.016 19.462,37.016 19.462,37.016 19.462,37.016 	"/>
	<polygon style="fill-rule:evenodd;clip-rule:evenodd;fill:#FFFFFF;" points="22.576,34.604 19.414,37.109 16.348,35.347 
		19.559,32.656 22.576,34.604 22.576,34.604 22.576,34.604 22.576,34.604 	"/>
	<polygon style="fill-rule:evenodd;clip-rule:evenodd;fill:#252F68;" points="28.025,37.852 28.025,38.918 24.912,41.562 
		24.912,40.449 28.025,37.852 28.025,37.852 28.025,37.852 28.025,37.852 	"/>
	<polygon style="fill-rule:evenodd;clip-rule:evenodd;fill:#384382;" points="24.912,40.403 24.912,41.562 21.797,39.661 
		21.797,38.593 24.912,40.403 24.912,40.403 24.912,40.403 24.912,40.403 	"/>
	<polygon style="fill-rule:evenodd;clip-rule:evenodd;fill:#FFFFFF;" points="28.025,37.573 24.912,40.078 21.797,38.315 
		24.912,35.625 28.025,37.573 28.025,37.573 28.025,37.573 28.025,37.573 	"/>
	<polygon style="fill-rule:evenodd;clip-rule:evenodd;fill:#252F68;" points="33.474,40.821 33.474,41.886 30.36,44.531 
		30.36,43.604 33.474,40.821 33.474,40.821 33.474,40.821 33.474,40.821 	"/>
	<polygon style="fill-rule:evenodd;clip-rule:evenodd;fill:#384382;" points="30.36,43.604 30.36,44.531 27.247,42.675 
		27.247,41.562 30.36,43.604 30.36,43.604 30.36,43.604 30.36,43.604 	"/>
	<polygon style="fill-rule:evenodd;clip-rule:evenodd;fill:#FFFFFF;" points="33.474,41.191 30.458,43.789 27.247,41.934 
		30.458,39.336 33.474,41.191 33.474,41.191 33.474,41.191 33.474,41.191 	"/>
	<polygon style="fill-rule:evenodd;clip-rule:evenodd;fill:#252F68;" points="54.494,32.656 54.494,33.583 51.38,35.625 
		51.38,34.744 54.494,32.656 54.494,32.656 54.494,32.656 54.494,32.656 	"/>
	<polygon style="fill-rule:evenodd;clip-rule:evenodd;fill:#384382;" points="51.38,34.79 51.38,35.625 48.264,34.28 48.264,33.398 
		51.38,34.79 51.38,34.79 51.38,34.79 51.38,34.79 	"/>
	<polygon style="fill-rule:evenodd;clip-rule:evenodd;fill:#FFFFFF;" points="54.494,32.285 51.477,34.882 48.264,33.074 
		51.477,30.429 54.494,32.285 54.494,32.285 54.494,32.285 54.494,32.285 	"/>
	<polygon style="fill-rule:evenodd;clip-rule:evenodd;fill:#252F68;" points="49.822,36.367 49.726,37.434 46.708,40.078 
		46.853,38.964 49.822,36.367 49.822,36.367 49.822,36.367 49.822,36.367 	"/>
	<polygon style="fill-rule:evenodd;clip-rule:evenodd;fill:#384382;" points="46.708,38.918 46.612,40.078 43.595,38.176 
		43.595,37.109 46.708,38.918 46.708,38.918 46.708,38.918 46.708,38.918 	"/>
	<polygon style="fill-rule:evenodd;clip-rule:evenodd;fill:#FFFFFF;" points="49.822,36.088 46.708,38.593 43.595,36.831 
		46.708,34.14 49.822,36.088 49.822,36.088 49.822,36.088 49.822,36.088 	"/>
	<polygon style="fill-rule:evenodd;clip-rule:evenodd;fill:#252F68;" points="44.373,40.078 44.373,41.237 41.259,43.789 
		41.259,42.769 44.373,40.078 44.373,40.078 44.373,40.078 44.373,40.078 	"/>
	<polygon style="fill-rule:evenodd;clip-rule:evenodd;fill:#384382;" points="41.259,42.769 41.259,43.789 38.145,41.886 
		38.145,40.821 41.259,42.769 41.259,42.769 41.259,42.769 41.259,42.769 	"/>
	<polygon style="fill-rule:evenodd;clip-rule:evenodd;fill:#FFFFFF;" points="44.373,40.078 41.209,42.305 38.145,40.727 
		41.209,38.593 44.373,40.078 44.373,40.078 44.373,40.078 44.373,40.078 	"/>
	<polygon style="fill-rule:evenodd;clip-rule:evenodd;fill:#252F68;" points="39.702,43.789 39.702,44.855 36.588,47.5 
		36.588,46.387 39.702,43.789 39.702,43.789 39.702,43.789 39.702,43.789 	"/>
	<polygon style="fill-rule:evenodd;clip-rule:evenodd;fill:#384382;" points="36.588,46.339 36.588,47.5 32.696,45.598 
		32.696,44.531 36.588,46.339 36.588,46.339 36.588,46.339 36.588,46.339 	"/>
	<polygon style="fill-rule:evenodd;clip-rule:evenodd;fill:#FFFFFF;" points="39.702,44.16 36.199,46.757 32.696,44.949 
		36.199,42.305 39.702,44.16 39.702,44.16 39.702,44.16 39.702,44.16 	"/>
</g>
</svg>