<?xml version="1.0" encoding="iso-8859-1"?>
<!DOCTYPE svg PUBLIC "-//W3C//DTD SVG 1.1//EN" "http://www.w3.org/Graphics/SVG/1.1/DTD/svg11.dtd">
<svg version="1.1" xmlns="http://www.w3.org/2000/svg" xmlns:xlink="http://www.w3.org/1999/xlink" width="60" height="74" viewBox="0 0 60 74">
<g>
	<polygon style="fill-rule:evenodd;clip-rule:evenodd;fill:#5065A9;" points="25.314,25.866 13.454,18.779 13.675,66.72 
		25.492,73.671 25.314,25.866 	"/>
	<polygon style="fill-rule:evenodd;clip-rule:evenodd;fill:#5065A9;" points="25.314,25.866 13.454,18.779 13.675,66.72 
		25.492,73.671 25.314,25.866 	"/>
	<polygon style="fill-rule:evenodd;clip-rule:evenodd;fill:#4B5F9F;" points="56.649,7.313 44.699,0 13.454,18.869 25.448,26.002 
		56.649,7.313 	"/>
	<polygon style="fill-rule:evenodd;clip-rule:evenodd;fill:#273675;" points="25.492,25.776 25.712,73.671 56.649,55.164 
		56.649,7.223 25.492,25.776 	"/>
	<path style="fill-rule:evenodd;clip-rule:evenodd;fill:#FFFFFF;" d="M13.631,19.457c-0.178-0.181-0.178-0.181-0.178-0.181
		c0.178-0.18,0.178-0.18,0.178-0.18c0-0.136,0-0.136,0-0.136c0.177-0.18,0.177-0.18,0.177-0.18c0.177,0,0.177,0,0.177,0
		c0.177,0.18,10.224,6.004,11.418,6.726c22.97-13.498,22.97-13.498,22.97-13.498l0,0c0.178,0,0.178,0,0.178,0
		c7.611-4.604,7.611-4.604,7.611-4.604c0.178-0.181,0.178-0.181,0.178-0.181c0.176,0.362,0.176,0.362,0.176,0.362
		c0.134,0.18,0.134,0.18,0.134,0.18c0,0.181,0,0.181,0,0.181c-0.134,0-0.134,0-0.134,0c-7.436,4.424-7.436,4.424-7.436,4.424
		c0,7.268,0,7.268,0,7.268c7.082-4.243,7.082-4.243,7.082-4.243c0.178-0.181,0.178-0.181,0.178-0.181
		c0.176,0.181,0.176,0.181,0.176,0.181c0.134,0.181,0.134,0.181,0.134,0.181c0,0.18,0,0.18,0,0.18
		c-0.134,0.181-0.134,0.181-0.134,0.181c-15.047,9.028-15.047,9.028-15.047,9.028c0,7.087,0,7.087,0,7.087
		c14.693-8.848,14.693-8.848,14.693-8.848c0.178-0.181,0.178-0.181,0.178-0.181c0.176,0.362,0.176,0.362,0.176,0.362
		c0.134,0.18,0.134,0.18,0.134,0.18c0,0.181,0,0.181,0,0.181c-0.134,0-0.134,0-0.134,0c-7.436,4.423-7.436,4.423-7.436,4.423
		c0,7.088,0,7.088,0,7.088c7.082-4.108,7.082-4.108,7.082-4.108c0.178-0.181,0.178-0.181,0.178-0.181
		c0.176,0.181,0.176,0.181,0.176,0.181c0.134,0.181,0.134,0.181,0.134,0.181c0,0.181,0,0.181,0,0.181
		c-0.134,0.181-0.134,0.181-0.134,0.181c-7.436,4.424-7.436,4.424-7.436,4.424l0,0c-0.176,0-0.176,0-0.176,0
		c-7.613,4.604-7.613,4.604-7.613,4.604c0,7.269,0,7.269,0,7.269c7.082-4.244,7.082-4.244,7.082-4.244l0,0l0,0
		c7.789-4.423,7.789-4.423,7.789-4.423c0.178-0.182,0.178-0.182,0.178-0.182c0.176,0.182,0.176,0.182,0.176,0.182
		c0.134,0.181,0.134,0.181,0.134,0.181c0,0.181,0,0.181,0,0.181c-0.134,0.181-0.134,0.181-0.134,0.181
		c-7.436,4.424-7.436,4.424-7.436,4.424c0,7.087,0,7.087,0,7.087c7.082-4.243,7.082-4.243,7.082-4.243c0.178,0,0.178,0,0.178,0
		c0.176,0.181,0.176,0.181,0.176,0.181c0.134,0.181,0.134,0.181,0.134,0.181c0,0.136,0,0.136,0,0.136
		c-0.134,0.18-0.134,0.18-0.134,0.18C33.326,61.484,33.326,61.484,33.326,61.484l0,0c-0.132,0-0.132,0-0.132,0
		c-7.437,4.604-7.437,4.604-7.437,4.604c0,7.583,0,7.583,0,7.583c-0.708,0-0.708,0-0.708,0c0-7.945,0-7.945,0-7.945l0,0l0,0
		c0-7.99,0-7.99,0-7.99l0,0l0,0c0-8.125,0-8.125,0-8.125l0,0l0,0c0-7.81,0-7.81,0-7.81c0-0.181,0-0.181,0-0.181l0,0
		c0-7.81,0-7.81,0-7.81l0,0l0,0c0-7.764,0-7.764,0-7.764L13.631,19.457L13.631,19.457z M33.503,37.558c0,7.087,0,7.087,0,7.087
		c14.869-8.893,14.869-8.893,14.869-8.893c0-7.087,0-7.087,0-7.087L33.503,37.558L33.503,37.558z M40.937,24.422
		c7.436-4.424,7.436-4.424,7.436-4.424c0-7.268,0-7.268,0-7.268C25.757,26.047,25.757,26.047,25.757,26.047c0,7.403,0,7.403,0,7.403
		c15.004-9.028,15.004-9.028,15.004-9.028l0,0H40.937L40.937,24.422z M25.757,34.172c0,7.088,0,7.088,0,7.088
		c7.08-4.244,7.08-4.244,7.08-4.244l0,0c0.178,0,0.178,0,0.178,0c7.746-4.604,7.746-4.604,7.746-4.604c0-7.087,0-7.087,0-7.087
		L25.757,34.172L25.757,34.172z M32.837,45.006c0-7.087,0-7.087,0-7.087c-7.08,4.242-7.08,4.242-7.08,4.242c0,7.088,0,7.088,0,7.088
		L32.837,45.006L32.837,45.006z M25.757,49.926c0,7.449,0,7.449,0,7.449c14.825-9.028,14.825-9.028,14.825-9.028
		c0-7.268,0-7.268,0-7.268L25.757,49.926L25.757,49.926z M33.326,60.76c15.047-9.027,15.047-9.027,15.047-9.027
		c0-7.088,0-7.088,0-7.088c-15.047,8.849-15.047,8.849-15.047,8.849V60.76L33.326,60.76z M32.662,54.035
		c-6.904,4.063-6.904,4.063-6.904,4.063c0,7.087,0,7.087,0,7.087c6.904-4.063,6.904-4.063,6.904-4.063V54.035L32.662,54.035z"/>
	<path style="fill-rule:evenodd;clip-rule:evenodd;fill:#292C6A;" d="M12.967,18.689L44.611,0.226V0l0.222,0.226h0.222l11.905,7.177
		h0.22v0.181l0.178,47.939v0.091l-0.178,0.226L25.536,74.394l0,0h-0.221L13.188,67.17l-0.221-0.225l0,0l-0.222-48.031v-0.226H12.967
		L12.967,18.689z M56.074,8.171L50.541,4.74l-5.93-3.295l-15.269,9.028l-15.269,8.983v26.182v20.766l6.063,3.521l5.399,3.16
		l6.595-4.063l23.943-13.949V8.171L56.074,8.171z"/>
	<path style="fill-rule:evenodd;clip-rule:evenodd;fill:#E7E7E7;" d="M49.48,36.656c10.709,19.727,10.709,19.727,10.709,19.727
		c-10.888,6.455-10.888,6.455-10.888,6.455c0-2.302,0-4.649,0-7.133c-12.48-7.538-12.48-7.538-12.48-7.538
		c0-12.053,0-12.053,0-12.053c12.659,7.719,12.659,7.719,12.659,7.719C49.48,41.53,49.48,39.184,49.48,36.656"/>
	<path style="fill-rule:evenodd;clip-rule:evenodd;fill:#C0BFBF;" d="M6.904,20.405c5.842,10.834,5.842,10.834,5.842,10.834
		c-5.842,3.431-5.842,3.431-5.842,3.431c0-1.265,0-2.528,0-3.792C0,26.724,0,26.724,0,26.724c0-6.5,0-6.5,0-6.5
		c6.904,4.153,6.904,4.153,6.904,4.153C6.904,23.113,6.904,21.668,6.904,20.405"/>
	<path style="fill-rule:evenodd;clip-rule:evenodd;fill:#C0BFBF;" d="M6.904,30.516c5.842,10.834,5.842,10.834,5.842,10.834
		c-5.842,3.431-5.842,3.431-5.842,3.431c0-1.264,0-2.528,0-3.792C0,36.835,0,36.835,0,36.835c0-6.5,0-6.5,0-6.5
		c6.904,4.152,6.904,4.152,6.904,4.152C6.904,33.225,6.904,31.78,6.904,30.516"/>
	<path style="fill-rule:evenodd;clip-rule:evenodd;fill:#C0BFBF;" d="M6.904,41.53c5.842,10.52,5.842,10.52,5.842,10.52
		c-5.842,3.565-5.842,3.565-5.842,3.565c0-1.219,0-2.483,0-3.701C0,47.625,0,47.625,0,47.625c0-6.456,0-6.456,0-6.456
		c6.904,4.108,6.904,4.108,6.904,4.108C6.904,44.058,6.904,42.794,6.904,41.53"/>
</g>
</svg>