<?xml version="1.0" encoding="iso-8859-1"?>
<!DOCTYPE svg PUBLIC "-//W3C//DTD SVG 1.1//EN" "http://www.w3.org/Graphics/SVG/1.1/DTD/svg11.dtd">
<svg version="1.1" xmlns="http://www.w3.org/2000/svg" xmlns:xlink="http://www.w3.org/1999/xlink" width="55" height="40" viewBox="0 0 55 40">
<g>
	<polygon style="fill-rule:evenodd;clip-rule:evenodd;fill:#2A3174;" points="54.424,15.874 54.424,23.776 27.213,39.118 
		27.213,31.358 54.424,15.874 54.424,15.874 54.424,15.874 54.424,15.874 	"/>
	<polygon style="fill-rule:evenodd;clip-rule:evenodd;fill:#37468B;" points="27.213,31.358 27.213,39.118 0,23.776 0.106,15.874 
		27.213,31.358 27.213,31.358 27.213,31.358 27.213,31.358 	"/>
	<polygon style="fill-rule:evenodd;clip-rule:evenodd;fill:#4F62A5;" points="54.424,15.59 27.319,31.181 0,15.59 27.142,0 
		54.424,15.59 54.424,15.59 54.424,15.59 54.424,15.59 	"/>
	<path style="fill-rule:evenodd;clip-rule:evenodd;fill:#2A3174;" d="M25.264,6.484c-3.579,1.984-3.579,1.984-3.579,1.984
		c-2.41-1.276-2.41-1.276-2.41-1.276c7.938-4.358,7.938-4.358,7.938-4.358c7.936,4.358,7.936,4.358,7.936,4.358
		c-2.338,1.276-2.338,1.276-2.338,1.276c-3.613-1.984-3.613-1.984-3.613-1.984c0,1.559,0,3.933,0,5.421
		c-1.241-0.213-2.587-0.213-3.898-0.036C25.264,6.484,25.264,6.484,25.264,6.484L25.264,6.484L25.264,6.484"/>
	<path style="fill-rule:evenodd;clip-rule:evenodd;fill:#2A3174;" d="M29.409,14.315c1.205,0.708,1.205,1.843,0,2.551
		c-1.204,0.708-3.117,0.708-4.322,0c-1.205-0.708-1.276-1.843-0.036-2.551C26.256,13.606,28.205,13.606,29.409,14.315L29.409,14.315
		L29.409,14.315"/>
	<path style="fill-rule:evenodd;clip-rule:evenodd;fill:#2A3174;" d="M33.555,17.008c0.354-0.744,0.318-1.523-0.105-2.268
		c9.85,0.035,9.85,0.035,9.85,0.035c-3.613-2.09-3.613-2.09-3.613-2.09c2.338-1.347,2.338-1.347,2.338-1.347
		c7.865,4.536,7.865,4.536,7.865,4.536c-7.83,4.536-7.83,4.536-7.83,4.536c-2.373-1.347-2.373-1.347-2.373-1.347
		c3.613-2.055,3.613-2.055,3.613-2.055C40.571,17.008,36.319,17.008,33.555,17.008L33.555,17.008L33.555,17.008"/>
	<path style="fill-rule:evenodd;clip-rule:evenodd;fill:#2A3174;" d="M20.658,14.775c-0.284,0.744-0.142,1.524,0.319,2.232
		c-10.524,0-10.524,0-10.524,0c3.543,2.055,3.543,2.055,3.543,2.055c-2.338,1.347-2.338,1.347-2.338,1.347
		c-7.689-4.5-7.689-4.5-7.689-4.5c7.653-4.571,7.653-4.571,7.653-4.571c2.303,1.382,2.303,1.382,2.303,1.382
		c-3.473,2.055-3.473,2.055-3.473,2.055C20.658,14.775,20.658,14.775,20.658,14.775L20.658,14.775L20.658,14.775"/>
	<path style="fill-rule:evenodd;clip-rule:evenodd;fill:#2A3174;" d="M32.209,23.563c2.373,1.311,2.373,1.311,2.373,1.311
		c-7.901,4.606-7.901,4.606-7.901,4.606c-7.973-4.606-7.973-4.606-7.973-4.606c2.339-1.311,2.339-1.311,2.339-1.311
		c3.649,2.055,3.649,2.055,3.649,2.055c-0.035-6.342-0.035-6.342-0.035-6.342c1.24,0.319,2.622,0.425,3.933,0.248
		c0,6.094,0,6.094,0,6.094C32.209,23.563,32.209,23.563,32.209,23.563L32.209,23.563L32.209,23.563"/>
	<path style="fill-rule:evenodd;clip-rule:evenodd;fill:#FFFFFF;" d="M25.264,6.166c-3.579,2.09-3.579,2.09-3.579,2.09
		c-2.41-1.417-2.41-1.417-2.41-1.417c7.938-4.571,7.938-4.571,7.938-4.571c7.936,4.571,7.936,4.571,7.936,4.571
		c-2.338,1.417-2.338,1.417-2.338,1.417c-3.613-2.09-3.613-2.09-3.613-2.09c0,1.594,0,4.11,0,5.74
		c-1.241-0.248-2.587-0.284-3.898-0.071C25.264,6.166,25.264,6.166,25.264,6.166L25.264,6.166L25.264,6.166"/>
	<path style="fill-rule:evenodd;clip-rule:evenodd;fill:#FFFFFF;" d="M29.409,13.748c1.205,0.708,1.205,1.842,0,2.551
		c-1.204,0.708-3.117,0.708-4.322,0c-1.205-0.709-1.276-1.843-0.036-2.551C26.256,13.04,28.205,13.04,29.409,13.748L29.409,13.748
		L29.409,13.748"/>
	<path style="fill-rule:evenodd;clip-rule:evenodd;fill:#FFFFFF;" d="M33.555,16.441c0.354-0.708,0.318-1.488-0.105-2.232
		c9.85,0,9.85,0,9.85,0c-3.613-2.055-3.613-2.055-3.613-2.055c2.338-1.382,2.338-1.382,2.338-1.382
		c7.865,4.571,7.865,4.571,7.865,4.571c-7.83,4.5-7.83,4.5-7.83,4.5c-2.373-1.311-2.373-1.311-2.373-1.311
		c3.613-2.091,3.613-2.091,3.613-2.091C40.571,16.441,36.319,16.441,33.555,16.441L33.555,16.441L33.555,16.441"/>
	<path style="fill-rule:evenodd;clip-rule:evenodd;fill:#FFFFFF;" d="M20.658,14.173c-0.284,0.815-0.142,1.559,0.319,2.268
		c-10.524,0-10.524,0-10.524,0c3.543,2.091,3.543,2.091,3.543,2.091c-2.338,1.311-2.338,1.311-2.338,1.311
		c-7.689-4.535-7.689-4.535-7.689-4.535c7.653-4.536,7.653-4.536,7.653-4.536c2.303,1.347,2.303,1.347,2.303,1.347
		c-3.473,2.055-3.473,2.055-3.473,2.055C20.658,14.173,20.658,14.173,20.658,14.173L20.658,14.173L20.658,14.173"/>
	<path style="fill-rule:evenodd;clip-rule:evenodd;fill:#FFFFFF;" d="M32.209,22.96c2.373,1.382,2.373,1.382,2.373,1.382
		c-7.901,4.571-7.901,4.571-7.901,4.571c-7.973-4.571-7.973-4.571-7.973-4.571c2.339-1.382,2.339-1.382,2.339-1.382
		c3.649,2.091,3.649,2.091,3.649,2.091c-0.035-6.343-0.035-6.343-0.035-6.343c1.24,0.319,2.622,0.425,3.933,0.248
		c0,6.095,0,6.095,0,6.095C32.209,22.96,32.209,22.96,32.209,22.96L32.209,22.96L32.209,22.96"/>
</g>
</svg>