<?xml version="1.0" encoding="utf-8"?>
<!DOCTYPE svg PUBLIC "-//W3C//DTD SVG 1.1//EN" "http://www.w3.org/Graphics/SVG/1.1/DTD/svg11.dtd">
<svg version="1.1" xmlns="http://www.w3.org/2000/svg" xmlns:xlink="http://www.w3.org/1999/xlink" width="595.28px" height="841.89px" viewBox="0 0 595.28 841.89">
<g>
	<path fill-rule="evenodd" clip-rule="evenodd" fill="#3B4F8A" d="M56.705,16.402c0,3.053,0,6.029,0,9.004
		c0,4.227-2.733,8.299-8.278,11.352c-10.935,6.42-28.9,6.42-40.069,0C2.891,33.705,0,29.477,0,25.25c0-2.897,0-6.029,0-9.004
		c0,4.228,2.891,8.377,8.358,11.509c11.169,6.419,29.134,6.419,40.069,0C53.972,24.623,56.705,20.552,56.705,16.402L56.705,16.402"
		/>
	<path fill-rule="evenodd" clip-rule="evenodd" fill="#7089C0" d="M48.271,4.815c11.09,6.263,11.09,16.598,0.156,22.939
		c-10.935,6.419-28.9,6.419-39.991,0C-2.499,21.413-2.655,11.079,8.28,4.815C19.371-1.527,37.258-1.683,48.271,4.815L48.271,4.815"
		/>
	<path fill-rule="evenodd" clip-rule="evenodd" fill="#273B6D" d="M34.913,7.634c0,0.548,0,0.548,0,0.548c-1.795,0-9.997,0-11.871,0
		c0-0.548,0-0.548,0-0.548C24.916,7.634,33.118,7.634,34.913,7.634"/>
	<polygon fill-rule="evenodd" clip-rule="evenodd" fill="#3F4887" points="44.755,12.958 42.646,14.21 46.006,16.089 37.646,16.089 
		37.646,18.203 46.006,18.203 42.646,20.004 44.833,21.413 52.02,17.185 44.755,12.958 	"/>
	<polygon fill-rule="evenodd" clip-rule="evenodd" fill="#FFFFFF" points="44.755,12.175 42.646,13.349 46.006,15.306 
		37.646,15.306 37.646,17.342 46.006,17.342 42.646,19.299 44.833,20.552 52.02,16.402 44.755,12.175 	"/>
	<path fill-rule="evenodd" clip-rule="evenodd" fill="#3B4F8A" d="M37.492,6.146c-1.094,0-1.094,0-1.094,0
		c-15.856,0-15.856,0-15.856,0c0,9.473,0,9.473,0,9.473c0.156,1.565,0.156,1.565,0.156,1.565c0,9.553,0,9.553,0,9.553
		c16.948,0,16.948,0,16.948,0L37.492,6.146L37.492,6.146z M23.042,25.25c0-1.254,0-16.442,0-17.694c1.874,0,10.232,0,12.105,0
		c0,1.252,0.078,16.44,0.078,17.694C33.353,25.25,24.916,25.25,23.042,25.25L23.042,25.25z"/>
	<polygon fill-rule="evenodd" clip-rule="evenodd" fill="#3F4887" points="14.294,12.958 12.185,14.21 15.543,16.089 5.78,16.089 
		5.78,18.203 15.543,18.203 12.185,20.004 14.45,21.178 20.542,17.812 20.464,16.402 14.294,12.958 	"/>
	<polygon fill-rule="evenodd" clip-rule="evenodd" fill="#FFFFFF" points="14.294,12.175 12.185,13.349 15.543,15.306 5.78,15.306 
		5.78,17.342 15.543,17.342 12.185,19.299 14.45,20.552 20.542,17.106 20.464,15.619 14.294,12.175 	"/>
	<polygon fill-rule="evenodd" clip-rule="evenodd" fill="#3F4887" points="32.57,11.939 32.102,11.392 33.118,10.452 33.899,10.452 
		33.899,14.21 33.039,14.21 33.039,11.47 32.57,11.939 	"/>
	<polygon fill-rule="evenodd" clip-rule="evenodd" fill="#3F4887" points="27.025,11.939 26.557,11.392 27.572,10.452 
		28.354,10.452 28.354,14.21 27.494,14.21 27.494,11.47 27.025,11.939 	"/>
	<path fill-rule="evenodd" clip-rule="evenodd" fill="#3F4887" d="M29.212,12.331c0-0.47,0.078-0.939,0.235-1.252
		c0.234-0.47,0.468-0.626,1.094-0.626c0.234,0,0.469,0,0.625,0.157c0.232,0.156,0.311,0.234,0.467,0.47
		c0.156,0.313,0.234,0.783,0.234,1.252s-0.078,1.018-0.234,1.252c-0.234,0.47-0.623,0.626-1.092,0.626c-0.235,0-0.47,0-0.704-0.157
		c-0.155-0.078-0.312-0.234-0.39-0.47C29.29,13.349,29.212,12.801,29.212,12.331L29.212,12.331L29.212,12.331z M30.541,11
		c-0.392,0-0.47,0.47-0.47,1.331c0,0.783,0.078,1.096,0.313,1.252c0.157,0.078,0.157,0.078,0.157,0.078
		c0.234,0,0.313-0.47,0.313-1.331c0-0.705-0.078-1.096-0.234-1.252C30.541,11.079,30.541,11,30.541,11L30.541,11z"/>
	<path fill-rule="evenodd" clip-rule="evenodd" fill="#3F4887" d="M26.322,12.331c0,0.47-0.078,1.018-0.234,1.252
		c-0.234,0.47-0.625,0.626-1.094,0.626c-0.233,0-0.468,0-0.625-0.157c-0.234-0.078-0.391-0.234-0.468-0.47
		c-0.157-0.234-0.235-0.783-0.235-1.252s0.078-0.939,0.235-1.252c0.233-0.47,0.625-0.626,1.093-0.626c0.234,0,0.469,0,0.625,0.157
		c0.234,0.156,0.313,0.234,0.469,0.47C26.244,11.392,26.322,11.861,26.322,12.331L26.322,12.331L26.322,12.331z M24.994,13.662
		c0.234,0,0.313-0.47,0.313-1.331c0-0.705,0-1.096-0.234-1.252C24.994,11,24.994,11,24.994,11c-0.233,0-0.468,0.47-0.468,1.331
		c0.078,0.783,0.078,1.096,0.312,1.252C24.994,13.662,24.994,13.662,24.994,13.662L24.994,13.662z"/>
	<path fill-rule="evenodd" clip-rule="evenodd" fill="#3F4887" d="M28.978,18.517c-0.313,0.469-0.703,0.626-1.249,0.626
		c-0.234,0-0.469,0-0.626-0.157c-0.233-0.078-0.39-0.234-0.546-0.469c-0.078-0.235-0.234-0.705-0.234-1.253
		c0-0.471,0.156-0.94,0.234-1.253c0.313-0.469,0.703-0.547,1.172-0.547c0.312,0,0.546,0,0.859,0.078
		c0.077,0.157,0.233,0.235,0.39,0.469c0.078,0.313,0.234,0.783,0.234,1.253C29.212,17.89,29.056,18.281,28.978,18.517L28.978,18.517
		L28.978,18.517z M27.729,18.673c0.312,0,0.546-0.548,0.546-1.409c0-0.705-0.156-1.096-0.39-1.253c-0.156,0-0.156,0-0.156,0
		c-0.234,0-0.391,0.392-0.391,1.253c0,0.783,0,1.096,0.313,1.253C27.65,18.673,27.729,18.673,27.729,18.673L27.729,18.673z"/>
	<path fill-rule="evenodd" clip-rule="evenodd" fill="#3F4887" d="M26.322,17.264c0,0.626-0.078,1.018-0.234,1.253
		c-0.234,0.469-0.469,0.626-1.094,0.626c-0.233,0-0.468,0-0.625-0.157c-0.234-0.078-0.391-0.234-0.468-0.469
		c-0.157-0.235-0.235-0.705-0.235-1.253c0-0.471,0.078-0.94,0.235-1.253c0.233-0.469,0.625-0.547,1.093-0.547
		c0.234,0,0.469,0,0.703,0.078c0.156,0.157,0.234,0.235,0.391,0.469C26.244,16.324,26.322,16.793,26.322,17.264L26.322,17.264
		L26.322,17.264z M24.994,18.673c0.313,0,0.469-0.548,0.469-1.409c0-0.705-0.156-1.096-0.391-1.253c-0.078,0-0.078,0-0.078,0
		c-0.233,0-0.39,0.392-0.39,1.253c0,0.783,0.156,1.096,0.233,1.253C24.838,18.673,24.994,18.673,24.994,18.673L24.994,18.673z"/>
	<polygon fill-rule="evenodd" clip-rule="evenodd" fill="#3F4887" points="33.196,20.16 33.899,20.16 33.899,23.84 33.039,23.84 
		33.039,21.1 32.57,21.647 32.102,21.021 33.196,20.16 	"/>
	<polygon fill-rule="evenodd" clip-rule="evenodd" fill="#3F4887" points="30.462,20.16 31.244,20.16 31.244,23.84 30.149,23.84 
		30.149,21.1 29.682,21.647 29.212,21.021 30.462,20.16 	"/>
	<polygon fill-rule="evenodd" clip-rule="evenodd" fill="#3F4887" points="24.994,20.16 25.697,20.16 25.697,23.84 24.838,23.84 
		24.683,21.1 24.213,21.647 23.823,21.021 24.994,20.16 	"/>
	<path fill-rule="evenodd" clip-rule="evenodd" fill="#3F4887" d="M29.212,22.038c0,0.627,0,1.02-0.234,1.254
		c-0.156,0.548-0.546,0.782-1.171,0.782c-0.234,0-0.547-0.156-0.626-0.234c-0.312-0.156-0.39-0.235-0.546-0.548
		c-0.078-0.234-0.078-0.627-0.078-1.254c0-0.469,0-1.017,0.078-1.251c0.234-0.471,0.625-0.627,1.172-0.627
		c0.233,0,0.468,0,0.781,0.156c0.077,0.079,0.233,0.235,0.39,0.471C29.056,21.021,29.212,21.569,29.212,22.038L29.212,22.038
		L29.212,22.038z M27.807,23.448c0.39,0,0.468-0.548,0.468-1.41c0-0.704-0.078-1.095-0.313-1.251c0,0,0,0-0.155,0
		c-0.234,0-0.391,0.391-0.391,1.251c0,0.783,0.156,1.176,0.234,1.254C27.807,23.448,27.807,23.448,27.807,23.448L27.807,23.448z"/>
	<polygon fill-rule="evenodd" clip-rule="evenodd" fill="#3F4887" points="31.244,19.143 30.149,19.143 30.149,16.402 29.682,16.95 
		29.212,16.324 30.306,15.463 31.088,15.463 31.244,19.143 	"/>
	<path fill-rule="evenodd" clip-rule="evenodd" fill="#3F4887" d="M31.867,17.264c0-0.471,0.156-0.94,0.234-1.253
		c0.313-0.469,0.703-0.547,1.173-0.547c0.313,0,0.547,0,0.703,0.078c0.234,0.157,0.391,0.235,0.545,0.469
		c0.078,0.313,0.234,0.783,0.234,1.253c0,0.548-0.156,1.018-0.234,1.253c-0.311,0.469-0.701,0.626-1.248,0.626
		c-0.235,0-0.47,0-0.626-0.157c-0.234-0.078-0.391-0.234-0.547-0.469C32.023,18.281,31.867,17.812,31.867,17.264L31.867,17.264
		L31.867,17.264z M33.274,16.01c-0.235,0-0.392,0.392-0.392,1.253c0,0.783,0,1.096,0.313,1.253c0,0.156,0.078,0.156,0.078,0.156
		c0.313,0,0.547-0.548,0.391-1.409c0-0.705,0-1.096-0.234-1.253C33.274,16.01,33.274,16.01,33.274,16.01L33.274,16.01z"/>
	<polygon fill-rule="evenodd" clip-rule="evenodd" fill="#FFFFFF" points="32.57,11.626 32.102,11 33.118,10.295 33.899,10.295 
		33.899,13.741 33.039,13.741 33.039,11.157 32.57,11.626 	"/>
	<polygon fill-rule="evenodd" clip-rule="evenodd" fill="#FFFFFF" points="27.025,11.626 26.557,11 27.572,10.295 28.354,10.295 
		28.354,13.741 27.494,13.741 27.494,11.157 27.025,11.626 	"/>
	<path fill-rule="evenodd" clip-rule="evenodd" fill="#FFFFFF" d="M29.212,11.939c0-0.47,0.078-1.018,0.235-1.252
		c0.234-0.313,0.468-0.626,1.094-0.626c0.234,0,0.469,0,0.625,0.156c0.232,0.157,0.311,0.235,0.467,0.47
		c0.156,0.234,0.234,0.783,0.234,1.252c0,0.705-0.078,1.018-0.234,1.41c-0.234,0.392-0.623,0.626-1.092,0.626
		c-0.235,0-0.47-0.078-0.704-0.234c-0.155,0-0.312-0.235-0.39-0.392C29.29,12.958,29.212,12.645,29.212,11.939L29.212,11.939
		L29.212,11.939z M30.541,10.687c-0.392,0-0.47,0.392-0.47,1.252c0,0.783,0.078,1.252,0.313,1.41c0.157,0,0.157,0,0.157,0
		c0.234,0,0.313-0.47,0.313-1.41c0-0.705-0.078-1.096-0.234-1.252C30.541,10.687,30.541,10.687,30.541,10.687L30.541,10.687z"/>
	<path fill-rule="evenodd" clip-rule="evenodd" fill="#FFFFFF" d="M26.322,11.939c0,0.705-0.078,1.018-0.234,1.41
		c-0.234,0.392-0.625,0.626-1.094,0.626c-0.233,0-0.468-0.078-0.625-0.234c-0.234,0-0.391-0.235-0.468-0.392
		c-0.157-0.392-0.235-0.705-0.235-1.41c0-0.47,0.078-1.018,0.235-1.252c0.233-0.313,0.625-0.626,1.093-0.626
		c0.234,0,0.469,0,0.625,0.156c0.234,0.157,0.313,0.235,0.469,0.47C26.244,11.079,26.322,11.47,26.322,11.939L26.322,11.939
		L26.322,11.939z M24.994,13.349c0.234,0,0.313-0.47,0.313-1.41c0-0.705,0-1.096-0.234-1.252c-0.078,0-0.078,0-0.078,0
		c-0.233,0-0.468,0.392-0.468,1.252c0.078,0.783,0.078,1.252,0.312,1.41C24.994,13.349,24.994,13.349,24.994,13.349L24.994,13.349z"
		/>
	<path fill-rule="evenodd" clip-rule="evenodd" fill="#FFFFFF" d="M28.978,18.125c-0.313,0.392-0.703,0.548-1.249,0.548
		c-0.234,0-0.469-0.078-0.626-0.078c-0.233-0.078-0.39-0.392-0.546-0.47c-0.078-0.313-0.234-0.705-0.234-1.332
		c0-0.469,0.156-0.861,0.234-1.174c0.313-0.392,0.703-0.626,1.172-0.626c0.312,0,0.546,0,0.859,0.156
		c0.077,0.078,0.233,0.235,0.39,0.47c0.078,0.313,0.234,0.705,0.234,1.174C29.212,17.42,29.056,17.812,28.978,18.125L28.978,18.125
		L28.978,18.125z M27.729,18.125c0.312,0,0.546-0.47,0.546-1.332c0-0.547-0.156-1.017-0.39-1.174c-0.156,0-0.156,0-0.156,0
		c-0.234,0-0.391,0.313-0.391,1.174c0,0.705,0,1.175,0.313,1.332C27.729,18.125,27.729,18.125,27.729,18.125L27.729,18.125z"/>
	<path fill-rule="evenodd" clip-rule="evenodd" fill="#FFFFFF" d="M26.322,16.793c0,0.627-0.078,1.019-0.234,1.332
		c-0.234,0.392-0.469,0.548-1.094,0.548c-0.233,0-0.468-0.078-0.625-0.078c-0.234-0.078-0.391-0.392-0.468-0.47
		c-0.157-0.313-0.235-0.705-0.235-1.332c0-0.469,0.078-0.861,0.235-1.174c0.233-0.392,0.625-0.626,1.093-0.626
		c0.234,0,0.469,0,0.703,0.156c0.156,0.078,0.234,0.235,0.391,0.47C26.244,15.932,26.322,16.324,26.322,16.793L26.322,16.793
		L26.322,16.793z M24.994,18.125c0.313,0,0.469-0.47,0.469-1.332c0-0.547-0.156-1.017-0.391-1.174c-0.078,0-0.078,0-0.078,0
		c-0.233,0-0.39,0.313-0.39,1.174c0,0.705,0.156,1.175,0.233,1.332C24.994,18.125,24.994,18.125,24.994,18.125L24.994,18.125z"/>
	<polygon fill-rule="evenodd" clip-rule="evenodd" fill="#FFFFFF" points="33.196,19.926 33.899,19.926 33.899,23.448 
		33.039,23.448 33.039,20.865 32.57,21.256 32.102,20.63 33.196,19.926 	"/>
	<polygon fill-rule="evenodd" clip-rule="evenodd" fill="#FFFFFF" points="30.462,19.926 31.244,19.926 31.244,23.448 
		30.149,23.448 30.149,20.865 29.682,21.256 29.212,20.63 30.462,19.926 	"/>
	<polygon fill-rule="evenodd" clip-rule="evenodd" fill="#FFFFFF" points="24.994,19.926 25.697,19.926 25.697,23.448 
		24.838,23.448 24.683,20.865 24.213,21.256 23.823,20.63 24.994,19.926 	"/>
	<path fill-rule="evenodd" clip-rule="evenodd" fill="#FFFFFF" d="M29.212,21.804c0,0.471,0,0.861-0.234,1.254
		c-0.156,0.313-0.546,0.626-1.171,0.626c-0.234,0-0.547-0.157-0.626-0.157c-0.312-0.156-0.39-0.391-0.546-0.469
		c-0.078-0.393-0.078-0.783-0.078-1.254c0-0.704,0-1.017,0.078-1.408c0.234-0.392,0.625-0.627,1.172-0.627
		c0.233,0,0.468,0.078,0.781,0.078c0.077,0.157,0.233,0.392,0.39,0.549C29.056,20.787,29.212,21.1,29.212,21.804L29.212,21.804
		L29.212,21.804z M27.807,23.058c0.39,0,0.468-0.393,0.468-1.254c0-0.782-0.078-1.252-0.313-1.408c0,0,0,0-0.155,0
		c-0.234,0-0.391,0.392-0.391,1.408c0,0.549,0.156,1.097,0.234,1.254C27.807,23.058,27.807,23.058,27.807,23.058L27.807,23.058z"/>
	<polygon fill-rule="evenodd" clip-rule="evenodd" fill="#FFFFFF" points="31.244,18.673 30.149,18.673 30.149,15.932 
		29.682,16.402 29.212,15.854 30.306,14.993 31.088,14.993 31.244,18.673 	"/>
	<path fill-rule="evenodd" clip-rule="evenodd" fill="#FFFFFF" d="M31.867,16.793c0-0.469,0.156-0.861,0.234-1.174
		c0.313-0.392,0.703-0.626,1.173-0.626c0.313,0,0.547,0,0.703,0.156c0.234,0.078,0.391,0.235,0.545,0.47
		c0.078,0.313,0.234,0.705,0.234,1.174c0,0.627-0.156,1.019-0.234,1.332c-0.311,0.392-0.701,0.548-1.248,0.548
		c-0.235,0-0.47-0.078-0.626-0.078c-0.234-0.078-0.391-0.392-0.547-0.47C32.023,17.812,31.867,17.42,31.867,16.793L31.867,16.793
		L31.867,16.793z M33.274,15.619c-0.235,0-0.392,0.313-0.392,1.174c0,0.705,0,1.175,0.313,1.332c0.078,0,0.078,0,0.078,0
		c0.313,0,0.547-0.47,0.391-1.332c0-0.547,0-1.017-0.234-1.174C33.274,15.619,33.274,15.619,33.274,15.619L33.274,15.619z"/>
	<polygon fill-rule="evenodd" clip-rule="evenodd" fill="#273B6D" points="20.542,26.737 20.542,27.599 37.646,27.599 
		37.646,26.737 20.542,26.737 	"/>
	<polygon fill-rule="evenodd" clip-rule="evenodd" fill="#FFFFFF" points="16.09,33.939 16.09,38.872 17.028,38.872 17.028,33.939 
		16.09,33.939 	"/>
	<path fill-rule="evenodd" clip-rule="evenodd" fill="#FFFFFF" d="M18.121,38.872c0-4.933,0-4.933,0-4.933c2.265,0,2.265,0,2.265,0
		c0.781,0,1.25,0.234,1.64,0.861c0.234,0.391,0.39,0.861,0.39,1.487c0,0.783-0.156,1.252-0.39,1.723
		c-0.39,0.626-1.016,0.861-1.719,0.861H18.121L18.121,38.872z M19.137,34.801c0,3.21,0,3.21,0,3.21c1.015,0,1.015,0,1.015,0
		c0.469,0,0.704-0.078,1.016-0.471c0.078-0.391,0.234-0.782,0.234-1.096c0-1.174-0.546-1.644-1.25-1.644H19.137L19.137,34.801z"/>
	<path fill-rule="evenodd" clip-rule="evenodd" fill="#FFFFFF" d="M23.042,37.462c0.937,0,0.937,0,0.937,0
		c0,0.549,0.391,0.783,1.094,0.783c0.547,0,0.938-0.156,0.938-0.625c0-0.158-0.156-0.236-0.234-0.393
		c-0.156-0.078-0.391-0.078-0.625-0.234c-0.546-0.078-0.546-0.078-0.546-0.078c-0.548-0.157-0.86-0.314-1.016-0.393
		c-0.313-0.234-0.468-0.626-0.468-1.095c0-0.393,0.156-0.627,0.312-0.861c0.313-0.393,0.781-0.627,1.484-0.627
		s1.172,0.234,1.406,0.627c0.391,0.234,0.469,0.625,0.469,1.018c-0.938,0-0.938,0-0.938,0c-0.078-0.549-0.469-0.783-1.016-0.783
		c-0.155,0-0.391,0-0.469,0.156c-0.313,0.078-0.391,0.234-0.391,0.471c0,0.234,0.234,0.391,0.626,0.469
		c1.015,0.235,1.015,0.235,1.015,0.235c0.469,0.156,0.703,0.234,0.938,0.469c0.234,0.314,0.391,0.549,0.391,0.861
		c0,0.627-0.234,1.175-0.859,1.41c-0.234,0.234-0.547,0.234-1.016,0.234c-0.625,0-1.094-0.156-1.484-0.392
		C23.276,38.48,23.042,38.089,23.042,37.462"/>
	<polygon fill-rule="evenodd" clip-rule="evenodd" fill="#FFFFFF" points="29.368,33.939 27.885,39.106 26.947,39.106 
		28.588,33.939 29.368,33.939 	"/>
	<polygon fill-rule="evenodd" clip-rule="evenodd" fill="#FFFFFF" points="29.604,33.939 29.604,38.872 30.854,38.872 
		30.854,33.939 29.604,33.939 	"/>
	<path fill-rule="evenodd" clip-rule="evenodd" fill="#FFFFFF" d="M32.648,37.149c0,1.723,0,1.723,0,1.723c-1.016,0-1.016,0-1.016,0
		c0-4.933,0-4.933,0-4.933c2.267,0,2.267,0,2.267,0c0.547,0,0.936,0.156,1.248,0.47s0.391,0.626,0.391,1.175
		c0,0.313-0.078,0.548-0.391,0.938c-0.234,0.393-0.625,0.627-1.248,0.627H32.648L32.648,37.149z M32.648,36.288
		c1.017,0,1.017,0,1.017,0c0.469,0,0.781-0.235,0.781-0.704c0-0.393,0-0.549-0.313-0.627c-0.078-0.156-0.313-0.156-0.547-0.156
		c-0.938,0-0.938,0-0.938,0V36.288L32.648,36.288z"/>
	<path fill-rule="evenodd" clip-rule="evenodd" fill="#FFFFFF" d="M36.164,37.462c0.938,0,0.938,0,0.938,0
		c0,0.549,0.391,0.783,0.936,0.783c0.704,0,1.095-0.156,1.095-0.625c0-0.158-0.078-0.236-0.234-0.393
		c-0.156-0.078-0.391-0.078-0.626-0.234c-0.547-0.078-0.547-0.078-0.547-0.078c-0.467-0.157-0.857-0.314-0.936-0.393
		c-0.391-0.234-0.469-0.626-0.469-1.095c0-0.393,0-0.627,0.234-0.861c0.313-0.393,0.781-0.627,1.482-0.627
		c0.626,0,1.173,0.234,1.485,0.627c0.313,0.234,0.469,0.625,0.469,1.018c-0.938,0-0.938,0-0.938,0
		c-0.156-0.549-0.547-0.783-1.095-0.783c-0.156,0-0.388,0-0.467,0.156c-0.234,0.078-0.391,0.234-0.391,0.471
		c0,0.234,0.234,0.391,0.623,0.469c1.017,0.235,1.017,0.235,1.017,0.235c0.469,0.156,0.781,0.234,0.938,0.469
		c0.313,0.314,0.391,0.549,0.391,0.861c0,0.627-0.234,1.175-0.859,1.41c-0.156,0.234-0.547,0.234-1.017,0.234
		c-0.622,0-1.092-0.156-1.404-0.392C36.398,38.48,36.164,38.089,36.164,37.462"/>
	<path fill-rule="evenodd" clip-rule="evenodd" fill="#3B4F8A" d="M56.705,16.402c0,3.053,0,6.029,0,9.004
		c0,4.227-2.733,8.299-8.278,11.352c-10.935,6.42-28.9,6.42-40.069,0C2.891,33.705,0,29.477,0,25.25c0-2.897,0-6.029,0-9.004
		c0,4.228,2.891,8.377,8.358,11.509c11.169,6.419,29.134,6.419,40.069,0C53.972,24.623,56.705,20.552,56.705,16.402L56.705,16.402"
		/>
	<path fill-rule="evenodd" clip-rule="evenodd" fill="#7089C0" d="M48.271,4.815c11.09,6.263,11.09,16.598,0.156,22.939
		c-10.935,6.419-28.9,6.419-39.991,0C-2.499,21.413-2.655,11.079,8.28,4.815C19.371-1.527,37.258-1.683,48.271,4.815L48.271,4.815"
		/>
	<path fill-rule="evenodd" clip-rule="evenodd" fill="#273B6D" d="M34.913,7.634c0,0.548,0,0.548,0,0.548c-1.795,0-9.997,0-11.871,0
		c0-0.548,0-0.548,0-0.548C24.916,7.634,33.118,7.634,34.913,7.634"/>
	<polygon fill-rule="evenodd" clip-rule="evenodd" fill="#3F4887" points="44.755,12.958 42.646,14.21 46.006,16.089 37.646,16.089 
		37.646,18.203 46.006,18.203 42.646,20.004 44.833,21.413 52.02,17.185 44.755,12.958 	"/>
	<polygon fill-rule="evenodd" clip-rule="evenodd" fill="#FFFFFF" points="44.755,12.175 42.646,13.349 46.006,15.306 
		37.646,15.306 37.646,17.342 46.006,17.342 42.646,19.299 44.833,20.552 52.02,16.402 44.755,12.175 	"/>
	<path fill-rule="evenodd" clip-rule="evenodd" fill="#3B4F8A" d="M37.492,6.146c-1.094,0-1.094,0-1.094,0
		c-15.856,0-15.856,0-15.856,0c0,9.473,0,9.473,0,9.473c0.156,1.565,0.156,1.565,0.156,1.565c0,9.553,0,9.553,0,9.553
		c16.948,0,16.948,0,16.948,0L37.492,6.146L37.492,6.146z M23.042,25.25c0-1.254,0-16.442,0-17.694c1.874,0,10.232,0,12.105,0
		c0,1.252,0.078,16.44,0.078,17.694C33.353,25.25,24.916,25.25,23.042,25.25L23.042,25.25z"/>
	<polygon fill-rule="evenodd" clip-rule="evenodd" fill="#3F4887" points="14.294,12.958 12.185,14.21 15.543,16.089 5.78,16.089 
		5.78,18.203 15.543,18.203 12.185,20.004 14.45,21.178 20.542,17.812 20.464,16.402 14.294,12.958 	"/>
	<polygon fill-rule="evenodd" clip-rule="evenodd" fill="#FFFFFF" points="14.294,12.175 12.185,13.349 15.543,15.306 5.78,15.306 
		5.78,17.342 15.543,17.342 12.185,19.299 14.45,20.552 20.542,17.106 20.464,15.619 14.294,12.175 	"/>
	<polygon fill-rule="evenodd" clip-rule="evenodd" fill="#3F4887" points="32.57,11.939 32.102,11.392 33.118,10.452 33.899,10.452 
		33.899,14.21 33.039,14.21 33.039,11.47 32.57,11.939 	"/>
	<polygon fill-rule="evenodd" clip-rule="evenodd" fill="#3F4887" points="27.025,11.939 26.557,11.392 27.572,10.452 
		28.354,10.452 28.354,14.21 27.494,14.21 27.494,11.47 27.025,11.939 	"/>
	<path fill-rule="evenodd" clip-rule="evenodd" fill="#3F4887" d="M29.212,12.331c0-0.47,0.078-0.939,0.235-1.252
		c0.234-0.47,0.468-0.626,1.094-0.626c0.234,0,0.469,0,0.625,0.157c0.232,0.156,0.311,0.234,0.467,0.47
		c0.156,0.313,0.234,0.783,0.234,1.252s-0.078,1.018-0.234,1.252c-0.234,0.47-0.623,0.626-1.092,0.626c-0.235,0-0.47,0-0.704-0.157
		c-0.155-0.078-0.312-0.234-0.39-0.47C29.29,13.349,29.212,12.801,29.212,12.331L29.212,12.331L29.212,12.331z M30.541,11
		c-0.392,0-0.47,0.47-0.47,1.331c0,0.783,0.078,1.096,0.313,1.252c0.157,0.078,0.157,0.078,0.157,0.078
		c0.234,0,0.313-0.47,0.313-1.331c0-0.705-0.078-1.096-0.234-1.252C30.541,11.079,30.541,11,30.541,11L30.541,11z"/>
	<path fill-rule="evenodd" clip-rule="evenodd" fill="#3F4887" d="M26.322,12.331c0,0.47-0.078,1.018-0.234,1.252
		c-0.234,0.47-0.625,0.626-1.094,0.626c-0.233,0-0.468,0-0.625-0.157c-0.234-0.078-0.391-0.234-0.468-0.47
		c-0.157-0.234-0.235-0.783-0.235-1.252s0.078-0.939,0.235-1.252c0.233-0.47,0.625-0.626,1.093-0.626c0.234,0,0.469,0,0.625,0.157
		c0.234,0.156,0.313,0.234,0.469,0.47C26.244,11.392,26.322,11.861,26.322,12.331L26.322,12.331L26.322,12.331z M24.994,13.662
		c0.234,0,0.313-0.47,0.313-1.331c0-0.705,0-1.096-0.234-1.252C24.994,11,24.994,11,24.994,11c-0.233,0-0.468,0.47-0.468,1.331
		c0.078,0.783,0.078,1.096,0.312,1.252C24.994,13.662,24.994,13.662,24.994,13.662L24.994,13.662z"/>
	<path fill-rule="evenodd" clip-rule="evenodd" fill="#3F4887" d="M28.978,18.517c-0.313,0.469-0.703,0.626-1.249,0.626
		c-0.234,0-0.469,0-0.626-0.157c-0.233-0.078-0.39-0.234-0.546-0.469c-0.078-0.235-0.234-0.705-0.234-1.253
		c0-0.471,0.156-0.94,0.234-1.253c0.313-0.469,0.703-0.547,1.172-0.547c0.312,0,0.546,0,0.859,0.078
		c0.077,0.157,0.233,0.235,0.39,0.469c0.078,0.313,0.234,0.783,0.234,1.253C29.212,17.89,29.056,18.281,28.978,18.517L28.978,18.517
		L28.978,18.517z M27.729,18.673c0.312,0,0.546-0.548,0.546-1.409c0-0.705-0.156-1.096-0.39-1.253c-0.156,0-0.156,0-0.156,0
		c-0.234,0-0.391,0.392-0.391,1.253c0,0.783,0,1.096,0.313,1.253C27.65,18.673,27.729,18.673,27.729,18.673L27.729,18.673z"/>
	<path fill-rule="evenodd" clip-rule="evenodd" fill="#3F4887" d="M26.322,17.264c0,0.626-0.078,1.018-0.234,1.253
		c-0.234,0.469-0.469,0.626-1.094,0.626c-0.233,0-0.468,0-0.625-0.157c-0.234-0.078-0.391-0.234-0.468-0.469
		c-0.157-0.235-0.235-0.705-0.235-1.253c0-0.471,0.078-0.94,0.235-1.253c0.233-0.469,0.625-0.547,1.093-0.547
		c0.234,0,0.469,0,0.703,0.078c0.156,0.157,0.234,0.235,0.391,0.469C26.244,16.324,26.322,16.793,26.322,17.264L26.322,17.264
		L26.322,17.264z M24.994,18.673c0.313,0,0.469-0.548,0.469-1.409c0-0.705-0.156-1.096-0.391-1.253c-0.078,0-0.078,0-0.078,0
		c-0.233,0-0.39,0.392-0.39,1.253c0,0.783,0.156,1.096,0.233,1.253C24.838,18.673,24.994,18.673,24.994,18.673L24.994,18.673z"/>
	<polygon fill-rule="evenodd" clip-rule="evenodd" fill="#3F4887" points="33.196,20.16 33.899,20.16 33.899,23.84 33.039,23.84 
		33.039,21.1 32.57,21.647 32.102,21.021 33.196,20.16 	"/>
	<polygon fill-rule="evenodd" clip-rule="evenodd" fill="#3F4887" points="30.462,20.16 31.244,20.16 31.244,23.84 30.149,23.84 
		30.149,21.1 29.682,21.647 29.212,21.021 30.462,20.16 	"/>
	<polygon fill-rule="evenodd" clip-rule="evenodd" fill="#3F4887" points="24.994,20.16 25.697,20.16 25.697,23.84 24.838,23.84 
		24.683,21.1 24.213,21.647 23.823,21.021 24.994,20.16 	"/>
	<path fill-rule="evenodd" clip-rule="evenodd" fill="#3F4887" d="M29.212,22.038c0,0.627,0,1.02-0.234,1.254
		c-0.156,0.548-0.546,0.782-1.171,0.782c-0.234,0-0.547-0.156-0.626-0.234c-0.312-0.156-0.39-0.235-0.546-0.548
		c-0.078-0.234-0.078-0.627-0.078-1.254c0-0.469,0-1.017,0.078-1.251c0.234-0.471,0.625-0.627,1.172-0.627
		c0.233,0,0.468,0,0.781,0.156c0.077,0.079,0.233,0.235,0.39,0.471C29.056,21.021,29.212,21.569,29.212,22.038L29.212,22.038
		L29.212,22.038z M27.807,23.448c0.39,0,0.468-0.548,0.468-1.41c0-0.704-0.078-1.095-0.313-1.251c0,0,0,0-0.155,0
		c-0.234,0-0.391,0.391-0.391,1.251c0,0.783,0.156,1.176,0.234,1.254C27.807,23.448,27.807,23.448,27.807,23.448L27.807,23.448z"/>
	<polygon fill-rule="evenodd" clip-rule="evenodd" fill="#3F4887" points="31.244,19.143 30.149,19.143 30.149,16.402 29.682,16.95 
		29.212,16.324 30.306,15.463 31.088,15.463 31.244,19.143 	"/>
	<path fill-rule="evenodd" clip-rule="evenodd" fill="#3F4887" d="M31.867,17.264c0-0.471,0.156-0.94,0.234-1.253
		c0.313-0.469,0.703-0.547,1.173-0.547c0.313,0,0.547,0,0.703,0.078c0.234,0.157,0.391,0.235,0.545,0.469
		c0.078,0.313,0.234,0.783,0.234,1.253c0,0.548-0.156,1.018-0.234,1.253c-0.311,0.469-0.701,0.626-1.248,0.626
		c-0.235,0-0.47,0-0.626-0.157c-0.234-0.078-0.391-0.234-0.547-0.469C32.023,18.281,31.867,17.812,31.867,17.264L31.867,17.264
		L31.867,17.264z M33.274,16.01c-0.235,0-0.392,0.392-0.392,1.253c0,0.783,0,1.096,0.313,1.253c0,0.156,0.078,0.156,0.078,0.156
		c0.313,0,0.547-0.548,0.391-1.409c0-0.705,0-1.096-0.234-1.253C33.274,16.01,33.274,16.01,33.274,16.01L33.274,16.01z"/>
	<polygon fill-rule="evenodd" clip-rule="evenodd" fill="#FFFFFF" points="32.57,11.626 32.102,11 33.118,10.295 33.899,10.295 
		33.899,13.741 33.039,13.741 33.039,11.157 32.57,11.626 	"/>
	<polygon fill-rule="evenodd" clip-rule="evenodd" fill="#FFFFFF" points="27.025,11.626 26.557,11 27.572,10.295 28.354,10.295 
		28.354,13.741 27.494,13.741 27.494,11.157 27.025,11.626 	"/>
	<path fill-rule="evenodd" clip-rule="evenodd" fill="#FFFFFF" d="M29.212,11.939c0-0.47,0.078-1.018,0.235-1.252
		c0.234-0.313,0.468-0.626,1.094-0.626c0.234,0,0.469,0,0.625,0.156c0.232,0.157,0.311,0.235,0.467,0.47
		c0.156,0.234,0.234,0.783,0.234,1.252c0,0.705-0.078,1.018-0.234,1.41c-0.234,0.392-0.623,0.626-1.092,0.626
		c-0.235,0-0.47-0.078-0.704-0.234c-0.155,0-0.312-0.235-0.39-0.392C29.29,12.958,29.212,12.645,29.212,11.939L29.212,11.939
		L29.212,11.939z M30.541,10.687c-0.392,0-0.47,0.392-0.47,1.252c0,0.783,0.078,1.252,0.313,1.41c0.157,0,0.157,0,0.157,0
		c0.234,0,0.313-0.47,0.313-1.41c0-0.705-0.078-1.096-0.234-1.252C30.541,10.687,30.541,10.687,30.541,10.687L30.541,10.687z"/>
	<path fill-rule="evenodd" clip-rule="evenodd" fill="#FFFFFF" d="M26.322,11.939c0,0.705-0.078,1.018-0.234,1.41
		c-0.234,0.392-0.625,0.626-1.094,0.626c-0.233,0-0.468-0.078-0.625-0.234c-0.234,0-0.391-0.235-0.468-0.392
		c-0.157-0.392-0.235-0.705-0.235-1.41c0-0.47,0.078-1.018,0.235-1.252c0.233-0.313,0.625-0.626,1.093-0.626
		c0.234,0,0.469,0,0.625,0.156c0.234,0.157,0.313,0.235,0.469,0.47C26.244,11.079,26.322,11.47,26.322,11.939L26.322,11.939
		L26.322,11.939z M24.994,13.349c0.234,0,0.313-0.47,0.313-1.41c0-0.705,0-1.096-0.234-1.252c-0.078,0-0.078,0-0.078,0
		c-0.233,0-0.468,0.392-0.468,1.252c0.078,0.783,0.078,1.252,0.312,1.41C24.994,13.349,24.994,13.349,24.994,13.349L24.994,13.349z"
		/>
	<path fill-rule="evenodd" clip-rule="evenodd" fill="#FFFFFF" d="M28.978,18.125c-0.313,0.392-0.703,0.548-1.249,0.548
		c-0.234,0-0.469-0.078-0.626-0.078c-0.233-0.078-0.39-0.392-0.546-0.47c-0.078-0.313-0.234-0.705-0.234-1.332
		c0-0.469,0.156-0.861,0.234-1.174c0.313-0.392,0.703-0.626,1.172-0.626c0.312,0,0.546,0,0.859,0.156
		c0.077,0.078,0.233,0.235,0.39,0.47c0.078,0.313,0.234,0.705,0.234,1.174C29.212,17.42,29.056,17.812,28.978,18.125L28.978,18.125
		L28.978,18.125z M27.729,18.125c0.312,0,0.546-0.47,0.546-1.332c0-0.547-0.156-1.017-0.39-1.174c-0.156,0-0.156,0-0.156,0
		c-0.234,0-0.391,0.313-0.391,1.174c0,0.705,0,1.175,0.313,1.332C27.729,18.125,27.729,18.125,27.729,18.125L27.729,18.125z"/>
	<path fill-rule="evenodd" clip-rule="evenodd" fill="#FFFFFF" d="M26.322,16.793c0,0.627-0.078,1.019-0.234,1.332
		c-0.234,0.392-0.469,0.548-1.094,0.548c-0.233,0-0.468-0.078-0.625-0.078c-0.234-0.078-0.391-0.392-0.468-0.47
		c-0.157-0.313-0.235-0.705-0.235-1.332c0-0.469,0.078-0.861,0.235-1.174c0.233-0.392,0.625-0.626,1.093-0.626
		c0.234,0,0.469,0,0.703,0.156c0.156,0.078,0.234,0.235,0.391,0.47C26.244,15.932,26.322,16.324,26.322,16.793L26.322,16.793
		L26.322,16.793z M24.994,18.125c0.313,0,0.469-0.47,0.469-1.332c0-0.547-0.156-1.017-0.391-1.174c-0.078,0-0.078,0-0.078,0
		c-0.233,0-0.39,0.313-0.39,1.174c0,0.705,0.156,1.175,0.233,1.332C24.994,18.125,24.994,18.125,24.994,18.125L24.994,18.125z"/>
	<polygon fill-rule="evenodd" clip-rule="evenodd" fill="#FFFFFF" points="33.196,19.926 33.899,19.926 33.899,23.448 
		33.039,23.448 33.039,20.865 32.57,21.256 32.102,20.63 33.196,19.926 	"/>
	<polygon fill-rule="evenodd" clip-rule="evenodd" fill="#FFFFFF" points="30.462,19.926 31.244,19.926 31.244,23.448 
		30.149,23.448 30.149,20.865 29.682,21.256 29.212,20.63 30.462,19.926 	"/>
	<polygon fill-rule="evenodd" clip-rule="evenodd" fill="#FFFFFF" points="24.994,19.926 25.697,19.926 25.697,23.448 
		24.838,23.448 24.683,20.865 24.213,21.256 23.823,20.63 24.994,19.926 	"/>
	<path fill-rule="evenodd" clip-rule="evenodd" fill="#FFFFFF" d="M29.212,21.804c0,0.471,0,0.861-0.234,1.254
		c-0.156,0.313-0.546,0.626-1.171,0.626c-0.234,0-0.547-0.157-0.626-0.157c-0.312-0.156-0.39-0.391-0.546-0.469
		c-0.078-0.393-0.078-0.783-0.078-1.254c0-0.704,0-1.017,0.078-1.408c0.234-0.392,0.625-0.627,1.172-0.627
		c0.233,0,0.468,0.078,0.781,0.078c0.077,0.157,0.233,0.392,0.39,0.549C29.056,20.787,29.212,21.1,29.212,21.804L29.212,21.804
		L29.212,21.804z M27.807,23.058c0.39,0,0.468-0.393,0.468-1.254c0-0.782-0.078-1.252-0.313-1.408c0,0,0,0-0.155,0
		c-0.234,0-0.391,0.392-0.391,1.408c0,0.549,0.156,1.097,0.234,1.254C27.807,23.058,27.807,23.058,27.807,23.058L27.807,23.058z"/>
	<polygon fill-rule="evenodd" clip-rule="evenodd" fill="#FFFFFF" points="31.244,18.673 30.149,18.673 30.149,15.932 
		29.682,16.402 29.212,15.854 30.306,14.993 31.088,14.993 31.244,18.673 	"/>
	<path fill-rule="evenodd" clip-rule="evenodd" fill="#FFFFFF" d="M31.867,16.793c0-0.469,0.156-0.861,0.234-1.174
		c0.313-0.392,0.703-0.626,1.173-0.626c0.313,0,0.547,0,0.703,0.156c0.234,0.078,0.391,0.235,0.545,0.47
		c0.078,0.313,0.234,0.705,0.234,1.174c0,0.627-0.156,1.019-0.234,1.332c-0.311,0.392-0.701,0.548-1.248,0.548
		c-0.235,0-0.47-0.078-0.626-0.078c-0.234-0.078-0.391-0.392-0.547-0.47C32.023,17.812,31.867,17.42,31.867,16.793L31.867,16.793
		L31.867,16.793z M33.274,15.619c-0.235,0-0.392,0.313-0.392,1.174c0,0.705,0,1.175,0.313,1.332c0.078,0,0.078,0,0.078,0
		c0.313,0,0.547-0.47,0.391-1.332c0-0.547,0-1.017-0.234-1.174C33.274,15.619,33.274,15.619,33.274,15.619L33.274,15.619z"/>
	<polygon fill-rule="evenodd" clip-rule="evenodd" fill="#273B6D" points="20.542,26.737 20.542,27.599 37.646,27.599 
		37.646,26.737 20.542,26.737 	"/>
	<polygon fill-rule="evenodd" clip-rule="evenodd" fill="#FFFFFF" points="16.09,33.939 16.09,38.872 17.028,38.872 17.028,33.939 
		16.09,33.939 	"/>
	<path fill-rule="evenodd" clip-rule="evenodd" fill="#FFFFFF" d="M18.121,38.872c0-4.933,0-4.933,0-4.933c2.265,0,2.265,0,2.265,0
		c0.781,0,1.25,0.234,1.64,0.861c0.234,0.391,0.39,0.861,0.39,1.487c0,0.783-0.156,1.252-0.39,1.723
		c-0.39,0.626-1.016,0.861-1.719,0.861H18.121L18.121,38.872z M19.137,34.801c0,3.21,0,3.21,0,3.21c1.015,0,1.015,0,1.015,0
		c0.469,0,0.704-0.078,1.016-0.471c0.078-0.391,0.234-0.782,0.234-1.096c0-1.174-0.546-1.644-1.25-1.644H19.137L19.137,34.801z"/>
	<path fill-rule="evenodd" clip-rule="evenodd" fill="#FFFFFF" d="M23.042,37.462c0.937,0,0.937,0,0.937,0
		c0,0.549,0.391,0.783,1.094,0.783c0.547,0,0.938-0.156,0.938-0.625c0-0.158-0.156-0.236-0.234-0.393
		c-0.156-0.078-0.391-0.078-0.625-0.234c-0.546-0.078-0.546-0.078-0.546-0.078c-0.548-0.157-0.86-0.314-1.016-0.393
		c-0.313-0.234-0.468-0.626-0.468-1.095c0-0.393,0.156-0.627,0.312-0.861c0.313-0.393,0.781-0.627,1.484-0.627
		s1.172,0.234,1.406,0.627c0.391,0.234,0.469,0.625,0.469,1.018c-0.938,0-0.938,0-0.938,0c-0.078-0.549-0.469-0.783-1.016-0.783
		c-0.155,0-0.391,0-0.469,0.156c-0.313,0.078-0.391,0.234-0.391,0.471c0,0.234,0.234,0.391,0.626,0.469
		c1.015,0.235,1.015,0.235,1.015,0.235c0.469,0.156,0.703,0.234,0.938,0.469c0.234,0.314,0.391,0.549,0.391,0.861
		c0,0.627-0.234,1.175-0.859,1.41c-0.234,0.234-0.547,0.234-1.016,0.234c-0.625,0-1.094-0.156-1.484-0.392
		C23.276,38.48,23.042,38.089,23.042,37.462"/>
	<polygon fill-rule="evenodd" clip-rule="evenodd" fill="#FFFFFF" points="29.368,33.939 27.885,39.106 26.947,39.106 
		28.588,33.939 29.368,33.939 	"/>
	<polygon fill-rule="evenodd" clip-rule="evenodd" fill="#FFFFFF" points="29.604,33.939 29.604,38.872 30.854,38.872 
		30.854,33.939 29.604,33.939 	"/>
	<path fill-rule="evenodd" clip-rule="evenodd" fill="#FFFFFF" d="M32.648,37.149c0,1.723,0,1.723,0,1.723c-1.016,0-1.016,0-1.016,0
		c0-4.933,0-4.933,0-4.933c2.267,0,2.267,0,2.267,0c0.547,0,0.936,0.156,1.248,0.47s0.391,0.626,0.391,1.175
		c0,0.313-0.078,0.548-0.391,0.938c-0.234,0.393-0.625,0.627-1.248,0.627H32.648L32.648,37.149z M32.648,36.288
		c1.017,0,1.017,0,1.017,0c0.469,0,0.781-0.235,0.781-0.704c0-0.393,0-0.549-0.313-0.627c-0.078-0.156-0.313-0.156-0.547-0.156
		c-0.938,0-0.938,0-0.938,0V36.288L32.648,36.288z"/>
	<path fill-rule="evenodd" clip-rule="evenodd" fill="#FFFFFF" d="M36.164,37.462c0.938,0,0.938,0,0.938,0
		c0,0.549,0.391,0.783,0.936,0.783c0.704,0,1.095-0.156,1.095-0.625c0-0.158-0.078-0.236-0.234-0.393
		c-0.156-0.078-0.391-0.078-0.626-0.234c-0.547-0.078-0.547-0.078-0.547-0.078c-0.467-0.157-0.857-0.314-0.936-0.393
		c-0.391-0.234-0.469-0.626-0.469-1.095c0-0.393,0-0.627,0.234-0.861c0.313-0.393,0.781-0.627,1.482-0.627
		c0.626,0,1.173,0.234,1.485,0.627c0.313,0.234,0.469,0.625,0.469,1.018c-0.938,0-0.938,0-0.938,0
		c-0.156-0.549-0.547-0.783-1.095-0.783c-0.156,0-0.388,0-0.467,0.156c-0.234,0.078-0.391,0.234-0.391,0.471
		c0,0.234,0.234,0.391,0.623,0.469c1.017,0.235,1.017,0.235,1.017,0.235c0.469,0.156,0.781,0.234,0.938,0.469
		c0.313,0.314,0.391,0.549,0.391,0.861c0,0.627-0.234,1.175-0.859,1.41c-0.156,0.234-0.547,0.234-1.017,0.234
		c-0.622,0-1.092-0.156-1.404-0.392C36.398,38.48,36.164,38.089,36.164,37.462"/>
</g>
</svg>
