<?xml version="1.0" encoding="utf-8"?>
<!DOCTYPE svg PUBLIC "-//W3C//DTD SVG 1.1//EN" "http://www.w3.org/Graphics/SVG/1.1/DTD/svg11.dtd">
<svg version="1.1" xmlns="http://www.w3.org/2000/svg" xmlns:xlink="http://www.w3.org/1999/xlink" width="70" height="46" viewBox="0 0 70 46">
<g>
	<path fill-rule="evenodd" clip-rule="evenodd" fill="#4F62A5" d="M10.912,30.712c0,0-11.055-0.992-9.815-12.083
		C2.373,7.291,18.424,6.901,18.424,6.901s2.87-6.803,17.398-6.271c15.129,0.496,16.121,7.051,16.121,7.051
		s16.902-1.807,17.045,13.712c0.035,12.295-13.713,12.65-13.713,12.65s-5.279,10.665-26.15,4.252c0,0-8.079,5.953-14.598,7.725
		c0,0,3.331-3.366,4.216-7.796C18.743,38.224,11.975,38.472,10.912,30.712L10.912,30.712"/>
	<polygon fill-rule="evenodd" clip-rule="evenodd" fill="#FFFFFF" points="14.03,23.342 14.03,15.405 15.164,15.405 15.164,23.342 
		14.03,23.342 14.03,23.342 14.03,23.342 	"/>
	<path fill-rule="evenodd" clip-rule="evenodd" fill="#FFFFFF" d="M16.865,23.342c0-5.457,0-5.457,0-5.457c1.488,0,1.488,0,1.488,0
		c0,0.708,0,0.708,0,0.708c0.46-0.602,1.205-0.921,2.055-0.921c0.744,0,1.275,0.248,1.594,0.673
		c0.354,0.354,0.532,0.886,0.532,1.559c0,3.437,0,3.437,0,3.437c-1.595,0-1.595,0-1.595,0c0-2.905,0-2.905,0-2.905
		c0-0.531-0.071-0.851-0.106-1.063c-0.213-0.354-0.496-0.567-0.957-0.567c-0.46,0-0.85,0.248-1.134,0.603
		c-0.177,0.354-0.248,0.779-0.248,1.275c0,2.657,0,2.657,0,2.657C16.865,23.342,16.865,23.342,16.865,23.342L16.865,23.342"/>
	<path fill-rule="evenodd" clip-rule="evenodd" fill="#FFFFFF" d="M24.376,21.925c0-3.083,0-3.083,0-3.083c-1.275,0-1.275,0-1.275,0
		c0-1.098,0-1.098,0-1.098c1.275,0,1.275,0,1.275,0c0-1.24,0-1.24,0-1.24c1.666-0.531,1.666-0.531,1.666-0.531
		c0,1.771,0,1.771,0,1.771c1.488,0,1.488,0,1.488,0c0,1.098,0,1.098,0,1.098c-1.488,0-1.488,0-1.488,0c0,2.799,0,2.799,0,2.799
		c0,0.709,0.212,1.063,0.779,1.063c0.354,0,0.567-0.071,0.744-0.212c0.071,1.24,0.071,1.24,0.071,1.24
		c-0.319,0.141-0.744,0.177-1.24,0.177c-0.638,0-1.169-0.177-1.524-0.496C24.519,23.023,24.376,22.563,24.376,21.925L24.376,21.925"
		/>
	<path fill-rule="evenodd" clip-rule="evenodd" fill="#FFFFFF" d="M33.448,22.208c0,1.205,0,1.205,0,1.205
		c-0.603,0.319-1.311,0.496-2.091,0.496c-0.992,0-1.771-0.319-2.338-0.815c-0.532-0.496-0.815-1.275-0.815-2.303
		c0-0.886,0.212-1.559,0.673-2.162c0.532-0.638,1.24-0.957,2.162-0.957c1.027,0,1.807,0.39,2.268,1.098
		c0.39,0.567,0.567,1.417,0.567,2.551c-4.146,0-4.146,0-4.146,0c0,0.425,0.177,0.815,0.496,1.063c0.284,0.284,0.744,0.39,1.205,0.39
		C31.995,22.775,32.704,22.598,33.448,22.208L33.448,22.208L33.448,22.208z M29.727,20.224c2.658,0,2.658,0,2.658,0
		c-0.071-0.957-0.532-1.382-1.311-1.382C30.223,18.842,29.798,19.267,29.727,20.224L29.727,20.224L29.727,20.224z"/>
	<path fill-rule="evenodd" clip-rule="evenodd" fill="#FFFFFF" d="M35.007,23.342c0-5.457,0-5.457,0-5.457c1.381,0,1.381,0,1.381,0
		c0,1.24,0,1.24,0,1.24c0.07-0.354,0.248-0.708,0.566-1.027c0.285-0.213,0.674-0.425,1.029-0.425c0.176,0,0.318,0.071,0.424,0.071
		c0,1.453,0,1.453,0,1.453c-0.105-0.071-0.354-0.142-0.672-0.142c-0.496,0-0.852,0.319-1.029,0.851
		c-0.141,0.354-0.211,0.815-0.211,1.417c0,2.02,0,2.02,0,2.02C35.007,23.342,35.007,23.342,35.007,23.342L35.007,23.342"/>
	<path fill-rule="evenodd" clip-rule="evenodd" fill="#FFFFFF" d="M39.542,23.342c0-5.457,0-5.457,0-5.457c1.381,0,1.381,0,1.381,0
		c0,0.708,0,0.708,0,0.708c0.426-0.602,1.027-0.921,1.809-0.921c0.672,0,1.133,0.248,1.523,0.673
		c0.283,0.354,0.389,0.886,0.389,1.559c0,3.437,0,3.437,0,3.437c-1.416,0-1.416,0-1.416,0c0-2.905,0-2.905,0-2.905
		c0-0.531-0.072-0.851-0.143-1.063c-0.105-0.354-0.391-0.567-0.814-0.567c-0.426,0-0.779,0.248-0.957,0.603
		c-0.178,0.354-0.318,0.779-0.318,1.275c0,2.657,0,2.657,0,2.657C39.542,23.342,39.542,23.342,39.542,23.342L39.542,23.342"/>
	<path fill-rule="evenodd" clip-rule="evenodd" fill="#FFFFFF" d="M51.023,22.208c0,1.205,0,1.205,0,1.205
		c-0.604,0.319-1.24,0.496-2.092,0.496c-0.992,0-1.771-0.319-2.303-0.815c-0.566-0.496-0.85-1.275-0.85-2.303
		c0-0.886,0.213-1.559,0.672-2.162c0.533-0.638,1.24-0.957,2.162-0.957c1.027,0,1.807,0.39,2.268,1.098
		c0.391,0.567,0.566,1.417,0.566,2.551c-4.145,0-4.145,0-4.145,0c0,0.425,0.178,0.815,0.496,1.063
		c0.354,0.284,0.744,0.39,1.205,0.39C49.64,22.775,50.279,22.598,51.023,22.208L51.023,22.208L51.023,22.208z M47.302,20.224
		c2.656,0,2.656,0,2.656,0c-0.07-0.957-0.459-1.382-1.311-1.382C47.798,18.842,47.373,19.267,47.302,20.224L47.302,20.224
		L47.302,20.224z"/>
	<path fill-rule="evenodd" clip-rule="evenodd" fill="#FFFFFF" d="M53.113,21.925c0-3.083,0-3.083,0-3.083c-1.098,0-1.098,0-1.098,0
		c0-1.098,0-1.098,0-1.098c1.098,0,1.098,0,1.098,0c0-1.24,0-1.24,0-1.24c1.488-0.531,1.488-0.531,1.488-0.531
		c0,1.771,0,1.771,0,1.771c1.346,0,1.346,0,1.346,0c0,1.098,0,1.098,0,1.098c-1.346,0-1.346,0-1.346,0c0,2.799,0,2.799,0,2.799
		c0,0.709,0.248,1.063,0.744,1.063c0.213,0,0.461-0.071,0.639-0.212c0,1.24,0,1.24,0,1.24c-0.285,0.141-0.639,0.177-1.1,0.177
		c-0.531,0-0.957-0.177-1.275-0.496C53.326,23.023,53.113,22.563,53.113,21.925L53.113,21.925"/>
</g>
</svg>
