<?xml version="1.0" encoding="iso-8859-1"?>
<!DOCTYPE svg PUBLIC "-//W3C//DTD SVG 1.1//EN" "http://www.w3.org/Graphics/SVG/1.1/DTD/svg11.dtd">
<svg version="1.1" xmlns="http://www.w3.org/2000/svg" xmlns:xlink="http://www.w3.org/1999/xlink" width="56" height="42" viewBox="0 0 56 42">
<g>
	<polygon fill-rule="evenodd" clip-rule="evenodd" fill="#262C64" points="55.617,11.902 55.617,20.503 48.264,36.706 
		48.341,28.028 55.617,11.902 	"/>
	<polygon fill-rule="evenodd" clip-rule="evenodd" fill="#293476" points="48.494,28.104 48.417,36.706 20.455,41.005 
		20.455,32.405 48.494,28.104 	"/>
	<polygon fill-rule="evenodd" clip-rule="evenodd" fill="#37468B" points="20.455,32.328 20.455,41.005 0,29.104 0.153,20.503 
		20.455,32.328 	"/>
	<polygon fill-rule="evenodd" clip-rule="evenodd" fill="#4F62A5" points="55.617,11.826 48.341,28.028 20.455,32.405 0,20.58 
		7.355,4.377 35.163,0 55.617,11.826 	"/>
	<path fill-rule="evenodd" clip-rule="evenodd" fill="#262C64" d="M17.85,18.506c0.766,0.384,0.613,0.921-0.383,1.458
		c-2.451,1.383-2.451,1.383-2.451,1.383C14.02,20.81,14.02,20.81,14.02,20.81c2.528-1.382,2.528-1.382,2.528-1.382
		c0.459-0.308,0.536-0.461,0.229-0.691c-0.229-0.153-0.459-0.153-0.766-0.153c-0.306,0-0.536,0.077-0.689,0.23
		c-2.375,1.382-2.375,1.382-2.375,1.382c-0.996-0.537-0.996-0.537-0.996-0.537c2.528-1.459,2.528-1.459,2.528-1.459
		c0.46-0.23,0.537-0.46,0.153-0.615c-0.153-0.153-0.459-0.23-0.689-0.153c-0.306,0-0.536,0.077-0.766,0.23
		c-2.375,1.306-2.375,1.306-2.375,1.306c-0.919-0.46-0.919-0.46-0.919-0.46c3.218-1.92,3.218-1.92,3.218-1.92
		c0.307-0.077,0.46-0.23,0.613-0.383c0.996,0.538,0.996,0.538,0.996,0.538c-0.077,0.077-0.23,0.153-0.307,0.153
		c-0.153,0.077-0.229,0.154-0.306,0.23c0.689-0.153,1.226-0.077,1.686,0.23c0.459,0.23,0.613,0.461,0.383,0.845
		C16.854,18.123,17.467,18.199,17.85,18.506L17.85,18.506L17.85,18.506"/>
	<polygon fill-rule="evenodd" clip-rule="evenodd" fill="#262C64" points="24.745,22.576 19.918,24.188 18.846,23.652 
		21.145,21.578 17.391,22.806 16.395,22.192 19.229,19.504 20.225,19.965 17.85,22.115 21.527,20.81 22.523,21.348 20.225,23.42 
		23.902,22.115 24.745,22.576 	"/>
	<path fill-rule="evenodd" clip-rule="evenodd" fill="#262C64" d="M24.975,26.492c-0.153,0.153-0.383,0.231-0.613,0.384
		c-0.843-0.461-0.843-0.461-0.843-0.461c0.077-0.153,0.23-0.229,0.46-0.307c-0.077-0.077-0.077-0.077-0.077-0.077
		c-0.689,0.077-1.148,0-1.686-0.308c-0.306-0.153-0.536-0.307-0.536-0.615c0-0.23,0.23-0.46,0.536-0.613
		c0.537-0.308,1.149-0.384,1.839-0.308c0.459,0.077,0.996,0.308,1.609,0.691c0.229,0.077,0.229,0.077,0.229,0.077
		c0.153,0,0.153,0,0.153,0c0.536-0.383,0.536-0.614,0-0.844c-0.459-0.307-0.919-0.383-1.532-0.383
		c0.766-0.538,0.766-0.538,0.766-0.538c0.613,0.077,1.149,0.307,1.532,0.538c0.537,0.383,0.843,0.613,0.843,0.844
		c0,0.307-0.383,0.615-0.919,0.921C24.975,26.492,24.975,26.492,24.975,26.492L24.975,26.492L24.975,26.492L24.975,26.492z
		 M25.127,25.417c0.23-0.153,0.23-0.153,0.23-0.153c-0.077,0-0.077,0-0.077,0c-0.383-0.308-0.689-0.385-0.919-0.461
		c-0.536-0.153-0.843-0.077-1.149,0.153c-0.23,0-0.307,0.153-0.307,0.308c0,0.153,0.153,0.23,0.307,0.307
		C23.749,25.877,24.361,25.801,25.127,25.417L25.127,25.417z"/>
	<path fill-rule="evenodd" clip-rule="evenodd" fill="#262C64" d="M30.949,26.108c0.153,0.077,0.153,0.077,0.153,0.077
		c-0.841,0.46-0.841,0.46-0.841,0.46c-0.077,0-0.153-0.077-0.307-0.153c-0.46-0.307-1.073-0.307-1.686,0.153
		c-2.145,1.229-2.145,1.229-2.145,1.229c-0.919-0.615-0.919-0.615-0.919-0.615c3.218-1.842,3.218-1.842,3.218-1.842
		c0.23-0.23,0.537-0.308,0.613-0.385c0.843,0.461,0.843,0.461,0.843,0.461c-0.077,0.077-0.153,0.153-0.383,0.23
		c-0.077,0.077-0.23,0.153-0.306,0.231C29.955,25.724,30.491,25.801,30.949,26.108L30.949,26.108L30.949,26.108"/>
	<path fill-rule="evenodd" clip-rule="evenodd" fill="#262C64" d="M32.789,29.487c-0.153,0.153-0.153,0.153-0.153,0.153
		c-2.298-1.305-2.298-1.305-2.298-1.305c-0.613,0.383-0.69,0.768-0.077,1.151c0.46,0.23,0.918,0.385,1.378,0.385
		c-0.69,0.46-0.69,0.46-0.69,0.46c-0.611-0.077-1.071-0.307-1.454-0.537c-0.613-0.308-0.843-0.691-0.766-1.076
		c0.077-0.307,0.307-0.691,0.919-0.998c0.613-0.308,1.147-0.538,1.761-0.615c0.69-0.077,1.38,0,1.917,0.385
		C34.396,28.028,34.167,28.719,32.789,29.487L32.789,29.487L32.789,29.487L32.789,29.487z M30.949,28.028
		c1.38,0.691,1.38,0.691,1.38,0.691c0.69-0.383,0.767-0.691,0.383-0.844c-0.23-0.23-0.613-0.23-0.92-0.153
		S31.179,27.875,30.949,28.028L30.949,28.028z"/>
	<path fill-rule="evenodd" clip-rule="evenodd" fill="#262C64" d="M25.127,2.841c-1.379-0.998-1.379-0.998-1.379-0.998
		c-0.766,0.46-3.217,2.764-5.286,5.375c1.073-0.23,1.992-0.46,3.064-0.768C23.136,4.607,24.668,3.071,25.127,2.841L25.127,2.841z
		 M17.314,13.898c0,0-0.077-0.077-0.077-0.46c0-1.229,1.302-3.225,2.834-5.298c-0.996,0.307-1.992,0.538-2.911,0.845
		c-1.149,1.613-1.992,3.148-2.145,4.3c-0.077,0.614,0.229,1.152,0.766,1.459c1.532,0.845,4.597,0.307,9.193-0.999
		c0.383-0.537,0.843-1.075,1.379-1.612c0.077-0.077,0.153-0.154,0.153-0.23C23.595,12.747,18.157,14.283,17.314,13.898
		L17.314,13.898z M37.538,10.674c0,0,0.46,0.307-0.613,1.996c-0.688,1.075-1.761,2.304-2.911,3.533
		c0.46-0.154,0.92-0.23,1.304-0.384c0.613-0.23,1.303-0.383,1.991-0.614c2.3-2.688,3.294-4.53,1.763-5.375
		c-0.077,0-0.077,0-0.153-0.077c-1.533-0.768-4.521-0.154-9.116,1.152c-0.46,0.614-0.996,1.152-1.533,1.766
		c-0.077,0.077-0.077,0.077-0.153,0.154C31.025,11.979,36.62,10.29,37.538,10.674L37.538,10.674z M31.792,22.346
		c-0.153-0.614,2.067-3.226,3.601-4.915c0.077-0.077,0.153-0.23,0.307-0.307c-1.15,0.307-2.221,0.691-3.218,0.921
		c-2.451,2.841-3.601,4.377-2.221,5.145c0,0,0,0,0,0.077c1.531,0.691,5.516,0.077,9.577-0.998c0.611-0.538,1.147-1.152,1.684-1.766
		c0,0-0.077,0-0.153,0C34.167,22.576,32.176,22.422,31.792,22.346L31.792,22.346z M50.639,17.431
		c-0.384,0.23-2.758,1.075-5.899,2.073c-0.537,0.614-1.073,1.306-1.61,1.844c4.598-1.306,8.735-2.842,9.04-3.072
		C50.639,17.431,50.639,17.431,50.639,17.431L50.639,17.431z"/>
	<path fill-rule="evenodd" clip-rule="evenodd" fill="#FFFFFF" d="M17.85,17.815c0.766,0.46,0.613,0.921-0.383,1.459
		c-2.451,1.459-2.451,1.459-2.451,1.459c-0.996-0.615-0.996-0.615-0.996-0.615c2.528-1.306,2.528-1.306,2.528-1.306
		c0.459-0.307,0.536-0.537,0.229-0.69c-0.229-0.154-0.459-0.23-0.766-0.154c-0.306,0-0.536,0.154-0.689,0.23
		c-2.375,1.305-2.375,1.305-2.375,1.305c-0.996-0.538-0.996-0.538-0.996-0.538c2.528-1.382,2.528-1.382,2.528-1.382
		c0.46-0.23,0.537-0.46,0.153-0.614c-0.153-0.154-0.459-0.23-0.689-0.154c-0.306,0-0.536,0.077-0.766,0.23
		c-2.375,1.305-2.375,1.305-2.375,1.305c-0.919-0.537-0.919-0.537-0.919-0.537c3.218-1.843,3.218-1.843,3.218-1.843
		c0.307-0.077,0.46-0.23,0.613-0.384c0.996,0.614,0.996,0.614,0.996,0.614c-0.077,0-0.23,0-0.307,0.077
		c-0.153,0.153-0.229,0.23-0.306,0.23c0.689-0.153,1.226-0.077,1.686,0.154c0.459,0.307,0.613,0.614,0.383,0.921
		C16.854,17.508,17.467,17.584,17.85,17.815L17.85,17.815L17.85,17.815"/>
	<polygon fill-rule="evenodd" clip-rule="evenodd" fill="#FFFFFF" points="24.745,21.885 19.918,23.574 18.846,22.96 21.145,20.81 
		17.391,22.192 16.395,21.655 19.229,18.66 20.225,19.274 17.85,21.425 21.527,20.042 22.523,20.657 20.225,22.806 23.902,21.425 
		24.745,21.885 	"/>
	<path fill-rule="evenodd" clip-rule="evenodd" fill="#FFFFFF" d="M24.975,25.877c-0.153,0.078-0.383,0.231-0.613,0.384
		c-0.843-0.461-0.843-0.461-0.843-0.461c0.077-0.077,0.23-0.23,0.46-0.307c-0.077,0-0.077,0-0.077,0
		c-0.689,0-1.148-0.077-1.686-0.385c-0.306-0.153-0.536-0.383-0.536-0.613c0-0.308,0.23-0.461,0.536-0.691
		c0.537-0.308,1.149-0.385,1.839-0.231c0.459,0.078,0.996,0.308,1.609,0.615c0.229,0.153,0.229,0.153,0.229,0.153
		c0.153-0.077,0.153-0.077,0.153-0.077c0.536-0.307,0.536-0.613,0-0.845c-0.459-0.23-0.919-0.383-1.532-0.383
		c0.766-0.461,0.766-0.461,0.766-0.461c0.613,0.154,1.149,0.23,1.532,0.538c0.537,0.307,0.843,0.538,0.843,0.845
		c0,0.23-0.383,0.614-0.919,0.921C24.975,25.877,24.975,25.877,24.975,25.877L24.975,25.877L24.975,25.877L24.975,25.877z
		 M25.127,24.726c0.23-0.153,0.23-0.153,0.23-0.153c-0.077,0-0.077,0-0.077,0c-0.383-0.231-0.689-0.384-0.919-0.461
		c-0.536,0-0.843,0-1.149,0.153c-0.23,0.077-0.307,0.231-0.307,0.308c0,0.153,0.153,0.307,0.307,0.383
		C23.749,25.264,24.361,25.188,25.127,24.726L25.127,24.726z"/>
	<path fill-rule="evenodd" clip-rule="evenodd" fill="#FFFFFF" d="M30.949,25.494c0.153,0.077,0.153,0.077,0.153,0.077
		c-0.841,0.461-0.841,0.461-0.841,0.461c-0.077,0-0.153-0.077-0.307-0.077c-0.46-0.384-1.073-0.384-1.686,0.077
		c-2.145,1.228-2.145,1.228-2.145,1.228c-0.919-0.537-0.919-0.537-0.919-0.537c3.218-1.92,3.218-1.92,3.218-1.92
		c0.23-0.153,0.537-0.23,0.613-0.383c0.843,0.46,0.843,0.46,0.843,0.46c-0.077,0.077-0.153,0.153-0.383,0.23
		c-0.077,0.078-0.23,0.155-0.306,0.231C29.955,25.109,30.491,25.188,30.949,25.494L30.949,25.494L30.949,25.494"/>
	<path fill-rule="evenodd" clip-rule="evenodd" fill="#FFFFFF" d="M32.789,28.872c-0.153,0.155-0.153,0.155-0.153,0.155
		c-2.298-1.306-2.298-1.306-2.298-1.306c-0.613,0.383-0.69,0.768-0.077,1.151c0.46,0.308,0.918,0.385,1.378,0.385
		c-0.69,0.46-0.69,0.46-0.69,0.46c-0.611-0.077-1.071-0.23-1.454-0.537c-0.613-0.308-0.843-0.615-0.766-1.076
		c0.077-0.307,0.307-0.691,0.919-0.998c0.613-0.307,1.147-0.538,1.761-0.614c0.69-0.077,1.38,0.076,1.917,0.384
		C34.396,27.413,34.167,28.104,32.789,28.872L32.789,28.872L32.789,28.872L32.789,28.872z M30.949,27.413
		c1.38,0.768,1.38,0.768,1.38,0.768c0.69-0.46,0.767-0.69,0.383-0.921c-0.23-0.153-0.613-0.23-0.92-0.153
		S31.179,27.26,30.949,27.413L30.949,27.413z"/>
	<path fill-rule="evenodd" clip-rule="evenodd" fill="#FFFFFF" d="M25.127,2.227c-1.379-0.999-1.379-0.999-1.379-0.999
		c-0.766,0.46-3.217,2.764-5.286,5.375c1.073-0.23,1.992-0.537,3.064-0.768C23.136,3.993,24.668,2.457,25.127,2.227L25.127,2.227z
		 M17.314,13.285c0,0-0.077-0.077-0.077-0.538c0-1.152,1.302-3.225,2.834-5.221c-0.996,0.23-1.992,0.614-2.911,0.845
		c-1.149,1.612-1.992,3.148-2.145,4.223c-0.077,0.768,0.229,1.229,0.766,1.536c1.532,0.921,4.597,0.231,9.193-1.075
		c0.383-0.461,0.843-0.998,1.379-1.536c0.077-0.077,0.153-0.23,0.153-0.23C23.595,12.133,18.157,13.668,17.314,13.285L17.314,13.285
		z M37.538,10.059c0,0,0.46,0.307-0.613,1.997c-0.688,0.998-1.761,2.227-2.911,3.532c0.46-0.153,0.92-0.307,1.304-0.461
		c0.613-0.154,1.303-0.384,1.991-0.538c2.3-2.688,3.294-4.531,1.763-5.375c-0.077-0.077-0.077-0.077-0.153-0.077
		c-1.533-0.768-4.521-0.077-9.116,1.229c-0.46,0.461-0.996,1.075-1.533,1.69c-0.077,0.077-0.077,0.077-0.153,0.077
		C31.025,11.288,36.62,9.675,37.538,10.059L37.538,10.059z M31.792,21.655c-0.153-0.615,2.067-3.148,3.601-4.838
		c0.077-0.153,0.153-0.231,0.307-0.308c-1.15,0.308-2.221,0.615-3.218,0.845c-2.451,2.841-3.601,4.377-2.221,5.145c0,0,0,0,0,0.077
		c1.531,0.768,5.516,0.077,9.577-0.921c0.611-0.615,1.147-1.229,1.684-1.843c0,0-0.077,0.077-0.153,0.077
		C34.167,21.885,32.176,21.731,31.792,21.655L31.792,21.655z M50.639,16.817c-0.384,0.154-2.758,0.999-5.899,2.074
		c-0.537,0.614-1.073,1.228-1.61,1.843c4.598-1.382,8.735-2.918,9.04-3.072C50.639,16.817,50.639,16.817,50.639,16.817
		L50.639,16.817z"/>
	<path fill-rule="evenodd" clip-rule="evenodd" fill="#262C64" d="M46.194,13.976c0.077,0,0.077,0,0.077,0
		c1.38,0.845,0.307,3.148-1.607,5.529c-0.537,0.614-0.997,1.306-1.533,1.92c-2.375,2.687-4.979,5.067-5.362,5.221
		c-1.454-0.921-1.454-0.921-1.454-0.921c0.307-0.153,1.837-1.536,3.524-3.378c0.611-0.614,1.147-1.229,1.607-1.843
		c0.077,0,0.077-0.077,0.153-0.077c3.524-4.147,3.294-5.376,3.141-5.529c-1.073-0.153-5.516,1.152-8.503,1.997
		c-0.153,0.077-0.383,0.154-0.537,0.23c-1.227,0.307-2.221,0.691-3.218,0.921c-4.827,1.306-7.891,1.919-9.423,1.075
		c-0.077-0.076-0.153-0.076-0.153-0.153c-1.302-0.844-0.229-2.534,2.069-5.222c0.383-0.537,0.843-1.075,1.379-1.612
		c0.077-0.154,0.153-0.23,0.153-0.23c1.532-1.766,4.214-4.915,3.601-5.452c0,0-0.23,0-0.919,0c-2.069,0-5.67,0.768-9.117,1.689
		c-0.996,0.23-1.992,0.538-2.911,0.845c-3.294,0.921-5.899,1.843-6.282,1.997C9.27,10.213,9.27,10.213,9.27,10.213
		c0.537-0.384,4.673-1.843,9.193-2.995c0.996-0.307,1.992-0.538,3.064-0.768c2.758-0.691,5.439-1.229,7.278-1.306
		c1.303,0,2.22,0.154,2.834,0.461c1.38,0.844,0.383,2.688-1.915,5.298c-0.384,0.537-0.919,1.152-1.456,1.766
		c-0.077,0.077-0.077,0.077-0.153,0.154c-1.456,1.612-4.213,4.837-3.601,5.375c0.077,0,0.536,0.307,3.371-0.384
		c1.839-0.384,4.06-0.999,6.127-1.613c0.383-0.154,0.843-0.23,1.304-0.384c0.613-0.23,1.303-0.383,1.914-0.614
		C42.135,13.822,44.893,13.208,46.194,13.976L46.194,13.976L46.194,13.976"/>
	<path fill-rule="evenodd" clip-rule="evenodd" fill="#37468B" d="M46.194,13.361c0.077,0,0.077,0,0.077,0
		c1.38,0.921,0.307,3.148-1.607,5.605c-0.537,0.538-0.997,1.229-1.533,1.843c-2.375,2.687-4.979,5.067-5.362,5.222
		c-1.454-0.922-1.454-0.922-1.454-0.922c0.307-0.153,1.837-1.536,3.524-3.378c0.611-0.615,1.147-1.229,1.607-1.843
		c0.077,0,0.077-0.077,0.153-0.077c3.524-4.146,3.294-5.375,3.141-5.529c-1.073-0.154-5.516,1.152-8.503,1.997
		c-0.153,0.077-0.383,0.153-0.537,0.23c-1.227,0.308-2.221,0.691-3.218,0.922c-4.827,1.305-7.891,1.92-9.423,1.075
		c-0.077-0.077-0.153-0.077-0.153-0.077c-1.302-0.921-0.229-2.611,2.069-5.298c0.383-0.538,0.843-1.075,1.379-1.613
		c0.077-0.077,0.153-0.23,0.153-0.23c1.532-1.766,4.214-4.915,3.601-5.375c0,0-0.23-0.077-0.919-0.077
		c-2.069,0-5.67,0.768-9.117,1.689c-0.996,0.23-1.992,0.537-2.911,0.845c-3.294,0.921-5.899,1.843-6.282,2.073
		C9.27,9.675,9.27,9.675,9.27,9.675c0.537-0.461,4.673-1.842,9.193-3.072c0.996-0.307,1.992-0.537,3.064-0.768
		c2.758-0.691,5.439-1.229,7.278-1.229c1.303-0.077,2.22,0.077,2.834,0.384c1.38,0.845,0.383,2.688-1.915,5.375
		c-0.384,0.461-0.919,1.075-1.456,1.69c-0.077,0.077-0.077,0.077-0.153,0.153c-1.456,1.612-4.213,4.838-3.601,5.375
		c0.077,0.077,0.536,0.308,3.371-0.384c1.839-0.384,4.06-0.921,6.127-1.612c0.383-0.153,0.843-0.231,1.304-0.384
		c0.613-0.23,1.303-0.384,1.914-0.614C42.135,13.208,44.893,12.593,46.194,13.361L46.194,13.361L46.194,13.361"/>
	<polygon fill-rule="evenodd" clip-rule="evenodd" fill="#262C64" points="55.617,11.902 55.617,20.503 48.264,36.706 
		48.341,28.028 55.617,11.902 	"/>
	<polygon fill-rule="evenodd" clip-rule="evenodd" fill="#293476" points="48.494,28.104 48.417,36.706 20.455,41.005 
		20.455,32.405 48.494,28.104 	"/>
	<polygon fill-rule="evenodd" clip-rule="evenodd" fill="#37468B" points="20.455,32.328 20.455,41.005 0,29.104 0.153,20.503 
		20.455,32.328 	"/>
	<polygon fill-rule="evenodd" clip-rule="evenodd" fill="#4F62A5" points="55.751,11.826 48.475,28.028 20.589,32.405 0.134,20.581 
		7.489,4.377 35.298,0 55.751,11.826 	"/>
	<path fill-rule="evenodd" clip-rule="evenodd" fill="#262C64" d="M14.643,16.973c0.766,0.384,0.613,0.921-0.383,1.458
		c-2.451,1.383-2.451,1.383-2.451,1.383c-0.996-0.538-0.996-0.538-0.996-0.538c2.528-1.383,2.528-1.383,2.528-1.383
		c0.459-0.307,0.536-0.46,0.229-0.691c-0.229-0.153-0.459-0.153-0.766-0.153c-0.306,0-0.536,0.077-0.689,0.23
		c-2.375,1.382-2.375,1.382-2.375,1.382c-0.995-0.537-0.995-0.537-0.995-0.537c2.527-1.459,2.527-1.459,2.527-1.459
		c0.46-0.23,0.537-0.46,0.153-0.614c-0.153-0.153-0.459-0.23-0.689-0.153c-0.306,0-0.536,0.077-0.766,0.23
		c-2.375,1.306-2.375,1.306-2.375,1.306c-0.919-0.46-0.919-0.46-0.919-0.46c3.217-1.92,3.217-1.92,3.217-1.92
		c0.307-0.077,0.46-0.23,0.613-0.383c0.996,0.537,0.996,0.537,0.996,0.537c-0.077,0.077-0.23,0.153-0.307,0.153
		c-0.152,0.077-0.229,0.154-0.306,0.23c0.689-0.153,1.226-0.076,1.686,0.231c0.459,0.23,0.613,0.46,0.383,0.844
		C13.646,16.588,14.259,16.665,14.643,16.973L14.643,16.973L14.643,16.973"/>
	<polygon fill-rule="evenodd" clip-rule="evenodd" fill="#262C64" points="21.538,21.042 16.711,22.654 15.639,22.118 
		17.937,20.044 14.183,21.272 13.187,20.659 16.021,17.97 17.018,18.431 14.643,20.581 18.32,19.276 19.316,19.814 17.018,21.887 
		20.695,20.581 21.538,21.042 	"/>
	<path fill-rule="evenodd" clip-rule="evenodd" fill="#262C64" d="M21.768,24.958c-0.153,0.153-0.383,0.231-0.613,0.385
		c-0.843-0.461-0.843-0.461-0.843-0.461c0.077-0.153,0.23-0.23,0.46-0.307c-0.077-0.077-0.077-0.077-0.077-0.077
		c-0.689,0.077-1.149,0-1.686-0.308c-0.306-0.154-0.536-0.307-0.536-0.615c0-0.23,0.23-0.46,0.536-0.613
		c0.537-0.308,1.149-0.385,1.839-0.308c0.459,0.077,0.996,0.308,1.609,0.691c0.229,0.077,0.229,0.077,0.229,0.077
		c0.153,0,0.153,0,0.153,0c0.536-0.383,0.536-0.615,0-0.845c-0.459-0.307-0.919-0.383-1.532-0.383
		c0.766-0.538,0.766-0.538,0.766-0.538c0.613,0.077,1.149,0.307,1.532,0.538c0.537,0.383,0.843,0.613,0.843,0.845
		c0,0.307-0.383,0.614-0.92,0.921C21.768,24.958,21.768,24.958,21.768,24.958L21.768,24.958L21.768,24.958L21.768,24.958z
		 M21.92,23.883c0.23-0.153,0.23-0.153,0.23-0.153c-0.077,0-0.077,0-0.077,0c-0.383-0.308-0.689-0.384-0.919-0.461
		c-0.536-0.153-0.843-0.077-1.149,0.153c-0.23,0-0.307,0.153-0.307,0.308c0,0.153,0.153,0.23,0.307,0.307
		C20.542,24.344,21.154,24.267,21.92,23.883L21.92,23.883z"/>
	<path fill-rule="evenodd" clip-rule="evenodd" fill="#262C64" d="M27.742,24.575c0.153,0.077,0.153,0.077,0.153,0.077
		c-0.841,0.46-0.841,0.46-0.841,0.46c-0.077,0-0.153-0.077-0.307-0.153c-0.46-0.307-1.073-0.307-1.687,0.153
		c-2.145,1.229-2.145,1.229-2.145,1.229c-0.919-0.614-0.919-0.614-0.919-0.614c3.217-1.843,3.217-1.843,3.217-1.843
		c0.23-0.23,0.537-0.308,0.613-0.384c0.843,0.461,0.843,0.461,0.843,0.461c-0.077,0.077-0.153,0.153-0.383,0.23
		c-0.078,0.076-0.231,0.153-0.306,0.231C26.748,24.19,27.284,24.267,27.742,24.575L27.742,24.575L27.742,24.575"/>
	<path fill-rule="evenodd" clip-rule="evenodd" fill="#262C64" d="M29.582,27.953c-0.153,0.153-0.153,0.153-0.153,0.153
		c-2.297-1.305-2.297-1.305-2.297-1.305c-0.613,0.383-0.69,0.768-0.077,1.151c0.46,0.23,0.917,0.384,1.377,0.384
		c-0.69,0.46-0.69,0.46-0.69,0.46c-0.611-0.077-1.071-0.307-1.454-0.537c-0.613-0.308-0.843-0.691-0.767-1.076
		c0.077-0.307,0.307-0.691,0.92-0.998c0.613-0.308,1.147-0.538,1.761-0.614c0.69-0.077,1.38,0,1.917,0.384
		C31.189,26.494,30.959,27.185,29.582,27.953L29.582,27.953L29.582,27.953L29.582,27.953z M27.742,26.494
		c1.38,0.691,1.38,0.691,1.38,0.691c0.69-0.383,0.767-0.691,0.383-0.845c-0.23-0.23-0.613-0.23-0.92-0.153
		S27.972,26.34,27.742,26.494L27.742,26.494z"/>
	<path fill-rule="evenodd" clip-rule="evenodd" fill="#262C64" d="M25.127,2.841c-1.379-0.998-1.379-0.998-1.379-0.998
		c-0.766,0.46-3.217,2.764-5.286,5.375c1.073-0.23,1.992-0.46,3.064-0.768C23.136,4.607,24.668,3.071,25.127,2.841L25.127,2.841z
		 M17.314,13.898c0,0-0.077-0.077-0.077-0.46c0-1.229,1.302-3.225,2.834-5.298c-0.996,0.307-1.992,0.538-2.911,0.845
		c-1.149,1.613-1.992,3.148-2.145,4.3c-0.077,0.614,0.229,1.152,0.766,1.459c1.532,0.845,4.597,0.307,9.193-0.999
		c0.383-0.537,0.843-1.075,1.379-1.612c0.077-0.077,0.153-0.154,0.153-0.23C23.595,12.747,18.157,14.283,17.314,13.898
		L17.314,13.898z M37.538,10.674c0,0,0.46,0.307-0.613,1.996c-0.688,1.075-1.761,2.304-2.911,3.533
		c0.46-0.154,0.92-0.23,1.304-0.384c0.613-0.23,1.303-0.383,1.991-0.614c2.3-2.688,3.294-4.53,1.763-5.375
		c-0.077,0-0.077,0-0.153-0.077c-1.533-0.768-4.521-0.154-9.116,1.152c-0.46,0.614-0.996,1.152-1.533,1.766
		c-0.077,0.077-0.077,0.077-0.153,0.154C31.025,11.979,36.62,10.29,37.538,10.674L37.538,10.674z M31.792,22.346
		c-0.153-0.614,2.067-3.226,3.601-4.915c0.077-0.077,0.153-0.23,0.307-0.307c-1.15,0.307-2.221,0.691-3.218,0.921
		c-2.451,2.841-3.601,4.377-2.221,5.145c0,0,0,0,0,0.077c1.531,0.691,5.516,0.077,9.577-0.998c0.611-0.538,1.147-1.152,1.684-1.766
		c0,0-0.077,0-0.153,0C34.167,22.576,32.176,22.422,31.792,22.346L31.792,22.346z M50.639,17.431
		c-0.384,0.23-2.758,1.075-5.899,2.073c-0.537,0.614-1.073,1.306-1.61,1.844c4.598-1.306,8.735-2.842,9.04-3.072
		C50.639,17.431,50.639,17.431,50.639,17.431L50.639,17.431z"/>
	<path fill-rule="evenodd" clip-rule="evenodd" fill="#FFFFFF" d="M14.643,16.281c0.766,0.461,0.613,0.921-0.383,1.459
		C11.808,19.2,11.808,19.2,11.808,19.2c-0.996-0.615-0.996-0.615-0.996-0.615c2.528-1.306,2.528-1.306,2.528-1.306
		c0.459-0.307,0.536-0.537,0.229-0.691c-0.229-0.154-0.459-0.23-0.766-0.154c-0.306,0-0.536,0.154-0.689,0.23
		C9.739,17.97,9.739,17.97,9.739,17.97c-0.995-0.537-0.995-0.537-0.995-0.537c2.527-1.382,2.527-1.382,2.527-1.382
		c0.46-0.23,0.537-0.461,0.153-0.614c-0.153-0.154-0.459-0.23-0.689-0.154c-0.306,0-0.536,0.077-0.766,0.231
		c-2.375,1.305-2.375,1.305-2.375,1.305c-0.919-0.537-0.919-0.537-0.919-0.537c3.217-1.843,3.217-1.843,3.217-1.843
		c0.307-0.077,0.46-0.231,0.613-0.384c0.996,0.615,0.996,0.615,0.996,0.615c-0.077,0-0.23,0-0.307,0.077
		c-0.152,0.153-0.229,0.23-0.306,0.23c0.689-0.153,1.226-0.077,1.686,0.154c0.459,0.307,0.613,0.614,0.383,0.921
		C13.646,15.974,14.259,16.051,14.643,16.281L14.643,16.281L14.643,16.281"/>
	<polygon fill-rule="evenodd" clip-rule="evenodd" fill="#FFFFFF" points="21.538,20.351 16.711,22.04 15.639,21.426 17.937,19.276 
		14.183,20.659 13.187,20.121 16.021,17.126 17.018,17.74 14.643,19.891 18.32,18.508 19.316,19.123 17.018,21.272 20.695,19.891 
		21.538,20.351 	"/>
	<path fill-rule="evenodd" clip-rule="evenodd" fill="#FFFFFF" d="M21.768,24.344c-0.153,0.078-0.383,0.231-0.613,0.384
		c-0.843-0.461-0.843-0.461-0.843-0.461c0.077-0.076,0.23-0.23,0.46-0.307c-0.077,0-0.077,0-0.077,0
		c-0.689,0-1.149-0.077-1.686-0.384c-0.306-0.153-0.536-0.383-0.536-0.613c0-0.308,0.23-0.461,0.536-0.691
		c0.537-0.308,1.149-0.384,1.839-0.231c0.459,0.078,0.996,0.308,1.609,0.614c0.229,0.153,0.229,0.153,0.229,0.153
		c0.153-0.077,0.153-0.077,0.153-0.077c0.536-0.307,0.536-0.613,0-0.844c-0.459-0.23-0.919-0.384-1.532-0.384
		c0.766-0.461,0.766-0.461,0.766-0.461c0.613,0.153,1.149,0.23,1.532,0.538c0.537,0.307,0.843,0.538,0.843,0.845
		c0,0.23-0.383,0.615-0.92,0.921C21.768,24.344,21.768,24.344,21.768,24.344L21.768,24.344L21.768,24.344L21.768,24.344z
		 M21.92,23.192c0.23-0.153,0.23-0.153,0.23-0.153c-0.077,0-0.077,0-0.077,0c-0.383-0.231-0.689-0.385-0.919-0.461
		c-0.536,0-0.843,0-1.149,0.153c-0.23,0.077-0.307,0.231-0.307,0.308c0,0.153,0.153,0.307,0.307,0.383
		C20.542,23.73,21.154,23.653,21.92,23.192L21.92,23.192z"/>
	<path fill-rule="evenodd" clip-rule="evenodd" fill="#FFFFFF" d="M27.742,23.96c0.153,0.077,0.153,0.077,0.153,0.077
		c-0.841,0.461-0.841,0.461-0.841,0.461c-0.077,0-0.153-0.077-0.307-0.077c-0.46-0.385-1.073-0.385-1.687,0.077
		c-2.145,1.228-2.145,1.228-2.145,1.228c-0.919-0.537-0.919-0.537-0.919-0.537c3.217-1.92,3.217-1.92,3.217-1.92
		c0.23-0.153,0.537-0.23,0.613-0.383c0.843,0.46,0.843,0.46,0.843,0.46c-0.077,0.077-0.153,0.153-0.383,0.23
		c-0.078,0.078-0.231,0.154-0.306,0.231C26.748,23.576,27.284,23.653,27.742,23.96L27.742,23.96L27.742,23.96"/>
	<path fill-rule="evenodd" clip-rule="evenodd" fill="#FFFFFF" d="M29.582,27.338c-0.153,0.154-0.153,0.154-0.153,0.154
		c-2.297-1.306-2.297-1.306-2.297-1.306c-0.613,0.383-0.69,0.768-0.077,1.151c0.46,0.308,0.917,0.384,1.377,0.384
		c-0.69,0.46-0.69,0.46-0.69,0.46c-0.611-0.077-1.071-0.23-1.454-0.537c-0.613-0.308-0.843-0.615-0.767-1.076
		c0.077-0.307,0.307-0.691,0.92-0.998s1.147-0.538,1.761-0.615c0.69-0.077,1.38,0.077,1.917,0.385
		C31.189,25.879,30.959,26.57,29.582,27.338L29.582,27.338L29.582,27.338L29.582,27.338z M27.742,25.879
		c1.38,0.768,1.38,0.768,1.38,0.768c0.69-0.46,0.767-0.69,0.383-0.921c-0.23-0.153-0.613-0.23-0.92-0.153
		S27.972,25.726,27.742,25.879L27.742,25.879z"/>
	<path fill-rule="evenodd" clip-rule="evenodd" fill="#FFFFFF" d="M25.127,2.227c-1.379-0.999-1.379-0.999-1.379-0.999
		c-0.766,0.46-3.217,2.764-5.286,5.375c1.073-0.23,1.992-0.537,3.064-0.768C23.136,3.993,24.668,2.457,25.127,2.227L25.127,2.227z
		 M17.314,13.285c0,0-0.077-0.077-0.077-0.538c0-1.152,1.302-3.225,2.834-5.221c-0.996,0.23-1.992,0.614-2.911,0.845
		c-1.149,1.612-1.992,3.148-2.145,4.223c-0.077,0.768,0.229,1.229,0.766,1.536c1.532,0.921,4.597,0.231,9.193-1.075
		c0.383-0.461,0.843-0.998,1.379-1.536c0.077-0.077,0.153-0.23,0.153-0.23C23.595,12.133,18.157,13.668,17.314,13.285L17.314,13.285
		z M37.538,10.059c0,0,0.46,0.307-0.613,1.997c-0.688,0.998-1.761,2.227-2.911,3.532c0.46-0.153,0.92-0.307,1.304-0.461
		c0.613-0.154,1.303-0.384,1.991-0.538c2.3-2.688,3.294-4.531,1.763-5.375c-0.077-0.077-0.077-0.077-0.153-0.077
		c-1.533-0.768-4.521-0.077-9.116,1.229c-0.46,0.461-0.996,1.075-1.533,1.69c-0.077,0.077-0.077,0.077-0.153,0.077
		C31.025,11.288,36.62,9.675,37.538,10.059L37.538,10.059z M31.792,21.655c-0.153-0.615,2.067-3.148,3.601-4.838
		c0.077-0.153,0.153-0.231,0.307-0.308c-1.15,0.308-2.221,0.615-3.218,0.845c-2.451,2.841-3.601,4.377-2.221,5.145c0,0,0,0,0,0.077
		c1.531,0.768,5.516,0.077,9.577-0.921c0.611-0.615,1.147-1.229,1.684-1.843c0,0-0.077,0.077-0.153,0.077
		C34.167,21.885,32.176,21.731,31.792,21.655L31.792,21.655z M50.639,16.817c-0.384,0.154-2.758,0.999-5.899,2.074
		c-0.537,0.614-1.073,1.228-1.61,1.843c4.598-1.382,8.735-2.918,9.04-3.072C50.639,16.817,50.639,16.817,50.639,16.817
		L50.639,16.817z"/>
	<path fill-rule="evenodd" clip-rule="evenodd" fill="#262C64" d="M46.194,13.976c0.077,0,0.077,0,0.077,0
		c1.38,0.845,0.307,3.148-1.607,5.529c-0.537,0.614-0.997,1.306-1.533,1.92c-2.375,2.687-4.979,5.067-5.362,5.221
		c-1.454-0.921-1.454-0.921-1.454-0.921c0.307-0.153,1.837-1.536,3.524-3.378c0.611-0.614,1.147-1.229,1.607-1.843
		c0.077,0,0.077-0.077,0.153-0.077c3.524-4.147,3.294-5.376,3.141-5.529c-1.073-0.153-5.516,1.152-8.503,1.997
		c-0.153,0.077-0.383,0.154-0.537,0.23c-1.227,0.307-2.221,0.691-3.218,0.921c-4.827,1.306-7.891,1.919-9.423,1.075
		c-0.077-0.076-0.153-0.076-0.153-0.153c-1.302-0.844-0.229-2.534,2.069-5.222c0.383-0.537,0.843-1.075,1.379-1.612
		c0.077-0.154,0.153-0.23,0.153-0.23c1.532-1.766,4.214-4.915,3.601-5.452c0,0-0.23,0-0.919,0c-2.069,0-5.67,0.768-9.117,1.689
		c-0.996,0.23-1.992,0.538-2.911,0.845c-3.294,0.921-5.899,1.843-6.282,1.997C9.27,10.213,9.27,10.213,9.27,10.213
		c0.537-0.384,4.673-1.843,9.193-2.995c0.996-0.307,1.992-0.538,3.064-0.768c2.758-0.691,5.439-1.229,7.278-1.306
		c1.303,0,2.22,0.154,2.834,0.461c1.38,0.844,0.383,2.688-1.915,5.298c-0.384,0.537-0.919,1.152-1.456,1.766
		c-0.077,0.077-0.077,0.077-0.153,0.154c-1.456,1.612-4.213,4.837-3.601,5.375c0.077,0,0.536,0.307,3.371-0.384
		c1.839-0.384,4.06-0.999,6.127-1.613c0.383-0.154,0.843-0.23,1.304-0.384c0.613-0.23,1.303-0.383,1.914-0.614
		C42.135,13.822,44.893,13.208,46.194,13.976L46.194,13.976L46.194,13.976"/>
	<path fill-rule="evenodd" clip-rule="evenodd" fill="#37468B" d="M46.194,13.361c0.077,0,0.077,0,0.077,0
		c1.38,0.921,0.307,3.148-1.607,5.605c-0.537,0.538-0.997,1.229-1.533,1.843c-2.375,2.687-4.979,5.067-5.362,5.222
		c-1.454-0.922-1.454-0.922-1.454-0.922c0.307-0.153,1.837-1.536,3.524-3.378c0.611-0.615,1.147-1.229,1.607-1.843
		c0.077,0,0.077-0.077,0.153-0.077c3.524-4.146,3.294-5.375,3.141-5.529c-1.073-0.154-5.516,1.152-8.503,1.997
		c-0.153,0.077-0.383,0.153-0.537,0.23c-1.227,0.308-2.221,0.691-3.218,0.922c-4.827,1.305-7.891,1.92-9.423,1.075
		c-0.077-0.077-0.153-0.077-0.153-0.077c-1.302-0.921-0.229-2.611,2.069-5.298c0.383-0.538,0.843-1.075,1.379-1.613
		c0.077-0.077,0.153-0.23,0.153-0.23c1.532-1.766,4.214-4.915,3.601-5.375c0,0-0.23-0.077-0.919-0.077
		c-2.069,0-5.67,0.768-9.117,1.689c-0.996,0.23-1.992,0.537-2.911,0.845c-3.294,0.921-5.899,1.843-6.282,2.073
		C9.27,9.675,9.27,9.675,9.27,9.675c0.537-0.461,4.673-1.842,9.193-3.072c0.996-0.307,1.992-0.537,3.064-0.768
		c2.758-0.691,5.439-1.229,7.278-1.229c1.303-0.077,2.22,0.077,2.834,0.384c1.38,0.845,0.383,2.688-1.915,5.375
		c-0.384,0.461-0.919,1.075-1.456,1.69c-0.077,0.077-0.077,0.077-0.153,0.153c-1.456,1.612-4.213,4.838-3.601,5.375
		c0.077,0.077,0.536,0.308,3.371-0.384c1.839-0.384,4.06-0.921,6.127-1.612c0.383-0.153,0.843-0.231,1.304-0.384
		c0.613-0.23,1.303-0.384,1.914-0.614C42.135,13.208,44.893,12.593,46.194,13.361L46.194,13.361L46.194,13.361"/>
</g>
</svg>
