<?xml version="1.0" encoding="iso-8859-1"?>
<!DOCTYPE svg PUBLIC "-//W3C//DTD SVG 1.1//EN" "http://www.w3.org/Graphics/SVG/1.1/DTD/svg11.dtd">
<svg version="1.1" xmlns="http://www.w3.org/2000/svg" xmlns:xlink="http://www.w3.org/1999/xlink" width="79" height="71" viewBox="0 0 79 71">
<g>
	<polygon style="fill-rule:evenodd;clip-rule:evenodd;fill:#384382;" points="25.502,13.187 21.349,10.569 20.866,7.757 
		25.165,10.424 25.502,13.187 25.502,13.187 25.502,13.187 25.502,13.187 	"/>
	<polygon style="fill-rule:evenodd;clip-rule:evenodd;fill:#37478D;" points="11.592,24.047 6.762,21.235 6.183,16.29 10.916,19.15 
		11.592,24.047 11.592,24.047 11.592,24.047 11.592,24.047 	"/>
	<polygon style="fill-rule:evenodd;clip-rule:evenodd;fill:#4F62A5;" points="10.723,19.393 6.183,16.678 24.73,3.103 29.367,5.721 
		10.723,19.393 10.723,19.393 10.723,19.393 10.723,19.393 	"/>
	<polygon style="fill-rule:evenodd;clip-rule:evenodd;fill:#273778;" points="29.657,5.43 30.14,10.229 26.131,13.236 
		25.744,10.327 15.167,17.987 15.552,21.042 11.496,24.047 10.819,19.295 29.657,5.43 29.657,5.43 29.657,5.43 29.657,5.43 	"/>
	<polygon style="fill-rule:evenodd;clip-rule:evenodd;fill:#37478D;" points="41.73,70.591 5.409,49.307 5.409,45.768 41.73,67.197 
		41.73,70.591 41.73,70.591 41.73,70.591 41.73,70.591 	"/>
	<polygon style="fill-rule:evenodd;clip-rule:evenodd;fill:#7979B2;" points="42.021,66.712 5.409,45.864 42.407,24.823 
		78.826,45.864 42.021,66.712 42.021,66.712 42.021,66.712 42.021,66.712 	"/>
	<polygon style="fill-rule:evenodd;clip-rule:evenodd;fill:#273778;" points="78.826,45.768 78.826,49.21 41.73,70.591 
		41.73,67.197 78.826,45.768 78.826,45.768 78.826,45.768 78.826,45.768 	"/>
	<polygon style="fill-rule:evenodd;clip-rule:evenodd;fill:#37478D;" points="41.73,66.712 5.409,45.573 5.409,29.477 41.73,50.762 
		41.73,66.712 41.73,66.712 41.73,66.712 41.73,66.712 	"/>
	<polygon style="fill-rule:evenodd;clip-rule:evenodd;fill:#6A7AB7;" points="41.539,50.422 5.409,29.187 41.925,7.757 
		78.054,29.041 41.539,50.422 41.539,50.422 41.539,50.422 41.539,50.422 	"/>
	<polygon style="fill-rule:evenodd;clip-rule:evenodd;fill:#273778;" points="78.73,29.477 78.826,45.524 41.73,66.712 41.73,50.81 
		78.73,29.477 78.73,29.477 78.73,29.477 78.73,29.477 	"/>
	<polygon style="fill-rule:evenodd;clip-rule:evenodd;fill:#4F62A5;" points="41.635,0 37.578,2.473 5.409,25.113 14.056,30.253 
		46.174,7.612 50.231,5.042 41.635,0 41.635,0 	"/>
	<polygon style="fill-rule:evenodd;clip-rule:evenodd;fill:#37478D;" points="13.911,34.132 5.409,29.187 5.409,25.599 
		13.911,30.737 13.911,34.132 13.911,34.132 13.911,34.132 13.911,34.132 	"/>
	<polygon style="fill-rule:evenodd;clip-rule:evenodd;fill:#4F62A5;" points="50.231,5.43 50.231,12.896 13.911,34.132 
		13.911,30.689 46.174,8.048 50.231,5.43 50.231,5.43 50.231,5.43 50.231,5.43 	"/>
	<polygon style="fill-rule:evenodd;clip-rule:evenodd;fill:#4F62A5;" points="50.521,6.206 46.368,8.775 23.957,24.096 
		43.035,34.907 65.447,19.635 69.553,17.211 50.521,6.206 50.521,6.206 	"/>
	<polygon style="fill-rule:evenodd;clip-rule:evenodd;fill:#37478D;" points="43.277,39.562 23.957,28.799 23.957,24.047 
		43.277,34.858 43.277,39.562 43.277,39.562 43.277,39.562 43.277,39.562 	"/>
	<polygon style="fill-rule:evenodd;clip-rule:evenodd;fill:#4F62A5;" points="69.553,16.29 65.157,18.762 32.458,41.501 
		41.249,46.543 73.948,23.805 78.054,21.332 69.553,16.29 69.553,16.29 	"/>
	<polygon style="fill-rule:evenodd;clip-rule:evenodd;fill:#37478D;" points="41.73,50.422 32.458,45.04 32.458,41.112 
		41.73,46.543 41.73,50.422 41.73,50.422 41.73,50.422 41.73,50.422 	"/>
	<polygon style="fill-rule:evenodd;clip-rule:evenodd;fill:#273778;" points="77.958,20.944 78.054,28.653 41.73,50.422 
		41.73,46.736 73.9,23.465 77.958,20.944 77.958,20.944 77.958,20.944 77.958,20.944 	"/>
	<path style="fill-rule:evenodd;clip-rule:evenodd;fill:#37478D;" d="M59.409,20.556C44.05,11.732,44.05,11.732,44.05,11.732v-0.097
		c0.099,0.436,0.099,0.436,0.099,0.436s0,0,0,0.097c15.359,8.775,15.359,8.775,15.359,8.775
		C59.409,20.556,59.409,20.556,59.409,20.556"/>
	<path style="fill-rule:evenodd;clip-rule:evenodd;fill:#6266A2;" d="M63.951,16.29c0.096,0.437,0.096,0.437,0.096,0.437
		c0.096,0.097-0.194,0.582-1.834,2.133c-2.224,2.085-2.514,1.891-2.609,1.794c-0.096-0.388-0.096-0.388-0.096-0.388
		c0.096,0.097,0.386,0.291,2.606-1.746C63.757,16.92,64.047,16.532,63.951,16.29L63.951,16.29L63.951,16.29"/>
	<path style="fill-rule:evenodd;clip-rule:evenodd;fill:#6A7AB7;" d="M63.371,16.872c-0.194,0.194-0.725,0.921-1.691,1.697
		c-0.966,0.921-1.643,1.502-1.933,1.6c-14.923-8.97-14.923-8.97-14.923-8.97c0.191-0.194,0.772-0.872,1.738-1.793
		c0.868-0.825,1.641-1.407,1.931-1.649C63.371,16.872,63.371,16.872,63.371,16.872L63.371,16.872L63.371,16.872"/>
	<path style="fill-rule:evenodd;clip-rule:evenodd;fill:#FFFFFF;" d="M64.433,16.532c0.194,0.146,0.482,0.339-1.834,2.376
		c-2.367,2.036-2.705,1.842-2.804,1.745c-16.083-9.211-16.083-9.211-16.083-9.211c-0.097-0.146-0.435-0.339,1.933-2.375
		c2.271-2.085,2.559-1.843,2.801-1.746C64.433,16.532,64.433,16.532,64.433,16.532L64.433,16.532L64.433,16.532L64.433,16.532z
		 M60.133,20.266c0.291-0.097,1.015-0.728,2.029-1.648c1.015-0.824,1.643-1.552,1.837-1.746c-15.892-9.26-15.892-9.26-15.892-9.26
		c-0.291,0.194-1.11,0.824-2.029,1.648c-1.014,0.921-1.643,1.648-1.834,1.843C60.133,20.266,60.133,20.266,60.133,20.266"/>
	<polygon style="fill-rule:evenodd;clip-rule:evenodd;fill:#6A7AB7;" points="22.75,55.076 0,41.889 10.674,40.338 33.23,53.67 
		22.75,55.076 22.75,55.076 22.75,55.076 22.75,55.076 	"/>
	<polygon style="fill-rule:evenodd;clip-rule:evenodd;fill:#4E5593;" points="22.943,55.076 0,42.276 0.145,41.889 23.184,54.736 
		22.943,55.076 22.943,55.076 22.943,55.076 22.943,55.076 	"/>
	<polygon style="fill-rule:evenodd;clip-rule:evenodd;fill:#6265A3;" points="22.701,54.785 33.23,53.524 33.135,53.864 
		22.412,55.076 22.701,54.785 22.701,54.785 22.701,54.785 22.701,54.785 	"/>
	<polygon style="fill-rule:evenodd;clip-rule:evenodd;fill:#7071AC;" points="22.025,52.748 21.639,52.507 31.348,48.871 
		31.686,49.015 22.025,52.748 22.025,52.748 22.025,52.748 22.025,52.748 	"/>
	<polygon style="fill-rule:evenodd;clip-rule:evenodd;fill:#3D4785;" points="22.412,54.3 21.639,53.96 21.639,52.748 
		22.412,53.137 22.412,54.3 22.412,54.3 22.412,54.3 22.412,54.3 	"/>
	<polygon style="fill-rule:evenodd;clip-rule:evenodd;fill:#6265A3;" points="22.412,53.427 31.686,49.646 31.686,53.137 
		22.412,54.3 22.412,53.427 22.412,53.427 22.412,53.427 22.412,53.427 	"/>
	<polygon style="fill-rule:evenodd;clip-rule:evenodd;fill:#7071AC;" points="3.381,41.889 3.091,41.646 12.751,38.01 
		13.138,38.155 3.381,41.889 3.381,41.889 3.381,41.889 3.381,41.889 	"/>
	<polygon style="fill-rule:evenodd;clip-rule:evenodd;fill:#3D4785;" points="3.864,42.664 3.091,42.519 3.091,41.889 3.622,42.083 
		3.864,42.664 3.864,42.664 3.864,42.664 3.864,42.664 	"/>
	<polygon style="fill-rule:evenodd;clip-rule:evenodd;fill:#6265A3;" points="3.091,41.791 13.138,38.01 13.138,41.404 
		3.236,42.664 3.091,41.791 3.091,41.791 3.091,41.791 3.091,41.791 	"/>
	<polygon style="fill-rule:evenodd;clip-rule:evenodd;fill:#252F68;" points="43.277,16.29 43.277,16.823 41.73,17.841 
		41.73,17.357 43.277,16.29 43.277,16.29 43.277,16.29 43.277,16.29 	"/>
	<polygon style="fill-rule:evenodd;clip-rule:evenodd;fill:#384382;" points="41.73,17.308 41.73,17.841 39.414,16.872 
		39.414,16.29 41.73,17.308 41.73,17.308 41.73,17.308 41.73,17.308 	"/>
	<polygon style="fill-rule:evenodd;clip-rule:evenodd;fill:#FFFFFF;" points="43.277,15.854 41.345,17.065 39.414,15.999 
		41.249,14.738 43.277,15.854 43.277,15.854 43.277,15.854 43.277,15.854 	"/>
	<polygon style="fill-rule:evenodd;clip-rule:evenodd;fill:#252F68;" points="47.141,17.841 47.141,18.472 44.824,20.169 
		44.824,19.393 47.141,17.841 47.141,17.841 47.141,17.841 47.141,17.841 	"/>
	<polygon style="fill-rule:evenodd;clip-rule:evenodd;fill:#384382;" points="44.824,19.344 44.824,20.169 43.277,18.714 
		43.277,17.841 44.824,19.344 44.824,19.344 44.824,19.344 44.824,19.344 	"/>
	<polygon style="fill-rule:evenodd;clip-rule:evenodd;fill:#FFFFFF;" points="47.141,18.181 45.21,19.393 43.277,18.326 
		45.112,17.065 47.141,18.181 47.141,18.181 47.141,18.181 47.141,18.181 	"/>
	<polygon style="fill-rule:evenodd;clip-rule:evenodd;fill:#252F68;" points="50.231,20.169 50.231,20.702 48.688,21.72 
		48.688,21.332 50.231,20.169 50.231,20.169 50.231,20.169 50.231,20.169 	"/>
	<polygon style="fill-rule:evenodd;clip-rule:evenodd;fill:#384382;" points="48.688,21.284 48.688,21.72 46.368,20.799 
		46.368,20.169 48.688,21.284 48.688,21.284 48.688,21.284 48.688,21.284 	"/>
	<polygon style="fill-rule:evenodd;clip-rule:evenodd;fill:#FFFFFF;" points="50.231,19.635 48.302,20.944 46.368,19.877 
		48.203,18.617 50.231,19.635 50.231,19.635 50.231,19.635 50.231,19.635 	"/>
	<polygon style="fill-rule:evenodd;clip-rule:evenodd;fill:#252F68;" points="40.186,17.841 40.186,18.617 38.641,20.169 
		38.641,19.587 40.186,17.841 40.186,17.841 40.186,17.841 40.186,17.841 	"/>
	<polygon style="fill-rule:evenodd;clip-rule:evenodd;fill:#384382;" points="38.641,19.732 38.641,20.169 36.322,19.102 
		36.322,18.617 38.641,19.732 38.641,19.732 38.641,19.732 38.641,19.732 	"/>
	<polygon style="fill-rule:evenodd;clip-rule:evenodd;fill:#FFFFFF;" points="40.186,18.083 38.399,19.393 36.322,18.326 
		38.254,17.065 40.186,18.083 40.186,18.083 40.186,18.083 40.186,18.083 	"/>
	<polygon style="fill-rule:evenodd;clip-rule:evenodd;fill:#252F68;" points="44.05,20.169 44.05,20.605 42.506,21.72 
		42.506,21.235 44.05,20.169 44.05,20.169 44.05,20.169 44.05,20.169 	"/>
	<polygon style="fill-rule:evenodd;clip-rule:evenodd;fill:#384382;" points="42.506,21.138 42.506,21.72 40.186,20.799 
		40.186,20.169 42.506,21.138 42.506,21.138 42.506,21.138 42.506,21.138 	"/>
	<polygon style="fill-rule:evenodd;clip-rule:evenodd;fill:#FFFFFF;" points="44.05,20.12 42.263,21.72 40.186,20.459 
		42.119,18.617 44.05,20.12 44.05,20.12 44.05,20.12 44.05,20.12 	"/>
	<polygon style="fill-rule:evenodd;clip-rule:evenodd;fill:#252F68;" points="47.141,21.72 47.141,22.447 45.597,24.047 
		45.597,23.319 47.141,21.72 47.141,21.72 47.141,21.72 47.141,21.72 	"/>
	<polygon style="fill-rule:evenodd;clip-rule:evenodd;fill:#384382;" points="45.597,23.465 45.597,24.047 43.277,22.98 
		43.277,22.496 45.597,23.465 45.597,23.465 45.597,23.465 45.597,23.465 	"/>
	<polygon style="fill-rule:evenodd;clip-rule:evenodd;fill:#FFFFFF;" points="47.141,21.963 45.21,23.271 43.277,22.302 
		45.112,20.944 47.141,21.963 47.141,21.963 47.141,21.963 47.141,21.963 	"/>
	<polygon style="fill-rule:evenodd;clip-rule:evenodd;fill:#252F68;" points="37.867,20.169 37.867,20.896 35.742,22.496 
		35.549,21.768 37.867,20.169 37.867,20.169 37.867,20.169 37.867,20.169 	"/>
	<polygon style="fill-rule:evenodd;clip-rule:evenodd;fill:#384382;" points="35.501,21.914 35.549,22.496 34.101,21.429 
		34.004,20.944 35.501,21.914 35.501,21.914 35.501,21.914 35.501,21.914 	"/>
	<polygon style="fill-rule:evenodd;clip-rule:evenodd;fill:#FFFFFF;" points="37.867,20.411 36.032,21.72 34.004,20.75 
		36.032,19.393 37.867,20.411 37.867,20.411 37.867,20.411 37.867,20.411 	"/>
	<polygon style="fill-rule:evenodd;clip-rule:evenodd;fill:#252F68;" points="40.959,22.496 40.959,22.932 39.414,24.047 
		39.414,23.659 40.959,22.496 40.959,22.496 40.959,22.496 40.959,22.496 	"/>
	<polygon style="fill-rule:evenodd;clip-rule:evenodd;fill:#384382;" points="39.414,23.611 39.414,24.047 37.095,23.126 
		37.095,22.496 39.414,23.611 39.414,23.611 39.414,23.611 39.414,23.611 	"/>
	<polygon style="fill-rule:evenodd;clip-rule:evenodd;fill:#FFFFFF;" points="40.959,22.011 39.172,23.271 37.095,22.253 
		39.027,20.944 40.959,22.011 40.959,22.011 40.959,22.011 40.959,22.011 	"/>
	<polygon style="fill-rule:evenodd;clip-rule:evenodd;fill:#252F68;" points="44.824,24.047 44.824,24.677 42.697,26.374 
		42.506,25.599 44.824,24.047 44.824,24.047 44.824,24.047 44.824,24.047 	"/>
	<polygon style="fill-rule:evenodd;clip-rule:evenodd;fill:#384382;" points="42.407,25.501 42.506,26.374 40.331,24.775 
		40.186,24.047 42.407,25.501 42.407,25.501 42.407,25.501 42.407,25.501 	"/>
	<polygon style="fill-rule:evenodd;clip-rule:evenodd;fill:#FFFFFF;" points="44.824,24.387 42.602,25.599 40.186,24.629 
		42.602,23.271 44.824,24.387 44.824,24.387 44.824,24.387 44.824,24.387 	"/>
	<polygon style="fill-rule:evenodd;clip-rule:evenodd;fill:#252F68;" points="34.776,22.496 34.776,22.98 32.458,24.047 
		32.458,23.562 34.776,22.496 34.776,22.496 34.776,22.496 34.776,22.496 	"/>
	<polygon style="fill-rule:evenodd;clip-rule:evenodd;fill:#384382;" points="32.458,23.465 32.458,24.047 30.912,22.98 
		30.912,22.496 32.458,23.465 32.458,23.465 32.458,23.465 32.458,23.465 	"/>
	<polygon style="fill-rule:evenodd;clip-rule:evenodd;fill:#FFFFFF;" points="34.776,22.253 32.844,24.047 30.912,22.787 
		32.844,20.944 34.776,22.253 34.776,22.253 34.776,22.253 34.776,22.253 	"/>
	<polygon style="fill-rule:evenodd;clip-rule:evenodd;fill:#252F68;" points="37.771,24.047 37.867,24.823 36.322,26.374 
		36.322,25.792 37.771,24.047 37.771,24.047 37.771,24.047 37.771,24.047 	"/>
	<polygon style="fill-rule:evenodd;clip-rule:evenodd;fill:#384382;" points="36.322,25.938 36.322,26.374 34.148,25.453 
		34.004,24.823 36.322,25.938 36.322,25.938 36.322,25.938 36.322,25.938 	"/>
	<polygon style="fill-rule:evenodd;clip-rule:evenodd;fill:#FFFFFF;" points="37.867,24.338 36.08,25.599 34.004,24.58 
		35.936,23.271 37.867,24.338 37.867,24.338 37.867,24.338 37.867,24.338 	"/>
	<polygon style="fill-rule:evenodd;clip-rule:evenodd;fill:#252F68;" points="41.73,26.374 41.73,26.907 39.414,27.926 
		39.414,27.441 41.73,26.374 41.73,26.374 41.73,26.374 41.73,26.374 	"/>
	<polygon style="fill-rule:evenodd;clip-rule:evenodd;fill:#384382;" points="39.414,27.345 39.414,27.926 37.867,26.859 
		37.867,26.374 39.414,27.345 39.414,27.345 39.414,27.345 39.414,27.345 	"/>
	<polygon style="fill-rule:evenodd;clip-rule:evenodd;fill:#FFFFFF;" points="41.73,25.889 39.945,27.149 37.867,26.132 
		39.8,24.823 41.73,25.889 41.73,25.889 41.73,25.889 41.73,25.889 	"/>
	<polygon style="fill-rule:evenodd;clip-rule:evenodd;fill:#252F68;" points="54.098,21.72 54.098,22.496 51.778,24.047 
		51.778,23.465 54.098,21.72 54.098,21.72 54.098,21.72 54.098,21.72 	"/>
	<polygon style="fill-rule:evenodd;clip-rule:evenodd;fill:#384382;" points="51.778,23.368 51.778,24.047 50.231,22.642 
		50.231,21.72 51.778,23.368 51.778,23.368 51.778,23.368 51.778,23.368 	"/>
	<polygon style="fill-rule:evenodd;clip-rule:evenodd;fill:#FFFFFF;" points="54.098,21.963 52.261,23.271 50.231,22.205 
		52.117,20.944 54.098,21.963 54.098,21.963 54.098,21.963 54.098,21.963 	"/>
	<polygon style="fill-rule:evenodd;clip-rule:evenodd;fill:#252F68;" points="51.007,24.047 51.007,24.483 48.688,25.599 
		48.688,25.113 51.007,24.047 51.007,24.047 51.007,24.047 51.007,24.047 	"/>
	<polygon style="fill-rule:evenodd;clip-rule:evenodd;fill:#384382;" points="48.688,25.017 48.688,25.599 47.141,24.677 
		47.141,24.047 48.688,25.017 48.688,25.017 48.688,25.017 48.688,25.017 	"/>
	<polygon style="fill-rule:evenodd;clip-rule:evenodd;fill:#FFFFFF;" points="51.007,23.999 49.218,25.599 47.141,24.338 
		49.073,22.496 51.007,23.999 51.007,23.999 51.007,23.999 51.007,23.999 	"/>
	<polygon style="fill-rule:evenodd;clip-rule:evenodd;fill:#252F68;" points="47.816,26.374 47.915,26.811 46.513,27.926 
		46.368,27.538 47.816,26.374 47.816,26.374 47.816,26.374 47.816,26.374 	"/>
	<polygon style="fill-rule:evenodd;clip-rule:evenodd;fill:#384382;" points="46.272,27.489 46.368,27.926 44.196,27.005 
		44.05,26.374 46.272,27.489 46.272,27.489 46.272,27.489 46.272,27.489 	"/>
	<polygon style="fill-rule:evenodd;clip-rule:evenodd;fill:#FFFFFF;" points="47.915,25.889 46.126,27.149 44.05,26.132 
		45.982,24.823 47.915,25.889 47.915,25.889 47.915,25.889 47.915,25.889 	"/>
	<polygon style="fill-rule:evenodd;clip-rule:evenodd;fill:#252F68;" points="44.824,27.926 44.824,28.701 43.277,30.253 
		43.277,29.671 44.824,27.926 44.824,27.926 44.824,27.926 44.824,27.926 	"/>
	<polygon style="fill-rule:evenodd;clip-rule:evenodd;fill:#384382;" points="43.277,29.816 43.277,30.253 40.959,29.332 
		40.959,28.701 43.277,29.816 43.277,29.816 43.277,29.816 43.277,29.816 	"/>
	<polygon style="fill-rule:evenodd;clip-rule:evenodd;fill:#FFFFFF;" points="44.824,28.217 42.892,29.477 40.959,28.459 
		42.892,27.149 44.824,28.217 44.824,28.217 44.824,28.217 44.824,28.217 	"/>
</g>
</svg>