<?xml version="1.0" encoding="iso-8859-1"?>
<!DOCTYPE svg PUBLIC "-//W3C//DTD SVG 1.1//EN" "http://www.w3.org/Graphics/SVG/1.1/DTD/svg11.dtd">
<svg version="1.1" xmlns="http://www.w3.org/2000/svg" xmlns:xlink="http://www.w3.org/1999/xlink" width="56" height="42" viewBox="0 0 56 42">
<g>
	<path style="fill-rule:evenodd;clip-rule:evenodd;fill:#3E5389;" d="M47.698,26.716c-10.914,6.271-28.453,6.271-39.366,0
		c-5.882-3.366-8.079-6.803-8.079-11.125c-0.142,0-0.142,0-0.142,0c0,10.629,0,10.629,0,10.629c0.142,0,0.142,0,0.142,0
		c0.248,3.827,2.941,7.654,8.079,10.736c10.913,6.271,28.452,6.271,39.366,0c5.031-3.082,7.76-6.909,7.973-10.736l0,0
		c0-10.771,0-10.771,0-10.771C55.67,19.524,53.12,23.598,47.698,26.716"/>
	<path style="fill-rule:evenodd;clip-rule:evenodd;fill:#6A86BB;" d="M47.59,4.677c10.809,6.236,10.914,16.477,0.107,22.713
		c-10.949,6.2-28.524,6.2-39.473,0C-2.724,21.154-2.724,10.914,8.119,4.677C18.926-1.559,36.643-1.559,47.59,4.677"/>
	<path style="fill-rule:evenodd;clip-rule:evenodd;fill:#3E5389;" d="M47.733,19.984c0,7.37,0,7.37,0,7.37
		c-13.039,0-13.039,0-13.039,0c0-2.196,0-2.196,0-2.196c6.023,0,6.023,0,6.023,0c-4.643-2.587-4.643-2.587-4.643-2.587
		c0.779-0.248,1.523-0.603,2.162-0.957c0.354-0.248,0.85-0.496,1.098-0.744c4.537,2.445,4.537,2.445,4.537,2.445
		c0-3.331,0-3.331,0-3.331H47.733L47.733,19.984z"/>
	<path style="fill-rule:evenodd;clip-rule:evenodd;fill:#3E5389;" d="M18.04,20.303c0.496,0.354,0.992,0.744,1.63,1.099
		c0.496,0.248,0.992,0.496,1.488,0.744c-4.252,2.444-4.252,2.444-4.252,2.444c5.882,0,5.882,0,5.882,0c0,2.197,0,2.197,0,2.197
		c-13.04,0-13.04,0-13.04,0c0-7.37,0-7.37,0-7.37c3.898,0,3.898,0,3.898,0c0,3.473,0,3.473,0,3.473L18.04,20.303L18.04,20.303z"/>
	<path style="fill-rule:evenodd;clip-rule:evenodd;fill:#3E5389;" d="M22.08,21.898c1.098-0.78,2.197-0.78,3.047-0.248
		c3.898,2.303,3.898,2.303,3.898,2.303c-2.799,0-5.599-0.496-7.937-1.523L22.08,21.898L22.08,21.898z"/>
	<path style="fill-rule:evenodd;clip-rule:evenodd;fill:#3E5389;" d="M21.725,9.815c-0.744,0.354-1.347,0.603-1.984,0.957
		c-0.496,0.248-0.886,0.638-1.275,0.886c-4.252-2.48-4.252-2.48-4.252-2.48c0,3.437,0,3.437,0,3.437c-3.898,0-3.898,0-3.898,0
		c0-7.37,0-7.37,0-7.37c12.933,0,12.933,0,12.933,0c0.106,2.232,0.106,2.232,0.106,2.232c-5.988,0-5.988,0-5.988,0L21.725,9.815
		L21.725,9.815z"/>
	<path style="fill-rule:evenodd;clip-rule:evenodd;fill:#3E5389;" d="M38.272,20.586c-1.17-0.814-1.311-1.382-0.389-1.949
		c4.18-2.622,4.18-2.622,4.18-2.622c0,1.807-0.885,3.614-2.869,5.103L38.272,20.586L38.272,20.586z"/>
	<path style="fill-rule:evenodd;clip-rule:evenodd;fill:#3E5389;" d="M33.135,19.382c0,0.744,0.354,1.736,2.338,2.834
		c0.709,0.496,0.709,0.496,0.709,0.496c-2.055,0.886-4.395,1.24-6.84,1.24c2.941-1.736,2.941-1.736,2.941-1.736
		c-4.039-2.338-4.039-2.338-4.039-2.338c-0.39-0.248-1.984-0.992-4.323-1.134c-1.205,0-3.047,0.248-4.89,1.382
		c-0.992,0.496-0.992,0.496-0.992,0.496c-3.189-2.729-3.047-6.342,0.39-8.929c1.099,0.603,1.099,0.603,1.099,0.603
		c1.098,0.638,1.24,1.24,0.354,1.736c-4.039,2.48-4.039,2.48-4.039,2.48c3.189,1.736,3.189,1.736,3.189,1.736
		c4.039-2.338,4.039-2.338,4.039-2.338c0.248-0.142,1.736-1.134,1.843-2.48c0-0.744-0.354-1.878-2.339-2.977
		c-0.957-0.638-0.957-0.638-0.957-0.638c4.642-1.736,10.913-1.594,15.308,0.39c-0.992,0.603-0.992,0.603-0.992,0.603
		c-1.1,0.638-2.197,0.744-3.047,0.248c-4.041-2.338-4.041-2.338-4.041-2.338c-3.082,1.736-3.082,1.736-3.082,1.736
		c4.074,2.48,4.074,2.48,4.074,2.48c0.355,0.106,1.949,0.992,4.289,0.992c1.203,0,3.047-0.142,4.889-1.24
		c0.992-0.638,0.992-0.638,0.992-0.638c1.346,1.382,2.055,2.729,2.055,4.216c-3.047-1.842-3.047-1.842-3.047-1.842
		c-4.039,2.48-4.039,2.48-4.039,2.48C34.729,17.008,33.241,18,33.135,19.382"/>
	<path style="fill-rule:evenodd;clip-rule:evenodd;fill:#3E5389;" d="M39.831,11.764c-0.459-0.354-1.063-0.85-1.807-1.205
		c-0.354-0.248-0.709-0.39-1.205-0.638c4.111-2.445,4.111-2.445,4.111-2.445c-5.67,0-5.67,0-5.67,0c0-2.232,0-2.232,0-2.232
		c12.367,0,12.367,0,12.367,0c0.105,7.37,0.105,7.37,0.105,7.37c-3.686,0-3.686,0-3.686,0c0-3.295,0-3.295,0-3.295L39.831,11.764
		L39.831,11.764z"/>
	<path style="fill-rule:evenodd;clip-rule:evenodd;fill:#FFFFFF;" d="M46.598,18.284c0,7.37,0,7.37,0,7.37
		c-13.039,0-13.039,0-13.039,0c0-2.197,0-2.197,0-2.197c6.023,0,6.023,0,6.023,0c-4.641-2.586-4.641-2.586-4.641-2.586
		c0.779-0.248,1.523-0.603,2.16-0.957c0.355-0.248,0.852-0.496,1.1-0.744c4.535,2.444,4.535,2.444,4.535,2.444c0-3.33,0-3.33,0-3.33
		H46.598L46.598,18.284z"/>
	<path style="fill-rule:evenodd;clip-rule:evenodd;fill:#FFFFFF;" d="M16.906,19.169c0.496,0.354,0.992,0.744,1.63,1.098
		c0.496,0.248,0.992,0.496,1.488,0.744c-4.252,2.445-4.252,2.445-4.252,2.445c5.882,0,5.882,0,5.882,0c0,2.197,0,2.197,0,2.197
		c-13.04,0-13.04,0-13.04,0c0-7.37,0-7.37,0-7.37c3.897,0,3.897,0,3.897,0c0,3.473,0,3.473,0,3.473L16.906,19.169L16.906,19.169z"/>
	<path style="fill-rule:evenodd;clip-rule:evenodd;fill:#FFFFFF;" d="M20.945,20.197c1.099-0.779,2.197-0.779,3.047-0.248
		c3.898,2.304,3.898,2.304,3.898,2.304c-2.799,0-5.599-0.496-7.938-1.524L20.945,20.197L20.945,20.197z"/>
	<path style="fill-rule:evenodd;clip-rule:evenodd;fill:#FFFFFF;" d="M20.591,8.114c-0.744,0.354-1.347,0.603-1.984,0.957
		c-0.496,0.248-0.886,0.638-1.275,0.886c-4.252-2.48-4.252-2.48-4.252-2.48c0,3.437,0,3.437,0,3.437c-3.898,0-3.898,0-3.898,0
		c0-7.37,0-7.37,0-7.37c12.933,0,12.933,0,12.933,0c0.106,2.232,0.106,2.232,0.106,2.232c-5.988,0-5.988,0-5.988,0L20.591,8.114
		L20.591,8.114z"/>
	<path style="fill-rule:evenodd;clip-rule:evenodd;fill:#FFFFFF;" d="M37.563,18.957c-1.027-0.744-1.168-1.24-0.354-1.736
		c3.721-2.339,3.721-2.339,3.721-2.339c0,1.595-0.814,3.189-2.551,4.536L37.563,18.957L37.563,18.957z"/>
	<path style="fill-rule:evenodd;clip-rule:evenodd;fill:#FFFFFF;" d="M32,17.681c0,0.744,0.354,1.736,2.338,2.834
		c0.709,0.496,0.709,0.496,0.709,0.496c-2.055,0.886-4.393,1.241-6.838,1.241c2.941-1.737,2.941-1.737,2.941-1.737
		c-4.04-2.338-4.04-2.338-4.04-2.338c-0.39-0.248-1.984-0.992-4.323-1.134c-1.205,0-3.047,0.248-4.89,1.382
		c-0.992,0.496-0.992,0.496-0.992,0.496c-3.189-2.729-3.047-6.343,0.39-8.929c1.099,0.603,1.099,0.603,1.099,0.603
		c1.098,0.638,1.24,1.24,0.354,1.736c-4.039,2.48-4.039,2.48-4.039,2.48c3.189,1.736,3.189,1.736,3.189,1.736
		c4.039-2.339,4.039-2.339,4.039-2.339c0.248-0.142,1.736-1.134,1.843-2.48c0-0.744-0.354-1.878-2.339-2.977
		c-0.957-0.638-0.957-0.638-0.957-0.638c4.642-1.736,10.914-1.595,15.307,0.39c-0.992,0.603-0.992,0.603-0.992,0.603
		c-1.098,0.638-2.197,0.744-3.047,0.248c-4.039-2.339-4.039-2.339-4.039-2.339C24.63,8.752,24.63,8.752,24.63,8.752
		c4.075,2.48,4.075,2.48,4.075,2.48c0.354,0.106,1.95,0.992,4.288,0.992c1.205,0,3.047-0.142,4.891-1.24
		c0.992-0.638,0.992-0.638,0.992-0.638c1.346,1.382,2.055,2.728,2.055,4.216c-3.047-1.842-3.047-1.842-3.047-1.842
		c-4.041,2.48-4.041,2.48-4.041,2.48C33.594,15.307,32.108,16.299,32,17.681"/>
	<path style="fill-rule:evenodd;clip-rule:evenodd;fill:#FFFFFF;" d="M38.911,10.63c-0.496-0.354-1.135-0.85-1.879-1.205
		c-0.389-0.248-0.744-0.39-1.275-0.638c4.287-2.445,4.287-2.445,4.287-2.445c-5.916,0-5.916,0-5.916,0c0-2.232,0-2.232,0-2.232
		c12.932,0,12.932,0,12.932,0c0.107,7.37,0.107,7.37,0.107,7.37c-3.863,0-3.863,0-3.863,0c0-3.295,0-3.295,0-3.295L38.911,10.63
		L38.911,10.63z"/>
</g>
</svg>