<?xml version="1.0" encoding="iso-8859-1"?>
<!DOCTYPE svg PUBLIC "-//W3C//DTD SVG 1.1//EN" "http://www.w3.org/Graphics/SVG/1.1/DTD/svg11.dtd">
<svg version="1.1" xmlns="http://www.w3.org/2000/svg" xmlns:xlink="http://www.w3.org/1999/xlink" width="130" height="76" viewBox="0 0 130 76">
<g>
	<polygon style="fill-rule:evenodd;clip-rule:evenodd;fill:#4F62A5;" points="131.103,41.95 73.626,74.787 0,33.074 57.538,0 
		131.103,41.95 131.103,41.95 131.103,41.95 131.103,41.95 	"/>
	<path style="fill:#0A1534;stroke:#0A1534;stroke-width:0.0354;stroke-linejoin:round;stroke-miterlimit:10;" d="M60.188,34.436
		l8.495-4.911l0.482,0.77l-8.495,4.97L60.188,34.436L60.188,34.436z M43.861,25.087l8.495-5.089l0.482,0.77l-8.495,5.088
		L43.861,25.087L43.861,25.087z M43.379,34.908l8.496-4.91l0.481,0.769l-8.495,4.97L43.379,34.908L43.379,34.908z M75.433,44.435
		L37.836,22.543l0.542-0.829l37.595,21.951L75.433,44.435L75.433,44.435z"/>
	<polygon style="fill-rule:evenodd;clip-rule:evenodd;fill:#2A3174;" points="55.911,22.069 64.587,17.04 64.587,19.644 
		55.911,24.614 55.911,22.069 55.911,22.069 55.911,22.069 55.911,22.069 55.911,22.069 55.911,22.069 	"/>
	<polygon style="fill-rule:evenodd;clip-rule:evenodd;fill:#525DA1;" points="45.308,15.443 53.863,10.413 64.587,16.744 
		56.092,21.773 45.308,15.443 45.308,15.443 45.308,15.443 45.308,15.443 45.308,15.443 45.308,15.443 	"/>
	<polygon style="fill-rule:evenodd;clip-rule:evenodd;fill:#37468B;" points="55.911,21.892 55.911,24.614 45.308,17.927 
		45.308,15.147 55.911,21.892 55.911,21.892 55.911,21.892 55.911,21.892 55.911,21.892 55.911,21.892 	"/>
	<polygon style="fill-rule:evenodd;clip-rule:evenodd;fill:#525DA1;" points="52.055,20.59 52.598,19.88 53.983,21.064 
		53.501,21.773 52.055,20.59 52.055,20.59 52.055,20.59 52.055,20.59 52.055,20.59 52.055,20.59 	"/>
	<path style="fill-rule:evenodd;clip-rule:evenodd;fill:#6669AB;" d="M53.02,21.773c0.964-0.946,0.964-0.946,0.964-0.946l0,0
		C53.02,21.773,53.02,21.773,53.02,21.773L53.02,21.773"/>
	<path style="fill-rule:evenodd;clip-rule:evenodd;fill:#696AAB;" d="M53.02,21.773c0.964-0.946,0.964-0.946,0.964-0.946l0,0
		C53.02,21.773,53.02,21.773,53.02,21.773L53.02,21.773"/>
	<path style="fill-rule:evenodd;clip-rule:evenodd;fill:#6D6DAD;" d="M53.02,21.773c0.964-0.946,0.964-0.946,0.964-0.946
		s0,0,0,0.237C53.02,21.773,53.02,21.773,53.02,21.773L53.02,21.773"/>
	<path style="fill-rule:evenodd;clip-rule:evenodd;fill:#6F70AE;" d="M53.02,21.773c0.844-0.946,0.844-0.946,0.844-0.946s0,0,0.12,0
		C53.02,21.773,53.02,21.773,53.02,21.773L53.02,21.773"/>
	<path style="fill-rule:evenodd;clip-rule:evenodd;fill:#7171AF;" d="M53.02,21.773c0.964-0.946,0.964-0.946,0.964-0.946l0,0
		c-0.784,0.946-0.784,0.946-0.784,0.946H53.02"/>
	<path style="fill-rule:evenodd;clip-rule:evenodd;fill:#7272B0;" d="M53.02,21.537c0.964-0.71,0.964-0.71,0.964-0.71l0,0
		c-0.964,0.946-0.964,0.946-0.964,0.946C53.02,21.537,53.02,21.537,53.02,21.537"/>
	<path style="fill-rule:evenodd;clip-rule:evenodd;fill:#7272B0;" d="M53.02,21.773c0.964-0.946,0.964-0.946,0.964-0.946l0,0
		C53.02,21.773,53.02,21.773,53.02,21.773L53.02,21.773"/>
	<path style="fill-rule:evenodd;clip-rule:evenodd;fill:#7273B0;" d="M53.02,21.773c0.964-0.946,0.964-0.946,0.964-0.946v0.237
		C53.02,21.773,53.02,21.773,53.02,21.773L53.02,21.773"/>
	<path style="fill-rule:evenodd;clip-rule:evenodd;fill:#7272B0;" d="M53.02,21.773c0.964-0.946,0.964-0.946,0.964-0.946l0,0
		C53.02,21.773,53.02,21.773,53.02,21.773L53.02,21.773"/>
	<path style="fill-rule:evenodd;clip-rule:evenodd;fill:#7272B0;" d="M53.02,21.537c0.964-0.71,0.964-0.71,0.964-0.71l0,0
		c-0.964,0.946-0.964,0.946-0.964,0.946S53.02,21.773,53.02,21.537"/>
	<path style="fill-rule:evenodd;clip-rule:evenodd;fill:#7171AF;" d="M53.02,21.773c0.844-0.946,0.844-0.946,0.844-0.946s0,0,0.12,0
		C53.02,21.773,53.02,21.773,53.02,21.773L53.02,21.773"/>
	<path style="fill-rule:evenodd;clip-rule:evenodd;fill:#6F70AE;" d="M53.02,21.773c0.964-0.946,0.964-0.946,0.964-0.946l0,0
		c-0.784,0.946-0.784,0.946-0.784,0.946S53.199,21.773,53.02,21.773"/>
	<path style="fill-rule:evenodd;clip-rule:evenodd;fill:#6D6DAD;" d="M53.02,21.773c0.964-0.946,0.964-0.946,0.964-0.946v0.237
		C53.02,21.773,53.02,21.773,53.02,21.773L53.02,21.773"/>
	<polygon style="fill-rule:evenodd;clip-rule:evenodd;fill:#525DA1;" points="53.983,22.069 54.465,21.773 55.911,22.483 
		55.309,22.72 53.983,22.069 53.983,22.069 53.983,22.069 53.983,22.069 53.983,22.069 53.983,22.069 	"/>
	<polygon style="fill-rule:evenodd;clip-rule:evenodd;fill:#525DA1;" points="45.308,15.501 45.79,15.147 55.911,21.477 
		55.489,21.773 45.308,15.501 45.308,15.501 45.308,15.501 45.308,15.501 45.308,15.501 45.308,15.501 	"/>
	<path style="fill-rule:evenodd;clip-rule:evenodd;fill:#37468B;" d="M45.308,16.093c10.604,6.035,10.604,6.035,10.604,6.035
		c0,2.486,0,2.486,0,2.486c-10.604-5.977-10.604-5.977-10.604-5.977C45.308,16.093,45.308,16.093,45.308,16.093L45.308,16.093
		L45.308,16.093L45.308,16.093L45.308,16.093L45.308,16.093z M55.369,22.779c0-0.355,0-0.355,0-0.355
		c-1.326-0.709-1.326-0.709-1.326-0.709c-0.06-0.118-0.18-0.178-0.24-0.296c-0.061-0.06-0.182,0-0.241,0
		c-1.326-0.651-1.326-0.651-1.326-0.651c0,0.237,0,0.237,0,0.237c1.326,0.769,1.326,0.769,1.326,0.769
		c0.06,0.06,0.181,0.178,0.241,0.237c0.061,0.118,0.181,0.118,0.24,0C55.369,22.779,55.369,22.779,55.369,22.779"/>
	<polygon style="fill-rule:evenodd;clip-rule:evenodd;fill:#4A5295;" points="57.116,12.307 49.163,7.1 53.621,4.733 61.695,10.118 
		57.116,12.307 57.116,12.307 57.116,12.307 57.116,12.307 57.116,12.307 57.116,12.307 	"/>
	<polygon style="fill-rule:evenodd;clip-rule:evenodd;fill:#242D65;" points="56.875,12.307 61.695,10.413 61.695,15.087 
		56.875,17.987 56.875,12.307 56.875,12.307 56.875,12.307 56.875,12.307 56.875,12.307 56.875,12.307 	"/>
	<polygon style="fill-rule:evenodd;clip-rule:evenodd;fill:#FFFFFF;" points="55.911,12.425 55.911,19.88 47.235,15.087 
		47.416,7.573 55.911,12.425 55.911,12.425 55.911,12.425 55.911,12.425 55.911,12.425 55.911,12.425 	"/>
	<polygon style="fill-rule:evenodd;clip-rule:evenodd;fill:#2A3174;" points="47.235,7.929 48.199,7.573 48.199,14.851 
		47.235,15.147 47.235,7.929 47.235,7.929 47.235,7.929 47.235,7.929 47.235,7.929 47.235,7.929 	"/>
	<polygon style="fill-rule:evenodd;clip-rule:evenodd;fill:#525DA1;" points="47.235,15.501 47.777,15.147 55.911,19.584 
		55.429,19.88 47.235,15.501 47.235,15.501 47.235,15.501 47.235,15.501 47.235,15.501 47.235,15.501 	"/>
	<polygon style="fill-rule:evenodd;clip-rule:evenodd;fill:#2A3174;" points="56.393,12.248 56.393,12.248 55.911,12.543 
		55.911,20.827 56.272,20.708 56.272,20.708 57.839,19.702 57.839,11.359 56.393,12.248 56.393,12.248 	"/>
	<polygon style="fill-rule:evenodd;clip-rule:evenodd;fill:#525DA1;" points="57.839,11.301 49.163,6.626 47.718,7.277 
		47.718,7.277 47.235,7.691 55.911,12.307 56.272,12.188 56.272,12.188 57.839,11.301 57.839,11.301 	"/>
	<path style="fill-rule:evenodd;clip-rule:evenodd;fill:#37468B;" d="M47.235,7.573l8.676,5.088v8.165l-8.676-5.029V7.573
		L47.235,7.573L47.235,7.573L47.235,7.573L47.235,7.573L47.235,7.573L47.235,7.573z M55.429,20.058v-7.042l-7.711-4.615v7.042
		L55.429,20.058L55.429,20.058z"/>
	<polygon style="fill-rule:evenodd;clip-rule:evenodd;fill:#37468B;" points="51.091,25.561 42.415,20.59 42.415,19.88 
		51.091,25.087 51.091,25.561 51.091,25.561 51.091,25.561 51.091,25.561 51.091,25.561 51.091,25.561 	"/>
	<polygon style="fill-rule:evenodd;clip-rule:evenodd;fill:#525DA1;" points="51.212,25.561 42.415,20.116 45.247,17.987 
		53.983,23.489 51.212,25.561 51.212,25.561 51.212,25.561 51.212,25.561 51.212,25.561 51.212,25.561 	"/>
	<polygon style="fill-rule:evenodd;clip-rule:evenodd;fill:#2A3174;" points="53.983,23.667 53.983,24.317 51.091,25.561 
		51.091,25.205 53.983,23.667 53.983,23.667 53.983,23.667 53.983,23.667 53.983,23.667 53.983,23.667 	"/>
	<polygon style="fill-rule:evenodd;clip-rule:evenodd;fill:#2A3174;" points="72.301,30.59 80.976,25.561 80.976,28.341 
		72.301,33.134 72.301,30.59 72.301,30.59 72.301,30.59 72.301,30.59 72.301,30.59 72.301,30.59 	"/>
	<polygon style="fill-rule:evenodd;clip-rule:evenodd;fill:#525DA1;" points="61.695,24.495 70.252,19.88 80.976,25.737 
		72.479,30.294 61.695,24.495 61.695,24.495 61.695,24.495 61.695,24.495 61.695,24.495 61.695,24.495 	"/>
	<polygon style="fill-rule:evenodd;clip-rule:evenodd;fill:#37468B;" points="72.301,30.708 72.301,33.134 61.695,27.276 
		61.695,24.614 72.301,30.708 72.301,30.708 72.301,30.708 72.301,30.708 72.301,30.708 72.301,30.708 	"/>
	<polygon style="fill-rule:evenodd;clip-rule:evenodd;fill:#465093;" points="68.441,29.819 69.408,29.347 69.408,29.819 
		68.441,30.294 68.441,29.819 68.441,29.819 68.441,29.819 68.441,29.819 68.441,29.819 68.441,29.819 	"/>
	<polygon style="fill-rule:evenodd;clip-rule:evenodd;fill:#525DA1;" points="68.441,29.701 69.105,29.347 70.371,30.176 
		69.89,30.294 68.441,29.701 68.441,29.701 68.441,29.701 68.441,29.701 68.441,29.701 68.441,29.701 	"/>
	<path style="fill-rule:evenodd;clip-rule:evenodd;fill:#7272B0;" d="M69.408,31.24c0.963-0.946,0.963-0.946,0.963-0.946l0,0
		C69.408,31.24,69.408,31.24,69.408,31.24L69.408,31.24"/>
	<path style="fill-rule:evenodd;clip-rule:evenodd;fill:#7171AF;" d="M69.408,31.004c0.963-0.71,0.963-0.71,0.963-0.71l0,0
		c-0.963,0.946-0.963,0.946-0.963,0.946C69.408,31.004,69.408,31.004,69.408,31.004"/>
	<path style="fill-rule:evenodd;clip-rule:evenodd;fill:#6F70AE;" d="M69.408,31.24c0.963-0.946,0.963-0.946,0.963-0.946l0,0
		C69.408,31.24,69.408,31.24,69.408,31.24L69.408,31.24"/>
	<path style="fill-rule:evenodd;clip-rule:evenodd;fill:#6D6DAD;" d="M69.408,31.24c0.963-0.946,0.963-0.946,0.963-0.946l0,0
		C69.408,31.24,69.408,31.24,69.408,31.24L69.408,31.24"/>
	<path style="fill-rule:evenodd;clip-rule:evenodd;fill:#696AAB;" d="M69.408,31.24c0.963-0.946,0.963-0.946,0.963-0.946l0,0
		C69.408,31.24,69.408,31.24,69.408,31.24L69.408,31.24"/>
	<path style="fill-rule:evenodd;clip-rule:evenodd;fill:#6669AB;" d="M69.408,31.24c0.963-0.946,0.963-0.946,0.963-0.946
		s0,0,0,0.236C69.408,31.24,69.408,31.24,69.408,31.24L69.408,31.24"/>
	<path style="fill-rule:evenodd;clip-rule:evenodd;fill:#6164A8;" d="M69.408,31.24c0.844-0.946,0.844-0.946,0.844-0.946h0.119
		c-0.784,0.946-0.784,0.946-0.784,0.946C69.408,31.24,69.408,31.24,69.408,31.24"/>
	<polygon style="fill-rule:evenodd;clip-rule:evenodd;fill:#525DA1;" points="70.371,30.886 70.912,30.294 72.301,31.654 
		71.815,32.187 70.371,30.886 70.371,30.886 70.371,30.886 70.371,30.886 70.371,30.886 70.371,30.886 	"/>
	<polygon style="fill-rule:evenodd;clip-rule:evenodd;fill:#525DA1;" points="61.695,24.969 62.177,24.614 72.301,30.944 
		71.879,31.24 61.695,24.969 61.695,24.969 61.695,24.969 61.695,24.969 61.695,24.969 61.695,24.969 	"/>
	<path style="fill-rule:evenodd;clip-rule:evenodd;fill:#37468B;" d="M61.695,24.614C72.301,31.3,72.301,31.3,72.301,31.3
		c0,2.78,0,2.78,0,2.78c-10.605-6.567-10.605-6.567-10.605-6.567C61.695,24.614,61.695,24.614,61.695,24.614L61.695,24.614
		L61.695,24.614L61.695,24.614L61.695,24.614L61.695,24.614z M71.696,31.95c0-0.236,0-0.236,0-0.236
		c-1.266-0.828-1.266-0.828-1.266-0.828c-0.06-0.119-0.179-0.296-0.239-0.296c-0.122-0.118-0.183-0.118-0.183,0
		c-1.385-0.829-1.385-0.829-1.385-0.829c0,0.355,0,0.355,0,0.355c1.385,0.77,1.385,0.77,1.385,0.77c0,0.177,0.061,0.236,0.183,0.354
		c0.061,0,0.18,0,0.239-0.118C71.696,31.95,71.696,31.95,71.696,31.95"/>
	<polygon style="fill-rule:evenodd;clip-rule:evenodd;fill:#4A5295;" points="74.227,21.773 65.552,16.508 70.431,14.2 
		79.046,19.702 74.227,21.773 74.227,21.773 74.227,21.773 74.227,21.773 74.227,21.773 74.227,21.773 	"/>
	<polygon style="fill-rule:evenodd;clip-rule:evenodd;fill:#242D65;" points="74.227,20.886 79.046,18.933 79.046,24.08 
		74.227,27.454 74.227,20.886 74.227,20.886 74.227,20.886 74.227,20.886 74.227,20.886 74.227,20.886 	"/>
	<polygon style="fill-rule:evenodd;clip-rule:evenodd;fill:#FFFFFF;" points="72.301,21.3 72.301,29.347 63.623,24.377 
		63.623,16.093 72.301,21.3 72.301,21.3 72.301,21.3 72.301,21.3 72.301,21.3 72.301,21.3 	"/>
	<polygon style="fill-rule:evenodd;clip-rule:evenodd;fill:#2A3174;" points="63.623,17.395 64.587,17.04 64.587,24.317 
		63.623,24.614 63.623,17.395 63.623,17.395 63.623,17.395 63.623,17.395 63.623,17.395 63.623,17.395 	"/>
	<polygon style="fill-rule:evenodd;clip-rule:evenodd;fill:#525DA1;" points="63.623,24.021 64.346,23.667 72.301,28.104 
		71.637,28.4 63.623,24.021 63.623,24.021 63.623,24.021 63.623,24.021 63.623,24.021 63.623,24.021 	"/>
	<polygon style="fill-rule:evenodd;clip-rule:evenodd;fill:#2A3174;" points="72.782,21.596 72.782,21.596 72.301,21.892 
		72.301,29.347 72.659,29.229 72.659,29.229 74.227,28.341 74.227,20.827 72.782,21.596 72.782,21.596 	"/>
	<polygon style="fill-rule:evenodd;clip-rule:evenodd;fill:#525DA1;" points="74.227,20.59 65.731,15.147 64.105,16.034 
		64.105,16.034 63.623,16.389 72.36,21.773 72.659,21.655 72.659,21.655 74.227,20.59 74.227,20.59 	"/>
	<path style="fill-rule:evenodd;clip-rule:evenodd;fill:#37468B;" d="M63.623,17.04l8.678,4.733v7.574l-8.678-4.674V17.04
		L63.623,17.04L63.623,17.04L63.623,17.04L63.623,17.04L63.623,17.04L63.623,17.04z M71.696,28.637v-6.567l-7.591-4.26v6.568
		L71.696,28.637L71.696,28.637z"/>
	<polygon style="fill-rule:evenodd;clip-rule:evenodd;fill:#37468B;" points="67.479,35.026 58.803,29.879 58.803,29.347 
		67.479,34.376 67.479,35.026 67.479,35.026 67.479,35.026 67.479,35.026 67.479,35.026 67.479,35.026 	"/>
	<polygon style="fill-rule:evenodd;clip-rule:evenodd;fill:#525DA1;" points="67.479,34.08 58.803,29.465 61.756,27.454 
		70.371,32.246 67.479,34.08 67.479,34.08 67.479,34.08 67.479,34.08 67.479,34.08 67.479,34.08 	"/>
	<polygon style="fill-rule:evenodd;clip-rule:evenodd;fill:#2A3174;" points="70.371,32.187 70.371,33.074 67.479,35.026 
		67.479,34.316 70.371,32.187 70.371,32.187 70.371,32.187 70.371,32.187 70.371,32.187 70.371,32.187 	"/>
	<polygon style="fill-rule:evenodd;clip-rule:evenodd;fill:#2A3174;" points="43.379,41.831 52.055,36.92 52.055,39.643 
		43.379,44.494 43.379,41.831 43.379,41.831 43.379,41.831 43.379,41.831 43.379,41.831 43.379,41.831 	"/>
	<polygon style="fill-rule:evenodd;clip-rule:evenodd;fill:#525DA1;" points="32.775,35.796 41.331,31.24 52.055,36.979 
		43.561,41.653 32.775,35.796 32.775,35.796 32.775,35.796 32.775,35.796 32.775,35.796 32.775,35.796 	"/>
	<polygon style="fill-rule:evenodd;clip-rule:evenodd;fill:#37468B;" points="43.379,41.95 43.379,44.494 32.775,38.576 
		32.775,35.974 43.379,41.95 43.379,41.95 43.379,41.95 43.379,41.95 43.379,41.95 43.379,41.95 	"/>
	<polygon style="fill-rule:evenodd;clip-rule:evenodd;fill:#525DA1;" points="38.56,41.002 39.102,40.707 40.487,41.416 
		40.005,41.653 38.56,41.002 38.56,41.002 38.56,41.002 38.56,41.002 38.56,41.002 38.56,41.002 	"/>
	<path style="fill-rule:evenodd;clip-rule:evenodd;fill:#6164A8;" d="M40.487,42.364c0.964-0.711,0.964-0.711,0.964-0.711l0,0
		c-0.964,0.947-0.964,0.947-0.964,0.947V42.364"/>
	<path style="fill-rule:evenodd;clip-rule:evenodd;fill:#5E63A7;" d="M40.487,42.601c0.964-0.947,0.964-0.947,0.964-0.947l0,0
		C40.487,42.601,40.487,42.601,40.487,42.601L40.487,42.601"/>
	<path style="fill-rule:evenodd;clip-rule:evenodd;fill:#5B60A4;" d="M40.487,42.601c0.964-0.947,0.964-0.947,0.964-0.947l0,0
		C40.487,42.601,40.487,42.601,40.487,42.601L40.487,42.601"/>
	<path style="fill-rule:evenodd;clip-rule:evenodd;fill:#595FA3;" d="M40.487,42.601c0.964-0.947,0.964-0.947,0.964-0.947l0,0
		C40.487,42.601,40.487,42.601,40.487,42.601L40.487,42.601"/>
	<path style="fill-rule:evenodd;clip-rule:evenodd;fill:#525DA1;" d="M40.487,42.601c0.964-0.947,0.964-0.947,0.964-0.947l0,0
		C40.487,42.601,40.487,42.601,40.487,42.601L40.487,42.601"/>
	<path style="fill-rule:evenodd;clip-rule:evenodd;fill:#52589C;" d="M40.487,42.601c0.844-0.947,0.844-0.947,0.844-0.947
		s0.12,0,0.12,0.237c-0.783,0.71-0.783,0.71-0.783,0.71C40.487,42.601,40.487,42.601,40.487,42.601"/>
	<path style="fill-rule:evenodd;clip-rule:evenodd;fill:#4F5699;" d="M40.487,42.601c0.964-0.947,0.964-0.947,0.964-0.947l0,0
		C40.487,42.601,40.487,42.601,40.487,42.601L40.487,42.601"/>
	<path style="fill-rule:evenodd;clip-rule:evenodd;fill:#4B5396;" d="M40.487,42.601c0.964-0.947,0.964-0.947,0.964-0.947l0,0l0,0
		C40.487,42.601,40.487,42.601,40.487,42.601L40.487,42.601L40.487,42.601"/>
	<path style="fill-rule:evenodd;clip-rule:evenodd;fill:#485196;" d="M40.487,42.601c0.964-0.947,0.964-0.947,0.964-0.947l0,0
		C40.487,42.601,40.487,42.601,40.487,42.601L40.487,42.601"/>
	<path style="fill-rule:evenodd;clip-rule:evenodd;fill:#454F92;" d="M40.487,42.601c0.964-0.947,0.964-0.947,0.964-0.947l0,0
		C40.487,42.601,40.487,42.601,40.487,42.601L40.487,42.601"/>
	<path style="fill-rule:evenodd;clip-rule:evenodd;fill:#424C8F;" d="M40.487,42.601c0.964-0.947,0.964-0.947,0.964-0.947l0,0
		C40.487,42.601,40.487,42.601,40.487,42.601L40.487,42.601"/>
	<path style="fill-rule:evenodd;clip-rule:evenodd;fill:#404B8E;" d="M40.487,42.601c0.964-0.947,0.964-0.947,0.964-0.947l0,0
		C40.487,42.601,40.487,42.601,40.487,42.601L40.487,42.601"/>
	<path style="fill-rule:evenodd;clip-rule:evenodd;fill:#3D488B;" d="M40.487,42.601c0.964-0.947,0.964-0.947,0.964-0.947l0,0
		C40.487,42.601,40.487,42.601,40.487,42.601L40.487,42.601"/>
	<path style="fill-rule:evenodd;clip-rule:evenodd;fill:#394587;" d="M40.487,42.601c0.844-0.947,0.844-0.947,0.844-0.947h0.12
		C40.487,42.601,40.487,42.601,40.487,42.601L40.487,42.601"/>
	<path style="fill-rule:evenodd;clip-rule:evenodd;fill:#374386;" d="M40.487,42.601c0.964-0.947,0.964-0.947,0.964-0.947l0,0
		c-0.783,0.947-0.783,0.947-0.783,0.947S40.668,42.601,40.487,42.601"/>
	<path style="fill-rule:evenodd;clip-rule:evenodd;fill:#354284;" d="M40.487,42.364c0.964-0.711,0.964-0.711,0.964-0.711l0,0
		c-0.964,0.947-0.964,0.947-0.964,0.947S40.487,42.601,40.487,42.364"/>
	<path style="fill-rule:evenodd;clip-rule:evenodd;fill:#334081;" d="M40.487,42.601c0.964-0.947,0.964-0.947,0.964-0.947l0,0
		C40.487,42.601,40.487,42.601,40.487,42.601L40.487,42.601"/>
	<path style="fill-rule:evenodd;clip-rule:evenodd;fill:#313F81;" d="M40.487,42.601c0.964-0.947,0.964-0.947,0.964-0.947l0,0
		C40.487,42.601,40.487,42.601,40.487,42.601L40.487,42.601"/>
	<path style="fill-rule:evenodd;clip-rule:evenodd;fill:#2D3D7F;" d="M40.487,42.601c0.964-0.947,0.964-0.947,0.964-0.947l0,0
		C40.487,42.601,40.487,42.601,40.487,42.601L40.487,42.601"/>
	<path style="fill-rule:evenodd;clip-rule:evenodd;fill:#293A7C;" d="M40.487,42.601c0.964-0.947,0.964-0.947,0.964-0.947l0,0
		C40.487,42.601,40.487,42.601,40.487,42.601L40.487,42.601"/>
	<path style="fill-rule:evenodd;clip-rule:evenodd;fill:#26397A;" d="M40.487,42.601c0.844-0.947,0.844-0.947,0.844-0.947h0.12
		c-0.783,0.711-0.783,0.711-0.783,0.711C40.487,42.364,40.487,42.364,40.487,42.601"/>
	<path style="fill-rule:evenodd;clip-rule:evenodd;fill:#273777;" d="M40.487,42.601c0.964-0.947,0.964-0.947,0.964-0.947l0,0
		C40.487,42.601,40.487,42.601,40.487,42.601L40.487,42.601"/>
	<polygon style="fill-rule:evenodd;clip-rule:evenodd;fill:#525DA1;" points="40.487,42.067 40.969,41.653 42.415,42.364 
		41.933,42.601 40.487,42.067 40.487,42.067 40.487,42.067 40.487,42.067 40.487,42.067 40.487,42.067 	"/>
	<polygon style="fill-rule:evenodd;clip-rule:evenodd;fill:#2A3174;" points="42.415,42.009 43.379,41.653 43.139,44.375 
		42.415,44.494 42.415,42.009 42.415,42.009 42.415,42.009 42.415,42.009 42.415,42.009 42.415,42.009 	"/>
	<polygon style="fill-rule:evenodd;clip-rule:evenodd;fill:#525DA1;" points="31.812,36.329 32.354,35.974 43.379,42.306 
		42.776,42.601 31.812,36.329 31.812,36.329 31.812,36.329 31.812,36.329 31.812,36.329 31.812,36.329 	"/>
	<path style="fill-rule:evenodd;clip-rule:evenodd;fill:#37468B;" d="M31.812,35.974c10.604,6.035,10.604,6.035,10.604,6.035
		c0,2.485,0,2.485,0,2.485c-10.604-5.977-10.604-5.977-10.604-5.977C31.812,35.974,31.812,35.974,31.812,35.974L31.812,35.974
		L31.812,35.974L31.812,35.974L31.812,35.974L31.812,35.974z M41.933,42.659c0-0.354,0-0.354,0-0.354
		c-1.385-0.711-1.385-0.711-1.385-0.711c0-0.118-0.061-0.179-0.182-0.296c-0.06-0.061-0.18,0-0.24,0
		c-1.326-0.65-1.326-0.65-1.326-0.65c0,0.236,0,0.236,0,0.236c1.326,0.769,1.326,0.769,1.326,0.769
		c0.061,0.06,0.181,0.178,0.24,0.237c0.121,0.118,0.182,0.118,0.182,0C41.933,42.659,41.933,42.659,41.933,42.659"/>
	<polygon style="fill-rule:evenodd;clip-rule:evenodd;fill:#4A5295;" points="44.282,32.187 35.667,27.572 40.487,25.561 
		49.163,30.234 44.282,32.187 44.282,32.187 44.282,32.187 44.282,32.187 44.282,32.187 44.282,32.187 	"/>
	<polygon style="fill-rule:evenodd;clip-rule:evenodd;fill:#242D65;" points="44.344,32.423 49.163,30.294 49.163,35.618 
		44.524,38.813 44.344,32.423 44.344,32.423 44.344,32.423 44.344,32.423 44.344,32.423 44.344,32.423 	"/>
	<polygon style="fill-rule:evenodd;clip-rule:evenodd;fill:#FFFFFF;" points="43.379,32.66 43.379,40.707 34.703,35.736 
		34.703,27.454 43.379,32.66 43.379,32.66 43.379,32.66 43.379,32.66 43.379,32.66 43.379,32.66 	"/>
	<polygon style="fill-rule:evenodd;clip-rule:evenodd;fill:#2A3174;" points="34.703,28.578 35.667,28.4 35.426,34.73 
		34.703,35.026 34.703,28.578 34.703,28.578 34.703,28.578 34.703,28.578 34.703,28.578 34.703,28.578 	"/>
	<polygon style="fill-rule:evenodd;clip-rule:evenodd;fill:#525DA1;" points="34.703,35.382 35.186,35.026 42.415,39.465 
		41.993,39.76 34.703,35.382 34.703,35.382 34.703,35.382 34.703,35.382 34.703,35.382 34.703,35.382 	"/>
	<polygon style="fill-rule:evenodd;clip-rule:evenodd;fill:#2A3174;" points="43.318,32.068 43.318,32.068 42.415,32.601 
		42.415,40.707 42.897,40.41 42.897,40.41 45.126,39.582 45.308,31.24 43.318,32.068 43.318,32.068 	"/>
	<polygon style="fill-rule:evenodd;clip-rule:evenodd;fill:#525DA1;" points="45.308,31.772 35.848,26.507 34.281,27.395 
		34.281,27.395 33.739,27.75 43.078,33.134 43.62,32.838 43.62,32.838 45.308,31.772 45.308,31.772 	"/>
	<path style="fill-rule:evenodd;clip-rule:evenodd;fill:#37468B;" d="M33.92,27.454l8.495,5.206v8.047l-8.676-5.148L33.92,27.454
		L33.92,27.454L33.92,27.454L33.92,27.454L33.92,27.454L33.92,27.454L33.92,27.454z M41.993,39.76v-6.922l-7.591-4.556v6.981
		L41.993,39.76L41.993,39.76z"/>
	<polygon style="fill-rule:evenodd;clip-rule:evenodd;fill:#37468B;" points="38.56,46.387 29.883,41.238 29.883,40.707 
		38.56,45.736 38.56,46.387 38.56,46.387 38.56,46.387 38.56,46.387 38.56,46.387 38.56,46.387 	"/>
	<polygon style="fill-rule:evenodd;clip-rule:evenodd;fill:#525DA1;" points="38.68,45.441 29.883,40.707 32.715,38.813 
		41.451,43.546 38.68,45.441 38.68,45.441 38.68,45.441 38.68,45.441 38.68,45.441 38.68,45.441 	"/>
	<polygon style="fill-rule:evenodd;clip-rule:evenodd;fill:#2A3174;" points="41.331,43.546 41.451,44.612 38.56,46.387 
		38.56,45.678 41.331,43.546 41.331,43.546 41.331,43.546 41.331,43.546 41.331,43.546 41.331,43.546 	"/>
	<polygon style="fill-rule:evenodd;clip-rule:evenodd;fill:#2A3174;" points="78.083,38.399 90.616,31.24 90.616,47.808 
		78.083,54.907 78.083,38.399 78.083,38.399 78.083,38.399 78.083,38.399 78.083,38.399 78.083,38.399 	"/>
	<polygon style="fill-rule:evenodd;clip-rule:evenodd;fill:#525DA1;" points="72.301,34.376 84.469,27.454 90.616,31.004 
		78.504,37.866 72.301,34.376 72.301,34.376 72.301,34.376 72.301,34.376 72.301,34.376 72.301,34.376 	"/>
	<polygon style="fill-rule:evenodd;clip-rule:evenodd;fill:#273878;" points="78.083,37.866 78.083,54.907 72.301,51.18 
		72.301,34.08 78.083,37.866 78.083,37.866 78.083,37.866 78.083,37.866 78.083,37.866 78.083,37.866 	"/>
	<polygon style="fill-rule:evenodd;clip-rule:evenodd;fill:#2A3174;" points="77.119,54.196 78.083,53.96 78.083,54.671 
		77.119,54.907 77.119,54.196 77.119,54.196 77.119,54.196 77.119,54.196 77.119,54.196 77.119,54.196 	"/>
	<polygon style="fill-rule:evenodd;clip-rule:evenodd;fill:#525DA1;" points="73.264,51.475 73.865,51.121 78.083,53.665 
		77.541,53.96 73.264,51.475 73.264,51.475 73.264,51.475 73.264,51.475 73.264,51.475 73.264,51.475 	"/>
	<polygon style="fill-rule:evenodd;clip-rule:evenodd;fill:#525DA1;" points="73.264,50.646 73.865,50.174 78.083,52.717 
		77.541,53.014 73.264,50.646 73.264,50.646 73.264,50.646 73.264,50.646 73.264,50.646 73.264,50.646 	"/>
	<polygon style="fill-rule:evenodd;clip-rule:evenodd;fill:#2A3174;" points="77.119,53.429 78.083,53.014 78.083,53.429 
		77.119,53.96 77.119,53.429 77.119,53.429 77.119,53.429 77.119,53.429 77.119,53.429 77.119,53.429 	"/>
	<polygon style="fill-rule:evenodd;clip-rule:evenodd;fill:#525DA1;" points="73.264,49.642 73.865,49.228 78.083,52.658 
		77.541,53.014 73.264,49.642 73.264,49.642 73.264,49.642 73.264,49.642 73.264,49.642 73.264,49.642 	"/>
	<polygon style="fill-rule:evenodd;clip-rule:evenodd;fill:#2A3174;" points="77.119,52.541 78.083,52.066 78.083,52.541 
		77.119,53.014 77.119,52.541 77.119,52.541 77.119,52.541 77.119,52.541 77.119,52.541 77.119,52.541 	"/>
	<polygon style="fill-rule:evenodd;clip-rule:evenodd;fill:#525DA1;" points="73.264,49.581 73.865,49.228 78.083,51.771 
		77.541,52.066 73.264,49.581 73.264,49.581 73.264,49.581 73.264,49.581 73.264,49.581 73.264,49.581 	"/>
	<polygon style="fill-rule:evenodd;clip-rule:evenodd;fill:#2A3174;" points="77.119,51.535 78.083,51.121 78.083,51.535 
		77.119,52.066 77.119,51.535 77.119,51.535 77.119,51.535 77.119,51.535 77.119,51.535 77.119,51.535 	"/>
	<polygon style="fill-rule:evenodd;clip-rule:evenodd;fill:#525DA1;" points="73.264,48.636 73.865,48.28 78.083,50.824 
		77.541,51.121 73.264,48.636 73.264,48.636 73.264,48.636 73.264,48.636 73.264,48.636 73.264,48.636 	"/>
	<polygon style="fill-rule:evenodd;clip-rule:evenodd;fill:#2A3174;" points="77.119,50.766 78.083,50.174 78.083,50.588 
		77.119,51.121 77.119,50.766 77.119,50.766 77.119,50.766 77.119,50.766 77.119,50.766 77.119,50.766 	"/>
	<polygon style="fill-rule:evenodd;clip-rule:evenodd;fill:#525DA1;" points="73.264,47.748 73.865,47.334 78.083,50.529 
		77.541,51.121 73.264,47.748 73.264,47.748 73.264,47.748 73.264,47.748 73.264,47.748 73.264,47.748 	"/>
	<polygon style="fill-rule:evenodd;clip-rule:evenodd;fill:#525DA1;" points="72.301,38.222 72.901,37.866 77.119,40.41 
		76.578,40.707 72.301,38.222 72.301,38.222 72.301,38.222 72.301,38.222 72.301,38.222 72.301,38.222 	"/>
	<polygon style="fill-rule:evenodd;clip-rule:evenodd;fill:#2A3174;" points="77.119,40.293 78.083,39.76 78.083,49.878 
		77.119,50.174 77.119,40.293 77.119,40.293 77.119,40.293 77.119,40.293 77.119,40.293 77.119,40.293 	"/>
	<polygon style="fill-rule:evenodd;clip-rule:evenodd;fill:#525DA1;" points="71.334,37.275 71.998,36.92 78.083,40.293 
		77.481,40.707 71.334,37.275 71.334,37.275 71.334,37.275 71.334,37.275 71.334,37.275 71.334,37.275 	"/>
	<path style="fill-rule:evenodd;clip-rule:evenodd;fill:#37468B;" d="M77.119,50.114l-4.277-2.662v0.473l4.277,2.604v0.355
		l-4.277-2.663v0.295l4.277,2.663v0.473l-4.277-2.661v0.295l4.277,2.663v0.354l-4.277-2.661v0.295l4.277,2.663v0.295l-4.277-2.661
		v0.474l4.277,2.484v0.474l-4.277-2.663v0.355l4.277,2.663v0.887l-5.785-3.55V36.92l5.785,3.609V50.114L77.119,50.114L77.119,50.114
		L77.119,50.114L77.119,50.114L77.119,50.114L77.119,50.114z M72.118,38.34l4.277,2.662V40.41l-4.277-2.662V38.34L72.118,38.34z"/>
	<polygon style="fill-rule:evenodd;clip-rule:evenodd;fill:#2A3174;" points="77.119,38.28 78.083,37.866 78.083,40.115 
		77.119,40.707 77.119,38.28 77.119,38.28 77.119,38.28 77.119,38.28 77.119,38.28 77.119,38.28 	"/>
	<polygon style="fill-rule:evenodd;clip-rule:evenodd;fill:#525DA1;" points="71.334,35.382 71.998,35.026 78.083,38.518 
		77.481,38.813 71.334,35.382 71.334,35.382 71.334,35.382 71.334,35.382 71.334,35.382 71.334,35.382 	"/>
	<polygon style="fill-rule:evenodd;clip-rule:evenodd;fill:#37468B;" points="77.119,38.813 77.119,40.707 71.334,36.979 
		71.334,35.026 77.119,38.813 77.119,38.813 77.119,38.813 77.119,38.813 77.119,38.813 77.119,38.813 	"/>
	<path style="fill:#152F56;stroke:#152F56;stroke-width:0.0354;stroke-linejoin:round;stroke-miterlimit:10;" d="M96.398,58.753
		l0.302-0.118l0,0l0.724-0.297l0,0l1.747-0.828l-0.123,0.061l0.665-0.533l-0.061,0.119l0.362-0.592l-0.123,0.295l-0.06-0.592
		l0.123,0.238l-0.422-0.593l0.18,0.178l-1.087-0.475h0.123l-1.687-0.354l0,0l-1.508-0.297l0,0l-0.481-0.059h0.06h-0.18V53.96h0.239
		l0.545,0.119l1.504,0.295l1.747,0.355l1.266,0.533l0.545,0.828l0.119,0.829l-0.481,0.828l-0.784,0.59l-1.807,0.889l-0.783,0.296
		l-0.303,0.119L96.398,58.753L96.398,58.753z M87.183,55.972l0.238-0.059l0.482-0.119l1.146-0.178l1.146,0.593h-0.063l1.329,0.473
		h-0.303l0.725-0.236l-0.183,0.061l0.664-0.534v0.06l0.541-0.593h-0.06l0.361-0.414l0.784,0.652l-0.422,0.414l-0.545,0.591
		l-0.783,0.652l-0.963,0.295l-1.505-0.533l-1.026-0.531h0.243l-0.967,0.117h0.063l-0.482,0.119l-0.242,0.059L87.183,55.972
		L87.183,55.972z"/>
	<polygon style="fill-rule:evenodd;clip-rule:evenodd;fill:#404E8D;" points="93.506,53.96 93.506,54.788 90.616,56.801 
		90.616,56.031 93.506,53.96 93.506,53.96 93.506,53.96 93.506,53.96 93.506,53.96 93.506,53.96 	"/>
	<polygon style="fill-rule:evenodd;clip-rule:evenodd;fill:#213163;" points="90.616,56.149 90.616,56.801 85.794,53.546 
		85.794,53.014 90.616,56.149 90.616,56.149 90.616,56.149 90.616,56.149 90.616,56.149 90.616,56.149 	"/>
	<polygon style="fill-rule:evenodd;clip-rule:evenodd;fill:#515B9D;" points="93.506,54.257 90.975,55.854 85.794,52.777 
		88.385,51.121 93.506,54.257 93.506,54.257 93.506,54.257 93.506,54.257 93.506,54.257 93.506,54.257 	"/>
	<polygon style="fill-rule:evenodd;clip-rule:evenodd;fill:#2A3174;" points="89.649,54.907 87.724,53.901 87.724,46.387 
		89.649,47.452 89.649,54.907 89.649,54.907 89.649,54.907 89.649,54.907 89.649,54.907 89.649,54.907 	"/>
	<polygon style="fill-rule:evenodd;clip-rule:evenodd;fill:#404E8D;" points="89.649,47.334 90.616,47.511 90.616,53.724 
		89.649,54.907 89.649,47.334 89.649,47.334 89.649,47.334 89.649,47.334 89.649,47.334 89.649,47.334 	"/>
	<polygon style="fill-rule:evenodd;clip-rule:evenodd;fill:#404E8D;" points="95.435,45.795 96.398,45.441 96.159,54.61 
		95.435,54.907 95.435,45.795 95.435,45.795 95.435,45.795 95.435,45.795 95.435,45.795 95.435,45.795 	"/>
	<polygon style="fill-rule:evenodd;clip-rule:evenodd;fill:#515B9D;" points="84.831,39.346 85.372,38.813 96.398,45.145 
		95.737,45.441 84.831,39.346 84.831,39.346 84.831,39.346 84.831,39.346 84.831,39.346 84.831,39.346 	"/>
	<polygon style="fill-rule:evenodd;clip-rule:evenodd;fill:#213163;" points="95.435,45.678 95.435,54.907 84.831,49.05 
		84.831,39.76 95.435,45.678 95.435,45.678 95.435,45.678 95.435,45.678 95.435,45.678 95.435,45.678 	"/>
	<polygon style="fill-rule:evenodd;clip-rule:evenodd;fill:#FFFFFF;" points="95.435,45.678 95.435,54.907 84.831,49.05 
		84.831,39.76 95.435,45.678 95.435,45.678 95.435,45.678 95.435,45.678 95.435,45.678 95.435,45.678 	"/>
	<polygon style="fill-rule:evenodd;clip-rule:evenodd;fill:#404E8D;" points="94.472,45.617 95.435,45.441 95.192,55.558 
		94.472,55.854 94.472,45.617 94.472,45.617 94.472,45.617 94.472,45.617 94.472,45.617 94.472,45.617 	"/>
	<polygon style="fill-rule:evenodd;clip-rule:evenodd;fill:#515B9D;" points="83.868,40.057 84.528,39.76 95.435,45.322 
		94.771,45.441 83.868,40.057 83.868,40.057 83.868,40.057 83.868,40.057 83.868,40.057 83.868,40.057 	"/>
	<path style="fill-rule:evenodd;clip-rule:evenodd;fill:#213163;" d="M83.868,39.76l10.604,6.096v9.998l-10.604-6.212V39.76
		L83.868,39.76L83.868,39.76L83.868,39.76L83.868,39.76L83.868,39.76L83.868,39.76z M93.867,54.729v-8.401l-9.339-5.563v8.521
		L93.867,54.729L93.867,54.729z"/>
	<polygon style="fill-rule:evenodd;clip-rule:evenodd;fill:#213163;" points="88.687,61.534 79.046,55.616 79.046,54.907 
		88.687,60.884 88.687,61.534 88.687,61.534 88.687,61.534 88.687,61.534 88.687,61.534 88.687,61.534 	"/>
	<polygon style="fill-rule:evenodd;clip-rule:evenodd;fill:#515B9D;" points="88.444,60.587 79.046,55.085 82.181,53.014 
		91.579,58.575 88.444,60.587 88.444,60.587 88.444,60.587 88.444,60.587 88.444,60.587 88.444,60.587 	"/>
	<polygon style="fill-rule:evenodd;clip-rule:evenodd;fill:#404E8D;" points="91.579,58.693 91.579,59.7 88.687,61.534 
		88.687,60.884 91.579,58.693 91.579,58.693 91.579,58.693 91.579,58.693 91.579,58.693 91.579,58.693 	"/>
	<path style="fill-rule:evenodd;clip-rule:evenodd;fill:#9DA0CA;" d="M95.555,57.865c-0.12-0.117-0.481,0-0.844,0.355
		c-0.119,0.059-0.239,0.178-0.299,0.295c-0.362,0.297-0.664,0.829-0.906,1.243c0.906,0.828,0.906,0.828,0.906,0.828
		c0.18-0.473,0.481-0.945,0.903-1.36c0.119-0.06,0.18-0.178,0.299-0.296c0.362-0.296,0.664-0.415,0.784-0.237
		C95.555,57.865,95.555,57.865,95.555,57.865"/>
	<path style="fill-rule:evenodd;clip-rule:evenodd;fill:#5E65A9;" d="M94.412,60.351l0.06-0.059c-0.844-0.65-0.844-0.65-0.844-0.65
		c-0.122,0.117-0.122,0.176-0.122,0.176v0.061c0,0.117,0,0.178,0,0.178c0.966,0.531,0.966,0.531,0.966,0.531
		c-0.06,0-0.06-0.059-0.06-0.059C94.412,60.47,94.412,60.47,94.412,60.351"/>
	<path style="fill-rule:evenodd;clip-rule:evenodd;fill:#2A3174;" d="M96.159,59.049c0.601-0.355,1.143-0.355,1.202-0.118
		c0,0.118,0,0.118,0,0.178c0,0.059-0.06,0.236-0.18,0.295c-2.471,1.125-2.471,1.125-2.471,1.125c-0.119,0.059-0.239,0-0.239-0.059
		c0-0.061,0-0.061,0-0.178l0.12-0.061c0.302-0.354,0.664-0.65,1.205-1.005C95.917,59.167,95.977,59.108,96.159,59.049L96.159,59.049
		L96.159,59.049L96.159,59.049"/>
</g>
</svg>