<?xml version="1.0" encoding="iso-8859-1"?>
<!DOCTYPE svg PUBLIC "-//W3C//DTD SVG 1.1//EN" "http://www.w3.org/Graphics/SVG/1.1/DTD/svg11.dtd">
<svg version="1.1" xmlns="http://www.w3.org/2000/svg" xmlns:xlink="http://www.w3.org/1999/xlink" width="72" height="76" viewBox="0 0 72 76">
<g>
	<polygon style="fill-rule:evenodd;clip-rule:evenodd;fill:#273778;" points="42.516,72.47 66.482,58.431 66.482,61.372 
		42.516,75.126 42.516,72.47 42.516,72.47 42.516,72.47 42.516,72.47 	"/>
	<polygon style="fill-rule:evenodd;clip-rule:evenodd;fill:#6266A2;" points="6.184,52.455 30.631,38.701 66.482,58.905 
		42.082,72.849 6.184,52.455 6.184,52.455 6.184,52.455 6.184,52.455 	"/>
	<polygon style="fill-rule:evenodd;clip-rule:evenodd;fill:#3C4685;" points="42.516,72.517 42.516,75.126 6.184,55.11 6.184,52.36 
		42.516,72.517 42.516,72.517 42.516,72.517 42.516,72.517 	"/>
	<polygon style="fill-rule:evenodd;clip-rule:evenodd;fill:#273778;" points="38.024,49.562 70.347,31.112 70.25,55.87 
		37.878,74.366 38.024,49.562 38.024,49.562 38.024,49.562 38.024,49.562 	"/>
	<polygon style="fill-rule:evenodd;clip-rule:evenodd;fill:#6A7AB7;" points="0.773,28.267 33.24,9.864 70.347,30.828 
		37.928,49.325 0.773,28.267 0.773,28.267 0.773,28.267 0.773,28.267 	"/>
	<polygon style="fill-rule:evenodd;clip-rule:evenodd;fill:#37478D;" points="37.878,49.277 37.782,74.366 0.773,53.214 
		0.917,28.077 37.878,49.277 37.878,49.277 37.878,49.277 37.878,49.277 	"/>
	<polygon style="fill-rule:evenodd;clip-rule:evenodd;fill:#918EC1;" points="50.248,62.226 74.744,47.807 74.985,48.471 
		50.538,62.983 50.248,62.226 50.248,62.226 50.248,62.226 50.248,62.226 	"/>
	<polygon style="fill-rule:evenodd;clip-rule:evenodd;fill:#4D5592;" points="72.569,47.807 72.181,47.807 71.795,47.807 
		67.544,47.807 67.012,47.807 64.548,47.807 40.199,62.226 42.806,62.226 43.193,62.226 47.445,62.226 47.832,62.226 48.313,62.226 
		50.633,62.226 74.985,47.807 72.569,47.807 72.569,47.807 	"/>
	<polygon style="fill-rule:evenodd;clip-rule:evenodd;fill:#3E4A88;" points="50.78,62.226 51.019,62.983 40.342,62.983 
		40.199,62.226 42.806,62.226 43.24,62.226 47.542,62.226 47.928,62.226 48.413,62.226 50.78,62.226 50.78,62.226 50.78,62.226 
		50.78,62.226 	"/>
	<polygon style="fill-rule:evenodd;clip-rule:evenodd;fill:#273778;" points="32.467,10.623 32.467,12.947 7.73,27.318 7.73,25.042 
		32.467,10.623 32.467,10.623 32.467,10.623 32.467,10.623 	"/>
	<polygon style="fill-rule:evenodd;clip-rule:evenodd;fill:#37478D;" points="37.878,46.289 37.878,48.565 0,27.318 0.145,25.042 
		37.878,46.289 37.878,46.289 37.878,46.289 37.878,46.289 	"/>
	<polygon style="fill-rule:evenodd;clip-rule:evenodd;fill:#273778;" points="69.574,28.077 69.574,30.354 37.878,48.565 
		37.878,46.289 69.574,28.077 69.574,28.077 69.574,28.077 69.574,28.077 	"/>
	<path style="fill-rule:evenodd;clip-rule:evenodd;fill:#4F62A5;" d="M32.032,6.829l37.542,21.248L37.589,46.289L0,25.042
		L32.032,6.829L32.032,6.829L32.032,6.829L32.032,6.829L32.032,6.829z M37.589,42.115l24.881-14.038L32.129,10.908L7.295,25.042
		L37.589,42.115L37.589,42.115z"/>
	<path style="fill-rule:evenodd;clip-rule:evenodd;fill:#9792C3;" d="M16.233,14.702C40.681,0.759,40.681,0.759,40.681,0.759
		c6.571,6.26,9.085,10.908,11.452,15.224c2.221,4.079,4.25,7.826,8.938,12.616c-24.4,13.896-24.4,13.896-24.4,13.896
		c-4.687-4.742-6.765-8.537-8.793-12.426C25.365,25.563,22.853,20.916,16.233,14.702L16.233,14.702L16.233,14.702"/>
	<path style="fill-rule:evenodd;clip-rule:evenodd;fill:#37478D;" d="M16.233,14.418c6.764,6.213,9.325,10.813,11.886,15.271
		c2.125,3.89,4.203,7.637,8.986,12.379c-0.146,0.427-0.146,0.427-0.146,0.427c-4.928-4.885-7.054-8.916-9.131-12.663
		c-2.415-4.458-4.976-8.917-11.595-15.082C16.233,14.418,16.233,14.418,16.233,14.418L16.233,14.418L16.233,14.418"/>
	<path style="fill-rule:evenodd;clip-rule:evenodd;fill:#8287BE;" d="M17.78,13.896C42.228,0,42.228,0,42.228,0
		c6.57,6.213,9.081,10.86,11.595,15.319c2.078,3.889,4.107,7.683,8.792,12.426C38.217,41.736,38.217,41.736,38.217,41.736
		c-4.686-4.885-6.764-8.632-8.793-12.521C26.911,24.71,24.544,20.109,17.78,13.896L17.78,13.896L17.78,13.896"/>
	<path style="fill-rule:evenodd;clip-rule:evenodd;fill:#37478D;" d="M17.78,13.659c6.667,6.213,8.987,10.813,11.45,15.271
		c2.029,3.89,4.059,7.637,8.648,12.521c0,0.284,0,0.284,0,0.284c-4.88-4.885-6.909-8.916-8.938-12.663
		c-2.318-4.458-4.783-8.917-11.16-14.94C17.78,13.659,17.78,13.659,17.78,13.659L17.78,13.659L17.78,13.659"/>
</g>
</svg>