<?xml version="1.0" encoding="iso-8859-1"?>
<!DOCTYPE svg PUBLIC "-//W3C//DTD SVG 1.1//EN" "http://www.w3.org/Graphics/SVG/1.1/DTD/svg11.dtd">
<svg version="1.1" xmlns="http://www.w3.org/2000/svg" xmlns:xlink="http://www.w3.org/1999/xlink" width="58" height="44" viewBox="0 0 58 44">
<g>
	<path style="fill-rule:evenodd;clip-rule:evenodd;fill:#243B7C;" d="M48.934,27.443c-11.127,6.556-29.197,6.556-40.465,0
		C2.41,24.042,0.142,20.498,0,16.104l0,0c0,10.842,0,10.842,0,10.842l0,0c0.39,3.897,3.189,7.938,8.469,10.949
		c11.268,6.413,29.338,6.413,40.465,0c5.314-3.012,8.078-7.052,8.326-10.949l0,0c0-10.984,0-10.984,0-10.984
		C57.26,20.25,54.496,24.29,48.934,27.443"/>
	<path style="fill-rule:evenodd;clip-rule:evenodd;fill:#4B68AF;" d="M48.756,4.837c11.232,6.555,11.338,17.008,0.143,23.421
		c-11.092,6.413-29.126,6.413-40.359,0C-2.693,21.845-2.834,11.392,8.398,4.837C19.488-1.612,37.523-1.612,48.756,4.837"/>
	<path style="fill-rule:evenodd;clip-rule:evenodd;fill:#243B7C;" d="M43.051,7.99c1.1,0.638,1.1,1.771,0,2.516
		c-1.133,0.496-2.764,0.603-3.861,0.106c-4.748,2.764-4.748,2.764-4.748,2.764c0.992,0.603,1.488,1.488,1.629,2.232
		c6.592,0,6.592,0,6.592,0c0.389-0.744,1.488-1.382,3.012-1.382c0.85,0,1.594,0.142,2.232,0.496c0.496,0.248,0.85,0.744,0.85,1.24
		c0,1.027-1.346,1.771-2.977,1.771c-0.885,0-1.629-0.248-2.232-0.496c-0.389-0.248-0.744-0.638-0.744-0.886
		c-6.732,0-6.732,0-6.732,0c-0.141,0.744-0.637,1.488-1.629,2.232c4.748,2.622,4.748,2.622,4.748,2.622
		c1.24-0.354,2.869-0.354,3.861,0.248c1.24,0.744,1.24,1.878,0,2.516c-1.133,0.744-3.117,0.744-4.252,0
		c-1.098-0.638-1.24-1.523-0.496-2.268c-4.605-2.622-4.605-2.622-4.605-2.622c-1.135,0.496-2.48,0.886-3.863,0.886
		c0,3.862,0,3.862,0,3.862c0.638,0,1.134,0.248,1.488,0.496c0.639,0.248,0.887,0.744,0.887,1.24c0,0.886-1.24,1.736-3.012,1.736
		c-0.85,0-1.594-0.248-2.09-0.496c-0.638-0.354-0.886-0.744-0.886-1.24c0-0.851,0.992-1.595,2.374-1.736c0-3.862,0-3.862,0-3.862
		c-1.382,0-2.729-0.39-3.862-0.886c-4.606,2.622-4.606,2.622-4.606,2.622c0.744,0.744,0.603,1.63-0.496,2.268
		c-1.134,0.744-3.012,0.744-4.252,0c-1.24-0.638-1.24-1.771,0-2.516c0.992-0.602,2.622-0.602,3.862-0.248
		c4.606-2.622,4.606-2.622,4.606-2.622c-0.851-0.744-1.488-1.488-1.595-2.232c-6.626,0-6.626,0-6.626,0
		c-0.248,0.744-1.488,1.382-2.976,1.382c-0.886,0-1.63-0.248-2.126-0.496c-0.496-0.39-0.886-0.744-0.886-1.275
		c0-0.992,1.382-1.736,3.012-1.736c0.85,0,1.63,0.142,2.126,0.496c0.496,0.248,0.744,0.496,0.85,0.886c6.626,0,6.626,0,6.626,0
		c0.106-0.744,0.603-1.63,1.595-2.232c-4.712-2.764-4.712-2.764-4.712-2.764c-1.134,0.496-2.764,0.39-3.862-0.106
		c-1.134-0.744-1.134-1.878,0-2.516c1.24-0.744,3.118-0.744,4.358,0c0.992,0.496,1.098,1.523,0.354,2.126
		c4.748,2.764,4.748,2.764,4.748,2.764c1.134-0.531,2.48-0.886,3.862-0.886c0-3.862,0-3.862,0-3.862
		c-0.638-0.142-1.134-0.248-1.63-0.496c-0.496-0.39-0.851-0.744-0.851-1.24c0-0.992,1.347-1.772,2.977-1.772
		c0.886,0,1.63,0.142,2.231,0.532c0.496,0.354,0.887,0.744,0.887,1.24c0,0.85-1.135,1.594-2.48,1.736c0,3.862,0,3.862,0,3.862
		c1.345,0,2.728,0.354,3.968,0.886c4.605-2.764,4.605-2.764,4.605-2.764c-0.744-0.603-0.602-1.63,0.391-2.126
		C39.934,7.246,41.811,7.246,43.051,7.99L43.051,7.99L43.051,7.99"/>
	<path style="fill-rule:evenodd;clip-rule:evenodd;fill:#FFFFFF;" d="M42.379,7.53c1.24,0.638,1.24,1.771,0,2.551
		c-0.992,0.496-2.623,0.638-3.721,0.106c-4.748,2.835-4.748,2.835-4.748,2.835c0.992,0.638,1.488,1.523,1.629,2.303
		c6.592,0,6.592,0,6.592,0c0.248-0.779,1.488-1.417,2.977-1.417c0.85,0,1.594,0.142,2.09,0.496c0.637,0.39,0.992,0.779,0.992,1.275
		c0,1.027-1.348,1.807-3.082,1.807c-0.744,0-1.631-0.248-2.127-0.496c-0.354-0.284-0.744-0.673-0.85-0.921c-6.592,0-6.592,0-6.592,0
		c-0.141,0.78-0.637,1.666-1.629,2.303c4.748,2.799,4.748,2.799,4.748,2.799c1.098-0.496,2.729-0.496,3.826,0.142
		c1.135,0.78,1.135,1.913,0,2.551c-1.24,0.78-3.082,0.78-4.322,0c-0.992-0.638-1.135-1.523-0.391-2.303
		c-4.605-2.657-4.605-2.657-4.605-2.657c-1.24,0.496-2.48,0.886-3.969,0.886c0.142,3.968,0.142,3.968,0.142,3.968
		c0.496,0,1.099,0.249,1.488,0.497c0.496,0.248,0.852,0.779,0.852,1.275c0,0.886-1.348,1.771-2.977,1.771
		c-0.851,0-1.595-0.248-2.091-0.496c-0.638-0.39-0.992-0.779-0.992-1.275c0-0.886,1.099-1.666,2.48-1.772c0-3.968,0-3.968,0-3.968
		c-1.382,0-2.729-0.39-3.862-0.886c-4.712,2.657-4.712,2.657-4.712,2.657c0.85,0.78,0.602,1.665-0.39,2.303
		c-1.099,0.78-3.083,0.78-4.217,0c-1.24-0.638-1.24-1.771,0-2.551c0.992-0.638,2.622-0.638,3.862-0.142
		c4.606-2.799,4.606-2.799,4.606-2.799c-1.028-0.638-1.524-1.523-1.63-2.303c-6.591,0-6.591,0-6.591,0
		c-0.354,0.78-1.488,1.417-2.977,1.417c-0.85,0-1.594-0.248-2.09-0.496c-0.638-0.39-1.027-0.779-1.027-1.311
		c0-0.992,1.382-1.771,3.118-1.771c0.744,0,1.63,0.142,2.126,0.496c0.354,0.283,0.744,0.531,0.851,0.921c6.591,0,6.591,0,6.591,0
		c0.106-0.779,0.602-1.665,1.63-2.303c-4.748-2.835-4.748-2.835-4.748-2.835c-1.24,0.532-2.835,0.39-3.827-0.106
		c-1.24-0.779-1.24-1.913,0-2.551c1.099-0.78,3.083-0.78,4.217,0c1.098,0.496,1.24,1.523,0.496,2.161
		c4.606,2.799,4.606,2.799,4.606,2.799c1.24-0.496,2.48-0.886,3.968-0.886c-0.142-3.969-0.142-3.969-0.142-3.969
		c-0.496-0.106-1.099-0.248-1.488-0.496c-0.496-0.39-0.851-0.779-0.851-1.275c0-1.027,1.347-1.807,2.977-1.807
		c0.85,0,1.595,0.142,2.091,0.532c0.637,0.39,0.992,0.779,0.992,1.275c0,0.886-1.1,1.666-2.481,1.771c0,3.969,0,3.969,0,3.969
		c1.381,0,2.729,0.39,3.862,0.886c4.713-2.799,4.713-2.799,4.713-2.799c-0.85-0.638-0.744-1.665,0.391-2.161
		C39.26,6.75,41.244,6.75,42.379,7.53L42.379,7.53L42.379,7.53"/>
	<path style="fill-rule:evenodd;clip-rule:evenodd;fill:#FFFFFF;" d="M22.429,39.136c0,1.771,0,1.771,0,1.771
		c-0.886,0-0.886,0-0.886,0c0-5.103,0-5.103,0-5.103c1.984,0,1.984,0,1.984,0c0.46,0,0.779,0.142,0.992,0.531
		c0.319,0.248,0.425,0.638,0.425,1.134c0,0.39-0.106,0.78-0.319,1.028c-0.212,0.39-0.531,0.638-1.098,0.638H22.429L22.429,39.136z
		 M22.429,38.25c0.886,0,0.886,0,0.886,0c0.425,0,0.673-0.248,0.673-0.78c0-0.248,0-0.496-0.248-0.638
		c-0.106,0-0.319-0.106-0.531-0.106c-0.78,0-0.78,0-0.78,0V38.25L22.429,38.25z"/>
	<path style="fill-rule:evenodd;clip-rule:evenodd;fill:#FFFFFF;" d="M27.142,39.916l-0.461,0.992h-1.169l1.913-5.103h1.311
		l1.879,5.103h-1.241l-0.249-0.992H27.142L27.142,39.916z M28.028,36.939l-0.603,2.02h1.311L28.028,36.939L28.028,36.939
		L28.028,36.939z"/>
	<path style="fill-rule:evenodd;clip-rule:evenodd;fill:#FFFFFF;" d="M31.182,40.908c0-5.103,0-5.103,0-5.103
		c1.984,0,1.984,0,1.984,0c0.709,0,1.311,0.283,1.664,0.921c0.213,0.354,0.32,0.886,0.32,1.524c0,0.744-0.107,1.275-0.461,1.771
		c-0.355,0.638-0.814,0.886-1.523,0.886H31.182L31.182,40.908z M32.139,36.726c0,3.296,0,3.296,0,3.296c0.92,0,0.92,0,0.92,0
		c0.355,0,0.709-0.106,0.816-0.496c0.248-0.248,0.248-0.638,0.248-1.17c0-1.134-0.355-1.63-1.064-1.63H32.139L32.139,36.726z"/>
</g>
</svg>