<?xml version="1.0" encoding="iso-8859-1"?>
<!DOCTYPE svg PUBLIC "-//W3C//DTD SVG 1.1//EN" "http://www.w3.org/Graphics/SVG/1.1/DTD/svg11.dtd">
<svg version="1.1" xmlns="http://www.w3.org/2000/svg" xmlns:xlink="http://www.w3.org/1999/xlink" width="98" height="58" viewBox="0 0 98 58">
<g>
	<polygon style="fill-rule:evenodd;clip-rule:evenodd;fill:#273670;" points="59.229,46.783 98.095,28.376 98.095,39.16 
		59.229,57.52 59.229,46.783 	"/>
	<polygon style="fill-rule:evenodd;clip-rule:evenodd;fill:#4C6AA6;" points="0.925,18.79 39.793,0 98.095,28.04 59.285,46.783 
		0.925,18.79 	"/>
	<polygon style="fill-rule:evenodd;clip-rule:evenodd;fill:#3A518C;" points="59.229,46.734 59.229,57.52 0.925,30.006 
		0.925,19.173 59.229,46.734 	"/>
	<polygon style="fill-rule:evenodd;clip-rule:evenodd;fill:#273670;" points="10.179,32.931 10.179,33.744 2.776,30.006 
		2.776,29.143 10.179,32.931 	"/>
	<polygon style="fill-rule:evenodd;clip-rule:evenodd;fill:#273670;" points="12.956,33.073 12.956,33.744 11.105,32.931 
		11.105,32.21 12.956,33.073 	"/>
	<polygon style="fill-rule:evenodd;clip-rule:evenodd;fill:#273670;" points="15.385,32.882 15.385,33.122 15.732,33.313 
		15.732,34.512 13.881,33.553 13.881,32.354 14.228,32.546 14.228,32.21 15.385,32.882 	"/>
	<path style="fill-rule:evenodd;clip-rule:evenodd;fill:#95ACD9;" d="M13.881,32.21l1.851,0.96v2.876l-1.851-0.911V32.21
		L13.881,32.21z M15.501,35.566v-0.815l-1.273-0.622v0.766l0.231,0.145v0.144l0.81,0.431v-0.191L15.501,35.566L15.501,35.566z
		 M15.501,34.272v-0.815l-0.232-0.144V33.17l-0.81-0.433v0.24l-0.231-0.144v0.768L15.501,34.272L15.501,34.272z"/>
	<polygon style="fill-rule:evenodd;clip-rule:evenodd;fill:#273670;" points="15.732,34.751 15.732,35.949 15.385,35.758 
		15.385,36.046 14.228,35.422 14.228,35.183 13.881,34.991 13.881,33.744 15.732,34.751 	"/>
	<polygon style="fill-rule:evenodd;clip-rule:evenodd;fill:#273670;" points="12.956,33.888 12.956,34.512 11.105,33.744 
		11.105,32.978 12.956,33.888 	"/>
	<path style="fill-rule:evenodd;clip-rule:evenodd;fill:#273670;" d="M2.313,29.239c0.29,0.096,0.463,0.287,0.463,0.479
		c0,0.145-0.173,0.192-0.463,0.145c-0.231-0.096-0.462-0.288-0.462-0.479C1.851,29.239,2.082,29.143,2.313,29.239"/>
	<polygon style="fill-rule:evenodd;clip-rule:evenodd;fill:#273670;" points="48.121,45.536 48.758,45.248 49.048,45.776 
		48.584,46.016 48.121,45.536 	"/>
	<polygon style="fill-rule:evenodd;clip-rule:evenodd;fill:#212859;" points="48.121,44.002 49.048,43.714 49.048,44.961 
		48.121,45.248 48.121,44.002 	"/>
	<polygon style="fill-rule:evenodd;clip-rule:evenodd;fill:#4C6AA6;" points="49.048,45.536 49.51,45.248 51.822,46.543 
		51.359,46.783 49.048,45.536 	"/>
	<path style="fill-rule:evenodd;clip-rule:evenodd;fill:#212859;" d="M49.972,45.392L49.972,45.392L49.972,45.392L49.972,45.392
		L49.972,45.392L49.972,45.392L49.972,45.392L49.972,45.392L49.972,45.392L49.972,45.392c0-0.047,0-0.047,0-0.047l0,0l0,0l0,0l0,0
		l0,0l0,0l0,0l0,0l0,0l0,0l0,0l0,0l0,0l0,0c0-0.048,0-0.048,0-0.048s0,0-0.057,0l0,0l0,0l0,0l0,0l0,0l0,0l0,0
		c0-0.049,0-0.049,0-0.049c-0.059,0-0.059,0-0.059,0l0,0l0,0l0,0l0,0l0,0l0,0c-0.058,0-0.058,0-0.058,0l0,0l0,0l0,0l0,0l0,0l0,0l0,0
		l0,0l0,0l0,0l0,0c-0.694,0.24-0.694,0.24-0.694,0.24l0,0c0,0-0.057,0-0.057,0.048c0,0.383,0,0.383,0,0.383
		c0,0.049,0.115,0.097,0.173,0.097s0.115,0,0.115,0c0.232-0.048,0.463-0.144,0.636-0.191l0,0l0,0l0,0l0,0l0,0l0,0l0,0l0,0v-0.048
		l0,0l0,0l0,0l0,0C49.972,45.392,49.972,45.392,49.972,45.392L49.972,45.392L49.972,45.392"/>
	<path style="fill-rule:evenodd;clip-rule:evenodd;fill:#212859;" d="M50.898,44.626L50.898,44.626L50.898,44.626L50.898,44.626
		L50.898,44.626L50.898,44.626L50.898,44.626L50.898,44.626L50.898,44.626L50.898,44.626L50.898,44.626L50.898,44.626L50.898,44.626
		L50.898,44.626c0,0,0,0,0-0.049l0,0l0,0l0,0l0,0l0,0l0,0l0,0l0,0l0,0l0,0l0,0c0,0,0,0-0.058,0l0,0l0,0l0,0c0-0.048,0-0.048,0-0.048
		l0,0l0,0l0,0c0,0,0,0-0.059,0l0,0l0,0l0,0l0,0c0-0.048,0-0.048,0-0.048l0,0l0,0c-0.058,0-0.058,0-0.058,0l0,0l0,0l0,0l0,0l0,0l0,0
		l0,0l0,0l0,0l0,0l0,0c-0.693,0.239-0.693,0.239-0.693,0.239l0,0c-0.06,0-0.06,0.049-0.06,0.049c0,0.384,0,0.384,0,0.384
		s0.06,0.047,0.174,0.095c0.058,0,0.117,0,0.117,0c0.23-0.048,0.404-0.143,0.636-0.191l0,0c0-0.048,0-0.048,0-0.048l0,0l0,0l0,0l0,0
		l0,0l0,0l0,0l0,0l0,0l0,0l0,0C50.898,44.626,50.898,44.626,50.898,44.626L50.898,44.626L50.898,44.626"/>
	<path style="fill-rule:evenodd;clip-rule:evenodd;fill:#273670;" d="M48.121,42.948l3.701,1.964v2.638l-3.701-1.822V42.948
		L48.121,42.948z M51.478,46.734v-1.102l-0.579-0.815l-1.678-0.911l-0.81,0.24v1.102l0.404,0.479l2.371,1.198L51.478,46.734
		L51.478,46.734z"/>
	<polygon style="fill-rule:evenodd;clip-rule:evenodd;fill:#4C6AA6;" points="48.121,43.236 48.7,42.948 52.75,45.009 
		52.227,45.248 48.121,43.236 	"/>
	<polygon style="fill-rule:evenodd;clip-rule:evenodd;fill:#212859;" points="51.822,44.77 52.75,44.481 52.75,47.311 51.822,47.55 
		51.822,44.77 	"/>
	<polygon style="fill-rule:evenodd;clip-rule:evenodd;fill:#4C6AA6;" points="44.42,41.701 44.883,41.414 47.196,42.708 
		46.791,42.948 44.42,41.701 	"/>
	<polygon style="fill-rule:evenodd;clip-rule:evenodd;fill:#212859;" points="46.271,43.188 47.196,42.948 47.196,44.29 
		46.271,44.481 46.271,43.188 	"/>
	<polygon style="fill-rule:evenodd;clip-rule:evenodd;fill:#283D83;" points="44.42,43.522 44.42,42.181 46.271,43.188 
		46.271,44.481 44.42,43.522 	"/>
	<polygon style="fill-rule:evenodd;clip-rule:evenodd;fill:#4C6AA6;" points="44.42,42.324 44.535,42.181 46.271,43.522 
		45.866,43.714 44.42,42.324 	"/>
	<polygon style="fill-rule:evenodd;clip-rule:evenodd;fill:#273670;" points="46.271,43.331 46.271,44.481 44.42,43.331 
		44.42,42.181 46.271,43.331 	"/>
	<polygon style="fill-rule:evenodd;clip-rule:evenodd;fill:#2D3D7C;" points="0.925,30.245 1.562,29.91 36.091,45.728 
		35.397,46.016 0.925,30.245 	"/>
	<polygon style="fill-rule:evenodd;clip-rule:evenodd;fill:#212859;" points="38.868,38.683 39.793,38.347 39.793,41.894 
		38.868,42.181 38.868,38.683 	"/>
	<polygon style="fill-rule:evenodd;clip-rule:evenodd;fill:#2D3D7C;" points="38.868,42.516 39.562,42.181 53.675,48.795 
		53.037,49.083 38.868,42.516 	"/>
	<path style="fill-rule:evenodd;clip-rule:evenodd;fill:#314386;" d="M0.058,19.173c58.243,27.562,58.243,27.562,58.243,27.562
		c0,10.785,0,10.785,0,10.785C0,30.006,0,30.006,0,30.006L0.058,19.173L0.058,19.173z M0.462,29.91
		c34.53,16.297,34.53,16.297,34.53,16.297c-0.058-0.144-0.752-2.493-5.437-5.991c-2.949-2.157-8.502-4.889-10.584-5.848
		c-0.521-0.239-0.81-0.384-0.81-0.384C0.462,25.644,0.462,25.644,0.462,25.644C0.462,29.91,0.462,29.91,0.462,29.91 M38.578,38.395
		c0,3.835,0,3.835,0,3.835c13.305,6.279,13.305,6.279,13.305,6.279c0-3.788,0-3.788,0-3.788
		C38.578,38.395,38.578,38.395,38.578,38.395"/>
	<path style="fill-rule:evenodd;clip-rule:evenodd;fill:#212859;" d="M16.079,27.465c-0.116,0-0.173,0-0.173,0.145
		c0,5.08,0,5.08,0,5.08c0,0.097,0.057,0.241,0.173,0.288c0.058,0.048,0.174,0,0.174-0.144c0-5.081,0-5.081,0-5.081
		C16.252,27.657,16.137,27.514,16.079,27.465L16.079,27.465z M15.443,27.13c-0.116,0-0.231,0.048-0.231,0.144
		c0,5.129,0,5.129,0,5.129c0,0.096,0.116,0.24,0.174,0.24c0.116,0.047,0.173,0,0.173-0.097c0.058-5.081,0.058-5.081,0.058-5.081
		C15.616,27.321,15.501,27.226,15.443,27.13L15.443,27.13z M16.715,27.801c-0.116-0.048-0.173,0-0.173,0.097
		c0,5.128,0,5.128,0,5.128c0,0.097,0.057,0.191,0.173,0.288c0.116,0,0.173-0.048,0.173-0.144c0-5.13,0-5.13,0-5.13
		C16.889,27.944,16.831,27.801,16.715,27.801L16.715,27.801z M24.754,31.588c-0.115,0-0.173,0.048-0.173,0.143
		c0,0.815,0,0.815,0,0.815c-0.348-0.144-0.348-0.144-0.348-0.144c0-0.814,0-0.814,0-0.814c0-0.144-0.057-0.24-0.173-0.288
		c-0.058-0.049-0.174,0-0.174,0.096c0,0.814,0,0.814,0,0.814c-0.347-0.144-0.347-0.144-0.347-0.144c0-0.815,0-0.815,0-0.815
		c0-0.095-0.058-0.239-0.116-0.239c-0.116-0.096-0.173,0-0.173,0.097c0,0.815,0,0.815,0,0.815c-0.348-0.193-0.348-0.193-0.348-0.193
		c0-0.814,0-0.814,0-0.814c0-0.048-0.058-0.191-0.173-0.239c-0.058-0.048-0.174,0-0.174,0.097c0,0.814,0,0.814,0,0.814
		c-0.348-0.144-0.348-0.144-0.348-0.144c0-0.815,0-0.815,0-0.815c0-0.096-0.057-0.239-0.116-0.288c-0.115,0-0.173,0.049-0.173,0.145
		c0,0.814,0,0.814,0,0.814c-0.347-0.144-0.347-0.144-0.347-0.144c0-0.815,0-0.815,0-0.815c0-0.144-0.058-0.239-0.174-0.287
		c-0.116-0.048-0.173,0-0.173,0.096c0,0.815,0,0.815,0,0.815c-0.289-0.145-0.289-0.145-0.289-0.145c0-0.814,0-0.814,0-0.814
		c0-0.096-0.116-0.239-0.231-0.239c-0.059-0.096-0.116,0-0.116,0.096c0,0.814,0,0.814,0,0.814c-0.348-0.191-0.348-0.191-0.348-0.191
		c0-0.814,0-0.814,0-0.814c0-0.097-0.057-0.192-0.174-0.24c-0.057-0.048-0.173,0-0.173,0.096c0,0.814,0,0.814,0,0.814
		c-0.289-0.144-0.289-0.144-0.289-0.144c0-0.814,0-0.814,0-0.814c0-0.096-0.116-0.24-0.174-0.287c-0.116,0-0.173,0.047-0.173,0.144
		c0,0.814,0,0.814,0,0.814c-0.348-0.144-0.348-0.144-0.348-0.144c0-0.814,0-0.814,0-0.814c0-0.145-0.058-0.24-0.116-0.288
		c-0.116-0.048-0.231,0-0.231,0.096c0,0.814,0,0.814,0,0.814c-0.29-0.144-0.29-0.144-0.29-0.144c0-0.814,0-0.814,0-0.814
		c0-0.096-0.058-0.24-0.174-0.288c-0.115-0.048-0.173,0-0.173,0.145c0,0.814,0,0.814,0,0.814c-0.347-0.191-0.347-0.191-0.347-0.191
		c0-0.863,0-0.863,0-0.863c0-0.096-0.115-0.24-0.173-0.24c-0.116-0.096-0.173,0-0.173,0.049c-0.058,5.129-0.058,5.129-0.058,5.129
		c0,0.144,0.116,0.239,0.174,0.288c0.116,0.048,0.231,0,0.231-0.097c0-1.054,0-1.054,0-1.054c0.347,0.191,0.347,0.191,0.347,0.191
		c0,1.007,0,1.007,0,1.007c0,0.095,0.058,0.191,0.116,0.238c0.115,0.05,0.173,0,0.173-0.095c0-1.007,0-1.007,0-1.007
		c0.348,0.145,0.348,0.145,0.348,0.145c0,1.007,0,1.007,0,1.007c0,0.095,0.057,0.238,0.173,0.286
		c0.116,0.049,0.174-0.048,0.174-0.095c0-1.056,0-1.056,0-1.056c0.348,0.192,0.348,0.192,0.348,0.192c0,1.007,0,1.007,0,1.007
		c0,0.096,0.057,0.239,0.173,0.239c0.058,0.048,0.115,0,0.115-0.097c0-1.007,0-1.007,0-1.007c0.348,0.145,0.348,0.145,0.348,0.145
		c0,1.007,0,1.007,0,1.007c0,0.096,0.116,0.24,0.173,0.288c0.117,0,0.174,0,0.174-0.145c0-0.959,0-0.959,0-0.959
		c0.29,0.144,0.29,0.144,0.29,0.144c0,1.007,0,1.007,0,1.007c0,0.097,0.115,0.191,0.174,0.24c0.115,0.048,0.231,0,0.231-0.096
		c0-1.007,0-1.007,0-1.007c0.289,0.144,0.289,0.144,0.289,0.144c0,1.007,0,1.007,0,1.007c0,0.145,0.058,0.239,0.173,0.288
		c0.058,0.048,0.174,0,0.174-0.097c0-1.054,0-1.054,0-1.054c0.289,0.191,0.289,0.191,0.289,0.191c0,1.007,0,1.007,0,1.007
		c0,0.095,0.058,0.239,0.174,0.239c0.116,0.049,0.173,0,0.173-0.096c0-1.007,0-1.007,0-1.007c0.348,0.145,0.348,0.145,0.348,0.145
		c0,1.007,0,1.007,0,1.007c0,0.095,0.057,0.239,0.174,0.286c0.057,0.049,0.173,0,0.173-0.144c0-0.958,0-0.958,0-0.958
		c0.348,0.144,0.348,0.144,0.348,0.144c0,1.007,0,1.007,0,1.007c0,0.096,0.057,0.191,0.115,0.287c0.116,0,0.173-0.048,0.173-0.145
		c0-1.006,0-1.006,0-1.006c0.347,0.192,0.347,0.192,0.347,0.192c0,0.958,0,0.958,0,0.958c0,0.144,0.058,0.24,0.174,0.288
		c0.058,0.047,0.116,0,0.116-0.097c0.057-1.007,0.057-1.007,0.057-1.007c0.348,0.145,0.348,0.145,0.348,0.145
		c0,1.056,0,1.056,0,1.056c0,0.143,0.058,0.238,0.173,0.286c0.058,0.049,0.116,0,0.116-0.095c0.058-5.13,0.058-5.13,0.058-5.13
		C24.928,31.779,24.813,31.684,24.754,31.588L24.754,31.588z M17.93,32.498c-0.347-0.144-0.347-0.144-0.347-0.144
		c0-2.972,0-2.972,0-2.972c0.347,0.144,0.347,0.144,0.347,0.144V32.498L17.93,32.498z M18.566,32.834
		c-0.348-0.191-0.348-0.191-0.348-0.191c0.058-2.925,0.058-2.925,0.058-2.925c0.29,0.145,0.29,0.145,0.29,0.145V32.834
		L18.566,32.834z M19.261,33.122c-0.348-0.145-0.348-0.145-0.348-0.145c0-2.924,0-2.924,0-2.924
		c0.348,0.144,0.348,0.144,0.348,0.144V33.122L19.261,33.122z M19.896,33.457c-0.348-0.144-0.348-0.144-0.348-0.144
		c0.059-2.973,0.059-2.973,0.059-2.973c0.289,0.145,0.289,0.145,0.289,0.145V33.457L19.896,33.457z M20.533,33.744
		c-0.29-0.143-0.29-0.143-0.29-0.143c0-2.973,0-2.973,0-2.973c0.348,0.145,0.348,0.145,0.348,0.145L20.533,33.744L20.533,33.744z
		 M21.227,34.08c-0.289-0.192-0.289-0.192-0.289-0.192c0-2.923,0-2.923,0-2.923c0.289,0.144,0.289,0.144,0.289,0.144V34.08
		L21.227,34.08z M21.863,34.368c-0.289-0.145-0.289-0.145-0.289-0.145c0-2.973,0-2.973,0-2.973c0.347,0.193,0.347,0.193,0.347,0.193
		L21.863,34.368L21.863,34.368z M22.557,34.703c-0.348-0.144-0.348-0.144-0.348-0.144c0-2.972,0-2.972,0-2.972
		c0.348,0.143,0.348,0.143,0.348,0.143V34.703L22.557,34.703z M23.251,34.991c-0.348-0.144-0.348-0.144-0.348-0.144
		c0-2.973,0-2.973,0-2.973c0.348,0.144,0.348,0.144,0.348,0.144V34.991L23.251,34.991z M23.887,35.327
		c-0.347-0.192-0.347-0.192-0.347-0.192c0-2.925,0-2.925,0-2.925c0.347,0.145,0.347,0.145,0.347,0.145V35.327L23.887,35.327z
		 M24.582,35.613c-0.348-0.143-0.348-0.143-0.348-0.143c0-2.973,0-2.973,0-2.973c0.348,0.191,0.348,0.191,0.348,0.191V35.613
		L24.582,35.613z M14.112,26.555c-0.115-0.048-0.174,0-0.174,0.096c0,5.129,0,5.129,0,5.129c0,0.096,0.059,0.192,0.116,0.239
		c0.116,0.048,0.174,0,0.174-0.095c0.058-5.129,0.058-5.129,0.058-5.129C14.286,26.698,14.17,26.603,14.112,26.555L14.112,26.555z
		 M13.418,26.22c-0.057-0.049-0.173,0.047-0.173,0.096c0,5.129,0,5.129,0,5.129c0,0.095,0.058,0.239,0.173,0.286
		c0.059,0.049,0.116,0,0.174-0.143c0-5.081,0-5.081,0-5.081C13.592,26.411,13.534,26.267,13.418,26.22L13.418,26.22z M14.749,26.842
		c-0.058-0.047-0.173,0-0.173,0.145c0,5.08,0,5.08,0,5.08c0,0.144,0.057,0.24,0.173,0.288c0.058,0.048,0.174,0,0.174-0.095
		c0-5.13,0-5.13,0-5.13C14.922,26.986,14.864,26.891,14.749,26.842L14.749,26.842z M12.782,25.932c-0.116-0.048-0.174,0-0.174,0.096
		c0,5.129,0,5.129,0,5.129c0,0.095,0.058,0.239,0.116,0.239c0.116,0.049,0.174,0,0.174-0.096c0-5.129,0-5.129,0-5.129
		C12.898,26.075,12.84,25.979,12.782,25.932L12.782,25.932z M25.392,31.924c-0.117-0.049-0.174,0-0.174,0.095c0,5.13,0,5.13,0,5.13
		c0,0.096,0.057,0.239,0.174,0.239c0.115,0.048,0.173,0,0.173-0.097c0-5.081,0-5.081,0-5.081
		C25.564,32.115,25.507,31.972,25.392,31.924L25.392,31.924z M31.407,34.751c-0.117-0.048-0.174,0-0.174,0.097
		c0,5.896,0,5.896,0,5.896c0,0.095,0.057,0.239,0.116,0.287c0.115,0.049,0.23,0,0.23-0.096c0-5.943,0-5.943,0-5.943
		C31.579,34.942,31.464,34.8,31.407,34.751L31.407,34.751z M29.382,33.841c-0.059-0.097-0.174,0-0.174,0.097
		c0,5.464,0,5.464,0,5.464c0,0.095,0.115,0.191,0.174,0.238c0.115,0.05,0.173,0,0.173-0.095c0.058-5.465,0.058-5.465,0.058-5.465
		C29.613,33.984,29.498,33.841,29.382,33.841L29.382,33.841z M28.745,33.505c-0.115-0.048-0.173,0-0.173,0.097
		c0,5.416,0,5.416,0,5.416c0,0.096,0.058,0.191,0.173,0.239c0.059,0.048,0.117,0,0.117-0.097c0.057-5.416,0.057-5.416,0.057-5.416
		C28.919,33.649,28.862,33.553,28.745,33.505L28.745,33.505z M30.076,34.129c-0.116-0.049-0.174,0-0.174,0.095
		c0,5.608,0,5.608,0,5.608c0,0.096,0.058,0.192,0.174,0.24c0.058,0.048,0.116,0,0.116-0.097c0.058-5.561,0.058-5.561,0.058-5.561
		C30.25,34.272,30.134,34.176,30.076,34.129L30.076,34.129z M30.712,34.415c-0.116,0-0.174,0.049-0.174,0.145
		c0,5.704,0,5.704,0,5.704c0,0.144,0.058,0.239,0.174,0.288c0.116,0.048,0.173,0,0.173-0.097c0-5.752,0-5.752,0-5.752
		C30.885,34.608,30.828,34.512,30.712,34.415L30.712,34.415z M28.052,33.17c-0.058,0-0.115,0-0.115,0.144
		c-0.059,5.272-0.059,5.272-0.059,5.272c0,0.144,0.059,0.239,0.174,0.288c0.058,0.048,0.116,0,0.116-0.097
		c0.057-5.32,0.057-5.32,0.057-5.32C28.225,33.361,28.167,33.217,28.052,33.17L28.052,33.17z M26.722,32.546
		c-0.116-0.048-0.174,0-0.174,0.144c0,5.129,0,5.129,0,5.129c0,0.144,0.058,0.24,0.174,0.288c0.057,0.048,0.173,0,0.173-0.095
		c0-5.178,0-5.178,0-5.178C26.895,32.689,26.837,32.595,26.722,32.546L26.722,32.546z M27.415,32.882
		c-0.116-0.048-0.173,0-0.173,0.096c0,5.226,0,5.226,0,5.226c0,0.144,0.057,0.238,0.115,0.286c0.116,0.049,0.174,0,0.174-0.095
		c0.058-5.225,0.058-5.225,0.058-5.225C27.589,33.025,27.473,32.931,27.415,32.882L27.415,32.882z M26.027,32.26
		c-0.058-0.05-0.116,0-0.116,0.095c-0.058,5.128-0.058,5.128-0.058,5.128c0,0.097,0.116,0.241,0.174,0.288
		c0.116,0.048,0.174,0,0.174-0.095c0.057-5.178,0.057-5.178,0.057-5.178C26.258,32.402,26.143,32.26,26.027,32.26L26.027,32.26z
		 M4.165,21.905c-0.116-0.096-0.174,0-0.174,0.048c0,5.129,0,5.129,0,5.129c0,0.144,0.058,0.239,0.116,0.287
		c0.115,0.049,0.231,0,0.231-0.096c0-5.128,0-5.128,0-5.128C4.337,22.049,4.28,21.905,4.165,21.905L4.165,21.905z M5.495,22.48
		c-0.116,0-0.173,0-0.173,0.144c0,5.129,0,5.129,0,5.129c0,0.048,0.057,0.191,0.115,0.24c0.116,0.047,0.174,0,0.174-0.096
		c0.058-5.13,0.058-5.13,0.058-5.13C5.668,22.672,5.61,22.577,5.495,22.48L5.495,22.48z M3.47,21.57
		c-0.058-0.048-0.115,0-0.115,0.096c-0.059,5.129-0.059,5.129-0.059,5.129c0,0.096,0.059,0.191,0.174,0.287
		c0.116,0,0.173-0.048,0.173-0.145c0-5.128,0-5.128,0-5.128C3.643,21.761,3.586,21.57,3.47,21.57L3.47,21.57z M32.1,35.086
		c-0.115-0.047-0.173,0-0.173,0.097c-0.058,6.04-0.058,6.04-0.058,6.04c0,0.096,0.058,0.239,0.174,0.287
		c0.115,0,0.173,0,0.173-0.145c0-6.038,0-6.038,0-6.038C32.216,35.23,32.158,35.135,32.1,35.086L32.1,35.086z M4.801,22.193
		c-0.059-0.048-0.116,0-0.116,0.096c-0.058,5.129-0.058,5.129-0.058,5.129c0,0.096,0.058,0.239,0.174,0.239
		c0.115,0.096,0.173,0,0.173-0.096c0-5.129,0-5.129,0-5.129C4.974,22.337,4.916,22.241,4.801,22.193L4.801,22.193z M2.833,21.234
		c-0.116,0-0.173,0-0.173,0.143c0,5.082,0,5.082,0,5.082c0,0.096,0.057,0.239,0.173,0.287c0.058,0.049,0.174,0,0.174-0.096
		c0-5.129,0-5.129,0-5.129C3.007,21.426,2.892,21.282,2.833,21.234L2.833,21.234z M0.231,19.988C0.116,19.94,0,20.036,0,20.132
		c0,5.081,0,5.081,0,5.081c0,0.144,0.116,0.239,0.173,0.287c0.117,0.048,0.174,0,0.174-0.144c0-5.081,0-5.081,0-5.081
		C0.347,20.179,0.29,20.036,0.231,19.988L0.231,19.988z M0.867,20.323c-0.116-0.047-0.173,0-0.173,0.096c0,5.129,0,5.129,0,5.129
		c0,0.096,0.057,0.192,0.173,0.288c0.058,0,0.116,0,0.116-0.144c0.058-5.129,0.058-5.129,0.058-5.129
		C1.041,20.467,0.983,20.372,0.867,20.323L0.867,20.323z M2.197,20.946c-0.115-0.047-0.173,0-0.173,0.096
		c-0.058,5.128-0.058,5.128-0.058,5.128c0,0.096,0.116,0.24,0.231,0.24c0.059,0.048,0.116,0,0.174-0.096c0-5.081,0-5.081,0-5.081
		C2.371,21.09,2.256,20.995,2.197,20.946L2.197,20.946z M1.503,20.611c-0.058-0.048-0.173,0-0.173,0.144c0,5.081,0,5.081,0,5.081
		c0,0.144,0.116,0.239,0.173,0.287c0.116,0.048,0.173,0,0.173-0.096c0-5.128,0-5.128,0-5.128C1.677,20.755,1.62,20.659,1.503,20.611
		L1.503,20.611z M7.461,23.439c-0.058-0.049-0.174,0-0.174,0.096c0,5.129,0,5.129,0,5.129c0,0.096,0.059,0.191,0.174,0.287
		c0.116,0,0.174,0,0.174-0.144c0-5.129,0-5.129,0-5.129C7.635,23.583,7.577,23.486,7.461,23.439L7.461,23.439z M10.758,25.021
		c-0.058-0.097-0.116,0-0.116,0.047c-0.058,5.129-0.058,5.129-0.058,5.129c0,0.144,0.058,0.24,0.174,0.288
		c0.115,0.048,0.174,0,0.174-0.096c0-5.13,0-5.13,0-5.13C10.932,25.164,10.873,25.021,10.758,25.021L10.758,25.021z M10.122,24.686
		c-0.116-0.048-0.174,0-0.174,0.096C9.891,29.91,9.891,29.91,9.891,29.91c0,0.096,0.115,0.191,0.231,0.287
		c0.058,0,0.174-0.048,0.174-0.144c0-5.129,0-5.129,0-5.129C10.295,24.829,10.179,24.686,10.122,24.686L10.122,24.686z M9.427,24.35
		c-0.057,0-0.173,0-0.173,0.144c0,5.081,0,5.081,0,5.081c0,0.097,0.116,0.24,0.173,0.288c0.116,0.048,0.174,0,0.174-0.096
		c0.058-5.129,0.058-5.129,0.058-5.129C9.659,24.542,9.543,24.397,9.427,24.35L9.427,24.35z M6.188,22.816
		c-0.116-0.049-0.173,0-0.173,0.096C5.957,28.04,5.957,28.04,5.957,28.04c0,0.096,0.058,0.24,0.174,0.24
		c0.116,0.048,0.173,0,0.173-0.096c0-5.129,0-5.129,0-5.129C6.304,22.96,6.247,22.864,6.188,22.816L6.188,22.816z M11.452,25.309
		c-0.116-0.049-0.174,0-0.174,0.096c0,5.129,0,5.129,0,5.129c0,0.096,0.058,0.24,0.115,0.24c0.117,0.047,0.174,0,0.174-0.097
		c0-5.129,0-5.129,0-5.129C11.567,25.452,11.51,25.356,11.452,25.309L11.452,25.309z M8.792,24.063
		c-0.116-0.048-0.174,0-0.174,0.096c0,5.129,0,5.129,0,5.129c0,0.096,0.058,0.239,0.174,0.239c0.115,0.048,0.174,0,0.174-0.096
		c0-5.081,0-5.081,0-5.081C8.965,24.206,8.907,24.11,8.792,24.063L8.792,24.063z M12.088,25.596c-0.057-0.048-0.116,0-0.116,0.145
		c-0.057,5.128-0.057,5.128-0.057,5.128c0,0.048,0.057,0.193,0.173,0.24c0.058,0.048,0.174,0,0.174-0.097c0-5.128,0-5.128,0-5.128
		C12.262,25.788,12.204,25.644,12.088,25.596L12.088,25.596z M6.825,23.104c-0.117-0.048-0.174,0.048-0.174,0.096
		c0,5.129,0,5.129,0,5.129c0,0.096,0.057,0.24,0.174,0.288c0.057,0.048,0.115,0,0.115-0.145c0.058-5.081,0.058-5.081,0.058-5.081
		C6.998,23.295,6.94,23.151,6.825,23.104L6.825,23.104z M8.155,23.727c-0.116-0.048-0.174,0-0.174,0.144c0,5.081,0,5.081,0,5.081
		c0,0.145,0.058,0.24,0.174,0.288c0.058,0.048,0.116,0,0.116-0.097c0.057-5.128,0.057-5.128,0.057-5.128
		C8.328,23.87,8.213,23.774,8.155,23.727L8.155,23.727z M45.461,46.016c-0.115-0.048-0.173,0-0.173,0.097c0,5.128,0,5.128,0,5.128
		c0,0.096,0.058,0.239,0.115,0.239c0.115,0.049,0.173,0,0.173-0.095c0.059-5.13,0.059-5.13,0.059-5.13
		C45.635,46.159,45.519,46.063,45.461,46.016L45.461,46.016z M48.815,47.597c-0.115-0.047-0.173,0-0.173,0.097
		c0,5.081,0,5.081,0,5.081c0,0.144,0.058,0.239,0.115,0.288c0.116,0.047,0.173,0,0.173-0.097c0-5.129,0-5.129,0-5.129
		C48.931,47.741,48.874,47.597,48.815,47.597L48.815,47.597z M46.733,46.639c-0.058-0.049-0.115,0-0.115,0.096
		c-0.059,5.13-0.059,5.13-0.059,5.13c0,0.095,0.116,0.191,0.174,0.286c0.116,0,0.231,0,0.231-0.144c0-5.129,0-5.129,0-5.129
		C46.965,46.783,46.85,46.687,46.733,46.639L46.733,46.639z M47.428,46.926c-0.058,0-0.116,0-0.116,0.145
		c-0.058,5.129-0.058,5.129-0.058,5.129c0,0.096,0.058,0.191,0.174,0.239c0.058,0.048,0.173,0,0.173-0.097c0-5.128,0-5.128,0-5.128
		C47.601,47.117,47.544,47.022,47.428,46.926L47.428,46.926z M50.782,48.509c-0.115,0-0.174,0-0.174,0.144c0,5.129,0,5.129,0,5.129
		c0,0.047,0.059,0.191,0.174,0.238c0.059,0.05,0.174,0,0.174-0.095c0-5.13,0-5.13,0-5.13C50.956,48.7,50.898,48.556,50.782,48.509
		L50.782,48.509z M49.451,47.885c-0.057-0.048-0.173,0-0.173,0.097c0,5.128,0,5.128,0,5.128c0,0.145,0.058,0.239,0.173,0.288
		c0.117,0.048,0.174,0,0.174-0.096c0-5.129,0-5.129,0-5.129C49.625,48.029,49.568,47.933,49.451,47.885L49.451,47.885z
		 M50.089,48.221c-0.058-0.048-0.117,0-0.117,0.097c-0.057,5.128-0.057,5.128-0.057,5.128c0,0.095,0.116,0.239,0.174,0.239
		c0.114,0.097,0.174,0,0.174-0.096c0.057-5.08,0.057-5.08,0.057-5.08C50.319,48.364,50.203,48.268,50.089,48.221L50.089,48.221z
		 M48.121,47.262c-0.115-0.048-0.173,0-0.173,0.144c0,5.081,0,5.081,0,5.081c0,0.097,0.058,0.24,0.116,0.288
		c0.115,0,0.173-0.048,0.173-0.145c0.058-5.08,0.058-5.08,0.058-5.08C48.295,47.453,48.237,47.311,48.121,47.262L48.121,47.262z
		 M43.437,45.057c-0.115-0.048-0.173,0-0.173,0.097c0,5.128,0,5.128,0,5.128c0,0.097,0.058,0.24,0.115,0.288
		c0.115,0,0.231,0,0.231-0.144c0-5.129,0-5.129,0-5.129C43.61,45.248,43.494,45.105,43.437,45.057L43.437,45.057z M42.743,44.721
		c-0.116,0-0.174,0-0.174,0.145c0,5.128,0,5.128,0,5.128c0,0.049,0.058,0.193,0.174,0.24c0.115,0.048,0.173,0,0.173-0.096
		c0-5.129,0-5.129,0-5.129C42.916,44.912,42.858,44.77,42.743,44.721L42.743,44.721z M46.098,46.304
		c-0.059-0.049-0.174,0.048-0.174,0.095c0,5.13,0,5.13,0,5.13c0,0.143,0.115,0.239,0.174,0.287c0.115,0.049,0.173,0,0.173-0.145
		c0-5.081,0-5.081,0-5.081C46.271,46.495,46.213,46.352,46.098,46.304L46.098,46.304z M44.073,45.392
		c-0.059-0.095-0.115,0-0.115,0.097c-0.059,5.081-0.059,5.081-0.059,5.081c0,0.144,0.059,0.239,0.174,0.288
		c0.115,0.048,0.173,0,0.173-0.097c0-5.128,0-5.128,0-5.128C44.246,45.536,44.188,45.392,44.073,45.392L44.073,45.392z
		 M44.768,45.68c-0.059-0.047-0.174,0-0.174,0.145c0,5.081,0,5.081,0,5.081c0,0.095,0.058,0.238,0.174,0.238
		c0.058,0.097,0.115,0,0.115-0.047c0.058-5.129,0.058-5.129,0.058-5.129C44.94,45.824,44.883,45.728,44.768,45.68L44.768,45.68z
		 M52.17,49.18c-0.115-0.097-0.173,0-0.173,0.095c-0.057,5.081-0.057,5.081-0.057,5.081c0,0.145,0.057,0.24,0.172,0.288
		c0.114,0.048,0.175,0,0.175-0.097c0-5.128,0-5.128,0-5.128C52.287,49.323,52.227,49.18,52.17,49.18L52.17,49.18z M56.856,51.385
		c-0.118-0.049-0.233,0-0.233,0.095c0,5.081,0,5.081,0,5.081c0,0.144,0.115,0.24,0.176,0.288c0.114,0.047,0.172,0,0.172-0.097
		c0-5.128,0-5.128,0-5.128C56.971,51.528,56.913,51.385,56.856,51.385L56.856,51.385z M56.161,51.049
		c-0.115-0.049-0.172,0-0.172,0.095c0,5.13,0,5.13,0,5.13c0,0.096,0.057,0.239,0.172,0.287c0.058,0,0.115-0.048,0.115-0.145
		c0.057-5.08,0.057-5.08,0.057-5.08C56.333,51.193,56.276,51.097,56.161,51.049L56.161,51.049z M57.49,51.671
		c-0.114-0.047-0.172,0-0.172,0.097c0,5.128,0,5.128,0,5.128c0,0.145,0.058,0.241,0.172,0.288c0.118,0.048,0.176,0,0.176-0.144
		c0-5.081,0-5.081,0-5.081C57.666,51.815,57.608,51.72,57.49,51.671L57.49,51.671z M55.466,50.713c-0.057,0-0.114,0-0.114,0.145
		c-0.058,5.128-0.058,5.128-0.058,5.128c0,0.048,0.058,0.192,0.172,0.239c0.061,0.049,0.176,0,0.176-0.095c0-5.13,0-5.13,0-5.13
		C55.642,50.905,55.584,50.809,55.466,50.713L55.466,50.713z M58.128,51.959c-0.057,0-0.114,0.048-0.114,0.145
		c-0.061,5.128-0.061,5.128-0.061,5.128c0,0.097,0.118,0.24,0.175,0.24c0.115,0.048,0.173,0,0.173-0.096c0-5.081,0-5.081,0-5.081
		C58.301,52.15,58.243,52.056,58.128,51.959L58.128,51.959z M54.137,50.09c-0.115-0.048-0.172,0.048-0.172,0.097
		c0,5.128,0,5.128,0,5.128c0,0.097,0.057,0.239,0.172,0.288c0.058,0.048,0.175,0,0.175-0.144c0-5.081,0-5.081,0-5.081
		C54.312,50.281,54.194,50.138,54.137,50.09L54.137,50.09z M52.808,49.466c-0.058-0.047-0.176,0-0.176,0.097
		c0,5.129,0,5.129,0,5.129c0,0.096,0.061,0.24,0.176,0.24c0.057,0.095,0.114,0,0.114-0.049c0.058-5.129,0.058-5.129,0.058-5.129
		C52.979,49.61,52.922,49.516,52.808,49.466L52.808,49.466z M42.106,44.435c-0.116-0.049-0.173,0-0.173,0.095
		c0,5.129,0,5.129,0,5.129c0,0.096,0.057,0.24,0.173,0.24c0.058,0.095,0.116,0,0.116-0.097c0.058-5.081,0.058-5.081,0.058-5.081
		C42.28,44.577,42.164,44.481,42.106,44.435L42.106,44.435z M54.832,50.426c-0.115-0.048-0.176,0-0.176,0.096
		c-0.058,5.129-0.058,5.129-0.058,5.129c0,0.095,0.118,0.191,0.176,0.239c0.114,0.049,0.172,0,0.172-0.096c0-5.13,0-5.13,0-5.13
		C54.946,50.569,54.889,50.473,54.832,50.426L54.832,50.426z M51.478,48.844c-0.118-0.049-0.175,0-0.175,0.096c0,5.13,0,5.13,0,5.13
		c0,0.095,0.057,0.191,0.114,0.286c0.118,0,0.176,0,0.176-0.144c0-5.129,0-5.129,0-5.129C51.593,49.035,51.535,48.892,51.478,48.844
		L51.478,48.844z M53.502,49.802c-0.118-0.048-0.232,0-0.232,0.097c0,5.128,0,5.128,0,5.128c0,0.097,0.114,0.191,0.172,0.241
		c0.118,0.047,0.176,0,0.176-0.097c0.058-5.129,0.058-5.129,0.058-5.129C53.675,49.945,53.56,49.851,53.502,49.802L53.502,49.802z
		 M35.397,36.62c-0.115-0.048-0.174,0-0.174,0.144c-0.059,7.43-0.059,7.43-0.059,7.43c0,0.097,0.117,0.241,0.232,0.241
		c0.058,0.047,0.173,0,0.173-0.097c0-7.43,0-7.43,0-7.43C35.57,36.813,35.455,36.669,35.397,36.62L35.397,36.62z M37.422,37.579
		c-0.059-0.048-0.174,0-0.174,0.097c0,8.963,0,8.963,0,8.963c0,0.096,0.058,0.239,0.115,0.287c0.116,0.049,0.174,0,0.174-0.143
		c0.058-8.916,0.058-8.916,0.058-8.916C37.595,37.771,37.537,37.627,37.422,37.579L37.422,37.579z M41.413,44.146
		c-0.059-0.097-0.174,0-0.174,0.047c0,5.13,0,5.13,0,5.13c0,0.143,0.058,0.239,0.174,0.287c0.115,0.048,0.173,0,0.173-0.095
		c0-5.13,0-5.13,0-5.13C41.586,44.29,41.528,44.146,41.413,44.146L41.413,44.146z M40.024,43.476c-0.059-0.048-0.174,0-0.174,0.095
		c0,5.13,0,5.13,0,5.13c0,0.095,0.115,0.239,0.174,0.239c0.115,0.096,0.174,0,0.174-0.096c0.057-5.08,0.057-5.08,0.057-5.08
		C40.255,43.619,40.14,43.522,40.024,43.476L40.024,43.476z M38.752,42.852c-0.116-0.048-0.174,0-0.174,0.097
		c-0.058,5.081-0.058,5.081-0.058,5.081c0,0.144,0.058,0.238,0.174,0.335c0.115,0,0.174-0.047,0.174-0.144c0-5.129,0-5.129,0-5.129
		C38.868,42.996,38.81,42.852,38.752,42.852L38.752,42.852z M39.388,43.14c-0.115-0.048-0.173,0-0.173,0.097
		c0,5.128,0,5.128,0,5.128c0,0.145,0.058,0.239,0.173,0.288c0.058,0.048,0.116,0,0.174-0.097c0-5.128,0-5.128,0-5.128
		C39.562,43.331,39.504,43.188,39.388,43.14L39.388,43.14z M36.728,37.291c-0.058-0.047-0.115,0-0.115,0.097
		c-0.059,8.437-0.059,8.437-0.059,8.437c0,0.095,0.059,0.239,0.174,0.288c0.058,0,0.115,0,0.115-0.145
		c0.058-8.437,0.058-8.437,0.058-8.437C36.9,37.436,36.843,37.291,36.728,37.291L36.728,37.291z M38.058,42.516
		c-0.115-0.047-0.174,0-0.174,0.145c0,5.081,0,5.081,0,5.081c0,0.096,0.059,0.24,0.116,0.288c0.115,0,0.174,0,0.174-0.145
		c0-5.081,0-5.081,0-5.081C38.174,42.708,38.115,42.565,38.058,42.516L38.058,42.516z M33.431,35.71
		c-0.116-0.048-0.173,0-0.173,0.097c0,6.518,0,6.518,0,6.518c0,0.097,0.057,0.241,0.115,0.241c0.115,0.095,0.174,0,0.174-0.05
		c0.058-6.566,0.058-6.566,0.058-6.566C33.604,35.854,33.488,35.758,33.431,35.71L33.431,35.71z M36.091,36.956
		c-0.115-0.048-0.173,0-0.173,0.096c-0.059,7.909-0.059,7.909-0.059,7.909c0,0.145,0.059,0.239,0.174,0.287
		c0.116,0.049,0.174,0,0.174-0.095c0-7.909,0-7.909,0-7.909C36.207,37.1,36.149,37.005,36.091,36.956L36.091,36.956z M34.067,35.998
		c-0.116-0.049-0.174,0.048-0.174,0.144c0,6.71,0,6.71,0,6.71c0,0.145,0.058,0.24,0.174,0.288c0.115,0.048,0.173,0,0.173-0.144
		c0-6.712,0-6.712,0-6.712C34.24,36.189,34.183,36.046,34.067,35.998L34.067,35.998z M40.775,43.811
		c-0.115-0.047-0.173,0-0.173,0.096c-0.058,5.129-0.058,5.129-0.058,5.129c0,0.096,0.115,0.192,0.174,0.288
		c0.115,0,0.174-0.049,0.174-0.144c0-5.13,0-5.13,0-5.13C40.893,43.955,40.834,43.811,40.775,43.811L40.775,43.811z M34.703,36.333
		c-0.059-0.049-0.174,0-0.174,0.096c0,7.047,0,7.047,0,7.047c0,0.144,0.115,0.238,0.174,0.288c0.115,0.047,0.174,0,0.174-0.097
		c0.058-7.095,0.058-7.095,0.058-7.095C34.935,36.478,34.818,36.381,34.703,36.333L34.703,36.333z M32.737,35.374
		c-0.117-0.047-0.174,0-0.174,0.097c0,6.279,0,6.279,0,6.279c0,0.095,0.057,0.239,0.115,0.286c0.115,0,0.174,0,0.174-0.143
		c0.058-6.231,0.058-6.231,0.058-6.231C32.91,35.519,32.853,35.422,32.737,35.374L32.737,35.374z"/>
	<polygon style="fill-rule:evenodd;clip-rule:evenodd;fill:#2D3D7C;" points="0,19.508 0.751,19.173 59.229,46.495 58.533,46.783 
		0,19.508 	"/>
	<polygon style="fill-rule:evenodd;clip-rule:evenodd;fill:#212859;" points="58.301,47.117 59.229,46.783 59.229,57.231 
		58.301,57.52 58.301,47.117 	"/>
	<path style="fill-rule:evenodd;clip-rule:evenodd;fill:#D2CADF;" d="M53.675,47.262c0.114-1.246,0.114-1.246,0.114-1.246
		c0.29,0.191,0.29,0.191,0.29,0.191c-0.058,0.479-0.058,0.479-0.058,0.479c0.577,0.288,0.577,0.288,0.577,0.288
		c0-0.479,0-0.479,0-0.479c0.29,0.144,0.29,0.144,0.29,0.144c-0.057,1.198-0.057,1.198-0.057,1.198
		c-0.29-0.144-0.29-0.144-0.29-0.144c0.057-0.576,0.057-0.576,0.057-0.576c-0.577-0.286-0.577-0.286-0.577-0.286
		c0,0.574,0,0.574,0,0.574C53.675,47.262,53.675,47.262,53.675,47.262L53.675,47.262z M55.004,47.693
		c0.118,0.144,0.232,0.191,0.405,0.288c0.057,0.048,0.232,0.095,0.29,0.095c0.057-0.047,0.057-0.047,0.057-0.095
		c0-0.097,0-0.097,0-0.145c-0.057-0.096-0.057-0.096-0.114-0.144c-0.115-0.097-0.232-0.144-0.348-0.191
		c-0.172-0.097-0.172-0.097-0.172-0.097c0-0.144,0-0.144,0-0.144c0.172,0.096,0.172,0.096,0.172,0.096
		c0.115,0.048,0.232,0.096,0.29,0.096c0.058,0.049,0.115,0.049,0.115,0c0.057,0,0.057-0.048,0.057-0.096
		c0-0.047,0-0.096-0.057-0.144c-0.058-0.048-0.173-0.097-0.233-0.144c-0.114-0.048-0.287-0.145-0.404-0.192c0-0.144,0-0.144,0-0.144
		c0.117,0.049,0.348,0.144,0.404,0.191c0.176,0.097,0.405,0.24,0.523,0.336c0.057,0.096,0.114,0.191,0.114,0.288
		c0,0.047-0.058,0.096-0.114,0.144c-0.061,0-0.118,0-0.176-0.048c0.058,0.096,0.115,0.096,0.176,0.191
		c0.057,0.048,0.057,0.048,0.057,0.145c0.058,0.048,0.058,0.095,0.058,0.143c0,0.049-0.058,0.193-0.175,0.193
		c-0.115,0-0.287-0.097-0.52-0.193c-0.058,0-0.287-0.143-0.405-0.239C55.004,47.693,55.004,47.693,55.004,47.693L55.004,47.693z
		 M57.318,49.083c-0.114-0.048-0.232-0.095-0.348-0.144c-0.232-0.145-0.52-0.336-0.638-0.479c-0.114-0.192-0.172-0.384-0.172-0.575
		c0-0.144,0.115-0.288,0.232-0.335c0.115-0.048,0.345,0.047,0.635,0.191c0.176,0.096,0.232,0.096,0.348,0.191
		c0,0.191,0,0.191,0,0.191c-0.115-0.095-0.232-0.143-0.29-0.239c-0.173-0.048-0.348-0.097-0.405-0.048
		c-0.114,0.048-0.114,0.145-0.114,0.287c0,0.144,0,0.288,0.114,0.385c0.058,0.095,0.232,0.239,0.348,0.286
		c0.115,0.049,0.176,0.097,0.29,0.097C57.318,49.083,57.318,49.083,57.318,49.083L57.318,49.083z"/>
</g>
</svg>