<?xml version="1.0" encoding="iso-8859-1"?>
<!DOCTYPE svg PUBLIC "-//W3C//DTD SVG 1.1//EN" "http://www.w3.org/Graphics/SVG/1.1/DTD/svg11.dtd">
<svg version="1.1" xmlns="http://www.w3.org/2000/svg" xmlns:xlink="http://www.w3.org/1999/xlink" width="58" height="42" viewBox="0 0 58 42">
<g>
	<path style="fill-rule:evenodd;clip-rule:evenodd;fill:#243B7C;" d="M48.934,26.717c-11.127,6.413-29.339,6.413-40.571,0
		C2.41,23.351,0,19.914,0,15.59l0,0c0,10.63,0,10.63,0,10.63l0,0c0.39,3.826,3.047,7.76,8.362,10.736
		c11.232,6.271,29.444,6.271,40.571,0c5.174-2.977,7.973-6.91,8.326-10.736l0,0c0-10.772,0-10.772,0-10.772
		C57.26,19.666,54.496,23.599,48.934,26.717"/>
	<path style="fill-rule:evenodd;clip-rule:evenodd;fill:#4B68AF;" d="M48.863,4.677c11.23,6.342,11.23,16.476,0.141,22.712
		c-11.125,6.201-29.338,6.201-40.571,0C-2.693,21.153-2.834,11.02,8.292,4.677C19.559-1.559,37.631-1.559,48.863,4.677"/>
	<polygon style="fill-rule:evenodd;clip-rule:evenodd;fill:#FFFFFF;" points="23.244,38.693 23.244,34.157 24.378,34.157 
		24.378,38.693 23.244,38.693 23.244,38.693 23.244,38.693 	"/>
	<path style="fill-rule:evenodd;clip-rule:evenodd;fill:#FFFFFF;" d="M26.114,34.866c0,1.417,0,1.417,0,1.417c0.78,0,0.78,0,0.78,0
		c0.39,0,0.496,0,0.744-0.142c0.142-0.106,0.283-0.354,0.283-0.566c0-0.248-0.142-0.461-0.283-0.603
		c-0.248,0-0.354-0.106-0.744-0.106C26.114,34.866,26.114,34.866,26.114,34.866L26.114,34.866L26.114,34.866z M24.945,38.693
		c0-4.536,0-4.536,0-4.536c2.339,0,2.339,0,2.339,0c0.496,0,0.992,0.142,1.275,0.354c0.248,0.354,0.354,0.709,0.354,1.063
		c0,0.46-0.106,0.814-0.354,1.027c-0.283,0.248-0.779,0.496-1.275,0.496c-1.169,0-1.169,0-1.169,0c0,1.595,0,1.595,0,1.595
		C24.945,38.693,24.945,38.693,24.945,38.693L24.945,38.693L24.945,38.693z"/>
	<polygon style="fill-rule:evenodd;clip-rule:evenodd;fill:#FFFFFF;" points="32.883,35.291 31.713,38.693 30.686,38.693 
		29.481,35.291 30.438,35.291 31.182,37.665 31.182,37.665 31.961,35.291 32.883,35.291 32.883,35.291 32.883,35.291 	"/>
	<path style="fill-rule:evenodd;clip-rule:evenodd;fill:#FFFFFF;" d="M34.725,36.39c-0.248,0-0.496,0-0.602,0.213
		c-0.143,0.142-0.248,0.354-0.248,0.603c0,0.212,0.105,0.354,0.248,0.566c0.105,0.106,0.354,0.248,0.602,0.248
		c0.105,0,0.354-0.142,0.496-0.248c0.105-0.213,0.105-0.354,0.105-0.566c0-0.248,0-0.461-0.105-0.603
		C35.078,36.496,34.83,36.39,34.725,36.39L34.725,36.39L34.725,36.39z M36.178,35.327c-0.852,0-0.852,0-0.852,0
		c0-0.106-0.105-0.213-0.248-0.354c-0.105-0.106-0.248-0.213-0.354-0.213c-0.248,0-0.496,0.213-0.744,0.567
		c-0.105,0.248-0.105,0.46-0.105,0.814l0,0c0.248-0.354,0.602-0.461,0.955-0.461c0.496,0,0.852,0.106,1.1,0.461
		c0.248,0.248,0.354,0.603,0.354,0.957c0,0.46-0.105,0.921-0.461,1.134c-0.248,0.354-0.602,0.461-1.098,0.461
		c-0.744,0-1.098-0.213-1.453-0.674c-0.248-0.354-0.389-0.921-0.389-1.523c0-0.709,0.141-1.169,0.496-1.63
		c0.248-0.461,0.744-0.709,1.346-0.709c0.354,0,0.709,0.142,0.957,0.248C36.07,34.653,36.178,34.973,36.178,35.327L36.178,35.327
		L36.178,35.327z"/>
	<path style="fill-rule:evenodd;clip-rule:evenodd;fill:#2A3479;" d="M29.623,12.225L29.623,12.225
		c-4.11-2.268-4.11-2.268-4.11-2.268c3.224-1.701,3.224-1.701,3.224-1.701c4.109,2.303,4.109,2.303,4.109,2.303
		c0.887,0.354,1.914,0.354,3.049-0.248c5.279-2.87,5.279-2.87,5.279-2.87c-5.918,0-5.918,0-5.918,0c0-2.197,0-2.197,0-2.197
		c12.934,0,12.934,0,12.934,0c0,7.122,0,7.122,0,7.122c-3.826,0-3.826,0-3.826,0c0-3.26,0-3.26,0-3.26
		c-5.244,2.905-5.244,2.905-5.244,2.905c-1.914,1.063-3.863,1.169-5.139,1.169C31.678,13.181,30.154,12.473,29.623,12.225
		L29.623,12.225"/>
	<path style="fill-rule:evenodd;clip-rule:evenodd;fill:#2A3479;" d="M15.662,15.945c4.252-2.445,4.252-2.445,4.252-2.445
		c0.921-0.496,0.638-0.992-0.496-1.771c-5.315-3.083-5.315-3.083-5.315-3.083c0,3.473,0,3.473,0,3.473c-3.897,0-3.897,0-3.897,0
		c0-7.441,0-7.441,0-7.441c12.933,0,12.933,0,12.933,0c0,2.197,0,2.197,0,2.197c-5.917,0-5.917,0-5.917,0
		c5.421,3.047,5.421,3.047,5.421,3.047c1.949,1.169,2.303,2.197,2.303,2.941c0,1.417-1.523,2.303-1.913,2.586
		c-4.146,2.268-4.146,2.268-4.146,2.268C15.662,15.945,15.662,15.945,15.662,15.945L15.662,15.945"/>
	<path style="fill-rule:evenodd;clip-rule:evenodd;fill:#2A3479;" d="M28.24,18.886c4.074,2.445,4.074,2.445,4.074,2.445
		c-3.046,1.807-3.046,1.807-3.046,1.807c-4.252-2.445-4.252-2.445-4.252-2.445c-0.886-0.496-1.914-0.39-3.047,0.248
		c-5.28,3.118-5.28,3.118-5.28,3.118c5.917,0,5.917,0,5.917,0c0,2.162,0,2.162,0,2.162c-12.968,0-12.968,0-12.968,0
		c0-7.441,0-7.441,0-7.441c3.862,0,3.862,0,3.862,0c0,3.473,0,3.473,0,3.473c5.244-3.118,5.244-3.118,5.244-3.118
		c1.914-1.134,3.862-1.417,5.138-1.417C26.185,17.716,27.851,18.638,28.24,18.886L28.24,18.886"/>
	<path style="fill-rule:evenodd;clip-rule:evenodd;fill:#2A3479;" d="M47.623,19.205c0,7.016,0,7.016,0,7.016
		c-12.898,0-12.898,0-12.898,0c0-2.056,0-2.056,0-2.056c5.918,0,5.918,0,5.918,0c-5.422-2.905-5.422-2.905-5.422-2.905
		c-1.949-1.063-2.338-2.161-2.338-2.764c0-1.347,1.559-2.303,1.947-2.445c4.146-2.303,4.146-2.303,4.146-2.303
		c3.225,1.842,3.225,1.842,3.225,1.842c-4.252,2.162-4.252,2.162-4.252,2.162c-0.779,0.496-0.639,1.099,0.496,1.701
		c5.314,2.906,5.314,2.906,5.314,2.906c0-3.154,0-3.154,0-3.154C47.623,19.205,47.623,19.205,47.623,19.205L47.623,19.205"/>
	<path style="fill-rule:evenodd;clip-rule:evenodd;fill:#FFFFFF;" d="M29.055,11.657L29.055,11.657
		c-4.11-2.268-4.11-2.268-4.11-2.268c3.225-1.701,3.225-1.701,3.225-1.701c4.11,2.303,4.11,2.303,4.11,2.303
		c0.887,0.354,1.914,0.354,3.047-0.248c5.281-2.87,5.281-2.87,5.281-2.87c-5.918,0-5.918,0-5.918,0c0-2.197,0-2.197,0-2.197
		c12.934,0,12.934,0,12.934,0c0,7.122,0,7.122,0,7.122c-3.828,0-3.828,0-3.828,0c0-3.26,0-3.26,0-3.26
		c-5.244,2.905-5.244,2.905-5.244,2.905c-1.912,1.063-3.861,1.169-5.137,1.169C31.111,12.614,29.586,11.905,29.055,11.657
		L29.055,11.657"/>
	<path style="fill-rule:evenodd;clip-rule:evenodd;fill:#FFFFFF;" d="M15.095,15.378c4.252-2.445,4.252-2.445,4.252-2.445
		c0.921-0.496,0.638-0.992-0.496-1.771c-5.315-3.083-5.315-3.083-5.315-3.083c0,3.473,0,3.473,0,3.473c-3.897,0-3.897,0-3.897,0
		c0-7.441,0-7.441,0-7.441c12.933,0,12.933,0,12.933,0c0,2.197,0,2.197,0,2.197c-5.917,0-5.917,0-5.917,0
		c5.421,3.047,5.421,3.047,5.421,3.047c1.949,1.169,2.303,2.197,2.303,2.941c0,1.417-1.523,2.303-1.913,2.586
		c-4.146,2.268-4.146,2.268-4.146,2.268C15.095,15.378,15.095,15.378,15.095,15.378L15.095,15.378"/>
	<path style="fill-rule:evenodd;clip-rule:evenodd;fill:#FFFFFF;" d="M27.673,18.815c4.075,2.268,4.075,2.268,4.075,2.268
		c-3.047,1.701-3.047,1.701-3.047,1.701c-4.252-2.268-4.252-2.268-4.252-2.268c-0.886-0.496-1.914-0.39-3.047,0.213
		c-5.28,2.905-5.28,2.905-5.28,2.905c5.917,0,5.917,0,5.917,0c0,2.02,0,2.02,0,2.02c-12.968,0-12.968,0-12.968,0
		c0-6.945,0-6.945,0-6.945c3.862,0,3.862,0,3.862,0c0,3.224,0,3.224,0,3.224c5.244-2.87,5.244-2.87,5.244-2.87
		c1.914-1.099,3.862-1.347,5.138-1.347C25.618,17.716,27.284,18.567,27.673,18.815L27.673,18.815"/>
	<path style="fill-rule:evenodd;clip-rule:evenodd;fill:#FFFFFF;" d="M47.055,18.886c0,7.335,0,7.335,0,7.335
		c-12.896,0-12.896,0-12.896,0c0-2.126,0-2.126,0-2.126c5.916,0,5.916,0,5.916,0c-5.42-3.047-5.42-3.047-5.42-3.047
		c-1.949-1.134-2.34-2.268-2.34-2.906c0-1.382,1.561-2.409,1.949-2.551c4.146-2.409,4.146-2.409,4.146-2.409
		c3.225,1.914,3.225,1.914,3.225,1.914c-4.252,2.268-4.252,2.268-4.252,2.268c-0.779,0.531-0.639,1.169,0.496,1.771
		c5.314,3.047,5.314,3.047,5.314,3.047c0-3.295,0-3.295,0-3.295C47.055,18.886,47.055,18.886,47.055,18.886L47.055,18.886"/>
</g>
</svg>