<?xml version="1.0" encoding="iso-8859-1"?>
<!DOCTYPE svg PUBLIC "-//W3C//DTD SVG 1.1//EN" "http://www.w3.org/Graphics/SVG/1.1/DTD/svg11.dtd">
<svg version="1.1" xmlns="http://www.w3.org/2000/svg" xmlns:xlink="http://www.w3.org/1999/xlink" width="97" height="56" viewBox="0 0 97 56">
<g>
	<polygon style="fill-rule:evenodd;clip-rule:evenodd;fill:#273472;" points="53.437,46.721 96.362,25.751 96.362,35.915 
		53.437,56.654 53.437,46.721 53.437,46.721 53.437,46.721 	"/>
	<polygon style="fill-rule:evenodd;clip-rule:evenodd;fill:#4B68AF;" points="0,20.647 42.871,0 96.362,25.522 53.382,46.352 
		0,20.647 0,20.647 0,20.647 	"/>
	<polygon style="fill-rule:evenodd;clip-rule:evenodd;fill:#354990;" points="53.437,46.674 53.437,56.654 0,30.765 0.165,20.601 
		53.437,46.674 53.437,46.674 53.437,46.674 	"/>
	<polygon style="fill-rule:evenodd;clip-rule:evenodd;fill:#3C548F;" points="4.38,30.443 5.256,30.167 5.256,30.443 4.38,30.902 
		4.38,30.443 4.38,30.443 4.38,30.443 	"/>
	<polygon style="fill-rule:evenodd;clip-rule:evenodd;fill:#374D84;" points="4.38,30.902 4.818,30.167 5.256,30.167 4.6,30.902 
		4.38,30.902 4.38,30.902 4.38,30.902 	"/>
	<polygon style="fill-rule:evenodd;clip-rule:evenodd;fill:#152149;" points="4.38,30.443 5.037,30.167 5.256,30.443 4.6,30.902 
		4.38,30.443 4.38,30.443 4.38,30.443 	"/>
	<polygon style="fill-rule:evenodd;clip-rule:evenodd;fill:#3C548F;" points="4.38,30.443 5.256,30.167 5.256,30.443 4.38,30.902 
		4.38,30.443 4.38,30.443 4.38,30.443 	"/>
	<polygon style="fill-rule:evenodd;clip-rule:evenodd;fill:#374D84;" points="4.38,30.535 5.037,30.167 5.256,30.535 4.6,30.902 
		4.38,30.535 4.38,30.535 4.38,30.535 	"/>
	<path style="fill-rule:evenodd;clip-rule:evenodd;fill:#374D83;" d="M4.983,30.672c0-0.093,0-0.093,0-0.093
		c-0.165-0.045-0.165-0.045-0.165-0.045c0-0.092,0-0.092,0-0.092C4.709,30.35,4.709,30.35,4.709,30.35c0,0.185,0,0.185,0,0.185
		c-0.165-0.092-0.165-0.092-0.165-0.092c0,0.092,0,0.092,0,0.092c0.165,0.045,0.165,0.045,0.165,0.045c0,0.093,0,0.093,0,0.093
		c0.109,0,0.109,0,0.109,0c0-0.093,0-0.093,0-0.093C4.983,30.672,4.983,30.672,4.983,30.672 M4.818,30.258
		c0.165,0.092,0.438,0.276,0.438,0.414c0,0.184-0.273,0.229-0.438,0.184C4.544,30.765,4.38,30.58,4.38,30.443
		C4.38,30.258,4.544,30.167,4.818,30.258L4.818,30.258L4.818,30.258z"/>
	<polygon style="fill-rule:evenodd;clip-rule:evenodd;fill:#152149;" points="11.388,34.582 12.045,33.845 12.264,33.845 
		11.607,34.582 11.388,34.582 11.388,34.582 11.388,34.582 	"/>
	<polygon style="fill-rule:evenodd;clip-rule:evenodd;fill:#131E45;" points="11.388,34.121 12.264,33.845 12.264,34.121 
		11.388,34.582 11.388,34.121 11.388,34.121 11.388,34.121 	"/>
	<polygon style="fill-rule:evenodd;clip-rule:evenodd;fill:#FFFFFF;" points="11.388,34.582 11.388,33.845 12.264,33.845 
		12.264,34.582 11.388,34.582 11.388,34.582 11.388,34.582 	"/>
	<polygon style="fill-rule:evenodd;clip-rule:evenodd;fill:#FFFFFF;" points="12.264,34.213 12.264,34.582 11.826,34.213 
		11.607,34.213 11.388,34.029 11.388,33.845 11.607,34.029 11.826,34.029 12.264,34.213 12.264,34.213 12.264,34.213 	"/>
	<path style="fill-rule:evenodd;clip-rule:evenodd;fill:#374D83;" d="M12.1,34.35c0-0.091,0-0.091,0-0.091
		c-0.164-0.046-0.164-0.046-0.164-0.046c0-0.093,0-0.093,0-0.093c-0.165-0.092-0.165-0.092-0.165-0.092c0,0.185,0,0.185,0,0.185
		c-0.165-0.093-0.165-0.093-0.165-0.093c0,0.093,0,0.093,0,0.093c0.165,0.046,0.165,0.046,0.165,0.046c0,0.091,0,0.091,0,0.091
		c0.165,0,0.165,0,0.165,0c0-0.091,0-0.091,0-0.091C12.1,34.35,12.1,34.35,12.1,34.35 M11.771,33.937
		c0.328,0.092,0.493,0.276,0.493,0.413c0,0.186-0.165,0.231-0.493,0.186c-0.165-0.093-0.383-0.276-0.383-0.415
		C11.388,33.937,11.607,33.845,11.771,33.937L11.771,33.937L11.771,33.937z"/>
	<polygon style="fill-rule:evenodd;clip-rule:evenodd;fill:#435B99;" points="31.537,43.547 32.413,43.41 32.413,45.525 
		31.537,45.618 31.537,43.547 31.537,43.547 31.537,43.547 	"/>
	<polygon style="fill-rule:evenodd;clip-rule:evenodd;fill:#415996;" points="14.016,34.719 14.29,34.582 32.413,43.319 
		32.193,43.41 14.016,34.719 14.016,34.719 14.016,34.719 	"/>
	<polygon style="fill-rule:evenodd;clip-rule:evenodd;fill:#FFFFFF;" points="31.537,43.502 31.537,45.618 14.016,36.834 
		14.016,34.582 31.537,43.502 31.537,43.502 31.537,43.502 	"/>
	<polygon style="fill-rule:evenodd;clip-rule:evenodd;fill:#435B99;" points="31.537,41.204 32.413,41.204 32.413,43.41 
		31.537,43.41 31.537,41.204 31.537,41.204 31.537,41.204 	"/>
	<polygon style="fill-rule:evenodd;clip-rule:evenodd;fill:#415996;" points="14.016,32.374 14.29,32.374 32.413,41.204 
		32.193,41.204 14.016,32.374 14.016,32.374 14.016,32.374 	"/>
	<polygon style="fill-rule:evenodd;clip-rule:evenodd;fill:#FFFFFF;" points="31.537,41.294 31.537,43.41 14.016,34.536 
		14.016,32.374 31.537,41.294 31.537,41.294 31.537,41.294 	"/>
	<polygon style="fill-rule:evenodd;clip-rule:evenodd;fill:#435B99;" points="31.537,38.26 32.413,38.26 32.413,40.467 
		31.537,40.467 31.537,38.26 31.537,38.26 31.537,38.26 	"/>
	<polygon style="fill-rule:evenodd;clip-rule:evenodd;fill:#415996;" points="14.016,30.167 14.29,30.167 32.413,38.26 
		32.193,38.26 14.016,30.167 14.016,30.167 14.016,30.167 	"/>
	<polygon style="fill-rule:evenodd;clip-rule:evenodd;fill:#FFFFFF;" points="31.537,38.397 31.537,40.467 14.016,32.19 
		14.016,30.167 31.537,38.397 31.537,38.397 31.537,38.397 	"/>
	<polygon style="fill-rule:evenodd;clip-rule:evenodd;fill:#435B99;" points="31.537,36.191 32.413,36.052 32.413,38.076 
		31.537,38.26 31.537,36.191 31.537,36.191 31.537,36.191 	"/>
	<polygon style="fill-rule:evenodd;clip-rule:evenodd;fill:#415996;" points="14.016,27.454 14.29,27.223 32.413,35.96 
		32.193,36.052 14.016,27.454 14.016,27.454 14.016,27.454 	"/>
	<polygon style="fill-rule:evenodd;clip-rule:evenodd;fill:#FFFFFF;" points="31.537,36.052 31.537,38.26 14.016,29.385 
		14.016,27.223 31.537,36.052 31.537,36.052 31.537,36.052 	"/>
	<polygon style="fill-rule:evenodd;clip-rule:evenodd;fill:#415996;" points="33.289,44.284 33.453,44.146 51.686,52.975 
		51.575,52.975 33.289,44.284 33.289,44.284 33.289,44.284 	"/>
	<polygon style="fill-rule:evenodd;clip-rule:evenodd;fill:#FFFFFF;" points="51.686,53.067 51.686,55.182 33.289,46.4 
		33.289,44.146 51.686,53.067 51.686,53.067 51.686,53.067 	"/>
	<polygon style="fill-rule:evenodd;clip-rule:evenodd;fill:#415996;" points="33.289,41.938 33.453,41.938 51.686,50.768 
		51.575,50.768 33.289,41.938 33.289,41.938 33.289,41.938 	"/>
	<polygon style="fill-rule:evenodd;clip-rule:evenodd;fill:#FFFFFF;" points="51.686,50.859 51.686,52.975 33.289,44.1 
		33.289,41.938 51.686,50.859 51.686,50.859 51.686,50.859 	"/>
	<polygon style="fill-rule:evenodd;clip-rule:evenodd;fill:#415996;" points="33.289,39.732 33.453,39.732 51.686,48.468 
		51.686,48.56 33.289,39.732 33.289,39.732 33.289,39.732 	"/>
	<polygon style="fill-rule:evenodd;clip-rule:evenodd;fill:#FFFFFF;" points="51.686,48.653 51.575,50.768 33.289,41.893 
		33.289,39.732 51.686,48.653 51.686,48.653 51.686,48.653 	"/>
	<polygon style="fill-rule:evenodd;clip-rule:evenodd;fill:#415996;" points="33.289,37.018 33.453,36.788 51.686,45.434 
		51.686,45.618 33.289,37.018 33.289,37.018 33.289,37.018 	"/>
	<polygon style="fill-rule:evenodd;clip-rule:evenodd;fill:#FFFFFF;" points="51.686,45.708 51.686,47.826 33.289,38.95 
		33.289,36.788 51.686,45.708 51.686,45.708 51.686,45.708 	"/>
	<polygon style="fill-rule:evenodd;clip-rule:evenodd;fill:#131E45;" points="10.512,31.868 10.293,34.582 7.008,32.924 
		7.008,30.167 10.512,31.868 10.512,31.868 10.512,31.868 	"/>
	<polygon style="fill-rule:evenodd;clip-rule:evenodd;fill:#131E45;" points="7.008,31.822 7.337,31.637 7.884,32.557 7.337,33.11 
		7.008,31.822 7.008,31.822 7.008,31.822 	"/>
	<polygon style="fill-rule:evenodd;clip-rule:evenodd;fill:#131E45;" points="7.008,32.788 7.61,32.374 9.636,33.477 9.198,33.845 
		7.008,32.788 7.008,32.788 7.008,32.788 	"/>
	<polygon style="fill-rule:evenodd;clip-rule:evenodd;fill:#131E45;" points="8.76,33.845 9.144,33.293 9.636,33.11 9.308,33.293 
		8.76,33.845 8.76,33.845 8.76,33.845 	"/>
	<polygon style="fill-rule:evenodd;clip-rule:evenodd;fill:#131E45;" points="9.636,31.777 10.512,31.637 10.512,34.489 
		9.636,34.582 9.636,31.777 9.636,31.777 9.636,31.777 	"/>
	<polygon style="fill-rule:evenodd;clip-rule:evenodd;fill:#131E45;" points="6.132,29.707 6.68,29.43 10.512,31.545 10.129,31.637 
		6.132,29.707 6.132,29.707 6.132,29.707 	"/>
	<path style="fill-rule:evenodd;clip-rule:evenodd;fill:#131E45;" d="M9.198,33.384V32.19l-2.354-1.195v1.195l0.219,0.689
		l1.697,0.827L9.198,33.384L9.198,33.384z M6.132,30.167l3.504,1.747v2.668l-3.504-1.702V30.167L6.132,30.167L6.132,30.167
		L6.132,30.167z"/>
	<path style="fill-rule:evenodd;clip-rule:evenodd;fill:#415994;" d="M7.884,32.374c0.876,0,0.876,0,0.876,0l0,0
		C7.884,33.11,7.884,33.11,7.884,33.11S7.884,33.11,7.884,32.374"/>
	<path style="fill-rule:evenodd;clip-rule:evenodd;fill:#3F5692;" d="M7.884,32.742c0.876-0.368,0.876-0.368,0.876-0.368v0.368
		C7.884,33.11,7.884,33.11,7.884,33.11V32.742"/>
	<polygon style="fill-rule:evenodd;clip-rule:evenodd;fill:#31457A;" points="20.149,31.822 21.025,31.637 21.025,32.235 
		20.149,32.374 20.149,31.822 20.149,31.822 20.149,31.822 	"/>
	<polygon style="fill-rule:evenodd;clip-rule:evenodd;fill:#354A80;" points="14.892,28.833 15.221,28.695 21.025,31.409 
		20.751,31.637 14.892,28.833 14.892,28.833 14.892,28.833 	"/>
	<polygon style="fill-rule:evenodd;clip-rule:evenodd;fill:#FFFFFF;" points="20.149,31.455 20.149,32.374 14.892,29.752 
		14.892,28.695 20.149,31.455 20.149,31.455 20.149,31.455 	"/>
	<polygon style="fill-rule:evenodd;clip-rule:evenodd;fill:#354A80;" points="24.529,33.384 24.802,33.11 29.784,35.823 
		29.784,36.052 24.529,33.384 24.529,33.384 24.529,33.384 	"/>
	<polygon style="fill-rule:evenodd;clip-rule:evenodd;fill:#FFFFFF;" points="29.784,36.191 29.784,36.788 24.529,34.672 
		24.529,33.845 29.784,36.191 29.784,36.191 29.784,36.191 	"/>
	<polygon style="fill-rule:evenodd;clip-rule:evenodd;fill:#354A80;" points="35.041,38.536 35.206,38.26 40.296,40.972 
		40.023,41.204 35.041,38.536 35.041,38.536 35.041,38.536 	"/>
	<polygon style="fill-rule:evenodd;clip-rule:evenodd;fill:#FFFFFF;" points="40.296,41.341 40.296,41.938 35.041,39.869 
		35.041,38.996 40.296,41.341 40.296,41.341 40.296,41.341 	"/>
	<polygon style="fill-rule:evenodd;clip-rule:evenodd;fill:#354A80;" points="44.677,43.41 44.841,43.41 49.057,45.434 
		49.057,45.618 44.677,43.41 44.677,43.41 44.677,43.41 	"/>
	<polygon style="fill-rule:evenodd;clip-rule:evenodd;fill:#FFFFFF;" points="49.057,45.755 49.057,46.352 44.677,44.284 
		44.677,43.41 49.057,45.755 49.057,45.755 49.057,45.755 	"/>
	<polygon style="fill-rule:evenodd;clip-rule:evenodd;fill:#3C538D;" points="42.048,42.674 42.159,42.674 42.924,43.226 
		42.871,43.41 42.048,42.674 42.048,42.674 42.048,42.674 	"/>
	<polygon style="fill-rule:evenodd;clip-rule:evenodd;fill:#4B68AF;" points="41.172,41.204 41.337,41.204 42.048,41.938 
		41.939,41.938 41.172,41.204 41.172,41.204 41.172,41.204 	"/>
	<polygon style="fill-rule:evenodd;clip-rule:evenodd;fill:#374D84;" points="42.706,42.214 42.706,42.307 42.924,42.537 
		42.924,43.41 42.048,42.858 42.048,41.938 42.377,42.214 42.377,41.938 42.706,42.214 42.706,42.214 42.706,42.214 	"/>
	<polygon style="fill-rule:evenodd;clip-rule:evenodd;fill:#FFFFFF;" points="43.801,41.985 43.801,43.41 41.172,42.674 
		41.172,41.204 42.048,41.525 42.048,41.8 41.392,41.525 41.392,42.583 43.308,43.226 43.308,42.168 42.761,41.893 42.761,41.8 
		43.801,41.985 43.801,41.985 43.801,41.985 	"/>
	<path style="fill-rule:evenodd;clip-rule:evenodd;fill:#131E45;" d="M23.653,33.845c0.438-0.368,0.438-0.368,0.438-0.368
		c0.438-0.367,0.438-0.367,0.438,0C23.653,33.845,23.653,33.845,23.653,33.845C23.653,33.477,23.653,33.477,23.653,33.845"/>
	<path style="fill-rule:evenodd;clip-rule:evenodd;fill:#131E45;" d="M14.892,29.063c0.602-0.368,0.602-0.368,0.602-0.368
		c0,0.368,0.274,0.368,0.274,0.368c-0.547,0.367-0.547,0.367-0.547,0.367S15.221,29.063,14.892,29.063"/>
	<polygon style="fill-rule:evenodd;clip-rule:evenodd;fill:#131E45;" points="20.149,32.374 21.025,31.637 21.025,31.637 
		20.149,32.374 20.149,32.374 20.149,32.374 20.149,32.374 	"/>
	<polygon style="fill-rule:evenodd;clip-rule:evenodd;fill:#131E45;" points="20.149,32.005 20.806,31.637 21.025,32.005 
		20.586,32.374 20.149,32.005 20.149,32.005 20.149,32.005 	"/>
	<polygon style="fill-rule:evenodd;clip-rule:evenodd;fill:#3F5792;" points="20.149,32.005 20.806,31.637 21.025,32.005 
		20.586,32.374 20.149,32.005 20.149,32.005 20.149,32.005 	"/>
	<path style="fill-rule:evenodd;clip-rule:evenodd;fill:#374D84;" d="M21.025,32.005L21.025,32.005c-0.438,0-0.438,0-0.438,0
		c0-0.184,0-0.184,0-0.184l0,0c0,0.184,0,0.184,0,0.184c-0.438-0.184-0.438-0.184-0.438-0.184l0,0
		c0.438,0.184,0.438,0.184,0.438,0.184l0,0c0,0.185,0,0.185,0,0.185c0-0.185,0-0.185,0-0.185
		C21.025,32.005,21.025,32.005,21.025,32.005 M20.586,31.637c0.438,0.185,0.438,0.368,0.438,0.368c0,0.185,0,0.368-0.438,0.185
		c-0.438,0-0.438-0.185-0.438-0.368C20.149,31.637,20.149,31.637,20.586,31.637L20.586,31.637L20.586,31.637z"/>
	<path style="fill-rule:evenodd;clip-rule:evenodd;fill:#131E45;" d="M34.165,38.996c0.603-0.735,0.603-0.735,0.603-0.735
		s0.273,0,0.273,0.735c-0.548,0-0.548,0-0.548,0S34.493,38.996,34.165,38.996"/>
	<path style="fill-rule:evenodd;clip-rule:evenodd;fill:#131E45;" d="M40.296,41.938c0.604-0.734,0.604-0.734,0.604-0.734
		s0,0,0.272,0c-0.547,0.734-0.547,0.734-0.547,0.734H40.296"/>
	<path style="fill-rule:evenodd;clip-rule:evenodd;fill:#131E45;" d="M40.296,41.938c0.876-0.734,0.876-0.734,0.876-0.734l0,0
		C40.296,41.938,40.296,41.938,40.296,41.938L40.296,41.938"/>
	<path style="fill-rule:evenodd;clip-rule:evenodd;fill:#131E45;" d="M40.296,41.571c0.876-0.367,0.876-0.367,0.876-0.367v0.367
		c-0.438,0.367-0.438,0.367-0.438,0.367L40.296,41.571"/>
	<path style="fill-rule:evenodd;clip-rule:evenodd;fill:#131E45;" d="M49.057,46.352c0.603-0.734,0.603-0.734,0.603-0.734h0.274
		c-0.549,0.734-0.549,0.734-0.549,0.734S49.385,46.352,49.057,46.352"/>
	<path style="fill-rule:evenodd;clip-rule:evenodd;fill:#131E45;" d="M49.057,46.352c0.877-0.734,0.877-0.734,0.877-0.734l0,0
		C49.057,46.352,49.057,46.352,49.057,46.352L49.057,46.352"/>
	<path style="fill-rule:evenodd;clip-rule:evenodd;fill:#131E45;" d="M49.057,45.985c0.603-0.367,0.603-0.367,0.603-0.367
		s0,0,0.274,0.367c-0.549,0.367-0.549,0.367-0.549,0.367C49.385,45.985,49.385,45.985,49.057,45.985"/>
	<polygon style="fill-rule:evenodd;clip-rule:evenodd;fill:#3B528B;" points="15.768,30.396 16.261,30.167 20.149,32.281 
		19.82,32.374 15.768,30.396 15.768,30.396 15.768,30.396 	"/>
	<polygon style="fill-rule:evenodd;clip-rule:evenodd;fill:#131E45;" points="15.768,29.752 16.151,29.43 20.149,31.362 
		19.71,31.637 15.768,29.752 15.768,29.752 15.768,29.752 	"/>
	<polygon style="fill-rule:evenodd;clip-rule:evenodd;fill:#131E45;" points="20.149,31.868 20.149,32.374 15.768,30.075 
		15.768,29.43 20.149,31.868 20.149,31.868 20.149,31.868 	"/>
	<polygon style="fill-rule:evenodd;clip-rule:evenodd;fill:#3B528B;" points="15.768,29.661 16.261,29.43 20.149,31.362 
		19.82,31.637 15.768,29.661 15.768,29.661 15.768,29.661 	"/>
	<path style="fill-rule:evenodd;clip-rule:evenodd;fill:#FFFFFF;" d="M20.04,32.281v-0.459l-4.107-2.253v0.598L20.04,32.281
		L20.04,32.281z M20.149,31.822L20.149,31.822L20.149,31.822l-0.109,0.552l0,0l0,0l-4.107-2.207l0,0l0,0l-0.165-0.736l0,0l0,0
		L20.149,31.822L20.149,31.822L20.149,31.822L20.149,31.822z"/>
	<polygon style="fill-rule:evenodd;clip-rule:evenodd;fill:#3D548E;" points="24.529,34.121 25.186,33.845 25.405,34.397 
		24.529,34.582 24.529,34.121 24.529,34.121 24.529,34.121 	"/>
	<polygon style="fill-rule:evenodd;clip-rule:evenodd;fill:#3B528B;" points="24.529,34.81 25.021,34.582 28.908,36.697 
		28.306,36.788 24.529,34.81 24.529,34.81 24.529,34.81 	"/>
	<polygon style="fill-rule:evenodd;clip-rule:evenodd;fill:#131E45;" points="24.529,34.167 24.912,33.845 28.908,35.776 
		28.471,36.052 24.529,34.167 24.529,34.167 24.529,34.167 	"/>
	<path style="fill-rule:evenodd;clip-rule:evenodd;fill:#FFFFFF;" d="M28.58,36.697l0.219-0.461l-4.106-2.253v0.599L28.58,36.697
		L28.58,36.697z M28.908,36.098v0.138l0,0l-0.109,0.552l0,0l0,0l-4.106-2.206l0,0l0,0l-0.164-0.736l0,0l0,0L28.908,36.098
		L28.908,36.098L28.908,36.098L28.908,36.098z"/>
	<polygon style="fill-rule:evenodd;clip-rule:evenodd;fill:#131E45;" points="28.908,36.282 28.689,36.788 24.529,34.489 
		24.529,33.845 28.908,36.282 28.908,36.282 28.908,36.282 	"/>
	<polygon style="fill-rule:evenodd;clip-rule:evenodd;fill:#3B528B;" points="24.529,34.167 25.021,33.845 28.908,35.869 
		28.58,36.052 24.529,34.167 24.529,34.167 24.529,34.167 	"/>
	<polygon style="fill-rule:evenodd;clip-rule:evenodd;fill:#131E45;" points="35.041,39.088 35.917,38.996 35.917,39.593 
		35.041,39.732 35.041,39.088 35.041,39.088 35.041,39.088 	"/>
	<polygon style="fill-rule:evenodd;clip-rule:evenodd;fill:#131E45;" points="35.041,38.766 35.698,38.26 35.917,38.766 
		35.259,38.996 35.041,38.766 35.041,38.766 35.041,38.766 	"/>
	<polygon style="fill-rule:evenodd;clip-rule:evenodd;fill:#3D548E;" points="35.041,39.272 35.752,38.996 35.917,39.639 
		35.259,39.732 35.041,39.272 35.041,39.272 35.041,39.272 	"/>
	<polygon style="fill-rule:evenodd;clip-rule:evenodd;fill:#3B528B;" points="35.917,39.869 36.464,39.732 40.296,41.754 
		39.804,41.938 35.917,39.869 35.917,39.869 35.917,39.869 	"/>
	<polygon style="fill-rule:evenodd;clip-rule:evenodd;fill:#131E45;" points="35.041,39.317 35.643,38.996 40.296,41.111 
		39.75,41.204 35.041,39.317 35.041,39.317 35.041,39.317 	"/>
	<polygon style="fill-rule:evenodd;clip-rule:evenodd;fill:#131E45;" points="39.75,41.341 40.296,41.204 40.023,41.708 
		39.42,41.938 39.75,41.341 39.75,41.341 39.75,41.341 	"/>
	<path style="fill-rule:evenodd;clip-rule:evenodd;fill:#FFFFFF;" d="M39.092,41.938l0.219-0.551l-4.271-2.254l0.165,0.599
		L39.092,41.938L39.092,41.938z M39.311,41.387h0.109H39.311v0.551l0,0h-0.219l-3.887-1.977v-0.229l0,0l-0.165-0.736l0,0l0,0
		L39.311,41.387L39.311,41.387L39.311,41.387L39.311,41.387z"/>
	<polygon style="fill-rule:evenodd;clip-rule:evenodd;fill:#131E45;" points="39.42,41.341 39.202,41.938 35.206,39.639 
		35.041,38.996 39.42,41.341 39.42,41.341 39.42,41.341 	"/>
	<polygon style="fill-rule:evenodd;clip-rule:evenodd;fill:#374D83;" points="39.42,41.341 40.296,41.204 39.859,41.847 
		39.42,41.938 39.42,41.341 39.42,41.341 39.42,41.341 	"/>
	<polygon style="fill-rule:evenodd;clip-rule:evenodd;fill:#3B528B;" points="35.041,39.225 35.643,38.996 40.296,40.927 
		39.75,41.204 35.041,39.225 35.041,39.225 35.041,39.225 	"/>
	<polygon style="fill-rule:evenodd;clip-rule:evenodd;fill:#131E45;" points="43.801,43.502 44.677,43.41 44.677,44.008 
		43.801,44.146 43.801,43.502 43.801,43.502 43.801,43.502 	"/>
	<polygon style="fill-rule:evenodd;clip-rule:evenodd;fill:#3B528B;" points="44.677,44.284 45.224,44.146 49.057,46.168 
		48.838,46.352 44.677,44.284 44.677,44.284 44.677,44.284 	"/>
	<polygon style="fill-rule:evenodd;clip-rule:evenodd;fill:#131E45;" points="44.677,43.547 45.061,43.41 49.057,45.525 
		48.62,45.618 44.677,43.547 44.677,43.547 44.677,43.547 	"/>
	<polygon style="fill-rule:evenodd;clip-rule:evenodd;fill:#131E45;" points="49.057,45.755 49.057,46.352 44.677,44.053 
		44.677,43.41 49.057,45.755 49.057,45.755 49.057,45.755 	"/>
	<polygon style="fill-rule:evenodd;clip-rule:evenodd;fill:#3B528B;" points="44.677,43.732 45.17,43.41 49.057,45.525 
		48.729,45.618 44.677,43.732 44.677,43.732 44.677,43.732 	"/>
	<path style="fill-rule:evenodd;clip-rule:evenodd;fill:#FFFFFF;" d="M48.948,46.352v-0.551l-4.106-2.254v0.599L48.948,46.352
		L48.948,46.352z M49.057,45.801L49.057,45.801v0.093l-0.109,0.458l0,0l0,0l-4.106-1.977l0,0v-0.229l-0.164-0.599V43.41v0.138
		L49.057,45.801L49.057,45.801L49.057,45.801L49.057,45.801z"/>
	<polygon style="fill-rule:evenodd;clip-rule:evenodd;fill:#131E45;" points="49.057,45.708 49.934,45.618 49.934,46.168 
		49.057,46.352 49.057,45.708 49.057,45.708 49.057,45.708 	"/>
	<polygon style="fill-rule:evenodd;clip-rule:evenodd;fill:#131E45;" points="14.016,29.063 14.892,28.695 14.892,28.695 
		14.181,29.43 14.016,29.063 14.016,29.063 14.016,29.063 	"/>
	<polygon style="fill-rule:evenodd;clip-rule:evenodd;fill:#131E45;" points="14.016,28.235 14.892,27.959 14.892,28.511 
		14.016,28.695 14.016,28.235 14.016,28.235 14.016,28.235 	"/>
	<polygon style="fill-rule:evenodd;clip-rule:evenodd;fill:#3F5791;" points="14.016,28.557 14.892,27.959 14.892,28.878 
		14.016,29.43 14.016,28.557 14.016,28.557 14.016,28.557 	"/>
	<polygon style="fill-rule:evenodd;clip-rule:evenodd;fill:#3F5792;" points="14.016,28.511 14.892,27.959 14.892,27.959 
		14.181,28.695 14.016,28.511 14.016,28.511 14.016,28.511 	"/>
	<path style="fill-rule:evenodd;clip-rule:evenodd;fill:#131E45;" d="M13.14,28.464c1.259-0.505,1.259-0.505,1.259-0.505
		s0.274,0,0.493,0c-0.985,0.735-0.985,0.735-0.985,0.735C13.688,28.464,13.414,28.464,13.14,28.464"/>
	<path style="fill-rule:evenodd;clip-rule:evenodd;fill:#131E45;" d="M14.016,28.695c0.876-0.735,0.876-0.735,0.876-0.735l0,0
		C14.016,28.695,14.016,28.695,14.016,28.695L14.016,28.695"/>
	<path style="fill-rule:evenodd;clip-rule:evenodd;fill:#131E45;" d="M14.016,28.511c0.602-0.552,0.602-0.552,0.602-0.552
		c0.165,0.184,0.165,0.184,0.274,0.368c-0.547,0.367-0.547,0.367-0.547,0.367C14.181,28.695,14.016,28.511,14.016,28.511"/>
	<path style="fill-rule:evenodd;clip-rule:evenodd;fill:#131E45;" d="M14.016,28.328c0.712-0.368,0.712-0.368,0.712-0.368
		s0.164,0.184,0.164,0.368c-0.657,0.367-0.657,0.367-0.657,0.367C14.016,28.511,14.016,28.511,14.016,28.328"/>
	<path style="fill-rule:evenodd;clip-rule:evenodd;fill:#131E45;" d="M14.235,29.017c0.657-0.322,0.657-0.322,0.657-0.322l0,0
		c0,0.184,0,0.322-0.164,0.322c-0.712,0.413-0.712,0.413-0.712,0.413c0.219-0.137,0.219-0.137,0.219-0.275V29.017"/>
	<path style="fill-rule:evenodd;clip-rule:evenodd;fill:#374D84;" d="M13.688,29.017c0-0.598,0-0.598,0-0.598
		c-0.165-0.139-0.165-0.139-0.165-0.139c0,0.598,0,0.598,0,0.598C13.688,29.017,13.688,29.017,13.688,29.017 M13.688,28.143
		c0.219,0.138,0.328,0.414,0.328,0.874c0,0.276-0.109,0.413-0.328,0.138c-0.274-0.138-0.548-0.46-0.548-0.735
		C13.14,27.959,13.414,27.959,13.688,28.143L13.688,28.143L13.688,28.143z"/>
	<polygon style="fill-rule:evenodd;clip-rule:evenodd;fill:#131E45;" points="14.016,31.087 14.892,30.902 14.892,31.362 
		14.016,31.637 14.016,31.087 14.016,31.087 14.016,31.087 	"/>
	<polygon style="fill-rule:evenodd;clip-rule:evenodd;fill:#3F5791;" points="14.016,31.269 14.892,30.902 14.892,31.316 
		14.016,31.637 14.016,31.269 14.016,31.269 14.016,31.269 	"/>
	<path style="fill-rule:evenodd;clip-rule:evenodd;fill:#374D84;" d="M14.181,32.098c0-0.598,0-0.598,0-0.598
		c-0.274-0.139-0.274-0.139-0.274-0.139c0,0.597,0,0.597,0,0.597C14.181,32.098,14.181,32.098,14.181,32.098 M13.907,31.087
		c0.493,0.274,0.985,0.55,0.985,0.871c0,0.276-0.493,0.415-0.985,0.276c-0.493-0.137-0.767-0.413-0.767-0.873
		C13.14,31.087,13.414,30.902,13.907,31.087L13.907,31.087L13.907,31.087z"/>
	<path style="fill-rule:evenodd;clip-rule:evenodd;fill:#131E45;" d="M13.14,30.902c1.205-0.459,1.205-0.459,1.205-0.459
		c0.273-0.276,0.273-0.276,0.547,0c-1.15,0.459-1.15,0.459-1.15,0.459C13.469,30.902,13.14,30.902,13.14,30.902"/>
	<path style="fill-rule:evenodd;clip-rule:evenodd;fill:#131E45;" d="M14.016,30.902c0.876-0.735,0.876-0.735,0.876-0.735l0,0
		C14.016,30.902,14.016,30.902,14.016,30.902L14.016,30.902"/>
	<path style="fill-rule:evenodd;clip-rule:evenodd;fill:#131E45;" d="M14.016,30.535c0.602-0.368,0.602-0.368,0.602-0.368
		c0.165,0,0.274,0.184,0.274,0.368c-0.547,0.367-0.547,0.367-0.547,0.367C14.181,30.718,14.181,30.718,14.016,30.535"/>
	<path style="fill-rule:evenodd;clip-rule:evenodd;fill:#131E45;" d="M14.016,31.269c0.712-0.367,0.712-0.367,0.712-0.367
		c0.164,0,0.164,0.186,0.164,0.186c-0.657,0.55-0.657,0.55-0.657,0.55C14.235,31.455,14.016,31.455,14.016,31.269"/>
	<path style="fill-rule:evenodd;clip-rule:evenodd;fill:#131E45;" d="M14.016,31.362c0.712-0.46,0.712-0.46,0.712-0.46
		c0.164,0.186,0.164,0.322,0.164,0.46c-0.657,0.275-0.657,0.275-0.657,0.275S14.016,31.5,14.016,31.362"/>
	<path style="fill-rule:evenodd;clip-rule:evenodd;fill:#131E45;" d="M14.235,31.958c0.657-0.321,0.657-0.321,0.657-0.321l0,0
		c0,0.185-0.164,0.321-0.164,0.321c-0.712,0.415-0.712,0.415-0.712,0.415C14.016,32.235,14.235,32.098,14.235,31.958L14.235,31.958"
		/>
	<polygon style="fill-rule:evenodd;clip-rule:evenodd;fill:#131E45;" points="14.016,33.431 14.892,33.11 14.892,33.57 
		14.016,33.845 14.016,33.431 14.016,33.431 14.016,33.431 	"/>
	<polygon style="fill-rule:evenodd;clip-rule:evenodd;fill:#3F5791;" points="14.016,33.293 14.892,33.11 14.892,33.57 
		14.016,33.845 14.016,33.293 14.016,33.293 14.016,33.293 	"/>
	<path style="fill-rule:evenodd;clip-rule:evenodd;fill:#131E45;" d="M13.14,33.11c1.205-0.736,1.205-0.736,1.205-0.736
		c0.273,0,0.273,0,0.547,0.276c-1.15,0.46-1.15,0.46-1.15,0.46C13.469,33.11,13.14,33.11,13.14,33.11"/>
	<path style="fill-rule:evenodd;clip-rule:evenodd;fill:#131E45;" d="M14.016,33.661c0.712-0.551,0.712-0.551,0.712-0.551
		c0.164,0.184,0.164,0.184,0.164,0.367c-0.657,0.368-0.657,0.368-0.657,0.368L14.016,33.661"/>
	<path style="fill-rule:evenodd;clip-rule:evenodd;fill:#131E45;" d="M14.016,33.431c0.712-0.321,0.712-0.321,0.712-0.321
		c0.164,0.184,0.164,0.321,0.164,0.46c-0.657,0.275-0.657,0.275-0.657,0.275C14.235,33.707,14.016,33.57,14.016,33.431"/>
	<path style="fill-rule:evenodd;clip-rule:evenodd;fill:#374D84;" d="M14.181,34.167c0-0.597,0-0.597,0-0.597
		c-0.274,0-0.274,0-0.274,0c0,0.597,0,0.597,0,0.597C14.181,34.167,14.181,34.167,14.181,34.167 M13.907,33.293
		c0.493,0.138,0.985,0.552,0.985,0.873c0,0.276-0.493,0.415-0.985,0.276c-0.493-0.138-0.767-0.598-0.767-0.873
		C13.14,33.293,13.414,33.11,13.907,33.293L13.907,33.293L13.907,33.293z"/>
	<polygon style="fill-rule:evenodd;clip-rule:evenodd;fill:#131E45;" points="14.016,35.638 14.892,35.316 14.892,35.776 
		14.016,36.052 14.016,35.638 14.016,35.638 14.016,35.638 	"/>
	<polygon style="fill-rule:evenodd;clip-rule:evenodd;fill:#3F5791;" points="14.016,35.501 14.892,35.316 14.892,35.776 
		14.016,36.052 14.016,35.501 14.016,35.501 14.016,35.501 	"/>
	<polygon style="fill-rule:evenodd;clip-rule:evenodd;fill:#3F5792;" points="14.016,36.052 14.783,35.316 14.892,35.685 
		14.29,36.052 14.016,36.052 14.016,36.052 14.016,36.052 	"/>
	<path style="fill-rule:evenodd;clip-rule:evenodd;fill:#131E45;" d="M14.016,35.685c0.602-0.369,0.602-0.369,0.602-0.369
		c0.165,0,0.274,0.186,0.274,0.186c-0.547,0.551-0.547,0.551-0.547,0.551C14.181,35.869,14.181,35.685,14.016,35.685"/>
	<path style="fill-rule:evenodd;clip-rule:evenodd;fill:#131E45;" d="M14.016,35.869c0.712-0.553,0.712-0.553,0.712-0.553
		c0,0.186,0.164,0.186,0.164,0.369c-0.657,0.367-0.657,0.367-0.657,0.367L14.016,35.869"/>
	<path style="fill-rule:evenodd;clip-rule:evenodd;fill:#131E45;" d="M14.016,35.638c0.712-0.322,0.712-0.322,0.712-0.322
		c0,0.186,0.164,0.322,0.164,0.322c-0.876,0.414-0.876,0.414-0.876,0.414C14.016,35.915,14.016,35.776,14.016,35.638"/>
	<path style="fill-rule:evenodd;clip-rule:evenodd;fill:#131E45;" d="M14.181,36.512c0.711-0.46,0.711-0.46,0.711-0.46s0,0,0,0.184
		c0,0.139-0.109,0.139-0.109,0.276c-0.767,0.275-0.767,0.275-0.767,0.275C14.181,36.788,14.181,36.651,14.181,36.512L14.181,36.512"
		/>
	<path style="fill-rule:evenodd;clip-rule:evenodd;fill:#374D84;" d="M13.742,36.375c0-0.599,0-0.599,0-0.599
		c-0.164,0-0.164,0-0.164,0c0,0.599,0,0.599,0,0.599C13.742,36.375,13.742,36.375,13.742,36.375 M13.579,35.501
		c0.328,0.137,0.438,0.551,0.438,0.873c0,0.276-0.109,0.413-0.438,0.276c-0.274-0.139-0.438-0.599-0.438-0.875
		C13.14,35.501,13.305,35.316,13.579,35.501L13.579,35.501L13.579,35.501z"/>
	<polygon style="fill-rule:evenodd;clip-rule:evenodd;fill:#131E45;" points="29.784,37.34 30.551,36.788 30.661,36.788 
		29.949,37.524 29.784,37.34 29.784,37.34 29.784,37.34 	"/>
	<polygon style="fill-rule:evenodd;clip-rule:evenodd;fill:#131E45;" points="29.784,36.42 30.661,36.052 30.551,36.973 
		29.784,37.524 29.784,36.42 29.784,36.42 29.784,36.42 	"/>
	<polygon style="fill-rule:evenodd;clip-rule:evenodd;fill:#3F5792;" points="29.784,36.42 30.661,36.052 30.661,36.052 
		29.949,36.788 29.784,36.42 29.784,36.42 29.784,36.42 	"/>
	<path style="fill-rule:evenodd;clip-rule:evenodd;fill:#374D84;" d="M30.332,37.248c0-0.597,0-0.597,0-0.597
		c-0.165-0.139-0.165-0.139-0.165-0.139c0,0.598,0,0.598,0,0.598C30.332,37.248,30.332,37.248,30.332,37.248 M30.332,36.236
		c0.219,0.276,0.329,0.552,0.329,0.874c0,0.276-0.11,0.414-0.329,0.276c-0.274-0.139-0.548-0.413-0.548-0.874
		C29.784,36.236,30.058,36.052,30.332,36.236L30.332,36.236L30.332,36.236z"/>
	<polygon style="fill-rule:evenodd;clip-rule:evenodd;fill:#FFFFFF;" points="30.661,37.018 30.661,37.524 29.784,37.431 
		29.784,36.788 30.661,37.018 30.661,37.018 30.661,37.018 	"/>
	<path style="fill-rule:evenodd;clip-rule:evenodd;fill:#131E45;" d="M30.661,36.42c0.602-0.368,0.602-0.368,0.602-0.368
		c0.164,0,0.164,0.184,0.274,0.368c-0.712,0.367-0.712,0.367-0.712,0.367C30.825,36.604,30.661,36.604,30.661,36.42"/>
	<path style="fill-rule:evenodd;clip-rule:evenodd;fill:#131E45;" d="M30.661,36.42c0.766-0.368,0.766-0.368,0.766-0.368
		s0,0.184,0.11,0.184c-0.548,0.552-0.548,0.552-0.548,0.552C30.825,36.604,30.825,36.604,30.661,36.42"/>
	<path style="fill-rule:evenodd;clip-rule:evenodd;fill:#131E45;" d="M30.661,37.248c0.876-0.46,0.876-0.46,0.876-0.46
		c0,0.186,0,0.322,0,0.46c-0.876,0.276-0.876,0.276-0.876,0.276C30.661,37.386,30.661,37.386,30.661,37.248"/>
	<path style="fill-rule:evenodd;clip-rule:evenodd;fill:#131E45;" d="M30.88,37.157c0.657-0.369,0.657-0.369,0.657-0.369l0,0
		c0,0.186,0,0.369-0.165,0.369c-0.711,0.367-0.711,0.367-0.711,0.367C30.88,37.524,30.88,37.34,30.88,37.157L30.88,37.157"/>
	<polygon style="fill-rule:evenodd;clip-rule:evenodd;fill:#3F5791;" points="30.661,39.225 31.537,38.996 31.537,39.456 
		30.661,39.732 30.661,39.225 30.661,39.225 30.661,39.225 	"/>
	<path style="fill-rule:evenodd;clip-rule:evenodd;fill:#374D84;" d="M30.223,40.191c0-0.735,0-0.735,0-0.735l0,0
		c0,0.598,0,0.598,0,0.598C30.223,40.191,30.223,40.191,30.223,40.191 M30.223,39.179c0.328,0.138,0.438,0.553,0.438,0.874
		c0,0.275-0.11,0.414-0.438,0.275c-0.274-0.138-0.438-0.597-0.438-0.873S29.949,38.996,30.223,39.179L30.223,39.179L30.223,39.179z"
		/>
	<path style="fill-rule:evenodd;clip-rule:evenodd;fill:#131E45;" d="M29.784,38.996c0.603-0.46,0.603-0.46,0.603-0.46
		c0-0.275,0.164-0.275,0.274,0c-0.548,0.46-0.548,0.46-0.548,0.46C29.949,38.996,29.784,38.996,29.784,38.996"/>
	<path style="fill-rule:evenodd;clip-rule:evenodd;fill:#131E45;" d="M30.661,38.627c0.602-0.367,0.602-0.367,0.602-0.367
		c0.164,0,0.164,0.184,0.274,0.184c-0.548,0.552-0.548,0.552-0.548,0.552C30.825,38.812,30.825,38.812,30.661,38.627"/>
	<path style="fill-rule:evenodd;clip-rule:evenodd;fill:#131E45;" d="M30.661,39.456c0.711-0.46,0.711-0.46,0.711-0.46
		c0,0.184,0.165,0.321,0.165,0.321c-0.657,0.415-0.657,0.415-0.657,0.415C30.88,39.593,30.661,39.456,30.661,39.456"/>
	<path style="fill-rule:evenodd;clip-rule:evenodd;fill:#131E45;" d="M30.661,39.456c0.711-0.46,0.711-0.46,0.711-0.46
		c0,0.184,0.165,0.321,0.165,0.46c-0.876,0.276-0.876,0.276-0.876,0.276C30.661,39.593,30.661,39.456,30.661,39.456"/>
	<polygon style="fill-rule:evenodd;clip-rule:evenodd;fill:#3F5791;" points="30.661,41.478 31.537,41.204 31.537,41.664 
		30.661,41.938 30.661,41.478 30.661,41.478 30.661,41.478 	"/>
	<path style="fill-rule:evenodd;clip-rule:evenodd;fill:#131E45;" d="M29.784,41.204c0.603-0.736,0.603-0.736,0.603-0.736
		s0.164,0,0.274,0c-0.548,0.736-0.548,0.736-0.548,0.736C29.949,40.972,29.784,40.972,29.784,41.204"/>
	<path style="fill-rule:evenodd;clip-rule:evenodd;fill:#131E45;" d="M30.661,41.019c0.602-0.552,0.602-0.552,0.602-0.552
		c0.164,0.184,0.164,0.184,0.274,0.367c-0.548,0.369-0.548,0.369-0.548,0.369C30.825,41.204,30.825,41.019,30.661,41.019"/>
	<path style="fill-rule:evenodd;clip-rule:evenodd;fill:#131E45;" d="M30.661,41.571c0.711-0.367,0.711-0.367,0.711-0.367
		c0,0.184,0.165,0.184,0.165,0.367c-0.657,0.367-0.657,0.367-0.657,0.367S30.661,41.754,30.661,41.571"/>
	<path style="fill-rule:evenodd;clip-rule:evenodd;fill:#131E45;" d="M30.661,41.525c0.711-0.321,0.711-0.321,0.711-0.321
		c0,0.184,0.165,0.321,0.165,0.321c-0.876,0.413-0.876,0.413-0.876,0.413C30.661,41.8,30.661,41.664,30.661,41.525"/>
	<path style="fill-rule:evenodd;clip-rule:evenodd;fill:#131E45;" d="M30.825,42.398c0.712-0.46,0.712-0.46,0.712-0.46l0,0
		c0,0.184-0.11,0.322-0.11,0.46c-0.766,0.276-0.766,0.276-0.766,0.276C30.825,42.674,30.825,42.537,30.825,42.398L30.825,42.398"/>
	<path style="fill-rule:evenodd;clip-rule:evenodd;fill:#374D84;" d="M30.223,42.26c0-0.597,0-0.597,0-0.597l0,0
		C30.223,42.26,30.223,42.26,30.223,42.26L30.223,42.26 M30.223,41.387c0.328,0.138,0.438,0.551,0.438,0.873
		c0,0.276-0.11,0.414-0.438,0.276c-0.274-0.139-0.438-0.599-0.438-0.873C29.784,41.387,29.949,41.204,30.223,41.387L30.223,41.387
		L30.223,41.387z"/>
	<polygon style="fill-rule:evenodd;clip-rule:evenodd;fill:#3F5791;" points="30.661,43.686 31.537,43.41 31.537,43.87 
		30.661,44.146 30.661,43.686 30.661,43.686 30.661,43.686 	"/>
	<polygon style="fill-rule:evenodd;clip-rule:evenodd;fill:#3F5792;" points="30.661,43.779 31.317,43.41 31.537,43.593 
		30.661,44.146 30.661,43.779 30.661,43.779 30.661,43.779 	"/>
	<path style="fill-rule:evenodd;clip-rule:evenodd;fill:#131E45;" d="M30.661,43.779c0.711-0.369,0.711-0.369,0.711-0.369
		s0.165,0.184,0.165,0.369c-0.657,0.367-0.657,0.367-0.657,0.367C30.661,44.146,30.661,43.962,30.661,43.779"/>
	<path style="fill-rule:evenodd;clip-rule:evenodd;fill:#131E45;" d="M30.661,43.732c0.711-0.322,0.711-0.322,0.711-0.322
		c0,0.184,0.165,0.184,0.165,0.322c-0.876,0.414-0.876,0.414-0.876,0.414C30.661,44.008,30.661,43.87,30.661,43.732"/>
	<path style="fill-rule:evenodd;clip-rule:evenodd;fill:#131E45;" d="M30.825,44.606c0.712-0.46,0.712-0.46,0.712-0.46l0,0
		c0,0.184-0.11,0.322-0.11,0.322c-0.766,0.413-0.766,0.413-0.766,0.413C30.825,44.881,30.825,44.745,30.825,44.606L30.825,44.606"/>
	<path style="fill-rule:evenodd;clip-rule:evenodd;fill:#374D84;" d="M30.223,44.468c0-0.599,0-0.599,0-0.599
		c0-0.138,0-0.138,0-0.138C30.223,44.468,30.223,44.468,30.223,44.468L30.223,44.468 M30.223,43.593
		c0.328,0.139,0.438,0.553,0.438,0.875c0,0.276-0.11,0.413-0.438,0.276c-0.274-0.139-0.438-0.599-0.438-0.875
		S29.949,43.41,30.223,43.593L30.223,43.593L30.223,43.593z"/>
	<polygon style="fill-rule:evenodd;clip-rule:evenodd;fill:#131E45;" points="33.289,38.996 34.055,38.26 34.165,38.444 
		33.453,38.996 33.289,38.996 33.289,38.996 33.289,38.996 	"/>
	<polygon style="fill-rule:evenodd;clip-rule:evenodd;fill:#131E45;" points="33.289,37.984 34.165,37.524 34.165,38.444 
		33.289,38.996 33.289,37.984 33.289,37.984 33.289,37.984 	"/>
	<polygon style="fill-rule:evenodd;clip-rule:evenodd;fill:#3F5791;" points="33.289,38.123 34.165,37.524 34.165,38.583 
		33.289,38.996 33.289,38.123 33.289,38.123 33.289,38.123 	"/>
	<polygon style="fill-rule:evenodd;clip-rule:evenodd;fill:#3F5792;" points="33.289,38.076 34.055,37.524 34.165,37.524 
		33.453,38.26 33.289,38.076 33.289,38.076 33.289,38.076 	"/>
	<path style="fill-rule:evenodd;clip-rule:evenodd;fill:#131E45;" d="M32.413,38.26c1.04-0.736,1.04-0.736,1.04-0.736
		c0.22,0,0.493,0,0.712,0C32.96,38.26,32.96,38.26,32.96,38.26C32.96,38.03,32.686,38.03,32.413,38.26"/>
	<path style="fill-rule:evenodd;clip-rule:evenodd;fill:#131E45;" d="M33.289,38.26c0.876-0.736,0.876-0.736,0.876-0.736l0,0
		c-0.657,0.736-0.657,0.736-0.657,0.736S33.507,38.26,33.289,38.26"/>
	<path style="fill-rule:evenodd;clip-rule:evenodd;fill:#131E45;" d="M33.289,38.076c0.603-0.552,0.603-0.552,0.603-0.552
		c0.164,0.184,0.164,0.184,0.273,0.367c-0.712,0.369-0.712,0.369-0.712,0.369L33.289,38.076"/>
	<path style="fill-rule:evenodd;clip-rule:evenodd;fill:#131E45;" d="M33.289,37.891c0.767-0.367,0.767-0.367,0.767-0.367
		s0,0.184,0.109,0.367c-0.547,0.369-0.547,0.369-0.547,0.369C33.453,38.26,33.453,38.076,33.289,37.891"/>
	<path style="fill-rule:evenodd;clip-rule:evenodd;fill:#131E45;" d="M33.507,38.719c0.657-0.459,0.657-0.459,0.657-0.459l0,0
		c0,0.184,0,0.322-0.164,0.322c-0.712,0.413-0.712,0.413-0.712,0.413C33.507,38.996,33.507,38.857,33.507,38.719L33.507,38.719"/>
	<path style="fill-rule:evenodd;clip-rule:evenodd;fill:#374D84;" d="M33.453,38.583c0-0.599,0-0.599,0-0.599
		c-0.273-0.138-0.273-0.138-0.273-0.138c0,0.736,0,0.736,0,0.736C33.453,38.583,33.453,38.583,33.453,38.583 M33.453,37.708
		c0.493,0.139,0.712,0.553,0.712,0.875c0,0.274-0.219,0.413-0.712,0.274c-0.492-0.138-1.04-0.597-1.04-0.873
		S32.96,37.524,33.453,37.708L33.453,37.708L33.453,37.708z"/>
	<polygon style="fill-rule:evenodd;clip-rule:evenodd;fill:#131E45;" points="33.289,40.743 34.165,40.467 34.165,40.927 
		33.289,41.204 33.289,40.743 33.289,40.743 33.289,40.743 	"/>
	<polygon style="fill-rule:evenodd;clip-rule:evenodd;fill:#3F5791;" points="33.289,40.834 34.165,40.467 34.165,40.881 
		33.289,41.204 33.289,40.834 33.289,40.834 33.289,40.834 	"/>
	<path style="fill-rule:evenodd;clip-rule:evenodd;fill:#131E45;" d="M33.289,40.238c0.603-0.506,0.603-0.506,0.603-0.506
		s0.164,0,0.273,0c-0.547,0.735-0.547,0.735-0.547,0.735C33.453,40.238,33.289,40.238,33.289,40.238"/>
	<path style="fill-rule:evenodd;clip-rule:evenodd;fill:#131E45;" d="M33.289,40.467c0.876-0.735,0.876-0.735,0.876-0.735l0,0
		C33.289,40.467,33.289,40.467,33.289,40.467L33.289,40.467"/>
	<path style="fill-rule:evenodd;clip-rule:evenodd;fill:#131E45;" d="M33.289,40.283c0.603-0.551,0.603-0.551,0.603-0.551
		c0.164,0.184,0.164,0.184,0.273,0.367c-0.547,0.368-0.547,0.368-0.547,0.368C33.453,40.467,33.453,40.283,33.289,40.283"/>
	<path style="fill-rule:evenodd;clip-rule:evenodd;fill:#131E45;" d="M33.289,40.834C34,40.467,34,40.467,34,40.467
		s0.164,0.184,0.164,0.367c-0.657,0.369-0.657,0.369-0.657,0.369C33.507,41.019,33.289,41.019,33.289,40.834"/>
	<path style="fill-rule:evenodd;clip-rule:evenodd;fill:#131E45;" d="M34.165,40.834c0.712-0.367,0.712-0.367,0.712-0.367
		s0.164,0.184,0.164,0.367c-0.876,0.369-0.876,0.369-0.876,0.369S34.165,41.019,34.165,40.834"/>
	<path style="fill-rule:evenodd;clip-rule:evenodd;fill:#131E45;" d="M33.618,41.525c1.423-0.321,1.423-0.321,1.423-0.321l0,0
		c0,0.184-0.273,0.321-0.273,0.321c-1.479,0.413-1.479,0.413-1.479,0.413c0.329-0.138,0.329-0.138,0.329-0.274
		C33.618,41.525,33.618,41.525,33.618,41.525"/>
	<path style="fill-rule:evenodd;clip-rule:evenodd;fill:#374D84;" d="M33.289,41.525c0-0.598,0-0.598,0-0.598
		c0-0.139,0-0.139,0-0.139c0,0.599,0,0.599,0,0.599C33.289,41.525,33.289,41.525,33.289,41.525 M33.289,40.651
		c0.603,0.138,0.876,0.414,0.876,0.874c0,0.275-0.273,0.413-0.876,0.139c-0.547-0.139-0.875-0.46-0.875-0.736
		C32.413,40.467,32.741,40.467,33.289,40.651L33.289,40.651L33.289,40.651z"/>
	<polygon style="fill-rule:evenodd;clip-rule:evenodd;fill:#131E45;" points="33.289,42.997 34.165,42.674 34.165,43.226 
		33.289,43.41 33.289,42.997 33.289,42.997 33.289,42.997 	"/>
	<polygon style="fill-rule:evenodd;clip-rule:evenodd;fill:#3F5791;" points="33.289,42.858 34.165,42.674 34.165,43.087 
		33.289,43.41 33.289,42.858 33.289,42.858 33.289,42.858 	"/>
	<path style="fill-rule:evenodd;clip-rule:evenodd;fill:#131E45;" d="M33.289,42.674c0.603-0.46,0.603-0.46,0.603-0.46
		c0-0.276,0.164-0.276,0.273,0c-0.547,0.46-0.547,0.46-0.547,0.46C33.453,42.674,33.289,42.674,33.289,42.674"/>
	<path style="fill-rule:evenodd;clip-rule:evenodd;fill:#131E45;" d="M33.289,43.134C34,42.674,34,42.674,34,42.674
		c0,0.184,0.164,0.322,0.164,0.322c-0.657,0.413-0.657,0.413-0.657,0.413C33.507,43.272,33.289,43.134,33.289,43.134"/>
	<path style="fill-rule:evenodd;clip-rule:evenodd;fill:#131E45;" d="M34.165,43.134c0.712-0.46,0.712-0.46,0.712-0.46
		c0,0.184,0.164,0.322,0.164,0.46c-0.876,0.275-0.876,0.275-0.876,0.275C34.165,43.272,34.165,43.134,34.165,43.134"/>
	<path style="fill-rule:evenodd;clip-rule:evenodd;fill:#374D84;" d="M33.289,43.87c0-0.735,0-0.735,0-0.735l0,0
		c0,0.598,0,0.598,0,0.598C33.289,43.87,33.289,43.87,33.289,43.87 M33.289,42.858c0.603,0.139,0.876,0.552,0.876,0.874
		c0,0.276-0.273,0.414-0.876,0.276c-0.547-0.139-0.875-0.599-0.875-0.874C32.413,42.858,32.741,42.674,33.289,42.858L33.289,42.858
		L33.289,42.858z"/>
	<polygon style="fill-rule:evenodd;clip-rule:evenodd;fill:#131E45;" points="33.453,45.203 34.165,44.881 34.165,45.434 
		33.289,45.618 33.453,45.203 33.453,45.203 33.453,45.203 	"/>
	<polygon style="fill-rule:evenodd;clip-rule:evenodd;fill:#3F5791;" points="33.289,45.065 34.165,44.881 34.165,45.341 
		33.289,45.618 33.289,45.065 33.289,45.065 33.289,45.065 	"/>
	<polygon style="fill-rule:evenodd;clip-rule:evenodd;fill:#3F5792;" points="33.289,45.618 34.055,44.881 34.165,45.25 
		33.289,45.618 33.289,45.618 33.289,45.618 33.289,45.618 	"/>
	<path style="fill-rule:evenodd;clip-rule:evenodd;fill:#131E45;" d="M33.289,45.25c0.603-0.368,0.603-0.368,0.603-0.368
		c0.164,0,0.164,0.184,0.273,0.184c-0.547,0.553-0.547,0.553-0.547,0.553C33.453,45.434,33.453,45.434,33.289,45.25"/>
	<path style="fill-rule:evenodd;clip-rule:evenodd;fill:#131E45;" d="M33.289,45.341C34,44.881,34,44.881,34,44.881
		c0,0.184,0.164,0.184,0.164,0.321c-0.657,0.415-0.657,0.415-0.657,0.415C33.289,45.479,33.289,45.341,33.289,45.341"/>
	<path style="fill-rule:evenodd;clip-rule:evenodd;fill:#131E45;" d="M34.165,45.341c0.712-0.46,0.712-0.46,0.712-0.46
		c0,0.184,0.164,0.321,0.164,0.46c-0.876,0.276-0.876,0.276-0.876,0.276C34.165,45.479,34.165,45.341,34.165,45.341"/>
	<path style="fill-rule:evenodd;clip-rule:evenodd;fill:#131E45;" d="M33.618,45.985c1.423-0.367,1.423-0.367,1.423-0.367l0,0
		c0,0.184-0.273,0.184-0.273,0.367c-1.479,0.367-1.479,0.367-1.479,0.367C33.618,46.352,33.618,46.168,33.618,45.985L33.618,45.985"
		/>
	<path style="fill-rule:evenodd;clip-rule:evenodd;fill:#374D84;" d="M33.289,45.939c0-0.598,0-0.598,0-0.598l0,0
		c-0.273,0.598-0.273,0.598-0.273,0.598C33.289,45.939,33.289,45.939,33.289,45.939 M33.289,45.065
		c0.603,0.138,0.876,0.553,0.876,0.874c0,0.276-0.273,0.413-0.876,0.276c-0.547-0.138-0.875-0.598-0.875-0.874
		S32.741,44.881,33.289,45.065L33.289,45.065L33.289,45.065z"/>
	<polygon style="fill-rule:evenodd;clip-rule:evenodd;fill:#131E45;" points="49.934,46.721 50.699,46.352 50.808,46.352 
		49.934,47.089 49.934,46.721 49.934,46.721 49.934,46.721 	"/>
	<polygon style="fill-rule:evenodd;clip-rule:evenodd;fill:#131E45;" points="49.934,46.628 50.808,46.352 50.808,46.905 
		49.934,47.089 49.934,46.628 49.934,46.628 49.934,46.628 	"/>
	<polygon style="fill-rule:evenodd;clip-rule:evenodd;fill:#3F5791;" points="49.934,46.674 50.808,46.352 50.808,46.813 
		49.934,47.089 49.934,46.674 49.934,46.674 49.934,46.674 	"/>
	<path style="fill-rule:evenodd;clip-rule:evenodd;fill:#131E45;" d="M49.934,46.124c0.602-0.506,0.602-0.506,0.602-0.506
		s0.163,0,0.272,0c-0.547,0.734-0.547,0.734-0.547,0.734C50.097,46.124,49.934,46.124,49.934,46.124"/>
	<path style="fill-rule:evenodd;clip-rule:evenodd;fill:#131E45;" d="M49.934,46.352c0.874-0.734,0.874-0.734,0.874-0.734l0,0
		C49.934,46.352,49.934,46.352,49.934,46.352L49.934,46.352"/>
	<path style="fill-rule:evenodd;clip-rule:evenodd;fill:#131E45;" d="M49.934,46.168c1.203-0.551,1.203-0.551,1.203-0.551
		c0.274,0.184,0.274,0.184,0.549,0.367c-1.15,0.367-1.15,0.367-1.15,0.367C50.261,46.352,50.261,46.168,49.934,46.168"/>
	<path style="fill-rule:evenodd;clip-rule:evenodd;fill:#131E45;" d="M50.808,46.674c0.713-0.322,0.713-0.322,0.713-0.322
		s0.165,0.186,0.165,0.322c-0.878,0.415-0.878,0.415-0.878,0.415C50.808,46.951,50.808,46.813,50.808,46.674"/>
	<path style="fill-rule:evenodd;clip-rule:evenodd;fill:#131E45;" d="M50.974,46.813c0.712-0.461,0.712-0.461,0.712-0.461l0,0
		c0,0.186-0.111,0.322-0.111,0.322c-0.767,0.415-0.767,0.415-0.767,0.415C50.974,46.951,50.974,46.951,50.974,46.813L50.974,46.813"
		/>
	<path style="fill-rule:evenodd;clip-rule:evenodd;fill:#374D84;" d="M50.372,47.411c0-0.598,0-0.598,0-0.598
		c0-0.139,0-0.139,0-0.139c0,0.599,0,0.599,0,0.599C50.372,47.411,50.372,47.411,50.372,47.411 M50.372,46.538
		c0.327,0.137,0.437,0.413,0.437,0.873c0,0.276-0.109,0.415-0.437,0.276c-0.274-0.276-0.438-0.598-0.438-0.874
		C49.934,46.538,50.097,46.352,50.372,46.538L50.372,46.538L50.372,46.538z"/>
	<polygon style="fill-rule:evenodd;clip-rule:evenodd;fill:#131E45;" points="49.934,48.744 50.808,48.56 50.808,49.02 
		49.934,49.296 49.934,48.744 49.934,48.744 49.934,48.744 	"/>
	<polygon style="fill-rule:evenodd;clip-rule:evenodd;fill:#3F5792;" points="49.934,48.928 50.699,48.56 50.808,48.56 
		50.207,49.296 49.934,48.928 49.934,48.928 49.934,48.928 	"/>
	<path style="fill-rule:evenodd;clip-rule:evenodd;fill:#374D84;" d="M50.48,49.755c0-0.597,0-0.597,0-0.597
		c-0.163-0.139-0.163-0.139-0.163-0.139c0,0.599,0,0.599,0,0.599C50.48,49.755,50.48,49.755,50.48,49.755 M50.317,48.882
		c0.273,0.138,0.491,0.414,0.491,0.736c0,0.413-0.218,0.413-0.491,0.275c-0.22-0.139-0.383-0.414-0.383-0.874
		C49.934,48.744,50.097,48.56,50.317,48.882L50.317,48.882L50.317,48.882z"/>
	<polygon style="fill-rule:evenodd;clip-rule:evenodd;fill:#FFFFFF;" points="50.808,48.79 50.808,49.296 49.934,49.205 
		49.934,48.56 50.808,48.79 50.808,48.79 50.808,48.79 	"/>
	<path style="fill-rule:evenodd;clip-rule:evenodd;fill:#131E45;" d="M50.808,48.928c0.713-0.368,0.713-0.368,0.713-0.368
		c0.165,0,0.165,0.184,0.165,0.184c-0.657,0.553-0.657,0.553-0.657,0.553C51.029,49.112,50.808,49.112,50.808,48.928"/>
	<path style="fill-rule:evenodd;clip-rule:evenodd;fill:#131E45;" d="M50.808,49.02c0.713-0.46,0.713-0.46,0.713-0.46
		c0.165,0.184,0.165,0.322,0.165,0.46c-0.657,0.276-0.657,0.276-0.657,0.276S50.808,49.159,50.808,49.02"/>
	<path style="fill-rule:evenodd;clip-rule:evenodd;fill:#131E45;" d="M51.029,49.619c0.657-0.322,0.657-0.322,0.657-0.322l0,0
		c0,0.184,0,0.322-0.165,0.322c-0.713,0.413-0.713,0.413-0.713,0.413C50.808,49.894,51.029,49.755,51.029,49.619L51.029,49.619"/>
	<polygon style="fill-rule:evenodd;clip-rule:evenodd;fill:#131E45;" points="49.934,51.135 50.808,50.768 50.808,51.181 
		49.934,51.503 49.934,51.135 49.934,51.135 49.934,51.135 	"/>
	<polygon style="fill-rule:evenodd;clip-rule:evenodd;fill:#3F5792;" points="49.934,51.503 50.699,50.768 50.808,50.952 
		50.207,51.503 49.934,51.503 49.934,51.503 49.934,51.503 	"/>
	<path style="fill-rule:evenodd;clip-rule:evenodd;fill:#131E45;" d="M49.934,51.135c1.203-0.367,1.203-0.367,1.203-0.367
		c0.274,0,0.549,0.184,0.549,0.184c-1.15,0.552-1.15,0.552-1.15,0.552C50.261,51.32,50.261,51.32,49.934,51.135"/>
	<path style="fill-rule:evenodd;clip-rule:evenodd;fill:#131E45;" d="M50.808,51.227c0.713-0.459,0.713-0.459,0.713-0.459
		c0.165,0.184,0.165,0.184,0.165,0.322c-0.657,0.413-0.657,0.413-0.657,0.413C51.029,51.365,50.808,51.227,50.808,51.227"/>
	<path style="fill-rule:evenodd;clip-rule:evenodd;fill:#131E45;" d="M50.808,51.227c0.713-0.459,0.713-0.459,0.713-0.459
		c0.165,0.184,0.165,0.322,0.165,0.459c-0.657,0.276-0.657,0.276-0.657,0.276C51.029,51.365,50.808,51.227,50.808,51.227"/>
	<path style="fill-rule:evenodd;clip-rule:evenodd;fill:#131E45;" d="M51.029,51.871c0.657-0.367,0.657-0.367,0.657-0.367l0,0
		c0,0.184-0.165,0.184-0.165,0.367c-0.713,0.369-0.713,0.369-0.713,0.369S51.029,52.056,51.029,51.871L51.029,51.871"/>
	<path style="fill-rule:evenodd;clip-rule:evenodd;fill:#374D84;" d="M50.48,51.825c0-0.598,0-0.598,0-0.598
		c-0.163,0-0.163,0-0.163,0c0,0.598,0,0.598,0,0.598C50.48,51.825,50.48,51.825,50.48,51.825 M50.317,50.952
		c0.273,0.139,0.491,0.552,0.491,0.873c0,0.276-0.218,0.415-0.491,0.276c-0.22-0.138-0.383-0.598-0.383-0.874
		C49.934,50.952,50.097,50.768,50.317,50.952L50.317,50.952L50.317,50.952z"/>
	<polygon style="fill-rule:evenodd;clip-rule:evenodd;fill:#131E45;" points="49.934,54.446 50.699,53.711 50.808,54.033 
		50.207,54.446 49.934,54.446 49.934,54.446 49.934,54.446 	"/>
	<polygon style="fill-rule:evenodd;clip-rule:evenodd;fill:#131E45;" points="49.934,53.573 50.808,52.975 50.808,53.711 
		49.934,54.446 49.934,53.573 49.934,53.573 49.934,53.573 	"/>
	<polygon style="fill-rule:evenodd;clip-rule:evenodd;fill:#FFFFFF;" points="50.808,53.711 50.808,54.446 49.934,54.446 
		49.934,53.711 50.808,53.711 50.808,53.711 50.808,53.711 	"/>
	<polygon style="fill-rule:evenodd;clip-rule:evenodd;fill:#3F5792;" points="49.934,53.711 50.699,52.975 50.808,53.159 
		50.207,53.711 49.934,53.711 49.934,53.711 49.934,53.711 	"/>
	<path style="fill-rule:evenodd;clip-rule:evenodd;fill:#131E45;" d="M49.934,53.343c1.203-0.368,1.203-0.368,1.203-0.368
		c0.274,0,0.549,0.184,0.549,0.184c-1.15,0.553-1.15,0.553-1.15,0.553C50.261,53.527,50.261,53.527,49.934,53.343"/>
	<path style="fill-rule:evenodd;clip-rule:evenodd;fill:#131E45;" d="M50.808,53.527c0.713-0.552,0.713-0.552,0.713-0.552
		c0.165,0.184,0.165,0.184,0.165,0.368c-0.657,0.368-0.657,0.368-0.657,0.368L50.808,53.527"/>
	<path style="fill-rule:evenodd;clip-rule:evenodd;fill:#131E45;" d="M50.808,54.033c0.713-0.321,0.713-0.321,0.713-0.321
		c0.165,0.184,0.165,0.321,0.165,0.46c-0.657,0.274-0.657,0.274-0.657,0.274C51.029,54.308,50.808,54.171,50.808,54.033"/>
	<path style="fill-rule:evenodd;clip-rule:evenodd;fill:#131E45;" d="M51.029,54.079c0.657-0.367,0.657-0.367,0.657-0.367l0,0
		c0,0.184-0.165,0.184-0.165,0.367c-0.713,0.367-0.713,0.367-0.713,0.367S51.029,54.262,51.029,54.079L51.029,54.079"/>
	<path style="fill-rule:evenodd;clip-rule:evenodd;fill:#374D84;" d="M50.48,54.033c0-0.598,0-0.598,0-0.598
		c-0.163,0-0.163,0-0.163,0c0,0.598,0,0.598,0,0.598C50.48,54.033,50.48,54.033,50.48,54.033 M50.317,53.159
		c0.273,0.138,0.491,0.553,0.491,0.874c0,0.275-0.218,0.413-0.491,0.275c-0.22-0.137-0.383-0.597-0.383-0.873
		S50.097,52.975,50.317,53.159L50.317,53.159L50.317,53.159z"/>
	<polygon style="fill-rule:evenodd;clip-rule:evenodd;fill:#4B68AF;" points="17.52,35.592 17.74,35.316 18.396,36.052 
		18.232,36.052 17.52,35.592 17.52,35.592 17.52,35.592 	"/>
	<polygon style="fill-rule:evenodd;clip-rule:evenodd;fill:#1A2B55;" points="17.52,34.719 18.396,34.582 18.396,36.052 
		17.52,36.052 17.52,34.719 17.52,34.719 17.52,34.719 	"/>
	<polygon style="fill-rule:evenodd;clip-rule:evenodd;fill:#1D2E59;" points="16.644,33.937 16.809,33.845 18.396,34.489 
		18.287,34.582 16.644,33.937 16.644,33.937 16.644,33.937 	"/>
	<polygon style="fill-rule:evenodd;clip-rule:evenodd;fill:#FFFFFF;" points="15.768,33.845 18.396,34.626 18.396,36.052 
		17.52,35.685 17.52,35.501 18.232,35.685 18.232,34.719 16.151,34.076 16.151,35.132 16.864,35.316 16.864,35.501 15.768,35.132 
		15.768,33.845 15.768,33.845 15.768,33.845 	"/>
	<polygon style="fill-rule:evenodd;clip-rule:evenodd;fill:#374D84;" points="17.52,34.765 17.52,36.052 17.247,35.823 
		17.247,36.052 16.973,35.823 16.973,35.546 16.644,35.316 16.644,33.845 17.52,34.765 17.52,34.765 17.52,34.765 	"/>
	<polygon style="fill-rule:evenodd;clip-rule:evenodd;fill:#4B68AF;" points="15.768,34.029 16.097,33.845 18.396,34.582 
		18.123,34.582 15.768,34.029 15.768,34.029 15.768,34.029 	"/>
	<polygon style="fill-rule:evenodd;clip-rule:evenodd;fill:#1D2E59;" points="19.273,35.409 19.382,35.316 20.149,35.96 
		20.094,36.052 19.273,35.409 19.273,35.409 19.273,35.409 	"/>
	<polygon style="fill-rule:evenodd;clip-rule:evenodd;fill:#FFFFFF;" points="18.396,35.316 20.149,36.098 20.149,37.524 
		19.492,37.248 19.492,36.973 20.04,37.248 20.04,36.191 18.561,35.546 18.561,36.604 18.944,36.88 18.944,36.973 18.396,36.697 
		18.396,35.316 18.396,35.316 18.396,35.316 	"/>
	<polygon style="fill-rule:evenodd;clip-rule:evenodd;fill:#374D84;" points="20.149,36.191 20.149,37.524 19.875,37.157 
		19.875,37.524 19.546,37.157 19.546,37.064 19.273,36.697 19.273,35.316 20.149,36.191 20.149,36.191 20.149,36.191 	"/>
	<polygon style="fill-rule:evenodd;clip-rule:evenodd;fill:#273472;" points="20.149,36.052 21.025,36.052 21.025,37.34 
		20.149,37.524 20.149,36.052 20.149,36.052 20.149,36.052 	"/>
	<polygon style="fill-rule:evenodd;clip-rule:evenodd;fill:#4B68AF;" points="18.396,35.316 18.396,35.316 21.025,36.052 
		20.696,36.052 18.396,35.316 18.396,35.316 18.396,35.316 	"/>
	<polygon style="fill-rule:evenodd;clip-rule:evenodd;fill:#1D2E59;" points="24.529,37.708 24.638,37.524 25.405,38.167 
		25.35,38.26 24.529,37.708 24.529,37.708 24.529,37.708 	"/>
	<polygon style="fill-rule:evenodd;clip-rule:evenodd;fill:#FFFFFF;" points="23.653,37.524 25.405,38.306 25.405,39.732 
		24.748,39.363 24.748,39.272 25.295,39.456 25.295,38.397 23.817,37.846 23.817,38.904 24.2,38.996 24.2,39.272 23.653,38.996 
		23.653,37.524 23.653,37.524 23.653,37.524 	"/>
	<polygon style="fill-rule:evenodd;clip-rule:evenodd;fill:#374D84;" points="25.405,38.812 25.405,39.732 25.131,39.593 
		25.131,39.685 24.802,39.593 24.802,39.317 24.529,39.225 24.529,38.26 25.405,38.812 25.405,38.812 25.405,38.812 	"/>
	<polygon style="fill-rule:evenodd;clip-rule:evenodd;fill:#273472;" points="25.405,38.26 26.28,38.26 26.28,39.639 25.405,39.732 
		25.405,38.26 25.405,38.26 25.405,38.26 	"/>
	<polygon style="fill-rule:evenodd;clip-rule:evenodd;fill:#4B68AF;" points="23.653,37.617 23.653,37.524 26.28,38.26 
		25.952,38.26 23.653,37.617 23.653,37.617 23.653,37.617 	"/>
	<polygon style="fill-rule:evenodd;clip-rule:evenodd;fill:#1A2B55;" points="27.156,40.467 28.032,40.467 28.032,40.834 
		27.156,41.204 27.156,40.467 27.156,40.467 27.156,40.467 	"/>
	<polygon style="fill-rule:evenodd;clip-rule:evenodd;fill:#4B68AF;" points="27.156,40.467 27.595,40.467 28.032,40.834 
		27.813,41.204 27.156,40.467 27.156,40.467 27.156,40.467 	"/>
	<polygon style="fill-rule:evenodd;clip-rule:evenodd;fill:#374D84;" points="28.032,39.778 28.032,41.204 27.595,40.972 
		27.595,41.204 26.938,40.972 26.938,40.698 26.28,40.329 26.28,38.996 28.032,39.778 28.032,39.778 28.032,39.778 	"/>
	<polygon style="fill-rule:evenodd;clip-rule:evenodd;fill:#1D2E59;" points="26.28,38.996 26.445,38.996 28.032,39.732 
		27.923,39.732 26.28,38.996 26.28,38.996 26.28,38.996 	"/>
	<polygon style="fill-rule:evenodd;clip-rule:evenodd;fill:#FFFFFF;" points="26.28,38.996 28.032,39.869 28.032,41.204 
		27.376,40.927 27.376,40.743 27.704,40.927 27.704,39.869 26.445,39.317 26.445,40.283 26.882,40.559 26.882,40.743 26.28,40.467 
		26.28,38.996 26.28,38.996 26.28,38.996 	"/>
	<polygon style="fill-rule:evenodd;clip-rule:evenodd;fill:#4B68AF;" points="26.28,38.996 26.39,38.996 28.032,39.685 
		27.923,39.732 26.28,38.996 26.28,38.996 26.28,38.996 	"/>
	<polygon style="fill-rule:evenodd;clip-rule:evenodd;fill:#374D84;" points="35.917,43.547 36.792,43.41 36.792,44.79 
		35.917,44.881 35.917,43.547 35.917,43.547 35.917,43.547 	"/>
	<polygon style="fill-rule:evenodd;clip-rule:evenodd;fill:#1D2E59;" points="35.917,43.502 36.082,43.41 37.668,44.053 
		37.395,44.146 35.917,43.502 35.917,43.502 35.917,43.502 	"/>
	<polygon style="fill-rule:evenodd;clip-rule:evenodd;fill:#FFFFFF;" points="35.917,43.41 37.668,44.192 37.668,45.618 
		36.958,45.25 36.958,45.065 37.45,45.341 37.45,44.284 36.191,43.64 36.191,44.698 36.683,44.881 36.683,45.065 35.917,44.881 
		35.917,43.41 35.917,43.41 35.917,43.41 	"/>
	<polygon style="fill-rule:evenodd;clip-rule:evenodd;fill:#374D84;" points="37.668,44.284 37.668,45.618 37.011,45.25 
		37.011,45.525 36.628,45.25 36.628,45.019 35.917,44.79 35.917,43.41 37.668,44.284 37.668,44.284 37.668,44.284 	"/>
	<polygon style="fill-rule:evenodd;clip-rule:evenodd;fill:#4B68AF;" points="35.917,43.41 35.917,43.41 37.668,44.146 
		37.559,44.146 35.917,43.41 35.917,43.41 35.917,43.41 	"/>
	<polygon style="fill-rule:evenodd;clip-rule:evenodd;fill:#4B68AF;" points="39.42,46.352 39.42,46.352 40.296,46.86 
		39.859,47.089 39.42,46.352 39.42,46.352 39.42,46.352 	"/>
	<polygon style="fill-rule:evenodd;clip-rule:evenodd;fill:#1D2E59;" points="38.544,44.881 38.709,44.881 40.296,45.525 
		40.023,45.618 38.544,44.881 38.544,44.881 38.544,44.881 	"/>
	<polygon style="fill-rule:evenodd;clip-rule:evenodd;fill:#FFFFFF;" points="38.544,44.881 40.296,45.663 40.296,47.089 
		39.75,46.813 39.75,46.538 39.968,46.813 39.968,45.755 38.819,45.112 38.819,46.168 39.256,46.445 39.256,46.538 38.544,46.261 
		38.544,44.881 38.544,44.881 38.544,44.881 	"/>
	<polygon style="fill-rule:evenodd;clip-rule:evenodd;fill:#374D84;" points="40.296,45.755 40.296,47.089 39.968,46.721 
		39.968,47.089 39.256,46.721 39.256,46.628 38.544,46.261 38.544,44.881 40.296,45.755 40.296,45.755 40.296,45.755 	"/>
	<polygon style="fill-rule:evenodd;clip-rule:evenodd;fill:#4B68AF;" points="38.544,44.881 38.819,44.881 40.296,45.618 
		40.296,45.618 38.544,44.881 38.544,44.881 38.544,44.881 	"/>
	<polygon style="fill-rule:evenodd;clip-rule:evenodd;fill:#374D84;" points="45.553,48.376 45.553,49.296 44.952,49.205 
		44.952,49.296 44.458,49.205 44.458,48.928 43.801,48.744 43.801,47.826 45.553,48.376 45.553,48.376 45.553,48.376 	"/>
	<polygon style="fill-rule:evenodd;clip-rule:evenodd;fill:#1D2E59;" points="43.801,47.962 43.965,47.826 45.553,48.56 
		45.444,48.56 43.801,47.962 43.801,47.962 43.801,47.962 	"/>
	<polygon style="fill-rule:evenodd;clip-rule:evenodd;fill:#FFFFFF;" points="43.801,47.089 45.553,48.009 45.553,49.296 
		44.896,49.02 44.896,48.928 45.444,49.02 45.444,48.009 43.965,47.411 43.965,48.422 44.513,48.606 44.513,48.928 43.801,48.515 
		43.801,47.089 43.801,47.089 43.801,47.089 	"/>
	<polygon style="fill-rule:evenodd;clip-rule:evenodd;fill:#4B68AF;" points="43.801,47.273 43.965,47.089 45.553,48.284 
		45.333,48.56 43.801,47.273 43.801,47.273 43.801,47.273 	"/>
	<polygon style="fill-rule:evenodd;clip-rule:evenodd;fill:#4B68AF;" points="47.305,50.032 47.743,50.032 48.181,50.308 
		48.181,50.768 47.305,50.032 47.305,50.032 47.305,50.032 	"/>
	<polygon style="fill-rule:evenodd;clip-rule:evenodd;fill:#1D2E59;" points="46.429,48.653 46.593,48.56 48.181,49.112 
		48.181,49.296 46.429,48.653 46.429,48.653 46.429,48.653 	"/>
	<polygon style="fill-rule:evenodd;clip-rule:evenodd;fill:#FFFFFF;" points="46.429,48.56 48.181,49.342 48.181,50.768 
		47.524,50.399 47.524,50.308 47.962,50.584 47.962,49.526 46.593,48.882 46.593,49.941 47.032,50.032 47.032,50.308 46.429,50.032 
		46.429,48.56 46.429,48.56 46.429,48.56 	"/>
	<polygon style="fill-rule:evenodd;clip-rule:evenodd;fill:#374D84;" points="48.181,49.433 48.181,50.768 47.633,50.399 
		47.633,50.538 47.032,50.399 47.032,50.032 46.429,49.941 46.429,48.56 48.181,49.433 48.181,49.433 48.181,49.433 	"/>
	<polygon style="fill-rule:evenodd;clip-rule:evenodd;fill:#4B68AF;" points="46.429,48.56 46.539,48.56 48.181,49.296 
		48.072,49.296 46.429,48.56 46.429,48.56 46.429,48.56 	"/>
	<path style="fill-rule:evenodd;clip-rule:evenodd;fill:#131E45;" d="M21.462,36.788c0.438,0.186,0.438,0.369,0.438,0.369
		c0,0.184,0,0.367-0.438,0.184c-0.438,0-0.438-0.184-0.438-0.367C21.025,36.788,21.025,36.788,21.462,36.788L21.462,36.788"/>
	<path style="fill-rule:evenodd;clip-rule:evenodd;fill:#131E45;" d="M14.892,34.582c0.438,0,0.438,0,0.438,0
		c0-0.736,0.438-0.736,0.438,0c-0.438,0-0.438,0-0.438,0S15.331,34.582,14.892,34.582"/>
	<path style="fill-rule:evenodd;clip-rule:evenodd;fill:#131E45;" d="M23.653,37.891c0-0.367,0-0.367,0-0.367l0,0
		C23.653,37.891,23.653,37.891,23.653,37.891c-0.876,0.369-0.876,0.369-0.876,0.369C23.653,38.26,23.653,37.891,23.653,37.891
		L23.653,37.891"/>
	<path style="fill-rule:evenodd;clip-rule:evenodd;fill:#131E45;" d="M23.105,37.524c0.274,0,0.548,0.276,0.548,0.506
		c0,0.23-0.274,0.23-0.548,0.23c0-0.23-0.328-0.46-0.328-0.46C22.777,37.524,23.105,37.524,23.105,37.524L23.105,37.524"/>
	<polygon style="fill-rule:evenodd;clip-rule:evenodd;fill:#131E45;" points="0.876,27.959 2.628,28.649 2.628,30.902 0.876,30.35 
		0.876,27.959 0.876,27.959 0.876,27.959 	"/>
	<polygon style="fill-rule:evenodd;clip-rule:evenodd;fill:#131E45;" points="0.876,28.051 1.15,27.959 2.628,28.603 2.519,28.695 
		0.876,28.051 0.876,28.051 0.876,28.051 	"/>
	<path style="fill-rule:evenodd;clip-rule:evenodd;fill:#FFFFFF;" d="M2.135,30.075c0.165,0,0.329,0,0.329-0.139
		c0-0.138-0.165-0.229-0.329-0.367c0,0-0.165,0-0.165,0.138C1.971,29.798,2.135,29.936,2.135,30.075 M2.135,29.43
		c0.329,0.139,0.493,0.368,0.493,0.506c0,0.23-0.164,0.23-0.493,0.23c-0.165-0.092-0.383-0.368-0.383-0.46
		C1.752,29.43,1.971,29.43,2.135,29.43L2.135,29.43L2.135,29.43z"/>
</g>
</svg>