<?xml version="1.0" encoding="iso-8859-1"?>
<!DOCTYPE svg PUBLIC "-//W3C//DTD SVG 1.1//EN" "http://www.w3.org/Graphics/SVG/1.1/DTD/svg11.dtd">
<svg version="1.1" xmlns="http://www.w3.org/2000/svg" xmlns:xlink="http://www.w3.org/1999/xlink" width="92" height="60" viewBox="0 0 92 60">
<g>
	<polygon style="fill-rule:evenodd;clip-rule:evenodd;fill:#273472;" points="51.314,38.724 91.826,21.342 91.826,41.975 
		51.314,59.357 51.314,38.724 51.314,38.724 51.314,38.724 	"/>
	<polygon style="fill-rule:evenodd;clip-rule:evenodd;fill:#4B68AF;" points="1.8,17.299 41.975,0 91.826,21.425 51.708,38.682 
		1.8,17.299 1.8,17.299 1.8,17.299 	"/>
	<polygon style="fill-rule:evenodd;clip-rule:evenodd;fill:#3F5792;" points="51.314,38.807 51.314,59.357 1.8,37.932 1.8,17.34 
		51.314,38.807 51.314,38.807 51.314,38.807 	"/>
	<polygon style="fill-rule:evenodd;clip-rule:evenodd;fill:#4B68AF;" points="0.9,33.43 1.237,33.346 2.701,33.888 2.419,34.013 
		0.9,33.43 0.9,33.43 0.9,33.43 	"/>
	<polygon style="fill-rule:evenodd;clip-rule:evenodd;fill:#354990;" points="2.701,34.097 2.701,37.348 0.9,36.722 0.9,33.346 
		2.701,34.097 2.701,34.097 2.701,34.097 	"/>
	<polygon style="fill-rule:evenodd;clip-rule:evenodd;fill:#4B68AF;" points="0.9,30.095 1.237,30.012 2.701,30.596 2.645,30.679 
		0.9,30.095 0.9,30.095 0.9,30.095 	"/>
	<polygon style="fill-rule:evenodd;clip-rule:evenodd;fill:#354990;" points="2.701,30.596 2.476,34.013 0.9,33.346 0.9,30.012 
		2.701,30.596 2.701,30.596 2.701,30.596 	"/>
	<polygon style="fill-rule:evenodd;clip-rule:evenodd;fill:#4B68AF;" points="0.9,26.094 1.069,26.01 2.701,26.636 2.588,26.677 
		0.9,26.094 0.9,26.094 0.9,26.094 	"/>
	<polygon style="fill-rule:evenodd;clip-rule:evenodd;fill:#354990;" points="2.701,26.677 2.701,30.012 0.9,29.428 1.125,26.01 
		2.701,26.677 2.701,26.677 2.701,26.677 	"/>
	<polygon style="fill-rule:evenodd;clip-rule:evenodd;fill:#4B68AF;" points="0.9,22.842 1.069,22.676 2.701,23.301 2.588,23.343 
		0.9,22.842 0.9,22.842 0.9,22.842 	"/>
	<polygon style="fill-rule:evenodd;clip-rule:evenodd;fill:#354990;" points="2.701,23.343 2.701,26.677 0.9,25.969 0.9,22.676 
		2.701,23.343 2.701,23.343 2.701,23.343 	"/>
	<polygon style="fill-rule:evenodd;clip-rule:evenodd;fill:#4B68AF;" points="2.701,34.139 3.095,34.013 22.507,42.6 22.169,42.684 
		2.701,34.139 2.701,34.139 2.701,34.139 	"/>
	<polygon style="fill-rule:evenodd;clip-rule:evenodd;fill:#FFFFFF;" points="22.507,42.558 22.507,46.019 2.701,37.598 
		2.701,34.013 22.507,42.558 22.507,42.558 22.507,42.558 	"/>
	<polygon style="fill-rule:evenodd;clip-rule:evenodd;fill:#4B68AF;" points="2.701,30.887 3.095,30.679 22.507,39.182 
		22.169,39.349 2.701,30.887 2.701,30.887 2.701,30.887 	"/>
	<polygon style="fill-rule:evenodd;clip-rule:evenodd;fill:#FFFFFF;" points="22.507,39.223 22.507,42.684 2.701,34.18 
		2.701,30.679 22.507,39.223 22.507,39.223 22.507,39.223 	"/>
	<polygon style="fill-rule:evenodd;clip-rule:evenodd;fill:#4B68AF;" points="2.701,26.886 3.095,26.677 22.507,35.263 
		22.281,35.347 2.701,26.886 2.701,26.886 2.701,26.886 	"/>
	<polygon style="fill-rule:evenodd;clip-rule:evenodd;fill:#FFFFFF;" points="22.507,35.306 22.395,38.682 2.701,30.596 
		2.701,27.344 22.507,35.306 22.507,35.306 22.507,35.306 	"/>
	<path style="fill-rule:evenodd;clip-rule:evenodd;fill:#3F5792;" d="M9.453,31.346c0.451,0.166,0.451,0.333,0.451,0.333
		c0,0.167,0,0.334-0.451,0.167c-0.45,0-0.45-0.167-0.45-0.334C9.003,31.346,9.003,31.346,9.453,31.346L9.453,31.346"/>
	<path style="fill-rule:evenodd;clip-rule:evenodd;fill:#4B68AF;" d="M9.003,31.512c0,0,0.225,0,0.394,0.167
		c0.168,0.334,0,0.334,0,0.334c0.337-0.167,0.337-0.167,0.337-0.167s0.169-0.167,0-0.334c0-0.166-0.169-0.166-0.169-0.166
		C9.003,31.512,9.003,31.512,9.003,31.512"/>
	<polygon style="fill-rule:evenodd;clip-rule:evenodd;fill:#4B68AF;" points="2.701,23.426 3.095,23.343 22.507,31.303 
		22.281,31.346 2.701,23.426 2.701,23.426 2.701,23.426 	"/>
	<polygon style="fill-rule:evenodd;clip-rule:evenodd;fill:#FFFFFF;" points="22.507,31.804 22.507,35.347 2.701,26.927 
		2.701,23.343 22.507,31.804 22.507,31.804 22.507,31.804 	"/>
	<polygon style="fill-rule:evenodd;clip-rule:evenodd;fill:#4B68AF;" points="22.507,42.768 22.844,42.684 24.307,43.226 
		24.026,43.35 22.507,42.768 22.507,42.768 22.507,42.768 	"/>
	<polygon style="fill-rule:evenodd;clip-rule:evenodd;fill:#354990;" points="24.307,43.434 24.307,46.685 22.507,46.06 
		22.507,42.684 24.307,43.434 24.307,43.434 24.307,43.434 	"/>
	<polygon style="fill-rule:evenodd;clip-rule:evenodd;fill:#4B68AF;" points="22.507,38.974 22.844,38.682 24.307,39.891 
		24.026,40.016 22.507,38.974 22.507,38.974 22.507,38.974 	"/>
	<polygon style="fill-rule:evenodd;clip-rule:evenodd;fill:#354990;" points="24.307,40.016 24.307,43.35 22.507,42.642 
		22.507,39.349 24.307,40.016 24.307,40.016 24.307,40.016 	"/>
	<polygon style="fill-rule:evenodd;clip-rule:evenodd;fill:#4B68AF;" points="22.507,35.514 22.844,35.347 24.307,35.889 
		24.026,36.015 22.507,35.514 22.507,35.514 22.507,35.514 	"/>
	<polygon style="fill-rule:evenodd;clip-rule:evenodd;fill:#354990;" points="24.307,35.972 24.307,39.349 22.507,38.682 
		22.507,35.347 24.307,35.972 24.307,35.972 24.307,35.972 	"/>
	<polygon style="fill-rule:evenodd;clip-rule:evenodd;fill:#4B68AF;" points="22.507,31.512 22.844,31.346 24.307,32.429 
		24.026,32.68 22.507,31.512 22.507,31.512 22.507,31.512 	"/>
	<polygon style="fill-rule:evenodd;clip-rule:evenodd;fill:#354990;" points="24.307,32.221 24.307,36.015 22.507,35.347 
		22.507,31.346 24.307,32.221 24.307,32.221 24.307,32.221 	"/>
	<polygon style="fill-rule:evenodd;clip-rule:evenodd;fill:#4B68AF;" points="24.307,43.434 24.645,43.35 26.107,43.892 
		25.826,44.017 24.307,43.434 24.307,43.434 24.307,43.434 	"/>
	<polygon style="fill-rule:evenodd;clip-rule:evenodd;fill:#354990;" points="26.107,44.101 26.107,47.352 24.307,46.769 
		24.307,43.35 26.107,44.101 26.107,44.101 26.107,44.101 	"/>
	<polygon style="fill-rule:evenodd;clip-rule:evenodd;fill:#4B68AF;" points="24.307,40.183 24.645,40.016 26.107,40.641 
		25.826,40.682 24.307,40.183 24.307,40.183 24.307,40.183 	"/>
	<polygon style="fill-rule:evenodd;clip-rule:evenodd;fill:#354990;" points="26.107,40.682 26.107,44.017 24.307,43.309 
		24.307,40.016 26.107,40.682 26.107,40.682 26.107,40.682 	"/>
	<polygon style="fill-rule:evenodd;clip-rule:evenodd;fill:#4B68AF;" points="24.307,36.097 24.645,36.015 26.107,36.556 
		25.826,36.681 24.307,36.097 24.307,36.097 24.307,36.097 	"/>
	<polygon style="fill-rule:evenodd;clip-rule:evenodd;fill:#354990;" points="26.107,36.765 26.107,40.016 24.307,39.391 
		24.307,36.015 26.107,36.765 26.107,36.765 26.107,36.765 	"/>
	<polygon style="fill-rule:evenodd;clip-rule:evenodd;fill:#4B68AF;" points="24.307,32.762 24.645,32.68 26.107,33.263 
		25.826,33.346 24.307,32.762 24.307,32.762 24.307,32.762 	"/>
	<polygon style="fill-rule:evenodd;clip-rule:evenodd;fill:#354990;" points="26.107,33.263 26.107,36.681 24.307,35.931 
		24.307,32.68 26.107,33.263 26.107,33.263 26.107,33.263 	"/>
	<polygon style="fill-rule:evenodd;clip-rule:evenodd;fill:#4B68AF;" points="26.107,44.143 26.276,44.017 45.914,52.521 
		45.575,52.688 26.107,44.143 26.107,44.143 26.107,44.143 	"/>
	<polygon style="fill-rule:evenodd;clip-rule:evenodd;fill:#FFFFFF;" points="45.914,52.729 45.914,56.023 26.107,47.936 
		26.107,44.685 45.914,52.729 45.914,52.729 45.914,52.729 	"/>
	<polygon style="fill-rule:evenodd;clip-rule:evenodd;fill:#4B68AF;" points="26.107,40.766 26.276,40.682 45.914,48.644 
		45.575,48.686 26.107,40.766 26.107,40.766 26.107,40.766 	"/>
	<polygon style="fill-rule:evenodd;clip-rule:evenodd;fill:#FFFFFF;" points="45.914,49.145 45.914,52.688 26.107,44.268 
		26.107,40.682 45.914,49.145 45.914,49.145 45.914,49.145 	"/>
	<polygon style="fill-rule:evenodd;clip-rule:evenodd;fill:#4B68AF;" points="26.107,36.806 26.276,36.681 45.914,45.268 
		45.575,45.351 26.107,36.806 26.107,36.806 26.107,36.806 	"/>
	<polygon style="fill-rule:evenodd;clip-rule:evenodd;fill:#FFFFFF;" points="45.914,45.268 45.914,48.686 26.107,40.308 
		26.107,36.681 45.914,45.268 45.914,45.268 45.914,45.268 	"/>
	<polygon style="fill-rule:evenodd;clip-rule:evenodd;fill:#4B68AF;" points="26.107,33.514 26.501,33.346 45.914,41.225 
		45.575,41.35 26.107,33.514 26.107,33.514 26.107,33.514 	"/>
	<polygon style="fill-rule:evenodd;clip-rule:evenodd;fill:#FFFFFF;" points="45.914,41.892 45.914,45.351 26.107,36.848 
		26.107,33.346 45.914,41.892 45.914,41.892 45.914,41.892 	"/>
	<polygon style="fill-rule:evenodd;clip-rule:evenodd;fill:#4B68AF;" points="45.914,52.688 46.139,52.688 47.714,53.271 
		47.489,53.355 45.914,52.688 45.914,52.688 45.914,52.688 	"/>
	<polygon style="fill-rule:evenodd;clip-rule:evenodd;fill:#354990;" points="47.714,53.355 47.714,56.689 45.914,55.98 
		45.914,52.688 47.714,53.355 47.714,53.355 47.714,53.355 	"/>
	<polygon style="fill-rule:evenodd;clip-rule:evenodd;fill:#4B68AF;" points="45.914,48.978 46.139,48.686 47.714,49.895 
		47.489,50.02 45.914,48.978 45.914,48.978 45.914,48.978 	"/>
	<polygon style="fill-rule:evenodd;clip-rule:evenodd;fill:#354990;" points="47.714,50.061 47.714,53.355 45.914,52.771 
		45.914,49.353 47.714,50.061 47.714,50.061 47.714,50.061 	"/>
	<polygon style="fill-rule:evenodd;clip-rule:evenodd;fill:#4B68AF;" points="45.914,45.435 46.251,45.351 47.714,45.893 
		47.432,46.019 45.914,45.435 45.914,45.435 45.914,45.435 	"/>
	<polygon style="fill-rule:evenodd;clip-rule:evenodd;fill:#354990;" points="47.714,46.101 47.714,49.353 45.914,48.728 
		45.914,45.351 47.714,46.101 47.714,46.101 47.714,46.101 	"/>
	<polygon style="fill-rule:evenodd;clip-rule:evenodd;fill:#4B68AF;" points="45.914,41.516 46.251,41.35 47.714,41.975 
		47.432,42.016 45.914,41.516 45.914,41.516 45.914,41.516 	"/>
	<polygon style="fill-rule:evenodd;clip-rule:evenodd;fill:#354990;" points="47.714,42.141 47.714,46.019 45.914,45.185 
		45.914,41.35 47.714,42.141 47.714,42.141 47.714,42.141 	"/>
	<polygon style="fill-rule:evenodd;clip-rule:evenodd;fill:#4B68AF;" points="0.9,19.508 1.069,19.341 2.701,19.966 2.588,20.008 
		0.9,19.508 0.9,19.508 0.9,19.508 	"/>
	<polygon style="fill-rule:evenodd;clip-rule:evenodd;fill:#354990;" points="2.701,20.05 2.701,22.676 0.9,22.009 0.9,19.341 
		2.701,20.05 2.701,20.05 2.701,20.05 	"/>
	<polygon style="fill-rule:evenodd;clip-rule:evenodd;fill:#4B68AF;" points="2.701,20.216 3.095,20.008 45.914,38.598 
		45.575,38.682 2.701,20.216 2.701,20.216 2.701,20.216 	"/>
	<polygon style="fill-rule:evenodd;clip-rule:evenodd;fill:#FFFFFF;" points="45.914,38.765 45.914,41.35 2.701,23.301 
		2.701,20.675 45.914,38.765 45.914,38.765 45.914,38.765 	"/>
	<polygon style="fill-rule:evenodd;clip-rule:evenodd;fill:#4B68AF;" points="45.914,38.765 46.251,38.682 47.714,39.307 
		47.432,39.349 45.914,38.765 45.914,38.765 45.914,38.765 	"/>
	<polygon style="fill-rule:evenodd;clip-rule:evenodd;fill:#354990;" points="47.714,39.391 47.714,42.016 45.914,41.35 
		45.914,38.682 47.714,39.391 47.714,39.391 47.714,39.391 	"/>
	<polygon style="fill-rule:evenodd;clip-rule:evenodd;fill:#273472;" points="28.808,32.554 28.808,33.346 28.527,33.222 
		28.527,33.305 28.246,33.222 28.246,33.013 27.908,32.846 27.908,32.013 28.808,32.554 28.808,32.554 28.808,32.554 	"/>
	<polygon style="fill-rule:evenodd;clip-rule:evenodd;fill:#273472;" points="36.011,46.143 36.011,47.352 35.729,47.018 
		35.729,47.352 35.447,47.018 35.447,46.935 35.11,46.602 35.11,45.351 36.011,46.143 36.011,46.143 36.011,46.143 	"/>
	<polygon style="fill-rule:evenodd;clip-rule:evenodd;fill:#273472;" points="36.011,49.895 36.011,50.686 35.729,50.478 
		35.729,50.686 35.447,50.478 35.447,50.395 35.11,50.187 35.11,49.353 36.011,49.895 36.011,49.895 36.011,49.895 	"/>
	<polygon style="fill-rule:evenodd;clip-rule:evenodd;fill:#273472;" points="36.011,42.558 36.011,43.35 35.729,43.142 
		35.729,43.35 35.447,43.142 35.447,43.059 35.11,42.85 35.11,42.016 36.011,42.558 36.011,42.558 36.011,42.558 	"/>
	<polygon style="fill-rule:evenodd;clip-rule:evenodd;fill:#273472;" points="39.893,36.931 39.893,37.014 40.512,37.223 
		40.512,38.015 38.711,37.515 38.711,36.681 39.387,36.931 39.387,36.681 39.893,36.931 39.893,36.931 39.893,36.931 	"/>
	<polygon style="fill-rule:evenodd;clip-rule:evenodd;fill:#273472;" points="36.404,35.598 36.404,35.723 36.911,35.847 
		36.911,36.681 35.11,36.223 35.11,35.347 35.842,35.598 35.842,35.347 36.404,35.598 36.404,35.598 36.404,35.598 	"/>
	<polygon style="fill-rule:evenodd;clip-rule:evenodd;fill:#273472;" points="49.516,59.274 51.314,58.69 51.314,59.44 
		49.516,60.024 49.516,59.274 49.516,59.274 49.516,59.274 	"/>
	<polygon style="fill-rule:evenodd;clip-rule:evenodd;fill:#4B68AF;" points="0,37.973 1.407,37.348 51.314,58.773 49.854,59.357 
		0,37.973 0,37.973 0,37.973 	"/>
	<polygon style="fill-rule:evenodd;clip-rule:evenodd;fill:#354990;" points="49.516,59.274 49.516,60.024 0,38.89 0,38.015 
		49.516,59.274 49.516,59.274 49.516,59.274 	"/>
	<path style="fill-rule:evenodd;clip-rule:evenodd;fill:#273472;" d="M2.701,21.467v-0.125c0,0,0,0,0-0.084l0,0l0,0
		c0,0,0-0.125-0.169-0.125c0-0.125,0-0.125,0-0.125l0,0c-0.168-0.083-0.168-0.083-0.168-0.083l0,0l0,0c0,0,0-0.125-0.169-0.125l0,0
		l0,0H2.025c0-0.125,0-0.125,0-0.125H1.8l0,0c0,0-0.169,0-0.169,0.125C0.9,21.008,0.9,21.008,0.9,21.008h0.225l0,0
		c0.169,0,0.169,0,0.338,0c0,0,0,0.125,0.168,0.125l0,0c0,0.125,0.169,0.125,0.169,0.208l0,0c0,0.125,0.225,0.125,0.225,0.25l0,0
		v0.083c0,0.125,0,0.125,0,0.25l0,0L1.8,22.009c0.225,0,0.225,0,0.225,0c0-0.083,0-0.083,0-0.083c0.169,0,0.338-0.125,0.506-0.25
		c0.169,0,0.169,0,0.169,0s0,0,0-0.083l0,0l0,0C2.701,21.592,2.701,21.592,2.701,21.467L2.701,21.467L2.701,21.467"/>
	<path style="fill-rule:evenodd;clip-rule:evenodd;fill:#657DB9;" d="M1.463,21.675c0-0.625,0-0.625,0-0.625
		c-0.169,0-0.169,0-0.169,0c0,0.5,0,0.5,0,0.5C1.463,21.675,1.463,21.675,1.463,21.675 M1.463,20.8C1.688,20.925,1.8,21.3,1.8,21.55
		c0,0.375-0.112,0.459-0.337,0.25C1.182,21.675,0.9,21.425,0.9,21.05C0.9,20.8,1.182,20.675,1.463,20.8L1.463,20.8L1.463,20.8z"/>
	<polygon style="fill-rule:evenodd;clip-rule:evenodd;fill:#FFFFFF;" points="1.8,22.009 1.8,21.342 0.9,21.342 0.9,21.926 
		1.8,22.009 	"/>
	<path style="fill-rule:evenodd;clip-rule:evenodd;fill:#273472;" d="M2.701,24.76c0,0,0,0,0-0.125l0,0V24.51l0,0
		c0,0,0-0.125-0.169-0.125c0,0,0,0,0-0.125l0,0c-0.168,0-0.168-0.125-0.168-0.125l0,0l0,0c0,0,0,0-0.169-0.125l0,0l0,0H2.025l0,0
		H1.8l0,0H1.631C0.9,24.26,0.9,24.26,0.9,24.26h0.225l0,0c0.169,0,0.169,0,0.338,0c0,0.125,0,0.125,0.168,0.25l0,0
		c0,0,0.169,0,0.169,0.125l0,0c0,0.125,0.225,0.125,0.225,0.25l0,0c0,0.125,0,0.125,0,0.25v0.125l0,0
		c0,0.083-0.225,0.083-0.225,0.083c0.225,0,0.225,0,0.225,0l0,0c0.169-0.083,0.338-0.208,0.506-0.208
		c0.169-0.125,0.169-0.125,0.169-0.125l0,0l0,0v-0.125l0,0V24.76L2.701,24.76"/>
	<path style="fill-rule:evenodd;clip-rule:evenodd;fill:#657DB9;" d="M1.463,25.677c0-0.625,0-0.625,0-0.625
		c-0.169,0-0.169,0-0.169,0c0,0.625,0,0.625,0,0.625C1.463,25.677,1.463,25.677,1.463,25.677 M1.463,24.802
		c0.225,0.25,0.337,0.5,0.337,0.875c0,0.25-0.112,0.333-0.337,0.25c-0.281-0.125-0.563-0.5-0.563-0.875
		C0.9,24.802,1.182,24.677,1.463,24.802L1.463,24.802L1.463,24.802z"/>
	<polygon style="fill-rule:evenodd;clip-rule:evenodd;fill:#FFFFFF;" points="0.9,24.677 0.9,25.343 1.8,25.343 1.8,24.677 
		0.9,24.677 	"/>
	<path style="fill-rule:evenodd;clip-rule:evenodd;fill:#273472;" d="M2.701,28.886c0-0.124,0-0.124,0-0.124v-0.126l0,0l0,0
		c0-0.125,0-0.125-0.169-0.25l0,0v-0.125c-0.168,0-0.168,0-0.168,0l0,0c0,0,0,0,0-0.125c0,0,0,0-0.169,0l0,0l0,0
		c0-0.125-0.169-0.125-0.169-0.125l0,0H1.8l0,0H1.631C0.9,28.386,0.9,28.386,0.9,28.386l0.225-0.125l0,0
		c0.169,0.125,0.169,0.125,0.338,0.125c0,0,0,0.125,0.168,0.125l0,0c0,0.125,0.169,0.125,0.169,0.125v0.126l0.225,0.124
		c0,0,0,0,0,0.125v0.126c0,0.124,0,0.124,0,0.208l0,0H1.8c0.225,0,0.225,0,0.225,0l0,0c0.169-0.084,0.338-0.084,0.506-0.208
		c0.169,0,0.169,0,0.169-0.126l0,0l0,0l0,0V28.886L2.701,28.886L2.701,28.886"/>
	<path style="fill-rule:evenodd;clip-rule:evenodd;fill:#657DB9;" d="M1.463,29.095c0-0.667,0-0.667,0-0.667
		c-0.169-0.125-0.169-0.125-0.169-0.125c0,0.666,0,0.666,0,0.666C1.463,29.095,1.463,29.095,1.463,29.095 M1.463,28.178
		c0.225,0.125,0.337,0.5,0.337,0.791c0,0.251-0.112,0.376-0.337,0.251C1.182,29.095,0.9,28.678,0.9,28.428
		S1.182,28.011,1.463,28.178L1.463,28.178L1.463,28.178z"/>
	<polygon style="fill-rule:evenodd;clip-rule:evenodd;fill:#FFFFFF;" points="1.8,28.678 1.8,28.094 0.9,28.011 0.9,28.594 
		1.8,28.678 	"/>
	<path style="fill-rule:evenodd;clip-rule:evenodd;fill:#273472;" d="M2.701,32.096L2.701,32.096c0-0.125,0-0.125,0-0.125l0,0l0,0
		c0-0.125,0-0.125-0.169-0.249l0,0c0-0.127,0-0.127,0-0.127c-0.168,0-0.168,0-0.168,0c0-0.124,0-0.124,0-0.124l0,0c0,0,0,0-0.169,0
		v-0.125l0,0H2.025l0,0H1.8l0,0H1.631C0.9,31.595,0.9,31.595,0.9,31.595h0.225l0,0c0.169,0,0.169,0,0.338,0.127c0,0,0,0,0.168,0.124
		l0,0L1.8,31.971l0,0c0,0.125,0.225,0.25,0.225,0.25l0,0c0,0.125,0,0.125,0,0.25v0.126l0,0c0,0.083-0.225,0.083-0.225,0.083
		c0.225,0,0.225,0,0.225,0l0,0c0.169-0.083,0.338-0.209,0.506-0.209c0.169,0,0.169-0.125,0.169-0.125l0,0l0,0l0,0
		c0-0.125,0-0.125,0-0.125l0,0C2.701,32.096,2.701,32.096,2.701,32.096"/>
	<path style="fill-rule:evenodd;clip-rule:evenodd;fill:#657DB9;" d="M1.463,32.305c0-0.542,0-0.542,0-0.542
		c-0.169-0.125-0.169-0.125-0.169-0.125c0,0.667,0,0.667,0,0.667C1.463,32.305,1.463,32.305,1.463,32.305 M1.463,31.512
		C1.688,31.638,1.8,32.013,1.8,32.305c0,0.249-0.112,0.375-0.337,0.249C1.182,32.429,0.9,32.013,0.9,31.763
		C0.9,31.346,1.182,31.346,1.463,31.512L1.463,31.512L1.463,31.512z"/>
	<polygon style="fill-rule:evenodd;clip-rule:evenodd;fill:#FFFFFF;" points="1.8,32.68 1.8,32.221 0.9,32.013 0.9,32.68 1.8,32.68 
			"/>
	<path style="fill-rule:evenodd;clip-rule:evenodd;fill:#273472;" d="M2.701,35.847V35.68c0,0,0,0,0-0.166l0,0l0,0
		c0,0,0-0.167-0.169-0.167c0-0.166,0-0.166,0-0.166l0,0c-0.168-0.167-0.168-0.167-0.168-0.167l0,0l0,0c0,0,0-0.168-0.169-0.168l0,0
		l0,0H2.025c0-0.165,0-0.165,0-0.165H1.8l0,0c0,0-0.169,0-0.169,0.165C0.9,35.181,0.9,35.181,0.9,35.181h0.225l0,0
		c0.169,0,0.169,0,0.338,0c0,0,0,0.166,0.168,0.166l0,0c0,0.167,0.169,0.167,0.169,0.333l0,0c0,0.167,0.225,0.167,0.225,0.335l0,0
		v0.166c0,0.167,0,0.167,0,0.333l0,0L1.8,36.681c0.225,0,0.225,0,0.225,0c0-0.167,0-0.167,0-0.167c0.169,0,0.338-0.166,0.506-0.333
		c0.169,0,0.169,0,0.169,0s0,0,0-0.166l0,0l0,0C2.701,36.015,2.701,36.015,2.701,35.847L2.701,35.847L2.701,35.847"/>
	<path style="fill-rule:evenodd;clip-rule:evenodd;fill:#657DB9;" d="M1.463,36.348c0-0.625,0-0.625,0-0.625
		c-0.169,0-0.169,0-0.169,0c0,0.5,0,0.5,0,0.5C1.463,36.348,1.463,36.348,1.463,36.348 M1.463,35.472
		c0.225,0.126,0.337,0.5,0.337,0.751c0,0.375-0.112,0.458-0.337,0.25C1.182,36.348,0.9,36.097,0.9,35.723
		C0.9,35.472,1.182,35.347,1.463,35.472L1.463,35.472L1.463,35.472z"/>
	<polygon style="fill-rule:evenodd;clip-rule:evenodd;fill:#FFFFFF;" points="1.8,36.015 1.8,35.347 0.9,35.347 0.9,35.931 
		1.8,36.015 	"/>
	<path style="fill-rule:evenodd;clip-rule:evenodd;fill:#273472;" d="M47.714,40.766L47.714,40.766v-0.125l0,0l0,0
		c0-0.125,0-0.125-0.169-0.25l0,0v-0.126c-0.169,0-0.169,0-0.169,0l0,0c0-0.124,0-0.124,0-0.124s0,0-0.169,0l0,0
		c0-0.125,0-0.125,0-0.125h-0.169l0,0c-0.225,0-0.225,0-0.225,0l0,0h-0.169c-0.73,0.375-0.73,0.375-0.73,0.375
		c0-0.126,0.225-0.126,0.225-0.126l0,0c0.169,0,0.169,0.126,0.337,0.126c0,0,0,0.125,0.169,0.125l0,0l0.169,0.125v0.125l0.225,0.125
		l0,0c0,0.126,0,0.25,0,0.25c0,0.125,0,0.125,0,0.125c0,0.084,0,0.084,0,0.084h-0.225l0,0c0.225,0,0.225,0,0.225,0
		c0.169-0.084,0.338-0.084,0.507-0.209c0.169,0,0.169,0,0.169-0.124l0,0l0,0l0,0v-0.126l0,0
		C47.714,40.891,47.714,40.891,47.714,40.766"/>
	<path style="fill-rule:evenodd;clip-rule:evenodd;fill:#657DB9;" d="M46.476,41.099c0-0.666,0-0.666,0-0.666
		c-0.168-0.125-0.168-0.125-0.168-0.125c0,0.666,0,0.666,0,0.666C46.476,41.099,46.476,41.099,46.476,41.099 M46.476,40.183
		c0.226,0.125,0.338,0.499,0.338,0.791c0,0.251-0.112,0.376-0.338,0.251c-0.281-0.126-0.562-0.543-0.562-0.792
		C45.914,40.183,46.194,40.016,46.476,40.183L46.476,40.183L46.476,40.183z"/>
	<path style="fill-rule:evenodd;clip-rule:evenodd;fill:#273472;" d="M47.714,44.143c0-0.126,0-0.126,0-0.126s0,0,0-0.083l0,0l0,0
		c0-0.125,0-0.125-0.169-0.125c0-0.125,0-0.125,0-0.125s0,0,0-0.084c-0.169,0-0.169,0-0.169,0l0,0l0,0c0-0.125,0-0.125-0.169-0.125
		l0,0l0,0c0,0-0.169,0-0.169-0.125l0,0c-0.225,0-0.225,0-0.225,0l0,0h-0.169c-0.73,0.334-0.73,0.334-0.73,0.334h0.225l0,0
		c0.169,0,0.169,0,0.337,0c0,0,0,0.125,0.169,0.125l0,0c0,0.125,0.169,0.125,0.169,0.208l0,0c0,0,0.225,0.126,0.225,0.251l0,0v0.083
		c0,0.125,0,0.125,0,0.25l0,0l-0.225,0.084c0-0.084,0-0.084,0-0.084c0.225,0,0.225,0,0.225,0c0.169,0,0.338-0.125,0.507-0.25
		c0.169,0,0.169,0,0.169,0v-0.083l0,0l0,0C47.714,44.268,47.714,44.268,47.714,44.143L47.714,44.143L47.714,44.143"/>
	<path style="fill-rule:evenodd;clip-rule:evenodd;fill:#657DB9;" d="M46.476,44.351c0-0.625,0-0.625,0-0.625
		c-0.168,0-0.168,0-0.168,0c0,0.499,0,0.499,0,0.499C46.476,44.351,46.476,44.351,46.476,44.351 M46.476,43.475
		c0.226,0.125,0.338,0.501,0.338,0.75c0,0.376-0.112,0.46-0.338,0.251c-0.281-0.125-0.562-0.5-0.562-0.75
		C45.914,43.475,46.194,43.35,46.476,43.475L46.476,43.475L46.476,43.475z"/>
	<path style="fill-rule:evenodd;clip-rule:evenodd;fill:#273472;" d="M47.714,47.435c0,0,0,0,0-0.125l0,0l0,0c0,0,0,0,0-0.124
		c0,0,0-0.125-0.169-0.125l0,0c0-0.126,0-0.126,0-0.126c-0.169,0-0.169,0-0.169-0.125l0,0l0,0c0,0,0,0-0.169,0
		c0-0.125,0-0.125,0-0.125l0,0h-0.169l0,0c-0.225,0-0.225,0-0.225,0l0,0h-0.169c-0.73,0.25-0.73,0.25-0.73,0.25h0.225l0,0
		c0.169,0,0.169,0,0.337,0.126c0,0,0,0,0.169,0.125l0,0l0.169,0.124l0,0c0,0.125,0.225,0.125,0.225,0.25l0,0
		c0,0.126,0,0.126,0,0.251v0.125l0,0c0,0.083-0.225,0.083-0.225,0.083l0,0c0.225,0,0.225,0,0.225,0
		c0.169-0.083,0.338-0.208,0.507-0.208s0.169-0.125,0.169-0.125l0,0l0,0c0,0,0,0,0-0.126l0,0
		C47.714,47.56,47.714,47.56,47.714,47.435L47.714,47.435"/>
	<path style="fill-rule:evenodd;clip-rule:evenodd;fill:#657DB9;" d="M46.476,47.852c0-0.25,0-0.25,0-0.25
		c-0.168-0.042-0.168-0.042-0.168-0.042c0,0.292,0,0.292,0,0.292C46.476,47.852,46.476,47.852,46.476,47.852 M46.476,47.478
		c0.226,0.082,0.338,0.249,0.338,0.374s-0.112,0.167-0.338,0.125c-0.281-0.041-0.562-0.25-0.562-0.375
		C45.914,47.435,46.194,47.352,46.476,47.478L46.476,47.478L46.476,47.478z"/>
	<path style="fill-rule:evenodd;clip-rule:evenodd;fill:#273472;" d="M47.714,51.479v-0.125l0,0c0-0.084,0-0.084,0-0.084l0,0
		c0,0,0-0.125-0.169-0.125c0,0,0,0,0-0.124l0,0c-0.169,0-0.169-0.084-0.169-0.084l0,0l0,0c0,0,0,0-0.169-0.125l0,0l0,0h-0.169l0,0
		c-0.225-0.126-0.225,0-0.225,0c0-0.126,0-0.126,0-0.126l-0.169,0.126c-0.73,0.209-0.73,0.209-0.73,0.209h0.225l0,0
		c0.169,0,0.169,0,0.337,0c0,0.124,0,0.124,0.169,0.124c0,0.125,0,0.125,0,0.125s0.169,0,0.169,0.084l0,0
		c0,0.125,0.225,0.125,0.225,0.25l0,0c0,0.083,0,0.083,0,0.208v0.125l0,0l-0.225,0.083l0,0c0.225,0,0.225,0,0.225-0.083
		c0.169,0,0.338-0.125,0.507-0.125c0.169-0.125,0.169-0.125,0.169-0.125l0,0l0,0c0-0.083,0-0.083,0-0.083l0,0
		C47.714,51.479,47.714,51.479,47.714,51.479L47.714,51.479"/>
	<path style="fill-rule:evenodd;clip-rule:evenodd;fill:#657DB9;" d="M46.476,51.687c0-0.625,0-0.625,0-0.625
		c-0.168,0-0.168,0-0.168,0c0,0.625,0,0.625,0,0.625C46.476,51.687,46.476,51.687,46.476,51.687 M46.476,50.812
		c0.226,0.25,0.338,0.5,0.338,0.875c0,0.25-0.112,0.333-0.338,0.25c-0.281-0.125-0.562-0.501-0.562-0.875
		C45.914,50.812,46.194,50.686,46.476,50.812L46.476,50.812L46.476,50.812z"/>
	<path style="fill-rule:evenodd;clip-rule:evenodd;fill:#273472;" d="M47.714,54.772L47.714,54.772v-0.126l0,0l0,0
		c0-0.125,0-0.125-0.169-0.249l0,0v-0.125c-0.169,0-0.169,0-0.169,0l0,0c0-0.125,0-0.125,0-0.125s0,0-0.169,0l0,0
		c0-0.126,0-0.126,0-0.126h-0.169l0,0c-0.225,0-0.225,0-0.225,0l0,0h-0.169c-0.73,0.376-0.73,0.376-0.73,0.376
		c0-0.125,0.225-0.125,0.225-0.125l0,0c0.169,0,0.169,0.125,0.337,0.125c0,0,0,0.124,0.169,0.124l0,0l0.169,0.125v0.126l0.225,0.125
		l0,0c0,0.125,0,0.25,0,0.25c0,0.125,0,0.125,0,0.125c0,0.083,0,0.083,0,0.083h-0.225l0,0c0.225,0,0.225,0,0.225,0
		c0.169-0.083,0.338-0.083,0.507-0.208c0.169,0,0.169,0,0.169-0.125l0,0l0,0l0,0v-0.125l0,0
		C47.714,54.897,47.714,54.897,47.714,54.772"/>
	<path style="fill-rule:evenodd;clip-rule:evenodd;fill:#657DB9;" d="M46.476,55.105c0-0.667,0-0.667,0-0.667
		c-0.168-0.125-0.168-0.125-0.168-0.125c0,0.668,0,0.668,0,0.668C46.476,55.105,46.476,55.105,46.476,55.105 M46.476,54.188
		c0.226,0.125,0.338,0.501,0.338,0.793c0,0.249-0.112,0.374-0.338,0.249c-0.281-0.125-0.562-0.541-0.562-0.792
		C45.914,54.188,46.194,54.021,46.476,54.188L46.476,54.188L46.476,54.188z"/>
	<path style="fill-rule:evenodd;clip-rule:evenodd;fill:#273472;" d="M24.307,34.097L24.307,34.097c0-0.126,0-0.126,0-0.126l0,0l0,0
		c0-0.124,0-0.124-0.169-0.249l0,0v-0.126c-0.169,0-0.169,0-0.169,0v-0.124l0,0c0,0,0,0-0.168,0c0,0,0,0,0-0.126l0,0h-0.169l0,0
		h-0.225l0,0h-0.169c-0.731,0.376-0.731,0.376-0.731,0.376c0-0.126,0.225-0.126,0.225-0.126l0,0c0.169,0,0.169,0,0.337,0.126
		c0,0,0,0,0.169,0.125l0,0l0.169,0.124c0,0,0,0,0,0.126l0.225,0.124l0,0c0,0.126,0,0.126,0,0.251s0,0.125,0,0.125l0,0
		c0,0.084-0.225,0.084-0.225,0.084c0.225,0,0.225,0,0.225,0l0,0c0.169-0.084,0.337-0.084,0.506-0.209
		c0.169,0,0.169-0.125,0.169-0.125l0,0l0,0l0,0c0-0.126,0-0.126,0-0.126l0,0V34.097"/>
	<path style="fill-rule:evenodd;clip-rule:evenodd;fill:#657DB9;" d="M23.069,34.43c0-0.666,0-0.666,0-0.666
		C22.9,33.638,22.9,33.638,22.9,33.638c0,0.667,0,0.667,0,0.667C23.069,34.43,23.069,34.43,23.069,34.43 M23.069,33.514
		c0.226,0.124,0.338,0.499,0.338,0.791c0,0.25-0.112,0.376-0.338,0.25c-0.281-0.125-0.562-0.542-0.562-0.791
		C22.507,33.514,22.788,33.346,23.069,33.514L23.069,33.514L23.069,33.514z"/>
	<path style="fill-rule:evenodd;clip-rule:evenodd;fill:#273472;" d="M24.307,37.474v-0.126c0,0,0,0,0-0.083l0,0l0,0
		c0,0,0-0.126-0.169-0.126v-0.125l0,0c-0.169-0.083-0.169-0.083-0.169-0.083l0,0l0,0c0,0,0-0.125-0.168-0.125l0,0l0,0h-0.169v-0.125
		h-0.225l0,0c0,0-0.169,0-0.169,0.125c-0.731,0.208-0.731,0.208-0.731,0.208h0.225l0,0c0.169,0,0.169,0,0.337,0
		c0,0.125,0,0.125,0.169,0.125c0,0,0,0,0,0.126c0,0,0.169,0,0.169,0.083l0,0c0,0.126,0.225,0.126,0.225,0.25l0,0
		c0,0,0,0.084,0,0.209c0,0,0,0,0,0.125l0,0l-0.225,0.083c0.225,0,0.225,0,0.225,0v-0.083c0.169,0,0.337-0.125,0.506-0.25
		c0.169,0,0.169,0,0.169,0l0,0v-0.084l0,0l0,0C24.307,37.474,24.307,37.474,24.307,37.474L24.307,37.474"/>
	<path style="fill-rule:evenodd;clip-rule:evenodd;fill:#657DB9;" d="M23.069,38.348c0-0.625,0-0.625,0-0.625
		c-0.168,0-0.168,0-0.168,0c0,0.625,0,0.625,0,0.625C23.069,38.348,23.069,38.348,23.069,38.348 M23.069,37.474
		c0.226,0.124,0.338,0.499,0.338,0.75c0,0.374-0.112,0.458-0.338,0.374c-0.281-0.25-0.562-0.499-0.562-0.875
		C22.507,37.474,22.788,37.348,23.069,37.474L23.069,37.474L23.069,37.474z"/>
	<path style="fill-rule:evenodd;clip-rule:evenodd;fill:#273472;" d="M24.307,41.475c0-0.125,0-0.125,0-0.125v-0.084l0,0l0,0
		c0-0.125,0-0.125-0.169-0.249l0,0c0,0,0,0,0-0.084c-0.169,0-0.169,0-0.169,0l0,0l0,0c0-0.125,0-0.125-0.168-0.125l0,0l0,0
		l-0.169-0.126l0,0h-0.225l0,0h-0.169c-0.731,0.335-0.731,0.335-0.731,0.335h0.225l0,0c0.169,0,0.169,0,0.337,0
		c0,0,0,0.124,0.169,0.124l0,0c0,0.125,0.169,0.125,0.169,0.125c0,0.084,0,0.084,0,0.084l0.225,0.125V41.6v0.083
		c0,0.125,0,0.125,0,0.25l0,0c0,0-0.225,0-0.225,0.083c0.225-0.083,0.225-0.083,0.225-0.083l0,0c0.169-0.125,0.337-0.125,0.506-0.25
		c0.169,0,0.169,0,0.169-0.083l0,0l0,0l0,0V41.475L24.307,41.475L24.307,41.475"/>
	<path style="fill-rule:evenodd;clip-rule:evenodd;fill:#657DB9;" d="M23.069,41.767c0-0.668,0-0.668,0-0.668
		C22.9,40.974,22.9,40.974,22.9,40.974c0,0.668,0,0.668,0,0.668C23.069,41.767,23.069,41.767,23.069,41.767 M23.069,40.849
		c0.226,0.125,0.338,0.501,0.338,0.793c0,0.374-0.112,0.374-0.338,0.25c-0.281-0.125-0.562-0.542-0.562-0.793
		C22.507,40.849,22.788,40.682,23.069,40.849L23.069,40.849L23.069,40.849z"/>
	<path style="fill-rule:evenodd;clip-rule:evenodd;fill:#273472;" d="M24.307,44.768c0,0,0,0,0-0.126l0,0c0,0,0,0,0-0.125l0,0
		c0,0,0-0.124-0.169-0.124l0,0c0-0.125,0-0.125,0-0.125c-0.169,0-0.169,0-0.169-0.125l0,0l0,0c0,0,0,0-0.168,0
		c0-0.126,0-0.126,0-0.126l0,0h-0.169l0,0h-0.225l0,0h-0.169c-0.731,0.251-0.731,0.251-0.731,0.251h0.225l0,0
		c0.169,0,0.169,0,0.337,0.125c0,0,0,0,0.169,0.124l0,0l0.169,0.125l0,0c0,0.126,0.225,0.126,0.225,0.251l0,0
		c0,0.125,0,0.125,0,0.25v0.125l0,0c0,0.083-0.225,0.083-0.225,0.083c0.225,0,0.225,0,0.225,0l0,0
		c0.169-0.083,0.337-0.208,0.506-0.208c0.169-0.125,0.169-0.125,0.169-0.125l0,0l0,0v-0.125l0,0V44.768L24.307,44.768"/>
	<path style="fill-rule:evenodd;clip-rule:evenodd;fill:#657DB9;" d="M23.069,45.018c0-0.501,0-0.501,0-0.501
		C22.9,44.393,22.9,44.393,22.9,44.393c0,0.625,0,0.625,0,0.625C23.069,45.018,23.069,45.018,23.069,45.018 M23.069,44.143
		c0.226,0.25,0.338,0.499,0.338,0.875c0,0.25-0.112,0.333-0.338,0.25c-0.281-0.125-0.562-0.5-0.562-0.751
		C22.507,44.143,22.788,44.017,23.069,44.143L23.069,44.143L23.069,44.143z"/>
	<path style="fill-rule:evenodd;clip-rule:evenodd;fill:#273472;" d="M26.107,34.764c0,0,0,0,0-0.126l0,0v-0.125l0,0
		c-0.169,0-0.169-0.124-0.169-0.124s0,0,0-0.126h-0.168v-0.124l0,0l0,0c-0.169,0-0.169,0-0.169-0.126c0,0,0,0-0.169,0l0,0l0,0
		h-0.225l0,0l0,0c-0.169,0-0.169,0-0.169,0c-0.731,0.25-0.731,0.25-0.731,0.25s0,0,0.225,0l0,0h0.169
		c0.169,0.126,0.169,0.126,0.337,0.25l0,0c0,0,0,0,0.169,0.125l0,0c0,0.126,0,0.126,0.225,0.251l0,0c0,0.125,0,0.125,0,0.25v0.124
		l0,0c-0.225,0.084-0.225,0.084-0.225,0.084l0,0c0,0,0,0,0.225,0c0.169-0.084,0.338-0.208,0.506-0.208c0-0.125,0-0.125,0.169-0.125
		l0,0l0,0v-0.125l0,0V34.764L26.107,34.764"/>
	<path style="fill-rule:evenodd;clip-rule:evenodd;fill:#657DB9;" d="M24.87,35.472c0-0.875,0-0.875,0-0.875
		c-0.169,0-0.169,0-0.169,0c0,0.875,0,0.875,0,0.875C24.87,35.472,24.87,35.472,24.87,35.472 M24.701,34.221
		c0.281,0.376,0.506,0.709,0.506,1.251c0,0.375-0.225,0.543-0.506,0.375c-0.225-0.167-0.394-0.708-0.394-1.25
		C24.307,34.221,24.476,34.013,24.701,34.221L24.701,34.221L24.701,34.221z"/>
	<path style="fill-rule:evenodd;clip-rule:evenodd;fill:#273472;" d="M26.107,38.64c0-0.167,0-0.167,0-0.167v-0.208l0,0l0,0
		c-0.169-0.166-0.169-0.166-0.169-0.333l0,0l-0.168-0.209l0,0l0,0v-0.167c-0.169,0-0.169,0-0.169,0s0,0-0.169,0l0,0
		c0-0.208,0-0.208,0-0.208h-0.225l0,0l0,0c-0.169,0-0.169,0-0.169,0c-0.731,0.584-0.731,0.584-0.731,0.584
		c0-0.209,0-0.209,0.225-0.209l0,0c0,0.209,0.169,0.209,0.169,0.209c0.169,0,0.169,0.167,0.337,0.167l0,0
		c0,0.166,0,0.166,0.169,0.166v0.208c0,0,0,0.167,0.225,0.167l0,0c0,0.167,0,0.375,0,0.375c0,0.167,0,0.167,0,0.334l0,0
		c-0.225,0-0.225,0-0.225,0l0,0c0,0,0,0,0.225,0c0.169-0.167,0.338-0.167,0.506-0.334c0,0,0,0,0.169-0.208l0,0l0,0l0,0V38.64
		L26.107,38.64L26.107,38.64"/>
	<path style="fill-rule:evenodd;clip-rule:evenodd;fill:#657DB9;" d="M24.87,39.099c0-0.667,0-0.667,0-0.667
		c-0.169-0.125-0.169-0.125-0.169-0.125c0,0.667,0,0.667,0,0.667C24.87,39.099,24.87,39.099,24.87,39.099 M24.701,38.181
		c0.281,0.126,0.506,0.501,0.506,0.793c0,0.249-0.225,0.375-0.506,0.249c-0.225-0.124-0.394-0.541-0.394-0.791
		C24.307,38.181,24.476,38.015,24.701,38.181L24.701,38.181L24.701,38.181z"/>
	<path style="fill-rule:evenodd;clip-rule:evenodd;fill:#273472;" d="M26.107,42.1L26.107,42.1c0-0.125,0-0.125,0-0.125l0,0l0,0
		c-0.169-0.125-0.169-0.125-0.169-0.251l0,0c0-0.124-0.168-0.124-0.168-0.124l0,0c0-0.125,0-0.125,0-0.125l0,0
		c-0.169,0-0.169,0-0.169,0s0-0.125-0.169-0.125l0,0l0,0h-0.225l0,0l0,0c-0.169,0-0.169,0-0.169,0
		c-0.731,0.25-0.731,0.25-0.731,0.25s0,0,0.225,0l0,0c0,0,0.169,0,0.169,0.124c0.169,0,0.169,0,0.337,0.126l0,0
		c0,0,0,0.125,0.169,0.125l0,0c0,0.125,0,0.25,0.225,0.25l0,0c0,0.125,0,0.125,0,0.251V42.6l0,0
		c-0.225,0.084-0.225,0.084-0.225,0.084l0,0c0,0,0,0,0.225,0c0.169-0.084,0.338-0.208,0.506-0.208c0,0,0-0.126,0.169-0.126l0,0l0,0
		l0,0c0-0.125,0-0.125,0-0.125l0,0C26.107,42.1,26.107,42.1,26.107,42.1"/>
	<path style="fill-rule:evenodd;clip-rule:evenodd;fill:#657DB9;" d="M24.87,42.35c0-0.5,0-0.5,0-0.5
		c-0.169-0.126-0.169-0.126-0.169-0.126c0,0.626,0,0.626,0,0.626C24.87,42.35,24.87,42.35,24.87,42.35 M24.701,41.6
		c0.281,0.124,0.506,0.5,0.506,0.75s-0.225,0.334-0.506,0.25c-0.225-0.124-0.394-0.5-0.394-0.75
		C24.307,41.475,24.476,41.35,24.701,41.6L24.701,41.6L24.701,41.6z"/>
	<path style="fill-rule:evenodd;clip-rule:evenodd;fill:#273472;" d="M26.107,45.476v-0.125c0,0,0,0,0-0.083l0,0l0,0
		c-0.169,0-0.169-0.125-0.169-0.125c0-0.125,0-0.125,0-0.125h-0.168c0-0.084,0-0.084,0-0.084l0,0l0,0
		c-0.169,0-0.169-0.125-0.169-0.125s0,0-0.169,0l0,0l0,0c0-0.124-0.225-0.124-0.225-0.124l0,0l0,0c-0.169,0-0.169,0-0.169,0.124
		c-0.731,0.209-0.731,0.209-0.731,0.209s0,0,0.225,0l0,0h0.169c0.169,0,0.169,0.125,0.337,0.125l0,0c0,0.125,0,0.125,0.169,0.208
		l0,0c0,0.125,0,0.125,0.225,0.251l0,0v0.082c0,0.126,0,0.126,0,0.251l0,0c-0.225,0-0.225,0.084-0.225,0.084l0,0
		c0-0.084,0-0.084,0.225-0.084c0.169,0,0.338-0.125,0.506-0.251c0,0,0,0,0.169,0c0,0,0,0,0-0.082l0,0l0,0
		C26.107,45.602,26.107,45.602,26.107,45.476L26.107,45.476L26.107,45.476"/>
	<path style="fill-rule:evenodd;clip-rule:evenodd;fill:#657DB9;" d="M24.87,46.352c0-0.625,0-0.625,0-0.625
		c-0.169,0-0.169,0-0.169,0c0,0.5,0,0.5,0,0.5C24.87,46.352,24.87,46.352,24.87,46.352 M24.701,45.476
		c0.281,0.126,0.506,0.5,0.506,0.751c0,0.375-0.225,0.458-0.506,0.25c-0.225-0.125-0.394-0.376-0.394-0.75
		C24.307,45.476,24.476,45.351,24.701,45.476L24.701,45.476L24.701,45.476z"/>
	<polygon style="fill-rule:evenodd;clip-rule:evenodd;fill:#273472;" points="49.516,40.641 51.314,40.016 51.314,58.107 
		49.516,58.69 49.516,40.641 49.516,40.641 49.516,40.641 	"/>
	<polygon style="fill-rule:evenodd;clip-rule:evenodd;fill:#4B68AF;" points="47.714,39.849 48.951,39.349 51.314,40.224 
		50.133,40.682 47.714,39.849 47.714,39.849 47.714,39.849 	"/>
	<polygon style="fill-rule:evenodd;clip-rule:evenodd;fill:#354990;" points="49.516,41.058 49.516,58.69 47.714,57.606 
		47.714,40.016 49.516,41.058 49.516,41.058 49.516,41.058 	"/>
	<polygon style="fill-rule:evenodd;clip-rule:evenodd;fill:#273472;" points="49.516,39.349 51.314,38.682 51.314,40.057 
		49.516,40.682 49.516,39.349 49.516,39.349 49.516,39.349 	"/>
	<polygon style="fill-rule:evenodd;clip-rule:evenodd;fill:#4B68AF;" points="0,17.966 1.294,17.34 51.314,38.765 50.077,39.349 
		0,17.966 0,17.966 0,17.966 	"/>
	<polygon style="fill-rule:evenodd;clip-rule:evenodd;fill:#354990;" points="50.415,39.432 50.415,40.682 0,19.383 0,18.007 
		50.415,39.432 50.415,39.432 50.415,39.432 	"/>
	<polygon style="fill-rule:evenodd;clip-rule:evenodd;fill:#273472;" points="36.011,38.765 36.011,40.016 35.729,39.724 
		35.729,39.807 35.447,39.724 35.447,39.391 35.11,39.307 35.11,38.015 36.011,38.765 36.011,38.765 36.011,38.765 	"/>
	<polygon style="fill-rule:evenodd;clip-rule:evenodd;fill:#273472;" points="32.409,33.888 32.409,34.681 31.902,34.472 
		31.902,34.681 31.172,34.472 31.172,34.389 30.608,34.18 30.89,33.346 32.409,33.888 32.409,33.888 32.409,33.888 	"/>
	<path style="fill-rule:evenodd;clip-rule:evenodd;fill:#7B97CB;" d="M5.852,22.842c0.225,0,0.45,0.25,0.45,0.375
		c0,0.125-0.225,0.125-0.45,0.125c-0.225-0.125-0.45-0.25-0.45-0.375C5.401,22.842,5.627,22.676,5.852,22.842L5.852,22.842"/>
	<path style="fill-rule:evenodd;clip-rule:evenodd;fill:#7B97CB;" d="M5.852,22.676c0.225,0.167,0.45,0.292,0.45,0.417
		c0,0.125-0.225,0.25-0.45,0.125c-0.225,0-0.45-0.25-0.45-0.375C5.401,22.676,5.627,22.676,5.852,22.676L5.852,22.676"/>
	<path style="fill-rule:evenodd;clip-rule:evenodd;fill:#7B97CB;" d="M9.622,24.843c0.282,0.125,0.282,0.25,0.282,0.375
		c0,0.125,0,0.125-0.282,0.125c-0.281-0.125-0.619-0.25-0.619-0.375C9.003,24.843,9.34,24.677,9.622,24.843L9.622,24.843"/>
	<path style="fill-rule:evenodd;clip-rule:evenodd;fill:#7B97CB;" d="M9.453,24.01c0.225,0.167,0.451,0.292,0.451,0.417
		c-0.226,0.125-0.226,0.25-0.451,0.125c-0.225,0-0.45-0.25-0.45-0.375C9.003,24.01,9.228,24.01,9.453,24.01L9.453,24.01"/>
	<path style="fill-rule:evenodd;clip-rule:evenodd;fill:#7B97CB;" d="M10.353,24.802c0.226,0.125,0.451,0.208,0.451,0.333
		c0,0.125-0.225,0.208-0.451,0.125c-0.225-0.125-0.449-0.25-0.449-0.334C9.903,24.802,10.128,24.677,10.353,24.802L10.353,24.802"/>
	<path style="fill-rule:evenodd;clip-rule:evenodd;fill:#7B97CB;" d="M13.053,26.177c0.226,0,0.451,0.125,0.451,0.375
		c0,0.125-0.225,0.125-0.451,0.125c-0.225-0.125-0.45-0.25-0.45-0.375C12.604,26.01,12.829,26.01,13.053,26.177L13.053,26.177"/>
	<path style="fill-rule:evenodd;clip-rule:evenodd;fill:#3F5792;" d="M13.053,40.308c0.338,0.125,0.451,0.374,0.451,0.709
		c0,0.249-0.112,0.333-0.451,0.249c-1.744-0.833-1.744-0.833-1.744-0.833c-0.338-0.125-0.506-0.376-0.506-0.709
		c0-0.25,0.168-0.375,0.506-0.25C13.053,40.308,13.053,40.308,13.053,40.308L13.053,40.308"/>
	<path style="fill-rule:evenodd;clip-rule:evenodd;fill:#4B68AF;" d="M12.941,40.224c0.282,0.125,0.563,0.501,0.563,0.75
		c0,0.251-0.281,0.376-0.563,0.251c-1.519-0.751-1.519-0.751-1.519-0.751c-0.281-0.25-0.619-0.499-0.619-0.75
		c0-0.375,0.337-0.375,0.619-0.25C12.941,40.224,12.941,40.224,12.941,40.224L12.941,40.224"/>
	<path style="fill-rule:evenodd;clip-rule:evenodd;fill:#3F5792;" d="M13.053,36.307c0.338,0.124,0.451,0.374,0.451,0.707
		c0,0.251-0.112,0.334-0.451,0.251c-1.744-0.834-1.744-0.834-1.744-0.834c-0.338-0.124-0.506-0.375-0.506-0.708
		c0-0.251,0.168-0.376,0.506-0.251C13.053,36.307,13.053,36.307,13.053,36.307L13.053,36.307"/>
	<path style="fill-rule:evenodd;clip-rule:evenodd;fill:#4B68AF;" d="M12.941,36.598c0.282,0.083,0.563,0.333,0.563,0.5
		s-0.281,0.25-0.563,0.167c-1.519-0.5-1.519-0.5-1.519-0.5c-0.281-0.167-0.619-0.334-0.619-0.501c0-0.249,0.337-0.249,0.619-0.167
		C12.941,36.598,12.941,36.598,12.941,36.598L12.941,36.598"/>
	<polygon style="fill-rule:evenodd;clip-rule:evenodd;fill:#273472;" points="14.741,33.514 15.304,33.346 15.192,33.847 
		14.404,34.013 14.741,33.514 14.741,33.514 	"/>
	<polygon style="fill-rule:evenodd;clip-rule:evenodd;fill:#4B68AF;" points="9.903,31.595 10.409,31.346 15.304,33.222 
		14.854,33.346 9.903,31.595 9.903,31.595 	"/>
	<polygon style="fill-rule:evenodd;clip-rule:evenodd;fill:#2F4276;" points="14.404,33.346 14.235,34.013 10.24,32.179 
		9.903,31.346 14.404,33.346 14.404,33.346 	"/>
	<polygon style="fill-rule:evenodd;clip-rule:evenodd;fill:#273472;" points="16.599,30.846 17.104,30.679 16.768,31.179 
		16.205,31.346 16.599,30.846 16.599,30.846 	"/>
	<polygon style="fill-rule:evenodd;clip-rule:evenodd;fill:#4B68AF;" points="8.103,26.969 8.721,26.677 17.104,30.512 
		16.655,30.679 8.103,26.969 8.103,26.969 	"/>
	<polygon style="fill-rule:evenodd;clip-rule:evenodd;fill:#2F4276;" points="16.205,30.72 15.867,31.346 8.44,28.178 8.103,27.344 
		16.205,30.72 16.205,30.72 	"/>
	<path style="fill-rule:evenodd;clip-rule:evenodd;fill:#7B97CB;" d="M5.739,26.677c0.282,0.167,0.562,0.292,0.562,0.417
		s-0.28,0.25-0.562,0.125c-0.338,0-0.338-0.25-0.338-0.375C5.401,26.677,5.401,26.677,5.739,26.677L5.739,26.677"/>
	<path style="fill-rule:evenodd;clip-rule:evenodd;fill:#7B97CB;" d="M5.739,26.177c0.282,0,0.562,0.125,0.562,0.375
		c0,0.125-0.28,0.125-0.562,0.125c-0.338-0.125-0.338-0.25-0.338-0.375C5.401,26.01,5.401,26.01,5.739,26.177L5.739,26.177"/>
	<path style="fill-rule:evenodd;clip-rule:evenodd;fill:#7B97CB;" d="M5.739,30.804c0.282,0.125,0.562,0.208,0.562,0.334
		c0,0.124-0.28,0.208-0.562,0.124c-0.338-0.124-0.338-0.25-0.338-0.333C5.401,30.804,5.401,30.679,5.739,30.804L5.739,30.804"/>
	<path style="fill-rule:evenodd;clip-rule:evenodd;fill:#7B97CB;" d="M5.739,30.012c0.282,0.167,0.562,0.292,0.562,0.416
		c0,0.126-0.28,0.251-0.562,0.126c-0.338,0-0.338-0.25-0.338-0.375C5.401,30.012,5.401,30.012,5.739,30.012L5.739,30.012"/>
	<path style="fill-rule:evenodd;clip-rule:evenodd;fill:#7B97CB;" d="M6.921,26.844c0.282,0,0.282,0.25,0.282,0.375
		s-0.282,0.125-0.282,0.125c-0.281-0.125-0.62-0.25-0.62-0.375S6.64,26.677,6.921,26.844L6.921,26.844"/>
	<path style="fill-rule:evenodd;clip-rule:evenodd;fill:#7B97CB;" d="M6.921,26.177c0.282,0.125,0.282,0.25,0.282,0.375
		s0,0.125-0.282,0.125c-0.281-0.125-0.62-0.25-0.62-0.375C6.301,26.177,6.64,26.01,6.921,26.177L6.921,26.177"/>
	<path style="fill-rule:evenodd;clip-rule:evenodd;fill:#7B97CB;" d="M6.64,30.679c0.281,0.167,0.563,0.291,0.563,0.416
		c0,0.126-0.282,0.251-0.563,0.126c0,0-0.338-0.126-0.338-0.375C6.301,30.679,6.64,30.679,6.64,30.679L6.64,30.679"/>
	<path style="fill-rule:evenodd;clip-rule:evenodd;fill:#7B97CB;" d="M6.64,30.179c0.281,0,0.563,0.249,0.563,0.375
		c0,0.125-0.282,0.125-0.563,0.125c0-0.125-0.338-0.251-0.338-0.375C6.301,30.179,6.64,30.012,6.64,30.179L6.64,30.179"/>
	<path style="fill-rule:evenodd;clip-rule:evenodd;fill:#7B97CB;" d="M18.456,32.179c0.225,0,0.45,0.25,0.45,0.375
		c0,0.126-0.225,0.126-0.45,0.126c-0.225-0.126-0.451-0.251-0.451-0.375C18.005,32.179,18.23,32.013,18.456,32.179L18.456,32.179"/>
	<path style="fill-rule:evenodd;clip-rule:evenodd;fill:#7B97CB;" d="M18.456,31.512c0.225,0,0.45,0.251,0.45,0.375
		c0,0.126-0.225,0.126-0.45,0.126c-0.225-0.126-0.451-0.25-0.451-0.375C18.005,31.512,18.23,31.346,18.456,31.512L18.456,31.512"/>
	<path style="fill-rule:evenodd;clip-rule:evenodd;fill:#7B97CB;" d="M18.456,36.015c0.225,0.166,0.45,0.292,0.45,0.416
		c0,0.125-0.225,0.25-0.45,0.125c-0.225,0-0.451-0.249-0.451-0.375C18.005,36.015,18.23,36.015,18.456,36.015L18.456,36.015"/>
	<path style="fill-rule:evenodd;clip-rule:evenodd;fill:#7B97CB;" d="M18.456,35.514c0.225,0,0.45,0.125,0.45,0.375
		c0,0.126-0.225,0.126-0.45,0.126c-0.225-0.126-0.451-0.251-0.451-0.376C18.005,35.347,18.23,35.347,18.456,35.514L18.456,35.514"/>
	<path style="fill-rule:evenodd;clip-rule:evenodd;fill:#7B97CB;" d="M19.355,32.68c0.225,0.166,0.45,0.291,0.45,0.417
		c0,0.125-0.225,0.249-0.45,0.125c-0.225,0-0.45-0.251-0.45-0.376C18.905,32.68,19.131,32.68,19.355,32.68L19.355,32.68"/>
	<path style="fill-rule:evenodd;clip-rule:evenodd;fill:#7B97CB;" d="M19.355,32.013c0.225,0.166,0.45,0.292,0.45,0.416
		c0,0.125-0.225,0.251-0.45,0.125c-0.225,0-0.45-0.249-0.45-0.375C18.905,32.013,19.131,32.013,19.355,32.013L19.355,32.013"/>
	<path style="fill-rule:evenodd;clip-rule:evenodd;fill:#7B97CB;" d="M19.355,36.181c0.225,0,0.45,0.25,0.45,0.375
		s-0.225,0.125-0.45,0.125c-0.225-0.125-0.45-0.25-0.45-0.374C18.905,36.181,19.131,36.015,19.355,36.181L19.355,36.181"/>
	<path style="fill-rule:evenodd;clip-rule:evenodd;fill:#7B97CB;" d="M19.355,35.514c0.225,0.125,0.45,0.25,0.45,0.375
		c0,0.126-0.225,0.126-0.45,0.126c-0.225-0.126-0.45-0.251-0.45-0.376S19.131,35.347,19.355,35.514L19.355,35.514"/>
	<path style="fill-rule:evenodd;clip-rule:evenodd;fill:#7B97CB;" d="M5.852,34.18c0.225,0,0.45,0.25,0.45,0.375
		c0,0.126-0.225,0.126-0.45,0.126c-0.225-0.126-0.45-0.251-0.45-0.376S5.627,34.013,5.852,34.18L5.852,34.18"/>
	<path style="fill-rule:evenodd;clip-rule:evenodd;fill:#7B97CB;" d="M6.021,38.015c0.28,0.166,0.28,0.292,0.28,0.417
		s0,0.25-0.28,0.125c-0.282,0-0.62-0.25-0.62-0.376C5.401,38.015,5.739,38.015,6.021,38.015L6.021,38.015"/>
	<path style="fill-rule:evenodd;clip-rule:evenodd;fill:#7B97CB;" d="M5.852,37.515c0.225,0,0.45,0.125,0.45,0.375
		c0,0.125-0.225,0.125-0.45,0c-0.225,0-0.45-0.124-0.45-0.25C5.401,37.348,5.627,37.348,5.852,37.515L5.852,37.515"/>
	<path style="fill-rule:evenodd;clip-rule:evenodd;fill:#3F5792;" d="M16.655,30.679c0.449,0,0.449,0.25,0.449,0.459
		c0,0.208,0,0.208-0.449,0.208c-0.451-0.208-0.451-0.417-0.451-0.417C16.205,30.679,16.205,30.679,16.655,30.679L16.655,30.679"/>
	<path style="fill-rule:evenodd;clip-rule:evenodd;fill:#4B68AF;" d="M16.205,30.846c0,0,0.225,0,0.394,0.166
		c0.169,0.167,0,0.334,0,0.334c0.338-0.334,0.338-0.334,0.338-0.334s0.168,0,0-0.166c0-0.167-0.169-0.167-0.169-0.167
		C16.205,30.846,16.205,30.846,16.205,30.846"/>
</g>
</svg>