<?xml version="1.0" encoding="iso-8859-1"?>
<!DOCTYPE svg PUBLIC "-//W3C//DTD SVG 1.1//EN" "http://www.w3.org/Graphics/SVG/1.1/DTD/svg11.dtd">
<svg version="1.1" xmlns="http://www.w3.org/2000/svg" xmlns:xlink="http://www.w3.org/1999/xlink" width="57" height="41" viewBox="0 0 57 41">
<g>
	<path style="fill-rule:evenodd;clip-rule:evenodd;fill:#233B75;" d="M48.596,26.309c-11.055,6.023-29.054,6.023-40.074,0
		c-5.988-3.225-8.327-6.591-8.327-10.701c-0.142,0-0.142,0-0.142,0c0,10.17,0,10.17,0,10.17c0.142,0,0.142,0,0.142,0
		c0.284,3.72,3.012,7.476,8.327,10.311c11.02,6.023,29.019,6.023,40.074,0c5.174-2.835,7.902-6.591,8.15-10.311l0,0
		c0-10.312,0-10.312,0-10.312C56.746,19.47,54.053,23.333,48.596,26.309"/>
	<path style="fill-rule:evenodd;clip-rule:evenodd;fill:#4C68B1;" d="M48.42,4.624c11.055,6.165,11.16,16.122,0.141,22.288
		c-11.055,6.13-29.09,6.13-40.145,0C-2.781,20.746-2.781,10.789,8.274,4.624C19.329-1.542,37.223-1.542,48.42,4.624"/>
	<path style="fill-rule:evenodd;clip-rule:evenodd;fill:#FFFFFF;" d="M18.62,33.75c0,1.24,0,1.24,0,1.24c0.425,0,0.425,0,0.425,0
		c0.142,0,0.283,0,0.425-0.142c0.142-0.142,0.142-0.283,0.142-0.425c0-0.39-0.142-0.674-0.567-0.674S18.62,33.75,18.62,33.75
		L18.62,33.75z M17.628,37.577c0-4.535,0-4.535,0-4.535c1.701,0,1.701,0,1.701,0c0.425,0,0.709,0,0.992,0.283
		c0.284,0.142,0.425,0.425,0.425,0.815c0,0.708-0.284,1.134-0.992,1.239l0,0c0.284,0,0.425,0,0.567,0.284
		c0,0,0.142,0.142,0.142,0.425c0.567,1.488,0.567,1.488,0.567,1.488c-1.276,0-1.276,0-1.276,0c-0.283-1.205-0.283-1.205-0.283-1.205
		c-0.142-0.283-0.284-0.425-0.284-0.566c-0.142,0-0.283,0-0.567,0c0,1.771,0,1.771,0,1.771
		C17.628,37.577,17.628,37.577,17.628,37.577L17.628,37.577z"/>
	<path style="fill-rule:evenodd;clip-rule:evenodd;fill:#FFFFFF;" d="M22.695,35.274c0,1.027,0.284,1.559,0.851,1.559
		c0.531,0,0.815-0.531,0.815-1.559c0-0.922-0.284-1.453-0.815-1.453C22.979,33.821,22.695,34.352,22.695,35.274L22.695,35.274z
		 M21.597,35.274c0-0.674,0.142-1.17,0.425-1.56c0.425-0.39,0.957-0.673,1.523-0.673c0.673,0,1.205,0.283,1.488,0.673
		c0.283,0.39,0.531,0.886,0.531,1.56c0,0.638-0.248,1.169-0.531,1.665c-0.284,0.39-0.815,0.638-1.488,0.638
		c-0.567,0-1.099-0.248-1.523-0.744C21.738,36.443,21.597,35.912,21.597,35.274L21.597,35.274z"/>
	<path style="fill-rule:evenodd;clip-rule:evenodd;fill:#FFFFFF;" d="M26.132,35.875c0-2.834,0-2.834,0-2.834
		c0.992,0,0.992,0,0.992,0c0,2.94,0,2.94,0,2.94c0,0.531,0.284,0.815,0.708,0.815c0.425,0,0.567-0.284,0.567-0.815
		c0-2.94,0-2.94,0-2.94c1.134,0,1.134,0,1.134,0c0,2.834,0,2.834,0,2.834c0,0.532-0.142,0.922-0.426,1.17
		c-0.283,0.425-0.708,0.531-1.275,0.531c-0.567,0-0.992-0.106-1.275-0.531C26.274,36.797,26.132,36.408,26.132,35.875"/>
	<polygon style="fill-rule:evenodd;clip-rule:evenodd;fill:#FFFFFF;" points="31.057,37.577 31.057,33.821 30.1,33.821 30.1,33.042 
		32.936,33.042 32.936,33.821 32.084,33.821 32.084,37.577 31.057,37.577 31.057,37.577 	"/>
	<polygon style="fill-rule:evenodd;clip-rule:evenodd;fill:#FFFFFF;" points="33.502,37.577 33.502,33.042 36.336,33.042 
		36.336,33.821 34.672,33.821 34.672,34.848 36.266,34.848 36.266,35.699 34.672,35.699 34.672,36.833 36.336,36.833 36.336,37.577 
		33.502,37.577 33.502,37.577 	"/>
	<path style="fill-rule:evenodd;clip-rule:evenodd;fill:#FFFFFF;" d="M38.037,33.75c0,1.24,0,1.24,0,1.24c0.283,0,0.283,0,0.283,0
		c0.143,0,0.426,0,0.426-0.142c0.143-0.142,0.283-0.283,0.283-0.425c0-0.39-0.283-0.674-0.709-0.674
		C38.037,33.75,38.037,33.75,38.037,33.75L38.037,33.75z M36.904,37.577c0-4.535,0-4.535,0-4.535c1.699,0,1.699,0,1.699,0
		c0.426,0,0.852,0,1.135,0.283c0.283,0.142,0.426,0.425,0.426,0.815c0,0.708-0.426,1.134-0.992,1.239l0,0
		c0.141,0,0.283,0,0.424,0.284c0.143,0,0.143,0.142,0.285,0.425c0.424,1.488,0.424,1.488,0.424,1.488c-1.133,0-1.133,0-1.133,0
		c-0.426-1.205-0.426-1.205-0.426-1.205c0-0.283-0.143-0.425-0.283-0.566c0,0-0.143,0-0.426,0c0,1.771,0,1.771,0,1.771
		C36.904,37.577,36.904,37.577,36.904,37.577L36.904,37.577z"/>
	<path style="fill-rule:evenodd;clip-rule:evenodd;fill:#2A347A;" d="M30.242,12.844L30.1,12.738
		c-3.968-2.268-3.968-2.268-3.968-2.268c3.012-1.701,3.012-1.701,3.012-1.701c4.11,2.374,4.11,2.374,4.11,2.374
		c0.814,0.39,1.914,0.248,3.012-0.284c5.174-2.905,5.174-2.905,5.174-2.905c-5.74,0-5.74,0-5.74,0c0-2.126,0-2.126,0-2.126
		c12.543,0,12.543,0,12.543,0c0,7.016,0,7.016,0,7.016c-3.686,0-3.686,0-3.686,0c-0.105-3.153-0.105-3.153-0.105-3.153
		c-5.066,2.905-5.066,2.905-5.066,2.905c-1.914,1.063-3.828,1.169-5.033,1.169C32.156,13.766,30.668,12.986,30.242,12.844
		L30.242,12.844"/>
	<path style="fill-rule:evenodd;clip-rule:evenodd;fill:#2A347A;" d="M16.104,16.104c4.039-2.197,4.039-2.197,4.039-2.197
		c0.815-0.39,0.673-1.027-0.39-1.665c-5.138-2.693-5.138-2.693-5.138-2.693c0,3.083,0,3.083,0,3.083c-3.792,0-3.792,0-3.792,0
		c0-6.803,0-6.803,0-6.803c12.437,0,12.437,0,12.437,0c0,1.949,0,1.949,0,1.949c-5.669,0-5.669,0-5.669,0
		c5.138,2.799,5.138,2.799,5.138,2.799c1.878,1.027,2.268,2.055,2.268,2.693c-0.106,1.275-1.453,2.162-1.878,2.303
		c-3.897,2.161-3.897,2.161-3.897,2.161C16.104,16.104,16.104,16.104,16.104,16.104L16.104,16.104"/>
	<path style="fill-rule:evenodd;clip-rule:evenodd;fill:#2A347A;" d="M28.293,19.364c4.076,2.267,4.076,2.267,4.076,2.267
		c-3.119,1.701-3.119,1.701-3.119,1.701C25.14,21.1,25.14,21.1,25.14,21.1c-0.815-0.531-1.771-0.39-2.87,0.248
		c-5.173,2.905-5.173,2.905-5.173,2.905c5.74,0,5.74,0,5.74,0c0,1.984,0,1.984,0,1.984c-12.579,0-12.579,0-12.579,0
		c0-6.98,0-6.98,0-6.98c3.685,0,3.685,0,3.685,0c0,3.153,0,3.153,0,3.153c5.209-2.763,5.209-2.763,5.209-2.763
		c1.913-1.063,3.685-1.346,4.925-1.346C26.38,18.301,27.868,19.116,28.293,19.364L28.293,19.364"/>
	<path style="fill-rule:evenodd;clip-rule:evenodd;fill:#2A347A;" d="M47.676,19.399c0,6.838,0,6.838,0,6.838
		c-12.898,0-12.898,0-12.898,0c-0.141-2.02-0.141-2.02-0.141-2.02c5.951,0,5.951,0,5.951,0c-5.385-2.764-5.385-2.764-5.385-2.764
		c-1.844-1.027-2.268-2.055-2.268-2.657c0-1.276,1.559-2.162,1.842-2.303c4.252-2.162,4.252-2.162,4.252-2.162
		c3.119,1.666,3.119,1.666,3.119,1.666c-4.111,2.161-4.111,2.161-4.111,2.161c-0.85,0.496-0.709,0.992,0.426,1.63
		c5.385,2.799,5.385,2.799,5.385,2.799c0-3.189,0-3.189,0-3.189C47.676,19.399,47.676,19.399,47.676,19.399L47.676,19.399"/>
	<path style="fill-rule:evenodd;clip-rule:evenodd;fill:#FFFFFF;" d="M29.675,12.171L29.675,12.171
		c-4.11-2.197-4.11-2.197-4.11-2.197c3.154-1.701,3.154-1.701,3.154-1.701c4.109,2.197,4.109,2.197,4.109,2.197
		c0.816,0.39,1.771,0.39,2.871-0.248c5.174-2.87,5.174-2.87,5.174-2.87c-5.74,0-5.74,0-5.74,0c0-2.09,0-2.09,0-2.09
		c12.543,0,12.543,0,12.543,0c0,7.051,0,7.051,0,7.051c-3.686,0-3.686,0-3.686,0c0-3.26,0-3.26,0-3.26
		c-5.174,2.87-5.174,2.87-5.174,2.87c-1.912,1.027-3.684,1.275-4.924,1.275C31.588,13.092,30.1,12.419,29.675,12.171L29.675,12.171"
		/>
	<path style="fill-rule:evenodd;clip-rule:evenodd;fill:#FFFFFF;" d="M15.679,15.537c3.897-2.268,3.897-2.268,3.897-2.268
		c0.815-0.39,0.673-0.886-0.39-1.523c-5.138-2.799-5.138-2.799-5.138-2.799c0,3.047,0,3.047,0,3.047c-3.649,0-3.649,0-3.649,0
		c-0.142-6.732-0.142-6.732-0.142-6.732c12.437,0,12.437,0,12.437,0c0.142,2.055,0.142,2.055,0.142,2.055c-5.669,0-5.669,0-5.669,0
		c5.138,2.764,5.138,2.764,5.138,2.764c1.736,1.027,2.126,2.02,2.126,2.658c0,1.275-1.453,2.055-1.736,2.303
		c-4.039,2.126-4.039,2.126-4.039,2.126C15.679,15.537,15.679,15.537,15.679,15.537L15.679,15.537"/>
	<path style="fill-rule:evenodd;clip-rule:evenodd;fill:#FFFFFF;" d="M27.727,18.797c4.074,2.197,4.074,2.197,4.074,2.197
		c-2.976,1.701-2.976,1.701-2.976,1.701c-4.11-2.197-4.11-2.197-4.11-2.197c-0.815-0.39-1.914-0.39-3.012,0.248
		c-5.173,2.87-5.173,2.87-5.173,2.87c5.74,0,5.74,0,5.74,0c0,2.056,0,2.056,0,2.056c-12.579,0-12.579,0-12.579,0
		c0-7.016,0-7.016,0-7.016c3.685,0,3.685,0,3.685,0c0.142,3.259,0.142,3.259,0.142,3.259c5.067-2.87,5.067-2.87,5.067-2.87
		c1.914-1.027,3.827-1.311,4.925-1.311C25.813,17.876,27.443,18.655,27.727,18.797L27.727,18.797"/>
	<path style="fill-rule:evenodd;clip-rule:evenodd;fill:#FFFFFF;" d="M47.107,19.222c0,7.016,0,7.016,0,7.016c-12.4,0-12.4,0-12.4,0
		c0-2.09,0-2.09,0-2.09c5.67,0,5.67,0,5.67,0c-5.139-2.941-5.139-2.941-5.139-2.941c-1.879-1.063-2.303-2.126-2.303-2.764
		c0.141-1.347,1.488-2.126,1.912-2.41c3.898-2.268,3.898-2.268,3.898-2.268c3.117,1.736,3.117,1.736,3.117,1.736
		c-4.039,2.409-4.039,2.409-4.039,2.409c-0.814,0.39-0.672,0.921,0.391,1.559c5.137,2.94,5.137,2.94,5.137,2.94
		c0-3.188,0-3.188,0-3.188C47.107,19.222,47.107,19.222,47.107,19.222L47.107,19.222"/>
</g>
</svg>