<?xml version="1.0" encoding="iso-8859-1"?>
<!DOCTYPE svg PUBLIC "-//W3C//DTD SVG 1.1//EN" "http://www.w3.org/Graphics/SVG/1.1/DTD/svg11.dtd">
<svg version="1.1" xmlns="http://www.w3.org/2000/svg" xmlns:xlink="http://www.w3.org/1999/xlink" width="94" height="53" viewBox="0 0 94 53">
<g>
	<path style="fill-rule:evenodd;clip-rule:evenodd;fill:#3E558F;" d="M52.204,51.531c0.166,0,0.166,0,0.166,0
		c-1.65-0.626-14.563-14.339-26.763-18.958c-11.98-4.618-23.629-6.398-23.849-6.398l0,0c0.934,1.636,0.934,1.636,0.934,1.636
		c45.666,23.095,45.666,23.095,45.666,23.095c4.397,2.213,4.397,2.213,4.397,2.213c0.712-0.77,0.712-0.77,0.712-0.77
		c0.167,0,0.167,0,0.167,0C53.467,52.348,53.137,52.012,52.204,51.531"/>
	<path style="fill-rule:evenodd;clip-rule:evenodd;fill:#3F5791;" d="M54.566,46.912c38.302-19.199,38.302-19.199,38.302-19.199
		c0,0.194,0.33,2.889-0.933,5.486C53.634,52.348,53.634,52.348,53.634,52.348C54.951,49.798,54.566,47.104,54.566,46.912"/>
	<path style="fill-rule:evenodd;clip-rule:evenodd;fill:#4B68AF;" d="M64.844,13.087C49.62,5.437,38.026,0.337,37.477,0
		C0,19.102,0,19.102,0,19.102c0.549,0.336,12.309,5.437,27.366,13.086c15.221,7.795,26.983,14.482,27.531,14.771
		C92.32,27.859,92.32,27.859,92.32,27.859C91.605,27.57,80.01,20.881,64.844,13.087"/>
	<path style="fill-rule:evenodd;clip-rule:evenodd;fill:#46609F;" d="M27.476,32.236C42.697,40.031,54.512,46.67,55.06,47.007
		c0,0.145,0.331,2.839-0.933,5.341c-0.548-0.145-9.616-5.052-16.156-10.297c-6.319-4.907-7.637-5.677-10.495-7.121
		c-2.748-1.395-4.011-1.876-10.386-3.318c-6.539-1.396-14.727-5.197-15.057-5.39C0,23.383,0,19.438,0,19.245
		C0.549,19.582,12.364,24.634,27.476,32.236L27.476,32.236"/>
	<polygon style="fill-rule:evenodd;clip-rule:evenodd;fill:#3E558F;" points="53.634,51.579 53.634,51.579 52.755,53.118 
		52.755,53.118 53.634,51.579 53.634,51.579 53.634,51.579 	"/>
	<polygon style="fill-rule:evenodd;clip-rule:evenodd;fill:#3E558F;" points="21.981,29.253 21.981,29.253 22.86,30.023 
		22.86,30.023 21.981,29.253 21.981,29.253 21.981,29.253 	"/>
	<polygon style="fill-rule:evenodd;clip-rule:evenodd;fill:#3E558F;" points="23.739,29.253 23.739,29.253 22.86,30.023 
		22.86,30.023 23.739,29.253 23.739,29.253 23.739,29.253 	"/>
	<polygon style="fill-rule:evenodd;clip-rule:evenodd;fill:#3E558F;" points="22.86,30.023 22.86,30.023 21.981,29.253 
		21.981,29.253 22.86,30.023 22.86,30.023 22.86,30.023 	"/>
	<polygon style="fill-rule:evenodd;clip-rule:evenodd;fill:#3E558F;" points="25.498,30.023 25.498,30.023 23.739,30.792 
		23.739,30.649 25.498,30.023 25.498,30.023 25.498,30.023 	"/>
	<polygon style="fill-rule:evenodd;clip-rule:evenodd;fill:#3E558F;" points="27.256,30.792 27.256,30.792 25.498,31.562 
		25.498,31.562 27.256,30.792 27.256,30.792 27.256,30.792 	"/>
	<polygon style="fill-rule:evenodd;clip-rule:evenodd;fill:#3E558F;" points="29.014,31.562 29.014,31.562 27.256,32.333 
		27.256,32.333 29.014,31.562 29.014,31.562 29.014,31.562 	"/>
	<polygon style="fill-rule:evenodd;clip-rule:evenodd;fill:#3E558F;" points="29.894,32.333 29.894,32.525 29.014,33.102 
		29.014,33.102 29.894,32.333 29.894,32.333 29.894,32.333 	"/>
	<polygon style="fill-rule:evenodd;clip-rule:evenodd;fill:#3E558F;" points="31.651,33.102 31.651,33.102 30.772,33.873 
		30.772,33.873 31.651,33.102 31.651,33.102 31.651,33.102 	"/>
	<polygon style="fill-rule:evenodd;clip-rule:evenodd;fill:#3E558F;" points="33.41,33.873 33.41,33.873 32.531,34.641 
		32.531,34.499 33.41,33.873 33.41,33.873 33.41,33.873 	"/>
	<path style="fill-rule:evenodd;clip-rule:evenodd;fill:#273472;" d="M49.235,6.928c0,0.77,0,0.77,0,0.77s-0.439,0-0.878,0
		c0-0.77,0-0.77,0-0.77C48.796,6.928,49.235,6.928,49.235,6.928"/>
	<path style="fill-rule:evenodd;clip-rule:evenodd;fill:#273472;" d="M43.961,4.619c0,0.529,0,0.529,0,0.529
		c-0.714,0.337-4.286,1.347-8.462,3.32c-4.122,1.829-9.727,4.667-13.518,8.468c0-0.481,0-0.481,0-0.481
		c3.792-3.801,9.396-6.64,13.518-8.468C39.675,5.966,43.247,4.956,43.961,4.619"/>
	<path style="fill-rule:evenodd;clip-rule:evenodd;fill:#273472;" d="M45.72,5.389c0,0.529,0,0.529,0,0.529
		c-1.1,0.481-4.562,1.588-8.848,3.561c-4.396,1.78-10.111,4.667-14.012,8.228c0-0.48,0-0.48,0-0.48
		c3.901-3.561,9.617-6.447,14.012-8.228C41.158,7.024,44.62,5.917,45.72,5.389"/>
	<path style="fill-rule:evenodd;clip-rule:evenodd;fill:#273472;" d="M47.478,6.158c0,0.481,0,0.481,0,0.481
		C45.5,7.457,30.828,12.75,24.618,18.476c0-0.481,0-0.481,0-0.481C30.828,12.269,45.5,6.977,47.478,6.158"/>
	<path style="fill-rule:evenodd;clip-rule:evenodd;fill:#273472;" d="M48.357,6.928c0,0.481,0,0.481,0,0.481
		c-2.143,0.818-17.255,6.64-22.86,11.835c0-0.433,0-0.433,0-0.433C31.103,13.568,46.215,7.746,48.357,6.928"/>
	<path style="fill-rule:evenodd;clip-rule:evenodd;fill:#273472;" d="M50.116,7.698c0,0.53,0,0.53,0,0.53
		c-2.363,1.01-18.574,7.698-23.739,12.558c0-0.481,0-0.481,0-0.481C31.542,15.445,47.753,8.708,50.116,7.698"/>
	<path style="fill-rule:evenodd;clip-rule:evenodd;fill:#273472;" d="M51.873,8.468c0,0.53,0,0.53,0,0.53
		c-2.692,1.154-19.012,8.275-23.738,12.558c0-0.481,0-0.481,0-0.481C32.861,16.792,49.181,9.671,51.873,8.468"/>
	<path style="fill-rule:evenodd;clip-rule:evenodd;fill:#273472;" d="M53.634,10.007c0,0.481,0,0.481,0,0.481
		c-2.693,1.251-19.345,8.276-23.74,11.836c0-0.433,0-0.433,0-0.433C34.289,18.283,50.94,11.258,53.634,10.007"/>
	<path style="fill-rule:evenodd;clip-rule:evenodd;fill:#273472;" d="M55.391,10.778c0,0.48,0,0.48,0,0.48
		c-2.911,1.251-20.332,8.613-24.618,11.837c0-0.434,0-0.434,0-0.434C35.059,19.438,52.479,12.028,55.391,10.778"/>
	<path style="fill-rule:evenodd;clip-rule:evenodd;fill:#273472;" d="M56.271,10.778c0,0.529,0,0.529,0,0.529
		c-2.969,1.443-19.619,9.623-23.74,12.558c0-0.481,0-0.481,0-0.481C36.652,20.449,53.303,12.269,56.271,10.778"/>
	<path style="fill-rule:evenodd;clip-rule:evenodd;fill:#273472;" d="M58.028,12.317c0,0.48,0,0.48,0,0.48
		c-3.077,1.396-20.387,9.238-24.618,11.836c0-0.433,0-0.433,0-0.433C37.642,21.555,54.951,13.712,58.028,12.317"/>
	<path style="fill-rule:evenodd;clip-rule:evenodd;fill:#273472;" d="M59.788,13.087c0,0.481,0,0.481,0,0.481
		c-7.639,3.561-20.772,9.864-24.619,11.836c0.22-0.433,0.22-0.433,0.22-0.433C39.016,22.951,52.149,16.647,59.788,13.087"/>
	<path style="fill-rule:evenodd;clip-rule:evenodd;fill:#273472;" d="M61.545,13.857c0,0.481,0,0.481,0,0.481
		c-8.626,4.089-20.551,9.719-24.617,11.836c0-0.434,0-0.434,0-0.434C40.994,23.624,52.919,17.995,61.545,13.857"/>
	<polygon style="fill-rule:evenodd;clip-rule:evenodd;fill:#273472;" points="62.424,14.626 62.424,15.108 38.686,26.944 
		38.686,26.511 62.424,14.626 62.424,14.626 62.424,14.626 	"/>
	<path style="fill-rule:evenodd;clip-rule:evenodd;fill:#273472;" d="M64.184,15.396c0,0.481,0,0.481,0,0.481
		c-3.517,1.828-18.738,9.43-23.739,11.834c0-0.432,0-0.432,0-0.432C45.445,24.827,60.667,17.225,64.184,15.396"/>
	<path style="fill-rule:evenodd;clip-rule:evenodd;fill:#273472;" d="M65.943,16.166c0,0.481,0,0.481,0,0.481
		c-3.023,1.54-18.521,9.575-23.741,11.835c0-0.434,0-0.434,0-0.434C47.423,25.789,62.92,17.706,65.943,16.166"/>
	<path style="fill-rule:evenodd;clip-rule:evenodd;fill:#273472;" d="M67.7,16.936c0,0.529,0,0.529,0,0.529
		c-3.132,1.588-19.014,10.153-24.618,12.558c0-0.48,0-0.48,0-0.48C48.687,27.136,64.568,18.572,67.7,16.936"/>
	<path style="fill-rule:evenodd;clip-rule:evenodd;fill:#273472;" d="M68.578,17.706c0,0.481,0,0.481,0,0.481
		c-2.692,1.54-17.804,9.72-23.738,11.836c0-0.433,0-0.433,0-0.433C50.774,27.425,65.886,19.245,68.578,17.706"/>
	<path style="fill-rule:evenodd;clip-rule:evenodd;fill:#273472;" d="M70.339,18.476c0,0.481,0,0.481,0,0.481
		c-2.693,1.395-17.036,9.526-23.739,11.834c0-0.432,0-0.432,0-0.432C53.303,28.049,67.646,19.871,70.339,18.476"/>
	<path style="fill-rule:evenodd;clip-rule:evenodd;fill:#273472;" d="M72.096,19.245c0,0.481,0,0.481,0,0.481
		c-2.309,1.396-16.267,9.527-23.738,11.835c0-0.434,0-0.434,0-0.434C55.829,28.772,69.787,20.689,72.096,19.245"/>
	<path style="fill-rule:evenodd;clip-rule:evenodd;fill:#273472;" d="M73.855,20.015c0,0.481,0,0.481,0,0.481
		c-2.363,1.443-15.333,9.334-23.739,11.836c0-0.434,0-0.434,0-0.434C58.522,29.349,71.492,21.458,73.855,20.015"/>
	<path style="fill-rule:evenodd;clip-rule:evenodd;fill:#273472;" d="M75.612,20.786c0,0.48,0,0.48,0,0.48
		c-2.142,1.299-14.397,9.189-23.739,11.836c0-0.433,0-0.433,0-0.433C61.215,29.975,73.471,22.084,75.612,20.786"/>
	<path style="fill-rule:evenodd;clip-rule:evenodd;fill:#273472;" d="M76.493,21.555c0,0.48,0,0.48,0,0.48
		c-1.76,1.3-12.858,8.806-22.859,11.837c0-0.481,0-0.481,0-0.481C63.635,30.36,74.733,22.854,76.493,21.555"/>
	<path style="fill-rule:evenodd;clip-rule:evenodd;fill:#273472;" d="M78.25,22.325c0,0.529,0,0.529,0,0.529
		c-1.812,1.106-11.759,8.563-22.859,11.787c0-0.479,0-0.479,0-0.479C66.491,30.938,76.438,23.479,78.25,22.325"/>
	<path style="fill-rule:evenodd;clip-rule:evenodd;fill:#273472;" d="M80.01,23.095c0,0.48,0,0.48,0,0.48
		c-1.1,0.914-10.277,7.699-22.859,11.065c0-0.432,0-0.432,0-0.432C69.732,30.792,78.91,24.057,80.01,23.095"/>
	<path style="fill-rule:evenodd;clip-rule:evenodd;fill:#273472;" d="M81.767,23.865c0,0.48,0,0.48,0,0.48
		c-0.493,0.626-2.692,2.357-5.988,4.235c-3.407,2.164-8.902,5.003-15.99,6.831c0-0.434,0-0.434,0-0.434
		c7.088-1.876,12.583-4.714,15.99-6.879C79.074,26.222,81.273,24.49,81.767,23.865"/>
	<path style="fill-rule:evenodd;clip-rule:evenodd;fill:#3E558F;" d="M52.204,51.531c0.166,0,0.166,0,0.166,0
		c-1.65-0.626-14.563-14.339-26.763-18.958c-11.98-4.618-23.629-6.398-23.849-6.398l0,0c0.934,1.636,0.934,1.636,0.934,1.636
		c45.666,23.095,45.666,23.095,45.666,23.095c4.397,2.213,4.397,2.213,4.397,2.213c0.712-0.77,0.712-0.77,0.712-0.77
		c0.167,0,0.167,0,0.167,0C53.467,52.348,53.137,52.012,52.204,51.531"/>
	<path style="fill-rule:evenodd;clip-rule:evenodd;fill:#131E45;" d="M8.792,28.483L8.792,28.483
		c0.439,0.387,0.879,0.387,0.879,0.771l0,0C9.671,28.87,9.231,28.87,8.792,28.483"/>
	<path style="fill-rule:evenodd;clip-rule:evenodd;fill:#131E45;" d="M21.981,32.333L21.981,32.333
		c0.329,0.77,0.604,0.77,0.879,0.77l0,0C22.585,33.102,22.31,33.102,21.981,32.333"/>
	<path style="fill-rule:evenodd;clip-rule:evenodd;fill:#131E45;" d="M26.377,33.873L26.377,33.873c0,0.385,0,0.385,0,0.385
		c0.439,0,0.879,0,0.879,0.384l0,0c0,0-0.44-0.384-0.879-0.384C26.377,34.257,26.377,34.257,26.377,33.873"/>
	<path style="fill-rule:evenodd;clip-rule:evenodd;fill:#131E45;" d="M31.651,36.952L31.651,36.952c0,0,0.44,0.385,0.88,0.771l0,0
		C32.092,37.336,31.651,36.952,31.651,36.952"/>
	<path style="fill-rule:evenodd;clip-rule:evenodd;fill:#131E45;" d="M37.807,41.57L37.807,41.57c0.879,0,0.879,0.771,0.879,0.771
		l0,0C38.686,42.34,38.686,42.34,37.807,41.57"/>
	<path style="fill-rule:evenodd;clip-rule:evenodd;fill:#131E45;" d="M39.565,43.11L39.565,43.11
		c0.329,0.386,0.604,0.386,0.879,0.771l0,0C40.169,43.496,39.895,43.496,39.565,43.11"/>
	<path style="fill-rule:evenodd;clip-rule:evenodd;fill:#131E45;" d="M47.478,48.499c0.33,0,0.33,0,0.33,0l0,0
		c0,0.385,0.274,0.385,0.55,0.771l0,0c-0.275-0.386-0.55-0.386-0.55-0.771C47.808,48.499,47.808,48.499,47.478,48.499"/>
	<path style="fill-rule:evenodd;clip-rule:evenodd;fill:#131E45;" d="M7.913,28.627c0,1.396,0,1.396,0,1.396
		c-0.879-0.096-0.879-0.096-0.879-0.096c0-1.444,0-1.444,0-1.444C7.473,28.483,7.913,28.483,7.913,28.627L7.913,28.627"/>
	<path style="fill-rule:evenodd;clip-rule:evenodd;fill:#131E45;" d="M9.671,28.87c0,1.922,0,1.922,0,1.922
		c-0.879-0.143-0.879-0.143-0.879-0.143c0-2.166,0-2.166,0-2.166C9.231,28.675,9.671,28.675,9.671,28.87L9.671,28.87"/>
	<path style="fill-rule:evenodd;clip-rule:evenodd;fill:#131E45;" d="M11.43,29.446c0,2.116,0,2.116,0,2.116
		c-0.879-0.287-0.879-0.287-0.879-0.287c0-2.021,0-2.021,0-2.021C10.99,29.446,10.99,29.446,11.43,29.446L11.43,29.446"/>
	<path style="fill-rule:evenodd;clip-rule:evenodd;fill:#131E45;" d="M17.584,31.562c0,3.079,0,3.079,0,3.079
		c-0.879-0.095-0.879-0.095-0.879-0.095c0-2.984,0-2.984,0-2.984C17.035,31.562,17.31,31.562,17.584,31.562L17.584,31.562"/>
	<path style="fill-rule:evenodd;clip-rule:evenodd;fill:#131E45;" d="M19.343,31.754c0,3.657,0,3.657,0,3.657
		c-0.879-0.145-0.879-0.145-0.879-0.145c0-3.705,0-3.705,0-3.705c0.33,0,0.33,0,0.33,0C19.068,31.562,19.068,31.754,19.343,31.754
		L19.343,31.754"/>
	<path style="fill-rule:evenodd;clip-rule:evenodd;fill:#131E45;" d="M21.101,32.333c0,3.849,0,3.849,0,3.849
		c-0.879-0.096-0.879-0.096-0.879-0.096c0-3.753,0-3.753,0-3.753C20.552,32.333,20.827,32.333,21.101,32.333L21.101,32.333"/>
	<path style="fill-rule:evenodd;clip-rule:evenodd;fill:#131E45;" d="M22.86,32.525c0,5.197,0,5.197,0,5.197
		c-0.879-0.337-0.879-0.337-0.879-0.337c0-5.053,0-5.053,0-5.053C22.31,32.525,22.585,32.525,22.86,32.525L22.86,32.525"/>
	<path style="fill-rule:evenodd;clip-rule:evenodd;fill:#131E45;" d="M27.256,34.257c0,5.773,0,5.773,0,5.773
		c-0.879-0.337-0.879-0.337-0.879-0.337c0-5.821,0-5.821,0-5.821c0,0.192,0,0.192,0,0.192
		C26.816,34.065,27.256,34.257,27.256,34.257L27.256,34.257"/>
	<path style="fill-rule:evenodd;clip-rule:evenodd;fill:#131E45;" d="M28.135,35.412c0.44,0,0.44,0.192,0.879,0.192
		c0,5.197,0,5.197,0,5.197c-0.879-0.145-0.879-0.145-0.879-0.145C28.135,35.412,28.135,35.412,28.135,35.412L28.135,35.412"/>
	<path style="fill-rule:evenodd;clip-rule:evenodd;fill:#131E45;" d="M29.894,36.181c0,0.193,0.44,0.193,0.879,0.337
		c0,5.052,0,5.052,0,5.052c-0.879-0.145-0.879-0.145-0.879-0.145C29.894,36.181,29.894,36.181,29.894,36.181L29.894,36.181"/>
	<path style="fill-rule:evenodd;clip-rule:evenodd;fill:#131E45;" d="M31.981,36.952c0,0,0.275,0.192,0.55,0.337
		c0,5.052,0,5.052,0,5.052c-0.88-0.145-0.88-0.145-0.88-0.145C31.981,36.952,31.981,36.952,31.981,36.952L31.981,36.952"/>
	<path style="fill-rule:evenodd;clip-rule:evenodd;fill:#131E45;" d="M36.049,40.801c0.329,0.192,0.604,0.337,0.879,0.481
		c0,3.366,0,3.366,0,3.366c-0.879-0.287-0.879-0.287-0.879-0.287C36.049,40.801,36.049,40.801,36.049,40.801L36.049,40.801"/>
	<path style="fill-rule:evenodd;clip-rule:evenodd;fill:#131E45;" d="M37.807,41.57l0.329,0.192c0.275,0,0.275,0.145,0.275,0.145
		s0,0,0.274,0c0,3.513,0,3.513,0,3.513c-0.879-0.289-0.879-0.289-0.879-0.289C37.807,41.57,37.807,41.57,37.807,41.57L37.807,41.57"
		/>
	<path style="fill-rule:evenodd;clip-rule:evenodd;fill:#131E45;" d="M39.565,43.11c0.329,0.192,0.604,0.192,0.879,0.337
		c-0.275,2.742-0.275,2.742-0.275,2.742c-0.604-0.144-0.604-0.144-0.604-0.144C39.565,43.11,39.565,43.11,39.565,43.11L39.565,43.11
		"/>
	<path style="fill-rule:evenodd;clip-rule:evenodd;fill:#131E45;" d="M41.323,44.649c0.44,0.146,0.44,0.146,0.879,0.29l0,0
		c0,2.021,0,2.021,0,2.021c-0.879-0.097-0.879-0.097-0.879-0.097C41.323,44.649,41.323,44.649,41.323,44.649L41.323,44.649"/>
	<path style="fill-rule:evenodd;clip-rule:evenodd;fill:#131E45;" d="M47.478,48.499c0.33,0,0.33,0,0.33,0
		c0,0.192,0.274,0.192,0.55,0.385c0,1.926,0,1.926,0,1.926c-0.88-0.386-0.88-0.386-0.88-0.386
		C47.478,48.499,47.478,48.499,47.478,48.499L47.478,48.499"/>
	<path style="fill-rule:evenodd;clip-rule:evenodd;fill:#46609F;" d="M27.476,32.236C42.697,40.031,54.512,46.67,55.06,47.007
		c0,0.145,0.331,2.839-0.933,5.341c-0.548-0.145-9.616-5.052-16.156-10.297c-6.319-4.907-7.637-5.677-10.495-7.121
		c-2.748-1.395-4.011-1.876-10.386-3.318c-6.539-1.396-14.727-5.197-15.057-5.39C0,23.383,0,19.438,0,19.245
		C0.549,19.582,12.364,24.634,27.476,32.236L27.476,32.236"/>
	<path style="fill-rule:evenodd;clip-rule:evenodd;fill:#374D84;" d="M56.436,46.863c35.885-18.38,35.885-18.38,35.885-18.38
		c0,0.192,0,0.337,0,0.529c0,0.145,0,0.145-0.167,0.289c0,0.192,0,0.337,0,0.481v0.192c-0.163,0.145-0.163,0.48-0.163,0.626
		l-0.167,0.144c0,0.193,0,0.337-0.218,0.673v0.145c-0.167,0.145-0.167,0.481-0.33,0.626c0,0,0,0.192-0.222,0.337
		c-0.33,0.674-0.878,1.3-1.647,1.925C52.755,53.118,52.755,53.118,52.755,53.118c0.382-0.481,0.382-0.481,0.767-1.105
		c0,0,0.551-0.337,1.1-0.963c0.166,0,0.166-0.145,0.33-0.337c0.221-0.145,0.385-0.481,0.385-0.626
		c0.166-0.144,0.166-0.144,0.166-0.144c0-0.193,0-0.193,0-0.193c0.219-0.144,0.219-0.288,0.385-0.48v-0.145c0,0,0-0.192,0.164-0.192
		c0-0.289,0-0.48,0.221-0.625c0,0,0,0,0-0.145l0,0c0-0.337,0.164-0.481,0.164-0.674v-0.145
		C56.436,47.007,56.436,46.863,56.436,46.863L56.436,46.863"/>
	<path style="fill-rule:evenodd;clip-rule:evenodd;fill:#131E45;" d="M91.438,32.333c0,0.192,0,0.337-0.163,0.337
		C54.512,51.579,54.512,51.579,54.512,51.579c0-0.145,0.222-0.289,0.385-0.481C91.438,32.333,91.438,32.333,91.438,32.333
		L91.438,32.333"/>
	<path style="fill-rule:evenodd;clip-rule:evenodd;fill:#131E45;" d="M91.438,31.562v0.192
		C55.391,50.039,55.391,50.039,55.391,50.039c0-0.145,0.221-0.145,0.221-0.145c0-0.145,0-0.145,0-0.288
		C91.438,31.562,91.438,31.562,91.438,31.562L91.438,31.562"/>
	<path style="fill-rule:evenodd;clip-rule:evenodd;fill:#131E45;" d="M92.32,30.792c0,0.194,0,0.194-0.167,0.337
		C55.391,49.269,55.391,49.269,55.391,49.269c0-0.145,0-0.289,0-0.289C92.32,30.792,92.32,30.792,92.32,30.792L92.32,30.792"/>
	<path style="fill-rule:evenodd;clip-rule:evenodd;fill:#131E45;" d="M92.32,30.023c0,0,0,0.193,0,0.337
		C56.271,48.499,56.271,48.499,56.271,48.499c0.218,0,0.218-0.145,0.218-0.145v-0.145C92.32,30.023,92.32,30.023,92.32,30.023
		L92.32,30.023"/>
	<path style="fill-rule:evenodd;clip-rule:evenodd;fill:#131E45;" d="M92.32,29.253v0.192C56.271,47.73,56.271,47.73,56.271,47.73
		c0-0.145,0-0.145,0-0.289C92.32,29.253,92.32,29.253,92.32,29.253L92.32,29.253"/>
	<polygon style="fill-rule:evenodd;clip-rule:evenodd;fill:#374D84;" points="22.86,29.494 22.86,30.023 21.981,29.927 
		21.981,29.253 22.86,29.494 22.86,29.494 22.86,29.494 	"/>
	<polygon style="fill-rule:evenodd;clip-rule:evenodd;fill:#374D84;" points="30.772,34.017 30.772,34.641 29.894,34.45 
		29.894,33.873 30.772,34.017 30.772,34.017 30.772,34.017 	"/>
	<polygon style="fill-rule:evenodd;clip-rule:evenodd;fill:#374D84;" points="32.531,34.786 32.531,35.412 31.651,35.315 
		31.651,34.641 32.531,34.786 32.531,34.786 32.531,34.786 	"/>
	<polygon style="fill-rule:evenodd;clip-rule:evenodd;fill:#374D84;" points="23.739,29.157 22.42,30.023 21.981,29.59 
		23.189,28.483 23.739,29.157 23.739,29.157 23.739,29.157 	"/>
	<polygon style="fill-rule:evenodd;clip-rule:evenodd;fill:#374D84;" points="25.498,30.36 24.178,30.792 23.739,30.601 
		24.948,30.023 25.498,30.36 25.498,30.36 25.498,30.36 	"/>
	<polygon style="fill-rule:evenodd;clip-rule:evenodd;fill:#374D84;" points="27.256,30.938 25.937,31.562 25.498,31.275 
		26.706,30.792 27.256,30.938 27.256,30.938 27.256,30.938 	"/>
	<polygon style="fill-rule:evenodd;clip-rule:evenodd;fill:#374D84;" points="29.014,31.707 27.695,32.333 27.256,32.043 
		28.52,31.562 29.014,31.707 29.014,31.707 29.014,31.707 	"/>
	<polygon style="fill-rule:evenodd;clip-rule:evenodd;fill:#374D84;" points="29.894,32.477 29.179,33.102 29.014,33.006 
		29.619,32.333 29.894,32.477 29.894,32.477 29.894,32.477 	"/>
	<polygon style="fill-rule:evenodd;clip-rule:evenodd;fill:#374D84;" points="31.651,33.439 30.333,33.873 29.894,33.776 
		31.103,33.102 31.651,33.439 31.651,33.439 31.651,33.439 	"/>
	<polygon style="fill-rule:evenodd;clip-rule:evenodd;fill:#374D84;" points="33.41,34.209 32.092,34.641 31.651,34.546 
		32.861,33.873 33.41,34.209 33.41,34.209 33.41,34.209 	"/>
</g>
</svg>