<?xml version="1.0" encoding="iso-8859-1"?>
<!DOCTYPE svg PUBLIC "-//W3C//DTD SVG 1.1//EN" "http://www.w3.org/Graphics/SVG/1.1/DTD/svg11.dtd">
<svg version="1.1" xmlns="http://www.w3.org/2000/svg" xmlns:xlink="http://www.w3.org/1999/xlink" width="67" height="83" viewBox="0 0 67 83">
<g>
	<polygon style="fill-rule:evenodd;clip-rule:evenodd;fill:#273472;" points="38.423,32.007 66.385,17.549 66.216,67.057 
		38.195,81.365 38.423,32.007 38.423,32.007 38.423,32.007 	"/>
	<polygon style="fill-rule:evenodd;clip-rule:evenodd;fill:#4B68AF;" points="3.638,14.308 31.659,0 66.385,17.648 38.423,31.907 
		3.638,14.308 3.638,14.308 3.638,14.308 	"/>
	<polygon style="fill-rule:evenodd;clip-rule:evenodd;fill:#354990;" points="38.195,32.107 38.025,81.365 3.638,63.666 
		3.752,14.358 38.195,32.107 38.195,32.107 38.195,32.107 	"/>
	<polygon style="fill-rule:evenodd;clip-rule:evenodd;fill:#FFFFFF;" points="5.457,23.183 5.286,50.255 3.638,49.457 3.752,22.335 
		5.457,23.183 5.457,23.183 5.457,23.183 	"/>
	<polygon style="fill-rule:evenodd;clip-rule:evenodd;fill:#FFFFFF;" points="6.366,23.98 6.366,51.053 5.457,50.255 5.457,23.133 
		6.366,23.98 6.366,23.98 6.366,23.98 	"/>
	<polygon style="fill-rule:evenodd;clip-rule:evenodd;fill:#FFFFFF;" points="9.094,24.778 9.038,52.648 7.275,51.75 7.389,23.931 
		9.094,24.778 9.094,24.778 9.094,24.778 	"/>
	<polygon style="fill-rule:evenodd;clip-rule:evenodd;fill:#FFFFFF;" points="10.913,25.576 10.856,53.445 9.094,52.648 
		9.208,24.729 10.913,25.576 10.913,25.576 10.913,25.576 	"/>
	<polygon style="fill-rule:evenodd;clip-rule:evenodd;fill:#FFFFFF;" points="11.822,26.374 11.766,54.244 10.913,53.445 
		10.97,25.526 11.822,26.374 11.822,26.374 11.822,26.374 	"/>
	<polygon style="fill-rule:evenodd;clip-rule:evenodd;fill:#FFFFFF;" points="13.641,27.969 13.641,55.041 11.822,54.244 
		11.822,27.122 13.641,27.969 13.641,27.969 13.641,27.969 	"/>
	<polygon style="fill-rule:evenodd;clip-rule:evenodd;fill:#FFFFFF;" points="15.46,28.767 15.403,55.839 13.641,55.041 
		13.755,27.919 15.46,28.767 15.46,28.767 15.46,28.767 	"/>
	<polygon style="fill-rule:evenodd;clip-rule:evenodd;fill:#FFFFFF;" points="17.279,29.564 17.166,56.636 15.46,55.739 
		15.574,28.717 17.279,29.564 17.279,29.564 17.279,29.564 	"/>
	<polygon style="fill-rule:evenodd;clip-rule:evenodd;fill:#FFFFFF;" points="19.098,30.362 19.041,57.435 17.279,56.636 
		17.506,29.515 19.098,30.362 19.098,30.362 19.098,30.362 	"/>
	<polygon style="fill-rule:evenodd;clip-rule:evenodd;fill:#FFFFFF;" points="20.917,31.16 20.917,58.231 19.098,57.435 
		19.098,30.312 20.917,31.16 20.917,31.16 20.917,31.16 	"/>
	<polygon style="fill-rule:evenodd;clip-rule:evenodd;fill:#FFFFFF;" points="22.735,31.958 22.565,59.827 20.917,59.03 
		21.03,31.11 22.735,31.958 22.735,31.958 22.735,31.958 	"/>
	<polygon style="fill-rule:evenodd;clip-rule:evenodd;fill:#FFFFFF;" points="24.554,32.755 24.44,60.625 22.735,59.827 
		22.849,31.907 24.554,32.755 24.554,32.755 24.554,32.755 	"/>
	<polygon style="fill-rule:evenodd;clip-rule:evenodd;fill:#FFFFFF;" points="26.373,33.553 26.316,61.423 24.554,60.524 
		24.667,32.705 26.373,33.553 26.373,33.553 26.373,33.553 	"/>
	<polygon style="fill-rule:evenodd;clip-rule:evenodd;fill:#FFFFFF;" points="28.192,35.148 28.192,62.22 26.373,61.423 
		26.373,34.301 28.192,35.148 28.192,35.148 28.192,35.148 	"/>
	<polygon style="fill-rule:evenodd;clip-rule:evenodd;fill:#FFFFFF;" points="30.011,35.946 29.897,63.019 28.192,62.22 
		28.306,35.099 30.011,35.946 30.011,35.946 30.011,35.946 	"/>
	<polygon style="fill-rule:evenodd;clip-rule:evenodd;fill:#354990;" points="13.641,28.617 13.641,30.312 11.822,29.664 
		11.822,27.919 13.641,28.617 13.641,28.617 13.641,28.617 	"/>
	<path style="fill-rule:evenodd;clip-rule:evenodd;fill:#273472;" d="M6.252,26.772c0.057,0.1,0.114,0.349,0.114,0.449
		c0,7.678,0,7.678,0,7.678c0,0.2-0.057,0.2-0.227,0.2C5.627,34.7,5.627,34.7,5.627,34.7c-0.057-0.1-0.17-0.349-0.17-0.449
		c0-7.678,0-7.678,0-7.678c0-0.25,0.113-0.25,0.17-0.25C6.252,26.772,6.252,26.772,6.252,26.772L6.252,26.772"/>
	<path style="fill-rule:evenodd;clip-rule:evenodd;fill:#4B68AF;" d="M6.252,26.772c0.057,0.1,0.114,0.299,0.114,0.449
		c0,7.678,0,7.678,0,7.678c0,0.1-0.057,0.2-0.114,0.1C5.627,34.6,5.627,34.6,5.627,34.6c-0.057,0-0.17-0.25-0.17-0.449
		c0-7.578,0-7.578,0-7.578c0-0.1,0.113-0.25,0.284-0.1C6.252,26.772,6.252,26.772,6.252,26.772L6.252,26.772"/>
	<path style="fill-rule:evenodd;clip-rule:evenodd;fill:#273472;" d="M9.776,28.467c0.171,0,0.227,0.199,0.227,0.449
		c0,7.579,0,7.579,0,7.579c0,0.1-0.056,0.199-0.227,0.1c-0.511-0.399-0.511-0.399-0.511-0.399c-0.058,0-0.171-0.25-0.171-0.449
		c0-7.578,0-7.578,0-7.578c0-0.1,0.113-0.25,0.171-0.1C9.776,28.467,9.776,28.467,9.776,28.467L9.776,28.467"/>
	<path style="fill-rule:evenodd;clip-rule:evenodd;fill:#4B68AF;" d="M9.776,28.368c0.114,0.1,0.227,0.25,0.227,0.449
		c-0.056,7.678-0.056,7.678-0.056,7.678c0,0.199-0.057,0.199-0.171,0.1c-0.455-0.299-0.455-0.299-0.455-0.299
		c-0.114-0.1-0.227-0.349-0.227-0.449c0.113-7.678,0.113-7.678,0.113-7.678c0-0.25,0.058-0.25,0.114-0.25
		C9.776,28.368,9.776,28.368,9.776,28.368L9.776,28.368"/>
	<path style="fill-rule:evenodd;clip-rule:evenodd;fill:#273472;" d="M13.414,30.711c0.171,0.1,0.228,0.299,0.228,0.398
		c0,7.03,0,7.03,0,7.03c0,0.15-0.057,0.15-0.228,0.15c-0.511-0.349-0.511-0.349-0.511-0.349c-0.057-0.1-0.171-0.299-0.171-0.399
		c0-7.029,0-7.029,0-7.029c0-0.2,0.114-0.2,0.171-0.2C13.414,30.711,13.414,30.711,13.414,30.711L13.414,30.711"/>
	<path style="fill-rule:evenodd;clip-rule:evenodd;fill:#4B68AF;" d="M13.527,30.711c0.057,0.1,0.114,0.299,0.114,0.398
		c0,7.03,0,7.03,0,7.03c0,0.1-0.057,0.15-0.228,0.1c-0.511-0.398-0.511-0.398-0.511-0.398c-0.057,0-0.171-0.199-0.171-0.399
		c0-6.929,0-6.929,0-6.929c0-0.101,0.114-0.2,0.171-0.101C13.527,30.711,13.527,30.711,13.527,30.711L13.527,30.711"/>
	<path style="fill-rule:evenodd;clip-rule:evenodd;fill:#273472;" d="M17.166,32.307c0.056,0.1,0.113,0.199,0.113,0.398
		c0,7.03,0,7.03,0,7.03c0,0.05-0.057,0.15-0.113,0.05c-0.626-0.25-0.626-0.25-0.626-0.25c-0.056-0.1-0.17-0.299-0.17-0.398
		c0-7.03,0-7.03,0-7.03c0-0.2,0.114-0.2,0.284-0.2C17.166,32.307,17.166,32.307,17.166,32.307L17.166,32.307"/>
	<path style="fill-rule:evenodd;clip-rule:evenodd;fill:#4B68AF;" d="M16.995,32.307c0.171,0.1,0.284,0.299,0.284,0.398
		c0,7.03,0,7.03,0,7.03c0,0.15-0.113,0.15-0.284,0.15c-1.023-0.349-1.023-0.349-1.023-0.349c-0.341-0.1-0.511-0.299-0.511-0.398
		c0-7.03,0-7.03,0-7.03c0-0.2,0.341-0.2,0.511-0.101C16.995,32.307,16.995,32.307,16.995,32.307L16.995,32.307"/>
	<path style="fill-rule:evenodd;clip-rule:evenodd;fill:#273472;" d="M6.252,34.75c0.057,0.1,0.114,0.349,0.114,0.449
		c0,7.678,0,7.678,0,7.678c0,0.199-0.057,0.199-0.227,0.199c-0.512-0.398-0.512-0.398-0.512-0.398c-0.057-0.1-0.17-0.349-0.17-0.449
		c0-7.678,0-7.678,0-7.678c0-0.249,0.113-0.249,0.17-0.249C6.252,34.75,6.252,34.75,6.252,34.75L6.252,34.75"/>
	<path style="fill-rule:evenodd;clip-rule:evenodd;fill:#4B68AF;" d="M6.252,34.75c0.057,0.1,0.114,0.299,0.114,0.449
		c0,7.678,0,7.678,0,7.678c0,0.1-0.057,0.199-0.114,0.1c-0.625-0.398-0.625-0.398-0.625-0.398c-0.057,0-0.17-0.25-0.17-0.449
		c0-7.579,0-7.579,0-7.579c0-0.1,0.113-0.249,0.284-0.1C6.252,34.75,6.252,34.75,6.252,34.75L6.252,34.75"/>
	<path style="fill-rule:evenodd;clip-rule:evenodd;fill:#273472;" d="M9.89,37.192c0.057,0,0.113,0.2,0.113,0.399
		c0,6.929,0,6.929,0,6.929c0,0.101-0.056,0.15-0.113,0.101c-0.512-0.4-0.512-0.4-0.512-0.4c-0.171,0-0.284-0.198-0.284-0.398
		c0.113-6.93,0.113-6.93,0.113-6.93c0-0.1,0.058-0.199,0.171-0.1C9.89,37.192,9.89,37.192,9.89,37.192L9.89,37.192"/>
	<path style="fill-rule:evenodd;clip-rule:evenodd;fill:#4B68AF;" d="M9.776,37.093c0.114,0.1,0.227,0.299,0.227,0.399
		c-0.056,7.029-0.056,7.029-0.056,7.029c0,0.15-0.057,0.15-0.171,0.05c-0.455-0.248-0.455-0.248-0.455-0.248
		c-0.114-0.102-0.227-0.299-0.227-0.4c0.113-7.03,0.113-7.03,0.113-7.03c0-0.199,0.058-0.199,0.114-0.199
		C9.776,37.093,9.776,37.093,9.776,37.093L9.776,37.093"/>
	<polygon style="fill-rule:evenodd;clip-rule:evenodd;fill:#4B68AF;" points="23.645,35.099 23.758,35.099 24.554,35.896 
		24.554,35.896 23.645,35.099 23.645,35.099 23.645,35.099 	"/>
	<polygon style="fill-rule:evenodd;clip-rule:evenodd;fill:#4B68AF;" points="12.731,38.489 12.846,38.29 13.641,39.087 
		13.527,39.087 12.731,38.489 12.731,38.489 12.731,38.489 	"/>
	<polygon style="fill-rule:evenodd;clip-rule:evenodd;fill:#273472;" points="6.366,24.928 7.275,24.729 7.275,26.922 6.366,27.122 
		6.366,24.928 6.366,24.928 6.366,24.928 	"/>
	<polygon style="fill-rule:evenodd;clip-rule:evenodd;fill:#4B68AF;" points="5.457,24.08 5.797,23.931 7.275,24.629 6.991,24.729 
		5.457,24.08 5.457,24.08 5.457,24.08 	"/>
	<polygon style="fill-rule:evenodd;clip-rule:evenodd;fill:#354990;" points="6.366,24.878 6.366,27.122 5.457,26.224 5.457,23.931 
		6.366,24.878 6.366,24.878 6.366,24.878 	"/>
	<polygon style="fill-rule:evenodd;clip-rule:evenodd;fill:#273472;" points="6.707,48.859 7.275,48.66 7.275,50.803 6.366,51.053 
		6.707,48.859 6.707,48.859 6.707,48.859 	"/>
	<polygon style="fill-rule:evenodd;clip-rule:evenodd;fill:#4B68AF;" points="5.457,48.311 5.684,47.861 7.275,49.208 7.105,49.457 
		5.457,48.311 5.457,48.311 5.457,48.311 	"/>
	<polygon style="fill-rule:evenodd;clip-rule:evenodd;fill:#354990;" points="6.366,49.308 6.309,51.053 4.547,50.404 4.774,48.66 
		6.366,49.308 6.366,49.308 6.366,49.308 	"/>
	<polygon style="fill-rule:evenodd;clip-rule:evenodd;fill:#273472;" points="10.003,26.474 10.913,26.324 10.913,28.617 
		10.003,28.717 10.003,26.474 10.003,26.474 10.003,26.474 	"/>
	<polygon style="fill-rule:evenodd;clip-rule:evenodd;fill:#4B68AF;" points="9.094,25.626 9.321,25.526 10.913,26.274 
		10.743,26.324 9.094,25.626 9.094,25.626 9.094,25.626 	"/>
	<polygon style="fill-rule:evenodd;clip-rule:evenodd;fill:#273472;" points="10.003,51.152 10.913,51.053 10.913,52.548 
		10.003,52.648 10.003,51.152 10.003,51.152 10.003,51.152 	"/>
	<polygon style="fill-rule:evenodd;clip-rule:evenodd;fill:#4B68AF;" points="8.185,50.355 8.525,50.255 10.913,51.002 
		10.458,51.053 8.185,50.355 8.185,50.355 8.185,50.355 	"/>
	<polygon style="fill-rule:evenodd;clip-rule:evenodd;fill:#354990;" points="10.003,50.953 10.003,52.648 8.185,52 8.185,50.255 
		10.003,50.953 10.003,50.953 10.003,50.953 	"/>
	<polygon style="fill-rule:evenodd;clip-rule:evenodd;fill:#273472;" points="13.641,28.118 14.551,27.919 14.551,30.212 
		13.641,30.312 13.641,28.118 13.641,28.118 13.641,28.118 	"/>
	<polygon style="fill-rule:evenodd;clip-rule:evenodd;fill:#4B68AF;" points="11.822,27.42 12.448,27.122 14.551,28.467 
		14.153,28.717 11.822,27.42 11.822,27.42 11.822,27.42 	"/>
	<polygon style="fill-rule:evenodd;clip-rule:evenodd;fill:#4B68AF;" points="11.822,52 12.164,51.85 13.641,52.548 13.471,52.648 
		11.822,52 11.822,52 11.822,52 	"/>
	<polygon style="fill-rule:evenodd;clip-rule:evenodd;fill:#354990;" points="13.641,52.748 13.584,55.041 11.822,54.144 
		11.936,51.85 13.641,52.748 13.641,52.748 13.641,52.748 	"/>
	<polygon style="fill-rule:evenodd;clip-rule:evenodd;fill:#4B68AF;" points="15.46,29.614 15.688,29.515 17.279,30.263 
		16.995,30.312 15.46,29.614 15.46,29.614 15.46,29.614 	"/>
	<polygon style="fill-rule:evenodd;clip-rule:evenodd;fill:#4B68AF;" points="15.46,53.546 15.688,53.445 17.279,54.193 
		17.108,54.244 15.46,53.546 15.46,53.546 15.46,53.546 	"/>
	<polygon style="fill-rule:evenodd;clip-rule:evenodd;fill:#354990;" points="17.279,54.343 17.279,56.636 15.46,55.788 
		15.46,53.445 17.279,54.343 17.279,54.343 17.279,54.343 	"/>
	<polygon style="fill-rule:evenodd;clip-rule:evenodd;fill:#4B68AF;" points="22.735,33.005 22.962,32.705 24.554,34.052 
		24.384,34.301 22.735,33.005 22.735,33.005 22.735,33.005 	"/>
	<polygon style="fill-rule:evenodd;clip-rule:evenodd;fill:#354990;" points="24.554,33.652 24.554,35.896 22.735,34.999 
		22.735,32.705 24.554,33.652 24.554,33.652 24.554,33.652 	"/>
	<polygon style="fill-rule:evenodd;clip-rule:evenodd;fill:#4B68AF;" points="22.735,57.584 23.077,57.435 24.554,58.132 
		24.384,58.231 22.735,57.584 22.735,57.584 22.735,57.584 	"/>
	<polygon style="fill-rule:evenodd;clip-rule:evenodd;fill:#354990;" points="24.554,58.132 24.554,59.827 22.735,59.229 
		22.735,57.435 24.554,58.132 24.554,58.132 24.554,58.132 	"/>
	<polygon style="fill-rule:evenodd;clip-rule:evenodd;fill:#4B68AF;" points="26.373,35.198 26.714,35.099 28.192,35.846 
		27.851,35.896 26.373,35.198 26.373,35.198 26.373,35.198 	"/>
	<polygon style="fill-rule:evenodd;clip-rule:evenodd;fill:#4B68AF;" points="26.373,59.128 26.714,59.03 28.192,59.777 
		27.851,59.827 26.373,59.128 26.373,59.128 26.373,59.128 	"/>
	<polygon style="fill-rule:evenodd;clip-rule:evenodd;fill:#354990;" points="28.192,59.977 28.192,62.22 26.373,61.323 
		26.373,59.03 28.192,59.977 28.192,59.977 28.192,59.977 	"/>
	<polygon style="fill-rule:evenodd;clip-rule:evenodd;fill:#273472;" points="5.457,25.427 6.366,24.729 6.366,25.675 5.457,26.324 
		5.457,25.427 5.457,25.427 5.457,25.427 	"/>
	<polygon style="fill-rule:evenodd;clip-rule:evenodd;fill:#4B68AF;" points="4.547,24.579 5.343,23.931 6.366,24.928 5.684,25.526 
		4.547,24.579 4.547,24.579 4.547,24.579 	"/>
	<polygon style="fill-rule:evenodd;clip-rule:evenodd;fill:#374D84;" points="5.457,25.576 5.457,26.324 4.547,25.526 4.547,24.729 
		5.457,25.576 5.457,25.576 5.457,25.576 	"/>
	<polygon style="fill-rule:evenodd;clip-rule:evenodd;fill:#273472;" points="27.283,60.974 28.192,60.625 28.192,61.124 
		27.283,61.423 27.283,60.974 27.283,60.974 27.283,60.974 	"/>
	<polygon style="fill-rule:evenodd;clip-rule:evenodd;fill:#4B68AF;" points="25.463,60.126 26.601,59.827 28.192,60.376 
		27.168,60.625 25.463,60.126 25.463,60.126 25.463,60.126 	"/>
	<polygon style="fill-rule:evenodd;clip-rule:evenodd;fill:#354990;" points="27.283,60.725 27.283,61.423 25.463,60.524 
		25.463,59.827 27.283,60.725 27.283,60.725 27.283,60.725 	"/>
	<polygon style="fill-rule:evenodd;clip-rule:evenodd;fill:#273472;" points="23.645,58.929 24.554,58.231 24.554,59.179 
		23.645,59.827 23.645,58.929 23.645,58.929 23.645,58.929 	"/>
	<polygon style="fill-rule:evenodd;clip-rule:evenodd;fill:#4B68AF;" points="21.826,58.032 22.735,57.435 24.554,58.481 
		23.531,59.03 21.826,58.032 21.826,58.032 21.826,58.032 	"/>
	<polygon style="fill-rule:evenodd;clip-rule:evenodd;fill:#354990;" points="23.645,59.128 23.645,59.827 21.826,58.929 
		21.826,58.231 23.645,59.128 23.645,59.128 23.645,59.128 	"/>
	<polygon style="fill-rule:evenodd;clip-rule:evenodd;fill:#273472;" points="16.37,55.39 17.279,55.041 17.279,55.589 
		16.37,55.839 16.37,55.39 16.37,55.39 16.37,55.39 	"/>
	<polygon style="fill-rule:evenodd;clip-rule:evenodd;fill:#4B68AF;" points="14.551,54.542 15.574,54.244 17.279,54.792 
		16.256,55.041 14.551,54.542 14.551,54.542 14.551,54.542 	"/>
	<polygon style="fill-rule:evenodd;clip-rule:evenodd;fill:#354990;" points="16.37,55.141 16.37,55.839 14.551,54.942 
		14.551,54.244 16.37,55.141 16.37,55.141 16.37,55.141 	"/>
	<polygon style="fill-rule:evenodd;clip-rule:evenodd;fill:#273472;" points="12.731,53.794 13.641,53.445 13.641,53.944 
		12.731,54.244 12.731,53.794 12.731,53.794 12.731,53.794 	"/>
	<polygon style="fill-rule:evenodd;clip-rule:evenodd;fill:#4B68AF;" points="10.913,52.947 11.936,52.648 13.641,53.197 
		12.675,53.445 10.913,52.947 10.913,52.947 10.913,52.947 	"/>
	<polygon style="fill-rule:evenodd;clip-rule:evenodd;fill:#354990;" points="12.731,53.495 12.731,54.244 10.913,53.445 
		10.913,52.648 12.731,53.495 12.731,53.495 12.731,53.495 	"/>
	<polygon style="fill-rule:evenodd;clip-rule:evenodd;fill:#273472;" points="9.094,51.602 10.003,51.053 10.003,52 9.094,52.648 
		9.094,51.602 9.094,51.602 9.094,51.602 	"/>
	<polygon style="fill-rule:evenodd;clip-rule:evenodd;fill:#4B68AF;" points="7.275,50.753 8.298,50.255 10.003,51.402 9.094,51.85 
		7.275,50.753 7.275,50.753 7.275,50.753 	"/>
	<polygon style="fill-rule:evenodd;clip-rule:evenodd;fill:#354990;" points="9.094,51.899 9.094,52.648 7.275,51.85 7.275,51.053 
		9.094,51.899 9.094,51.899 9.094,51.899 	"/>
	<polygon style="fill-rule:evenodd;clip-rule:evenodd;fill:#273472;" points="5.57,50.105 6.366,49.457 6.366,50.454 5.457,51.053 
		5.57,50.105 5.57,50.105 5.57,50.105 	"/>
	<polygon style="fill-rule:evenodd;clip-rule:evenodd;fill:#4B68AF;" points="4.547,49.357 5.229,48.66 6.366,49.707 5.684,50.255 
		4.547,49.357 4.547,49.357 4.547,49.357 	"/>
	<polygon style="fill-rule:evenodd;clip-rule:evenodd;fill:#354990;" points="5.457,50.255 5.399,51.053 4.547,50.056 4.547,49.457 
		5.457,50.255 5.457,50.255 5.457,50.255 	"/>
	<polygon style="fill-rule:evenodd;clip-rule:evenodd;fill:#273472;" points="35.466,68.252 37.286,67.006 37.286,81.764 
		35.466,82.96 35.466,68.252 35.466,68.252 35.466,68.252 	"/>
	<polygon style="fill-rule:evenodd;clip-rule:evenodd;fill:#4B67AB;" points="0,50.653 2.331,49.457 37.286,66.657 34.898,67.805 
		0,50.653 0,50.653 0,50.653 	"/>
	<polygon style="fill-rule:evenodd;clip-rule:evenodd;fill:#354990;" points="35.466,68.252 35.466,82.96 0,65.012 0,50.255 
		35.466,68.252 35.466,68.252 35.466,68.252 	"/>
	<path style="fill-rule:evenodd;clip-rule:evenodd;fill:#4B68AF;" d="M12.731,42.677c0,0,0.228-0.199,0.398,0.199
		c0.171,0.199,0,0.199,0,0.199c0.341-0.199,0.341-0.199,0.341-0.199s0.17-0.199,0-0.398c0-0.2-0.17-0.2-0.17-0.2
		C12.731,42.677,12.731,42.677,12.731,42.677"/>
	<path style="fill-rule:evenodd;clip-rule:evenodd;fill:#273472;" d="M24.1,35.647c0.34,0,0.454,0.199,0.454,0.449
		c-0.114,7.579-0.114,7.579-0.114,7.579c0,0.099-0.17,0.198-0.34,0.099c-0.91-0.398-0.91-0.398-0.91-0.398
		c-0.284,0-0.455-0.25-0.455-0.449c0.171-7.579,0.171-7.579,0.171-7.579c0-0.1,0.171-0.249,0.284-0.1
		C24.1,35.647,24.1,35.647,24.1,35.647L24.1,35.647"/>
	<path style="fill-rule:evenodd;clip-rule:evenodd;fill:#4B68AF;" d="M24.1,36.295c0.34,0.1,0.454,0.2,0.454,0.399
		c-0.114,7.03-0.114,7.03-0.114,7.03c0,0.05-0.17,0.148-0.34,0.05c-1.023-0.25-1.023-0.25-1.023-0.25
		c-0.171-0.099-0.342-0.298-0.342-0.398c0-7.03,0-7.03,0-7.03c0-0.199,0.171-0.199,0.342-0.199C24.1,36.295,24.1,36.295,24.1,36.295
		L24.1,36.295"/>
	<path style="fill-rule:evenodd;clip-rule:evenodd;fill:#273472;" d="M27.908,37.89c0.17,0.1,0.284,0.299,0.284,0.399
		c0,7.03,0,7.03,0,7.03c0,0.149-0.114,0.149-0.284,0.049c-1.023-0.249-1.023-0.249-1.023-0.249c-0.342-0.101-0.512-0.3-0.512-0.399
		c0-7.03,0-7.03,0-7.03c0-0.199,0.17-0.199,0.512-0.199C27.908,37.89,27.908,37.89,27.908,37.89L27.908,37.89"/>
	<path style="fill-rule:evenodd;clip-rule:evenodd;fill:#4B68AF;" d="M27.908,37.89c0.17,0.1,0.284,0.299,0.284,0.399
		c0,6.929,0,6.929,0,6.929c0,0.199-0.114,0.25-0.284,0.199c-1.194-0.398-1.194-0.398-1.194-0.398
		c-0.171-0.1-0.341-0.199-0.341-0.398c0-6.93,0-6.93,0-6.93c0-0.1,0.17-0.199,0.341-0.1C27.908,37.89,27.908,37.89,27.908,37.89
		L27.908,37.89"/>
	<path style="fill-rule:evenodd;clip-rule:evenodd;fill:#273472;" d="M24.1,44.373c0.34,0,0.454,0.198,0.454,0.398
		C24.44,51.7,24.44,51.7,24.44,51.7c0,0.101-0.17,0.15-0.34,0.101c-0.91-0.398-0.91-0.398-0.91-0.398
		c-0.284,0-0.455-0.201-0.455-0.4c0.171-6.93,0.171-6.93,0.171-6.93c0-0.099,0.171-0.201,0.284-0.099
		C24.1,44.373,24.1,44.373,24.1,44.373L24.1,44.373"/>
	<path style="fill-rule:evenodd;clip-rule:evenodd;fill:#4B68AF;" d="M24.1,44.272c0.34,0.101,0.454,0.199,0.454,0.398
		C24.44,51.7,24.44,51.7,24.44,51.7c0,0.05-0.17,0.15-0.34,0.05c-1.023-0.249-1.023-0.249-1.023-0.249
		c-0.171-0.099-0.342-0.299-0.342-0.398c0-7.03,0-7.03,0-7.03c0-0.201,0.171-0.201,0.342-0.201C24.1,44.272,24.1,44.272,24.1,44.272
		L24.1,44.272"/>
	<path style="fill-rule:evenodd;clip-rule:evenodd;fill:#273472;" d="M27.908,45.867c0.17,0.101,0.284,0.3,0.284,0.398
		c0,7.03,0,7.03,0,7.03c0,0.15-0.114,0.15-0.455,0.051c-1.023-0.25-1.023-0.25-1.023-0.25c-0.171-0.099-0.341-0.299-0.341-0.398
		c0-7.03,0-7.03,0-7.03c0-0.199,0.17-0.199,0.341-0.199C27.908,45.867,27.908,45.867,27.908,45.867L27.908,45.867"/>
	<path style="fill-rule:evenodd;clip-rule:evenodd;fill:#4B68AF;" d="M27.908,45.867c0.17,0.101,0.284,0.3,0.284,0.398
		c0,7.03,0,7.03,0,7.03c0,0.101-0.114,0.15-0.284,0.101c-1.194-0.398-1.194-0.398-1.194-0.398c-0.171-0.101-0.341-0.201-0.341-0.4
		c0-6.93,0-6.93,0-6.93c0-0.1,0.17-0.199,0.341-0.1C27.908,45.867,27.908,45.867,27.908,45.867L27.908,45.867"/>
	<path style="fill-rule:evenodd;clip-rule:evenodd;fill:#FFFFFF;" d="M26.714,37.691c0.284,0,0.569,0.199,0.569,0.399
		s-0.285,0.2-0.569,0.2l-0.341-0.399C26.373,37.691,26.714,37.492,26.714,37.691"/>
	<polygon style="fill-rule:evenodd;clip-rule:evenodd;fill:#354990;" points="17.279,30.412 17.279,32.705 15.46,31.808 
		15.46,29.515 17.279,30.412 17.279,30.412 17.279,30.412 	"/>
	<polygon style="fill-rule:evenodd;clip-rule:evenodd;fill:#354990;" points="10.003,26.474 10.003,28.717 9.094,27.819 
		9.094,25.526 10.003,26.474 10.003,26.474 10.003,26.474 	"/>
	<polygon style="fill-rule:evenodd;clip-rule:evenodd;fill:#273472;" points="9.094,27.471 10.003,27.122 10.003,27.57 
		9.094,27.919 9.094,27.471 9.094,27.471 9.094,27.471 	"/>
	<polygon style="fill-rule:evenodd;clip-rule:evenodd;fill:#4B68AF;" points="8.185,26.623 8.867,26.324 10.003,26.872 
		9.378,27.122 8.185,26.623 8.185,26.623 8.185,26.623 	"/>
	<polygon style="fill-rule:evenodd;clip-rule:evenodd;fill:#374D84;" points="9.094,27.172 9.094,27.919 8.185,27.122 8.185,26.324 
		9.094,27.172 9.094,27.172 9.094,27.172 	"/>
	<polygon style="fill-rule:evenodd;clip-rule:evenodd;fill:#273472;" points="12.731,29.415 13.641,28.717 13.641,29.664 
		12.731,30.312 12.731,29.415 12.731,29.415 12.731,29.415 	"/>
	<polygon style="fill-rule:evenodd;clip-rule:evenodd;fill:#4B68AF;" points="10.913,28.567 11.936,27.919 13.641,28.916 
		12.675,29.515 10.913,28.567 10.913,28.567 10.913,28.567 	"/>
	<polygon style="fill-rule:evenodd;clip-rule:evenodd;fill:#374D84;" points="12.731,29.564 12.731,30.312 10.913,29.515 
		10.913,28.717 12.731,29.564 12.731,29.564 12.731,29.564 	"/>
	<polygon style="fill-rule:evenodd;clip-rule:evenodd;fill:#273472;" points="16.37,31.01 17.279,30.312 17.279,31.26 16.37,31.907 
		16.37,31.01 16.37,31.01 16.37,31.01 	"/>
	<polygon style="fill-rule:evenodd;clip-rule:evenodd;fill:#4B68AF;" points="14.551,30.163 15.574,29.515 17.279,30.512 
		16.256,31.11 14.551,30.163 14.551,30.163 14.551,30.163 	"/>
	<polygon style="fill-rule:evenodd;clip-rule:evenodd;fill:#374D84;" points="16.37,31.16 16.37,31.907 14.551,31.11 14.551,30.312 
		16.37,31.16 16.37,31.16 16.37,31.16 	"/>
	<polygon style="fill-rule:evenodd;clip-rule:evenodd;fill:#273472;" points="23.645,34.7 24.554,34.301 24.554,34.799 
		23.645,35.099 23.645,34.7 23.645,34.7 23.645,34.7 	"/>
	<polygon style="fill-rule:evenodd;clip-rule:evenodd;fill:#4B68AF;" points="21.826,33.853 22.849,33.503 24.554,34.001 
		23.531,34.301 21.826,33.853 21.826,33.853 21.826,33.853 	"/>
	<polygon style="fill-rule:evenodd;clip-rule:evenodd;fill:#374D84;" points="23.645,34.401 23.645,35.099 21.826,34.301 
		21.826,33.503 23.645,34.401 23.645,34.401 23.645,34.401 	"/>
	<polygon style="fill-rule:evenodd;clip-rule:evenodd;fill:#354990;" points="28.192,35.797 28.192,37.492 26.373,36.844 
		26.373,35.099 28.192,35.797 28.192,35.797 28.192,35.797 	"/>
	<polygon style="fill-rule:evenodd;clip-rule:evenodd;fill:#273472;" points="27.283,36.644 28.192,35.896 28.192,36.893 
		27.283,37.492 27.283,36.644 27.283,36.644 27.283,36.644 	"/>
	<polygon style="fill-rule:evenodd;clip-rule:evenodd;fill:#4B68AF;" points="25.463,35.747 26.487,35.099 28.192,36.096 
		27.226,36.694 25.463,35.747 25.463,35.747 25.463,35.747 	"/>
	<polygon style="fill-rule:evenodd;clip-rule:evenodd;fill:#374D84;" points="27.283,36.793 27.283,37.492 25.463,36.694 
		25.463,35.896 27.283,36.793 27.283,36.793 27.283,36.793 	"/>
	<polygon style="fill-rule:evenodd;clip-rule:evenodd;fill:#657DB9;" points="12.731,38.29 13.641,38.788 13.584,39.885 
		12.731,39.436 12.731,38.29 12.731,38.29 12.731,38.29 	"/>
	<polygon style="fill-rule:evenodd;clip-rule:evenodd;fill:#4B68AF;" points="12.731,38.439 12.846,38.29 13.641,39.087 
		13.641,39.087 12.731,38.439 12.731,38.439 12.731,38.439 	"/>
	<polygon style="fill-rule:evenodd;clip-rule:evenodd;fill:#2F4276;" points="13.641,38.638 13.641,39.885 12.846,39.436 
		12.846,39.237 12.731,39.087 12.731,38.439 12.846,38.439 12.846,38.29 13.641,38.638 13.641,38.638 13.641,38.638 	"/>
	<polygon style="fill-rule:evenodd;clip-rule:evenodd;fill:#657DB9;" points="16.37,39.885 17.279,40.433 17.279,41.48 
		16.37,40.982 16.37,39.885 16.37,39.885 16.37,39.885 	"/>
	<polygon style="fill-rule:evenodd;clip-rule:evenodd;fill:#4B68AF;" points="16.37,39.885 16.483,39.885 17.279,40.583 
		17.222,40.682 16.37,39.885 16.37,39.885 16.37,39.885 	"/>
	<polygon style="fill-rule:evenodd;clip-rule:evenodd;fill:#2F4276;" points="17.279,40.383 17.279,41.48 16.483,41.031 
		16.483,40.832 16.37,40.832 16.37,40.034 16.483,40.134 16.483,39.885 17.279,40.383 17.279,40.383 17.279,40.383 	"/>
	<polygon style="fill-rule:evenodd;clip-rule:evenodd;fill:#657DB9;" points="5.457,44.67 6.366,45.469 6.366,47.064 5.457,46.266 
		5.457,44.67 5.457,44.67 5.457,44.67 	"/>
	<polygon style="fill-rule:evenodd;clip-rule:evenodd;fill:#4B68AF;" points="5.457,44.82 5.57,44.67 6.366,45.469 6.309,45.469 
		5.457,44.82 5.457,44.82 5.457,44.82 	"/>
	<polygon style="fill-rule:evenodd;clip-rule:evenodd;fill:#2F4276;" points="6.366,45.718 6.366,46.266 5.57,46.017 5.57,45.917 
		5.457,45.867 5.457,45.568 5.57,45.568 5.57,45.469 6.366,45.718 6.366,45.718 6.366,45.718 	"/>
	<polygon style="fill-rule:evenodd;clip-rule:evenodd;fill:#657DB9;" points="9.094,47.064 10.003,47.662 10.003,48.66 
		9.094,48.111 9.094,47.064 9.094,47.064 9.094,47.064 	"/>
	<polygon style="fill-rule:evenodd;clip-rule:evenodd;fill:#2F4276;" points="10.003,47.612 10.003,48.66 9.208,48.161 
		9.208,47.961 9.094,47.961 9.094,47.214 9.208,47.313 9.208,47.064 10.003,47.612 10.003,47.612 10.003,47.612 	"/>
	<polygon style="fill-rule:evenodd;clip-rule:evenodd;fill:#657DB9;" points="22.735,54.244 24.554,54.691 24.554,55.839 
		22.735,55.34 22.735,54.244 22.735,54.244 22.735,54.244 	"/>
	<polygon style="fill-rule:evenodd;clip-rule:evenodd;fill:#2F4276;" points="24.554,54.743 24.554,55.839 23.758,55.39 
		23.758,55.19 23.645,55.19 23.645,54.394 23.758,54.492 23.758,54.244 24.554,54.743 24.554,54.743 24.554,54.743 	"/>
	<polygon style="fill-rule:evenodd;clip-rule:evenodd;fill:#657DB9;" points="26.373,55.839 28.192,56.387 28.192,57.435 
		26.373,56.886 26.373,55.839 26.373,55.839 26.373,55.839 	"/>
	<polygon style="fill-rule:evenodd;clip-rule:evenodd;fill:#4B68AF;" points="26.373,55.839 26.543,55.839 28.192,56.537 
		28.078,56.636 26.373,55.839 26.373,55.839 26.373,55.839 	"/>
	<polygon style="fill-rule:evenodd;clip-rule:evenodd;fill:#2F4276;" points="27.283,56.338 27.283,57.435 26.601,56.985 
		26.601,56.886 26.373,56.786 26.373,55.989 26.601,56.088 26.601,55.839 27.283,56.338 27.283,56.338 27.283,56.338 	"/>
	<polygon style="fill-rule:evenodd;clip-rule:evenodd;fill:#273472;" points="23.645,53.445 24.554,53.445 24.554,54.244 
		23.645,54.244 23.645,53.445 23.645,53.445 23.645,53.445 	"/>
	<polygon style="fill-rule:evenodd;clip-rule:evenodd;fill:#273472;" points="27.283,57.435 28.192,57.435 28.192,58.231 
		27.283,58.231 27.283,57.435 27.283,57.435 27.283,57.435 	"/>
	<polygon style="fill-rule:evenodd;clip-rule:evenodd;fill:#7E8AC1;" points="27.283,55.24 27.283,55.839 26.373,55.54 
		26.373,55.041 27.283,55.24 27.283,55.24 27.283,55.24 	"/>
	<polygon style="fill-rule:evenodd;clip-rule:evenodd;fill:#445D9C;" points="27.283,55.041 27.623,55.041 28.192,55.34 
		27.908,55.839 27.283,55.041 27.283,55.041 27.283,55.041 	"/>
	<polygon style="fill-rule:evenodd;clip-rule:evenodd;fill:#7E8AC1;" points="13.641,46.465 13.641,47.064 12.731,46.666 
		12.731,46.266 13.641,46.465 13.641,46.465 13.641,46.465 	"/>
	<polygon style="fill-rule:evenodd;clip-rule:evenodd;fill:#445D9C;" points="12.731,46.666 12.731,46.266 13.641,47.064 
		13.414,47.064 12.731,46.666 12.731,46.666 12.731,46.666 	"/>
	<polygon style="fill-rule:evenodd;clip-rule:evenodd;fill:#7E8AC1;" points="13.641,47.364 13.641,47.861 12.731,47.463 
		12.731,47.064 13.641,47.364 13.641,47.364 13.641,47.364 	"/>
	<polygon style="fill-rule:evenodd;clip-rule:evenodd;fill:#7E8AC1;" points="17.279,48.161 17.279,48.66 16.37,48.261 
		16.37,47.861 17.279,48.161 17.279,48.161 17.279,48.161 	"/>
	<polygon style="fill-rule:evenodd;clip-rule:evenodd;fill:#7E8AC1;" points="13.641,48.161 13.641,49.457 12.731,49.058 
		12.731,47.861 13.641,48.161 13.641,48.161 13.641,48.161 	"/>
	<polygon style="fill-rule:evenodd;clip-rule:evenodd;fill:#7E8AC1;" points="13.641,49.806 13.641,51.053 12.731,50.753 
		12.731,49.457 13.641,49.806 13.641,49.806 13.641,49.806 	"/>
	<polygon style="fill-rule:evenodd;clip-rule:evenodd;fill:#7E8AC1;" points="17.279,49.657 17.279,50.255 16.37,50.105 
		16.37,49.457 17.279,49.657 17.279,49.657 17.279,49.657 	"/>
	<polygon style="fill-rule:evenodd;clip-rule:evenodd;fill:#7E8AC1;" points="17.279,51.402 17.279,52.648 16.37,52.448 
		16.37,51.053 17.279,51.402 17.279,51.402 17.279,51.402 	"/>
	<path style="fill-rule:evenodd;clip-rule:evenodd;fill:#4B68AF;" d="M12.731,40.084c0,0,0.228,0,0.398,0.2
		c0.171,0.398,0,0.398,0,0.398c0.341-0.199,0.341-0.199,0.341-0.199s0.17-0.199,0-0.399c0-0.199-0.17-0.199-0.17-0.199
		C12.731,40.084,12.731,40.084,12.731,40.084"/>
	<path style="fill-rule:evenodd;clip-rule:evenodd;fill:#273472;" d="M13.414,40.932c0.114,0,0.228,0.15,0.228,0.349
		c0,0.848,0,0.848,0,0.848c0,0.149-0.114,0.149-0.228,0.1c-0.454-0.15-0.454-0.15-0.454-0.15c-0.114,0-0.228-0.199-0.228-0.349
		c0-0.848,0-0.848,0-0.848c0-0.199,0.114-0.199,0.228-0.1C13.414,40.932,13.414,40.932,13.414,40.932L13.414,40.932"/>
	<path style="fill-rule:evenodd;clip-rule:evenodd;fill:#354990;" d="M13.414,40.881c0.114,0.05,0.228,0.2,0.228,0.3
		c0,0.947,0,0.947,0,0.947c0,0.1-0.114,0.149-0.228,0.1c-0.454-0.15-0.454-0.15-0.454-0.15c-0.114-0.1-0.228-0.199-0.228-0.349
		c0-0.848,0-0.848,0-0.848c0-0.199,0.114-0.199,0.228-0.199C13.414,40.881,13.414,40.881,13.414,40.881L13.414,40.881"/>
	<path style="fill-rule:evenodd;clip-rule:evenodd;fill:#4B68AF;" d="M16.37,44.221c0,0,0-0.148,0.227,0.151
		c0.227,0.148,0,0.298,0,0.298c0.682-0.298,0.682-0.298,0.682-0.298s0-0.151,0-0.3c-0.228-0.201-0.455-0.201-0.455-0.201
		C16.37,44.221,16.37,44.221,16.37,44.221"/>
	<path style="fill-rule:evenodd;clip-rule:evenodd;fill:#273472;" d="M16.995,42.527c0.227,0,0.284,0.15,0.284,0.349
		c0,0.848,0,0.848,0,0.848c0,0.148-0.057,0.148-0.284,0.148c-0.284-0.198-0.284-0.198-0.284-0.198c-0.227,0-0.341-0.201-0.341-0.35
		c0-0.847,0-0.847,0-0.847c0-0.2,0.114-0.2,0.341-0.101C16.995,42.527,16.995,42.527,16.995,42.527L16.995,42.527"/>
	<path style="fill-rule:evenodd;clip-rule:evenodd;fill:#354990;" d="M16.995,42.677c0.227,0,0.284,0.199,0.284,0.349
		c0,1.445,0,1.445,0,1.445c0,0.099-0.057,0.199-0.284,0.099c-0.284-0.248-0.284-0.248-0.284-0.248
		c-0.227-0.102-0.341-0.25-0.341-0.451c0-1.345,0-1.345,0-1.345c0-0.25,0.114-0.25,0.341-0.25
		C16.995,42.677,16.995,42.677,16.995,42.677L16.995,42.677"/>
	<polygon style="fill-rule:evenodd;clip-rule:evenodd;fill:#273472;" points="0.91,62.22 11.822,68.004 11.822,70.197 0.91,64.364 
		0.91,62.22 0.91,62.22 0.91,62.22 	"/>
	<polygon style="fill-rule:evenodd;clip-rule:evenodd;fill:#4B68AF;" points="0.91,62.22 11.822,67.406 11.822,69.4 0.91,64.265 
		0.91,62.22 0.91,62.22 0.91,62.22 	"/>
	<path style="fill-rule:evenodd;clip-rule:evenodd;fill:#273472;" d="M5.343,64.862c0,0,0.114,0.101,0.114,0.249
		c0,0.15,0,0.15,0,0.15c0,0.1-0.114,0.149-0.114,0.1c-2.387-0.948-2.387-0.948-2.387-0.948c-0.114,0-0.227-0.099-0.227-0.249
		s0-0.15,0-0.15c0-0.099,0.113-0.199,0.227-0.099C5.343,64.862,5.343,64.862,5.343,64.862L5.343,64.862"/>
	<path style="fill-rule:evenodd;clip-rule:evenodd;fill:#273472;" d="M8.98,67.006c0,0,0.114,0.2,0.114,0.349c0,0.25,0,0.25,0,0.25
		c0,0.199-0.114,0.199-0.114,0.199c-2.387-1.396-2.387-1.396-2.387-1.396c-0.114-0.149-0.227-0.25-0.227-0.398
		c0-0.349,0-0.349,0-0.349c0-0.101,0.113-0.25,0.227-0.101C8.98,67.006,8.98,67.006,8.98,67.006L8.98,67.006"/>
	<polygon style="fill-rule:evenodd;clip-rule:evenodd;fill:#273472;" points="12.731,67.805 23.645,73.588 23.645,75.781 
		12.731,70.147 12.731,67.805 12.731,67.805 12.731,67.805 	"/>
	<polygon style="fill-rule:evenodd;clip-rule:evenodd;fill:#4B68AF;" points="11.822,67.805 22.735,73.588 22.735,75.781 
		11.822,70.048 11.822,67.805 11.822,67.805 11.822,67.805 	"/>
	<path style="fill-rule:evenodd;clip-rule:evenodd;fill:#273472;" d="M17.166,70.946c0,0,0.113,0.249,0.113,0.349
		c0,0.399,0,0.399,0,0.399c0,0.099-0.113,0.099-0.113,0.099c-2.387-1.495-2.387-1.495-2.387-1.495
		c-0.114-0.1-0.228-0.249-0.228-0.349c0-0.398,0-0.398,0-0.398c0-0.15,0.114-0.15,0.228-0.15
		C17.166,70.946,17.166,70.946,17.166,70.946L17.166,70.946"/>
	<path style="fill-rule:evenodd;clip-rule:evenodd;fill:#273472;" d="M20.803,72.44c0,0.15,0.114,0.25,0.114,0.349
		c0,0.398,0,0.398,0,0.398c0,0.101-0.114,0.201-0.114,0.101c-2.387-1.446-2.387-1.446-2.387-1.446c-0.114,0-0.227-0.25-0.227-0.349
		c0-0.25,0-0.25,0-0.25c0-0.249,0.113-0.249,0.227-0.249C20.803,72.44,20.803,72.44,20.803,72.44L20.803,72.44"/>
	<polygon style="fill-rule:evenodd;clip-rule:evenodd;fill:#273472;" points="23.872,74.186 34.558,79.421 34.558,81.365 
		23.645,76.18 23.872,74.186 23.872,74.186 23.872,74.186 	"/>
	<polygon style="fill-rule:evenodd;clip-rule:evenodd;fill:#4B68AF;" points="23.758,74.186 34.558,79.32 34.558,81.365 
		23.645,76.28 23.758,74.186 23.758,74.186 23.758,74.186 	"/>
	<path style="fill-rule:evenodd;clip-rule:evenodd;fill:#273472;" d="M28.078,76.778c0.114,0.05,0.114,0.15,0.114,0.199
		c0,0.249,0,0.249,0,0.249c0,0.1-0.114,0.15-0.114,0.1c-2.387-0.947-2.387-0.947-2.387-0.947c-0.113,0-0.228-0.2-0.228-0.25
		c0-0.149,0-0.149,0-0.149c0-0.099,0.115-0.2,0.228-0.2C28.078,76.778,28.078,76.778,28.078,76.778L28.078,76.778"/>
	<path style="fill-rule:evenodd;clip-rule:evenodd;fill:#273472;" d="M31.716,78.423c0.113,0,0.113,0.15,0.113,0.25
		c0,0.148,0,0.148,0,0.148c0,0.1,0,0.15-0.113,0.15c-2.387-0.947-2.387-0.947-2.387-0.947c-0.114-0.049-0.228-0.15-0.228-0.25
		c0-0.199,0-0.199,0-0.199c0-0.099,0.114-0.199,0.228-0.099C31.716,78.423,31.716,78.423,31.716,78.423L31.716,78.423"/>
	<polygon style="fill-rule:evenodd;clip-rule:evenodd;fill:#273472;" points="11.822,57.385 11.822,66.209 0.91,60.824 1.024,51.85 
		11.822,57.385 11.822,57.385 11.822,57.385 	"/>
	<polygon style="fill-rule:evenodd;clip-rule:evenodd;fill:#4B68AF;" points="11.822,57.385 11.822,66.209 0.91,60.824 1.024,51.85 
		11.822,57.385 11.822,57.385 11.822,57.385 	"/>
	<polygon style="fill-rule:evenodd;clip-rule:evenodd;fill:#FFFFFF;" points="4.547,53.445 4.547,54.244 0.91,52.698 0.91,51.85 
		4.547,53.445 4.547,53.445 4.547,53.445 	"/>
	<polygon style="fill-rule:evenodd;clip-rule:evenodd;fill:#273472;" points="23.645,63.766 23.645,72.59 12.731,67.206 
		12.846,58.231 23.645,63.766 23.645,63.766 23.645,63.766 	"/>
	<polygon style="fill-rule:evenodd;clip-rule:evenodd;fill:#4B68AF;" points="22.735,63.267 22.735,72.59 11.822,66.907 
		12.05,57.435 22.735,63.267 22.735,63.267 22.735,63.267 	"/>
	<polygon style="fill-rule:evenodd;clip-rule:evenodd;fill:#FFFFFF;" points="15.46,59.627 15.46,60.625 11.822,58.58 
		11.822,57.435 15.46,59.627 15.46,59.627 15.46,59.627 	"/>
	<polygon style="fill-rule:evenodd;clip-rule:evenodd;fill:#273472;" points="34.558,69.35 34.558,78.175 23.645,72.79 
		23.872,63.815 34.558,69.35 34.558,69.35 34.558,69.35 	"/>
	<polygon style="fill-rule:evenodd;clip-rule:evenodd;fill:#4B68AF;" points="34.558,69.35 34.558,78.175 23.645,72.79 
		23.758,63.815 34.558,69.35 34.558,69.35 34.558,69.35 	"/>
	<polygon style="fill-rule:evenodd;clip-rule:evenodd;fill:#FFFFFF;" points="27.283,65.411 27.283,66.209 23.645,64.663 
		23.645,63.815 27.283,65.411 27.283,65.411 27.283,65.411 	"/>
	<polygon style="fill-rule:evenodd;clip-rule:evenodd;fill:#273472;" points="27.283,29.066 29.101,27.919 29.101,33.902 
		27.283,35.099 27.283,29.066 27.283,29.066 27.283,29.066 	"/>
	<polygon style="fill-rule:evenodd;clip-rule:evenodd;fill:#4B68AF;" points="0.91,15.604 3.183,14.358 29.101,28.418 
		26.885,29.515 0.91,15.604 0.91,15.604 0.91,15.604 	"/>
	<polygon style="fill-rule:evenodd;clip-rule:evenodd;fill:#354990;" points="27.283,29.265 27.283,35.099 0.91,21.787 0.91,15.954 
		27.283,29.265 27.283,29.265 27.283,29.265 	"/>
	<polygon style="fill-rule:evenodd;clip-rule:evenodd;fill:#273472;" points="35.694,34.001 38.195,32.705 38.082,66.757 
		35.466,67.805 35.694,34.001 35.694,34.001 35.694,34.001 	"/>
	<polygon style="fill-rule:evenodd;clip-rule:evenodd;fill:#4B68AF;" points="27.283,29.116 29.726,27.919 38.195,32.157 
		35.807,33.503 27.283,29.116 27.283,29.116 27.283,29.116 	"/>
	<polygon style="fill-rule:evenodd;clip-rule:evenodd;fill:#354990;" points="35.466,33.752 35.296,67.805 27.283,63.717 
		27.396,29.515 35.466,33.752 35.466,33.752 35.466,33.752 	"/>
	<path style="fill-rule:evenodd;clip-rule:evenodd;fill:#FFFFFF;" d="M29.044,62.968l0.057-26.124l-1.591-0.848L27.396,62.12
		L29.044,62.968L29.044,62.968z M29.101,36.744v26.275l-1.818-0.798l0.113-26.324L29.101,36.744L29.101,36.744L29.101,36.744
		L29.101,36.744z"/>
	<path style="fill-rule:evenodd;clip-rule:evenodd;fill:#FFFFFF;" d="M30.806,63.766l0.114-26.225l-1.649-0.748l-0.17,26.225
		L30.806,63.766L30.806,63.766z M30.92,37.441v26.374l-1.819-0.797V36.694L30.92,37.441L30.92,37.441L30.92,37.441L30.92,37.441z"/>
	<path style="fill-rule:evenodd;clip-rule:evenodd;fill:#FFFFFF;" d="M32.682,64.614l0.057-26.275l-0.796-0.748l-0.114,26.224
		L32.682,64.614L32.682,64.614z M32.739,38.339v26.275l-0.91-0.599V37.492L32.739,38.339L32.739,38.339L32.739,38.339L32.739,38.339
		z"/>
	<path style="fill-rule:evenodd;clip-rule:evenodd;fill:#FFFFFF;" d="M34.444,65.361l0.114-26.125l-1.592-0.848l-0.227,26.125
		L34.444,65.361L34.444,65.361z M34.558,39.137v26.273l-1.819-0.698V38.29L34.558,39.137L34.558,39.137L34.558,39.137L34.558,39.137
		z"/>
</g>
</svg>