<?xml version="1.0" encoding="iso-8859-1"?>
<!DOCTYPE svg PUBLIC "-//W3C//DTD SVG 1.1//EN" "http://www.w3.org/Graphics/SVG/1.1/DTD/svg11.dtd">
<svg version="1.1" xmlns="http://www.w3.org/2000/svg" xmlns:xlink="http://www.w3.org/1999/xlink" width="96" height="52" viewBox="0 0 96 52">
<g>
	<polygon style="fill-rule:evenodd;clip-rule:evenodd;fill:#273670;" points="96.095,26.552 96.039,34.983 59.832,51.668 
		59.944,43.371 96.095,26.552 	"/>
	<polygon style="fill-rule:evenodd;clip-rule:evenodd;fill:#3A518C;" points="59.832,43.55 59.775,51.668 0.906,25.476 
		0.906,17.222 59.832,43.55 	"/>
	<polygon style="fill-rule:evenodd;clip-rule:evenodd;fill:#4C6AA6;" points="96.095,26.91 59.663,43.775 0.906,16.819 37.338,0 
		96.095,26.91 	"/>
	<polygon style="fill-rule:evenodd;clip-rule:evenodd;fill:#212859;" points="1.02,19.062 1.813,18.658 1.756,25.476 0.906,25.834 
		1.02,19.062 	"/>
	<polygon style="fill-rule:evenodd;clip-rule:evenodd;fill:#2D3D7C;" points="0.906,25.52 1.813,25.116 45.327,45.568 
		44.478,45.927 0.906,25.52 	"/>
	<polygon style="fill-rule:evenodd;clip-rule:evenodd;fill:#212859;" points="58.927,44.178 59.832,43.775 59.832,52.027 
		58.927,52.386 58.927,44.178 	"/>
	<polygon style="fill-rule:evenodd;clip-rule:evenodd;fill:#2D3D7C;" points="0,17.626 0.906,17.222 59.832,43.415 58.927,43.775 
		0,17.626 	"/>
	<path style="fill-rule:evenodd;clip-rule:evenodd;fill:#314386;" d="M0.056,17.222c58.871,26.866,58.871,26.866,58.871,26.866
		c0,8.298,0,8.298,0,8.298C0,25.564,0,25.564,0,25.564L0.056,17.222L0.056,17.222z M0.453,25.564
		c44.535,20.228,44.535,20.228,44.535,20.228c-0.113-0.179-1.473-3.542-5.383-6.952c-4.022-3.407-11.275-7.489-17.734-10.763
		c-2.324-1.122-4.646-2.198-6.856-3.229c-7.763-3.543-14.108-6.01-14.449-6.145C0.453,25.564,0.453,25.564,0.453,25.564"/>
	<path style="fill-rule:evenodd;clip-rule:evenodd;fill:#D2CADF;" d="M49.86,44.088c0.112-1.749,0.112-1.749,0.112-1.749
		c0.455,0.27,0.455,0.27,0.455,0.27c-0.059,0.672-0.059,0.672-0.059,0.672c0.793,0.404,0.793,0.404,0.793,0.404
		c0.06-0.718,0.06-0.718,0.06-0.718c0.452,0.27,0.452,0.27,0.452,0.27c-0.115,1.66-0.115,1.66-0.115,1.66
		c-0.396-0.226-0.396-0.226-0.396-0.226c0-0.763,0-0.763,0-0.763c-0.793-0.402-0.793-0.402-0.793-0.402
		c-0.057,0.763-0.057,0.763-0.057,0.763C49.86,44.088,49.86,44.088,49.86,44.088L49.86,44.088z M51.787,44.716
		c0.168,0.135,0.396,0.225,0.624,0.359c0.112,0.045,0.281,0.135,0.338,0.135c0.115,0,0.172-0.09,0.172-0.135
		c0-0.09,0-0.135-0.057-0.225c-0.057-0.089-0.115-0.135-0.172-0.224c-0.112-0.045-0.281-0.135-0.396-0.226
		c-0.341-0.133-0.341-0.133-0.341-0.133c0-0.181,0-0.181,0-0.181c0.341,0.135,0.341,0.135,0.341,0.135
		c0.115,0.046,0.228,0.135,0.34,0.135c0.057,0.044,0.172,0.044,0.172,0c0.057,0,0.057-0.089,0.057-0.135
		c0.057-0.045,0-0.135-0.057-0.18c-0.059-0.089-0.228-0.179-0.396-0.268c-0.115-0.046-0.396-0.181-0.568-0.226
		c0-0.224,0-0.224,0-0.224c0.229,0.089,0.568,0.224,0.681,0.269c0.226,0.135,0.565,0.313,0.682,0.493
		c0.168,0.135,0.225,0.225,0.168,0.313c0,0.135-0.056,0.181-0.112,0.226c-0.115,0.044-0.172,0.044-0.34,0
		c0.168,0.135,0.225,0.135,0.284,0.224c0.112,0.09,0.112,0.135,0.168,0.225c0.057,0.045,0.057,0.18,0.057,0.224
		c-0.057,0.045-0.112,0.226-0.284,0.27c-0.112,0-0.453-0.135-0.734-0.27c-0.115-0.044-0.456-0.224-0.681-0.358
		C51.787,44.716,51.787,44.716,51.787,44.716L51.787,44.716z M55.185,46.646c-0.112-0.046-0.337-0.135-0.509-0.226
		c-0.341-0.179-0.737-0.448-0.962-0.672c-0.172-0.27-0.172-0.493-0.172-0.763c0-0.224,0.06-0.449,0.284-0.538
		c0.172-0.046,0.568,0.089,0.905,0.269c0.284,0.135,0.397,0.225,0.568,0.313c0,0.27,0,0.27,0,0.27
		c-0.228-0.179-0.34-0.224-0.512-0.313c-0.225-0.135-0.394-0.18-0.565-0.135c-0.112,0.09-0.169,0.225-0.169,0.404
		c0,0.224,0.057,0.358,0.169,0.537c0.112,0.18,0.341,0.36,0.565,0.449c0.172,0.09,0.284,0.09,0.456,0.135
		C55.185,46.646,55.185,46.646,55.185,46.646L55.185,46.646z"/>
	<path style="fill-rule:evenodd;clip-rule:evenodd;fill:#D2CADF;" d="M15.864,28.884c0.283,0.134,0.454,0.538,0.454,0.853
		c0,0.313-0.17,0.403-0.454,0.269c-0.227-0.134-0.453-0.493-0.453-0.808C15.411,28.884,15.638,28.704,15.864,28.884"/>
	<path style="fill-rule:evenodd;clip-rule:evenodd;fill:#D2CADF;" d="M17.734,29.602c0.227,0.135,0.397,0.538,0.397,0.852
		c0,0.27-0.17,0.404-0.453,0.27c-0.227-0.135-0.454-0.538-0.454-0.852C17.224,29.557,17.451,29.422,17.734,29.602"/>
	<path style="fill-rule:evenodd;clip-rule:evenodd;fill:#D2CADF;" d="M19.547,30.946c0.228,0.091,0.397,0.27,0.397,0.449
		c0,0.135-0.169,0.179-0.397,0.135c-0.282-0.09-0.51-0.27-0.51-0.449C19.037,30.946,19.265,30.857,19.547,30.946"/>
</g>
</svg>