<?xml version="1.0" encoding="iso-8859-1"?>
<!DOCTYPE svg PUBLIC "-//W3C//DTD SVG 1.1//EN" "http://www.w3.org/Graphics/SVG/1.1/DTD/svg11.dtd">
<svg version="1.1" xmlns="http://www.w3.org/2000/svg" xmlns:xlink="http://www.w3.org/1999/xlink" width="55" height="52" viewBox="0 0 55 52">
<g>
	<path style="fill-rule:evenodd;clip-rule:evenodd;fill:#243B7C;" d="M47.02,37.267c-10.771,6.307-28.099,6.307-38.871,0
		c-5.847-3.26-8.008-6.662-8.008-10.878c-0.142,0-0.142,0-0.142,0c0,10.382,0,10.382,0,10.382c0.142,0,0.142,0,0.142,0
		c0.248,3.756,2.905,7.618,8.008,10.523c10.771,6.165,28.099,6.165,38.871,0c4.961-2.905,7.617-6.768,7.865-10.523
		c0.107,0,0.107,0,0.107,0c-0.107-10.524-0.107-10.524-0.107-10.524C54.885,30.393,52.334,34.255,47.02,37.267"/>
	<path style="fill-rule:evenodd;clip-rule:evenodd;fill:#4B68AF;" d="M46.629,15.936c10.523,6.271,10.631,16.229,0.143,22.358
		c-10.666,6.095-27.745,6.095-38.375,0c-10.666-6.13-10.666-16.087-0.142-22.358C18.779,9.806,36,9.806,46.629,15.936"/>
	<path style="fill-rule:evenodd;clip-rule:evenodd;fill:#243B7C;" d="M47.02,26.388c-10.771,6.024-28.099,6.024-38.871,0
		c-5.847-3.331-8.008-6.626-8.008-10.771c-0.142,0-0.142,0-0.142,0c0,10.169,0,10.169,0,10.169c0.142,0,0.142,0,0.142,0
		c0.248,3.791,2.905,7.477,8.008,10.311c10.771,6.024,28.099,6.024,38.871,0c4.961-2.834,7.617-6.52,7.865-10.311
		c0.107,0,0.107,0,0.107,0c-0.107-10.311-0.107-10.311-0.107-10.311C54.885,19.514,52.334,23.306,47.02,26.388"/>
	<path style="fill-rule:evenodd;clip-rule:evenodd;fill:#4B68AF;" d="M46.629,4.597c10.523,6.271,10.631,16.228,0.143,22.358
		c-10.666,6.095-27.745,6.095-38.375,0C-2.268,20.825-2.268,10.869,8.256,4.597C18.779-1.533,36-1.533,46.629,4.597"/>
	<path style="fill-rule:evenodd;clip-rule:evenodd;fill:#2A3479;" d="M28.275,12.144L28.275,12.144
		c-3.897-2.232-3.897-2.232-3.897-2.232c2.941-1.666,2.941-1.666,2.941-1.666c4.004,2.268,4.004,2.268,4.004,2.268
		c0.85,0.461,1.842,0.354,2.941-0.248c4.996-2.834,4.996-2.834,4.996-2.834c-5.6,0-5.6,0-5.6,0c0-2.162,0-2.162,0-2.162
		c12.26,0,12.26,0,12.26,0c0,7.016,0,7.016,0,7.016c-3.648,0-3.648,0-3.648,0c0-3.225,0-3.225,0-3.225
		c-5.104,2.87-5.104,2.87-5.104,2.87c-1.807,1.063-3.508,1.275-4.748,1.169C30.225,13.101,28.665,12.392,28.275,12.144
		L28.275,12.144"/>
	<path style="fill-rule:evenodd;clip-rule:evenodd;fill:#2A3479;" d="M14.953,15.546c4.075-2.197,4.075-2.197,4.075-2.197
		c0.744-0.461,0.603-0.957-0.496-1.63c-5.067-2.693-5.067-2.693-5.067-2.693c0,3.047,0,3.047,0,3.047c-3.685,0-3.685,0-3.685,0
		C9.638,5.27,9.638,5.27,9.638,5.27c12.472,0,12.472,0,12.472,0c0,1.984,0,1.984,0,1.984c-5.669,0-5.669,0-5.669,0
		c5.173,2.834,5.173,2.834,5.173,2.834c1.843,1.028,2.197,1.984,2.197,2.658c0,1.311-1.453,2.126-1.842,2.338
		c-3.933,2.091-3.933,2.091-3.933,2.091C14.953,15.546,14.953,15.546,14.953,15.546L14.953,15.546"/>
	<path style="fill-rule:evenodd;clip-rule:evenodd;fill:#2A3479;" d="M26.752,18.841c3.862,2.232,3.862,2.232,3.862,2.232
		c-3.012,1.666-3.012,1.666-3.012,1.666c-3.897-2.268-3.897-2.268-3.897-2.268c-0.851-0.461-1.843-0.354-2.941,0.248
		c-4.996,2.834-4.996,2.834-4.996,2.834c5.598,0,5.598,0,5.598,0c0,2.126,0,2.126,0,2.126c-12.295,0-12.295,0-12.295,0
		c0-6.98,0-6.98,0-6.98c3.685,0,3.685,0,3.685,0c0,3.189,0,3.189,0,3.189c4.96-2.834,4.96-2.834,4.96-2.834
		c1.842-1.063,3.649-1.311,4.89-1.311C24.803,17.884,26.362,18.593,26.752,18.841L26.752,18.841"/>
	<path style="fill-rule:evenodd;clip-rule:evenodd;fill:#2A3479;" d="M45.354,19.231c0,7.016,0,7.016,0,7.016
		c-12.047,0-12.047,0-12.047,0c0-2.055,0-2.055,0-2.055c5.492,0,5.492,0,5.492,0c-4.891-2.905-4.891-2.905-4.891-2.905
		c-1.771-1.063-2.16-2.162-2.16-2.764c0-1.346,1.451-2.303,1.699-2.445c3.934-2.303,3.934-2.303,3.934-2.303
		c2.871,1.842,2.871,1.842,2.871,1.842c-3.828,2.303-3.828,2.303-3.828,2.303c-0.85,0.354-0.707,0.957,0.355,1.559
		c4.996,2.905,4.996,2.905,4.996,2.905c0-3.153,0-3.153,0-3.153C45.354,19.231,45.354,19.231,45.354,19.231L45.354,19.231"/>
	<path style="fill-rule:evenodd;clip-rule:evenodd;fill:#FFFFFF;" d="M27.708,11.577L27.708,11.577
		c-3.898-2.232-3.898-2.232-3.898-2.232c2.941-1.666,2.941-1.666,2.941-1.666c4.004,2.268,4.004,2.268,4.004,2.268
		c0.85,0.461,1.842,0.354,2.939-0.248c4.996-2.834,4.996-2.834,4.996-2.834c-5.598,0-5.598,0-5.598,0c0-2.162,0-2.162,0-2.162
		c12.26,0,12.26,0,12.26,0c0,7.016,0,7.016,0,7.016c-3.65,0-3.65,0-3.65,0c0-3.225,0-3.225,0-3.225
		c-5.102,2.87-5.102,2.87-5.102,2.87c-1.807,1.063-3.508,1.275-4.748,1.169C29.657,12.534,28.099,11.825,27.708,11.577
		L27.708,11.577"/>
	<path style="fill-rule:evenodd;clip-rule:evenodd;fill:#FFFFFF;" d="M14.386,14.979c4.075-2.197,4.075-2.197,4.075-2.197
		c0.744-0.461,0.603-0.957-0.496-1.63c-5.067-2.693-5.067-2.693-5.067-2.693c0,3.047,0,3.047,0,3.047c-3.685,0-3.685,0-3.685,0
		C9.071,4.703,9.071,4.703,9.071,4.703c12.472,0,12.472,0,12.472,0c0,1.984,0,1.984,0,1.984c-5.669,0-5.669,0-5.669,0
		c5.173,2.834,5.173,2.834,5.173,2.834c1.843,1.028,2.197,1.984,2.197,2.658c0,1.311-1.453,2.126-1.842,2.338
		c-3.933,2.091-3.933,2.091-3.933,2.091C14.386,14.979,14.386,14.979,14.386,14.979L14.386,14.979"/>
	<path style="fill-rule:evenodd;clip-rule:evenodd;fill:#FFFFFF;" d="M26.256,18.345c3.792,2.409,3.792,2.409,3.792,2.409
		c-2.941,1.772-2.941,1.772-2.941,1.772c-3.791-2.41-3.791-2.41-3.791-2.41c-0.851-0.496-1.772-0.39-2.835,0.248
		c-4.89,3.047-4.89,3.047-4.89,3.047c5.457,0,5.457,0,5.457,0c0,2.268,0,2.268,0,2.268c-11.976,0-11.976,0-11.976,0
		c0-7.477,0-7.477,0-7.477c3.579,0,3.579,0,3.579,0c0,3.437,0,3.437,0,3.437c4.854-3.047,4.854-3.047,4.854-3.047
		c1.771-1.134,3.543-1.417,4.748-1.417C24.378,17.317,25.901,18.097,26.256,18.345L26.256,18.345"/>
	<path style="fill-rule:evenodd;clip-rule:evenodd;fill:#FFFFFF;" d="M44.788,18.664c0,7.016,0,7.016,0,7.016
		c-12.047,0-12.047,0-12.047,0c0-2.055,0-2.055,0-2.055c5.492,0,5.492,0,5.492,0c-4.891-2.905-4.891-2.905-4.891-2.905
		c-1.771-1.063-2.162-2.162-2.162-2.764c0-1.346,1.453-2.303,1.701-2.445c3.934-2.303,3.934-2.303,3.934-2.303
		c2.869,1.843,2.869,1.843,2.869,1.843c-3.826,2.303-3.826,2.303-3.826,2.303c-0.85,0.354-0.709,0.957,0.354,1.559
		c4.996,2.905,4.996,2.905,4.996,2.905c0-3.153,0-3.153,0-3.153C44.788,18.664,44.788,18.664,44.788,18.664L44.788,18.664"/>
</g>
</svg>