<?xml version="1.0" encoding="iso-8859-1"?>
<!DOCTYPE svg PUBLIC "-//W3C//DTD SVG 1.1//EN" "http://www.w3.org/Graphics/SVG/1.1/DTD/svg11.dtd">
<svg version="1.1" xmlns="http://www.w3.org/2000/svg" xmlns:xlink="http://www.w3.org/1999/xlink" width="64" height="122" viewBox="0 0 64 122">
<g>
	<polygon style="fill-rule:evenodd;clip-rule:evenodd;fill:#354990;" points="36.605,28.68 36.331,121.071 0,105.143 0.347,12.7 
		36.605,28.68 36.605,28.68 36.605,28.68 	"/>
	<polygon style="fill-rule:evenodd;clip-rule:evenodd;fill:#2A3479;" points="36.953,28.257 65.448,15.239 65.173,108.106 
		36.605,121.071 36.953,28.257 36.953,28.257 36.953,28.257 	"/>
	<polygon style="fill-rule:evenodd;clip-rule:evenodd;fill:#4F65AC;" points="1.109,12.911 29.744,0 65.448,15.928 36.885,28.786 
		1.109,12.911 1.109,12.911 1.109,12.911 	"/>
	<polygon style="fill-rule:evenodd;clip-rule:evenodd;fill:#FFFFFF;" points="27.732,90.115 27.732,99.904 23.296,98 23.435,88.052 
		27.732,90.115 27.732,90.115 27.732,90.115 	"/>
	<polygon style="fill-rule:evenodd;clip-rule:evenodd;fill:#FFFFFF;" points="14.421,84.136 14.421,93.978 9.984,92.021 
		9.984,82.125 14.421,84.136 14.421,84.136 14.421,84.136 	"/>
	<polygon style="fill-rule:evenodd;clip-rule:evenodd;fill:#FFFFFF;" points="9.984,82.389 9.915,91.438 3.329,88.687 3.329,79.584 
		9.984,82.389 9.984,82.389 9.984,82.389 	"/>
	<polygon style="fill-rule:evenodd;clip-rule:evenodd;fill:#FFFFFF;" points="23.296,88.157 23.296,97.365 18.859,95.513 
		18.859,86.358 23.296,88.157 23.296,88.157 23.296,88.157 	"/>
	<polygon style="fill-rule:evenodd;clip-rule:evenodd;fill:#FFFFFF;" points="18.859,86.464 18.859,95.671 14.421,93.925 
		14.421,84.665 18.859,86.464 18.859,86.464 18.859,86.464 	"/>
	<polygon style="fill-rule:evenodd;clip-rule:evenodd;fill:#FFFFFF;" points="32.17,92.391 32.17,101.598 27.732,99.852 
		27.871,90.591 32.17,92.391 32.17,92.391 32.17,92.391 	"/>
	<polygon style="fill-rule:evenodd;clip-rule:evenodd;fill:#FFFFFF;" points="34.389,93.184 34.389,102.444 32.17,101.598 
		32.17,92.284 34.389,93.184 34.389,93.184 34.389,93.184 	"/>
	<polygon style="fill-rule:evenodd;clip-rule:evenodd;fill:#FFFFFF;" points="34.389,37.517 34.389,42.332 3.329,28.627 
		3.329,23.706 34.389,37.517 34.389,37.517 34.389,37.517 	"/>
	<polygon style="fill-rule:evenodd;clip-rule:evenodd;fill:#FFFFFF;" points="34.389,111.44 34.389,113.451 3.329,99.322 
		3.467,97.365 34.389,111.44 34.389,111.44 34.389,111.44 	"/>
	<polygon style="fill-rule:evenodd;clip-rule:evenodd;fill:#FFFFFF;" points="34.389,109.006 34.389,110.911 3.329,97.522 
		3.329,95.671 34.389,109.006 34.389,109.006 34.389,109.006 	"/>
	<polygon style="fill-rule:evenodd;clip-rule:evenodd;fill:#FFFFFF;" points="34.389,107.313 34.389,109.218 3.329,95.089 
		3.329,93.132 34.389,107.313 34.389,107.313 34.389,107.313 	"/>
	<polygon style="fill-rule:evenodd;clip-rule:evenodd;fill:#4C68AC;" points="31.061,110.699 31.061,110.911 5.547,100.17 
		5.547,99.904 31.061,110.699 31.061,110.699 31.061,110.699 	"/>
	<polygon style="fill-rule:evenodd;clip-rule:evenodd;fill:#4C68AC;" points="31.061,110.593 31.061,110.911 5.547,99.322 
		5.547,99.059 31.061,110.593 31.061,110.593 31.061,110.593 	"/>
	<polygon style="fill-rule:evenodd;clip-rule:evenodd;fill:#4C68AC;" points="31.061,109.852 31.061,110.064 5.547,99.375 
		5.547,99.059 31.061,109.852 31.061,109.852 31.061,109.852 	"/>
	<polygon style="fill-rule:evenodd;clip-rule:evenodd;fill:#4C68AC;" points="31.061,109.059 31.061,109.218 5.547,97.629 
		5.547,97.365 31.061,109.059 31.061,109.059 31.061,109.059 	"/>
	<polygon style="fill-rule:evenodd;clip-rule:evenodd;fill:#4C68AC;" points="31.061,108.159 31.061,108.37 5.547,97.682 
		5.547,97.365 31.061,108.159 31.061,108.159 31.061,108.159 	"/>
	<polygon style="fill-rule:evenodd;clip-rule:evenodd;fill:#4C68AC;" points="31.061,108.159 31.061,108.37 5.547,96.782 
		5.547,96.518 31.061,108.159 31.061,108.159 31.061,108.159 	"/>
	<polygon style="fill-rule:evenodd;clip-rule:evenodd;fill:#4C68AC;" points="31.061,106.413 31.061,106.677 5.547,95.936 
		5.547,95.671 31.061,106.413 31.061,106.413 31.061,106.413 	"/>
	<polygon style="fill-rule:evenodd;clip-rule:evenodd;fill:#4C68AC;" points="31.061,106.52 31.061,106.677 5.547,95.195 
		5.547,94.824 31.061,106.52 31.061,106.52 31.061,106.52 	"/>
	<polygon style="fill-rule:evenodd;clip-rule:evenodd;fill:#4C68AC;" points="31.061,105.513 31.061,105.831 5.547,94.243 
		5.547,93.978 31.061,105.513 31.061,105.513 31.061,105.513 	"/>
	<polygon style="fill-rule:evenodd;clip-rule:evenodd;fill:#FFFFFF;" points="34.389,91.12 34.389,93.132 3.329,79.003 
		3.467,77.045 34.389,91.12 34.389,91.12 34.389,91.12 	"/>
	<polygon style="fill-rule:evenodd;clip-rule:evenodd;fill:#FFFFFF;" points="34.389,88.687 34.389,90.591 3.329,76.409 
		3.329,74.505 34.389,88.687 34.389,88.687 34.389,88.687 	"/>
	<polygon style="fill-rule:evenodd;clip-rule:evenodd;fill:#FFFFFF;" points="34.389,86.252 34.389,88.052 3.329,74.769 
		3.329,72.812 34.389,86.252 34.389,86.252 34.389,86.252 	"/>
	<polygon style="fill-rule:evenodd;clip-rule:evenodd;fill:#4C68AC;" points="31.061,90.486 31.061,90.591 5.547,79.85 
		5.547,79.584 31.061,90.486 31.061,90.486 31.061,90.486 	"/>
	<polygon style="fill-rule:evenodd;clip-rule:evenodd;fill:#4C68AC;" points="31.061,90.274 31.061,90.591 5.547,79.003 
		5.547,78.738 31.061,90.274 31.061,90.274 31.061,90.274 	"/>
	<polygon style="fill-rule:evenodd;clip-rule:evenodd;fill:#4C68AC;" points="31.061,89.533 31.061,89.745 5.547,79.055 
		5.547,78.738 31.061,89.533 31.061,89.533 31.061,89.533 	"/>
	<polygon style="fill-rule:evenodd;clip-rule:evenodd;fill:#4C68AC;" points="31.061,88.58 31.061,88.897 5.547,77.31 5.547,77.045 
		31.061,88.58 31.061,88.58 31.061,88.58 	"/>
	<polygon style="fill-rule:evenodd;clip-rule:evenodd;fill:#4C68AC;" points="31.061,87.945 31.061,88.052 5.547,77.362 
		5.547,77.045 31.061,87.945 31.061,87.945 31.061,87.945 	"/>
	<polygon style="fill-rule:evenodd;clip-rule:evenodd;fill:#4C68AC;" points="31.061,87.839 31.061,88.052 5.547,76.464 
		5.547,76.198 31.061,87.839 31.061,87.839 31.061,87.839 	"/>
	<polygon style="fill-rule:evenodd;clip-rule:evenodd;fill:#4C68AC;" points="31.061,86.252 31.061,86.358 5.547,75.616 
		5.547,75.353 31.061,86.252 31.061,86.252 31.061,86.252 	"/>
	<polygon style="fill-rule:evenodd;clip-rule:evenodd;fill:#4C68AC;" points="31.061,86.146 31.061,86.358 5.547,74.875 
		5.547,74.505 31.061,86.146 31.061,86.146 31.061,86.146 	"/>
	<polygon style="fill-rule:evenodd;clip-rule:evenodd;fill:#4C68AC;" points="31.061,85.3 31.061,85.512 5.547,73.923 5.547,73.659 
		31.061,85.3 31.061,85.3 31.061,85.3 	"/>
	<polygon style="fill-rule:evenodd;clip-rule:evenodd;fill:#FFFFFF;" points="34.389,102.868 34.389,106.677 3.329,92.866 
		3.329,88.897 34.389,102.868 34.389,102.868 34.389,102.868 	"/>
	<path style="fill-rule:evenodd;clip-rule:evenodd;fill:#4B68AF;" d="M8.875,93.449c0,0,0.554-0.159,1.179,0.423
		c0.554,0.688,0,0.952,0,0.952c0.624-0.211,0.624-0.211,0.624-0.211s0.416-0.37-0.07-0.952c-0.416-0.529-1.04-0.529-1.04-0.529
		C8.875,93.449,8.875,93.449,8.875,93.449"/>
	<path style="fill-rule:evenodd;clip-rule:evenodd;fill:#3F5792;" d="M8.875,93.343c0.554,0.212,1.109,0.635,1.109,1.005
		s-0.555,0.477-1.109,0.37c-0.694-0.211-1.109-0.634-1.109-1.005C7.766,93.29,8.181,93.132,8.875,93.343L8.875,93.343"/>
	<path style="fill-rule:evenodd;clip-rule:evenodd;fill:#4B68AF;" d="M27.732,101.863c0,0,0.694-0.159,1.18,0.475
		c0.624,0.688,0.139,0.953,0.139,0.953c0.485-0.212,0.485-0.212,0.485-0.212s0.415-0.37,0-0.952
		c-0.417-0.529-1.041-0.529-1.041-0.529C27.732,101.863,27.732,101.863,27.732,101.863"/>
	<path style="fill-rule:evenodd;clip-rule:evenodd;fill:#3F5792;" d="M28.842,101.809c0.624,0.159,1.109,0.636,1.109,1.007
		c0,0.37-0.485,0.476-1.109,0.264c-0.554-0.105-1.109-0.529-1.109-0.952C27.732,101.757,28.288,101.598,28.842,101.809
		L28.842,101.809"/>
	<path style="fill-rule:evenodd;clip-rule:evenodd;fill:#4B68AF;" d="M8.875,28.257c0,0,0.554-0.159,1.179,0.423
		c0.554,0.688,0,0.952,0,0.952c0.624-0.211,0.624-0.211,0.624-0.211s0.416-0.265-0.07-0.847c-0.416-0.635-1.04-0.529-1.04-0.529
		C8.875,28.257,8.875,28.257,8.875,28.257"/>
	<path style="fill-rule:evenodd;clip-rule:evenodd;fill:#3F5792;" d="M8.875,28.098c0.554,0.211,1.109,0.635,1.109,1.005
		c0,0.317-0.555,0.529-1.109,0.317c-0.694-0.211-1.109-0.635-1.109-0.952C7.766,28.098,8.181,27.939,8.875,28.098L8.875,28.098"/>
	<path style="fill-rule:evenodd;clip-rule:evenodd;fill:#4B68AF;" d="M27.732,36.723c0,0,0.694-0.158,1.18,0.423
		c0.624,0.688,0.139,0.953,0.139,0.953c0.485-0.211,0.485-0.211,0.485-0.211s0.415-0.265,0-0.847
		c-0.417-0.635-1.041-0.529-1.041-0.529C27.732,36.723,27.732,36.723,27.732,36.723"/>
	<path style="fill-rule:evenodd;clip-rule:evenodd;fill:#3F5792;" d="M28.842,36.617c0.624,0.211,1.109,0.635,1.109,1.006
		c0,0.37-0.485,0.476-1.109,0.37c-0.554-0.211-1.109-0.635-1.109-1.005S28.288,36.406,28.842,36.617L28.842,36.617"/>
	<path style="fill-rule:evenodd;clip-rule:evenodd;fill:#FFFFFF;" d="M34.389,43.496c-0.277-0.211-0.277-0.211-0.277-0.211
		c0,0.37-0.416,0.528-0.831,0.264c-0.347-0.158-0.694-0.688-0.694-1.005c-0.416-0.212-0.416-0.212-0.416-0.212
		c0,1.481,0,1.481,0,1.481l0,0c0,17.198,0,17.198,0,17.198l0,0c0,0.212,0,0.212,0,0.212c0,1.163,0,1.163,0,1.163
		c0.347,0.212,0.347,0.212,0.347,0.212c0-0.37,0.278-0.529,0.764-0.264c0.415,0.158,0.762,0.688,0.762,1.005
		c0.347,0.158,0.347,0.158,0.347,0.158c0-1.27,0-1.27,0-1.27c0-0.159,0-0.159,0-0.159c0,0.159,0,0.159,0,0.159
		c0-17.304,0-17.304,0-17.304l0,0C34.389,43.496,34.389,43.496,34.389,43.496"/>
	<path style="fill-rule:evenodd;clip-rule:evenodd;fill:#FFFFFF;" d="M34.389,63.816c-0.347-0.159-0.347-0.159-0.347-0.159
		c0,0.37-0.277,0.477-0.693,0.264c-0.485-0.157-0.763-0.687-0.763-1.057c-0.276-0.212-0.276-0.212-0.276-0.212
		c0,1.534,0,1.534,0,1.534l0,0c-0.14,17.832-0.14,17.832-0.14,17.832l0,0c0,0.159,0,0.159,0,0.159c0,1.322,0,1.322,0,1.322
		c0.347,0.212,0.347,0.212,0.347,0.212c0-0.371,0.347-0.528,0.764-0.265c0.346,0.159,0.762,0.688,0.762,1.06
		c0.277,0.158,0.277,0.158,0.277,0.158c0-1.324,0-1.324,0-1.324c0-0.157,0-0.157,0-0.157c0,0.157,0,0.157,0,0.157
		c0.069-18.043,0.069-18.043,0.069-18.043l0,0C34.389,63.816,34.389,63.816,34.389,63.816"/>
	<path style="fill-rule:evenodd;clip-rule:evenodd;fill:#FFFFFF;" d="M32.17,41.804c-0.277-0.159-0.277-0.159-0.277-0.159
		c0,0.37-0.277,0.476-0.832,0.265c-0.347-0.265-0.692-0.688-0.692-1.058c-0.417-0.212-0.417-0.212-0.417-0.212
		c0,1.535,0,1.535,0,1.535l0,0c0,17.832,0,17.832,0,17.832l0,0c0,0.158,0,0.158,0,0.158c0,1.323,0,1.323,0,1.323
		c0.347,0.211,0.347,0.211,0.347,0.211c0-0.37,0.416-0.528,0.763-0.264c0.417,0.159,0.764,0.635,0.764,1.059
		c0.346,0.159,0.346,0.159,0.346,0.159c0-1.324,0-1.324,0-1.324c0-0.158,0-0.158,0-0.158c0,0.158,0,0.158,0,0.158
		c0-18.043,0-18.043,0-18.043l0,0C32.17,41.804,32.17,41.804,32.17,41.804"/>
	<path style="fill-rule:evenodd;clip-rule:evenodd;fill:#FFFFFF;" d="M32.17,62.916c-0.416-0.211-0.416-0.211-0.416-0.211
		c-0.139,0.476-0.555,0.582-1.109,0.37c-0.623-0.266-1.179-0.688-1.179-1.059c-0.415-0.211-0.415-0.211-0.415-0.211
		c0,1.481,0,1.481,0,1.481l0,0c-0.209,17.938-0.209,17.938-0.209,17.938l0,0c0,0.211,0,0.211,0,0.211c0,1.323,0,1.323,0,1.323
		c0.624,0.158,0.624,0.158,0.624,0.158c0-0.423,0.417-0.529,0.971-0.317c0.624,0.266,1.179,0.688,1.179,1.165
		c0.416,0.053,0.416,0.053,0.416,0.053c0-1.218,0-1.218,0-1.218c0-0.212,0-0.212,0-0.212c0,0.212,0,0.212,0,0.212
		c0.139-18.149,0.139-18.149,0.139-18.149l0,0C32.17,62.916,32.17,62.916,32.17,62.916"/>
	<path style="fill-rule:evenodd;clip-rule:evenodd;fill:#FFFFFF;" d="M28.842,40.851c-0.347-0.159-0.347-0.159-0.347-0.159
		c0,0.423-0.277,0.53-0.692,0.317c-0.485-0.265-0.764-0.688-0.764-1.111c-0.277-0.106-0.277-0.106-0.277-0.106c0,1.43,0,1.43,0,1.43
		l0,0c-0.138,17.25-0.138,17.25-0.138,17.25l0,0c0,0.158,0,0.158,0,0.158c0,1.323,0,1.323,0,1.323
		c0.347,0.159,0.347,0.159,0.347,0.159c0-0.424,0.347-0.529,0.762-0.317c0.348,0.264,0.763,0.688,0.763,1.005
		c0.278,0.159,0.278,0.159,0.278,0.159c0-1.164,0-1.164,0-1.164c0-0.212,0-0.212,0-0.212c0,0.212,0,0.212,0,0.212
		c0.068-17.463,0.068-17.463,0.068-17.463l0,0C28.842,40.851,28.842,40.851,28.842,40.851"/>
	<path style="fill-rule:evenodd;clip-rule:evenodd;fill:#FFFFFF;" d="M28.842,61.275c-0.276-0.158-0.276-0.158-0.276-0.158
		c0,0.37-0.348,0.529-0.763,0.265c-0.347-0.158-0.764-0.635-0.764-1.059c-0.277-0.211-0.277-0.211-0.277-0.211
		c0,1.534,0,1.534,0,1.534l0,0c-0.138,17.886-0.138,17.886-0.138,17.886l0,0c0,0.211,0,0.211,0,0.211c0,1.218,0,1.218,0,1.218
		c0.415,0.212,0.415,0.212,0.415,0.212c0-0.371,0.278-0.478,0.693-0.266c0.485,0.266,0.763,0.688,0.763,1.059
		c0.278,0.159,0.278,0.159,0.278,0.159c0-1.323,0-1.323,0-1.323c0-0.158,0-0.158,0-0.158c0,0.158,0,0.158,0,0.158
		c0.068-17.992,0.068-17.992,0.068-17.992l0,0C28.842,61.275,28.842,61.275,28.842,61.275"/>
	<path style="fill-rule:evenodd;clip-rule:evenodd;fill:#FFFFFF;" d="M26.624,39.264c-0.556-0.159-0.556-0.159-0.556-0.159
		c0,0.371-0.415,0.529-0.97,0.265c-0.624-0.159-1.179-0.688-1.179-1.059c-0.416-0.211-0.416-0.211-0.416-0.211
		c0,1.535,0,1.535,0,1.535l0,0c-0.208,17.885-0.208,17.885-0.208,17.885l0,0c0,0.212,0,0.212,0,0.212c0,1.218,0,1.218,0,1.218
		c0.485,0.211,0.485,0.211,0.485,0.211c0.139-0.37,0.554-0.476,1.109-0.265c0.624,0.159,1.178,0.688,1.178,1.059
		c0.417,0.159,0.417,0.159,0.417,0.159c0-1.323,0-1.323,0-1.323c0-0.159,0-0.159,0-0.159c0,0.159,0,0.159,0,0.159
		c0.139-17.991,0.139-17.991,0.139-17.991l0,0C26.624,39.264,26.624,39.264,26.624,39.264"/>
	<path style="fill-rule:evenodd;clip-rule:evenodd;fill:#FFFFFF;" d="M26.624,60.429c-0.416-0.158-0.416-0.158-0.416-0.158
		c0,0.371-0.624,0.477-1.249,0.265c-0.554-0.158-1.039-0.688-1.039-1.059c-0.624-0.211-0.624-0.211-0.624-0.211
		c0,1.534,0,1.534,0,1.534l0,0c0,17.832,0,17.832,0,17.832l0,0c0,0.159,0,0.159,0,0.159c0,1.323,0,1.323,0,1.323
		c0.485,0.211,0.485,0.211,0.485,0.211c0-0.37,0.485-0.529,1.178-0.264c0.625,0.159,1.109,0.688,1.109,1.058
		c0.556,0.158,0.556,0.158,0.556,0.158c0-1.322,0-1.322,0-1.322c0-0.159,0-0.159,0-0.159c0,0.159,0,0.159,0,0.159
		c0-18.043,0-18.043,0-18.043l0,0C26.624,60.429,26.624,60.429,26.624,60.429"/>
	<path style="fill-rule:evenodd;clip-rule:evenodd;fill:#FFFFFF;" d="M14.421,34.183c-0.347-0.159-0.347-0.159-0.347-0.159
		c0,0.37-0.277,0.477-0.693,0.265c-0.485-0.158-0.763-0.688-0.763-1.058c-0.277-0.211-0.277-0.211-0.277-0.211
		c0,1.534,0,1.534,0,1.534l0,0c-0.139,17.832-0.139,17.832-0.139,17.832l0,0c0,0.159,0,0.159,0,0.159c0,1.323,0,1.323,0,1.323
		c0.347,0.211,0.347,0.211,0.347,0.211c0-0.37,0.347-0.528,0.763-0.265c0.347,0.159,0.762,0.688,0.762,1.059
		c0.278,0.159,0.278,0.159,0.278,0.159c0-1.323,0-1.323,0-1.323c0-0.158,0-0.158,0-0.158c0,0.158,0,0.158,0,0.158
		c0.069-18.044,0.069-18.044,0.069-18.044l0,0C14.421,34.183,14.421,34.183,14.421,34.183"/>
	<path style="fill-rule:evenodd;clip-rule:evenodd;fill:#FFFFFF;" d="M14.421,55.296c-0.277-0.105-0.277-0.105-0.277-0.105
		c0,0.371-0.347,0.477-0.763,0.265c-0.347-0.265-0.763-0.688-0.763-1.058c-0.277-0.212-0.277-0.212-0.277-0.212
		c0,1.534,0,1.534,0,1.534c0-0.053,0-0.053,0-0.053c-0.139,17.886-0.139,17.886-0.139,17.886l0,0c0,0.159,0,0.159,0,0.159
		c0,1.322,0,1.322,0,1.322c0.416,0.212,0.416,0.212,0.416,0.212c0-0.371,0.278-0.529,0.694-0.265
		c0.485,0.158,0.762,0.635,0.762,1.058c0.278,0.159,0.278,0.159,0.278,0.159c0-1.323,0-1.323,0-1.323c0-0.158,0-0.158,0-0.158
		c0,0.158,0,0.158,0,0.158c0.069-18.044,0.069-18.044,0.069-18.044l0,0C14.421,55.296,14.421,55.296,14.421,55.296"/>
	<path style="fill-rule:evenodd;clip-rule:evenodd;fill:#FFFFFF;" d="M17.749,35.876c-0.277-0.211-0.277-0.211-0.277-0.211
		c0,0.37-0.277,0.529-0.832,0.265c-0.346-0.159-0.693-0.582-0.693-1.005c-0.417-0.211-0.417-0.211-0.417-0.211
		c0,1.481,0,1.481,0,1.481l0,0c0,17.197,0,17.197,0,17.197l0,0c0,0.212,0,0.212,0,0.212c0,1.164,0,1.164,0,1.164
		c0.347,0.212,0.347,0.212,0.347,0.212c0-0.371,0.417-0.477,0.763-0.265c0.417,0.265,0.763,0.688,0.763,1.005
		c0.346,0.159,0.346,0.159,0.346,0.159c0-1.271,0-1.271,0-1.271c0-0.158,0-0.158,0-0.158c0,0.158,0,0.158,0,0.158
		c0-17.303,0-17.303,0-17.303l0,0C17.749,35.876,17.749,35.876,17.749,35.876"/>
	<path style="fill-rule:evenodd;clip-rule:evenodd;fill:#FFFFFF;" d="M17.749,56.196c-0.277-0.159-0.277-0.159-0.277-0.159
		c-0.069,0.37-0.347,0.529-0.762,0.265c-0.347-0.159-0.763-0.688-0.763-1.058c-0.277-0.212-0.277-0.212-0.277-0.212
		c0,1.534,0,1.534,0,1.534l0,0c-0.14,17.886-0.14,17.886-0.14,17.886l0,0c0,0.105,0,0.105,0,0.105c0,1.322,0,1.322,0,1.322
		c0.417,0.213,0.417,0.213,0.417,0.213c0-0.37,0.277-0.529,0.693-0.266c0.347,0.159,0.763,0.688,0.763,1.06
		c0.277,0.158,0.277,0.158,0.277,0.158c0-1.322,0-1.322,0-1.322c0-0.159,0-0.159,0-0.159c0,0.159,0,0.159,0,0.159
		c0.068-18.045,0.068-18.045,0.068-18.045c0,0.053,0,0.053,0,0.053C17.749,56.196,17.749,56.196,17.749,56.196"/>
	<path style="fill-rule:evenodd;clip-rule:evenodd;fill:#FFFFFF;" d="M12.203,33.283c-0.554-0.211-0.554-0.211-0.554-0.211
		c0,0.477-0.417,0.582-0.971,0.371c-0.624-0.265-1.179-0.688-1.179-1.058c-0.416-0.211-0.416-0.211-0.416-0.211
		c0,1.481,0,1.481,0,1.481l0,0C8.875,51.54,8.875,51.54,8.875,51.54l0,0c0,0.158,0,0.158,0,0.158c0,1.323,0,1.323,0,1.323
		c0.485,0.211,0.485,0.211,0.485,0.211c0.138-0.37,0.554-0.528,1.109-0.265c0.624,0.159,1.179,0.636,1.179,1.059
		c0.416,0.159,0.416,0.159,0.416,0.159c0-1.323,0-1.323,0-1.323c0-0.158,0-0.158,0-0.158c0,0.158,0,0.158,0,0.158
		c0.139-18.044,0.139-18.044,0.139-18.044l0,0C12.203,33.283,12.203,33.283,12.203,33.283"/>
	<path style="fill-rule:evenodd;clip-rule:evenodd;fill:#FFFFFF;" d="M12.203,54.397c-0.416-0.159-0.416-0.159-0.416-0.159
		c0,0.317-0.624,0.529-1.248,0.317c-0.555-0.264-1.041-0.688-1.041-1.111c-0.624-0.105-0.624-0.105-0.624-0.105
		c0,1.429,0,1.429,0,1.429l0,0c0,17.251,0,17.251,0,17.251l0,0c0,0.159,0,0.159,0,0.159c0,1.322,0,1.322,0,1.322
		c0.485,0.159,0.485,0.159,0.485,0.159c0-0.425,0.485-0.529,1.179-0.318c0.624,0.265,1.109,0.688,1.109,1.005
		c0.554,0.159,0.554,0.159,0.554,0.159c0-1.164,0-1.164,0-1.164c0-0.211,0-0.211,0-0.211c0,0.211,0,0.211,0,0.211
		c0-17.462,0-17.462,0-17.462l0,0C12.203,54.397,12.203,54.397,12.203,54.397"/>
	<path style="fill-rule:evenodd;clip-rule:evenodd;fill:#FFFFFF;" d="M8.875,31.644c-0.277-0.159-0.277-0.159-0.277-0.159
		c0,0.371-0.347,0.529-0.763,0.265c-0.346-0.159-0.763-0.635-0.763-1.058c-0.277-0.212-0.277-0.212-0.277-0.212
		c0,1.535,0,1.535,0,1.535l0,0C6.656,49.898,6.656,49.898,6.656,49.898l0,0c0,0.213,0,0.213,0,0.213c0,1.322,0,1.322,0,1.322
		c0.416,0.106,0.416,0.106,0.416,0.106c0-0.371,0.277-0.477,0.694-0.266c0.485,0.266,0.762,0.688,0.762,1.06
		c0.277,0.158,0.277,0.158,0.277,0.158c0-1.323,0-1.323,0-1.323c0-0.159,0-0.159,0-0.159c0,0.159,0,0.159,0,0.159
		c0.07-17.991,0.07-17.991,0.07-17.991l0,0C8.875,31.644,8.875,31.644,8.875,31.644"/>
	<path style="fill-rule:evenodd;clip-rule:evenodd;fill:#FFFFFF;" d="M8.875,52.81c-0.277-0.158-0.277-0.158-0.277-0.158
		c0,0.37-0.278,0.529-0.832,0.265c-0.347-0.159-0.694-0.688-0.694-1.059c-0.416-0.212-0.416-0.212-0.416-0.212
		c0,1.535,0,1.535,0,1.535l0,0c0,17.886,0,17.886,0,17.886l0,0c0,0.211,0,0.211,0,0.211c0,1.217,0,1.217,0,1.217
		c0.347,0.211,0.347,0.211,0.347,0.211c0-0.37,0.416-0.476,0.762-0.264c0.416,0.159,0.762,0.688,0.762,1.059
		c0.347,0.159,0.347,0.159,0.347,0.159c0-1.324,0-1.324,0-1.324c0-0.157,0-0.157,0-0.157c0,0.157,0,0.157,0,0.157
		c0-17.991,0-17.991,0-17.991l0,0C8.875,52.81,8.875,52.81,8.875,52.81"/>
	<path style="fill-rule:evenodd;clip-rule:evenodd;fill:#FFFFFF;" d="M6.656,30.797C6.24,30.638,6.24,30.638,6.24,30.638
		c0,0.371-0.624,0.53-1.248,0.265c-0.554-0.159-1.04-0.688-1.04-1.058c-0.624-0.212-0.624-0.212-0.624-0.212
		c0,1.535,0,1.535,0,1.535l0,0c0,17.885,0,17.885,0,17.885l0,0c0,0.106,0,0.106,0,0.106c0,1.322,0,1.322,0,1.322
		c0.484,0.212,0.484,0.212,0.484,0.212c0-0.371,0.485-0.53,1.179-0.265c0.624,0.158,1.109,0.688,1.109,1.059
		c0.417,0.158,0.417,0.158,0.417,0.158c0.138-1.323,0.138-1.323,0.138-1.323c0-0.159,0-0.159,0-0.159c0,0.159,0,0.159,0,0.159
		c0-18.043,0-18.043,0-18.043c0,0.052,0,0.052,0,0.052C6.656,30.797,6.656,30.797,6.656,30.797"/>
	<path style="fill-rule:evenodd;clip-rule:evenodd;fill:#FFFFFF;" d="M6.656,51.963c-0.555-0.212-0.555-0.212-0.555-0.212
		c0,0.37-0.416,0.424-0.971,0.265c-0.762-0.158-1.178-0.688-1.178-1.006c-0.417-0.211-0.417-0.211-0.417-0.211
		c0,1.481,0,1.481,0,1.481l0,0C3.329,69.425,3.329,69.425,3.329,69.425l0,0c0,0.159,0,0.159,0,0.159c0,1.271,0,1.271,0,1.271
		c0.484,0.212,0.484,0.212,0.484,0.212c0-0.371,0.555-0.53,1.11-0.266c0.624,0.159,1.178,0.688,1.178,1.006
		c0.417,0.157,0.417,0.157,0.417,0.157c0-1.269,0-1.269,0-1.269c0-0.159,0-0.159,0-0.159c0,0.159,0,0.159,0,0.159
		c0.138-17.356,0.138-17.356,0.138-17.356l0,0C6.656,51.963,6.656,51.963,6.656,51.963"/>
	<path style="fill-rule:evenodd;clip-rule:evenodd;fill:#FFFFFF;" d="M21.077,36.723c-0.416-0.158-0.416-0.158-0.416-0.158
		c0,0.37-0.555,0.423-1.109,0.264c-0.624-0.264-1.04-0.688-1.04-1.058c-0.555-0.211-0.555-0.211-0.555-0.211
		c0,1.534,0,1.534,0,1.534l0,0c-0.208,39.052-0.208,39.052-0.208,39.052l0,0c0,1.481,0,1.481,0,1.481
		c0.485,0.159,0.485,0.159,0.485,0.159c0-0.37,0.555-0.477,1.111-0.266c0.623,0.159,1.178,0.688,1.178,1.06
		c0.416,0.158,0.416,0.158,0.416,0.158c0-1.481,0-1.481,0-1.481l0,0c0.139-39.104,0.139-39.104,0.139-39.104l0,0
		C21.077,36.723,21.077,36.723,21.077,36.723"/>
	<path style="fill-rule:evenodd;clip-rule:evenodd;fill:#FFFFFF;" d="M23.296,38.417c-0.277-0.159-0.277-0.159-0.277-0.159
		c0,0.317-0.347,0.53-0.763,0.265c-0.348-0.212-0.763-0.741-0.763-1.059c-0.277-0.211-0.277-0.211-0.277-0.211
		c0,1.535,0,1.535,0,1.535l0,0c-0.139,38.257-0.139,38.257-0.139,38.257l0,0c0,1.535,0,1.535,0,1.535
		c0.346,0.158,0.346,0.158,0.346,0.158c0-0.423,0.348-0.529,0.764-0.37c0.347,0.264,0.692,0.741,0.692,1.058
		c0.348,0.158,0.348,0.158,0.348,0.158c0-1.375,0-1.375,0-1.375l0,0c0.069-38.311,0.069-38.311,0.069-38.311l0,0
		C23.296,38.417,23.296,38.417,23.296,38.417"/>
	<path style="fill-rule:evenodd;clip-rule:evenodd;fill:#273472;" d="M6.24,89.586c0-0.423,0-0.423,0-0.423
		c-0.207,0-0.207,0-0.207,0c0,0.37,0,0.37,0,0.37C6.24,89.586,6.24,89.586,6.24,89.586 M6.033,89.004
		c0.347,0.105,0.624,0.316,0.624,0.529c0,0.212-0.277,0.212-0.624,0.158c-0.278-0.105-0.485-0.371-0.485-0.528
		C5.547,89.004,5.754,88.897,6.033,89.004L6.033,89.004L6.033,89.004z"/>
	<path style="fill-rule:evenodd;clip-rule:evenodd;fill:#657DB9;" d="M6.24,89.533c0-0.317,0-0.317,0-0.317
		c-0.207-0.053-0.207-0.053-0.207-0.053c0,0.37,0,0.37,0,0.37C6.24,89.533,6.24,89.533,6.24,89.533 M6.24,89.057
		c0.278,0.106,0.417,0.264,0.417,0.477c0,0.158-0.138,0.212-0.417,0.158c-0.346-0.053-0.692-0.316-0.692-0.476
		C5.547,89.004,5.894,88.897,6.24,89.057L6.24,89.057L6.24,89.057z"/>
	<path style="fill-rule:evenodd;clip-rule:evenodd;fill:#273472;" d="M6.24,81.913c0-0.37,0-0.37,0-0.37c-0.207,0-0.207,0-0.207,0
		c0,0.37,0,0.37,0,0.37C6.24,81.913,6.24,81.913,6.24,81.913 M6.033,81.384c0.347,0.159,0.624,0.318,0.624,0.529
		c0,0.159-0.277,0.212-0.624,0.159c-0.278-0.054-0.485-0.317-0.485-0.477C5.547,81.384,5.754,81.277,6.033,81.384L6.033,81.384
		L6.033,81.384z"/>
	<path style="fill-rule:evenodd;clip-rule:evenodd;fill:#657DB9;" d="M6.24,81.966c0-0.423,0-0.423,0-0.423
		c-0.207-0.054-0.207-0.054-0.207-0.054c0,0.424,0,0.424,0,0.424C6.24,81.966,6.24,81.966,6.24,81.966 M6.24,81.384
		c0.278,0.105,0.417,0.318,0.417,0.529c0,0.159-0.138,0.212-0.417,0.159c-0.346-0.106-0.692-0.37-0.692-0.529
		S5.894,81.277,6.24,81.384L6.24,81.384L6.24,81.384z"/>
	<path style="fill-rule:evenodd;clip-rule:evenodd;fill:#273472;" d="M7.349,72.548c0-0.37,0-0.37,0-0.37c-0.208,0-0.208,0-0.208,0
		c0,0.37,0,0.37,0,0.37C7.349,72.548,7.349,72.548,7.349,72.548 M7.142,72.071c0.347,0.106,0.624,0.317,0.624,0.477
		c0,0.211-0.277,0.264-0.624,0.211c-0.138-0.106-0.485-0.37-0.485-0.581C6.656,71.964,7.003,71.964,7.142,72.071L7.142,72.071
		L7.142,72.071z"/>
	<path style="fill-rule:evenodd;clip-rule:evenodd;fill:#657DB9;" d="M7.21,72.652c0-0.37,0-0.37,0-0.37c0-0.104,0-0.104,0-0.104
		c0,0.37,0,0.37,0,0.37C7.21,72.652,7.21,72.652,7.21,72.652 M7.21,72.071c0.417,0.106,0.555,0.317,0.555,0.477
		c0,0.211-0.139,0.264-0.555,0.211c-0.346-0.106-0.554-0.317-0.554-0.477C6.656,72.071,6.865,71.964,7.21,72.071L7.21,72.071
		L7.21,72.071z"/>
	<path style="fill-rule:evenodd;clip-rule:evenodd;fill:#273472;" d="M10.747,74.346c0-0.476,0-0.476,0-0.476
		c-0.208,0-0.208,0-0.208,0c0,0.371,0,0.371,0,0.371C10.747,74.346,10.747,74.346,10.747,74.346 M10.539,73.764
		c0.416,0.106,0.554,0.318,0.554,0.478c0,0.211-0.139,0.264-0.554,0.211c-0.139-0.106-0.555-0.37-0.555-0.477
		C9.984,73.764,10.4,73.659,10.539,73.764L10.539,73.764L10.539,73.764z"/>
	<path style="fill-rule:evenodd;clip-rule:evenodd;fill:#657DB9;" d="M10.539,74.346c0-0.37,0-0.37,0-0.37
		C10.4,73.87,10.4,73.87,10.4,73.87c0,0.371,0,0.371,0,0.371C10.539,74.346,10.539,74.346,10.539,74.346 M10.539,73.764
		c0.416,0.106,0.554,0.318,0.554,0.478c0,0.211-0.347,0.264-0.554,0.211c-0.347-0.106-0.555-0.317-0.555-0.477
		C9.984,73.764,10.192,73.659,10.539,73.764L10.539,73.764L10.539,73.764z"/>
	<path style="fill-rule:evenodd;clip-rule:evenodd;fill:#273472;" d="M16.085,76.887c0-0.371,0-0.371,0-0.371
		c0-0.106,0-0.106,0-0.106c0,0.371,0,0.371,0,0.371C16.085,76.887,16.085,76.887,16.085,76.887 M16.085,76.305
		c0.416,0.104,0.554,0.37,0.554,0.476c0,0.211-0.139,0.265-0.554,0.211c-0.347-0.104-0.555-0.316-0.555-0.476
		C15.53,76.305,15.739,76.198,16.085,76.305L16.085,76.305L16.085,76.305z"/>
	<path style="fill-rule:evenodd;clip-rule:evenodd;fill:#657DB9;" d="M16.224,76.78c0-0.371,0-0.371,0-0.371
		c-0.208,0-0.208,0-0.208,0c0,0.371,0,0.371,0,0.371C16.224,76.78,16.224,76.78,16.224,76.78 M16.016,76.305
		c0.347,0,0.624,0.316,0.624,0.476c0,0.211-0.277,0.265-0.624,0.211c-0.139-0.104-0.485-0.37-0.485-0.582
		C15.53,76.198,15.877,76.198,16.016,76.305L16.016,76.305L16.016,76.305z"/>
	<polygon style="fill-rule:evenodd;clip-rule:evenodd;fill:#FFFFFF;" points="15.53,76.516 16.64,77.045 16.64,76.78 15.53,76.198 
		15.53,76.516 	"/>
	<path style="fill-rule:evenodd;clip-rule:evenodd;fill:#273472;" d="M21.632,79.32c0-0.37,0-0.37,0-0.37c-0.139,0-0.139,0-0.139,0
		c0,0.37,0,0.37,0,0.37C21.632,79.32,21.632,79.32,21.632,79.32 M21.632,78.844c0.208,0.106,0.555,0.317,0.555,0.477
		c0,0.212-0.347,0.264-0.555,0.212c-0.347-0.106-0.555-0.371-0.555-0.582C21.077,78.738,21.285,78.738,21.632,78.844L21.632,78.844
		L21.632,78.844z"/>
	<path style="fill-rule:evenodd;clip-rule:evenodd;fill:#657DB9;" d="M21.84,79.426c0-0.371,0-0.371,0-0.371
		c-0.208-0.104-0.208-0.104-0.208-0.104c0,0.37,0,0.37,0,0.37C21.84,79.426,21.84,79.426,21.84,79.426 M21.632,78.844
		c0.416,0.106,0.555,0.317,0.555,0.477c0,0.212-0.139,0.264-0.555,0.212c-0.347-0.106-0.555-0.318-0.555-0.478
		C21.077,78.844,21.285,78.738,21.632,78.844L21.632,78.844L21.632,78.844z"/>
	<path style="fill-rule:evenodd;clip-rule:evenodd;fill:#273472;" d="M25.099,80.272c0-0.477,0-0.477,0-0.477
		c-0.208,0-0.208,0-0.208,0c0,0.37,0,0.37,0,0.37C25.099,80.272,25.099,80.272,25.099,80.272 M24.891,79.69
		c0.347,0.105,0.624,0.318,0.624,0.476c0,0.213-0.277,0.266-0.624,0.213c-0.139-0.106-0.485-0.37-0.485-0.477
		C24.405,79.69,24.752,79.584,24.891,79.69L24.891,79.69L24.891,79.69z"/>
	<path style="fill-rule:evenodd;clip-rule:evenodd;fill:#657DB9;" d="M24.959,80.272c0-0.37,0-0.37,0-0.37c0-0.106,0-0.106,0-0.106
		c0,0.37,0,0.37,0,0.37C24.959,80.272,24.959,80.272,24.959,80.272 M24.959,79.69c0.417,0.105,0.556,0.318,0.556,0.476
		c0,0.213-0.139,0.266-0.556,0.213c-0.346-0.106-0.554-0.317-0.554-0.477C24.405,79.69,24.613,79.584,24.959,79.69L24.959,79.69
		L24.959,79.69z"/>
	<path style="fill-rule:evenodd;clip-rule:evenodd;fill:#273472;" d="M30.507,82.813c0.207-0.37,0.207-0.37,0.207-0.37
		c-0.207-0.106-0.207-0.106-0.207-0.106C30.507,82.813,30.507,82.813,30.507,82.813L30.507,82.813 M30.507,82.229
		c0.415,0.107,0.554,0.371,0.554,0.478c0,0.211-0.139,0.264-0.554,0.211c-0.348-0.104-0.556-0.317-0.556-0.475
		C29.951,82.229,30.159,82.125,30.507,82.229L30.507,82.229L30.507,82.229z"/>
	<path style="fill-rule:evenodd;clip-rule:evenodd;fill:#657DB9;" d="M30.507,82.707c0-0.37,0-0.37,0-0.37c-0.139,0-0.139,0-0.139,0
		c0,0.37,0,0.37,0,0.37C30.507,82.707,30.507,82.707,30.507,82.707 M30.507,82.229c0.207,0.107,0.554,0.318,0.554,0.478
		c0,0.211-0.347,0.264-0.554,0.211c-0.348-0.104-0.556-0.37-0.556-0.581C29.951,82.125,30.159,82.125,30.507,82.229L30.507,82.229
		L30.507,82.229z"/>
	<path style="fill-rule:evenodd;clip-rule:evenodd;fill:#273472;" d="M4.992,30.321c0-0.371,0-0.371,0-0.371
		c-0.139-0.105-0.139-0.105-0.139-0.105c0,0.37,0,0.37,0,0.37C4.992,30.321,4.992,30.321,4.992,30.321 M4.992,29.738
		c0.208,0.106,0.555,0.318,0.555,0.477c0,0.211-0.347,0.264-0.555,0.211c-0.347-0.105-0.554-0.318-0.554-0.476
		C4.438,29.738,4.645,29.632,4.992,29.738L4.992,29.738L4.992,29.738z"/>
	<path style="fill-rule:evenodd;clip-rule:evenodd;fill:#657DB9;" d="M7.21,31.167c0.208-0.371,0.208-0.371,0.208-0.371
		c-0.208,0-0.208,0-0.208,0C7.21,31.167,7.21,31.167,7.21,31.167L7.21,31.167 M7.21,30.585c0.417,0.105,0.555,0.371,0.555,0.582
		c0,0.159-0.139,0.159-0.555,0.105c-0.346-0.105-0.554-0.317-0.554-0.476C6.656,30.585,6.865,30.479,7.21,30.585L7.21,30.585
		L7.21,30.585z"/>
	<path style="fill-rule:evenodd;clip-rule:evenodd;fill:#273472;" d="M10.678,32.86c0-0.37,0-0.37,0-0.37
		c-0.208-0.106-0.208-0.106-0.208-0.106c0,0.476,0,0.476,0,0.476C10.678,32.86,10.678,32.86,10.678,32.86 M10.469,32.279
		c0.347,0.105,0.624,0.37,0.624,0.582c0,0.106-0.277,0.159-0.624,0.106c-0.138-0.106-0.485-0.317-0.485-0.476
		C9.984,32.279,10.331,32.173,10.469,32.279L10.469,32.279L10.469,32.279z"/>
	<path style="fill-rule:evenodd;clip-rule:evenodd;fill:#657DB9;" d="M10.539,32.755c0-0.371,0-0.371,0-0.371l0,0
		C10.539,32.755,10.539,32.755,10.539,32.755L10.539,32.755 M10.539,32.279c0.416,0.105,0.554,0.317,0.554,0.476
		c0,0.211-0.139,0.265-0.554,0.211c-0.347-0.106-0.555-0.371-0.555-0.582S10.192,32.173,10.539,32.279L10.539,32.279L10.539,32.279z
		"/>
	<path style="fill-rule:evenodd;clip-rule:evenodd;fill:#273472;" d="M16.085,35.294c0-0.37,0-0.37,0-0.37l0,0
		C16.085,35.294,16.085,35.294,16.085,35.294L16.085,35.294 M16.085,34.818c0.416,0.106,0.554,0.317,0.554,0.476
		c0,0.211-0.139,0.265-0.554,0.211c-0.347-0.105-0.555-0.37-0.555-0.582S15.739,34.713,16.085,34.818L16.085,34.818L16.085,34.818z"
		/>
	<path style="fill-rule:evenodd;clip-rule:evenodd;fill:#657DB9;" d="M16.085,35.4c0-0.371,0-0.371,0-0.371
		c-0.139-0.105-0.139-0.105-0.139-0.105c0,0.37,0,0.37,0,0.37C16.085,35.4,16.085,35.4,16.085,35.4 M16.085,34.818
		c0.208,0.106,0.554,0.317,0.554,0.476c0,0.211-0.346,0.265-0.554,0.211c-0.347-0.105-0.555-0.317-0.555-0.476
		C15.53,34.818,15.739,34.713,16.085,34.818L16.085,34.818L16.085,34.818z"/>
	<path style="fill-rule:evenodd;clip-rule:evenodd;fill:#273472;" d="M21.632,37.94c0-0.37,0-0.37,0-0.37
		c-0.139-0.106-0.139-0.106-0.139-0.106c0,0.371,0,0.371,0,0.371C21.632,37.94,21.632,37.94,21.632,37.94 M21.632,37.358
		c0.208,0.105,0.555,0.318,0.555,0.476c0,0.212-0.347,0.265-0.555,0.212c-0.347-0.106-0.555-0.318-0.555-0.477
		C21.077,37.358,21.285,37.252,21.632,37.358L21.632,37.358L21.632,37.358z"/>
	<path style="fill-rule:evenodd;clip-rule:evenodd;fill:#657DB9;" d="M21.84,37.94c0-0.37,0-0.37,0-0.37c-0.208,0-0.208,0-0.208,0
		c0,0.37,0,0.37,0,0.37C21.84,37.94,21.84,37.94,21.84,37.94 M21.632,37.358c0.416,0.105,0.555,0.37,0.555,0.582
		c0,0.159-0.139,0.159-0.555,0.106c-0.139-0.106-0.555-0.318-0.555-0.477C21.077,37.358,21.493,37.252,21.632,37.358L21.632,37.358
		L21.632,37.358z"/>
	<path style="fill-rule:evenodd;clip-rule:evenodd;fill:#273472;" d="M24.959,38.788c0-0.371,0-0.371,0-0.371
		c-0.139,0-0.139,0-0.139,0c0,0.371,0,0.371,0,0.371C24.959,38.788,24.959,38.788,24.959,38.788 M24.959,38.205
		c0.209,0.106,0.556,0.371,0.556,0.583c0,0.105-0.347,0.158-0.556,0.105c-0.346-0.105-0.554-0.318-0.554-0.476
		C24.405,38.205,24.613,38.099,24.959,38.205L24.959,38.205L24.959,38.205z"/>
	<path style="fill-rule:evenodd;clip-rule:evenodd;fill:#657DB9;" d="M24.959,38.681c0-0.371,0-0.371,0-0.371l0,0
		C24.959,38.681,24.959,38.681,24.959,38.681L24.959,38.681 M24.959,38.205c0.417,0.106,0.556,0.318,0.556,0.477
		c0,0.212-0.139,0.265-0.556,0.212c-0.346-0.105-0.554-0.371-0.554-0.583C24.405,38.099,24.613,38.099,24.959,38.205L24.959,38.205
		L24.959,38.205z"/>
	<path style="fill-rule:evenodd;clip-rule:evenodd;fill:#273472;" d="M30.714,41.222c0-0.371,0-0.371,0-0.371
		c-0.207,0-0.207,0-0.207,0c0,0.371,0,0.371,0,0.371C30.714,41.222,30.714,41.222,30.714,41.222 M30.507,40.745
		c0.415,0.106,0.554,0.318,0.554,0.477c0,0.211-0.139,0.264-0.554,0.211c-0.139-0.106-0.556-0.371-0.556-0.582
		C29.951,40.639,30.368,40.639,30.507,40.745L30.507,40.745L30.507,40.745z"/>
	<path style="fill-rule:evenodd;clip-rule:evenodd;fill:#657DB9;" d="M30.507,41.327c0-0.371,0-0.371,0-0.371
		c-0.139-0.105-0.139-0.105-0.139-0.105c0,0.371,0,0.371,0,0.371C30.507,41.327,30.507,41.327,30.507,41.327 M30.507,40.745
		c0.207,0.106,0.554,0.318,0.554,0.477c0,0.211-0.347,0.264-0.554,0.211c-0.348-0.106-0.556-0.318-0.556-0.477
		C29.951,40.745,30.159,40.639,30.507,40.745L30.507,40.745L30.507,40.745z"/>
	<polygon style="fill-rule:evenodd;clip-rule:evenodd;fill:#FFFFFF;" points="31.061,41.485 31.061,40.851 29.951,40.639 
		29.951,41.327 31.061,41.485 	"/>
	<polygon style="fill-rule:evenodd;clip-rule:evenodd;fill:#FFFFFF;" points="29.951,40.957 31.061,41.485 31.061,41.222 
		29.951,40.639 29.951,40.957 	"/>
	<path style="fill-rule:evenodd;clip-rule:evenodd;fill:#273472;" d="M33.973,101.386c0-0.37,0-0.37,0-0.37
		c-0.208-0.053-0.208-0.053-0.208-0.053c0,0.423,0,0.423,0,0.423C33.973,101.386,33.973,101.386,33.973,101.386 M33.765,100.856
		c0.347,0.106,0.624,0.318,0.624,0.529c0,0.159-0.277,0.212-0.624,0.159c-0.277-0.106-0.484-0.37-0.484-0.529
		C33.28,100.752,33.487,100.752,33.765,100.856L33.765,100.856L33.765,100.856z"/>
	<path style="fill-rule:evenodd;clip-rule:evenodd;fill:#657DB9;" d="M33.973,101.438c0-0.423,0-0.423,0-0.423
		c-0.208,0-0.208,0-0.208,0c0,0.37,0,0.37,0,0.37C33.973,101.438,33.973,101.438,33.973,101.438 M33.765,100.856
		c0.347,0.106,0.624,0.318,0.624,0.529c0,0.159-0.277,0.212-0.624,0.159c-0.139-0.106-0.484-0.37-0.484-0.529
		S33.626,100.752,33.765,100.856L33.765,100.856L33.765,100.856z"/>
	<path style="fill-rule:evenodd;clip-rule:evenodd;fill:#273472;" d="M33.973,93.819c0-0.424,0-0.424,0-0.424
		c-0.208-0.053-0.208-0.053-0.208-0.053c0,0.423,0,0.423,0,0.423C33.973,93.819,33.973,93.819,33.973,93.819 M33.765,93.236
		c0.347,0.106,0.624,0.318,0.624,0.529c0,0.159-0.277,0.212-0.624,0.159c-0.277-0.105-0.484-0.37-0.484-0.529
		S33.487,93.132,33.765,93.236L33.765,93.236L33.765,93.236z"/>
	<path style="fill-rule:evenodd;clip-rule:evenodd;fill:#657DB9;" d="M33.973,93.766c0-0.37,0-0.37,0-0.37c-0.208,0-0.208,0-0.208,0
		c0,0.37,0,0.37,0,0.37C33.973,93.766,33.973,93.766,33.973,93.766 M33.765,93.236c0.347,0.159,0.624,0.318,0.624,0.529
		c0,0.159-0.277,0.212-0.624,0.159c-0.139-0.159-0.484-0.318-0.484-0.529C33.28,93.236,33.626,93.132,33.765,93.236L33.765,93.236
		L33.765,93.236z"/>
	<polygon style="fill-rule:evenodd;clip-rule:evenodd;fill:#3E558F;" points="11.093,51.063 11.093,51.646 10.123,51.434 
		10.123,51.223 9.984,51.223 9.984,51.01 10.123,51.01 10.123,50.799 11.093,51.063 11.093,51.063 11.093,51.063 	"/>
	<polygon style="fill-rule:evenodd;clip-rule:evenodd;fill:#3E558F;" points="11.093,49.635 11.093,50.799 10.123,50.376 
		10.123,49.952 9.984,49.847 9.984,49.529 10.123,49.635 10.123,49.105 11.093,49.635 11.093,49.635 11.093,49.635 	"/>
	<polygon style="fill-rule:evenodd;clip-rule:evenodd;fill:#3E558F;" points="11.093,48.841 11.093,49.952 10.123,49.423 
		10.123,49.053 9.984,48.946 9.984,48.523 10.123,48.735 10.123,48.259 11.093,48.841 11.093,48.841 11.093,48.841 	"/>
	<polygon style="fill-rule:evenodd;clip-rule:evenodd;fill:#3E558F;" points="11.093,47.677 11.093,48.259 10.123,48.048 
		10.123,47.889 9.984,47.835 9.984,47.624 10.123,47.624 10.123,47.412 11.093,47.677 11.093,47.677 11.093,47.677 	"/>
	<polygon style="fill-rule:evenodd;clip-rule:evenodd;fill:#3E558F;" points="11.093,46.301 11.093,47.412 10.123,46.883 
		10.123,46.513 9.984,46.407 9.984,45.983 10.123,46.195 10.123,45.719 11.093,46.301 11.093,46.301 11.093,46.301 	"/>
	<polygon style="fill-rule:evenodd;clip-rule:evenodd;fill:#3E558F;" points="11.093,45.349 11.093,46.565 10.123,46.142 
		10.123,45.666 9.984,45.666 9.984,45.243 10.123,45.243 10.123,44.872 11.093,45.349 11.093,45.349 11.093,45.349 	"/>
	<polygon style="fill-rule:evenodd;clip-rule:evenodd;fill:#3E558F;" points="11.093,44.237 11.093,44.872 10.123,44.66 
		10.123,44.396 9.984,44.343 9.984,44.185 10.123,44.237 10.123,44.026 11.093,44.237 11.093,44.237 11.093,44.237 	"/>
	<polygon style="fill-rule:evenodd;clip-rule:evenodd;fill:#3E558F;" points="11.093,43.496 11.093,44.026 10.123,43.761 
		10.123,43.603 9.984,43.549 9.984,43.338 10.123,43.443 10.261,43.179 11.093,43.496 11.093,43.496 11.093,43.496 	"/>
	<polygon style="fill-rule:evenodd;clip-rule:evenodd;fill:#3E558F;" points="11.093,42.015 11.093,43.179 10.261,42.756 
		10.261,42.332 9.984,42.227 9.984,41.909 10.261,42.015 10.261,41.485 11.093,42.015 11.093,42.015 11.093,42.015 	"/>
	<polygon style="fill-rule:evenodd;clip-rule:evenodd;fill:#3E558F;" points="11.093,40.957 11.093,41.485 10.261,41.222 
		10.261,41.063 9.984,41.009 9.984,40.798 10.261,40.903 10.261,40.639 11.093,40.957 11.093,40.957 11.093,40.957 	"/>
	<polygon style="fill-rule:evenodd;clip-rule:evenodd;fill:#3E558F;" points="11.093,40.057 11.093,40.639 10.261,40.427 
		10.261,40.216 9.984,40.216 9.984,40.004 10.261,40.004 10.261,39.792 11.093,40.057 11.093,40.057 11.093,40.057 	"/>
	<polygon style="fill-rule:evenodd;clip-rule:evenodd;fill:#3E558F;" points="11.093,39.157 11.093,39.792 10.261,39.581 
		10.261,39.316 9.984,39.264 9.984,39.104 10.261,39.157 10.261,38.946 11.093,39.157 11.093,39.157 11.093,39.157 	"/>
	<polygon style="fill-rule:evenodd;clip-rule:evenodd;fill:#3E558F;" points="11.093,37.517 11.093,38.099 10.261,37.888 
		10.261,37.623 9.984,37.623 9.984,37.412 10.261,37.464 10.261,37.252 11.093,37.517 11.093,37.517 11.093,37.517 	"/>
	<polygon style="fill-rule:evenodd;clip-rule:evenodd;fill:#3E558F;" points="11.093,36.67 11.093,37.252 10.261,37.041 
		10.261,36.829 9.984,36.776 9.984,36.617 10.261,36.67 10.261,36.406 11.093,36.67 11.093,36.67 11.093,36.67 	"/>
	<polygon style="fill-rule:evenodd;clip-rule:evenodd;fill:#3E558F;" points="11.093,35.294 11.093,36.406 10.123,35.876 
		10.123,35.506 9.984,35.4 9.984,34.978 10.123,35.189 10.123,34.713 11.093,35.294 11.093,35.294 11.093,35.294 	"/>
	<polygon style="fill-rule:evenodd;clip-rule:evenodd;fill:#3E558F;" points="11.093,34.342 11.093,35.559 10.123,35.136 
		10.123,34.659 9.984,34.659 9.984,34.236 10.123,34.236 10.123,33.866 11.093,34.342 11.093,34.342 11.093,34.342 	"/>
	<polygon style="fill-rule:evenodd;clip-rule:evenodd;fill:#3E558F;" points="13.312,73.023 13.312,73.659 12.341,73.394 
		12.341,73.182 12.203,73.182 12.203,72.971 12.341,72.971 12.341,72.812 13.312,73.023 13.312,73.023 13.312,73.023 	"/>
	<polygon style="fill-rule:evenodd;clip-rule:evenodd;fill:#3E558F;" points="13.312,71.596 13.312,72.812 12.341,72.389 
		12.341,71.912 12.203,71.807 12.203,71.489 12.341,71.596 12.341,71.118 13.312,71.596 13.312,71.596 13.312,71.596 	"/>
	<polygon style="fill-rule:evenodd;clip-rule:evenodd;fill:#3E558F;" points="13.312,70.854 13.312,71.964 12.341,71.437 
		12.341,71.066 12.203,70.96 12.203,70.642 12.341,70.748 12.341,70.271 13.312,70.854 13.312,70.854 13.312,70.854 	"/>
	<polygon style="fill-rule:evenodd;clip-rule:evenodd;fill:#3E558F;" points="13.312,69.849 13.312,71.118 12.341,70.589 
		12.341,70.166 12.203,70.166 12.203,69.743 12.341,69.743 12.341,69.425 13.312,69.849 13.312,69.849 13.312,69.849 	"/>
	<polygon style="fill-rule:evenodd;clip-rule:evenodd;fill:#3E558F;" points="13.312,68.314 13.312,69.425 12.341,68.896 
		12.341,68.525 12.203,68.419 12.203,68.103 12.341,68.208 12.341,67.732 13.312,68.314 13.312,68.314 13.312,68.314 	"/>
	<polygon style="fill-rule:evenodd;clip-rule:evenodd;fill:#3E558F;" points="13.312,67.31 13.312,68.578 12.341,68.049 
		12.341,67.626 12.203,67.626 12.203,67.203 12.341,67.203 12.341,66.885 13.312,67.31 13.312,67.31 13.312,67.31 	"/>
	<polygon style="fill-rule:evenodd;clip-rule:evenodd;fill:#3E558F;" points="13.312,66.303 13.312,66.885 12.341,66.673 
		12.341,66.462 12.203,66.409 12.203,66.25 12.341,66.303 12.341,66.039 13.312,66.303 13.312,66.303 13.312,66.303 	"/>
	<polygon style="fill-rule:evenodd;clip-rule:evenodd;fill:#3E558F;" points="13.312,65.51 13.312,66.039 12.341,65.773 
		12.341,65.614 12.203,65.562 12.203,65.403 12.341,65.457 12.341,65.191 13.312,65.51 13.312,65.51 13.312,65.51 	"/>
	<polygon style="fill-rule:evenodd;clip-rule:evenodd;fill:#3E558F;" points="13.312,63.976 13.312,65.191 12.341,64.769 
		12.341,64.292 12.203,64.187 12.203,63.869 12.341,63.976 12.341,63.498 13.312,63.976 13.312,63.976 13.312,63.976 	"/>
	<polygon style="fill-rule:evenodd;clip-rule:evenodd;fill:#3E558F;" points="13.312,62.969 13.312,63.498 12.341,63.234 
		12.341,63.075 12.203,63.022 12.203,62.864 12.341,62.916 12.341,62.652 13.312,62.969 13.312,62.969 13.312,62.969 	"/>
	<polygon style="fill-rule:evenodd;clip-rule:evenodd;fill:#3E558F;" points="13.312,62.017 13.312,62.652 12.341,62.387 
		12.341,62.176 12.203,62.176 12.203,61.964 12.341,61.964 12.341,61.806 13.312,62.017 13.312,62.017 13.312,62.017 	"/>
	<polygon style="fill-rule:evenodd;clip-rule:evenodd;fill:#3E558F;" points="13.312,61.224 13.312,61.806 12.341,61.594 
		12.341,61.382 12.203,61.328 12.203,61.17 12.341,61.224 12.341,60.959 13.312,61.224 13.312,61.224 13.312,61.224 	"/>
	<polygon style="fill-rule:evenodd;clip-rule:evenodd;fill:#3E558F;" points="13.312,59.53 13.312,60.112 12.341,59.9 
		12.341,59.688 12.203,59.688 12.203,59.425 12.341,59.477 12.341,59.266 13.312,59.53 13.312,59.53 13.312,59.53 	"/>
	<polygon style="fill-rule:evenodd;clip-rule:evenodd;fill:#3E558F;" points="13.312,58.684 13.312,59.266 12.341,59.054 
		12.341,58.842 12.203,58.789 12.203,58.63 12.341,58.684 12.341,58.419 13.312,58.684 13.312,58.684 13.312,58.684 	"/>
	<polygon style="fill-rule:evenodd;clip-rule:evenodd;fill:#3E558F;" points="13.312,57.308 13.312,58.419 12.341,57.89 
		12.341,57.519 12.203,57.413 12.203,57.096 12.341,57.202 12.341,56.726 13.312,57.308 13.312,57.308 13.312,57.308 	"/>
	<polygon style="fill-rule:evenodd;clip-rule:evenodd;fill:#3E558F;" points="13.312,56.302 13.312,57.572 12.341,57.043 
		12.479,56.619 12.203,56.619 12.203,56.196 12.479,56.196 12.479,55.879 13.312,56.302 13.312,56.302 13.312,56.302 	"/>
	<polygon style="fill-rule:evenodd;clip-rule:evenodd;fill:#3E558F;" points="31.061,59.795 31.061,60.959 30.368,60.429 
		30.368,60.112 29.951,60.006 29.951,59.688 30.368,59.688 30.368,59.266 31.061,59.795 31.061,59.795 31.061,59.795 	"/>
	<polygon style="fill-rule:evenodd;clip-rule:evenodd;fill:#3E558F;" points="31.061,58.684 31.061,59.266 30.368,59.054 
		30.368,58.842 29.951,58.789 29.951,58.578 30.368,58.63 30.368,58.419 31.061,58.684 31.061,58.684 31.061,58.684 	"/>
	<polygon style="fill-rule:evenodd;clip-rule:evenodd;fill:#3E558F;" points="31.061,57.837 30.992,58.419 30.298,58.207 
		30.298,57.942 29.951,57.942 29.951,57.784 30.298,57.784 30.298,57.572 31.061,57.837 31.061,57.837 31.061,57.837 	"/>
	<polygon style="fill-rule:evenodd;clip-rule:evenodd;fill:#3E558F;" points="31.061,56.407 31.061,57.572 30.298,57.043 
		30.298,56.726 29.951,56.619 29.951,56.302 30.298,56.407 30.298,55.879 31.061,56.407 31.061,56.407 31.061,56.407 	"/>
	<polygon style="fill-rule:evenodd;clip-rule:evenodd;fill:#3E558F;" points="31.061,55.296 31.061,55.879 30.298,55.667 
		30.298,55.403 29.951,55.403 29.951,55.19 30.298,55.244 30.298,55.032 31.061,55.296 31.061,55.296 31.061,55.296 	"/>
	<polygon style="fill-rule:evenodd;clip-rule:evenodd;fill:#3E558F;" points="31.061,54.45 31.061,55.032 30.298,54.768 
		30.298,54.608 29.951,54.556 29.951,54.397 30.298,54.45 30.298,54.186 31.061,54.45 31.061,54.45 31.061,54.45 	"/>
	<polygon style="fill-rule:evenodd;clip-rule:evenodd;fill:#3E558F;" points="31.061,53.604 31.061,54.186 30.09,53.974 
		30.09,53.762 29.951,53.709 29.951,53.497 30.09,53.551 30.09,53.339 31.061,53.604 31.061,53.604 31.061,53.604 	"/>
	<polygon style="fill-rule:evenodd;clip-rule:evenodd;fill:#3E558F;" points="31.061,52.121 31.061,53.339 30.09,52.916 
		30.09,52.334 29.951,52.334 29.951,52.016 30.09,52.016 30.09,51.646 31.061,52.121 31.061,52.121 31.061,52.121 	"/>
	<polygon style="fill-rule:evenodd;clip-rule:evenodd;fill:#3E558F;" points="31.061,51.063 31.061,51.646 30.09,51.434 
		30.09,51.223 29.951,51.169 29.951,50.958 30.09,51.01 30.09,50.799 31.061,51.063 31.061,51.063 31.061,51.063 	"/>
	<polygon style="fill-rule:evenodd;clip-rule:evenodd;fill:#3E558F;" points="31.061,49.635 31.061,50.799 30.09,50.322 
		30.09,49.847 29.951,49.847 29.951,49.37 30.09,49.476 30.09,49.105 31.061,49.635 31.061,49.635 31.061,49.635 	"/>
	<polygon style="fill-rule:evenodd;clip-rule:evenodd;fill:#3E558F;" points="31.061,48.788 31.061,49.952 30.09,49.423 
		30.09,49.105 29.951,49 29.951,48.683 30.09,48.788 30.09,48.259 31.061,48.788 31.061,48.788 31.061,48.788 	"/>
	<polygon style="fill-rule:evenodd;clip-rule:evenodd;fill:#3E558F;" points="31.061,47.677 31.061,48.259 30.09,48.048 
		30.09,47.835 29.951,47.783 29.951,47.571 30.09,47.624 30.09,47.412 31.061,47.677 31.061,47.677 31.061,47.677 	"/>
	<polygon style="fill-rule:evenodd;clip-rule:evenodd;fill:#3E558F;" points="31.061,46.248 31.061,47.412 30.09,46.883 
		30.09,46.565 29.951,46.46 29.951,46.142 30.09,46.142 30.09,45.719 31.061,46.248 31.061,46.248 31.061,46.248 	"/>
	<polygon style="fill-rule:evenodd;clip-rule:evenodd;fill:#3E558F;" points="31.061,45.401 31.061,46.565 30.09,46.09 
		30.09,45.719 29.951,45.613 29.951,45.138 30.09,45.243 30.09,44.872 31.061,45.401 31.061,45.401 31.061,45.401 	"/>
	<polygon style="fill-rule:evenodd;clip-rule:evenodd;fill:#3E558F;" points="31.061,44.29 31.061,44.872 30.09,44.66 30.09,44.396 
		29.951,44.396 29.951,44.185 30.09,44.237 30.09,44.026 31.061,44.29 31.061,44.29 31.061,44.29 	"/>
	<polygon style="fill-rule:evenodd;clip-rule:evenodd;fill:#3E558F;" points="31.061,43.443 31.061,44.026 30.09,43.761 
		30.09,43.603 29.951,43.549 29.951,43.391 30.09,43.443 30.09,43.179 31.061,43.443 31.061,43.443 31.061,43.443 	"/>
	<polygon style="fill-rule:evenodd;clip-rule:evenodd;fill:#3E558F;" points="25.515,52.81 25.515,53.339 24.544,53.074 
		24.544,52.916 24.405,52.862 24.405,52.704 24.544,52.757 24.544,52.492 25.515,52.81 25.515,52.81 25.515,52.81 	"/>
	<polygon style="fill-rule:evenodd;clip-rule:evenodd;fill:#3E558F;" points="25.515,51.857 25.515,52.492 24.544,52.228 
		24.544,52.016 24.405,52.016 24.405,51.805 24.544,51.805 24.544,51.646 25.515,51.857 25.515,51.857 25.515,51.857 	"/>
	<polygon style="fill-rule:evenodd;clip-rule:evenodd;fill:#3E558F;" points="25.515,51.01 25.515,51.646 24.544,51.434 
		24.544,51.169 24.405,51.116 24.405,50.958 24.544,51.01 24.544,50.799 25.515,51.01 25.515,51.01 25.515,51.01 	"/>
	<polygon style="fill-rule:evenodd;clip-rule:evenodd;fill:#3E558F;" points="25.515,49.688 25.515,50.799 24.544,50.27 
		24.544,49.898 24.405,49.793 24.405,49.476 24.544,49.582 24.544,49.105 25.515,49.688 25.515,49.688 25.515,49.688 	"/>
	<polygon style="fill-rule:evenodd;clip-rule:evenodd;fill:#3E558F;" points="25.515,48.523 25.515,49.105 24.544,48.894 
		24.544,48.683 24.405,48.629 24.405,48.471 24.544,48.523 24.544,48.259 25.515,48.523 25.515,48.523 25.515,48.523 	"/>
	<polygon style="fill-rule:evenodd;clip-rule:evenodd;fill:#3E558F;" points="25.515,47.147 25.515,48.259 24.544,47.729 
		24.544,47.359 24.405,47.253 24.405,46.937 24.544,47.042 24.544,46.565 25.515,47.147 25.515,47.147 25.515,47.147 	"/>
	<polygon style="fill-rule:evenodd;clip-rule:evenodd;fill:#3E558F;" points="25.515,46.142 25.515,47.412 24.544,46.883 
		24.544,46.46 24.405,46.46 24.405,46.036 24.544,46.036 24.544,45.719 25.515,46.142 25.515,46.142 25.515,46.142 	"/>
	<polygon style="fill-rule:evenodd;clip-rule:evenodd;fill:#3E558F;" points="25.515,45.138 25.515,45.719 24.544,45.508 
		24.544,45.243 24.405,45.189 24.405,45.03 24.544,45.084 24.544,44.872 25.515,45.138 25.515,45.138 25.515,45.138 	"/>
	<path style="fill-rule:evenodd;clip-rule:evenodd;fill:#3E558F;" d="M21.563,62.758c0.416,0,0.624,0.317,0.624,0.529
		c0,0.106-0.208,0.211-0.624,0.106c-0.208-0.106-0.485-0.318-0.485-0.529C21.077,62.652,21.354,62.652,21.563,62.758L21.563,62.758"
		/>
	<path style="fill-rule:evenodd;clip-rule:evenodd;fill:#3E558F;" d="M21.632,64.451c0.416,0.106,0.555,0.317,0.555,0.477
		c0,0.211-0.139,0.264-0.555,0.211c-0.139-0.106-0.555-0.37-0.555-0.477C21.077,64.451,21.493,64.346,21.632,64.451L21.632,64.451"
		/>
	<path style="fill-rule:evenodd;clip-rule:evenodd;fill:#3E558F;" d="M21.632,66.144c0.416,0.106,0.555,0.371,0.555,0.478
		c0,0.211-0.139,0.264-0.555,0.211c-0.139-0.106-0.555-0.317-0.555-0.477C21.077,66.144,21.493,66.039,21.632,66.144L21.632,66.144"
		/>
	<path style="fill-rule:evenodd;clip-rule:evenodd;fill:#3E558F;" d="M21.632,67.837c0.416,0.106,0.555,0.318,0.555,0.529
		c0,0.212-0.139,0.212-0.555,0.106c-0.139-0.106-0.555-0.317-0.555-0.529C21.077,67.732,21.493,67.732,21.632,67.837L21.632,67.837"
		/>
	<polygon style="fill-rule:evenodd;clip-rule:evenodd;fill:#3E558F;" points="7.766,58.684 7.766,59.266 6.656,59.054 6.656,58.419 
		7.766,58.684 7.766,58.684 7.766,58.684 	"/>
	<polygon style="fill-rule:evenodd;clip-rule:evenodd;fill:#3E558F;" points="7.766,59.636 7.766,60.112 6.656,59.9 6.656,59.266 
		7.766,59.636 7.766,59.636 7.766,59.636 	"/>
	<polygon style="fill-rule:evenodd;clip-rule:evenodd;fill:#3E558F;" points="7.766,61.224 7.766,61.806 6.656,61.594 6.656,60.959 
		7.766,61.224 7.766,61.224 7.766,61.224 	"/>
	<polygon style="fill-rule:evenodd;clip-rule:evenodd;fill:#3E558F;" points="7.766,62.176 7.766,62.652 6.656,62.439 6.656,61.806 
		7.766,62.176 7.766,62.176 7.766,62.176 	"/>
	<polygon style="fill-rule:evenodd;clip-rule:evenodd;fill:#3E558F;" points="16.64,68.844 16.64,69.425 15.53,69.214 15.53,68.578 
		16.64,68.844 16.64,68.844 16.64,68.844 	"/>
</g>
</svg>