<?xml version="1.0" encoding="iso-8859-1"?>
<!DOCTYPE svg PUBLIC "-//W3C//DTD SVG 1.1//EN" "http://www.w3.org/Graphics/SVG/1.1/DTD/svg11.dtd">
<svg version="1.1" xmlns="http://www.w3.org/2000/svg" xmlns:xlink="http://www.w3.org/1999/xlink" width="98" height="67" viewBox="0 0 98 67">
<g>
	<polygon style="fill-rule:evenodd;clip-rule:evenodd;fill:#273472;" points="54.599,46.367 98.095,25.844 98.095,46.271 
		54.599,66.89 54.599,46.367 54.599,46.367 54.599,46.367 	"/>
	<polygon style="fill-rule:evenodd;clip-rule:evenodd;fill:#4B68AF;" points="0.925,20.713 44.246,0 98.095,25.702 54.832,46.367 
		0.925,20.713 0.925,20.713 0.925,20.713 	"/>
	<polygon style="fill-rule:evenodd;clip-rule:evenodd;fill:#354990;" points="54.599,46.225 54.599,66.89 0.925,41.236 
		0.925,20.523 54.599,46.225 54.599,46.225 54.599,46.225 	"/>
	<path style="fill-rule:evenodd;clip-rule:evenodd;fill:#FFFFFF;" d="M49.048,48.979c0-0.855,0-0.855,0-0.855
		C24.986,36.485,24.986,36.485,24.986,36.485c0,0.902,0,0.902,0,0.902c0.693,0.285,0.867,0.855,0.867,1.426
		c0,0.427-0.174,0.713-0.867,0.427c0,0.855,0,0.855,0,0.855c23.944,11.592,23.944,11.592,23.944,11.592c0-0.855,0-0.855,0-0.855
		c-0.52-0.284-0.866-0.855-0.866-1.425C48.064,48.979,48.411,48.695,49.048,48.979"/>
	<path style="fill-rule:evenodd;clip-rule:evenodd;fill:#FFFFFF;" d="M24.986,37.483c0-0.856,0-0.856,0-0.856
		C0.925,25.083,0.925,25.083,0.925,25.083c0,0.855,0,0.855,0,0.855c0.694,0.285,0.867,0.855,0.867,1.425
		c0,0.429-0.173,0.713-0.867,0.429c0,0.997,0,0.997,0,0.997C24.87,40.285,24.87,40.285,24.87,40.285c0-0.95,0-0.95,0-0.95
		c-0.521-0.284-0.867-0.854-0.867-1.282C24.003,37.483,24.35,37.198,24.986,37.483"/>
	<path style="fill-rule:evenodd;clip-rule:evenodd;fill:#FFFFFF;" d="M49.048,52.923c0-0.808,0-0.808,0-0.808
		C24.986,41.046,24.986,41.046,24.986,41.046c0,0.855,0,0.855,0,0.855c0.693,0.236,0.867,0.808,0.867,1.188
		c0,0.569-0.174,0.712-0.867,0.428c0,0.949,0,0.949,0,0.949c23.944,11.022,23.944,11.022,23.944,11.022c0-0.951,0-0.951,0-0.951
		c-0.52-0.236-0.866-0.807-0.866-1.188C48.064,52.78,48.411,52.638,49.048,52.923"/>
	<path style="fill-rule:evenodd;clip-rule:evenodd;fill:#FFFFFF;" d="M24.986,41.379c0-0.855,0-0.855,0-0.855
		C0.925,28.885,0.925,28.885,0.925,28.885c0,0.901,0,0.901,0,0.901c0.694,0.286,0.867,0.856,0.867,1.283
		c0,0.57-0.173,0.855-0.867,0.57c0,0.855,0,0.855,0,0.855C24.87,44.086,24.87,44.086,24.87,44.086c0-0.854,0-0.854,0-0.854
		c-0.521-0.285-0.867-0.855-0.867-1.426C24.003,41.379,24.35,41.093,24.986,41.379"/>
	<path style="fill-rule:evenodd;clip-rule:evenodd;fill:#FFFFFF;" d="M49.048,56.629c0-0.809,0-0.809,0-0.809
		C24.986,44.847,24.986,44.847,24.986,44.847c0,0.855,0,0.855,0,0.855c0.693,0.237,0.867,0.807,0.867,1.33
		c0,0.38-0.174,0.665-0.867,0.38c0,0.95,0,0.95,0,0.95c23.944,10.927,23.944,10.927,23.944,10.927c0-0.903,0-0.903,0-0.903
		c-0.52-0.284-0.866-0.807-0.866-1.235C48.064,56.629,48.411,56.343,49.048,56.629"/>
	<path style="fill-rule:evenodd;clip-rule:evenodd;fill:#FFFFFF;" d="M24.986,45.227c0-0.997,0-0.997,0-0.997
		C0.925,32.685,0.925,32.685,0.925,32.685c0,0.855,0,0.855,0,0.855c0.694,0.427,0.867,0.854,0.867,1.424
		c0,0.429-0.173,0.714-0.867,0.429c0,0.998,0,0.998,0,0.998C24.87,47.888,24.87,47.888,24.87,47.888c0-0.951,0-0.951,0-0.951
		c-0.521-0.285-0.867-0.854-0.867-1.283C24.003,45.084,24.35,44.799,24.986,45.227"/>
	<path style="fill-rule:evenodd;clip-rule:evenodd;fill:#FFFFFF;" d="M49.048,60.523c0-0.808,0-0.808,0-0.808
		C24.986,48.646,24.986,48.646,24.986,48.646c0,0.855,0,0.855,0,0.855c0.693,0.238,0.867,0.808,0.867,1.188
		c0,0.57-0.174,0.856-0.867,0.428c0,0.951,0,0.951,0,0.951c23.944,11.021,23.944,11.021,23.944,11.021c0-0.807,0-0.807,0-0.807
		c-0.52-0.381-0.866-0.808-0.866-1.33C48.064,60.523,48.411,60.238,49.048,60.523"/>
	<path style="fill-rule:evenodd;clip-rule:evenodd;fill:#FFFFFF;" d="M24.986,49.122c0-0.808,0-0.808,0-0.808
		C0.925,37.245,0.925,37.245,0.925,37.245c0,0.856,0,0.856,0,0.856c0.694,0.235,0.867,0.807,0.867,1.187
		c0,0.57-0.173,0.854-0.867,0.57c0,0.808,0,0.808,0,0.808C24.87,51.688,24.87,51.688,24.87,51.688c0-0.807,0-0.807,0-0.807
		c-0.521-0.238-0.867-0.809-0.867-1.331C24.003,49.122,24.35,48.837,24.986,49.122"/>
	<path style="fill-rule:evenodd;clip-rule:evenodd;fill:#FFFFFF;" d="M49.048,45.702c0-0.429,0-0.429,0-0.429
		c-1.504-0.569-1.504-0.569-1.504-0.569l0,0C2.487,23.516,2.487,23.516,2.487,23.516l0,0l0,0c-1.562-0.713-1.562-0.713-1.562-0.713
		c0,0.285,0,0.285,0,0.285c0.521,0.428,0.867,0.856,0.867,1.378c0,0.427-0.347,0.712-0.867,0.427c0,0.428,0,0.428,0,0.428
		c1.388,0.713,1.388,0.713,1.388,0.713l0,0c46.618,21.854,46.618,21.854,46.618,21.854c0.117-0.382,0.117-0.382,0.117-0.382
		c-0.637-0.283-0.983-0.854-0.983-1.377C48.064,45.702,48.411,45.417,49.048,45.702"/>
	<path style="fill-rule:evenodd;clip-rule:evenodd;fill:#273472;" d="M1.851,24.466c0-0.143,0-0.143,0-0.143l-0.115-0.095l0,0l0,0
		c0-0.143,0-0.143,0-0.285H1.562v-0.096l0,0c-0.174,0-0.174,0-0.174,0s0,0,0-0.142l0,0c-0.173,0-0.173,0-0.173,0l0,0
		c0-0.143,0-0.143,0-0.143c-0.174,0-0.174,0-0.174,0l0,0c0,0,0,0-0.174,0c0,0,0,0-0.173,0C0,23.944,0,23.944,0,23.944
		c0.173,0,0.173-0.096,0.173-0.096s0,0,0.174,0c0,0.096,0,0.096,0.174,0.096l0.174,0.142l0,0c0.173,0.143,0.173,0.143,0.173,0.143
		c0,0.095,0,0.095,0,0.095c0.174,0,0.174,0.143,0.174,0.143s0,0,0,0.143v0.095c0,0.142,0,0.142,0,0.285l0,0c0,0,0,0-0.174,0.095
		c0.174-0.095,0.174-0.095,0.174-0.095l0,0c0.174-0.143,0.347-0.143,0.694-0.285c0,0,0,0,0-0.095l0,0l0,0c0,0,0,0,0.115,0V24.466
		L1.851,24.466L1.851,24.466"/>
	<path style="fill-rule:evenodd;clip-rule:evenodd;fill:#657DB9;" d="M0.462,24.799c0-0.76,0-0.76,0-0.76
		c-0.116-0.143-0.116-0.143-0.116-0.143c0,0.76,0,0.76,0,0.76C0.462,24.799,0.462,24.799,0.462,24.799 M0.462,23.753
		c0.232,0.143,0.463,0.57,0.463,0.903c0,0.286-0.231,0.428-0.463,0.286C0.231,24.799,0,24.323,0,24.039
		C0,23.753,0.231,23.563,0.462,23.753L0.462,23.753L0.462,23.753z"/>
	<polygon style="fill-rule:evenodd;clip-rule:evenodd;fill:#FFFFFF;" points="0.925,24.323 0.925,23.706 0,23.563 0,24.229 
		0.925,24.323 	"/>
	<path style="fill-rule:evenodd;clip-rule:evenodd;fill:#273472;" d="M1.851,27.506v-0.143c0,0-0.115,0-0.115-0.095l0,0l0,0v-0.142
		c0-0.143-0.174-0.143-0.174-0.143s0,0,0-0.096l0,0c-0.174,0-0.174,0-0.174,0l0,0c0-0.143,0-0.143,0-0.143c-0.173,0-0.173,0-0.173,0
		l0,0c0,0,0,0,0-0.143c-0.174,0-0.174,0-0.174,0l0,0c0,0,0,0-0.174,0c0,0,0,0-0.173,0C0,26.984,0,26.984,0,26.984
		c0.173,0,0.173,0,0.173,0s0,0,0.174,0c0,0,0,0,0.174,0l0.174,0.143l0,0c0.173,0.142,0.173,0.142,0.173,0.236l0,0
		c0.174,0,0.174,0.143,0.174,0.286l0,0v0.095c0,0.143,0,0.143,0,0.284l0,0c0,0,0,0.096-0.174,0.096
		c0.174-0.096,0.174-0.096,0.174-0.096l0,0c0.174,0,0.347-0.142,0.694-0.284l0,0v-0.095l0,0c0,0,0,0,0.115,0
		C1.851,27.649,1.851,27.649,1.851,27.506L1.851,27.506L1.851,27.506"/>
	<path style="fill-rule:evenodd;clip-rule:evenodd;fill:#657DB9;" d="M0.462,27.744c0-0.713,0-0.713,0-0.713
		c-0.116,0-0.116,0-0.116,0c0,0.57,0,0.57,0,0.57C0.462,27.744,0.462,27.744,0.462,27.744 M0.462,26.746
		c0.232,0.143,0.463,0.57,0.463,0.855c0,0.427-0.231,0.522-0.463,0.285C0.231,27.744,0,27.316,0,27.031S0.231,26.604,0.462,26.746
		L0.462,26.746L0.462,26.746z"/>
	<polygon style="fill-rule:evenodd;clip-rule:evenodd;fill:#FFFFFF;" points="0.925,28.124 0.925,27.363 0,27.363 0,27.981 
		0.925,28.124 	"/>
	<path style="fill-rule:evenodd;clip-rule:evenodd;fill:#273472;" d="M1.851,31.26c0,0,0,0,0-0.143H1.735l0,0
		c0-0.143,0-0.143,0-0.143v-0.143H1.562c0-0.143,0-0.143,0-0.143s0,0,0-0.143c-0.174,0-0.174,0-0.174,0l0,0l0,0
		c-0.173-0.143-0.173-0.143-0.173-0.143l0,0l0,0c-0.174,0-0.174,0-0.174,0l0,0c0,0,0,0-0.174,0c0,0,0,0-0.173,0
		C0,30.689,0,30.689,0,30.689c0.173,0,0.173,0,0.173,0s0,0,0.174,0c0,0,0,0,0.174,0.143c0,0,0.174,0,0.174,0.143l0,0
		c0.173,0,0.173,0.143,0.173,0.143l0,0c0.174,0.143,0.174,0.143,0.174,0.285l0,0c0,0.142,0,0.142,0,0.285v0.143l0,0
		c0,0.095,0,0.095-0.174,0.095c0.174,0,0.174,0,0.174,0l0,0c0.174-0.095,0.347-0.237,0.694-0.237v-0.144l0,0l0,0
		c0,0,0,0,0.115-0.142l0,0C1.851,31.402,1.851,31.402,1.851,31.26L1.851,31.26"/>
	<path style="fill-rule:evenodd;clip-rule:evenodd;fill:#657DB9;" d="M0.462,31.544c0-0.569,0-0.569,0-0.569
		c-0.116-0.143-0.116-0.143-0.116-0.143c0,0.712,0,0.712,0,0.712C0.462,31.544,0.462,31.544,0.462,31.544 M0.462,30.689
		c0.232,0.143,0.463,0.428,0.463,0.854c0,0.286-0.231,0.381-0.463,0.286C0.231,31.688,0,31.26,0,30.975
		C0,30.547,0.231,30.404,0.462,30.689L0.462,30.689L0.462,30.689z"/>
	<polygon style="fill-rule:evenodd;clip-rule:evenodd;fill:#FFFFFF;" points="0.925,31.925 0.925,31.308 0,31.165 0,31.925 
		0.925,31.925 	"/>
	<path style="fill-rule:evenodd;clip-rule:evenodd;fill:#273472;" d="M1.851,35.06c0,0,0,0,0-0.143H1.735l0,0c0,0,0,0,0-0.142
		v-0.143H1.562c0-0.143,0-0.143,0-0.143s0,0,0-0.143c-0.174,0-0.174,0-0.174,0l0,0l0,0c-0.173-0.143-0.173-0.143-0.173-0.143l0,0
		l0,0c-0.174,0-0.174,0-0.174,0l0,0c0,0,0,0-0.174,0c0,0,0,0-0.173,0C0,34.49,0,34.49,0,34.49c0.173,0,0.173,0,0.173,0s0,0,0.174,0
		c0,0,0,0,0.174,0.143c0,0,0.174,0,0.174,0.143l0,0c0.173,0,0.173,0.142,0.173,0.142l0,0c0.174,0.143,0.174,0.143,0.174,0.285l0,0
		c0,0.144,0,0.144,0,0.286v0.142l0,0c0,0.095,0,0.095-0.174,0.095c0.174,0,0.174,0,0.174,0l0,0c0.174-0.095,0.347-0.236,0.694-0.236
		v-0.143l0,0l0,0c0,0,0,0,0.115-0.144l0,0C1.851,35.202,1.851,35.202,1.851,35.06L1.851,35.06"/>
	<path style="fill-rule:evenodd;clip-rule:evenodd;fill:#657DB9;" d="M0.462,35.346c0-0.57,0-0.57,0-0.57
		c-0.116-0.143-0.116-0.143-0.116-0.143c0,0.713,0,0.713,0,0.713C0.462,35.346,0.462,35.346,0.462,35.346 M0.462,34.49
		c0.232,0.143,0.463,0.569,0.463,0.855c0,0.284-0.231,0.379-0.463,0.284C0.231,35.488,0,35.06,0,34.775
		C0,34.348,0.231,34.205,0.462,34.49L0.462,34.49L0.462,34.49z"/>
	<polygon style="fill-rule:evenodd;clip-rule:evenodd;fill:#FFFFFF;" points="0.925,35.725 0.925,35.108 0,34.964 0,35.725 
		0.925,35.725 	"/>
	<path style="fill-rule:evenodd;clip-rule:evenodd;fill:#273472;" d="M1.851,38.861L1.851,38.861c0-0.144-0.115-0.144-0.115-0.144
		l0,0l0,0c0-0.143,0-0.143,0-0.284H1.562V38.29l0,0c-0.174,0-0.174-0.142-0.174-0.142l0,0l0,0c-0.173,0-0.173-0.144-0.173-0.144l0,0
		l0,0c-0.174,0-0.174,0-0.174,0l0,0c0,0,0,0-0.174,0c0,0,0,0-0.173,0C0,38.29,0,38.29,0,38.29c0.173,0,0.173,0,0.173,0s0,0,0.174,0
		c0,0,0,0,0.174,0.144c0,0,0.174,0,0.174,0.142l0,0c0.173,0,0.173,0.143,0.173,0.143s0,0,0,0.144c0.174,0,0.174,0.141,0.174,0.141
		l0,0c0,0.145,0,0.145,0,0.286c0,0.143,0,0.143,0,0.143l0,0c0,0.096,0,0.096-0.174,0.096c0.174,0,0.174,0,0.174,0l0,0
		c0.174-0.096,0.347-0.096,0.694-0.238v-0.142l0,0l0,0c0,0,0,0,0.115,0c0-0.145,0-0.145,0-0.145l0,0
		C1.851,38.861,1.851,38.861,1.851,38.861"/>
	<path style="fill-rule:evenodd;clip-rule:evenodd;fill:#657DB9;" d="M0.462,39.383c0-0.381,0-0.381,0-0.381
		c-0.116-0.047-0.116-0.047-0.116-0.047c0,0.38,0,0.38,0,0.38C0.462,39.383,0.462,39.383,0.462,39.383 M0.462,38.861
		c0.232,0.094,0.463,0.285,0.463,0.474c0,0.144-0.231,0.191-0.463,0.144C0.231,39.383,0,39.146,0,39.002
		C0,38.766,0.231,38.766,0.462,38.861L0.462,38.861L0.462,38.861z"/>
	<polygon style="fill-rule:evenodd;clip-rule:evenodd;fill:#FFFFFF;" points="0.925,39.526 0.925,38.908 0,38.766 0,39.431 
		0.925,39.526 	"/>
	<path style="fill-rule:evenodd;clip-rule:evenodd;fill:#273472;" d="M49.048,46.509c0-0.142,0-0.142,0-0.142v-0.096l0,0l0,0
		c0-0.143-0.174-0.143-0.174-0.285l0,0c0,0,0,0-0.174-0.095l0,0l0,0l0,0c0-0.143-0.174-0.143-0.174-0.143l0,0l0,0
		c-0.173-0.143-0.173-0.143-0.173-0.143s0,0-0.232,0l0,0l0,0h-0.173c-0.752,0.38-0.752,0.38-0.752,0.38s0-0.095,0.231,0l0,0h0.173
		c0.174,0,0.174,0.143,0.348,0.143l0,0c0,0.143,0,0.143,0.173,0.143c0,0.096,0,0.096,0,0.096l0.232,0.142c0,0,0,0,0,0.143v0.096
		c0,0.143,0,0.143,0,0.285l0,0c0,0-0.232,0-0.232,0.095c0-0.095,0-0.095,0-0.095h0.232c0.173-0.143,0.347-0.143,0.521-0.285
		c0,0,0.174,0,0.174-0.096l0,0l0,0l0,0V46.509L49.048,46.509L49.048,46.509"/>
	<path style="fill-rule:evenodd;clip-rule:evenodd;fill:#657DB9;" d="M48.295,46.984c0-0.38,0-0.38,0-0.38
		c-0.289-0.048-0.289-0.048-0.289-0.048c0,0.38,0,0.38,0,0.38C48.295,46.984,48.295,46.984,48.295,46.984 M48.006,46.462
		c0.521,0.095,1.042,0.285,1.042,0.475c0,0.143-0.521,0.19-1.042,0.143c-0.521-0.095-0.81-0.332-0.81-0.475
		S47.485,46.367,48.006,46.462L48.006,46.462L48.006,46.462z"/>
	<path style="fill-rule:evenodd;clip-rule:evenodd;fill:#273472;" d="M49.048,50.31v-0.143c0,0,0,0,0-0.095l0,0l0,0l-0.174-0.143
		c0-0.143,0-0.143,0-0.143s0,0-0.174,0c0-0.096,0-0.096,0-0.096l0,0l0,0l-0.174-0.142l0,0l0,0c-0.173,0-0.173,0-0.173,0
		c0-0.143,0-0.143-0.232-0.143l0,0l0,0c0,0-0.173,0-0.173,0.143c-0.752,0.237-0.752,0.237-0.752,0.237s0,0,0.231,0l0,0h0.173
		c0.174,0,0.174,0.143,0.348,0.143l0,0c0,0.143,0,0.143,0.173,0.237l0,0c0,0.143,0.232,0.143,0.232,0.285l0,0v0.096
		c0,0.142,0,0.142,0,0.284l0,0l-0.232,0.096l0,0c0-0.096,0.232-0.096,0.232-0.096c0.173,0,0.347-0.143,0.521-0.284h0.174
		c0,0,0,0,0-0.096l0,0l0,0C49.048,50.452,49.048,50.452,49.048,50.31L49.048,50.31L49.048,50.31"/>
	<path style="fill-rule:evenodd;clip-rule:evenodd;fill:#657DB9;" d="M48.295,50.548c0-0.714,0-0.714,0-0.714
		c-0.289,0-0.289,0-0.289,0c0,0.571,0,0.571,0,0.571C48.295,50.548,48.295,50.548,48.295,50.548 M48.006,49.55
		c0.521,0.142,1.042,0.57,1.042,0.855c0,0.427-0.521,0.522-1.042,0.284c-0.521-0.142-0.81-0.427-0.81-0.855
		C47.196,49.55,47.485,49.407,48.006,49.55L48.006,49.55L48.006,49.55z"/>
	<path style="fill-rule:evenodd;clip-rule:evenodd;fill:#273472;" d="M49.048,54.063c0,0,0,0,0-0.143l0,0l0,0v-0.143l-0.174-0.143
		l0,0c0-0.144,0-0.144-0.174-0.144c0,0,0,0,0-0.143l0,0l0,0h-0.174c0-0.143,0-0.143,0-0.143l0,0c-0.173,0-0.173,0-0.173,0
		s0,0-0.232,0l0,0l0,0h-0.173c-0.752,0.285-0.752,0.285-0.752,0.285s0,0,0.231,0l0,0c0,0,0.173,0,0.173,0.144
		c0.174,0,0.174,0,0.348,0.143l0,0c0,0,0,0.143,0.173,0.143l0,0c0,0.143,0.232,0.143,0.232,0.284l0,0c0,0.143,0,0.143,0,0.285v0.143
		l0,0c0,0.096-0.232,0.096-0.232,0.096l0,0h0.232c0.173-0.096,0.347-0.238,0.521-0.238l0.174-0.143l0,0l0,0c0,0,0,0,0-0.143l0,0
		C49.048,54.205,49.048,54.205,49.048,54.063L49.048,54.063"/>
	<path style="fill-rule:evenodd;clip-rule:evenodd;fill:#657DB9;" d="M48.295,54.348c0-0.569,0-0.569,0-0.569
		c-0.289-0.143-0.289-0.143-0.289-0.143c0,0.712,0,0.712,0,0.712C48.295,54.348,48.295,54.348,48.295,54.348 M48.006,53.492
		c0.521,0.144,1.042,0.429,1.042,0.855c0,0.285-0.521,0.381-1.042,0.285c-0.521-0.143-0.81-0.569-0.81-0.854
		C47.196,53.35,47.485,53.207,48.006,53.492L48.006,53.492L48.006,53.492z"/>
	<path style="fill-rule:evenodd;clip-rule:evenodd;fill:#273472;" d="M49.048,57.863L49.048,57.863c0-0.143,0-0.143,0-0.143l0,0l0,0
		c0-0.142-0.174-0.142-0.174-0.284l0,0c0-0.143,0-0.143-0.174-0.143c0,0,0,0,0-0.144l0,0l0,0h-0.174v-0.143l0,0
		c-0.173,0-0.173,0-0.173,0s0,0-0.232,0l0,0l0,0h-0.173c-0.752,0.286-0.752,0.286-0.752,0.286s0,0,0.231,0l0,0
		c0,0,0.173,0,0.173,0.143c0.174,0,0.174,0,0.348,0.143l0,0c0,0,0,0.142,0.173,0.142l0,0c0,0.143,0.232,0.143,0.232,0.285l0,0
		c0,0.143,0,0.143,0,0.285v0.143l0,0c0,0.095-0.232,0.095-0.232,0.095l0,0h0.232c0.173-0.095,0.347-0.237,0.521-0.237l0.174-0.143
		l0,0l0,0c0,0,0,0,0-0.143l0,0C49.048,58.006,49.048,58.006,49.048,57.863L49.048,57.863"/>
	<path style="fill-rule:evenodd;clip-rule:evenodd;fill:#657DB9;" d="M48.295,58.148c0-0.569,0-0.569,0-0.569
		c-0.289-0.143-0.289-0.143-0.289-0.143c0,0.712,0,0.712,0,0.712C48.295,58.148,48.295,58.148,48.295,58.148 M48.006,57.294
		c0.521,0.143,1.042,0.569,1.042,0.854s-0.521,0.38-1.042,0.285c-0.521-0.143-0.81-0.57-0.81-0.854
		C47.196,57.15,47.485,57.008,48.006,57.294L48.006,57.294L48.006,57.294z"/>
	<path style="fill-rule:evenodd;clip-rule:evenodd;fill:#273472;" d="M49.048,61.664L49.048,61.664c0-0.143,0-0.143,0-0.143l0,0l0,0
		c0-0.143-0.174-0.143-0.174-0.285l0,0c0,0,0-0.142-0.174-0.142l0,0v-0.143l0,0h-0.174c0,0,0,0,0-0.143l0,0
		c-0.173,0-0.173,0-0.173,0s0,0-0.232,0l0,0l0,0h-0.173c-0.752,0.285-0.752,0.285-0.752,0.285s0,0,0.231,0l0,0
		c0,0,0.173,0,0.173,0.142c0.174,0,0.174,0,0.348,0.143l0,0c0,0,0,0.143,0.173,0.143c0,0,0,0,0,0.143l0.232,0.143l0,0
		c0,0.143,0,0.143,0,0.284c0,0.143,0,0.143,0,0.143l0,0c0,0.096-0.232,0.096-0.232,0.096l0,0h0.232
		c0.173-0.096,0.347-0.096,0.521-0.238l0.174-0.142l0,0l0,0l0,0c0-0.143,0-0.143,0-0.143l0,0V61.664"/>
	<path style="fill-rule:evenodd;clip-rule:evenodd;fill:#657DB9;" d="M48.295,62.044c0-0.76,0-0.76,0-0.76
		c-0.289-0.143-0.289-0.143-0.289-0.143c0,0.76,0,0.76,0,0.76C48.295,62.044,48.295,62.044,48.295,62.044 M48.006,60.999
		c0.521,0.143,1.042,0.569,1.042,0.902c0,0.285-0.521,0.428-1.042,0.285s-0.81-0.618-0.81-0.902
		C47.196,60.81,47.485,60.81,48.006,60.999L48.006,60.999L48.006,60.999z"/>
	<path style="fill-rule:evenodd;clip-rule:evenodd;fill:#273472;" d="M24.986,38.528c0,0,0,0,0-0.238l0,0v-0.188l0,0
		c0,0,0-0.191-0.174-0.191c0,0,0,0,0-0.237l0,0c0,0,0-0.189-0.173-0.189l0,0l0,0c0,0,0,0,0-0.238c-0.173,0-0.173,0-0.173,0l0,0
		c0,0,0,0-0.174,0l0,0l0,0c-0.231,0-0.231,0-0.231,0s0,0-0.174,0c-0.751,0.428-0.751,0.428-0.751,0.428h0.231l0,0
		c0.173,0,0.173,0,0.347,0c0,0.237,0.174,0.237,0.174,0.237c0,0.191,0,0.191,0,0.191c0.174,0,0.174,0,0.174,0.188l0,0
		c0.231,0.238,0.231,0.238,0.231,0.428l0,0c0,0.19,0,0.19,0,0.429v0.188l0,0c0,0,0,0.191-0.231,0.191c0.231,0,0.231,0,0.231,0
		s0,0,0-0.191c0.174,0,0.347-0.188,0.521-0.188c0.174-0.238,0.174-0.238,0.174-0.238l0,0l0,0c0-0.19,0-0.19,0-0.19l0,0V38.528
		L24.986,38.528"/>
	<path style="fill-rule:evenodd;clip-rule:evenodd;fill:#657DB9;" d="M23.713,39.146c0-0.713,0-0.713,0-0.713
		c-0.173,0-0.173,0-0.173,0c0,0.713,0,0.713,0,0.713C23.713,39.146,23.713,39.146,23.713,39.146 M23.713,38.148
		c0.231,0.285,0.348,0.569,0.348,0.998c0,0.284-0.116,0.38-0.348,0.284c-0.289-0.143-0.578-0.569-0.578-0.997
		C23.136,38.148,23.424,38.005,23.713,38.148L23.713,38.148L23.713,38.148z"/>
	<polygon style="fill-rule:evenodd;clip-rule:evenodd;fill:#FFFFFF;" points="23.136,38.005 23.136,38.766 24.061,38.766 
		24.061,38.005 23.136,38.005 	"/>
	<path style="fill-rule:evenodd;clip-rule:evenodd;fill:#273472;" d="M24.986,42.329L24.986,42.329c0-0.238,0-0.238,0-0.238l0,0l0,0
		c0-0.189,0-0.189-0.174-0.38l0,0v-0.238c0,0,0,0-0.173,0c0,0,0,0,0-0.189l0,0l0,0c-0.173,0-0.173,0-0.173-0.237l0,0
		c0,0,0,0-0.174,0l0,0l0,0c-0.231,0-0.231,0-0.231,0s0,0-0.174,0c-0.751,0.665-0.751,0.665-0.751,0.665
		c0-0.238,0.231-0.238,0.231-0.238l0,0c0.173,0,0.173,0.238,0.347,0.238c0,0,0.174,0,0.174,0.19l0,0
		c0.174,0,0.174,0.189,0.174,0.189s0,0,0,0.238c0.231,0,0.231,0.19,0.231,0.19l0,0c0,0.189,0,0.189,0,0.427c0,0.189,0,0.189,0,0.189
		s0,0,0,0.189c0,0,0,0-0.231,0c0.231,0,0.231,0,0.231,0l0,0c0.174-0.189,0.347-0.189,0.521-0.379c0.174,0,0.174,0,0.174-0.237l0,0
		l0,0l0,0c0-0.189,0-0.189,0-0.189l0,0V42.329"/>
	<path style="fill-rule:evenodd;clip-rule:evenodd;fill:#657DB9;" d="M23.713,43.042c0-0.761,0-0.761,0-0.761
		c-0.173-0.144-0.173-0.144-0.173-0.144c0,0.761,0,0.761,0,0.761C23.713,43.042,23.713,43.042,23.713,43.042 M23.713,41.997
		c0.231,0.141,0.348,0.569,0.348,0.901c0,0.286-0.116,0.427-0.348,0.286c-0.289-0.143-0.578-0.618-0.578-0.903
		C23.136,41.997,23.424,41.806,23.713,41.997L23.713,41.997L23.713,41.997z"/>
	<polygon style="fill-rule:evenodd;clip-rule:evenodd;fill:#FFFFFF;" points="24.061,42.566 24.061,41.948 23.136,41.806 
		23.136,42.376 24.061,42.566 	"/>
	<path style="fill-rule:evenodd;clip-rule:evenodd;fill:#273472;" d="M24.986,46.462L24.986,46.462c0-0.144,0-0.144,0-0.144l0,0l0,0
		c0-0.143,0-0.143-0.174-0.284l0,0v-0.143c0,0,0,0-0.173,0l0,0c0-0.143,0-0.143,0-0.143l0,0c-0.173,0-0.173,0-0.173-0.143l0,0
		c0,0,0,0-0.174,0l0,0l0,0c-0.231,0-0.231,0-0.231,0s0,0-0.174,0c-0.751,0.428-0.751,0.428-0.751,0.428
		c0-0.143,0.231-0.143,0.231-0.143l0,0c0.173,0,0.173,0.143,0.347,0.143l0.174,0.142l0,0c0.174,0,0.174,0.143,0.174,0.143v0.144
		c0.231,0,0.231,0.143,0.231,0.143l0,0c0,0.143,0,0.285,0,0.285c0,0.143,0,0.143,0,0.143c0,0.095,0,0.095,0,0.095s0,0-0.231,0
		c0.231,0,0.231,0,0.231,0l0,0c0.174-0.095,0.347-0.095,0.521-0.237c0.174,0,0.174,0,0.174-0.143l0,0l0,0l0,0v-0.143l0,0
		C24.986,46.604,24.986,46.604,24.986,46.462"/>
	<path style="fill-rule:evenodd;clip-rule:evenodd;fill:#657DB9;" d="M23.713,46.841c0-0.759,0-0.759,0-0.759
		c-0.173-0.143-0.173-0.143-0.173-0.143c0,0.761,0,0.761,0,0.761C23.713,46.841,23.713,46.841,23.713,46.841 M23.713,45.796
		c0.231,0.144,0.348,0.571,0.348,0.904c0,0.284-0.116,0.427-0.348,0.284c-0.289-0.144-0.578-0.617-0.578-0.902
		C23.136,45.796,23.424,45.606,23.713,45.796L23.713,45.796L23.713,45.796z"/>
	<polygon style="fill-rule:evenodd;clip-rule:evenodd;fill:#FFFFFF;" points="24.061,47.127 24.061,45.844 23.136,45.606 
		23.136,46.937 24.061,47.127 	"/>
	<path style="fill-rule:evenodd;clip-rule:evenodd;fill:#273472;" d="M24.986,50.31c0-0.143,0-0.143,0-0.143v-0.095l0,0l0,0
		c0-0.143,0-0.143-0.174-0.285l0,0c0,0,0,0,0-0.096c0,0,0,0-0.173,0l0,0l0,0c0-0.142,0-0.142,0-0.142c-0.173,0-0.173,0-0.173,0l0,0
		c0-0.143,0-0.143-0.174-0.143l0,0l0,0c-0.231,0-0.231,0-0.231,0s0,0-0.174,0c-0.751,0.38-0.751,0.38-0.751,0.38
		s0.231-0.096,0.231,0l0,0c0.173,0,0.173,0,0.347,0l0.174,0.143l0,0c0.174,0.143,0.174,0.143,0.174,0.143c0,0.095,0,0.095,0,0.095
		c0.231,0,0.231,0.143,0.231,0.143s0,0,0,0.143v0.096c0,0.142,0,0.142,0,0.284l0,0c0,0,0,0-0.231,0.096
		c0.231-0.096,0.231-0.096,0.231-0.096l0,0c0.174-0.143,0.347-0.143,0.521-0.284c0.174,0,0.174,0,0.174-0.096l0,0l0,0l0,0V50.31
		L24.986,50.31L24.986,50.31"/>
	<path style="fill-rule:evenodd;clip-rule:evenodd;fill:#657DB9;" d="M23.713,50.643c0-0.76,0-0.76,0-0.76
		C23.54,49.74,23.54,49.74,23.54,49.74c0,0.759,0,0.759,0,0.759C23.713,50.643,23.713,50.643,23.713,50.643 M23.713,49.598
		c0.231,0.143,0.348,0.569,0.348,0.901c0,0.286-0.116,0.429-0.348,0.286c-0.289-0.143-0.578-0.618-0.578-0.902
		C23.136,49.598,23.424,49.407,23.713,49.598L23.713,49.598L23.713,49.598z"/>
	<polygon style="fill-rule:evenodd;clip-rule:evenodd;fill:#FFFFFF;" points="24.061,50.928 24.061,49.645 23.136,49.407 
		23.136,50.737 24.061,50.928 	"/>
	<path style="fill-rule:evenodd;clip-rule:evenodd;fill:#273472;" d="M26.837,38.861c0,0,0,0,0-0.144l0,0c0,0,0,0,0-0.143l0,0
		c0,0,0-0.142-0.174-0.142l0,0c0-0.144,0-0.144,0-0.144s0,0-0.174-0.142l0,0l0,0l0,0c-0.173-0.144-0.173-0.144-0.173-0.144l0,0
		c0,0,0,0-0.174,0l0,0l0,0c-0.231,0-0.231,0-0.231,0s0,0-0.173,0c-0.752,0.285-0.752,0.285-0.752,0.285h0.231l0,0
		c0.174,0,0.174,0,0.347,0.144c0,0,0.174,0,0.174,0.142l0,0c0.173,0,0.173,0.143,0.173,0.143l0,0
		c0.231,0.144,0.231,0.144,0.231,0.284l0,0c0,0.145,0,0.145,0,0.286v0.143l0,0c0,0.096,0,0.096-0.231,0.096c0.231,0,0.231,0,0.231,0
		l0,0c0.174-0.096,0.347-0.238,0.521-0.238c0.174-0.142,0.174-0.142,0.174-0.142l0,0l0,0v-0.145l0,0V38.861L26.837,38.861"/>
	<path style="fill-rule:evenodd;clip-rule:evenodd;fill:#657DB9;" d="M25.564,39.146c0-0.571,0-0.571,0-0.571
		c-0.173-0.142-0.173-0.142-0.173-0.142c0,0.713,0,0.713,0,0.713C25.564,39.146,25.564,39.146,25.564,39.146 M25.564,38.148
		c0.232,0.285,0.347,0.569,0.347,0.998c0,0.284-0.115,0.38-0.347,0.284c-0.29-0.143-0.578-0.569-0.578-0.855
		C24.986,38.148,25.275,38.005,25.564,38.148L25.564,38.148L25.564,38.148z"/>
	<path style="fill-rule:evenodd;clip-rule:evenodd;fill:#273472;" d="M26.837,42.803c0-0.141,0-0.141,0-0.141V42.52l0,0l0,0
		c0-0.144,0-0.144-0.174-0.286l0,0v-0.143c0,0,0,0-0.174,0l0,0v-0.143l0,0c-0.173,0-0.173,0-0.173,0s0,0,0-0.143c0,0,0,0-0.174,0
		l0,0l0,0c-0.231,0-0.231,0-0.231,0s0,0-0.173,0c-0.752,0.428-0.752,0.428-0.752,0.428c0-0.143,0.231-0.143,0.231-0.143l0,0
		c0.174,0.143,0.174,0.143,0.347,0.143l0.174,0.143l0,0c0.173,0.144,0.173,0.144,0.173,0.144v0.143c0.231,0,0.231,0.141,0.231,0.141
		l0,0c0,0.144,0,0.286,0,0.286c0,0.143,0,0.143,0,0.236l0,0c0,0,0,0-0.231,0c0.231,0,0.231,0,0.231,0l0,0
		c0.174-0.094,0.347-0.094,0.521-0.236c0.174,0,0.174,0,0.174-0.143l0,0l0,0l0,0V42.803L26.837,42.803L26.837,42.803"/>
	<path style="fill-rule:evenodd;clip-rule:evenodd;fill:#657DB9;" d="M25.564,43.185c0-0.382,0-0.382,0-0.382
		c-0.173-0.047-0.173-0.047-0.173-0.047c0,0.38,0,0.38,0,0.38C25.564,43.185,25.564,43.185,25.564,43.185 M25.564,42.662
		c0.232,0.094,0.347,0.284,0.347,0.474c0,0.143-0.115,0.189-0.347,0.143c-0.29-0.094-0.578-0.332-0.578-0.476
		C24.986,42.662,25.275,42.566,25.564,42.662L25.564,42.662L25.564,42.662z"/>
	<path style="fill-rule:evenodd;clip-rule:evenodd;fill:#273472;" d="M26.837,46.937c0-0.189,0-0.189,0-0.189v-0.19l0,0l0,0
		c0-0.189,0-0.189-0.174-0.381l0,0c0,0,0,0,0-0.189c0,0,0,0-0.174,0l0,0l0,0c0-0.19,0-0.19,0-0.19c-0.173,0-0.173,0-0.173,0l0,0
		c0-0.189,0-0.189-0.174-0.189l0,0l0,0c-0.231,0-0.231,0-0.231,0s0,0-0.173,0c-0.752,0.569-0.752,0.569-0.752,0.569
		s0.231-0.189,0.231,0l0,0c0.174,0,0.174,0,0.347,0l0.174,0.191l0,0c0.173,0.189,0.173,0.189,0.173,0.189c0,0.19,0,0.19,0,0.19
		c0.231,0,0.231,0.189,0.231,0.189s0,0,0,0.19v0.189c0,0.189,0,0.189,0,0.381l0,0c0,0,0,0-0.231,0.19
		c0.231-0.19,0.231-0.19,0.231-0.19l0,0c0.174-0.191,0.347-0.191,0.521-0.381c0.174,0,0.174,0,0.174-0.189l0,0l0,0l0,0V46.937
		L26.837,46.937L26.837,46.937"/>
	<path style="fill-rule:evenodd;clip-rule:evenodd;fill:#657DB9;" d="M25.564,47.602c0-0.761,0-0.761,0-0.761
		C25.392,46.7,25.392,46.7,25.392,46.7c0,0.759,0,0.759,0,0.759C25.564,47.602,25.564,47.602,25.564,47.602 M25.564,46.557
		c0.232,0.144,0.347,0.57,0.347,0.902c0,0.285-0.115,0.429-0.347,0.285c-0.29-0.143-0.578-0.617-0.578-0.903
		C24.986,46.557,25.275,46.367,25.564,46.557L25.564,46.557L25.564,46.557z"/>
	<path style="fill-rule:evenodd;clip-rule:evenodd;fill:#273472;" d="M26.837,50.737c0-0.189,0-0.189,0-0.189v-0.191l0,0l0,0
		c0-0.189,0-0.189-0.174-0.38l0,0c0,0,0,0,0-0.189c0,0,0,0-0.174,0l0,0l0,0c0-0.189,0-0.189,0-0.189c-0.173,0-0.173,0-0.173,0l0,0
		c0,0,0,0-0.174-0.19l0,0l0,0c-0.231,0-0.231,0-0.231,0s0,0-0.173,0c-0.752,0.569-0.752,0.569-0.752,0.569h0.231l0,0
		c0.174,0,0.174,0,0.347,0l0.174,0.19l0,0c0.173,0.189,0.173,0.189,0.173,0.381l0,0c0.231,0,0.231,0.189,0.231,0.189
		c0,0.19,0,0.19,0,0.19v0.189c0,0.19,0,0.19,0,0.38l0,0c0,0,0,0-0.231,0.19c0.231-0.19,0.231-0.19,0.231-0.19l0,0
		c0.174,0,0.347-0.189,0.521-0.38c0.174,0,0.174,0,0.174,0c0-0.189,0-0.189,0-0.189l0,0l0,0
		C26.837,50.928,26.837,50.928,26.837,50.737L26.837,50.737L26.837,50.737"/>
	<path style="fill-rule:evenodd;clip-rule:evenodd;fill:#657DB9;" d="M25.564,51.308c0-0.713,0-0.713,0-0.713
		c-0.173,0-0.173,0-0.173,0c0,0.57,0,0.57,0,0.57C25.564,51.308,25.564,51.308,25.564,51.308 M25.564,50.31
		c0.232,0.143,0.347,0.571,0.347,0.855c0,0.428-0.115,0.522-0.347,0.285c-0.29-0.143-0.578-0.569-0.578-0.855
		C24.986,50.31,25.275,50.167,25.564,50.31L25.564,50.31L25.564,50.31z"/>
	<path style="fill-rule:evenodd;clip-rule:evenodd;fill:#7B97CB;" d="M9.891,28.124c0,0.285,0.289,0.285,0.289,0.522
		c0,0.238-0.289,0.238-0.289,0.238c-0.29-0.238-0.637-0.238-0.637-0.476C9.254,28.124,9.601,28.124,9.891,28.124L9.891,28.124"/>
	<path style="fill-rule:evenodd;clip-rule:evenodd;fill:#7B97CB;" d="M5.09,29.645c0,0.285,0.462,0.522,0.462,0.522
		c0,0.237-0.462,0.237-0.462,0.237c-0.463,0-0.463-0.237-0.463-0.475C4.627,29.645,4.627,29.645,5.09,29.645L5.09,29.645"/>
	<path style="fill-rule:evenodd;clip-rule:evenodd;fill:#7B97CB;" d="M5.09,29.074c0,0,0.462,0.189,0.462,0.38
		c0,0-0.462,0.19-0.462,0c-0.463,0-0.463-0.19-0.463-0.38C4.627,29.074,4.627,28.885,5.09,29.074L5.09,29.074"/>
	<path style="fill-rule:evenodd;clip-rule:evenodd;fill:#7B97CB;" d="M19.896,40.285c0,0.286,0.462,0.286,0.462,0.522
		c0,0.238-0.462,0.238-0.462,0.238c-0.463-0.238-0.463-0.238-0.463-0.475C19.434,40.285,19.434,40.285,19.896,40.285L19.896,40.285"
		/>
	<path style="fill-rule:evenodd;clip-rule:evenodd;fill:#7B97CB;" d="M19.896,39.811l0.462,0.238c0,0.236-0.462,0.236-0.462,0.236
		c-0.463,0-0.463-0.236-0.463-0.475C19.434,39.811,19.434,39.526,19.896,39.811L19.896,39.811"/>
	<path style="fill-rule:evenodd;clip-rule:evenodd;fill:#7B97CB;" d="M19.896,44.276c0,0,0.462,0.189,0.462,0.38
		c0,0-0.462,0.19-0.462,0c-0.463,0-0.463-0.19-0.463-0.38C19.434,44.276,19.434,44.086,19.896,44.276L19.896,44.276"/>
	<path style="fill-rule:evenodd;clip-rule:evenodd;fill:#7B97CB;" d="M19.896,43.325c0,0.286,0.462,0.286,0.462,0.524
		c0,0.236-0.462,0.236-0.462,0.236c-0.463-0.236-0.463-0.475-0.463-0.475C19.434,43.325,19.434,43.325,19.896,43.325L19.896,43.325"
		/>
	<path style="fill-rule:evenodd;clip-rule:evenodd;fill:#7B97CB;" d="M43.958,47.888c0.462,0.284,0.462,0.522,0.462,0.522
		c0,0.236,0,0.236-0.462,0.236c0,0-0.464-0.236-0.464-0.475C43.494,47.888,43.958,47.888,43.958,47.888L43.958,47.888"/>
	<path style="fill-rule:evenodd;clip-rule:evenodd;fill:#7B97CB;" d="M43.958,47.316c0.462,0,0.462,0.189,0.462,0.381
		c0,0,0,0.19-0.462,0c0,0-0.464-0.191-0.464-0.381C43.494,47.316,43.958,47.127,43.958,47.316L43.958,47.316"/>
	<path style="fill-rule:evenodd;clip-rule:evenodd;fill:#7B97CB;" d="M44.883,47.888c0,0.284,0.463,0.522,0.463,0.522
		c0,0.236-0.463,0.236-0.463,0.236c-0.463,0-0.463-0.236-0.463-0.475C44.42,47.888,44.42,47.888,44.883,47.888L44.883,47.888"/>
	<path style="fill-rule:evenodd;clip-rule:evenodd;fill:#7B97CB;" d="M44.883,47.316c0,0,0.463,0.189,0.463,0.381
		c0,0-0.463,0.19-0.463,0c-0.463,0-0.463-0.191-0.463-0.381C44.42,47.316,44.42,47.127,44.883,47.316L44.883,47.316"/>
	<path style="fill-rule:evenodd;clip-rule:evenodd;fill:#7B97CB;" d="M9.891,27.649l0.289,0.237c0,0.237-0.289,0.237-0.289,0.237
		c-0.29,0-0.637-0.237-0.637-0.475C9.254,27.363,9.601,27.363,9.891,27.649L9.891,27.649"/>
	<polygon style="fill-rule:evenodd;clip-rule:evenodd;fill:#354990;" points="7.403,29.645 7.577,29.645 9.254,30.404 9.138,30.404 
		7.403,29.645 7.403,29.645 7.403,29.645 	"/>
	<polygon style="fill-rule:evenodd;clip-rule:evenodd;fill:#657DB9;" points="7.403,29.645 9.254,30.499 9.254,31.925 7.403,31.117 
		7.403,29.645 7.403,29.645 7.403,29.645 	"/>
	<polygon style="fill-rule:evenodd;clip-rule:evenodd;fill:#273472;" points="8.907,30.119 8.907,30.404 9.254,30.595 9.254,31.925 
		7.403,31.021 7.403,29.645 7.808,29.834 7.808,29.645 8.907,30.119 8.907,30.119 8.907,30.119 	"/>
	<polygon style="fill-rule:evenodd;clip-rule:evenodd;fill:#273472;" points="16.657,34.348 17.583,34.205 17.583,35.725 
		16.657,35.725 16.657,34.348 16.657,34.348 16.657,34.348 	"/>
	<polygon style="fill-rule:evenodd;clip-rule:evenodd;fill:#354990;" points="15.732,33.444 15.906,33.444 17.583,34.11 
		17.467,34.205 15.732,33.444 15.732,33.444 15.732,33.444 	"/>
	<polygon style="fill-rule:evenodd;clip-rule:evenodd;fill:#657DB9;" points="15.732,33.444 16.657,34.348 16.657,35.725 
		15.732,34.87 15.732,33.444 15.732,33.444 15.732,33.444 	"/>
	<polygon style="fill-rule:evenodd;clip-rule:evenodd;fill:#273472;" points="16.599,33.872 16.599,34.3 16.657,34.442 
		16.657,35.725 15.732,34.87 15.732,33.588 15.848,33.729 15.848,33.444 16.599,33.872 16.599,33.872 16.599,33.872 	"/>
	<polygon style="fill-rule:evenodd;clip-rule:evenodd;fill:#354990;" points="5.552,36.627 5.726,36.485 7.403,37.15 7.287,37.245 
		5.552,36.627 5.552,36.627 5.552,36.627 	"/>
	<polygon style="fill-rule:evenodd;clip-rule:evenodd;fill:#657DB9;" points="5.552,36.485 7.403,37.292 7.403,38.766 5.552,38.005 
		5.552,36.485 5.552,36.485 5.552,36.485 	"/>
	<polygon style="fill-rule:evenodd;clip-rule:evenodd;fill:#273472;" points="7.346,37.578 7.346,37.721 7.403,37.816 7.403,38.766 
		6.478,38.337 6.478,37.388 6.708,37.483 6.708,37.245 7.346,37.578 7.346,37.578 7.346,37.578 	"/>
	<polygon style="fill-rule:evenodd;clip-rule:evenodd;fill:#354990;" points="8.328,38.005 8.502,38.005 10.179,38.766 
		10.063,38.766 8.328,38.005 8.328,38.005 8.328,38.005 	"/>
	<polygon style="fill-rule:evenodd;clip-rule:evenodd;fill:#657DB9;" points="8.328,38.005 10.179,38.861 10.179,40.285 
		8.328,39.573 8.328,38.005 8.328,38.005 8.328,38.005 	"/>
	<polygon style="fill-rule:evenodd;clip-rule:evenodd;fill:#273472;" points="9.775,38.337 9.775,38.481 10.179,38.575 
		10.179,39.526 8.328,39.002 8.328,38.005 8.792,38.148 8.792,38.005 9.775,38.337 9.775,38.337 9.775,38.337 	"/>
	<polygon style="fill-rule:evenodd;clip-rule:evenodd;fill:#354990;" points="13.881,40.285 14.17,40.285 15.732,41.046 
		15.616,41.046 13.881,40.285 13.881,40.285 13.881,40.285 	"/>
	<polygon style="fill-rule:evenodd;clip-rule:evenodd;fill:#657DB9;" points="13.881,40.285 15.732,41.046 15.732,42.566 
		13.881,41.711 13.881,40.285 13.881,40.285 13.881,40.285 	"/>
	<polygon style="fill-rule:evenodd;clip-rule:evenodd;fill:#273472;" points="15.501,41.379 15.501,41.521 15.732,41.711 
		15.732,42.566 14.807,42.044 14.807,41.046 15.038,41.188 15.038,41.046 15.501,41.379 15.501,41.379 15.501,41.379 	"/>
	<polygon style="fill-rule:evenodd;clip-rule:evenodd;fill:#354990;" points="12.031,43.421 12.204,43.325 13.881,43.991 
		13.766,44.086 12.031,43.421 12.031,43.421 12.031,43.421 	"/>
	<polygon style="fill-rule:evenodd;clip-rule:evenodd;fill:#657DB9;" points="12.031,43.325 13.881,44.229 13.881,45.606 
		12.031,44.752 12.031,43.325 12.031,43.325 12.031,43.325 	"/>
	<polygon style="fill-rule:evenodd;clip-rule:evenodd;fill:#273472;" points="12.898,43.801 12.898,44.086 12.956,44.276 
		12.956,45.606 12.031,44.847 12.031,43.517 12.262,43.658 12.262,43.325 12.898,43.801 12.898,43.801 12.898,43.801 	"/>
	<polygon style="fill-rule:evenodd;clip-rule:evenodd;fill:#354990;" points="16.657,41.806 16.831,41.806 18.508,42.471 
		18.393,42.566 16.657,41.806 16.657,41.806 16.657,41.806 	"/>
	<polygon style="fill-rule:evenodd;clip-rule:evenodd;fill:#657DB9;" points="16.657,41.806 18.508,42.613 18.508,44.086 
		16.657,43.325 16.657,41.806 16.657,41.806 16.657,41.806 	"/>
	<polygon style="fill-rule:evenodd;clip-rule:evenodd;fill:#273472;" points="18.161,42.281 18.161,42.566 18.508,42.756 
		18.508,44.086 16.657,43.325 16.657,41.997 17.063,42.138 17.063,41.806 18.161,42.281 18.161,42.281 18.161,42.281 	"/>
	<polygon style="fill-rule:evenodd;clip-rule:evenodd;fill:#354990;" points="38.868,41.046 39.157,41.046 40.719,41.806 
		40.603,41.806 38.868,41.046 38.868,41.046 38.868,41.046 	"/>
	<polygon style="fill-rule:evenodd;clip-rule:evenodd;fill:#657DB9;" points="38.868,41.046 40.719,41.948 40.719,43.325 
		38.868,42.471 38.868,41.046 38.868,41.046 38.868,41.046 	"/>
	<polygon style="fill-rule:evenodd;clip-rule:evenodd;fill:#273472;" points="39.678,41.664 39.678,41.806 39.793,41.997 
		39.793,43.325 38.868,42.424 38.868,41.046 39.099,41.379 39.099,41.046 39.678,41.664 39.678,41.664 39.678,41.664 	"/>
	<polygon style="fill-rule:evenodd;clip-rule:evenodd;fill:#354990;" points="31.464,53.207 31.638,53.207 33.314,53.872 
		33.199,53.968 31.464,53.207 31.464,53.207 31.464,53.207 	"/>
	<polygon style="fill-rule:evenodd;clip-rule:evenodd;fill:#657DB9;" points="31.464,53.207 33.314,53.778 33.314,54.729 
		31.464,54.205 31.464,53.207 31.464,53.207 31.464,53.207 	"/>
	<polygon style="fill-rule:evenodd;clip-rule:evenodd;fill:#273472;" points="33.142,53.54 33.142,53.73 33.314,53.825 
		33.314,54.729 31.464,54.253 31.464,53.35 31.927,53.445 31.927,53.207 33.142,53.54 33.142,53.54 33.142,53.54 	"/>
	<polygon style="fill-rule:evenodd;clip-rule:evenodd;fill:#354990;" points="33.314,53.398 33.314,53.207 35.165,54.537 
		35.165,54.729 33.314,53.398 33.314,53.398 33.314,53.398 	"/>
	<polygon style="fill-rule:evenodd;clip-rule:evenodd;fill:#657DB9;" points="33.314,53.968 35.165,54.87 35.165,56.249 
		33.314,55.393 33.314,53.968 33.314,53.968 33.314,53.968 	"/>
	<polygon style="fill-rule:evenodd;clip-rule:evenodd;fill:#273472;" points="34.818,54.396 34.818,54.586 35.165,54.68 
		35.165,55.488 33.314,55.013 33.314,54.205 33.72,54.301 33.72,53.968 34.818,54.396 34.818,54.396 34.818,54.396 	"/>
	<polygon style="fill-rule:evenodd;clip-rule:evenodd;fill:#354990;" points="35.165,54.823 35.339,54.729 37.017,55.393 
		36.9,55.488 35.165,54.823 35.165,54.823 35.165,54.823 	"/>
	<polygon style="fill-rule:evenodd;clip-rule:evenodd;fill:#657DB9;" points="35.165,54.729 37.017,55.631 37.017,57.008 
		35.165,56.153 35.165,54.729 35.165,54.729 35.165,54.729 	"/>
	<polygon style="fill-rule:evenodd;clip-rule:evenodd;fill:#273472;" points="36.612,55.062 36.612,55.251 37.017,55.346 
		37.017,56.249 35.165,55.773 35.165,54.87 35.397,54.966 35.397,54.729 36.612,55.062 36.612,55.062 36.612,55.062 	"/>
	<polygon style="fill-rule:evenodd;clip-rule:evenodd;fill:#354990;" points="37.017,55.631 37.19,55.488 38.868,56.249 
		38.752,56.249 37.017,55.631 37.017,55.631 37.017,55.631 	"/>
	<polygon style="fill-rule:evenodd;clip-rule:evenodd;fill:#657DB9;" points="37.017,55.488 38.868,56.153 38.868,57.769 
		37.017,56.914 37.017,55.488 37.017,55.488 37.017,55.488 	"/>
	<polygon style="fill-rule:evenodd;clip-rule:evenodd;fill:#273472;" points="37.884,55.82 37.884,55.963 37.942,56.058 
		37.942,57.008 37.017,56.485 37.017,55.488 37.363,55.631 37.363,55.488 37.884,55.82 37.884,55.82 37.884,55.82 	"/>
	<polygon style="fill-rule:evenodd;clip-rule:evenodd;fill:#273472;" points="39.793,57.008 40.719,57.008 40.719,58.528 
		39.793,58.528 39.793,57.008 39.793,57.008 39.793,57.008 	"/>
	<polygon style="fill-rule:evenodd;clip-rule:evenodd;fill:#354990;" points="38.868,56.249 39.041,56.249 40.719,57.008 
		40.487,57.008 38.868,56.249 38.868,56.249 38.868,56.249 	"/>
	<polygon style="fill-rule:evenodd;clip-rule:evenodd;fill:#657DB9;" points="38.868,56.249 39.793,57.15 39.793,58.528 
		38.868,57.91 38.868,56.249 38.868,56.249 38.868,56.249 	"/>
	<polygon style="fill-rule:evenodd;clip-rule:evenodd;fill:#273472;" points="39.735,56.865 39.735,57.008 39.793,57.198 
		39.793,58.528 38.868,57.626 38.868,56.249 39.215,56.581 39.215,56.249 39.735,56.865 39.735,56.865 39.735,56.865 	"/>
	<polygon style="fill-rule:evenodd;clip-rule:evenodd;fill:#354990;" points="39.793,57.008 40.255,57.008 42.569,57.769 
		42.569,57.769 39.793,57.008 39.793,57.008 39.793,57.008 	"/>
	<polygon style="fill-rule:evenodd;clip-rule:evenodd;fill:#657DB9;" points="39.793,57.008 42.569,57.91 42.569,59.289 
		39.793,58.434 39.793,57.008 39.793,57.008 39.793,57.008 	"/>
	<polygon style="fill-rule:evenodd;clip-rule:evenodd;fill:#273472;" points="41.413,57.626 41.413,57.769 41.644,57.959 
		41.644,59.289 40.719,58.386 40.719,57.008 40.949,57.198 40.949,57.008 41.413,57.626 41.413,57.626 41.413,57.626 	"/>
	<polygon style="fill-rule:evenodd;clip-rule:evenodd;fill:#354990;" points="40.719,42.566 40.719,42.566 42.569,43.231 
		42.454,43.325 40.719,42.566 40.719,42.566 40.719,42.566 	"/>
	<polygon style="fill-rule:evenodd;clip-rule:evenodd;fill:#657DB9;" points="40.719,42.566 42.569,43.469 42.569,44.847 
		40.719,43.991 40.719,42.566 40.719,42.566 40.719,42.566 	"/>
	<polygon style="fill-rule:evenodd;clip-rule:evenodd;fill:#273472;" points="42.396,42.946 42.396,43.136 42.569,43.231 
		42.569,44.086 41.644,43.517 41.644,42.662 41.76,42.756 41.76,42.566 42.396,42.946 42.396,42.946 42.396,42.946 	"/>
	<polygon style="fill-rule:evenodd;clip-rule:evenodd;fill:#354990;" points="35.165,39.669 35.339,39.526 37.017,40.285 
		36.9,40.285 35.165,39.669 35.165,39.669 35.165,39.669 	"/>
	<polygon style="fill-rule:evenodd;clip-rule:evenodd;fill:#657DB9;" points="35.165,39.526 37.017,40.191 37.017,41.806 
		35.165,40.95 35.165,39.526 35.165,39.526 35.165,39.526 	"/>
	<polygon style="fill-rule:evenodd;clip-rule:evenodd;fill:#273472;" points="34.24,39.002 35.165,38.766 35.165,40.191 
		34.24,40.285 34.24,39.002 34.24,39.002 34.24,39.002 	"/>
	<polygon style="fill-rule:evenodd;clip-rule:evenodd;fill:#354990;" points="33.314,38.195 33.314,38.005 35.165,39.146 
		35.05,39.526 33.314,38.195 33.314,38.195 33.314,38.195 	"/>
	<polygon style="fill-rule:evenodd;clip-rule:evenodd;fill:#657DB9;" points="33.314,38.005 34.24,38.908 34.24,40.285 
		33.314,39.431 33.314,38.005 33.314,38.005 33.314,38.005 	"/>
	<polygon style="fill-rule:evenodd;clip-rule:evenodd;fill:#273472;" points="33.431,40.001 33.431,39.858 33.314,39.763 
		33.314,38.766 34.24,39.431 34.24,40.285 33.951,40.191 33.951,40.285 33.431,40.001 33.431,40.001 33.431,40.001 	"/>
	<polygon style="fill-rule:evenodd;clip-rule:evenodd;fill:#273472;" points="35.629,40.761 35.629,40.618 35.165,40.523 
		35.165,39.526 37.017,40.096 37.017,41.046 36.843,40.95 36.843,41.046 35.629,40.761 35.629,40.761 35.629,40.761 	"/>
	<path style="fill-rule:evenodd;clip-rule:evenodd;fill:#3F5792;" d="M8.676,34.964c0.29,0.286,0.578,0.524,0.578,0.524
		c0,0.236-0.289,0.236-0.578,0.236c0,0-0.348-0.236-0.348-0.475C8.328,34.964,8.676,34.964,8.676,34.964L8.676,34.964"/>
	<path style="fill-rule:evenodd;clip-rule:evenodd;fill:#4B68AF;" d="M8.328,35.155c0,0,0,0,0.232,0.19c0.231,0.379,0,0.379,0,0.379
		c0.694-0.189,0.694-0.189,0.694-0.189s0-0.189,0-0.38c-0.231-0.191-0.462-0.191-0.462-0.191
		C8.328,35.155,8.328,35.155,8.328,35.155"/>
	<polygon style="fill-rule:evenodd;clip-rule:evenodd;fill:#273472;" points="15.211,37.437 15.732,37.245 15.385,37.91 
		14.807,38.005 15.211,37.437 15.211,37.437 	"/>
	<polygon style="fill-rule:evenodd;clip-rule:evenodd;fill:#4B68AF;" points="9.254,34.49 9.775,34.205 15.732,37.008 
		15.269,37.245 9.254,34.49 9.254,34.49 	"/>
	<polygon style="fill-rule:evenodd;clip-rule:evenodd;fill:#2F4276;" points="14.807,37.388 14.517,38.005 9.601,35.868 
		9.254,34.964 14.807,37.388 14.807,37.388 	"/>
	<path style="fill-rule:evenodd;clip-rule:evenodd;fill:#3F5792;" d="M15.269,38.005c0.463,0.19,0.463,0.381,0.463,0.381
		c0,0.189,0,0.38-0.463,0.189c-0.462,0-0.462-0.189-0.462-0.38S14.807,38.005,15.269,38.005L15.269,38.005"/>
	<path style="fill-rule:evenodd;clip-rule:evenodd;fill:#4B68AF;" d="M14.807,38.195c0,0,0.231,0,0.405,0.19
		c0.174,0.38,0,0.38,0,0.38c0.347-0.19,0.347-0.19,0.347-0.19s0.174-0.189,0-0.38c0-0.19-0.173-0.19-0.173-0.19
		C14.807,38.195,14.807,38.195,14.807,38.195"/>
	<path style="fill-rule:evenodd;clip-rule:evenodd;fill:#4B68AF;" d="M29.613,45.037c0,0,0,0,0.231,0.189c0.232,0.19,0,0.38,0,0.38
		c0.694-0.38,0.694-0.38,0.694-0.38s0,0,0-0.189c-0.231-0.19-0.462-0.19-0.462-0.19C29.613,45.037,29.613,45.037,29.613,45.037"/>
	<polygon style="fill-rule:evenodd;clip-rule:evenodd;fill:#4B68AF;" points="29.613,45.084 30.076,44.847 35.165,47.032 
		34.877,47.127 29.613,45.084 29.613,45.084 	"/>
	<polygon style="fill-rule:evenodd;clip-rule:evenodd;fill:#2F4276;" points="35.165,47.079 34.877,47.888 29.96,45.796 
		29.613,44.847 35.165,47.079 35.165,47.079 	"/>
	<path style="fill-rule:evenodd;clip-rule:evenodd;fill:#4B68AF;" d="M35.165,47.316c0,0,0.232,0,0.232,0.189
		c0.173,0.382,0.173,0.382,0.173,0.382c0.348-0.19,0.348-0.19,0.348-0.19s0.173-0.191,0-0.381c-0.174-0.189-0.348-0.189-0.348-0.189
		C35.165,47.316,35.165,47.316,35.165,47.316"/>
	<polygon style="fill-rule:evenodd;clip-rule:evenodd;fill:#4B68AF;" points="37.017,48.22 37.479,47.888 42.569,50.785 
		42.106,50.928 37.017,48.22 37.017,48.22 	"/>
	<polygon style="fill-rule:evenodd;clip-rule:evenodd;fill:#2F4276;" points="42.569,50.881 42.454,51.688 37.19,49.598 
		37.017,48.646 42.569,50.881 42.569,50.881 	"/>
	<path style="fill-rule:evenodd;clip-rule:evenodd;fill:#3F5792;" d="M42.916,50.928c0.289,0.189,0.578,0.38,0.578,0.569
		c0,0-0.289,0.19-0.578,0c0,0-0.347-0.189-0.347-0.38C42.569,50.928,42.916,50.928,42.916,50.928L42.916,50.928"/>
	<path style="fill-rule:evenodd;clip-rule:evenodd;fill:#4B68AF;" d="M42.569,51.117c0,0,0,0,0.231,0.19c0.23,0.38,0,0.38,0,0.38
		c0.693-0.19,0.693-0.19,0.693-0.19s0-0.189,0-0.38c-0.23-0.189-0.463-0.189-0.463-0.189C42.569,51.117,42.569,51.117,42.569,51.117
		"/>
	<path style="fill-rule:evenodd;clip-rule:evenodd;fill:#4B68AF;" d="M29.613,48.979c0,0,0-0.143,0.231,0.143
		c0.232,0.143,0,0.285,0,0.285c0.694-0.285,0.694-0.285,0.694-0.285s0-0.143,0-0.285c-0.231-0.19-0.462-0.19-0.462-0.19
		C29.613,48.979,29.613,48.979,29.613,48.979"/>
	<polygon style="fill-rule:evenodd;clip-rule:evenodd;fill:#4B68AF;" points="29.613,48.789 30.076,48.646 35.165,50.737 
		34.877,50.928 29.613,48.789 29.613,48.789 	"/>
	<polygon style="fill-rule:evenodd;clip-rule:evenodd;fill:#2F4276;" points="35.165,50.928 34.877,51.688 29.96,49.691 
		29.613,48.646 35.165,50.928 35.165,50.928 	"/>
	<path style="fill-rule:evenodd;clip-rule:evenodd;fill:#4B68AF;" d="M37.017,52.78c0,0,0.231-0.143,0.405,0.143
		c0.173,0.143,0,0.284,0,0.284c0.347-0.284,0.347-0.284,0.347-0.284s0.174-0.143,0-0.285c0-0.19-0.174-0.19-0.174-0.19
		C37.017,52.78,37.017,52.78,37.017,52.78"/>
	<polygon style="fill-rule:evenodd;clip-rule:evenodd;fill:#4B68AF;" points="37.017,51.877 37.479,51.688 42.569,54.443 
		42.106,54.729 37.017,51.877 37.017,51.877 	"/>
	<polygon style="fill-rule:evenodd;clip-rule:evenodd;fill:#2F4276;" points="42.569,54.729 42.454,55.488 37.19,53.492 
		37.017,52.447 42.569,54.729 42.569,54.729 	"/>
	<path style="fill-rule:evenodd;clip-rule:evenodd;fill:#3F5792;" d="M42.916,54.729c0.289,0,0.578,0.284,0.578,0.522
		c0,0.237-0.289,0.237-0.578,0.237c0-0.237-0.347-0.237-0.347-0.476C42.569,54.729,42.916,54.729,42.916,54.729L42.916,54.729"/>
	<path style="fill-rule:evenodd;clip-rule:evenodd;fill:#4B68AF;" d="M42.569,54.918c0,0,0,0,0.231,0.19c0.23,0.189,0,0.38,0,0.38
		c0.693-0.19,0.693-0.19,0.693-0.19s0-0.189,0-0.38c-0.23-0.189-0.463-0.189-0.463-0.189C42.569,54.918,42.569,54.918,42.569,54.918
		"/>
	<path style="fill-rule:evenodd;clip-rule:evenodd;fill:#4B68AF;" d="M13.881,45.037c0,0,0.231,0,0.405,0.189
		c0.173,0.19,0,0.38,0,0.38c0.521-0.189,0.521-0.189,0.521-0.189s0-0.19,0-0.38c-0.174-0.19-0.348-0.19-0.348-0.19
		C13.881,45.037,13.881,45.037,13.881,45.037"/>
	<polygon style="fill-rule:evenodd;clip-rule:evenodd;fill:#273472;" points="22.673,48.837 23.136,48.646 22.904,49.312 
		22.209,49.407 22.673,48.837 22.673,48.837 	"/>
	<polygon style="fill-rule:evenodd;clip-rule:evenodd;fill:#4B68AF;" points="13.881,45.084 14.576,44.847 23.136,48.457 
		22.846,48.646 13.881,45.084 13.881,45.084 	"/>
	<polygon style="fill-rule:evenodd;clip-rule:evenodd;fill:#2F4276;" points="22.209,48.695 21.921,49.407 14.228,45.844 
		13.881,44.847 22.209,48.695 22.209,48.695 	"/>
	<path style="fill-rule:evenodd;clip-rule:evenodd;fill:#4B68AF;" d="M31.464,41.997c0,0,0.231,0,0.405,0.189s0,0.38,0,0.38
		c0.521-0.19,0.521-0.19,0.521-0.19s0-0.189,0-0.379c-0.174-0.191-0.347-0.191-0.347-0.191
		C31.464,41.997,31.464,41.997,31.464,41.997"/>
	<polygon style="fill-rule:evenodd;clip-rule:evenodd;fill:#273472;" points="40.198,45.796 40.719,45.606 40.545,46.176 
		39.793,46.367 40.198,45.796 40.198,45.796 	"/>
	<polygon style="fill-rule:evenodd;clip-rule:evenodd;fill:#4B68AF;" points="32.39,42.044 32.853,41.806 40.719,45.417 
		40.313,45.606 32.39,42.044 32.39,42.044 	"/>
	<polygon style="fill-rule:evenodd;clip-rule:evenodd;fill:#2F4276;" points="39.793,45.653 39.562,46.367 32.563,42.803 
		32.39,41.806 39.793,45.653 39.793,45.653 	"/>
	<path style="fill-rule:evenodd;clip-rule:evenodd;fill:#4B68AF;" d="M39.793,45.796c0,0,0.231,0,0.405,0.19
		c0,0.381,0,0.381,0,0.381c0.347-0.191,0.347-0.191,0.347-0.191s0.174-0.189,0-0.38c-0.174-0.189-0.174-0.189-0.174-0.189
		C39.793,45.796,39.793,45.796,39.793,45.796"/>
	<path style="fill-rule:evenodd;clip-rule:evenodd;fill:#3F5792;" d="M2.487,39.526c0,0,0.289,0.284,0.289,0.522
		c0,0.236-0.289,0.236-0.289,0.236c-0.29-0.236-0.636-0.475-0.636-0.475C1.851,39.526,2.197,39.526,2.487,39.526L2.487,39.526"/>
	<path style="fill-rule:evenodd;clip-rule:evenodd;fill:#4B68AF;" d="M1.851,39.858c0,0,0.231,0,0.231,0.143
		c0.231,0.142,0,0.284,0,0.284c0.694-0.284,0.694-0.284,0.694-0.284s0,0,0-0.143c-0.231-0.332-0.463-0.143-0.463-0.143
		C1.851,39.858,1.851,39.858,1.851,39.858"/>
	<polygon style="fill-rule:evenodd;clip-rule:evenodd;fill:#273472;" points="10.526,43.517 11.105,43.325 10.642,43.801 
		10.179,44.086 10.526,43.517 10.526,43.517 	"/>
	<polygon style="fill-rule:evenodd;clip-rule:evenodd;fill:#4B68AF;" points="2.776,39.763 3.238,39.526 11.105,43.136 
		10.526,43.325 2.776,39.763 2.776,39.763 	"/>
	<polygon style="fill-rule:evenodd;clip-rule:evenodd;fill:#2F4276;" points="11.105,43.374 10.816,44.086 3.123,40.523 
		2.776,39.526 11.105,43.374 11.105,43.374 	"/>
	<path style="fill-rule:evenodd;clip-rule:evenodd;fill:#4B68AF;" d="M11.105,43.517c0,0,0.231,0,0.405,0.19
		c0.173,0.189,0,0.379,0,0.379c0.347-0.189,0.347-0.189,0.347-0.189s0.174-0.189,0-0.38c0-0.191-0.174-0.191-0.174-0.191
		C11.105,43.517,11.105,43.517,11.105,43.517"/>
	<polygon style="fill-rule:evenodd;clip-rule:evenodd;fill:#273472;" points="53.675,66.271 54.599,66.13 54.599,66.795 
		53.675,66.89 53.675,66.271 53.675,66.271 53.675,66.271 	"/>
	<polygon style="fill-rule:evenodd;clip-rule:evenodd;fill:#4B68AF;" points="0,40.428 0.521,40.285 54.599,66.034 54.137,66.13 
		0,40.428 0,40.428 0,40.428 	"/>
	<polygon style="fill-rule:evenodd;clip-rule:evenodd;fill:#354990;" points="53.675,66.271 53.675,66.89 0,41.568 0,41.046 
		53.675,66.271 53.675,66.271 53.675,66.271 	"/>
	<polygon style="fill-rule:evenodd;clip-rule:evenodd;fill:#273472;" points="54.312,48.172 54.599,47.888 54.599,66.034 
		53.675,66.13 54.312,48.172 54.312,48.172 54.312,48.172 	"/>
	<polygon style="fill-rule:evenodd;clip-rule:evenodd;fill:#4B68AF;" points="49.048,45.18 49.221,44.847 54.599,47.602 
		54.484,47.888 49.048,45.18 49.048,45.18 49.048,45.18 	"/>
	<polygon style="fill-rule:evenodd;clip-rule:evenodd;fill:#354990;" points="54.599,48.03 54.312,66.13 49.048,63.754 
		49.221,45.606 54.599,48.03 54.599,48.03 54.599,48.03 	"/>
	<polygon style="fill-rule:evenodd;clip-rule:evenodd;fill:#4B68AF;" points="0,20.665 0.521,20.523 54.599,46.271 54.484,46.367 
		0,20.665 0,20.665 0,20.665 	"/>
	<polygon style="fill-rule:evenodd;clip-rule:evenodd;fill:#354990;" points="54.599,45.892 54.599,47.127 0,21.806 0,20.523 
		54.599,45.892 54.599,45.892 54.599,45.892 	"/>
</g>
</svg>