<?xml version="1.0" encoding="iso-8859-1"?>
<!DOCTYPE svg PUBLIC "-//W3C//DTD SVG 1.1//EN" "http://www.w3.org/Graphics/SVG/1.1/DTD/svg11.dtd">
<svg version="1.1" xmlns="http://www.w3.org/2000/svg" xmlns:xlink="http://www.w3.org/1999/xlink" width="88" height="54" viewBox="0 0 88 54">
<g>
	<polygon style="fill-rule:evenodd;clip-rule:evenodd;fill:#273472;" points="46.495,45.525 82.661,25.671 82.661,26.173 
		46.495,45.728 46.495,45.525 46.495,45.525 46.495,45.525 	"/>
	<polygon style="fill-rule:evenodd;clip-rule:evenodd;fill:#273472;" points="46.495,51.693 82.661,32.089 82.661,32.59 
		46.495,52.145 46.495,51.693 46.495,51.693 46.495,51.693 	"/>
	<path style="fill-rule:evenodd;clip-rule:evenodd;fill:#4B68AF;" d="M82.661,25.22L82.661,25.22
		c-0.323-0.351-3.714-3.56-22.55-13.638C40.738,1.153,36.325,0,35.949,0C0,19.604,0,19.604,0,19.604
		c0.215,0,4.843,1.103,24.163,11.532c19.159,10.429,22.389,13.638,22.603,13.788C82.661,25.22,82.661,25.22,82.661,25.22
		L82.661,25.22"/>
	<polygon style="fill-rule:evenodd;clip-rule:evenodd;fill:#273472;" points="87.826,28.078 87.826,34.797 51.663,54.551 
		51.663,47.883 87.826,28.078 87.826,28.078 	"/>
	<polygon style="fill-rule:evenodd;clip-rule:evenodd;fill:#4964A6;" points="46.495,45.476 83.145,25.671 87.826,28.278 
		51.232,48.134 46.495,45.476 46.495,45.476 46.495,45.476 	"/>
	<path style="fill-rule:evenodd;clip-rule:evenodd;fill:#354990;" d="M24.324,31.487c19.267,10.278,22.548,13.438,22.711,13.588
		c0,0.302,0,0.302,0,0.302c4.628,2.556,4.628,2.556,4.628,2.556c0,6.618,0,6.618,0,6.618c-4.628-2.507-4.628-2.507-4.628-2.507
		c0,0.302,0,0.302,0,0.302C0,27.526,0,27.526,0,27.526c0-7.471,0-7.471,0-7.471C0.215,20.056,4.843,21.209,24.324,31.487
		L24.324,31.487"/>
	<path style="fill-rule:evenodd;clip-rule:evenodd;fill:#273472;" d="M52.899,37.104c0.486,0.1,0.486,0.301,0,0.501
		c-0.377,0.1-1.236,0.1-1.561,0c-0.536-0.2-0.536-0.401,0-0.501C51.663,36.903,52.362,36.903,52.899,37.104L52.899,37.104"/>
	<path style="fill-rule:evenodd;clip-rule:evenodd;fill:#FFFFFF;" d="M52.899,37.002c0.486,0.102,0.486,0.402,0,0.502
		c-0.377,0.2-1.236,0.2-1.561,0c-0.536-0.1-0.536-0.4,0-0.502C51.663,36.903,52.362,36.903,52.899,37.002L52.899,37.002"/>
	<path style="fill-rule:evenodd;clip-rule:evenodd;fill:#273472;" d="M56.507,34.896c0.323,0.15,0.323,0.702,0,0.853
		c-0.594,0.351-1.293,0.351-1.884,0c-0.377-0.15-0.377-0.702,0-0.853C55.214,34.496,55.913,34.496,56.507,34.896L56.507,34.896"/>
	<path style="fill-rule:evenodd;clip-rule:evenodd;fill:#FFFFFF;" d="M56.507,34.597c0.323,0.2,0.323,0.4,0,0.601
		c-0.594,0.102-1.293,0.102-1.884,0c-0.377-0.2-0.377-0.4,0-0.601C55.214,34.496,55.913,34.496,56.507,34.597L56.507,34.597"/>
	<path style="fill-rule:evenodd;clip-rule:evenodd;fill:#273472;" d="M60.65,32.29c0.484,0.401,0.484,0.802,0,1.002
		c-0.376,0.402-1.239,0.402-1.56,0c-0.54-0.2-0.54-0.601,0-1.002C59.411,32.089,60.111,32.089,60.65,32.29L60.65,32.29"/>
	<path style="fill-rule:evenodd;clip-rule:evenodd;fill:#FFFFFF;" d="M60.65,32.49c0.484,0.201,0.484,0.602,0,1.002
		c-0.376,0.202-1.239,0.202-1.56,0c-0.54-0.4-0.54-0.801,0-1.002C59.411,32.089,60.111,32.089,60.65,32.49L60.65,32.49"/>
	<path style="fill-rule:evenodd;clip-rule:evenodd;fill:#273472;" d="M65.115,30.585c0.323,0.2,0.323,0.4,0,0.602
		c-0.59,0.101-1.29,0.101-1.881,0c-0.377-0.201-0.377-0.401,0-0.602C63.825,30.484,64.525,30.484,65.115,30.585L65.115,30.585"/>
	<path style="fill-rule:evenodd;clip-rule:evenodd;fill:#FFFFFF;" d="M65.115,30.083c0.323,0.151,0.323,0.702,0,0.853
		c-0.59,0.352-1.29,0.352-1.881,0c-0.377-0.15-0.377-0.701,0-0.853C63.825,29.683,64.525,29.683,65.115,30.083L65.115,30.083"/>
	<path style="fill-rule:evenodd;clip-rule:evenodd;fill:#273472;" d="M68.399,28.479c0.483,0.15,0.483,0.701,0,0.853
		c-0.377,0.351-1.237,0.351-1.561,0c-0.537-0.151-0.537-0.702,0-0.853C67.162,28.078,67.862,28.078,68.399,28.479L68.399,28.479"/>
	<path style="fill-rule:evenodd;clip-rule:evenodd;fill:#FFFFFF;" d="M68.399,28.178c0.483,0.2,0.483,0.402,0,0.603
		c-0.377,0.1-1.237,0.1-1.561,0c-0.537-0.2-0.537-0.402,0-0.603C67.162,28.078,67.862,28.078,68.399,28.178L68.399,28.178"/>
	<path style="fill-rule:evenodd;clip-rule:evenodd;fill:#273472;" d="M72.866,25.872c0.323,0.4,0.323,0.802,0,1.003
		c-0.593,0.4-1.293,0.4-1.884,0c-0.376-0.201-0.376-0.603,0-1.003C71.573,25.671,72.273,25.671,72.866,25.872L72.866,25.872"/>
	<path style="fill-rule:evenodd;clip-rule:evenodd;fill:#FFFFFF;" d="M72.866,25.771c0.323,0.201,0.323,0.401,0,0.602
		c-0.593,0.101-1.293,0.101-1.884,0c-0.376-0.2-0.376-0.4,0-0.602C71.573,25.671,72.273,25.671,72.866,25.771L72.866,25.771"/>
</g>
</svg>