<?xml version="1.0" encoding="iso-8859-1"?>
<!DOCTYPE svg PUBLIC "-//W3C//DTD SVG 1.1//EN" "http://www.w3.org/Graphics/SVG/1.1/DTD/svg11.dtd">
<svg version="1.1" xmlns="http://www.w3.org/2000/svg" xmlns:xlink="http://www.w3.org/1999/xlink" width="103" height="52" viewBox="0 0 103 52">
<g>
	<polygon style="fill-rule:evenodd;clip-rule:evenodd;fill:#273472;" points="57.869,46.595 102.361,25.758 102.361,30.726 
		57.696,51.516 57.869,46.595 57.869,46.595 57.869,46.595 	"/>
	<polygon style="fill-rule:evenodd;clip-rule:evenodd;fill:#4B68AF;" points="0.931,20.79 46.063,0 102.361,25.619 57.289,46.365 
		0.931,20.79 0.931,20.79 0.931,20.79 	"/>
	<polygon style="fill-rule:evenodd;clip-rule:evenodd;fill:#4B65A8;" points="57.696,46.549 57.578,51.516 0.931,25.619 
		0.931,20.606 57.696,46.549 57.696,46.549 57.696,46.549 	"/>
	<polygon style="fill-rule:evenodd;clip-rule:evenodd;fill:#4B68AF;" points="14.889,31.784 15.18,31.646 31.639,38.913 
		31.523,39.005 14.889,31.784 14.889,31.784 14.889,31.784 	"/>
	<polygon style="fill-rule:evenodd;clip-rule:evenodd;fill:#657DB9;" points="31.639,39.05 31.639,39.741 14.889,32.381 
		14.889,31.646 31.639,39.05 31.639,39.05 31.639,39.05 	"/>
	<polygon style="fill-rule:evenodd;clip-rule:evenodd;fill:#4B68AF;" points="14.889,29.438 15.122,29.438 18.611,31.646 
		18.378,31.646 14.889,29.438 14.889,29.438 14.889,29.438 	"/>
	<polygon style="fill-rule:evenodd;clip-rule:evenodd;fill:#273472;" points="18.611,31.646 19.542,31.646 19.542,33.117 
		18.611,33.117 18.611,31.646 18.611,31.646 18.611,31.646 	"/>
	<polygon style="fill-rule:evenodd;clip-rule:evenodd;fill:#FFFFFF;" points="18.32,31.369 18.611,31.646 18.611,33.117 
		14.889,31.231 14.889,29.438 18.32,31.369 18.32,31.369 18.32,31.369 	"/>
	<polygon style="fill-rule:evenodd;clip-rule:evenodd;fill:#4B68AF;" points="25.125,33.991 25.299,33.853 31.639,36.612 
		31.523,36.798 25.125,33.991 25.125,33.991 25.125,33.991 	"/>
	<polygon style="fill-rule:evenodd;clip-rule:evenodd;fill:#FFFFFF;" points="31.639,36.981 31.639,39.005 24.194,35.784 
		24.194,33.853 24.66,33.853 31.639,36.981 31.639,36.981 31.639,36.981 	"/>
	<polygon style="fill-rule:evenodd;clip-rule:evenodd;fill:#273472;" points="18.611,30.173 19.542,30.173 19.542,31.646 
		18.611,31.646 18.611,30.173 18.611,30.173 18.611,30.173 	"/>
	<polygon style="fill-rule:evenodd;clip-rule:evenodd;fill:#4B68AF;" points="14.889,28.104 15.18,27.966 19.542,30.173 
		19.425,30.173 14.889,28.104 14.889,28.104 14.889,28.104 	"/>
	<polygon style="fill-rule:evenodd;clip-rule:evenodd;fill:#FFFFFF;" points="18.611,30.494 18.611,31.646 14.889,29.897 
		14.889,28.702 18.611,30.494 18.611,30.494 18.611,30.494 	"/>
	<polygon style="fill-rule:evenodd;clip-rule:evenodd;fill:#4B68AF;" points="19.542,31.186 19.774,30.909 24.194,33.623 
		24.136,33.853 19.542,31.186 19.542,31.186 19.542,31.186 	"/>
	<polygon style="fill-rule:evenodd;clip-rule:evenodd;fill:#FFFFFF;" points="24.194,34.083 24.194,36.061 19.542,33.577 
		19.542,31.646 24.194,34.083 24.194,34.083 24.194,34.083 	"/>
	<polygon style="fill-rule:evenodd;clip-rule:evenodd;fill:#4B68AF;" points="19.542,30.312 19.774,30.173 24.194,33.024 
		24.136,33.117 19.542,30.312 19.542,30.312 19.542,30.312 	"/>
	<polygon style="fill-rule:evenodd;clip-rule:evenodd;fill:#FFFFFF;" points="24.194,32.934 24.194,33.853 19.542,31.139 
		19.542,30.173 24.194,32.934 24.194,32.934 24.194,32.934 	"/>
	<polygon style="fill-rule:evenodd;clip-rule:evenodd;fill:#4B68AF;" points="24.194,33.117 24.369,33.117 31.639,35.969 
		31.523,36.061 24.194,33.117 24.194,33.117 24.194,33.117 	"/>
	<polygon style="fill-rule:evenodd;clip-rule:evenodd;fill:#FFFFFF;" points="31.639,36.061 31.639,36.798 24.194,34.083 
		24.194,33.117 31.639,36.061 31.639,36.061 31.639,36.061 	"/>
	<polygon style="fill-rule:evenodd;clip-rule:evenodd;fill:#273472;" points="13.958,31.829 14.889,31.646 14.889,32.151 
		13.958,32.381 13.958,31.829 13.958,31.829 13.958,31.829 	"/>
	<polygon style="fill-rule:evenodd;clip-rule:evenodd;fill:#4B68AF;" points="0,25.482 0.697,25.021 14.889,31.46 14.25,31.646 
		0,25.482 0,25.482 0,25.482 	"/>
	<polygon style="fill-rule:evenodd;clip-rule:evenodd;fill:#354990;" points="13.958,31.691 13.958,32.381 0,26.31 0,25.758 
		13.958,31.691 13.958,31.691 13.958,31.691 	"/>
	<polygon style="fill-rule:evenodd;clip-rule:evenodd;fill:#273472;" points="13.958,30.863 14.889,30.173 14.889,31.186 
		13.958,31.646 13.958,30.863 13.958,30.863 13.958,30.863 	"/>
	<polygon style="fill-rule:evenodd;clip-rule:evenodd;fill:#4B68AF;" points="0,24.608 0.697,24.286 14.889,30.494 14.25,30.909 
		0,24.608 0,24.608 0,24.608 	"/>
	<polygon style="fill-rule:evenodd;clip-rule:evenodd;fill:#354990;" points="13.958,31.139 13.958,31.646 0,25.436 0,25.021 
		13.958,31.139 13.958,31.139 13.958,31.139 	"/>
	<polygon style="fill-rule:evenodd;clip-rule:evenodd;fill:#273472;" points="13.958,30.541 14.889,30.173 14.889,30.541 
		13.958,30.909 13.958,30.541 13.958,30.541 13.958,30.541 	"/>
	<polygon style="fill-rule:evenodd;clip-rule:evenodd;fill:#4B68AF;" points="0,23.872 0.697,23.55 14.889,29.759 14.25,30.173 
		0,23.872 0,23.872 0,23.872 	"/>
	<polygon style="fill-rule:evenodd;clip-rule:evenodd;fill:#354990;" points="13.958,30.494 13.958,30.909 0,24.7 0,24.286 
		13.958,30.494 13.958,30.494 13.958,30.494 	"/>
	<polygon style="fill-rule:evenodd;clip-rule:evenodd;fill:#273472;" points="13.958,29.759 14.889,29.438 14.889,29.897 
		13.958,30.173 13.958,29.759 13.958,29.759 13.958,29.759 	"/>
	<polygon style="fill-rule:evenodd;clip-rule:evenodd;fill:#4B68AF;" points="0,23.044 0.697,22.814 14.889,29.161 14.25,29.438 
		0,23.044 0,23.044 0,23.044 	"/>
	<polygon style="fill-rule:evenodd;clip-rule:evenodd;fill:#354990;" points="13.958,29.759 13.958,30.173 0,23.964 0,23.55 
		13.958,29.759 13.958,29.759 13.958,29.759 	"/>
	<polygon style="fill-rule:evenodd;clip-rule:evenodd;fill:#273472;" points="13.958,29.024 14.889,28.702 14.889,29.161 
		13.958,29.438 13.958,29.024 13.958,29.024 13.958,29.024 	"/>
	<polygon style="fill-rule:evenodd;clip-rule:evenodd;fill:#4B68AF;" points="0,22.308 0.697,22.078 14.889,28.426 14.25,28.702 
		0,22.308 0,22.308 0,22.308 	"/>
	<polygon style="fill-rule:evenodd;clip-rule:evenodd;fill:#354990;" points="13.958,29.024 13.958,29.438 0,23.366 0,22.814 
		13.958,29.024 13.958,29.024 13.958,29.024 	"/>
	<polygon style="fill-rule:evenodd;clip-rule:evenodd;fill:#273472;" points="56.764,51.24 57.696,50.78 57.696,51.838 
		56.764,52.252 56.764,51.24 56.764,51.24 56.764,51.24 	"/>
	<polygon style="fill-rule:evenodd;clip-rule:evenodd;fill:#4B68AF;" points="31.639,39.372 32.337,39.005 57.696,51.193 
		56.939,51.516 31.639,39.372 31.639,39.372 31.639,39.372 	"/>
	<polygon style="fill-rule:evenodd;clip-rule:evenodd;fill:#354990;" points="56.764,51.516 56.764,52.252 31.639,40.523 
		31.639,39.741 56.764,51.516 56.764,51.516 56.764,51.516 	"/>
	<polygon style="fill-rule:evenodd;clip-rule:evenodd;fill:#273472;" points="56.764,50.411 57.696,50.044 57.696,50.411 
		56.764,50.78 56.764,50.411 56.764,50.411 56.764,50.411 	"/>
	<polygon style="fill-rule:evenodd;clip-rule:evenodd;fill:#4B68AF;" points="31.639,39.235 32.337,39.005 57.696,50.365 
		56.939,50.78 31.639,39.235 31.639,39.235 31.639,39.235 	"/>
	<polygon style="fill-rule:evenodd;clip-rule:evenodd;fill:#354990;" points="56.764,50.365 56.764,50.78 31.639,39.419 
		31.639,39.005 56.764,50.365 56.764,50.365 56.764,50.365 	"/>
	<polygon style="fill-rule:evenodd;clip-rule:evenodd;fill:#273472;" points="56.764,49.676 57.696,49.309 57.696,49.676 
		56.764,50.044 56.764,49.676 56.764,49.676 56.764,49.676 	"/>
	<polygon style="fill-rule:evenodd;clip-rule:evenodd;fill:#4B68AF;" points="31.639,38.591 32.337,38.27 57.696,49.63 
		56.939,50.044 31.639,38.591 31.639,38.591 31.639,38.591 	"/>
	<polygon style="fill-rule:evenodd;clip-rule:evenodd;fill:#354990;" points="56.764,49.63 56.764,50.044 31.639,38.729 
		31.639,38.27 56.764,49.63 56.764,49.63 56.764,49.63 	"/>
	<polygon style="fill-rule:evenodd;clip-rule:evenodd;fill:#273472;" points="56.764,48.939 57.696,48.572 57.696,48.939 
		56.764,49.309 56.764,48.939 56.764,48.939 56.764,48.939 	"/>
	<polygon style="fill-rule:evenodd;clip-rule:evenodd;fill:#4B68AF;" points="31.639,37.854 32.337,37.533 57.696,48.894 
		56.939,49.309 31.639,37.854 31.639,37.854 31.639,37.854 	"/>
	<polygon style="fill-rule:evenodd;clip-rule:evenodd;fill:#354990;" points="56.764,48.894 56.764,49.309 31.639,37.947 
		31.639,37.533 56.764,48.894 56.764,48.894 56.764,48.894 	"/>
	<polygon style="fill-rule:evenodd;clip-rule:evenodd;fill:#273472;" points="56.764,48.204 57.696,47.837 57.696,48.204 
		56.764,48.572 56.764,48.204 56.764,48.204 56.764,48.204 	"/>
	<polygon style="fill-rule:evenodd;clip-rule:evenodd;fill:#4B68AF;" points="31.639,37.119 32.337,36.798 57.696,48.158 
		56.939,48.572 31.639,37.119 31.639,37.119 31.639,37.119 	"/>
	<polygon style="fill-rule:evenodd;clip-rule:evenodd;fill:#354990;" points="56.764,48.158 56.764,48.572 31.639,37.211 
		31.639,36.798 56.764,48.158 56.764,48.158 56.764,48.158 	"/>
	<polygon style="fill-rule:evenodd;clip-rule:evenodd;fill:#273472;" points="56.764,46.778 57.696,46.365 57.696,47.561 
		56.764,47.837 56.764,46.778 56.764,46.778 56.764,46.778 	"/>
	<polygon style="fill-rule:evenodd;clip-rule:evenodd;fill:#4B68AF;" points="0,20.929 0.697,20.606 57.696,46.687 56.939,47.1 
		0,20.929 0,20.929 0,20.929 	"/>
	<polygon style="fill-rule:evenodd;clip-rule:evenodd;fill:#354990;" points="56.764,46.732 56.764,47.837 0,22.584 0,21.343 
		56.764,46.732 56.764,46.732 56.764,46.732 	"/>
	<path style="fill-rule:evenodd;clip-rule:evenodd;fill:#9BA4CF;" d="M26.521,35.601c0.466,0,0.466,0.23,0.466,0.46c0,0,0,0-0.466,0
		c0,0-0.465-0.229-0.465-0.46C26.056,35.601,26.521,35.324,26.521,35.601L26.521,35.601"/>
	<path style="fill-rule:evenodd;clip-rule:evenodd;fill:#455E9D;" d="M27.451,36.337l0.466,0.229c0,0.231-0.466,0.231-0.466,0.231
		c-0.465,0-0.465-0.231-0.465-0.461C26.986,36.061,26.986,36.061,27.451,36.337L27.451,36.337"/>
	<path style="fill-rule:evenodd;clip-rule:evenodd;fill:#9BA4CF;" d="M27.451,35.51c0,0,0.466,0.184,0.466,0.367
		c0,0-0.466,0.184-0.466,0c-0.465,0-0.465-0.184-0.465-0.367C26.986,35.51,26.986,35.324,27.451,35.51L27.451,35.51"/>
	<polygon style="fill-rule:evenodd;clip-rule:evenodd;fill:#4B68AF;" points="48.389,43.558 48.563,43.42 54.904,46.272 
		54.785,46.365 48.389,43.558 48.389,43.558 48.389,43.558 	"/>
	<polygon style="fill-rule:evenodd;clip-rule:evenodd;fill:#9BA4CF;" points="22.333,33.117 24.194,33.991 24.194,35.324 
		22.333,34.589 22.333,33.117 22.333,33.117 22.333,33.117 	"/>
	<polygon style="fill-rule:evenodd;clip-rule:evenodd;fill:#4B68AF;" points="22.333,33.117 22.333,33.117 24.194,33.853 
		24.194,33.853 22.333,33.117 22.333,33.117 22.333,33.117 	"/>
	<polygon style="fill-rule:evenodd;clip-rule:evenodd;fill:#374D84;" points="23.264,33.991 23.264,35.324 22.974,34.957 
		22.974,35.324 22.683,34.957 22.683,34.865 22.333,34.497 22.333,33.117 23.264,33.991 23.264,33.991 23.264,33.991 	"/>
	<polygon style="fill-rule:evenodd;clip-rule:evenodd;fill:#9BA4CF;" points="19.542,31.646 21.402,32.703 21.402,34.589 
		19.542,33.347 19.542,31.646 19.542,31.646 19.542,31.646 	"/>
	<polygon style="fill-rule:evenodd;clip-rule:evenodd;fill:#4B68AF;" points="19.542,31.829 19.658,31.646 21.402,32.979 
		21.286,33.117 19.542,31.829 19.542,31.829 19.542,31.829 	"/>
	<polygon style="fill-rule:evenodd;clip-rule:evenodd;fill:#374D84;" points="21.402,32.841 21.402,33.853 20.879,33.762 
		20.879,33.853 20.297,33.762 20.297,33.485 19.542,33.301 19.542,32.381 21.402,32.841 21.402,32.841 21.402,32.841 	"/>
	<polygon style="fill-rule:evenodd;clip-rule:evenodd;fill:#95A1CE;" points="54.904,46.502 54.785,47.837 48.389,44.801 
		48.389,43.42 54.904,46.502 54.904,46.502 	"/>
	<polygon style="fill-rule:evenodd;clip-rule:evenodd;fill:#FFFFFF;" points="54.904,46.549 54.904,47.837 48.389,44.616 
		48.389,43.42 54.904,46.549 54.904,46.549 54.904,46.549 	"/>
</g>
</svg>