<?xml version="1.0" encoding="iso-8859-1"?>
<!DOCTYPE svg PUBLIC "-//W3C//DTD SVG 1.1//EN" "http://www.w3.org/Graphics/SVG/1.1/DTD/svg11.dtd">
<svg version="1.1" xmlns="http://www.w3.org/2000/svg" xmlns:xlink="http://www.w3.org/1999/xlink" width="100" height="58" viewBox="0 0 100 58">
<g>
	<polygon style="fill-rule:evenodd;clip-rule:evenodd;fill:#273670;" points="56.045,42.165 99.528,23.19 99.528,37.289 
		55.924,56.218 56.045,42.165 	"/>
	<polygon style="fill-rule:evenodd;clip-rule:evenodd;fill:#4C6AA6;" points="0.948,18.798 44.729,0 99.528,23.41 55.807,42.165 
		0.948,18.798 	"/>
	<polygon style="fill-rule:evenodd;clip-rule:evenodd;fill:#3A518C;" points="55.924,42.34 55.865,56.218 0.948,32.897 
		1.067,18.974 55.924,42.34 	"/>
	<polygon style="fill-rule:evenodd;clip-rule:evenodd;fill:#FFFFFF;" points="23.697,33.687 23.639,37.948 2.843,28.988 
		2.843,24.596 23.697,33.687 	"/>
	<path style="fill-rule:evenodd;clip-rule:evenodd;fill:#7F9ED2;" d="M2.843,24.639c0,4.173,0,4.173,0,4.173
		c-1.481-0.615-1.481-0.615-1.481-0.615c-0.236-0.088-0.415-0.307-0.415-0.482c0-3.558,0-3.558,0-3.558
		c0-0.176,0.238-0.264,0.415-0.132L2.843,24.639L2.843,24.639z"/>
	<path style="fill-rule:evenodd;clip-rule:evenodd;fill:#7F9ED2;" d="M25.238,34.39c0.177,0.088,0.355,0.308,0.355,0.483
		c0,3.558,0,3.558,0,3.558c0,0.176-0.178,0.219-0.355,0.131c-1.541-0.614-1.541-0.614-1.541-0.614c0.06-4.217,0.06-4.217,0.06-4.217
		L25.238,34.39L25.238,34.39z"/>
	<polygon style="fill-rule:evenodd;clip-rule:evenodd;fill:#FFFFFF;" points="49.29,44.887 49.29,49.191 28.437,40.188 
		28.437,35.839 49.29,44.887 	"/>
	<path style="fill-rule:evenodd;clip-rule:evenodd;fill:#7F9ED2;" d="M28.437,35.883c0,4.173,0,4.173,0,4.173
		c-1.481-0.615-1.481-0.615-1.481-0.615c-0.177-0.087-0.415-0.308-0.415-0.483C26.6,35.4,26.6,35.4,26.6,35.4
		c0-0.176,0.178-0.264,0.355-0.176L28.437,35.883L28.437,35.883z"/>
	<path style="fill-rule:evenodd;clip-rule:evenodd;fill:#7F9ED2;" d="M50.83,45.633c0.237,0.089,0.356,0.308,0.356,0.483
		c0,3.558,0,3.558,0,3.558c0,0.132-0.178,0.22-0.356,0.132c-1.54-0.615-1.54-0.615-1.54-0.615c0-4.216,0-4.216,0-4.216L50.83,45.633
		L50.83,45.633z"/>
	<polygon style="fill-rule:evenodd;clip-rule:evenodd;fill:#FFFFFF;" points="23.697,38.518 23.697,42.867 2.843,33.819 
		2.963,29.515 23.697,38.518 	"/>
	<path style="fill-rule:evenodd;clip-rule:evenodd;fill:#7F9ED2;" d="M2.843,28.944c0,4.787,0,4.787,0,4.787
		c-1.481-0.702-1.481-0.702-1.481-0.702c-0.177-0.132-0.415-0.351-0.355-0.571c0-4.041,0-4.041,0-4.041
		c0-0.22,0.178-0.308,0.355-0.175L2.843,28.944L2.843,28.944z"/>
	<path style="fill-rule:evenodd;clip-rule:evenodd;fill:#7F9ED2;" d="M25.238,38.694c0.237,0.132,0.355,0.353,0.355,0.571
		c0,4.041,0,4.041,0,4.041c0,0.22-0.178,0.264-0.355,0.175c-1.541-0.702-1.541-0.702-1.541-0.702c0.06-4.831,0.06-4.831,0.06-4.831
		L25.238,38.694L25.238,38.694z"/>
	<polygon style="fill-rule:evenodd;clip-rule:evenodd;fill:#FFFFFF;" points="49.29,49.059 49.29,53.408 28.437,44.36 
		28.437,40.056 49.29,49.059 	"/>
	<path style="fill-rule:evenodd;clip-rule:evenodd;fill:#7F9ED2;" d="M28.437,40.099c0,4.173,0,4.173,0,4.173
		c-1.481-0.615-1.481-0.615-1.481-0.615c-0.177-0.087-0.415-0.308-0.415-0.482c0.06-3.558,0.06-3.558,0.06-3.558
		c0-0.176,0.178-0.263,0.355-0.133L28.437,40.099L28.437,40.099z"/>
	<path style="fill-rule:evenodd;clip-rule:evenodd;fill:#7F9ED2;" d="M50.83,49.85c0.237,0.088,0.356,0.307,0.356,0.482
		c0,3.558,0,3.558,0,3.558c0,0.177-0.178,0.221-0.356,0.132c-1.54-0.614-1.54-0.614-1.54-0.614c0-4.217,0-4.217,0-4.217L50.83,49.85
		L50.83,49.85z"/>
	<path style="fill-rule:evenodd;clip-rule:evenodd;fill:#989898;" d="M16.825,37.771c-1.066,0.177-1.066,0.177-1.066,0.177
		c0.06,0,0.178-0.044,0.178-0.132c0-0.132-0.356-0.307-0.771-0.352c1.186-0.22,1.186-0.22,1.186-0.22
		c0.415,0.089,0.711,0.265,0.711,0.396C17.063,37.684,17.003,37.771,16.825,37.771"/>
	<path style="fill-rule:evenodd;clip-rule:evenodd;fill:#B3B3B3;" d="M15.64,37.42c0.296,0.176,0.475,0.527,0.475,0.834
		c0,0.308-0.178,0.396-0.475,0.264c-0.237-0.175-0.474-0.526-0.474-0.834S15.403,37.245,15.64,37.42"/>
	<path style="fill-rule:evenodd;clip-rule:evenodd;fill:#989898;" d="M8.413,34.786C7.88,35.136,7.88,35.136,7.88,35.136
		c0.059-0.044,0.118-0.131,0.118-0.263c0-0.264-0.178-0.615-0.415-0.703c0.593-0.439,0.593-0.439,0.593-0.439
		c0.237,0.176,0.355,0.527,0.355,0.747C8.531,34.653,8.531,34.742,8.413,34.786"/>
	<path style="fill-rule:evenodd;clip-rule:evenodd;fill:#B3B3B3;" d="M7.109,33.907c0.296,0.132,0.475,0.527,0.475,0.791
		c0,0.352-0.178,0.438-0.475,0.308c-0.236-0.177-0.473-0.571-0.473-0.835C6.636,33.863,6.873,33.731,7.109,33.907"/>
	<path style="fill-rule:evenodd;clip-rule:evenodd;fill:#818181;" d="M16.115,33.687c0.651-0.571,0.651-0.571,0.651-0.571
		c0.118-0.087,0.237-0.043,0.296,0.045c-0.652,0.57-0.652,0.57-0.652,0.57C16.292,33.644,16.173,33.599,16.115,33.687"/>
	<path style="fill-rule:evenodd;clip-rule:evenodd;fill:#989898;" d="M16.943,34.083c-0.533,0.351-0.533,0.351-0.533,0.351
		c0.06,0,0.118-0.132,0.118-0.264c0-0.264-0.177-0.615-0.414-0.747c0.592-0.395,0.592-0.395,0.592-0.395
		c0.237,0.176,0.356,0.483,0.356,0.79C17.063,33.907,17.063,34.039,16.943,34.083"/>
	<path style="fill-rule:evenodd;clip-rule:evenodd;fill:#B3B3B3;" d="M16.588,33.205c0.296,0.175,0.475,0.526,0.475,0.834
		s-0.178,0.396-0.475,0.264c-0.236-0.176-0.473-0.526-0.473-0.79C16.115,33.161,16.352,33.029,16.588,33.205"/>
	<path style="fill-rule:evenodd;clip-rule:evenodd;fill:#818181;" d="M7.583,30.174c0.237-0.22,0.474-0.396,0.651-0.615
		c0.119-0.044,0.237-0.044,0.296,0.043C7.88,30.218,7.88,30.218,7.88,30.218C7.761,30.086,7.702,30.086,7.583,30.174"/>
	<path style="fill-rule:evenodd;clip-rule:evenodd;fill:#989898;" d="M9.361,30.569C8.828,30.92,8.828,30.92,8.828,30.92
		c0.059-0.044,0.118-0.131,0.118-0.265c0-0.262-0.178-0.614-0.415-0.701c0.593-0.439,0.593-0.439,0.593-0.439
		c0.237,0.175,0.355,0.526,0.355,0.746C9.479,30.437,9.479,30.526,9.361,30.569"/>
	<path style="fill-rule:evenodd;clip-rule:evenodd;fill:#B3B3B3;" d="M8.057,29.69c0.296,0.132,0.474,0.528,0.474,0.792
		c0,0.351-0.178,0.438-0.474,0.308c-0.237-0.177-0.474-0.528-0.474-0.835C7.642,29.647,7.82,29.515,8.057,29.69"/>
	<path style="fill-rule:evenodd;clip-rule:evenodd;fill:#95ACD9;" d="M40.759,47.083l1.896,1.054v1.757l-1.896-1.143V47.083
		L40.759,47.083z M42.418,49.28v-0.968l-1.363-0.702v0.879l0.356,0.176v0.176l0.118,0.087v0.177l0.415,0.176v-0.089l0.177,0.089
		v-0.176L42.418,49.28L42.418,49.28z"/>
	<polygon style="fill-rule:evenodd;clip-rule:evenodd;fill:#273670;" points="42.655,48.401 42.655,49.191 42.3,49.059 42.3,49.191 
		42.063,49.148 42.063,49.191 41.411,49.059 41.411,48.927 41.292,48.84 41.292,48.708 40.759,48.533 40.759,47.786 42.655,48.401 	
		"/>
	<polygon style="fill-rule:evenodd;clip-rule:evenodd;fill:#273670;" points="36.02,45.633 36.02,46.38 35.842,46.249 35.842,46.38 
		35.724,46.337 35.724,46.38 35.427,46.205 35.427,46.117 35.368,46.03 35.368,45.898 35.072,45.765 35.072,44.975 36.02,45.633 	
		"/>
	<path style="fill-rule:evenodd;clip-rule:evenodd;fill:#95ACD9;" d="M34.302,44.272l2.666,1.143v1.669l-2.844-1.099L34.302,44.272
		L34.302,44.272z M36.493,46.512V45.59l-1.954-0.791v0.923l0.533,0.176v0.175l0.118,0.089v0.087l0.651,0.264v-0.088l0.237,0.088
		v-0.175L36.493,46.512L36.493,46.512z"/>
	<path style="fill-rule:evenodd;clip-rule:evenodd;fill:#7F9ED2;" d="M2.843,19.809c0,4.788,0,4.788,0,4.788
		c-1.481-0.703-1.481-0.703-1.481-0.703c-0.236-0.132-0.415-0.352-0.415-0.571c0-4.041,0-4.041,0-4.041
		c0-0.22,0.238-0.308,0.415-0.175L2.843,19.809L2.843,19.809z"/>
	<polygon style="fill-rule:evenodd;clip-rule:evenodd;fill:#FFFFFF;" points="49.29,39.923 49.23,44.272 2.843,24.157 2.843,19.676 
		49.29,39.923 	"/>
	<path style="fill-rule:evenodd;clip-rule:evenodd;fill:#7F9ED2;" d="M50.83,40.714c0.237,0.088,0.356,0.308,0.356,0.484
		c0,3.556,0,3.556,0,3.556c0,0.177-0.178,0.221-0.356,0.133c-1.54-0.615-1.54-0.615-1.54-0.615c0.06-4.216,0.06-4.216,0.06-4.216
		L50.83,40.714L50.83,40.714z"/>
	<polygon style="fill-rule:evenodd;clip-rule:evenodd;fill:#B3B3B3;" points="40.759,41.857 40.759,42.165 39.811,41.725 
		39.811,41.461 40.759,41.857 	"/>
	<polygon style="fill-rule:evenodd;clip-rule:evenodd;fill:#989898;" points="42.655,42.383 42.655,42.867 40.759,42.691 
		40.759,42.165 42.655,42.383 	"/>
	<polygon style="fill-rule:evenodd;clip-rule:evenodd;fill:#B3B3B3;" points="48.342,44.625 48.342,44.975 42.655,42.559 
		42.655,42.165 48.342,44.625 	"/>
	<polygon style="fill-rule:evenodd;clip-rule:evenodd;fill:#989898;" points="49.29,44.272 49.29,44.58 48.342,44.975 
		48.342,44.711 49.29,44.272 	"/>
	<polygon style="fill-rule:evenodd;clip-rule:evenodd;fill:#E7E6E7;" points="49.29,44.404 48.046,44.975 42.596,42.559 
		41.114,42.383 39.93,41.944 39.811,41.33 41.114,40.759 49.29,44.404 	"/>
	<polygon style="fill-rule:evenodd;clip-rule:evenodd;fill:#B3B3B3;" points="7.583,27.099 7.583,27.407 1.896,24.947 1.896,24.596 
		7.583,27.099 	"/>
	<polygon style="fill-rule:evenodd;clip-rule:evenodd;fill:#B3B3B3;" points="8.531,28.285 8.531,28.812 7.583,27.977 7.583,27.407 
		8.531,28.285 	"/>
	<polygon style="fill-rule:evenodd;clip-rule:evenodd;fill:#989898;" points="10.427,28.109 10.427,28.68 8.531,28.812 
		8.531,28.109 10.427,28.109 	"/>
	<polygon style="fill-rule:evenodd;clip-rule:evenodd;fill:#989898;" points="11.375,27.407 11.375,28.022 10.427,28.812 
		10.427,28.373 11.375,27.407 	"/>
	<polygon style="fill-rule:evenodd;clip-rule:evenodd;fill:#E7E6E7;" points="11.375,27.539 10.19,28.109 8.946,28.109 
		7.642,27.539 7.405,26.923 1.896,24.508 3.258,23.893 11.375,27.539 	"/>
	<path style="fill-rule:evenodd;clip-rule:evenodd;fill:#6D6F71;" d="M2.725,22.488C1.422,23.19,1.422,23.19,1.422,23.19
		C1.541,23.102,1.6,23.015,1.6,22.839c0-0.395-0.296-0.834-0.652-1.054c1.363-0.703,1.363-0.703,1.363-0.703
		c0.296,0.22,0.533,0.659,0.533,1.054C2.843,22.312,2.785,22.399,2.725,22.488"/>
	<path style="fill-rule:evenodd;clip-rule:evenodd;fill:#494650;" d="M0,21.785c1.422-0.615,1.422-0.615,1.422-0.615
		c0.118-0.087,0.296-0.087,0.473,0c-1.421,0.615-1.421,0.615-1.421,0.615C0.356,21.741,0.178,21.741,0,21.785"/>
	<path style="fill-rule:evenodd;clip-rule:evenodd;fill:#59595C;" d="M0.474,21.96c0.296,0.176,0.474,0.527,0.474,0.834
		s-0.177,0.396-0.474,0.264C0.238,22.927,0,22.531,0,22.224C0.06,21.917,0.238,21.785,0.474,21.96"/>
	<path style="fill-rule:evenodd;clip-rule:evenodd;fill:#6D6F71;" d="M51.067,43.57c-1.303,0.702-1.303,0.702-1.303,0.702
		c0.118-0.087,0.177-0.176,0.177-0.352c0-0.395-0.296-0.834-0.651-1.054c1.362-0.702,1.362-0.702,1.362-0.702
		c0.296,0.219,0.534,0.658,0.534,1.054C51.187,43.394,51.126,43.481,51.067,43.57"/>
	<path style="fill-rule:evenodd;clip-rule:evenodd;fill:#494650;" d="M49.29,42.867c0.711-0.615,0.711-0.615,0.711-0.615
		c0.059-0.087,0.178-0.087,0.237,0c-0.712,0.615-0.712,0.615-0.712,0.615C49.468,42.823,49.408,42.823,49.29,42.867"/>
	<path style="fill-rule:evenodd;clip-rule:evenodd;fill:#59595C;" d="M49.29,43.042c0.533,0.177,0.948,0.528,0.948,0.836
		s-0.415,0.395-0.948,0.263c-0.475-0.131-0.948-0.526-0.948-0.834C48.401,42.999,48.815,42.867,49.29,43.042"/>
	<polygon style="fill-rule:evenodd;clip-rule:evenodd;fill:#273670;" points="47.395,42.251 47.395,42.867 45.499,42.165 
		45.499,41.461 47.395,42.251 	"/>
	<polygon style="fill-rule:evenodd;clip-rule:evenodd;fill:#273670;" points="47.395,41.505 47.395,42.165 45.499,41.461 
		45.499,40.759 47.395,41.505 	"/>
	<polygon style="fill-rule:evenodd;clip-rule:evenodd;fill:#273670;" points="35.545,36.323 35.545,36.498 36.02,36.762 
		36.02,37.948 34.124,37.07 34.124,35.839 34.717,36.147 34.717,35.971 35.545,36.323 	"/>
	<polygon style="fill-rule:evenodd;clip-rule:evenodd;fill:#273670;" points="36.02,35.268 36.02,36.542 35.486,36.279 
		35.486,36.455 34.717,36.103 34.717,35.928 34.124,35.664 34.124,34.434 36.02,35.268 	"/>
	<path style="fill-rule:evenodd;clip-rule:evenodd;fill:#95ACD9;" d="M34.124,34.434l1.896,0.834v2.68l-1.896-0.791V34.434
		L34.124,34.434z M35.96,36.279v-1.011l-1.718-0.658v0.922l0.533,0.22v0.177l0.651,0.263v-0.132L35.96,36.279L35.96,36.279z
		 M35.842,37.816v-0.967l-0.415-0.219v-0.133l-0.651-0.307v0.175l-0.533-0.219v0.923L35.842,37.816L35.842,37.816z"/>
	<polygon style="fill-rule:evenodd;clip-rule:evenodd;fill:#273670;" points="38.271,35.839 38.566,36.191 38.566,36.279 
		38.686,36.366 38.686,36.586 38.863,36.805 38.863,37.948 37.915,37.026 37.915,35.971 38.212,36.059 38.212,35.971 38.271,35.971 
		38.271,35.839 	"/>
	<polygon style="fill-rule:evenodd;clip-rule:evenodd;fill:#273670;" points="38.863,38.167 38.863,39.354 38.626,39.133 
		38.626,39.354 38.566,39.265 38.566,39.354 38.271,39.133 38.271,38.915 38.152,38.826 38.152,38.607 37.915,38.386 37.915,37.245 
		38.863,38.167 	"/>
	<path style="fill-rule:evenodd;clip-rule:evenodd;fill:#95ACD9;" d="M36.968,35.839l2.843,0.879v2.636l-2.843-0.836V35.839
		L36.968,35.839z M39.456,37.684v-0.79l-0.415-0.132V36.63l-0.296-0.089v-0.044l-0.651-0.219v0.087h-0.179v0.045l-0.533-0.045v0.704
		L39.456,37.684L39.456,37.684z M39.456,38.87v-0.746l-2.074-0.571v0.702l0.415,0.132v0.132l0.297,0.089v0.132l0.651,0.131v-0.044
		l0.118,0.044v-0.131L39.456,38.87L39.456,38.87z"/>
	<path style="fill-rule:evenodd;clip-rule:evenodd;fill:#95ACD9;" d="M39.811,36.542l1.896,1.055v3.163l-1.896-1.011V36.542
		L39.811,36.542z M41.529,38.739v-0.923l-0.355-0.175v-0.132l-0.06-0.089v-0.087l-0.474-0.264v0.087h-0.178v0.088l-0.237-0.088
		v0.835L41.529,38.739L41.529,38.739z M41.47,40.188l0.06-0.923l-1.304-0.658v0.834l0.237,0.176v0.132l0.119,0.088v0.176
		l0.414,0.264v-0.177l0.178,0.089v-0.176L41.47,40.188L41.47,40.188z"/>
	<polygon style="fill-rule:evenodd;clip-rule:evenodd;fill:#273670;" points="41.707,39.221 41.588,40.012 41.233,39.88 
		41.233,40.012 40.996,39.923 40.996,40.056 40.344,39.88 40.344,39.705 40.226,39.661 40.226,39.529 39.811,39.354 39.811,38.65 
		41.707,39.221 	"/>
	<polygon style="fill-rule:evenodd;clip-rule:evenodd;fill:#273670;" points="40.463,37.245 41.114,37.464 41.114,37.552 
		41.233,37.596 41.233,37.771 41.707,37.904 41.707,38.65 39.811,38.036 39.811,37.333 40.226,37.42 40.226,37.333 40.463,37.333 
		40.463,37.245 	"/>
	<polygon style="fill-rule:evenodd;clip-rule:evenodd;fill:#273670;" points="10.427,26.792 10.427,27.407 4.74,24.552 4.74,23.893 
		10.427,26.792 	"/>
	<polygon style="fill-rule:evenodd;clip-rule:evenodd;fill:#7F9ED2;" points="33.176,32.897 33.176,37.245 11.375,28.197 
		11.375,23.893 33.176,32.897 	"/>
	<polygon style="fill-rule:evenodd;clip-rule:evenodd;fill:#273670;" points="28.437,31.492 28.437,32.282 28.081,32.15 
		28.081,32.282 27.844,32.194 27.844,32.326 27.193,32.15 27.193,31.974 27.074,31.929 27.074,31.799 26.541,31.711 26.719,30.92 
		28.437,31.492 	"/>
	<path style="fill-rule:evenodd;clip-rule:evenodd;fill:#3A518C;" d="M26.541,30.218l1.896,1.097v1.714l-1.896-1.055V30.218
		L26.541,30.218z M28.259,32.458v-1.053l-1.481-0.792l-0.119,1.099l0.415,0.088v0.175l0.119,0.089v0.219l0.533,0.263v-0.174
		l0.237,0.087v-0.176L28.259,32.458L28.259,32.458z"/>
	<polygon style="fill-rule:evenodd;clip-rule:evenodd;fill:#273670;" points="30.333,32.282 30.333,33.029 29.977,32.897 
		29.977,33.029 29.74,32.984 29.74,33.029 29.088,32.852 29.088,32.765 28.969,32.678 28.969,32.544 28.437,32.414 28.437,31.623 
		30.333,32.282 	"/>
	<path style="fill-rule:evenodd;clip-rule:evenodd;fill:#3A518C;" d="M28.437,31.623l1.896,0.791v1.317l-1.896-0.747V31.623
		L28.437,31.623z M30.155,33.379v-0.835l-1.599-0.658v0.792l0.414,0.174v0.132l0.119,0.089v0.088l0.533,0.219v-0.088l0.237,0.088
		v-0.175L30.155,33.379L30.155,33.379z"/>
	<path style="fill-rule:evenodd;clip-rule:evenodd;fill:#3A518C;" d="M18.01,26.704l0.948,0.791v1.317l-0.948-0.746V26.704
		L18.01,26.704z M18.898,28.373v-0.834l-0.83-0.527v0.747l0.237,0.176v0.132l0.06,0.088v0.088l0.237,0.22v-0.177l0.119,0.088v-0.131
		L18.898,28.373L18.898,28.373z"/>
	<polygon style="fill-rule:evenodd;clip-rule:evenodd;fill:#273670;" points="18.958,27.495 18.958,28.724 18.78,28.504 
		18.78,28.724 18.662,28.592 18.662,28.812 18.365,28.504 18.365,28.373 18.306,28.285 18.306,28.066 18.01,27.846 18.01,26.704 
		18.958,27.495 	"/>
	<polygon style="fill-rule:evenodd;clip-rule:evenodd;fill:#273670;" points="15.166,28.066 15.166,28.768 14.989,28.68 
		14.989,28.768 14.811,28.768 14.811,28.812 14.515,28.68 14.515,28.504 14.456,28.461 14.456,28.373 14.218,28.197 14.218,27.407 
		15.166,28.066 	"/>
	<path style="fill-rule:evenodd;clip-rule:evenodd;fill:#3A518C;" d="M14.218,27.407l0.948,0.747v1.361l-0.948-0.791V27.407
		L14.218,27.407z M15.107,29.032v-0.703l-0.771-0.658v0.791l0.178,0.175v0.088l0.06,0.088v0.176l0.237,0.132v-0.088h0.118v-0.044
		L15.107,29.032L15.107,29.032z"/>
	<polygon style="fill-rule:evenodd;clip-rule:evenodd;fill:#273670;" points="17.063,26.617 17.063,27.363 16.884,27.275 
		16.884,27.407 16.825,27.363 16.825,27.407 16.41,27.275 16.41,27.187 16.352,27.143 16.352,26.967 16.115,26.835 16.115,26.001 
		17.063,26.617 	"/>
	<path style="fill-rule:evenodd;clip-rule:evenodd;fill:#3A518C;" d="M15.166,26.001l1.896,0.702v1.405l-1.896-0.702V26.001
		L15.166,26.001z M16.825,27.67v-0.791l-1.54-0.615v0.835l0.355,0.176v0.132l0.119,0.088v0.088l0.593,0.176V27.67l0.118,0.088
		v-0.176L16.825,27.67L16.825,27.67z"/>
	<polygon style="fill-rule:evenodd;clip-rule:evenodd;fill:#273670;" points="17.063,28.68 17.063,29.471 16.884,29.382 
		16.884,29.471 16.707,29.471 16.707,29.515 16.41,29.382 16.41,29.208 16.352,29.164 16.352,28.988 16.115,28.9 16.115,28.109 
		17.063,28.68 	"/>
	<path style="fill-rule:evenodd;clip-rule:evenodd;fill:#3A518C;" d="M15.166,28.109l1.896,0.747v1.362l-1.896-0.791V28.109
		L15.166,28.109z M16.884,29.735v-0.791l-1.481-0.571v0.791l0.355,0.088v0.176l0.118,0.088v0.175l0.415,0.132v-0.087h0.236V29.69
		L16.884,29.735L16.884,29.735z"/>
	<polygon style="fill-rule:evenodd;clip-rule:evenodd;fill:#273670;" points="18.958,30.086 18.958,30.876 18.78,30.79 
		18.78,30.876 18.721,30.876 18.721,30.92 18.306,30.701 18.306,30.613 18.247,30.569 18.247,30.394 18.01,30.305 18.01,29.515 
		18.958,30.086 	"/>
	<path style="fill-rule:evenodd;clip-rule:evenodd;fill:#3A518C;" d="M17.063,28.812l1.896,0.835v1.273l-1.896-0.702V28.812
		L17.063,28.812z M18.78,30.526v-0.791l-1.481-0.571v0.791l0.355,0.087v0.177l0.118,0.087v0.089l0.533,0.219v-0.087h0.119v-0.089
		L18.78,30.526L18.78,30.526z"/>
	<path style="fill-rule:evenodd;clip-rule:evenodd;fill:#3A518C;" d="M18.958,29.515l1.896,0.834v1.273l-1.896-0.702V29.515
		L18.958,29.515z M20.676,31.228v-0.791l-1.481-0.57v0.702l0.355,0.176v0.176l0.119,0.088v0.089l0.533,0.218v-0.087h0.119v-0.131
		L20.676,31.228L20.676,31.228z"/>
	<polygon style="fill-rule:evenodd;clip-rule:evenodd;fill:#273670;" points="20.854,30.79 20.854,31.579 20.439,31.405 
		20.439,31.579 20.321,31.579 20.321,31.623 19.55,31.405 19.55,31.315 19.432,31.271 19.432,31.097 18.958,30.92 18.958,30.218 
		20.854,30.79 	"/>
	<path style="fill-rule:evenodd;clip-rule:evenodd;fill:#818181;" d="M25.593,33.731c0.83-0.702,0.83-0.702,0.83-0.702
		s0.06,0,0.118,0.044c-0.77,0.658-0.77,0.658-0.77,0.658C25.711,33.731,25.652,33.731,25.593,33.731"/>
	<path style="fill-rule:evenodd;clip-rule:evenodd;fill:#989898;" d="M27.37,33.819c-1.421,0.615-1.421,0.615-1.421,0.615
		c0.059,0,0.059-0.044,0.059-0.176c0-0.22-0.119-0.439-0.415-0.571c1.541-0.658,1.541-0.658,1.541-0.658
		c0.178,0.132,0.355,0.395,0.355,0.57C27.488,33.687,27.488,33.776,27.37,33.819"/>
	<path style="fill-rule:evenodd;clip-rule:evenodd;fill:#676767;" d="M26.067,33.819c0.296,0.088,0.473,0.265,0.473,0.439
		c0,0.132-0.177,0.176-0.473,0.132c-0.238-0.088-0.475-0.264-0.475-0.439C25.593,33.819,25.83,33.731,26.067,33.819"/>
	<polygon style="fill-rule:evenodd;clip-rule:evenodd;fill:#818181;" points="26.541,33.555 27.43,33.029 30.333,34.653 
		29.384,35.136 26.541,33.555 	"/>
	<polygon style="fill-rule:evenodd;clip-rule:evenodd;fill:#4C6AA6;" points="29.503,34.874 30.333,34.434 30.155,35.4 
		29.384,35.839 29.503,34.874 	"/>
	<polygon style="fill-rule:evenodd;clip-rule:evenodd;fill:#676767;" points="26.659,34.786 26.541,33.731 29.384,35.005 
		29.325,35.839 26.659,34.786 	"/>
	<path style="fill-rule:evenodd;clip-rule:evenodd;fill:#989898;" d="M31.221,35.532c-1.54,0.308-1.54,0.308-1.54,0.308
		c0.118,0,0.178-0.043,0.178-0.088c0-0.088-0.237-0.22-0.474-0.263c1.481-0.353,1.481-0.353,1.481-0.353
		c0.237,0.045,0.415,0.177,0.415,0.308C31.28,35.489,31.28,35.532,31.221,35.532"/>
	<path style="fill-rule:evenodd;clip-rule:evenodd;fill:#676767;" d="M29.858,35.224c0.237,0.089,0.475,0.265,0.475,0.439
		c0,0.133-0.238,0.176-0.475,0.133c-0.296-0.089-0.474-0.265-0.474-0.439C29.384,35.224,29.562,35.136,29.858,35.224"/>
	<path style="fill-rule:evenodd;clip-rule:evenodd;fill:#818181;" d="M11.375,25.254c0.652-0.57,0.652-0.57,0.652-0.57
		c0.06-0.088,0.178-0.088,0.296,0.043c-0.592,0.571-0.592,0.571-0.592,0.571C11.611,25.167,11.493,25.167,11.375,25.254"/>
	<path style="fill-rule:evenodd;clip-rule:evenodd;fill:#989898;" d="M13.034,25.65c-1.066,0.352-1.066,0.352-1.066,0.352
		c0.119-0.044,0.178-0.132,0.237-0.264c0-0.308-0.355-0.614-0.83-0.747c1.126-0.395,1.126-0.395,1.126-0.395
		c0.415,0.131,0.77,0.482,0.77,0.746C13.271,25.518,13.152,25.606,13.034,25.65"/>
	<path style="fill-rule:evenodd;clip-rule:evenodd;fill:#B3B3B3;" d="M11.375,24.771c0.533,0.176,0.948,0.527,0.948,0.835
		s-0.415,0.396-0.948,0.264c-0.473-0.132-0.948-0.527-0.948-0.835S10.901,24.596,11.375,24.771"/>
	<path style="fill-rule:evenodd;clip-rule:evenodd;fill:#818181;" d="M11.375,27.363c0.652-0.571,0.652-0.571,0.652-0.571
		c0.06-0.088,0.178-0.088,0.296,0.044c-0.592,0.571-0.592,0.571-0.592,0.571C11.611,27.319,11.493,27.275,11.375,27.363"/>
	<path style="fill-rule:evenodd;clip-rule:evenodd;fill:#989898;" d="M13.034,27.758c-1.066,0.351-1.066,0.351-1.066,0.351
		c0.119-0.043,0.178-0.132,0.237-0.263c0-0.264-0.355-0.615-0.83-0.747c1.126-0.396,1.126-0.396,1.126-0.396
		c0.415,0.176,0.77,0.483,0.77,0.791C13.271,27.626,13.152,27.714,13.034,27.758"/>
	<path style="fill-rule:evenodd;clip-rule:evenodd;fill:#B3B3B3;" d="M11.375,27.583c0.533,0.132,0.948,0.526,0.948,0.834
		s-0.415,0.396-0.948,0.264c-0.473-0.176-0.948-0.526-0.948-0.834S10.901,27.407,11.375,27.583"/>
	<path style="fill-rule:evenodd;clip-rule:evenodd;fill:#818181;" d="M30.333,33.687c1.303-0.571,1.303-0.571,1.303-0.571
		c0.118-0.087,0.355-0.087,0.593,0.045c-1.244,0.57-1.244,0.57-1.244,0.57C30.748,33.599,30.51,33.599,30.333,33.687"/>
	<path style="fill-rule:evenodd;clip-rule:evenodd;fill:#989898;" d="M32.11,34.083c-0.534,0.351-0.534,0.351-0.534,0.351
		c0.06-0.044,0.119-0.132,0.119-0.264c0-0.308-0.178-0.615-0.415-0.747c0.592-0.395,0.592-0.395,0.592-0.395
		c0.179,0.132,0.356,0.483,0.356,0.747C32.229,33.951,32.169,34.039,32.11,34.083"/>
	<path style="fill-rule:evenodd;clip-rule:evenodd;fill:#B3B3B3;" d="M30.806,33.205c0.296,0.175,0.474,0.526,0.474,0.834
		s-0.178,0.396-0.474,0.264c-0.237-0.132-0.473-0.526-0.473-0.834S30.569,33.029,30.806,33.205"/>
	<path style="fill-rule:evenodd;clip-rule:evenodd;fill:#818181;" d="M30.333,35.796c1.303-0.572,1.303-0.572,1.303-0.572
		c0.118-0.088,0.355-0.088,0.593,0.044c-1.244,0.571-1.244,0.571-1.244,0.571C30.748,35.751,30.51,35.708,30.333,35.796"/>
	<path style="fill-rule:evenodd;clip-rule:evenodd;fill:#989898;" d="M32.11,36.191c-0.534,0.351-0.534,0.351-0.534,0.351
		c0.06-0.044,0.119-0.131,0.119-0.263c0-0.264-0.178-0.615-0.415-0.747c0.592-0.396,0.592-0.396,0.592-0.396
		c0.179,0.177,0.356,0.484,0.356,0.792C32.229,36.059,32.169,36.147,32.11,36.191"/>
	<path style="fill-rule:evenodd;clip-rule:evenodd;fill:#B3B3B3;" d="M30.806,36.015c0.296,0.132,0.474,0.526,0.474,0.834
		s-0.178,0.396-0.474,0.264c-0.237-0.176-0.473-0.526-0.473-0.834S30.569,35.839,30.806,36.015"/>
	<path style="fill-rule:evenodd;clip-rule:evenodd;fill:#818181;" d="M20.854,29.471c0.652-0.571,0.652-0.571,0.652-0.571
		c0.06-0.088,0.178-0.088,0.296,0.044c-0.593,0.571-0.593,0.571-0.593,0.571C21.09,29.382,20.972,29.382,20.854,29.471"/>
	<path style="fill-rule:evenodd;clip-rule:evenodd;fill:#989898;" d="M22.513,30.394c-1.067,0.526-1.067,0.526-1.067,0.526
		c0.119-0.088,0.178-0.22,0.237-0.395c0-0.439-0.356-0.924-0.83-1.144c1.126-0.57,1.126-0.57,1.126-0.57
		c0.415,0.22,0.77,0.747,0.77,1.143C22.75,30.174,22.631,30.305,22.513,30.394"/>
	<path style="fill-rule:evenodd;clip-rule:evenodd;fill:#B3B3B3;" d="M21.327,29.69c0.296,0.177,0.475,0.528,0.475,0.836
		c0,0.307-0.178,0.395-0.475,0.264c-0.237-0.134-0.474-0.528-0.474-0.835C20.854,29.647,21.09,29.515,21.327,29.69"/>
	<path style="fill-rule:evenodd;clip-rule:evenodd;fill:#989898;" d="M22.513,32.678c-1.067,0.351-1.067,0.351-1.067,0.351
		c0.119-0.045,0.178-0.132,0.237-0.264c0-0.264-0.356-0.615-0.83-0.747c1.126-0.396,1.126-0.396,1.126-0.396
		c0.415,0.177,0.77,0.483,0.77,0.791C22.75,32.544,22.631,32.633,22.513,32.678"/>
	<path style="fill-rule:evenodd;clip-rule:evenodd;fill:#B3B3B3;" d="M21.327,31.799c0.296,0.13,0.475,0.526,0.475,0.834
		s-0.178,0.396-0.475,0.264c-0.237-0.176-0.474-0.526-0.474-0.834S21.09,31.623,21.327,31.799"/>
	<path style="fill-rule:evenodd;clip-rule:evenodd;fill:#818181;" d="M22.75,30.174c0.651-0.572,0.651-0.572,0.651-0.572
		c0.06-0.087,0.178-0.087,0.296,0.045c-0.593,0.571-0.593,0.571-0.593,0.571C22.986,30.086,22.868,30.086,22.75,30.174"/>
	<path style="fill-rule:evenodd;clip-rule:evenodd;fill:#989898;" d="M24.408,30.569c-1.066,0.352-1.066,0.352-1.066,0.352
		c0.118-0.044,0.177-0.131,0.236-0.265c0-0.307-0.355-0.614-0.829-0.746c1.125-0.395,1.125-0.395,1.125-0.395
		c0.415,0.132,0.77,0.482,0.77,0.746C24.645,30.437,24.527,30.526,24.408,30.569"/>
	<path style="fill-rule:evenodd;clip-rule:evenodd;fill:#B3B3B3;" d="M23.224,30.394c0.295,0.175,0.474,0.526,0.474,0.834
		c0,0.307-0.178,0.395-0.474,0.264c-0.237-0.132-0.474-0.528-0.474-0.836C22.75,30.349,22.986,30.218,23.224,30.394"/>
	<path style="fill-rule:evenodd;clip-rule:evenodd;fill:#818181;" d="M22.75,32.282c0.651-0.57,0.651-0.57,0.651-0.57
		c0.06-0.089,0.178-0.089,0.296,0.044c-0.593,0.57-0.593,0.57-0.593,0.57C22.986,32.237,22.868,32.194,22.75,32.282"/>
	<path style="fill-rule:evenodd;clip-rule:evenodd;fill:#989898;" d="M24.408,33.379c-1.066,0.352-1.066,0.352-1.066,0.352
		c0.118-0.044,0.177-0.132,0.236-0.263c0-0.264-0.355-0.616-0.829-0.747c1.125-0.396,1.125-0.396,1.125-0.396
		c0.415,0.176,0.77,0.482,0.77,0.79C24.645,33.248,24.527,33.336,24.408,33.379"/>
	<path style="fill-rule:evenodd;clip-rule:evenodd;fill:#B3B3B3;" d="M23.224,32.501c0.295,0.132,0.474,0.527,0.474,0.835
		s-0.178,0.395-0.474,0.263c-0.237-0.176-0.474-0.526-0.474-0.834S22.986,32.326,23.224,32.501"/>
	<path style="fill-rule:evenodd;clip-rule:evenodd;fill:#818181;" d="M32.229,40.759c0.829-0.66,0.829-0.66,0.829-0.66
		c0.059-0.043,0.118-0.043,0.118,0.045c-0.771,0.615-0.771,0.615-0.771,0.615C32.347,40.759,32.287,40.759,32.229,40.759"/>
	<path style="fill-rule:evenodd;clip-rule:evenodd;fill:#989898;" d="M33.176,40.846c-0.771,0.615-0.771,0.615-0.771,0.615
		c0.06,0,0.06-0.088,0.06-0.176c0-0.219-0.118-0.483-0.236-0.571c0.77-0.658,0.77-0.658,0.77-0.658
		c0.118,0.088,0.178,0.351,0.178,0.527C33.176,40.714,33.176,40.802,33.176,40.846"/>
	<path style="fill-rule:evenodd;clip-rule:evenodd;fill:#676767;" d="M32.702,40.846c0.236,0.088,0.474,0.264,0.474,0.439
		c0,0.132-0.237,0.176-0.474,0.088c-0.297-0.044-0.474-0.22-0.474-0.352C32.229,40.846,32.405,40.759,32.702,40.846"/>
	<polygon style="fill-rule:evenodd;clip-rule:evenodd;fill:#818181;" points="33.176,40.583 34.064,40.056 36.968,41.681 
		36.02,42.165 33.176,40.583 	"/>
	<polygon style="fill-rule:evenodd;clip-rule:evenodd;fill:#4C6AA6;" points="36.197,41.901 36.968,41.461 36.908,42.427 
		36.02,42.867 36.197,41.901 	"/>
	<polygon style="fill-rule:evenodd;clip-rule:evenodd;fill:#676767;" points="33.295,41.812 33.176,40.759 36.02,42.033 
		35.842,42.867 33.295,41.812 	"/>
	<path style="fill-rule:evenodd;clip-rule:evenodd;fill:#989898;" d="M37.856,42.559c-1.481,0.308-1.481,0.308-1.481,0.308
		c0.06,0,0.118-0.044,0.118-0.088c0-0.088-0.236-0.22-0.474-0.264c1.481-0.351,1.481-0.351,1.481-0.351
		c0.296,0.087,0.414,0.176,0.414,0.308C37.915,42.515,37.915,42.515,37.856,42.559"/>
	<path style="fill-rule:evenodd;clip-rule:evenodd;fill:#676767;" d="M36.493,42.251c0.237,0.089,0.475,0.264,0.475,0.439
		c0,0.132-0.237,0.176-0.475,0.088c-0.296-0.044-0.474-0.264-0.474-0.396S36.257,42.165,36.493,42.251"/>
	<polygon style="fill-rule:evenodd;clip-rule:evenodd;fill:#B3B3B3;" points="40.759,46.512 40.759,47.083 39.811,46.292 
		39.811,45.677 40.759,46.512 	"/>
	<polygon style="fill-rule:evenodd;clip-rule:evenodd;fill:#989898;" points="42.655,46.599 42.655,47.083 40.759,46.907 
		40.759,46.38 42.655,46.599 	"/>
	<polygon style="fill-rule:evenodd;clip-rule:evenodd;fill:#B3B3B3;" points="48.342,49.456 48.342,49.894 42.655,46.864 
		42.655,46.38 48.342,49.456 	"/>
	<polygon style="fill-rule:evenodd;clip-rule:evenodd;fill:#989898;" points="49.29,48.489 49.29,49.059 48.342,49.894 
		48.342,49.367 49.29,48.489 	"/>
	<polygon style="fill-rule:evenodd;clip-rule:evenodd;fill:#E7E6E7;" points="49.29,48.62 48.046,49.191 42.596,46.82 
		41.114,46.644 39.93,46.117 39.811,45.501 41.114,44.975 49.29,48.62 	"/>
	<path style="fill-rule:evenodd;clip-rule:evenodd;fill:#6D6F71;" d="M2.667,26.967c-1.244,0.439-1.244,0.439-1.244,0.439
		c0.059,0,0.118-0.132,0.118-0.22c0-0.264-0.237-0.57-0.593-0.703c1.304-0.482,1.304-0.482,1.304-0.482
		c0.355,0.132,0.592,0.438,0.592,0.702C2.843,26.792,2.785,26.923,2.667,26.967"/>
	<path style="fill-rule:evenodd;clip-rule:evenodd;fill:#494650;" d="M0,26.66c1.422-0.57,1.422-0.57,1.422-0.57
		c0.118-0.088,0.296-0.045,0.473,0.044c-1.362,0.57-1.362,0.57-1.362,0.57C0.296,26.66,0.118,26.617,0,26.66"/>
	<path style="fill-rule:evenodd;clip-rule:evenodd;fill:#59595C;" d="M0.533,26.879c0.237,0.176,0.415,0.527,0.415,0.835
		s-0.177,0.395-0.415,0.263C0.238,27.802,0,27.451,0,27.143S0.238,26.704,0.533,26.879"/>
	<path style="fill-rule:evenodd;clip-rule:evenodd;fill:#6D6F71;" d="M2.667,31.623c-1.244,0.703-1.244,0.703-1.244,0.703
		c0.059-0.044,0.118-0.176,0.118-0.352c0-0.396-0.237-0.834-0.593-1.011c1.304-0.745,1.304-0.745,1.304-0.745
		c0.355,0.219,0.592,0.658,0.592,1.01C2.843,31.448,2.785,31.579,2.667,31.623"/>
	<path style="fill-rule:evenodd;clip-rule:evenodd;fill:#494650;" d="M0,30.876c1.422-0.571,1.422-0.571,1.422-0.571
		c0.118-0.087,0.296-0.044,0.473,0.044C0.533,30.92,0.533,30.92,0.533,30.92C0.296,30.876,0.118,30.833,0,30.876"/>
	<path style="fill-rule:evenodd;clip-rule:evenodd;fill:#59595C;" d="M0.533,31.097c0.237,0.174,0.415,0.525,0.415,0.832
		c0,0.308-0.177,0.396-0.415,0.265C0.238,32.018,0,31.667,0,31.36S0.238,30.92,0.533,31.097"/>
	<path style="fill-rule:evenodd;clip-rule:evenodd;fill:#6D6F71;" d="M51.009,48.049c-1.244,0.439-1.244,0.439-1.244,0.439
		c0.059,0,0.177-0.088,0.177-0.22c0-0.264-0.296-0.571-0.651-0.702c1.303-0.483,1.303-0.483,1.303-0.483
		c0.355,0.176,0.594,0.438,0.594,0.702C51.187,47.917,51.126,48.005,51.009,48.049"/>
	<path style="fill-rule:evenodd;clip-rule:evenodd;fill:#494650;" d="M49.29,47.786c0.711-0.614,0.711-0.614,0.711-0.614
		c0.118-0.088,0.178-0.088,0.237,0c-0.652,0.614-0.652,0.614-0.652,0.614C49.468,47.743,49.35,47.743,49.29,47.786"/>
	<path style="fill-rule:evenodd;clip-rule:evenodd;fill:#59595C;" d="M49.29,47.259c0.533,0.176,0.948,0.526,0.948,0.834
		s-0.415,0.396-0.948,0.264c-0.475-0.132-0.948-0.527-0.948-0.835S48.815,47.083,49.29,47.259"/>
	<path style="fill-rule:evenodd;clip-rule:evenodd;fill:#6D6F71;" d="M51.009,52.266c-1.244,0.439-1.244,0.439-1.244,0.439
		c0.059,0,0.177-0.089,0.177-0.221c0-0.263-0.296-0.57-0.651-0.702c1.303-0.482,1.303-0.482,1.303-0.482
		c0.355,0.175,0.594,0.439,0.594,0.702C51.187,52.134,51.126,52.222,51.009,52.266"/>
	<path style="fill-rule:evenodd;clip-rule:evenodd;fill:#494650;" d="M49.29,52.002c0.711-0.615,0.711-0.615,0.711-0.615
		c0.118-0.087,0.178-0.087,0.237,0c-0.652,0.615-0.652,0.615-0.652,0.615C49.468,51.958,49.35,51.958,49.29,52.002"/>
	<path style="fill-rule:evenodd;clip-rule:evenodd;fill:#59595C;" d="M49.29,52.09c0.533,0.087,0.948,0.264,0.948,0.439
		c0,0.132-0.415,0.176-0.948,0.132c-0.475-0.088-0.948-0.264-0.948-0.439C48.342,52.09,48.815,52.002,49.29,52.09"/>
	<polygon style="fill-rule:evenodd;clip-rule:evenodd;fill:#B3B3B3;" points="40.759,50.993 40.759,51.3 39.811,50.861 
		39.811,50.596 40.759,50.993 	"/>
	<polygon style="fill-rule:evenodd;clip-rule:evenodd;fill:#989898;" points="42.655,51.519 42.655,52.002 40.759,51.827 
		40.759,51.3 42.655,51.519 	"/>
	<polygon style="fill-rule:evenodd;clip-rule:evenodd;fill:#B3B3B3;" points="48.342,53.759 48.342,54.111 42.655,51.695 
		42.655,51.3 48.342,53.759 	"/>
	<polygon style="fill-rule:evenodd;clip-rule:evenodd;fill:#989898;" points="49.29,53.408 49.29,53.714 48.342,54.111 
		48.342,53.847 49.29,53.408 	"/>
	<polygon style="fill-rule:evenodd;clip-rule:evenodd;fill:#E7E6E7;" points="49.29,53.54 48.046,54.111 42.596,51.695 
		41.114,51.519 39.93,51.08 39.811,50.464 41.114,49.894 49.29,53.54 	"/>
	<polygon style="fill-rule:evenodd;clip-rule:evenodd;fill:#B3B3B3;" points="7.583,32.018 7.583,32.326 1.896,29.867 1.896,29.515 
		7.583,32.018 	"/>
	<polygon style="fill-rule:evenodd;clip-rule:evenodd;fill:#B3B3B3;" points="8.531,32.765 8.531,33.029 7.583,32.633 7.583,32.326 
		8.531,32.765 	"/>
	<polygon style="fill-rule:evenodd;clip-rule:evenodd;fill:#989898;" points="11.375,32.326 11.375,32.633 10.427,33.029 
		10.427,32.765 11.375,32.326 	"/>
	<polygon style="fill-rule:evenodd;clip-rule:evenodd;fill:#E7E6E7;" points="11.375,32.458 10.19,32.984 8.946,33.029 
		7.642,32.458 7.405,31.842 1.896,29.427 3.258,28.812 11.375,32.458 	"/>
	<polygon style="fill-rule:evenodd;clip-rule:evenodd;fill:#B3B3B3;" points="7.583,36.191 7.583,36.542 1.896,34.126 1.896,33.731 
		7.583,36.191 	"/>
	<polygon style="fill-rule:evenodd;clip-rule:evenodd;fill:#B3B3B3;" points="8.531,37.42 8.531,37.948 7.583,37.113 7.583,36.542 
		8.531,37.42 	"/>
	<polygon style="fill-rule:evenodd;clip-rule:evenodd;fill:#989898;" points="9.479,37.245 9.479,37.86 8.531,37.948 8.531,37.376 
		9.479,37.245 	"/>
	<polygon style="fill-rule:evenodd;clip-rule:evenodd;fill:#989898;" points="11.375,36.542 11.375,37.157 9.479,37.948 
		9.479,37.376 11.375,36.542 	"/>
	<polygon style="fill-rule:evenodd;clip-rule:evenodd;fill:#E7E6E7;" points="11.375,36.673 10.072,37.202 8.828,37.245 
		7.642,36.673 7.405,35.971 1.896,33.599 3.258,33.029 11.375,36.673 	"/>
	<polygon style="fill-rule:evenodd;clip-rule:evenodd;fill:#212859;" points="54.977,43.174 55.924,42.867 55.924,56.658 
		54.977,56.921 54.977,43.174 	"/>
	<polygon style="fill-rule:evenodd;clip-rule:evenodd;fill:#2D3D7C;" points="50.238,41.067 51.067,40.759 55.924,42.604 
		55.156,42.867 50.238,41.067 	"/>
	<polygon style="fill-rule:evenodd;clip-rule:evenodd;fill:#314386;" points="54.977,42.647 54.977,56.921 50.238,55.077 
		50.238,40.759 54.977,42.647 	"/>
	<path style="fill-rule:evenodd;clip-rule:evenodd;fill:#212859;" d="M53.557,53.671c0.294,0.219,0.474,0.747,0.474,1.229
		c0,0.483-0.18,0.615-0.474,0.395c-0.238-0.219-0.474-0.745-0.474-1.229C53.083,53.583,53.318,53.408,53.557,53.671L53.557,53.671z
		 M53.557,54.901c0.176,0.132,0.235,0.044,0.235-0.219c0.059-0.221-0.06-0.528-0.235-0.615c-0.121-0.132-0.238-0.045-0.238,0.22
		C53.318,54.505,53.436,54.813,53.557,54.901"/>
	<path style="fill-rule:evenodd;clip-rule:evenodd;fill:#212859;" d="M52.371,53.935c0,0.395,0.532,0.57,0.649,0.57
		c0,0.967,0,0.967,0,0.967c0,0.044-0.176,0.044-0.473,0.044c-0.177-0.044-0.415-0.089-0.415-0.176
		c0.238-11.684,0.238-11.684,0.238-11.684c0-0.043,0.177-0.087,0.355-0.043c0.177,0.043,0.356,0.132,0.356,0.175
		c-0.063,9.751-0.063,9.751-0.063,9.751C52.903,53.54,52.254,53.583,52.371,53.935"/>
	<path style="fill-rule:evenodd;clip-rule:evenodd;fill:#D2CADF;" d="M51.187,43.57l0.946,0.57v11.376l-0.946-0.571V43.57
		L51.187,43.57z M52.133,46.864v-2.679l-0.829-0.528v2.681L52.133,46.864L52.133,46.864z M52.133,51.211v-4.216l-0.414-0.22v4.217
		L52.133,51.211L52.133,51.211z M51.66,50.904v-4.172l-0.356-0.263v4.216L51.66,50.904L51.66,50.904z M52.074,55.384l0.059-4.129
		l-0.414-0.22v4.129L52.074,55.384L52.074,55.384z M51.66,55.165v-4.172l-0.356-0.264v4.216L51.66,55.165L51.66,55.165z"/>
	<path style="fill-rule:evenodd;clip-rule:evenodd;fill:#D2CADF;" d="M51.187,42.559c0-1.098,0-1.098,0-1.098
		c0.354,0.175,0.354,0.175,0.354,0.175c0,0.439,0,0.439,0,0.439c0.533,0.265,0.533,0.265,0.533,0.265c0-0.439,0-0.439,0-0.439
		c0.355,0.175,0.355,0.175,0.355,0.175c0,1.055,0,1.055,0,1.055c-0.355-0.176-0.355-0.176-0.355-0.176c0-0.482,0-0.482,0-0.482
		c-0.533-0.265-0.533-0.265-0.533-0.265c0,0.527,0,0.527,0,0.527C51.187,42.559,51.187,42.559,51.187,42.559L51.187,42.559z
		 M52.548,42.999c0.12,0.088,0.297,0.176,0.414,0.264c0.121,0.044,0.238,0.087,0.297,0.087c0.06,0,0.118-0.043,0.118-0.087
		s-0.059-0.088-0.118-0.132c0-0.089-0.059-0.089-0.059-0.176c-0.117,0-0.18-0.088-0.355-0.132c-0.177-0.088-0.177-0.088-0.177-0.088
		c0-0.131,0-0.131,0-0.131c0.177,0.131,0.177,0.131,0.177,0.131c0.117,0,0.238,0.088,0.238,0.088c0.117,0,0.117,0,0.176,0v-0.088
		c0-0.044,0-0.088,0-0.131c-0.059-0.045-0.176-0.132-0.297-0.177c-0.117-0.044-0.294-0.131-0.414-0.131c0-0.177,0-0.177,0-0.177
		c0.179,0.088,0.414,0.177,0.473,0.177c0.18,0.087,0.415,0.263,0.536,0.351c0.059,0.088,0.059,0.176,0.059,0.22
		c0,0.045,0,0.088-0.059,0.132c-0.059,0-0.121,0-0.18-0.044c0.059,0.087,0.121,0.132,0.18,0.176s0.059,0.088,0.117,0.132
		c0,0.044,0.059,0.132,0.059,0.132c0,0.087-0.059,0.176-0.176,0.176c-0.121,0-0.356-0.089-0.595-0.176c0,0-0.294-0.176-0.414-0.264
		C52.548,42.999,52.548,42.999,52.548,42.999L52.548,42.999z M54.977,44.272c-0.059,0-0.234-0.044-0.355-0.132
		c-0.235-0.088-0.591-0.263-0.65-0.438c-0.179-0.176-0.179-0.308-0.179-0.483c0-0.177,0-0.264,0.179-0.352
		c0.06,0,0.356,0.088,0.65,0.175c0.18,0.089,0.238,0.133,0.355,0.221c0,0.176,0,0.176,0,0.176c-0.117-0.132-0.234-0.176-0.297-0.22
		c-0.176-0.088-0.294-0.088-0.415-0.088c-0.117,0.044-0.117,0.132-0.117,0.264s0.059,0.22,0.18,0.352
		c0.059,0.132,0.177,0.219,0.353,0.307c0.18,0.044,0.18,0.044,0.297,0.088C54.977,44.272,54.977,44.272,54.977,44.272L54.977,44.272
		z"/>
</g>
</svg>