<?xml version="1.0" encoding="iso-8859-1"?>
<!DOCTYPE svg PUBLIC "-//W3C//DTD SVG 1.1//EN" "http://www.w3.org/Graphics/SVG/1.1/DTD/svg11.dtd">
<svg version="1.1" xmlns="http://www.w3.org/2000/svg" xmlns:xlink="http://www.w3.org/1999/xlink" width="106" height="54" viewBox="0 0 106 54">
<g>
	<polygon style="fill-rule:evenodd;clip-rule:evenodd;fill:#273472;" points="59.131,47.912 106.063,26.409 105.944,31.545 
		59.131,52.819 59.131,47.912 59.131,47.912 59.131,47.912 	"/>
	<polygon style="fill-rule:evenodd;clip-rule:evenodd;fill:#4B68AF;" points="0,21.366 47.282,0 106.063,26.271 58.84,47.684 
		0,21.366 0,21.366 0,21.366 	"/>
	<polygon style="fill-rule:evenodd;clip-rule:evenodd;fill:#354990;" points="59.131,47.912 59.131,52.819 0,26.455 0,21.274 
		59.131,47.912 59.131,47.912 59.131,47.912 	"/>
	<polygon style="fill-rule:evenodd;clip-rule:evenodd;fill:#273472;" points="2.229,23.612 2.815,23.475 2.815,27.785 1.877,27.877 
		2.229,23.612 2.229,23.612 2.229,23.612 	"/>
	<polygon style="fill-rule:evenodd;clip-rule:evenodd;fill:#273472;" points="7.509,26.501 8.448,26.409 8.448,29.985 7.509,30.077 
		7.509,26.501 7.509,26.501 7.509,26.501 	"/>
	<polygon style="fill-rule:evenodd;clip-rule:evenodd;fill:#273472;" points="8.448,26.547 9.386,26.409 9.386,30.72 8.448,30.812 
		8.448,26.547 8.448,26.547 8.448,26.547 	"/>
	<polygon style="fill-rule:evenodd;clip-rule:evenodd;fill:#273472;" points="14.079,29.436 15.018,29.343 15.018,32.921 
		14.079,33.012 14.079,29.436 14.079,29.436 14.079,29.436 	"/>
	<polygon style="fill-rule:evenodd;clip-rule:evenodd;fill:#273472;" points="15.018,29.482 15.956,29.343 15.956,33.563 
		15.018,33.746 15.018,29.482 15.018,29.482 15.018,29.482 	"/>
	<polygon style="fill-rule:evenodd;clip-rule:evenodd;fill:#273472;" points="20.65,32.37 21.588,32.278 21.588,32.966 
		20.65,33.012 20.65,32.37 20.65,32.37 20.65,32.37 	"/>
	<polygon style="fill-rule:evenodd;clip-rule:evenodd;fill:#273472;" points="21.588,32.415 22.527,32.278 22.527,33.563 
		21.588,33.746 21.588,32.415 21.588,32.415 21.588,32.415 	"/>
	<polygon style="fill-rule:evenodd;clip-rule:evenodd;fill:#273472;" points="26.281,34.709 27.22,34.479 27.22,35.854 
		26.281,35.946 26.281,34.709 26.281,34.709 26.281,34.709 	"/>
	<polygon style="fill-rule:evenodd;clip-rule:evenodd;fill:#273472;" points="27.22,34.709 28.158,34.479 28.158,35.854 
		27.22,35.946 27.22,34.709 27.22,34.709 27.22,34.709 	"/>
	<polygon style="fill-rule:evenodd;clip-rule:evenodd;fill:#273472;" points="32.851,37.643 33.79,37.413 33.79,38.789 
		32.851,38.88 32.851,37.643 32.851,37.643 32.851,37.643 	"/>
	<polygon style="fill-rule:evenodd;clip-rule:evenodd;fill:#273472;" points="33.79,38.238 34.729,38.147 34.729,38.835 
		33.79,38.88 33.79,38.238 33.79,38.238 33.79,38.238 	"/>
	<polygon style="fill-rule:evenodd;clip-rule:evenodd;fill:#273472;" points="40.36,41.219 41.299,41.081 41.299,45.3 40.36,45.482 
		40.36,41.219 40.36,41.219 40.36,41.219 	"/>
	<polygon style="fill-rule:evenodd;clip-rule:evenodd;fill:#273472;" points="41.299,41.081 42.237,41.081 42.237,45.3 
		41.299,45.482 41.299,41.081 41.299,41.081 41.299,41.081 	"/>
	<polygon style="fill-rule:evenodd;clip-rule:evenodd;fill:#273472;" points="46.93,44.153 47.869,44.016 47.869,48.233 
		46.93,48.417 46.93,44.153 46.93,44.153 46.93,44.153 	"/>
	<polygon style="fill-rule:evenodd;clip-rule:evenodd;fill:#273472;" points="47.869,44.245 48.808,44.016 48.808,48.233 
		47.869,48.417 47.869,44.245 47.869,44.245 47.869,44.245 	"/>
	<polygon style="fill-rule:evenodd;clip-rule:evenodd;fill:#273472;" points="53.853,47.042 54.44,46.949 54.44,50.525 
		53.501,50.618 53.853,47.042 53.853,47.042 53.853,47.042 	"/>
	<polygon style="fill-rule:evenodd;clip-rule:evenodd;fill:#273472;" points="54.44,47.18 55.377,46.949 55.377,51.26 54.44,51.353 
		54.44,47.18 54.44,47.18 54.44,47.18 	"/>
	<polygon style="fill-rule:evenodd;clip-rule:evenodd;fill:#4B68AF;" points="0,21.412 0.176,21.274 58.193,47.592 58.077,47.684 
		0,21.412 0,21.412 0,21.412 	"/>
	<polygon style="fill-rule:evenodd;clip-rule:evenodd;fill:#354990;" points="58.193,47.729 58.193,52.819 55.555,51.672 
		55.555,47.639 54.614,47.18 54.614,51.26 54.204,51.077 54.204,46.904 53.677,46.676 53.677,50.756 53.149,50.663 53.149,46.491 
		52.621,46.17 52.621,50.343 52.093,50.114 52.093,45.941 51.447,45.758 51.447,49.793 50.92,49.609 50.92,45.438 50.392,45.116 
		50.392,49.38 49.805,49.059 49.805,45.023 49.276,44.703 49.276,48.875 48.632,48.646 48.632,44.475 48.104,44.291 48.104,48.371 
		47.693,48.143 47.693,43.97 47.048,43.649 47.048,47.912 46.638,47.639 46.638,43.557 46.109,43.235 45.991,47.317 45.582,47.18 
		45.582,42.915 45.053,42.824 45.053,46.904 44.35,46.583 44.35,42.503 43.821,42.182 43.821,46.491 43.293,46.17 43.293,42.09 
		42.766,41.769 42.766,45.849 42.237,45.758 42.237,41.447 41.592,41.127 41.592,45.438 41.064,45.116 41.064,41.036 40.536,40.715 
		40.536,44.795 39.949,44.703 40.126,40.394 39.422,40.302 39.422,44.382 39.07,44.291 39.07,39.98 38.541,39.659 38.249,41.036 
		37.955,40.715 37.955,39.568 37.311,39.248 37.311,40.394 36.781,40.302 36.781,38.927 36.254,38.743 36.254,39.98 35.726,39.659 
		35.726,38.514 35.198,38.238 35.198,39.568 34.493,39.248 34.493,38.01 33.966,37.78 33.966,38.927 33.438,38.835 33.438,37.505 
		32.91,37.275 32.91,38.514 32.382,38.238 32.382,37.047 31.854,36.771 31.854,38.01 31.443,37.78 31.443,36.542 30.681,36.359 
		30.681,37.505 30.271,37.367 30.271,36.038 29.742,35.808 29.742,37.047 29.214,36.771 29.214,35.625 28.686,35.304 28.686,36.542 
		28.1,36.359 28.1,35.075 27.454,34.754 27.454,36.038 26.926,35.808 26.926,34.571 26.398,34.341 26.398,35.625 25.871,35.304 
		25.871,34.02 25.343,33.837 25.343,35.075 24.639,34.892 24.639,33.608 24.11,33.287 24.11,34.571 23.876,34.341 23.876,33.104 
		23.055,32.874 23.055,34.02 22.644,33.837 22.644,32.6 22.116,32.278 22.116,33.608 21.588,33.287 21.588,32.141 21.06,31.865 
		21.06,33.104 20.415,32.874 20.415,31.545 19.887,31.407 19.887,32.6 19.359,32.37 19.359,31.131 18.831,30.812 18.831,32.141 
		18.244,31.865 18.244,30.72 17.599,30.398 17.599,34.479 17.071,34.341 17.071,30.077 16.543,29.757 16.543,34.02 16.015,33.746 
		16.015,29.664 15.487,29.343 15.487,33.608 15.077,33.287 15.077,29.252 14.255,28.932 14.255,33.012 14.02,32.874 14.02,28.61 
		13.317,28.289 13.317,32.6 12.789,32.278 12.789,28.198 12.26,27.877 12.26,31.958 11.732,31.865 11.732,27.556 11.205,27.464 
		11.205,31.545 10.56,31.224 10.56,27.144 10.031,26.822 10.031,31.131 9.503,30.812 9.503,26.73 8.976,26.409 8.976,30.49 
		8.389,30.398 8.389,26.089 7.861,25.905 7.861,30.077 7.216,29.757 7.509,25.676 6.688,25.355 6.688,29.527 6.277,29.343 
		6.277,25.171 5.75,24.942 5.631,29.022 5.221,28.932 5.221,24.621 4.693,24.438 4.693,28.61 4.165,28.289 4.165,24.208 
		3.461,23.888 3.461,28.106 2.933,27.877 2.933,23.704 2.581,23.475 2.405,27.556 0,26.409 0,21.274 58.193,47.729 58.193,47.729 
		58.193,47.729 	"/>
	<path style="fill-rule:evenodd;clip-rule:evenodd;fill:#FFFFFF;" d="M23.817,35.672c0.293,0,0.293,0,0.293,0
		c0-0.138,0-0.138-0.293-0.275c0,0,0,0,0,0.138V35.672 M23.817,35.213c0.293,0.184,0.587,0.321,0.587,0.459
		c0,0.136-0.293,0.274-0.587,0.136c-0.352,0-0.352-0.273-0.352-0.411C23.465,35.213,23.465,35.213,23.817,35.213L23.817,35.213
		L23.817,35.213z"/>
	<path style="fill-rule:evenodd;clip-rule:evenodd;fill:#FFFFFF;" d="M25.694,36.497c0.293,0,0.293,0,0.293-0.184
		c0,0,0-0.185-0.293-0.185c0,0-0.352,0-0.352,0.185L25.694,36.497 M25.694,35.946c0.293,0.183,0.587,0.367,0.587,0.551
		c0,0.183-0.293,0.183-0.587,0.183c-0.352-0.183-0.352-0.366-0.352-0.551C25.343,35.946,25.343,35.946,25.694,35.946L25.694,35.946
		L25.694,35.946z"/>
	<path style="fill-rule:evenodd;clip-rule:evenodd;fill:#FFFFFF;" d="M27.689,37.275c0.234,0,0.234,0,0.234-0.137
		c0,0,0-0.138-0.234-0.138h-0.235C27.454,37.139,27.689,37.139,27.689,37.275 M27.689,36.863c0.234,0,0.469,0.275,0.469,0.412
		c0,0.138-0.234,0.138-0.469,0.138c-0.235-0.138-0.47-0.274-0.47-0.412S27.454,36.68,27.689,36.863L27.689,36.863L27.689,36.863z"/>
	<path style="fill-rule:evenodd;clip-rule:evenodd;fill:#FFFFFF;" d="M29.566,38.01c0.234,0,0.234,0,0.234-0.138
		c0,0,0-0.139-0.234-0.139c0-0.138-0.235,0-0.235,0C29.331,37.872,29.566,37.872,29.566,38.01 M29.566,37.596
		c0.234,0,0.469,0.138,0.469,0.414c0,0.138-0.234,0.138-0.469,0c-0.235,0-0.47-0.138-0.47-0.276
		C29.097,37.596,29.331,37.413,29.566,37.596L29.566,37.596L29.566,37.596z"/>
	<path style="fill-rule:evenodd;clip-rule:evenodd;fill:#FFFFFF;" d="M31.443,39.339c0,0.138,0.234,0,0.234,0
		c0-0.138-0.234-0.138-0.234-0.274c0,0-0.234,0-0.234,0.137L31.443,39.339 M31.443,38.88c0.234,0.185,0.469,0.321,0.469,0.459
		s-0.235,0.275-0.469,0.138c-0.234,0-0.47-0.275-0.47-0.412C30.974,38.88,31.209,38.88,31.443,38.88L31.443,38.88L31.443,38.88z"/>
	<path style="fill-rule:evenodd;clip-rule:evenodd;fill:#FFFFFF;" d="M33.321,40.073h0.234c0-0.138-0.234-0.275-0.234-0.275
		c-0.234,0-0.234,0-0.234,0.138C33.086,39.936,33.086,40.073,33.321,40.073 M33.321,39.614c0.234,0.184,0.469,0.321,0.469,0.459
		s-0.235,0.273-0.469,0.138c-0.234,0-0.47-0.275-0.47-0.413C32.851,39.614,33.086,39.614,33.321,39.614L33.321,39.614L33.321,39.614
		z"/>
</g>
</svg>