<?xml version="1.0" encoding="iso-8859-1"?>
<!DOCTYPE svg PUBLIC "-//W3C//DTD SVG 1.1//EN" "http://www.w3.org/Graphics/SVG/1.1/DTD/svg11.dtd">
<svg version="1.1" xmlns="http://www.w3.org/2000/svg" xmlns:xlink="http://www.w3.org/1999/xlink" width="102" height="60" viewBox="0 0 102 60">
<g>
	<polygon style="fill-rule:evenodd;clip-rule:evenodd;fill:#273472;" points="56.209,54.768 101.361,32.426 101.361,37.832 
		56.209,60.22 56.209,54.768 56.209,54.768 56.209,54.768 	"/>
	<polygon style="fill-rule:evenodd;clip-rule:evenodd;fill:#4B65A8;" points="0,27.408 45.152,5.404 101.361,32.764 56.209,54.816 
		0,27.408 0,27.408 0,27.408 	"/>
	<polygon style="fill-rule:evenodd;clip-rule:evenodd;fill:#4863A4;" points="56.209,54.768 56.209,60.22 0,32.522 0,27.022 
		56.095,54.768 56.209,54.768 56.209,54.768 	"/>
	<polygon style="fill-rule:evenodd;clip-rule:evenodd;fill:#273472;" points="56.209,48.881 101.361,27.022 101.361,32.331 
		56.209,54.044 56.209,48.881 56.209,48.881 56.209,48.881 	"/>
	<polygon style="fill-rule:evenodd;clip-rule:evenodd;fill:#4B68AF;" points="0,22.003 45.152,0 101.361,27.36 56.209,49.412 
		0,22.003 0,22.003 0,22.003 	"/>
	<polygon style="fill-rule:evenodd;clip-rule:evenodd;fill:#354990;" points="56.209,48.881 56.209,54.044 0,26.925 0,21.618 
		56.209,48.881 56.209,48.881 56.209,48.881 	"/>
	<polygon style="fill-rule:evenodd;clip-rule:evenodd;fill:#4B68AF;" points="0,27.939 0.172,27.793 56.209,54.816 56.095,54.816 
		0,27.939 0,27.939 0,27.939 	"/>
	<polygon style="fill-rule:evenodd;clip-rule:evenodd;fill:#4B68AF;" points="56.209,55.057 56.209,60.22 0,32.91 0,27.793 
		56.209,55.057 56.209,55.057 56.209,55.057 	"/>
	<polygon style="fill-rule:evenodd;clip-rule:evenodd;fill:#FFFFFF;" points="10.136,35.514 16.586,38.41 16.586,40.147 
		10.136,37.204 10.136,35.514 10.136,35.514 10.136,35.514 	"/>
	<polygon style="fill-rule:evenodd;clip-rule:evenodd;fill:#34497F;" points="11.979,36.335 11.979,37.832 11.345,37.589 
		11.345,37.832 10.655,37.589 10.655,37.3 10.136,36.914 10.136,35.514 11.979,36.335 11.979,36.335 11.979,36.335 	"/>
	<polygon style="fill-rule:evenodd;clip-rule:evenodd;fill:#34497F;" points="13.822,37.686 13.822,38.602 13.246,38.362 
		13.246,38.602 12.613,38.362 12.613,38.265 11.979,38.024 11.979,37.058 13.822,37.686 13.822,37.686 13.822,37.686 	"/>
	<polygon style="fill-rule:evenodd;clip-rule:evenodd;fill:#34497F;" points="15.665,38.41 15.665,39.375 15.435,39.278 
		15.435,39.375 15.089,39.278 15.089,38.988 14.744,38.795 14.744,37.832 15.665,38.41 15.665,38.41 15.665,38.41 	"/>
	<polygon style="fill-rule:evenodd;clip-rule:evenodd;fill:#4761A1;" points="10.136,35.755 10.309,35.514 16.586,38.602 
		16.471,38.602 10.136,35.755 10.136,35.755 10.136,35.755 	"/>
	<polygon style="fill-rule:evenodd;clip-rule:evenodd;fill:#131E45;" points="8.293,33.198 8.293,35.514 5.528,34.116 5.528,31.655 
		8.293,33.198 8.293,33.198 8.293,33.198 	"/>
	<path style="fill-rule:evenodd;clip-rule:evenodd;fill:#131E45;" d="M23.958,42.946c0,0,0,0,0-0.145l0,0l0,0l0,0l0,0
		c0-0.146,0-0.146,0-0.146l0,0h-0.23l0,0v-0.192l0,0c0,0,0,0-0.23,0l0,0l0,0l0,0l0,0l0,0c-0.461,0.192-0.461,0.192-0.461,0.192l0,0
		l0,0l0,0l0,0h0.231l0,0l0.23,0.146l0,0l0,0c0,0,0,0,0,0.145h0.23l0,0c0,0.146,0,0.146,0,0.146c0,0.144,0,0.144-0.23,0.144
		c0.46-0.144,0.46-0.144,0.46-0.144S23.958,43.091,23.958,42.946L23.958,42.946"/>
	<path style="fill-rule:evenodd;clip-rule:evenodd;fill:#364B82;" d="M23.498,43.235c0.23,0.194,0.46,0.338,0.46,0.482
		c0,0.146-0.23,0.29-0.46,0.146c-0.23,0-0.461-0.29-0.461-0.434C23.036,43.235,23.267,43.235,23.498,43.235L23.498,43.235"/>
	<path style="fill-rule:evenodd;clip-rule:evenodd;fill:#364B82;" d="M29.199,45.745c0.289,0,0.289,0.145,0.289,0.289
		c0,0.29,0,0.29-0.289,0.146c-0.288,0-0.633-0.146-0.633-0.29C28.565,45.551,28.911,45.551,29.199,45.745L29.199,45.745"/>
	<path style="fill-rule:evenodd;clip-rule:evenodd;fill:#131E45;" d="M32.251,47.433L32.251,47.433L32.251,47.433L32.251,47.433
		v-0.145l0,0l0,0c-0.23,0-0.23,0-0.23,0c0-0.193,0-0.193,0-0.193l0,0l0,0l0,0c-0.23,0-0.23,0-0.23,0l0,0l0,0l0,0c0,0,0,0-0.231,0
		l0,0c-0.23,0.193-0.23,0.193-0.23,0.193l0,0l0,0l0,0l0,0l0,0c0.23,0,0.23,0,0.23,0l0,0c0.231,0,0.231,0,0.231,0
		c0,0.145,0,0.145,0,0.145l0,0v0.145l0,0c0.23,0,0.23,0.146,0.23,0.146l-0.23,0.145c0.46-0.145,0.46-0.145,0.46-0.145v-0.146V47.433
		"/>
	<path style="fill-rule:evenodd;clip-rule:evenodd;fill:#364B82;" d="M31.791,47.289c0.23,0,0.46,0.289,0.46,0.435
		c0,0.145-0.23,0.145-0.46,0.145c-0.231-0.145-0.461-0.29-0.461-0.435S31.56,47.095,31.791,47.289L31.791,47.289"/>
	<path style="fill-rule:evenodd;clip-rule:evenodd;fill:#131E45;" d="M37.78,49.75L37.78,49.75L37.78,49.75L37.78,49.75
		c0,0,0,0,0-0.145l0,0l0,0c0,0,0,0-0.23,0l0,0c0,0,0,0,0-0.193l0,0l0,0h-0.23l0,0l0,0l0,0l0,0l0,0
		c-0.461,0.193-0.461,0.193-0.461,0.193l0,0l0,0l0,0l0,0l0,0c0.231,0,0.231,0,0.231,0s0,0,0.229,0v0.145l0,0l0,0
		c0,0.146,0,0.146,0.23,0.146l0,0v0.144c0,0,0,0.145-0.23,0.145c0.461-0.145,0.461-0.145,0.461-0.145v-0.144
		C37.78,49.895,37.78,49.895,37.78,49.75"/>
	<path style="fill-rule:evenodd;clip-rule:evenodd;fill:#364B82;" d="M37.319,49.605c0.23,0.145,0.461,0.29,0.461,0.434
		c0,0.145-0.23,0.145-0.461,0.145c-0.229-0.145-0.461-0.288-0.461-0.434C36.858,49.605,37.09,49.412,37.319,49.605L37.319,49.605"/>
	<path style="fill-rule:evenodd;clip-rule:evenodd;fill:#131E45;" d="M53.444,57.47L53.444,57.47L53.444,57.47L53.444,57.47
		c0-0.146,0-0.146,0-0.146l0,0c0,0,0,0-0.229,0v-0.192l0,0l0,0l0,0c0,0,0,0-0.232,0l0,0l0,0l0,0l0,0h-0.229l0,0
		c-0.229,0.192-0.229,0.192-0.229,0.192l0,0l0,0l0,0l0,0l0,0h0.229l0,0l0,0c0.229,0,0.229,0.146,0.229,0.146l0,0v0.145l0,0
		c0,0,0,0,0,0.146v0.145c0.461-0.145,0.461-0.145,0.461-0.145v-0.146V57.47"/>
	<path style="fill-rule:evenodd;clip-rule:evenodd;fill:#131E45;" d="M46.073,53.609L46.073,53.609L46.073,53.609L46.073,53.609
		v-0.145l0,0l0,0c-0.229,0-0.229,0-0.229,0l0,0v-0.193l0,0l0,0c-0.23,0-0.23,0-0.23,0l0,0l0,0l0,0c0,0,0,0-0.231,0l0,0
		c-0.229,0.193-0.229,0.193-0.229,0.193l0,0l0,0l0,0l0,0l0,0c0.229,0,0.229,0,0.229,0s0,0,0.231,0c0,0,0,0,0,0.145l0,0l0,0v0.146
		c0,0,0,0,0.23,0v0.145l-0.23,0.146c0.46-0.146,0.46-0.146,0.46-0.146v-0.145C46.073,53.754,46.073,53.754,46.073,53.609"/>
	<path style="fill-rule:evenodd;clip-rule:evenodd;fill:#364B82;" d="M45.613,53.464c0.23,0.145,0.46,0.29,0.46,0.435
		c0,0.146-0.229,0.146-0.46,0.146c-0.231-0.146-0.461-0.29-0.461-0.436C45.152,53.464,45.382,53.271,45.613,53.464L45.613,53.464"/>
	<path style="fill-rule:evenodd;clip-rule:evenodd;fill:#152149;" d="M18.429,39.858v-0.145l0,0l0,0l0,0c0-0.146,0-0.146,0-0.146
		h-0.23l0,0l0,0l0,0v-0.192h-0.23l0,0l0,0l0,0l0,0c-0.231,0-0.231,0-0.231,0l0,0c-0.23,0.192-0.23,0.192-0.23,0.192l0,0l0,0l0,0l0,0
		h0.23c0,0,0,0,0,0.146l0,0h0.231l0,0c0,0.145,0,0.145,0,0.145l0,0c0,0.144,0,0.144,0,0.144c0,0.146,0,0.146,0,0.146
		c0.46-0.146,0.46-0.146,0.46-0.146S18.429,40.001,18.429,39.858L18.429,39.858"/>
	<path style="fill-rule:evenodd;clip-rule:evenodd;fill:#131E45;" d="M21.77,41.691h-0.173c-0.403,0.192-0.403,0.192-0.403,0.192
		c0.231,0,0.231,0,0.403,0c0,0,0.173,0.29,0.173,0.435v0.146c0.173-0.146,0.173-0.146,0.173-0.146c0.172,0,0.172-0.145,0.172-0.145
		C22.115,42.029,21.943,41.691,21.77,41.691"/>
	<path style="fill-rule:evenodd;clip-rule:evenodd;fill:#364B82;" d="M21.827,41.883c0,0,0.288,0.29,0.288,0.435
		c0,0.146-0.288,0.146-0.288,0.146c-0.287-0.146-0.633-0.29-0.633-0.435C21.193,41.883,21.54,41.691,21.827,41.883L21.827,41.883"/>
	<path style="fill-rule:evenodd;clip-rule:evenodd;fill:#354A80;" d="M2.303,32.522c0.346,0.098,0.461,0.29,0.461,0.436
		c0,0.192-0.115,0.24-0.461,0.192c-0.115-0.096-0.46-0.29-0.46-0.434C1.843,32.522,2.188,32.426,2.303,32.522L2.303,32.522"/>
	<path style="fill-rule:evenodd;clip-rule:evenodd;fill:#131E45;" d="M3.686,32.522l-0.23-0.144c0,0,0,0,0-0.194
		c0,0,0,0-0.231-0.144l-0.23-0.194c0,0,0,0-0.23,0l0,0l0,0l0,0c-0.23-0.191-0.23,0-0.23,0l0,0c-0.691,0.194-0.691,0.194-0.691,0.194
		c0.23,0,0.23,0,0.23,0l0,0c0.23,0,0.23,0,0.23,0c0.231,0.144,0.231,0.144,0.461,0.338c0,0,0,0,0,0.144c0.23,0,0.23,0,0.23,0.194
		l0,0c0,0.144,0,0.144,0,0.144c0,0.194,0,0.338-0.23,0.338c0.691-0.144,0.691-0.144,0.691-0.144c0-0.194,0.23-0.194,0.23-0.338
		V32.522"/>
	<polygon style="fill-rule:evenodd;clip-rule:evenodd;fill:#3F5792;" points="46.477,54.044 46.073,54.14 52.005,56.361 
		52.524,56.312 46.477,54.044 46.477,54.044 	"/>
	<polygon style="fill-rule:evenodd;clip-rule:evenodd;fill:#FFFFFF;" points="52.524,56.649 52.524,56.649 52.524,56.747 
		52.408,57.132 52.408,57.132 52.408,57.132 46.361,54.865 46.361,54.865 46.361,54.768 46.073,54.044 46.073,54.044 46.073,54.044 
		52.524,56.649 52.524,56.649 52.524,56.649 	"/>
	<polygon style="fill-rule:evenodd;clip-rule:evenodd;fill:#131E45;" points="51.602,56.601 51.372,57.132 46.361,54.623 
		46.073,54.044 51.602,56.601 51.602,56.601 51.602,56.601 	"/>
	<polygon style="fill-rule:evenodd;clip-rule:evenodd;fill:#32477C;" points="51.832,56.504 51.602,57.132 52.005,57.035 
		52.524,56.361 51.832,56.504 51.832,56.504 	"/>
	<path style="fill-rule:evenodd;clip-rule:evenodd;fill:#131E45;" d="M53.444,54.527L53.444,54.527v-0.145l0,0l0,0l0,0
		c0,0,0-0.146-0.229-0.146l0,0l0,0l0,0l0,0c0-0.192,0-0.192-0.232-0.192l0,0l0,0l0,0l0,0h-0.229l0,0
		c-0.229,0.192-0.229,0.192-0.229,0.192l0,0l0,0l0,0l0,0l0,0h0.229c0,0.146,0,0.146,0,0.146l0,0c0.229,0,0.229,0,0.229,0v0.145l0,0
		c0,0,0,0,0,0.145l0,0c0,0.145,0,0.145,0,0.145c0.461-0.145,0.461-0.145,0.461-0.145S53.444,54.671,53.444,54.527L53.444,54.527"/>
	<path style="fill-rule:evenodd;clip-rule:evenodd;fill:#131E45;" d="M46.073,51.341L46.073,51.341L46.073,51.341c0,0,0,0,0-0.097
		l0,0l0,0l0,0c-0.229-0.144-0.229-0.144-0.229-0.144l0,0l0,0l0,0l0,0c-0.23,0-0.23-0.146-0.23-0.146l0,0l0,0l0,0
		c0,0,0,0-0.231,0.146l0,0c-0.229,0-0.229,0-0.229,0l0,0l0,0l0,0l0,0l0,0c0.229,0,0.229,0,0.229,0.144c0,0,0,0,0.231,0l0,0
		c0,0,0,0,0,0.097l0,0c0,0,0,0,0,0.146c0,0,0,0,0.23,0l0,0c0,0.145-0.23,0.145-0.23,0.24c0.46-0.096,0.46-0.096,0.46-0.096
		c0-0.145,0-0.145,0-0.145C46.073,51.341,46.073,51.341,46.073,51.341"/>
	<path style="fill-rule:evenodd;clip-rule:evenodd;fill:#364B82;" d="M45.613,51.149c0.23,0,0.46,0.145,0.46,0.29
		c0,0.288-0.229,0.288-0.46,0.144c-0.231,0-0.461-0.144-0.461-0.289C45.152,51.149,45.382,50.956,45.613,51.149L45.613,51.149"/>
	<polygon style="fill-rule:evenodd;clip-rule:evenodd;fill:#FFFFFF;" points="45.613,51.149 45.613,51.149 45.613,50.956 
		45.613,51.149 45.152,51.149 45.152,51.149 45.613,51.535 45.613,51.535 45.613,51.727 45.613,51.535 46.073,51.535 46.073,51.535 
		45.613,51.149 45.613,51.149 	"/>
	<polygon style="fill-rule:evenodd;clip-rule:evenodd;fill:#3F5792;" points="46.477,50.956 46.073,51.197 52.005,54.044 
		52.524,53.851 46.477,50.956 46.477,50.956 	"/>
	<polygon style="fill-rule:evenodd;clip-rule:evenodd;fill:#FFFFFF;" points="52.524,54.237 52.524,54.237 52.524,54.237 
		52.408,54.816 52.408,54.816 52.408,54.816 46.361,52.403 46.361,52.403 46.361,52.403 46.073,51.727 46.073,51.727 46.073,51.727 
		52.524,54.237 52.524,54.237 52.524,54.237 	"/>
	<polygon style="fill-rule:evenodd;clip-rule:evenodd;fill:#131E45;" points="51.602,54.382 51.372,54.816 46.361,52.307 
		46.073,51.727 51.602,54.382 51.602,54.382 51.602,54.382 	"/>
	<polygon style="fill-rule:evenodd;clip-rule:evenodd;fill:#32477C;" points="51.832,54.237 51.602,54.816 52.005,54.527 
		52.524,54.044 51.832,54.237 51.832,54.237 	"/>
	<polygon style="fill-rule:evenodd;clip-rule:evenodd;fill:#FFFFFF;" points="36.743,49.507 36.858,49.507 36.743,49.507 
		36.743,50.183 36.743,50.183 36.514,50.183 32.424,47.963 32.424,47.963 32.424,47.963 32.251,47.095 32.251,47.095 32.251,47.095 
		36.743,49.507 36.743,49.507 36.743,49.507 	"/>
	<polygon style="fill-rule:evenodd;clip-rule:evenodd;fill:#131E45;" points="36.858,49.025 36.628,49.412 32.424,47.723 
		32.251,47.095 36.858,49.025 36.858,49.025 36.858,49.025 	"/>
	<polygon style="fill-rule:evenodd;clip-rule:evenodd;fill:#3F5792;" points="32.251,47.241 32.77,47.095 36.858,49.219 
		36.398,49.412 32.251,47.241 32.251,47.241 32.251,47.241 	"/>
	<polygon style="fill-rule:evenodd;clip-rule:evenodd;fill:#3F5792;" points="24.304,43.235 23.958,43.573 28.911,45.551 
		29.487,45.261 24.304,43.235 24.304,43.235 	"/>
	<polygon style="fill-rule:evenodd;clip-rule:evenodd;fill:#FFFFFF;" points="28.565,45.745 28.335,46.324 23.958,44.007 
		23.958,43.235 23.958,43.235 23.958,43.235 28.565,45.745 28.565,45.745 	"/>
	<polygon style="fill-rule:evenodd;clip-rule:evenodd;fill:#131E45;" points="28.565,45.166 28.335,45.551 24.131,43.766 
		23.958,43.235 28.565,45.166 28.565,45.166 28.565,45.166 	"/>
	<polygon style="fill-rule:evenodd;clip-rule:evenodd;fill:#33487D;" points="28.911,45.359 28.911,45.359 28.565,46.324 
		28.565,46.324 29.199,45.937 29.199,45.937 29.487,44.779 29.487,44.779 28.911,45.359 28.911,45.359 	"/>
	<polygon style="fill-rule:evenodd;clip-rule:evenodd;fill:#3F5792;" points="18.199,40.147 17.508,40.244 21.481,41.691 
		22.115,41.402 18.199,40.147 18.199,40.147 	"/>
	<polygon style="fill-rule:evenodd;clip-rule:evenodd;fill:#FFFFFF;" points="21.193,41.643 21.193,41.74 21.193,41.74 
		21.193,42.463 21.193,42.463 20.905,42.463 17.853,41.208 17.853,41.208 17.853,41.015 17.508,40.292 17.508,40.147 17.853,40.147 
		21.193,41.643 21.193,41.643 21.193,41.643 	"/>
	<polygon style="fill-rule:evenodd;clip-rule:evenodd;fill:#131E45;" points="21.193,41.691 20.963,42.463 18.429,40.919 
		18.429,40.147 21.193,41.691 21.193,41.691 21.193,41.691 	"/>
	<polygon style="fill-rule:evenodd;clip-rule:evenodd;fill:#34497F;" points="21.193,41.933 21.193,42.463 21.193,42.463 
		21.655,42.318 21.655,42.318 22.115,41.691 22.115,41.691 21.193,41.933 21.193,41.933 	"/>
	<path style="fill-rule:evenodd;clip-rule:evenodd;fill:#FFFFFF;" d="M0.403,31.798c0.345,0.098,0.518,0.194,0.518,0.436
		c0,0.192-0.173,0.192-0.518,0.097C0.23,32.331,0,32.136,0,31.896C0,31.798,0.23,31.655,0.403,31.798L0.403,31.798"/>
	<polygon style="fill-rule:evenodd;clip-rule:evenodd;fill:#131E45;" points="0,29.483 0.403,29.338 1.843,29.917 1.728,30.111 
		0,29.483 0,29.483 0,29.483 	"/>
	<path style="fill-rule:evenodd;clip-rule:evenodd;fill:#131E45;" d="M0.863,30.254c0,0.676,0,0.676,0,0.676
		c0.173,0,0.173,0,0.173,0c0-0.676,0-0.676,0-0.676C0.863,30.254,0.863,30.254,0.863,30.254 M0.863,32.331
		c0.403,0.191,0.576,0.191,0.576-0.146c0-0.386-0.173-0.529-0.576-0.723c-0.23-0.193-0.403,0-0.403,0.193
		C0.46,31.993,0.633,32.331,0.863,32.331 M0,29.338c1.843,0.724,1.843,0.724,1.843,0.724C1.67,33.198,1.67,33.198,1.67,33.198
		C0,32.522,0,32.522,0,32.522C0,29.338,0,29.338,0,29.338L0,29.338L0,29.338z"/>
	<polygon style="fill-rule:evenodd;clip-rule:evenodd;fill:#17264E;" points="4.607,33.294 5.01,33.198 5.528,33.874 5.183,33.97 
		4.607,33.294 4.607,33.294 4.607,33.294 	"/>
	<polygon style="fill-rule:evenodd;clip-rule:evenodd;fill:#131E45;" points="4.607,31.798 5.528,31.655 5.528,33.102 4.607,33.198 
		4.607,31.798 4.607,31.798 4.607,31.798 	"/>
	<polygon style="fill-rule:evenodd;clip-rule:evenodd;fill:#16234A;" points="5.528,34.068 5.874,33.97 7.372,34.694 7.083,34.743 
		5.528,34.068 5.528,34.068 5.528,34.068 	"/>
	<polygon style="fill-rule:evenodd;clip-rule:evenodd;fill:#131E45;" points="8.293,33.344 9.214,33.198 9.214,36.093 8.293,36.288 
		8.293,33.344 8.293,33.344 8.293,33.344 	"/>
	<polygon style="fill-rule:evenodd;clip-rule:evenodd;fill:#16234A;" points="4.607,30.882 5.067,30.882 9.214,33.102 8.811,33.198 
		4.607,30.882 4.607,30.882 4.607,30.882 	"/>
	<path style="fill-rule:evenodd;clip-rule:evenodd;fill:#374D83;" d="M7.833,34.743v-1.448l-2.707-1.448v1.448l0.518,0.869
		l1.671,0.965L7.833,34.743L7.833,34.743z M4.607,30.882l3.686,2.075v3.33l-3.686-2.124V30.882L4.607,30.882L4.607,30.882
		L4.607,30.882z"/>
	<path style="fill-rule:evenodd;clip-rule:evenodd;fill:#3D548E;" d="M7.372,33.198L7.372,33.198L7.372,33.198L7.372,33.198
		L7.372,33.198C6.45,33.392,6.45,33.392,6.45,33.392l0,0l0,0l0,0l0,0c0,0.191,0.461,0.191,0.461,0.386L6.45,33.97
		c0.921-0.192,0.921-0.192,0.921-0.192v-0.194C7.372,33.392,7.372,33.392,7.372,33.198L7.372,33.198z M6.911,33.198L6.911,33.198
		L6.911,33.198C6.45,33.392,6.45,33.392,6.45,33.392l0,0l0,0l0,0c0.921-0.194,0.921-0.194,0.921-0.194S7.372,33.198,6.911,33.198
		L6.911,33.198z"/>
	<path style="fill-rule:evenodd;clip-rule:evenodd;fill:#FFFFFF;" d="M6.911,33.198c0,0,0.46,0.29,0.46,0.532
		c0,0.24-0.46,0.24-0.46,0.24S6.45,33.73,6.45,33.488C6.45,33.198,6.911,33.198,6.911,33.198L6.911,33.198"/>
	<polygon style="fill-rule:evenodd;clip-rule:evenodd;fill:#4B68AF;" points="0,26.395 0.287,26.25 56.209,53.947 56.095,54.044 
		0,26.395 0,26.395 0,26.395 	"/>
	<polygon style="fill-rule:evenodd;clip-rule:evenodd;fill:#354990;" points="56.209,53.659 56.209,54.044 0,27.456 0,27.022 
		56.209,53.659 56.209,53.659 56.209,53.659 	"/>
	<polygon style="fill-rule:evenodd;clip-rule:evenodd;fill:#4B68AF;" points="0,25.623 0.287,25.478 56.209,53.175 56.095,53.271 
		0,25.623 0,25.623 0,25.623 	"/>
	<polygon style="fill-rule:evenodd;clip-rule:evenodd;fill:#354990;" points="56.209,52.885 56.209,53.271 0,26.684 0,26.25 
		56.209,52.885 56.209,52.885 56.209,52.885 	"/>
	<polygon style="fill-rule:evenodd;clip-rule:evenodd;fill:#4B68AF;" points="0,24.706 0.287,24.706 56.209,52.5 56.095,52.5 
		0,24.706 0,24.706 0,24.706 	"/>
	<polygon style="fill-rule:evenodd;clip-rule:evenodd;fill:#354990;" points="56.209,52.065 56.209,52.5 0,25.188 0,24.706 
		56.209,52.065 56.209,52.065 56.209,52.065 	"/>
	<polygon style="fill-rule:evenodd;clip-rule:evenodd;fill:#4B68AF;" points="0,23.934 0.287,23.934 56.209,51.631 56.095,51.727 
		0,23.934 0,23.934 0,23.934 	"/>
	<polygon style="fill-rule:evenodd;clip-rule:evenodd;fill:#354990;" points="56.209,51.293 56.209,51.727 0,24.417 0,23.934 
		56.209,51.293 56.209,51.293 56.209,51.293 	"/>
	<polygon style="fill-rule:evenodd;clip-rule:evenodd;fill:#4B68AF;" points="0,23.306 0.287,23.162 56.209,50.183 56.095,50.183 
		0,23.306 0,23.306 0,23.306 	"/>
	<polygon style="fill-rule:evenodd;clip-rule:evenodd;fill:#354990;" points="56.209,50.521 56.209,50.956 0,23.644 0,23.162 
		56.209,50.521 56.209,50.521 56.209,50.521 	"/>
	<polygon style="fill-rule:evenodd;clip-rule:evenodd;fill:#4B68AF;" points="0,21.859 0.287,21.618 56.209,49.315 56.095,49.412 
		0,21.859 0,21.859 0,21.859 	"/>
	<polygon style="fill-rule:evenodd;clip-rule:evenodd;fill:#354990;" points="56.209,49.123 56.209,50.183 0,23.403 0,22.39 
		56.209,49.123 56.209,49.123 56.209,49.123 	"/>
	<polygon style="fill-rule:evenodd;clip-rule:evenodd;fill:#32457B;" points="46.995,46.324 47.168,46.324 54.368,50.183 
		54.136,50.183 46.995,46.324 46.995,46.324 46.995,46.324 	"/>
	<polygon style="fill-rule:evenodd;clip-rule:evenodd;fill:#46609F;" points="46.995,45.069 47.168,44.779 54.368,49.17 
		54.136,49.412 46.995,45.069 46.995,45.069 46.995,45.069 	"/>
	<polygon style="fill-rule:evenodd;clip-rule:evenodd;fill:#FFFFFF;" points="54.368,49.075 54.368,50.183 46.995,46.709 
		46.995,45.551 54.368,49.075 54.368,49.075 54.368,49.075 	"/>
	<polygon style="fill-rule:evenodd;clip-rule:evenodd;fill:#4B68AF;" points="46.995,44.779 47.168,44.779 54.368,48.543 
		54.25,48.639 46.995,44.779 46.995,44.779 46.995,44.779 	"/>
	<path style="fill-rule:evenodd;clip-rule:evenodd;fill:#4761A2;" d="M54.136,49.991v-1.206l-7.89-3.668v1.207L54.136,49.991
		L54.136,49.991z M54.368,48.591L54.368,48.591v0.193v1.303v0.096v-0.096l-8.122-3.668h-0.173v-0.096v-1.4v-0.145h0.173
		L54.368,48.591L54.368,48.591L54.368,48.591L54.368,48.591z"/>
	<path style="fill-rule:evenodd;clip-rule:evenodd;fill:#273472;" d="M45.152,53.464c0-0.193,0-0.193,0-0.193s0,0,0-0.192l0,0l0,0
		v-0.193c0,0,0,0-0.23,0v-0.192l0,0l0,0l0,0c-0.288,0-0.288-0.192-0.288-0.192l0,0l0,0h-0.23l0,0l0,0l0,0c-0.288,0-0.288,0-0.288,0
		c-0.806,0.385-0.806,0.385-0.806,0.385v-0.192c0.288,0,0.288,0,0.288,0c0,0.192,0,0.192,0.288,0.192c0,0,0,0,0.229,0.193l0,0
		c0,0,0,0,0,0.192h0.288v0.193l0,0c0,0.194,0,0.194,0,0.194c0,0.192,0,0.192,0,0.386l0,0l0,0l0,0l0,0
		c0.23-0.193,0.519-0.193,0.749-0.386l0,0l0,0l0,0C45.152,53.659,45.152,53.659,45.152,53.464L45.152,53.464L45.152,53.464
		L45.152,53.464"/>
	<path style="fill-rule:evenodd;clip-rule:evenodd;fill:#657DB9;" d="M43.886,52.693c0.172,0.192,0.345,0.578,0.345,0.771
		c0,0.387-0.173,0.58-0.345,0.387c-0.347-0.192-0.576-0.58-0.576-0.966C43.31,52.693,43.539,52.5,43.886,52.693L43.886,52.693"/>
</g>
</svg>