<?xml version="1.0" encoding="iso-8859-1"?>
<!DOCTYPE svg PUBLIC "-//W3C//DTD SVG 1.1//EN" "http://www.w3.org/Graphics/SVG/1.1/DTD/svg11.dtd">
<svg version="1.1" xmlns="http://www.w3.org/2000/svg" xmlns:xlink="http://www.w3.org/1999/xlink" width="59" height="45" viewBox="0 0 59 45">
<g>
	<g>
		<defs>
			<polygon id="SVGID_1_" points="0,0 59.006,0 59.006,44.787 0,44.787 0,0 			"/>
		</defs>
		<clipPath id="SVGID_2_">
			<use xlink:href="#SVGID_1_"  style="overflow:visible;"/>
		</clipPath>
		<path style="clip-path:url(#SVGID_2_);fill:#223F7F;" d="M50.129,28.651c-11.488,6.85-30.091,6.85-41.774,0
			c-6.266-3.688-8.681-7.212-8.681-11.955l0,0c0,11.427,0,11.427,0,11.427l0,0C0,32.142,2.97,36.356,8.354,39.519
			c11.684,6.685,30.286,6.685,41.774,0c5.58-3.162,8.354-7.377,8.713-11.395l0,0c0-11.592,0-11.592,0-11.592
			C58.842,21.077,56.068,25.292,50.129,28.651"/>
	</g>
	<g>
		<defs>
			<polygon id="SVGID_3_" points="0,0 59.006,0 59.006,44.787 0,44.787 0,0 			"/>
		</defs>
		<clipPath id="SVGID_4_">
			<use xlink:href="#SVGID_3_"  style="overflow:visible;"/>
		</clipPath>
		<path style="clip-path:url(#SVGID_4_);fill:#4D6EB5;" d="M50.129,5.104c11.486,6.685,11.684,17.75,0,24.402
			c-11.488,6.85-30.091,6.85-41.774,0C-3.296,22.855-3.296,11.79,8.191,5.104C19.679-1.745,38.477-1.745,50.129,5.104"/>
	</g>
	<polygon style="fill:#FFFFFF;" points="55.35,17.059 44.744,23.185 34.822,17.388 30.123,17.586 30.123,20.55 39.521,26.181 
		29.078,32.339 18.472,26.181 28.034,20.55 28.034,17.586 23.171,17.75 13.413,23.382 2.807,17.059 13.413,10.9 22.812,16.532 
		28.034,16.334 28.034,13.371 18.635,7.904 29.078,1.778 39.686,7.904 30.123,13.535 30.123,16.334 35.508,16.17 44.744,10.736 	"/>
</g>
</svg>