<?xml version="1.0" encoding="iso-8859-1"?>
<!DOCTYPE svg PUBLIC "-//W3C//DTD SVG 1.1//EN" "http://www.w3.org/Graphics/SVG/1.1/DTD/svg11.dtd">
<svg version="1.1" xmlns="http://www.w3.org/2000/svg" xmlns:xlink="http://www.w3.org/1999/xlink" width="112" height="56" viewBox="0 0 112 56">
<g>
	<polygon style="fill-rule:evenodd;clip-rule:evenodd;fill:#2A3174;" points="58.751,49.822 111.63,26.648 111.63,31.692 
		58.751,54.819 58.751,49.822 58.751,49.822 58.751,49.822 	"/>
	<polygon style="fill-rule:evenodd;clip-rule:evenodd;fill:#4F62A5;" points="0.98,23.46 53.306,0 111.63,26.077 59.366,49.489 
		0.98,23.46 0.98,23.46 0.98,23.46 	"/>
	<polygon style="fill-rule:evenodd;clip-rule:evenodd;fill:#37468B;" points="58.751,49.775 58.751,54.819 0.98,28.694 0.98,23.603 
		58.751,49.775 58.751,49.775 58.751,49.775 	"/>
	<polygon style="fill-rule:evenodd;clip-rule:evenodd;fill:#2A3174;" points="0.98,24.745 1.959,24.363 1.959,28.741 0.98,28.933 
		0.98,24.745 0.98,24.745 0.98,24.745 	"/>
	<polygon style="fill-rule:evenodd;clip-rule:evenodd;fill:#4B5FA0;" points="0,23.983 1.102,23.603 1.959,23.983 1.102,24.363 
		0,23.983 0,23.983 0,23.983 	"/>
	<polygon style="fill-rule:evenodd;clip-rule:evenodd;fill:#37468B;" points="0.98,24.745 0.98,28.933 0,28.741 0,24.363 
		0.98,24.745 0.98,24.745 0.98,24.745 	"/>
	<polygon style="fill-rule:evenodd;clip-rule:evenodd;fill:#2A3174;" points="2.938,25.458 3.917,25.125 3.795,29.36 2.938,29.693 
		2.938,25.458 2.938,25.458 2.938,25.458 	"/>
	<polygon style="fill-rule:evenodd;clip-rule:evenodd;fill:#4B5FA0;" points="1.959,24.745 2.938,24.363 3.917,24.745 2.938,25.125 
		1.959,24.745 1.959,24.745 1.959,24.745 	"/>
	<polygon style="fill-rule:evenodd;clip-rule:evenodd;fill:#37468B;" points="2.938,25.458 2.938,29.693 1.959,29.36 1.959,25.125 
		2.938,25.458 2.938,25.458 2.938,25.458 	"/>
	<polygon style="fill-rule:evenodd;clip-rule:evenodd;fill:#2A3174;" points="3.917,26.268 4.896,25.887 4.896,30.121 3.917,30.454 
		3.917,26.268 3.917,26.268 3.917,26.268 	"/>
	<polygon style="fill-rule:evenodd;clip-rule:evenodd;fill:#4B5FA0;" points="2.938,25.506 3.856,25.125 4.896,25.506 3.856,25.887 
		2.938,25.506 2.938,25.506 2.938,25.506 	"/>
	<polygon style="fill-rule:evenodd;clip-rule:evenodd;fill:#37468B;" points="3.917,26.268 3.917,30.454 2.938,30.121 2.938,25.887 
		3.917,26.268 3.917,26.268 3.917,26.268 	"/>
	<polygon style="fill-rule:evenodd;clip-rule:evenodd;fill:#2A3174;" points="50.919,46.872 51.898,46.444 51.898,51.393 
		50.919,51.772 50.919,46.872 50.919,46.872 50.919,46.872 	"/>
	<polygon style="fill-rule:evenodd;clip-rule:evenodd;fill:#4B5FA0;" points="4.896,26.315 5.875,25.887 51.898,46.824 
		50.981,47.205 4.896,26.315 4.896,26.315 4.896,26.315 	"/>
	<polygon style="fill-rule:evenodd;clip-rule:evenodd;fill:#37468B;" points="50.919,47.015 50.919,51.772 4.896,30.787 
		4.896,25.887 50.919,47.015 50.919,47.015 50.919,47.015 	"/>
	<polygon style="fill-rule:evenodd;clip-rule:evenodd;fill:#2A3174;" points="53.123,47.634 53.857,47.205 53.857,52.154 
		52.877,52.535 53.123,47.634 53.123,47.634 53.123,47.634 	"/>
	<polygon style="fill-rule:evenodd;clip-rule:evenodd;fill:#4B5FA0;" points="51.898,47.585 52.877,47.205 53.857,47.585 
		53.123,47.967 51.898,47.585 51.898,47.585 51.898,47.585 	"/>
	<polygon style="fill-rule:evenodd;clip-rule:evenodd;fill:#37468B;" points="52.877,47.634 52.755,52.535 51.898,52.154 
		51.898,47.205 52.877,47.634 52.877,47.634 52.877,47.634 	"/>
	<polygon style="fill-rule:evenodd;clip-rule:evenodd;fill:#2A3174;" points="53.857,48.395 54.835,47.967 54.713,52.915 
		53.857,53.297 53.857,48.395 53.857,48.395 53.857,48.395 	"/>
	<polygon style="fill-rule:evenodd;clip-rule:evenodd;fill:#4B5FA0;" points="52.877,47.585 53.796,47.205 54.835,47.585 
		53.796,47.967 52.877,47.585 52.877,47.585 52.877,47.585 	"/>
	<polygon style="fill-rule:evenodd;clip-rule:evenodd;fill:#37468B;" points="53.857,48.395 53.857,53.297 52.877,52.915 
		52.877,47.967 53.857,48.395 53.857,48.395 53.857,48.395 	"/>
	<polygon style="fill-rule:evenodd;clip-rule:evenodd;fill:#2A3174;" points="55.816,49.156 56.794,48.728 56.671,53.677 
		55.816,54.058 55.816,49.156 55.816,49.156 55.816,49.156 	"/>
	<polygon style="fill-rule:evenodd;clip-rule:evenodd;fill:#4B5FA0;" points="54.835,48.3 55.816,47.967 56.794,48.442 
		55.816,48.728 54.835,48.3 54.835,48.3 54.835,48.3 	"/>
	<polygon style="fill-rule:evenodd;clip-rule:evenodd;fill:#37468B;" points="55.816,49.251 55.816,54.058 54.835,53.677 
		54.835,48.728 55.816,49.251 55.816,49.251 55.816,49.251 	"/>
	<polygon style="fill-rule:evenodd;clip-rule:evenodd;fill:#2A3174;" points="56.794,49.87 57.774,49.489 57.774,53.725 
		56.794,54.058 56.794,49.87 56.794,49.87 56.794,49.87 	"/>
	<polygon style="fill-rule:evenodd;clip-rule:evenodd;fill:#4B5FA0;" points="55.816,49.109 56.794,48.728 57.774,49.109 
		56.794,49.489 55.816,49.109 55.816,49.109 55.816,49.109 	"/>
	<polygon style="fill-rule:evenodd;clip-rule:evenodd;fill:#37468B;" points="56.794,49.87 56.794,54.058 55.816,53.725 
		55.816,49.489 56.794,49.87 56.794,49.87 56.794,49.87 	"/>
	<polygon style="fill-rule:evenodd;clip-rule:evenodd;fill:#2A3174;" points="58.751,50.632 59.733,50.25 59.733,54.486 
		58.751,54.819 58.751,50.632 58.751,50.632 58.751,50.632 	"/>
	<polygon style="fill-rule:evenodd;clip-rule:evenodd;fill:#4B5FA0;" points="57.774,49.87 58.751,49.489 59.733,49.87 
		58.751,50.25 57.774,49.87 57.774,49.87 57.774,49.87 	"/>
	<polygon style="fill-rule:evenodd;clip-rule:evenodd;fill:#37468B;" points="58.751,50.632 58.751,54.819 57.774,54.486 
		57.774,50.25 58.751,50.632 58.751,50.632 58.751,50.632 	"/>
	<polygon style="fill-rule:evenodd;clip-rule:evenodd;fill:#4B5FA0;" points="48.96,46.587 48.96,49.489 38.189,44.826 
		38.189,41.875 48.96,46.587 48.96,46.587 48.96,46.587 	"/>
	<polygon style="fill-rule:evenodd;clip-rule:evenodd;fill:#FFFFFF;" points="5.875,30.17 5.875,29.693 8.813,30.787 8.813,31.216 
		5.875,30.17 5.875,30.17 5.875,30.17 	"/>
	<polygon style="fill-rule:evenodd;clip-rule:evenodd;fill:#FFFFFF;" points="5.875,29.122 5.875,28.171 8.813,29.551 8.813,30.454 
		5.875,29.122 5.875,29.122 5.875,29.122 	"/>
	<path style="fill-rule:evenodd;clip-rule:evenodd;fill:#4B5FA0;" d="M8.691,28.646h0.122l0,0v2.569l0,0H8.691L6.06,30.121
		l-0.184-0.095v-0.143v-2.475l0,0H6.06L8.691,28.646L8.691,28.646L8.691,28.646L8.691,28.646z M8.691,29.504v-0.096l0,0v-0.762
		L6.06,27.552v0.762l0,0v0.095l0,0v0.762l0,0v0.097v0.142v0.476l2.631,1.095v-0.477l0,0v-0.236l0,0V29.504L8.691,29.504
		L8.691,29.504z"/>
	<polygon style="fill-rule:evenodd;clip-rule:evenodd;fill:#FFFFFF;" points="5.875,27.409 8.813,28.789 8.813,29.693 5.875,28.361 
		5.875,27.409 5.875,27.409 5.875,27.409 	"/>
	<polygon style="fill-rule:evenodd;clip-rule:evenodd;fill:#FFFFFF;" points="36.231,40.495 36.231,44.159 27.418,40.115 
		27.418,36.546 36.231,40.495 36.231,40.495 36.231,40.495 	"/>
	<polygon style="fill-rule:evenodd;clip-rule:evenodd;fill:#37477D;" points="29.377,39.639 29.377,41.114 29.132,40.877 
		29.132,41.114 28.826,40.733 28.826,40.448 28.398,40.353 28.398,38.829 29.377,39.639 29.377,39.639 29.377,39.639 	"/>
	<polygon style="fill-rule:evenodd;clip-rule:evenodd;fill:#37477D;" points="29.132,37.593 29.132,37.879 29.377,38.163 
		29.377,39.592 28.398,38.735 28.398,37.307 28.826,37.593 28.826,37.307 29.132,37.593 29.132,37.593 29.132,37.593 	"/>
	<polygon style="fill-rule:evenodd;clip-rule:evenodd;fill:#37477D;" points="31.335,40.448 31.335,41.875 31.09,41.59 
		31.09,41.875 30.662,41.59 30.662,41.305 30.356,41.019 30.356,39.592 31.335,40.448 31.335,40.448 31.335,40.448 	"/>
	<polygon style="fill-rule:evenodd;clip-rule:evenodd;fill:#37477D;" points="31.09,38.496 31.09,38.64 31.335,38.925 
		31.335,40.353 30.356,39.496 30.356,38.069 30.662,38.354 30.662,38.069 31.09,38.496 31.09,38.496 31.09,38.496 	"/>
	<polygon style="fill-rule:evenodd;clip-rule:evenodd;fill:#37477D;" points="34.273,41.21 34.273,42.637 33.538,42.494 
		33.538,42.637 32.927,42.351 32.927,42.066 32.314,41.78 32.314,40.353 34.273,41.21 34.273,41.21 34.273,41.21 	"/>
	<polygon style="fill-rule:evenodd;clip-rule:evenodd;fill:#37477D;" points="33.722,39.259 33.538,39.544 34.273,39.639 
		34.273,41.114 32.314,40.353 32.314,38.829 32.927,39.259 32.927,38.973 33.722,39.259 33.722,39.259 33.722,39.259 	"/>
	<polygon style="fill-rule:evenodd;clip-rule:evenodd;fill:#37477D;" points="36.231,42.541 36.231,43.398 35.558,43.256 
		35.558,43.398 35.007,43.256 35.007,43.065 34.273,42.874 34.273,41.875 36.231,42.541 36.231,42.541 36.231,42.541 	"/>
	<polygon style="fill-rule:evenodd;clip-rule:evenodd;fill:#37477D;" points="35.558,40.544 35.558,40.733 36.231,40.924 
		36.231,41.875 34.273,41.305 34.273,40.353 35.007,40.544 35.007,40.353 35.558,40.544 35.558,40.544 35.558,40.544 	"/>
	<polygon style="fill-rule:evenodd;clip-rule:evenodd;fill:#FFFFFF;" points="27.418,36.831 27.418,40.353 18.605,36.308 
		18.605,32.739 27.418,36.831 27.418,36.831 27.418,36.831 	"/>
	<polygon style="fill-rule:evenodd;clip-rule:evenodd;fill:#37477D;" points="20.564,35.594 20.564,36.546 20.013,36.356 
		20.013,36.45 19.217,36.356 19.217,36.165 18.605,35.975 18.605,35.023 20.564,35.594 20.564,35.594 20.564,35.594 	"/>
	<polygon style="fill-rule:evenodd;clip-rule:evenodd;fill:#37477D;" points="20.013,33.691 20.013,33.881 20.564,34.071 
		20.564,35.023 18.605,34.452 18.605,33.501 19.217,33.691 19.217,33.501 20.013,33.691 20.013,33.691 20.013,33.691 	"/>
	<polygon style="fill-rule:evenodd;clip-rule:evenodd;fill:#37477D;" points="22.522,36.641 22.522,38.069 22.155,37.783 
		22.155,38.069 21.849,37.783 21.849,37.497 21.543,37.213 21.543,35.784 22.522,36.641 22.522,36.641 22.522,36.641 	"/>
	<polygon style="fill-rule:evenodd;clip-rule:evenodd;fill:#37477D;" points="22.277,34.595 22.277,34.737 22.522,35.214 
		22.522,36.546 21.543,35.642 21.543,34.262 21.849,34.595 21.849,34.262 22.277,34.595 22.277,34.595 22.277,34.595 	"/>
	<polygon style="fill-rule:evenodd;clip-rule:evenodd;fill:#37477D;" points="24.48,37.402 24.48,38.829 24.174,38.402 
		24.174,38.687 23.869,38.402 23.869,38.259 23.501,37.83 23.501,36.546 24.48,37.402 24.48,37.402 24.48,37.402 	"/>
	<polygon style="fill-rule:evenodd;clip-rule:evenodd;fill:#37477D;" points="24.174,35.309 24.174,35.594 24.48,35.88 
		24.48,37.307 23.501,36.45 23.501,35.023 23.869,35.309 23.869,35.023 24.174,35.309 24.174,35.309 24.174,35.309 	"/>
	<polygon style="fill-rule:evenodd;clip-rule:evenodd;fill:#37477D;" points="26.439,38.163 26.439,39.592 26.194,39.306 
		26.194,39.592 25.888,39.306 25.888,39.02 25.459,38.735 25.459,37.307 26.439,38.163 26.439,38.163 26.439,38.163 	"/>
	<polygon style="fill-rule:evenodd;clip-rule:evenodd;fill:#37477D;" points="26.745,36.07 26.745,36.356 27.418,36.783 
		27.295,38.069 25.459,37.213 25.459,35.784 26.194,36.07 26.194,35.927 26.745,36.07 26.745,36.07 26.745,36.07 	"/>
	<polygon style="fill-rule:evenodd;clip-rule:evenodd;fill:#FFFFFF;" points="18.605,32.596 18.605,35.784 9.792,32.263 
		9.792,28.933 18.605,32.596 18.605,32.596 18.605,32.596 	"/>
	<polygon style="fill-rule:evenodd;clip-rule:evenodd;fill:#37477D;" points="11.75,31.313 11.75,32.739 11.016,32.453 
		11.016,32.739 10.405,32.453 10.405,32.167 9.792,31.883 9.792,30.454 11.75,31.313 11.75,31.313 11.75,31.313 	"/>
	<polygon style="fill-rule:evenodd;clip-rule:evenodd;fill:#37477D;" points="11.2,29.36 11.2,29.646 11.75,29.741 11.75,31.216 
		9.792,30.454 9.792,28.933 10.405,29.218 10.405,28.933 11.2,29.36 11.2,29.36 11.2,29.36 	"/>
	<polygon style="fill-rule:evenodd;clip-rule:evenodd;fill:#37477D;" points="13.709,32.453 13.709,33.501 13.036,33.31 
		13.036,33.501 12.485,33.215 12.485,33.024 11.75,32.929 11.75,31.979 13.709,32.453 13.709,32.453 13.709,32.453 	"/>
	<polygon style="fill-rule:evenodd;clip-rule:evenodd;fill:#37477D;" points="13.036,30.646 13.036,30.835 13.709,31.026 
		13.709,31.979 11.75,31.406 11.75,30.454 12.485,30.646 12.485,30.454 13.036,30.646 13.036,30.646 13.036,30.646 	"/>
	<polygon style="fill-rule:evenodd;clip-rule:evenodd;fill:#37477D;" points="15.668,33.596 15.668,35.023 15.117,34.737 
		15.117,35.023 14.505,34.737 14.505,34.452 13.709,34.167 13.709,32.739 15.668,33.596 15.668,33.596 15.668,33.596 	"/>
	<polygon style="fill-rule:evenodd;clip-rule:evenodd;fill:#37477D;" points="14.994,31.501 14.994,31.787 15.668,32.072 
		15.545,33.501 13.709,32.644 13.709,31.216 14.443,31.501 14.443,31.216 14.994,31.501 14.994,31.501 14.994,31.501 	"/>
	<polygon style="fill-rule:evenodd;clip-rule:evenodd;fill:#37477D;" points="17.626,34.357 17.626,35.784 17.32,35.498 
		17.32,35.784 16.954,35.498 16.954,35.214 16.647,35.071 16.647,33.501 17.626,34.357 17.626,34.357 17.626,34.357 	"/>
	<polygon style="fill-rule:evenodd;clip-rule:evenodd;fill:#37477D;" points="17.32,32.263 17.32,32.549 17.626,32.691 
		17.626,34.262 16.647,33.405 16.647,31.979 16.954,32.263 16.954,31.979 17.32,32.263 17.32,32.263 17.32,32.263 	"/>
</g>
</svg>
