<?xml version="1.0" encoding="iso-8859-1"?>
<!DOCTYPE svg PUBLIC "-//W3C//DTD SVG 1.1//EN" "http://www.w3.org/Graphics/SVG/1.1/DTD/svg11.dtd">
<svg version="1.1" xmlns="http://www.w3.org/2000/svg" xmlns:xlink="http://www.w3.org/1999/xlink" width="128" height="73" viewBox="0 0 128 73">
<g>
	<polygon style="fill-rule:evenodd;clip-rule:evenodd;fill:#4F62A5;" points="129.103,40.714 72.44,72.787 0,32.133 56.66,0 
		129.103,40.714 129.103,40.714 129.103,40.714 129.103,40.714 	"/>
	<path style="fill:#0A1534;stroke:#0A1534;stroke-width:0.0354;stroke-linejoin:round;stroke-miterlimit:10;" d="M45.269,35.185
		l8.722-4.722l0.475,0.806l-8.781,4.723L45.269,35.185L45.269,35.185z M59.686,33.342l8.723-4.837l0.474,0.807l-8.721,4.836
		L59.686,33.342L59.686,33.342z M43.191,24.301l8.544-4.837l0.476,0.749l-8.544,4.895L43.191,24.301L43.191,24.301z M74.341,42.324
		L36.369,21.595l0.415-0.806L74.756,41.52L74.341,42.324L74.341,42.324z"/>
	<path style="fill-rule:evenodd;clip-rule:evenodd;fill:#273675;" d="M48.413,36.049c0,1.784,0,1.784,0,1.784
		c0,0.865-0.534,1.671-1.78,2.361c-2.372,1.267-6.348,1.267-8.721,0c-1.246-0.69-1.839-1.496-1.839-2.361c0-0.576,0-1.208,0-1.899
		c0,0.921,0.653,1.785,1.839,2.418c2.493,1.267,6.349,1.267,8.721,0C47.879,37.719,48.413,36.854,48.413,36.049L48.413,36.049
		L48.413,36.049L48.413,36.049L48.413,36.049"/>
	<path style="fill-rule:evenodd;clip-rule:evenodd;fill:#6B70AE;" d="M46.989,33.572c2.373,1.324,2.373,3.455,0,4.779
		c-2.313,1.267-6.052,1.267-8.484,0c-2.433-1.324-2.433-3.455,0-4.779C40.819,32.248,44.676,32.248,46.989,33.572L46.989,33.572
		L46.989,33.572L46.989,33.572L46.989,33.572"/>
	<path style="fill-rule:evenodd;clip-rule:evenodd;fill:#273675;" d="M48.413,34.206c0,1.785,0,1.785,0,1.785
		c0,0.863-0.593,1.669-1.78,2.36c-2.432,1.267-6.289,1.267-8.721,0c-1.186-0.691-1.839-1.497-1.839-2.36c0-0.576,0-1.209,0-1.9
		c0,0.921,0.653,1.784,1.839,2.419c2.432,1.267,6.408,1.267,8.721,0C47.82,35.875,48.413,35.012,48.413,34.206L48.413,34.206
		L48.413,34.206L48.413,34.206L48.413,34.206"/>
	<path style="fill-rule:evenodd;clip-rule:evenodd;fill:#6B70AE;" d="M46.277,31.729c2.136,1.325,2.136,3.455,0,4.78
		c-2.137,1.267-5.755,1.267-8.01,0c-2.195-1.325-2.195-3.455,0-4.78C40.522,30.405,44.022,30.405,46.277,31.729L46.277,31.729
		L46.277,31.729L46.277,31.729L46.277,31.729"/>
	<path style="fill-rule:evenodd;clip-rule:evenodd;fill:#273675;" d="M48.413,32.248c0,1.958,0,1.958,0,1.958
		c0,0.806-0.534,1.669-1.78,2.304c-2.372,1.267-6.348,1.267-8.721,0c-1.246-0.635-1.839-1.498-1.839-2.419c0-0.634,0-1.21,0-1.843
		c0,0.807,0.653,1.728,1.839,2.419c2.493,1.324,6.349,1.324,8.721,0C47.879,33.976,48.413,33.169,48.413,32.248L48.413,32.248
		L48.413,32.248L48.413,32.248L48.413,32.248"/>
	<path style="fill-rule:evenodd;clip-rule:evenodd;fill:#6B70AE;" d="M46.989,29.887c2.373,1.268,2.373,3.397,0,4.78
		c-2.313,1.267-6.052,1.267-8.484,0c-2.433-1.383-2.433-3.513,0-4.78C40.819,28.563,44.676,28.563,46.989,29.887L46.989,29.887
		L46.989,29.887L46.989,29.887L46.989,29.887"/>
	<path style="fill-rule:evenodd;clip-rule:evenodd;fill:#273675;" d="M60.754,15.663c0,1.9,0,1.9,0,1.9
		c0,0.864-0.593,1.67-1.78,2.246c-2.433,1.382-6.289,1.382-8.721,0c-1.187-0.575-1.84-1.439-1.84-2.246c0-0.576,0-1.267,0-1.9
		c0,0.922,0.653,1.728,1.84,2.418c2.432,1.268,6.288,1.268,8.721,0C60.161,17.391,60.754,16.585,60.754,15.663L60.754,15.663
		L60.754,15.663L60.754,15.663L60.754,15.663"/>
	<path style="fill-rule:evenodd;clip-rule:evenodd;fill:#6B70AE;" d="M58.44,13.302c2.313,1.324,2.313,3.455,0,4.779
		c-2.433,1.268-6.229,1.268-8.604,0c-2.373-1.324-2.373-3.455,0-4.779C52.151,11.978,56.008,11.978,58.44,13.302L58.44,13.302
		L58.44,13.302L58.44,13.302L58.44,13.302"/>
	<path style="fill-rule:evenodd;clip-rule:evenodd;fill:#273675;" d="M60.754,13.82c0,1.958,0,1.958,0,1.958
		c0,0.806-0.593,1.669-1.78,2.303c-2.372,1.268-6.348,1.268-8.721,0c-1.246-0.633-1.84-1.497-1.84-2.303c0-0.749,0-1.325,0-1.958
		c0,0.921,0.594,1.728,1.84,2.419c2.373,1.324,6.349,1.324,8.721,0C60.22,15.548,60.754,14.742,60.754,13.82L60.754,13.82
		L60.754,13.82L60.754,13.82L60.754,13.82"/>
	<path style="fill-rule:evenodd;clip-rule:evenodd;fill:#6B70AE;" d="M58.38,11.459c2.374,1.325,2.374,3.455,0,4.78
		c-2.313,1.267-6.169,1.267-8.483,0c-2.433-1.325-2.433-3.455,0-4.78C52.211,10.135,55.948,10.135,58.38,11.459L58.38,11.459
		L58.38,11.459L58.38,11.459L58.38,11.459"/>
	<path style="fill-rule:evenodd;clip-rule:evenodd;fill:#273675;" d="M60.754,11.171c0,2.074,0,2.074,0,2.074
		c0,1.036-0.593,1.958-1.78,2.764c-2.433,1.498-6.289,1.498-8.721,0c-1.187-0.806-1.84-1.728-1.84-2.764c0-0.691,0-1.382,0-2.188
		c0,1.036,0.653,2.073,1.84,2.764c2.432,1.498,6.288,1.498,8.721,0C60.161,13.13,60.754,12.093,60.754,11.171L60.754,11.171
		L60.754,11.171L60.754,11.171L60.754,11.171"/>
	<path style="fill-rule:evenodd;clip-rule:evenodd;fill:#6B70AE;" d="M58.44,8.869c2.313,1.497,2.313,3.858,0,5.355
		c-2.433,1.439-6.229,1.439-8.604,0c-2.373-1.497-2.373-3.858,0-5.355C52.151,7.371,56.008,7.371,58.44,8.869L58.44,8.869
		L58.44,8.869L58.44,8.869L58.44,8.869"/>
	<path style="fill-rule:evenodd;clip-rule:evenodd;fill:#273675;" d="M75.943,23.955c-0.06,2.189-0.06,2.189-0.06,2.189
		c0,0.921-0.536,1.957-1.72,2.648c-2.434,1.612-6.289,1.612-8.723,0c-1.187-0.691-1.84-1.728-1.84-2.648c0-0.807,0-1.498,0-2.189
		c0,1.037,0.653,1.958,1.84,2.765c2.434,1.497,6.289,1.497,8.723,0C75.348,25.913,75.884,24.992,75.943,23.955L75.943,23.955
		L75.943,23.955L75.943,23.955L75.943,23.955"/>
	<path style="fill-rule:evenodd;clip-rule:evenodd;fill:#6B70AE;" d="M73.568,21.767c2.375,1.497,2.375,3.858,0.118,5.356
		c-2.43,1.439-6.168,1.439-8.602,0c-2.314-1.498-2.433-3.859,0-5.356C67.397,20.271,71.257,20.271,73.568,21.767L73.568,21.767
		L73.568,21.767L73.568,21.767L73.568,21.767"/>
	<path style="fill-rule:evenodd;clip-rule:evenodd;fill:#273675;" d="M75.943,22.113c0,1.958,0,1.958,0,1.958
		c0,0.807-0.596,1.671-1.779,2.304c-2.374,1.267-6.352,1.267-8.723,0c-1.246-0.633-1.84-1.497-1.84-2.304c0-0.748,0-1.324,0-1.958
		c0,0.921,0.594,1.728,1.84,2.418c2.371,1.325,6.349,1.325,8.723,0C75.348,23.841,75.943,23.034,75.943,22.113L75.943,22.113
		L75.943,22.113L75.943,22.113L75.943,22.113"/>
	<path style="fill-rule:evenodd;clip-rule:evenodd;fill:#6B70AE;" d="M73.568,19.867c2.375,1.267,2.375,3.34,0,4.664
		c-2.312,1.267-6.171,1.267-8.483,0c-2.433-1.324-2.433-3.397-0.119-4.664C67.397,18.428,71.136,18.428,73.568,19.867L73.568,19.867
		L73.568,19.867L73.568,19.867L73.568,19.867"/>
	<path style="fill-rule:evenodd;clip-rule:evenodd;fill:#273675;" d="M75.943,20.385c-0.06,1.785-0.06,1.785-0.06,1.785
		c0,0.864-0.536,1.671-1.72,2.361c-2.434,1.267-6.289,1.267-8.723,0c-1.187-0.69-1.84-1.497-1.84-2.361c0-0.575,0-1.208,0-1.899
		c0,0.921,0.653,1.785,1.84,2.418c2.434,1.266,6.289,1.266,8.723,0C75.348,22.055,75.884,21.191,75.943,20.385L75.943,20.385
		L75.943,20.385L75.943,20.385L75.943,20.385"/>
	<path style="fill-rule:evenodd;clip-rule:evenodd;fill:#6B70AE;" d="M73.568,17.91c2.375,1.324,2.375,3.455,0.118,4.779
		c-2.43,1.266-6.168,1.266-8.602,0c-2.314-1.324-2.433-3.455,0-4.779C67.397,16.585,71.257,16.585,73.568,17.91L73.568,17.91
		L73.568,17.91L73.568,17.91L73.568,17.91"/>
	<polygon style="fill-rule:evenodd;clip-rule:evenodd;fill:#2A3174;" points="76.892,35.53 89.233,28.563 89.233,44.687 
		76.892,51.597 76.892,35.53 76.892,35.53 76.892,35.53 76.892,35.53 76.892,35.53 76.892,35.53 	"/>
	<polygon style="fill-rule:evenodd;clip-rule:evenodd;fill:#555B9F;" points="71.197,32.248 83.121,24.877 89.233,28.62 
		77.248,35.934 71.197,32.248 71.197,32.248 71.197,32.248 71.197,32.248 71.197,32.248 71.197,32.248 	"/>
	<polygon style="fill-rule:evenodd;clip-rule:evenodd;fill:#273878;" points="76.892,35.761 76.892,51.597 71.197,48.142 
		71.374,32.248 76.892,35.761 76.892,35.761 76.892,35.761 76.892,35.761 76.892,35.761 76.892,35.761 	"/>
	<polygon style="fill-rule:evenodd;clip-rule:evenodd;fill:#2A3174;" points="75.943,51.366 76.892,50.676 76.892,52.057 
		75.943,52.519 75.943,51.366 75.943,51.366 75.943,51.366 75.943,51.366 75.943,51.366 75.943,51.366 	"/>
	<polygon style="fill-rule:evenodd;clip-rule:evenodd;fill:#555B9F;" points="72.146,49.12 72.62,48.833 76.892,51.193 
		76.358,51.597 72.146,49.12 72.146,49.12 72.146,49.12 72.146,49.12 72.146,49.12 72.146,49.12 	"/>
	<polygon style="fill-rule:evenodd;clip-rule:evenodd;fill:#555B9F;" points="72.146,48.257 72.62,47.911 76.892,50.387 
		76.358,50.676 72.146,48.257 72.146,48.257 72.146,48.257 72.146,48.257 72.146,48.257 72.146,48.257 	"/>
	<polygon style="fill-rule:evenodd;clip-rule:evenodd;fill:#555B9F;" points="72.146,47.451 72.62,46.989 76.892,49.467 
		76.358,49.754 72.146,47.451 72.146,47.451 72.146,47.451 72.146,47.451 72.146,47.451 72.146,47.451 	"/>
	<polygon style="fill-rule:evenodd;clip-rule:evenodd;fill:#2A3174;" points="75.943,50.214 76.892,49.754 76.892,50.214 
		75.943,50.676 75.943,50.214 75.943,50.214 75.943,50.214 75.943,50.214 75.943,50.214 75.943,50.214 	"/>
	<polygon style="fill-rule:evenodd;clip-rule:evenodd;fill:#2A3174;" points="75.943,49.293 76.892,48.833 76.892,49.293 
		75.943,49.754 75.943,49.293 75.943,49.293 75.943,49.293 75.943,49.293 75.943,49.293 75.943,49.293 	"/>
	<polygon style="fill-rule:evenodd;clip-rule:evenodd;fill:#555B9F;" points="72.146,46.645 72.62,46.068 76.892,49.408 
		76.358,49.754 72.146,46.645 72.146,46.645 72.146,46.645 72.146,46.645 72.146,46.645 72.146,46.645 	"/>
	<polygon style="fill-rule:evenodd;clip-rule:evenodd;fill:#2A3174;" points="75.943,48.487 76.892,47.911 76.892,48.314 
		75.943,48.833 75.943,48.487 75.943,48.487 75.943,48.487 75.943,48.487 75.943,48.487 75.943,48.487 	"/>
	<polygon style="fill-rule:evenodd;clip-rule:evenodd;fill:#555B9F;" points="72.146,46.355 72.62,46.068 76.892,48.43 
		76.358,48.833 72.146,46.355 72.146,46.355 72.146,46.355 72.146,46.355 72.146,46.355 72.146,46.355 	"/>
	<polygon style="fill-rule:evenodd;clip-rule:evenodd;fill:#555B9F;" points="72.146,45.492 72.62,45.146 76.892,47.508 
		76.358,47.911 72.146,45.492 72.146,45.492 72.146,45.492 72.146,45.492 72.146,45.492 72.146,45.492 	"/>
	<polygon style="fill-rule:evenodd;clip-rule:evenodd;fill:#555B9F;" points="71.197,36.278 71.79,35.934 75.943,38.409 
		75.527,38.698 71.197,36.278 71.197,36.278 71.197,36.278 71.197,36.278 71.197,36.278 71.197,36.278 	"/>
	<polygon style="fill-rule:evenodd;clip-rule:evenodd;fill:#2A3174;" points="75.943,38.122 76.892,37.776 76.892,47.624 
		75.943,47.911 75.943,38.122 75.943,38.122 75.943,38.122 75.943,38.122 75.943,38.122 75.943,38.122 	"/>
	<polygon style="fill-rule:evenodd;clip-rule:evenodd;fill:#555B9F;" points="70.246,34.436 70.72,34.091 76.892,37.488 
		76.3,37.776 70.246,34.436 70.246,34.436 70.246,34.436 70.246,34.436 70.246,34.436 70.246,34.436 	"/>
	<path style="fill-rule:evenodd;clip-rule:evenodd;fill:#37468B;" d="M75.943,47.854l-4.095-2.477v0.346l4.095,2.534v0.345
		l-4.095-2.59v0.287l4.095,2.765v0.287l-4.095-2.765v0.462l4.095,2.59v0.346l-4.095-2.591v0.461l4.095,2.419v0.287l-4.095-2.418
		v0.288l4.095,2.591v0.288l-4.095-2.591v0.346l4.095,2.706v0.749l-5.697-3.455l0.18-14.052l5.518,3.514V47.854L75.943,47.854
		L75.943,47.854L75.943,47.854L75.943,47.854L75.943,47.854L75.943,47.854z M70.959,36.394l4.271,2.592v-0.576l-4.271-2.591V36.394
		L70.959,36.394z"/>
	<polygon style="fill-rule:evenodd;clip-rule:evenodd;fill:#2A3174;" points="75.943,36.337 76.892,35.934 76.892,37.546 
		75.943,37.776 75.943,36.337 75.943,36.337 75.943,36.337 75.943,36.337 75.943,36.337 75.943,36.337 	"/>
	<polygon style="fill-rule:evenodd;clip-rule:evenodd;fill:#555B9F;" points="70.246,32.708 70.9,32.248 76.892,35.53 76.3,35.934 
		70.246,32.708 70.246,32.708 70.246,32.708 70.246,32.708 70.246,32.708 70.246,32.708 	"/>
	<polygon style="fill-rule:evenodd;clip-rule:evenodd;fill:#37468B;" points="75.943,36.278 75.943,37.776 70.246,34.724 
		70.246,33.169 75.943,36.278 75.943,36.278 75.943,36.278 75.943,36.278 75.943,36.278 75.943,36.278 	"/>
	<path style="fill:#152F56;stroke:#152F56;stroke-width:0.0354;stroke-linejoin:round;stroke-miterlimit:10;" d="M94.986,56.261
		l0.298-0.114l0,0l0.713-0.346l1.779-0.807L97.6,55.108l0.948-1.036l-0.059,0.462l-0.416-1.096l0.235,0.289l-1.125-0.462h0.118
		l-1.661-0.402l0,0l-1.485-0.23l-0.474-0.114h0.059h-0.177v-0.922h0.239l0.533,0.173l0,0l1.481,0.229l1.72,0.403l1.367,0.52
		l0.592,1.554l-1.246,1.325l-1.838,0.863l0,0l-0.713,0.346l-0.356,0.114L94.986,56.261L94.986,56.261z M85.853,53.555l0.235-0.059
		l0.474-0.058l0,0l0.596-0.114l0.592-0.115l1.188,0.69l-0.118-0.058l1.364,0.403h-0.298l0.654-0.23l-0.121,0.058l0.713-0.518
		l-0.06,0.058l0.533-0.576h-0.059l0.298-0.347l0.771,0.635l-0.298,0.345l-0.592,0.576l-0.83,0.634l-0.831,0.288l-1.603-0.462
		l-1.069-0.633l0.356,0.059l-0.415,0.058l0,0l-0.592,0.114l-0.537,0.059h0.063l-0.239,0.057L85.853,53.555L85.853,53.555z"/>
	<polygon style="fill-rule:evenodd;clip-rule:evenodd;fill:#404E8D;" points="92.079,51.597 92.079,52.173 89.233,53.438 
		89.233,52.922 92.079,51.597 92.079,51.597 92.079,51.597 92.079,51.597 92.079,51.597 92.079,51.597 	"/>
	<polygon style="fill-rule:evenodd;clip-rule:evenodd;fill:#213163;" points="89.233,52.806 89.233,53.438 84.485,50.444 
		84.485,49.754 89.233,52.806 89.233,52.806 89.233,52.806 89.233,52.806 89.233,52.806 89.233,52.806 	"/>
	<polygon style="fill-rule:evenodd;clip-rule:evenodd;fill:#515B9D;" points="92.079,51.884 89.587,53.438 84.485,50.444 
		87.036,48.833 92.079,51.884 92.079,51.884 92.079,51.884 92.079,51.884 92.079,51.884 92.079,51.884 	"/>
	<polygon style="fill-rule:evenodd;clip-rule:evenodd;fill:#2A3174;" points="88.282,51.597 86.386,50.617 86.386,44.226 
		88.282,45.146 88.282,51.597 88.282,51.597 88.282,51.597 88.282,51.597 88.282,51.597 88.282,51.597 	"/>
	<polygon style="fill-rule:evenodd;clip-rule:evenodd;fill:#404E8D;" points="88.282,45.146 89.233,45.319 89.233,50.503 
		88.282,51.597 88.282,45.146 88.282,45.146 88.282,45.146 88.282,45.146 88.282,45.146 88.282,45.146 	"/>
	<polygon style="fill-rule:evenodd;clip-rule:evenodd;fill:#404E8D;" points="93.979,42.728 94.928,42.383 94.928,52.229 
		93.979,52.519 93.979,42.728 93.979,42.728 93.979,42.728 93.979,42.728 93.979,42.728 93.979,42.728 	"/>
	<polygon style="fill-rule:evenodd;clip-rule:evenodd;fill:#515B9D;" points="83.537,37.2 84.07,36.854 94.928,43.017 
		94.453,43.304 83.537,37.2 83.537,37.2 83.537,37.2 83.537,37.2 83.537,37.2 83.537,37.2 	"/>
	<polygon style="fill-rule:evenodd;clip-rule:evenodd;fill:#213163;" points="93.979,42.959 93.979,52.519 83.537,46.472 
		83.537,36.854 93.979,42.959 93.979,42.959 93.979,42.959 93.979,42.959 93.979,42.959 93.979,42.959 	"/>
	<polygon style="fill-rule:evenodd;clip-rule:evenodd;fill:#FFFFFF;" points="93.03,43.477 93.03,52.519 83.537,46.759 
		83.537,37.776 93.03,43.477 93.03,43.477 93.03,43.477 93.03,43.477 93.03,43.477 93.03,43.477 	"/>
	<polygon style="fill-rule:evenodd;clip-rule:evenodd;fill:#404E8D;" points="93.267,43.649 93.979,43.304 93.979,52.229 
		93.03,52.519 93.267,43.649 93.267,43.649 93.267,43.649 93.267,43.649 93.267,43.649 93.267,43.649 	"/>
	<polygon style="fill-rule:evenodd;clip-rule:evenodd;fill:#515B9D;" points="82.589,37.2 83.121,36.854 93.979,43.017 
		93.505,43.304 82.589,37.2 82.589,37.2 82.589,37.2 82.589,37.2 82.589,37.2 82.589,37.2 	"/>
	<path style="fill-rule:evenodd;clip-rule:evenodd;fill:#213163;" d="M82.589,37.776l10.441,5.758l-0.121,8.984l-10.32-5.701V37.776
		L82.589,37.776L82.589,37.776L82.589,37.776L82.589,37.776L82.589,37.776L82.589,37.776z M92.259,51.482l0.177-7.66l-9.373-5.124
		v7.83L92.259,51.482L92.259,51.482z"/>
	<polygon style="fill-rule:evenodd;clip-rule:evenodd;fill:#213163;" points="87.334,58.046 77.84,52.979 77.84,52.519 
		87.334,57.47 87.334,58.046 87.334,58.046 87.334,58.046 87.334,58.046 87.334,58.046 87.334,58.046 	"/>
	<polygon style="fill-rule:evenodd;clip-rule:evenodd;fill:#515B9D;" points="87.274,57.124 77.84,51.942 80.927,49.754 
		90.183,54.994 87.274,57.124 87.274,57.124 87.274,57.124 87.274,57.124 87.274,57.124 87.274,57.124 	"/>
	<polygon style="fill-rule:evenodd;clip-rule:evenodd;fill:#404E8D;" points="90.183,55.281 90.183,56.204 87.334,58.046 
		87.334,57.47 90.183,55.281 90.183,55.281 90.183,55.281 90.183,55.281 90.183,55.281 90.183,55.281 	"/>
	<path style="fill-rule:evenodd;clip-rule:evenodd;fill:#9DA0CA;" d="M94.038,55.397c-0.059-0.116-0.415,0-0.771,0.173
		c-0.06,0.058-0.236,0.173-0.295,0.173c-0.356,0.345-0.713,0.575-0.893,0.921c0.951,0.46,0.951,0.46,0.951,0.46
		c0.177-0.287,0.416-0.576,0.831-0.92c0.118,0,0.177-0.058,0.235-0.116c0.356-0.173,0.713-0.287,0.831-0.173
		C94.038,55.397,94.038,55.397,94.038,55.397"/>
	<path style="fill-rule:evenodd;clip-rule:evenodd;fill:#5E65A9;" d="M92.972,57.816c0,0,0-0.116,0.059-0.116
		c-0.83-0.576-0.83-0.576-0.83-0.576l-0.121,0.116c0,0.114,0,0.114,0,0.114c0,0.059,0,0.059,0.121,0.173
		c0.771,0.519,0.771,0.519,0.771,0.519c0-0.057-0.063-0.057-0.063-0.173C92.909,57.873,92.972,57.873,92.972,57.816"/>
	<path style="fill-rule:evenodd;clip-rule:evenodd;fill:#2A3174;" d="M94.692,56.491c0.533-0.287,1.125-0.287,1.184,0
		c0,0,0,0,0,0.115c0,0.058-0.059,0.173-0.177,0.287c-2.433,1.096-2.433,1.096-2.433,1.096c-0.118,0.057-0.236,0.057-0.236-0.116
		c0,0,0.118,0,0.118-0.057c0,0,0-0.116,0.118-0.116c0.238-0.346,0.536-0.633,1.128-1.036C94.453,56.664,94.571,56.606,94.692,56.491
		L94.692,56.491L94.692,56.491L94.692,56.491"/>
</g>
</svg>