<?xml version="1.0" encoding="iso-8859-1"?>
<!DOCTYPE svg PUBLIC "-//W3C//DTD SVG 1.1//EN" "http://www.w3.org/Graphics/SVG/1.1/DTD/svg11.dtd">
<svg version="1.1" xmlns="http://www.w3.org/2000/svg" xmlns:xlink="http://www.w3.org/1999/xlink" width="55" height="40" viewBox="0 0 55 40">
<g>
	<polygon style="fill-rule:evenodd;clip-rule:evenodd;fill:#2A3174;" points="54.424,15.874 54.424,23.953 27.213,39.685 
		27.213,31.642 54.424,15.874 54.424,15.874 54.424,15.874 54.424,15.874 	"/>
	<polygon style="fill-rule:evenodd;clip-rule:evenodd;fill:#37468B;" points="27.213,31.642 27.213,39.685 0,23.953 0.106,15.874 
		27.213,31.642 27.213,31.642 27.213,31.642 27.213,31.642 	"/>
	<polygon style="fill-rule:evenodd;clip-rule:evenodd;fill:#4F62A5;" points="54.424,15.662 27.319,31.181 0,15.662 27.142,0 
		54.424,15.662 54.424,15.662 54.424,15.662 54.424,15.662 	"/>
	<path style="fill-rule:evenodd;clip-rule:evenodd;fill:#2A3174;" d="M31.784,22.181c2.055,1.169,2.055,1.169,2.055,1.169
		c-6.803,3.862-6.803,3.862-6.803,3.862c-6.768-3.862-6.768-3.862-6.768-3.862c2.02-1.169,2.02-1.169,2.02-1.169
		c3.083,1.771,3.083,1.771,3.083,1.771c0-3.827,0-3.827,0-3.827c-1.275-0.248-2.516-0.603-3.508-1.134
		c-1.028-0.603-1.736-1.347-2.02-2.055c-6.732,0-6.732,0-6.732,0c3.083,1.736,3.083,1.736,3.083,1.736
		c-2.02,1.169-2.02,1.169-2.02,1.169C7.37,16.016,7.37,16.016,7.37,16.016c6.803-3.897,6.803-3.897,6.803-3.897
		c1.949,1.169,1.949,1.169,1.949,1.169c-3.012,1.771-3.012,1.771-3.012,1.771c6.59,0,6.59,0,6.59,0
		c0.248-0.851,0.992-1.666,2.091-2.338c1.24-0.638,2.728-1.063,4.252-1.205c0-3.685,0-3.685,0-3.685
		c-3.083,1.772-3.083,1.772-3.083,1.772c-2.02-1.169-2.02-1.169-2.02-1.169c6.732-3.897,6.732-3.897,6.732-3.897
		c6.839,3.897,6.839,3.897,6.839,3.897c-2.055,1.169-2.055,1.169-2.055,1.169c-3.084-1.772-3.084-1.772-3.084-1.772
		c0,1.028,0,2.551,0,3.827c1.24,0.177,2.41,0.531,3.402,1.063c0.922,0.567,1.594,1.24,1.984,1.949c6.59,0,6.59,0,6.59,0
		c-3.082-1.736-3.082-1.736-3.082-1.736c2.02-1.169,2.02-1.169,2.02-1.169c6.768,3.898,6.768,3.898,6.768,3.898
		c-6.768,3.791-6.768,3.791-6.768,3.791c-2.02-1.134-2.02-1.134-2.02-1.134c3.082-1.771,3.082-1.771,3.082-1.771
		c-1.807,0-4.252,0-6.412,0c-0.248,0.921-0.992,1.771-2.162,2.445s-2.586,1.027-4.074,1.205c0,3.756,0,3.756,0,3.756
		C31.784,22.181,31.784,22.181,31.784,22.181L31.784,22.181L31.784,22.181L31.784,22.181z M24.449,17.469
		c1.595,0.921,4.146,0.921,5.669,0c1.596-0.921,1.559-2.374,0-3.225c-1.523-0.886-4.11-0.886-5.669,0
		C22.925,15.095,22.925,16.547,24.449,17.469"/>
	<path style="fill-rule:evenodd;clip-rule:evenodd;fill:#FFFFFF;" d="M31.784,21.685c2.055,1.169,2.055,1.169,2.055,1.169
		c-6.803,3.792-6.803,3.792-6.803,3.792c-6.768-3.792-6.768-3.792-6.768-3.792c2.02-1.169,2.02-1.169,2.02-1.169
		c3.083,1.771,3.083,1.771,3.083,1.771c0-3.897,0-3.897,0-3.897c-1.275-0.177-2.516-0.603-3.508-1.134
		c-1.028-0.603-1.736-1.276-2.02-2.02c-6.732,0-6.732,0-6.732,0c3.083,1.771,3.083,1.771,3.083,1.771
		c-2.02,1.134-2.02,1.134-2.02,1.134C7.37,15.449,7.37,15.449,7.37,15.449c6.803-3.897,6.803-3.897,6.803-3.897
		c1.949,1.169,1.949,1.169,1.949,1.169c-3.012,1.771-3.012,1.771-3.012,1.771c6.59,0,6.59,0,6.59,0
		c0.248-0.851,0.992-1.666,2.091-2.338c1.24-0.638,2.728-1.063,4.252-1.205c0-3.685,0-3.685,0-3.685
		c-3.083,1.772-3.083,1.772-3.083,1.772c-2.02-1.169-2.02-1.169-2.02-1.169c6.732-3.897,6.732-3.897,6.732-3.897
		c6.839,3.897,6.839,3.897,6.839,3.897c-2.055,1.169-2.055,1.169-2.055,1.169c-3.084-1.772-3.084-1.772-3.084-1.772
		c0,1.028,0,2.551,0,3.827c1.24,0.177,2.41,0.532,3.402,1.063c0.922,0.638,1.594,1.275,1.984,1.949c6.59,0,6.59,0,6.59,0
		c-3.082-1.736-3.082-1.736-3.082-1.736c2.02-1.169,2.02-1.169,2.02-1.169c6.768,3.898,6.768,3.898,6.768,3.898
		c-6.768,3.862-6.768,3.862-6.768,3.862c-2.02-1.134-2.02-1.134-2.02-1.134c3.082-1.771,3.082-1.771,3.082-1.771
		c-1.807,0-4.252,0-6.412,0c-0.248,0.85-0.992,1.701-2.162,2.374s-2.586,1.098-4.074,1.205c0,3.827,0,3.827,0,3.827
		C31.784,21.685,31.784,21.685,31.784,21.685L31.784,21.685L31.784,21.685L31.784,21.685z M24.449,16.901
		c1.595,0.921,4.146,0.921,5.669,0c1.596-0.85,1.559-2.303,0-3.224c-1.523-0.886-4.11-0.886-5.669,0
		C22.925,14.599,22.925,16.051,24.449,16.901"/>
	<path style="fill-rule:evenodd;clip-rule:evenodd;fill:#FFFFFF;" d="M12.225,25.512c0.142,0.46,0.248,0.956,0.248,1.488
		c0,0.602-0.106,0.991-0.354,1.169c-0.284,0.177-0.638,0.07-1.134-0.213c-1.347-0.851-1.347-0.851-1.347-0.851
		c0-3.862,0-3.862,0-3.862c1.524,1.028,1.524,1.028,1.524,1.028C11.622,24.555,11.941,24.98,12.225,25.512L12.225,25.512
		L12.225,25.512L12.225,25.512z M10.949,26.929c0.425,0.319,0.638,0.142,0.638-0.531c0-0.178-0.071-0.426-0.106-0.603
		c-0.106-0.354-0.319-0.567-0.603-0.744c-0.319-0.178-0.319-0.178-0.319-0.178c0,1.843,0,1.843,0,1.843
		C10.949,26.929,10.949,26.929,10.949,26.929"/>
	<path style="fill-rule:evenodd;clip-rule:evenodd;fill:#FFFFFF;" d="M14.811,26.398c0.496,0.283,0.886,0.566,1.134,0.992
		c0.248,0.39,0.461,0.85,0.496,1.311c-1.063-0.496-1.063-0.496-1.063-0.496c0-0.177-0.071-0.318-0.106-0.425
		c-0.142-0.178-0.248-0.354-0.46-0.461c-0.248-0.106-0.425-0.106-0.496,0.071c-0.142,0.106-0.177,0.318-0.177,0.638
		c0,0.283,0.036,0.496,0.106,0.744c0.142,0.283,0.319,0.46,0.567,0.566c0.319,0.178,0.496,0.071,0.567-0.283
		c1.063,0.603,1.063,0.603,1.063,0.603c0,0.39-0.106,0.638-0.425,0.814c-0.319,0.142-0.708,0.106-1.205-0.142
		c-0.567-0.354-0.992-0.744-1.311-1.275s-0.46-1.099-0.46-1.63c0-0.567,0.212-0.992,0.531-1.169
		C13.89,26.079,14.315,26.079,14.811,26.398L14.811,26.398L14.811,26.398"/>
	<polygon style="fill-rule:evenodd;clip-rule:evenodd;fill:#FFFFFF;" points="19.771,29.268 19.771,30.224 18.071,29.268 
		18.071,29.693 19.666,30.579 19.559,31.429 18.071,30.579 18.071,31.004 19.843,31.96 19.843,32.882 17.008,31.358 17.008,27.78 
		19.771,29.268 19.771,29.268 19.771,29.268 19.771,29.268 	"/>
</g>
</svg>