<?xml version="1.0" encoding="iso-8859-1"?>
<!DOCTYPE svg PUBLIC "-//W3C//DTD SVG 1.1//EN" "http://www.w3.org/Graphics/SVG/1.1/DTD/svg11.dtd">
<svg version="1.1" xmlns="http://www.w3.org/2000/svg" xmlns:xlink="http://www.w3.org/1999/xlink" width="108" height="60" viewBox="0 0 108 60">
<g>
	<polygon style="fill-rule:evenodd;clip-rule:evenodd;fill:#2A3174;" points="60.032,48.686 108.63,27.372 108.63,38.515 
		60.032,59.921 60.032,48.686 60.032,48.686 60.032,48.686 	"/>
	<polygon style="fill-rule:evenodd;clip-rule:evenodd;fill:#4F62A5;" points="0,21.823 48.479,0 108.63,27.048 60.212,48.825 
		0,21.823 0,21.823 0,21.823 	"/>
	<polygon style="fill-rule:evenodd;clip-rule:evenodd;fill:#37468B;" points="60.032,48.64 60.032,59.921 0,33.475 0.179,22.193 
		60.032,48.64 60.032,48.64 60.032,48.64 	"/>
	<path style="fill-rule:evenodd;clip-rule:evenodd;fill:#2A3174;" d="M51.457,49.611c0-0.186,0-0.231,0-0.416c0-0.092,0-0.14,0-0.14
		c0-0.185,0-0.276,0-0.323c0-0.092,0-0.185,0-0.23c0-0.093,0-0.185,0-0.278c0-0.046,0-0.139-0.06-0.23c0-0.047,0-0.139,0-0.231
		c0-0.092,0-0.092,0-0.14c0-0.092,0-0.185,0-0.23c0-0.093,0-0.093,0-0.185c0-0.093,0-0.139,0-0.23c0,0-0.118-0.093-0.118-0.187
		c0-0.046,0-0.046,0-0.138c0-0.093,0-0.093,0-0.139c0-0.093,0-0.093,0-0.185c0-0.093,0-0.093,0-0.139c-0.12,0-0.12-0.093-0.12-0.185
		c0,0,0,0,0-0.048c0-0.092,0-0.092,0-0.185c0,0,0,0,0-0.092c0,0,0-0.047-0.06-0.139l0,0c0-0.139,0-0.324,0-0.417l0,0
		C1.192,22.933,1.192,22.933,1.192,22.933c-0.238,0-0.238,0-0.238,0c49.908,22.286,49.908,22.286,49.908,22.286s0,0.186,0.118,0.416
		l0,0c0,0.047,0,0.139,0,0.139v0.093c0,0.092,0,0.092,0.119,0.14v0.092c0,0.093,0,0.139,0,0.139c0,0.093,0,0.093,0,0.185
		c0,0.093,0,0.093,0,0.139c0,0.093,0.06,0.093,0.06,0.185c0,0.046,0,0.046,0,0.14c0,0.093,0,0.185,0,0.185c0,0.046,0,0.139,0,0.23
		c0,0.093,0,0.093,0,0.139c0,0.093,0.12,0.185,0.12,0.232c0,0.092,0,0.092,0,0.185c0,0.092,0,0.139,0,0.23c0,0.093,0,0.139,0,0.232
		c0,0.092,0,0.185,0,0.23c0,0.093,0,0.185,0,0.231c0,0.092,0,0.185,0,0.324c0,0,0,0.092,0,0.185c0,0.138,0,0.23,0.118,0.369
		c0,0,0,0.092,0,0.185c0,0.14,0,0.37,0,0.555c0,4.069-0.535,4.347-0.535,4.347c0.118,0,0.118,0,0.118,0
		c0-0.046,0.477-0.369,0.477-4.438c0-0.139,0-0.369,0-0.556C51.457,49.657,51.457,49.611,51.457,49.611"/>
	<path style="fill-rule:evenodd;clip-rule:evenodd;fill:#FFFFFF;" d="M50.98,45.218c0,0.092,0.477,1.988,0.477,5.178
		c0,4.069-0.477,4.347-0.477,4.347C0.954,32.595,0.954,32.595,0.954,32.595c0-9.663,0-9.663,0-9.663
		C50.98,45.218,50.98,45.218,50.98,45.218L50.98,45.218"/>
	<polygon style="fill-rule:evenodd;clip-rule:evenodd;fill:#495C9B;" points="5.718,32.689 5.897,32.549 7.624,33.291 7.504,33.291 
		5.718,32.689 5.718,32.689 5.718,32.689 	"/>
	<polygon style="fill-rule:evenodd;clip-rule:evenodd;fill:#37477D;" points="7.624,33.291 7.624,34.77 6.909,34.492 6.909,34.63 
		6.313,34.492 6.313,34.214 5.718,33.89 5.718,32.549 7.624,33.291 7.624,33.291 7.624,33.291 	"/>
	<polygon style="fill-rule:evenodd;clip-rule:evenodd;fill:#495C9B;" points="3.812,31.811 3.99,31.811 5.718,32.457 5.599,32.549 
		3.812,31.811 3.812,31.811 3.812,31.811 	"/>
	<polygon style="fill-rule:evenodd;clip-rule:evenodd;fill:#37477D;" points="5.718,32.735 5.718,34.029 5.003,33.751 5.003,34.029 
		4.407,33.751 4.407,33.614 3.812,33.291 3.812,31.811 5.718,32.735 5.718,32.735 5.718,32.735 	"/>
	<polygon style="fill-rule:evenodd;clip-rule:evenodd;fill:#25325E;" points="10.959,34.77 11.435,34.77 11.435,36.11 
		10.482,36.249 10.959,34.77 10.959,34.77 10.959,34.77 	"/>
	<polygon style="fill-rule:evenodd;clip-rule:evenodd;fill:#495C9B;" points="9.529,34.168 9.708,34.029 11.435,34.77 11.316,34.77 
		9.529,34.168 9.529,34.168 9.529,34.168 	"/>
	<polygon style="fill-rule:evenodd;clip-rule:evenodd;fill:#37477D;" points="10.482,35.278 10.423,36.249 10.125,36.064 
		10.125,36.156 9.827,36.064 9.827,35.878 9.529,35.694 9.529,34.77 10.482,35.278 10.482,35.278 10.482,35.278 	"/>
	<polygon style="fill-rule:evenodd;clip-rule:evenodd;fill:#25325E;" points="8.576,34.168 9.529,34.029 9.053,35.417 8.576,35.508 
		8.576,34.168 8.576,34.168 8.576,34.168 	"/>
	<polygon style="fill-rule:evenodd;clip-rule:evenodd;fill:#495C9B;" points="7.624,33.427 7.624,33.291 9.529,33.937 9.231,34.029 
		7.624,33.427 7.624,33.427 7.624,33.427 	"/>
	<polygon style="fill-rule:evenodd;clip-rule:evenodd;fill:#37477D;" points="8.576,34.123 8.576,35.508 8.278,35.232 8.278,35.37 
		7.98,35.093 7.98,34.955 7.624,34.676 7.624,33.291 8.576,34.123 8.576,34.123 8.576,34.123 	"/>
	<polygon style="fill-rule:evenodd;clip-rule:evenodd;fill:#495C9B;" points="12.388,36.249 12.566,36.249 14.294,36.988 
		14.174,36.988 12.388,36.249 12.388,36.249 12.388,36.249 	"/>
	<polygon style="fill-rule:evenodd;clip-rule:evenodd;fill:#37477D;" points="14.294,36.803 14.294,37.728 13.757,37.543 
		13.757,37.728 12.983,37.543 12.983,37.359 12.388,37.173 12.388,36.249 14.294,36.803 14.294,36.803 14.294,36.803 	"/>
	<polygon style="fill-rule:evenodd;clip-rule:evenodd;fill:#495C9B;" points="11.435,35 11.554,34.77 12.388,36.064 12.329,36.249 
		11.435,35 11.435,35 11.435,35 	"/>
	<polygon style="fill-rule:evenodd;clip-rule:evenodd;fill:#37477D;" points="12.388,36.11 12.388,36.988 12.15,36.896 
		12.15,36.988 11.733,36.896 11.733,36.711 11.435,36.526 11.435,35.508 12.388,36.11 12.388,36.11 12.388,36.11 	"/>
	<polygon style="fill-rule:evenodd;clip-rule:evenodd;fill:#495C9B;" points="20.964,40.085 21.321,39.947 22.87,40.594 
		22.75,40.687 20.964,40.085 20.964,40.085 20.964,40.085 	"/>
	<polygon style="fill-rule:evenodd;clip-rule:evenodd;fill:#37477D;" points="22.87,40.548 22.87,41.426 22.334,41.242 
		22.334,41.426 21.738,41.242 21.738,41.057 20.964,40.873 20.964,39.947 22.87,40.548 22.87,40.548 22.87,40.548 	"/>
	<polygon style="fill-rule:evenodd;clip-rule:evenodd;fill:#495C9B;" points="19.058,39.208 19.237,39.208 20.964,39.855 
		20.845,39.947 19.058,39.208 19.058,39.208 19.058,39.208 	"/>
	<polygon style="fill-rule:evenodd;clip-rule:evenodd;fill:#37477D;" points="20.964,39.762 20.964,40.687 20.428,40.502 
		20.428,40.594 19.833,40.41 19.833,40.318 19.058,40.133 19.058,39.208 20.964,39.762 20.964,39.762 20.964,39.762 	"/>
	<polygon style="fill-rule:evenodd;clip-rule:evenodd;fill:#495C9B;" points="24.775,41.565 24.954,41.426 26.681,42.167 
		26.562,42.167 24.775,41.565 24.775,41.565 24.775,41.565 	"/>
	<polygon style="fill-rule:evenodd;clip-rule:evenodd;fill:#37477D;" points="26.681,41.936 26.681,42.907 26.145,42.721 
		26.145,42.907 25.371,42.721 25.371,42.537 24.775,42.351 24.775,41.426 26.681,41.936 26.681,41.936 26.681,41.936 	"/>
	<polygon style="fill-rule:evenodd;clip-rule:evenodd;fill:#495C9B;" points="22.87,40.687 23.049,40.687 24.775,41.334 
		24.656,41.426 22.87,40.687 22.87,40.687 22.87,40.687 	"/>
	<polygon style="fill-rule:evenodd;clip-rule:evenodd;fill:#37477D;" points="24.775,41.242 24.775,42.167 24.239,41.982 
		24.239,42.167 23.465,41.982 23.465,41.797 22.87,41.613 22.87,40.687 24.775,41.242 24.775,41.242 24.775,41.242 	"/>
	<polygon style="fill-rule:evenodd;clip-rule:evenodd;fill:#25325E;" points="30.017,43.646 30.493,43.646 30.493,44.987 
		29.541,45.125 30.017,43.646 30.017,43.646 30.017,43.646 	"/>
	<polygon style="fill-rule:evenodd;clip-rule:evenodd;fill:#495C9B;" points="28.587,42.907 28.766,42.907 30.493,43.646 
		30.374,43.646 28.587,42.907 28.587,42.907 28.587,42.907 	"/>
	<polygon style="fill-rule:evenodd;clip-rule:evenodd;fill:#37477D;" points="29.541,43.646 29.48,45.125 29.183,44.848 
		29.183,45.125 28.885,44.848 28.885,44.572 28.587,44.248 28.587,42.907 29.541,43.646 29.541,43.646 29.541,43.646 	"/>
	<polygon style="fill-rule:evenodd;clip-rule:evenodd;fill:#25325E;" points="27.635,42.907 28.587,42.907 28.587,44.248 
		27.635,44.386 27.635,42.907 27.635,42.907 27.635,42.907 	"/>
	<polygon style="fill-rule:evenodd;clip-rule:evenodd;fill:#495C9B;" points="26.681,42.306 26.681,42.167 28.587,42.907 
		28.29,42.907 26.681,42.306 26.681,42.306 26.681,42.306 	"/>
	<polygon style="fill-rule:evenodd;clip-rule:evenodd;fill:#37477D;" points="27.635,42.907 27.635,44.386 27.337,44.109 
		27.337,44.386 27.039,44.109 27.039,43.831 26.681,43.507 26.681,42.167 27.635,42.907 27.635,42.907 27.635,42.907 	"/>
	<polygon style="fill-rule:evenodd;clip-rule:evenodd;fill:#495C9B;" points="42.881,49.841 43.119,49.564 43.833,50.073 
		43.595,50.304 42.881,49.841 42.881,49.841 42.881,49.841 	"/>
	<polygon style="fill-rule:evenodd;clip-rule:evenodd;fill:#495C9B;" points="43.833,49.564 44.072,49.564 44.787,49.935 
		44.548,50.304 43.833,49.564 43.833,49.564 43.833,49.564 	"/>
	<polygon style="fill-rule:evenodd;clip-rule:evenodd;fill:#37477D;" points="44.072,49.888 44.072,50.166 44.787,50.489 
		44.787,51.784 42.881,50.906 42.881,49.564 43.476,49.888 43.476,49.564 44.072,49.888 44.072,49.888 44.072,49.888 	"/>
	<polygon style="fill-rule:evenodd;clip-rule:evenodd;fill:#25325E;" points="46.692,51.876 47.645,51.784 47.645,52.477 
		46.692,52.524 46.692,51.876 46.692,51.876 46.692,51.876 	"/>
	<polygon style="fill-rule:evenodd;clip-rule:evenodd;fill:#495C9B;" points="46.692,51.321 46.93,51.043 47.645,51.553 
		47.407,51.784 46.692,51.321 46.692,51.321 46.692,51.321 	"/>
	<polygon style="fill-rule:evenodd;clip-rule:evenodd;fill:#37477D;" points="46.455,51.23 46.455,51.415 46.692,51.599 
		46.692,52.524 45.74,51.968 45.74,51.043 46.038,51.23 46.038,51.043 46.455,51.23 46.455,51.23 46.455,51.23 	"/>
	<polygon style="fill-rule:evenodd;clip-rule:evenodd;fill:#37477D;" points="39.784,48.317 39.784,48.409 40.022,48.64 
		40.022,49.564 39.069,49.055 39.069,48.084 39.486,48.317 39.486,48.084 39.784,48.317 39.784,48.317 39.784,48.317 	"/>
	<polygon style="fill-rule:evenodd;clip-rule:evenodd;fill:#37477D;" points="42.345,49.241 42.345,49.379 42.881,49.657 
		42.881,51.043 40.974,50.211 41.213,48.825 41.75,49.103 41.75,48.963 42.345,49.241 42.345,49.241 42.345,49.241 	"/>
	<polygon style="fill-rule:evenodd;clip-rule:evenodd;fill:#25325E;" points="36.21,46.698 36.21,46.605 36.21,47.345 
		35.257,47.345 36.21,46.698 36.21,46.698 36.21,46.698 	"/>
	<polygon style="fill-rule:evenodd;clip-rule:evenodd;fill:#495C9B;" points="35.257,46.142 35.496,45.866 36.21,46.375 
		36.21,46.605 35.257,46.142 35.257,46.142 35.257,46.142 	"/>
	<polygon style="fill-rule:evenodd;clip-rule:evenodd;fill:#37477D;" points="35.555,46.097 35.555,46.282 36.21,46.466 
		36.091,47.345 34.304,46.79 34.304,45.866 35.019,46.097 35.019,45.866 35.555,46.097 35.555,46.097 35.555,46.097 	"/>
	<polygon style="fill-rule:evenodd;clip-rule:evenodd;fill:#495C9B;" points="36.21,46.605 36.449,46.605 37.163,46.976 
		36.925,47.345 36.21,46.605 36.21,46.605 36.21,46.605 	"/>
	<polygon style="fill-rule:evenodd;clip-rule:evenodd;fill:#37477D;" points="37.58,46.883 37.58,47.161 38.116,47.437 
		38.116,48.825 36.21,47.993 36.21,46.605 36.806,46.883 36.985,46.605 37.58,46.883 37.58,46.883 37.58,46.883 	"/>
	<path style="fill-rule:evenodd;clip-rule:evenodd;fill:#2A3174;" d="M47.585,45.866c-0.119-0.093-1.072-0.37-1.191-0.462
		c-0.119,0-0.119,0-0.119,0c-0.298-0.094-0.833-0.278-0.952-0.278c-0.536,0.185-0.536,0.185-0.536,0.185
		c0.119,0,0.773,0.186,0.953,0.232l0.119,0.046c0.237,0.046,1.071,0.323,1.311,0.417c0.059,0.137-0.239,0.6-0.239,0.6
		c0.536-0.139,0.536-0.139,0.536-0.139S47.645,45.958,47.585,45.866"/>
	<path style="fill-rule:evenodd;clip-rule:evenodd;fill:#465793;" d="M45.977,45.404l0.119,0.046
		c0.239,0.046,1.192,0.369,1.43,0.508c0.119,0.094-0.237,0.647-0.237,0.647s-0.834-0.185-1.43-0.369
		c-0.357-0.094-0.715-0.23-0.834-0.23c-0.119-0.14-0.238-0.787-0.119-0.88l0,0C45.025,45.125,45.74,45.31,45.977,45.404
		L45.977,45.404"/>
	<path style="fill-rule:evenodd;clip-rule:evenodd;fill:#2A3174;" d="M48.36,46.605h-0.119c-0.596,0.324-0.596,0.324-0.596,0.324
		c0.119-0.092,0.119-0.092,0.238,0c0.119,0,0.238,0.231,0.238,0.323c0,0.093-0.119,0.093-0.119,0.093
		c0.238,0,0.357-0.093,0.596-0.185l0,0c0,0,0-0.093,0-0.231C48.598,46.837,48.479,46.744,48.36,46.605"/>
	<path style="fill-rule:evenodd;clip-rule:evenodd;fill:#2A3174;" d="M44.548,45.125c-0.119,0-0.119,0-0.238,0
		c-0.477,0.232-0.477,0.232-0.477,0.232s0,0,0.119,0.092c0.119,0,0.238,0.231,0.238,0.323c0,0.093,0,0.093,0,0.093
		c0.119,0,0.238-0.093,0.477-0.185l0,0c0.119,0,0.119-0.093,0.119-0.231C44.787,45.358,44.667,45.264,44.548,45.125"/>
	<path style="fill-rule:evenodd;clip-rule:evenodd;fill:#465793;" d="M44.31,45.264c0.238,0,0.477,0.231,0.477,0.37
		s-0.238,0.231-0.477,0.139c-0.238,0-0.477-0.277-0.477-0.369C43.833,45.264,44.072,45.125,44.31,45.264L44.31,45.264"/>
	<polygon style="fill-rule:evenodd;clip-rule:evenodd;fill:#4F62A5;" points="4.765,29.73 4.944,29.591 8.576,30.978 8.458,31.07 
		4.765,29.73 4.765,29.73 4.765,29.73 	"/>
	<polygon style="fill-rule:evenodd;clip-rule:evenodd;fill:#CEC3D4;" points="8.576,31.209 8.576,32.549 4.765,30.839 4.765,29.591 
		8.576,31.209 8.576,31.209 8.576,31.209 	"/>
	<polygon style="fill-rule:evenodd;clip-rule:evenodd;fill:#4F62A5;" points="11.435,32.735 11.614,32.549 15.247,34.63 
		14.949,34.77 11.435,32.735 11.435,32.735 11.435,32.735 	"/>
	<polygon style="fill-rule:evenodd;clip-rule:evenodd;fill:#CEC3D4;" points="15.247,34.307 15.247,35.508 11.435,33.937 
		11.435,32.549 15.247,34.307 15.247,34.307 15.247,34.307 	"/>
	<polygon style="fill-rule:evenodd;clip-rule:evenodd;fill:#4F62A5;" points="20.011,36.434 20.011,36.249 23.823,38.329 
		23.704,38.467 20.011,36.434 20.011,36.434 20.011,36.434 	"/>
	<polygon style="fill-rule:evenodd;clip-rule:evenodd;fill:#CEC3D4;" points="23.823,38.005 23.823,39.208 20.011,37.635 
		20.011,36.249 23.823,38.005 23.823,38.005 23.823,38.005 	"/>
	<polygon style="fill-rule:evenodd;clip-rule:evenodd;fill:#2A3174;" points="30.493,41.426 31.446,41.426 31.446,42.907 
		30.493,42.907 30.493,41.426 30.493,41.426 30.493,41.426 	"/>
	<polygon style="fill-rule:evenodd;clip-rule:evenodd;fill:#4F62A5;" points="27.635,40.085 27.813,39.947 31.446,41.426 
		31.148,41.426 27.635,40.085 27.635,40.085 27.635,40.085 	"/>
	<polygon style="fill-rule:evenodd;clip-rule:evenodd;fill:#CEC3D4;" points="30.493,41.565 30.493,42.907 27.635,41.334 
		27.635,39.947 30.493,41.565 30.493,41.565 30.493,41.565 	"/>
	<polygon style="fill-rule:evenodd;clip-rule:evenodd;fill:#4F62A5;" points="36.21,43.646 36.568,43.646 40.022,45.034 
		39.903,45.125 36.21,43.646 36.21,43.646 36.21,43.646 	"/>
	<polygon style="fill-rule:evenodd;clip-rule:evenodd;fill:#CEC3D4;" points="40.022,45.31 40.022,46.605 36.21,44.987 
		36.21,43.646 40.022,45.31 40.022,45.31 40.022,45.31 	"/>
	<polygon style="fill-rule:evenodd;clip-rule:evenodd;fill:#4F62A5;" points="42.881,46.605 43.059,46.605 46.692,48.686 
		46.574,48.825 42.881,46.605 42.881,46.605 42.881,46.605 	"/>
	<polygon style="fill-rule:evenodd;clip-rule:evenodd;fill:#CEC3D4;" points="46.692,48.269 46.692,49.564 42.881,47.946 
		42.881,46.605 46.692,48.269 46.692,48.269 46.692,48.269 	"/>
</g>
</svg>