<?xml version="1.0" encoding="iso-8859-1"?>
<!DOCTYPE svg PUBLIC "-//W3C//DTD SVG 1.1//EN" "http://www.w3.org/Graphics/SVG/1.1/DTD/svg11.dtd">
<svg version="1.1" xmlns="http://www.w3.org/2000/svg" xmlns:xlink="http://www.w3.org/1999/xlink" width="55" height="40" viewBox="0 0 55 40">
<g>
	<polygon style="fill-rule:evenodd;clip-rule:evenodd;fill:#2A3174;" points="54.424,15.874 54.424,23.953 27.213,39.685 
		27.319,31.749 54.424,15.874 54.424,15.874 54.424,15.874 54.424,15.874 	"/>
	<polygon style="fill-rule:evenodd;clip-rule:evenodd;fill:#37468B;" points="27.779,31.749 27.708,39.685 0,23.953 0,15.874 
		27.779,31.749 27.779,31.749 27.779,31.749 27.779,31.749 	"/>
	<polygon style="fill-rule:evenodd;clip-rule:evenodd;fill:#525B9F;" points="54.424,15.838 27.354,31.749 0,15.838 27.177,0 
		54.424,15.838 54.424,15.838 54.424,15.838 54.424,15.838 	"/>
	<path style="fill-rule:evenodd;clip-rule:evenodd;fill:#2A3174;" d="M32.032,22.216c1.984,1.17,1.984,1.17,1.984,1.17
		c-6.626,3.826-6.626,3.826-6.626,3.826c-6.732-3.826-6.732-3.826-6.732-3.826c1.984-1.17,1.984-1.17,1.984-1.17
		c3.083,1.736,3.083,1.736,3.083,1.736c0-3.827,0-3.827,0-3.827c-1.311-0.212-2.48-0.603-3.508-1.169
		c-0.992-0.567-1.666-1.311-1.984-1.984c-6.662,0-6.662,0-6.662,0c3.083,1.701,3.083,1.701,3.083,1.701
		c-1.984,1.169-1.984,1.169-1.984,1.169C7.937,15.98,7.937,15.98,7.937,15.98c6.662-3.827,6.662-3.827,6.662-3.827
		c1.984,1.134,1.984,1.134,1.984,1.134c-3.012,1.736-3.012,1.736-3.012,1.736c6.555,0,6.555,0,6.555,0
		c0.284-0.85,0.921-1.63,2.055-2.303c1.169-0.673,2.693-1.063,4.181-1.205c0-3.685,0-3.685,0-3.685
		c-3.047,1.736-3.047,1.736-3.047,1.736c-1.984-1.169-1.984-1.169-1.984-1.169c6.626-3.862,6.626-3.862,6.626-3.862
		c6.733,3.862,6.733,3.862,6.733,3.862c-1.984,1.169-1.984,1.169-1.984,1.169c-3.084-1.736-3.084-1.736-3.084-1.736
		c0,1.063,0,2.551,0.072,3.792c1.168,0.212,2.303,0.567,3.26,1.099c0.955,0.602,1.629,1.24,1.984,1.949c6.482,0,6.482,0,6.482,0
		c-3.047-1.772-3.047-1.772-3.047-1.772c1.984-1.134,1.984-1.134,1.984-1.134c6.697,3.862,6.697,3.862,6.697,3.862
		c-6.627,3.862-6.627,3.862-6.627,3.862c-1.982-1.134-1.982-1.134-1.982-1.134c3.047-1.772,3.047-1.772,3.047-1.772
		c-1.771,0-4.252,0-6.379,0c-0.213,0.851-0.92,1.701-2.09,2.374c-1.135,0.673-2.586,1.063-4.039,1.205c0,3.791,0,3.791,0,3.791
		C32.032,22.216,32.032,22.216,32.032,22.216L32.032,22.216L32.032,22.216L32.032,22.216z M24.803,17.433
		c1.559,0.921,4.074,0.921,5.563,0c1.559-0.851,1.559-2.303,0-3.189c-1.523-0.851-4.074-0.851-5.563,0
		C23.244,15.13,23.244,16.583,24.803,17.433"/>
	<path style="fill-rule:evenodd;clip-rule:evenodd;fill:#FFFFFF;" d="M32.032,21.65c1.984,1.169,1.984,1.169,1.984,1.169
		c-6.626,3.827-6.626,3.827-6.626,3.827c-6.732-3.827-6.732-3.827-6.732-3.827c1.984-1.169,1.984-1.169,1.984-1.169
		c3.083,1.736,3.083,1.736,3.083,1.736c0-3.898,0-3.898,0-3.898c-1.311-0.142-2.48-0.532-3.508-1.099
		c-0.992-0.602-1.666-1.311-1.984-2.055c-6.662,0-6.662,0-6.662,0c3.083,1.772,3.083,1.772,3.083,1.772
		c-1.984,1.169-1.984,1.169-1.984,1.169c-6.732-3.862-6.732-3.862-6.732-3.862c6.662-3.898,6.662-3.898,6.662-3.898
		c1.984,1.205,1.984,1.205,1.984,1.205c-3.012,1.736-3.012,1.736-3.012,1.736c6.555,0,6.555,0,6.555,0
		c0.284-0.85,0.921-1.63,2.055-2.303c1.169-0.673,2.693-1.099,4.181-1.205c0-3.685,0-3.685,0-3.685C23.315,9,23.315,9,23.315,9
		c-1.984-1.169-1.984-1.169-1.984-1.169c6.626-3.862,6.626-3.862,6.626-3.862c6.733,3.862,6.733,3.862,6.733,3.862
		C32.706,9,32.706,9,32.706,9c-3.084-1.736-3.084-1.736-3.084-1.736c0,0.992,0,2.48,0.072,3.792c1.168,0.212,2.303,0.567,3.26,1.099
		c0.955,0.567,1.629,1.24,1.984,1.949c6.482,0,6.482,0,6.482,0c-3.047-1.772-3.047-1.772-3.047-1.772
		c1.984-1.134,1.984-1.134,1.984-1.134c6.697,3.862,6.697,3.862,6.697,3.862c-6.627,3.862-6.627,3.862-6.627,3.862
		c-1.982-1.205-1.982-1.205-1.982-1.205c3.047-1.701,3.047-1.701,3.047-1.701c-1.771,0-4.252,0-6.379,0
		c-0.213,0.851-0.92,1.701-2.09,2.374c-1.135,0.638-2.586,1.063-4.039,1.205c0,3.792,0,3.792,0,3.792
		C32.032,21.65,32.032,21.65,32.032,21.65L32.032,21.65L32.032,21.65L32.032,21.65z M24.803,16.866c1.559,0.921,4.074,0.921,5.563,0
		c1.559-0.851,1.559-2.338,0-3.189c-1.523-0.921-4.074-0.921-5.563,0C23.244,14.528,23.244,16.016,24.803,16.866"/>
	<path style="fill-rule:evenodd;clip-rule:evenodd;fill:#FFFFFF;" d="M12.756,25.299c0.213,0.354,0.284,0.709,0.284,1.027
		c-0.036,0.496-0.142,0.779-0.354,0.886c-0.248,0.036-0.531,0-0.886-0.212c-0.603-0.391-0.603-0.391-0.603-0.391
		c0,1.17,0,1.17,0,1.17c-0.992-0.567-0.992-0.567-0.992-0.567c0-3.969,0-3.969,0-3.969c1.63,1.028,1.63,1.028,1.63,1.028
		C12.26,24.52,12.543,24.874,12.756,25.299L12.756,25.299L12.756,25.299L12.756,25.299z M11.941,26.079
		c0.106,0,0.142-0.07,0.142-0.283c0-0.142-0.035-0.283-0.142-0.39c-0.035-0.106-0.142-0.142-0.319-0.248
		c-0.425-0.284-0.425-0.284-0.425-0.284c0,0.815,0,0.815,0,0.815c0.39,0.213,0.39,0.213,0.39,0.213
		C11.729,26.008,11.834,26.079,11.941,26.079"/>
	<path style="fill-rule:evenodd;clip-rule:evenodd;fill:#FFFFFF;" d="M14.457,25.795c0.39,0.248,0.673,0.496,0.886,0.814
		c0.283,0.354,0.39,0.78,0.46,1.17c-0.957-0.496-0.957-0.496-0.957-0.496c0-0.142,0-0.248-0.106-0.426
		c-0.106-0.105-0.177-0.142-0.284-0.248c-0.248-0.105-0.354-0.105-0.354,0.036c0,0.106,0.106,0.283,0.283,0.496
		c0.213,0.177,0.425,0.354,0.603,0.566c0.319,0.248,0.496,0.461,0.638,0.638c0.177,0.319,0.248,0.638,0.248,0.957
		c0,0.461-0.142,0.673-0.425,0.709c-0.248,0.035-0.602-0.036-0.992-0.319c-0.319-0.142-0.602-0.39-0.85-0.709
		c-0.354-0.46-0.567-0.921-0.567-1.452c1.027,0.566,1.027,0.566,1.027,0.566c0,0.106,0,0.213,0,0.248
		c0.036,0.284,0.177,0.426,0.496,0.567c0.248,0.177,0.39,0.106,0.39-0.071c0-0.106-0.071-0.212-0.142-0.318
		c-0.106-0.071-0.248-0.248-0.567-0.532c-0.354-0.354-0.603-0.566-0.673-0.779c-0.283-0.283-0.354-0.603-0.354-0.921
		c0-0.39,0.071-0.674,0.39-0.709C13.819,25.512,14.103,25.583,14.457,25.795L14.457,25.795L14.457,25.795"/>
	<polygon style="fill-rule:evenodd;clip-rule:evenodd;fill:#FFFFFF;" points="19.275,28.878 19.205,29.834 17.54,28.878 
		17.54,29.338 19.028,30.224 19.028,31.252 17.54,30.224 17.469,30.685 19.275,31.854 19.275,32.882 16.441,31.181 16.441,27.212 
		19.275,28.878 19.275,28.878 19.275,28.878 19.275,28.878 	"/>
</g>
</svg>
