<?xml version="1.0" encoding="utf-8"?>
<!DOCTYPE svg PUBLIC "-//W3C//DTD SVG 1.1//EN" "http://www.w3.org/Graphics/SVG/1.1/DTD/svg11.dtd">
<svg version="1.1" xmlns="http://www.w3.org/2000/svg" xmlns:xlink="http://www.w3.org/1999/xlink" width="46" height="34" viewBox="0 0 46 34">
<g>
	<polygon fill="#2A3174" points="45.894,13.18 45.894,20.023 22.948,33.33 22.948,26.55 	"/>
	<polygon fill="#37468B" points="22.948,26.55 22.948,33.33 0,20.023 0.126,13.18 	"/>
	<polygon fill="#5065A9" points="45.894,13.308 23.074,26.55 0,13.308 22.948,0 	"/>
	<polygon fill="#2A3174" points="45.894,13.18 45.894,20.023 22.948,33.33 22.948,26.55 	"/>
	<polygon fill="#37468B" points="22.948,26.55 22.948,33.33 0,20.023 0.126,13.18 	"/>
	<polygon fill="#5065A9" points="45.894,13.308 23.074,26.55 0,13.308 22.948,0 	"/>
	<path fill="#2A3174" d="M37.108,17.299c-0.633-2.725-0.633-2.725-0.633-2.725c-1.012,0.571-1.012,0.571-1.012,0.571
		c-2.843-1.711-2.843-1.711-2.843-1.711c1.453-0.823,1.453-0.823,1.453-0.823c0.759-0.38,0.759-0.38,0.759-0.38
		c-0.759-0.444-0.759-0.444-0.759-0.444c-8.408-4.88-8.408-4.88-8.408-4.88c-0.694-0.38-0.694-0.38-0.694-0.38
		c-0.696,0.38-0.696,0.38-0.696,0.38C11.822,14.13,11.822,14.13,11.822,14.13c-0.695,0.443-0.695,0.443-0.695,0.443
		c0.695,0.38,0.695,0.38,0.695,0.38c8.408,4.815,8.408,4.815,8.408,4.815c0.695,0.444,0.695,0.444,0.695,0.444
		c0.758-0.444,0.758-0.444,0.758-0.444c1.455-0.823,1.455-0.823,1.455-0.823c2.844,1.646,2.844,1.646,2.844,1.646
		c-0.947,0.571-0.947,0.571-0.947,0.571c4.741,0.317,4.741,0.317,4.741,0.317c-0.632-2.724-0.632-2.724-0.632-2.724
		c-1.013,0.569-1.013,0.569-1.013,0.569c-2.843-1.647-2.843-1.647-2.843-1.647c5.182-2.978,5.182-2.978,5.182-2.978
		c2.845,1.647,2.845,1.647,2.845,1.647c-1.011,0.569-1.011,0.569-1.011,0.569C37.108,17.299,37.108,17.299,37.108,17.299
		L37.108,17.299z M20.925,18.565c-6.954-3.992-6.954-3.992-6.954-3.992c4.805-2.788,4.805-2.788,4.805-2.788
		c0.316,0.127,0.316,0.127,0.316,0.127c0.126,0.063,0.253,0.063,0.379,0.063c1.138-0.127,1.138-0.127,1.138-0.127
		c-0.253,0.634-0.253,0.634-0.253,0.634c-0.063,0.063,0,0.126,0.063,0.19c0.505,0.253,0.505,0.253,0.505,0.253
		c-0.505,0.444-0.505,0.444-0.505,0.444c-0.063,0.063-0.063,0.126,0.063,0.19c0.127,0.126,0.252,0.126,0.379,0.063
		c2.086-0.888,2.086-0.888,2.086-0.888C19.66,14.7,19.66,14.7,19.66,14.7c-0.063,0.063-0.063,0.19,0,0.253
		c0.126,0.063,0.379,0.063,0.442,0c2.403-1.141,2.403-1.141,2.403-1.141c0.506,0.317,0.506,0.317,0.506,0.317
		c0.063,0.063,0.126,0.063,0.252,0.063c0.76,0,0.76,0,0.76,0c-0.063,0.443-0.063,0.443-0.063,0.443c0,0.063,0,0.127,0.126,0.19
		c0.569,0.317,0.569,0.317,0.569,0.317c0.063,0,0.126,0,0.19,0c0.567,0.127,0.567,0.127,0.567,0.127
		c0.127,0.317,0.127,0.317,0.127,0.317s0.063,0,0.063,0.063c0.19,0.126,0.19,0.126,0.19,0.126
		C20.925,18.565,20.925,18.565,20.925,18.565L20.925,18.565z M26.235,15.461c-0.126,0-0.126,0-0.126,0
		c-0.127-0.443-0.127-0.443-0.127-0.443s0-0.063-0.063-0.063c-0.063-0.063-0.126-0.063-0.19-0.063
		c-0.631-0.063-0.631-0.063-0.631-0.063c-0.443-0.253-0.443-0.253-0.443-0.253c0.063-0.57,0.063-0.57,0.063-0.57
		c0-0.063-0.063-0.126-0.126-0.126c-0.063-0.064-0.127-0.064-0.19-0.064c-1.012,0-1.012,0-1.012,0
		c-0.695-0.38-0.695-0.38-0.695-0.38l0,0c3.477-2.09,3.477-2.09,3.477-2.09c0.126-0.064,0.126-0.191,0-0.253
		c-0.063-0.127-0.253-0.127-0.379,0c-4.235,1.71-4.235,1.71-4.235,1.71l0,0c-0.569-0.38-0.569-0.38-0.569-0.38
		c0.379-0.761,0.379-0.761,0.379-0.761c0-0.127,0-0.127-0.063-0.254c-0.063,0-0.19,0-0.317,0c-1.517,0.19-1.517,0.19-1.517,0.19
		c-0.19-0.127-0.19-0.127-0.19-0.127c5.69-3.295,5.69-3.295,5.69-3.295c6.953,4.056,6.953,4.056,6.953,4.056
		C26.235,15.461,26.235,15.461,26.235,15.461L26.235,15.461z"/>
	<polygon fill="#2A3174" points="16.373,8.554 17.448,8.048 18.017,10.646 13.338,10.328 14.287,9.758 11.379,8.175 13.591,6.906 	
		"/>
	<path fill="#FFFFFF" d="M37.108,16.918c-0.633-2.788-0.633-2.788-0.633-2.788c-1.012,0.57-1.012,0.57-1.012,0.57
		c-2.78-1.585-2.78-1.585-2.78-1.585c1.453-0.887,1.453-0.887,1.453-0.887c0.695-0.381,0.695-0.381,0.695-0.381
		c-0.695-0.443-0.695-0.443-0.695-0.443c-8.408-4.815-8.408-4.815-8.408-4.815c-0.757-0.443-0.757-0.443-0.757-0.443
		c-0.696,0.443-0.696,0.443-0.696,0.443s0,0-9.798,5.64c-2.654,1.52-2.654,1.52-2.654,1.52c-0.695,0.381-0.695,0.381-0.695,0.381
		c0.695,0.443,0.695,0.443,0.695,0.443c8.47,4.815,8.47,4.815,8.47,4.815c0.695,0.443,0.695,0.443,0.695,0.443
		c0.759-0.443,0.759-0.443,0.759-0.443c1.453-0.824,1.453-0.824,1.453-0.824c2.844,1.648,2.844,1.648,2.844,1.648
		c-1.01,0.57-1.01,0.57-1.01,0.57c4.74,0.316,4.74,0.316,4.74,0.316c-0.569-2.724-0.569-2.724-0.569-2.724
		c-1.012,0.57-1.012,0.57-1.012,0.57c-2.843-1.647-2.843-1.647-2.843-1.647c5.119-2.978,5.119-2.978,5.119-2.978
		c2.908,1.646,2.908,1.646,2.908,1.646c-1.011,0.57-1.011,0.57-1.011,0.57C37.108,16.918,37.108,16.918,37.108,16.918L37.108,16.918
		z M20.988,18.187c-7.018-4.056-7.018-4.056-7.018-4.056c4.867-2.788,4.867-2.788,4.867-2.788c0.316,0.19,0.316,0.19,0.316,0.19
		c0.063,0,0.252,0.127,0.316,0.127c1.2-0.254,1.2-0.254,1.2-0.254c-0.315,0.697-0.315,0.697-0.315,0.697
		c-0.063,0.063,0,0.127,0.063,0.189c0.505,0.254,0.505,0.254,0.505,0.254c-0.505,0.444-0.505,0.444-0.505,0.444
		c-0.063,0.063-0.063,0.126,0.063,0.253c0.126,0.063,0.315,0.063,0.378,0c2.086-0.888,2.086-0.888,2.086-0.888
		c-3.225,1.9-3.225,1.9-3.225,1.9c-0.126,0.063-0.126,0.19,0,0.317c0.126,0,0.317,0,0.442,0c2.339-1.141,2.339-1.141,2.339-1.141
		c0.505,0.316,0.505,0.316,0.505,0.316c0.127,0.063,0.19,0.063,0.252,0.063c0.759,0,0.759,0,0.759,0c0,0.381,0,0.381,0,0.381
		c-0.063,0.063,0,0.126,0.063,0.189c0.632,0.317,0.632,0.317,0.632,0.317c0,0.063,0.127,0.063,0.127,0.063
		c0.567,0.063,0.567,0.063,0.567,0.063c0.19,0.317,0.19,0.317,0.19,0.317c0,0.063,0,0.063,0.063,0.127
		c0.189,0.126,0.189,0.126,0.189,0.126C20.988,18.187,20.988,18.187,20.988,18.187L20.988,18.187z M26.297,15.081
		c-0.126-0.063-0.126-0.063-0.126-0.063c-0.126-0.381-0.126-0.381-0.126-0.381c-0.063-0.063-0.063-0.063-0.126-0.063
		c0-0.063-0.063-0.063-0.126-0.126c-0.694-0.063-0.694-0.063-0.694-0.063c-0.379-0.189-0.379-0.189-0.379-0.189
		c0-0.57,0-0.57,0-0.57c0-0.063,0-0.127-0.063-0.19c-0.063,0-0.19,0-0.253,0c-1.012,0-1.012,0-1.012,0
		c-0.631-0.317-0.631-0.317-0.631-0.317l-0.063-0.063c3.54-2.155,3.54-2.155,3.54-2.155c0.126-0.063,0.126-0.189,0-0.253
		c-0.063-0.063-0.316-0.063-0.38,0C21.62,12.42,21.62,12.42,21.62,12.42h-0.063c-0.569-0.317-0.569-0.317-0.569-0.317
		c0.442-0.888,0.442-0.888,0.442-0.888c0-0.063,0-0.126-0.126-0.19c-0.063-0.063-0.19-0.063-0.316-0.063
		c-1.454,0.253-1.454,0.253-1.454,0.253c-0.252-0.127-0.252-0.127-0.252-0.127c5.69-3.295,5.69-3.295,5.69-3.295
		c7.017,4.056,7.017,4.056,7.017,4.056C26.297,15.081,26.297,15.081,26.297,15.081L26.297,15.081z"/>
	<polygon fill="#FFFFFF" points="16.373,8.238 17.448,7.731 18.017,10.328 13.338,10.011 14.287,9.442 11.379,7.858 13.591,6.59 	
		"/>
</g>
</svg>
