<?xml version="1.0" encoding="iso-8859-1"?>
<!DOCTYPE svg PUBLIC "-//W3C//DTD SVG 1.1//EN" "http://www.w3.org/Graphics/SVG/1.1/DTD/svg11.dtd">
<svg version="1.1" xmlns="http://www.w3.org/2000/svg" xmlns:xlink="http://www.w3.org/1999/xlink" width="49" height="75" viewBox="0 0 49 75">
<g>
	<polygon style="fill:#2A3174;" points="18.323,28.974 49.685,9.691 49.583,54.18 18.219,73.452 18.323,28.974 18.323,28.974 
		18.323,28.974 	"/>
	<polygon style="fill:#4F62A5;" points="2.311,19.218 33.735,0 49.685,9.691 18.323,28.974 2.311,19.218 2.311,19.218 2.311,19.218 
			"/>
	<polygon style="fill:#3B4687;" points="18.323,28.974 18.219,73.452 2.208,63.696 2.311,19.218 18.323,28.974 18.323,28.974 
		18.323,28.974 	"/>
	<polygon style="fill:#2A3174;" points="4.126,64.459 5.726,63.468 5.726,64.514 4.126,65.439 4.126,64.459 4.126,64.459 
		4.126,64.459 	"/>
	<polygon style="fill:#2A3174;" points="4.126,62.542 5.726,61.552 5.726,62.598 4.126,63.522 4.126,62.542 4.126,62.542 
		4.126,62.542 	"/>
	<polygon style="fill:#2A3174;" points="4.189,60.626 5.726,59.635 5.726,60.681 4.126,61.606 4.189,60.626 4.189,60.626 
		4.189,60.626 	"/>
	<polygon style="fill:#2A3174;" points="4.189,58.71 5.726,57.719 5.726,58.765 4.189,59.69 4.189,58.71 4.189,58.71 4.189,58.71 	
		"/>
	<polygon style="fill:#2A3174;" points="4.189,56.793 5.726,55.803 5.726,56.849 4.189,57.774 4.189,56.793 4.189,56.793 
		4.189,56.793 	"/>
	<polygon style="fill:#2A3174;" points="4.189,54.877 5.726,53.886 5.726,54.933 4.189,55.857 4.189,54.877 4.189,54.877 
		4.189,54.877 	"/>
	<polygon style="fill:#2A3174;" points="16.012,72.701 17.559,71.711 17.559,74.324 16.012,75.26 16.012,72.701 16.012,72.701 
		16.012,72.701 	"/>
	<polygon style="fill:#4F62A5;" points="4.126,65.439 5.726,64.514 17.559,71.711 16.012,72.701 4.126,65.439 4.126,65.439 
		4.126,65.439 	"/>
	<polygon style="fill:#4F62A5;" points="4.126,63.522 5.726,62.598 17.559,69.794 16.012,70.785 4.126,63.522 4.126,63.522 
		4.126,63.522 	"/>
	<polygon style="fill:#2A3174;" points="16.012,70.785 17.559,69.794 17.559,70.665 16.012,71.655 16.012,70.785 16.012,70.785 
		16.012,70.785 	"/>
	<polygon style="fill:#4F62A5;" points="4.126,61.606 5.726,60.681 17.559,67.878 16.012,68.869 4.126,61.606 4.126,61.606 
		4.126,61.606 	"/>
	<polygon style="fill:#2A3174;" points="16.012,68.869 17.559,67.878 17.559,68.748 16.012,69.739 16.012,68.869 16.012,68.869 
		16.012,68.869 	"/>
	<polygon style="fill:#2A3174;" points="16.012,66.952 17.61,65.962 17.559,66.832 16.012,67.823 16.012,66.952 16.012,66.952 
		16.012,66.952 	"/>
	<polygon style="fill:#4F62A5;" points="4.189,59.69 5.726,58.765 17.61,65.962 16.012,66.952 4.189,59.69 4.189,59.69 4.189,59.69 
			"/>
	<polygon style="fill:#2A3174;" points="16.012,65.036 17.61,64.045 17.61,64.916 16.012,65.906 16.012,65.036 16.012,65.036 
		16.012,65.036 	"/>
	<polygon style="fill:#4F62A5;" points="4.189,57.774 5.726,56.849 17.61,64.045 16.012,65.036 4.189,57.774 4.189,57.774 
		4.189,57.774 	"/>
	<polygon style="fill:#2A3174;" points="16.012,63.12 17.61,62.129 17.61,62.999 16.012,63.99 16.012,63.12 16.012,63.12 
		16.012,63.12 	"/>
	<polygon style="fill:#4F62A5;" points="4.189,55.857 5.726,54.933 17.61,62.129 16.012,63.12 4.189,55.857 4.189,55.857 
		4.189,55.857 	"/>
	<polygon style="fill:#2A3174;" points="2.208,28.277 3.745,27.352 3.745,28.974 2.208,29.965 2.208,28.277 2.208,28.277 
		2.208,28.277 	"/>
	<polygon style="fill:#4F62A5;" points="2.208,29.965 3.745,28.974 15.578,36.171 14.03,37.162 2.208,29.965 2.208,29.965 
		2.208,29.965 	"/>
	<polygon style="fill:#2A3174;" points="16.125,35.769 17.662,34.843 17.61,61.148 16.012,62.074 16.125,35.769 16.125,35.769 
		16.125,35.769 	"/>
	<polygon style="fill:#4F62A5;" points="0.114,26.067 1.712,25.087 17.662,34.843 16.125,35.769 0.114,26.067 0.114,26.067 
		0.114,26.067 	"/>
	<path style="fill:#37468B;" d="M16.012,62.074L4.189,54.877v0.98l11.823,7.263v0.87L4.189,56.793v0.981l11.823,7.262v0.87
		L4.189,58.71v0.98l11.823,7.262v0.871L4.189,60.626l-0.063,0.98l11.885,7.263v0.87L4.126,62.542v0.98l11.885,7.263v0.87
		L4.126,64.459v0.98l11.885,7.262v2.559L0,65.559l0.114-39.492l16.011,9.702L16.012,62.074L16.012,62.074L16.012,62.074
		L16.012,62.074z M2.208,29.965l11.823,7.197V35.54L2.208,28.277V29.965L2.208,29.965z"/>
	<polygon style="fill:#2A3174;" points="16.074,30.247 17.61,29.268 17.61,34.32 16.074,35.246 16.074,30.247 16.074,30.247 
		16.074,30.247 	"/>
	<polygon style="fill:#4F62A5;" points="0.165,20.557 1.764,19.621 17.61,29.268 16.074,30.247 0.165,20.557 0.165,20.557 
		0.165,20.557 	"/>
	<polygon style="fill:#37468B;" points="16.074,30.247 16.074,35.246 0.165,25.609 0.165,20.557 16.074,30.247 16.074,30.247 
		16.074,30.247 	"/>
</g>
</svg>