<?xml version="1.0" encoding="iso-8859-1"?>
<!DOCTYPE svg PUBLIC "-//W3C//DTD SVG 1.1//EN" "http://www.w3.org/Graphics/SVG/1.1/DTD/svg11.dtd">
<svg version="1.1" xmlns="http://www.w3.org/2000/svg" xmlns:xlink="http://www.w3.org/1999/xlink" width="110" height="56" viewBox="0 0 110 56">
<g>
	<polygon style="fill-rule:evenodd;clip-rule:evenodd;fill:#2A3174;" points="60.804,49.6 109.063,27.313 109.063,33.383 
		60.804,55.386 60.804,49.6 60.804,49.6 60.804,49.6 	"/>
	<polygon style="fill-rule:evenodd;clip-rule:evenodd;fill:#4F62A5;" points="0,22.477 48.62,0 109.063,27.646 60.685,50.074 
		0,22.477 0,22.477 0,22.477 	"/>
	<polygon style="fill-rule:evenodd;clip-rule:evenodd;fill:#37468B;" points="60.804,49.6 60.804,55.386 0,27.978 0,22.003 
		60.804,49.6 60.804,49.6 60.804,49.6 	"/>
	<path style="fill-rule:evenodd;clip-rule:evenodd;fill:#2A3174;" d="M52.058,47.087c0-0.094,0-0.094,0-0.094v-0.048
		c0-0.095,0-0.095,0-0.095c-0.06,0-0.06-0.047-0.06-0.047s0-0.096-0.12-0.143l0,0c0-0.048,0-0.048-0.061-0.048c0,0,0,0,0-0.095
		c-0.062,0-0.062,0-0.062,0c0-0.047-0.12-0.047-0.12-0.047C1.146,22.761,1.146,22.761,1.146,22.761
		c-0.182,0.096-0.182,0.096-0.182,0.096c50.49,23.662,50.49,23.662,50.49,23.662c0.121,0.095,0.121,0.095,0.181,0.143
		c0,0,0,0,0.12,0c0,0.047,0,0.047,0,0.143c0.062,0,0.062,0.047,0.062,0.047c0.061,0.095,0.061,0.095,0.061,0.143v0.094
		c0,0.048,0.12,0.096,0.12,0.189c-0.12,3.983-0.12,3.983-0.12,3.983c0,0.238,0,0.285-0.061,0.332
		c0.061-0.047,0.061-0.047,0.061-0.047c0.18-0.047,0.18-0.143,0.18-0.332c0.062-4.03,0.062-4.03,0.062-4.03
		C52.119,47.135,52.119,47.087,52.058,47.087"/>
	<path style="fill-rule:evenodd;clip-rule:evenodd;fill:#FFFFFF;" d="M51.636,46.423c0.242,0.096,0.483,0.475,0.483,0.712
		c-0.062,3.982-0.062,3.982-0.062,3.982c0,0.381-0.18,0.475-0.422,0.381C0.965,27.788,0.965,27.788,0.965,27.788
		c0-5.027,0-5.027,0-5.027C51.636,46.423,51.636,46.423,51.636,46.423L51.636,46.423"/>
	<polygon style="fill-rule:evenodd;clip-rule:evenodd;fill:#475996;" points="31.85,38.078 32.031,37.936 47.292,44.669 
		47.172,44.765 31.85,38.078 31.85,38.078 31.85,38.078 	"/>
	<polygon style="fill-rule:evenodd;clip-rule:evenodd;fill:#CEC3D4;" points="47.292,45.19 47.292,48.557 31.85,42.014 
		31.85,38.693 47.292,45.19 47.292,45.19 47.292,45.19 	"/>
	<path style="fill-rule:evenodd;clip-rule:evenodd;fill:#FFFFFF;" d="M47.172,46.755l0.12,0.096l0,0l-0.12,0.948l0,0l0,0
		l-0.543-0.19v0.096v0.095l0,0l-0.724-0.19l0,0v-0.094v-0.096l-0.543-0.189l0,0l0,0v-0.947l0,0l0,0L47.172,46.755L47.172,46.755
		L47.172,46.755L47.172,46.755z M47.172,47.704v-0.854l-1.629-0.475v0.854l0.362,0.095h0.181v0.095v0.096l0.362,0.094v-0.094l0,0
		h0.181L47.172,47.704L47.172,47.704z"/>
	<polygon style="fill-rule:evenodd;clip-rule:evenodd;fill:#2F3D70;" points="47.292,46.851 47.292,47.799 46.689,47.608 
		46.448,47.608 46.448,47.608 46.448,47.704 46.026,47.608 46.026,47.515 46.026,47.372 45.845,47.372 45.362,47.276 45.362,46.282 
		47.292,46.851 47.292,46.851 47.292,46.851 	"/>
	<polygon style="fill-rule:evenodd;clip-rule:evenodd;fill:#2F3D70;" points="46.448,45.001 46.448,45.144 46.448,45.144 
		46.689,45.144 47.292,45.38 47.292,46.282 45.362,45.854 45.362,44.765 45.845,45.001 46.026,45.001 46.026,44.905 46.026,44.765 
		46.448,45.001 46.448,45.001 46.448,45.001 	"/>
	<path style="fill-rule:evenodd;clip-rule:evenodd;fill:#FFFFFF;" d="M47.172,45.569h0.12v0.143v1.328l0,0h-0.12l-1.81-0.758l0,0
		l0,0v-1.377v-0.141v0.141l0.543,0.143v-0.143l0,0l0,0l0.724,0.285l0,0v0.143v0.143L47.172,45.569L47.172,45.569L47.172,45.569
		L47.172,45.569z M47.172,46.804v-1.092l-0.543-0.236h-0.181l0,0v-0.143l-0.362-0.285v0.143v0.143h-0.181l-0.362-0.285v1.234
		L47.172,46.804L47.172,46.804z"/>
	<path style="fill-rule:evenodd;clip-rule:evenodd;fill:#FFFFFF;" d="M45.362,46.091L45.362,46.091v0.096v0.807v0.047l0,0
		l-0.482-0.143v0.096v0.047v-0.047l-0.724-0.096l-0.182-0.094v-0.096v-0.095l-0.361-0.095l-0.182-0.096l0,0v-0.9l0,0h0.182
		L45.362,46.091L45.362,46.091L45.362,46.091L45.362,46.091z M45.241,46.897v-0.711l-1.628-0.568v0.805l0.543,0.096v0.095l0,0v0.095
		l0.543,0.189v-0.094v-0.096h0.181L45.241,46.897L45.241,46.897z"/>
	<polygon style="fill-rule:evenodd;clip-rule:evenodd;fill:#2F3D70;" points="45.362,46.187 45.362,47.04 44.939,46.851 
		44.76,46.851 44.76,46.945 44.76,47.04 44.096,46.851 44.096,46.755 44.096,46.755 44.096,46.613 43.432,46.519 43.432,45.522 
		45.362,46.187 45.362,46.187 45.362,46.187 	"/>
	<polygon style="fill-rule:evenodd;clip-rule:evenodd;fill:#2F3D70;" points="44.76,44.241 44.76,44.337 44.76,44.337 
		44.939,44.479 45.362,44.669 45.362,45.522 43.432,45.001 43.432,44.005 44.096,44.241 44.096,44.241 44.096,44.241 44.096,44.147 
		44.76,44.241 44.76,44.241 44.76,44.241 	"/>
	<path style="fill-rule:evenodd;clip-rule:evenodd;fill:#FFFFFF;" d="M45.362,44.812L45.362,44.812v0.143v1.232v0.096l0,0
		l-1.749-0.76l-0.182-0.143l0,0v-1.375l0,0h0.182l0.543,0.143v-0.143l0,0l0,0l0.724,0.285l0,0v0.143v0.141L45.362,44.812
		L45.362,44.812L45.362,44.812L45.362,44.812z M45.241,46.044v-1.09l-0.361-0.238l-0.181-0.143l0,0v-0.141l-0.543-0.143v0.143l0,0
		l0,0l-0.543-0.285v1.232L45.241,46.044L45.241,46.044z"/>
	<path style="fill-rule:evenodd;clip-rule:evenodd;fill:#FFFFFF;" d="M43.312,44.812l0.12,0.143l0,0v1.328l0,0h-0.12l-0.361-0.238
		v0.143v0.096h-0.182l-0.543-0.238h-0.181v-0.143v-0.143l-0.543-0.236l0,0V45.38v-1.232v-0.143l0,0L43.312,44.812L43.312,44.812
		L43.312,44.812L43.312,44.812z M43.312,46.187v-1.232l-1.629-0.664v1.09l0.543,0.238l0,0v0.141v0.143l0.543,0.143v-0.143l0,0l0,0
		L43.312,46.187L43.312,46.187z"/>
	<polygon style="fill-rule:evenodd;clip-rule:evenodd;fill:#2F3D70;" points="43.432,45.333 43.432,46.282 42.829,46.091 
		42.829,46.091 42.829,46.091 42.829,46.187 42.165,46.091 42.165,45.997 42.165,45.854 42.165,45.854 41.502,45.665 41.502,44.765 
		43.432,45.333 43.432,45.333 43.432,45.333 	"/>
	<polygon style="fill-rule:evenodd;clip-rule:evenodd;fill:#2F3D70;" points="42.829,43.483 42.829,43.626 42.829,43.626 
		42.829,43.626 43.432,43.862 43.432,44.765 41.502,44.194 41.502,43.246 42.165,43.483 42.165,43.483 42.165,43.389 42.165,43.246 
		42.829,43.483 42.829,43.483 42.829,43.483 	"/>
	<path style="fill-rule:evenodd;clip-rule:evenodd;fill:#FFFFFF;" d="M43.312,43.815h0.12v0.095v0.854l0,0h-0.12l-1.81-0.523l0,0
		v-0.094v-0.901l0,0h0.181l0.362,0.19v-0.096v-0.095h0.181l0.543,0.284h0.182v0.096v0.094L43.312,43.815L43.312,43.815
		L43.312,43.815L43.312,43.815z M43.312,44.622V43.91l-0.543-0.19l0,0l0,0v-0.094l-0.543-0.189v0.094v0.096l0,0l-0.543-0.189v0.711
		L43.312,44.622L43.312,44.622z"/>
	<path style="fill-rule:evenodd;clip-rule:evenodd;fill:#FFFFFF;" d="M41.381,44.101h0.121l0,0v1.422l0,0h-0.121l-0.542-0.143v0.143
		l0,0h-0.182l-0.543-0.285l0,0v-0.143v-0.141l-0.543-0.143v-0.143l0,0v-1.423l0,0l0,0L41.381,44.101L41.381,44.101L41.381,44.101
		L41.381,44.101z M41.381,45.38v-1.279l-1.628-0.712v1.28l0.361,0.143l0.182,0.143l0,0v0.141l0.361,0.285v-0.143v-0.143l0,0
		L41.381,45.38L41.381,45.38z"/>
	<polygon style="fill-rule:evenodd;clip-rule:evenodd;fill:#2F3D70;" points="41.502,44.573 41.502,45.522 40.657,45.333 
		40.657,45.333 40.657,45.427 40.657,45.522 40.235,45.333 40.235,45.237 40.235,45.237 40.054,45.095 39.571,45.001 39.571,44.005 
		41.502,44.573 41.502,44.573 41.502,44.573 	"/>
	<polygon style="fill-rule:evenodd;clip-rule:evenodd;fill:#2F3D70;" points="40.657,42.725 40.657,42.819 40.657,42.819 
		40.657,42.962 41.502,43.057 41.502,44.005 39.571,43.483 39.571,42.487 40.054,42.725 40.235,42.725 40.235,42.725 40.235,42.63 
		40.657,42.725 40.657,42.725 40.657,42.725 	"/>
	<path style="fill-rule:evenodd;clip-rule:evenodd;fill:#FFFFFF;" d="M41.381,42.962l0.121,0.095l0,0v0.948l0,0h-0.121l-1.81-0.475
		v-0.094l0,0v-0.949l0,0l0,0l0.543,0.19v-0.19l0,0l0,0l0.543,0.19h0.182v0.095v0.095L41.381,42.962L41.381,42.962L41.381,42.962
		L41.381,42.962z M41.381,43.91v-0.854l-0.724-0.095v-0.095l0,0v-0.095l-0.361-0.095v0.095l0,0h-0.182l-0.361-0.19v0.854
		L41.381,43.91L41.381,43.91z"/>
	<path style="fill-rule:evenodd;clip-rule:evenodd;fill:#FFFFFF;" d="M39.571,43.294v0.143l0,0v1.328l0,0l0,0l-0.482-0.238v0.143
		v0.096h-0.181l-0.543-0.238l0,0v-0.143v-0.143l-0.544-0.236h-0.18v-0.143V42.63v-0.143h0.18L39.571,43.294L39.571,43.294
		L39.571,43.294L39.571,43.294z M39.451,44.669v-1.232l-1.63-0.664v1.09l0.544,0.238h0.181v0.141l-0.181,0.143l0.543,0.143v-0.143
		v-0.143l0,0L39.451,44.669L39.451,44.669z"/>
	<polygon style="fill-rule:evenodd;clip-rule:evenodd;fill:#2F3D70;" points="39.571,43.815 39.571,44.765 38.968,44.479 
		38.968,44.479 38.968,44.573 38.968,44.669 38.305,44.573 38.546,44.479 38.546,44.337 38.305,44.337 37.642,44.147 37.642,43.246 
		39.571,43.815 39.571,43.815 39.571,43.815 	"/>
	<polygon style="fill-rule:evenodd;clip-rule:evenodd;fill:#2F3D70;" points="38.968,41.871 38.968,41.966 38.968,42.108 
		38.968,42.108 39.571,42.346 39.571,43.246 37.642,42.678 37.642,41.729 38.305,41.871 38.546,41.871 38.546,41.871 38.546,41.729 
		38.968,41.871 38.968,41.871 38.968,41.871 	"/>
	<path style="fill-rule:evenodd;clip-rule:evenodd;fill:#FFFFFF;" d="M39.571,41.776L39.571,41.776v0.142v1.328l0,0l0,0l-1.75-0.759
		h-0.18v-0.142v-1.375l0,0h0.18l0.544,0.283v-0.141v-0.143l0,0l0.543,0.283h0.181v0.143v0.143L39.571,41.776L39.571,41.776
		L39.571,41.776L39.571,41.776z M39.451,43.009v-1.091l-0.543-0.236l0,0v-0.143v-0.143l-0.362-0.143v0.143l0,0h-0.181l-0.544-0.143
		v1.092L39.451,43.009L39.451,43.009z"/>
	<path style="fill-rule:evenodd;clip-rule:evenodd;fill:#FFFFFF;" d="M37.642,42.678L37.642,42.678L37.642,42.678v1.327l0,0h-0.121
		l-0.543-0.095v0.095l0,0l0,0l-0.543-0.236h-0.181v-0.143v-0.143l-0.362-0.143l-0.181-0.095v-0.142v-1.233v-0.143l0.181,0.143
		L37.642,42.678L37.642,42.678L37.642,42.678L37.642,42.678z M37.34,43.91l0.181-1.232l-1.629-0.664v1.091l0.543,0.236v0.143l0,0
		v0.143l0.362,0.284v-0.142v-0.143h0.181L37.34,43.91L37.34,43.91z"/>
	<polygon style="fill-rule:evenodd;clip-rule:evenodd;fill:#2F3D70;" points="37.642,42.582 37.581,44.005 37.34,43.72 
		37.219,43.72 37.219,43.862 37.219,44.005 37.038,43.72 37.038,43.53 37.038,43.53 37.038,43.389 36.677,43.057 36.677,41.729 
		37.642,42.582 37.642,42.582 37.642,42.582 	"/>
	<polygon style="fill-rule:evenodd;clip-rule:evenodd;fill:#2F3D70;" points="37.219,41.207 37.219,41.303 37.219,41.303 
		37.34,41.445 37.642,41.539 37.642,42.487 36.677,41.871 36.677,40.971 37.038,41.207 37.038,41.207 37.038,41.207 37.038,41.113 
		37.219,41.207 37.219,41.207 37.219,41.207 	"/>
	<path style="fill-rule:evenodd;clip-rule:evenodd;fill:#FFFFFF;" d="M37.642,41.018v0.143l0,0v1.327l0,0l0,0l-1.75-0.759h-0.181
		v-0.143v-1.232v-0.143h0.181l0.362,0.428v-0.285v-0.143l0.181,0.143l0.543,0.285l0,0v0.143v0.143L37.642,41.018L37.642,41.018
		L37.642,41.018L37.642,41.018z M37.521,42.393V41.16l-0.543-0.143l-0.181-0.094l0,0v-0.143l-0.362-0.143v0.143l0,0l0,0
		l-0.543-0.285v1.09L37.521,42.393L37.521,42.393z"/>
	<path style="fill-rule:evenodd;clip-rule:evenodd;fill:#FFFFFF;" d="M35.711,41.776L35.711,41.776v0.142v1.233v0.095v-0.095
		l-0.482-0.143v0.143v0.095l-0.182-0.095l-0.543-0.284l0,0l0,0v-0.143l-0.543-0.237H33.78v-0.142v-1.232v-0.143h0.181L35.711,41.776
		L35.711,41.776L35.711,41.776L35.711,41.776z M35.59,43.009v-1.091l-1.629-0.664v1.092l0.543,0.236h0.182v0.143v0.143l0.361,0.142
		v-0.142v-0.143l0.182,0.143L35.59,43.009L35.59,43.009z"/>
	<polygon style="fill-rule:evenodd;clip-rule:evenodd;fill:#2F3D70;" points="35.711,41.871 35.711,43.246 35.53,43.104 
		35.409,42.914 35.409,43.104 35.409,43.246 35.229,43.104 35.229,42.914 35.229,42.725 35.107,42.725 34.746,42.393 34.746,40.971 
		35.711,41.871 35.711,41.871 35.711,41.871 	"/>
	<polygon style="fill-rule:evenodd;clip-rule:evenodd;fill:#2F3D70;" points="35.409,40.354 35.409,40.449 35.409,40.592 
		35.53,40.592 35.711,40.828 35.711,41.729 34.746,41.16 34.746,40.211 35.107,40.354 35.229,40.354 35.229,40.354 35.229,40.211 
		35.409,40.354 35.409,40.354 35.409,40.354 	"/>
	<path style="fill-rule:evenodd;clip-rule:evenodd;fill:#FFFFFF;" d="M35.711,40.26L35.711,40.26V40.4v1.234v0.094v-0.094
		l-1.75-0.664H33.78v-0.143v-1.375l0,0h0.181l0.543,0.283v-0.141v-0.143l0,0l0.725,0.283l0,0v0.143v0.143L35.711,40.26L35.711,40.26
		L35.711,40.26L35.711,40.26z M35.59,41.492V40.4l-0.361-0.236h-0.182v-0.143v-0.143l-0.361-0.143v0.143l0,0h-0.182l-0.543-0.143
		v1.092L35.59,41.492L35.59,41.492z"/>
	<path style="fill-rule:evenodd;clip-rule:evenodd;fill:#FFFFFF;" d="M33.721,41.16h0.06l0,0v1.327l0,0h-0.06l-0.182-0.095v0.095
		l0,0h-0.06l-0.302-0.237l0,0v-0.142v-0.143l-0.363-0.237l0,0v-0.143v-1.232v-0.143v0.143L33.721,41.16L33.721,41.16L33.721,41.16
		L33.721,41.16z M33.721,42.393V41.16l-0.785-0.664v1.09l0.242,0.238h0.12v0.142v0.143l0.182,0.284V42.25v-0.284v0.143
		L33.721,42.393L33.721,42.393z"/>
	<polygon style="fill-rule:evenodd;clip-rule:evenodd;fill:#2F3D70;" points="33.78,41.064 33.78,42.487 33.479,42.203 
		33.479,42.014 33.479,42.346 33.479,42.487 33.298,42.203 33.298,42.014 33.298,41.871 33.178,41.871 32.815,41.539 32.815,40.211 
		33.78,41.064 33.78,41.064 33.78,41.064 	"/>
	<polygon style="fill-rule:evenodd;clip-rule:evenodd;fill:#2F3D70;" points="33.479,38.884 33.479,39.025 33.479,39.215 
		33.479,39.357 33.78,39.547 33.78,40.971 32.815,40.021 32.815,38.693 33.178,38.884 33.298,39.025 33.298,38.884 33.298,38.693 
		33.479,38.884 33.479,38.884 33.479,38.884 	"/>
	<path style="fill-rule:evenodd;clip-rule:evenodd;fill:#FFFFFF;" d="M33.721,39.5l0.06,0.143l0,0v1.328l0,0h-0.06l-0.906-0.76l0,0
		v-0.143v-1.232v-0.143l0,0l0.363,0.285v-0.143v-0.143v0.143l0.302,0.143l0.06,0.143l0,0v0.143L33.721,39.5L33.721,39.5L33.721,39.5
		L33.721,39.5z M33.721,40.875v-1.232L33.479,39.5v-0.096v-0.141v-0.143l-0.182-0.143v0.143v0.143l-0.12-0.143l-0.242-0.143v1.09
		L33.721,40.875L33.721,40.875z"/>
	<polygon style="fill-rule:evenodd;clip-rule:evenodd;fill:#475996;" points="16.408,31.25 16.589,31.107 31.85,37.936 
		31.729,37.936 16.408,31.25 16.408,31.25 16.408,31.25 	"/>
	<polygon style="fill-rule:evenodd;clip-rule:evenodd;fill:#CEC3D4;" points="31.85,38.078 31.85,41.729 16.408,34.806 
		16.408,31.107 31.85,38.078 31.85,38.078 31.85,38.078 	"/>
	<path style="fill-rule:evenodd;clip-rule:evenodd;fill:#FFFFFF;" d="M30.885,39.5L30.885,39.5v0.143v1.328l0,0l0,0l-0.241-0.238
		v0.143v0.096h-0.12l-0.302-0.238l0,0v-0.283v-0.143l-0.302-0.096l0,0v-0.143v-1.375l0,0l0,0L30.885,39.5L30.885,39.5L30.885,39.5
		L30.885,39.5z M30.825,40.732v-1.09l-0.905-0.664v1.09l0.302,0.238h0.12l0,0v0.143l0.182,0.283v-0.141v-0.143l0,0L30.825,40.732
		L30.825,40.732z"/>
	<polygon style="fill-rule:evenodd;clip-rule:evenodd;fill:#2F3D70;" points="30.885,40.068 30.885,40.971 30.583,40.781 
		30.583,40.781 30.583,40.875 30.583,40.971 30.403,40.781 30.403,40.639 30.403,40.639 30.282,40.639 29.92,40.4 29.92,39.453 
		30.885,40.068 30.885,40.068 30.885,40.068 	"/>
	<polygon style="fill-rule:evenodd;clip-rule:evenodd;fill:#2F3D70;" points="30.523,38.172 30.523,38.268 30.523,38.41 
		30.523,38.41 30.885,38.6 30.885,39.453 29.92,38.932 29.92,37.936 30.161,38.172 30.282,38.172 30.282,38.172 30.282,38.078 
		30.523,38.172 30.523,38.172 30.523,38.172 	"/>
	<path style="fill-rule:evenodd;clip-rule:evenodd;fill:#FFFFFF;" d="M30.885,37.982L30.885,37.982v0.143v1.232v0.096l0,0
		l-0.965-0.76v-0.142l0,0v-1.375l0,0l0,0l0.302,0.284v-0.142v-0.143l0,0l0.302,0.284h0.12v0.143v0.143L30.885,37.982L30.885,37.982
		L30.885,37.982L30.885,37.982z M30.825,39.215v-1.09l-0.302-0.237l0,0v-0.142v-0.143l-0.182-0.143v0.143l0,0h-0.12l-0.181-0.284
		v1.232L30.825,39.215L30.825,39.215z"/>
	<path style="fill-rule:evenodd;clip-rule:evenodd;fill:#FFFFFF;" d="M29.799,38.742l0.121,0.142l0,0v1.327l0,0h-0.121l-0.543-0.094
		v0.094l0,0l0,0l-0.543-0.236h-0.181v-0.143v-0.143l-0.542-0.143v-0.094v-0.143v-1.232v-0.143l0,0L29.799,38.742L29.799,38.742
		L29.799,38.742L29.799,38.742z M29.799,40.117v-1.233l-1.628-0.664v1.091l0.542,0.236v0.143l0,0v0.143l0.362,0.143v-0.143l0,0
		h0.181L29.799,40.117L29.799,40.117z"/>
	<polygon style="fill-rule:evenodd;clip-rule:evenodd;fill:#2F3D70;" points="28.955,38.789 28.955,40.211 28.653,39.928 
		28.532,39.928 28.532,39.928 28.532,40.068 28.351,39.928 28.351,39.736 28.351,39.736 28.351,39.596 27.99,39.264 27.99,37.936 
		28.955,38.789 28.955,38.789 28.955,38.789 	"/>
	<polygon style="fill-rule:evenodd;clip-rule:evenodd;fill:#2F3D70;" points="28.653,37.414 28.653,37.509 28.653,37.509 
		28.653,37.651 28.955,37.746 28.955,38.693 27.99,38.078 27.99,37.177 28.351,37.414 28.351,37.414 28.351,37.319 28.351,37.177 
		28.653,37.414 28.653,37.414 28.653,37.414 	"/>
	<path style="fill-rule:evenodd;clip-rule:evenodd;fill:#FFFFFF;" d="M29.799,37.224l0.121,0.143l0,0v1.327l0,0h-0.121l-1.81-0.758
		l0,0v-0.143V36.56v-0.141l0,0l0.542,0.283V36.56v-0.141l0.181,0.141l0.543,0.285l0,0v0.143v0.143L29.799,37.224L29.799,37.224
		L29.799,37.224L29.799,37.224z M29.799,38.6v-1.233l-0.543-0.143V37.13l0,0v-0.143l-0.543-0.285v0.143v0.143l0,0l-0.542-0.285
		v1.091L29.799,38.6L29.799,38.6z"/>
	<path style="fill-rule:evenodd;clip-rule:evenodd;fill:#FFFFFF;" d="M27.99,37.982L27.99,37.982L27.99,37.982v1.375v0.096v-0.096
		l-0.482-0.143v0.143l0,0l0,0l-0.543-0.284h-0.181v-0.142v-0.143l-0.542-0.096H26.06v-0.142v-1.375l0,0h0.181L27.99,37.982
		L27.99,37.982L27.99,37.982L27.99,37.982z M27.869,39.215v-1.232l-1.628-0.521v1.091l0.723,0.237l0,0l0,0v0.143l0.362,0.283v-0.142
		v-0.142h0.181L27.869,39.215L27.869,39.215z"/>
	<polygon style="fill-rule:evenodd;clip-rule:evenodd;fill:#2F3D70;" points="27.024,37.888 27.024,39.453 26.843,39.121 
		26.723,39.121 26.723,39.311 26.723,39.453 26.542,39.121 26.542,38.932 26.542,38.932 26.542,38.932 26.06,38.6 26.06,37.177 
		27.024,37.888 27.024,37.888 27.024,37.888 	"/>
	<polygon style="fill-rule:evenodd;clip-rule:evenodd;fill:#2F3D70;" points="26.723,35.991 26.723,36.181 26.723,36.323 
		26.843,36.323 27.024,36.513 27.024,37.936 26.06,37.13 26.06,35.659 26.542,35.991 26.542,35.991 26.542,35.991 26.542,35.849 
		26.723,35.991 26.723,35.991 26.723,35.991 	"/>
	<path style="fill-rule:evenodd;clip-rule:evenodd;fill:#FFFFFF;" d="M27.99,36.513L27.99,36.513L27.99,36.513v1.423l0,0l0,0
		l-1.749-0.712l-0.181-0.142l0,0v-1.423l0,0h0.181l0.542,0.285v-0.143v-0.143h0.181l0.543,0.285l0,0v0.143v0.141L27.99,36.513
		L27.99,36.513L27.99,36.513L27.99,36.513z M27.869,37.793v-1.28l-0.362-0.143h-0.181v-0.143v-0.141l-0.362-0.143v0.143l0,0l0,0
		l-0.723-0.285v1.28L27.869,37.793L27.869,37.793z"/>
	<path style="fill-rule:evenodd;clip-rule:evenodd;fill:#FFFFFF;" d="M26.06,37.224v0.143l0,0v1.327l0,0l0,0L25.576,38.6v0.094l0,0
		h-0.18l-0.543-0.236h-0.181v-0.143v-0.143l-0.362-0.236h-0.18v-0.143V36.56v-0.141h0.18L26.06,37.224L26.06,37.224L26.06,37.224
		L26.06,37.224z M25.939,38.6v-1.233l-1.629-0.664v1.091l0.543,0.237h0.181v0.142v0.143l0.362,0.143v-0.143v-0.143v0.143
		L25.939,38.6L25.939,38.6z"/>
	<polygon style="fill-rule:evenodd;clip-rule:evenodd;fill:#2F3D70;" points="26.06,37.271 26.06,38.693 25.456,38.41 25.456,38.22 
		25.456,38.41 25.456,38.552 25.034,38.41 25.034,38.22 25.034,38.078 24.792,38.078 24.129,37.746 24.129,36.419 26.06,37.271 
		26.06,37.271 26.06,37.271 	"/>
	<polygon style="fill-rule:evenodd;clip-rule:evenodd;fill:#2F3D70;" points="25.456,35.091 25.456,35.231 25.456,35.423 
		25.456,35.563 26.06,35.755 26.06,37.177 24.129,36.228 24.129,34.901 24.792,35.091 25.034,35.231 25.034,35.091 25.034,34.901 
		25.456,35.091 25.456,35.091 25.456,35.091 	"/>
	<path style="fill-rule:evenodd;clip-rule:evenodd;fill:#FFFFFF;" d="M26.06,35.706v0.143l0,0v1.328l0,0l0,0l-1.75-0.758h-0.18
		v-0.143v-1.234v-0.141h0.18l0.362,0.283v-0.143v-0.141l0.181,0.141l0.543,0.143l0.18,0.143l0,0v0.143L26.06,35.706L26.06,35.706
		L26.06,35.706L26.06,35.706z M25.939,37.082v-1.233l-0.543-0.143v-0.094V35.47v-0.143l-0.362-0.143v0.143v0.143l-0.181-0.143
		l-0.543-0.143v1.092L25.939,37.082L25.939,37.082z"/>
	<path style="fill-rule:evenodd;clip-rule:evenodd;fill:#FFFFFF;" d="M24.009,36.56h0.121l0,0v1.281v0.095l-0.121-0.095
		l-0.363-0.143v0.143l0,0h-0.18l-0.724-0.285l0,0l0,0v-0.236l-0.542-0.143l0,0v-0.095v-1.28v-0.143v0.143L24.009,36.56L24.009,36.56
		L24.009,36.56L24.009,36.56z M24.009,37.698V36.56l-1.629-0.521v1.044l0.362,0.237h0.181l0,0v0.236l0.543,0.143v-0.143v-0.095l0,0
		L24.009,37.698L24.009,37.698z"/>
	<polygon style="fill-rule:evenodd;clip-rule:evenodd;fill:#2F3D70;" points="24.129,36.134 24.129,37.177 23.526,36.987 
		23.526,36.987 23.526,37.082 23.526,37.177 22.862,37.082 22.862,36.845 22.862,36.845 22.681,36.845 22.199,36.608 22.199,35.659 
		24.129,36.134 24.129,36.134 24.129,36.134 	"/>
	<polygon style="fill-rule:evenodd;clip-rule:evenodd;fill:#2F3D70;" points="23.526,34.474 23.526,34.663 23.526,34.806 
		23.526,34.806 24.129,34.995 24.129,36.419 22.199,35.47 22.199,34.142 22.681,34.474 22.862,34.474 22.862,34.474 22.862,34.331 
		23.526,34.474 23.526,34.474 23.526,34.474 	"/>
	<path style="fill-rule:evenodd;clip-rule:evenodd;fill:#FFFFFF;" d="M24.009,35.091h0.121l0,0v1.328l0,0h-0.121l-1.81-0.76l0,0
		v-0.143v-1.232v-0.143v0.143l0.542,0.285v-0.285l0,0l0,0l0.724,0.285h0.18v0.141v0.143L24.009,35.091L24.009,35.091L24.009,35.091
		L24.009,35.091z M24.009,36.323v-1.232l-0.543-0.143l0,0v-0.096V34.71l-0.543-0.141v0.141l0,0h-0.181l-0.362-0.283v1.09
		L24.009,36.323L24.009,36.323z"/>
	<path style="fill-rule:evenodd;clip-rule:evenodd;fill:#FFFFFF;" d="M22.199,35.706L22.199,35.706v0.143v1.233v0.095l0,0
		l-0.483-0.237v0.143v0.095v-0.095l-0.724-0.143v-0.142l0,0v-0.143l-0.543-0.236h-0.181v-0.143l0.181-1.234v-0.141l0,0
		L22.199,35.706L22.199,35.706L22.199,35.706L22.199,35.706z M22.078,36.939v-1.091l-1.628-0.664v1.092l0.543,0.236h0.181v0.143
		v0.143l0.361,0.142v-0.142v-0.143l0.181,0.143L22.078,36.939L22.078,36.939z"/>
	<polygon style="fill-rule:evenodd;clip-rule:evenodd;fill:#2F3D70;" points="22.199,35.517 22.199,36.419 21.777,36.323 
		21.596,36.228 21.596,36.323 21.596,36.419 21.173,36.323 21.173,36.228 21.173,36.087 20.932,36.087 20.268,35.849 20.268,34.901 
		22.199,35.517 22.199,35.517 22.199,35.517 	"/>
	<polygon style="fill-rule:evenodd;clip-rule:evenodd;fill:#2F3D70;" points="21.596,33.525 21.596,33.62 21.596,33.763 
		21.777,33.763 22.199,33.999 22.199,34.901 20.268,34.331 20.268,33.383 20.932,33.525 21.173,33.62 21.173,33.525 21.173,33.383 
		21.596,33.525 21.596,33.525 21.596,33.525 	"/>
	<path style="fill-rule:evenodd;clip-rule:evenodd;fill:#FFFFFF;" d="M22.199,34.188L22.199,34.188v0.143v1.232v0.096v-0.096
		l-1.931-0.662l0,0v-0.143v-1.233v-0.143l0,0l0.604,0.284v-0.142v-0.143v0.143l0.784,0.142v0.143l0,0v0.143L22.199,34.188
		L22.199,34.188L22.199,34.188L22.199,34.188z M22.018,35.423v-1.092l-0.362-0.236h-0.18v-0.143V33.81l-0.422-0.143v0.143v0.143
		l-0.181-0.143l-0.604-0.143v1.092L22.018,35.423L22.018,35.423z"/>
	<path style="fill-rule:evenodd;clip-rule:evenodd;fill:#FFFFFF;" d="M20.268,35.042L20.268,35.042v0.143v1.139v0.096v-0.096
		l-0.482-0.143v0.143l0,0h-0.181l-0.543-0.285H18.88l0,0v-0.236l-0.361-0.238h-0.181l0,0v-1.279v-0.143l0.181,0.143L20.268,35.042
		L20.268,35.042L20.268,35.042L20.268,35.042z M20.147,36.181v-0.996l-1.628-0.758v1.137l0.542,0.096l0,0v0.143v0.236l0.363,0.143
		v-0.143v-0.094h0.18L20.147,36.181L20.147,36.181z"/>
	<polygon style="fill-rule:evenodd;clip-rule:evenodd;fill:#2F3D70;" points="20.268,34.806 20.268,35.659 19.665,35.47 
		19.424,35.47 19.424,35.563 19.424,35.659 19.002,35.563 19.002,35.374 19.002,35.231 19.002,35.231 18.338,35.138 18.338,34.142 
		20.268,34.806 20.268,34.806 20.268,34.806 	"/>
	<polygon style="fill-rule:evenodd;clip-rule:evenodd;fill:#2F3D70;" points="19.424,32.767 19.424,32.956 19.424,33.099 
		19.665,33.099 20.268,33.193 20.268,34.142 18.338,33.525 18.338,32.624 19.002,32.861 19.002,32.861 19.002,32.767 19.002,32.624 
		19.424,32.767 19.424,32.767 19.424,32.767 	"/>
	<path style="fill-rule:evenodd;clip-rule:evenodd;fill:#FFFFFF;" d="M20.268,33.525L20.268,33.525L20.268,33.525v1.28v0.096v-0.096
		l-1.749-0.759h-0.181v-0.142v-1.139v-0.143l0.181,0.143l0.361,0.143v-0.143l0,0h0.181l0.543,0.237h0.181l0,0v0.284L20.268,33.525
		L20.268,33.525L20.268,33.525L20.268,33.525z M20.147,34.663v-1.138l-0.543-0.143h-0.18v-0.095v-0.284l-0.363-0.095v0.095v0.142
		l0,0l-0.542-0.236v0.996L20.147,34.663L20.147,34.663z"/>
	<path style="fill-rule:evenodd;clip-rule:evenodd;fill:#FFFFFF;" d="M18.217,33.952h0.121v0.095v0.806v0.049h-0.121l-0.543-0.143
		v0.094v0.049v-0.049l-0.543-0.094l-0.181-0.096l0,0v-0.094l-0.542-0.191l0,0v-0.094v-0.807v-0.095l0,0L18.217,33.952L18.217,33.952
		L18.217,33.952L18.217,33.952z M18.217,34.759v-0.712l-1.628-0.474v0.711l0.542,0.189l0,0v0.096v0.094l0.362,0.096v-0.096v-0.094
		l0.181,0.094L18.217,34.759L18.217,34.759z"/>
	<polygon style="fill-rule:evenodd;clip-rule:evenodd;fill:#2F3D70;" points="18.338,33.999 18.338,34.901 18.036,34.806 
		17.916,34.71 17.916,34.806 17.916,34.901 17.735,34.806 17.735,34.71 17.735,34.569 17.735,34.569 17.373,34.331 17.373,33.383 
		18.338,33.999 18.338,33.999 18.338,33.999 	"/>
	<polygon style="fill-rule:evenodd;clip-rule:evenodd;fill:#2F3D70;" points="17.916,32.008 17.916,32.103 17.916,32.245 
		18.036,32.245 18.338,32.482 18.338,33.383 17.373,32.814 17.373,31.865 17.735,32.008 17.735,32.103 17.735,32.008 17.735,31.865 
		17.916,32.008 17.916,32.008 17.916,32.008 	"/>
	<path style="fill-rule:evenodd;clip-rule:evenodd;fill:#FFFFFF;" d="M18.217,32.672h0.121v0.143v1.232v0.095l-0.121-0.095
		l-1.81-0.664v-0.142l0,0v-1.376l0,0l0,0l0.542,0.285v-0.285l0,0h0.181l0.543,0.285v0.143l0,0v0.142L18.217,32.672L18.217,32.672
		L18.217,32.672L18.217,32.672z M18.217,33.905v-1.091l-0.543-0.237h-0.181v-0.143v-0.142l-0.362-0.143v0.143v0.142v-0.142
		l-0.542-0.143v1.091L18.217,33.905L18.217,33.905z"/>
	<polygon style="fill-rule:evenodd;clip-rule:evenodd;fill:#475996;" points="0.965,24.278 1.146,24.278 15.442,31.107 
		15.322,31.107 0.965,24.278 0.965,24.278 0.965,24.278 	"/>
	<polygon style="fill-rule:evenodd;clip-rule:evenodd;fill:#CEC3D4;" points="15.442,30.775 15.442,34.142 0.965,27.788 
		0.965,24.278 15.442,30.775 15.442,30.775 15.442,30.775 	"/>
	<path style="fill-rule:evenodd;clip-rule:evenodd;fill:#FFFFFF;" d="M15.322,32.767h0.121l0,0l-0.121,1.28v0.095v-0.095
		l-0.542-0.142v0.142l0,0l0,0l-0.724-0.284l0,0v-0.096v-0.142l-0.543-0.143l0,0v-0.095v-1.28v-0.143v0.143L15.322,32.767
		L15.322,32.767L15.322,32.767L15.322,32.767z M15.322,33.905v-1.139l-1.628-0.521v1.043l0.362,0.237h0.181l0,0v0.142l0.361,0.238
		v-0.143v-0.096h0.182L15.322,33.905L15.322,33.905z"/>
	<polygon style="fill-rule:evenodd;clip-rule:evenodd;fill:#2F3D70;" points="15.442,32.34 15.442,33.383 15.141,33.193 
		15.02,33.193 15.02,33.288 15.02,33.383 14.839,33.193 14.839,33.051 14.839,33.051 14.718,33.051 14.478,32.814 14.478,31.865 
		15.442,32.34 15.442,32.34 15.442,32.34 	"/>
	<polygon style="fill-rule:evenodd;clip-rule:evenodd;fill:#2F3D70;" points="15.02,30.68 15.02,30.869 15.02,30.869 15.141,31.012 
		15.442,31.201 15.442,32.624 14.478,31.676 14.478,30.348 14.718,30.68 14.839,30.68 14.839,30.68 14.839,30.537 15.02,30.68 
		15.02,30.68 15.02,30.68 	"/>
	<path style="fill-rule:evenodd;clip-rule:evenodd;fill:#FFFFFF;" d="M15.322,31.154l0.121,0.143l0,0v1.327l0,0h-0.121l-1.81-0.759
		l0,0v-0.142V30.49v-0.143v0.143l0.543,0.285V30.49v-0.143v0.143l0.724,0.285l0,0v0.143v0.143L15.322,31.154L15.322,31.154
		L15.322,31.154L15.322,31.154z M15.322,32.529v-1.232l-0.542-0.143l-0.182-0.094l0,0v-0.143l-0.361-0.143v0.143l0,0h-0.181
		l-0.362-0.285v1.091L15.322,32.529L15.322,32.529z"/>
	<path style="fill-rule:evenodd;clip-rule:evenodd;fill:#FFFFFF;" d="M13.512,31.913L13.512,31.913v0.143v1.232v0.095l0,0
		l-0.483-0.237v0.143v0.095l-0.181-0.095l-0.542-0.143l-0.181-0.142l0,0v-0.143l-0.362-0.237h-0.181v-0.142V31.25v-0.143h0.181
		L13.512,31.913L13.512,31.913L13.512,31.913L13.512,31.913z M13.392,33.146v-1.09l-1.628-0.664v1.091l0.543,0.237l0,0v0.142v0.143
		l0.542,0.142v-0.142v-0.143v0.143L13.392,33.146L13.392,33.146z"/>
	<polygon style="fill-rule:evenodd;clip-rule:evenodd;fill:#2F3D70;" points="13.512,31.724 13.512,32.624 13.21,32.529 
		13.21,32.435 13.21,32.529 13.21,32.624 12.909,32.529 12.909,32.435 12.909,32.293 12.909,32.293 12.547,32.056 12.547,31.107 
		13.512,31.724 13.512,31.724 13.512,31.724 	"/>
	<polygon style="fill-rule:evenodd;clip-rule:evenodd;fill:#2F3D70;" points="13.21,29.732 13.21,29.826 13.21,29.969 13.21,29.969 
		13.512,30.205 13.512,31.107 12.547,30.537 12.547,29.59 12.909,29.732 12.909,29.826 12.909,29.732 12.909,29.59 13.21,29.732 
		13.21,29.732 13.21,29.732 	"/>
	<path style="fill-rule:evenodd;clip-rule:evenodd;fill:#FFFFFF;" d="M13.512,30.396L13.512,30.396v0.141v1.234v0.094v-0.094
		l-1.749-0.664h-0.181v-0.143v-1.232V29.59h0.181l0.543,0.283v-0.141V29.59v0.143l0.542,0.141l0.181,0.143l0,0v0.143L13.512,30.396
		L13.512,30.396L13.512,30.396L13.512,30.396z M13.392,31.629v-1.092l-0.543-0.236l0,0v-0.143v-0.143l-0.542-0.143v0.143v0.143
		v-0.143l-0.543-0.143v1.092L13.392,31.629L13.392,31.629z"/>
	<path style="fill-rule:evenodd;clip-rule:evenodd;fill:#FFFFFF;" d="M11.521,31.25h0.061l0,0v1.279v0.095l-0.061-0.095
		l-0.241-0.142v0.142l0,0l0,0l-0.302-0.284h-0.06V32.15v-0.143l-0.301-0.236l0,0l0,0V30.49v-0.143v0.143L11.521,31.25L11.521,31.25
		L11.521,31.25L11.521,31.25z M11.521,32.388V31.25l-0.784-0.617v1.139l0.241,0.094l0,0v0.143v0.143l0.181,0.237v-0.143V32.15h0.121
		L11.521,32.388L11.521,32.388z"/>
	<polygon style="fill-rule:evenodd;clip-rule:evenodd;fill:#2F3D70;" points="11.582,30.918 11.582,31.865 11.28,31.676 
		11.16,31.676 11.16,31.771 11.16,31.865 10.979,31.676 10.979,31.582 10.979,31.439 10.979,31.439 10.617,31.344 10.617,30.348 
		11.582,30.918 11.582,30.918 11.582,30.918 	"/>
	<polygon style="fill-rule:evenodd;clip-rule:evenodd;fill:#2F3D70;" points="11.16,28.973 11.16,29.067 11.16,29.305 11.28,29.305 
		11.582,29.399 11.582,30.348 10.617,29.732 10.617,28.83 10.979,28.973 10.979,29.067 10.979,28.973 10.979,28.83 11.16,28.973 
		11.16,28.973 11.16,28.973 	"/>
	<path style="fill-rule:evenodd;clip-rule:evenodd;fill:#FFFFFF;" d="M11.521,29.779h0.061l0,0v1.328l0,0h-0.061l-0.904-0.76l0,0
		v-0.143v-1.232V28.83l0.12,0.143l0.181,0.143v-0.143V28.83l0.06,0.143l0.302,0.285l0,0l0,0v0.142L11.521,29.779L11.521,29.779
		L11.521,29.779L11.521,29.779z M11.521,31.012v-1.232l-0.241-0.143H11.16v-0.237v-0.142l-0.181-0.143v0.143v0.142v-0.142
		l-0.241-0.143v1.09L11.521,31.012L11.521,31.012z"/>
	<path style="fill-rule:evenodd;clip-rule:evenodd;fill:#FFFFFF;" d="M10.497,30.158h0.121v0.096v0.807v0.047h-0.121l-0.544-0.143
		v0.096v0.047l-0.18-0.047l-0.543-0.096v-0.096l0,0v-0.094l-0.543-0.189l0,0V30.49v-0.807V29.59l0,0L10.497,30.158L10.497,30.158
		L10.497,30.158L10.497,30.158z M10.315,30.965v-0.711l-1.448-0.475v0.711l0.362,0.189H9.41v0.096v0.094l0.362,0.096v-0.096v-0.094
		v0.094L10.315,30.965L10.315,30.965z"/>
	<polygon style="fill-rule:evenodd;clip-rule:evenodd;fill:#2F3D70;" points="9.652,30.205 9.652,31.107 9.29,31.012 9.29,30.918 
		9.29,31.012 9.29,31.107 9.048,31.012 9.048,30.918 9.048,30.775 8.928,30.775 8.687,30.537 8.687,29.59 9.652,30.205 
		9.652,30.205 9.652,30.205 	"/>
	<polygon style="fill-rule:evenodd;clip-rule:evenodd;fill:#2F3D70;" points="9.29,28.214 9.29,28.309 9.29,28.451 9.29,28.451 
		9.652,28.688 9.652,29.59 8.687,29.021 8.687,28.072 8.928,28.214 9.048,28.309 9.048,28.214 9.048,28.072 9.29,28.214 
		9.29,28.214 9.29,28.214 	"/>
	<path style="fill-rule:evenodd;clip-rule:evenodd;fill:#FFFFFF;" d="M10.497,28.878h0.121v0.143v1.233v0.094l-0.121-0.094
		l-1.81-0.807l0,0l0,0v-1.375l0,0l0,0l0.543,0.284v-0.284l0,0l0,0l0.543,0.284l0.18,0.143l0,0v0.142L10.497,28.878L10.497,28.878
		L10.497,28.878L10.497,28.878z M10.315,30.111v-1.091l-0.543-0.237l0,0v-0.143v-0.142L9.41,28.356v0.143v0.142l-0.181-0.142
		l-0.362-0.143v1.091L10.315,30.111L10.315,30.111z"/>
	<path style="fill-rule:evenodd;clip-rule:evenodd;fill:#FFFFFF;" d="M8.566,28.83h0.12v0.143v1.281v0.094l-0.12-0.094l-0.363-0.285
		v0.143v0.143H8.022l-0.543-0.285l0,0v-0.096v-0.141l-0.724-0.238l0,0l0,0v-1.28v-0.142v0.142L8.566,28.83L8.566,28.83L8.566,28.83
		L8.566,28.83z M8.566,29.969v-0.996l-1.629-0.616v1.138l0.542,0.096h0.182v0.143v0.141l0.361,0.096v-0.096l0,0l0,0L8.566,29.969
		L8.566,29.969z"/>
	<polygon style="fill-rule:evenodd;clip-rule:evenodd;fill:#2F3D70;" points="7.722,29.447 7.722,30.348 7.42,30.254 7.42,30.254 
		7.42,30.254 7.42,30.348 7.239,30.254 7.239,30.158 7.239,30.016 7.118,30.016 6.756,29.922 6.756,28.83 7.722,29.447 
		7.722,29.447 7.722,29.447 	"/>
	<polygon style="fill-rule:evenodd;clip-rule:evenodd;fill:#2F3D70;" points="7.42,27.456 7.42,27.551 7.42,27.692 7.42,27.692 
		7.722,27.93 7.722,28.83 6.756,28.262 6.756,27.313 7.118,27.551 7.239,27.551 7.239,27.456 7.239,27.313 7.42,27.456 7.42,27.456 
		7.42,27.456 	"/>
	<path style="fill-rule:evenodd;clip-rule:evenodd;fill:#FFFFFF;" d="M8.566,27.883h0.12v0.095v0.806v0.047h-0.12l-1.811-0.521l0,0
		v-0.095v-0.806v-0.095v0.095l0.724,0.095v-0.095v-0.095v0.095l0.543,0.189h0.181l0,0v0.095L8.566,27.883L8.566,27.883L8.566,27.883
		L8.566,27.883z M8.566,28.688v-0.711l-0.544-0.189l0,0v-0.096v-0.095l-0.361-0.095v0.095v0.095H7.479l-0.542-0.189v0.711
		L8.566,28.688L8.566,28.688z"/>
	<path style="fill-rule:evenodd;clip-rule:evenodd;fill:#FFFFFF;" d="M6.756,28.119L6.756,28.119v0.143v1.232v0.096l0,0
		l-0.543-0.238v0.143v0.096v-0.096L5.61,29.352l-0.181-0.141l0,0v-0.285L4.826,28.83v-0.142l0,0v-1.375l0,0l0,0L6.756,28.119
		L6.756,28.119L6.756,28.119L6.756,28.119z M6.756,29.352v-1.09l-1.688-0.806v1.232L5.61,28.83v0.096l0,0v0.285l0.422,0.141v-0.141
		v-0.144l0.18,0.144L6.756,29.352L6.756,29.352z"/>
	<polygon style="fill-rule:evenodd;clip-rule:evenodd;fill:#2F3D70;" points="6.756,28.735 6.756,29.59 6.153,29.494 5.912,29.399 
		5.912,29.494 5.912,29.59 5.49,29.494 5.49,29.305 5.49,29.305 5.49,29.162 4.826,29.067 4.826,28.072 6.756,28.735 6.756,28.735 
		6.756,28.735 	"/>
	<polygon style="fill-rule:evenodd;clip-rule:evenodd;fill:#2F3D70;" points="5.912,26.792 5.912,26.887 5.912,27.029 6.153,27.029 
		6.756,27.219 6.756,28.072 4.826,27.551 4.826,26.555 5.49,26.792 5.49,26.792 5.49,26.697 5.49,26.555 5.912,26.792 5.912,26.792 
		5.912,26.792 	"/>
	<path style="fill-rule:evenodd;clip-rule:evenodd;fill:#FFFFFF;" d="M6.635,27.124h0.121v0.095l-0.121,0.806v0.048v-0.048
		l-1.81-0.568l0,0l0,0v-0.901l0,0l0,0l0.542,0.095v-0.095l0,0h0.181l0.543,0.19l0,0v0.095v0.095L6.635,27.124L6.635,27.124
		L6.635,27.124L6.635,27.124z M6.635,27.93v-0.711l-0.543-0.189h-0.18v-0.095V26.84l-0.363-0.19v0.096v0.095l0,0l-0.542-0.19v0.807
		L6.635,27.93L6.635,27.93z"/>
	<path style="fill-rule:evenodd;clip-rule:evenodd;fill:#FFFFFF;" d="M4.826,27.361L4.826,27.361v0.142v1.327l0,0l0,0l-0.482-0.236
		v0.142v0.095H4.162l-0.543-0.236H3.438v-0.143v-0.143l-0.361-0.236H2.896l0,0v-1.375v-0.143l0.181,0.143L4.826,27.361L4.826,27.361
		L4.826,27.361L4.826,27.361z M4.705,28.594v-1.091L3.077,26.84v1.232l0.542,0.095h0.182v0.142v0.143l0.361,0.143v-0.143l0,0h0.181
		L4.705,28.594L4.705,28.594z"/>
	<polygon style="fill-rule:evenodd;clip-rule:evenodd;fill:#2F3D70;" points="4.826,27.93 4.826,28.83 4.403,28.735 4.223,28.735 
		4.223,28.735 4.223,28.83 3.801,28.735 3.801,28.641 3.801,28.499 3.559,28.499 2.896,28.403 2.896,27.313 4.826,27.93 
		4.826,27.93 4.826,27.93 	"/>
	<polygon style="fill-rule:evenodd;clip-rule:evenodd;fill:#2F3D70;" points="4.223,25.938 4.223,26.033 4.223,26.176 4.403,26.176 
		4.826,26.413 4.826,27.313 2.896,26.745 2.896,25.796 3.559,26.033 3.801,26.033 3.801,25.938 3.801,25.796 4.223,25.938 
		4.223,25.938 4.223,25.938 	"/>
	<path style="fill-rule:evenodd;clip-rule:evenodd;fill:#FFFFFF;" d="M4.826,25.844L4.826,25.844v0.142v1.233v0.095l0,0
		l-1.749-0.759l-0.181-0.142l0,0v-1.376l0,0h0.181l0.361,0.284V25.18v-0.143h0.181l0.724,0.427l0,0l0,0v0.143L4.826,25.844
		L4.826,25.844L4.826,25.844L4.826,25.844z M4.705,27.076v-1.091l-0.362-0.236H4.162v-0.143v-0.143l-0.361-0.143v0.143v0.143H3.619
		l-0.542-0.285v1.092L4.705,27.076L4.705,27.076z"/>
	<path style="fill-rule:evenodd;clip-rule:evenodd;fill:#FFFFFF;" d="M2.775,26.508l0.121,0.095v0.143v1.232v0.095H2.775
		l-0.362-0.237v0.143v0.095l-0.181-0.095l-0.543-0.285H1.508v-0.142v-0.143l-0.543-0.095v-0.143l0,0v-1.375l0,0l0,0L2.775,26.508
		L2.775,26.508L2.775,26.508L2.775,26.508z M2.775,27.835v-1.09l-1.628-0.807v1.232l0.542,0.143v0.095l0,0v0.143l0.543,0.142v-0.142
		l0,0l0,0L2.775,27.835L2.775,27.835z"/>
	<polygon style="fill-rule:evenodd;clip-rule:evenodd;fill:#2F3D70;" points="2.896,26.792 2.896,28.072 2.292,27.788 2.292,27.788 
		2.292,27.788 2.292,27.93 1.628,27.788 1.628,27.598 1.628,27.598 1.628,27.456 0.965,27.267 0.965,25.796 2.896,26.792 
		2.896,26.792 2.896,26.792 	"/>
	<polygon style="fill-rule:evenodd;clip-rule:evenodd;fill:#2F3D70;" points="2.292,25.274 2.292,25.369 2.292,25.369 2.292,25.512 
		2.896,25.606 2.896,26.555 0.965,26.033 0.965,25.037 1.628,25.274 1.628,25.274 1.628,25.274 1.628,25.037 2.292,25.274 
		2.292,25.274 2.292,25.274 	"/>
	<path style="fill-rule:evenodd;clip-rule:evenodd;fill:#FFFFFF;" d="M2.775,24.99l0.121,0.142l0,0v1.423l0,0H2.775l-1.81-0.711
		v-0.143l0,0v-1.423l0,0l0,0l0.543,0.143v-0.143l0,0h0.181l0.543,0.284h0.181v0.143v0.143L2.775,24.99L2.775,24.99L2.775,24.99
		L2.775,24.99z M2.775,26.413v-1.281L2.232,24.99v-0.143l0,0v-0.143l-0.543-0.284v0.284l0,0l0,0l-0.542-0.284v1.28L2.775,26.413
		L2.775,26.413z"/>
</g>
</svg>