<?xml version="1.0" encoding="iso-8859-1"?>
<!DOCTYPE svg PUBLIC "-//W3C//DTD SVG 1.1//EN" "http://www.w3.org/Graphics/SVG/1.1/DTD/svg11.dtd">
<svg version="1.1" xmlns="http://www.w3.org/2000/svg" xmlns:xlink="http://www.w3.org/1999/xlink" width="112" height="58" viewBox="0 0 112 58">
<g>
	<polygon style="fill-rule:evenodd;clip-rule:evenodd;fill:#2A3174;" points="62.477,52.187 112.063,28.792 112.063,35.042 
		62.477,58.385 62.477,52.187 62.477,52.187 62.477,52.187 	"/>
	<polygon style="fill-rule:evenodd;clip-rule:evenodd;fill:#4F62A5;" points="0,23.594 49.957,0 112.063,29.243 62.169,52.788 
		0,23.594 0,23.594 0,23.594 	"/>
	<polygon style="fill-rule:evenodd;clip-rule:evenodd;fill:#37468B;" points="62.477,52.187 62.477,58.385 0,29.592 0,23.195 
		62.477,52.187 62.477,52.187 62.477,52.187 	"/>
	<path style="fill-rule:evenodd;clip-rule:evenodd;fill:#2A3174;" d="M53.553,49.038v-0.1c0-0.101,0-0.101,0-0.101l0,0
		c0-0.049-0.063-0.149-0.063-0.149c0-0.1-0.124-0.149-0.124-0.149s0-0.101-0.062-0.101c0,0,0,0-0.125-0.05l0,0l0,0
		C1.239,23.995,1.239,23.995,1.239,23.995c-0.248,0.1-0.248,0.1-0.248,0.1c52.003,24.344,52.003,24.344,52.003,24.344h0.061
		c0,0.101,0.124,0.101,0.124,0.101v0.05c0.125,0,0.125,0.1,0.125,0.1l0,0c0.062,0.101,0.062,0.149,0.062,0.25c0,0,0,0,0,0.1
		c0,0,0.124,0.051,0.124,0.15c-0.124,4.1-0.124,4.1-0.124,4.1c0,0.148,0,0.299-0.062,0.299c0.062-0.05,0.062-0.05,0.062-0.05
		c0.124,0,0.187-0.149,0.187-0.35c0-4.099,0-4.099,0-4.099V49.038"/>
	<path style="fill-rule:evenodd;clip-rule:evenodd;fill:#FFFFFF;" d="M53.056,48.938c0.311,0.1,0.497,0.449,0.497,0.75
		c-0.063,4.249-0.063,4.249-0.063,4.249c0,0.3-0.186,0.45-0.435,0.3C0.992,29.292,0.992,29.292,0.992,29.292
		c0-5.298,0-5.298,0-5.298C53.056,48.938,53.056,48.938,53.056,48.938L53.056,48.938"/>
	<polygon style="fill-rule:evenodd;clip-rule:evenodd;fill:#4F62A5;" points="38.677,43.99 39.048,43.99 43.635,46.388 
		43.511,46.388 38.677,43.99 38.677,43.99 38.677,43.99 	"/>
	<polygon style="fill-rule:evenodd;clip-rule:evenodd;fill:#CEC3D4;" points="43.635,46.489 43.635,48.789 38.677,46.188 
		38.677,43.99 43.635,46.489 43.635,46.489 43.635,46.489 	"/>
	<polygon style="fill-rule:evenodd;clip-rule:evenodd;fill:#2A3174;" points="49.585,49.738 50.577,49.588 50.577,51.837 
		49.585,51.987 49.585,49.738 49.585,49.738 49.585,49.738 	"/>
	<polygon style="fill-rule:evenodd;clip-rule:evenodd;fill:#4F62A5;" points="45.618,47.338 45.805,47.189 50.577,49.488 
		50.453,49.588 45.618,47.338 45.618,47.338 45.618,47.338 	"/>
	<polygon style="fill-rule:evenodd;clip-rule:evenodd;fill:#CEC3D4;" points="49.585,49.738 49.585,51.987 45.618,49.438 
		45.618,47.189 49.585,49.738 49.585,49.738 49.585,49.738 	"/>
	<polygon style="fill-rule:evenodd;clip-rule:evenodd;fill:#4F62A5;" points="1.983,26.393 2.169,26.393 16.859,32.792 
		16.859,32.792 1.983,26.393 1.983,26.393 1.983,26.393 	"/>
	<polygon style="fill-rule:evenodd;clip-rule:evenodd;fill:#CEC3D4;" points="16.859,33.492 16.735,36.791 1.983,29.743 
		1.983,26.393 16.859,33.492 16.859,33.492 16.859,33.492 	"/>
	<polygon style="fill-rule:evenodd;clip-rule:evenodd;fill:#37477D;" points="16.859,34.942 16.859,35.991 16.301,35.791 
		16.301,35.991 15.496,35.791 15.496,35.692 14.875,35.391 14.875,34.391 16.859,34.942 16.859,34.942 16.859,34.942 	"/>
	<polygon style="fill-rule:evenodd;clip-rule:evenodd;fill:#37477D;" points="16.301,33.092 16.301,33.292 16.859,33.492 
		16.859,34.391 14.875,33.792 14.875,32.792 15.496,33.092 15.496,32.892 16.301,33.092 16.301,33.092 16.301,33.092 	"/>
	<polygon style="fill-rule:evenodd;clip-rule:evenodd;fill:#37477D;" points="14.875,33.691 14.875,35.192 14.194,34.891 
		14.194,35.192 13.636,34.891 13.636,34.592 12.892,34.292 12.892,32.792 14.875,33.691 14.875,33.691 14.875,33.691 	"/>
	<polygon style="fill-rule:evenodd;clip-rule:evenodd;fill:#37477D;" points="14.194,32.192 14.194,32.392 14.875,32.591 
		14.875,33.592 12.892,32.892 12.892,31.993 13.636,32.192 13.636,31.993 14.194,32.192 14.194,32.192 14.194,32.192 	"/>
	<polygon style="fill-rule:evenodd;clip-rule:evenodd;fill:#37477D;" points="12.892,32.992 12.892,34.391 12.582,34.092 
		12.582,34.391 12.272,34.092 12.272,33.792 11.9,33.442 11.9,31.993 12.892,32.992 12.892,32.992 12.892,32.992 	"/>
	<polygon style="fill-rule:evenodd;clip-rule:evenodd;fill:#37477D;" points="12.582,31.342 12.582,31.542 12.892,31.742 
		12.892,32.792 11.9,32.192 11.9,31.192 12.272,31.342 12.272,31.192 12.582,31.342 12.582,31.342 12.582,31.342 	"/>
	<polygon style="fill-rule:evenodd;clip-rule:evenodd;fill:#37477D;" points="10.909,31.993 10.909,33.592 10.661,33.141 
		10.661,33.442 10.351,33.141 10.351,32.792 9.917,32.641 9.917,31.192 10.909,31.993 10.909,31.993 10.909,31.993 	"/>
	<polygon style="fill-rule:evenodd;clip-rule:evenodd;fill:#37477D;" points="10.661,29.943 10.661,30.243 10.909,30.592 
		10.909,31.993 9.917,31.192 9.917,29.592 10.351,29.943 10.351,29.792 10.661,29.943 10.661,29.943 10.661,29.943 	"/>
	<polygon style="fill-rule:evenodd;clip-rule:evenodd;fill:#37477D;" points="9.917,31.192 9.917,32.792 9.235,32.493 9.235,32.792 
		8.677,32.493 8.677,32.192 7.934,31.993 8.119,30.392 9.917,31.192 9.917,31.192 9.917,31.192 	"/>
	<polygon style="fill-rule:evenodd;clip-rule:evenodd;fill:#37477D;" points="9.173,29.143 9.173,29.443 9.917,29.592 9.917,31.192 
		7.934,30.243 7.934,28.792 8.553,29.143 8.553,28.792 9.173,29.143 9.173,29.143 9.173,29.143 	"/>
	<polygon style="fill-rule:evenodd;clip-rule:evenodd;fill:#37477D;" points="7.934,30.592 7.934,31.993 7.375,31.842 7.375,31.993 
		6.756,31.842 6.756,31.542 5.95,31.192 5.95,29.592 7.934,30.592 7.934,30.592 7.934,30.592 	"/>
	<polygon style="fill-rule:evenodd;clip-rule:evenodd;fill:#37477D;" points="7.375,28.343 7.375,28.643 7.934,28.994 7.934,30.392 
		5.95,29.443 5.95,27.993 6.756,28.343 6.756,27.993 7.375,28.343 7.375,28.343 7.375,28.343 	"/>
	<polygon style="fill-rule:evenodd;clip-rule:evenodd;fill:#37477D;" points="5.95,29.842 5.95,31.192 5.392,30.892 5.392,31.192 
		4.773,30.892 4.773,30.592 3.967,30.292 3.967,28.792 5.95,29.842 5.95,29.842 5.95,29.842 	"/>
	<polygon style="fill-rule:evenodd;clip-rule:evenodd;fill:#37477D;" points="5.392,27.643 5.392,27.793 5.95,28.243 5.95,29.592 
		3.967,28.693 3.967,27.193 4.773,27.494 4.773,27.193 5.392,27.643 5.392,27.643 5.392,27.643 	"/>
	<polygon style="fill-rule:evenodd;clip-rule:evenodd;fill:#37477D;" points="3.967,28.893 3.967,30.392 3.223,30.092 3.223,30.243 
		2.604,29.943 2.604,29.792 1.983,29.343 1.983,27.993 3.967,28.893 3.967,28.893 3.967,28.893 	"/>
	<polygon style="fill-rule:evenodd;clip-rule:evenodd;fill:#37477D;" points="3.409,26.744 3.409,27.043 3.967,27.393 3.967,28.792 
		1.983,27.993 1.983,26.393 2.604,26.744 2.604,26.393 3.409,26.744 3.409,26.744 3.409,26.744 	"/>
	<polygon style="fill-rule:evenodd;clip-rule:evenodd;fill:#4F62A5;" points="31.734,41.69 31.734,41.589 33.718,42.39 
		33.594,42.39 31.734,41.69 31.734,41.69 31.734,41.69 	"/>
	<polygon style="fill-rule:evenodd;clip-rule:evenodd;fill:#CEC3D4;" points="33.718,42.489 33.718,43.99 31.734,43.139 
		31.734,41.589 33.718,42.489 33.718,42.489 33.718,42.489 	"/>
	<polygon style="fill-rule:evenodd;clip-rule:evenodd;fill:#37477D;" points="33.16,41.89 33.16,42.19 33.718,42.489 33.718,43.99 
		31.734,43.09 31.734,41.589 32.354,41.89 32.354,41.589 33.16,41.89 33.16,41.89 33.16,41.89 	"/>
	<polygon style="fill-rule:evenodd;clip-rule:evenodd;fill:#4F62A5;" points="28.759,40.19 28.946,39.99 30.743,41.589 
		30.619,41.589 28.759,40.19 28.759,40.19 28.759,40.19 	"/>
	<polygon style="fill-rule:evenodd;clip-rule:evenodd;fill:#CEC3D4;" points="30.743,41.19 30.743,43.189 28.759,42.041 
		28.759,39.99 30.743,41.19 30.743,41.19 30.743,41.19 	"/>
	<polygon style="fill-rule:evenodd;clip-rule:evenodd;fill:#37477D;" points="30.185,41.14 30.185,41.24 30.743,41.439 
		30.743,42.39 28.759,41.89 28.759,40.791 29.379,41.04 29.379,40.941 30.185,41.14 30.185,41.14 30.185,41.14 	"/>
	<polygon style="fill-rule:evenodd;clip-rule:evenodd;fill:#4F62A5;" points="18.842,33.742 18.842,33.592 25.785,37.491 
		25.785,37.591 18.842,33.742 18.842,33.742 18.842,33.742 	"/>
	<polygon style="fill-rule:evenodd;clip-rule:evenodd;fill:#CEC3D4;" points="25.785,37.441 25.785,40.791 18.842,36.991 
		18.842,33.592 25.785,37.441 25.785,37.441 25.785,37.441 	"/>
	<polygon style="fill-rule:evenodd;clip-rule:evenodd;fill:#37477D;" points="25.785,38.94 25.785,39.99 25.475,39.69 
		25.475,39.891 25.165,39.69 25.165,39.59 24.793,39.391 24.793,38.39 25.785,38.94 25.785,38.94 25.785,38.94 	"/>
	<polygon style="fill-rule:evenodd;clip-rule:evenodd;fill:#37477D;" points="25.475,37.141 25.475,37.242 25.785,37.441 
		25.785,38.39 24.793,37.89 24.793,36.791 25.165,37.041 25.165,36.941 25.475,37.141 25.475,37.141 25.475,37.141 	"/>
	<polygon style="fill-rule:evenodd;clip-rule:evenodd;fill:#37477D;" points="23.801,38.141 23.801,39.191 23.553,38.99 
		23.553,39.191 23.119,38.99 23.119,38.791 22.81,38.59 22.81,37.591 23.801,38.141 23.801,38.141 23.801,38.141 	"/>
	<polygon style="fill-rule:evenodd;clip-rule:evenodd;fill:#37477D;" points="23.553,36.291 23.553,36.491 23.801,36.591 
		23.801,37.591 22.81,36.991 22.81,35.991 23.119,36.291 23.119,36.091 23.553,36.291 23.553,36.291 23.553,36.291 	"/>
	<polygon style="fill-rule:evenodd;clip-rule:evenodd;fill:#37477D;" points="21.818,37.441 21.818,38.39 21.508,38.29 
		21.508,38.39 21.198,38.191 21.198,38.09 20.825,37.792 20.825,36.791 21.818,37.441 21.818,37.441 21.818,37.441 	"/>
	<polygon style="fill-rule:evenodd;clip-rule:evenodd;fill:#37477D;" points="21.508,35.391 21.508,35.591 21.818,35.791 
		21.818,36.791 20.825,36.091 20.825,35.192 21.198,35.391 21.198,35.192 21.508,35.391 21.508,35.391 21.508,35.391 	"/>
	<polygon style="fill-rule:evenodd;clip-rule:evenodd;fill:#37477D;" points="19.834,36.542 19.834,37.591 19.586,37.39 
		19.586,37.591 19.152,37.39 19.152,37.191 18.842,36.991 18.842,35.991 19.834,36.542 19.834,36.542 19.834,36.542 	"/>
	<polygon style="fill-rule:evenodd;clip-rule:evenodd;fill:#37477D;" points="19.586,34.542 19.586,34.741 19.834,34.942 
		19.834,35.991 18.842,35.391 18.842,34.391 19.276,34.542 19.276,34.391 19.586,34.542 19.586,34.542 19.586,34.542 	"/>
	<path style="fill-rule:evenodd;clip-rule:evenodd;fill:#3F5089;" d="M27.271,40.09c0.373,0.1,0.496,0.299,0.496,0.449
		c0,0.2-0.124,0.251-0.496,0.2c-0.124-0.1-0.495-0.351-0.495-0.449C26.776,40.09,27.148,39.99,27.271,40.09L27.271,40.09
		L27.271,40.09z M27.271,40.54c0.187,0,0.373,0,0.373-0.099c0-0.052-0.186-0.15-0.373-0.15c-0.124-0.101-0.124,0-0.124,0
		C27.148,40.389,27.148,40.54,27.271,40.54"/>
	<path style="fill-rule:evenodd;clip-rule:evenodd;fill:#3F5089;" d="M27.271,39.291c0.373,0.101,0.496,0.35,0.496,0.55
		c0,0.149-0.124,0.149-0.496,0.101c-0.124-0.101-0.495-0.301-0.495-0.451C26.776,39.291,27.148,39.191,27.271,39.291L27.271,39.291
		L27.271,39.291z M27.271,39.741c0.187,0.1,0.373,0.1,0.373,0c0-0.101-0.186-0.251-0.373-0.251c0,0-0.124,0-0.124,0.101
		C27.148,39.64,27.271,39.741,27.271,39.741"/>
	<path style="fill-rule:evenodd;clip-rule:evenodd;fill:#3F5089;" d="M36.197,43.29c0.371,0.1,0.496,0.301,0.496,0.449
		c0,0.201-0.125,0.251-0.496,0.201c-0.31-0.101-0.495-0.35-0.495-0.551C35.702,43.189,35.888,43.189,36.197,43.29L36.197,43.29
		L36.197,43.29z M36.197,43.739c0.187,0,0.187,0,0.187-0.1c0-0.049,0-0.149-0.187-0.149c-0.124-0.101-0.31-0.101-0.31,0
		S36.073,43.639,36.197,43.739"/>
	<path style="fill-rule:evenodd;clip-rule:evenodd;fill:#3F5089;" d="M36.197,42.489c0.371,0.101,0.496,0.301,0.496,0.451
		c0,0.199-0.125,0.249-0.496,0.199c-0.31-0.101-0.495-0.3-0.495-0.45C35.702,42.489,35.888,42.39,36.197,42.489L36.197,42.489
		L36.197,42.489z M36.197,42.94c0.187,0.099,0.187,0,0.187-0.101c0,0,0-0.15-0.187-0.15c-0.124-0.1-0.31,0-0.31,0.101
		C35.888,42.839,36.073,42.94,36.197,42.94"/>
</g>
</svg>