<?xml version="1.0" encoding="iso-8859-1"?>
<!DOCTYPE svg PUBLIC "-//W3C//DTD SVG 1.1//EN" "http://www.w3.org/Graphics/SVG/1.1/DTD/svg11.dtd">
<svg version="1.1" xmlns="http://www.w3.org/2000/svg" xmlns:xlink="http://www.w3.org/1999/xlink" width="55" height="40" viewBox="0 0 55 40">
<g>
	<polygon style="fill-rule:evenodd;clip-rule:evenodd;fill:#2A3174;" points="54.424,15.874 54.354,23.917 27.213,39.685 
		27.213,31.571 54.424,15.874 54.424,15.874 54.424,15.874 54.424,15.874 54.424,15.874 	"/>
	<polygon style="fill-rule:evenodd;clip-rule:evenodd;fill:#37468B;" points="27.213,31.571 27.213,39.685 0,23.917 0.106,15.874 
		27.213,31.571 27.213,31.571 27.213,31.571 27.213,31.571 27.213,31.571 	"/>
	<polygon style="fill-rule:evenodd;clip-rule:evenodd;fill:#4F62A5;" points="54.424,15.59 27.284,31.181 0,15.59 27.071,0 
		54.424,15.59 54.424,15.59 54.424,15.59 54.424,15.59 54.424,15.59 	"/>
	<path style="fill-rule:evenodd;clip-rule:evenodd;fill:#2A3174;" d="M31.428,22.216c2.021,1.134,2.021,1.134,2.021,1.134
		c-6.627,3.862-6.627,3.862-6.627,3.862c-6.732-3.862-6.732-3.862-6.732-3.862c1.984-1.134,1.984-1.134,1.984-1.134
		c3.083,1.771,3.083,1.771,3.083,1.771c-0.036-3.862-0.036-3.862-0.036-3.862c-1.24-0.248-2.445-0.603-3.473-1.169
		c-0.992-0.567-1.665-1.275-1.949-2.055c-6.661,0-6.661,0-6.661,0c3.047,1.807,3.047,1.807,3.047,1.807
		c-1.984,1.134-1.984,1.134-1.984,1.134C7.37,15.98,7.37,15.98,7.37,15.98c6.697-3.862,6.697-3.862,6.697-3.862
		c2.02,1.134,2.02,1.134,2.02,1.134c-3.047,1.807-3.047,1.807-3.047,1.807c6.52,0,6.52,0,6.52,0c0.248-0.851,0.921-1.666,2.09-2.338
		c1.169-0.638,2.622-1.063,4.146-1.205c0-3.72,0-3.72,0-3.72c-3.047,1.771-3.047,1.771-3.047,1.771
		c-1.984-1.134-1.984-1.134-1.984-1.134c6.626-3.897,6.626-3.897,6.626-3.897c6.732,3.897,6.732,3.897,6.732,3.897
		c-2.02,1.134-2.02,1.134-2.02,1.134C29.09,7.795,29.09,7.795,29.09,7.795c0,1.063,0,2.586,0,3.827
		c1.205,0.177,2.338,0.567,3.295,1.099c0.992,0.602,1.596,1.275,1.949,1.984c6.52,0,6.52,0,6.52,0
		c-3.047-1.807-3.047-1.807-3.047-1.807c1.984-1.134,1.984-1.134,1.984-1.134c6.697,3.862,6.697,3.862,6.697,3.862
		c-6.662,3.862-6.662,3.862-6.662,3.862c-1.949-1.169-1.949-1.169-1.949-1.169c3.012-1.771,3.012-1.771,3.012-1.771
		c-1.771,0-4.217,0-6.377,0c-0.213,0.886-0.922,1.736-2.092,2.409c-1.168,0.673-2.551,1.063-4.003,1.205c0,3.826,0,3.826,0,3.826
		C31.428,22.216,31.428,22.216,31.428,22.216L31.428,22.216L31.428,22.216L31.428,22.216z M24.236,17.433
		c1.559,0.886,4.039,0.886,5.598,0c1.523-0.886,1.523-2.303-0.035-3.189c-1.559-0.886-4.04-0.886-5.563,0
		C22.677,15.13,22.713,16.547,24.236,17.433"/>
	<path style="fill-rule:evenodd;clip-rule:evenodd;fill:#FFFFFF;" d="M31.428,21.65c2.021,1.134,2.021,1.134,2.021,1.134
		c-6.627,3.862-6.627,3.862-6.627,3.862c-6.732-3.862-6.732-3.862-6.732-3.862c1.984-1.134,1.984-1.134,1.984-1.134
		c3.083,1.771,3.083,1.771,3.083,1.771c-0.036-3.862-0.036-3.862-0.036-3.862c-1.24-0.177-2.445-0.603-3.473-1.169
		c-0.992-0.567-1.665-1.275-1.949-1.984c-6.661,0-6.661,0-6.661,0c3.047,1.736,3.047,1.736,3.047,1.736
		c-1.984,1.134-1.984,1.134-1.984,1.134C7.37,15.414,7.37,15.414,7.37,15.414c6.697-3.827,6.697-3.827,6.697-3.827
		c2.02,1.099,2.02,1.099,2.02,1.099c-3.047,1.807-3.047,1.807-3.047,1.807c6.52,0,6.52,0,6.52,0c0.248-0.851,0.921-1.666,2.09-2.338
		c1.169-0.638,2.622-1.063,4.146-1.205c0-3.685,0-3.685,0-3.685C22.748,9,22.748,9,22.748,9c-1.984-1.134-1.984-1.134-1.984-1.134
		c6.626-3.897,6.626-3.897,6.626-3.897c6.732,3.897,6.732,3.897,6.732,3.897C32.102,9,32.102,9,32.102,9
		C29.09,7.264,29.09,7.264,29.09,7.264c0,1.028,0,2.551,0,3.792c1.205,0.212,2.338,0.567,3.295,1.099
		c0.992,0.602,1.596,1.275,1.949,1.984c6.52,0,6.52,0,6.52,0c-3.047-1.807-3.047-1.807-3.047-1.807
		c1.984-1.098,1.984-1.098,1.984-1.098c6.697,3.827,6.697,3.827,6.697,3.827c-6.662,3.862-6.662,3.862-6.662,3.862
		c-1.949-1.169-1.949-1.169-1.949-1.169c3.012-1.701,3.012-1.701,3.012-1.701c-1.771,0-4.217,0-6.377,0
		c-0.213,0.815-0.922,1.665-2.092,2.338c-1.168,0.673-2.551,1.063-4.003,1.24c0,3.792,0,3.792,0,3.792
		C31.428,21.65,31.428,21.65,31.428,21.65L31.428,21.65L31.428,21.65L31.428,21.65z M24.236,16.937c1.559,0.886,4.039,0.886,5.598,0
		c1.523-0.886,1.523-2.374-0.035-3.26c-1.559-0.886-4.04-0.886-5.563,0C22.677,14.563,22.713,16.051,24.236,16.937"/>
</g>
</svg>