<?xml version="1.0" encoding="iso-8859-1"?>
<!DOCTYPE svg PUBLIC "-//W3C//DTD SVG 1.1//EN" "http://www.w3.org/Graphics/SVG/1.1/DTD/svg11.dtd">
<svg version="1.1" xmlns="http://www.w3.org/2000/svg" xmlns:xlink="http://www.w3.org/1999/xlink" width="55" height="40" viewBox="0 0 55 40">
<g>
	<polygon style="fill-rule:evenodd;clip-rule:evenodd;fill:#2A3174;" points="54.424,15.874 54.354,24.166 27.213,40.252 
		27.213,31.996 54.424,15.874 54.424,15.874 54.424,15.874 54.424,15.874 	"/>
	<polygon style="fill-rule:evenodd;clip-rule:evenodd;fill:#37468B;" points="27.213,31.996 27.213,40.252 0,24.166 0.106,15.874 
		27.213,31.996 27.213,31.996 27.213,31.996 27.213,31.996 	"/>
	<polygon style="fill-rule:evenodd;clip-rule:evenodd;fill:#4F62A5;" points="54.424,15.874 27.284,31.748 0,15.874 27.071,0 
		54.424,15.874 54.424,15.874 54.424,15.874 54.424,15.874 	"/>
	<polygon style="fill-rule:evenodd;clip-rule:evenodd;fill:#2A3174;" points="35.965,16.795 41.032,16.795 23.244,6.272 
		25.973,4.536 43.795,15.166 43.795,12.154 47.055,12.154 47.055,18.709 36.071,18.709 35.965,16.795 35.965,16.795 35.965,16.795 
		35.965,16.795 	"/>
	<polygon style="fill-rule:evenodd;clip-rule:evenodd;fill:#2A3174;" points="28.027,12.083 22.961,12.083 40.819,22.252 
		38.09,23.812 20.232,13.677 20.303,16.547 17.008,16.547 17.008,10.205 28.027,10.205 28.027,12.083 28.027,12.083 28.027,12.083 
		28.027,12.083 	"/>
	<polygon style="fill-rule:evenodd;clip-rule:evenodd;fill:#2A3174;" points="28.312,21.153 31.676,21.153 31.749,27.779 
		20.445,27.779 20.339,25.866 25.618,25.866 7.37,15.272 10.169,13.606 28.312,24.13 28.312,21.153 28.312,21.153 28.312,21.153 
		28.312,21.153 	"/>
	<polygon style="fill-rule:evenodd;clip-rule:evenodd;fill:#FFFFFF;" points="35.965,16.193 41.032,16.193 23.244,6.059 
		25.973,4.536 43.795,14.634 43.795,11.729 47.055,11.729 47.055,18.142 36.071,18.142 35.965,16.193 35.965,16.193 35.965,16.193 
		35.965,16.193 	"/>
	<polygon style="fill-rule:evenodd;clip-rule:evenodd;fill:#FFFFFF;" points="28.027,11.516 22.961,11.516 40.819,21.686 
		38.09,23.244 20.232,13.11 20.303,15.98 17.008,15.98 17.008,9.638 28.027,9.638 28.027,11.516 28.027,11.516 28.027,11.516 
		28.027,11.516 	"/>
	<polygon style="fill-rule:evenodd;clip-rule:evenodd;fill:#FFFFFF;" points="28.312,20.587 31.676,20.587 31.749,27.213 
		20.445,27.213 20.339,25.193 25.618,25.193 7.37,14.705 10.169,13.04 28.312,23.67 28.312,20.587 28.312,20.587 28.312,20.587 
		28.312,20.587 	"/>
</g>
</svg>