<?xml version="1.0" encoding="iso-8859-1"?>
<!DOCTYPE svg PUBLIC "-//W3C//DTD SVG 1.1//EN" "http://www.w3.org/Graphics/SVG/1.1/DTD/svg11.dtd">
<svg version="1.1" xmlns="http://www.w3.org/2000/svg" xmlns:xlink="http://www.w3.org/1999/xlink" width="71" height="81" viewBox="0 0 71 81">
<g>
	<polygon style="fill-rule:evenodd;clip-rule:evenodd;fill:#2A3174;" points="39.491,27.441 70.954,14.895 70.832,67.793 
		39.312,80.299 39.491,27.441 39.491,27.441 39.491,27.441 	"/>
	<polygon style="fill-rule:evenodd;clip-rule:evenodd;fill:#4F62A5;" points="0,12.547 31.701,0 70.954,15.339 39.431,27.846 
		0,12.547 0,12.547 0,12.547 	"/>
	<polygon style="fill-rule:evenodd;clip-rule:evenodd;fill:#37468B;" points="39.312,27.603 39.19,80.299 0,64.92 0.18,12.304 
		39.312,27.603 39.312,27.603 39.312,27.603 	"/>
	<polygon style="fill-rule:evenodd;clip-rule:evenodd;fill:#4F62A5;" points="2.876,29.91 3.056,29.788 35.477,42.659 
		35.356,42.739 2.876,29.91 2.876,29.91 2.876,29.91 	"/>
	<polygon style="fill-rule:evenodd;clip-rule:evenodd;fill:#FFFFFF;" points="35.477,42.982 35.477,45.331 2.876,32.824 
		3.056,30.436 35.477,42.982 35.477,42.982 35.477,42.982 	"/>
	<polygon style="fill-rule:evenodd;clip-rule:evenodd;fill:#4E63A5;" points="21.093,37.56 21.273,37.56 24.929,38.854 
		24.81,38.854 21.093,37.56 21.093,37.56 21.093,37.56 	"/>
	<polygon style="fill-rule:evenodd;clip-rule:evenodd;fill:#CEC3D4;" points="24.929,38.976 24.929,39.421 24.629,39.259 
		24.629,40.149 20.135,38.773 20.135,38.409 20.674,38.49 20.674,37.56 24.929,38.976 24.929,38.976 24.929,38.976 	"/>
	<polygon style="fill-rule:evenodd;clip-rule:evenodd;fill:#2F3D70;" points="22.772,38.49 22.772,38.369 22.352,38.207 
		22.352,38.369 22.352,38.369 22.052,38.207 22.052,38.207 22.052,39.017 22.891,39.502 23.012,39.502 23.012,38.733 22.772,38.49 
		22.772,38.49 	"/>
	<polygon style="fill-rule:evenodd;clip-rule:evenodd;fill:#2F3D70;" points="23.73,39.017 23.73,39.017 23.431,38.854 
		23.311,38.854 23.311,38.936 23.012,38.854 23.012,38.854 23.012,39.259 23.851,39.502 23.97,39.502 23.97,39.138 23.73,39.017 
		23.73,39.017 	"/>
	<polygon style="fill-rule:evenodd;clip-rule:evenodd;fill:#4F62A5;" points="2.876,27.32 3.056,27.198 35.477,39.947 
		35.356,40.149 2.876,27.32 2.876,27.32 2.876,27.32 	"/>
	<polygon style="fill-rule:evenodd;clip-rule:evenodd;fill:#FFFFFF;" points="35.477,39.745 35.477,42.093 2.876,29.586 
		2.876,27.198 35.477,39.745 35.477,39.745 35.477,39.745 	"/>
	<polygon style="fill-rule:evenodd;clip-rule:evenodd;fill:#4E63A5;" points="21.093,34.322 21.093,34.322 24.929,36.265 
		24.81,36.265 21.093,34.322 21.093,34.322 21.093,34.322 	"/>
	<polygon style="fill-rule:evenodd;clip-rule:evenodd;fill:#CEC3D4;" points="24.929,36.062 24.929,36.669 24.629,36.426 
		24.629,37.56 20.135,35.859 20.135,35.252 20.854,35.495 20.854,34.322 24.929,36.062 24.929,36.062 24.929,36.062 	"/>
	<polygon style="fill-rule:evenodd;clip-rule:evenodd;fill:#2F3D70;" points="22.772,35.333 22.772,35.212 22.352,35.091 
		22.352,35.091 22.352,35.091 22.052,34.969 22.052,35.091 22.052,35.819 22.891,36.265 23.012,36.183 23.012,35.455 22.772,35.333 
		22.772,35.333 	"/>
	<polygon style="fill-rule:evenodd;clip-rule:evenodd;fill:#2F3D70;" points="23.73,35.9 23.73,35.778 23.431,35.617 23.311,35.617 
		23.311,35.778 23.191,35.617 23.012,35.617 23.012,36.426 23.851,36.912 23.97,36.912 23.97,36.021 23.73,35.9 23.73,35.9 	"/>
	<polygon style="fill-rule:evenodd;clip-rule:evenodd;fill:#4F62A5;" points="2.876,18.901 3.056,18.78 35.477,31.002 
		35.177,31.084 2.876,18.901 2.876,18.901 2.876,18.901 	"/>
	<polygon style="fill-rule:evenodd;clip-rule:evenodd;fill:#FFFFFF;" points="35.477,31.246 35.477,33.674 2.876,21.249 
		2.876,18.78 35.477,31.246 35.477,31.246 35.477,31.246 	"/>
	<polygon style="fill-rule:evenodd;clip-rule:evenodd;fill:#4E63A5;" points="20.135,26.551 20.615,26.551 21.093,27.198 
		21.093,27.198 20.135,26.551 20.135,26.551 20.135,26.551 	"/>
	<polygon style="fill-rule:evenodd;clip-rule:evenodd;fill:#4E63A5;" points="21.093,25.903 21.093,25.903 24.929,27.198 
		24.81,27.198 21.093,25.903 21.093,25.903 21.093,25.903 	"/>
	<polygon style="fill-rule:evenodd;clip-rule:evenodd;fill:#CEC3D4;" points="24.929,27.643 24.929,28.25 24.629,28.007 
		24.629,29.141 20.135,27.441 20.135,26.834 20.854,27.077 20.854,25.903 24.929,27.643 24.929,27.643 24.929,27.643 	"/>
	<polygon style="fill-rule:evenodd;clip-rule:evenodd;fill:#2F3D70;" points="22.772,26.834 22.772,26.712 22.472,26.551 
		22.352,26.551 22.352,26.712 22.052,26.551 22.052,26.551 22.052,27.481 22.891,27.846 23.012,27.846 23.012,26.956 22.772,26.834 
		22.772,26.834 	"/>
	<polygon style="fill-rule:evenodd;clip-rule:evenodd;fill:#2F3D70;" points="23.73,27.603 23.73,27.36 23.431,27.198 23.311,27.36 
		23.311,27.36 23.191,27.198 23.012,27.198 23.012,28.007 23.851,28.493 23.97,28.493 23.97,27.724 23.73,27.603 23.73,27.603 	"/>
	<polygon style="fill-rule:evenodd;clip-rule:evenodd;fill:#4F62A5;" points="2.876,15.664 3.056,15.542 35.477,28.412 
		35.356,28.493 2.876,15.664 2.876,15.664 2.876,15.664 	"/>
	<polygon style="fill-rule:evenodd;clip-rule:evenodd;fill:#FFFFFF;" points="35.477,28.655 35.356,31.084 2.876,18.577 
		2.876,16.189 35.477,28.655 35.477,28.655 35.477,28.655 	"/>
	<polygon style="fill-rule:evenodd;clip-rule:evenodd;fill:#4E63A5;" points="21.093,23.313 21.093,23.313 24.929,24.527 
		24.929,24.608 21.093,23.313 21.093,23.313 21.093,23.313 	"/>
	<polygon style="fill-rule:evenodd;clip-rule:evenodd;fill:#CEC3D4;" points="24.929,24.77 24.929,25.175 24.45,25.053 
		24.45,25.903 20.135,24.567 20.135,24.082 20.674,24.203 20.674,23.313 24.929,24.77 24.929,24.77 24.929,24.77 	"/>
	<polygon style="fill-rule:evenodd;clip-rule:evenodd;fill:#2F3D70;" points="22.772,24.203 22.772,24.203 22.472,24.082 
		22.352,24.082 22.352,24.082 22.052,23.96 22.052,24.082 22.052,24.811 23.012,25.255 23.012,25.175 23.012,24.446 22.772,24.203 
		22.772,24.203 	"/>
	<polygon style="fill-rule:evenodd;clip-rule:evenodd;fill:#2F3D70;" points="23.73,24.325 23.73,24.203 23.431,23.96 
		23.311,24.082 23.311,24.203 23.191,23.96 23.012,24.082 23.012,24.811 23.851,25.255 23.97,25.175 23.97,24.446 23.73,24.325 
		23.73,24.325 	"/>
	<polygon style="fill-rule:evenodd;clip-rule:evenodd;fill:#4F62A5;" points="2.876,24.608 3.056,24.608 35.477,36.831 
		35.356,36.912 2.876,24.608 2.876,24.608 2.876,24.608 	"/>
	<polygon style="fill-rule:evenodd;clip-rule:evenodd;fill:#FFFFFF;" points="35.477,37.155 35.477,39.502 2.876,27.077 
		2.876,24.608 35.477,37.155 35.477,37.155 35.477,37.155 	"/>
	<polygon style="fill-rule:evenodd;clip-rule:evenodd;fill:#2F3D70;" points="25.768,33.188 25.768,33.431 25.888,33.552 
		25.888,34.322 24.929,33.836 24.929,33.026 25.289,33.188 25.409,33.026 25.768,33.188 25.768,33.188 25.768,33.188 	"/>
	<polygon style="fill-rule:evenodd;clip-rule:evenodd;fill:#2F3D70;" points="26.847,35.171 26.847,35.617 26.608,35.495 
		26.608,35.617 26.188,35.495 26.188,35.455 25.888,35.374 25.888,34.969 26.847,35.171 26.847,35.171 26.847,35.171 	"/>
	<polygon style="fill-rule:evenodd;clip-rule:evenodd;fill:#2F3D70;" points="26.608,33.836 26.608,33.998 26.847,34.119 
		26.847,34.969 25.888,34.564 25.888,33.674 26.188,33.836 26.188,33.674 26.608,33.836 26.608,33.836 26.608,33.836 	"/>
	<polygon style="fill-rule:evenodd;clip-rule:evenodd;fill:#2F3D70;" points="27.805,35.414 27.805,36.265 27.447,36.143 
		27.447,36.265 27.147,36.143 27.147,35.859 26.847,35.698 26.847,34.969 27.805,35.414 27.805,35.414 27.805,35.414 	"/>
	<polygon style="fill-rule:evenodd;clip-rule:evenodd;fill:#2F3D70;" points="27.447,34.483 27.447,34.645 27.805,34.767 
		27.805,35.617 26.847,35.212 26.847,34.322 27.147,34.483 27.147,34.322 27.447,34.483 27.447,34.483 27.447,34.483 	"/>
	<polygon style="fill-rule:evenodd;clip-rule:evenodd;fill:#2F3D70;" points="29.364,35.05 29.364,35.131 29.723,35.252 
		29.723,35.617 28.764,35.374 28.764,34.969 29.064,35.05 29.064,34.969 29.364,35.05 29.364,35.05 29.364,35.05 	"/>
	<polygon style="fill-rule:evenodd;clip-rule:evenodd;fill:#2F3D70;" points="30.382,35.252 30.382,35.374 30.682,35.495 
		30.682,36.265 29.723,35.778 29.723,34.969 30.083,35.131 30.083,35.131 30.382,35.252 30.382,35.252 30.382,35.252 	"/>
	<polygon style="fill-rule:evenodd;clip-rule:evenodd;fill:#2F3D70;" points="31.341,35.778 31.341,36.021 31.641,36.143 
		31.641,36.912 30.682,36.426 30.682,35.617 31.042,35.778 31.042,35.617 31.341,35.778 31.341,35.778 31.341,35.778 	"/>
	<polygon style="fill-rule:evenodd;clip-rule:evenodd;fill:#2F3D70;" points="33.019,36.426 33.019,36.588 33.558,36.709 
		33.558,37.56 31.641,37.155 31.641,36.265 32.48,36.426 32.48,36.265 33.019,36.426 33.019,36.426 33.019,36.426 	"/>
	<polygon style="fill-rule:evenodd;clip-rule:evenodd;fill:#2F3D70;" points="34.218,37.073 34.218,37.073 34.517,37.195 
		34.517,37.56 33.558,37.316 33.558,36.912 33.918,36.992 33.918,36.992 34.218,37.073 34.218,37.073 34.218,37.073 	"/>
	<polygon style="fill-rule:evenodd;clip-rule:evenodd;fill:#2F3D70;" points="34.517,38.086 34.517,38.854 34.218,38.733 
		34.218,38.854 33.918,38.733 33.918,38.49 33.558,38.369 33.558,37.56 34.517,38.086 34.517,38.086 34.517,38.086 	"/>
	<polygon style="fill-rule:evenodd;clip-rule:evenodd;fill:#2F3D70;" points="33.558,37.316 33.558,38.207 33.019,37.964 
		33.019,38.207 32.48,37.964 32.48,37.843 31.641,37.721 31.641,36.912 33.558,37.316 33.558,37.316 33.558,37.316 	"/>
	<polygon style="fill-rule:evenodd;clip-rule:evenodd;fill:#2F3D70;" points="31.641,37.195 31.641,37.56 31.341,37.52 
		31.341,37.56 31.042,37.438 31.042,37.438 30.682,37.316 30.682,36.912 31.641,37.195 31.641,37.195 31.641,37.195 	"/>
	<polygon style="fill-rule:evenodd;clip-rule:evenodd;fill:#2F3D70;" points="30.682,36.548 30.682,36.912 30.382,36.871 
		30.382,36.912 30.083,36.871 30.083,36.79 29.723,36.75 29.723,36.265 30.682,36.548 30.682,36.548 30.682,36.548 	"/>
	<polygon style="fill-rule:evenodd;clip-rule:evenodd;fill:#2F3D70;" points="29.723,36.143 29.723,36.912 29.364,36.79 
		29.364,36.912 29.064,36.79 29.064,36.548 28.764,36.426 28.764,35.617 29.723,36.143 29.723,36.143 29.723,36.143 	"/>
	<polygon style="fill-rule:evenodd;clip-rule:evenodd;fill:#2F3D70;" points="25.888,34.605 25.888,34.969 25.768,34.928 
		25.768,34.969 25.289,34.928 25.289,34.848 24.929,34.726 24.929,34.322 25.888,34.605 25.888,34.605 25.888,34.605 	"/>
	<polygon style="fill-rule:evenodd;clip-rule:evenodd;fill:#2F3D70;" points="15.102,29.424 15.102,29.546 15.341,29.667 
		15.341,30.436 14.382,30.072 14.382,29.141 14.682,29.424 14.682,29.141 15.102,29.424 15.102,29.424 15.102,29.424 	"/>
	<polygon style="fill-rule:evenodd;clip-rule:evenodd;fill:#2F3D70;" points="16.06,29.951 16.06,30.072 16.3,30.193 16.3,31.084 
		15.341,30.598 15.341,29.788 15.641,29.951 15.641,29.788 16.06,29.951 16.06,29.951 16.06,29.951 	"/>
	<polygon style="fill-rule:evenodd;clip-rule:evenodd;fill:#2F3D70;" points="16.899,30.598 16.899,30.598 17.258,30.719 
		17.258,31.084 16.3,30.841 16.3,30.436 16.6,30.517 16.6,30.517 16.899,30.598 16.899,30.598 16.899,30.598 	"/>
	<polygon style="fill-rule:evenodd;clip-rule:evenodd;fill:#2F3D70;" points="19.176,32.015 19.176,32.379 18.637,32.338 
		18.637,32.379 17.858,32.338 17.858,32.257 17.258,32.217 17.258,31.731 19.176,32.015 19.176,32.015 19.176,32.015 	"/>
	<polygon style="fill-rule:evenodd;clip-rule:evenodd;fill:#2F3D70;" points="18.876,30.598 18.876,30.719 19.176,30.962 
		19.176,31.731 18.217,31.246 18.217,30.436 18.577,30.598 18.577,30.436 18.876,30.598 18.876,30.598 18.876,30.598 	"/>
	<polygon style="fill-rule:evenodd;clip-rule:evenodd;fill:#2F3D70;" points="20.135,32.136 20.135,33.026 19.895,32.783 
		19.895,33.026 19.476,32.783 19.476,32.662 19.176,32.541 19.176,31.731 20.135,32.136 20.135,32.136 20.135,32.136 	"/>
	<polygon style="fill-rule:evenodd;clip-rule:evenodd;fill:#2F3D70;" points="19.836,31.367 19.836,31.488 20.135,31.61 
		20.135,32.379 19.176,32.015 19.176,31.084 19.536,31.367 19.536,31.084 19.836,31.367 19.836,31.367 19.836,31.367 	"/>
	<polygon style="fill-rule:evenodd;clip-rule:evenodd;fill:#2F3D70;" points="21.093,32.783 21.093,33.674 20.734,33.431 
		20.734,33.552 20.435,33.431 20.435,33.31 20.135,33.188 20.135,32.379 21.093,32.783 21.093,32.783 21.093,32.783 	"/>
	<polygon style="fill-rule:evenodd;clip-rule:evenodd;fill:#2F3D70;" points="20.794,32.015 20.794,32.015 21.093,32.136 
		21.093,33.026 20.135,32.541 20.135,31.731 20.495,31.893 20.495,31.731 20.794,32.015 20.794,32.015 20.794,32.015 	"/>
	<polygon style="fill-rule:evenodd;clip-rule:evenodd;fill:#2F3D70;" points="23.012,33.552 23.012,34.322 22.232,34.2 
		22.232,34.322 21.693,34.2 21.693,34.079 21.093,33.836 21.093,33.026 23.012,33.552 23.012,33.552 23.012,33.552 	"/>
	<polygon style="fill-rule:evenodd;clip-rule:evenodd;fill:#2F3D70;" points="22.712,32.46 22.712,32.541 23.012,32.581 
		23.012,33.026 22.052,32.783 22.052,32.379 22.413,32.46 22.413,32.379 22.712,32.46 22.712,32.46 22.712,32.46 	"/>
	<polygon style="fill-rule:evenodd;clip-rule:evenodd;fill:#2F3D70;" points="23.67,32.541 23.67,32.662 23.97,32.905 23.97,33.674 
		23.012,33.188 23.012,32.379 23.372,32.541 23.372,32.379 23.67,32.541 23.67,32.541 23.67,32.541 	"/>
	<polygon style="fill-rule:evenodd;clip-rule:evenodd;fill:#2F3D70;" points="23.97,33.958 23.97,34.322 23.67,34.281 23.67,34.322 
		23.372,34.281 23.372,34.2 23.012,34.16 23.012,33.674 23.97,33.958 23.97,33.958 23.97,33.958 	"/>
	<polygon style="fill-rule:evenodd;clip-rule:evenodd;fill:#2F3D70;" points="17.258,31.61 17.258,32.379 17.019,32.257 
		17.019,32.257 16.719,32.136 16.719,32.136 16.3,31.893 16.3,31.084 17.258,31.61 17.258,31.61 17.258,31.61 	"/>
	<polygon style="fill-rule:evenodd;clip-rule:evenodd;fill:#2F3D70;" points="16.3,30.962 16.3,31.731 15.821,31.61 15.821,31.731 
		15.7,31.61 15.7,31.488 15.341,31.246 15.341,30.436 16.3,30.962 16.3,30.962 16.3,30.962 	"/>
	<polygon style="fill-rule:evenodd;clip-rule:evenodd;fill:#2F3D70;" points="15.341,30.193 15.341,31.084 15.041,30.841 
		15.041,31.084 14.741,30.841 14.741,30.719 14.382,30.598 14.382,29.788 15.341,30.193 15.341,30.193 15.341,30.193 	"/>
	<polygon style="fill-rule:evenodd;clip-rule:evenodd;fill:#2F3D70;" points="4.794,26.429 4.794,27.198 4.494,27.077 4.494,27.077 
		4.195,26.956 4.195,26.834 3.835,26.712 3.835,25.903 4.794,26.429 4.794,26.429 4.794,26.429 	"/>
	<polygon style="fill-rule:evenodd;clip-rule:evenodd;fill:#2F3D70;" points="4.494,25.336 4.494,25.417 4.794,25.539 4.794,25.903 
		3.835,25.661 3.835,25.255 4.195,25.336 4.195,25.255 4.494,25.336 4.494,25.336 4.494,25.336 	"/>
	<polygon style="fill-rule:evenodd;clip-rule:evenodd;fill:#2F3D70;" points="5.752,26.834 5.752,27.198 5.513,27.157 5.513,27.198 
		5.213,27.157 5.213,27.077 4.794,26.956 4.794,26.551 5.752,26.834 5.752,26.834 5.752,26.834 	"/>
	<polygon style="fill-rule:evenodd;clip-rule:evenodd;fill:#2F3D70;" points="5.513,25.417 5.513,25.661 5.752,25.781 5.752,26.551 
		4.794,26.065 4.794,25.255 5.213,25.417 5.213,25.255 5.513,25.417 5.513,25.417 5.513,25.417 	"/>
	<polygon style="fill-rule:evenodd;clip-rule:evenodd;fill:#2F3D70;" points="6.711,27.441 6.711,27.846 6.472,27.806 6.472,27.846 
		6.172,27.806 6.172,27.724 5.752,27.643 5.752,27.198 6.711,27.441 6.711,27.441 6.711,27.441 	"/>
	<polygon style="fill-rule:evenodd;clip-rule:evenodd;fill:#2F3D70;" points="6.472,26.065 6.472,26.348 6.711,26.51 6.711,27.198 
		5.752,26.793 5.752,25.903 6.172,26.065 6.172,25.903 6.472,26.065 6.472,26.065 6.472,26.065 	"/>
	<polygon style="fill-rule:evenodd;clip-rule:evenodd;fill:#2F3D70;" points="8.089,26.834 8.089,26.956 8.629,27.077 8.629,27.846 
		6.711,27.481 6.711,26.551 7.311,26.834 7.311,26.551 8.089,26.834 8.089,26.834 8.089,26.834 	"/>
	<polygon style="fill-rule:evenodd;clip-rule:evenodd;fill:#2F3D70;" points="9.588,28.372 9.588,29.141 9.229,29.02 9.229,29.141 
		8.929,29.02 8.929,28.776 8.629,28.655 8.629,27.846 9.588,28.372 9.588,28.372 9.588,28.372 	"/>
	<polygon style="fill-rule:evenodd;clip-rule:evenodd;fill:#2F3D70;" points="9.348,27.279 9.348,27.36 9.588,27.481 9.588,27.846 
		8.629,27.603 8.629,27.198 8.929,27.279 8.929,27.198 9.348,27.279 9.348,27.279 9.348,27.279 	"/>
	<polygon style="fill-rule:evenodd;clip-rule:evenodd;fill:#2F3D70;" points="10.547,28.776 10.547,29.141 10.187,29.101 
		10.187,29.141 9.887,29.101 9.887,29.02 9.588,28.898 9.588,28.493 10.547,28.776 10.547,28.776 10.547,28.776 	"/>
	<polygon style="fill-rule:evenodd;clip-rule:evenodd;fill:#2F3D70;" points="10.187,27.927 10.187,28.007 10.547,28.048 
		10.547,28.493 9.588,28.25 9.588,27.846 9.887,27.927 9.887,27.846 10.187,27.927 10.187,27.927 10.187,27.927 	"/>
	<polygon style="fill-rule:evenodd;clip-rule:evenodd;fill:#2F3D70;" points="11.506,29.424 11.506,29.788 11.206,29.748 
		11.206,29.788 10.906,29.748 10.906,29.667 10.547,29.546 10.547,29.141 11.506,29.424 11.506,29.424 11.506,29.424 	"/>
	<polygon style="fill-rule:evenodd;clip-rule:evenodd;fill:#2F3D70;" points="11.685,28.007 11.685,28.25 12.465,28.372 
		12.225,29.141 10.547,28.655 10.547,27.846 11.146,28.007 11.146,27.846 11.685,28.007 11.685,28.007 11.685,28.007 	"/>
	<polygon style="fill-rule:evenodd;clip-rule:evenodd;fill:#2F3D70;" points="13.423,29.586 13.423,30.436 13.124,30.315 
		13.124,30.436 12.824,30.315 12.824,30.152 12.465,30.031 12.465,29.141 13.423,29.586 13.423,29.586 13.423,29.586 	"/>
	<polygon style="fill-rule:evenodd;clip-rule:evenodd;fill:#2F3D70;" points="13.124,28.776 13.124,28.898 13.423,29.02 
		13.423,29.788 12.465,29.424 12.465,28.493 12.824,28.776 12.824,28.655 13.124,28.776 13.124,28.776 13.124,28.776 	"/>
	<polygon style="fill-rule:evenodd;clip-rule:evenodd;fill:#2F3D70;" points="8.629,27.643 8.629,28.493 8.089,28.372 8.089,28.493 
		7.311,28.372 7.311,28.21 6.711,28.089 6.711,27.198 8.629,27.643 8.629,27.643 8.629,27.643 	"/>
	<polygon style="fill-rule:evenodd;clip-rule:evenodd;fill:#4F62A5;" points="2.876,21.37 3.056,21.37 35.477,34.322 35.356,34.322 
		2.876,21.37 2.876,21.37 2.876,21.37 	"/>
	<polygon style="fill-rule:evenodd;clip-rule:evenodd;fill:#FFFFFF;" points="35.477,34.362 35.477,36.912 2.876,23.96 2.876,21.37 
		35.477,34.362 35.477,34.362 35.477,34.362 	"/>
	<polygon style="fill-rule:evenodd;clip-rule:evenodd;fill:#2F3D70;" points="25.768,30.719 25.768,30.841 25.888,30.962 
		25.888,31.731 24.929,31.367 24.929,30.436 25.289,30.719 25.409,30.436 25.768,30.719 25.768,30.719 25.768,30.719 	"/>
	<polygon style="fill-rule:evenodd;clip-rule:evenodd;fill:#2F3D70;" points="26.847,32.257 26.847,33.026 26.608,32.905 
		26.608,33.026 26.188,32.905 26.188,32.662 25.888,32.541 25.888,31.731 26.847,32.257 26.847,32.257 26.847,32.257 	"/>
	<polygon style="fill-rule:evenodd;clip-rule:evenodd;fill:#2F3D70;" points="26.608,31.246 26.608,31.286 26.847,31.367 
		26.847,31.731 25.888,31.569 25.888,31.084 26.188,31.246 26.188,31.084 26.608,31.246 26.608,31.246 26.608,31.246 	"/>
	<polygon style="fill-rule:evenodd;clip-rule:evenodd;fill:#2F3D70;" points="27.805,32.905 27.805,33.674 27.447,33.552 
		27.447,33.674 27.147,33.552 27.147,33.31 26.847,33.188 26.847,32.379 27.805,32.905 27.805,32.905 27.805,32.905 	"/>
	<polygon style="fill-rule:evenodd;clip-rule:evenodd;fill:#2F3D70;" points="27.447,31.813 27.447,31.893 27.805,32.015 
		27.805,32.379 26.847,32.136 26.847,31.731 27.147,31.813 27.147,31.731 27.447,31.813 27.447,31.813 27.447,31.813 	"/>
	<polygon style="fill-rule:evenodd;clip-rule:evenodd;fill:#2F3D70;" points="29.364,32.015 29.364,32.136 29.723,32.257 
		29.723,33.026 28.764,32.541 28.764,31.731 29.064,31.893 29.064,31.893 29.364,32.015 29.364,32.015 29.364,32.015 	"/>
	<polygon style="fill-rule:evenodd;clip-rule:evenodd;fill:#2F3D70;" points="30.382,32.541 30.382,32.783 30.682,32.905 
		30.682,33.674 29.723,33.188 29.723,32.379 30.083,32.541 30.083,32.379 30.382,32.541 30.382,32.541 30.382,32.541 	"/>
	<polygon style="fill-rule:evenodd;clip-rule:evenodd;fill:#2F3D70;" points="31.341,33.188 31.341,33.229 31.641,33.31 
		31.641,33.674 30.682,33.512 30.682,33.026 31.042,33.188 31.042,33.026 31.341,33.188 31.341,33.188 31.341,33.188 	"/>
	<polygon style="fill-rule:evenodd;clip-rule:evenodd;fill:#2F3D70;" points="33.019,33.836 33.019,33.836 33.558,33.958 
		33.558,34.322 31.641,34.079 31.641,33.674 32.48,33.755 32.48,33.674 33.019,33.836 33.019,33.836 33.019,33.836 	"/>
	<polygon style="fill-rule:evenodd;clip-rule:evenodd;fill:#2F3D70;" points="34.218,33.836 34.218,33.958 34.517,34.2 
		34.517,34.969 33.558,34.483 33.558,33.674 33.918,33.836 33.918,33.674 34.218,33.836 34.218,33.836 34.218,33.836 	"/>
	<polygon style="fill-rule:evenodd;clip-rule:evenodd;fill:#2F3D70;" points="34.517,35.252 34.517,35.617 34.218,35.576 
		34.218,35.576 33.918,35.495 33.918,35.455 33.558,35.374 33.558,34.969 34.517,35.252 34.517,35.252 34.517,35.252 	"/>
	<polygon style="fill-rule:evenodd;clip-rule:evenodd;fill:#2F3D70;" points="33.558,34.848 33.558,35.617 33.019,35.495 
		33.019,35.617 32.48,35.495 32.48,35.252 31.641,35.131 31.641,34.322 33.558,34.848 33.558,34.848 33.558,34.848 	"/>
	<polygon style="fill-rule:evenodd;clip-rule:evenodd;fill:#2F3D70;" points="31.641,34.119 31.641,34.969 31.341,34.848 
		31.341,34.969 31.042,34.848 31.042,34.686 30.682,34.564 30.682,33.674 31.641,34.119 31.641,34.119 31.641,34.119 	"/>
	<polygon style="fill-rule:evenodd;clip-rule:evenodd;fill:#2F3D70;" points="30.682,33.552 30.682,34.322 30.382,34.079 
		30.382,34.322 30.083,34.079 30.083,33.958 29.723,33.836 29.723,33.026 30.682,33.552 30.682,33.552 30.682,33.552 	"/>
	<polygon style="fill-rule:evenodd;clip-rule:evenodd;fill:#2F3D70;" points="29.723,33.31 29.723,33.674 29.364,33.633 
		29.364,33.674 29.064,33.633 29.064,33.552 28.764,33.431 28.764,33.026 29.723,33.31 29.723,33.31 29.723,33.31 	"/>
	<polygon style="fill-rule:evenodd;clip-rule:evenodd;fill:#2F3D70;" points="25.888,31.529 25.888,32.379 25.768,32.257 
		25.768,32.379 25.289,32.257 25.289,32.096 24.929,31.974 24.929,31.084 25.888,31.529 25.888,31.529 25.888,31.529 	"/>
	<polygon style="fill-rule:evenodd;clip-rule:evenodd;fill:#2F3D70;" points="15.102,26.631 15.102,26.712 15.341,26.753 
		15.341,27.198 14.382,26.956 14.382,26.551 14.682,26.631 14.682,26.551 15.102,26.631 15.102,26.631 15.102,26.631 	"/>
	<polygon style="fill-rule:evenodd;clip-rule:evenodd;fill:#2F3D70;" points="16.06,26.834 16.06,26.834 16.3,27.077 16.3,27.846 
		15.341,27.36 15.341,26.551 15.641,26.712 15.641,26.712 16.06,26.834 16.06,26.834 16.06,26.834 	"/>
	<polygon style="fill-rule:evenodd;clip-rule:evenodd;fill:#2F3D70;" points="16.899,27.36 16.899,27.481 17.258,27.724 
		17.258,28.493 16.3,28.007 16.3,27.198 16.6,27.36 16.6,27.198 16.899,27.36 16.899,27.36 16.899,27.36 	"/>
	<polygon style="fill-rule:evenodd;clip-rule:evenodd;fill:#2F3D70;" points="19.176,28.898 19.176,29.788 18.637,29.546 
		18.637,29.788 17.858,29.546 17.858,29.424 17.258,29.303 17.258,28.493 19.176,28.898 19.176,28.898 19.176,28.898 	"/>
	<polygon style="fill-rule:evenodd;clip-rule:evenodd;fill:#2F3D70;" points="18.876,28.007 18.876,28.25 19.176,28.372 
		19.176,29.141 18.217,28.655 18.217,27.846 18.577,28.007 18.577,27.846 18.876,28.007 18.876,28.007 18.876,28.007 	"/>
	<polygon style="fill-rule:evenodd;clip-rule:evenodd;fill:#2F3D70;" points="20.135,29.546 20.135,30.436 19.895,30.193 
		19.895,30.315 19.476,30.193 19.476,30.072 19.176,29.951 19.176,29.141 20.135,29.546 20.135,29.546 20.135,29.546 	"/>
	<polygon style="fill-rule:evenodd;clip-rule:evenodd;fill:#2F3D70;" points="19.836,28.574 19.836,28.655 20.135,28.696 
		20.135,29.141 19.176,28.898 19.176,28.493 19.536,28.574 19.536,28.493 19.836,28.574 19.836,28.574 19.836,28.574 	"/>
	<polygon style="fill-rule:evenodd;clip-rule:evenodd;fill:#2F3D70;" points="21.093,30.072 21.093,30.436 20.734,30.396 
		20.734,30.436 20.435,30.396 20.435,30.274 20.135,30.193 20.135,29.788 21.093,30.072 21.093,30.072 21.093,30.072 	"/>
	<polygon style="fill-rule:evenodd;clip-rule:evenodd;fill:#2F3D70;" points="20.794,29.222 20.794,29.303 21.093,29.343 
		21.093,29.788 20.135,29.546 20.135,29.141 20.495,29.222 20.495,29.141 20.794,29.222 20.794,29.222 20.794,29.222 	"/>
	<polygon style="fill-rule:evenodd;clip-rule:evenodd;fill:#2F3D70;" points="23.012,30.315 23.012,31.084 22.232,30.962 
		22.232,31.084 21.693,30.962 21.693,30.841 21.093,30.719 21.093,29.788 23.012,30.315 23.012,30.315 23.012,30.315 	"/>
	<polygon style="fill-rule:evenodd;clip-rule:evenodd;fill:#2F3D70;" points="22.712,29.303 22.712,29.424 23.012,29.667 
		23.012,30.436 22.052,29.951 22.052,29.141 22.413,29.303 22.413,29.141 22.712,29.303 22.712,29.303 22.712,29.303 	"/>
	<polygon style="fill-rule:evenodd;clip-rule:evenodd;fill:#2F3D70;" points="23.67,30.072 23.67,30.193 23.97,30.315 23.97,31.084 
		23.012,30.598 23.012,29.788 23.372,30.072 23.372,29.951 23.67,30.072 23.67,30.072 23.67,30.072 	"/>
	<polygon style="fill-rule:evenodd;clip-rule:evenodd;fill:#2F3D70;" points="23.97,30.962 23.97,31.731 23.67,31.61 23.67,31.731 
		23.372,31.488 23.372,31.488 23.012,31.367 23.012,30.436 23.97,30.962 23.97,30.962 23.97,30.962 	"/>
	<polygon style="fill-rule:evenodd;clip-rule:evenodd;fill:#2F3D70;" points="17.258,28.372 17.258,29.141 17.019,29.02 
		17.019,29.141 16.719,29.02 16.719,28.898 16.3,28.776 16.3,27.846 17.258,28.372 17.258,28.372 17.258,28.372 	"/>
	<polygon style="fill-rule:evenodd;clip-rule:evenodd;fill:#2F3D70;" points="16.3,28.129 16.3,28.493 15.821,28.453 15.821,28.453 
		15.7,28.372 15.7,28.332 15.341,28.25 15.341,27.846 16.3,28.129 16.3,28.129 16.3,28.129 	"/>
	<polygon style="fill-rule:evenodd;clip-rule:evenodd;fill:#2F3D70;" points="15.341,27.724 15.341,28.493 15.041,28.372 
		15.041,28.493 14.741,28.372 14.741,28.129 14.382,28.007 14.382,27.198 15.341,27.724 15.341,27.724 15.341,27.724 	"/>
	<polygon style="fill-rule:evenodd;clip-rule:evenodd;fill:#2F3D70;" points="4.794,23.596 4.794,23.96 4.494,23.92 4.494,23.96 
		4.195,23.92 4.195,23.839 3.835,23.717 3.835,23.313 4.794,23.596 4.794,23.596 4.794,23.596 	"/>
	<polygon style="fill-rule:evenodd;clip-rule:evenodd;fill:#2F3D70;" points="4.494,22.18 4.494,22.422 4.794,22.544 4.794,23.313 
		3.835,22.827 3.835,22.017 4.195,22.18 4.195,22.017 4.494,22.18 4.494,22.18 4.494,22.18 	"/>
	<polygon style="fill-rule:evenodd;clip-rule:evenodd;fill:#2F3D70;" points="5.752,23.839 5.752,24.608 5.513,24.486 5.513,24.608 
		5.213,24.486 5.213,24.365 4.794,24.244 4.794,23.313 5.752,23.839 5.752,23.839 5.752,23.839 	"/>
	<polygon style="fill-rule:evenodd;clip-rule:evenodd;fill:#2F3D70;" points="5.513,22.949 5.513,23.07 5.752,23.191 5.752,23.96 
		4.794,23.596 4.794,22.666 5.213,22.949 5.213,22.827 5.513,22.949 5.513,22.949 5.513,22.949 	"/>
	<polygon style="fill-rule:evenodd;clip-rule:evenodd;fill:#2F3D70;" points="6.711,24.486 6.711,25.255 6.472,25.134 6.472,25.255 
		6.172,25.134 6.172,25.012 5.752,24.891 5.752,23.96 6.711,24.486 6.711,24.486 6.711,24.486 	"/>
	<polygon style="fill-rule:evenodd;clip-rule:evenodd;fill:#2F3D70;" points="6.472,23.475 6.472,23.516 6.711,23.596 6.711,23.96 
		5.752,23.798 5.752,23.313 6.172,23.475 6.172,23.313 6.472,23.475 6.472,23.475 6.472,23.475 	"/>
	<polygon style="fill-rule:evenodd;clip-rule:evenodd;fill:#2F3D70;" points="8.089,24.042 8.089,24.122 8.629,24.163 8.629,24.608 
		6.711,24.365 6.711,23.96 7.311,24.042 7.311,23.96 8.089,24.042 8.089,24.042 8.089,24.042 	"/>
	<polygon style="fill-rule:evenodd;clip-rule:evenodd;fill:#2F3D70;" points="9.588,25.539 9.588,25.903 9.229,25.862 9.229,25.903 
		8.929,25.862 8.929,25.781 8.629,25.661 8.629,25.255 9.588,25.539 9.588,25.539 9.588,25.539 	"/>
	<polygon style="fill-rule:evenodd;clip-rule:evenodd;fill:#2F3D70;" points="9.348,24.122 9.348,24.284 9.588,24.406 9.588,25.255 
		8.629,24.689 8.629,23.96 8.929,24.122 8.929,23.96 9.348,24.122 9.348,24.122 9.348,24.122 	"/>
	<polygon style="fill-rule:evenodd;clip-rule:evenodd;fill:#2F3D70;" points="10.547,25.781 10.547,26.551 10.187,26.429 
		10.187,26.429 9.887,26.308 9.887,26.308 9.588,26.065 9.588,25.255 10.547,25.781 10.547,25.781 10.547,25.781 	"/>
	<polygon style="fill-rule:evenodd;clip-rule:evenodd;fill:#2F3D70;" points="10.187,24.77 10.187,25.012 10.547,25.134 
		10.547,25.903 9.588,25.417 9.588,24.608 9.887,24.77 9.887,24.608 10.187,24.77 10.187,24.77 10.187,24.77 	"/>
	<polygon style="fill-rule:evenodd;clip-rule:evenodd;fill:#2F3D70;" points="11.506,26.429 11.506,27.198 11.206,27.077 
		11.206,27.198 10.906,27.077 10.906,26.956 10.547,26.834 10.547,25.903 11.506,26.429 11.506,26.429 11.506,26.429 	"/>
	<polygon style="fill-rule:evenodd;clip-rule:evenodd;fill:#2F3D70;" points="11.685,25.417 11.685,25.458 12.465,25.539 
		12.225,25.903 10.547,25.741 10.547,25.255 11.146,25.417 11.146,25.255 11.685,25.417 11.685,25.417 11.685,25.417 	"/>
	<polygon style="fill-rule:evenodd;clip-rule:evenodd;fill:#2F3D70;" points="13.423,27.077 13.423,27.846 13.124,27.724 
		13.124,27.846 12.824,27.724 12.824,27.481 12.465,27.36 12.465,26.551 13.423,27.077 13.423,27.077 13.423,27.077 	"/>
	<polygon style="fill-rule:evenodd;clip-rule:evenodd;fill:#2F3D70;" points="13.124,26.065 13.124,26.105 13.423,26.187 
		13.423,26.551 12.465,26.389 12.465,25.903 12.824,26.065 12.824,25.903 13.124,26.065 13.124,26.065 13.124,26.065 	"/>
	<polygon style="fill-rule:evenodd;clip-rule:evenodd;fill:#2F3D70;" points="8.629,25.134 8.629,25.903 8.089,25.781 8.089,25.903 
		7.311,25.781 7.311,25.539 6.711,25.417 6.711,24.608 8.629,25.134 8.629,25.134 8.629,25.134 	"/>
	<polygon style="fill-rule:evenodd;clip-rule:evenodd;fill:#4F62A5;" points="2.876,35.738 3.235,35.617 35.477,48.487 
		35.356,48.568 2.876,35.738 2.876,35.738 2.876,35.738 	"/>
	<polygon style="fill-rule:evenodd;clip-rule:evenodd;fill:#FFFFFF;" points="35.477,48.609 35.477,51.158 2.876,38.207 
		2.876,35.617 35.477,48.609 35.477,48.609 35.477,48.609 	"/>
	<polygon style="fill-rule:evenodd;clip-rule:evenodd;fill:#2F3D70;" points="16.18,42.376 16.18,42.497 16.3,42.619 16.3,43.388 
		15.341,42.902 15.341,42.093 15.7,42.254 15.7,42.254 16.18,42.376 16.18,42.376 16.18,42.376 	"/>
	<polygon style="fill-rule:evenodd;clip-rule:evenodd;fill:#2F3D70;" points="20.135,44.318 20.135,44.683 19.895,44.643 
		19.895,44.683 19.476,44.643 19.476,44.562 19.176,44.439 19.176,44.034 20.135,44.318 20.135,44.318 20.135,44.318 	"/>
	<polygon style="fill-rule:evenodd;clip-rule:evenodd;fill:#2F3D70;" points="18.217,43.266 18.217,44.034 17.858,43.914 
		17.858,44.034 17.678,43.914 17.678,43.793 17.258,43.671 17.258,42.739 18.217,43.266 18.217,43.266 18.217,43.266 	"/>
	<path style="fill-rule:evenodd;clip-rule:evenodd;fill:#2F3D70;" d="M5.273,36.992c0.179,0,0.479,0.243,0.479,0.324
		c0,0.162-0.3,0.243-0.479,0.162c-0.3-0.081-0.479-0.243-0.479-0.405C4.794,36.912,4.974,36.912,5.273,36.992L5.273,36.992"/>
	<path style="fill-rule:evenodd;clip-rule:evenodd;fill:#2F3D70;" d="M9.108,38.854c0.359,0.081,0.48,0.324,0.48,0.404
		c0,0.162-0.121,0.243-0.48,0.162c-0.299-0.081-0.479-0.242-0.479-0.404S8.989,38.854,9.108,38.854L9.108,38.854"/>
	<path style="fill-rule:evenodd;clip-rule:evenodd;fill:#5065A9;" d="M21.693,44.764c0.24,0.081,0.359,0.242,0.359,0.404
		c0,0.121-0.12,0.163-0.359,0.121c-0.3-0.08-0.6-0.283-0.6-0.404S21.393,44.683,21.693,44.764L21.693,44.764L21.693,44.764z
		 M21.693,45.168c0.12,0.041,0.24,0.041,0.24-0.08c0-0.082-0.12-0.203-0.24-0.243c-0.18,0-0.3,0-0.3,0.121
		C21.393,45.006,21.513,45.168,21.693,45.168"/>
	<path style="fill-rule:evenodd;clip-rule:evenodd;fill:#2F3D70;" d="M21.573,44.683c0.24,0.122,0.479,0.323,0.479,0.445
		c0,0.203-0.239,0.203-0.479,0.121c-0.239,0-0.48-0.243-0.48-0.323C21.093,44.683,21.334,44.683,21.573,44.683L21.573,44.683"/>
	<path style="fill-rule:evenodd;clip-rule:evenodd;fill:#2F3D70;" d="M24.33,45.492c0.3,0.121,0.6,0.242,0.6,0.364
		c0,0.121-0.3,0.121-0.6,0.121c-0.359-0.121-0.359-0.243-0.359-0.364S23.97,45.331,24.33,45.492L24.33,45.492"/>
	<path style="fill-rule:evenodd;clip-rule:evenodd;fill:#2F3D70;" d="M29.423,47.272c0,0.162,0.3,0.284,0.3,0.405
		c0,0.122-0.3,0.243-0.3,0.122c-0.3,0-0.659-0.243-0.659-0.365C28.764,47.272,29.124,47.272,29.423,47.272L29.423,47.272"/>
	<path style="fill-rule:evenodd;clip-rule:evenodd;fill:#2F3D70;" d="M24.33,46.14c0.3,0,0.6,0.121,0.6,0.243
		c0,0.121-0.3,0.243-0.6,0.121c-0.359,0-0.359-0.243-0.359-0.364C23.97,45.978,23.97,45.978,24.33,46.14L24.33,46.14"/>
	<path style="fill-rule:evenodd;clip-rule:evenodd;fill:#2F3D70;" d="M29.423,48.083c0,0.121,0.3,0.243,0.3,0.363
		c0,0.122-0.3,0.122-0.3,0.122c-0.3-0.122-0.659-0.242-0.659-0.364C28.764,48.083,29.124,47.921,29.423,48.083L29.423,48.083"/>
	<path style="fill-rule:evenodd;clip-rule:evenodd;fill:#2F3D70;" d="M34.038,49.338c0.24,0.08,0.479,0.283,0.479,0.363
		c0,0.162-0.239,0.162-0.479,0.162c-0.239-0.081-0.479-0.242-0.479-0.445C33.558,49.338,33.798,49.216,34.038,49.338L34.038,49.338"
		/>
	<polygon style="fill-rule:evenodd;clip-rule:evenodd;fill:#4F62A5;" points="2.876,33.147 3.235,33.026 35.477,45.896 
		35.356,45.978 2.876,33.147 2.876,33.147 2.876,33.147 	"/>
	<polygon style="fill-rule:evenodd;clip-rule:evenodd;fill:#FFFFFF;" points="35.477,45.573 35.477,47.921 2.876,35.414 
		2.876,33.026 35.477,45.573 35.477,45.573 35.477,45.573 	"/>
	<polygon style="fill-rule:evenodd;clip-rule:evenodd;fill:#2F3D70;" points="16.18,39.664 16.18,39.785 16.3,40.028 16.3,40.798 
		15.341,40.312 15.341,39.502 15.7,39.664 15.7,39.502 16.18,39.664 16.18,39.664 16.18,39.664 	"/>
	<polygon style="fill-rule:evenodd;clip-rule:evenodd;fill:#2F3D70;" points="20.135,41.323 20.135,42.093 19.895,41.971 
		19.895,41.971 19.476,41.85 19.476,41.728 19.176,41.606 19.176,40.798 20.135,41.323 20.135,41.323 20.135,41.323 	"/>
	<polygon style="fill-rule:evenodd;clip-rule:evenodd;fill:#2F3D70;" points="18.217,40.555 18.217,41.444 17.858,41.202 
		17.858,41.444 17.678,41.202 17.678,41.081 17.258,40.959 17.258,40.149 18.217,40.555 18.217,40.555 18.217,40.555 	"/>
	<path style="fill-rule:evenodd;clip-rule:evenodd;fill:#2F3D70;" d="M5.273,34.402c0.359,0.081,0.479,0.243,0.479,0.405
		c0,0.162-0.3,0.162-0.479,0.081c-0.3-0.081-0.479-0.243-0.479-0.324C4.794,34.402,4.974,34.322,5.273,34.402L5.273,34.402"/>
	<path style="fill-rule:evenodd;clip-rule:evenodd;fill:#2F3D70;" d="M7.311,35.05c0.18,0.081,0.359,0.243,0.359,0.364
		c0,0.162-0.179,0.203-0.359,0.162c-0.359-0.081-0.6-0.243-0.6-0.364C6.711,35.05,6.952,34.969,7.311,35.05L7.311,35.05"/>
	<path style="fill-rule:evenodd;clip-rule:evenodd;fill:#2F3D70;" d="M9.108,35.698c0.359,0.081,0.48,0.243,0.48,0.405
		c0,0.081-0.121,0.162-0.48,0.081c-0.12-0.081-0.479-0.242-0.479-0.405C8.629,35.698,8.989,35.617,9.108,35.698L9.108,35.698"/>
	<path style="fill-rule:evenodd;clip-rule:evenodd;fill:#5065A9;" d="M21.573,42.173c0.359,0.081,0.479,0.243,0.479,0.405
		c0,0.121-0.12,0.161-0.479,0.121c-0.3-0.08-0.48-0.283-0.48-0.404C21.093,42.173,21.273,42.093,21.573,42.173L21.573,42.173
		L21.573,42.173z M21.573,42.619c0.18,0.08,0.359,0,0.359-0.041c0-0.162-0.179-0.283-0.359-0.283c-0.12-0.041-0.3-0.041-0.3,0.081
		C21.273,42.416,21.454,42.578,21.573,42.619"/>
	<path style="fill-rule:evenodd;clip-rule:evenodd;fill:#2F3D70;" d="M21.573,42.214c0.24,0,0.479,0.162,0.479,0.364
		c0,0.081-0.239,0.161-0.479,0.081c-0.239-0.081-0.48-0.283-0.48-0.364C21.093,42.093,21.334,42.093,21.573,42.214L21.573,42.214"/>
	<path style="fill-rule:evenodd;clip-rule:evenodd;fill:#2F3D70;" d="M30.382,44.845c0.3,0,0.3,0.243,0.3,0.364
		c0,0.122,0,0.122-0.3,0.122c-0.3-0.122-0.659-0.243-0.659-0.365C29.723,44.845,30.083,44.683,30.382,44.845L30.382,44.845"/>
	<path style="fill-rule:evenodd;clip-rule:evenodd;fill:#2F3D70;" d="M22.413,42.254c0.3,0,0.6,0.122,0.6,0.243
		c0,0.122-0.3,0.242-0.6,0.122c-0.36,0-0.36-0.122-0.36-0.243C22.052,42.254,22.052,42.093,22.413,42.254L22.413,42.254"/>
	<path style="fill-rule:evenodd;clip-rule:evenodd;fill:#2F3D70;" d="M27.506,44.034c0,0.163,0.299,0.325,0.299,0.486
		c0,0.162-0.299,0.162-0.299,0.162c-0.3-0.162-0.659-0.323-0.659-0.485C26.847,44.034,27.207,44.034,27.506,44.034L27.506,44.034"/>
	<path style="fill-rule:evenodd;clip-rule:evenodd;fill:#2F3D70;" d="M30.382,45.331c0.3,0.161,0.3,0.282,0.3,0.403
		c0,0.122,0,0.243-0.3,0.122c-0.3,0-0.659-0.243-0.659-0.364C29.723,45.331,30.083,45.331,30.382,45.331L30.382,45.331"/>
	<path style="fill-rule:evenodd;clip-rule:evenodd;fill:#2F3D70;" d="M33.019,46.1c0.36,0.08,0.539,0.161,0.539,0.363
		c0,0.082-0.179,0.163-0.539,0.082c-0.18,0-0.42-0.162-0.42-0.365C32.599,46.1,32.839,45.978,33.019,46.1L33.019,46.1"/>
	<path style="fill-rule:evenodd;clip-rule:evenodd;fill:#2F3D70;" d="M33.978,46.626c0.18,0.12,0.539,0.283,0.539,0.485
		c0,0.081-0.359,0.161-0.539,0.081c-0.18-0.081-0.42-0.283-0.42-0.364C33.558,46.626,33.798,46.626,33.978,46.626L33.978,46.626"/>
	<polygon style="fill-rule:evenodd;clip-rule:evenodd;fill:#4F62A5;" points="35.477,66.175 35.716,66.053 37.394,66.7 37.214,66.7 
		35.477,66.175 35.477,66.175 35.477,66.175 	"/>
	<polygon style="fill-rule:evenodd;clip-rule:evenodd;fill:#FFFFFF;" points="37.394,66.538 37.394,68.644 35.477,68.198 
		35.477,66.053 37.394,66.538 37.394,66.538 37.394,66.538 	"/>
	<path style="fill-rule:evenodd;clip-rule:evenodd;fill:#43558F;" d="M36.735,66.821c-0.12-0.121-0.301-0.121-0.42,0
		c-0.838,0.243-0.838,0.243-0.838,0.243c0.179-0.081,0.299-0.081,0.599,0c0.239,0.162,0.539,0.445,0.539,0.688
		c0,0.162,0,0.242-0.181,0.242c0.181,0,0.301-0.08,0.301-0.08c0.119-0.082,0.299-0.082,0.42-0.162c0.119,0,0.239-0.163,0.239-0.243
		C37.394,67.227,37.155,66.983,36.735,66.821"/>
	<path style="fill-rule:evenodd;clip-rule:evenodd;fill:#4F64A7;" d="M36.016,66.821c0.239,0.202,0.418,0.485,0.418,0.811
		c0,0.283-0.179,0.363-0.418,0.283c-0.3-0.203-0.539-0.486-0.539-0.811C35.477,66.821,35.716,66.7,36.016,66.821L36.016,66.821
		L36.016,66.821z M36.255,67.632c0-0.203,0-0.203,0-0.203c-0.239-0.122-0.239-0.122-0.239-0.122c0-0.202,0-0.202,0-0.202
		c-0.061-0.081-0.061-0.081-0.061-0.081c0,0.203,0,0.203,0,0.203c-0.239-0.122-0.239-0.122-0.239-0.122c0,0.202,0,0.202,0,0.202
		c0.239,0.122,0.239,0.122,0.239,0.122c0,0.203,0,0.203,0,0.203c0.061,0.08,0.061,0.08,0.061,0.08c0-0.283,0-0.283,0-0.283
		C36.255,67.632,36.255,67.632,36.255,67.632"/>
	<polygon style="fill-rule:evenodd;clip-rule:evenodd;fill:#4F62A5;" points="35.477,62.814 35.716,62.814 37.394,63.463 
		37.214,63.463 35.477,62.814 35.477,62.814 35.477,62.814 	"/>
	<polygon style="fill-rule:evenodd;clip-rule:evenodd;fill:#FFFFFF;" points="37.394,63.422 37.394,66.053 35.477,65.486 
		35.477,62.814 37.394,63.422 37.394,63.422 37.394,63.422 	"/>
	<path style="fill-rule:evenodd;clip-rule:evenodd;fill:#43558F;" d="M36.735,64.11c-0.12,0-0.301,0-0.42,0
		c-0.838,0.161-0.838,0.161-0.838,0.161c0.179,0,0.299,0,0.599,0c0.239,0.082,0.539,0.243,0.539,0.365c0,0.08,0,0.121-0.181,0.121
		c0.181,0,0.301-0.041,0.301-0.041c0.119-0.04,0.299-0.04,0.42-0.08c0.119,0,0.239-0.042,0.239-0.122
		C37.394,64.354,37.155,64.231,36.735,64.11"/>
	<path style="fill-rule:evenodd;clip-rule:evenodd;fill:#4F64A7;" d="M36.016,64.191c0.239,0.08,0.418,0.242,0.418,0.403
		c0,0.122-0.179,0.163-0.418,0.122c-0.3-0.04-0.539-0.242-0.539-0.405C35.477,64.191,35.716,64.11,36.016,64.191L36.016,64.191
		L36.016,64.191z M36.255,64.595c0-0.08,0-0.08,0-0.08c-0.239-0.081-0.239-0.081-0.239-0.081c0-0.122,0-0.122,0-0.122
		c-0.061-0.04-0.061-0.04-0.061-0.04c0,0.162,0,0.162,0,0.162c-0.239-0.04-0.239-0.04-0.239-0.04c0,0.04,0,0.04,0,0.04
		c0.239,0.041,0.239,0.041,0.239,0.041c0,0.12,0,0.12,0,0.12c0.061,0.042,0.061,0.042,0.061,0.042c0-0.122,0-0.122,0-0.122
		C36.255,64.595,36.255,64.595,36.255,64.595"/>
	<polygon style="fill-rule:evenodd;clip-rule:evenodd;fill:#4F62A5;" points="35.477,60.347 35.716,60.225 37.394,60.791 
		37.214,60.872 35.477,60.347 35.477,60.347 35.477,60.347 	"/>
	<polygon style="fill-rule:evenodd;clip-rule:evenodd;fill:#FFFFFF;" points="37.394,60.831 37.394,63.463 35.477,62.896 
		35.477,60.225 37.394,60.831 37.394,60.831 37.394,60.831 	"/>
	<path style="fill-rule:evenodd;clip-rule:evenodd;fill:#43558F;" d="M36.674,60.993c-0.119-0.121-0.299-0.121-0.419-0.121
		c-0.778,0.283-0.778,0.283-0.778,0.283s0.299,0,0.479,0.081c0.3,0.08,0.719,0.445,0.6,0.688c0,0.08,0,0.161-0.18,0.242
		c0.18-0.081,0.299-0.081,0.479-0.162c0,0,0.12-0.08,0.301-0.08c0.119-0.082,0.239-0.162,0.239-0.243
		C37.394,61.398,37.155,61.074,36.674,60.993"/>
	<path style="fill-rule:evenodd;clip-rule:evenodd;fill:#4F64A7;" d="M35.956,61.074c0.239,0.081,0.479,0.445,0.42,0.729
		c0,0.283-0.181,0.364-0.42,0.202c-0.239-0.08-0.479-0.485-0.479-0.729C35.477,60.993,35.716,60.872,35.956,61.074L35.956,61.074
		L35.956,61.074z M36.255,61.722c0-0.08,0-0.08,0-0.08c-0.3-0.122-0.3-0.122-0.3-0.122c0-0.243,0-0.243,0-0.243
		c-0.061,0-0.061,0-0.061,0c0,0.162,0,0.162,0,0.162c-0.179-0.08-0.179-0.08-0.179-0.08c0,0.08,0,0.08,0,0.08
		c0.179,0.081,0.179,0.081,0.179,0.081c0,0.283,0,0.283,0,0.283c0.061,0,0.061,0,0.061,0c0-0.161,0-0.161,0-0.161
		C36.255,61.722,36.255,61.722,36.255,61.722"/>
	<polygon style="fill-rule:evenodd;clip-rule:evenodd;fill:#4F62A5;" points="35.477,57.189 35.716,56.986 37.394,57.553 
		37.214,57.635 35.477,57.189 35.477,57.189 35.477,57.189 	"/>
	<polygon style="fill-rule:evenodd;clip-rule:evenodd;fill:#FFFFFF;" points="37.394,58.12 37.394,60.225 35.477,59.779 
		35.477,57.635 37.394,58.12 37.394,58.12 37.394,58.12 	"/>
	<path style="fill-rule:evenodd;clip-rule:evenodd;fill:#43558F;" d="M36.674,58.363c-0.119-0.082-0.299-0.082-0.419,0
		c-0.778,0.121-0.778,0.121-0.778,0.121c0.179-0.041,0.299-0.041,0.479,0c0.42,0.08,0.719,0.202,0.719,0.323
		c0,0.082-0.119,0.122-0.299,0.122c0.18,0,0.299-0.04,0.479-0.04c0.12-0.041,0.301-0.041,0.42-0.082c0,0,0.12-0.04,0.12-0.121
		C37.394,58.564,37.155,58.443,36.674,58.363"/>
	<path style="fill-rule:evenodd;clip-rule:evenodd;fill:#4F64A7;" d="M35.956,58.363c0.3,0.08,0.479,0.243,0.479,0.404
		c0,0.122-0.179,0.162-0.479,0.122c-0.18-0.082-0.479-0.243-0.479-0.405C35.477,58.363,35.776,58.281,35.956,58.363L35.956,58.363
		L35.956,58.363z M36.255,58.768c0-0.121,0-0.121,0-0.121c-0.18-0.04-0.18-0.04-0.18-0.04c0-0.122,0-0.122,0-0.122
		c-0.181-0.041-0.181-0.041-0.181-0.041c0,0.121,0,0.121,0,0.121c-0.179-0.08-0.179-0.08-0.179-0.08c0,0.122,0,0.122,0,0.122
		c0.179,0.04,0.179,0.04,0.179,0.04c0,0.121,0,0.121,0,0.121c0.181,0.04,0.181,0.04,0.181,0.04c0-0.161,0-0.161,0-0.161
		C36.255,58.768,36.255,58.768,36.255,58.768"/>
	<polygon style="fill-rule:evenodd;clip-rule:evenodd;fill:#4F62A5;" points="35.477,54.518 35.656,54.396 37.394,54.963 
		37.093,55.044 35.477,54.518 35.477,54.518 35.477,54.518 	"/>
	<polygon style="fill-rule:evenodd;clip-rule:evenodd;fill:#FFFFFF;" points="37.394,55.003 37.394,57.635 35.477,57.068 
		35.477,54.396 37.394,55.003 37.394,55.003 37.394,55.003 	"/>
	<path style="fill-rule:evenodd;clip-rule:evenodd;fill:#43558F;" d="M36.854,55.165c-0.299,0-0.479-0.121-0.599,0
		c-0.778,0.243-0.778,0.243-0.778,0.243c0.179,0,0.299,0,0.479,0c0.42,0.161,0.719,0.445,0.719,0.688
		c0,0.161-0.119,0.243-0.299,0.243c0.18,0,0.299-0.082,0.479-0.082c0.12-0.081,0.301-0.081,0.42-0.161c0.12,0,0.12-0.082,0.12-0.243
		C37.394,55.569,37.155,55.328,36.854,55.165"/>
	<path style="fill-rule:evenodd;clip-rule:evenodd;fill:#4F64A7;" d="M35.956,55.772c0.3,0.081,0.479,0.242,0.479,0.404
		c0,0.121-0.179,0.163-0.479,0.121c-0.239-0.08-0.479-0.242-0.479-0.403C35.477,55.772,35.716,55.691,35.956,55.772L35.956,55.772
		L35.956,55.772z M36.255,56.177c0-0.121,0-0.121,0-0.121c-0.239-0.041-0.239-0.041-0.239-0.041c0-0.12,0-0.12,0-0.12
		c-0.061-0.041-0.061-0.041-0.061-0.041c0,0.161,0,0.161,0,0.161c-0.239-0.12-0.239-0.12-0.239-0.12c0,0.12,0,0.12,0,0.12
		c0.239,0.041,0.239,0.041,0.239,0.041c0,0.121,0,0.121,0,0.121c0.061,0.041,0.061,0.041,0.061,0.041c0-0.121,0-0.121,0-0.121
		C36.255,56.177,36.255,56.177,36.255,56.177"/>
	<polygon style="fill-rule:evenodd;clip-rule:evenodd;fill:#4F62A5;" points="35.477,51.807 35.656,51.807 37.394,52.373 
		37.274,52.453 35.477,51.807 35.477,51.807 35.477,51.807 	"/>
	<polygon style="fill-rule:evenodd;clip-rule:evenodd;fill:#FFFFFF;" points="37.394,52.373 37.214,54.396 35.477,53.951 
		35.477,51.807 37.394,52.373 37.394,52.373 37.394,52.373 	"/>
	<path style="fill-rule:evenodd;clip-rule:evenodd;fill:#43558F;" d="M36.854,52.575c-0.299-0.122-0.479-0.122-0.599-0.122
		c-0.778,0.283-0.778,0.283-0.778,0.283c0.179,0,0.299,0,0.479,0.082c0.42,0.081,0.719,0.444,0.719,0.688
		c0,0.081-0.119,0.162-0.119,0.243c0-0.081,0.119-0.081,0.299-0.162c0.12,0,0.301-0.081,0.42-0.081
		c0.12-0.081,0.12-0.161,0.12-0.243C37.394,52.979,37.155,52.656,36.854,52.575"/>
	<path style="fill-rule:evenodd;clip-rule:evenodd;fill:#4F64A7;" d="M35.956,52.656c0.3,0.08,0.479,0.445,0.479,0.729
		s-0.179,0.364-0.479,0.202c-0.239-0.081-0.479-0.485-0.479-0.729C35.477,52.575,35.716,52.453,35.956,52.656L35.956,52.656
		L35.956,52.656z M36.255,53.303c0-0.08,0-0.08,0-0.08c-0.239-0.121-0.239-0.121-0.239-0.121c0-0.243,0-0.243,0-0.243
		c-0.061,0-0.061,0-0.061,0c0,0.161,0,0.161,0,0.161c-0.239-0.08-0.239-0.08-0.239-0.08c0,0.08,0,0.08,0,0.08
		c0.239,0.082,0.239,0.082,0.239,0.082c0,0.283,0,0.283,0,0.283c0.061,0,0.061,0,0.061,0c0-0.162,0-0.162,0-0.162
		C36.255,53.303,36.255,53.303,36.255,53.303"/>
	<polygon style="fill-rule:evenodd;clip-rule:evenodd;fill:#4F62A5;" points="35.477,48.689 35.656,48.568 37.394,49.135 
		37.274,49.216 35.477,48.689 35.477,48.689 35.477,48.689 	"/>
	<polygon style="fill-rule:evenodd;clip-rule:evenodd;fill:#FFFFFF;" points="37.394,49.175 37.214,51.807 35.477,51.239 
		35.477,48.568 37.394,49.175 37.394,49.175 37.394,49.175 	"/>
	<path style="fill-rule:evenodd;clip-rule:evenodd;fill:#43558F;" d="M36.854,49.944c-0.299-0.081-0.479-0.081-0.599,0
		c-0.778,0.122-0.778,0.122-0.778,0.122c0.179-0.042,0.299-0.042,0.479,0c0.42,0.08,0.719,0.201,0.719,0.323
		c0,0.04-0.119,0.081-0.119,0.121c0-0.04,0.119-0.04,0.299-0.04c0.12-0.041,0.301-0.081,0.42-0.081c0.12-0.04,0.12-0.082,0.12-0.122
		C37.394,50.146,37.155,49.984,36.854,49.944"/>
	<path style="fill-rule:evenodd;clip-rule:evenodd;fill:#4F64A7;" d="M35.956,49.944c0.3,0.08,0.479,0.243,0.479,0.405
		c0,0.121-0.179,0.161-0.479,0.121c-0.239-0.081-0.479-0.243-0.479-0.404C35.477,49.944,35.716,49.863,35.956,49.944L35.956,49.944
		L35.956,49.944z M36.255,50.35c0-0.122,0-0.122,0-0.122c-0.239-0.04-0.239-0.04-0.239-0.04c0-0.121,0-0.121,0-0.121
		c-0.061-0.042-0.061-0.042-0.061-0.042c0,0.122,0,0.122,0,0.122c-0.239-0.08-0.239-0.08-0.239-0.08c0,0.08,0,0.08,0,0.08
		c0.239,0.081,0.239,0.081,0.239,0.081c0,0.122,0,0.122,0,0.122c0.061,0.04,0.061,0.04,0.061,0.04c0-0.162,0-0.162,0-0.162
		C36.255,50.35,36.255,50.35,36.255,50.35"/>
	<polygon style="fill-rule:evenodd;clip-rule:evenodd;fill:#4F62A5;" points="35.477,45.978 35.656,45.978 37.394,46.626 
		37.274,46.626 35.477,45.978 35.477,45.978 35.477,45.978 	"/>
	<polygon style="fill-rule:evenodd;clip-rule:evenodd;fill:#FFFFFF;" points="37.394,46.463 37.394,48.568 35.477,48.123 
		35.477,45.978 37.394,46.463 37.394,46.463 37.394,46.463 	"/>
	<path style="fill-rule:evenodd;clip-rule:evenodd;fill:#43558F;" d="M36.854,46.746c-0.18,0-0.479-0.12-0.479,0
		c-0.898,0.243-0.898,0.243-0.898,0.243c0.179,0,0.299,0,0.599,0c0.3,0.162,0.599,0.445,0.599,0.688c0,0.162,0,0.243-0.119,0.243
		c0.119,0,0.119-0.081,0.299-0.081c0.12-0.081,0.301-0.081,0.42-0.162c0.12,0,0.12-0.081,0.12-0.243
		C37.394,47.151,37.155,46.909,36.854,46.746"/>
	<path style="fill-rule:evenodd;clip-rule:evenodd;fill:#4F64A7;" d="M36.016,46.746c0.239,0.203,0.418,0.486,0.418,0.811
		c0,0.283-0.179,0.364-0.418,0.283c-0.3-0.202-0.539-0.485-0.539-0.811C35.477,46.746,35.716,46.626,36.016,46.746L36.016,46.746
		L36.016,46.746z M36.255,47.557c0-0.122,0-0.122,0-0.122c-0.239-0.202-0.239-0.202-0.239-0.202c0-0.203,0-0.203,0-0.203
		c-0.061-0.08-0.061-0.08-0.061-0.08c0,0.283,0,0.283,0,0.283c-0.239-0.203-0.239-0.203-0.239-0.203c0,0.203,0,0.203,0,0.203
		c0.239,0.122,0.239,0.122,0.239,0.122c0,0.202,0,0.202,0,0.202c0.061,0.081,0.061,0.081,0.061,0.081c0-0.203,0-0.203,0-0.203
		C36.255,47.557,36.255,47.557,36.255,47.557"/>
	<polygon style="fill-rule:evenodd;clip-rule:evenodd;fill:#4F62A5;" points="35.477,42.861 35.716,42.739 37.394,43.307 
		37.214,43.388 35.477,42.861 35.477,42.861 35.477,42.861 	"/>
	<polygon style="fill-rule:evenodd;clip-rule:evenodd;fill:#FFFFFF;" points="37.394,43.348 37.394,45.978 35.477,45.411 
		35.716,42.739 37.394,43.348 37.394,43.348 37.394,43.348 	"/>
	<path style="fill-rule:evenodd;clip-rule:evenodd;fill:#43558F;" d="M36.735,44.116c-0.12-0.082-0.301-0.082-0.42-0.082
		c-0.838,0.163-0.838,0.163-0.838,0.163c0.179,0,0.299,0,0.599,0.04c0.239,0.04,0.539,0.202,0.539,0.324c0,0.04,0,0.081-0.181,0.121
		c0.181-0.04,0.301-0.04,0.301-0.081c0.119,0,0.299-0.04,0.42-0.04c0.119-0.041,0.239-0.081,0.239-0.122
		C37.394,44.318,37.155,44.156,36.735,44.116"/>
	<path style="fill-rule:evenodd;clip-rule:evenodd;fill:#4F64A7;" d="M36.016,44.156c0.239,0.041,0.418,0.203,0.418,0.364
		c0,0.122-0.179,0.162-0.418,0.081c-0.3-0.04-0.539-0.242-0.539-0.364C35.477,44.156,35.716,44.034,36.016,44.156L36.016,44.156
		L36.016,44.156z M36.255,44.48c0-0.041,0-0.041,0-0.041c-0.239-0.08-0.239-0.08-0.239-0.08c0-0.122,0-0.122,0-0.122
		c-0.061,0-0.061,0-0.061,0c0,0.081,0,0.081,0,0.081c-0.239-0.041-0.239-0.041-0.239-0.041c0,0.041,0,0.041,0,0.041
		c0.239,0.041,0.239,0.041,0.239,0.041c0,0.161,0,0.161,0,0.161c0.061,0,0.061,0,0.061,0c0-0.081,0-0.081,0-0.081
		C36.255,44.48,36.255,44.48,36.255,44.48"/>
	<polygon style="fill-rule:evenodd;clip-rule:evenodd;fill:#4F62A5;" points="35.477,40.352 35.716,40.149 37.394,40.716 
		37.214,40.798 35.477,40.352 35.477,40.352 35.477,40.352 	"/>
	<polygon style="fill-rule:evenodd;clip-rule:evenodd;fill:#FFFFFF;" points="37.394,40.756 37.394,43.388 35.477,42.821 
		35.477,40.149 37.394,40.756 37.394,40.756 37.394,40.756 	"/>
	<path style="fill-rule:evenodd;clip-rule:evenodd;fill:#43558F;" d="M36.674,40.919c-0.119-0.121-0.299-0.121-0.419,0
		c-0.778,0.242-0.778,0.242-0.778,0.242c0-0.08,0.299-0.08,0.479,0c0.3,0.162,0.6,0.445,0.6,0.688c0,0.081,0,0.161-0.18,0.243
		c0.18,0,0.299-0.082,0.299-0.082c0.18-0.08,0.3-0.161,0.48-0.161c0.119-0.08,0.239-0.162,0.239-0.243
		C37.394,41.323,37.155,40.999,36.674,40.919"/>
	<path style="fill-rule:evenodd;clip-rule:evenodd;fill:#4F64A7;" d="M36.016,41.526c0.239,0.08,0.418,0.243,0.418,0.404
		c0,0.122-0.179,0.162-0.418,0.122c-0.3-0.082-0.539-0.243-0.539-0.405C35.477,41.526,35.716,41.444,36.016,41.526L36.016,41.526
		L36.016,41.526z M36.255,41.931c0-0.121,0-0.121,0-0.121c-0.239-0.04-0.239-0.04-0.239-0.04c0-0.122,0-0.122,0-0.122
		c-0.061-0.041-0.061-0.041-0.061-0.041c0,0.121,0,0.121,0,0.121c-0.239-0.08-0.239-0.08-0.239-0.08c0,0.122,0,0.122,0,0.122
		c0.239,0.04,0.239,0.04,0.239,0.04c0,0.121,0,0.121,0,0.121c0.061,0.04,0.061,0.04,0.061,0.04c0-0.161,0-0.161,0-0.161
		C36.255,41.931,36.255,41.931,36.255,41.931"/>
	<polygon style="fill-rule:evenodd;clip-rule:evenodd;fill:#4F62A5;" points="35.477,37.033 35.716,36.912 37.394,37.479 
		37.214,37.56 35.477,37.033 35.477,37.033 35.477,37.033 	"/>
	<polygon style="fill-rule:evenodd;clip-rule:evenodd;fill:#FFFFFF;" points="37.394,38.045 37.394,40.149 35.477,39.623 
		35.477,37.56 37.394,38.045 37.394,38.045 37.394,38.045 	"/>
	<path style="fill-rule:evenodd;clip-rule:evenodd;fill:#43558F;" d="M36.674,38.207c-0.119,0-0.299,0-0.419,0
		c-0.778,0.162-0.778,0.162-0.778,0.162c0.179,0,0.299,0,0.479,0.04c0.42,0.041,0.719,0.243,0.719,0.324s-0.119,0.121-0.299,0.121
		c0.18,0,0.299,0,0.479-0.04c0.12-0.041,0.301-0.041,0.42-0.081c0,0,0.12-0.041,0.12-0.122
		C37.394,38.49,37.155,38.328,36.674,38.207"/>
	<path style="fill-rule:evenodd;clip-rule:evenodd;fill:#4F64A7;" d="M35.956,38.409c0.3,0.081,0.479,0.445,0.479,0.647
		c0,0.283-0.179,0.445-0.479,0.283c-0.239-0.081-0.479-0.485-0.479-0.729C35.477,38.328,35.716,38.207,35.956,38.409L35.956,38.409
		L35.956,38.409z M36.255,39.057c0-0.081,0-0.081,0-0.081c-0.18-0.202-0.18-0.202-0.18-0.202c0-0.162,0-0.162,0-0.162
		c-0.181-0.121-0.181-0.121-0.181-0.121c0,0.283,0,0.283,0,0.283c-0.179-0.081-0.179-0.081-0.179-0.081c0,0.081,0,0.081,0,0.081
		c0.179,0.081,0.179,0.081,0.179,0.081c0,0.283,0,0.283,0,0.283c0.181,0,0.181,0,0.181,0c0-0.162,0-0.162,0-0.162
		C36.255,39.057,36.255,39.057,36.255,39.057"/>
	<polygon style="fill-rule:evenodd;clip-rule:evenodd;fill:#4F62A5;" points="35.477,34.322 35.716,34.322 37.394,34.767 
		37.214,34.969 35.477,34.322 35.477,34.322 35.477,34.322 	"/>
	<polygon style="fill-rule:evenodd;clip-rule:evenodd;fill:#FFFFFF;" points="37.394,35.05 37.394,37.56 35.477,36.992 
		35.477,34.322 37.394,35.05 37.394,35.05 37.394,35.05 	"/>
	<path style="fill-rule:evenodd;clip-rule:evenodd;fill:#43558F;" d="M36.674,35.091c-0.119-0.122-0.299-0.122-0.419-0.122
		c-0.778,0.364-0.778,0.364-0.778,0.364c0.179-0.081,0.299-0.081,0.479,0c0.42,0.081,0.719,0.445,0.719,0.688
		c0,0.081-0.119,0.162-0.299,0.243c0.18-0.082,0.299-0.082,0.479-0.162c0.12,0,0.301-0.081,0.42-0.081
		c0-0.081,0.12-0.162,0.12-0.243C37.394,35.495,37.155,35.171,36.674,35.091"/>
	<path style="fill-rule:evenodd;clip-rule:evenodd;fill:#4F64A7;" d="M35.956,35.738c0.3,0.04,0.479,0.203,0.479,0.364
		c0,0.121-0.179,0.162-0.479,0.081c-0.239-0.041-0.479-0.242-0.479-0.364C35.477,35.738,35.716,35.617,35.956,35.738L35.956,35.738
		L35.956,35.738z M36.255,36.062c0-0.04,0-0.04,0-0.04c-0.18-0.081-0.18-0.081-0.18-0.081c0-0.122,0-0.122,0-0.122
		c-0.181,0-0.181,0-0.181,0c0,0.081,0,0.081,0,0.081c-0.179-0.041-0.179-0.041-0.179-0.041c0,0.041,0,0.041,0,0.041
		c0.179,0.041,0.179,0.041,0.179,0.041c0,0.162,0,0.162,0,0.162c0.181,0,0.181,0,0.181,0c0-0.081,0-0.081,0-0.081
		C36.255,36.062,36.255,36.062,36.255,36.062"/>
	<polygon style="fill-rule:evenodd;clip-rule:evenodd;fill:#4F62A5;" points="35.477,31.853 35.716,31.731 37.394,32.297 
		37.214,32.379 35.477,31.853 35.477,31.853 35.477,31.853 	"/>
	<polygon style="fill-rule:evenodd;clip-rule:evenodd;fill:#FFFFFF;" points="37.394,32.217 37.394,34.322 35.477,33.876 
		35.477,31.731 37.394,32.217 37.394,32.217 37.394,32.217 	"/>
	<path style="fill-rule:evenodd;clip-rule:evenodd;fill:#43558F;" d="M36.674,32.5c-0.119-0.121-0.299-0.121-0.419,0
		c-0.778,0.243-0.778,0.243-0.778,0.243c0.179-0.081,0.299-0.081,0.479,0c0.42,0.162,0.719,0.445,0.719,0.688
		c0,0.163-0.119,0.243-0.299,0.243c0.18,0,0.299-0.081,0.479-0.081c0.12-0.081,0.301-0.081,0.42-0.163
		c0.12-0.081,0.12-0.162,0.12-0.242C37.394,32.905,37.155,32.662,36.674,32.5"/>
	<path style="fill-rule:evenodd;clip-rule:evenodd;fill:#4F64A7;" d="M35.956,32.5c0.3,0.203,0.479,0.486,0.479,0.81
		c0,0.283-0.179,0.364-0.479,0.283c-0.239-0.203-0.479-0.486-0.479-0.81C35.477,32.5,35.716,32.379,35.956,32.5L35.956,32.5
		L35.956,32.5z M36.255,33.31c0-0.203,0-0.203,0-0.203c-0.239-0.122-0.239-0.122-0.239-0.122c0-0.203,0-0.203,0-0.203
		c-0.061-0.081-0.061-0.081-0.061-0.081c0,0.202,0,0.202,0,0.202c-0.239-0.122-0.239-0.122-0.239-0.122c0,0.203,0,0.203,0,0.203
		c0.239,0.122,0.239,0.122,0.239,0.122c0,0.203,0,0.203,0,0.203c0.061,0.081,0.061,0.081,0.061,0.081c0-0.283,0-0.283,0-0.283
		C36.255,33.31,36.255,33.31,36.255,33.31"/>
	<polygon style="fill-rule:evenodd;clip-rule:evenodd;fill:#4F62A5;" points="35.477,28.493 35.716,28.493 37.394,29.141 
		37.214,29.141 35.477,28.493 35.477,28.493 35.477,28.493 	"/>
	<polygon style="fill-rule:evenodd;clip-rule:evenodd;fill:#FFFFFF;" points="37.394,29.101 37.394,31.731 35.477,31.165 
		35.477,28.493 37.394,29.101 37.394,29.101 37.394,29.101 	"/>
	<path style="fill-rule:evenodd;clip-rule:evenodd;fill:#43558F;" d="M36.854,29.788c-0.299,0-0.479,0-0.599,0
		c-0.778,0.163-0.778,0.163-0.778,0.163c0.179,0,0.299,0,0.479,0c0.42,0.081,0.719,0.243,0.719,0.364
		c0,0.081-0.119,0.121-0.119,0.121s0.119-0.041,0.299-0.041c0.12-0.041,0.301-0.041,0.42-0.081c0.12,0,0.12-0.041,0.12-0.122
		C37.394,30.031,37.155,29.91,36.854,29.788"/>
	<path style="fill-rule:evenodd;clip-rule:evenodd;fill:#4F64A7;" d="M35.956,29.869c0.3,0.082,0.479,0.243,0.479,0.405
		c0,0.122-0.179,0.162-0.479,0.122c-0.239-0.041-0.479-0.243-0.479-0.405C35.477,29.869,35.716,29.788,35.956,29.869L35.956,29.869
		L35.956,29.869z M36.255,30.274c0-0.081,0-0.081,0-0.081c-0.239-0.081-0.239-0.081-0.239-0.081c0-0.122,0-0.122,0-0.122
		c-0.061-0.04-0.061-0.04-0.061-0.04c0,0.162,0,0.162,0,0.162c-0.239-0.041-0.239-0.041-0.239-0.041c0,0.041,0,0.041,0,0.041
		c0.239,0.04,0.239,0.04,0.239,0.04c0,0.122,0,0.122,0,0.122c0.061,0.041,0.061,0.041,0.061,0.041c0-0.122,0-0.122,0-0.122
		C36.255,30.274,36.255,30.274,36.255,30.274"/>
	<polygon style="fill-rule:evenodd;clip-rule:evenodd;fill:#2A3174;" points="1.917,53.223 2.876,53.102 2.876,54.963 1.917,55.044 
		1.917,53.223 1.917,53.223 1.917,53.223 	"/>
	<polygon style="fill-rule:evenodd;clip-rule:evenodd;fill:#4F62A5;" points="0.958,52.656 1.198,52.453 2.876,53.02 2.517,53.102 
		0.958,52.656 0.958,52.656 0.958,52.656 	"/>
	<polygon style="fill-rule:evenodd;clip-rule:evenodd;fill:#FFFFFF;" points="1.917,52.939 1.917,55.044 0.958,54.599 1.079,52.453 
		1.917,52.939 1.917,52.939 1.917,52.939 	"/>
	<path style="fill-rule:evenodd;clip-rule:evenodd;fill:#43558F;" d="M1.618,53.223c-0.06-0.121-0.18-0.121-0.239,0
		c-0.42,0.243-0.42,0.243-0.42,0.243c0.12-0.081,0.18-0.081,0.3,0c0.12,0.162,0.3,0.445,0.3,0.688c0,0.161,0,0.243-0.121,0.243
		c0.121,0,0.18-0.082,0.18-0.082c0.061-0.08,0.12-0.08,0.18-0.161c0.06,0,0.12-0.08,0.12-0.242
		C1.917,53.628,1.798,53.385,1.618,53.223"/>
	<path style="fill-rule:evenodd;clip-rule:evenodd;fill:#4F64A7;" d="M1.498,53.223c0.239,0.202,0.419,0.485,0.419,0.809
		c0,0.283-0.18,0.365-0.419,0.283c-0.3-0.201-0.54-0.484-0.54-0.809C0.958,53.223,1.198,53.102,1.498,53.223L1.498,53.223
		L1.498,53.223z M1.737,54.031c0-0.201,0-0.201,0-0.201c-0.239-0.122-0.239-0.122-0.239-0.122c0-0.202,0-0.202,0-0.202
		c-0.061-0.081-0.061-0.081-0.061-0.081c0,0.203,0,0.203,0,0.203c-0.239-0.122-0.239-0.122-0.239-0.122c0,0.202,0,0.202,0,0.202
		c0.239,0.122,0.239,0.122,0.239,0.122c0,0.201,0,0.201,0,0.201c0.061,0.082,0.061,0.082,0.061,0.082c0-0.283,0-0.283,0-0.283
		C1.737,54.031,1.737,54.031,1.737,54.031"/>
	<polygon style="fill-rule:evenodd;clip-rule:evenodd;fill:#2A3174;" points="1.917,49.984 2.876,49.863 2.876,52.373 1.917,52.453 
		1.917,49.984 1.917,49.984 1.917,49.984 	"/>
	<polygon style="fill-rule:evenodd;clip-rule:evenodd;fill:#4F62A5;" points="0.958,49.338 1.198,49.216 2.876,49.782 2.517,49.863 
		0.958,49.338 0.958,49.338 0.958,49.338 	"/>
	<polygon style="fill-rule:evenodd;clip-rule:evenodd;fill:#FFFFFF;" points="1.917,49.823 1.917,52.453 0.958,51.766 1.079,49.216 
		1.917,49.823 1.917,49.823 1.917,49.823 	"/>
	<path style="fill-rule:evenodd;clip-rule:evenodd;fill:#43558F;" d="M1.618,50.511c-0.06,0-0.18,0-0.239,0
		c-0.42,0.162-0.42,0.162-0.42,0.162c0.12,0,0.18,0,0.3,0c0.12,0.081,0.3,0.243,0.3,0.363c0,0.082,0,0.122-0.121,0.122
		c0.121,0,0.18-0.04,0.18-0.04c0.061-0.04,0.12-0.04,0.18-0.082c0.06,0,0.12-0.04,0.12-0.12C1.917,50.754,1.798,50.633,1.618,50.511
		"/>
	<path style="fill-rule:evenodd;clip-rule:evenodd;fill:#4F64A7;" d="M1.498,50.592c0.239,0.081,0.419,0.243,0.419,0.404
		c0,0.122-0.18,0.162-0.419,0.122c-0.3-0.04-0.54-0.243-0.54-0.405C0.958,50.592,1.198,50.511,1.498,50.592L1.498,50.592
		L1.498,50.592z M1.737,50.996c0-0.08,0-0.08,0-0.08c-0.239-0.081-0.239-0.081-0.239-0.081c0-0.122,0-0.122,0-0.122
		c-0.061-0.04-0.061-0.04-0.061-0.04c0,0.162,0,0.162,0,0.162c-0.239-0.04-0.239-0.04-0.239-0.04c0,0.04,0,0.04,0,0.04
		c0.239,0.04,0.239,0.04,0.239,0.04c0,0.121,0,0.121,0,0.121c0.061,0.04,0.061,0.04,0.061,0.04c0-0.12,0-0.12,0-0.12
		C1.737,50.996,1.737,50.996,1.737,50.996"/>
	<polygon style="fill-rule:evenodd;clip-rule:evenodd;fill:#2A3174;" points="1.917,47.395 2.876,47.272 2.876,49.863 1.917,49.863 
		1.917,47.395 1.917,47.395 1.917,47.395 	"/>
	<polygon style="fill-rule:evenodd;clip-rule:evenodd;fill:#4F62A5;" points="0.958,46.626 1.198,46.626 2.876,47.192 2.517,47.272 
		0.958,46.626 0.958,46.626 0.958,46.626 	"/>
	<polygon style="fill-rule:evenodd;clip-rule:evenodd;fill:#FFFFFF;" points="1.917,47.354 1.917,49.863 0.958,49.296 0.958,46.626 
		1.917,47.354 1.917,47.354 1.917,47.354 	"/>
	<path style="fill-rule:evenodd;clip-rule:evenodd;fill:#43558F;" d="M1.558,47.395c-0.06-0.122-0.121-0.122-0.18-0.122
		c-0.42,0.284-0.42,0.284-0.42,0.284s0.18,0,0.24,0.081c0.18,0.08,0.3,0.445,0.3,0.688c0,0.08,0,0.161-0.061,0.242
		c0.061-0.081,0.121-0.081,0.121-0.162c0.12,0,0.179-0.08,0.24-0.08c0.06-0.082,0.12-0.163,0.12-0.243
		C1.917,47.8,1.798,47.476,1.558,47.395"/>
	<path style="fill-rule:evenodd;clip-rule:evenodd;fill:#4F64A7;" d="M1.498,48.043c0.239,0.04,0.419,0.201,0.419,0.363
		c0,0.121-0.18,0.162-0.419,0.081c-0.3-0.041-0.54-0.243-0.54-0.364C0.958,48.001,1.198,47.921,1.498,48.043L1.498,48.043
		L1.498,48.043z M1.857,48.366c0-0.04,0-0.04,0-0.04c-0.359-0.082-0.359-0.082-0.359-0.082c0-0.121,0-0.121,0-0.121
		c-0.061,0-0.061,0-0.061,0c0,0.081,0,0.081,0,0.081c-0.239-0.041-0.239-0.041-0.239-0.041c0,0.041,0,0.041,0,0.041
		c0.239,0.04,0.239,0.04,0.239,0.04c0,0.162,0,0.162,0,0.162c0.061,0,0.061,0,0.061,0c0-0.08,0-0.08,0-0.08
		C1.857,48.366,1.857,48.366,1.857,48.366"/>
	<polygon style="fill-rule:evenodd;clip-rule:evenodd;fill:#2A3174;" points="1.917,44.156 2.876,44.034 2.876,46.626 1.917,46.626 
		1.917,44.156 1.917,44.156 1.917,44.156 	"/>
	<polygon style="fill-rule:evenodd;clip-rule:evenodd;fill:#4F62A5;" points="0.958,43.509 1.198,43.388 2.876,43.954 2.517,44.034 
		0.958,43.509 0.958,43.509 0.958,43.509 	"/>
	<polygon style="fill-rule:evenodd;clip-rule:evenodd;fill:#FFFFFF;" points="1.917,44.521 1.917,46.626 0.958,46.18 0.958,44.034 
		1.917,44.521 1.917,44.521 1.917,44.521 	"/>
	<path style="fill-rule:evenodd;clip-rule:evenodd;fill:#43558F;" d="M1.558,44.764c-0.06-0.081-0.121-0.081-0.18,0
		c-0.42,0.121-0.42,0.121-0.42,0.121c0.12-0.04,0.18-0.04,0.24,0c0.239,0.081,0.36,0.203,0.36,0.324c0,0.08-0.06,0.122-0.121,0.122
		c0.061,0,0.121-0.042,0.241-0.042c0.059-0.04,0.12-0.04,0.179-0.08c0,0,0.06-0.041,0.06-0.121
		C1.917,44.966,1.798,44.845,1.558,44.764"/>
	<path style="fill-rule:evenodd;clip-rule:evenodd;fill:#4F64A7;" d="M1.438,44.805c0.3,0.201,0.48,0.484,0.48,0.809
		c0,0.283-0.18,0.364-0.48,0.283c-0.239-0.202-0.479-0.485-0.479-0.809C0.958,44.805,1.258,44.683,1.438,44.805L1.438,44.805
		L1.438,44.805z M1.737,45.613c0-0.202,0-0.202,0-0.202c-0.179-0.122-0.179-0.122-0.179-0.122c0-0.201,0-0.201,0-0.201
		c-0.18-0.082-0.18-0.082-0.18-0.082c0,0.203,0,0.203,0,0.203c-0.18-0.121-0.18-0.121-0.18-0.121c0,0.201,0,0.201,0,0.201
		c0.18,0.122,0.18,0.122,0.18,0.122c0,0.202,0,0.202,0,0.202c0.18,0.081,0.18,0.081,0.18,0.081c0-0.283,0-0.283,0-0.283
		C1.737,45.613,1.737,45.613,1.737,45.613"/>
	<polygon style="fill-rule:evenodd;clip-rule:evenodd;fill:#2A3174;" points="1.917,41.444 2.876,41.444 2.876,43.954 1.917,44.034 
		1.917,41.444 1.917,41.444 1.917,41.444 	"/>
	<polygon style="fill-rule:evenodd;clip-rule:evenodd;fill:#4F62A5;" points="0.958,40.798 1.198,40.798 2.876,41.444 2.517,41.444 
		0.958,40.798 0.958,40.798 0.958,40.798 	"/>
	<polygon style="fill-rule:evenodd;clip-rule:evenodd;fill:#FFFFFF;" points="1.917,41.404 1.917,44.034 0.958,43.469 0.958,40.798 
		1.917,41.404 1.917,41.404 1.917,41.404 	"/>
	<path style="fill-rule:evenodd;clip-rule:evenodd;fill:#43558F;" d="M1.558,41.566c-0.06,0-0.121-0.122-0.18,0
		c-0.42,0.243-0.42,0.243-0.42,0.243c0.12,0,0.18,0,0.24,0c0.239,0.161,0.36,0.444,0.36,0.688c0,0.162-0.06,0.242-0.121,0.242
		c0.061,0,0.121-0.08,0.241-0.08c0.059-0.081,0.12-0.081,0.179-0.162c0.06,0,0.06-0.081,0.06-0.243
		C1.917,41.971,1.798,41.728,1.558,41.566"/>
	<path style="fill-rule:evenodd;clip-rule:evenodd;fill:#4F64A7;" d="M1.438,42.173c0.3,0.081,0.48,0.243,0.48,0.405
		c0,0.121-0.18,0.161-0.48,0.121c-0.239-0.08-0.479-0.243-0.479-0.404C0.958,42.173,1.198,42.093,1.438,42.173L1.438,42.173
		L1.438,42.173z M1.737,42.578c0-0.122,0-0.122,0-0.122c-0.239-0.04-0.239-0.04-0.239-0.04c0-0.121,0-0.121,0-0.121
		c-0.061-0.041-0.061-0.041-0.061-0.041c0,0.162,0,0.162,0,0.162c-0.239-0.121-0.239-0.121-0.239-0.121c0,0.121,0,0.121,0,0.121
		c0.239,0.04,0.239,0.04,0.239,0.04c0,0.122,0,0.122,0,0.122c0.061,0.041,0.061,0.041,0.061,0.041c0-0.122,0-0.122,0-0.122
		C1.737,42.578,1.737,42.578,1.737,42.578"/>
	<polygon style="fill-rule:evenodd;clip-rule:evenodd;fill:#2A3174;" points="2.396,38.328 2.876,38.207 2.876,40.716 1.917,40.798 
		2.396,38.328 2.396,38.328 2.396,38.328 	"/>
	<polygon style="fill-rule:evenodd;clip-rule:evenodd;fill:#4F62A5;" points="0.958,38.328 1.198,38.207 2.876,38.773 2.696,38.854 
		0.958,38.328 0.958,38.328 0.958,38.328 	"/>
	<polygon style="fill-rule:evenodd;clip-rule:evenodd;fill:#FFFFFF;" points="1.917,38.692 1.857,40.798 0.958,40.352 0.958,38.207 
		1.917,38.692 1.917,38.692 1.917,38.692 	"/>
	<path style="fill-rule:evenodd;clip-rule:evenodd;fill:#43558F;" d="M1.678,38.976c-0.18-0.121-0.241-0.121-0.3-0.121
		c-0.42,0.283-0.42,0.283-0.42,0.283c0.12,0,0.18,0,0.24,0.081c0.239,0.081,0.36,0.445,0.36,0.688c0,0.08-0.06,0.161-0.06,0.242
		c0-0.081,0.06-0.081,0.18-0.162c0.059,0,0.12-0.08,0.179-0.08c0.06-0.081,0.06-0.162,0.06-0.243
		C1.917,39.381,1.798,39.057,1.678,38.976"/>
	<path style="fill-rule:evenodd;clip-rule:evenodd;fill:#4F64A7;" d="M1.438,39.057c0.3,0.081,0.48,0.445,0.48,0.729
		s-0.18,0.364-0.48,0.202c-0.239-0.08-0.479-0.485-0.479-0.729C0.958,38.976,1.198,38.854,1.438,39.057L1.438,39.057L1.438,39.057z
		 M1.737,39.704c0-0.081,0-0.081,0-0.081c-0.239-0.121-0.239-0.121-0.239-0.121c0-0.243,0-0.243,0-0.243c-0.061,0-0.061,0-0.061,0
		c0,0.162,0,0.162,0,0.162C1.198,39.34,1.198,39.34,1.198,39.34c0,0.081,0,0.081,0,0.081c0.239,0.081,0.239,0.081,0.239,0.081
		c0,0.283,0,0.283,0,0.283c0.061,0,0.061,0,0.061,0c0-0.162,0-0.162,0-0.162C1.737,39.704,1.737,39.704,1.737,39.704"/>
	<polygon style="fill-rule:evenodd;clip-rule:evenodd;fill:#2A3174;" points="2.396,35.738 2.876,35.617 2.876,38.126 1.917,38.207 
		2.396,35.738 2.396,35.738 2.396,35.738 	"/>
	<polygon style="fill-rule:evenodd;clip-rule:evenodd;fill:#4F62A5;" points="0.958,35.171 1.198,34.969 2.876,35.536 2.696,35.617 
		0.958,35.171 0.958,35.171 0.958,35.171 	"/>
	<polygon style="fill-rule:evenodd;clip-rule:evenodd;fill:#FFFFFF;" points="1.917,35.576 1.857,38.207 0.958,37.641 0.958,34.969 
		1.917,35.576 1.917,35.576 1.917,35.576 	"/>
	<path style="fill-rule:evenodd;clip-rule:evenodd;fill:#43558F;" d="M1.678,36.345c-0.18-0.08-0.241-0.08-0.3,0
		c-0.42,0.122-0.42,0.122-0.42,0.122c0.12-0.041,0.18-0.041,0.24,0c0.239,0.081,0.36,0.202,0.36,0.323
		c0,0.041-0.06,0.081-0.06,0.122c0-0.041,0.06-0.041,0.18-0.041c0.059-0.04,0.12-0.081,0.179-0.081c0.06-0.04,0.06-0.081,0.06-0.121
		C1.917,36.548,1.798,36.386,1.678,36.345"/>
	<path style="fill-rule:evenodd;clip-rule:evenodd;fill:#4F64A7;" d="M1.438,36.345c0.3,0.081,0.48,0.243,0.48,0.405
		c0,0.121-0.18,0.162-0.48,0.121c-0.239-0.081-0.479-0.242-0.479-0.404C0.958,36.345,1.198,36.265,1.438,36.345L1.438,36.345
		L1.438,36.345z M1.737,36.75c0-0.121,0-0.121,0-0.121c-0.239-0.041-0.239-0.041-0.239-0.041c0-0.121,0-0.121,0-0.121
		c-0.061-0.041-0.061-0.041-0.061-0.041c0,0.122,0,0.122,0,0.122c-0.239-0.081-0.239-0.081-0.239-0.081c0,0.081,0,0.081,0,0.081
		c0.239,0.081,0.239,0.081,0.239,0.081c0,0.121,0,0.121,0,0.121c0.061,0.04,0.061,0.04,0.061,0.04c0-0.161,0-0.161,0-0.161
		C1.737,36.75,1.737,36.75,1.737,36.75"/>
	<polygon style="fill-rule:evenodd;clip-rule:evenodd;fill:#2A3174;" points="1.917,33.147 2.876,33.026 2.876,34.969 1.917,34.969 
		1.917,33.147 1.917,33.147 1.917,33.147 	"/>
	<polygon style="fill-rule:evenodd;clip-rule:evenodd;fill:#4F62A5;" points="0.958,32.5 1.198,32.379 2.876,32.946 2.696,33.026 
		0.958,32.5 0.958,32.5 0.958,32.5 	"/>
	<polygon style="fill-rule:evenodd;clip-rule:evenodd;fill:#FFFFFF;" points="1.917,32.864 1.917,34.969 0.958,34.524 0.958,32.379 
		1.917,32.864 1.917,32.864 1.917,32.864 	"/>
	<path style="fill-rule:evenodd;clip-rule:evenodd;fill:#43558F;" d="M1.678,33.147c-0.12,0-0.241-0.121-0.241,0
		c-0.479,0.243-0.479,0.243-0.479,0.243c0.12,0,0.18,0,0.3,0c0.179,0.162,0.3,0.445,0.3,0.688c0,0.162,0,0.243-0.06,0.243
		c0.06,0,0.06-0.081,0.18-0.081c0.059-0.081,0.12-0.081,0.179-0.162c0.06,0,0.06-0.081,0.06-0.243
		C1.917,33.552,1.798,33.31,1.678,33.147"/>
	<path style="fill-rule:evenodd;clip-rule:evenodd;fill:#4F64A7;" d="M1.498,33.147c0.239,0.203,0.419,0.486,0.419,0.81
		c0,0.283-0.18,0.364-0.48,0.283c-0.239-0.203-0.479-0.486-0.479-0.81C0.958,33.147,1.198,33.026,1.498,33.147L1.498,33.147
		L1.498,33.147z M1.737,33.958c0-0.122,0-0.122,0-0.122c-0.239-0.203-0.239-0.203-0.239-0.203c0-0.203,0-0.203,0-0.203
		C1.438,33.35,1.438,33.35,1.438,33.35c0,0.283,0,0.283,0,0.283c-0.239-0.203-0.239-0.203-0.239-0.203c0,0.203,0,0.203,0,0.203
		c0.239,0.122,0.239,0.122,0.239,0.122c0,0.203,0,0.203,0,0.203c0.061,0.081,0.061,0.081,0.061,0.081c0-0.202,0-0.202,0-0.202
		C1.737,33.958,1.737,33.958,1.737,33.958"/>
	<polygon style="fill-rule:evenodd;clip-rule:evenodd;fill:#2A3174;" points="1.917,29.91 2.876,29.788 2.876,32.297 1.917,32.379 
		1.917,29.91 1.917,29.91 1.917,29.91 	"/>
	<polygon style="fill-rule:evenodd;clip-rule:evenodd;fill:#4F62A5;" points="0.958,29.141 1.198,29.141 2.876,29.708 2.696,29.788 
		0.958,29.141 0.958,29.141 0.958,29.141 	"/>
	<polygon style="fill-rule:evenodd;clip-rule:evenodd;fill:#FFFFFF;" points="1.917,29.869 1.917,32.379 0.958,31.813 0.958,29.141 
		1.917,29.869 1.917,29.869 1.917,29.869 	"/>
	<path style="fill-rule:evenodd;clip-rule:evenodd;fill:#43558F;" d="M1.618,30.517c-0.06-0.081-0.18-0.081-0.239-0.081
		c-0.42,0.162-0.42,0.162-0.42,0.162c0.12,0,0.18,0,0.3,0.04c0.12,0.041,0.3,0.203,0.3,0.324c0,0.04,0,0.081-0.121,0.122
		c0.121-0.041,0.121-0.041,0.18-0.082c0.061,0,0.12-0.04,0.18-0.04c0.06-0.041,0.12-0.081,0.12-0.122
		C1.917,30.719,1.737,30.558,1.618,30.517"/>
	<path style="fill-rule:evenodd;clip-rule:evenodd;fill:#4F64A7;" d="M1.498,30.558c0.239,0.041,0.419,0.202,0.419,0.364
		c0,0.121-0.18,0.162-0.419,0.081c-0.3-0.04-0.54-0.243-0.54-0.364C0.958,30.558,1.198,30.436,1.498,30.558L1.498,30.558
		L1.498,30.558z M1.737,30.881c0-0.041,0-0.041,0-0.041C1.498,30.76,1.498,30.76,1.498,30.76c0-0.122,0-0.122,0-0.122
		c-0.061,0-0.061,0-0.061,0c0,0.081,0,0.081,0,0.081c-0.239-0.04-0.239-0.04-0.239-0.04c0,0.04,0,0.04,0,0.04
		c0.239,0.041,0.239,0.041,0.239,0.041c0,0.162,0,0.162,0,0.162c0.061,0,0.061,0,0.061,0c0-0.081,0-0.081,0-0.081
		C1.737,30.881,1.737,30.881,1.737,30.881"/>
	<polygon style="fill-rule:evenodd;clip-rule:evenodd;fill:#2A3174;" points="1.917,27.32 2.876,27.198 2.876,29.788 1.917,29.788 
		1.917,27.32 1.917,27.32 1.917,27.32 	"/>
	<polygon style="fill-rule:evenodd;clip-rule:evenodd;fill:#4F62A5;" points="0.958,26.672 1.198,26.551 2.876,27.117 2.696,27.198 
		0.958,26.672 0.958,26.672 0.958,26.672 	"/>
	<polygon style="fill-rule:evenodd;clip-rule:evenodd;fill:#FFFFFF;" points="1.917,27.157 1.917,29.788 0.958,29.222 0.958,26.551 
		1.917,27.157 1.917,27.157 1.917,27.157 	"/>
	<path style="fill-rule:evenodd;clip-rule:evenodd;fill:#43558F;" d="M1.558,27.32c-0.06-0.122-0.121-0.122-0.18,0
		c-0.42,0.243-0.42,0.243-0.42,0.243c0-0.081,0.18-0.081,0.24,0c0.18,0.162,0.3,0.445,0.3,0.688c0,0.081,0,0.243-0.061,0.243
		c0.061,0,0.121-0.081,0.121-0.081c0.12-0.081,0.179-0.162,0.24-0.162c0.06-0.081,0.12-0.162,0.12-0.243
		C1.917,27.724,1.798,27.4,1.558,27.32"/>
	<path style="fill-rule:evenodd;clip-rule:evenodd;fill:#4F64A7;" d="M1.498,27.927c0.239,0.081,0.419,0.243,0.419,0.405
		c0,0.122-0.18,0.162-0.419,0.122c-0.3-0.081-0.54-0.243-0.54-0.405C0.958,27.927,1.198,27.846,1.498,27.927L1.498,27.927
		L1.498,27.927z M1.737,28.332c0-0.122,0-0.122,0-0.122c-0.239-0.04-0.239-0.04-0.239-0.04c0-0.122,0-0.122,0-0.122
		c-0.061-0.041-0.061-0.041-0.061-0.041c0,0.122,0,0.122,0,0.122c-0.239-0.081-0.239-0.081-0.239-0.081c0,0.122,0,0.122,0,0.122
		c0.239,0.04,0.239,0.04,0.239,0.04c0,0.122,0,0.122,0,0.122c0.061,0.041,0.061,0.041,0.061,0.041c0-0.162,0-0.162,0-0.162
		C1.737,28.332,1.737,28.332,1.737,28.332"/>
	<polygon style="fill-rule:evenodd;clip-rule:evenodd;fill:#2A3174;" points="1.917,23.96 2.876,23.96 2.876,26.47 1.917,26.551 
		1.917,23.96 1.917,23.96 1.917,23.96 	"/>
	<polygon style="fill-rule:evenodd;clip-rule:evenodd;fill:#FFFFFF;" points="1.917,24.446 1.917,26.551 0.958,26.105 0.958,23.96 
		1.917,24.446 1.917,24.446 1.917,24.446 	"/>
	<path style="fill-rule:evenodd;clip-rule:evenodd;fill:#43558F;" d="M1.558,24.608c-0.06,0-0.121,0-0.18,0
		c-0.42,0.162-0.42,0.162-0.42,0.162c0.12,0,0.18,0,0.24,0.041c0.239,0.04,0.36,0.243,0.36,0.323c0,0.081-0.06,0.122-0.121,0.122
		c0.061,0,0.121,0,0.241-0.041c0.059-0.04,0.12-0.04,0.12-0.081c0.06,0,0.12-0.04,0.12-0.122
		C1.917,24.891,1.798,24.729,1.558,24.608"/>
	<path style="fill-rule:evenodd;clip-rule:evenodd;fill:#4F64A7;" d="M1.438,24.811c0.3,0.081,0.48,0.445,0.48,0.647
		c0,0.283-0.239,0.445-0.48,0.283c-0.239-0.081-0.479-0.486-0.479-0.729C0.958,24.729,1.198,24.608,1.438,24.811L1.438,24.811
		L1.438,24.811z M1.737,25.458c0-0.081,0-0.081,0-0.081c-0.179-0.202-0.179-0.202-0.179-0.202c0-0.163,0-0.163,0-0.163
		c-0.18-0.121-0.18-0.121-0.18-0.121c0,0.284,0,0.284,0,0.284c-0.18-0.081-0.18-0.081-0.18-0.081c0,0.081,0,0.081,0,0.081
		c0.18,0.081,0.18,0.081,0.18,0.081c0,0.284,0,0.284,0,0.284c0.18,0,0.18,0,0.18,0c0-0.162,0-0.162,0-0.162
		C1.737,25.458,1.737,25.458,1.737,25.458"/>
	<polygon style="fill-rule:evenodd;clip-rule:evenodd;fill:#2A3174;" points="1.917,21.491 2.876,21.37 2.876,23.879 1.917,23.96 
		1.917,21.491 1.917,21.491 1.917,21.491 	"/>
	<polygon style="fill-rule:evenodd;clip-rule:evenodd;fill:#4F62A5;" points="0.958,20.844 1.198,20.722 2.876,21.289 2.696,21.37 
		0.958,20.844 0.958,20.844 0.958,20.844 	"/>
	<polygon style="fill-rule:evenodd;clip-rule:evenodd;fill:#FFFFFF;" points="1.917,21.33 1.917,23.96 0.958,23.394 0.958,20.722 
		1.917,21.33 1.917,21.33 1.917,21.33 	"/>
	<path style="fill-rule:evenodd;clip-rule:evenodd;fill:#43558F;" d="M1.558,22.099c-0.06-0.082-0.121-0.082-0.18-0.082
		c-0.42,0.203-0.42,0.203-0.42,0.203c0.12-0.04,0.18-0.04,0.24,0c0.239,0.041,0.36,0.203,0.36,0.324c0,0.04-0.06,0.081-0.121,0.122
		c0.061-0.041,0.121-0.041,0.241-0.082c0.059,0,0.12-0.04,0.12-0.04c0.06-0.041,0.12-0.081,0.12-0.122
		C1.917,22.301,1.798,22.139,1.558,22.099"/>
	<path style="fill-rule:evenodd;clip-rule:evenodd;fill:#4F64A7;" d="M1.438,22.139c0.3,0.041,0.48,0.203,0.48,0.364
		c0,0.122-0.239,0.163-0.48,0.081c-0.239-0.04-0.479-0.243-0.479-0.364C0.958,22.139,1.198,22.017,1.438,22.139L1.438,22.139
		L1.438,22.139z M1.737,22.463c0-0.041,0-0.041,0-0.041c-0.179-0.081-0.179-0.081-0.179-0.081c0-0.122,0-0.122,0-0.122
		c-0.18,0-0.18,0-0.18,0c0,0.081,0,0.081,0,0.081c-0.18-0.04-0.18-0.04-0.18-0.04c0,0.04,0,0.04,0,0.04
		c0.18,0.041,0.18,0.041,0.18,0.041c0,0.162,0,0.162,0,0.162c0.18,0,0.18,0,0.18,0c0-0.081,0-0.081,0-0.081
		C1.737,22.463,1.737,22.463,1.737,22.463"/>
	<polygon style="fill-rule:evenodd;clip-rule:evenodd;fill:#2A3174;" points="1.917,18.901 2.876,18.78 2.876,20.642 1.917,20.722 
		1.917,18.901 1.917,18.901 1.917,18.901 	"/>
	<polygon style="fill-rule:evenodd;clip-rule:evenodd;fill:#4F62A5;" points="0.958,18.334 1.198,18.132 2.876,18.699 2.696,18.78 
		0.958,18.334 0.958,18.334 0.958,18.334 	"/>
	<polygon style="fill-rule:evenodd;clip-rule:evenodd;fill:#FFFFFF;" points="1.917,18.618 1.917,20.722 0.958,20.277 0.958,18.132 
		1.917,18.618 1.917,18.618 1.917,18.618 	"/>
	<path style="fill-rule:evenodd;clip-rule:evenodd;fill:#43558F;" d="M1.558,18.901c-0.06-0.122-0.121-0.122-0.18,0
		c-0.42,0.243-0.42,0.243-0.42,0.243c0.12-0.081,0.18-0.081,0.24,0c0.239,0.162,0.36,0.445,0.36,0.688
		c0,0.162-0.06,0.243-0.121,0.243c0.061,0,0.121-0.081,0.241-0.081c0.059-0.081,0.12-0.081,0.179-0.162
		c0-0.081,0.06-0.162,0.06-0.243C1.917,19.306,1.798,19.063,1.558,18.901"/>
	<path style="fill-rule:evenodd;clip-rule:evenodd;fill:#4F64A7;" d="M1.438,18.901c0.3,0.202,0.48,0.486,0.48,0.809
		c0,0.283-0.18,0.364-0.48,0.283c-0.239-0.202-0.479-0.486-0.479-0.809C0.958,18.901,1.198,18.78,1.438,18.901L1.438,18.901
		L1.438,18.901z M1.737,19.71c0-0.203,0-0.203,0-0.203c-0.239-0.121-0.239-0.121-0.239-0.121c0-0.203,0-0.203,0-0.203
		c-0.061-0.081-0.061-0.081-0.061-0.081c0,0.202,0,0.202,0,0.202c-0.359-0.121-0.359-0.121-0.359-0.121c0,0.203,0,0.203,0,0.203
		c0.359,0.121,0.359,0.121,0.359,0.121c0,0.203,0,0.203,0,0.203c0.061,0.081,0.061,0.081,0.061,0.081c0-0.284,0-0.284,0-0.284
		C1.737,19.71,1.737,19.71,1.737,19.71"/>
	<polygon style="fill-rule:evenodd;clip-rule:evenodd;fill:#2A3174;" points="1.917,15.664 2.876,15.542 2.876,18.051 1.917,18.132 
		1.917,15.664 1.917,15.664 1.917,15.664 	"/>
	<polygon style="fill-rule:evenodd;clip-rule:evenodd;fill:#4F62A5;" points="0.958,15.016 1.139,14.895 2.876,15.461 2.577,15.542 
		0.958,15.016 0.958,15.016 0.958,15.016 	"/>
	<polygon style="fill-rule:evenodd;clip-rule:evenodd;fill:#FFFFFF;" points="1.917,15.501 1.917,18.132 0.958,17.444 0.958,14.895 
		1.917,15.501 1.917,15.501 1.917,15.501 	"/>
	<path style="fill-rule:evenodd;clip-rule:evenodd;fill:#43558F;" d="M1.678,16.189c-0.18,0-0.241,0-0.3,0
		c-0.42,0.162-0.42,0.162-0.42,0.162c0.12,0,0.18,0,0.24,0c0.239,0.081,0.36,0.243,0.36,0.364c0,0.081-0.06,0.122-0.06,0.122
		s0.06-0.041,0.18-0.041c0.059-0.04,0.12-0.04,0.179-0.081c0.06,0,0.06-0.04,0.06-0.121C1.917,16.432,1.798,16.311,1.678,16.189"/>
	<path style="fill-rule:evenodd;clip-rule:evenodd;fill:#4F64A7;" d="M1.438,16.271c0.3,0.081,0.48,0.243,0.48,0.405
		c0,0.121-0.18,0.162-0.48,0.121c-0.239-0.04-0.479-0.243-0.479-0.404C0.958,16.271,1.198,16.189,1.438,16.271L1.438,16.271
		L1.438,16.271z M1.737,16.675c0-0.081,0-0.081,0-0.081c-0.239-0.081-0.239-0.081-0.239-0.081c0-0.121,0-0.121,0-0.121
		c-0.061-0.041-0.061-0.041-0.061-0.041c0,0.162,0,0.162,0,0.162c-0.239-0.041-0.239-0.041-0.239-0.041c0,0.041,0,0.041,0,0.041
		c0.239,0.041,0.239,0.041,0.239,0.041c0,0.122,0,0.122,0,0.122c0.061,0.04,0.061,0.04,0.061,0.04c0-0.121,0-0.121,0-0.121
		C1.737,16.675,1.737,16.675,1.737,16.675"/>
	<polygon style="fill-rule:evenodd;clip-rule:evenodd;fill:#4F62A5;" points="2.876,53.223 3.235,53.102 35.477,65.324 
		35.356,65.405 2.876,53.223 2.876,53.223 2.876,53.223 	"/>
	<polygon style="fill-rule:evenodd;clip-rule:evenodd;fill:#FFFFFF;" points="35.477,65.566 35.477,67.995 2.876,55.569 
		2.876,53.102 35.477,65.566 35.477,65.566 35.477,65.566 	"/>
	<path style="fill-rule:evenodd;clip-rule:evenodd;fill:#3F5089;" d="M16.18,59.213c0,0.04,0.12,0.04,0.12,0.04
		c0,0.323,0,0.323,0,0.323h-0.12c-1.618-0.241-1.618-0.241-1.618-0.241c-0.18,0-0.18-0.042-0.18-0.042c0-0.323,0-0.323,0-0.323
		c0-0.04,0.18-0.04,0.18-0.04C16.18,59.213,16.18,59.213,16.18,59.213L16.18,59.213"/>
	<path style="fill-rule:evenodd;clip-rule:evenodd;fill:#3F5089;" d="M18.098,59.901c0,0,0.12,0,0.12,0.04c0,0.283,0,0.283,0,0.283
		h-0.12c-1.618-0.243-1.618-0.243-1.618-0.243c-0.18,0-0.18-0.04-0.18-0.04c0-0.323,0-0.323,0-0.323c0-0.042,0-0.042,0.18-0.042
		C18.098,59.901,18.098,59.901,18.098,59.901L18.098,59.901"/>
	<path style="fill-rule:evenodd;clip-rule:evenodd;fill:#3F5089;" d="M21.093,60.872c0,0,0,0,0,0.041c0,0.606,0,0.606,0,0.606l0,0
		c-1.917-0.526-1.917-0.526-1.917-0.526v-0.08c0-0.608,0-0.608,0-0.608s0-0.08,0,0C21.093,60.872,21.093,60.872,21.093,60.872
		L21.093,60.872"/>
	<path style="fill-rule:evenodd;clip-rule:evenodd;fill:#3F5089;" d="M21.993,61.438l0.06,0.081c0,0.607,0,0.607,0,0.607
		c0,0.04-0.06,0.04-0.06,0.04c-0.779-0.525-0.779-0.525-0.779-0.525c-0.121-0.082-0.121-0.082-0.121-0.122c0-0.647,0-0.647,0-0.647
		s0,0,0.121,0C21.993,61.438,21.993,61.438,21.993,61.438L21.993,61.438"/>
	<path style="fill-rule:evenodd;clip-rule:evenodd;fill:#3F5089;" d="M23.911,62.167c0.06,0,0.06,0,0.06,0.041
		c0,0.606,0,0.606,0,0.606s0,0-0.06,0c-0.779-0.526-0.779-0.526-0.779-0.526l-0.119-0.08c0-0.608,0-0.608,0-0.608
		c0-0.08,0.119-0.08,0.119-0.08C23.911,62.167,23.911,62.167,23.911,62.167L23.911,62.167"/>
	<path style="fill-rule:evenodd;clip-rule:evenodd;fill:#3F5089;" d="M25.888,62.733v0.081c0,0.607,0,0.607,0,0.607s0,0.041,0,0
		c-1.918-0.566-1.918-0.566-1.918-0.566s0,0,0-0.041c0-0.647,0-0.647,0-0.647l0,0C25.888,62.733,25.888,62.733,25.888,62.733
		L25.888,62.733"/>
	<path style="fill-rule:evenodd;clip-rule:evenodd;fill:#3F5089;" d="M28.645,64.029c0,0,0.119,0,0.119,0.081
		c0,0.606,0,0.606,0,0.606s-0.119,0.041-0.119,0c-1.618-0.566-1.618-0.566-1.618-0.566s-0.18,0-0.18-0.04c0-0.647,0-0.647,0-0.647
		h0.18C28.645,64.029,28.645,64.029,28.645,64.029L28.645,64.029"/>
	<path style="fill-rule:evenodd;clip-rule:evenodd;fill:#3F5089;" d="M29.663,64.677c0.061,0,0.061,0.081,0.061,0.081
		c0,0.607,0,0.607,0,0.607c0,0.04,0,0.04-0.061,0.04c-0.778-0.526-0.778-0.526-0.778-0.526c0-0.081-0.12-0.081-0.12-0.081
		c0.12-0.688,0.12-0.688,0.12-0.688l0,0C29.663,64.677,29.663,64.677,29.663,64.677L29.663,64.677"/>
	<path style="fill-rule:evenodd;clip-rule:evenodd;fill:#3F5089;" d="M31.641,65.405c0,0,0,0,0,0.04c0,0.607,0,0.607,0,0.607l0,0
		c-0.959-0.526-0.959-0.526-0.959-0.526v-0.081c0-0.607,0-0.607,0-0.607s0-0.08,0,0C31.641,65.405,31.641,65.405,31.641,65.405
		L31.641,65.405"/>
	<path style="fill-rule:evenodd;clip-rule:evenodd;fill:#3F5089;" d="M33.438,65.972l0.12,0.081c-0.12,0.607-0.12,0.607-0.12,0.607
		c0,0.04,0,0.04,0,0.04c-1.617-0.607-1.617-0.607-1.617-0.607c-0.18,0-0.18,0-0.18-0.04c0-0.647,0-0.647,0-0.647s0,0,0.18,0
		C33.438,65.972,33.438,65.972,33.438,65.972L33.438,65.972"/>
	<polygon style="fill-rule:evenodd;clip-rule:evenodd;fill:#4F62A5;" points="2.876,49.984 3.235,49.863 35.477,62.733 
		35.356,62.814 2.876,49.984 2.876,49.984 2.876,49.984 	"/>
	<polygon style="fill-rule:evenodd;clip-rule:evenodd;fill:#FFFFFF;" points="35.477,63.058 35.477,65.405 2.876,52.899 
		2.876,50.511 35.477,63.058 35.477,63.058 35.477,63.058 	"/>
	<path style="fill-rule:evenodd;clip-rule:evenodd;fill:#3F5089;" d="M16.18,56.258c0.12,0,0.12,0,0.12,0.082
		c0,0.646,0,0.646,0,0.646s0,0-0.12,0c-1.618-0.566-1.618-0.566-1.618-0.566s-0.18,0-0.18-0.08c0-0.648,0-0.648,0-0.648h0.18
		C16.18,56.258,16.18,56.258,16.18,56.258L16.18,56.258"/>
	<path style="fill-rule:evenodd;clip-rule:evenodd;fill:#3F5089;" d="M18.098,56.906l0.12,0.08c0,0.607,0,0.607,0,0.607
		c0,0.041-0.12,0.041-0.12,0c-1.618-0.567-1.618-0.567-1.618-0.567s-0.18,0-0.18-0.04c0-0.646,0-0.646,0-0.646h0.18
		C18.098,56.906,18.098,56.906,18.098,56.906L18.098,56.906"/>
	<path style="fill-rule:evenodd;clip-rule:evenodd;fill:#3F5089;" d="M21.093,58.201v0.08c0,0.608,0,0.608,0,0.608
		c0,0.04,0,0.04,0,0.04c-1.737-0.526-1.737-0.526-1.737-0.526c-0.18-0.08-0.18-0.08-0.18-0.08c0-0.688,0-0.688,0-0.688s0,0,0.18,0
		C21.093,58.201,21.093,58.201,21.093,58.201L21.093,58.201"/>
	<path style="fill-rule:evenodd;clip-rule:evenodd;fill:#3F5089;" d="M21.993,58.93c0,0,0.06,0,0.06,0.04c0,0.606,0,0.606,0,0.606
		h-0.06c-0.779-0.525-0.779-0.525-0.779-0.525l-0.121-0.081c0-0.606,0-0.606,0-0.606c0-0.082,0.121-0.082,0.121-0.082
		C21.993,58.93,21.993,58.93,21.993,58.93L21.993,58.93"/>
	<path style="fill-rule:evenodd;clip-rule:evenodd;fill:#3F5089;" d="M23.911,59.496c0.06,0,0.06,0.08,0.06,0.08
		c0,0.608,0,0.608,0,0.608s0,0.04-0.06,0c-0.898-0.566-0.898-0.566-0.898-0.566s0,0,0-0.042c0-0.646,0-0.646,0-0.646l0,0
		C23.911,59.496,23.911,59.496,23.911,59.496L23.911,59.496"/>
	<path style="fill-rule:evenodd;clip-rule:evenodd;fill:#3F5089;" d="M25.888,60.144c0,0.081,0,0.081,0,0.081
		c0,0.606,0,0.606,0,0.606c0,0.041,0,0.041,0,0.041c-1.918-0.525-1.918-0.525-1.918-0.525v-0.082c0-0.606,0-0.606,0-0.606
		c0-0.082,0-0.082,0-0.082C25.888,60.144,25.888,60.144,25.888,60.144L25.888,60.144"/>
	<path style="fill-rule:evenodd;clip-rule:evenodd;fill:#3F5089;" d="M28.645,60.791c0.119,0,0.119,0.081,0.119,0.081
		c0,0.607,0,0.607,0,0.607c0,0.04,0,0.04-0.119,0.04c-1.618-0.526-1.618-0.526-1.618-0.526c0-0.08-0.18-0.08-0.18-0.08
		c0-0.608,0-0.608,0-0.608c0-0.08,0.18-0.08,0.18-0.08C28.645,60.791,28.645,60.791,28.645,60.791L28.645,60.791"/>
	<path style="fill-rule:evenodd;clip-rule:evenodd;fill:#3F5089;" d="M29.723,61.52c0,0,0,0,0,0.04c0,0.607,0,0.607,0,0.607l0,0
		c-0.959-0.525-0.959-0.525-0.959-0.525V61.56c0-0.606,0-0.606,0-0.606s0-0.081,0,0C29.723,61.52,29.723,61.52,29.723,61.52
		L29.723,61.52"/>
	<path style="fill-rule:evenodd;clip-rule:evenodd;fill:#3F5089;" d="M31.641,62.086v0.081c0,0.607,0,0.607,0,0.607
		c0,0.04,0,0.04,0,0.04c-0.84-0.606-0.84-0.606-0.84-0.606c-0.119,0-0.119,0-0.119-0.041c0-0.647,0-0.647,0-0.647s0,0,0.119,0
		C31.641,62.086,31.641,62.086,31.641,62.086L31.641,62.086"/>
	<path style="fill-rule:evenodd;clip-rule:evenodd;fill:#3F5089;" d="M33.438,62.733c0,0.081,0.12,0.081,0.12,0.081
		c0,0.648,0,0.648,0,0.648h-0.12c-1.617-0.526-1.617-0.526-1.617-0.526c-0.18,0-0.18-0.081-0.18-0.081c0-0.607,0-0.607,0-0.607
		c0-0.081,0-0.081,0.18-0.081C33.438,62.733,33.438,62.733,33.438,62.733L33.438,62.733"/>
	<polygon style="fill-rule:evenodd;clip-rule:evenodd;fill:#4F62A5;" points="2.876,47.395 3.235,47.272 35.477,60.144 
		35.356,60.225 2.876,47.395 2.876,47.395 2.876,47.395 	"/>
	<polygon style="fill-rule:evenodd;clip-rule:evenodd;fill:#FFFFFF;" points="35.477,59.819 35.477,62.167 2.876,49.741 
		2.876,47.272 35.477,59.819 35.477,59.819 35.477,59.819 	"/>
	<path style="fill-rule:evenodd;clip-rule:evenodd;fill:#3F5089;" d="M16.24,53.668c0.06,0,0.06,0.081,0.06,0.081
		c0,0.607,0,0.607,0,0.607c0,0.04,0,0.04-0.06,0.04c-0.899-0.526-0.899-0.526-0.899-0.526c0-0.081,0-0.081,0-0.121
		c0-0.647,0-0.647,0-0.647l0,0C16.24,53.668,16.24,53.668,16.24,53.668L16.24,53.668"/>
	<path style="fill-rule:evenodd;clip-rule:evenodd;fill:#3F5089;" d="M18.098,54.031c0.12,0,0.12,0.042,0.12,0.042
		c0,0.323,0,0.323,0,0.323s0,0-0.12,0c-1.618-0.243-1.618-0.243-1.618-0.243l-0.18-0.04c0-0.324,0-0.324,0-0.324
		c0-0.04,0.18-0.04,0.18-0.04C18.098,54.031,18.098,54.031,18.098,54.031L18.098,54.031"/>
	<path style="fill-rule:evenodd;clip-rule:evenodd;fill:#3F5089;" d="M20.974,54.963c0,0.081,0.12,0.081,0.12,0.081
		c0,0.647,0,0.647,0,0.647h-0.12c-1.618-0.526-1.618-0.526-1.618-0.526c-0.18,0-0.18-0.08-0.18-0.08c0-0.607,0-0.607,0-0.607
		c0-0.081,0-0.081,0.18-0.081C20.974,54.963,20.974,54.963,20.974,54.963L20.974,54.963"/>
	<path style="fill-rule:evenodd;clip-rule:evenodd;fill:#3F5089;" d="M21.993,55.975c0.06,0,0.06,0.04,0.06,0.04
		c0,0.325,0,0.325,0,0.325s0,0-0.06,0c-0.779-0.284-0.779-0.284-0.779-0.284s-0.121,0-0.121-0.041c0-0.323,0-0.323,0-0.323h0.121
		C21.993,55.975,21.993,55.975,21.993,55.975L21.993,55.975"/>
	<path style="fill-rule:evenodd;clip-rule:evenodd;fill:#3F5089;" d="M23.97,56.258v0.082c0,0.606,0,0.606,0,0.606
		c0,0.04,0,0.04,0,0.04c-0.958-0.526-0.958-0.526-0.958-0.526c0-0.08,0-0.08,0-0.08c0-0.607,0-0.607,0-0.607
		c0-0.081,0-0.081,0-0.081C23.97,56.258,23.97,56.258,23.97,56.258L23.97,56.258"/>
	<path style="fill-rule:evenodd;clip-rule:evenodd;fill:#3F5089;" d="M25.888,56.986c0,0,0,0,0,0.04c0,0.608,0,0.608,0,0.608l0,0
		c-1.738-0.526-1.738-0.526-1.738-0.526c-0.18,0-0.18-0.082-0.18-0.082c0-0.606,0-0.606,0-0.606s0-0.08,0.18,0
		C25.888,56.986,25.888,56.986,25.888,56.986L25.888,56.986"/>
	<path style="fill-rule:evenodd;clip-rule:evenodd;fill:#3F5089;" d="M28.645,58.281c0.119,0,0.119,0,0.119,0.042
		c0,0.606,0,0.606,0,0.606s0,0-0.119,0c-1.798-0.526-1.798-0.526-1.798-0.526v-0.08c0-0.608,0-0.608,0-0.608c0-0.08,0-0.08,0-0.08
		C28.645,58.281,28.645,58.281,28.645,58.281L28.645,58.281"/>
	<path style="fill-rule:evenodd;clip-rule:evenodd;fill:#3F5089;" d="M29.723,58.849v0.081c0,0.606,0,0.606,0,0.606s0,0.04,0,0
		c-0.959-0.566-0.959-0.566-0.959-0.566s0,0,0-0.04c0-0.648,0-0.648,0-0.648l0,0C29.723,58.849,29.723,58.849,29.723,58.849
		L29.723,58.849"/>
	<path style="fill-rule:evenodd;clip-rule:evenodd;fill:#3F5089;" d="M31.582,59.496c0,0.08,0.06,0.08,0.06,0.08
		c0,0.608,0,0.608,0,0.608c0,0.04-0.06,0.04-0.06,0.04c-0.78-0.526-0.78-0.526-0.78-0.526c-0.119,0-0.119-0.08-0.119-0.08
		c0-0.608,0-0.608,0-0.608c0-0.08,0-0.08,0.119-0.08C31.582,59.496,31.582,59.496,31.582,59.496L31.582,59.496"/>
	<path style="fill-rule:evenodd;clip-rule:evenodd;fill:#3F5089;" d="M33.438,60.225c0.12,0,0.12,0,0.12,0.04
		c0,0.607,0,0.607,0,0.607s0,0-0.12,0c-1.617-0.525-1.617-0.525-1.617-0.525s-0.18,0-0.18-0.082c0-0.606,0-0.606,0-0.606
		s0.18-0.082,0.18,0C33.438,60.225,33.438,60.225,33.438,60.225L33.438,60.225"/>
	<polygon style="fill-rule:evenodd;clip-rule:evenodd;fill:#4F62A5;" points="2.876,44.805 3.235,44.683 35.477,56.986 
		35.356,56.986 2.876,44.805 2.876,44.805 2.876,44.805 	"/>
	<polygon style="fill-rule:evenodd;clip-rule:evenodd;fill:#FFFFFF;" points="35.477,57.148 35.477,59.576 2.876,47.071 
		2.876,44.683 35.477,57.148 35.477,57.148 35.477,57.148 	"/>
	<path style="fill-rule:evenodd;clip-rule:evenodd;fill:#3F5089;" d="M16.3,50.43c0,0.081,0,0.081,0,0.081c0,0.647,0,0.647,0,0.647
		l0,0c-0.959-0.525-0.959-0.525-0.959-0.525v-0.082c0-0.606,0-0.606,0-0.606c0-0.081,0-0.081,0-0.081
		C16.3,50.43,16.3,50.43,16.3,50.43L16.3,50.43"/>
	<path style="fill-rule:evenodd;clip-rule:evenodd;fill:#3F5089;" d="M18.098,51.158c0.12,0,0.12,0,0.12,0.041
		c0,0.607,0,0.607,0,0.607s0,0-0.12,0C16.3,51.279,16.3,51.279,16.3,51.279v-0.08c0-0.607,0-0.607,0-0.607c0-0.081,0-0.081,0,0
		C18.098,51.158,18.098,51.158,18.098,51.158L18.098,51.158"/>
	<path style="fill-rule:evenodd;clip-rule:evenodd;fill:#3F5089;" d="M20.974,52.453c0.12,0,0.12,0,0.12,0.041
		c0,0.607,0,0.607,0,0.607h-0.12c-1.618-0.526-1.618-0.526-1.618-0.526l-0.18-0.081c0-0.607,0-0.607,0-0.607s0.18-0.08,0.18,0
		C20.974,52.453,20.974,52.453,20.974,52.453L20.974,52.453"/>
	<path style="fill-rule:evenodd;clip-rule:evenodd;fill:#3F5089;" d="M21.993,53.02c0.06,0,0.06,0.082,0.06,0.082
		c0,0.606,0,0.606,0,0.606c0,0.041,0,0.041-0.06,0.041c-0.899-0.526-0.899-0.526-0.899-0.526c0-0.081,0-0.081,0-0.081
		c0-0.688,0-0.688,0-0.688l0,0C21.993,53.02,21.993,53.02,21.993,53.02L21.993,53.02"/>
	<path style="fill-rule:evenodd;clip-rule:evenodd;fill:#3F5089;" d="M23.97,53.749c0,0,0,0,0,0.04c0,0.607,0,0.607,0,0.607l0,0
		c-0.958-0.526-0.958-0.526-0.958-0.526v-0.081c0-0.606,0-0.606,0-0.606c0-0.081,0-0.081,0-0.081
		C23.97,53.749,23.97,53.749,23.97,53.749L23.97,53.749"/>
	<path style="fill-rule:evenodd;clip-rule:evenodd;fill:#3F5089;" d="M25.768,54.314l0.12,0.082c0,0.606,0,0.606,0,0.606
		s-0.12,0.041-0.12,0c-1.618-0.566-1.618-0.566-1.618-0.566c-0.18,0-0.18,0-0.18-0.04c0-0.647,0-0.647,0-0.647s0,0,0.18,0
		C25.768,54.314,25.768,54.314,25.768,54.314L25.768,54.314"/>
	<path style="fill-rule:evenodd;clip-rule:evenodd;fill:#3F5089;" d="M28.764,55.328v0.04c0,0.323,0,0.323,0,0.323l0,0
		c-1.917-0.283-1.917-0.283-1.917-0.283s0,0,0-0.04c0-0.324,0-0.324,0-0.324l0,0C28.764,55.328,28.764,55.328,28.764,55.328
		L28.764,55.328"/>
	<path style="fill-rule:evenodd;clip-rule:evenodd;fill:#3F5089;" d="M29.723,55.975v0.04c0,0.325,0,0.325,0,0.325l0,0
		c-0.839-0.243-0.839-0.243-0.839-0.243c-0.12-0.041-0.12-0.041-0.12-0.041c0-0.324,0-0.324,0-0.324c0-0.04,0-0.04,0.12-0.04
		C29.723,55.975,29.723,55.975,29.723,55.975L29.723,55.975"/>
	<path style="fill-rule:evenodd;clip-rule:evenodd;fill:#3F5089;" d="M31.582,56.663c0,0,0.06,0,0.06,0.04c0,0.283,0,0.283,0,0.283
		h-0.06c-0.78-0.243-0.78-0.243-0.78-0.243l-0.119-0.04c0-0.323,0-0.323,0-0.323s0.119-0.04,0.119,0
		C31.582,56.663,31.582,56.663,31.582,56.663L31.582,56.663"/>
	<path style="fill-rule:evenodd;clip-rule:evenodd;fill:#3F5089;" d="M33.438,57.27c0.12,0,0.12,0.04,0.12,0.04
		c0,0.325,0,0.325,0,0.325s0,0-0.12,0c-1.797-0.283-1.797-0.283-1.797-0.283s0,0,0-0.042c0-0.323,0-0.323,0-0.323l0,0
		C33.438,57.27,33.438,57.27,33.438,57.27L33.438,57.27"/>
	<polygon style="fill-rule:evenodd;clip-rule:evenodd;fill:#4F62A5;" points="2.876,41.444 3.235,41.444 35.477,54.314 
		35.356,54.396 2.876,41.444 2.876,41.444 2.876,41.444 	"/>
	<polygon style="fill-rule:evenodd;clip-rule:evenodd;fill:#FFFFFF;" points="35.477,53.991 35.477,56.34 2.876,43.914 
		2.876,41.444 35.477,53.991 35.477,53.991 35.477,53.991 	"/>
	<path style="fill-rule:evenodd;clip-rule:evenodd;fill:#3F5089;" d="M16.3,47.921c0,0,0,0,0,0.04c0,0.607,0,0.607,0,0.607l0,0
		c-0.959-0.525-0.959-0.525-0.959-0.525v-0.082c0-0.606,0-0.606,0-0.606s0-0.082,0,0C16.3,47.921,16.3,47.921,16.3,47.921
		L16.3,47.921"/>
	<path style="fill-rule:evenodd;clip-rule:evenodd;fill:#3F5089;" d="M18.217,48.487v0.081c0,0.606,0,0.606,0,0.606s0,0.041,0,0
		C16.3,48.609,16.3,48.609,16.3,48.609s0,0,0-0.041c0-0.647,0-0.647,0-0.647l0,0C18.217,48.487,18.217,48.487,18.217,48.487
		L18.217,48.487"/>
	<path style="fill-rule:evenodd;clip-rule:evenodd;fill:#3F5089;" d="M20.974,49.499c0.12,0,0.12,0.04,0.12,0.04
		c0,0.324,0,0.324,0,0.324s0,0-0.12,0c-1.618-0.283-1.618-0.283-1.618-0.283s-0.18,0-0.18-0.041c0-0.323,0-0.323,0-0.323h0.18
		C20.974,49.499,20.974,49.499,20.974,49.499L20.974,49.499"/>
	<path style="fill-rule:evenodd;clip-rule:evenodd;fill:#3F5089;" d="M22.052,50.146c0,0.041,0,0.041,0,0.041
		c0,0.323,0,0.323,0,0.323l0,0c-0.959-0.243-0.959-0.243-0.959-0.243v-0.04c0-0.323,0-0.323,0-0.323c0-0.041,0-0.041,0-0.041
		C22.052,50.146,22.052,50.146,22.052,50.146L22.052,50.146"/>
	<path style="fill-rule:evenodd;clip-rule:evenodd;fill:#3F5089;" d="M23.97,50.795c0,0,0,0,0,0.04c0,0.323,0,0.323,0,0.323l0,0
		c-0.839-0.283-0.839-0.283-0.839-0.283c-0.119,0-0.119,0-0.119-0.04c0-0.324,0-0.324,0-0.324s0,0,0.119,0
		C23.97,50.795,23.97,50.795,23.97,50.795L23.97,50.795"/>
	<path style="fill-rule:evenodd;clip-rule:evenodd;fill:#3F5089;" d="M25.768,51.441l0.12,0.041c0,0.324,0,0.324,0,0.324h-0.12
		c-1.618-0.244-1.618-0.244-1.618-0.244c0-0.04-0.18-0.04-0.18-0.04c0-0.364,0-0.364,0-0.364h0.18
		C25.768,51.441,25.768,51.441,25.768,51.441L25.768,51.441"/>
	<path style="fill-rule:evenodd;clip-rule:evenodd;fill:#3F5089;" d="M28.764,52.373v0.08c0,0.608,0,0.608,0,0.608
		c0,0.04,0,0.04,0,0.04c-1.917-0.526-1.917-0.526-1.917-0.526c0-0.081,0-0.081,0-0.081c0-0.688,0-0.688,0-0.688l0,0
		C28.764,52.373,28.764,52.373,28.764,52.373L28.764,52.373"/>
	<path style="fill-rule:evenodd;clip-rule:evenodd;fill:#3F5089;" d="M29.663,53.102c0,0,0.061,0,0.061,0.04
		c0,0.607,0,0.607,0,0.607h-0.061c-0.778-0.526-0.778-0.526-0.778-0.526c-0.12,0-0.12-0.081-0.12-0.081c0-0.607,0-0.607,0-0.607
		c0-0.081,0-0.081,0.12-0.081C29.663,53.102,29.663,53.102,29.663,53.102L29.663,53.102"/>
	<path style="fill-rule:evenodd;clip-rule:evenodd;fill:#3F5089;" d="M31.582,53.668c0.06,0,0.06,0.081,0.06,0.081
		c0,0.607,0,0.607,0,0.607s0,0.04-0.06,0c-0.78-0.567-0.78-0.567-0.78-0.567s-0.119,0-0.119-0.04c0-0.647,0-0.647,0-0.647h0.119
		C31.582,53.668,31.582,53.668,31.582,53.668L31.582,53.668"/>
	<path style="fill-rule:evenodd;clip-rule:evenodd;fill:#3F5089;" d="M33.558,54.314c0,0.082,0,0.082,0,0.082
		c0,0.606,0,0.606,0,0.606c0,0.041,0,0.041,0,0.041c-1.917-0.526-1.917-0.526-1.917-0.526v-0.081c0-0.606,0-0.606,0-0.606
		c0-0.081,0-0.081,0-0.081C33.558,54.314,33.558,54.314,33.558,54.314L33.558,54.314"/>
	<polygon style="fill-rule:evenodd;clip-rule:evenodd;fill:#4F62A5;" points="2.876,38.976 3.235,38.854 35.477,51.158 
		35.356,51.158 2.876,38.976 2.876,38.976 2.876,38.976 	"/>
	<polygon style="fill-rule:evenodd;clip-rule:evenodd;fill:#FFFFFF;" points="35.477,51.32 35.477,53.749 2.876,41.323 
		2.876,38.854 35.477,51.32 35.477,51.32 35.477,51.32 	"/>
	<path style="fill-rule:evenodd;clip-rule:evenodd;fill:#3F5089;" d="M16.3,44.966v0.04c0,0.325,0,0.325,0,0.325l0,0
		c-0.959-0.243-0.959-0.243-0.959-0.243c0-0.04,0-0.04,0-0.04c0-0.365,0-0.365,0-0.365l0,0C16.3,44.966,16.3,44.966,16.3,44.966
		L16.3,44.966"/>
	<path style="fill-rule:evenodd;clip-rule:evenodd;fill:#3F5089;" d="M18.217,45.249c0,0.082,0,0.082,0,0.082
		c0,0.606,0,0.606,0,0.606c0,0.04,0,0.04,0,0.04C16.3,45.451,16.3,45.451,16.3,45.451v-0.08c0-0.607,0-0.607,0-0.607
		c0-0.081,0-0.081,0-0.081C18.217,45.249,18.217,45.249,18.217,45.249L18.217,45.249"/>
	<path style="fill-rule:evenodd;clip-rule:evenodd;fill:#3F5089;" d="M20.974,46.545c0.12,0.081,0.12,0.081,0.12,0.121
		c0,0.606,0,0.606,0,0.606s0,0-0.12,0c-1.618-0.526-1.618-0.526-1.618-0.526l-0.18-0.08c0-0.606,0-0.606,0-0.606
		c0-0.082,0.18-0.082,0.18-0.082C20.974,46.545,20.974,46.545,20.974,46.545L20.974,46.545"/>
	<path style="fill-rule:evenodd;clip-rule:evenodd;fill:#3F5089;" d="M22.052,47.192v0.08c0,0.607,0,0.607,0,0.607s0,0.041,0,0
		c-0.959-0.566-0.959-0.566-0.959-0.566s0,0,0-0.041c0-0.646,0-0.646,0-0.646l0,0C22.052,47.192,22.052,47.192,22.052,47.192
		L22.052,47.192"/>
	<path style="fill-rule:evenodd;clip-rule:evenodd;fill:#3F5089;" d="M23.97,47.84v0.081c0,0.606,0,0.606,0,0.606
		c0,0.041,0,0.041,0,0.041c-0.839-0.525-0.839-0.525-0.839-0.525c-0.119-0.082-0.119-0.082-0.119-0.082c0-0.606,0-0.606,0-0.606
		c0-0.082,0-0.082,0.119-0.082C23.97,47.84,23.97,47.84,23.97,47.84L23.97,47.84"/>
	<path style="fill-rule:evenodd;clip-rule:evenodd;fill:#3F5089;" d="M25.768,48.568c0,0,0.12,0,0.12,0.041c0,0.606,0,0.606,0,0.606
		h-0.12c-1.618-0.526-1.618-0.526-1.618-0.526l-0.18-0.08c0-0.608,0-0.608,0-0.608s0.18-0.08,0.18,0
		C25.768,48.568,25.768,48.568,25.768,48.568L25.768,48.568"/>
	<path style="fill-rule:evenodd;clip-rule:evenodd;fill:#3F5089;" d="M28.764,49.863c0,0,0,0,0,0.041c0,0.606,0,0.606,0,0.606l0,0
		c-1.917-0.526-1.917-0.526-1.917-0.526v-0.08c0-0.608,0-0.608,0-0.608c0-0.08,0-0.08,0,0
		C28.764,49.863,28.764,49.863,28.764,49.863L28.764,49.863"/>
	<path style="fill-rule:evenodd;clip-rule:evenodd;fill:#3F5089;" d="M29.663,50.43l0.061,0.081c0,0.607,0,0.607,0,0.607
		c0,0.04-0.061,0.04-0.061,0c-0.778-0.567-0.778-0.567-0.778-0.567c-0.12,0-0.12,0-0.12-0.04c0-0.647,0-0.647,0-0.647s0,0,0.12,0
		C29.663,50.43,29.663,50.43,29.663,50.43L29.663,50.43"/>
	<path style="fill-rule:evenodd;clip-rule:evenodd;fill:#3F5089;" d="M31.582,51.078c0.06,0.08,0.06,0.08,0.06,0.08
		c0,0.648,0,0.648,0,0.648s0,0-0.06,0c-0.78-0.527-0.78-0.527-0.78-0.527l-0.119-0.08c0-0.607,0-0.607,0-0.607
		c0-0.081,0.119-0.081,0.119-0.081C31.582,51.078,31.582,51.078,31.582,51.078L31.582,51.078"/>
	<path style="fill-rule:evenodd;clip-rule:evenodd;fill:#3F5089;" d="M33.558,51.441c0,0,0,0,0,0.041c0,0.324,0,0.324,0,0.324l0,0
		c-1.917-0.284-1.917-0.284-1.917-0.284s0,0,0-0.04c0-0.324,0-0.324,0-0.324l0,0C33.558,51.441,33.558,51.441,33.558,51.441
		L33.558,51.441"/>
</g>
</svg>