<?xml version="1.0" encoding="iso-8859-1"?>
<!DOCTYPE svg PUBLIC "-//W3C//DTD SVG 1.1//EN" "http://www.w3.org/Graphics/SVG/1.1/DTD/svg11.dtd">
<svg version="1.1" xmlns="http://www.w3.org/2000/svg" xmlns:xlink="http://www.w3.org/1999/xlink" width="55" height="40" viewBox="0 0 55 40">
<g>
	<polygon style="fill-rule:evenodd;clip-rule:evenodd;fill:#2A3174;" points="54.424,15.874 54.424,23.918 27.213,39.686 
		27.213,31.571 54.424,15.874 54.424,15.874 54.424,15.874 54.424,15.874 54.424,15.874 	"/>
	<polygon style="fill-rule:evenodd;clip-rule:evenodd;fill:#37468B;" points="27.213,31.571 27.213,39.686 0,23.918 0,15.874 
		27.213,31.571 27.213,31.571 27.213,31.571 27.213,31.571 27.213,31.571 	"/>
	<polygon style="fill-rule:evenodd;clip-rule:evenodd;fill:#4F62A5;" points="54.424,15.591 27.319,31.182 0,15.591 27.142,0 
		54.424,15.591 54.424,15.591 54.424,15.591 54.424,15.591 54.424,15.591 	"/>
	<path style="fill-rule:evenodd;clip-rule:evenodd;fill:#2A3174;" d="M31.819,22.217c2.02,1.134,2.02,1.134,2.02,1.134
		c-6.803,3.862-6.803,3.862-6.803,3.862c-6.768-3.862-6.768-3.862-6.768-3.862c2.02-1.134,2.02-1.134,2.02-1.134
		c3.083,1.736,3.083,1.736,3.083,1.736c0-3.862,0-3.862,0-3.862c-1.311-0.213-2.516-0.567-3.508-1.134
		c-1.028-0.567-1.701-1.311-2.055-2.055c-6.697,0-6.697,0-6.697,0c3.083,1.807,3.083,1.807,3.083,1.807
		c-2.02,1.134-2.02,1.134-2.02,1.134C7.37,15.98,7.37,15.98,7.37,15.98c6.803-3.827,6.803-3.827,6.803-3.827
		c2.02,1.134,2.02,1.134,2.02,1.134c-3.083,1.736-3.083,1.736-3.083,1.736c6.626,0,6.626,0,6.626,0
		c0.248-0.851,0.957-1.63,2.126-2.268c1.134-0.709,2.657-1.099,4.181-1.24c0-3.685,0-3.685,0-3.685
		c-3.083,1.736-3.083,1.736-3.083,1.736c-2.02-1.134-2.02-1.134-2.02-1.134c6.768-3.897,6.768-3.897,6.768-3.897
		c6.769,3.897,6.769,3.897,6.769,3.897c-2.02,1.134-2.02,1.134-2.02,1.134c-3.084-1.736-3.084-1.736-3.084-1.736
		c0,1.027,0,2.516,0,3.756c1.275,0.212,2.445,0.603,3.402,1.169c0.957,0.531,1.594,1.24,1.949,1.913c6.625,0,6.625,0,6.625,0
		c-3.082-1.736-3.082-1.736-3.082-1.736c1.984-1.169,1.984-1.169,1.984-1.169c6.803,3.862,6.803,3.862,6.803,3.862
		c-6.768,3.862-6.768,3.862-6.768,3.862c-2.02-1.134-2.02-1.134-2.02-1.134c3.082-1.807,3.082-1.807,3.082-1.807
		c-1.771,0-4.287,0-6.412,0c-0.248,0.921-0.957,1.736-2.162,2.41c-1.135,0.638-2.586,1.063-4.039,1.24c0,3.756,0,3.756,0,3.756
		C31.819,22.217,31.819,22.217,31.819,22.217L31.819,22.217L31.819,22.217L31.819,22.217z M24.484,17.469
		c1.559,0.886,4.075,0.886,5.668,0c1.561-0.921,1.561-2.338,0-3.225c-1.593-0.921-4.145-0.921-5.668,0
		C22.89,15.13,22.89,16.547,24.484,17.469"/>
	<path style="fill-rule:evenodd;clip-rule:evenodd;fill:#FFFFFF;" d="M31.819,21.649c2.02,1.17,2.02,1.17,2.02,1.17
		c-6.803,3.826-6.803,3.826-6.803,3.826c-6.768-3.826-6.768-3.826-6.768-3.826c2.02-1.17,2.02-1.17,2.02-1.17
		c3.083,1.772,3.083,1.772,3.083,1.772c0-3.863,0-3.863,0-3.863c-1.311-0.212-2.516-0.602-3.508-1.169
		c-1.028-0.567-1.701-1.276-2.055-2.02c-6.697,0-6.697,0-6.697,0c3.083,1.736,3.083,1.736,3.083,1.736
		c-2.02,1.205-2.02,1.205-2.02,1.205C7.37,15.414,7.37,15.414,7.37,15.414c6.803-3.862,6.803-3.862,6.803-3.862
		c2.02,1.134,2.02,1.134,2.02,1.134c-3.083,1.807-3.083,1.807-3.083,1.807c6.626,0,6.626,0,6.626,0
		c0.248-0.85,0.957-1.665,2.126-2.303c1.134-0.709,2.657-1.099,4.181-1.24c0-3.721,0-3.721,0-3.721C22.961,9,22.961,9,22.961,9
		c-2.02-1.134-2.02-1.134-2.02-1.134c6.768-3.897,6.768-3.897,6.768-3.897c6.769,3.897,6.769,3.897,6.769,3.897
		C32.458,9,32.458,9,32.458,9c-3.084-1.771-3.084-1.771-3.084-1.771c0,1.099,0,2.587,0,3.827c1.275,0.177,2.445,0.603,3.402,1.134
		c0.957,0.531,1.594,1.205,1.949,1.949c6.625,0,6.625,0,6.625,0c-3.082-1.807-3.082-1.807-3.082-1.807
		c1.984-1.134,1.984-1.134,1.984-1.134c6.803,3.862,6.803,3.862,6.803,3.862c-6.768,3.862-6.768,3.862-6.768,3.862
		c-2.02-1.169-2.02-1.169-2.02-1.169c3.082-1.736,3.082-1.736,3.082-1.736c-1.771,0-4.287,0-6.412,0
		c-0.248,0.85-0.957,1.701-2.162,2.374c-1.135,0.673-2.586,1.063-4.039,1.205c0,3.827,0,3.827,0,3.827
		C31.819,21.649,31.819,21.649,31.819,21.649L31.819,21.649L31.819,21.649L31.819,21.649z M24.484,16.902
		c1.559,0.921,4.075,0.921,5.668,0c1.561-0.886,1.561-2.338,0-3.225c-1.593-0.886-4.145-0.886-5.668,0
		C22.89,14.563,22.89,16.016,24.484,16.902"/>
	<path style="fill-rule:evenodd;clip-rule:evenodd;fill:#FFFFFF;" d="M5.917,21.792c0.39,0.212,0.708,0.496,0.957,0.814
		c0.248,0.319,0.425,0.744,0.425,1.169c-0.708-0.425-0.708-0.425-0.708-0.425c-0.071-0.354-0.284-0.709-0.673-0.957
		c-0.142-0.035-0.248-0.105-0.354-0.105c-0.106,0.07-0.142,0.105-0.142,0.248c0,0.142,0.035,0.318,0.142,0.39
		c0.106,0.106,0.354,0.354,0.815,0.744c0.284,0.248,0.461,0.46,0.603,0.602c0.248,0.354,0.39,0.674,0.39,1.099
		c0,0.319-0.071,0.531-0.354,0.638c-0.248,0.071-0.602,0-1.063-0.248c-0.39-0.212-0.708-0.496-0.957-0.886
		c-0.283-0.39-0.46-0.814-0.46-1.24c0.708,0.39,0.708,0.39,0.708,0.39c0,0.248,0.106,0.461,0.284,0.639
		c0.071,0.212,0.283,0.354,0.496,0.46c0.142,0.071,0.284,0.142,0.39,0.142c0.177,0.036,0.248-0.07,0.248-0.248
		c0-0.212-0.177-0.46-0.496-0.744c-0.603-0.531-0.921-0.85-0.957-0.886c-0.354-0.39-0.567-0.744-0.567-1.169
		c0-0.354,0.177-0.567,0.425-0.603C5.315,21.544,5.599,21.614,5.917,21.792L5.917,21.792L5.917,21.792L5.917,21.792L5.917,21.792"/>
	<polygon style="fill-rule:evenodd;clip-rule:evenodd;fill:#FFFFFF;" points="11.906,25.157 10.949,28.347 10.24,27.922 
		9.638,25.157 9.071,27.354 8.292,26.894 7.37,22.678 8.185,23.138 8.681,25.973 9.248,23.775 10.063,24.166 10.63,27 
		11.126,24.804 11.906,25.157 11.906,25.157 11.906,25.157 11.906,25.157 11.906,25.157 11.906,25.157 	"/>
	<polygon style="fill-rule:evenodd;clip-rule:evenodd;fill:#FFFFFF;" points="13.04,25.477 13.04,29.48 12.473,29.091 
		12.473,24.945 13.04,25.477 13.04,25.477 13.04,25.477 13.04,25.477 13.04,25.477 13.04,25.477 	"/>
	<polygon style="fill-rule:evenodd;clip-rule:evenodd;fill:#FFFFFF;" points="15.874,27.603 15.874,28.24 14.917,27.709 
		14.917,30.614 14.138,30.189 14.138,27.354 13.04,26.717 13.04,26.079 15.874,27.603 15.874,27.603 15.874,27.603 15.874,27.603 
		15.874,27.603 15.874,27.603 	"/>
	<path style="fill-rule:evenodd;clip-rule:evenodd;fill:#FFFFFF;" d="M17.965,28.701c0.354,0.213,0.638,0.496,0.886,0.886
		s0.39,0.814,0.425,1.24c-0.638-0.39-0.638-0.39-0.638-0.39c-0.035-0.213-0.071-0.39-0.212-0.603
		c-0.142-0.178-0.284-0.354-0.46-0.426c-0.284-0.212-0.496-0.212-0.638,0c-0.142,0.143-0.177,0.391-0.177,0.744
		c0,0.391,0.036,0.674,0.177,0.957c0.142,0.354,0.354,0.638,0.638,0.815c0.177,0.142,0.354,0.142,0.46,0.07
		c0.142-0.07,0.177-0.248,0.212-0.46c0.638,0.39,0.638,0.39,0.638,0.39c-0.035,0.425-0.177,0.744-0.39,0.886
		c-0.248,0.07-0.567,0.035-0.921-0.213c-0.461-0.248-0.815-0.673-1.099-1.24c-0.284-0.531-0.425-1.063-0.425-1.63
		c0-0.566,0.142-0.957,0.425-1.169C17.149,28.347,17.504,28.418,17.965,28.701L17.965,28.701L17.965,28.701L17.965,28.701
		L17.965,28.701"/>
	<polygon style="fill-rule:evenodd;clip-rule:evenodd;fill:#FFFFFF;" points="22.677,31.182 22.677,35.149 21.933,34.76 
		21.933,32.988 20.622,32.174 20.622,33.98 19.843,33.484 19.843,29.48 20.622,29.905 20.622,31.5 21.933,32.279 22.04,30.792 
		22.677,31.182 22.677,31.182 22.677,31.182 22.677,31.182 22.677,31.182 22.677,31.182 	"/>
</g>
</svg>