<?xml version="1.0" encoding="iso-8859-1"?>
<!DOCTYPE svg PUBLIC "-//W3C//DTD SVG 1.1//EN" "http://www.w3.org/Graphics/SVG/1.1/DTD/svg11.dtd">
<svg version="1.1" xmlns="http://www.w3.org/2000/svg" xmlns:xlink="http://www.w3.org/1999/xlink" width="106" height="55" viewBox="0 0 106 55">
<g>
	<polygon style="fill-rule:evenodd;clip-rule:evenodd;fill:#2A3174;" points="58.374,49.198 105.631,27.476 105.631,33.371 
		58.374,54.953 58.374,49.198 58.374,49.198 58.374,49.198 	"/>
	<polygon style="fill-rule:evenodd;clip-rule:evenodd;fill:#4F62A5;" points="0,21.86 47.198,0 105.631,27.058 58.665,49.012 
		0,21.86 0,21.86 0,21.86 	"/>
	<polygon style="fill-rule:evenodd;clip-rule:evenodd;fill:#37468B;" points="58.374,49.198 58.374,54.953 0,28.219 0,22.278 
		58.374,49.198 58.374,49.198 58.374,49.198 	"/>
	<path style="fill-rule:evenodd;clip-rule:evenodd;fill:#2A3174;" d="M49.63,45.53c0.232,0.139,0.405,0.418,0.405,0.697
		c0,3.852,0,3.852,0,3.852c0,0.279-0.173,0.418-0.405,0.279C0.927,27.894,0.927,27.894,0.927,27.894
		c0.116-4.873,0.116-4.873,0.116-4.873C49.63,45.53,49.63,45.53,49.63,45.53L49.63,45.53"/>
	<path style="fill-rule:evenodd;clip-rule:evenodd;fill:#FFFFFF;" d="M49.63,45.624c0.232,0.046,0.405,0.418,0.405,0.604
		c0,3.852,0,3.852,0,3.852c0,0.279-0.231,0.418-0.405,0.279C0.927,27.894,0.927,27.894,0.927,27.894
		c0.116-4.873,0.116-4.873,0.116-4.873C49.63,45.624,49.63,45.624,49.63,45.624L49.63,45.624"/>
	<polygon style="fill-rule:evenodd;clip-rule:evenodd;fill:#4F62A5;" points="36.137,41.725 36.311,41.585 40.77,43.813 
		40.654,43.813 36.137,41.725 36.137,41.725 36.137,41.725 	"/>
	<polygon style="fill-rule:evenodd;clip-rule:evenodd;fill:#CEC3D4;" points="40.77,43.442 40.77,45.299 36.137,43.349 
		36.137,41.585 40.77,43.442 40.77,43.442 40.77,43.442 	"/>
	<polygon style="fill-rule:evenodd;clip-rule:evenodd;fill:#4F62A5;" points="42.623,44.557 42.623,44.557 47.256,46.692 
		47.14,46.784 42.623,44.557 42.623,44.557 42.623,44.557 	"/>
	<polygon style="fill-rule:evenodd;clip-rule:evenodd;fill:#CEC3D4;" points="47.256,46.552 47.256,48.269 42.623,46.319 
		42.623,44.557 47.256,46.552 47.256,46.552 47.256,46.552 	"/>
	<polygon style="fill-rule:evenodd;clip-rule:evenodd;fill:#4F62A5;" points="1.854,24.506 2.027,24.506 16.679,31.096 
		16.679,31.189 1.854,24.506 1.854,24.506 1.854,24.506 	"/>
	<polygon style="fill-rule:evenodd;clip-rule:evenodd;fill:#C6BBCC;" points="16.679,31.189 16.679,34.16 1.854,27.476 
		1.854,24.506 16.679,31.189 16.679,31.189 16.679,31.189 	"/>
	<polygon style="fill-rule:evenodd;clip-rule:evenodd;fill:#2F3D70;" points="15.752,32.768 15.752,34.16 15.463,33.881 
		15.347,33.881 15.347,34.02 15.347,34.16 15.173,33.881 15.173,33.695 15.173,33.556 15.173,33.556 14.826,33.371 14.826,31.931 
		15.752,32.768 15.752,32.768 15.752,32.768 	"/>
	<path style="fill-rule:evenodd;clip-rule:evenodd;fill:#FFFFFF;" d="M15.694,32.814h0.058l0,0v1.252v0.093h-0.058l-0.174-0.231
		v0.138v0.093l-0.057-0.093l-0.29-0.278h-0.058v-0.093v-0.14l-0.289-0.139v-0.092l0,0v-1.253v-0.14v0.14L15.694,32.814
		L15.694,32.814L15.694,32.814L15.694,32.814z M15.694,33.928v-1.114l-0.752-0.604v1.114l0.231,0.092l0,0v0.139v0.14l0.174,0.233
		v-0.14v-0.093h0.116L15.694,33.928L15.694,33.928z"/>
	<path style="fill-rule:evenodd;clip-rule:evenodd;fill:#FFFFFF;" d="M15.694,31.329h0.058l0,0v1.252v0.093h-0.058l-0.868-0.743
		v-0.092l0,0v-1.254v-0.139v0.139l0.289,0.233v-0.093v-0.14h0.058l0.29,0.233h0.057v0.138v0.14L15.694,31.329L15.694,31.329
		L15.694,31.329L15.694,31.329z M15.694,32.443v-1.114l-0.231-0.14h-0.116v-0.093v-0.14l-0.174-0.138v0.138l0,0l0,0l-0.231-0.231
		v1.114L15.694,32.443L15.694,32.443z"/>
	<polygon style="fill-rule:evenodd;clip-rule:evenodd;fill:#2F3D70;" points="15.347,30.771 15.347,30.957 15.347,31.096 
		15.463,31.096 15.752,31.281 15.752,32.674 14.826,31.885 14.826,30.446 15.173,30.771 15.173,30.771 15.173,30.771 15.173,30.632 
		15.347,30.771 15.347,30.771 15.347,30.771 	"/>
	<polygon style="fill-rule:evenodd;clip-rule:evenodd;fill:#2F3D70;" points="13.899,32.025 13.899,33.417 13.726,33.139 
		13.61,32.953 13.61,33.139 13.61,33.278 13.436,33.139 13.436,32.953 13.436,32.814 13.32,32.814 12.972,32.489 12.972,31.189 
		13.899,32.025 13.899,32.025 13.899,32.025 	"/>
	<path style="fill-rule:evenodd;clip-rule:evenodd;fill:#FFFFFF;" d="M14.709,31.979h0.117v0.14v1.298l0,0h-0.117l-0.521-0.231
		v0.139v0.092l0,0l-0.694-0.371l0,0l0,0v-0.139l-0.522-0.232l0,0v-0.139v-1.206v-0.14l0,0L14.709,31.979L14.709,31.979
		L14.709,31.979L14.709,31.979z M14.536,33.324v-1.206l-1.564-0.65v1.067l0.522,0.233h0.173v0.138v0.139l0.348,0.14v-0.14v-0.139
		l0.173,0.139L14.536,33.324L14.536,33.324z"/>
	<path style="fill-rule:evenodd;clip-rule:evenodd;fill:#FFFFFF;" d="M14.709,30.494h0.117v0.138v1.208v0.092h-0.117l-1.737-0.742
		v-0.14l0,0v-1.206v-0.14l0,0l0.522,0.278v-0.138v-0.14v0.14l0.694,0.138l0,0v0.139v0.14L14.709,30.494L14.709,30.494L14.709,30.494
		L14.709,30.494z M14.536,31.7v-1.068L14.188,30.4h-0.173v-0.14l0,0l-0.348-0.279v0.139v0.14h-0.173l-0.522-0.279v1.068L14.536,31.7
		L14.536,31.7z"/>
	<polygon style="fill-rule:evenodd;clip-rule:evenodd;fill:#2F3D70;" points="13.61,30.075 13.61,30.075 13.61,30.261 
		13.726,30.261 13.899,30.585 13.899,31.931 12.972,31.096 12.972,29.704 13.32,30.075 13.436,30.075 13.436,29.89 13.436,29.704 
		13.61,30.075 13.61,30.075 13.61,30.075 	"/>
	<polygon style="fill-rule:evenodd;clip-rule:evenodd;fill:#2F3D70;" points="12.045,31.004 12.045,31.931 11.757,31.746 
		11.757,31.746 11.757,31.839 11.757,31.931 11.467,31.746 11.467,31.654 11.467,31.514 11.467,31.514 11.119,31.421 11.119,30.446 
		12.045,31.004 12.045,31.004 12.045,31.004 	"/>
	<path style="fill-rule:evenodd;clip-rule:evenodd;fill:#FFFFFF;" d="M12.972,31.235L12.972,31.235v0.14v1.299l0,0l0,0l-0.463-0.093
		v0.093l0,0h-0.174l-0.521-0.231H11.64v-0.139v-0.14l-0.521-0.139v-0.094l0,0v-1.346v-0.139l0.174,0.139L12.972,31.235
		L12.972,31.235L12.972,31.235L12.972,31.235z M12.856,32.581v-1.206l-1.563-0.65v1.206l0.521,0.094l0,0v0.139v0.14l0.521,0.277
		v-0.138v-0.139l0,0L12.856,32.581L12.856,32.581z"/>
	<path style="fill-rule:evenodd;clip-rule:evenodd;fill:#FFFFFF;" d="M12.972,29.89L12.972,29.89L12.972,29.89v1.3l0,0l0,0
		l-1.679-0.743h-0.174l0,0v-1.346v-0.14l0.174,0.14l0.521,0.279v-0.279l0,0l0,0l0.521,0.279h0.174v0.138v0.14L12.972,29.89
		L12.972,29.89L12.972,29.89L12.972,29.89z M12.856,31.096V29.89l-0.521-0.232l0,0l0,0v-0.14l-0.521-0.138v0.138l0,0l0,0
		l-0.521-0.278v1.207L12.856,31.096L12.856,31.096z"/>
	<polygon style="fill-rule:evenodd;clip-rule:evenodd;fill:#2F3D70;" points="11.757,29.286 11.757,29.472 11.757,29.472 
		11.757,29.472 12.045,29.796 12.045,31.189 11.119,30.4 11.119,28.961 11.467,29.286 11.467,29.286 11.467,29.286 11.467,29.146 
		11.757,29.286 11.757,29.286 11.757,29.286 	"/>
	<polygon style="fill-rule:evenodd;clip-rule:evenodd;fill:#2F3D70;" points="11.119,30.307 11.119,31.189 10.598,31.096 
		10.424,31.004 10.424,31.096 10.424,31.189 10.02,31.096 10.02,30.864 10.02,30.864 9.845,30.771 9.266,30.632 9.266,29.704 
		11.119,30.307 11.119,30.307 11.119,30.307 	"/>
	<path style="fill-rule:evenodd;clip-rule:evenodd;fill:#FFFFFF;" d="M11.003,30.494h0.116v0.138v1.208v0.092h-0.116L10.482,31.7
		v0.14v0.092l0,0l-0.695-0.371l0,0l0,0v-0.279l-0.521-0.092v-0.14l0,0v-1.346l0,0l0,0L11.003,30.494L11.003,30.494L11.003,30.494
		L11.003,30.494z M11.003,31.7v-1.068l-1.737-0.65v1.068l0.521,0.14l0.174,0.092l0,0v0.279l0.347,0.139v-0.139v-0.14l0.174,0.14
		L11.003,31.7L11.003,31.7z"/>
	<path style="fill-rule:evenodd;clip-rule:evenodd;fill:#FFFFFF;" d="M11.003,29.008h0.116v0.139v1.208v0.092h-0.116l-1.737-0.742
		v-0.139l0,0v-1.207v-0.139l0,0l0.521,0.279v-0.14v-0.139v0.139l0.695,0.14l0,0v0.139v0.139L11.003,29.008L11.003,29.008
		L11.003,29.008L11.003,29.008z M11.003,30.215v-1.068l-0.521-0.231h-0.174v-0.14v-0.139l-0.347-0.139v0.139l0,0H9.787L9.44,28.498
		l-0.174,1.067L11.003,30.215L11.003,30.215z"/>
	<polygon style="fill-rule:evenodd;clip-rule:evenodd;fill:#2F3D70;" points="10.424,28.358 10.424,28.451 10.424,28.59 
		10.598,28.59 11.119,28.822 11.119,29.704 9.266,29.146 9.498,28.219 9.845,28.358 10.02,28.358 10.02,28.358 10.02,28.219 
		10.424,28.358 10.424,28.358 10.424,28.358 	"/>
	<polygon style="fill-rule:evenodd;clip-rule:evenodd;fill:#2F3D70;" points="9.266,29.565 9.266,30.446 8.688,30.354 8.688,30.354 
		8.688,30.354 8.688,30.446 8.05,30.354 8.05,30.261 8.05,30.121 8.05,30.121 7.413,29.89 7.413,28.961 9.266,29.565 9.266,29.565 
		9.266,29.565 	"/>
	<path style="fill-rule:evenodd;clip-rule:evenodd;fill:#FFFFFF;" d="M9.266,29.518L9.266,29.518v0.093v0.835l0,0l0,0l-0.463-0.14
		v0.14l0,0H8.629l-0.521-0.14l-0.174-0.092l0,0v-0.094l-0.347-0.186H7.413v-0.092v-0.789v-0.094l0.174,0.094L9.266,29.518
		L9.266,29.518L9.266,29.518L9.266,29.518z M9.15,30.307v-0.696l-1.563-0.464v0.697l0.521,0.186l0,0v0.092v0.094l0.521,0.092v-0.092
		l0,0l0,0L9.15,30.307L9.15,30.307z"/>
	<path style="fill-rule:evenodd;clip-rule:evenodd;fill:#FFFFFF;" d="M9.266,28.265L9.266,28.265v0.14v1.299l0,0l0,0l-1.679-0.743
		H7.413v-0.139v-1.207v-0.139l0.174,0.139l0.521,0.14v-0.14l0,0l0,0l0.521,0.14l0.174,0.139v0.14v0.139L9.266,28.265L9.266,28.265
		L9.266,28.265L9.266,28.265z M9.15,29.611v-1.206l-0.521-0.232l0,0l0,0v-0.139l-0.521-0.278v0.278l0,0l0,0L7.76,27.755v1.067
		L9.15,29.611L9.15,29.611z"/>
	<polygon style="fill-rule:evenodd;clip-rule:evenodd;fill:#2F3D70;" points="8.571,27.708 8.571,27.801 8.571,27.801 8.571,27.801 
		9.266,28.033 9.266,28.961 7.413,28.358 7.413,27.476 7.876,27.708 7.876,27.708 7.876,27.708 7.876,27.476 8.571,27.708 
		8.571,27.708 8.571,27.708 	"/>
	<polygon style="fill-rule:evenodd;clip-rule:evenodd;fill:#2F3D70;" points="7.413,28.868 7.413,29.704 6.833,29.518 6.602,29.518 
		6.602,29.518 6.602,29.704 6.197,29.518 6.197,29.425 6.197,29.425 6.023,29.286 5.56,29.101 5.56,28.219 7.413,28.868 
		7.413,28.868 7.413,28.868 	"/>
	<path style="fill-rule:evenodd;clip-rule:evenodd;fill:#FFFFFF;" d="M7.297,28.683l0.116,0.093v0.093v0.836l0,0H7.297l-0.521-0.093
		v0.093l0,0l0,0l-0.695-0.187l0,0v-0.092v-0.092L5.56,29.24v-0.093v-0.092v-0.836l0,0l0,0L7.297,28.683L7.297,28.683L7.297,28.683
		L7.297,28.683z M7.297,29.611v-0.743l-1.563-0.556v0.743l0.347,0.185l0.174,0.094l0,0v0.092l0.347,0.186v-0.186l0,0h0.174
		L7.297,29.611L7.297,29.611z"/>
	<path style="fill-rule:evenodd;clip-rule:evenodd;fill:#FFFFFF;" d="M7.297,27.291h0.116v0.093v0.835l0,0H7.297L5.56,27.755v-0.093
		l0,0v-0.929l0,0l0,0l0.521,0.186v-0.186l0,0h0.174l0.521,0.186l0,0v0.093v0.093L7.297,27.291L7.297,27.291L7.297,27.291
		L7.297,27.291z M7.297,28.126v-0.743l-0.521-0.186l-0.174-0.093l0,0v-0.093l-0.347-0.093v0.093l0,0l0,0l-0.521-0.093v0.743
		L7.297,28.126L7.297,28.126z"/>
	<polygon style="fill-rule:evenodd;clip-rule:evenodd;fill:#2F3D70;" points="6.602,26.873 6.602,26.966 6.602,26.966 6.833,27.105 
		7.413,27.337 7.413,28.219 5.56,27.662 5.56,26.733 6.197,26.873 6.197,26.873 6.197,26.873 6.197,26.733 6.602,26.873 
		6.602,26.873 6.602,26.873 	"/>
	<polygon style="fill-rule:evenodd;clip-rule:evenodd;fill:#2F3D70;" points="5.56,28.08 5.56,28.961 4.865,28.868 4.865,28.775 
		4.865,28.868 4.865,28.961 4.17,28.868 4.17,28.636 4.17,28.636 4.17,28.636 3.707,28.405 3.707,27.476 5.56,28.08 5.56,28.08 
		5.56,28.08 	"/>
	<path style="fill-rule:evenodd;clip-rule:evenodd;fill:#FFFFFF;" d="M5.56,27.522L5.56,27.522v0.14v1.206v0.093v-0.093
		l-0.464-0.139v0.139v0.093l-0.173-0.093l-0.521-0.139V28.59l0,0v-0.278L3.88,28.219H3.707V28.08v-1.346l0,0H3.88L5.56,27.522
		L5.56,27.522L5.56,27.522L5.56,27.522z M5.444,28.729v-1.067l-1.39-0.65v1.067l0.348,0.232l0,0l0,0v0.278l0.521,0.139V28.59v-0.14
		v0.14L5.444,28.729L5.444,28.729z"/>
	<path style="fill-rule:evenodd;clip-rule:evenodd;fill:#FFFFFF;" d="M5.56,26.548L5.56,26.548v0.093v0.835l0,0l0,0l-1.68-0.51
		H3.707v-0.093v-0.79v-0.093l0.173,0.093l0.522,0.093v-0.093v-0.093v0.093l0.521,0.093l0.173,0.093l0,0v0.186L5.56,26.548
		L5.56,26.548L5.56,26.548L5.56,26.548z M5.444,27.337v-0.696l-0.521-0.186l0,0l0,0V26.27l-0.521-0.093v0.093v0.093V26.27
		l-0.348-0.093v0.697L5.444,27.337L5.444,27.337z"/>
	<polygon style="fill-rule:evenodd;clip-rule:evenodd;fill:#2F3D70;" points="4.865,26.13 4.865,26.362 4.865,26.362 4.865,26.362 
		5.56,26.595 5.56,27.476 3.707,26.919 3.707,25.991 4.17,26.13 4.17,26.223 4.17,26.13 4.17,25.991 4.865,26.13 4.865,26.13 
		4.865,26.13 	"/>
	<polygon style="fill-rule:evenodd;clip-rule:evenodd;fill:#2F3D70;" points="3.707,27.337 3.707,28.219 3.127,28.126 2.896,28.126 
		2.896,28.126 2.896,28.219 2.491,28.126 2.491,28.033 2.491,28.033 2.491,27.894 1.854,27.662 1.854,26.733 3.707,27.337 
		3.707,27.337 3.707,27.337 	"/>
	<path style="fill-rule:evenodd;clip-rule:evenodd;fill:#FFFFFF;" d="M3.591,26.688l0.116,0.139l0,0v1.393l0,0H3.591L3.069,27.94
		v0.278l0,0l0,0L2.548,27.94H2.375v-0.14v-0.139l-0.348-0.279H1.854v-0.139v-1.254l0,0h0.173L3.591,26.688L3.591,26.688
		L3.591,26.688L3.591,26.688z M3.591,27.94v-1.114L2.027,26.13v1.114l0.521,0.278v0.14l0,0v0.139l0.348,0.14v-0.14l0,0h0.173
		L3.591,27.94L3.591,27.94z"/>
	<path style="fill-rule:evenodd;clip-rule:evenodd;fill:#FFFFFF;" d="M3.591,25.713l0.116,0.092v0.093v0.835l0,0H3.591L2.027,26.27
		l-0.173-0.093v-0.093v-0.835l0,0h0.173l0.348,0.093v-0.093l0,0h0.173l0.521,0.186l0,0v0.094v0.093L3.591,25.713L3.591,25.713
		L3.591,25.713L3.591,25.713z M3.591,26.641v-0.743l-0.522-0.185L2.896,25.62l0,0v-0.093l-0.174-0.187v0.187l0,0H2.548l-0.521-0.187
		v0.743L3.591,26.641L3.591,26.641z"/>
	<polygon style="fill-rule:evenodd;clip-rule:evenodd;fill:#2F3D70;" points="2.896,25.48 2.896,25.573 2.896,25.573 3.127,25.713 
		3.707,25.898 3.707,26.733 1.854,26.13 1.854,25.248 2.491,25.48 2.722,25.48 2.722,25.48 2.722,25.248 2.896,25.48 2.896,25.48 
		2.896,25.48 	"/>
	<polygon style="fill-rule:evenodd;clip-rule:evenodd;fill:#4F62A5;" points="29.651,38.615 29.824,38.615 31.504,39.915 
		31.388,40.1 29.651,38.615 29.651,38.615 29.651,38.615 	"/>
	<polygon style="fill-rule:evenodd;clip-rule:evenodd;fill:#CEC3D4;" points="31.504,39.869 31.504,41.585 29.651,40.519 
		29.651,38.615 31.504,39.869 31.504,39.869 31.504,39.869 	"/>
	<path style="fill-rule:evenodd;clip-rule:evenodd;fill:#FFFFFF;" d="M31.504,40.147v0.138l0,0v1.208v0.092l0,0l-1.853-0.742l0,0
		v-0.139v-1.207v-0.139l0,0l0.579,0.277v-0.138v-0.139h0.174l0.405,0.417h0.174l0,0v0.139L31.504,40.147L31.504,40.147
		L31.504,40.147L31.504,40.147z M31.33,41.354v-1.068l-0.521-0.138v-0.093v-0.14v-0.139l-0.405-0.14v0.14v0.139v-0.139l-0.521-0.14
		v1.068L31.33,41.354L31.33,41.354z"/>
	<polygon style="fill-rule:evenodd;clip-rule:evenodd;fill:#2F3D70;" points="30.809,39.498 30.809,39.59 30.809,39.729 
		30.809,39.823 31.504,39.961 31.504,40.843 29.651,40.286 29.651,39.358 30.346,39.498 30.346,39.59 30.346,39.498 30.346,39.358 
		30.809,39.498 30.809,39.498 30.809,39.498 	"/>
	<polygon style="fill-rule:evenodd;clip-rule:evenodd;fill:#2A3174;" points="28.725,38.615 29.651,38.615 29.651,40.1 28.725,40.1 
		28.725,38.615 28.725,38.615 28.725,38.615 	"/>
	<polygon style="fill-rule:evenodd;clip-rule:evenodd;fill:#4F62A5;" points="26.872,37.873 27.103,37.873 29.651,38.615 
		29.477,38.615 26.872,37.873 26.872,37.873 26.872,37.873 	"/>
	<polygon style="fill-rule:evenodd;clip-rule:evenodd;fill:#CEC3D4;" points="28.725,38.708 28.725,40.1 26.872,39.311 
		26.872,37.873 28.725,38.708 28.725,38.708 28.725,38.708 	"/>
	<path style="fill-rule:evenodd;clip-rule:evenodd;fill:#FFFFFF;" d="M28.725,38.8L28.725,38.8L28.725,38.8v1.3l0,0l0,0l-1.68-0.742
		h-0.173l0,0v-1.346v-0.14l0.173,0.14l0.521,0.138v-0.138v-0.14v0.14l0.695,0.277l0,0v0.14v0.139L28.725,38.8L28.725,38.8
		L28.725,38.8L28.725,38.8z M28.609,40.008V38.8l-0.348-0.231h-0.174l0,0V38.43l-0.347-0.279v0.139v0.14h-0.174l-0.521-0.279v1.208
		L28.609,40.008L28.609,40.008z"/>
	<polygon style="fill-rule:evenodd;clip-rule:evenodd;fill:#2F3D70;" points="28.435,38.848 28.435,38.94 28.435,38.94 
		28.551,38.94 28.725,39.173 28.725,40.1 27.798,39.59 27.798,38.615 28.145,38.848 28.261,38.848 28.261,38.754 28.261,38.615 
		28.435,38.848 28.435,38.848 28.435,38.848 	"/>
	<polygon style="fill-rule:evenodd;clip-rule:evenodd;fill:#4F62A5;" points="17.605,32.071 17.953,31.931 25.018,34.903 
		24.902,34.903 17.605,32.071 17.605,32.071 17.605,32.071 	"/>
	<polygon style="fill-rule:evenodd;clip-rule:evenodd;fill:#CEC3D4;" points="25.018,35.088 25.018,37.873 17.605,34.764 
		17.605,31.931 25.018,35.088 25.018,35.088 25.018,35.088 	"/>
	<polygon style="fill-rule:evenodd;clip-rule:evenodd;fill:#2F3D70;" points="24.091,36.99 24.091,37.873 23.802,37.78 
		23.802,37.688 23.802,37.78 23.802,37.873 23.628,37.78 23.628,37.548 23.628,37.548 23.513,37.548 23.165,37.315 23.165,36.388 
		24.091,36.99 24.091,36.99 24.091,36.99 	"/>
	<path style="fill-rule:evenodd;clip-rule:evenodd;fill:#FFFFFF;" d="M24.091,36.434L24.091,36.434v0.139v1.207v0.093V37.78
		l-0.231-0.14v0.14l0,0h-0.058l-0.29-0.14l-0.059-0.139l0,0v-0.278L23.28,37.13h-0.116v-0.14v-1.346l0,0h0.116L24.091,36.434
		L24.091,36.434L24.091,36.434L24.091,36.434z M24.034,37.64v-1.067l-0.753-0.649v1.066l0.232,0.233h0.116l0,0v0.278l0.174,0.139
		v-0.139v-0.138v0.138L24.034,37.64L24.034,37.64z"/>
	<path style="fill-rule:evenodd;clip-rule:evenodd;fill:#FFFFFF;" d="M24.091,34.949L24.091,34.949v0.14v1.299l0,0l0,0l-0.811-0.743
		h-0.116v-0.139v-1.207V34.16l0.116,0.139l0.174,0.14v-0.14V34.16l0.059,0.139l0.29,0.14l0.058,0.14l0,0v0.277L24.091,34.949
		L24.091,34.949L24.091,34.949L24.091,34.949z M24.034,36.155v-1.067l-0.231-0.233l0,0l0,0v-0.277l-0.174-0.14v0.14l0,0h-0.116
		l-0.232-0.14v1.067L24.034,36.155L24.034,36.155z"/>
	<polygon style="fill-rule:evenodd;clip-rule:evenodd;fill:#2F3D70;" points="23.802,35.041 23.802,35.274 23.802,35.274 
		23.802,35.274 24.091,35.505 24.091,36.388 23.165,35.83 23.165,34.903 23.513,35.041 23.628,35.041 23.628,35.041 23.628,34.903 
		23.802,35.041 23.802,35.041 23.802,35.041 	"/>
	<polygon style="fill-rule:evenodd;clip-rule:evenodd;fill:#2F3D70;" points="22.238,35.784 22.238,37.13 21.891,36.99 
		21.891,36.99 21.891,36.99 21.891,37.13 21.659,36.99 21.659,36.805 21.659,36.62 21.659,36.62 21.312,36.294 21.312,34.903 
		22.238,35.784 22.238,35.784 22.238,35.784 	"/>
	<path style="fill-rule:evenodd;clip-rule:evenodd;fill:#FFFFFF;" d="M22.238,35.691L22.238,35.691v0.139v1.3l0,0l0,0l-0.231-0.231
		v0.231l0,0h-0.116l-0.174-0.231l-0.116-0.14l0,0V36.62l-0.29-0.232l0,0v-0.139v-1.208v-0.138v0.138L22.238,35.691L22.238,35.691
		L22.238,35.691L22.238,35.691z M22.181,36.898V35.83l-0.753-0.649v1.068l0.29,0.231l0,0v0.14v0.139l0.174,0.14v-0.14l0,0l0,0
		L22.181,36.898L22.181,36.898z"/>
	<path style="fill-rule:evenodd;clip-rule:evenodd;fill:#FFFFFF;" d="M22.238,34.206L22.238,34.206v0.14v1.299l0,0l0,0l-0.927-0.649
		v-0.092v-0.139v-1.208v-0.139v0.139l0.29,0.14v-0.14l0,0h0.116l0.29,0.279l0,0v0.139v0.14L22.238,34.206L22.238,34.206
		L22.238,34.206L22.238,34.206z M22.181,35.551l0.058-1.206l-0.231-0.14l-0.116-0.092l0,0v-0.14l-0.174-0.279v0.279l0,0l0,0
		l-0.29-0.279v1.068L22.181,35.551L22.181,35.551z"/>
	<polygon style="fill-rule:evenodd;clip-rule:evenodd;fill:#2F3D70;" points="21.833,34.391 21.833,34.484 21.833,34.484 
		21.948,34.624 22.238,34.716 22.181,35.645 21.312,35.041 21.312,34.16 21.659,34.391 21.659,34.391 21.659,34.391 21.659,34.16 
		21.833,34.391 21.833,34.391 21.833,34.391 	"/>
	<polygon style="fill-rule:evenodd;clip-rule:evenodd;fill:#2F3D70;" points="20.385,35.134 20.385,36.388 20.095,36.109 
		19.979,36.109 19.979,36.109 19.979,36.388 19.806,36.109 19.806,35.924 19.806,35.924 19.806,35.784 19.458,35.459 19.458,34.16 
		20.385,35.134 20.385,35.134 20.385,35.134 	"/>
	<path style="fill-rule:evenodd;clip-rule:evenodd;fill:#FFFFFF;" d="M21.196,34.855l0.116,0.14v0.139v1.253l0,0h-0.116
		l-0.521-0.139v0.139l0,0l0,0l-0.695-0.278l0,0v-0.14v-0.14l-0.347-0.139l-0.174-0.14v-0.138V34.16l0,0h0.174L21.196,34.855
		L21.196,34.855L21.196,34.855L21.196,34.855z M21.196,36.249v-1.114l-1.563-0.835v1.114l0.521,0.278v0.139l0,0v0.14l0.347,0.279
		V35.97l0,0h0.174L21.196,36.249L21.196,36.249z"/>
	<path style="fill-rule:evenodd;clip-rule:evenodd;fill:#FFFFFF;" d="M21.196,33.51h0.116v0.14v1.253l0,0h-0.116l-1.563-0.697
		l-0.174-0.139l0,0v-1.392l0,0h0.174l0.347,0.279v-0.279l0,0h0.174l0.521,0.279l0,0v0.139v0.139L21.196,33.51L21.196,33.51
		L21.196,33.51L21.196,33.51z M21.196,34.764v-1.114l-0.521-0.279l-0.174-0.14l0,0v-0.139l-0.347-0.139v0.139l0,0l0,0l-0.521-0.139
		v1.113L21.196,34.764L21.196,34.764z"/>
	<polygon style="fill-rule:evenodd;clip-rule:evenodd;fill:#2F3D70;" points="19.979,33.556 19.979,33.649 19.979,33.649 
		20.095,33.789 20.385,34.02 20.385,34.903 19.458,34.345 19.458,33.417 19.806,33.556 19.806,33.556 19.806,33.556 19.806,33.417 
		19.979,33.556 19.979,33.556 19.979,33.556 	"/>
	<polygon style="fill-rule:evenodd;clip-rule:evenodd;fill:#2F3D70;" points="18.532,34.02 18.532,34.903 18.242,34.81 
		18.242,34.716 18.242,34.81 18.242,34.903 18.068,34.81 18.068,34.578 18.068,34.578 17.953,34.484 17.605,34.345 17.605,33.417 
		18.532,34.02 18.532,34.02 18.532,34.02 	"/>
	<path style="fill-rule:evenodd;clip-rule:evenodd;fill:#FFFFFF;" d="M19.458,34.206L19.458,34.206v0.14v1.206v0.093v-0.093
		l-0.521-0.138v0.138l0,0h-0.174l-0.58-0.277h-0.173l0,0v-0.279l-0.405-0.092l0,0v-0.139v-1.347l0,0l0,0L19.458,34.206
		L19.458,34.206L19.458,34.206L19.458,34.206z M19.285,35.413v-1.068l-1.679-0.65v1.068l0.579,0.139l0.174,0.092l0,0v0.279
		l0.406,0.139v-0.139v-0.14v0.14L19.285,35.413L19.285,35.413z"/>
	<path style="fill-rule:evenodd;clip-rule:evenodd;fill:#FFFFFF;" d="M19.458,32.721L19.458,32.721v0.139v1.3l0,0l0,0l-1.853-0.743
		l0,0v-0.138v-1.208v-0.14l0,0l0.405,0.279v-0.139v-0.14l0.173,0.14l0.58,0.139l0.174,0.14l0,0v0.279L19.458,32.721L19.458,32.721
		L19.458,32.721L19.458,32.721z M19.285,33.928V32.86l-0.521-0.231l0,0l0,0V32.35l-0.406-0.14v0.14l0,0h-0.174l-0.579-0.14v1.068
		L19.285,33.928L19.285,33.928z"/>
	<polygon style="fill-rule:evenodd;clip-rule:evenodd;fill:#2F3D70;" points="18.242,32.118 18.242,32.489 18.242,32.489 
		18.242,32.489 18.532,32.814 18.532,34.16 17.605,33.324 17.605,31.931 17.953,32.118 18.068,32.118 18.068,32.118 18.068,31.931 
		18.242,32.118 18.242,32.118 18.242,32.118 	"/>
	<path style="fill-rule:evenodd;clip-rule:evenodd;fill:#37477D;" d="M25.655,35.83c0.289,0,0.289,0.14,0.289,0.279
		c0,0.139,0,0.278-0.289,0.139c-0.29,0-0.638-0.279-0.638-0.279C25.018,35.83,25.366,35.645,25.655,35.83L25.655,35.83"/>
	<path style="fill-rule:evenodd;clip-rule:evenodd;fill:#3F5089;" d="M25.597,36.48c0.231,0.093,0.347,0.233,0.347,0.464
		c0,0.14-0.116,0.186-0.347,0.046c-0.29-0.046-0.58-0.231-0.58-0.371C25.018,36.48,25.308,36.388,25.597,36.48L25.597,36.48
		L25.597,36.48z M25.597,36.851c0.116,0.093,0.116,0.093,0.116,0c0-0.092,0-0.231-0.116-0.231c-0.174-0.046-0.29,0-0.29,0.093
		C25.308,36.759,25.423,36.851,25.597,36.851"/>
	<path style="fill-rule:evenodd;clip-rule:evenodd;fill:#3F5089;" d="M25.597,35.738c0.231,0.092,0.347,0.277,0.347,0.417
		c0,0.186-0.116,0.232-0.347,0.186c-0.29-0.092-0.58-0.278-0.58-0.511C25.018,35.645,25.308,35.645,25.597,35.738L25.597,35.738
		L25.597,35.738z M25.597,36.155c0.116,0.093,0.116,0,0.116-0.092c0-0.047,0-0.139-0.116-0.139c-0.174-0.094-0.29,0-0.29,0.092
		C25.308,36.016,25.423,36.155,25.597,36.155"/>
	<path style="fill-rule:evenodd;clip-rule:evenodd;fill:#37477D;" d="M25.655,36.573c0.289,0,0.289,0.278,0.289,0.417
		c0,0.14,0,0.14-0.289,0c-0.29,0-0.638-0.139-0.638-0.277C25.018,36.573,25.366,36.388,25.655,36.573L25.655,36.573"/>
	<path style="fill-rule:evenodd;clip-rule:evenodd;fill:#3F5089;" d="M26.523,37.223c0.231,0.092,0.348,0.278,0.348,0.464
		c0,0.138-0.117,0.186-0.348,0.138c-0.29-0.092-0.579-0.325-0.579-0.463C25.944,37.223,26.234,37.13,26.523,37.223L26.523,37.223
		L26.523,37.223z M26.523,37.688c0.116,0,0.116,0,0.116-0.093s0-0.231-0.116-0.231c-0.174-0.047-0.29,0-0.29,0.092
		C26.234,37.501,26.35,37.594,26.523,37.688"/>
	<path style="fill-rule:evenodd;clip-rule:evenodd;fill:#37477D;" d="M25.655,37.13c0.289,0.186,0.289,0.371,0.289,0.558
		c0,0.186,0,0.186-0.289,0.186c-0.29-0.186-0.638-0.372-0.638-0.558S25.366,37.13,25.655,37.13L25.655,37.13"/>
	<path style="fill-rule:evenodd;clip-rule:evenodd;fill:#3F5089;" d="M25.597,37.965c0.231,0.093,0.347,0.279,0.347,0.464
		c0,0.139-0.116,0.186-0.347,0.139c-0.29-0.093-0.58-0.325-0.58-0.464C25.018,37.965,25.308,37.873,25.597,37.965L25.597,37.965
		L25.597,37.965z M25.597,38.43c0.116,0,0.116,0,0.116-0.092c0-0.093,0-0.139-0.116-0.233c-0.174,0-0.29,0-0.29,0.094
		C25.308,38.244,25.423,38.337,25.597,38.43"/>
	<path style="fill-rule:evenodd;clip-rule:evenodd;fill:#3F5089;" d="M25.597,37.223c0.231,0.092,0.347,0.278,0.347,0.464
		c0,0.138-0.116,0.186-0.347,0.138c-0.29-0.092-0.58-0.325-0.58-0.463C25.018,37.223,25.308,37.13,25.597,37.223L25.597,37.223
		L25.597,37.223z M25.597,37.688c0.116,0,0.116,0,0.116-0.093s0-0.14-0.116-0.231c-0.174,0-0.29,0-0.29,0.092
		C25.308,37.501,25.423,37.594,25.597,37.688"/>
	<path style="fill-rule:evenodd;clip-rule:evenodd;fill:#37477D;" d="M25.655,37.873c0.289,0.186,0.289,0.371,0.289,0.557
		s0,0.186-0.289,0.186c-0.29-0.186-0.638-0.371-0.638-0.557S25.366,37.873,25.655,37.873L25.655,37.873"/>
	<path style="fill-rule:evenodd;clip-rule:evenodd;fill:#37477D;" d="M33.821,39.544c0.231,0,0.463,0.279,0.463,0.417
		c0,0.139-0.231,0.139-0.463,0.139c-0.232-0.139-0.463-0.277-0.463-0.417C33.357,39.544,33.588,39.358,33.821,39.544L33.821,39.544"
		/>
	<polygon style="fill-rule:evenodd;clip-rule:evenodd;fill:#3F5089;" points="34.284,40.936 34.284,41.029 34.284,41.493 
		33.994,41.585 33.994,41.585 33.704,41.493 33.357,41.4 33.357,41.4 33.357,40.936 33.357,40.843 33.704,40.843 33.994,40.936 
		34.284,40.936 34.284,40.936 34.284,40.936 	"/>
	<path style="fill-rule:evenodd;clip-rule:evenodd;fill:#3F5089;" d="M33.821,40.193c0.347,0.092,0.463,0.279,0.463,0.464
		c0,0.14-0.116,0.186-0.463,0.14c-0.29-0.093-0.463-0.325-0.463-0.464C33.357,40.193,33.531,40.1,33.821,40.193L33.821,40.193
		L33.821,40.193z M33.821,40.658c0.173,0,0.347,0,0.347-0.093c0-0.092-0.174-0.14-0.347-0.231c-0.117,0-0.29,0-0.29,0.092
		C33.531,40.472,33.704,40.564,33.821,40.658"/>
	<path style="fill-rule:evenodd;clip-rule:evenodd;fill:#3F5089;" d="M33.821,39.45c0.347,0.094,0.463,0.279,0.463,0.464
		c0,0.14-0.116,0.186-0.463,0.14c-0.29-0.093-0.463-0.325-0.463-0.464C33.357,39.45,33.531,39.358,33.821,39.45L33.821,39.45
		L33.821,39.45z M33.821,39.915c0.173,0,0.347,0,0.347-0.092c0-0.094-0.174-0.233-0.347-0.233c-0.117-0.046-0.29,0-0.29,0.093
		C33.531,39.729,33.704,39.823,33.821,39.915"/>
	<polygon style="fill-rule:evenodd;clip-rule:evenodd;fill:#3F5089;" points="34.284,38.708 34.284,38.8 34.284,39.358 
		34.284,39.358 33.994,39.358 33.704,39.265 33.357,39.265 33.357,39.265 33.357,38.708 33.357,38.615 33.704,38.615 33.994,38.708 
		34.284,38.708 34.284,38.708 34.284,38.708 	"/>
</g>
</svg>