<?xml version="1.0" encoding="iso-8859-1"?>
<!DOCTYPE svg PUBLIC "-//W3C//DTD SVG 1.1//EN" "http://www.w3.org/Graphics/SVG/1.1/DTD/svg11.dtd">
<svg version="1.1" xmlns="http://www.w3.org/2000/svg" xmlns:xlink="http://www.w3.org/1999/xlink" width="55" height="40" viewBox="0 0 55 40">
<g>
	<polygon style="fill-rule:evenodd;clip-rule:evenodd;fill:#2A3174;" points="53.858,15.307 53.858,23.351 27.212,39.118 
		27.212,31.11 53.858,15.307 53.858,15.307 53.858,15.307 53.858,15.307 53.858,15.307 	"/>
	<polygon style="fill-rule:evenodd;clip-rule:evenodd;fill:#37468B;" points="27.212,31.11 27.212,39.118 0,23.351 0,15.307 
		27.212,31.11 27.212,31.11 27.212,31.11 27.212,31.11 27.212,31.11 	"/>
	<polygon style="fill-rule:evenodd;clip-rule:evenodd;fill:#4F62A5;" points="53.858,15.555 27.035,31.181 0,15.555 26.929,0 
		53.858,15.555 53.858,15.555 53.858,15.555 53.858,15.555 53.858,15.555 	"/>
	<path style="fill:#545DA1;stroke:#545DA1;stroke-width:0.0354;stroke-linejoin:round;stroke-miterlimit:10;" d="M27.354,33.555
		l27.213-15.909l0.318,0.46L27.673,34.051L27.354,33.555L27.354,33.555z M27.354,35.574L54.567,19.63l0.318,0.496L27.673,36.07
		L27.354,35.574L27.354,35.574z M27.354,37.488l27.213-15.839l0.283,0.461L27.638,37.948L27.354,37.488L27.354,37.488z"/>
	<polygon style="fill-rule:evenodd;clip-rule:evenodd;fill:#2A3174;" points="45.92,13.004 42.944,13.004 42.944,15.661 
		39.012,13.394 38.233,13.004 37.311,13.11 29.338,14.244 31.11,9.638 31.393,8.964 30.649,8.61 26.716,6.342 31.393,6.342 
		31.393,4.535 21.189,4.535 21.189,10.488 24.271,10.488 24.271,7.76 27.46,9.744 25.476,14.705 16.76,15.945 13.571,14.067 
		18.177,14.067 18.177,12.26 7.937,12.26 8.043,18.177 11.055,18.177 11.055,15.449 14.988,17.823 15.661,18.177 16.689,18.106 
		24.661,16.972 22.783,21.685 22.571,22.252 23.244,22.606 27.177,24.874 22.5,24.874 22.571,26.646 32.811,26.646 32.704,20.729 
		29.729,20.729 29.729,23.456 26.539,21.578 28.382,16.512 37.204,15.271 40.393,17.149 35.717,17.149 35.717,18.957 45.92,18.957 
		45.92,13.004 45.92,13.004 	"/>
	<polygon style="fill-rule:evenodd;clip-rule:evenodd;fill:#FFFFFF;" points="45.92,12.401 42.944,12.401 42.944,15.13 
		39.012,12.897 38.233,12.508 37.311,12.614 29.338,13.642 31.11,9.035 31.393,8.468 30.649,8.114 26.716,5.775 31.393,5.775 
		31.393,3.968 21.189,3.968 21.189,9.992 24.271,9.992 24.271,7.264 27.46,9.142 25.476,14.208 16.76,15.307 13.571,13.464 
		18.177,13.464 18.177,11.764 7.937,11.764 8.043,17.681 11.055,17.681 11.055,14.953 14.988,17.185 15.661,17.575 16.689,17.468 
		24.661,16.441 22.783,21.047 22.571,21.614 23.244,21.969 27.177,24.307 22.5,24.307 22.571,26.078 32.811,26.078 32.704,20.09 
		29.729,20.09 29.729,22.818 26.539,20.94 28.382,15.874 37.204,14.775 40.393,16.618 35.717,16.618 35.717,18.425 45.92,18.425 
		45.92,12.401 45.92,12.401 	"/>
	<polygon style="fill-rule:evenodd;clip-rule:evenodd;fill:#FFFFFF;" points="12.472,25.157 11.551,28.347 10.594,27.814 
		10.205,25.44 9.85,27.46 8.787,26.858 7.937,22.677 8.894,23.314 9.354,25.795 9.744,23.74 10.701,24.2 11.055,26.681 
		11.551,24.626 12.472,25.157 12.472,25.157 12.472,25.157 12.472,25.157 	"/>
	<path style="fill-rule:evenodd;clip-rule:evenodd;fill:#FFFFFF;" d="M14.705,26.646l1.169,4.535l-1.099-0.638l-0.071-0.638
		l-1.028-0.567L13.5,29.799l-1.028-0.638l1.205-3.083L14.705,26.646L14.705,26.646L14.705,26.646L14.705,26.646L14.705,26.646z
		 M13.854,28.7l0.673,0.284l-0.284-1.312l-0.106-0.106L13.854,28.7L13.854,28.7z"/>
	<path style="fill-rule:evenodd;clip-rule:evenodd;fill:#FFFFFF;" d="M19.027,29.268c0.177,0.39,0.248,0.709,0.248,1.063
		c0,0.426-0.106,0.709-0.354,0.815c-0.212,0.071-0.531,0-0.886-0.248c-0.603-0.354-0.603-0.354-0.603-0.354c0,1.205,0,1.205,0,1.205
		c-0.992-0.603-0.992-0.603-0.992-0.603c0.071-3.934,0.071-3.934,0.071-3.934c1.594,1.028,1.594,1.028,1.594,1.028
		C18.531,28.488,18.815,28.807,19.027,29.268L19.027,29.268L19.027,29.268L19.027,29.268z M18.177,30.012
		c0.142,0,0.177-0.071,0.177-0.213c0-0.213-0.035-0.318-0.142-0.461c-0.036-0.035-0.177-0.142-0.319-0.212
		c-0.461-0.319-0.461-0.319-0.461-0.319c0,0.851,0,0.851,0,0.851c0.425,0.213,0.425,0.213,0.425,0.213
		C18,29.977,18.106,30.012,18.177,30.012"/>
</g>
</svg>