<?xml version="1.0" encoding="iso-8859-1"?>
<!DOCTYPE svg PUBLIC "-//W3C//DTD SVG 1.1//EN" "http://www.w3.org/Graphics/SVG/1.1/DTD/svg11.dtd">
<svg version="1.1" xmlns="http://www.w3.org/2000/svg" xmlns:xlink="http://www.w3.org/1999/xlink" width="113" height="58" viewBox="0 0 113 58">
<g>
	<polygon style="fill-rule:evenodd;clip-rule:evenodd;fill:#2A3174;" points="59.504,52.129 112.063,27.514 112.063,32.819 
		59.504,57.386 59.504,52.129 59.504,52.129 59.504,52.129 	"/>
	<polygon style="fill-rule:evenodd;clip-rule:evenodd;fill:#4F62A5;" points="0,24.664 52.995,0 112.063,27.268 59.255,51.883 
		0,24.664 0,24.664 0,24.664 	"/>
	<polygon style="fill-rule:evenodd;clip-rule:evenodd;fill:#37468B;" points="59.504,52.079 59.504,57.386 0,29.725 0,24.369 
		59.504,52.079 59.504,52.079 59.504,52.079 	"/>
	<polygon style="fill-rule:evenodd;clip-rule:evenodd;fill:#4F62A5;" points="0.992,26.089 1.178,25.941 13.884,32.132 13.76,32.23 
		0.992,26.089 0.992,26.089 0.992,26.089 	"/>
	<polygon style="fill-rule:evenodd;clip-rule:evenodd;fill:#FFFFFF;" points="13.884,31.936 13.884,35.375 0.992,29.43 
		0.992,25.941 13.884,31.936 13.884,31.936 13.884,31.936 	"/>
	<polygon style="fill-rule:evenodd;clip-rule:evenodd;fill:#2A3174;" points="2.975,28.841 2.975,29.872 2.727,29.675 2.727,29.872 
		2.293,29.675 2.293,29.479 1.983,29.282 1.983,28.3 2.975,28.841 2.975,28.841 2.975,28.841 	"/>
	<polygon style="fill-rule:evenodd;clip-rule:evenodd;fill:#2A3174;" points="2.727,27.071 2.727,27.366 2.975,27.514 2.975,29.086 
		1.983,28.3 1.983,26.728 2.293,27.071 2.293,26.728 2.727,27.071 2.727,27.071 2.727,27.071 	"/>
	<polygon style="fill-rule:evenodd;clip-rule:evenodd;fill:#2A3174;" points="4.958,30.068 4.958,31.443 4.587,31.149 4.587,31.296 
		4.277,31.149 4.277,30.854 3.967,30.511 3.967,29.086 4.958,30.068 4.958,30.068 4.958,30.068 	"/>
	<polygon style="fill-rule:evenodd;clip-rule:evenodd;fill:#2A3174;" points="4.587,27.857 4.587,28.152 4.958,28.496 4.958,29.872 
		3.967,28.938 3.967,27.514 4.277,27.857 4.277,27.514 4.587,27.857 4.587,27.857 4.587,27.857 	"/>
	<polygon style="fill-rule:evenodd;clip-rule:evenodd;fill:#2A3174;" points="6.941,30.658 6.941,32.23 6.57,31.788 6.57,32.083 
		6.26,31.788 6.26,31.64 5.95,31.296 5.95,29.872 6.941,30.658 6.941,30.658 6.941,30.658 	"/>
	<polygon style="fill-rule:evenodd;clip-rule:evenodd;fill:#2A3174;" points="6.57,28.644 6.57,28.791 6.941,29.086 6.941,30.658 
		5.95,29.725 5.95,28.3 6.26,28.644 6.26,28.3 6.57,28.644 6.57,28.644 6.57,28.644 	"/>
	<polygon style="fill-rule:evenodd;clip-rule:evenodd;fill:#2A3174;" points="8.926,31.64 8.926,33.016 8.553,32.722 8.553,33.016 
		8.243,32.722 8.243,32.574 7.934,32.23 7.934,30.658 8.926,31.64 8.926,31.64 8.926,31.64 	"/>
	<polygon style="fill-rule:evenodd;clip-rule:evenodd;fill:#2A3174;" points="8.553,29.577 8.553,29.872 8.926,30.068 8.926,31.443 
		7.934,30.658 7.934,29.086 8.243,29.577 8.243,29.282 8.553,29.577 8.553,29.577 8.553,29.577 	"/>
	<polygon style="fill-rule:evenodd;clip-rule:evenodd;fill:#2A3174;" points="10.909,32.427 10.909,33.803 10.351,33.508 
		10.351,33.655 9.545,33.508 9.545,33.214 8.926,32.869 8.926,31.443 10.909,32.427 10.909,32.427 10.909,32.427 	"/>
	<polygon style="fill-rule:evenodd;clip-rule:evenodd;fill:#2A3174;" points="10.351,30.903 10.351,31.1 10.909,31.296 
		10.909,32.23 8.926,31.64 8.926,30.658 9.545,30.903 9.545,30.806 10.351,30.903 10.351,30.903 10.351,30.903 	"/>
	<polygon style="fill-rule:evenodd;clip-rule:evenodd;fill:#2A3174;" points="12.892,33.558 12.892,34.588 12.334,34.392 
		12.334,34.588 11.528,34.392 11.528,34.195 10.909,33.999 10.909,33.016 12.892,33.558 12.892,33.558 12.892,33.558 	"/>
	<polygon style="fill-rule:evenodd;clip-rule:evenodd;fill:#2A3174;" points="12.334,31.69 12.334,31.887 12.892,32.083 
		12.892,33.016 10.909,32.427 10.909,31.443 11.528,31.69 11.528,31.443 12.334,31.69 12.334,31.69 12.334,31.69 	"/>
	<polygon style="fill-rule:evenodd;clip-rule:evenodd;fill:#4F62A5;" points="13.884,32.23 14.07,32.23 26.776,37.635 
		26.652,37.733 13.884,32.23 13.884,32.23 13.884,32.23 	"/>
	<polygon style="fill-rule:evenodd;clip-rule:evenodd;fill:#FFFFFF;" points="26.776,37.733 26.652,40.878 13.884,35.424 
		13.884,32.23 26.776,37.733 26.776,37.733 26.776,37.733 	"/>
	<polygon style="fill-rule:evenodd;clip-rule:evenodd;fill:#2A3174;" points="15.867,35.13 15.867,36.161 15.62,35.964 
		15.62,36.161 15.31,35.866 15.31,35.768 14.875,35.571 14.875,34.588 15.867,35.13 15.867,35.13 15.867,35.13 	"/>
	<polygon style="fill-rule:evenodd;clip-rule:evenodd;fill:#2A3174;" points="15.62,33.263 15.62,33.459 15.867,33.558 
		15.867,34.588 14.875,34.098 14.875,33.016 15.31,33.263 15.31,33.016 15.62,33.263 15.62,33.263 15.62,33.263 	"/>
	<polygon style="fill-rule:evenodd;clip-rule:evenodd;fill:#2A3174;" points="17.851,35.915 17.851,36.947 17.603,36.75 
		17.603,36.848 17.169,36.75 17.169,36.554 16.859,36.357 16.859,35.375 17.851,35.915 17.851,35.915 17.851,35.915 	"/>
	<polygon style="fill-rule:evenodd;clip-rule:evenodd;fill:#2A3174;" points="17.603,34.048 17.603,34.244 17.851,34.441 
		17.851,35.375 16.859,34.786 16.859,33.803 17.169,34.048 17.169,33.803 17.603,34.048 17.603,34.048 17.603,34.048 	"/>
	<polygon style="fill-rule:evenodd;clip-rule:evenodd;fill:#2A3174;" points="19.834,36.75 19.834,37.733 19.462,37.536 
		19.462,37.733 19.152,37.536 19.152,37.438 18.842,37.192 18.842,36.161 19.834,36.75 19.834,36.75 19.834,36.75 	"/>
	<polygon style="fill-rule:evenodd;clip-rule:evenodd;fill:#2A3174;" points="19.462,34.932 19.462,35.079 19.834,35.375 
		19.834,36.947 18.842,36.014 18.842,34.588 19.152,34.932 19.152,34.588 19.462,34.932 19.462,34.932 19.462,34.932 	"/>
	<polygon style="fill-rule:evenodd;clip-rule:evenodd;fill:#2A3174;" points="21.818,37.586 21.818,38.519 21.445,38.422 
		21.445,38.519 21.136,38.322 21.136,38.224 20.825,38.027 20.825,36.947 21.818,37.586 21.818,37.586 21.818,37.586 	"/>
	<polygon style="fill-rule:evenodd;clip-rule:evenodd;fill:#2A3174;" points="21.445,35.719 21.445,36.161 21.818,36.357 
		21.818,37.733 20.825,36.947 20.825,35.375 21.136,35.719 21.136,35.571 21.445,35.719 21.445,35.719 21.445,35.719 	"/>
	<polygon style="fill-rule:evenodd;clip-rule:evenodd;fill:#2A3174;" points="23.801,38.715 23.801,40.091 23.491,39.797 
		23.491,39.943 23.181,39.797 23.181,39.502 22.81,39.158 22.81,37.733 23.801,38.715 23.801,38.715 23.801,38.715 	"/>
	<polygon style="fill-rule:evenodd;clip-rule:evenodd;fill:#2A3174;" points="23.491,36.504 23.491,36.799 23.801,37.144 
		23.801,38.519 22.81,37.586 22.81,36.161 23.181,36.504 23.181,36.357 23.491,36.504 23.491,36.504 23.491,36.504 	"/>
	<polygon style="fill-rule:evenodd;clip-rule:evenodd;fill:#2A3174;" points="25.785,39.306 25.785,40.878 25.227,40.583 
		25.227,40.878 24.606,40.583 24.606,40.287 23.801,39.943 23.801,38.519 25.785,39.306 25.785,39.306 25.785,39.306 	"/>
	<polygon style="fill-rule:evenodd;clip-rule:evenodd;fill:#2A3174;" points="25.227,37.291 25.227,37.586 25.785,37.733 
		25.785,39.306 23.801,38.371 23.801,36.947 24.606,37.291 24.606,36.947 25.227,37.291 25.227,37.291 25.227,37.291 	"/>
	<polygon style="fill-rule:evenodd;clip-rule:evenodd;fill:#2A3174;" points="28.759,41.074 28.759,42.45 28.512,42.007 
		28.512,42.154 28.078,41.859 28.078,41.663 27.768,41.369 27.768,40.091 28.759,41.074 28.759,41.074 28.759,41.074 	"/>
	<polygon style="fill-rule:evenodd;clip-rule:evenodd;fill:#4F62A5;" points="29.627,40.779 27.954,40.091 27.768,40.287 
		29.503,40.878 29.627,40.878 29.751,40.878 29.627,40.779 29.627,40.779 	"/>
	<polygon style="fill-rule:evenodd;clip-rule:evenodd;fill:#DCCFE1;" points="29.627,40.927 29.751,40.927 29.751,42.45 
		29.131,42.058 29.131,41.909 29.627,42.351 29.627,41.074 27.954,40.238 27.954,41.369 28.449,41.663 28.449,41.762 27.768,41.516 
		27.768,40.091 29.627,40.927 29.627,40.927 29.627,40.927 	"/>
	<polygon style="fill-rule:evenodd;clip-rule:evenodd;fill:#2A3174;" points="31.734,42.203 31.734,43.235 31.053,43.039 
		31.053,43.039 30.495,42.843 30.495,42.843 29.751,42.646 29.751,41.663 31.734,42.203 31.734,42.203 31.734,42.203 	"/>
	<polygon style="fill-rule:evenodd;clip-rule:evenodd;fill:#4F62A5;" points="31.734,41.565 30.061,40.878 29.751,40.878 
		31.61,41.663 31.61,41.663 31.734,41.663 31.734,41.565 31.734,41.565 	"/>
	<polygon style="fill-rule:evenodd;clip-rule:evenodd;fill:#DCCFE1;" points="31.734,41.811 31.734,41.811 31.734,43.235 
		31.115,42.843 31.115,42.843 31.734,43.138 31.734,41.811 29.938,41.172 29.938,42.351 30.619,42.598 30.619,42.598 29.751,42.351 
		29.751,40.878 31.734,41.811 31.734,41.811 31.734,41.811 	"/>
	<polygon style="fill-rule:evenodd;clip-rule:evenodd;fill:#4F62A5;" points="31.734,41.663 31.734,41.663 33.718,43.235 
		33.594,43.235 31.734,41.663 31.734,41.663 31.734,41.663 	"/>
	<polygon style="fill-rule:evenodd;clip-rule:evenodd;fill:#FFFFFF;" points="33.718,42.794 33.718,44.808 31.734,43.727 
		31.92,41.663 33.718,42.794 33.718,42.794 33.718,42.794 	"/>
	<polygon style="fill-rule:evenodd;clip-rule:evenodd;fill:#2A3174;" points="32.479,42.794 32.479,43.088 32.726,43.235 
		32.726,44.808 31.734,43.874 31.734,42.45 32.168,42.794 32.168,42.45 32.479,42.794 32.479,42.794 32.479,42.794 	"/>
	<polygon style="fill-rule:evenodd;clip-rule:evenodd;fill:#4F62A5;" points="33.718,43.235 33.904,43.235 35.702,43.923 
		35.577,44.022 33.718,43.235 33.718,43.235 33.718,43.235 	"/>
	<polygon style="fill-rule:evenodd;clip-rule:evenodd;fill:#FFFFFF;" points="35.702,44.119 35.702,45.594 33.718,44.857 
		33.718,43.235 35.702,44.119 35.702,44.119 35.702,44.119 	"/>
	<polygon style="fill-rule:evenodd;clip-rule:evenodd;fill:#2A3174;" points="34.462,43.579 34.462,43.874 34.709,44.219 
		34.709,45.594 33.718,44.808 33.718,43.235 34.027,43.579 34.027,43.432 34.462,43.579 34.462,43.579 34.462,43.579 	"/>
	<polygon style="fill-rule:evenodd;clip-rule:evenodd;fill:#4F62A5;" points="35.702,43.432 35.888,43.235 37.686,44.611 
		37.562,44.808 35.702,43.432 35.702,43.432 35.702,43.432 	"/>
	<polygon style="fill-rule:evenodd;clip-rule:evenodd;fill:#FFFFFF;" points="37.686,44.415 37.686,46.381 35.702,45.25 
		35.702,43.235 37.686,44.415 37.686,44.415 37.686,44.415 	"/>
	<polygon style="fill-rule:evenodd;clip-rule:evenodd;fill:#2A3174;" points="37.686,44.71 37.686,45.594 36.941,45.495 
		36.941,45.594 36.321,45.495 36.321,45.299 35.702,45.054 35.702,44.022 37.686,44.71 37.686,44.71 37.686,44.71 	"/>
	<path style="fill-rule:evenodd;clip-rule:evenodd;fill:#FFFFFF;" d="M39.545,45.397h0.124l0,0v1.769l0,0h-0.124l-0.868-0.54l0,0
		v-0.147v-1.523v-0.147l0,0L39.545,45.397L39.545,45.397L39.545,45.397L39.545,45.397z M39.421,47.067v-1.67l-0.559-0.295
		l-0.186,1.376L39.421,47.067L39.421,47.067z"/>
	<path style="fill-rule:evenodd;clip-rule:evenodd;fill:#2A3174;" d="M40.164,46.479c-0.124-0.098-0.248-0.098-0.248,0
		c-0.247,0.099-0.247,0.099-0.247,0.099c0-0.099,0.123-0.099,0.247,0c0.248,0.049,0.496,0.294,0.496,0.441
		c0,0.099-0.124,0.147-0.124,0.147c0.248-0.049,0.248-0.049,0.248-0.049s0.124-0.099,0.124-0.147
		C40.66,46.773,40.412,46.577,40.164,46.479"/>
	<path style="fill-rule:evenodd;clip-rule:evenodd;fill:#4F62A5;" d="M40.103,46.479c0.31,0.099,0.558,0.295,0.558,0.491
		c0,0.147-0.248,0.196-0.558,0.147c-0.248-0.099-0.434-0.344-0.434-0.491S39.854,46.381,40.103,46.479L40.103,46.479"/>
	<path style="fill-rule:evenodd;clip-rule:evenodd;fill:#2A3174;" d="M44.131,47.166c0.248,0.147,0.496,0.296,0.496,0.54
		c0,0.148-0.248,0.247-0.496,0.148c-0.248-0.148-0.496-0.296-0.496-0.541C43.635,47.166,43.883,47.166,44.131,47.166L44.131,47.166"
		/>
	<path style="fill-rule:evenodd;clip-rule:evenodd;fill:#C8BFD1;" d="M44.255,47.313c0.186,0,0.372,0.196,0.372,0.441
		c0,0.198-0.187,0.198-0.372,0.1c-0.372,0-0.62-0.196-0.62-0.443C43.635,47.313,43.883,47.166,44.255,47.313L44.255,47.313
		L44.255,47.313z M44.255,47.854c0.186,0.099,0.372,0,0.372-0.1c0-0.245-0.187-0.344-0.372-0.441c-0.186,0-0.372,0-0.372,0.098
		C43.883,47.658,44.069,47.755,44.255,47.854"/>
</g>
</svg>