<?xml version="1.0" encoding="iso-8859-1"?>
<!DOCTYPE svg PUBLIC "-//W3C//DTD SVG 1.1//EN" "http://www.w3.org/Graphics/SVG/1.1/DTD/svg11.dtd">
<svg version="1.1" xmlns="http://www.w3.org/2000/svg" xmlns:xlink="http://www.w3.org/1999/xlink" width="108" height="59" viewBox="0 0 108 59">
<g>
	<polygon style="fill-rule:evenodd;clip-rule:evenodd;fill:#2A3174;" points="56.421,47.821 108.063,24.871 108.063,34.746 
		56.421,57.788 56.421,47.821 56.421,47.821 56.421,47.821 	"/>
	<polygon style="fill-rule:evenodd;clip-rule:evenodd;fill:#4F62A5;" points="0,23.225 51.581,0 108.063,25.19 56.543,48.278 
		0,23.225 0,23.225 0,23.225 	"/>
	<polygon style="fill-rule:evenodd;clip-rule:evenodd;fill:#37468B;" points="56.421,47.958 56.421,57.788 0,33.145 0,23.408 
		56.421,47.958 56.421,47.958 56.421,47.958 	"/>
	<polygon style="fill-rule:evenodd;clip-rule:evenodd;fill:#2A3174;" points="24.864,40.369 25.82,40.232 25.82,43.158 
		24.864,43.158 24.864,40.369 24.864,40.369 24.864,40.369 	"/>
	<polygon style="fill-rule:evenodd;clip-rule:evenodd;fill:#4F62A5;" points="5.737,31.59 5.917,31.455 25.82,40.14 25.701,40.232 
		5.737,31.59 5.737,31.59 5.737,31.59 	"/>
	<polygon style="fill-rule:evenodd;clip-rule:evenodd;fill:#FFFFFF;" points="24.864,40.186 24.864,43.158 5.737,34.471 
		5.737,31.455 24.864,40.186 24.864,40.186 24.864,40.186 	"/>
	<polygon style="fill-rule:evenodd;clip-rule:evenodd;fill:#2A3174;" points="24.864,36.711 25.82,36.574 25.82,39.5 24.864,39.5 
		24.864,36.711 24.864,36.711 24.864,36.711 	"/>
	<polygon style="fill-rule:evenodd;clip-rule:evenodd;fill:#4F62A5;" points="5.737,27.796 5.917,27.796 25.82,36.483 
		25.701,36.574 5.737,27.796 5.737,27.796 5.737,27.796 	"/>
	<polygon style="fill-rule:evenodd;clip-rule:evenodd;fill:#FFFFFF;" points="24.864,36.529 24.864,39.5 5.737,30.951 5.737,27.796 
		24.864,36.529 24.864,36.529 24.864,36.529 	"/>
	<polygon style="fill-rule:evenodd;clip-rule:evenodd;fill:#4F62A5;" points="26.777,40.369 26.777,40.232 45.902,48.918 
		45.783,49.009 26.777,40.369 26.777,40.369 26.777,40.369 	"/>
	<polygon style="fill-rule:evenodd;clip-rule:evenodd;fill:#FFFFFF;" points="45.902,49.146 45.902,51.936 25.82,43.797 26,40.962 
		45.902,49.146 45.902,49.146 45.902,49.146 	"/>
	<polygon style="fill-rule:evenodd;clip-rule:evenodd;fill:#4F62A5;" points="26.777,36.711 26.956,36.574 45.902,45.352 
		45.783,45.352 26.777,36.711 26.777,36.711 26.777,36.711 	"/>
	<polygon style="fill-rule:evenodd;clip-rule:evenodd;fill:#FFFFFF;" points="45.902,45.398 45.902,48.278 26.777,40.14 
		26.777,37.306 45.902,45.398 45.902,45.398 45.902,45.398 	"/>
	<path style="fill-rule:evenodd;clip-rule:evenodd;fill:#2A3174;" d="M45.245,46.175c-0.119-0.092-0.299-0.092-0.478,0
		c0,0-0.061,0-0.061,0.045l0,0c-0.179,0.046-0.299,0.046-0.357,0.138c-0.061,0.046-0.18,0.046-0.359,0.092
		c0.18-0.046,0.359-0.046,0.538,0.046c0.299,0.137,0.657,0.503,0.657,0.777c0,0.183-0.06,0.273-0.239,0.273
		c0.299-0.046,0.598-0.138,0.837-0.273c0.06-0.047,0.119-0.092,0.119-0.274C45.902,46.678,45.604,46.358,45.245,46.175"/>
	<path style="fill-rule:evenodd;clip-rule:evenodd;fill:#4B5E9E;" d="M43.99,46.313c0.479,0.091,0.956,0.502,0.956,0.822
		s-0.478,0.411-0.956,0.32c-0.598-0.183-0.956-0.595-0.956-0.915S43.513,46.083,43.99,46.313L43.99,46.313L43.99,46.313z
		 M44.469,47.135c0-0.183,0-0.183,0-0.183c-1.076-0.32-1.076-0.32-1.076-0.32c0,0.091,0,0.091,0,0.091
		C44.469,47.135,44.469,47.135,44.469,47.135"/>
	<path style="fill-rule:evenodd;clip-rule:evenodd;fill:#2A3174;" d="M27.733,38.128c-0.239-0.092-0.538-0.092-0.777,0
		c0,0,0,0-0.119,0.091l0,0c-0.24,0.093-0.359,0.093-0.479,0.185c-0.12,0.091-0.239,0.091-0.538,0.183
		c0.299-0.092,0.538-0.092,0.777,0.091c0.479,0.183,1.016,0.687,1.016,1.143c0,0.274-0.119,0.412-0.239,0.412
		c0.358-0.046,0.717-0.229,1.076-0.412c0.12-0.091,0.239-0.183,0.239-0.456C28.689,38.952,28.211,38.404,27.733,38.128"/>
	<path style="fill-rule:evenodd;clip-rule:evenodd;fill:#4B5E9E;" d="M26.777,38.357c0.479,0.183,0.956,0.732,0.956,1.234
		c0,0.458-0.478,0.641-0.956,0.458c-0.479-0.275-0.957-0.823-0.957-1.326C25.82,38.266,26.298,38.037,26.777,38.357L26.777,38.357
		L26.777,38.357z M27.375,39.591c0-0.274,0-0.274,0-0.274c-1.196-0.503-1.196-0.503-1.196-0.503c0,0.183,0,0.183,0,0.183
		C27.375,39.591,27.375,39.591,27.375,39.591"/>
	<path style="fill-rule:evenodd;clip-rule:evenodd;fill:#2A3174;" d="M24.207,36.666c-0.18-0.092-0.359-0.092-0.418,0
		c-0.12,0-0.12,0-0.18,0.091l0,0c-0.119,0.093-0.18,0.093-0.358,0.185c-0.12,0.091-0.179,0.091-0.299,0.183
		c0.12-0.092,0.299-0.092,0.478,0.091c0.418,0.183,0.658,0.686,0.658,1.143c0,0.274-0.06,0.366-0.179,0.412
		c0.299-0.046,0.538-0.229,0.837-0.412c0.06-0.091,0.12-0.273,0.12-0.457C24.864,37.489,24.625,36.941,24.207,36.666"/>
	<path style="fill-rule:evenodd;clip-rule:evenodd;fill:#4B5E9E;" d="M23.908,37.534c0.597,0.093,0.957,0.503,0.957,0.823
		s-0.359,0.412-0.957,0.32c-0.479-0.183-0.956-0.594-0.956-0.914S23.429,37.306,23.908,37.534L23.908,37.534L23.908,37.534z
		 M24.505,38.266c0-0.092,0-0.092,0-0.092c-1.076-0.32-1.076-0.32-1.076-0.32c0,0.092,0,0.092,0,0.092
		C24.505,38.266,24.505,38.266,24.505,38.266"/>
	<path style="fill-rule:evenodd;clip-rule:evenodd;fill:#2A3174;" d="M7.053,29.397c-0.239-0.138-0.418-0.138-0.479-0.046
		l-0.119,0.046c-0.06,0-0.06,0-0.06,0c-0.12,0.045-0.18,0.045-0.299,0.091c-0.18,0.092-0.239,0.137-0.359,0.137
		c0.121-0.045,0.299,0,0.538,0.047c0.359,0.137,0.598,0.458,0.598,0.731c0,0.183-0.06,0.273-0.18,0.319
		c0.299-0.092,0.539-0.183,0.837-0.319c0.12-0.047,0.12-0.093,0.12-0.273C7.651,29.854,7.411,29.488,7.053,29.397"/>
	<path style="fill-rule:evenodd;clip-rule:evenodd;fill:#4B5E9E;" d="M6.275,29.534c0.24,0.184,0.418,0.731,0.418,1.188
		c0,0.549-0.179,0.732-0.478,0.458c-0.239-0.185-0.479-0.824-0.479-1.28C5.737,29.442,5.977,29.259,6.275,29.534L6.275,29.534
		L6.275,29.534z M6.515,30.722c0-0.273,0-0.273,0-0.273c-0.538-0.458-0.538-0.458-0.538-0.458c0,0.184,0,0.184,0,0.184
		C6.515,30.722,6.515,30.722,6.515,30.722"/>
	<polygon style="fill-rule:evenodd;clip-rule:evenodd;fill:#2F3D70;" points="12.731,31.728 12.731,32.002 13.388,32.277 
		13.388,33.648 11.476,32.826 11.476,31.455 12.014,31.728 12.014,31.455 12.731,31.728 12.731,31.728 12.731,31.728 	"/>
	<polygon style="fill-rule:evenodd;clip-rule:evenodd;fill:#2F3D70;" points="21.337,35.386 21.337,35.661 21.996,35.888 
		21.996,37.306 20.082,36.574 20.082,35.111 20.799,35.386 20.799,35.111 21.337,35.386 21.337,35.386 21.337,35.386 	"/>
	<path style="fill-rule:evenodd;clip-rule:evenodd;fill:#CEC3D4;" d="M9.563,30.722l12.432,5.029v1.555L9.563,32.323V30.722
		L9.563,30.722L9.563,30.722L9.563,30.722z M13.688,33.648V32.55l-0.657-0.228v-0.229l-0.598-0.228v0.228l-0.479-0.228v1.097
		L13.688,33.648L13.688,33.648z M19.843,36.208v-1.098l-0.657-0.228v-0.229l-0.479-0.229v0.093l-0.597-0.093v1.098L19.843,36.208
		L19.843,36.208z M21.875,37.124v-1.235l-0.657-0.228v-0.229l-0.478-0.229v0.229l-0.598-0.229v1.234L21.875,37.124L21.875,37.124z
		 M15.719,34.518V33.42l-0.598-0.32v-0.138l-0.657-0.229v0.229l-0.478-0.229v1.144L15.719,34.518L15.719,34.518z M17.751,35.431
		v-1.233l-0.597-0.229V33.74l-0.479-0.092v0.092l-0.657-0.229v1.143L17.751,35.431L17.751,35.431z M11.476,32.871v-1.143
		l-0.479-0.32v-0.092L10.4,31.087v0.229l-0.479-0.365v1.143L11.476,32.871L11.476,32.871z"/>
	<polygon style="fill-rule:evenodd;clip-rule:evenodd;fill:#2F3D70;" points="10.938,31.134 10.938,31.271 11.476,31.636 
		11.476,32.917 9.563,32.048 9.563,30.722 10.161,31.134 10.161,30.86 10.938,31.134 10.938,31.134 10.938,31.134 	"/>
	<polygon style="fill-rule:evenodd;clip-rule:evenodd;fill:#2F3D70;" points="14.644,33.1 14.644,33.191 15.301,33.465 
		15.301,34.38 13.388,33.831 13.388,32.917 13.926,33.1 13.926,32.917 14.644,33.1 14.644,33.1 14.644,33.1 	"/>
	<polygon style="fill-rule:evenodd;clip-rule:evenodd;fill:#2F3D70;" points="16.915,33.923 16.915,34.198 17.213,34.425 
		17.213,35.843 16.257,34.974 16.257,33.648 16.616,33.923 16.616,33.786 16.915,33.923 16.915,33.923 16.915,33.923 	"/>
	<polygon style="fill-rule:evenodd;clip-rule:evenodd;fill:#2F3D70;" points="19.425,34.654 19.425,34.928 20.082,35.203 
		20.082,36.574 18.169,35.751 18.169,34.38 18.887,34.518 18.887,34.38 19.425,34.654 19.425,34.654 19.425,34.654 	"/>
	<polygon style="fill-rule:evenodd;clip-rule:evenodd;fill:#4F62A5;" points="9.563,30.129 9.922,29.991 21.996,35.843 
		21.875,35.843 9.563,30.129 9.563,30.129 9.563,30.129 	"/>
	<polygon style="fill-rule:evenodd;clip-rule:evenodd;fill:#4F62A5;" points="45.902,49.146 46.082,49.009 48.772,50.381 
		48.651,50.472 45.902,49.146 45.902,49.146 45.902,49.146 	"/>
	<polygon style="fill-rule:evenodd;clip-rule:evenodd;fill:#CEC3D4;" points="48.772,50.426 48.772,53.399 45.902,52.027 
		45.902,49.009 48.772,50.426 48.772,50.426 48.772,50.426 	"/>
	<polygon style="fill-rule:evenodd;clip-rule:evenodd;fill:#FFFFFF;" points="45.902,50.472 47.815,51.25 47.815,52.667 
		47.218,52.484 47.218,52.256 47.695,52.484 47.695,51.479 46.082,50.838 46.082,51.798 46.561,52.027 46.561,52.256 45.902,51.936 
		45.902,50.472 45.902,50.472 45.902,50.472 	"/>
	<polygon style="fill-rule:evenodd;clip-rule:evenodd;fill:#2F3D70;" points="47.815,51.386 47.815,52.667 47.576,52.392 
		47.576,52.667 47.158,52.392 47.158,52.119 46.858,51.798 46.858,50.472 47.815,51.386 47.815,51.386 47.815,51.386 	"/>
	<polygon style="fill-rule:evenodd;clip-rule:evenodd;fill:#2A3174;" points="47.815,51.204 48.772,51.204 48.772,52.667 
		47.815,52.667 47.815,51.204 47.815,51.204 47.815,51.204 	"/>
	<polygon style="fill-rule:evenodd;clip-rule:evenodd;fill:#4F62A5;" points="45.902,50.472 46.143,50.472 48.772,51.204 
		48.413,51.204 45.902,50.472 45.902,50.472 45.902,50.472 	"/>
	<polygon style="fill-rule:evenodd;clip-rule:evenodd;fill:#37477D;" points="41.121,48.278 41.121,48.416 41.121,49.284 
		42.019,49.741 42.077,49.741 42.077,48.872 41.121,48.278 41.121,48.278 	"/>
	<polygon style="fill-rule:evenodd;clip-rule:evenodd;fill:#2E3B6D;" points="41.121,48.644 42.077,48.278 42.077,48.644 
		41.121,49.009 41.121,48.644 41.121,48.644 41.121,48.644 	"/>
	<polygon style="fill-rule:evenodd;clip-rule:evenodd;fill:#36457A;" points="41.121,48.644 41.6,48.278 42.077,48.644 41.6,49.009 
		41.121,48.644 41.121,48.644 41.121,48.644 	"/>
	<polygon style="fill-rule:evenodd;clip-rule:evenodd;fill:#475996;" points="41.839,48.416 41.839,48.553 42.077,48.827 
		42.077,49.741 41.121,49.101 41.121,48.278 41.54,48.416 41.54,48.278 41.839,48.416 41.839,48.416 41.839,48.416 	"/>
	<path style="fill-rule:evenodd;clip-rule:evenodd;fill:#41538D;" d="M40.643,48.416c0-0.138-0.119-0.138-0.298-0.138
		c0,0.138-0.18,0.138-0.18,0.138s0.18,0,0.18,0.091c0.298,0,0.478,0.229,0.478,0.412c0,0.091,0,0.091-0.18,0.091
		c0.18,0,0.18,0,0.359-0.091c0,0,0.119,0,0.119-0.092C41.121,48.598,41.002,48.416,40.643,48.416"/>
	<polygon style="fill-rule:evenodd;clip-rule:evenodd;fill:#37477D;" points="38.491,46.815 38.253,47.135 38.253,48.461 
		39.807,49.009 40.165,49.009 40.165,47.729 38.491,46.815 38.491,46.815 	"/>
	<polygon style="fill-rule:evenodd;clip-rule:evenodd;fill:#2E3B6D;" points="39.209,47.913 40.165,47.546 40.165,48.872 
		39.209,49.009 39.209,47.913 39.209,47.913 39.209,47.913 	"/>
	<polygon style="fill-rule:evenodd;clip-rule:evenodd;fill:#36457A;" points="39.209,47.821 39.687,47.546 40.165,47.821 
		39.687,48.278 39.209,47.821 39.209,47.821 39.209,47.821 	"/>
	<polygon style="fill-rule:evenodd;clip-rule:evenodd;fill:#475996;" points="38.97,47.683 38.97,47.821 39.209,48.095 
		39.209,49.009 38.253,48.506 38.253,47.546 38.552,47.683 38.552,47.546 38.97,47.683 38.97,47.683 38.97,47.683 	"/>
	<path style="fill-rule:evenodd;clip-rule:evenodd;fill:#41538D;" d="M37.774,46.953c0-0.138-0.12-0.138-0.12-0.138
		c-0.18,0.138-0.358,0.138-0.358,0.138s0.179,0,0.179,0.091c0.3,0,0.479,0.229,0.479,0.412c0,0.091,0,0.091-0.179,0.091
		c0.179,0,0.179,0,0.358-0.091c0,0,0.12,0,0.12-0.092C38.253,47.135,38.133,46.953,37.774,46.953"/>
	<path style="fill-rule:evenodd;clip-rule:evenodd;fill:#BFB3C4;" d="M37.715,46.953c0.358,0,0.538,0.183,0.538,0.411
		c0,0.092-0.18,0.183-0.538,0.092c-0.18,0-0.419-0.183-0.419-0.412C37.296,46.815,37.535,46.815,37.715,46.953L37.715,46.953"/>
	<path style="fill-rule:evenodd;clip-rule:evenodd;fill:#41538D;" d="M37.774,47.683c0-0.137-0.12-0.137-0.12-0.137
		c-0.18,0.137-0.358,0.137-0.358,0.229c0-0.093,0.179-0.093,0.179,0c0.3,0,0.479,0.228,0.479,0.41c0,0.092,0,0.092-0.179,0.092
		c0.179,0,0.179,0,0.358-0.092c0,0,0.12,0,0.12-0.091C38.253,47.867,38.133,47.683,37.774,47.683"/>
	<path style="fill-rule:evenodd;clip-rule:evenodd;fill:#4B5F9F;" d="M37.715,47.683c0.358,0,0.538,0.184,0.538,0.412
		c0,0.091-0.18,0.183-0.538,0.091c-0.18,0-0.419-0.183-0.419-0.41C37.296,47.683,37.535,47.546,37.715,47.683L37.715,47.683"/>
	<polygon style="fill-rule:evenodd;clip-rule:evenodd;fill:#37477D;" points="36.579,46.083 36.34,46.22 36.34,47.135 
		37.236,47.546 37.296,47.546 37.296,46.632 36.579,46.083 36.579,46.083 	"/>
	<polygon style="fill-rule:evenodd;clip-rule:evenodd;fill:#36457A;" points="35.384,46.45 35.98,46.083 36.34,46.45 35.98,46.815 
		35.384,46.45 35.384,46.45 35.384,46.45 	"/>
	<polygon style="fill-rule:evenodd;clip-rule:evenodd;fill:#2E3B6D;" points="36.34,46.45 37.296,46.083 37.296,46.45 36.34,46.815 
		36.34,46.45 36.34,46.45 36.34,46.45 	"/>
	<polygon style="fill-rule:evenodd;clip-rule:evenodd;fill:#36457A;" points="36.34,46.45 36.817,46.083 37.296,46.45 
		36.817,46.815 36.34,46.45 36.34,46.45 36.34,46.45 	"/>
	<polygon style="fill-rule:evenodd;clip-rule:evenodd;fill:#475996;" points="36.759,46.22 36.759,46.358 37.296,46.632 
		37.296,47.546 35.384,47.043 35.384,46.083 36.221,46.22 36.221,46.083 36.759,46.22 36.759,46.22 36.759,46.22 	"/>
	<polygon style="fill-rule:evenodd;clip-rule:evenodd;fill:#37477D;" points="33.829,44.621 33.471,44.621 33.471,46.038 
		35.085,46.815 35.384,46.815 35.384,45.443 33.829,44.621 33.829,44.621 	"/>
	<polygon style="fill-rule:evenodd;clip-rule:evenodd;fill:#475996;" points="34.188,45.625 34.188,45.718 34.428,45.993 
		34.428,46.815 33.471,46.358 33.471,45.352 33.77,45.625 33.77,45.352 34.188,45.625 34.188,45.625 34.188,45.625 	"/>
	<path style="fill-rule:evenodd;clip-rule:evenodd;fill:#41538D;" d="M33.172,44.712c-0.18-0.092-0.299-0.092-0.299,0
		c-0.18,0-0.18,0-0.359,0.091c0.18-0.091,0.18-0.091,0.359,0c0.119,0.092,0.299,0.183,0.299,0.366c0,0.091,0,0.091,0,0.183
		c0-0.092,0.179-0.092,0.179-0.092c0.12-0.091,0.12-0.091,0.12-0.183C33.471,44.895,33.351,44.712,33.172,44.712"/>
	<path style="fill-rule:evenodd;clip-rule:evenodd;fill:#BFB3C4;" d="M33.112,44.757c0.179,0.093,0.358,0.184,0.358,0.412
		c0,0.183-0.179,0.183-0.358,0.091c-0.18,0-0.598-0.183-0.598-0.41C32.514,44.757,32.933,44.621,33.112,44.757L33.112,44.757"/>
	<path style="fill-rule:evenodd;clip-rule:evenodd;fill:#41538D;" d="M33.172,45.443c-0.18-0.091-0.299-0.091-0.299,0
		c-0.18,0-0.18,0-0.359,0.093c0.18-0.093,0.18-0.093,0.359,0c0.119,0.09,0.299,0.183,0.299,0.365c0,0.092,0,0.092,0,0.183
		c0-0.091,0.179-0.091,0.179-0.091c0.12-0.092,0.12-0.092,0.12-0.183C33.471,45.625,33.351,45.536,33.172,45.443"/>
	<path style="fill-rule:evenodd;clip-rule:evenodd;fill:#4B5F9F;" d="M33.112,45.49c0.179,0.091,0.358,0.183,0.358,0.411
		c0,0.183-0.179,0.183-0.358,0.092c-0.18,0-0.598-0.183-0.598-0.412C32.514,45.49,32.933,45.352,33.112,45.49L33.112,45.49"/>
	<polygon style="fill-rule:evenodd;clip-rule:evenodd;fill:#37477D;" points="30.961,43.889 30.602,44.026 30.602,44.941 
		32.216,45.352 32.514,45.352 32.514,44.438 30.961,43.889 30.961,43.889 	"/>
	<polygon style="fill-rule:evenodd;clip-rule:evenodd;fill:#36457A;" points="30.602,44.255 31.08,43.889 31.558,44.255 
		31.08,44.621 30.602,44.255 30.602,44.255 30.602,44.255 	"/>
	<polygon style="fill-rule:evenodd;clip-rule:evenodd;fill:#475996;" points="31.977,44.026 31.977,44.3 32.514,44.438 
		32.514,45.352 30.602,44.85 30.602,43.889 31.2,44.026 31.2,43.889 31.977,44.026 31.977,44.026 31.977,44.026 	"/>
	<polygon style="fill-rule:evenodd;clip-rule:evenodd;fill:#37477D;" points="28.928,42.426 28.689,42.426 28.689,43.889 
		30.423,44.621 30.602,44.483 30.602,43.158 28.928,42.426 28.928,42.426 	"/>
	<polygon style="fill-rule:evenodd;clip-rule:evenodd;fill:#475996;" points="29.287,43.294 29.287,43.57 29.646,43.706 
		29.646,44.621 28.689,44.118 28.689,43.158 29.047,43.294 29.047,43.158 29.287,43.294 29.287,43.294 29.287,43.294 	"/>
	<polygon style="fill-rule:evenodd;clip-rule:evenodd;fill:#25325E;" points="9.204,33.923 9.204,34.06 9.563,34.198 9.563,35.111 
		8.607,34.608 8.607,33.648 8.905,33.923 8.905,33.786 9.204,33.923 9.204,33.923 9.204,33.923 	"/>
	<polygon style="fill-rule:evenodd;clip-rule:evenodd;fill:#CEC3D4;" points="9.563,34.243 9.563,35.111 8.607,34.563 8.607,33.648 
		8.905,33.877 8.905,34.013 8.607,33.786 8.607,34.563 9.563,35.02 9.563,34.243 9.204,34.106 9.204,34.013 9.563,34.243 
		9.563,34.243 9.563,34.243 	"/>
	<polygon style="fill-rule:evenodd;clip-rule:evenodd;fill:#37477D;" points="9.204,34.013 8.965,33.923 8.607,33.648 8.607,33.786 
		8.846,34.013 9.085,34.151 9.444,34.38 9.563,34.289 9.204,34.013 9.204,34.013 	"/>
	<path style="fill-rule:evenodd;clip-rule:evenodd;fill:#41538D;" d="M40.643,44.712c-0.119-0.092-0.119-0.092-0.298,0
		c0,0-0.18,0-0.18,0.091c0-0.091,0.18-0.091,0.18,0c0.298,0.092,0.478,0.183,0.478,0.366c0,0.091-0.18,0.091-0.18,0.183
		c0.18-0.092,0.18-0.092,0.359-0.092c0-0.091,0.119-0.091,0.119-0.183C41.121,44.895,40.822,44.803,40.643,44.712"/>
	<path style="fill-rule:evenodd;clip-rule:evenodd;fill:#4B5F9F;" d="M40.583,44.757c0.358,0.093,0.538,0.184,0.538,0.412
		c0,0.183-0.18,0.183-0.538,0.091c-0.179,0-0.418-0.183-0.418-0.41C40.165,44.757,40.404,44.621,40.583,44.757L40.583,44.757"/>
	<polygon style="fill-rule:evenodd;clip-rule:evenodd;fill:#25325E;" points="39.389,44.073 39.389,44.209 40.165,44.346 
		40.165,45.352 38.253,44.803 38.253,43.889 39.089,44.073 39.089,43.889 39.389,44.073 39.389,44.073 39.389,44.073 	"/>
	<polygon style="fill-rule:evenodd;clip-rule:evenodd;fill:#CEC3D4;" points="40.165,44.483 40.165,45.352 38.253,44.803 
		38.253,43.889 39.089,44.118 39.089,44.255 38.253,44.118 38.253,44.803 40.165,45.26 40.165,44.483 39.389,44.346 39.389,44.255 
		40.165,44.483 40.165,44.483 40.165,44.483 	"/>
	<polygon style="fill-rule:evenodd;clip-rule:evenodd;fill:#37477D;" points="39.567,43.523 38.91,43.432 38.253,43.158 
		38.253,43.294 38.91,43.523 39.148,43.661 39.747,43.889 40.165,43.797 39.567,43.523 39.567,43.523 	"/>
	<path style="fill-rule:evenodd;clip-rule:evenodd;fill:#41538D;" d="M13.089,35.934c-0.18-0.091-0.299-0.091-0.299,0
		c-0.179,0-0.179,0-0.358,0.092c0-0.092,0.18-0.092,0.358,0c0.119,0.091,0.299,0.274,0.299,0.365c0,0.092,0,0.092-0.18,0.183
		c0.18-0.091,0.359-0.091,0.359-0.091c0.119-0.092,0.119-0.092,0.119-0.183C13.388,36.117,13.269,36.026,13.089,35.934"/>
	<polygon style="fill-rule:evenodd;clip-rule:evenodd;fill:#37477D;" points="10.758,35.111 10.52,35.111 10.52,36.071 
		12.432,36.574 12.432,36.483 12.432,35.569 10.758,35.111 10.758,35.111 	"/>
	<polygon style="fill-rule:evenodd;clip-rule:evenodd;fill:#2E3B6D;" points="11.476,35.98 12.432,35.843 12.432,36.483 
		11.476,36.574 11.476,35.98 11.476,35.98 11.476,35.98 	"/>
	<polygon style="fill-rule:evenodd;clip-rule:evenodd;fill:#36457A;" points="11.476,35.614 12.074,35.111 12.432,35.614 
		12.074,35.843 11.476,35.614 11.476,35.614 11.476,35.614 	"/>
	<polygon style="fill-rule:evenodd;clip-rule:evenodd;fill:#475996;" points="11.117,35.293 11.117,35.569 11.476,35.706 
		11.476,36.574 10.52,36.026 10.52,35.111 10.818,35.293 10.818,35.111 11.117,35.293 11.117,35.293 11.117,35.293 	"/>
	<polygon style="fill-rule:evenodd;clip-rule:evenodd;fill:#37477D;" points="13.508,35.843 13.388,35.843 13.388,36.803 
		14.285,37.306 14.345,37.306 14.345,36.391 13.508,35.843 13.508,35.843 	"/>
	<polygon style="fill-rule:evenodd;clip-rule:evenodd;fill:#36457A;" points="13.388,36.346 13.807,35.843 14.345,36.346 
		13.807,36.574 13.388,36.346 13.388,36.346 13.388,36.346 	"/>
	<polygon style="fill-rule:evenodd;clip-rule:evenodd;fill:#36457A;" points="13.388,36.346 13.986,35.843 14.345,36.346 
		13.986,36.574 13.388,36.346 13.388,36.346 13.388,36.346 	"/>
	<polygon style="fill-rule:evenodd;clip-rule:evenodd;fill:#475996;" points="14.106,36.666 14.106,36.803 14.345,36.849 
		14.345,37.306 13.388,37.077 13.388,36.574 13.688,36.666 13.688,36.574 14.106,36.666 14.106,36.666 14.106,36.666 	"/>
	<path style="fill-rule:evenodd;clip-rule:evenodd;fill:#41538D;" d="M17.692,38.128c-0.12-0.092-0.12-0.092-0.299,0
		c0,0-0.18,0-0.18,0.091c0-0.091,0.18-0.091,0.18,0c0.299,0.093,0.478,0.275,0.478,0.367c0,0.091-0.179,0.091-0.179,0.183
		c0.179-0.092,0.179-0.092,0.358-0.092c0-0.091,0.119-0.091,0.119-0.183C18.169,38.312,17.871,38.219,17.692,38.128"/>
	<path style="fill-rule:evenodd;clip-rule:evenodd;fill:#BFB3C4;" d="M17.632,38.174c0.359,0.092,0.538,0.32,0.538,0.412
		c0,0.183-0.179,0.183-0.538,0.091c-0.18,0-0.418-0.183-0.418-0.411C17.213,38.174,17.452,38.037,17.632,38.174L17.632,38.174"/>
	<polygon style="fill-rule:evenodd;clip-rule:evenodd;fill:#37477D;" points="16.376,37.306 16.257,37.443 16.257,38.357 
		17.035,38.769 17.213,38.769 17.213,37.854 16.376,37.306 16.376,37.306 	"/>
	<polygon style="fill-rule:evenodd;clip-rule:evenodd;fill:#2E3B6D;" points="16.257,37.58 17.213,37.306 17.213,37.58 
		16.257,38.037 16.257,37.58 16.257,37.58 16.257,37.58 	"/>
	<polygon style="fill-rule:evenodd;clip-rule:evenodd;fill:#36457A;" points="16.257,37.809 16.736,37.306 17.213,37.809 
		16.736,38.037 16.257,37.809 16.257,37.809 16.257,37.809 	"/>
	<polygon style="fill-rule:evenodd;clip-rule:evenodd;fill:#475996;" points="16.675,37.443 16.675,37.716 17.213,37.854 
		17.213,38.769 15.301,38.266 15.301,37.306 15.899,37.443 15.899,37.306 16.675,37.443 16.675,37.443 16.675,37.443 	"/>
	<polygon style="fill-rule:evenodd;clip-rule:evenodd;fill:#37477D;" points="18.409,38.037 18.169,38.174 18.169,39.089 
		19.903,39.5 20.082,39.5 20.082,38.586 18.409,38.037 18.409,38.037 	"/>
	<polygon style="fill-rule:evenodd;clip-rule:evenodd;fill:#36457A;" points="18.169,38.404 18.588,38.037 19.126,38.404 
		18.768,38.769 18.169,38.404 18.169,38.404 18.169,38.404 	"/>
	<polygon style="fill-rule:evenodd;clip-rule:evenodd;fill:#36457A;" points="18.169,38.404 18.648,38.037 19.126,38.404 
		18.648,38.769 18.169,38.404 18.169,38.404 18.169,38.404 	"/>
	<polygon style="fill-rule:evenodd;clip-rule:evenodd;fill:#2E3B6D;" points="19.126,38.86 20.082,38.769 19.604,39.409 
		19.126,39.5 19.126,38.86 19.126,38.86 19.126,38.86 	"/>
	<polygon style="fill-rule:evenodd;clip-rule:evenodd;fill:#475996;" points="18.768,38.86 18.768,38.906 19.126,39.043 
		19.126,39.5 18.169,39.272 18.169,38.769 18.529,38.86 18.529,38.769 18.768,38.86 18.768,38.86 18.768,38.86 	"/>
	<path style="fill-rule:evenodd;clip-rule:evenodd;fill:#41538D;" d="M22.653,40.232c-0.18,0-0.18,0-0.299,0
		c0,0-0.179,0.137-0.358,0.137c0.179,0,0.179,0,0.358,0c0.12,0.091,0.479,0.32,0.479,0.503c-0.179,0-0.179,0.091-0.179,0.091
		s0.179-0.091,0.299-0.091V40.78C22.952,40.552,22.832,40.369,22.653,40.232"/>
	<polygon style="fill-rule:evenodd;clip-rule:evenodd;fill:#37477D;" points="20.322,38.769 20.082,38.769 20.082,40.094 
		21.816,40.962 21.996,40.827 21.996,39.5 20.322,38.769 20.322,38.769 	"/>
	<polygon style="fill-rule:evenodd;clip-rule:evenodd;fill:#36457A;" points="21.039,39.867 21.457,39.5 21.996,39.867 
		21.636,40.232 21.039,39.867 21.039,39.867 21.039,39.867 	"/>
	<polygon style="fill-rule:evenodd;clip-rule:evenodd;fill:#475996;" points="21.218,39.774 21.218,39.912 21.996,40.049 
		21.996,40.962 20.082,40.459 20.082,39.5 20.68,39.774 20.68,39.5 21.218,39.774 21.218,39.774 21.218,39.774 	"/>
	<path style="fill-rule:evenodd;clip-rule:evenodd;fill:#BFB3C4;" d="M42.676,45.352c0.179,0.138,0.358,0.32,0.358,0.549
		c0,0.092-0.18,0.183-0.358,0.092c-0.359-0.092-0.599-0.32-0.599-0.412C42.077,45.352,42.316,45.352,42.676,45.352L42.676,45.352"/>
	<path style="fill-rule:evenodd;clip-rule:evenodd;fill:#4B5F9F;" d="M42.676,46.083c0.179,0.137,0.358,0.32,0.358,0.549
		c0,0.091-0.18,0.183-0.358,0.091c-0.359-0.091-0.599-0.319-0.599-0.41C42.077,46.083,42.316,46.083,42.676,46.083L42.676,46.083"/>
	<polygon style="fill-rule:evenodd;clip-rule:evenodd;fill:#37477D;" points="41.241,44.621 41.121,44.757 41.121,45.625 
		42.019,46.083 42.077,45.993 42.077,45.124 41.241,44.621 41.241,44.621 	"/>
	<polygon style="fill-rule:evenodd;clip-rule:evenodd;fill:#2E3B6D;" points="41.121,44.986 42.077,44.621 42.077,44.986 
		41.121,45.352 41.121,44.986 41.121,44.986 41.121,44.986 	"/>
	<polygon style="fill-rule:evenodd;clip-rule:evenodd;fill:#36457A;" points="41.121,45.124 41.36,44.621 42.077,45.124 
		41.6,45.352 41.121,45.124 41.121,45.124 41.121,45.124 	"/>
	<polygon style="fill-rule:evenodd;clip-rule:evenodd;fill:#475996;" points="41.839,44.895 41.839,45.033 42.077,45.169 
		42.077,46.083 41.121,45.581 41.121,44.621 41.54,44.895 41.54,44.757 41.839,44.895 41.839,44.895 41.839,44.895 	"/>
	<path style="fill-rule:evenodd;clip-rule:evenodd;fill:#41538D;" d="M37.774,43.158h-0.12c-0.18,0-0.358,0.137-0.358,0.137h0.179
		c0.3,0.091,0.479,0.32,0.479,0.503c0,0,0,0.092-0.179,0.092c0.179,0,0.179-0.092,0.358-0.092l0.12-0.092
		C38.253,43.478,38.133,43.294,37.774,43.158"/>
	<path style="fill-rule:evenodd;clip-rule:evenodd;fill:#BFB3C4;" d="M37.715,43.158c0.358,0.137,0.538,0.32,0.538,0.548
		c0,0.092-0.18,0.184-0.538,0.092c-0.18-0.092-0.419-0.319-0.419-0.412C37.296,43.158,37.535,43.158,37.715,43.158L37.715,43.158"/>
	<path style="fill-rule:evenodd;clip-rule:evenodd;fill:#41538D;" d="M37.774,43.889h-0.12c-0.18,0-0.358,0.137-0.358,0.137h0.179
		c0.3,0.092,0.479,0.32,0.479,0.504c0,0,0,0.091-0.179,0.091c0.179,0,0.179-0.091,0.358-0.091l0.12-0.092
		C38.253,44.209,38.133,44.026,37.774,43.889"/>
	<path style="fill-rule:evenodd;clip-rule:evenodd;fill:#4B5F9F;" d="M37.715,43.889c0.358,0.137,0.538,0.32,0.538,0.549
		c0,0.092-0.18,0.183-0.538,0.092c-0.18-0.092-0.419-0.32-0.419-0.412C37.296,43.889,37.535,43.889,37.715,43.889L37.715,43.889"/>
	<polygon style="fill-rule:evenodd;clip-rule:evenodd;fill:#37477D;" points="36.459,42.426 36.34,42.563 36.34,43.432 
		37.236,43.889 37.296,43.797 37.296,42.929 36.459,42.426 36.459,42.426 	"/>
	<polygon style="fill-rule:evenodd;clip-rule:evenodd;fill:#36457A;" points="35.384,42.7 35.98,42.426 36.34,42.929 35.98,43.158 
		35.384,42.7 35.384,42.7 35.384,42.7 	"/>
	<polygon style="fill-rule:evenodd;clip-rule:evenodd;fill:#2E3B6D;" points="36.34,42.792 37.296,42.426 37.296,42.792 
		36.34,43.158 36.34,42.792 36.34,42.792 36.34,42.792 	"/>
	<polygon style="fill-rule:evenodd;clip-rule:evenodd;fill:#36457A;" points="36.34,42.929 36.817,42.426 37.296,42.929 
		36.817,43.158 36.34,42.929 36.34,42.929 36.34,42.929 	"/>
	<polygon style="fill-rule:evenodd;clip-rule:evenodd;fill:#475996;" points="36.759,42.7 36.759,42.837 37.296,42.975 
		37.296,43.889 35.384,43.385 35.384,42.426 36.221,42.7 36.221,42.563 36.759,42.7 36.759,42.7 36.759,42.7 	"/>
	<polygon style="fill-rule:evenodd;clip-rule:evenodd;fill:#37477D;" points="33.71,40.962 33.471,41.147 33.471,42.426 
		35.204,43.158 35.384,43.02 35.384,41.695 33.71,40.962 33.71,40.962 	"/>
	<polygon style="fill-rule:evenodd;clip-rule:evenodd;fill:#475996;" points="34.188,41.877 34.188,42.015 34.428,42.29 
		34.428,43.158 33.471,42.61 33.471,41.695 33.77,41.877 33.77,41.695 34.188,41.877 34.188,41.877 34.188,41.877 	"/>
	<path style="fill-rule:evenodd;clip-rule:evenodd;fill:#41538D;" d="M33.172,40.962c-0.18,0-0.299,0-0.299,0
		c-0.18,0-0.18,0.138-0.359,0.138c0.18,0,0.18,0,0.359,0c0.119,0.092,0.299,0.32,0.299,0.412c0,0.091,0,0.183,0,0.183
		s0.179-0.092,0.298-0.092c0,0,0-0.091,0-0.183C33.471,41.283,33.351,41.1,33.172,40.962"/>
	<path style="fill-rule:evenodd;clip-rule:evenodd;fill:#BFB3C4;" d="M32.993,41.054c0.239,0.093,0.478,0.275,0.478,0.366
		c0,0.183-0.239,0.274-0.478,0.183c-0.239-0.091-0.479-0.273-0.479-0.366C32.514,41.054,32.754,40.962,32.993,41.054L32.993,41.054"
		/>
	<path style="fill-rule:evenodd;clip-rule:evenodd;fill:#41538D;" d="M33.172,41.695c-0.18,0-0.299,0-0.299,0
		c-0.18,0-0.18,0.137-0.359,0.137c0.18,0,0.18,0,0.359,0c0.119,0.091,0.299,0.32,0.299,0.411c0,0.092,0,0.184,0,0.184
		s0.179-0.092,0.298-0.092c0,0,0-0.092,0-0.183C33.471,42.015,33.351,41.832,33.172,41.695"/>
	<path style="fill-rule:evenodd;clip-rule:evenodd;fill:#4B5F9F;" d="M32.993,41.787c0.239,0.091,0.478,0.273,0.478,0.365
		c0,0.183-0.239,0.274-0.478,0.183s-0.479-0.274-0.479-0.365C32.514,41.787,32.754,41.695,32.993,41.787L32.993,41.787"/>
	<polygon style="fill-rule:evenodd;clip-rule:evenodd;fill:#37477D;" points="30.961,40.232 30.602,40.369 30.602,41.237 
		32.216,41.695 32.514,41.603 32.514,40.735 30.961,40.232 30.961,40.232 	"/>
	<polygon style="fill-rule:evenodd;clip-rule:evenodd;fill:#36457A;" points="30.602,40.506 31.08,40.232 31.558,40.506 
		31.08,40.962 30.602,40.506 30.602,40.506 30.602,40.506 	"/>
	<polygon style="fill-rule:evenodd;clip-rule:evenodd;fill:#475996;" points="31.977,40.506 31.977,40.644 32.514,40.78 
		32.514,41.695 30.602,41.192 30.602,40.232 31.2,40.506 31.2,40.232 31.977,40.506 31.977,40.506 31.977,40.506 	"/>
	<polygon style="fill-rule:evenodd;clip-rule:evenodd;fill:#37477D;" points="28.928,38.769 28.689,38.769 28.689,40.186 
		30.423,40.962 30.602,40.962 30.602,39.591 28.928,38.769 28.928,38.769 	"/>
	<polygon style="fill-rule:evenodd;clip-rule:evenodd;fill:#475996;" points="29.287,39.637 29.287,39.774 29.646,40.049 
		29.646,40.962 28.689,40.324 28.689,39.5 29.047,39.637 29.047,39.5 29.287,39.637 29.287,39.637 29.287,39.637 	"/>
</g>
</svg>