<?xml version="1.0" encoding="iso-8859-1"?>
<!DOCTYPE svg PUBLIC "-//W3C//DTD SVG 1.1//EN" "http://www.w3.org/Graphics/SVG/1.1/DTD/svg11.dtd">
<svg version="1.1" xmlns="http://www.w3.org/2000/svg" xmlns:xlink="http://www.w3.org/1999/xlink" width="55" height="40" viewBox="0 0 55 40">
<g>
	<polygon style="fill-rule:evenodd;clip-rule:evenodd;fill:#2A3174;" points="54.424,15.307 54.424,23.386 27.213,39.118 
		27.213,31.181 54.424,15.307 54.424,15.307 54.424,15.307 54.424,15.307 	"/>
	<polygon style="fill-rule:evenodd;clip-rule:evenodd;fill:#37468B;" points="27.213,31.181 27.213,39.118 0,23.386 0,15.307 
		27.213,31.181 27.213,31.181 27.213,31.181 27.213,31.181 	"/>
	<polygon style="fill-rule:evenodd;clip-rule:evenodd;fill:#4F62A5;" points="54.424,15.59 27.319,31.181 0,15.59 27.142,0 
		54.424,15.59 54.424,15.59 54.424,15.59 54.424,15.59 	"/>
	<path style="fill-rule:evenodd;clip-rule:evenodd;fill:#2A3174;" d="M25.299,9.992c-0.071-5.988-0.071-5.988-0.071-5.988
		c0-0.638,0.886-1.169,1.949-1.169c0.567,0,1.063,0.142,1.382,0.39c0.39,0.177,0.601,0.46,0.601,0.78
		c0.037,5.988,0.037,5.988,0.037,5.988c3.613-2.055,3.613-2.055,3.613-2.055c2.338,1.312,2.338,1.312,2.338,1.312
		c-5.563,3.224-5.563,3.224-5.563,3.224c-0.744-0.177-1.559-0.248-2.445-0.248c-0.85,0-1.559,0.071-2.303,0.212
		c-5.563-3.188-5.563-3.188-5.563-3.188c2.374-1.312,2.374-1.312,2.374-1.312C25.299,9.992,25.299,9.992,25.299,9.992L25.299,9.992
		L25.299,9.992"/>
	<path style="fill-rule:evenodd;clip-rule:evenodd;fill:#2A3174;" d="M30.614,16.157c0,1.099-1.488,1.984-3.366,1.984
		c-0.957,0-1.807-0.213-2.409-0.567c-0.638-0.39-1.028-0.851-1.028-1.417c0-1.063,1.523-1.984,3.402-1.984
		c0.956,0,1.807,0.248,2.409,0.603C30.26,15.13,30.614,15.626,30.614,16.157L30.614,16.157L30.614,16.157"/>
	<path style="fill-rule:evenodd;clip-rule:evenodd;fill:#2A3174;" d="M21.543,14.421c-0.425,0.496-0.709,1.099-0.709,1.666
		c0,0.496,0.177,1.027,0.496,1.417c-5.031,2.905-5.031,2.905-5.031,2.905c-2.338-1.346-2.338-1.346-2.338-1.346
		c3.579-2.055,3.579-2.055,3.579-2.055c-10.453,0-10.453,0-10.453,0c-0.532,0-1.063-0.142-1.382-0.319
		c-0.354-0.213-0.602-0.496-0.602-0.78c0-0.638,0.886-1.134,1.949-1.134c10.488,0,10.488,0,10.488,0
		c-3.614-2.091-3.614-2.091-3.614-2.091c2.338-1.346,2.338-1.346,2.338-1.346C21.543,14.421,21.543,14.421,21.543,14.421
		L21.543,14.421L21.543,14.421"/>
	<path style="fill-rule:evenodd;clip-rule:evenodd;fill:#2A3174;" d="M33.555,17.61c0.213-0.425,0.354-0.85,0.354-1.382
		c0-0.496-0.141-1.027-0.459-1.453c5.455-3.437,5.455-3.437,5.455-3.437c2.305,1.453,2.305,1.453,2.305,1.453
		c-3.508,2.232-3.508,2.232-3.508,2.232c10.311,0,10.311,0,10.311,0c0.496,0,0.992,0.106,1.346,0.319
		c0.318,0.212,0.531,0.496,0.531,0.815c0,0.708-0.85,1.205-1.877,1.205c-10.311,0-10.311,0-10.311,0
		c3.543,2.197,3.543,2.197,3.543,2.197c-2.268,1.418-2.268,1.418-2.268,1.418C33.555,17.61,33.555,17.61,33.555,17.61L33.555,17.61
		L33.555,17.61"/>
	<path style="fill-rule:evenodd;clip-rule:evenodd;fill:#2A3174;" d="M29.729,22.074c0.035,5.812,0.035,5.812,0.035,5.812
		c0,0.566-0.852,1.027-1.914,1.027c-0.567,0-1.028-0.071-1.382-0.283c-0.39-0.178-0.603-0.426-0.603-0.744c0-5.812,0-5.812,0-5.812
		c-3.649,2.021-3.649,2.021-3.649,2.021c-2.374-1.312-2.374-1.312-2.374-1.312c5.102-2.799,5.102-2.799,5.102-2.799
		c0.744,0.177,1.559,0.284,2.445,0.284c1.063,0,2.056-0.142,2.976-0.425c5.352,2.941,5.352,2.941,5.352,2.941
		c-2.34,1.312-2.34,1.312-2.34,1.312C29.729,22.074,29.729,22.074,29.729,22.074L29.729,22.074L29.729,22.074"/>
	<path style="fill-rule:evenodd;clip-rule:evenodd;fill:#FFFFFF;" d="M25.299,10.027c-0.071-6.095-0.071-6.095-0.071-6.095
		c0-0.567,0.886-1.098,1.949-1.098c0.567,0,1.063,0.106,1.382,0.319c0.39,0.212,0.601,0.46,0.601,0.779
		c0.037,6.095,0.037,6.095,0.037,6.095c3.613-2.091,3.613-2.091,3.613-2.091c2.338,1.347,2.338,1.347,2.338,1.347
		c-5.563,3.189-5.563,3.189-5.563,3.189c-0.744-0.177-1.559-0.248-2.445-0.248c-0.85,0-1.559,0.071-2.303,0.212
		c-5.563-3.153-5.563-3.153-5.563-3.153c2.374-1.347,2.374-1.347,2.374-1.347C25.299,10.027,25.299,10.027,25.299,10.027
		L25.299,10.027L25.299,10.027"/>
	<path style="fill-rule:evenodd;clip-rule:evenodd;fill:#FFFFFF;" d="M30.614,15.909c0,0.957-1.488,1.666-3.366,1.666
		c-0.957,0-1.807-0.142-2.409-0.461c-0.638-0.319-1.028-0.744-1.028-1.205c0-0.957,1.523-1.736,3.402-1.736
		c0.956,0,1.807,0.213,2.409,0.567C30.26,15.023,30.614,15.413,30.614,15.909L30.614,15.909L30.614,15.909"/>
	<path style="fill-rule:evenodd;clip-rule:evenodd;fill:#FFFFFF;" d="M21.543,14.386c-0.425,0.496-0.709,1.098-0.709,1.736
		c0,0.496,0.177,0.957,0.496,1.417c-5.031,2.87-5.031,2.87-5.031,2.87c-2.338-1.346-2.338-1.346-2.338-1.346
		c3.579-2.091,3.579-2.091,3.579-2.091c-10.453,0-10.453,0-10.453,0c-0.532,0-1.063-0.071-1.382-0.319
		c-0.354-0.177-0.602-0.46-0.602-0.779c0-0.603,0.886-1.134,1.949-1.134c10.488,0,10.488,0,10.488,0
		c-3.614-2.02-3.614-2.02-3.614-2.02c2.338-1.382,2.338-1.382,2.338-1.382C21.543,14.386,21.543,14.386,21.543,14.386L21.543,14.386
		L21.543,14.386"/>
	<path style="fill-rule:evenodd;clip-rule:evenodd;fill:#FFFFFF;" d="M33.555,17.291c0.213-0.425,0.354-0.886,0.354-1.346
		c0-0.496-0.141-0.957-0.459-1.382c5.455-3.225,5.455-3.225,5.455-3.225c2.305,1.382,2.305,1.382,2.305,1.382
		c-3.508,2.055-3.508,2.055-3.508,2.055c10.311,0,10.311,0,10.311,0c0.496,0,0.992,0.142,1.346,0.319
		c0.318,0.212,0.531,0.496,0.531,0.815c0,0.603-0.85,1.099-1.877,1.099c-10.311,0-10.311,0-10.311,0
		c3.543,2.09,3.543,2.09,3.543,2.09c-2.268,1.311-2.268,1.311-2.268,1.311C33.555,17.291,33.555,17.291,33.555,17.291L33.555,17.291
		L33.555,17.291"/>
	<path style="fill-rule:evenodd;clip-rule:evenodd;fill:#FFFFFF;" d="M29.729,21.649c0.035,6.13,0.035,6.13,0.035,6.13
		c0,0.638-0.852,1.134-1.914,1.134c-0.567,0-1.028-0.106-1.382-0.354c-0.39-0.177-0.603-0.46-0.603-0.779c0-6.13,0-6.13,0-6.13
		c-3.649,2.091-3.649,2.091-3.649,2.091c-2.374-1.347-2.374-1.347-2.374-1.347c5.102-2.977,5.102-2.977,5.102-2.977
		c0.744,0.213,1.559,0.284,2.445,0.284c1.063,0,2.056-0.177,2.976-0.425c5.352,3.118,5.352,3.118,5.352,3.118
		c-2.34,1.347-2.34,1.347-2.34,1.347C29.729,21.649,29.729,21.649,29.729,21.649L29.729,21.649L29.729,21.649"/>
</g>
</svg>