<?xml version="1.0" encoding="iso-8859-1"?>
<!DOCTYPE svg PUBLIC "-//W3C//DTD SVG 1.1//EN" "http://www.w3.org/Graphics/SVG/1.1/DTD/svg11.dtd">
<svg version="1.1" xmlns="http://www.w3.org/2000/svg" xmlns:xlink="http://www.w3.org/1999/xlink" width="108" height="52" viewBox="0 0 108 52">
<g>
	<polygon style="fill-rule:evenodd;clip-rule:evenodd;fill:#2A3174;" points="56.421,47.051 108.063,24.47 108.063,29.282 
		56.421,51.818 56.421,47.051 56.421,47.051 56.421,47.051 	"/>
	<polygon style="fill-rule:evenodd;clip-rule:evenodd;fill:#4F62A5;" points="0,22.761 51.7,0 108.063,24.695 56.421,47.5 0,22.761 
		0,22.761 0,22.761 	"/>
	<polygon style="fill-rule:evenodd;clip-rule:evenodd;fill:#37468B;" points="56.421,47.141 56.421,51.818 0,27.754 0,23.03 
		56.421,47.141 56.421,47.141 56.421,47.141 	"/>
	<polygon style="fill-rule:evenodd;clip-rule:evenodd;fill:#4F62A5;" points="36.34,41.878 36.579,41.743 38.253,42.463 
		38.073,42.463 36.34,41.878 36.34,41.878 36.34,41.878 	"/>
	<polygon style="fill-rule:evenodd;clip-rule:evenodd;fill:#FFFFFF;" points="38.253,42.373 38.253,43.183 36.34,42.598 
		36.34,41.743 38.253,42.373 38.253,42.373 38.253,42.373 	"/>
	<polygon style="fill-rule:evenodd;clip-rule:evenodd;fill:#4F62A5;" points="36.34,41.022 36.579,41.022 38.253,41.608 
		38.073,41.743 36.34,41.022 36.34,41.022 36.34,41.022 	"/>
	<polygon style="fill-rule:evenodd;clip-rule:evenodd;fill:#FFFFFF;" points="38.253,41.652 38.253,42.463 36.34,41.878 
		36.34,41.022 38.253,41.652 38.253,41.652 38.253,41.652 	"/>
	<polygon style="fill-rule:evenodd;clip-rule:evenodd;fill:#4F62A5;" points="36.34,39.719 36.579,39.583 38.253,40.304 
		38.073,40.304 36.34,39.719 36.34,39.719 36.34,39.719 	"/>
	<polygon style="fill-rule:evenodd;clip-rule:evenodd;fill:#FFFFFF;" points="38.253,40.213 38.253,41.022 36.34,40.438 
		36.34,39.583 38.253,40.213 38.253,40.213 38.253,40.213 	"/>
	<polygon style="fill-rule:evenodd;clip-rule:evenodd;fill:#4F62A5;" points="38.253,42.463 38.491,42.463 40.165,43.183 
		39.985,43.183 38.253,42.463 38.253,42.463 38.253,42.463 	"/>
	<polygon style="fill-rule:evenodd;clip-rule:evenodd;fill:#FFFFFF;" points="40.165,43.092 40.165,43.902 38.253,43.452 
		38.253,42.463 40.165,43.092 40.165,43.092 40.165,43.092 	"/>
	<polygon style="fill-rule:evenodd;clip-rule:evenodd;fill:#4F62A5;" points="38.253,41.878 38.491,41.743 40.165,42.373 
		39.985,42.463 38.253,41.878 38.253,41.878 38.253,41.878 	"/>
	<polygon style="fill-rule:evenodd;clip-rule:evenodd;fill:#FFFFFF;" points="40.165,42.373 40.165,43.183 38.253,42.463 
		38.253,41.743 40.165,42.373 40.165,42.373 40.165,42.373 	"/>
	<polygon style="fill-rule:evenodd;clip-rule:evenodd;fill:#4F62A5;" points="38.253,40.304 38.491,40.304 40.165,41.022 
		39.985,41.022 38.253,40.304 38.253,40.304 38.253,40.304 	"/>
	<polygon style="fill-rule:evenodd;clip-rule:evenodd;fill:#FFFFFF;" points="40.165,40.934 40.165,41.743 38.253,41.158 
		38.253,40.304 40.165,40.934 40.165,40.934 40.165,40.934 	"/>
	<polygon style="fill-rule:evenodd;clip-rule:evenodd;fill:#2A3174;" points="41.121,44.082 42.077,43.902 42.077,45.161 
		41.121,45.342 41.121,44.082 41.121,44.082 41.121,44.082 	"/>
	<polygon style="fill-rule:evenodd;clip-rule:evenodd;fill:#4F62A5;" points="40.165,43.317 40.523,43.183 42.077,43.813 
		41.958,43.902 40.165,43.317 40.165,43.317 40.165,43.317 	"/>
	<polygon style="fill-rule:evenodd;clip-rule:evenodd;fill:#FFFFFF;" points="41.121,44.532 41.121,45.342 40.165,44.757 
		40.165,43.902 41.121,44.532 41.121,44.532 41.121,44.532 	"/>
	<polygon style="fill-rule:evenodd;clip-rule:evenodd;fill:#2A3174;" points="41.121,43.272 42.077,43.183 42.077,43.813 
		41.121,43.902 41.121,43.272 41.121,43.272 41.121,43.272 	"/>
	<polygon style="fill-rule:evenodd;clip-rule:evenodd;fill:#4F62A5;" points="40.165,42.598 40.523,42.463 42.077,43.092 
		41.958,43.183 40.165,42.598 40.165,42.598 40.165,42.598 	"/>
	<polygon style="fill-rule:evenodd;clip-rule:evenodd;fill:#FFFFFF;" points="41.121,43.092 41.121,43.902 40.165,43.317 
		40.165,42.463 41.121,43.092 41.121,43.092 41.121,43.092 	"/>
	<polygon style="fill-rule:evenodd;clip-rule:evenodd;fill:#2A3174;" points="41.121,41.834 42.077,41.743 42.077,42.373 
		41.121,42.463 41.121,41.834 41.121,41.834 41.121,41.834 	"/>
	<polygon style="fill-rule:evenodd;clip-rule:evenodd;fill:#4F62A5;" points="40.165,41.158 40.404,41.022 42.077,41.652 
		41.898,41.743 40.165,41.158 40.165,41.158 40.165,41.158 	"/>
	<polygon style="fill-rule:evenodd;clip-rule:evenodd;fill:#FFFFFF;" points="41.121,41.652 41.121,42.463 40.165,41.743 
		40.284,41.022 41.121,41.652 41.121,41.652 41.121,41.652 	"/>
	<polygon style="fill-rule:evenodd;clip-rule:evenodd;fill:#2A3174;" points="11.476,28.788 12.432,28.788 12.432,32.387 
		11.476,32.387 11.476,28.788 11.476,28.788 11.476,28.788 	"/>
	<polygon style="fill-rule:evenodd;clip-rule:evenodd;fill:#4F62A5;" points="2.869,25.324 3.048,25.189 12.432,28.788 
		12.313,28.788 2.869,25.324 2.869,25.324 2.869,25.324 	"/>
	<polygon style="fill-rule:evenodd;clip-rule:evenodd;fill:#FFFFFF;" points="11.476,29.014 11.476,32.387 2.869,28.608 
		2.869,25.189 11.476,29.014 11.476,29.014 11.476,29.014 	"/>
	<polygon style="fill-rule:evenodd;clip-rule:evenodd;fill:#2F3D70;" points="5.737,27.979 5.737,28.788 5.021,28.652 5.021,28.743 
		4.423,28.652 4.423,28.473 3.825,28.293 3.825,27.349 5.737,27.979 5.737,27.979 5.737,27.979 	"/>
	<polygon style="fill-rule:evenodd;clip-rule:evenodd;fill:#2F3D70;" points="5.021,26.18 5.021,26.359 5.737,26.539 5.737,27.349 
		3.825,26.854 3.825,25.909 4.423,26.18 4.423,26 5.021,26.18 5.021,26.18 5.021,26.18 	"/>
	<polygon style="fill-rule:evenodd;clip-rule:evenodd;fill:#2F3D70;" points="7.651,28.878 7.651,30.228 7.112,29.958 7.112,30.228 
		6.335,29.958 6.335,29.688 5.737,29.418 5.737,28.068 7.651,28.878 7.651,28.878 7.651,28.878 	"/>
	<polygon style="fill-rule:evenodd;clip-rule:evenodd;fill:#2F3D70;" points="7.112,27.033 7.112,27.169 7.651,27.439 7.651,28.788 
		5.737,27.979 5.737,26.629 6.335,26.899 6.335,26.629 7.112,27.033 7.112,27.033 7.112,27.033 	"/>
	<polygon style="fill-rule:evenodd;clip-rule:evenodd;fill:#2F3D70;" points="9.563,29.464 9.563,30.947 9.085,30.677 9.085,30.947 
		8.367,30.542 8.367,30.408 7.651,30.138 7.83,28.788 9.563,29.464 9.563,29.464 9.563,29.464 	"/>
	<polygon style="fill-rule:evenodd;clip-rule:evenodd;fill:#2F3D70;" points="9.025,27.619 9.025,27.888 9.563,28.158 9.563,29.508 
		7.651,28.698 7.651,27.349 8.248,27.483 8.248,27.349 9.025,27.619 9.025,27.619 9.025,27.619 	"/>
	<polygon style="fill-rule:evenodd;clip-rule:evenodd;fill:#2F3D70;" points="11.476,30.317 11.476,31.667 10.938,31.397 
		10.938,31.667 10.34,31.397 10.34,31.127 9.563,30.857 9.563,29.508 11.476,30.317 11.476,30.317 11.476,30.317 	"/>
	<polygon style="fill-rule:evenodd;clip-rule:evenodd;fill:#2F3D70;" points="10.938,28.338 10.938,28.608 11.476,28.834 
		11.476,30.228 9.563,29.373 9.563,28.068 10.34,28.338 10.34,28.068 10.938,28.338 10.938,28.338 10.938,28.338 	"/>
	<polygon style="fill-rule:evenodd;clip-rule:evenodd;fill:#4F62A5;" points="13.388,29.644 13.568,29.508 21.996,33.107 
		21.875,33.107 13.388,29.644 13.388,29.644 13.388,29.644 	"/>
	<polygon style="fill-rule:evenodd;clip-rule:evenodd;fill:#FFFFFF;" points="21.996,33.331 21.996,36.705 13.388,32.837 
		13.388,29.508 21.996,33.331 21.996,33.331 21.996,33.331 	"/>
	<polygon style="fill-rule:evenodd;clip-rule:evenodd;fill:#2F3D70;" points="15.301,32.296 15.301,33.107 14.823,33.017 
		14.823,33.107 14.106,32.926 14.106,32.746 13.388,32.657 13.388,31.667 15.301,32.296 15.301,32.296 15.301,32.296 	"/>
	<polygon style="fill-rule:evenodd;clip-rule:evenodd;fill:#2F3D70;" points="14.823,30.497 14.823,30.588 15.301,30.857 
		15.301,31.667 13.388,31.218 13.568,30.228 14.106,30.408 14.106,30.228 14.823,30.497 14.823,30.497 14.823,30.497 	"/>
	<polygon style="fill-rule:evenodd;clip-rule:evenodd;fill:#2F3D70;" points="17.213,33.151 17.213,34.547 16.975,34.186 
		16.975,34.456 16.616,34.186 16.616,33.917 16.257,33.691 16.257,32.387 17.213,33.151 17.213,33.151 17.213,33.151 	"/>
	<polygon style="fill-rule:evenodd;clip-rule:evenodd;fill:#2F3D70;" points="16.975,31.218 16.975,31.486 17.213,31.757 
		17.213,33.107 16.257,32.296 16.257,30.947 16.616,31.218 16.616,30.947 16.975,31.218 16.975,31.218 16.975,31.218 	"/>
	<polygon style="fill-rule:evenodd;clip-rule:evenodd;fill:#2F3D70;" points="20.082,34.006 20.082,35.266 19.425,35.041 
		19.425,35.176 18.887,35.041 18.887,34.771 18.169,34.547 18.169,33.107 20.082,34.006 20.082,34.006 20.082,34.006 	"/>
	<polygon style="fill-rule:evenodd;clip-rule:evenodd;fill:#2F3D70;" points="19.604,32.072 19.604,32.207 20.082,32.566 
		20.082,33.826 18.169,33.107 18.169,31.667 18.887,32.072 18.887,31.802 19.604,32.072 19.604,32.072 19.604,32.072 	"/>
	<polygon style="fill-rule:evenodd;clip-rule:evenodd;fill:#2F3D70;" points="21.996,35.086 21.996,35.985 21.337,35.806 
		21.337,35.985 20.621,35.806 20.621,35.625 20.082,35.445 20.082,34.547 21.996,35.086 21.996,35.086 21.996,35.086 	"/>
	<polygon style="fill-rule:evenodd;clip-rule:evenodd;fill:#2F3D70;" points="21.337,33.287 21.337,33.467 21.996,33.646 
		21.996,34.547 20.082,34.006 20.082,33.107 20.621,33.287 20.621,33.107 21.337,33.287 21.337,33.287 21.337,33.287 	"/>
	<polygon style="fill-rule:evenodd;clip-rule:evenodd;fill:#4F62A5;" points="23.908,33.961 24.266,33.826 32.514,37.335 
		32.395,37.425 23.908,33.961 23.908,33.961 23.908,33.961 	"/>
	<polygon style="fill-rule:evenodd;clip-rule:evenodd;fill:#FFFFFF;" points="32.514,37.649 32.514,41.022 23.908,37.245 
		23.908,33.826 32.514,37.649 32.514,37.649 32.514,37.649 	"/>
	<polygon style="fill-rule:evenodd;clip-rule:evenodd;fill:#2F3D70;" points="25.82,36.751 25.82,38.145 25.163,37.784 
		25.163,38.055 24.625,37.784 24.625,37.649 23.908,37.29 23.908,35.985 25.82,36.751 25.82,36.751 25.82,36.751 	"/>
	<polygon style="fill-rule:evenodd;clip-rule:evenodd;fill:#2F3D70;" points="25.163,34.815 25.163,35.221 25.82,35.311 
		25.82,36.705 23.908,35.851 23.908,34.547 24.625,34.815 24.625,34.681 25.163,34.815 25.163,34.815 25.163,34.815 	"/>
	<polygon style="fill-rule:evenodd;clip-rule:evenodd;fill:#2F3D70;" points="27.733,37.515 27.733,38.864 27.076,38.594 
		27.076,38.864 26.538,38.594 26.538,38.324 25.82,38.055 25.82,36.705 27.733,37.515 27.733,37.515 27.733,37.515 	"/>
	<polygon style="fill-rule:evenodd;clip-rule:evenodd;fill:#2F3D70;" points="27.076,35.536 27.076,35.806 27.733,36.075 
		27.733,37.425 25.82,36.615 25.82,35.266 26.538,35.536 26.538,35.266 27.076,35.536 27.076,35.536 27.076,35.536 	"/>
	<polygon style="fill-rule:evenodd;clip-rule:evenodd;fill:#2F3D70;" points="29.646,38.594 29.646,39.583 29.287,39.403 
		29.287,39.583 28.988,39.314 28.988,39.224 28.689,39.044 28.689,38.145 29.646,38.594 29.646,38.594 29.646,38.594 	"/>
	<polygon style="fill-rule:evenodd;clip-rule:evenodd;fill:#2F3D70;" points="29.287,36.885 29.287,37.064 29.646,37.245 
		29.646,38.145 28.689,37.604 28.689,36.705 28.988,36.795 28.988,36.705 29.287,36.885 29.287,36.885 29.287,36.885 	"/>
	<polygon style="fill-rule:evenodd;clip-rule:evenodd;fill:#2F3D70;" points="31.558,39.403 31.558,40.304 31.319,40.124 
		31.319,40.304 30.901,40.124 30.901,39.944 30.602,39.764 30.602,38.864 31.558,39.403 31.558,39.403 31.558,39.403 	"/>
	<polygon style="fill-rule:evenodd;clip-rule:evenodd;fill:#2F3D70;" points="31.319,37.694 31.319,37.964 31.558,38.19 
		31.558,39.583 30.602,38.729 30.602,37.425 30.901,37.694 30.901,37.425 31.319,37.694 31.319,37.694 31.319,37.694 	"/>
	<polygon style="fill-rule:evenodd;clip-rule:evenodd;fill:#4F62A5;" points="33.471,39.044 33.471,38.864 35.384,40.304 
		35.264,40.304 33.471,39.044 33.471,39.044 33.471,39.044 	"/>
	<polygon style="fill-rule:evenodd;clip-rule:evenodd;fill:#FFFFFF;" points="35.384,39.898 35.384,42.463 32.514,41.338 
		32.694,38.864 35.384,39.898 35.384,39.898 35.384,39.898 	"/>
	<polygon style="fill-rule:evenodd;clip-rule:evenodd;fill:#2F3D70;" points="35.384,40.393 35.384,41.743 34.726,41.473 
		34.726,41.743 34.188,41.473 34.188,41.204 33.471,40.934 33.471,39.583 35.384,40.393 35.384,40.393 35.384,40.393 	"/>
</g>
</svg>
