<?xml version="1.0" encoding="iso-8859-1"?>
<!DOCTYPE svg PUBLIC "-//W3C//DTD SVG 1.1//EN" "http://www.w3.org/Graphics/SVG/1.1/DTD/svg11.dtd">
<svg version="1.1" xmlns="http://www.w3.org/2000/svg" xmlns:xlink="http://www.w3.org/1999/xlink" width="55" height="40" viewBox="0 0 55 40">
<g>
	<polygon style="fill-rule:evenodd;clip-rule:evenodd;fill:#2A3174;" points="54.424,15.874 54.424,23.917 27.213,39.685 
		27.213,31.677 54.424,15.874 54.424,15.874 54.424,15.874 54.424,15.874 54.424,15.874 	"/>
	<polygon style="fill-rule:evenodd;clip-rule:evenodd;fill:#37468B;" points="27.213,31.677 27.213,39.685 0,23.917 0.106,15.874 
		27.213,31.677 27.213,31.677 27.213,31.677 27.213,31.677 27.213,31.677 	"/>
	<polygon style="fill-rule:evenodd;clip-rule:evenodd;fill:#4F62A5;" points="54.424,15.874 27.319,31.749 0,15.874 27.142,0 
		54.424,15.874 54.424,15.874 54.424,15.874 54.424,15.874 54.424,15.874 	"/>
	<polygon style="fill-rule:evenodd;clip-rule:evenodd;fill:#2A3174;" points="27.779,12.721 23.705,15.342 25.406,16.441 
		24.414,17.008 21.543,15.166 26.646,11.906 27.779,12.721 27.779,12.721 27.779,12.721 27.779,12.721 	"/>
	<path style="fill-rule:evenodd;clip-rule:evenodd;fill:#2A3174;" d="M39.686,18.815c0,3.862,0,3.862,0,3.862
		c-6.592,0-6.592,0-6.592,0c0-1.134,0-1.134,0-1.134c3.047,0,3.047,0,3.047,0c-3.508-2.02-3.508-2.02-3.508-2.02
		c-3.047,1.311-7.263,1.311-10.311,0c-3.366,1.949-3.366,1.949-3.366,1.949c3.047,0,3.047,0,3.047,0c0,1.17,0,1.17,0,1.17
		c-6.697,0-6.697,0-6.697,0c0-3.827,0-3.827,0-3.827c1.984,0,1.984,0,1.984,0c0.035,1.736,0.035,1.736,0.035,1.736
		c3.402-1.949,3.402-1.949,3.402-1.949c-2.303-1.807-2.303-4.252-0.071-6.024c-3.331-1.913-3.331-1.913-3.331-1.913
		c0,1.736,0,1.736,0,1.736c-1.949,0-1.949,0-1.949,0c0-3.897,0-3.897,0-3.897c6.626,0,6.626,0,6.626,0c0,1.169,0,1.169,0,1.169
		c-3.012,0-3.012,0-3.012,0c3.331,1.984,3.331,1.984,3.331,1.984c3.012-1.347,7.193-1.347,10.24,0
		c3.402-1.984,3.402-1.984,3.402-1.984c-3.049,0-3.049,0-3.049,0c0-1.169,0-1.169,0-1.169c6.627,0,6.627,0,6.627,0
		c0.035,3.897,0.035,3.897,0.035,3.897c-2.02,0-2.02,0-2.02,0c0-1.807,0-1.807,0-1.807c-3.365,1.984-3.365,1.984-3.365,1.984
		c2.303,1.772,2.338,4.217,0.035,6.024c3.508,2.019,3.508,2.019,3.508,2.019c0-1.807,0-1.807,0-1.807
		C39.686,18.815,39.686,18.815,39.686,18.815L39.686,18.815L39.686,18.815L39.686,18.815z M28.275,19.169
		c1.311-0.106,2.586-0.461,3.614-1.063c2.34-1.382,2.34-3.685-0.07-5.067c-2.41-1.453-6.307-1.453-8.716,0
		c-2.445,1.382-2.445,3.685,0,5.067C24.52,18.921,26.433,19.275,28.275,19.169c-3.295-1.914-3.295-1.914-3.295-1.914
		c0.921-0.531,0.921-0.531,0.921-0.531c2.871-0.106,2.871-0.106,2.871-0.106c0.922-0.071,1.488-0.177,1.842-0.39
		c0.248-0.142,0.283-0.248,0.283-0.425c0-0.106-0.035-0.284-0.283-0.39c-0.354-0.177-0.814-0.284-1.488-0.354
		c1.027-0.708,1.027-0.708,1.027-0.708c0.852,0.319,1.488,0.531,1.914,0.779c0.391,0.212,0.639,0.496,0.639,0.851
		c0.035,0.354-0.178,0.638-0.639,0.886c-0.814,0.46-2.268,0.673-4.429,0.638c-0.354,0-0.354,0-0.354,0
		c1.914,1.099,1.914,1.099,1.914,1.099C28.275,19.169,28.275,19.169,28.275,19.169"/>
	<polygon style="fill-rule:evenodd;clip-rule:evenodd;fill:#FFFFFF;" points="27.779,12.649 23.705,15.023 25.406,15.91 
		24.414,16.441 21.543,14.847 26.646,11.906 27.779,12.649 27.779,12.649 27.779,12.649 27.779,12.649 	"/>
	<path style="fill-rule:evenodd;clip-rule:evenodd;fill:#FFFFFF;" d="M39.686,18.248c0,3.862,0,3.862,0,3.862
		c-6.592,0-6.592,0-6.592,0c0-1.134,0-1.134,0-1.134c3.047,0,3.047,0,3.047,0c-3.508-2.02-3.508-2.02-3.508-2.02
		c-3.047,1.311-7.263,1.311-10.311,0c-3.366,2.02-3.366,2.02-3.366,2.02c3.047,0,3.047,0,3.047,0c0,1.099,0,1.099,0,1.099
		c-6.697,0-6.697,0-6.697,0c0-3.827,0-3.827,0-3.827c1.984,0,1.984,0,1.984,0c0.035,1.736,0.035,1.736,0.035,1.736
		c3.402-1.949,3.402-1.949,3.402-1.949c-2.303-1.807-2.303-4.252-0.071-6.024c-3.331-1.913-3.331-1.913-3.331-1.913
		c0,1.736,0,1.736,0,1.736c-1.949,0-1.949,0-1.949,0c0-3.897,0-3.897,0-3.897c6.626,0,6.626,0,6.626,0c0,1.169,0,1.169,0,1.169
		c-3.012,0-3.012,0-3.012,0c3.331,1.984,3.331,1.984,3.331,1.984c3.012-1.346,7.193-1.346,10.24,0
		c3.402-1.984,3.402-1.984,3.402-1.984c-3.049,0-3.049,0-3.049,0c0-1.169,0-1.169,0-1.169c6.627,0,6.627,0,6.627,0
		c0.035,3.897,0.035,3.897,0.035,3.897c-2.02,0-2.02,0-2.02,0c0-1.807,0-1.807,0-1.807c-3.365,1.984-3.365,1.984-3.365,1.984
		c2.303,1.772,2.338,4.217,0.035,6.024c3.508,2.02,3.508,2.02,3.508,2.02c0-1.807,0-1.807,0-1.807
		C39.686,18.248,39.686,18.248,39.686,18.248L39.686,18.248L39.686,18.248L39.686,18.248z M28.275,18.603
		c1.311-0.106,2.586-0.461,3.614-1.063c2.34-1.382,2.34-3.685-0.07-5.067c-2.41-1.453-6.307-1.453-8.716,0
		c-2.445,1.382-2.445,3.685,0,5.067C24.52,18.354,26.433,18.708,28.275,18.603c-3.295-1.914-3.295-1.914-3.295-1.914
		c0.921-0.531,0.921-0.531,0.921-0.531c2.871-0.106,2.871-0.106,2.871-0.106c0.922-0.071,1.488-0.177,1.842-0.39
		c0.248-0.142,0.283-0.248,0.283-0.425c0-0.106-0.035-0.284-0.283-0.39c-0.354-0.177-0.814-0.284-1.488-0.354
		c1.027-0.708,1.027-0.708,1.027-0.708c0.852,0.319,1.488,0.531,1.914,0.779c0.391,0.212,0.639,0.496,0.639,0.851
		c0.035,0.354-0.178,0.638-0.639,0.886c-0.814,0.46-2.268,0.673-4.429,0.638c-0.354,0-0.354,0-0.354,0
		c1.914,1.099,1.914,1.099,1.914,1.099C28.275,18.603,28.275,18.603,28.275,18.603"/>
</g>
</svg>