<?xml version="1.0" encoding="iso-8859-1"?>
<!DOCTYPE svg PUBLIC "-//W3C//DTD SVG 1.1//EN" "http://www.w3.org/Graphics/SVG/1.1/DTD/svg11.dtd">
<svg version="1.1" xmlns="http://www.w3.org/2000/svg" xmlns:xlink="http://www.w3.org/1999/xlink" width="110" height="56" viewBox="0 0 110 56">
<g>
	<polygon style="fill-rule:evenodd;clip-rule:evenodd;fill:#2A3174;" points="56.739,49.775 109.63,25.886 109.63,30.978 
		56.739,54.819 56.739,49.775 56.739,49.775 56.739,49.775 	"/>
	<polygon style="fill-rule:evenodd;clip-rule:evenodd;fill:#4F62A5;" points="0,24.125 52.351,0 109.63,26.171 57.159,50.25 
		0,24.125 0,24.125 0,24.125 	"/>
	<polygon style="fill-rule:evenodd;clip-rule:evenodd;fill:#37468B;" points="56.739,49.87 56.739,54.819 0,29.36 0.181,24.364 
		56.739,49.87 56.739,49.87 56.739,49.87 	"/>
	<polygon style="fill-rule:evenodd;clip-rule:evenodd;fill:#FFFFFF;" points="31.735,39.924 31.735,43.398 23.08,39.305 
		23.08,35.784 31.735,39.924 31.735,39.924 31.735,39.924 	"/>
	<polygon style="fill-rule:evenodd;clip-rule:evenodd;fill:#2F3D70;" points="25.003,38.116 25.003,39.591 24.763,39.354 
		24.763,39.497 24.403,39.21 24.403,39.068 24.042,38.687 24.042,37.308 25.003,38.116 25.003,38.116 25.003,38.116 	"/>
	<polygon style="fill-rule:evenodd;clip-rule:evenodd;fill:#2F3D70;" points="24.763,36.07 24.763,36.356 25.003,36.641 
		25.003,38.068 24.042,37.355 24.042,35.784 24.403,36.07 24.403,35.784 24.763,36.07 24.763,36.07 24.763,36.07 	"/>
	<polygon style="fill-rule:evenodd;clip-rule:evenodd;fill:#2F3D70;" points="27.889,39.401 27.889,40.353 27.348,40.163 
		27.348,40.353 26.566,40.163 26.566,39.971 25.965,39.781 25.965,38.831 27.889,39.401 27.889,39.401 27.889,39.401 	"/>
	<polygon style="fill-rule:evenodd;clip-rule:evenodd;fill:#2F3D70;" points="27.348,37.592 27.348,37.783 27.889,37.972 
		27.889,38.831 25.965,38.306 25.965,37.308 26.566,37.498 26.566,37.402 27.348,37.592 27.348,37.592 27.348,37.592 	"/>
	<polygon style="fill-rule:evenodd;clip-rule:evenodd;fill:#2F3D70;" points="29.813,40.4 29.813,41.875 29.091,41.637 
		29.091,41.78 28.49,41.494 28.49,41.352 27.889,40.971 27.889,39.591 29.813,40.4 29.813,40.4 29.813,40.4 	"/>
	<polygon style="fill-rule:evenodd;clip-rule:evenodd;fill:#2F3D70;" points="29.271,38.354 29.271,38.639 29.813,38.877 
		29.813,40.353 27.889,39.591 27.889,38.068 28.49,38.354 28.49,38.068 29.271,38.354 29.271,38.354 29.271,38.354 	"/>
	<polygon style="fill-rule:evenodd;clip-rule:evenodd;fill:#2F3D70;" points="31.735,41.209 31.735,42.636 31.075,42.352 
		31.075,42.636 30.353,42.352 30.353,42.066 29.813,41.78 29.813,40.353 31.735,41.209 31.735,41.209 31.735,41.209 	"/>
	<polygon style="fill-rule:evenodd;clip-rule:evenodd;fill:#2F3D70;" points="31.075,39.115 31.075,39.401 31.735,39.687 
		31.735,41.114 29.813,40.257 29.813,38.831 30.353,39.115 30.353,38.831 31.075,39.115 31.075,39.115 31.075,39.115 	"/>
	<polygon style="fill-rule:evenodd;clip-rule:evenodd;fill:#FFFFFF;" points="23.08,35.309 23.08,38.831 14.426,34.786 
		14.426,31.215 23.08,35.309 23.08,35.309 23.08,35.309 	"/>
	<polygon style="fill-rule:evenodd;clip-rule:evenodd;fill:#2F3D70;" points="16.349,34.453 16.349,35.784 15.868,35.546 
		15.868,35.784 15.146,35.546 15.146,35.26 14.426,35.023 14.426,33.5 16.349,34.453 16.349,34.453 16.349,34.453 	"/>
	<polygon style="fill-rule:evenodd;clip-rule:evenodd;fill:#2F3D70;" points="15.868,32.405 15.868,32.691 16.349,32.928 
		16.349,34.261 14.426,33.5 14.426,31.978 15.146,32.405 15.146,32.121 15.868,32.405 15.868,32.405 15.868,32.405 	"/>
	<polygon style="fill-rule:evenodd;clip-rule:evenodd;fill:#2F3D70;" points="18.272,35.07 18.272,36.545 17.611,36.308 
		17.611,36.45 17.07,36.166 17.07,36.022 16.349,35.784 16.349,34.261 18.272,35.07 18.272,35.07 18.272,35.07 	"/>
	<polygon style="fill-rule:evenodd;clip-rule:evenodd;fill:#2F3D70;" points="17.611,33.024 17.611,33.31 18.272,33.547 
		18.272,35.023 16.349,34.261 16.349,32.739 17.07,33.024 17.07,32.739 17.611,33.024 17.611,33.024 17.611,33.024 	"/>
	<polygon style="fill-rule:evenodd;clip-rule:evenodd;fill:#2F3D70;" points="20.195,36.356 20.195,37.308 19.895,37.116 
		19.895,37.308 19.594,37.116 19.594,36.926 19.234,36.736 19.234,35.784 20.195,36.356 20.195,36.356 20.195,36.356 	"/>
	<polygon style="fill-rule:evenodd;clip-rule:evenodd;fill:#2F3D70;" points="19.895,34.453 19.895,34.643 20.195,34.833 
		20.195,35.784 19.234,35.213 19.354,34.261 19.594,34.453 19.594,34.261 19.895,34.453 19.895,34.453 19.895,34.453 	"/>
	<polygon style="fill-rule:evenodd;clip-rule:evenodd;fill:#2F3D70;" points="23.08,37.355 23.08,38.831 22.359,38.591 
		22.359,38.735 21.758,38.449 21.758,38.306 21.157,38.068 21.157,36.545 23.08,37.355 23.08,37.355 23.08,37.355 	"/>
	<polygon style="fill-rule:evenodd;clip-rule:evenodd;fill:#2F3D70;" points="22.359,35.309 22.359,35.593 23.08,35.975 
		23.08,37.308 21.157,36.545 21.157,35.023 21.758,35.309 21.758,35.166 22.359,35.309 22.359,35.309 22.359,35.309 	"/>
	<polygon style="fill-rule:evenodd;clip-rule:evenodd;fill:#FFFFFF;" points="14.426,31.549 14.426,35.023 5.771,31.026 
		5.771,27.409 14.426,31.549 14.426,31.549 14.426,31.549 	"/>
	<polygon style="fill-rule:evenodd;clip-rule:evenodd;fill:#2F3D70;" points="7.694,30.265 7.694,31.215 7.033,31.073 7.033,31.168 
		6.492,30.978 6.492,30.884 5.771,30.693 5.771,29.693 7.694,30.265 7.694,30.265 7.694,30.265 	"/>
	<polygon style="fill-rule:evenodd;clip-rule:evenodd;fill:#2F3D70;" points="7.033,28.361 7.033,28.551 7.694,28.836 7.694,29.693 
		5.771,29.218 5.771,28.17 6.492,28.361 6.492,28.17 7.033,28.361 7.033,28.361 7.033,28.361 	"/>
	<polygon style="fill-rule:evenodd;clip-rule:evenodd;fill:#2F3D70;" points="9.617,31.311 9.617,32.739 8.956,32.454 8.956,32.739 
		8.415,32.454 8.415,32.167 7.694,31.882 7.694,30.454 9.617,31.311 9.617,31.311 9.617,31.311 	"/>
	<polygon style="fill-rule:evenodd;clip-rule:evenodd;fill:#2F3D70;" points="8.956,29.218 8.956,29.502 9.617,29.789 9.617,31.215 
		7.694,30.359 7.694,28.932 8.415,29.218 8.415,28.932 8.956,29.218 8.956,29.218 8.956,29.218 	"/>
	<polygon style="fill-rule:evenodd;clip-rule:evenodd;fill:#2F3D70;" points="11.54,32.167 11.54,33.5 10.879,33.261 10.879,33.405 
		10.338,33.12 10.338,32.977 9.617,32.739 9.617,31.215 11.54,32.167 11.54,32.167 11.54,32.167 	"/>
	<polygon style="fill-rule:evenodd;clip-rule:evenodd;fill:#2F3D70;" points="10.879,29.979 10.879,30.407 11.54,30.645 
		11.54,31.978 9.617,31.215 9.617,29.693 10.338,29.979 10.338,29.693 10.879,29.979 10.879,29.979 10.879,29.979 	"/>
	<polygon style="fill-rule:evenodd;clip-rule:evenodd;fill:#2F3D70;" points="13.463,32.834 13.463,34.261 12.802,33.976 
		12.802,34.261 12.262,33.976 12.262,33.691 11.54,33.405 11.54,31.978 13.463,32.834 13.463,32.834 13.463,32.834 	"/>
	<polygon style="fill-rule:evenodd;clip-rule:evenodd;fill:#2F3D70;" points="12.802,30.74 12.802,31.026 13.463,31.311 
		13.463,32.739 11.54,31.882 11.721,30.454 12.262,30.74 12.262,30.454 12.802,30.74 12.802,30.74 12.802,30.74 	"/>
	<polygon style="fill-rule:evenodd;clip-rule:evenodd;fill:#FFFFFF;" points="42.314,46.348 42.314,47.966 33.659,43.542 
		33.659,41.875 42.314,46.348 42.314,46.348 42.314,46.348 	"/>
	<polygon style="fill-rule:evenodd;clip-rule:evenodd;fill:#2F3D70;" points="42.314,46.253 42.314,47.206 41.652,47.014 
		41.652,47.206 41.112,47.014 41.112,46.824 40.39,46.633 40.571,45.681 42.314,46.253 42.314,46.253 42.314,46.253 	"/>
	<polygon style="fill-rule:evenodd;clip-rule:evenodd;fill:#2F3D70;" points="40.39,45.111 40.39,46.444 39.729,46.207 
		39.729,46.444 39.188,46.207 39.188,45.92 38.466,45.681 38.466,44.159 40.39,45.111 40.39,45.111 40.39,45.111 	"/>
	<polygon style="fill-rule:evenodd;clip-rule:evenodd;fill:#2F3D70;" points="38.466,44.254 38.466,45.681 37.806,45.397 
		37.806,45.681 37.265,45.397 37.265,45.111 36.543,44.825 36.543,43.398 38.466,44.254 38.466,44.254 38.466,44.254 	"/>
	<polygon style="fill-rule:evenodd;clip-rule:evenodd;fill:#2F3D70;" points="35.582,43.588 35.582,44.921 35.282,44.541 
		35.282,44.921 34.981,44.541 34.981,44.254 34.621,44.016 34.621,42.636 35.582,43.588 35.582,43.588 35.582,43.588 	"/>
	<path style="fill-rule:evenodd;clip-rule:evenodd;fill:#FFFFFF;" d="M38.948,42.636c0.24,0.143,0.48,0.333,0.48,0.477
		c0,0.189-0.24,0.285-0.48,0.189c-0.24-0.094-0.481-0.333-0.481-0.427C38.466,42.636,38.708,42.636,38.948,42.636L38.948,42.636"/>
	<path style="fill-rule:evenodd;clip-rule:evenodd;fill:#FFFFFF;" d="M38.948,43.398c0.24,0.144,0.48,0.333,0.48,0.571
		c0,0.096-0.24,0.189-0.48,0.096c-0.24-0.096-0.481-0.334-0.481-0.43C38.466,43.398,38.708,43.398,38.948,43.398L38.948,43.398"/>
	<path style="fill-rule:evenodd;clip-rule:evenodd;fill:#FFFFFF;" d="M44.658,48.109c0.36,0.095,0.541,0.19,0.541,0.428
		c0,0.096-0.181,0.191-0.541,0.096c-0.181,0-0.421-0.19-0.421-0.429C44.237,48.109,44.477,47.966,44.658,48.109L44.658,48.109"/>
	<path style="fill-rule:evenodd;clip-rule:evenodd;fill:#FFFFFF;" d="M45.799,45.825c0.181,0.096,0.361,0.19,0.361,0.429
		c0,0.19-0.181,0.19-0.361,0.095c-0.36,0-0.601-0.19-0.601-0.428C45.199,45.825,45.439,45.681,45.799,45.825L45.799,45.825"/>
	<path style="fill-rule:evenodd;clip-rule:evenodd;fill:#FFFFFF;" d="M45.799,46.586c0.181,0.095,0.361,0.333,0.361,0.428
		c0,0.191-0.181,0.191-0.361,0.096c-0.36,0-0.601-0.19-0.601-0.429C45.199,46.586,45.439,46.444,45.799,46.586L45.799,46.586"/>
	<path style="fill-rule:evenodd;clip-rule:evenodd;fill:#FFFFFF;" d="M45.799,47.347c0.181,0,0.361,0.19,0.361,0.429
		c0,0.095-0.181,0.19-0.361,0.095c-0.36-0.095-0.601-0.333-0.601-0.428C45.199,47.206,45.439,47.206,45.799,47.347L45.799,47.347"/>
	<path style="fill-rule:evenodd;clip-rule:evenodd;fill:#FFFFFF;" d="M47.723,46.586c0.18,0.095,0.36,0.19,0.36,0.428
		c0,0.096-0.181,0.191-0.36,0.096c-0.36-0.096-0.601-0.19-0.601-0.429C47.123,46.586,47.363,46.444,47.723,46.586L47.723,46.586"/>
	<path style="fill-rule:evenodd;clip-rule:evenodd;fill:#FFFFFF;" d="M47.723,47.347c0.18,0.096,0.36,0.19,0.36,0.429
		c0,0.095-0.181,0.19-0.36,0.095c-0.36,0-0.601-0.19-0.601-0.428C47.123,47.347,47.363,47.206,47.723,47.347L47.723,47.347"/>
	<path style="fill-rule:evenodd;clip-rule:evenodd;fill:#FFFFFF;" d="M47.723,47.966c0.18,0.143,0.36,0.333,0.36,0.57
		c0,0.096-0.181,0.191-0.36,0.096c-0.36-0.096-0.601-0.333-0.601-0.429C47.123,47.966,47.363,47.966,47.723,47.966L47.723,47.966"/>
	<path style="fill-rule:evenodd;clip-rule:evenodd;fill:#FFFFFF;" d="M50.608,48.109c0.181,0.095,0.36,0.333,0.36,0.428
		c0,0.191-0.18,0.191-0.36,0.191c-0.36-0.096-0.601-0.286-0.601-0.429C50.007,48.109,50.248,47.966,50.608,48.109L50.608,48.109"/>
	<path style="fill-rule:evenodd;clip-rule:evenodd;fill:#FFFFFF;" d="M50.608,48.728c0.181,0.142,0.36,0.333,0.36,0.475
		c0,0.191-0.18,0.286-0.36,0.191c-0.36-0.096-0.601-0.333-0.601-0.429C50.007,48.728,50.248,48.728,50.608,48.728L50.608,48.728"/>
	<path style="fill-rule:evenodd;clip-rule:evenodd;fill:#FFFFFF;" d="M50.608,49.632c0.181,0.096,0.36,0.189,0.36,0.427
		c0,0.191-0.18,0.191-0.36,0.096c-0.36,0-0.601-0.189-0.601-0.427C50.007,49.632,50.248,49.489,50.608,49.632L50.608,49.632"/>
	<path style="fill-rule:evenodd;clip-rule:evenodd;fill:#FFFFFF;" d="M54.274,49.489c0.181,0.144,0.542,0.333,0.361,0.57
		c0,0.096-0.181,0.191-0.361,0.096c-0.18-0.096-0.421-0.333-0.421-0.427C53.853,49.489,54.094,49.489,54.274,49.489L54.274,49.489"
		/>
	<path style="fill-rule:evenodd;clip-rule:evenodd;fill:#FFFFFF;" d="M54.334,50.392c0.24,0,0.481,0.192,0.481,0.43
		c0,0.096-0.241,0.189-0.481,0.096c-0.24-0.096-0.481-0.333-0.481-0.429C53.853,50.25,54.094,50.25,54.334,50.392L54.334,50.392"/>
	<path style="fill-rule:evenodd;clip-rule:evenodd;fill:#FFFFFF;" d="M54.334,51.155c0.24,0.096,0.481,0.333,0.481,0.429
		c0,0.19-0.241,0.19-0.481,0.19c-0.24-0.096-0.481-0.286-0.481-0.523C53.853,51.155,54.094,51.011,54.334,51.155L54.334,51.155"/>
</g>
</svg>
