<?xml version="1.0" encoding="iso-8859-1"?>
<!DOCTYPE svg PUBLIC "-//W3C//DTD SVG 1.1//EN" "http://www.w3.org/Graphics/SVG/1.1/DTD/svg11.dtd">
<svg version="1.1" xmlns="http://www.w3.org/2000/svg" xmlns:xlink="http://www.w3.org/1999/xlink" width="55" height="40" viewBox="0 0 55 40">
<g>
	<polygon style="fill-rule:evenodd;clip-rule:evenodd;fill:#2A3174;" points="54.424,15.874 54.424,23.953 27.213,39.685 
		27.213,31.749 54.424,15.874 54.424,15.874 54.424,15.874 54.424,15.874 54.424,15.874 	"/>
	<polygon style="fill-rule:evenodd;clip-rule:evenodd;fill:#37468B;" points="27.213,31.749 27.213,39.685 0,23.953 0,15.874 
		27.213,31.749 27.213,31.749 27.213,31.749 27.213,31.749 27.213,31.749 	"/>
	<polygon style="fill-rule:evenodd;clip-rule:evenodd;fill:#4F62A5;" points="54.424,15.838 27.319,31.749 0,15.838 27.142,0 
		54.424,15.838 54.424,15.838 54.424,15.838 54.424,15.838 54.424,15.838 	"/>
	<path style="fill-rule:evenodd;clip-rule:evenodd;fill:#2A3174;" d="M39.083,19.417c0.035,3.826,0.035,3.826,0.035,3.826
		c-6.625,0-6.625,0-6.625,0c0-1.134,0-1.134,0-1.134c3.012,0,3.012,0,3.012,0c-3.473-2.055-3.473-2.055-3.473-2.055
		c-3.012,1.347-7.229,1.347-10.24,0C18.39,22.04,18.39,22.04,18.39,22.04c3.012,0,3.012,0,3.012,0c0,1.204,0,1.204,0,1.204
		c-6.59,0-6.59,0-6.59,0c-0.071-3.897-0.071-3.897-0.071-3.897c1.984,0,1.984,0,1.984,0c0.071,1.807,0.071,1.807,0.071,1.807
		c3.401-2.055,3.401-2.055,3.401-2.055c-2.338-1.736-2.338-4.146-0.071-5.953c-3.331-1.949-3.331-1.949-3.331-1.949
		c0,1.736,0,1.736,0,1.736c-1.984,0-1.984,0-1.984,0c0-3.862,0-3.862,0-3.862c6.626,0,6.626,0,6.626,0c0,1.169,0,1.169,0,1.169
		c-3.047,0-3.047,0-3.047,0c3.366,1.984,3.366,1.984,3.366,1.984c2.977-1.382,7.229-1.382,10.206,0c3.4-1.984,3.4-1.984,3.4-1.984
		c-3.047,0-3.047,0-3.047,0c0-1.169,0-1.169,0-1.169c6.627,0,6.627,0,6.627,0c0,3.862,0,3.862,0,3.862c-1.949,0-1.949,0-1.949,0
		c0-1.736,0-1.736,0-1.736c-3.367,1.949-3.367,1.949-3.367,1.949c2.268,1.807,2.268,4.217,0,5.953
		c3.543,2.055,3.543,2.055,3.543,2.055c-0.07-1.736-0.07-1.736-0.07-1.736C39.083,19.417,39.083,19.417,39.083,19.417L39.083,19.417
		L39.083,19.417L39.083,19.417z M22.536,18.673c2.445,1.453,6.307,1.453,8.787,0c2.375-1.382,2.303-3.685-0.07-5.067
		c-2.41-1.453-6.343-1.453-8.717-0.071C20.091,14.988,20.126,17.292,22.536,18.673"/>
	<polygon style="fill-rule:evenodd;clip-rule:evenodd;fill:#2A3174;" points="27.779,13.146 23.74,15.555 25.334,16.477 
		24.378,17.008 21.543,15.342 26.575,12.473 27.779,13.146 27.779,13.146 27.779,13.146 27.779,13.146 	"/>
	<path style="fill-rule:evenodd;clip-rule:evenodd;fill:#2A3174;" d="M31.641,15.449c0.391,0.248,0.639,0.461,0.674,0.78
		c0,0.283-0.178,0.567-0.602,0.815c-0.496,0.283-1.24,0.283-2.162,0.035c0.318,0.248,0.461,0.496,0.391,0.638
		c0,0.248-0.248,0.496-0.568,0.673c-0.531,0.284-1.098,0.319-1.842,0.284c-0.532-0.071-1.099-0.284-1.666-0.603
		c-0.106-0.035-0.284-0.177-0.532-0.354c-0.177-0.142-0.319-0.283-0.39-0.39c0.992-0.46,0.992-0.46,0.992-0.46
		c0.319,0.354,0.567,0.567,0.744,0.708c0.248,0.106,0.496,0.213,0.744,0.213c0.354,0.071,0.602,0,0.85-0.106
		c0.248-0.177,0.354-0.354,0.319-0.46c-0.071-0.142-0.248-0.319-0.567-0.425c-0.354-0.213-0.354-0.213-0.354-0.213
		c0.85-0.496,0.85-0.496,0.85-0.496c0.354,0.248,0.602,0.354,0.85,0.425c0.426,0.106,0.744,0.106,1.064-0.071
		c0.176-0.035,0.248-0.212,0.248-0.354c-0.072-0.177-0.213-0.283-0.391-0.39c-0.178-0.071-0.602-0.248-1.275-0.425
		c0.85-0.531,0.85-0.531,0.85-0.531C30.614,14.988,31.182,15.236,31.641,15.449L31.641,15.449L31.641,15.449"/>
	<path style="fill-rule:evenodd;clip-rule:evenodd;fill:#FFFFFF;" d="M39.083,18.851c0.035,3.827,0.035,3.827,0.035,3.827
		c-6.625,0-6.625,0-6.625,0c0-1.134,0-1.134,0-1.134c3.012,0,3.012,0,3.012,0c-3.473-2.055-3.473-2.055-3.473-2.055
		c-3.012,1.381-7.229,1.381-10.24,0c-3.402,2.055-3.402,2.055-3.402,2.055c3.012,0,3.012,0,3.012,0c0,1.134,0,1.134,0,1.134
		c-6.59,0-6.59,0-6.59,0c-0.071-3.827-0.071-3.827-0.071-3.827c1.984,0,1.984,0,1.984,0c0.071,1.736,0.071,1.736,0.071,1.736
		c3.401-1.984,3.401-1.984,3.401-1.984c-2.338-1.807-2.338-4.217-0.071-5.988c-3.331-1.984-3.331-1.984-3.331-1.984
		c0,1.807,0,1.807,0,1.807c-1.984,0-1.984,0-1.984,0c0-3.933,0-3.933,0-3.933c6.626,0,6.626,0,6.626,0c0,1.24,0,1.24,0,1.24
		c-3.047,0-3.047,0-3.047,0c3.366,1.914,3.366,1.914,3.366,1.914c2.977-1.311,7.229-1.311,10.206,0c3.4-1.984,3.4-1.984,3.4-1.984
		c-3.047,0-3.047,0-3.047,0c0-1.169,0-1.169,0-1.169c6.627,0,6.627,0,6.627,0c0,3.862,0,3.862,0,3.862c-1.949,0-1.949,0-1.949,0
		c0-1.736,0-1.736,0-1.736c-3.367,1.984-3.367,1.984-3.367,1.984c2.268,1.771,2.268,4.181,0,5.988
		c3.543,1.984,3.543,1.984,3.543,1.984c-0.07-1.736-0.07-1.736-0.07-1.736C39.083,18.851,39.083,18.851,39.083,18.851L39.083,18.851
		L39.083,18.851L39.083,18.851z M22.536,18.106c2.445,1.453,6.307,1.453,8.787,0c2.375-1.382,2.303-3.685-0.07-5.067
		c-2.41-1.453-6.343-1.453-8.717,0C20.091,14.421,20.126,16.725,22.536,18.106"/>
	<polygon style="fill-rule:evenodd;clip-rule:evenodd;fill:#FFFFFF;" points="27.779,12.579 23.74,14.953 25.334,15.874 
		24.378,16.441 21.543,14.74 26.575,11.906 27.779,12.579 27.779,12.579 27.779,12.579 27.779,12.579 	"/>
	<path style="fill-rule:evenodd;clip-rule:evenodd;fill:#FFFFFF;" d="M31.641,14.882c0.391,0.213,0.639,0.532,0.674,0.744
		c0,0.354-0.178,0.567-0.602,0.815c-0.496,0.284-1.24,0.284-2.162,0.036c0.318,0.248,0.461,0.46,0.391,0.708
		c0,0.212-0.248,0.39-0.568,0.567c-0.531,0.284-1.098,0.39-1.842,0.284C27,18,26.433,17.823,25.866,17.54
		c-0.106-0.142-0.284-0.248-0.532-0.425c-0.177-0.177-0.319-0.284-0.39-0.319c0.992-0.532,0.992-0.532,0.992-0.532
		c0.319,0.354,0.567,0.567,0.744,0.673c0.248,0.142,0.496,0.248,0.744,0.248c0.354,0.036,0.602,0,0.85-0.106
		c0.248-0.177,0.354-0.283,0.319-0.46c-0.071-0.142-0.248-0.248-0.567-0.425c-0.354-0.177-0.354-0.177-0.354-0.177
		c0.85-0.46,0.85-0.46,0.85-0.46c0.354,0.177,0.602,0.319,0.85,0.354c0.426,0.106,0.744,0.106,1.064,0
		c0.176-0.106,0.248-0.284,0.248-0.39c-0.072-0.106-0.213-0.283-0.391-0.425c-0.178-0.036-0.602-0.213-1.275-0.39
		c0.85-0.531,0.85-0.531,0.85-0.531C30.614,14.421,31.182,14.634,31.641,14.882L31.641,14.882L31.641,14.882"/>
</g>
</svg>