<?xml version="1.0" encoding="iso-8859-1"?>
<!DOCTYPE svg PUBLIC "-//W3C//DTD SVG 1.1//EN" "http://www.w3.org/Graphics/SVG/1.1/DTD/svg11.dtd">
<svg version="1.1" xmlns="http://www.w3.org/2000/svg" xmlns:xlink="http://www.w3.org/1999/xlink" width="78" height="75" viewBox="0 0 78 75">
<g>
	<polygon style="fill-rule:evenodd;clip-rule:evenodd;fill:#2A3174;" points="43.691,33.103 77.354,18.34 77.233,58.642 
		43.512,73.36 43.691,33.103 43.691,33.103 43.691,33.103 	"/>
	<polygon style="fill-rule:evenodd;clip-rule:evenodd;fill:#4F62A5;" points="1.934,14.81 35.716,0 77.354,18.248 43.814,33.012 
		1.934,14.81 1.934,14.81 1.934,14.81 	"/>
	<polygon style="fill-rule:evenodd;clip-rule:evenodd;fill:#3E4F88;" points="43.512,33.47 43.392,73.36 1.934,55.249 1.934,15.405 
		43.512,33.47 43.512,33.47 43.512,33.47 	"/>
	<polygon style="fill-rule:evenodd;clip-rule:evenodd;fill:#2A3174;" points="12.57,51.122 12.57,60.888 0.967,56.029 0.967,46.216 
		12.57,51.122 12.57,51.122 12.57,51.122 	"/>
	<polygon style="fill-rule:evenodd;clip-rule:evenodd;fill:#455691;" points="14.866,49.471 2.719,44.291 2.114,44.016 0,44.978 
		0.483,45.208 12.63,50.389 13.295,50.618 15.471,49.702 14.866,49.471 14.866,49.471 	"/>
	<path style="fill-rule:evenodd;clip-rule:evenodd;fill:#37468B;" d="M12.933,50.389l0.604,0.229v0.504l-0.122,10.638v0.597
		l-0.483-0.23L0.544,56.761L0,56.487v-0.458V45.253V44.75l0.544,0.275L12.933,50.389L12.933,50.389L12.933,50.389L12.933,50.389z
		 M12.449,60.888v-9.767L1.027,46.216v9.813L12.449,60.888L12.449,60.888z"/>
	<polygon style="fill-rule:evenodd;clip-rule:evenodd;fill:#2A3174;" points="13.718,50.847 13.718,51.352 13.537,61.759 
		13.537,62.356 15.35,61.438 15.35,60.934 15.471,50.389 15.471,49.884 13.718,50.847 13.718,50.847 	"/>
	<polygon style="fill-rule:evenodd;clip-rule:evenodd;fill:#2A3174;" points="26.107,57.404 25.985,66.757 15.471,62.081 
		15.471,52.819 26.107,57.404 26.107,57.404 26.107,57.404 	"/>
	<polygon style="fill-rule:evenodd;clip-rule:evenodd;fill:#455691;" points="29.311,55.936 16.438,50.022 15.954,49.884 
		13.537,50.801 14.081,51.077 27.134,56.854 27.618,57.22 29.975,56.074 29.311,55.936 29.311,55.936 	"/>
	<path style="fill-rule:evenodd;clip-rule:evenodd;fill:#37468B;" d="M26.59,56.257l0.484,0.366v0.368v10.773v0.459l-0.484-0.091
		l-12.509-5.502l-0.544-0.275v-0.459V51.259v-0.642l0.544,0.275L26.59,56.257L26.59,56.257L26.59,56.257L26.59,56.257z
		 M25.985,66.757l0.122-9.766l-11.423-4.77v9.675L25.985,66.757L25.985,66.757z"/>
	<polygon style="fill-rule:evenodd;clip-rule:evenodd;fill:#2A3174;" points="27.074,56.854 27.074,57.22 27.074,67.765 
		27.074,68.224 29.975,67.399 29.975,66.802 29.975,56.395 29.975,55.753 27.074,56.854 27.074,56.854 	"/>
	<polygon style="fill-rule:evenodd;clip-rule:evenodd;fill:#2A3174;" points="40.611,63.594 40.611,73.36 29.008,68.362 
		29.188,58.687 40.611,63.594 40.611,63.594 40.611,63.594 	"/>
	<polygon style="fill-rule:evenodd;clip-rule:evenodd;fill:#455691;" points="43.089,62.035 30.76,56.761 30.277,56.487 
		28.041,57.45 28.524,57.586 40.853,62.998 41.337,63.088 43.512,62.263 43.089,62.035 43.089,62.035 	"/>
	<path style="fill-rule:evenodd;clip-rule:evenodd;fill:#37468B;" d="M41.094,62.86l0.482,0.138v0.597V74.23v0.597l-0.482-0.366
		l-12.509-5.364l-0.544-0.23v-0.504V57.586V57.22l0.544,0.138L41.094,62.86L41.094,62.86L41.094,62.86L41.094,62.86z M40.489,73.36
		v-9.766l-11.301-4.907l-0.121,9.675L40.489,73.36L40.489,73.36z"/>
	<polygon style="fill-rule:evenodd;clip-rule:evenodd;fill:#2A3174;" points="41.576,63.226 41.576,63.823 41.576,74.23 
		41.576,74.827 43.512,73.772 43.512,73.405 43.512,62.86 43.512,62.356 41.576,63.226 41.576,63.226 	"/>
	<polygon style="fill-rule:evenodd;clip-rule:evenodd;fill:#2A3174;" points="41.576,61.622 43.512,60.888 43.512,61.622 
		41.576,62.356 41.576,61.622 41.576,61.622 41.576,61.622 	"/>
	<polygon style="fill-rule:evenodd;clip-rule:evenodd;fill:#4F62A5;" points="0,43.557 2.114,42.548 43.512,60.659 41.276,61.622 
		0,43.557 0,43.557 0,43.557 	"/>
	<polygon style="fill-rule:evenodd;clip-rule:evenodd;fill:#37468B;" points="41.576,61.393 41.576,62.356 0,44.291 0,43.282 
		41.576,61.393 41.576,61.393 41.576,61.393 	"/>
	<polygon style="fill-rule:evenodd;clip-rule:evenodd;fill:#495C9B;" points="37.71,55.478 38.556,55.02 40.611,56.303 
		39.825,56.487 37.71,55.478 37.71,55.478 37.71,55.478 	"/>
	<polygon style="fill-rule:evenodd;clip-rule:evenodd;fill:#FFFFFF;" points="39.644,56.395 39.644,59.421 37.71,58.825 
		37.71,55.753 39.644,56.395 39.644,56.395 39.644,56.395 	"/>
	<path style="fill-rule:evenodd;clip-rule:evenodd;fill:#2A3174;" d="M39.222,57.312c-0.182-0.092-0.243-0.092-0.363-0.092
		c0,0.092,0,0.092,0,0.092c-0.061,0-0.061,0-0.061,0l-0.12,0.046c0.12-0.046,0.181-0.046,0.301,0
		c0.243,0.092,0.424,0.321,0.424,0.459c0,0.045,0,0.091-0.061,0.138c0.181-0.047,0.181-0.047,0.181-0.047
		c0.062-0.046,0.121-0.091,0.121-0.184C39.644,57.542,39.522,57.358,39.222,57.312"/>
	<path style="fill-rule:evenodd;clip-rule:evenodd;fill:#4E63A5;" d="M39.16,57.312c0.303,0.092,0.483,0.274,0.483,0.459
		c0,0.137-0.181,0.184-0.483,0.137c-0.182-0.091-0.482-0.321-0.482-0.458C38.678,57.312,38.979,57.22,39.16,57.312L39.16,57.312
		L39.16,57.312z M39.463,57.724c0-0.045,0-0.045,0-0.045c-0.182-0.138-0.182-0.138-0.182-0.138c0-0.092,0-0.092,0-0.092
		c-0.121-0.046-0.121-0.046-0.121-0.046c0,0.138,0,0.138,0,0.138c-0.182-0.092-0.182-0.092-0.182-0.092c0,0.092,0,0.092,0,0.092
		c0.182,0.045,0.182,0.045,0.182,0.045c0,0.185,0,0.185,0,0.185c0.121,0,0.121,0,0.121,0c0-0.092,0-0.092,0-0.092
		C39.463,57.724,39.463,57.724,39.463,57.724"/>
	<polygon style="fill-rule:evenodd;clip-rule:evenodd;fill:#2A3174;" points="2.9,39.935 3.868,39.614 3.868,42.869 2.9,43.282 
		2.9,39.935 2.9,39.935 2.9,39.935 	"/>
	<polygon style="fill-rule:evenodd;clip-rule:evenodd;fill:#495C9B;" points="1.934,39.248 2.417,38.88 3.868,39.981 3.324,40.348 
		1.934,39.248 1.934,39.248 1.934,39.248 	"/>
	<polygon style="fill-rule:evenodd;clip-rule:evenodd;fill:#FFFFFF;" points="2.9,40.348 2.9,43.282 0.967,42.548 1.208,39.614 
		2.9,40.348 2.9,40.348 2.9,40.348 	"/>
	<path style="fill-rule:evenodd;clip-rule:evenodd;fill:#2A3174;" d="M2.478,41.173c-0.182-0.093-0.242-0.093-0.363,0l0,0
		c-0.06,0-0.06,0.045-0.06,0.045H1.934c0.121,0,0.181,0,0.362,0.047c0.182,0.046,0.484,0.274,0.484,0.412
		c0,0.092-0.121,0.138-0.182,0.138c0.182-0.046,0.182-0.046,0.182-0.046c0.06,0,0.121-0.092,0.121-0.138
		C2.9,41.449,2.78,41.265,2.478,41.173"/>
	<path style="fill-rule:evenodd;clip-rule:evenodd;fill:#4E63A5;" d="M2.417,41.218c0.242,0.047,0.483,0.23,0.483,0.368
		c0,0.137-0.241,0.229-0.483,0.137c-0.242-0.092-0.483-0.229-0.483-0.412C1.934,41.173,2.175,41.081,2.417,41.218L2.417,41.218
		L2.417,41.218z M2.659,41.586c0-0.093,0-0.093,0-0.093c-0.242-0.045-0.242-0.045-0.242-0.045c0-0.138,0-0.138,0-0.138
		c-0.06,0-0.06,0-0.06,0c0,0.091,0,0.091,0,0.091c-0.182-0.046-0.182-0.046-0.182-0.046c0,0.046,0,0.046,0,0.046
		c0.182,0.092,0.182,0.092,0.182,0.092c0,0.093,0,0.093,0,0.093c0.06,0.045,0.06,0.045,0.06,0.045c0-0.138,0-0.138,0-0.138
		C2.659,41.586,2.659,41.586,2.659,41.586"/>
	<polygon style="fill-rule:evenodd;clip-rule:evenodd;fill:#495C9B;" points="3.868,40.486 4.532,40.348 37.71,54.791 37.287,55.02 
		3.868,40.486 3.868,40.486 3.868,40.486 	"/>
	<polygon style="fill-rule:evenodd;clip-rule:evenodd;fill:#FFFFFF;" points="37.71,55.111 37.71,57.955 3.868,43.375 3.868,40.348 
		37.71,55.111 37.71,55.111 37.71,55.111 	"/>
	<polygon style="fill-rule:evenodd;clip-rule:evenodd;fill:#2F3D70;" points="5.016,42.548 4.834,42.548 4.834,43.053 5.801,43.282 
		5.801,43.282 5.801,42.824 5.016,42.548 5.016,42.548 	"/>
	<polygon style="fill-rule:evenodd;clip-rule:evenodd;fill:#2F3D70;" points="5.983,43.282 5.801,43.282 5.801,43.787 6.647,44.016 
		6.768,44.016 6.768,43.557 5.983,43.282 5.983,43.282 	"/>
	<polygon style="fill-rule:evenodd;clip-rule:evenodd;fill:#2F3D70;" points="7.735,43.282 7.735,43.282 7.735,44.336 8.581,44.75 
		8.702,44.612 8.702,43.741 7.735,43.282 7.735,43.282 	"/>
	<polygon style="fill-rule:evenodd;clip-rule:evenodd;fill:#2F3D70;" points="8.702,44.016 8.702,44.016 8.702,44.932 9.548,45.483 
		9.669,45.345 9.669,44.474 8.702,44.016 8.702,44.016 	"/>
	<polygon style="fill-rule:evenodd;clip-rule:evenodd;fill:#2F3D70;" points="9.85,44.75 9.669,44.841 9.669,45.299 10.636,45.483 
		10.636,45.483 10.636,44.978 9.85,44.75 9.85,44.75 	"/>
	<polygon style="fill-rule:evenodd;clip-rule:evenodd;fill:#2F3D70;" points="11.784,45.483 11.604,45.483 11.604,46.033 
		12.449,46.216 12.57,46.216 12.57,45.712 11.784,45.483 11.784,45.483 	"/>
	<polygon style="fill-rule:evenodd;clip-rule:evenodd;fill:#2F3D70;" points="12.751,45.483 12.57,45.62 12.57,46.583 
		13.537,46.951 13.537,46.858 13.537,46.033 12.751,45.483 12.751,45.483 	"/>
	<polygon style="fill-rule:evenodd;clip-rule:evenodd;fill:#2F3D70;" points="13.718,46.216 13.537,46.354 13.537,47.179 
		14.504,47.683 14.504,47.592 14.504,46.629 13.718,46.216 13.718,46.216 	"/>
	<polygon style="fill-rule:evenodd;clip-rule:evenodd;fill:#2F3D70;" points="15.652,46.951 15.471,47.133 15.471,48.004 
		16.317,48.417 16.438,48.417 16.438,47.409 15.652,46.951 15.652,46.951 	"/>
	<polygon style="fill-rule:evenodd;clip-rule:evenodd;fill:#2F3D70;" points="16.438,47.683 16.438,47.683 16.438,48.234 
		17.284,48.417 17.405,48.417 17.405,47.914 16.438,47.683 16.438,47.683 	"/>
	<polygon style="fill-rule:evenodd;clip-rule:evenodd;fill:#2F3D70;" points="18.372,47.683 18.372,47.821 18.372,48.784 
		19.218,49.151 19.338,49.059 19.338,48.234 18.372,47.683 18.372,47.683 	"/>
	<polygon style="fill-rule:evenodd;clip-rule:evenodd;fill:#2F3D70;" points="19.641,48.417 19.52,48.601 19.338,49.471 
		20.185,49.884 20.305,49.884 20.305,48.876 19.641,48.417 19.641,48.417 	"/>
	<polygon style="fill-rule:evenodd;clip-rule:evenodd;fill:#2F3D70;" points="20.305,49.151 20.305,49.333 20.305,50.206 
		21.151,50.618 21.272,50.618 21.272,49.609 20.305,49.151 20.305,49.151 	"/>
	<polygon style="fill-rule:evenodd;clip-rule:evenodd;fill:#2F3D70;" points="22.239,49.884 22.239,49.884 22.239,50.389 
		23.206,50.618 23.206,50.618 23.206,50.159 22.239,49.884 22.239,49.884 	"/>
	<polygon style="fill-rule:evenodd;clip-rule:evenodd;fill:#2F3D70;" points="23.387,50.618 23.206,50.709 23.206,51.168 
		24.173,51.352 24.173,51.352 24.173,50.939 23.387,50.618 23.387,50.618 	"/>
	<polygon style="fill-rule:evenodd;clip-rule:evenodd;fill:#2F3D70;" points="24.354,50.618 24.173,50.618 24.173,51.535 
		24.898,52.084 25.14,52.084 25.14,51.077 24.354,50.618 24.354,50.618 	"/>
	<polygon style="fill-rule:evenodd;clip-rule:evenodd;fill:#2F3D70;" points="26.107,51.352 26.107,51.352 26.107,52.36 
		26.953,52.819 27.074,52.819 27.074,51.856 26.107,51.352 26.107,51.352 	"/>
	<polygon style="fill-rule:evenodd;clip-rule:evenodd;fill:#2F3D70;" points="27.255,52.084 27.074,52.084 27.074,53.094 
		28.041,53.552 28.041,53.552 28.041,52.59 27.255,52.084 27.255,52.084 	"/>
	<polygon style="fill-rule:evenodd;clip-rule:evenodd;fill:#2F3D70;" points="28.222,52.819 28.041,52.819 28.041,53.369 
		28.887,53.552 29.008,53.506 29.008,53.047 28.222,52.819 28.222,52.819 	"/>
	<polygon style="fill-rule:evenodd;clip-rule:evenodd;fill:#2F3D70;" points="29.975,53.552 29.975,53.552 29.975,54.01 
		30.821,54.286 30.941,54.241 30.941,53.782 29.975,53.552 29.975,53.552 	"/>
	<polygon style="fill-rule:evenodd;clip-rule:evenodd;fill:#2F3D70;" points="30.941,53.552 30.941,53.736 30.941,54.607 
		31.788,55.02 31.908,55.02 31.908,54.01 30.941,53.552 30.941,53.552 	"/>
	<polygon style="fill-rule:evenodd;clip-rule:evenodd;fill:#2F3D70;" points="32.09,54.286 31.908,54.286 31.908,55.341 
		32.875,55.753 32.875,55.616 32.875,54.745 32.09,54.286 32.09,54.286 	"/>
	<polygon style="fill-rule:evenodd;clip-rule:evenodd;fill:#2F3D70;" points="34.023,55.02 33.842,55.02 33.842,56.074 
		34.688,56.487 34.81,56.349 34.81,55.478 34.023,55.02 34.023,55.02 	"/>
	<polygon style="fill-rule:evenodd;clip-rule:evenodd;fill:#2F3D70;" points="34.99,55.753 34.81,55.845 34.81,56.257 
		35.776,56.487 35.776,56.441 35.776,55.982 34.99,55.753 34.99,55.753 	"/>
	<polygon style="fill-rule:evenodd;clip-rule:evenodd;fill:#495C9B;" points="37.71,52.269 38.556,52.084 40.611,52.543 
		39.825,52.819 37.71,52.269 37.71,52.269 37.71,52.269 	"/>
	<polygon style="fill-rule:evenodd;clip-rule:evenodd;fill:#FFFFFF;" points="39.644,52.865 39.644,55.753 37.71,55.157 
		37.71,52.084 39.644,52.865 39.644,52.865 39.644,52.865 	"/>
	<path style="fill-rule:evenodd;clip-rule:evenodd;fill:#2A3174;" d="M39.222,53.644c-0.182-0.092-0.243-0.092-0.363-0.092l0,0
		c-0.061,0.092-0.061,0.092-0.061,0.092h-0.12c0.12,0,0.181,0,0.301,0.046c0.243,0.046,0.424,0.229,0.424,0.413
		c0,0.091,0,0.138-0.061,0.183c0.181-0.092,0.181-0.092,0.181-0.092c0.062,0,0.121-0.046,0.121-0.137
		C39.644,53.873,39.522,53.69,39.222,53.644"/>
	<path style="fill-rule:evenodd;clip-rule:evenodd;fill:#4E63A5;" d="M39.16,53.782c0.303,0.091,0.483,0.459,0.483,0.779
		c0,0.367-0.181,0.459-0.483,0.274c-0.182-0.091-0.482-0.457-0.482-0.778C38.678,53.782,38.979,53.552,39.16,53.782L39.16,53.782
		L39.16,53.782z M39.463,54.561c0-0.092,0-0.092,0-0.092c-0.182-0.229-0.182-0.229-0.182-0.229c0-0.184,0-0.184,0-0.184
		c-0.121-0.092-0.121-0.092-0.121-0.092c0,0.183,0,0.183,0,0.183c-0.182-0.091-0.182-0.091-0.182-0.091c0,0.184,0,0.184,0,0.184
		c0.182,0.138,0.182,0.138,0.182,0.138c0,0.183,0,0.183,0,0.183c0.121,0.092,0.121,0.092,0.121,0.092c0-0.184,0-0.184,0-0.184
		C39.463,54.561,39.463,54.561,39.463,54.561"/>
	<polygon style="fill-rule:evenodd;clip-rule:evenodd;fill:#2A3174;" points="2.9,36.955 3.868,36.679 3.868,39.385 2.9,39.614 
		2.9,36.955 2.9,36.955 2.9,36.955 	"/>
	<polygon style="fill-rule:evenodd;clip-rule:evenodd;fill:#495C9B;" points="1.934,36.129 2.417,35.946 3.868,36.497 3.324,36.679 
		1.934,36.129 1.934,36.129 1.934,36.129 	"/>
	<polygon style="fill-rule:evenodd;clip-rule:evenodd;fill:#FFFFFF;" points="2.9,36.726 2.9,39.614 0.967,39.018 1.208,35.946 
		2.9,36.726 2.9,36.726 2.9,36.726 	"/>
	<path style="fill-rule:evenodd;clip-rule:evenodd;fill:#2A3174;" d="M2.478,37.505c-0.182-0.093-0.242-0.093-0.363,0l0,0
		c-0.06,0-0.06,0-0.06,0c0,0.046-0.121,0.046-0.121,0.046c0.121-0.046,0.181,0,0.362,0c0.182,0.091,0.484,0.32,0.484,0.458
		c0,0.092-0.121,0.138-0.182,0.138c0.182-0.046,0.182-0.046,0.182-0.046C2.84,38.055,2.9,38.009,2.9,37.963
		C2.9,37.734,2.78,37.597,2.478,37.505"/>
	<path style="fill-rule:evenodd;clip-rule:evenodd;fill:#4E63A5;" d="M2.417,37.551C2.659,37.734,2.9,38.147,2.9,38.467
		c0,0.321-0.241,0.413-0.483,0.321c-0.242-0.184-0.483-0.642-0.483-0.917C1.934,37.551,2.175,37.413,2.417,37.551L2.417,37.551
		L2.417,37.551z M2.659,38.375c0-0.091,0-0.091,0-0.091c-0.242-0.138-0.242-0.138-0.242-0.138c0-0.275,0-0.275,0-0.275
		c-0.06-0.138-0.06-0.138-0.06-0.138c0,0.321,0,0.321,0,0.321c-0.182-0.092-0.182-0.092-0.182-0.092c0,0.092,0,0.092,0,0.092
		c0.182,0.092,0.182,0.092,0.182,0.092c0,0.32,0,0.32,0,0.32c0.06,0.138,0.06,0.138,0.06,0.138c0-0.32,0-0.32,0-0.32
		C2.659,38.375,2.659,38.375,2.659,38.375"/>
	<polygon style="fill-rule:evenodd;clip-rule:evenodd;fill:#495C9B;" points="3.868,36.955 4.532,36.679 37.71,51.856 
		37.287,52.084 3.868,36.955 3.868,36.955 3.868,36.955 	"/>
	<polygon style="fill-rule:evenodd;clip-rule:evenodd;fill:#FFFFFF;" points="37.71,52.04 37.71,55.02 3.868,39.568 3.868,36.679 
		37.71,52.04 37.71,52.04 37.71,52.04 	"/>
	<polygon style="fill-rule:evenodd;clip-rule:evenodd;fill:#2F3D70;" points="5.016,38.88 4.834,38.88 4.834,39.797 5.801,40.348 
		5.801,40.348 5.801,39.339 5.016,38.88 5.016,38.88 	"/>
	<polygon style="fill-rule:evenodd;clip-rule:evenodd;fill:#2F3D70;" points="5.983,39.614 5.801,39.706 5.801,40.165 6.647,40.348 
		6.768,40.348 6.768,39.935 5.983,39.614 5.983,39.614 	"/>
	<polygon style="fill-rule:evenodd;clip-rule:evenodd;fill:#2F3D70;" points="7.735,40.348 7.735,40.439 7.735,40.898 8.581,41.081 
		8.702,41.081 8.702,40.577 7.735,40.348 7.735,40.348 	"/>
	<polygon style="fill-rule:evenodd;clip-rule:evenodd;fill:#2F3D70;" points="8.702,40.348 8.702,40.348 8.702,41.356 9.548,41.815 
		9.669,41.815 9.669,40.852 8.702,40.348 8.702,40.348 	"/>
	<polygon style="fill-rule:evenodd;clip-rule:evenodd;fill:#2F3D70;" points="9.85,41.081 9.669,41.081 9.669,42.09 10.636,42.548 
		10.636,42.548 10.636,41.586 9.85,41.081 9.85,41.081 	"/>
	<polygon style="fill-rule:evenodd;clip-rule:evenodd;fill:#2F3D70;" points="11.784,41.815 11.604,41.815 11.604,42.869 
		12.449,43.282 12.57,43.282 12.57,42.274 11.784,41.815 11.784,41.815 	"/>
	<polygon style="fill-rule:evenodd;clip-rule:evenodd;fill:#2F3D70;" points="12.751,42.548 12.57,42.548 12.57,43.006 
		13.537,43.282 13.537,43.237 13.537,42.778 12.751,42.548 12.751,42.548 	"/>
	<polygon style="fill-rule:evenodd;clip-rule:evenodd;fill:#2F3D70;" points="13.718,43.282 13.537,43.282 13.537,43.787 
		14.504,44.016 14.504,44.016 14.504,43.557 13.718,43.282 13.718,43.282 	"/>
	<polygon style="fill-rule:evenodd;clip-rule:evenodd;fill:#2F3D70;" points="15.652,43.282 15.471,43.282 15.471,44.336 
		16.317,44.75 16.438,44.75 16.438,43.741 15.652,43.282 15.652,43.282 	"/>
	<polygon style="fill-rule:evenodd;clip-rule:evenodd;fill:#2F3D70;" points="16.438,44.016 16.438,44.016 16.438,45.07 
		17.284,45.483 17.405,45.345 17.405,44.474 16.438,44.016 16.438,44.016 	"/>
	<polygon style="fill-rule:evenodd;clip-rule:evenodd;fill:#2F3D70;" points="18.372,44.75 18.372,44.887 18.372,45.712 
		19.218,46.216 19.338,46.125 19.338,45.163 18.372,44.75 18.372,44.75 	"/>
	<polygon style="fill-rule:evenodd;clip-rule:evenodd;fill:#2F3D70;" points="19.641,45.483 19.52,45.575 19.338,46.033 
		20.185,46.216 20.305,46.216 20.305,45.712 19.641,45.483 19.641,45.483 	"/>
	<polygon style="fill-rule:evenodd;clip-rule:evenodd;fill:#2F3D70;" points="20.305,45.483 20.305,45.483 20.305,46.538 
		21.151,46.951 21.272,46.951 21.272,45.941 20.305,45.483 20.305,45.483 	"/>
	<polygon style="fill-rule:evenodd;clip-rule:evenodd;fill:#2F3D70;" points="22.239,46.216 22.239,46.354 22.239,47.317 
		23.206,47.683 23.206,47.592 23.206,46.767 22.239,46.216 22.239,46.216 	"/>
	<polygon style="fill-rule:evenodd;clip-rule:evenodd;fill:#2F3D70;" points="23.387,46.951 23.206,47.133 23.206,48.004 
		24.173,48.417 24.173,48.417 24.173,47.409 23.387,46.951 23.387,46.951 	"/>
	<polygon style="fill-rule:evenodd;clip-rule:evenodd;fill:#2F3D70;" points="24.354,47.683 24.173,47.776 24.173,48.234 
		24.898,48.417 25.14,48.417 25.14,47.914 24.354,47.683 24.354,47.683 	"/>
	<polygon style="fill-rule:evenodd;clip-rule:evenodd;fill:#2F3D70;" points="26.107,48.417 26.107,48.417 26.107,48.967 
		26.953,49.151 27.074,49.105 27.074,48.646 26.107,48.417 26.107,48.417 	"/>
	<polygon style="fill-rule:evenodd;clip-rule:evenodd;fill:#2F3D70;" points="27.255,48.417 27.074,48.601 27.074,49.471 
		28.041,49.884 28.041,49.884 28.041,49.013 27.255,48.417 27.255,48.417 	"/>
	<polygon style="fill-rule:evenodd;clip-rule:evenodd;fill:#2F3D70;" points="28.222,49.151 28.041,49.333 28.041,50.206 
		28.887,50.618 29.008,50.618 29.008,49.609 28.222,49.151 28.222,49.151 	"/>
	<polygon style="fill-rule:evenodd;clip-rule:evenodd;fill:#2F3D70;" points="29.975,49.884 29.975,49.884 29.975,50.389 
		30.821,50.618 30.941,50.618 30.941,50.159 29.975,49.884 29.975,49.884 	"/>
	<polygon style="fill-rule:evenodd;clip-rule:evenodd;fill:#2F3D70;" points="30.941,50.618 30.941,50.618 30.941,51.122 
		31.788,51.352 31.908,51.352 31.908,50.893 30.941,50.618 30.941,50.618 	"/>
	<polygon style="fill-rule:evenodd;clip-rule:evenodd;fill:#2F3D70;" points="32.09,50.618 31.908,50.618 31.908,51.672 
		32.875,52.084 32.875,52.084 32.875,51.077 32.09,50.618 32.09,50.618 	"/>
	<polygon style="fill-rule:evenodd;clip-rule:evenodd;fill:#2F3D70;" points="34.023,51.352 33.842,51.352 33.842,52.269 
		34.688,52.819 34.81,52.681 34.81,51.81 34.023,51.352 34.023,51.352 	"/>
	<polygon style="fill-rule:evenodd;clip-rule:evenodd;fill:#2F3D70;" points="34.99,52.084 34.81,52.084 34.81,53.094 
		35.776,53.552 35.776,53.552 35.776,52.59 34.99,52.084 34.99,52.084 	"/>
	<polygon style="fill-rule:evenodd;clip-rule:evenodd;fill:#495C9B;" points="3.868,33.424 4.352,33.012 37.71,48.05 37.287,48.417 
		3.868,33.424 3.868,33.424 3.868,33.424 	"/>
	<polygon style="fill-rule:evenodd;clip-rule:evenodd;fill:#FFFFFF;" points="37.71,48.601 37.71,51.352 3.868,36.542 4.049,33.746 
		37.71,48.601 37.71,48.601 37.71,48.601 	"/>
	<polygon style="fill-rule:evenodd;clip-rule:evenodd;fill:#2A3174;" points="37.71,34.617 38.678,34.479 38.678,37.23 
		37.71,37.413 37.71,34.617 37.71,34.617 37.71,34.617 	"/>
	<polygon style="fill-rule:evenodd;clip-rule:evenodd;fill:#495C9B;" points="3.868,20.082 4.411,19.807 38.678,34.387 
		38.073,34.479 3.868,20.082 3.868,20.082 3.868,20.082 	"/>
	<polygon style="fill-rule:evenodd;clip-rule:evenodd;fill:#FFFFFF;" points="37.71,34.433 37.71,37.413 3.868,22.695 3.868,19.807 
		37.71,34.433 37.71,34.433 37.71,34.433 	"/>
	<path style="fill-rule:evenodd;clip-rule:evenodd;fill:#41528B;" d="M32.393,33.883c-0.242-0.138-0.242-0.138-0.484,0l0,0h0.242
		c0.483,0.092,0.725,0.32,0.725,0.412s0,0.184-0.241,0.184c0,0,0.241,0,0.241-0.092c0,0,0,0,0-0.092
		C32.875,34.066,32.634,33.975,32.393,33.883"/>
	<path style="fill-rule:evenodd;clip-rule:evenodd;fill:#455691;" d="M32.271,33.883c0.303,0,0.604,0.229,0.604,0.366
		c0,0.138-0.302,0.229-0.604,0.138c-0.362-0.138-0.362-0.274-0.362-0.367C31.908,33.883,31.908,33.746,32.271,33.883L32.271,33.883"
		/>
	<path style="fill-rule:evenodd;clip-rule:evenodd;fill:#CEC3D4;" d="M32.332,33.883c0.361,0.092,0.543,0.32,0.543,0.412
		c0,0.184-0.182,0.184-0.543,0.184c-0.182-0.092-0.424-0.275-0.424-0.504C31.908,33.883,32.15,33.746,32.332,33.883L32.332,33.883
		L32.332,33.883z M32.332,34.387c0.181,0.092,0.361,0,0.361-0.092s-0.181-0.32-0.361-0.32c-0.182-0.092-0.182,0-0.182,0.091
		C32.15,34.204,32.15,34.295,32.332,34.387"/>
	<path style="fill-rule:evenodd;clip-rule:evenodd;fill:#CEC3D4;" d="M31.364,33.012c0.362,0.138,0.544,0.32,0.544,0.55
		c0,0.092-0.182,0.184-0.544,0.092c-0.181-0.092-0.423-0.321-0.423-0.413C30.941,33.012,31.184,33.012,31.364,33.012L31.364,33.012
		L31.364,33.012z M31.364,33.562c0.182,0.092,0.362,0,0.362-0.092c0-0.138-0.181-0.229-0.362-0.32c-0.181-0.138-0.181,0-0.181,0.091
		C31.184,33.333,31.184,33.562,31.364,33.562"/>
	<path style="fill-rule:evenodd;clip-rule:evenodd;fill:#CEC3D4;" d="M31.364,33.883c0.362,0.092,0.544,0.183,0.544,0.412
		c0,0.092-0.182,0.184-0.544,0.092c-0.181,0-0.423-0.184-0.423-0.412C30.941,33.883,31.184,33.746,31.364,33.883L31.364,33.883
		L31.364,33.883z M31.364,34.387c0.182,0,0.362,0,0.362-0.092c0-0.229-0.181-0.32-0.362-0.412c-0.181,0-0.181,0-0.181,0.092
		C31.184,34.204,31.184,34.295,31.364,34.387"/>
	<path style="fill-rule:evenodd;clip-rule:evenodd;fill:#41528B;" d="M29.611,32.278c-0.181,0-0.362,0-0.362,0s0,0-0.241,0
		c0.241,0,0.241,0,0.423,0c0.181,0.138,0.544,0.367,0.544,0.643l-0.182,0.092l0,0c0.182,0,0.182-0.092,0.182-0.229
		S29.793,32.416,29.611,32.278"/>
	<path style="fill-rule:evenodd;clip-rule:evenodd;fill:#CEC3D4;" d="M29.431,32.278c0.181,0.138,0.544,0.321,0.544,0.551
		c0,0.092-0.363,0.184-0.544,0.092c-0.182-0.092-0.423-0.321-0.423-0.413C29.008,32.278,29.249,32.278,29.431,32.278L29.431,32.278
		L29.431,32.278z M29.431,32.829c0.181,0.092,0.362,0,0.362-0.092c0-0.138-0.182-0.229-0.362-0.321c-0.182,0-0.423,0-0.423,0.092
		S29.249,32.829,29.431,32.829"/>
	<path style="fill-rule:evenodd;clip-rule:evenodd;fill:#41528B;" d="M28.645,31.544c-0.181,0-0.362,0-0.362,0s0,0.138-0.241,0.138
		c0.241-0.138,0.241-0.138,0.423,0c0.181,0.092,0.544,0.184,0.362,0.413c0,0.092,0,0.092,0,0.183c0-0.091,0-0.091,0-0.091
		c0.182,0,0.182-0.092,0.182-0.092C29.008,31.866,28.826,31.682,28.645,31.544"/>
	<path style="fill-rule:evenodd;clip-rule:evenodd;fill:#CEC3D4;" d="M28.464,31.682c0.181,0.092,0.544,0.184,0.362,0.413
		c0,0.183-0.182,0.183-0.362,0.092c-0.182,0-0.423-0.185-0.423-0.413C28.041,31.682,28.282,31.544,28.464,31.682L28.464,31.682
		L28.464,31.682z M28.464,32.187c0.181,0,0.362,0,0.362-0.092c0-0.229-0.182-0.321-0.362-0.413c-0.182,0-0.423,0-0.423,0.184
		C28.041,32.002,28.282,32.095,28.464,32.187"/>
	<path style="fill-rule:evenodd;clip-rule:evenodd;fill:#41528B;" d="M28.645,32.416c-0.181-0.138-0.362-0.138-0.362,0
		c0,0,0,0-0.241,0c0.241,0,0.241,0,0.423,0c0.181,0.092,0.544,0.321,0.544,0.413s-0.182,0.184-0.182,0.184l0,0
		c0.182-0.092,0.182-0.092,0.182-0.184C29.008,32.599,28.826,32.507,28.645,32.416"/>
	<path style="fill-rule:evenodd;clip-rule:evenodd;fill:#455691;" d="M28.524,32.416c0.241,0,0.483,0.229,0.483,0.367
		s-0.242,0.229-0.483,0.138c-0.242-0.138-0.483-0.275-0.483-0.367C28.041,32.416,28.282,32.278,28.524,32.416L28.524,32.416"/>
	<path style="fill-rule:evenodd;clip-rule:evenodd;fill:#CEC3D4;" d="M28.464,32.416c0.181,0.092,0.544,0.321,0.544,0.413
		c0,0.184-0.363,0.184-0.544,0.184c-0.182-0.092-0.423-0.275-0.423-0.413C28.041,32.416,28.282,32.278,28.464,32.416L28.464,32.416
		L28.464,32.416z M28.464,32.92c0.181,0.092,0.362,0,0.362-0.092s-0.182-0.321-0.362-0.321c-0.182-0.092-0.423,0-0.423,0.092
		C28.041,32.737,28.282,32.829,28.464,32.92"/>
	<path style="fill-rule:evenodd;clip-rule:evenodd;fill:#41528B;" d="M27.678,31.682c-0.181-0.138-0.362-0.138-0.362,0
		c0,0,0,0-0.241,0c0.241,0,0.241,0,0.423,0c0.181,0.092,0.362,0.32,0.362,0.413c0,0.092,0,0.183,0,0.183l0,0
		c0.182-0.091,0.182-0.091,0.182-0.183C28.041,31.866,27.859,31.774,27.678,31.682"/>
	<path style="fill-rule:evenodd;clip-rule:evenodd;fill:#455691;" d="M27.558,31.682c0.241,0,0.483,0.229,0.483,0.367
		c0,0.138-0.242,0.229-0.483,0.138c-0.242-0.138-0.483-0.276-0.483-0.367C27.074,31.682,27.315,31.544,27.558,31.682L27.558,31.682"
		/>
	<path style="fill-rule:evenodd;clip-rule:evenodd;fill:#CEC3D4;" d="M27.558,31.682c0.241,0.092,0.483,0.32,0.483,0.413
		c0,0.183-0.242,0.183-0.483,0.183c-0.242-0.091-0.483-0.275-0.483-0.412C27.074,31.682,27.315,31.544,27.558,31.682L27.558,31.682
		L27.558,31.682z M27.558,32.187c0.241,0.091,0.483,0,0.483-0.092c0-0.093-0.242-0.321-0.483-0.321
		c-0.242-0.092-0.483,0-0.483,0.092C27.074,32.002,27.315,32.095,27.558,32.187"/>
	<path style="fill-rule:evenodd;clip-rule:evenodd;fill:#41528B;" d="M24.596,30.078h-0.181c-0.242,0-0.242,0-0.242,0
		c0.242,0,0.242,0,0.423,0.137c0.182,0,0.363,0.229,0.363,0.505c0,0,0,0.092-0.182,0.092c0.182,0,0.182,0,0.182,0
		c0.181,0,0.181-0.092,0.181-0.229S24.959,30.214,24.596,30.078"/>
	<path style="fill-rule:evenodd;clip-rule:evenodd;fill:#455691;" d="M24.656,30.078c0.242,0.183,0.483,0.321,0.483,0.458
		c0,0.275-0.241,0.275-0.483,0.138c-0.241,0-0.483-0.274-0.483-0.413C24.173,30.078,24.415,30.078,24.656,30.078L24.656,30.078"/>
	<path style="fill-rule:evenodd;clip-rule:evenodd;fill:#CEC3D4;" d="M24.777,30.214c0.182,0,0.362,0.185,0.362,0.413
		c0,0.092-0.181,0.184-0.362,0.092c-0.362-0.092-0.604-0.32-0.604-0.412C24.173,30.078,24.415,30.078,24.777,30.214L24.777,30.214
		L24.777,30.214z M24.777,30.627c0.182,0.092,0.362,0.092,0.362-0.092c0-0.137-0.181-0.229-0.362-0.321
		c-0.182,0-0.362,0-0.362,0.093C24.415,30.399,24.596,30.627,24.777,30.627"/>
	<path style="fill-rule:evenodd;clip-rule:evenodd;fill:#41528B;" d="M23.629,30.214c0-0.137-0.181-0.137-0.181,0
		c-0.242,0-0.242,0-0.242,0S23.448,30.214,23.629,30.214c0.182,0.093,0.363,0.321,0.363,0.413s0,0.184-0.182,0.184
		c0.182,0,0.182,0,0.182,0c0-0.092,0.181-0.092,0.181-0.184S23.992,30.307,23.629,30.214"/>
	<path style="fill-rule:evenodd;clip-rule:evenodd;fill:#455691;" d="M23.689,30.214c0.242,0,0.483,0.229,0.483,0.367
		s-0.242,0.229-0.483,0.138c-0.241,0-0.483-0.275-0.483-0.367C23.206,30.214,23.448,30.078,23.689,30.214L23.689,30.214"/>
	<path style="fill-rule:evenodd;clip-rule:evenodd;fill:#CEC3D4;" d="M23.811,30.169c0.182,0.091,0.362,0.274,0.362,0.366
		c0,0.184-0.181,0.275-0.362,0.184c-0.362-0.092-0.604-0.275-0.604-0.367C23.206,30.169,23.448,30.078,23.811,30.169L23.811,30.169
		L23.811,30.169z M23.811,30.627c0.182,0.092,0.362,0,0.362-0.092s-0.181-0.275-0.362-0.275c-0.182-0.091-0.362,0-0.362,0.092
		S23.629,30.627,23.811,30.627"/>
	<polygon style="fill-rule:evenodd;clip-rule:evenodd;fill:#455691;" points="11.604,24.805 11.604,25.676 11.301,25.539 
		11.301,25.401 11.301,25.539 11.301,25.539 10.999,25.539 10.999,25.401 10.999,25.263 10.817,25.263 10.636,25.125 10.636,24.208 
		11.604,24.805 11.604,24.805 11.604,24.805 	"/>
	<polygon style="fill-rule:evenodd;clip-rule:evenodd;fill:#4E63A6;" points="12.57,24.942 10.878,24.208 10.878,24.208 
		10.636,24.208 10.878,24.208 12.328,24.942 12.57,24.942 12.57,24.942 12.57,24.942 12.57,24.942 	"/>
	<path style="fill-rule:evenodd;clip-rule:evenodd;fill:#CEC3D4;" d="M12.328,24.713h0.243v0.138v0.733v0.092l-0.243-0.092
		l-0.483-0.138v0.138l0,0l0,0l-0.725-0.138l0,0l0,0v-0.137l-0.242-0.092l-0.242-0.138l0,0v-0.871l0,0h0.242L12.328,24.713
		L12.328,24.713L12.328,24.713L12.328,24.713z M12.328,25.584v-0.733l-1.45-0.504v0.733l0.242,0.138h0.241v0.092v0.137h0.484l0,0
		v-0.137v0.137L12.328,25.584L12.328,25.584z"/>
	<polygon style="fill-rule:evenodd;clip-rule:evenodd;fill:#455691;" points="9.669,23.337 9.669,24.208 9.367,24.071 9.367,24.071 
		9.367,24.071 9.367,24.071 9.065,24.071 9.065,23.934 9.065,23.934 9.065,23.934 8.702,23.658 8.702,22.741 9.669,23.337 
		9.669,23.337 9.669,23.337 	"/>
	<polygon style="fill-rule:evenodd;clip-rule:evenodd;fill:#4E63A6;" points="9.669,23.337 8.702,22.741 8.702,22.741 8.702,22.741 
		8.702,22.925 9.548,23.337 9.669,23.475 9.669,23.337 9.669,23.337 9.669,23.337 	"/>
	<path style="fill-rule:evenodd;clip-rule:evenodd;fill:#CEC3D4;" d="M9.548,23.246l0.121,0.138l0,0v0.825l0,0H9.548l-0.241-0.229
		v0.229l0,0l0,0l-0.302-0.229H8.883l0,0v-0.137L8.702,23.75l0,0v-0.137v-0.734v-0.138v0.138L9.548,23.246L9.548,23.246L9.548,23.246
		L9.548,23.246z M9.548,24.117v-0.733l-0.846-0.504v0.734l0.303,0.229l0,0l0,0v0.137h0.302l0,0l0,0l0,0L9.548,24.117L9.548,24.117z"
		/>
	<polygon style="fill-rule:evenodd;clip-rule:evenodd;fill:#495C9B;" points="3.868,30.352 4.352,30.078 37.71,44.657 37.287,44.75 
		3.868,30.352 3.868,30.352 3.868,30.352 	"/>
	<polygon style="fill-rule:evenodd;clip-rule:evenodd;fill:#FFFFFF;" points="37.71,44.704 37.71,47.683 3.868,32.965 3.868,30.078 
		37.71,44.704 37.71,44.704 37.71,44.704 	"/>
	<path style="fill-rule:evenodd;clip-rule:evenodd;fill:#2A3174;" d="M31.425,43.282h-0.241c-0.242,0-0.242,0.138-0.242,0.138h0.242
		c0.241,0.138,0.483,0.229,0.483,0.505v0.092c0,0,0-0.092,0.241-0.092c0,0,0,0,0-0.138S31.908,43.419,31.425,43.282"/>
	<polygon style="fill-rule:evenodd;clip-rule:evenodd;fill:#2F3D70;" points="29.311,42.548 29.008,42.64 29.008,43.053 
		29.611,43.19 29.611,43.237 30.156,43.282 30.397,43.237 30.397,43.237 30.941,43.282 30.941,43.237 30.941,42.824 29.311,42.548 
		29.311,42.548 	"/>
	<path style="fill-rule:evenodd;clip-rule:evenodd;fill:#2A3174;" d="M28.645,42.686c-0.181-0.138-0.181-0.138-0.362-0.138
		c0,0.138-0.241,0.138-0.241,0.138h0.241c0.362,0.138,0.544,0.367,0.544,0.504c0,0.092-0.182,0.092-0.182,0.092h0.182
		c0.182-0.092,0.182-0.092,0.182-0.229C29.008,42.916,28.826,42.686,28.645,42.686"/>
	<path style="fill-rule:evenodd;clip-rule:evenodd;fill:#2F3D70;" d="M28.464,42.548c0.362,0.138,0.544,0.367,0.544,0.505
		c0,0.137-0.182,0.229-0.544,0.137c-0.182-0.137-0.423-0.274-0.423-0.504C28.041,42.548,28.282,42.548,28.464,42.548L28.464,42.548"
		/>
	<path style="fill-rule:evenodd;clip-rule:evenodd;fill:#2A3174;" d="M28.645,41.815c-0.181,0-0.181,0-0.362,0l-0.241,0.138h0.241
		c0.362,0.138,0.544,0.229,0.544,0.504l-0.182,0.092c0,0,0.182,0,0.182-0.092c0.182,0,0.182,0,0.182-0.138
		S28.826,41.953,28.645,41.815"/>
	<path style="fill-rule:evenodd;clip-rule:evenodd;fill:#2F3D70;" d="M28.464,41.953c0.362,0.091,0.544,0.184,0.544,0.412
		c0,0.092-0.182,0.184-0.544,0.092c-0.182-0.092-0.423-0.183-0.423-0.413C28.041,41.953,28.282,41.815,28.464,41.953L28.464,41.953"
		/>
	<polygon style="fill-rule:evenodd;clip-rule:evenodd;fill:#2F3D70;" points="27.195,41.081 27.074,41.218 27.074,42.181 
		27.315,42.319 27.315,42.457 27.678,42.548 27.678,42.548 27.678,42.548 27.92,42.548 28.041,42.548 28.041,41.769 27.195,41.081 
		27.195,41.081 	"/>
	<path style="fill-rule:evenodd;clip-rule:evenodd;fill:#2A3174;" d="M25.744,41.218c-0.182-0.138-0.182-0.138-0.362-0.138
		c0,0.138,0,0.138-0.242,0.138c0.242,0,0.242,0,0.423,0c0.182,0.138,0.363,0.368,0.363,0.505c0,0.092,0,0.092-0.182,0.092
		c0.182,0,0.182,0,0.182,0c0.182-0.092,0.182-0.092,0.182-0.229C26.107,41.449,25.926,41.218,25.744,41.218"/>
	<path style="fill-rule:evenodd;clip-rule:evenodd;fill:#2F3D70;" d="M25.623,41.081c0.242,0.138,0.484,0.368,0.484,0.506
		c0,0.137-0.242,0.229-0.484,0.137c-0.241,0-0.483-0.274-0.483-0.367C25.14,41.081,25.382,41.081,25.623,41.081L25.623,41.081"/>
	<polygon style="fill-rule:evenodd;clip-rule:evenodd;fill:#2F3D70;" points="24.294,39.614 24.173,39.614 24.173,40.577 
		24.415,40.714 24.415,40.852 24.777,41.081 24.777,40.99 24.777,40.99 25.019,41.081 25.14,41.081 25.14,40.165 24.294,39.614 
		24.294,39.614 	"/>
	<polygon style="fill-rule:evenodd;clip-rule:evenodd;fill:#2F3D70;" points="21.272,38.88 21.272,39.018 21.272,39.843 
		21.574,39.981 21.574,40.255 21.876,40.348 21.998,40.255 21.998,40.255 22.118,40.348 22.239,40.348 22.239,39.43 21.272,38.88 
		21.272,38.88 	"/>
	<polygon style="fill-rule:evenodd;clip-rule:evenodd;fill:#2F3D70;" points="18.372,37.413 18.372,37.551 18.372,38.514 
		18.855,38.651 18.855,38.789 19.58,38.88 19.58,38.88 19.58,38.88 19.822,38.88 20.305,38.88 20.305,38.101 18.372,37.413 
		18.372,37.413 	"/>
	<path style="fill-rule:evenodd;clip-rule:evenodd;fill:#2A3174;" d="M18.009,37.551c0-0.139-0.182-0.139-0.182,0
		c-0.182,0-0.182,0-0.423,0c0.241,0,0.241,0,0.423,0c0.182,0.138,0.362,0.366,0.362,0.504c0,0.092,0,0.092,0,0.092s0,0,0.182,0
		c0,0,0-0.092,0-0.229S18.19,37.551,18.009,37.551"/>
	<path style="fill-rule:evenodd;clip-rule:evenodd;fill:#2F3D70;" d="M17.888,37.551c0.242,0.091,0.484,0.183,0.484,0.412
		c0,0.092-0.242,0.184-0.484,0.092c-0.242-0.092-0.483-0.184-0.483-0.413C17.405,37.551,17.646,37.413,17.888,37.551L17.888,37.551"
		/>
	<polygon style="fill-rule:evenodd;clip-rule:evenodd;fill:#2F3D70;" points="15.712,36.679 15.471,36.679 15.471,37.184 
		15.954,37.23 15.954,37.322 16.679,37.413 16.679,37.368 16.679,37.368 17.163,37.413 17.405,37.413 17.405,36.955 15.712,36.679 
		15.712,36.679 	"/>
	<path style="fill-rule:evenodd;clip-rule:evenodd;fill:#2F3D70;" d="M14.987,36.679c0.484,0.138,0.484,0.367,0.484,0.505
		s-0.241,0.229-0.484,0.138c-0.241,0-0.483-0.275-0.483-0.367C14.504,36.679,14.746,36.679,14.987,36.679L14.987,36.679"/>
	<path style="fill-rule:evenodd;clip-rule:evenodd;fill:#2A3174;" d="M14.927,35.946h-0.181c0,0.138-0.242,0.138-0.242,0.138h0.242
		c0.362,0.138,0.362,0.229,0.362,0.504v0.092c0,0,0.181,0,0.181-0.092c0,0,0.182,0,0.182-0.137
		C15.471,36.313,15.289,36.083,14.927,35.946"/>
	<path style="fill-rule:evenodd;clip-rule:evenodd;fill:#2F3D70;" d="M14.987,36.083c0.484,0.092,0.484,0.184,0.484,0.413
		c0,0.091-0.241,0.183-0.484,0.091c-0.241-0.091-0.483-0.183-0.483-0.412C14.504,36.083,14.746,35.946,14.987,36.083L14.987,36.083"
		/>
	<polygon style="fill-rule:evenodd;clip-rule:evenodd;fill:#2F3D70;" points="13.658,35.212 13.537,35.35 13.537,36.175 
		13.899,36.313 13.899,36.587 14.141,36.679 14.262,36.587 14.262,36.587 14.383,36.679 14.504,36.679 14.504,35.762 13.658,35.212 
		13.658,35.212 	"/>
	<polygon style="fill-rule:evenodd;clip-rule:evenodd;fill:#2F3D70;" points="10.636,33.746 10.636,33.883 10.636,34.846 
		10.938,34.983 10.938,35.121 11.24,35.212 11.361,35.212 11.361,35.212 11.604,35.212 11.604,35.212 11.604,34.433 10.636,33.746 
		10.636,33.746 	"/>
	<polygon style="fill-rule:evenodd;clip-rule:evenodd;fill:#2A3174;" points="37.71,41.402 38.678,41.081 38.678,44.336 
		37.71,44.75 37.71,41.402 37.71,41.402 37.71,41.402 	"/>
	<polygon style="fill-rule:evenodd;clip-rule:evenodd;fill:#495C9B;" points="3.868,26.547 4.411,26.409 38.678,41.586 
		38.073,41.815 3.868,26.547 3.868,26.547 3.868,26.547 	"/>
	<polygon style="fill-rule:evenodd;clip-rule:evenodd;fill:#FFFFFF;" points="37.71,41.769 37.71,44.75 3.868,29.527 3.868,26.409 
		37.71,41.769 37.71,41.769 37.71,41.769 	"/>
	<path style="fill-rule:evenodd;clip-rule:evenodd;fill:#2F3D70;" d="M31.546,40.486c0.181,0.091,0.362,0.183,0.362,0.412
		c0,0.092-0.182,0.183-0.362,0.092c-0.362-0.092-0.604-0.184-0.604-0.413C30.941,40.486,31.184,40.348,31.546,40.486L31.546,40.486"
		/>
	<path style="fill-rule:evenodd;clip-rule:evenodd;fill:#2A3174;" d="M31.546,39.614c-0.182,0-0.182,0-0.362,0h-0.242
		c0,0,0.242,0,0.423,0.138c0.182,0,0.362,0.229,0.362,0.366c0,0.138-0.181,0.138-0.181,0.23c0-0.093,0.181-0.093,0.181-0.093
		c0.182,0,0.182-0.138,0.182-0.138C31.908,39.889,31.727,39.751,31.546,39.614"/>
	<path style="fill-rule:evenodd;clip-rule:evenodd;fill:#2F3D70;" d="M31.546,39.751c0.181,0,0.362,0.229,0.362,0.366
		c0,0.23-0.182,0.23-0.362,0.23c-0.362-0.093-0.604-0.367-0.604-0.459C30.941,39.751,31.184,39.614,31.546,39.751L31.546,39.751"/>
	<polygon style="fill-rule:evenodd;clip-rule:evenodd;fill:#2F3D70;" points="29.249,38.88 29.008,39.018 29.008,39.843 
		29.491,39.981 29.491,40.118 30.216,40.348 30.216,40.348 30.216,40.255 30.7,40.348 30.941,40.348 30.941,39.43 29.249,38.88 
		29.249,38.88 	"/>
	<path style="fill-rule:evenodd;clip-rule:evenodd;fill:#2A3174;" d="M28.645,38.88c-0.181,0-0.181,0-0.362,0
		c0,0,0,0.138-0.241,0.138c0.241,0,0.241,0,0.423,0c0.181,0.137,0.362,0.229,0.362,0.505c0,0,0,0.091-0.182,0.091
		c0.182,0,0.182,0,0.182-0.091c0.182,0,0.182,0,0.182-0.138S28.826,39.018,28.645,38.88"/>
	<path style="fill-rule:evenodd;clip-rule:evenodd;fill:#2F3D70;" d="M28.524,39.018c0.241,0.092,0.483,0.184,0.483,0.412
		c0,0.093-0.242,0.184-0.483,0.093c-0.242-0.093-0.483-0.184-0.483-0.413C28.041,39.018,28.282,38.88,28.524,39.018L28.524,39.018"
		/>
	<polygon style="fill-rule:evenodd;clip-rule:evenodd;fill:#2F3D70;" points="27.195,37.413 27.074,37.413 27.074,38.33 
		27.315,38.605 27.315,38.743 27.678,38.88 27.678,38.88 27.678,38.743 27.92,38.88 28.041,38.88 28.041,37.872 27.195,37.413 
		27.195,37.413 	"/>
	<path style="fill-rule:evenodd;clip-rule:evenodd;fill:#2F3D70;" d="M25.623,37.551c0.242,0,0.484,0.229,0.484,0.366
		c0,0.229-0.242,0.229-0.484,0.229c-0.241-0.092-0.483-0.367-0.483-0.458C25.14,37.551,25.382,37.413,25.623,37.551L25.623,37.551"
		/>
	<polygon style="fill-rule:evenodd;clip-rule:evenodd;fill:#2F3D70;" points="24.173,36.679 24.173,36.679 24.173,37.642 
		24.475,37.78 24.475,38.055 24.777,38.147 24.777,38.055 24.777,38.055 25.019,38.147 25.14,38.055 25.14,37.23 24.173,36.679 
		24.173,36.679 	"/>
	<polygon style="fill-rule:evenodd;clip-rule:evenodd;fill:#2F3D70;" points="21.272,35.212 21.272,35.35 21.272,36.175 
		21.514,36.451 21.514,36.587 21.876,36.679 21.876,36.587 21.876,36.587 21.998,36.679 22.118,36.587 22.239,35.762 21.272,35.212 
		21.272,35.212 	"/>
	<polygon style="fill-rule:evenodd;clip-rule:evenodd;fill:#2F3D70;" points="18.613,34.479 18.372,34.479 18.372,34.938 
		18.855,35.075 18.855,35.167 19.58,35.212 19.58,35.212 19.58,35.167 20.063,35.212 20.305,35.212 20.305,34.708 18.613,34.479 
		18.613,34.479 	"/>
	<path style="fill-rule:evenodd;clip-rule:evenodd;fill:#2F3D70;" d="M17.888,34.617c0.484,0.092,0.484,0.183,0.484,0.412
		c0,0.092,0,0.184-0.484,0.092c-0.242-0.092-0.483-0.183-0.483-0.412C17.405,34.617,17.646,34.479,17.888,34.617L17.888,34.617"/>
	<path style="fill-rule:evenodd;clip-rule:evenodd;fill:#2A3174;" d="M18.009,33.746c-0.182,0-0.363,0-0.363,0s-0.241,0-0.241,0.138
		c0-0.138,0.241,0,0.241,0c0.363,0.137,0.363,0.229,0.363,0.504v0.092l0.181-0.092c0,0,0.182,0,0.182-0.138
		C18.372,34.113,18.19,33.883,18.009,33.746"/>
	<path style="fill-rule:evenodd;clip-rule:evenodd;fill:#2F3D70;" d="M17.888,33.883c0.484,0.137,0.484,0.229,0.484,0.504
		c0,0.092,0,0.092-0.484,0.092c-0.242-0.092-0.483-0.366-0.483-0.459C17.405,33.883,17.646,33.746,17.888,33.883L17.888,33.883"/>
	<polygon style="fill-rule:evenodd;clip-rule:evenodd;fill:#2F3D70;" points="15.712,33.012 15.471,33.012 15.471,33.975 
		16.196,34.113 16.196,34.387 16.679,34.479 16.921,34.387 16.921,34.387 17.163,34.479 17.405,34.387 17.405,33.562 15.712,33.012 
		15.712,33.012 	"/>
	<path style="fill-rule:evenodd;clip-rule:evenodd;fill:#2A3174;" d="M15.108,33.15c-0.181-0.138-0.181-0.138-0.362-0.138
		c0,0.138,0,0.138-0.242,0.138c0.242,0,0.242,0,0.423,0c0.181,0.137,0.362,0.229,0.362,0.504c0,0.092,0,0.092-0.181,0.092
		c0.181,0,0.181,0,0.181,0c0.182-0.092,0.182-0.092,0.182-0.229S15.289,33.15,15.108,33.15"/>
	<path style="fill-rule:evenodd;clip-rule:evenodd;fill:#2F3D70;" d="M14.987,33.15c0.243,0.091,0.484,0.183,0.484,0.412
		c0,0.092-0.241,0.184-0.484,0.092c-0.483-0.092-0.483-0.184-0.483-0.413C14.504,33.15,14.504,33.012,14.987,33.15L14.987,33.15"/>
	<polygon style="fill-rule:evenodd;clip-rule:evenodd;fill:#2F3D70;" points="13.658,31.544 13.537,31.682 13.537,32.507 
		13.899,32.783 13.899,32.92 14.141,33.012 14.262,32.92 14.262,32.92 14.504,33.012 14.504,32.92 14.504,32.095 13.658,31.544 
		13.658,31.544 	"/>
	<polygon style="fill-rule:evenodd;clip-rule:evenodd;fill:#2F3D70;" points="10.817,30.811 10.636,30.903 10.636,31.362 
		10.938,31.453 10.938,31.499 11.24,31.544 11.361,31.544 11.361,31.544 11.604,31.544 11.604,31.544 11.604,31.177 10.817,30.811 
		10.817,30.811 	"/>
	<polygon style="fill-rule:evenodd;clip-rule:evenodd;fill:#2F3D70;" points="35.896,49.151 35.776,49.151 35.776,50.068 
		36.139,50.206 36.139,50.48 36.381,50.618 36.501,50.618 36.501,50.48 36.622,50.618 36.743,50.618 36.743,49.609 35.896,49.151 
		35.896,49.151 	"/>
	<polygon style="fill-rule:evenodd;clip-rule:evenodd;fill:#2F3D70;" points="36.501,48.692 36.501,48.555 36.139,48.417 
		36.139,48.555 36.139,48.555 35.896,48.417 35.776,48.555 35.776,49.38 36.743,49.884 36.743,49.792 36.743,48.967 36.501,48.692 
		36.501,48.692 	"/>
	<polygon style="fill-rule:evenodd;clip-rule:evenodd;fill:#2F3D70;" points="34.93,48.417 34.81,48.417 34.81,49.243 
		35.052,49.518 35.052,49.655 35.414,49.884 35.414,49.792 35.414,49.655 35.655,49.884 35.776,49.792 35.776,48.83 34.93,48.417 
		34.93,48.417 	"/>
	<polygon style="fill-rule:evenodd;clip-rule:evenodd;fill:#2F3D70;" points="35.414,48.096 35.414,47.821 35.172,47.683 
		35.052,47.821 35.052,47.821 34.93,47.683 34.81,47.821 34.81,48.646 35.655,49.151 35.776,49.151 35.776,48.234 35.414,48.096 
		35.414,48.096 	"/>
	<polygon style="fill-rule:evenodd;clip-rule:evenodd;fill:#2F3D70;" points="33.178,48.417 32.875,48.417 32.875,48.921 
		33.48,48.967 33.48,49.059 34.023,49.151 34.266,49.105 34.266,49.105 34.81,49.151 34.81,49.105 34.81,48.646 33.178,48.417 
		33.178,48.417 	"/>
	<polygon style="fill-rule:evenodd;clip-rule:evenodd;fill:#2F3D70;" points="34.266,47.363 34.266,47.225 33.722,46.951 
		33.48,47.088 33.48,47.088 33.178,46.951 32.875,47.088 32.875,47.914 34.81,48.417 34.81,48.417 34.81,47.5 34.266,47.363 
		34.266,47.363 	"/>
	<polygon style="fill-rule:evenodd;clip-rule:evenodd;fill:#2F3D70;" points="31.908,47.683 31.908,47.821 31.908,48.646 
		32.09,48.784 32.09,48.921 32.513,49.151 32.513,49.059 32.513,49.059 32.755,49.151 32.875,49.059 32.875,48.234 31.908,47.683 
		31.908,47.683 	"/>
	<polygon style="fill-rule:evenodd;clip-rule:evenodd;fill:#2F3D70;" points="32.513,46.538 32.513,46.4 32.332,46.216 
		32.211,46.216 32.211,46.216 31.908,46.216 31.908,46.216 31.908,47.133 32.755,47.683 32.875,47.683 32.875,46.675 32.513,46.538 
		32.513,46.538 	"/>
	<polygon style="fill-rule:evenodd;clip-rule:evenodd;fill:#2F3D70;" points="31.123,46.951 30.941,47.088 30.941,47.914 
		31.364,48.188 31.364,48.326 31.546,48.417 31.788,48.326 31.788,48.326 31.908,48.417 31.908,48.326 31.908,47.5 31.123,46.951 
		31.123,46.951 	"/>
	<polygon style="fill-rule:evenodd;clip-rule:evenodd;fill:#2F3D70;" points="31.788,46.354 31.788,46.308 31.364,46.216 
		31.364,46.216 31.364,46.308 31.123,46.216 30.941,46.216 30.941,46.629 31.908,46.951 31.908,46.904 31.908,46.446 31.788,46.354 
		31.788,46.354 	"/>
	<polygon style="fill-rule:evenodd;clip-rule:evenodd;fill:#2F3D70;" points="29.008,46.216 29.008,46.354 29.008,47.179 
		29.491,47.455 29.491,47.592 30.216,47.683 30.216,47.683 30.216,47.592 30.458,47.683 30.7,47.683 30.941,46.767 29.008,46.216 
		29.008,46.216 	"/>
	<polygon style="fill-rule:evenodd;clip-rule:evenodd;fill:#2F3D70;" points="30.216,45.757 30.216,45.62 29.733,45.483 
		29.491,45.483 29.491,45.62 29.008,45.483 29.008,45.483 29.008,46.446 30.458,46.951 30.941,46.858 30.941,46.033 30.216,45.757 
		30.216,45.757 	"/>
	<polygon style="fill-rule:evenodd;clip-rule:evenodd;fill:#2F3D70;" points="28.162,45.483 28.041,45.62 28.041,46.446 
		28.403,46.72 28.403,46.858 28.645,46.951 28.766,46.951 28.766,46.858 28.887,46.951 29.008,46.951 29.008,46.17 28.162,45.483 
		28.162,45.483 	"/>
	<polygon style="fill-rule:evenodd;clip-rule:evenodd;fill:#2F3D70;" points="28.766,45.025 28.766,44.887 28.403,44.75 
		28.403,44.887 28.403,44.887 28.162,44.75 28.041,44.887 28.041,45.712 28.887,46.216 29.008,46.125 29.008,45.299 28.766,45.025 
		28.766,45.025 	"/>
	<polygon style="fill-rule:evenodd;clip-rule:evenodd;fill:#2F3D70;" points="26.349,45.483 26.107,45.483 26.107,45.895 
		26.59,46.033 26.59,46.125 27.315,46.216 27.315,46.17 27.315,46.125 27.799,46.216 28.041,46.17 28.041,45.712 26.349,45.483 
		26.349,45.483 	"/>
	<polygon style="fill-rule:evenodd;clip-rule:evenodd;fill:#2F3D70;" points="27.315,44.428 27.315,44.153 26.832,44.016 
		26.59,44.153 26.59,44.153 26.349,44.016 26.107,44.153 26.107,44.978 27.799,45.483 28.041,45.391 28.041,44.566 27.315,44.428 
		27.315,44.428 	"/>
	<polygon style="fill-rule:evenodd;clip-rule:evenodd;fill:#2F3D70;" points="24.415,44.016 24.173,44.153 24.173,44.978 
		24.898,45.116 24.898,45.391 25.382,45.483 25.623,45.391 25.623,45.391 26.107,45.483 26.107,45.391 26.107,44.566 24.415,44.016 
		24.415,44.016 	"/>
	<polygon style="fill-rule:evenodd;clip-rule:evenodd;fill:#2F3D70;" points="25.623,43.603 25.623,43.465 24.898,43.282 
		24.898,43.282 24.898,43.465 24.415,43.282 24.173,43.282 24.173,44.336 26.107,44.75 26.107,44.75 26.107,43.878 25.623,43.603 
		25.623,43.603 	"/>
	<polygon style="fill-rule:evenodd;clip-rule:evenodd;fill:#2F3D70;" points="23.327,44.016 23.206,44.107 23.206,44.52 
		23.448,44.657 23.448,44.704 23.811,44.75 23.811,44.704 23.811,44.704 24.052,44.75 24.173,44.704 24.173,44.291 23.327,44.016 
		23.327,44.016 	"/>
	<polygon style="fill-rule:evenodd;clip-rule:evenodd;fill:#2F3D70;" points="23.811,42.824 23.811,42.686 23.569,42.548 
		23.569,42.548 23.569,42.686 23.327,42.548 23.206,42.548 23.206,43.511 24.052,44.016 24.173,43.924 24.173,43.099 23.811,42.824 
		23.811,42.824 	"/>
	<polygon style="fill-rule:evenodd;clip-rule:evenodd;fill:#2F3D70;" points="22.42,43.282 22.239,43.419 22.239,44.382 
		22.541,44.52 22.541,44.657 22.844,44.75 22.964,44.75 22.964,44.657 23.206,44.75 23.206,44.75 23.206,43.969 22.42,43.282 
		22.42,43.282 	"/>
	<polygon style="fill-rule:evenodd;clip-rule:evenodd;fill:#2F3D70;" points="22.964,42.09 22.964,41.953 22.662,41.815 
		22.541,41.815 22.541,41.953 22.42,41.815 22.239,41.815 22.239,42.778 23.206,43.282 23.206,43.19 23.206,42.365 22.964,42.09 
		22.964,42.09 	"/>
	<polygon style="fill-rule:evenodd;clip-rule:evenodd;fill:#2F3D70;" points="20.547,42.548 20.305,42.686 20.305,43.649 
		21.031,43.787 21.031,43.924 21.514,44.016 21.756,44.016 21.756,44.016 21.998,44.016 22.239,44.016 22.239,43.237 20.547,42.548 
		20.547,42.548 	"/>
	<polygon style="fill-rule:evenodd;clip-rule:evenodd;fill:#2F3D70;" points="21.756,41.953 21.756,41.953 21.031,41.815 
		21.031,41.906 21.031,41.906 20.547,41.815 20.305,41.906 20.305,42.319 21.998,42.548 22.239,42.502 22.239,42.09 21.756,41.953 
		21.756,41.953 	"/>
	<polygon style="fill-rule:evenodd;clip-rule:evenodd;fill:#2F3D70;" points="19.459,41.815 19.338,41.815 19.338,42.778 
		19.58,42.916 19.58,43.053 19.943,43.282 19.943,43.19 19.943,43.19 20.185,43.282 20.305,43.19 20.305,42.365 19.459,41.815 
		19.459,41.815 	"/>
	<polygon style="fill-rule:evenodd;clip-rule:evenodd;fill:#2F3D70;" points="19.943,41.494 19.943,41.356 19.701,41.081 
		19.58,41.218 19.58,41.218 19.459,41.081 19.338,41.218 19.338,42.043 20.185,42.548 20.305,42.457 20.305,41.631 19.943,41.494 
		19.943,41.494 	"/>
	<polygon style="fill-rule:evenodd;clip-rule:evenodd;fill:#2F3D70;" points="18.553,41.081 18.372,41.081 18.372,42.043 
		18.674,42.181 18.674,42.319 18.976,42.548 19.097,42.457 19.097,42.457 19.338,42.548 19.338,42.457 19.338,41.631 18.553,41.081 
		18.553,41.081 	"/>
	<polygon style="fill-rule:evenodd;clip-rule:evenodd;fill:#2F3D70;" points="19.097,40.76 19.097,40.624 18.794,40.348 
		18.674,40.486 18.674,40.624 18.553,40.348 18.372,40.486 18.372,41.449 19.338,41.815 19.338,41.815 19.338,41.036 19.097,40.76 
		19.097,40.76 	"/>
	<polygon style="fill-rule:evenodd;clip-rule:evenodd;fill:#2F3D70;" points="16.438,41.081 16.438,41.173 16.438,41.586 
		16.619,41.631 16.619,41.769 17.042,41.815 17.042,41.769 17.042,41.769 17.284,41.815 17.405,41.769 17.405,41.356 16.438,41.081 
		16.438,41.081 	"/>
	<polygon style="fill-rule:evenodd;clip-rule:evenodd;fill:#2F3D70;" points="17.042,40.165 17.042,39.889 16.861,39.614 
		16.619,39.751 16.619,39.889 16.438,39.614 16.438,39.751 16.438,40.714 17.284,41.081 17.405,41.081 17.405,40.302 17.042,40.165 
		17.042,40.165 	"/>
	<polygon style="fill-rule:evenodd;clip-rule:evenodd;fill:#2F3D70;" points="15.652,40.348 15.471,40.486 15.471,41.311 
		15.773,41.586 15.773,41.723 16.075,41.815 16.196,41.723 16.196,41.723 16.438,41.815 16.438,41.723 16.438,40.898 15.652,40.348 
		15.652,40.348 	"/>
	<polygon style="fill-rule:evenodd;clip-rule:evenodd;fill:#2F3D70;" points="16.196,39.292 16.196,39.018 15.894,38.88 
		15.894,38.88 15.894,39.018 15.652,38.88 15.471,38.88 15.471,39.843 16.438,40.348 16.438,40.348 16.438,39.43 16.196,39.292 
		16.196,39.292 	"/>
	<polygon style="fill-rule:evenodd;clip-rule:evenodd;fill:#2F3D70;" points="13.537,39.614 13.537,39.706 13.537,40.165 
		13.718,40.255 13.718,40.302 14.141,40.348 14.262,40.348 14.262,40.348 14.383,40.348 14.504,40.348 14.504,39.981 13.537,39.614 
		13.537,39.614 	"/>
	<polygon style="fill-rule:evenodd;clip-rule:evenodd;fill:#2F3D70;" points="14.262,38.56 14.262,38.422 13.96,38.147 
		13.718,38.285 13.718,38.285 13.537,38.147 13.537,38.285 13.537,39.11 14.383,39.614 14.504,39.614 14.504,38.696 14.262,38.56 
		14.262,38.56 	"/>
	<polygon style="fill-rule:evenodd;clip-rule:evenodd;fill:#2F3D70;" points="11.905,38.88 11.604,38.88 11.604,39.843 
		12.449,39.981 12.449,40.118 12.751,40.348 12.993,40.255 12.993,40.255 13.537,40.348 13.537,40.348 13.537,39.43 11.905,38.88 
		11.905,38.88 	"/>
	<polygon style="fill-rule:evenodd;clip-rule:evenodd;fill:#2F3D70;" points="12.993,37.826 12.993,37.689 12.449,37.551 
		12.449,37.551 12.449,37.551 11.905,37.413 11.604,37.551 11.604,38.375 13.537,38.88 13.537,38.88 13.537,37.963 12.993,37.826 
		12.993,37.826 	"/>
	<polygon style="fill-rule:evenodd;clip-rule:evenodd;fill:#2F3D70;" points="10.636,38.147 10.636,38.147 10.636,39.11 
		10.938,39.248 10.938,39.385 11.24,39.614 11.361,39.523 11.361,39.523 11.482,39.614 11.604,39.614 11.604,38.696 10.636,38.147 
		10.636,38.147 	"/>
	<polygon style="fill-rule:evenodd;clip-rule:evenodd;fill:#2F3D70;" points="11.361,37.642 11.361,37.551 11.059,37.505 
		10.938,37.505 10.938,37.551 10.636,37.413 10.636,37.505 10.636,37.963 11.482,38.147 11.604,38.147 11.604,37.78 11.361,37.642 
		11.361,37.642 	"/>
	<polygon style="fill-rule:evenodd;clip-rule:evenodd;fill:#2F3D70;" points="9.79,37.413 9.669,37.551 9.669,38.375 10.032,38.514 
		10.032,38.789 10.273,38.88 10.394,38.789 10.394,38.789 10.515,38.88 10.636,38.88 10.636,37.963 9.79,37.413 9.79,37.413 	"/>
	<polygon style="fill-rule:evenodd;clip-rule:evenodd;fill:#2F3D70;" points="10.394,37.23 10.394,36.955 10.032,36.817 
		10.032,36.817 10.032,36.955 9.79,36.679 9.669,36.817 9.669,37.78 10.515,38.147 10.636,38.147 10.636,37.368 10.394,37.23 
		10.394,37.23 	"/>
	<polygon style="fill-rule:evenodd;clip-rule:evenodd;fill:#2F3D70;" points="7.978,36.679 7.735,36.817 7.735,37.642 8.219,37.917 
		8.219,38.055 8.944,38.147 8.944,38.055 8.944,38.055 9.427,38.147 9.669,38.147 9.669,37.23 7.978,36.679 7.978,36.679 	"/>
	<polygon style="fill-rule:evenodd;clip-rule:evenodd;fill:#2F3D70;" points="8.944,36.359 8.944,36.083 8.46,35.946 8.219,35.946 
		8.219,36.083 7.978,35.946 7.735,35.946 7.735,36.909 9.427,37.413 9.669,37.413 9.669,36.497 8.944,36.359 8.944,36.359 	"/>
	<polygon style="fill-rule:evenodd;clip-rule:evenodd;fill:#2F3D70;" points="6.95,36.679 6.768,36.771 6.768,37.23 7.07,37.322 
		7.07,37.368 7.373,37.413 7.494,37.413 7.494,37.413 7.735,37.413 7.735,37.413 7.735,37.046 6.95,36.679 6.95,36.679 	"/>
	<polygon style="fill-rule:evenodd;clip-rule:evenodd;fill:#2F3D70;" points="7.494,35.625 7.494,35.488 7.191,35.212 7.07,35.212 
		7.07,35.35 6.95,35.212 6.768,35.212 6.768,36.175 7.735,36.679 7.735,36.679 7.735,35.762 7.494,35.625 7.494,35.625 	"/>
	<polygon style="fill-rule:evenodd;clip-rule:evenodd;fill:#2F3D70;" points="5.076,35.946 4.834,36.083 4.834,37.046 5.318,37.184 
		5.318,37.322 6.043,37.413 6.043,37.413 6.043,37.413 6.526,37.413 6.768,37.413 6.768,36.634 5.076,35.946 5.076,35.946 	"/>
	<polygon style="fill-rule:evenodd;clip-rule:evenodd;fill:#2F3D70;" points="6.043,34.891 6.043,34.753 5.56,34.617 5.56,34.617 
		5.56,34.617 5.076,34.479 4.834,34.617 4.834,35.442 6.526,35.946 6.768,35.946 6.768,35.029 6.043,34.891 6.043,34.891 	"/>
	<polygon style="fill-rule:evenodd;clip-rule:evenodd;fill:#2F3D70;" points="4.049,35.212 3.868,35.212 3.868,36.267 4.17,36.405 
		4.17,36.542 4.472,36.679 4.593,36.679 4.593,36.679 4.834,36.679 4.834,36.679 4.834,35.809 4.049,35.212 4.049,35.212 	"/>
	<polygon style="fill-rule:evenodd;clip-rule:evenodd;fill:#2F3D70;" points="4.593,34.708 4.593,34.617 4.291,34.571 4.17,34.571 
		4.17,34.571 4.049,34.479 3.868,34.571 3.868,34.983 4.834,35.212 4.834,35.212 4.834,34.753 4.593,34.708 4.593,34.708 	"/>
	<polygon style="fill-rule:evenodd;clip-rule:evenodd;fill:#495C9B;" points="38.678,48.646 39.16,48.417 40.611,48.967 
		40.066,49.151 38.678,48.646 38.678,48.646 38.678,48.646 	"/>
	<polygon style="fill-rule:evenodd;clip-rule:evenodd;fill:#FFFFFF;" points="39.644,49.059 39.644,52.084 38.678,51.49 
		38.678,48.417 39.644,49.059 39.644,49.059 39.644,49.059 	"/>
	<path style="fill-rule:evenodd;clip-rule:evenodd;fill:#2A3174;" d="M39.222,50.022c-0.062-0.138-0.243-0.138-0.363,0l0,0h-0.061
		c0,0.092-0.12,0.092-0.12,0.092c0.12-0.092,0.181,0,0.362,0c0.182,0.229,0.482,0.642,0.482,0.963c0,0.183-0.12,0.275-0.181,0.275
		c0.242-0.093,0.242-0.093,0.242-0.093c0-0.091,0.06-0.183,0.06-0.32C39.644,50.527,39.522,50.206,39.222,50.022"/>
	<path style="fill-rule:evenodd;clip-rule:evenodd;fill:#4E63A5;" d="M39.16,50.022c0.242,0.184,0.483,0.596,0.483,0.917
		c0,0.32-0.241,0.413-0.483,0.32c-0.241-0.183-0.482-0.642-0.482-0.916C38.678,50.022,38.919,49.884,39.16,50.022L39.16,50.022
		L39.16,50.022z M39.463,50.847c0-0.092,0-0.092,0-0.092c-0.303-0.138-0.303-0.138-0.303-0.138c0-0.274,0-0.274,0-0.274
		C39.1,50.206,39.1,50.206,39.1,50.206c0,0.321,0,0.321,0,0.321c-0.181-0.093-0.181-0.093-0.181-0.093c0,0.093,0,0.093,0,0.093
		c0.181,0.091,0.181,0.091,0.181,0.091c0,0.321,0,0.321,0,0.321c0.061,0.138,0.061,0.138,0.061,0.138c0-0.321,0-0.321,0-0.321
		C39.463,50.847,39.463,50.847,39.463,50.847"/>
	<polygon style="fill-rule:evenodd;clip-rule:evenodd;fill:#2A3174;" points="2.9,19.257 3.868,19.074 3.868,22.466 2.9,22.741 
		2.9,19.257 2.9,19.257 2.9,19.257 	"/>
	<polygon style="fill-rule:evenodd;clip-rule:evenodd;fill:#495C9B;" points="1.934,18.798 2.417,18.34 3.868,19.624 3.444,19.807 
		1.934,18.798 1.934,18.798 1.934,18.798 	"/>
	<polygon style="fill-rule:evenodd;clip-rule:evenodd;fill:#FFFFFF;" points="2.9,19.715 2.9,22.741 1.934,22.008 1.934,19.074 
		2.9,19.715 2.9,19.715 2.9,19.715 	"/>
	<path style="fill-rule:evenodd;clip-rule:evenodd;fill:#2A3174;" d="M2.478,20.632c-0.182-0.092-0.242-0.092-0.363,0l0,0
		c-0.06,0-0.06,0.045-0.06,0.045c-0.121,0-0.121,0-0.121,0c0.121,0,0.181,0,0.302,0.046c0.242,0.046,0.423,0.275,0.423,0.413
		c0,0.091,0,0.138-0.061,0.138c0.182-0.046,0.182-0.046,0.182-0.046c0.06,0,0.121-0.091,0.121-0.137
		C2.9,20.907,2.659,20.724,2.478,20.632"/>
	<path style="fill-rule:evenodd;clip-rule:evenodd;fill:#4E63A5;" d="M2.417,20.678C2.719,20.724,2.9,20.907,2.9,21.045
		s-0.181,0.229-0.483,0.138c-0.181-0.092-0.483-0.229-0.483-0.413C1.934,20.632,2.236,20.541,2.417,20.678L2.417,20.678
		L2.417,20.678z M2.719,21.045c0-0.092,0-0.092,0-0.092c-0.182-0.046-0.182-0.046-0.182-0.046c0-0.137,0-0.137,0-0.137
		c-0.121,0-0.121,0-0.121,0c0,0.092,0,0.092,0,0.092c-0.242-0.046-0.242-0.046-0.242-0.046c0,0.046,0,0.046,0,0.046
		c0.242,0.091,0.242,0.091,0.242,0.091c0,0.092,0,0.092,0,0.092c0.121,0.046,0.121,0.046,0.121,0.046c0-0.138,0-0.138,0-0.138
		C2.719,21.045,2.719,21.045,2.719,21.045"/>
	<polygon style="fill-rule:evenodd;clip-rule:evenodd;fill:#2A3174;" points="2.9,23.108 3.868,22.741 3.868,25.584 2.9,25.676 
		2.9,23.108 2.9,23.108 2.9,23.108 	"/>
	<polygon style="fill-rule:evenodd;clip-rule:evenodd;fill:#495C9B;" points="1.934,22.191 2.417,22.008 3.868,22.466 3.444,22.741 
		1.934,22.191 1.934,22.191 1.934,22.191 	"/>
	<polygon style="fill-rule:evenodd;clip-rule:evenodd;fill:#FFFFFF;" points="2.9,22.788 2.9,25.676 1.934,25.08 1.934,22.008 
		2.9,22.788 2.9,22.788 2.9,22.788 	"/>
	<path style="fill-rule:evenodd;clip-rule:evenodd;fill:#2A3174;" d="M2.417,23.475c-0.06,0-0.181,0-0.242,0c0,0,0,0-0.121,0
		c0,0.138,0,0.138,0,0.138c-0.121,0-0.121,0-0.121,0c0.121,0,0.242,0,0.302,0.091c0.302,0.092,0.483,0.504,0.483,0.825
		c0,0.229,0,0.321-0.06,0.413c0.181-0.183,0.181-0.183,0.181-0.183c0.061,0,0.061-0.092,0.061-0.321
		C2.9,24.117,2.719,23.704,2.417,23.475"/>
	<path style="fill-rule:evenodd;clip-rule:evenodd;fill:#4E63A5;" d="M2.417,23.704c0.302,0.092,0.483,0.459,0.483,0.78
		c0,0.367-0.181,0.458-0.483,0.275c-0.242-0.092-0.483-0.458-0.483-0.78C1.934,23.704,2.175,23.475,2.417,23.704L2.417,23.704
		L2.417,23.704z M2.719,24.484c0-0.184,0-0.184,0-0.184c-0.182-0.137-0.182-0.137-0.182-0.137c0-0.184,0-0.184,0-0.184
		c-0.121-0.091-0.121-0.091-0.121-0.091c0,0.183,0,0.183,0,0.183c-0.242-0.092-0.242-0.092-0.242-0.092c0,0.184,0,0.184,0,0.184
		C2.417,24.3,2.417,24.3,2.417,24.3c0,0.184,0,0.184,0,0.184c0.121,0.092,0.121,0.092,0.121,0.092c0-0.184,0-0.184,0-0.184
		C2.719,24.484,2.719,24.484,2.719,24.484"/>
	<polygon style="fill-rule:evenodd;clip-rule:evenodd;fill:#2A3174;" points="2.9,26.685 3.868,26.409 3.868,29.115 2.9,29.344 
		2.9,26.685 2.9,26.685 2.9,26.685 	"/>
	<polygon style="fill-rule:evenodd;clip-rule:evenodd;fill:#495C9B;" points="1.934,25.859 2.417,25.676 3.868,26.226 3.444,26.409 
		1.934,25.859 1.934,25.859 1.934,25.859 	"/>
	<polygon style="fill-rule:evenodd;clip-rule:evenodd;fill:#FFFFFF;" points="2.9,26.455 2.9,29.344 1.934,28.748 1.934,25.676 
		2.9,26.455 2.9,26.455 2.9,26.455 	"/>
	<path style="fill-rule:evenodd;clip-rule:evenodd;fill:#2A3174;" d="M2.417,27.235c-0.06-0.092-0.181-0.092-0.242,0
		c0,0,0,0-0.121,0l0,0C1.934,27.28,1.934,27.28,1.934,27.28c0.121-0.045,0.242-0.045,0.302,0c0.302,0.092,0.483,0.321,0.483,0.459
		c0,0.045,0,0.138-0.06,0.138c0.181-0.046,0.181-0.046,0.181-0.046C2.9,27.785,2.9,27.739,2.9,27.693
		C2.9,27.464,2.719,27.327,2.417,27.235"/>
	<path style="fill-rule:evenodd;clip-rule:evenodd;fill:#4E63A5;" d="M2.417,27.28C2.719,27.464,2.9,27.877,2.9,28.197
		c0,0.321-0.181,0.413-0.483,0.321c-0.242-0.183-0.483-0.641-0.483-0.917C1.934,27.28,2.175,27.143,2.417,27.28L2.417,27.28
		L2.417,27.28z M2.719,28.105c0-0.091,0-0.091,0-0.091c-0.182-0.137-0.182-0.137-0.182-0.137c0-0.275,0-0.275,0-0.275
		c-0.121-0.138-0.121-0.138-0.121-0.138c0,0.321,0,0.321,0,0.321c-0.242-0.092-0.242-0.092-0.242-0.092c0,0.092,0,0.092,0,0.092
		c0.242,0.092,0.242,0.092,0.242,0.092c0,0.32,0,0.32,0,0.32c0.121,0.138,0.121,0.138,0.121,0.138c0-0.321,0-0.321,0-0.321
		C2.719,28.105,2.719,28.105,2.719,28.105"/>
	<polygon style="fill-rule:evenodd;clip-rule:evenodd;fill:#2A3174;" points="3.142,29.527 3.868,29.344 3.868,32.599 2.9,33.012 
		3.142,29.527 3.142,29.527 3.142,29.527 	"/>
	<polygon style="fill-rule:evenodd;clip-rule:evenodd;fill:#495C9B;" points="1.934,29.068 2.417,28.61 3.868,29.894 3.444,30.078 
		1.934,29.068 1.934,29.068 1.934,29.068 	"/>
	<polygon style="fill-rule:evenodd;clip-rule:evenodd;fill:#FFFFFF;" points="2.9,29.986 2.84,33.012 1.934,32.278 1.934,29.344 
		2.9,29.986 2.9,29.986 2.9,29.986 	"/>
	<path style="fill-rule:evenodd;clip-rule:evenodd;fill:#2A3174;" d="M2.478,30.903c-0.061-0.092-0.182-0.092-0.242,0H2.114
		c0,0,0,0-0.06,0.045c0,0,0,0-0.121,0c0.121,0,0.302,0,0.362,0c0.302,0.093,0.484,0.321,0.484,0.459
		c0,0.092-0.121,0.138-0.121,0.138c0.181-0.046,0.181-0.046,0.181-0.046C2.9,31.453,2.9,31.407,2.9,31.362
		C2.9,31.177,2.78,30.995,2.478,30.903"/>
	<path style="fill-rule:evenodd;clip-rule:evenodd;fill:#4E63A5;" d="M2.417,30.903C2.719,30.995,2.9,31.177,2.9,31.315
		s-0.181,0.229-0.483,0.138c-0.242-0.091-0.483-0.229-0.483-0.412C1.934,30.903,2.175,30.811,2.417,30.903L2.417,30.903
		L2.417,30.903z M2.719,31.315c0-0.091,0-0.091,0-0.091c-0.182-0.047-0.182-0.047-0.182-0.047c0-0.137,0-0.137,0-0.137
		c-0.181,0-0.181,0-0.181,0c0,0.092,0,0.092,0,0.092c-0.182-0.046-0.182-0.046-0.182-0.046c0,0.046,0,0.046,0,0.046
		c0.182,0.092,0.182,0.092,0.182,0.092c0,0.091,0,0.091,0,0.091c0.181,0.047,0.181,0.047,0.181,0.047c0-0.138,0-0.138,0-0.138
		C2.719,31.315,2.719,31.315,2.719,31.315"/>
	<polygon style="fill-rule:evenodd;clip-rule:evenodd;fill:#2A3174;" points="2.9,33.378 3.868,33.012 3.868,35.854 2.9,35.946 
		2.9,33.378 2.9,33.378 2.9,33.378 	"/>
	<polygon style="fill-rule:evenodd;clip-rule:evenodd;fill:#495C9B;" points="1.934,32.461 2.417,32.278 3.868,32.737 3.324,33.012 
		1.934,32.461 1.934,32.461 1.934,32.461 	"/>
	<polygon style="fill-rule:evenodd;clip-rule:evenodd;fill:#FFFFFF;" points="2.9,33.058 2.9,35.946 1.934,35.35 1.934,32.278 
		2.9,33.058 2.9,33.058 2.9,33.058 	"/>
	<path style="fill-rule:evenodd;clip-rule:evenodd;fill:#2A3174;" d="M2.478,33.883c-0.061-0.138-0.182-0.138-0.242-0.138
		c0,0-0.122,0-0.122,0.138c0,0,0,0-0.06,0c0,0,0,0-0.121,0.092c0.121-0.092,0.302-0.092,0.362,0
		c0.302,0.229,0.484,0.504,0.484,0.963c0,0.091-0.121,0.183-0.121,0.274c0.181-0.184,0.181-0.184,0.181-0.184
		c0.061,0,0.061-0.091,0.061-0.32C2.9,34.387,2.78,33.975,2.478,33.883"/>
	<path style="fill-rule:evenodd;clip-rule:evenodd;fill:#4E63A5;" d="M2.417,33.975C2.719,34.158,2.9,34.433,2.9,34.846
		c0,0.274-0.181,0.366-0.483,0.183c-0.242-0.091-0.483-0.458-0.483-0.779C1.934,33.975,2.175,33.746,2.417,33.975L2.417,33.975
		L2.417,33.975z M2.719,34.753c0-0.092,0-0.092,0-0.092c-0.182-0.229-0.182-0.229-0.182-0.229c0-0.184,0-0.184,0-0.184
		c-0.181-0.092-0.181-0.092-0.181-0.092c0,0.275,0,0.275,0,0.275C2.175,34.25,2.175,34.25,2.175,34.25c0,0.184,0,0.184,0,0.184
		c0.182,0.138,0.182,0.138,0.182,0.138c0,0.275,0,0.275,0,0.275c0.181,0,0.181,0,0.181,0c0-0.185,0-0.185,0-0.185
		C2.719,34.753,2.719,34.753,2.719,34.753"/>
	<polygon style="fill-rule:evenodd;clip-rule:evenodd;fill:#495C9B;" points="38.678,45.208 39.16,44.75 40.611,45.804 
		40.066,46.216 38.678,45.208 38.678,45.208 38.678,45.208 	"/>
	<polygon style="fill-rule:evenodd;clip-rule:evenodd;fill:#FFFFFF;" points="39.644,46.125 39.644,49.151 38.678,48.417 
		38.678,45.483 39.644,46.125 39.644,46.125 39.644,46.125 	"/>
	<path style="fill-rule:evenodd;clip-rule:evenodd;fill:#2A3174;" d="M39.222,47.042c-0.062-0.091-0.243-0.091-0.363-0.091
		c0,0.091,0,0.091,0,0.091h-0.061l-0.12,0.047c0.12-0.047,0.181-0.047,0.362,0c0.182,0.091,0.482,0.32,0.482,0.457
		c0,0.047-0.12,0.093-0.181,0.138c0.242-0.045,0.242-0.045,0.242-0.045c0-0.046,0.06-0.093,0.06-0.184
		C39.644,47.271,39.522,47.088,39.222,47.042"/>
	<path style="fill-rule:evenodd;clip-rule:evenodd;fill:#4E63A5;" d="M39.16,47.042c0.242,0.092,0.483,0.275,0.483,0.459
		c0,0.138-0.241,0.183-0.483,0.138c-0.241-0.093-0.482-0.321-0.482-0.459S38.919,46.951,39.16,47.042L39.16,47.042L39.16,47.042z
		 M39.463,47.455c0-0.046,0-0.046,0-0.046c-0.303-0.138-0.303-0.138-0.303-0.138c0-0.092,0-0.092,0-0.092
		C39.1,47.133,39.1,47.133,39.1,47.133c0,0.138,0,0.138,0,0.138c-0.181-0.092-0.181-0.092-0.181-0.092c0,0.092,0,0.092,0,0.092
		c0.181,0.046,0.181,0.046,0.181,0.046c0,0.184,0,0.184,0,0.184c0.061,0,0.061,0,0.061,0c0-0.092,0-0.092,0-0.092
		C39.463,47.455,39.463,47.455,39.463,47.455"/>
	<polygon style="fill-rule:evenodd;clip-rule:evenodd;fill:#495C9B;" points="38.678,42.043 39.281,41.815 40.611,42.365 
		40.188,42.548 38.678,42.043 38.678,42.043 38.678,42.043 	"/>
	<polygon style="fill-rule:evenodd;clip-rule:evenodd;fill:#FFFFFF;" points="39.644,42.457 39.644,45.483 38.678,44.887 
		38.678,41.815 39.644,42.457 39.644,42.457 39.644,42.457 	"/>
	<path style="fill-rule:evenodd;clip-rule:evenodd;fill:#2A3174;" d="M39.16,43.375c-0.061,0-0.182-0.093-0.241,0c0,0,0,0-0.121,0
		v0.045c-0.12,0-0.12,0-0.12,0c0.12,0,0.241,0,0.301,0.046c0.303,0.046,0.484,0.275,0.484,0.413c0,0.091,0,0.138-0.061,0.138
		c0.182-0.047,0.182-0.047,0.182-0.047c0.06,0,0.06-0.045,0.06-0.138C39.644,43.649,39.463,43.465,39.16,43.375"/>
	<path style="fill-rule:evenodd;clip-rule:evenodd;fill:#4E63A5;" d="M39.16,43.511c0.303,0.092,0.483,0.458,0.483,0.779
		c0,0.275-0.181,0.459-0.483,0.275c-0.241-0.092-0.482-0.459-0.482-0.779C38.678,43.419,38.919,43.282,39.16,43.511L39.16,43.511
		L39.16,43.511z M39.463,44.291c0-0.184,0-0.184,0-0.184c-0.182-0.138-0.182-0.138-0.182-0.138c0-0.273,0-0.273,0-0.273
		c-0.121,0-0.121,0-0.121,0c0,0.183,0,0.183,0,0.183c-0.241-0.092-0.241-0.092-0.241-0.092c0,0.092,0,0.092,0,0.092
		c0.241,0.229,0.241,0.229,0.241,0.229c0,0.184,0,0.184,0,0.184c0.121,0.092,0.121,0.092,0.121,0.092c0-0.275,0-0.275,0-0.275
		C39.463,44.291,39.463,44.291,39.463,44.291"/>
	<polygon style="fill-rule:evenodd;clip-rule:evenodd;fill:#495C9B;" points="38.678,38.375 39.281,38.147 40.611,38.696 
		40.188,38.88 38.678,38.375 38.678,38.375 38.678,38.375 	"/>
	<polygon style="fill-rule:evenodd;clip-rule:evenodd;fill:#FFFFFF;" points="39.644,38.789 39.644,41.815 38.678,41.218 
		38.678,38.147 39.644,38.789 39.644,38.789 39.644,38.789 	"/>
	<path style="fill-rule:evenodd;clip-rule:evenodd;fill:#2A3174;" d="M39.16,39.751c-0.061-0.138-0.182-0.138-0.241,0
		c0,0,0,0-0.121,0c0,0,0,0,0,0.092c-0.12,0-0.12,0-0.12,0c0.12,0,0.241,0,0.301,0c0.303,0.229,0.484,0.643,0.484,0.963
		c0,0.184,0,0.274-0.061,0.274c0.182-0.091,0.182-0.091,0.182-0.091c0.06-0.092,0.06-0.184,0.06-0.321
		C39.644,40.348,39.463,39.935,39.16,39.751"/>
	<path style="fill-rule:evenodd;clip-rule:evenodd;fill:#4E63A5;" d="M39.16,39.751c0.303,0.184,0.483,0.597,0.483,0.917
		c0,0.321-0.181,0.412-0.483,0.321c-0.241-0.184-0.482-0.642-0.482-0.917C38.678,39.751,38.919,39.614,39.16,39.751L39.16,39.751
		L39.16,39.751z M39.463,40.668c0-0.183,0-0.183,0-0.183c-0.182-0.138-0.182-0.138-0.182-0.138c0-0.275,0-0.275,0-0.275
		c-0.121-0.138-0.121-0.138-0.121-0.138c0,0.32,0,0.32,0,0.32c-0.241-0.091-0.241-0.091-0.241-0.091c0,0.091,0,0.091,0,0.091
		c0.241,0.23,0.241,0.23,0.241,0.23c0,0.183,0,0.183,0,0.183c0.121,0.138,0.121,0.138,0.121,0.138c0-0.32,0-0.32,0-0.32
		C39.463,40.668,39.463,40.668,39.463,40.668"/>
	<polygon style="fill-rule:evenodd;clip-rule:evenodd;fill:#495C9B;" points="38.678,34.938 39.281,34.479 40.611,35.534 
		40.188,35.946 38.678,34.938 38.678,34.938 38.678,34.938 	"/>
	<polygon style="fill-rule:evenodd;clip-rule:evenodd;fill:#FFFFFF;" points="39.644,35.854 39.644,38.88 38.678,38.147 
		38.678,35.212 39.644,35.854 39.644,35.854 39.644,35.854 	"/>
	<path style="fill-rule:evenodd;clip-rule:evenodd;fill:#2A3174;" d="M39.16,36.771c-0.061-0.092-0.182-0.092-0.241-0.092
		c0,0,0,0.092-0.121,0.092l0,0c-0.12,0-0.12,0-0.12,0.046c0.12-0.046,0.241-0.046,0.301,0c0.303,0.092,0.484,0.229,0.484,0.459
		c0,0.046,0,0.092-0.061,0.137c0.182-0.091,0.182-0.091,0.182-0.091c0.06,0,0.06-0.046,0.06-0.138
		C39.644,37,39.463,36.817,39.16,36.771"/>
	<path style="fill-rule:evenodd;clip-rule:evenodd;fill:#4E63A5;" d="M39.16,36.817c0.303,0.092,0.483,0.229,0.483,0.413
		c0,0.138-0.181,0.183-0.483,0.092c-0.241-0.046-0.482-0.229-0.482-0.367S38.919,36.679,39.16,36.817L39.16,36.817L39.16,36.817z
		 M39.463,37.184c0-0.046,0-0.046,0-0.046c-0.182-0.092-0.182-0.092-0.182-0.092c0-0.092,0-0.092,0-0.092
		c-0.121-0.046-0.121-0.046-0.121-0.046c0,0.138,0,0.138,0,0.138c-0.241-0.092-0.241-0.092-0.241-0.092c0,0.092,0,0.092,0,0.092
		c0.241,0.046,0.241,0.046,0.241,0.046c0,0.138,0,0.138,0,0.138c0.121,0,0.121,0,0.121,0c0-0.092,0-0.092,0-0.092
		C39.463,37.184,39.463,37.184,39.463,37.184"/>
	<polygon style="fill-rule:evenodd;clip-rule:evenodd;fill:#2A3174;" points="37.71,38.514 38.678,38.147 38.678,40.99 
		37.71,41.081 37.71,38.514 37.71,38.514 37.71,38.514 	"/>
	<polygon style="fill-rule:evenodd;clip-rule:evenodd;fill:#495C9B;" points="3.868,23.154 4.411,22.741 38.678,37.78 
		38.073,38.147 3.868,23.154 3.868,23.154 3.868,23.154 	"/>
	<polygon style="fill-rule:evenodd;clip-rule:evenodd;fill:#FFFFFF;" points="37.71,38.33 37.71,41.081 3.868,26.272 3.868,23.475 
		37.71,38.33 37.71,38.33 37.71,38.33 	"/>
	<path style="fill-rule:evenodd;clip-rule:evenodd;fill:#445692;" d="M34.81,38.422L34.81,38.422h-0.242l-0.302-0.184l0,0
		l-0.544-0.321l0,0l-0.847-0.138v0.138l0.605,0.321h0.241l0,0l0,0l1.088,0.321V38.422L34.81,38.422z M34.81,38.239v-0.138
		l-1.935-0.688v0.185L34.81,38.239L34.81,38.239z M34.81,38.88v-0.138l-1.935-0.504l0,0L34.81,38.88L34.81,38.88z"/>
	<path style="fill-rule:evenodd;clip-rule:evenodd;fill:#40518B;" d="M35.776,38.239l-3.626-1.56h-0.242l0,0v0.185v1.1l0,0v0.138
		l3.688,1.513h0.181l0,0v-0.138v-1.101l0,0V38.239L35.776,38.239L35.776,38.239z M35.596,39.476l-3.445-1.513V37l3.445,1.375V39.476
		L35.596,39.476L35.596,39.476z"/>
	<path style="fill-rule:evenodd;clip-rule:evenodd;fill:#445692;" d="M29.975,36.451L29.975,36.451l-0.121-0.092l-0.12-0.046v0.046
		l-0.303-0.138h-0.12l-0.303-0.092v0.092l0.303,0.138h0.12l0,0v-0.046L29.975,36.451L29.975,36.451L29.975,36.451z M29.975,36.313
		v-0.092l-0.967-0.275l0,0L29.975,36.313L29.975,36.313z M29.975,36.679v-0.045l-0.967-0.321v0.046L29.975,36.679L29.975,36.679z"/>
	<path style="fill-rule:evenodd;clip-rule:evenodd;fill:#40518B;" d="M31.908,36.451l-3.626-1.238h-0.241l0,0l0,0v1.009l0,0l0,0
		l3.867,1.191l0,0l0,0l0,0V36.451L31.908,36.451L31.908,36.451L31.908,36.451L31.908,36.451z M31.727,37.322l-3.444-1.101V35.35
		l3.444,1.192V37.322L31.727,37.322L31.727,37.322z"/>
	<path style="fill-rule:evenodd;clip-rule:evenodd;fill:#445692;" d="M24.656,33.836c-0.12-0.091-0.12-0.091-0.302-0.091
		c0,0.091,0,0.091-0.182,0.091l0,0l0,0l0,0c0,0,0,0.092,0,0.184c0,0.093,0.182,0.275,0.363,0.367c0.12,0.092,0.302,0.092,0.482,0
		h-0.181h0.181c0,0,0.121-0.092,0.121-0.184C25.14,34.113,24.838,33.928,24.656,33.836L24.656,33.836z M24.838,34.295
		c-0.182,0-0.182,0-0.182,0c-0.12-0.092-0.302-0.183-0.302-0.275l0.182-0.092l0,0c0.12,0.092,0.302,0.185,0.302,0.275V34.295
		L24.838,34.295z M24.354,33.836L24.354,33.836L24.354,33.836L24.354,33.836z M24.354,33.928L24.354,33.928v0.092V33.928
		L24.354,33.928z M24.536,34.295c0.12,0,0.12,0,0.12,0S24.656,34.295,24.536,34.295L24.536,34.295z M24.656,34.295L24.656,34.295
		L24.656,34.295L24.656,34.295z M25.019,34.295c0,0,0,0,0,0.092C25.019,34.295,25.019,34.295,25.019,34.295L25.019,34.295z"/>
	<path style="fill-rule:evenodd;clip-rule:evenodd;fill:#445692;" d="M27.074,35.075v-0.092l0,0l-0.303-0.137v0.045l-0.302-0.045
		l0,0l-0.362-0.093l0,0l0.181,0.138l0.182,0.092v-0.092v-0.045L27.074,35.075L27.074,35.075L27.074,35.075z M27.074,34.891v-0.045
		l-0.967-0.367v0.092L27.074,34.891L27.074,34.891z M27.074,35.212L27.074,35.212l-0.967-0.366v0.137L27.074,35.212L27.074,35.212z"
		/>
	<path style="fill-rule:evenodd;clip-rule:evenodd;fill:#40518B;" d="M28.041,35.029l-2.72-1.146l-0.182-0.138v0.138l0,0v0.825
		v0.091l0,0l2.901,1.146l0,0l0,0l0,0V35.029L28.041,35.029L28.041,35.029L28.041,35.029L28.041,35.029z M27.92,35.854l-2.599-1.146
		v-0.733l2.599,1.054V35.854L27.92,35.854L27.92,35.854z"/>
	<path style="fill-rule:evenodd;clip-rule:evenodd;fill:#445692;" d="M23.206,33.287L23.206,33.287L23.206,33.287l-0.121-0.321
		v0.138l-0.483-0.32l0,0l-0.363-0.138v0.138l0.363,0.183v0.138v-0.138l0,0l0.604,0.459V33.287L23.206,33.287z M23.206,32.965
		L23.206,32.965l-0.967-0.688v0.184L23.206,32.965L23.206,32.965z M23.206,33.746v-0.138l-0.967-0.643v0.138L23.206,33.746
		L23.206,33.746z"/>
	<path style="fill-rule:evenodd;clip-rule:evenodd;fill:#40518B;" d="M24.173,33.103l-2.901-1.559l0,0l0,0l0,0v1.284l0,0l0,0
		l2.78,1.65h0.121l0,0v-0.138v-1.101V33.103L24.173,33.103L24.173,33.103L24.173,33.103z M23.931,34.341l-2.659-1.513v-1.101
		l2.659,1.513V34.341L23.931,34.341L23.931,34.341z"/>
	<path style="fill-rule:evenodd;clip-rule:evenodd;fill:#445692;" d="M16.921,30.811c-0.121,0-0.121,0-0.302,0c0,0,0,0,0,0.092l0,0
		l0,0l0,0c-0.182,0-0.182,0-0.182,0.092c0,0.183,0.182,0.367,0.483,0.458c0.181,0.092,0.181,0,0.363,0c0,0,0,0-0.182,0
		c0.182,0,0.182,0,0.182,0c0.121,0,0.121-0.091,0.121-0.184C17.405,31.086,17.284,30.903,16.921,30.811L16.921,30.811z
		 M17.102,31.269h-0.181c-0.121,0-0.121-0.092-0.121-0.183c0-0.092,0-0.092,0-0.092s0,0,0.121,0
		C16.921,31.086,17.102,31.177,17.102,31.269L17.102,31.269L17.102,31.269z M16.619,30.811L16.619,30.811L16.619,30.811
		L16.619,30.811z M16.619,30.995L16.619,30.995c0,0,0,0,0,0.092C16.619,30.995,16.619,30.995,16.619,30.995L16.619,30.995z
		 M16.921,31.362L16.921,31.362L16.921,31.362L16.921,31.362z M16.921,31.362h0.181H16.921L16.921,31.362z M17.284,31.269
		c0,0.093,0,0.093,0,0.093S17.284,31.362,17.284,31.269L17.284,31.269z"/>
	<path style="fill-rule:evenodd;clip-rule:evenodd;fill:#445692;" d="M16.921,30.078c-0.121,0-0.121,0-0.302,0l0,0l0,0l0,0l0,0
		c-0.182,0.137-0.182,0.137-0.182,0.229c0,0.229,0.182,0.412,0.483,0.504c0.181,0,0.181,0,0.363-0.092c0,0.092,0,0.092-0.182,0.092
		c0.182,0,0.182,0,0.182-0.092c0.121,0,0.121,0,0.121-0.092C17.405,30.399,17.284,30.214,16.921,30.078L16.921,30.078z
		 M17.102,30.627h-0.181c-0.121-0.092-0.121-0.229-0.121-0.32l0,0c0,0,0,0,0.121,0c0,0,0.181,0.092,0.181,0.229
		C17.102,30.627,17.102,30.627,17.102,30.627L17.102,30.627z M16.619,30.078L16.619,30.078L16.619,30.078L16.619,30.078z
		 M16.619,30.307L16.619,30.307c0,0,0,0,0,0.092C16.619,30.307,16.619,30.307,16.619,30.307L16.619,30.307z M16.921,30.627
		c0,0,0,0,0,0.092C16.921,30.627,16.921,30.627,16.921,30.627L16.921,30.627z M16.921,30.627h0.181H16.921L16.921,30.627z
		 M17.284,30.627c0,0.092,0,0.092,0,0.092S17.284,30.719,17.284,30.627L17.284,30.627z"/>
	<path style="fill-rule:evenodd;clip-rule:evenodd;fill:#445692;" d="M19.338,31.866L19.338,31.866l-0.121-0.138l-0.121-0.184l0,0
		l-0.423-0.138l0,0l-0.302-0.138v0.138l0.302,0.138v0.184v-0.184l0,0L19.338,31.866L19.338,31.866L19.338,31.866z M19.338,31.544
		v-0.138l-0.967-0.596v0.184L19.338,31.544L19.338,31.544z M19.338,32.278v-0.275l-0.967-0.458l0,0L19.338,32.278L19.338,32.278z"/>
	<path style="fill-rule:evenodd;clip-rule:evenodd;fill:#40518B;" d="M20.305,31.544l-2.9-1.467l0,0l0,0v0.137v1.238l0,0l0,0
		l2.78,1.468l0.121,0.092V32.92l0,0v-1.238l0,0V31.544L20.305,31.544L20.305,31.544z M20.185,32.783l-2.78-1.33v-1.101l2.78,1.468
		V32.783L20.185,32.783L20.185,32.783z"/>
	<path style="fill-rule:evenodd;clip-rule:evenodd;fill:#445692;" d="M15.471,29.94v-0.092l-0.121-0.092l-0.121-0.046v0.046
		l-0.303-0.046l0,0l-0.423-0.183v0.091l0.302,0.138h0.121l0,0V29.71L15.471,29.94L15.471,29.94L15.471,29.94z M15.471,29.756V29.71
		l-0.967-0.367v0.092L15.471,29.756L15.471,29.756z M15.471,30.078v-0.046l-0.967-0.321v0.046L15.471,30.078L15.471,30.078z"/>
	<path style="fill-rule:evenodd;clip-rule:evenodd;fill:#40518B;" d="M16.438,29.802l-2.72-1.192h-0.181l0,0v0.137v0.825v0.092l0,0
		l2.78,1.055l0.121,0.092v-0.092l0,0v-0.825V29.802L16.438,29.802L16.438,29.802L16.438,29.802z M16.317,30.719l-2.599-1.146v-0.825
		l2.599,1.146V30.719L16.317,30.719L16.317,30.719z"/>
	<path style="fill-rule:evenodd;clip-rule:evenodd;fill:#445692;" d="M9.186,27.143c0,0-0.121,0-0.302,0l0,0l0,0l0,0l0,0
		c-0.182,0-0.182,0.138-0.182,0.229c0,0.229,0.182,0.413,0.484,0.505c0.182,0,0.182,0,0.362-0.092v0.092c0,0,0,0,0-0.092
		c0.121,0,0.121,0,0.121-0.092C9.669,27.464,9.548,27.28,9.186,27.143L9.186,27.143z M9.367,27.693c0,0,0,0-0.182,0
		c-0.121-0.091-0.121-0.229-0.121-0.321c0,0,0,0,0-0.092c0,0,0,0.092,0.121,0.092c0.182,0,0.182,0.092,0.182,0.229
		C9.367,27.693,9.367,27.693,9.367,27.693L9.367,27.693z M9.065,27.143L9.065,27.143L9.065,27.143L9.065,27.143z M9.065,27.372
		L9.065,27.372c-0.182,0-0.182,0-0.182,0.092C8.883,27.372,8.883,27.372,9.065,27.372L9.065,27.372z M9.186,27.693L9.186,27.693
		L9.186,27.693L9.186,27.693z M9.186,27.693c0.182,0,0.182,0,0.182,0S9.367,27.693,9.186,27.693L9.186,27.693z M9.548,27.693v0.092
		V27.693L9.548,27.693z"/>
	<path style="fill-rule:evenodd;clip-rule:evenodd;fill:#445692;" d="M11.604,28.473v-0.092h-0.122l-0.121-0.091v0.091l-0.302-0.138
		l0,0l-0.241-0.091h-0.182l0.423,0.229l0,0V28.29l0,0l0.545,0.275V28.473L11.604,28.473z M11.604,28.29L11.604,28.29l-0.786-0.413
		v0.091L11.604,28.29L11.604,28.29z M11.604,28.61L11.604,28.61l-0.786-0.321v0.091L11.604,28.61L11.604,28.61z"/>
	<path style="fill-rule:evenodd;clip-rule:evenodd;fill:#40518B;" d="M12.57,28.381l-2.72-1.238l0,0H9.669l0,0v1.009l0,0
		l0.181,0.091l2.72,1.101l0,0l0,0l0,0V28.381L12.57,28.381L12.57,28.381L12.57,28.381L12.57,28.381z M12.57,29.252l-2.72-1.1V27.28
		l2.72,1.101V29.252L12.57,29.252L12.57,29.252z"/>
	<path style="fill-rule:evenodd;clip-rule:evenodd;fill:#445692;" d="M7.735,26.685L7.735,26.685L7.735,26.685l-0.302-0.184l0,0
		l-0.301-0.137V26.18l-0.363-0.137v0.137l0.363,0.321v0.184v-0.184l0,0l0.604,0.321V26.685L7.735,26.685z M7.735,26.501v-0.137
		l-0.967-0.688v0.184L7.735,26.501L7.735,26.501z M7.735,27.143v-0.137l-0.967-0.504l0,0L7.735,27.143L7.735,27.143z"/>
	<path style="fill-rule:evenodd;clip-rule:evenodd;fill:#40518B;" d="M8.702,26.501l-2.719-1.559l0,0H5.801v0.184v1.101l0,0
		l0.182,0.138l2.719,1.513l0,0l0,0v-0.138v-1.101l0,0V26.501L8.702,26.501L8.702,26.501z M8.702,27.739l-2.719-1.513v-0.963
		l2.719,1.375V27.739L8.702,27.739L8.702,27.739z"/>
	<polygon style="fill-rule:evenodd;clip-rule:evenodd;fill:#2A3174;" points="42.546,37.322 43.512,36.679 43.392,60.43 
		42.546,60.888 42.546,37.322 42.546,37.322 42.546,37.322 	"/>
	<polygon style="fill-rule:evenodd;clip-rule:evenodd;fill:#455691;" points="39.644,36.267 40.793,35.946 43.512,36.909 
		42.423,37.413 39.644,36.267 39.644,36.267 39.644,36.267 	"/>
	<polygon style="fill-rule:evenodd;clip-rule:evenodd;fill:#37468B;" points="42.546,37.322 42.546,60.888 39.644,59.696 
		39.825,35.946 42.546,37.322 42.546,37.322 42.546,37.322 	"/>
	<polygon style="fill-rule:evenodd;clip-rule:evenodd;fill:#2A3174;" points="41.576,34.066 43.512,33.012 43.512,36.405 
		41.576,37.413 41.576,34.066 41.576,34.066 41.576,34.066 	"/>
	<polygon style="fill-rule:evenodd;clip-rule:evenodd;fill:#4F62A5;" points="0,16.506 2.296,15.405 43.512,33.516 41.276,34.479 
		0,16.506 0,16.506 0,16.506 	"/>
	<polygon style="fill-rule:evenodd;clip-rule:evenodd;fill:#37468B;" points="41.576,34.25 41.576,37.413 0,19.211 0,16.139 
		41.576,34.25 41.576,34.25 41.576,34.25 	"/>
</g>
</svg>