<?xml version="1.0" encoding="iso-8859-1"?>
<!DOCTYPE svg PUBLIC "-//W3C//DTD SVG 1.1//EN" "http://www.w3.org/Graphics/SVG/1.1/DTD/svg11.dtd">
<svg version="1.1" xmlns="http://www.w3.org/2000/svg" xmlns:xlink="http://www.w3.org/1999/xlink" width="55" height="40" viewBox="0 0 55 40">
<g>
	<polygon style="fill-rule:evenodd;clip-rule:evenodd;fill:#2A3174;" points="54.424,15.874 54.354,23.989 27.213,39.685 
		27.213,31.607 54.424,15.874 54.424,15.874 54.424,15.874 54.424,15.874 	"/>
	<polygon style="fill-rule:evenodd;clip-rule:evenodd;fill:#37468B;" points="27.213,31.607 27.213,39.685 0,23.989 0,15.874 
		27.213,31.607 27.213,31.607 27.213,31.607 27.213,31.607 	"/>
	<polygon style="fill-rule:evenodd;clip-rule:evenodd;fill:#4F62A5;" points="54.424,15.874 27.354,31.749 0,15.874 27.177,0 
		54.424,15.874 54.424,15.874 54.424,15.874 54.424,15.874 	"/>
	<path style="fill-rule:evenodd;clip-rule:evenodd;fill:#2A3174;" d="M31.784,22.216c2.02,1.135,2.02,1.135,2.02,1.135
		c-6.768,3.861-6.768,3.861-6.768,3.861c-6.768-3.861-6.768-3.861-6.768-3.861c2.02-1.135,2.02-1.135,2.02-1.135
		c3.118,1.772,3.118,1.772,3.118,1.772c-0.071-3.898-0.071-3.898-0.071-3.898c-1.275-0.177-2.516-0.567-3.508-1.134
		c-1.027-0.567-1.665-1.276-2.02-2.055c-6.732,0-6.732,0-6.732,0c3.118,1.807,3.118,1.807,3.118,1.807
		c-2.055,1.134-2.055,1.134-2.055,1.134C7.37,15.98,7.37,15.98,7.37,15.98c6.732-3.897,6.732-3.897,6.732-3.897
		c2.09,1.169,2.09,1.169,2.09,1.169c-3.118,1.772-3.118,1.772-3.118,1.772c6.626,0,6.626,0,6.626,0
		c0.248-0.851,0.957-1.63,2.126-2.303c1.169-0.673,2.658-1.099,4.217-1.205c0-3.721,0-3.721,0-3.721
		c-3.118,1.771-3.118,1.771-3.118,1.771c-2.02-1.134-2.02-1.134-2.02-1.134c6.768-3.897,6.768-3.897,6.768-3.897
		c6.839,3.897,6.839,3.897,6.839,3.897c-2.02,1.134-2.02,1.134-2.02,1.134c-3.119-1.771-3.119-1.771-3.119-1.771
		c0,1.063,0,2.587,0,3.827c1.24,0.213,2.41,0.567,3.367,1.099c0.957,0.567,1.664,1.275,1.984,1.949c6.66,0,6.66,0,6.66,0
		c-3.152-1.736-3.152-1.736-3.152-1.736c2.02-1.169,2.02-1.169,2.02-1.169c6.803,3.827,6.803,3.827,6.803,3.827
		c-6.732,3.897-6.732,3.897-6.732,3.897c-2.055-1.169-2.055-1.169-2.055-1.169c3.117-1.736,3.117-1.736,3.117-1.736
		c-1.842,0-4.322,0-6.447,0c-0.285,0.85-0.957,1.701-2.127,2.374c-1.205,0.673-2.621,1.027-4.109,1.205
		c0.035,3.827,0.035,3.827,0.035,3.827C31.784,22.216,31.784,22.216,31.784,22.216L31.784,22.216L31.784,22.216L31.784,22.216z
		 M24.484,17.433c1.559,0.886,4.11,0.957,5.633,0.071c1.559-0.921,1.559-2.374,0-3.26c-1.594-0.886-4.074-0.886-5.669,0
		C22.89,15.13,22.89,16.547,24.484,17.433"/>
	<path style="fill-rule:evenodd;clip-rule:evenodd;fill:#FFFFFF;" d="M31.784,21.65c2.02,1.134,2.02,1.134,2.02,1.134
		c-6.768,3.862-6.768,3.862-6.768,3.862c-6.768-3.862-6.768-3.862-6.768-3.862c2.02-1.134,2.02-1.134,2.02-1.134
		c3.118,1.771,3.118,1.771,3.118,1.771c-0.071-3.897-0.071-3.897-0.071-3.897c-1.275-0.177-2.516-0.567-3.508-1.134
		c-1.027-0.567-1.665-1.311-2.02-2.055c-6.732,0-6.732,0-6.732,0c3.118,1.807,3.118,1.807,3.118,1.807
		c-2.055,1.134-2.055,1.134-2.055,1.134C7.37,15.414,7.37,15.414,7.37,15.414c6.732-3.897,6.732-3.897,6.732-3.897
		c2.09,1.169,2.09,1.169,2.09,1.169c-3.118,1.772-3.118,1.772-3.118,1.772c6.626,0,6.626,0,6.626,0
		c0.248-0.851,0.957-1.63,2.126-2.303c1.169-0.673,2.658-1.099,4.217-1.205c0-3.721,0-3.721,0-3.721C22.925,9,22.925,9,22.925,9
		c-2.02-1.134-2.02-1.134-2.02-1.134c6.768-3.897,6.768-3.897,6.768-3.897c6.839,3.897,6.839,3.897,6.839,3.897
		C32.493,9,32.493,9,32.493,9c-3.119-1.771-3.119-1.771-3.119-1.771c0,1.063,0,2.586,0,3.827c1.24,0.213,2.41,0.567,3.367,1.099
		c0.957,0.567,1.664,1.275,1.984,1.949c6.66,0,6.66,0,6.66,0c-3.152-1.736-3.152-1.736-3.152-1.736
		c2.02-1.169,2.02-1.169,2.02-1.169c6.803,3.827,6.803,3.827,6.803,3.827c-6.732,3.897-6.732,3.897-6.732,3.897
		c-2.055-1.169-2.055-1.169-2.055-1.169c3.117-1.771,3.117-1.771,3.117-1.771c-1.842,0-4.322,0-6.447,0
		c-0.285,0.886-0.957,1.736-2.127,2.41c-1.205,0.673-2.621,1.027-4.109,1.205c0.035,3.827,0.035,3.827,0.035,3.827
		C31.784,21.65,31.784,21.65,31.784,21.65L31.784,21.65L31.784,21.65L31.784,21.65z M24.484,16.866c1.559,0.886,4.11,0.886,5.633,0
		c1.559-0.886,1.559-2.303,0-3.189c-1.594-0.886-4.074-0.886-5.669,0C22.89,14.563,22.89,15.98,24.484,16.866"/>
	<path style="fill-rule:evenodd;clip-rule:evenodd;fill:#FFFFFF;" d="M4.075,20.268c0.461,0.283,0.851,0.602,1.134,1.063
		c0.248,0.461,0.425,0.957,0.425,1.524c-1.027-0.603-1.027-0.603-1.027-0.603c0-0.178-0.071-0.284-0.106-0.461
		c-0.106-0.248-0.283-0.39-0.425-0.531c-0.283-0.143-0.425-0.106-0.531,0.07c-0.142,0.106-0.177,0.354-0.177,0.674
		c0,0.354,0.035,0.638,0.177,0.921c0.106,0.283,0.248,0.496,0.46,0.674c0.319,0.177,0.532,0.07,0.603-0.391
		c1.063,0.674,1.063,0.674,1.063,0.674c0,0.46-0.142,0.744-0.425,0.921c-0.319,0.142-0.708,0.142-1.169-0.177
		c-0.531-0.284-0.992-0.815-1.311-1.418c-0.319-0.566-0.496-1.204-0.496-1.807c0-0.709,0.177-1.134,0.496-1.311
		C3.083,19.843,3.543,19.914,4.075,20.268L4.075,20.268L4.075,20.268"/>
	<path style="fill-rule:evenodd;clip-rule:evenodd;fill:#FFFFFF;" d="M7.087,22.429c0.354,0.213,0.708,0.496,0.886,0.815
		c0.248,0.354,0.39,0.744,0.39,1.204c-0.851-0.566-0.851-0.566-0.851-0.566c0-0.142-0.071-0.248-0.177-0.39
		c-0.035-0.106-0.142-0.213-0.283-0.248c-0.177-0.178-0.354-0.106-0.354,0.035c0,0.106,0.106,0.248,0.319,0.461
		c0.177,0.212,0.425,0.354,0.638,0.566c0.248,0.248,0.46,0.496,0.567,0.709c0.212,0.283,0.283,0.603,0.283,0.886
		c0,0.461-0.142,0.709-0.425,0.744c-0.283,0-0.638-0.071-1.027-0.319c-0.284-0.177-0.567-0.425-0.815-0.708
		c-0.354-0.461-0.567-0.922-0.567-1.488c0.992,0.603,0.992,0.603,0.992,0.603c0,0.105,0,0.177,0,0.283
		c0.106,0.177,0.248,0.39,0.496,0.531s0.39,0.106,0.39-0.106c0-0.106-0.036-0.177-0.142-0.283c-0.071-0.106-0.248-0.248-0.532-0.567
		c-0.354-0.283-0.603-0.531-0.708-0.744c-0.248-0.318-0.39-0.602-0.39-0.956c0-0.426,0.142-0.674,0.461-0.709
		C6.414,22.111,6.697,22.216,7.087,22.429L7.087,22.429L7.087,22.429"/>
	<path style="fill-rule:evenodd;clip-rule:evenodd;fill:#FFFFFF;" d="M12.473,25.123c0,2.444,0,2.444,0,2.444
		c0,1.134-0.567,1.347-1.701,0.779c-1.098-0.602-1.701-1.487-1.701-2.586c0-2.516,0-2.516,0-2.516
		c1.169,0.602,1.169,0.602,1.169,0.602c0,2.232,0,2.232,0,2.232c0,0.284,0,0.496,0.071,0.674c0.036,0.283,0.212,0.425,0.46,0.603
		c0.284,0.105,0.39,0.105,0.496-0.071c0-0.106,0.071-0.319,0.071-0.603c0-2.232,0-2.232,0-2.232
		C12.473,25.123,12.473,25.123,12.473,25.123L12.473,25.123L12.473,25.123"/>
	<polygon style="fill-rule:evenodd;clip-rule:evenodd;fill:#FFFFFF;" points="14.74,26.504 13.323,30.047 12.473,29.551 
		13.925,26.079 14.74,26.504 14.74,26.504 14.74,26.504 14.74,26.504 	"/>
	<path style="fill-rule:evenodd;clip-rule:evenodd;fill:#FFFFFF;" d="M17.823,28.878c0.213,0.46,0.319,0.992,0.319,1.559
		c0,0.567-0.142,0.957-0.425,1.134c-0.319,0.178-0.78,0.106-1.382-0.212c-1.594-0.887-1.594-0.887-1.594-0.887
		c0.071-3.826,0.071-3.826,0.071-3.826c1.771,0.992,1.771,0.992,1.771,0.992C17.114,27.957,17.54,28.346,17.823,28.878
		L17.823,28.878L17.823,28.878L17.823,28.878z M16.299,30.331c0.531,0.284,0.779,0.106,0.779-0.531c0-0.213,0-0.39-0.142-0.603
		c-0.142-0.318-0.354-0.566-0.708-0.779c-0.39-0.142-0.39-0.142-0.39-0.142c0,1.843,0,1.843,0,1.843
		C16.299,30.331,16.299,30.331,16.299,30.331"/>
	<path style="fill-rule:evenodd;clip-rule:evenodd;fill:#FFFFFF;" d="M19.807,29.799c0.46,0.248,0.815,0.496,1.099,0.779
		c0.319,0.354,0.496,0.78,0.496,1.205c-1.063-0.531-1.063-0.531-1.063-0.531c0-0.106-0.071-0.248-0.177-0.354
		c-0.071-0.106-0.177-0.213-0.354-0.319c-0.284-0.07-0.425-0.07-0.425,0.071s0.142,0.283,0.354,0.425
		c0.248,0.213,0.531,0.426,0.779,0.603c0.284,0.248,0.567,0.461,0.709,0.674c0.212,0.283,0.319,0.602,0.319,0.886
		c0,0.46-0.142,0.708-0.567,0.744c-0.284,0.035-0.709-0.106-1.169-0.284c-0.354-0.212-0.708-0.46-0.992-0.744
		c-0.425-0.425-0.673-0.921-0.673-1.417c1.205,0.567,1.205,0.567,1.205,0.567c0,0.07,0,0.177,0,0.248
		c0.035,0.248,0.283,0.39,0.567,0.531c0.283,0.142,0.46,0.142,0.46-0.106c0-0.106-0.035-0.177-0.177-0.283
		c-0.035-0.071-0.283-0.248-0.638-0.496c-0.39-0.354-0.708-0.603-0.886-0.744c-0.212-0.319-0.39-0.674-0.39-0.957
		c0-0.39,0.177-0.638,0.46-0.709C19.028,29.481,19.382,29.586,19.807,29.799L19.807,29.799L19.807,29.799"/>
	<path style="fill-rule:evenodd;clip-rule:evenodd;fill:#FFFFFF;" d="M24.945,32.457c0,2.48,0,2.48,0,2.48
		c0,1.099-0.567,1.347-1.701,0.709c-1.099-0.603-1.701-1.453-1.701-2.516c0-2.516,0-2.516,0-2.516
		c1.169,0.673,1.169,0.673,1.169,0.673c0,2.161,0,2.161,0,2.161c0,0.319,0,0.532,0.071,0.638c0.035,0.284,0.212,0.426,0.46,0.603
		c0.284,0.106,0.39,0.106,0.496-0.07c0-0.106,0.071-0.248,0.071-0.603c0-2.126,0-2.126,0-2.126
		C24.945,32.457,24.945,32.457,24.945,32.457L24.945,32.457L24.945,32.457"/>
</g>
</svg>