<?xml version="1.0" encoding="iso-8859-1"?>
<!DOCTYPE svg PUBLIC "-//W3C//DTD SVG 1.1//EN" "http://www.w3.org/Graphics/SVG/1.1/DTD/svg11.dtd">
<svg version="1.1" xmlns="http://www.w3.org/2000/svg" xmlns:xlink="http://www.w3.org/1999/xlink" width="110" height="57" viewBox="0 0 110 57">
<g>
	<polygon style="fill-rule:evenodd;clip-rule:evenodd;fill:#2A3174;" points="56.637,45.943 109.228,23.688 109.228,33.312 
		56.637,55.52 56.637,45.943 56.637,45.943 56.637,45.943 	"/>
	<polygon style="fill-rule:evenodd;clip-rule:evenodd;fill:#4F62A5;" points="0,21.976 52.275,0 109.228,23.966 57.017,45.897 
		0,21.976 0,21.976 0,21.976 	"/>
	<polygon style="fill-rule:evenodd;clip-rule:evenodd;fill:#37468B;" points="56.637,45.851 56.637,55.52 0,31.184 0,21.468 
		56.637,45.851 56.637,45.851 56.637,45.851 	"/>
	<polygon style="fill-rule:evenodd;clip-rule:evenodd;fill:#40518B;" points="27.307,39.234 28.318,39.234 28.318,42.103 
		27.307,42.195 27.307,39.234 27.307,39.234 27.307,39.234 	"/>
	<polygon style="fill-rule:evenodd;clip-rule:evenodd;fill:#475996;" points="8.09,31.23 8.47,31.091 28.318,39.234 28.191,39.234 
		8.09,31.23 8.09,31.23 8.09,31.23 	"/>
	<polygon style="fill-rule:evenodd;clip-rule:evenodd;fill:#FFFFFF;" points="27.307,39.418 27.307,42.195 8.09,33.775 8.09,31.091 
		27.307,39.418 27.307,39.418 27.307,39.418 	"/>
	<polygon style="fill-rule:evenodd;clip-rule:evenodd;fill:#40518B;" points="27.307,34.932 28.318,34.792 28.318,37.753 
		27.307,37.753 27.307,34.932 27.307,34.932 27.307,34.932 	"/>
	<polygon style="fill-rule:evenodd;clip-rule:evenodd;fill:#475996;" points="8.09,26.65 8.28,26.65 28.318,34.7 28.191,34.792 
		8.09,26.65 8.09,26.65 8.09,26.65 	"/>
	<polygon style="fill-rule:evenodd;clip-rule:evenodd;fill:#FFFFFF;" points="27.307,35.117 27.307,37.753 8.09,29.425 8.09,26.65 
		27.307,35.117 27.307,35.117 27.307,35.117 	"/>
	<polygon style="fill-rule:evenodd;clip-rule:evenodd;fill:#475996;" points="29.33,39.975 29.519,39.975 48.545,48.117 
		48.419,48.117 29.33,39.975 29.33,39.975 29.33,39.975 	"/>
	<polygon style="fill-rule:evenodd;clip-rule:evenodd;fill:#FFFFFF;" points="48.545,48.349 48.545,51.079 29.33,42.75 
		29.519,39.975 48.545,48.349 48.545,48.349 48.545,48.349 	"/>
	<polygon style="fill-rule:evenodd;clip-rule:evenodd;fill:#475996;" points="29.33,35.671 29.519,35.533 48.545,43.583 
		48.419,43.675 29.33,35.671 29.33,35.671 29.33,35.671 	"/>
	<polygon style="fill-rule:evenodd;clip-rule:evenodd;fill:#FFFFFF;" points="48.545,44 48.545,46.636 29.33,38.216 29.33,35.533 
		48.545,44 48.545,44 48.545,44 	"/>
	<path style="fill-rule:evenodd;clip-rule:evenodd;fill:#2A3174;" d="M47.724,48.255c-0.189-0.046-0.506-0.139-0.633-0.046
		c-0.189,0.046-0.315,0.094-0.568,0.186c0.253-0.092,0.442-0.092,0.695,0.046c0.506,0.093,0.948,0.509,0.948,0.832
		c0,0.187-0.127,0.278-0.316,0.324c0.189-0.046,0.316-0.092,0.506-0.138c0.126-0.093,0.189-0.187,0.189-0.324
		C48.545,48.812,48.229,48.441,47.724,48.255"/>
	<path style="fill-rule:evenodd;clip-rule:evenodd;fill:#CEC3D4;" d="M47.535,48.95c0.568,0.093,1.011,0.277,1.011,0.417
		c0,0.185-0.442,0.23-1.011,0.185c-0.507-0.092-1.012-0.278-1.012-0.463C46.523,48.95,47.028,48.858,47.535,48.95L47.535,48.95"/>
	<path style="fill-rule:evenodd;clip-rule:evenodd;fill:#2A3174;" d="M8.659,31.923c-0.126-0.092-0.189-0.092-0.316,0
		c-0.063,0.046-0.189,0.094-0.253,0.094c0.064,0,0.253,0,0.38,0.092c0.253,0.185,0.379,0.556,0.379,0.926
		c0,0.093-0.063,0.23-0.063,0.277c0-0.047,0.127-0.093,0.19-0.185c0.126,0,0.126-0.093,0.126-0.278
		C9.102,32.526,8.913,32.109,8.659,31.923"/>
	<path style="fill-rule:evenodd;clip-rule:evenodd;fill:#CEC3D4;" d="M8.659,32.017c0.316,0.185,0.443,0.555,0.443,0.924
		c0,0.278-0.189,0.371-0.443,0.232C8.343,33.035,8.09,32.618,8.09,32.34C8.09,32.017,8.343,31.832,8.659,32.017L8.659,32.017"/>
	<polygon style="fill-rule:evenodd;clip-rule:evenodd;fill:#2A3174;" points="8.597,32.849 8.597,32.849 9.102,33.081 9.102,33.312 
		8.597,33.081 8.597,33.312 8.597,33.312 8.597,33.081 8.09,32.849 8.09,32.849 8.597,32.849 8.597,32.572 8.597,32.849 
		8.597,32.849 8.597,32.849 	"/>
	<path style="fill-rule:evenodd;clip-rule:evenodd;fill:#2A3174;" d="M8.723,27.482c-0.19-0.092-0.253-0.092-0.316,0
		c-0.126,0.046-0.19,0.046-0.316,0.093c0.126-0.047,0.253,0,0.38,0.093c0.253,0.185,0.442,0.555,0.442,0.832
		c0,0.186-0.063,0.324-0.127,0.37c0.063-0.046,0.127-0.092,0.253-0.185c0.063-0.046,0.063-0.186,0.063-0.277
		C9.102,28.038,8.913,27.667,8.723,27.482"/>
	<path style="fill-rule:evenodd;clip-rule:evenodd;fill:#CEC3D4;" d="M8.597,28.222c0.316,0.093,0.505,0.277,0.505,0.417
		c0,0.185-0.189,0.23-0.505,0.185C8.28,28.731,8.09,28.546,8.09,28.408C8.09,28.222,8.28,28.13,8.597,28.222L8.597,28.222"/>
	<polygon style="fill-rule:evenodd;clip-rule:evenodd;fill:#2A3174;" points="8.597,28.13 8.597,28.408 9.102,28.408 9.102,28.639 
		8.597,28.639 8.597,28.87 8.597,28.87 8.597,28.408 8.09,28.408 8.09,28.13 8.597,28.13 8.597,28.13 8.597,28.13 8.597,28.13 
		8.597,28.13 	"/>
	<path style="fill-rule:evenodd;clip-rule:evenodd;fill:#2A3174;" d="M26.927,40.021c-0.189-0.046-0.252-0.046-0.316,0
		c-0.126,0.046-0.189,0.046-0.315,0.046c0.126,0,0.252,0,0.379,0.046c0.252,0.093,0.442,0.277,0.442,0.417
		c0,0.092-0.063,0.185-0.126,0.185c0.063,0,0.126-0.046,0.253-0.093c0.063,0,0.063-0.092,0.063-0.138
		C27.307,40.297,27.117,40.113,26.927,40.021"/>
	<path style="fill-rule:evenodd;clip-rule:evenodd;fill:#CEC3D4;" d="M26.801,40.16c0.316,0.185,0.506,0.555,0.506,0.833
		c0,0.369-0.19,0.463-0.506,0.323c-0.316-0.139-0.505-0.556-0.505-0.832C26.296,40.113,26.485,39.975,26.801,40.16L26.801,40.16"/>
	<polygon style="fill-rule:evenodd;clip-rule:evenodd;fill:#2A3174;" points="26.991,39.975 26.991,40.251 27.307,40.484 
		27.307,40.714 26.991,40.484 26.991,40.714 26.675,40.714 26.675,40.484 26.296,40.251 26.296,40.251 26.675,40.251 26.675,39.975 
		26.991,39.975 26.991,39.975 26.991,39.975 	"/>
	<path style="fill-rule:evenodd;clip-rule:evenodd;fill:#2A3174;" d="M29.898,40.807c-0.126-0.093-0.19-0.093-0.316,0
		c-0.063,0.046-0.19,0.092-0.253,0.186c0.063-0.094,0.189-0.094,0.379,0c0.19,0.185,0.38,0.555,0.38,0.924
		c0,0.094-0.063,0.232-0.063,0.278c0-0.046,0.126-0.092,0.19-0.185c0.126,0,0.126-0.094,0.126-0.278
		C30.341,41.408,30.151,40.993,29.898,40.807"/>
	<path style="fill-rule:evenodd;clip-rule:evenodd;fill:#CEC3D4;" d="M29.393,40.899c0.506,0.186,0.949,0.557,0.949,0.926
		c0,0.278-0.443,0.37-0.949,0.278c-0.569-0.187-1.074-0.602-1.074-0.88C28.318,40.899,28.824,40.714,29.393,40.899L29.393,40.899"/>
	<path style="fill-rule:evenodd;clip-rule:evenodd;fill:#2A3174;" d="M47.598,43.814c-0.19-0.139-0.38-0.139-0.633-0.046
		c-0.063,0.046-0.316,0.092-0.442,0.186c0.126-0.094,0.379-0.094,0.695,0c0.38,0.185,0.821,0.602,0.821,0.926
		c0,0.185-0.126,0.23-0.189,0.276c0.063-0.046,0.316-0.046,0.379-0.092c0.253-0.093,0.316-0.185,0.316-0.371
		C48.545,44.369,48.167,43.954,47.598,43.814"/>
	<path style="fill-rule:evenodd;clip-rule:evenodd;fill:#CEC3D4;" d="M47.598,44.508c0.505,0.093,0.947,0.277,0.947,0.463
		c0,0.139-0.442,0.185-0.947,0.139c-0.57-0.093-1.075-0.278-1.075-0.463C46.523,44.508,47.028,44.417,47.598,44.508L47.598,44.508"
		/>
	<path style="fill-rule:evenodd;clip-rule:evenodd;fill:#2A3174;" d="M26.927,35.625c-0.126-0.093-0.252-0.093-0.316-0.093
		c-0.126,0.093-0.189,0.139-0.315,0.185c0.126-0.046,0.252-0.046,0.379,0.093c0.252,0.094,0.442,0.555,0.442,0.833
		c0,0.185-0.063,0.324-0.126,0.37c0.063-0.046,0.126-0.093,0.253-0.186c0.063-0.046,0.063-0.185,0.063-0.276
		C27.307,36.18,27.18,35.81,26.927,35.625"/>
	<path style="fill-rule:evenodd;clip-rule:evenodd;fill:#CEC3D4;" d="M26.801,35.717c0.316,0.139,0.506,0.556,0.506,0.834
		c0,0.369-0.19,0.462-0.506,0.322c-0.253-0.185-0.505-0.555-0.505-0.832C26.296,35.671,26.548,35.533,26.801,35.717L26.801,35.717"
		/>
	<path style="fill-rule:evenodd;clip-rule:evenodd;fill:#2A3174;" d="M29.898,36.365c-0.126-0.092-0.19-0.092-0.316,0
		c-0.063,0.048-0.19,0.048-0.253,0.094c0.063-0.046,0.189,0,0.379,0.093c0.19,0.185,0.38,0.555,0.38,0.832
		c0,0.186-0.063,0.324-0.063,0.37c0-0.046,0.126-0.093,0.19-0.185c0.126-0.047,0.126-0.094,0.126-0.278
		C30.341,36.92,30.151,36.551,29.898,36.365"/>
	<path style="fill-rule:evenodd;clip-rule:evenodd;fill:#CEC3D4;" d="M29.393,36.458c0.506,0.185,0.949,0.555,0.949,0.832
		c0,0.37-0.443,0.463-0.949,0.324c-0.569-0.14-1.074-0.555-1.074-0.833C28.318,36.413,28.824,36.273,29.393,36.458L29.393,36.458"/>
	<polygon style="fill-rule:evenodd;clip-rule:evenodd;fill:#2F3D70;" points="42.478,46.498 42.478,47.377 41.719,47.284 
		41.719,47.377 41.086,47.192 41.086,47.007 40.455,46.915 40.455,45.897 42.478,46.498 42.478,46.498 42.478,46.498 	"/>
	<polygon style="fill-rule:evenodd;clip-rule:evenodd;fill:#FFFFFF;" points="40.455,45.156 42.478,46.22 42.478,48.117 
		41.656,47.701 41.656,47.562 42.351,47.701 42.351,46.36 40.644,45.48 40.644,46.96 41.15,47.099 41.15,47.377 40.455,46.96 
		40.455,45.156 40.455,45.156 40.455,45.156 	"/>
	<polygon style="fill-rule:evenodd;clip-rule:evenodd;fill:#4B5E9E;" points="40.455,45.34 40.455,45.156 42.478,46.636 
		42.351,46.636 40.455,45.34 40.455,45.34 40.455,45.34 	"/>
	<polygon style="fill-rule:evenodd;clip-rule:evenodd;fill:#2F3D70;" points="39.443,45.017 39.443,45.897 38.811,45.711 
		38.811,45.897 38.117,45.711 38.117,45.527 37.42,45.34 37.42,44.417 39.443,45.017 39.443,45.017 39.443,45.017 	"/>
	<polygon style="fill-rule:evenodd;clip-rule:evenodd;fill:#FFFFFF;" points="37.61,44.417 39.443,45.249 39.443,46.636 
		38.685,46.406 38.685,46.173 39.19,46.406 39.19,45.388 37.737,44.693 37.737,45.711 38.243,45.943 38.243,46.173 37.42,45.943 
		37.61,44.417 37.61,44.417 37.61,44.417 	"/>
	<polygon style="fill-rule:evenodd;clip-rule:evenodd;fill:#4B5E9E;" points="37.42,43.86 37.61,43.675 39.443,44.971 
		39.317,45.156 37.42,43.86 37.42,43.86 37.42,43.86 	"/>
	<path style="fill-rule:evenodd;clip-rule:evenodd;fill:#4A5D9C;" d="M39.885,45.989c0.316,0.093,0.569,0.323,0.569,0.509
		c0,0.139-0.253,0.139-0.569,0.093c-0.126-0.093-0.442-0.278-0.442-0.417C39.443,45.989,39.759,45.897,39.885,45.989L39.885,45.989"
		/>
	<path style="fill-rule:evenodd;clip-rule:evenodd;fill:#2A3174;" d="M40.076,45.989c-0.127-0.092-0.253-0.092-0.379-0.092
		c0,0.092-0.127,0.092-0.254,0.185c0.127-0.093,0.254-0.093,0.254,0c0.252,0.046,0.505,0.185,0.505,0.37
		c0,0.046-0.126,0.139-0.126,0.185c0.126-0.046,0.126-0.046,0.252-0.139c0.127,0,0.127-0.046,0.127-0.138
		C40.455,46.22,40.328,46.082,40.076,45.989"/>
	<polygon style="fill-rule:evenodd;clip-rule:evenodd;fill:#2F3D70;" points="36.409,43.86 36.409,45.156 35.713,44.879 
		35.713,45.156 35.145,44.879 35.145,44.601 34.386,44.417 34.386,42.936 36.409,43.86 36.409,43.86 36.409,43.86 	"/>
	<polygon style="fill-rule:evenodd;clip-rule:evenodd;fill:#FFFFFF;" points="34.386,42.936 36.409,43.721 36.409,45.156 
		35.778,44.832 35.778,44.601 36.409,44.832 36.409,43.86 34.577,43.167 34.577,44.277 35.271,44.417 35.271,44.601 34.386,44.277 
		34.386,42.936 34.386,42.936 34.386,42.936 	"/>
	<polygon style="fill-rule:evenodd;clip-rule:evenodd;fill:#4B5E9E;" points="34.386,43.028 34.577,42.936 36.409,43.583 
		36.283,43.675 34.386,43.028 34.386,43.028 34.386,43.028 	"/>
	<path style="fill-rule:evenodd;clip-rule:evenodd;fill:#4A5D9C;" d="M37.042,44.508c0.126,0.139,0.379,0.277,0.379,0.463
		c0,0.139-0.253,0.185-0.379,0.139c-0.316-0.093-0.633-0.324-0.633-0.463S36.725,44.417,37.042,44.508L37.042,44.508"/>
	<path style="fill-rule:evenodd;clip-rule:evenodd;fill:#2A3174;" d="M37.042,44.508c-0.126,0-0.253-0.092-0.253,0
		c-0.127,0-0.253,0.093-0.38,0.093c0.127,0,0.253,0,0.38,0c0.127,0.046,0.379,0.278,0.379,0.416c0,0.093,0,0.139-0.126,0.139
		c0.126,0,0.126-0.046,0.253-0.046c0.126-0.093,0.126-0.093,0.126-0.139C37.42,44.786,37.294,44.601,37.042,44.508"/>
	<polygon style="fill-rule:evenodd;clip-rule:evenodd;fill:#2F3D70;" points="32.364,42.288 32.364,43.675 32.111,43.397 
		32.111,43.675 31.668,43.397 31.668,43.121 31.353,42.842 31.353,41.456 32.364,42.288 32.364,42.288 32.364,42.288 	"/>
	<polygon style="fill-rule:evenodd;clip-rule:evenodd;fill:#FFFFFF;" points="31.353,41.456 33.375,42.288 33.375,43.675 
		32.743,43.445 32.743,43.212 33.249,43.445 33.249,42.288 31.542,41.593 31.542,42.75 32.047,42.982 32.047,43.212 31.353,42.888 
		31.353,41.456 31.353,41.456 31.353,41.456 	"/>
	<polygon style="fill-rule:evenodd;clip-rule:evenodd;fill:#4B5E9E;" points="31.353,41.547 31.542,41.456 33.375,42.103 
		33.249,42.195 31.353,41.547 31.353,41.547 31.353,41.547 	"/>
	<path style="fill-rule:evenodd;clip-rule:evenodd;fill:#2A3174;" d="M34.007,42.936c-0.126,0-0.254,0-0.254,0
		c-0.126,0.092-0.252,0.092-0.379,0.092c0.127,0,0.253,0,0.379,0.093c0.128,0.092,0.38,0.23,0.38,0.416
		c0,0.093-0.126,0.139-0.126,0.139c0.126,0,0.126-0.046,0.253-0.046c0.126,0,0.126-0.093,0.126-0.185
		C34.386,43.305,34.26,43.028,34.007,42.936"/>
	<path style="fill-rule:evenodd;clip-rule:evenodd;fill:#2A3174;" d="M22.882,34.145c0-0.093,0-0.093-0.126-0.093l0,0l0,0l0,0
		c-0.126,0-0.126,0-0.126,0l0,0c-0.38,0.185-0.38,0.185-0.38,0.185c0.126,0,0.126-0.092,0.126-0.092s0,0.092,0.127,0.092
		c0,0,0,0,0.126,0c0.253,0.047,0.379,0.278,0.379,0.417c0,0.092,0,0.139-0.126,0.139c0.252-0.047,0.252-0.047,0.252-0.047
		c0.126-0.092,0.126-0.138,0.126-0.23C23.261,34.375,23.135,34.237,22.882,34.145"/>
	<path style="fill-rule:evenodd;clip-rule:evenodd;fill:#CEC3D4;" d="M22.882,34.145c0.252,0.092,0.379,0.276,0.379,0.463
		c0,0.138-0.126,0.185-0.379,0.138c-0.316-0.092-0.633-0.324-0.633-0.462C22.25,34.145,22.566,34.052,22.882,34.145L22.882,34.145"
		/>
	<polygon style="fill-rule:evenodd;clip-rule:evenodd;fill:#37477D;" points="21.365,33.312 21.238,33.452 21.238,34.33 
		22.187,34.792 22.25,34.7 22.25,33.821 21.365,33.312 21.365,33.312 	"/>
	<polygon style="fill-rule:evenodd;clip-rule:evenodd;fill:#2E3B6C;" points="21.238,33.589 21.745,33.312 22.25,33.821 
		21.745,34.052 21.238,33.589 21.238,33.589 21.238,33.589 	"/>
	<polygon style="fill-rule:evenodd;clip-rule:evenodd;fill:#25325E;" points="21.934,33.589 21.934,33.728 22.25,33.867 
		22.25,34.792 21.238,34.284 21.238,33.312 21.618,33.589 21.618,33.312 21.934,33.589 21.934,33.589 21.934,33.589 	"/>
	<path style="fill-rule:evenodd;clip-rule:evenodd;fill:#2A3174;" d="M19.848,33.404c-0.126-0.092-0.253-0.092-0.38-0.092
		c-0.126,0.092-0.126,0.092-0.252,0.186c0.126-0.094,0.126-0.094,0.252,0c0.253,0.046,0.506,0.277,0.506,0.415
		c0,0.094-0.126,0.14-0.126,0.14s0.126-0.046,0.252-0.046c0.126-0.094,0.126-0.094,0.126-0.231
		C20.227,33.636,19.975,33.498,19.848,33.404"/>
	<path style="fill-rule:evenodd;clip-rule:evenodd;fill:#4A5D9C;" d="M19.658,33.404c0.316,0.094,0.569,0.278,0.569,0.463
		c0,0.14-0.252,0.186-0.569,0.14c-0.252-0.094-0.442-0.324-0.442-0.463C19.216,33.404,19.406,33.312,19.658,33.404L19.658,33.404"/>
	<path style="fill-rule:evenodd;clip-rule:evenodd;fill:#2A3174;" d="M19.848,32.572c-0.126,0-0.126,0-0.126,0s0,0-0.127,0l0,0l0,0
		l0,0h-0.126c-0.252,0.185-0.252,0.185-0.252,0.185c0-0.092,0.126-0.092,0.126-0.092l0,0l0.126,0.092
		c0.253,0.047,0.506,0.278,0.506,0.417c0,0.092-0.126,0.092-0.126,0.139c0.252-0.139,0.252-0.139,0.252-0.139
		c0.126,0,0.126-0.046,0.126-0.139C20.227,32.895,19.975,32.756,19.848,32.572"/>
	<path style="fill-rule:evenodd;clip-rule:evenodd;fill:#CEC3D4;" d="M19.658,32.665c0.316,0.092,0.569,0.276,0.569,0.463
		c0,0.138-0.252,0.185-0.569,0.138c-0.252-0.138-0.442-0.324-0.442-0.462C19.216,32.665,19.406,32.572,19.658,32.665L19.658,32.665"
		/>
	<polygon style="fill-rule:evenodd;clip-rule:evenodd;fill:#37477D;" points="17.446,31.832 17.193,31.969 17.193,32.803 
		19.026,33.312 19.216,33.219 19.216,32.386 17.446,31.832 17.446,31.832 	"/>
	<polygon style="fill-rule:evenodd;clip-rule:evenodd;fill:#2E3B6C;" points="17.193,32.202 17.698,31.832 18.205,32.202 
		17.698,32.572 17.193,32.202 17.193,32.202 17.193,32.202 	"/>
	<polygon style="fill-rule:evenodd;clip-rule:evenodd;fill:#25325E;" points="18.205,32.71 19.216,32.572 19.216,33.219 
		18.205,33.312 18.205,32.71 18.205,32.71 18.205,32.71 	"/>
	<polygon style="fill-rule:evenodd;clip-rule:evenodd;fill:#25325E;" points="17.826,32.665 17.826,32.803 18.205,32.895 
		18.205,33.312 17.193,33.127 17.193,32.572 17.509,32.665 17.509,32.572 17.826,32.665 17.826,32.665 17.826,32.665 	"/>
	<polygon style="fill-rule:evenodd;clip-rule:evenodd;fill:#37477D;" points="14.412,30.351 14.159,30.489 14.159,31.322 
		15.992,31.832 16.182,31.739 16.182,30.906 14.412,30.351 14.412,30.351 	"/>
	<polygon style="fill-rule:evenodd;clip-rule:evenodd;fill:#2E3B6C;" points="14.159,30.86 14.791,30.351 15.17,30.86 
		14.791,31.091 14.159,30.86 14.159,30.86 14.159,30.86 	"/>
	<polygon style="fill-rule:evenodd;clip-rule:evenodd;fill:#25325E;" points="14.791,31.184 14.791,31.276 15.17,31.415 
		15.17,31.832 14.159,31.554 14.159,31.091 14.538,31.184 14.538,31.091 14.791,31.184 14.791,31.184 14.791,31.184 	"/>
	<polygon style="fill-rule:evenodd;clip-rule:evenodd;fill:#37477D;" points="11.251,28.87 11.125,29.01 11.125,29.841 
		12.073,30.351 12.136,30.351 12.136,29.425 11.251,28.87 11.251,28.87 	"/>
	<polygon style="fill-rule:evenodd;clip-rule:evenodd;fill:#25325E;" points="11.757,29.887 11.757,30.028 12.136,30.166 
		12.136,31.091 11.125,30.583 11.125,29.611 11.44,29.75 11.44,29.611 11.757,29.887 11.757,29.887 11.757,29.887 	"/>
	<path style="fill-rule:evenodd;clip-rule:evenodd;fill:#2A3174;" d="M34.007,39.234c-0.126,0-0.254,0-0.254,0
		c-0.126,0.093-0.252,0.093-0.379,0.093c0.127,0,0.253,0,0.379,0.092c0.254,0.046,0.38,0.186,0.38,0.417c0,0.092,0,0.092-0.126,0.14
		c0.126-0.048,0.253-0.048,0.253-0.14c0.126,0,0.126-0.047,0.126-0.139C34.386,39.558,34.26,39.327,34.007,39.234"/>
	<path style="fill-rule:evenodd;clip-rule:evenodd;fill:#4A5D9C;" d="M34.007,39.327c0.253,0.092,0.379,0.231,0.379,0.462
		c0,0.139-0.126,0.187-0.379,0.047c-0.316-0.047-0.633-0.231-0.633-0.371C33.375,39.327,33.691,39.234,34.007,39.327L34.007,39.327"
		/>
	<path style="fill-rule:evenodd;clip-rule:evenodd;fill:#2A3174;" d="M34.007,38.493c0,0,0,0-0.126,0l0,0l0,0l0,0
		c-0.128,0-0.128,0-0.128,0l0,0c-0.379,0.094-0.379,0.094-0.379,0.094c0.127,0,0.127,0,0.127,0s0,0,0.126,0c0,0,0,0,0.126,0.093
		c0.254,0.046,0.38,0.185,0.38,0.37c0,0.046,0,0.139-0.126,0.185c0.253-0.139,0.253-0.139,0.253-0.139
		c0.126,0,0.126-0.046,0.126-0.14C34.386,38.817,34.26,38.586,34.007,38.493"/>
	<path style="fill-rule:evenodd;clip-rule:evenodd;fill:#CEC3D4;" d="M34.007,38.679c0.253,0.046,0.379,0.185,0.379,0.37
		c0,0.185-0.126,0.185-0.379,0.139c-0.316-0.093-0.633-0.232-0.633-0.371C33.375,38.586,33.691,38.493,34.007,38.679L34.007,38.679"
		/>
	<polygon style="fill-rule:evenodd;clip-rule:evenodd;fill:#37477D;" points="32.49,37.753 32.364,37.753 32.364,38.725 
		33.311,39.234 33.375,39.141 33.375,38.308 32.49,37.753 32.49,37.753 	"/>
	<polygon style="fill-rule:evenodd;clip-rule:evenodd;fill:#2E3B6C;" points="31.353,38.124 31.857,37.753 32.364,38.124 
		32.111,38.493 31.353,38.124 31.353,38.124 31.353,38.124 	"/>
	<polygon style="fill-rule:evenodd;clip-rule:evenodd;fill:#25325E;" points="32.364,38.632 33.375,38.493 33.375,39.141 
		32.364,39.234 32.364,38.632 32.364,38.632 32.364,38.632 	"/>
	<polygon style="fill-rule:evenodd;clip-rule:evenodd;fill:#25325E;" points="32.111,38.586 32.111,38.679 32.364,38.817 
		32.364,39.234 31.353,38.956 31.353,38.493 31.795,38.586 31.795,38.493 32.111,38.586 32.111,38.586 32.111,38.586 	"/>
	<path style="fill-rule:evenodd;clip-rule:evenodd;fill:#2A3174;" d="M37.042,39.975c-0.126,0-0.126,0-0.126,0s0,0-0.127,0l0,0l0,0
		l0,0h-0.127c-0.253,0.092-0.253,0.092-0.253,0.092h0.127l0,0c0.126,0,0.126,0,0.126,0c0.254,0.093,0.506,0.323,0.506,0.509
		c0,0.093-0.126,0.139-0.126,0.139c0.253-0.046,0.253-0.046,0.253-0.046c0.126,0,0.126-0.093,0.126-0.185
		C37.42,40.344,37.294,40.067,37.042,39.975"/>
	<path style="fill-rule:evenodd;clip-rule:evenodd;fill:#CEC3D4;" d="M36.851,40.067c0.316,0.093,0.569,0.277,0.569,0.463
		c0,0.139-0.253,0.185-0.569,0.139c-0.126-0.093-0.442-0.324-0.442-0.463S36.725,39.975,36.851,40.067L36.851,40.067"/>
	<polygon style="fill-rule:evenodd;clip-rule:evenodd;fill:#37477D;" points="35.524,39.234 35.398,39.373 35.398,40.206 
		36.346,40.714 36.409,40.714 36.409,39.789 35.524,39.234 35.524,39.234 	"/>
	<polygon style="fill-rule:evenodd;clip-rule:evenodd;fill:#25325E;" points="35.398,39.975 36.409,39.234 36.409,39.975 
		35.398,39.975 35.398,39.975 35.398,39.975 35.398,39.975 	"/>
	<polygon style="fill-rule:evenodd;clip-rule:evenodd;fill:#2E3B6C;" points="34.386,39.604 35.019,39.234 35.398,39.604 
		35.019,39.975 34.386,39.604 34.386,39.604 34.386,39.604 	"/>
	<polygon style="fill-rule:evenodd;clip-rule:evenodd;fill:#2E3B6C;" points="35.398,39.512 35.904,39.234 36.409,39.512 
		35.904,39.975 35.398,39.512 35.398,39.512 35.398,39.512 	"/>
	<polygon style="fill-rule:evenodd;clip-rule:evenodd;fill:#25325E;" points="35.65,39.512 35.65,39.512 36.409,39.789 
		36.409,40.714 34.386,40.206 34.386,39.234 35.145,39.373 35.145,39.234 35.65,39.512 35.65,39.512 35.65,39.512 	"/>
	<path style="fill-rule:evenodd;clip-rule:evenodd;fill:#CEC3D4;" d="M40.076,41.547c0.252,0.093,0.379,0.277,0.379,0.463
		c0,0.139-0.127,0.185-0.379,0.139c-0.316-0.093-0.633-0.324-0.633-0.463S39.759,41.456,40.076,41.547L40.076,41.547"/>
	<polygon style="fill-rule:evenodd;clip-rule:evenodd;fill:#37477D;" points="38.559,40.714 38.431,40.714 38.431,41.686 
		39.443,42.195 39.443,42.103 39.443,41.269 38.559,40.714 38.559,40.714 	"/>
	<polygon style="fill-rule:evenodd;clip-rule:evenodd;fill:#2E3B6C;" points="38.431,41.084 38.875,40.714 39.443,41.084 
		38.875,41.456 38.431,41.084 38.431,41.084 38.431,41.084 	"/>
	<polygon style="fill-rule:evenodd;clip-rule:evenodd;fill:#2E3B6C;" points="38.431,41.084 39.064,40.714 39.443,41.084 
		39.064,41.456 38.431,41.084 38.431,41.084 38.431,41.084 	"/>
	<polygon style="fill-rule:evenodd;clip-rule:evenodd;fill:#25325E;" points="39.19,40.899 39.19,41.039 39.443,41.316 
		39.443,42.195 38.431,41.64 38.431,40.714 38.748,40.899 38.748,40.714 39.19,40.899 39.19,40.899 39.19,40.899 	"/>
	<polygon style="fill-rule:evenodd;clip-rule:evenodd;fill:#37477D;" points="41.719,42.195 41.466,42.333 41.466,43.167 
		43.299,43.675 43.489,43.675 43.489,42.75 41.719,42.195 41.719,42.195 	"/>
	<polygon style="fill-rule:evenodd;clip-rule:evenodd;fill:#2E3B6C;" points="41.466,42.473 41.971,42.195 42.478,42.473 
		41.971,42.936 41.466,42.473 41.466,42.473 41.466,42.473 	"/>
	<polygon style="fill-rule:evenodd;clip-rule:evenodd;fill:#25325E;" points="42.478,43.028 43.489,42.936 43.489,43.491 
		42.478,43.675 42.478,43.028 42.478,43.028 42.478,43.028 	"/>
	<polygon style="fill-rule:evenodd;clip-rule:evenodd;fill:#25325E;" points="42.162,42.473 42.162,42.473 42.478,42.75 
		42.478,43.675 41.466,43.028 41.466,42.195 41.845,42.333 41.845,42.195 42.162,42.473 42.162,42.473 42.162,42.473 	"/>
	<polygon style="fill-rule:evenodd;clip-rule:evenodd;fill:#37477D;" points="21.365,37.753 21.238,37.893 21.238,38.817 
		22.187,39.234 22.25,39.234 22.25,38.308 21.365,37.753 21.365,37.753 	"/>
	<polygon style="fill-rule:evenodd;clip-rule:evenodd;fill:#2E3D6F;" points="21.238,38.262 22.25,37.753 22.25,38.262 
		21.238,38.493 21.238,38.262 21.238,38.262 21.238,38.262 	"/>
	<polygon style="fill-rule:evenodd;clip-rule:evenodd;fill:#37457B;" points="21.238,38.032 21.745,37.753 22.25,38.032 
		21.745,38.493 21.238,38.032 21.238,38.032 21.238,38.032 	"/>
	<polygon style="fill-rule:evenodd;clip-rule:evenodd;fill:#465894;" points="21.871,38.032 21.871,38.169 22.25,38.308 
		22.25,39.234 21.238,38.725 21.238,37.753 21.555,38.032 21.555,37.753 21.871,38.032 21.871,38.032 21.871,38.032 	"/>
	<path style="fill-rule:evenodd;clip-rule:evenodd;fill:#2A3174;" d="M22.882,38.493h-0.126l0,0c0,0,0,0-0.126,0l0,0l0,0
		c0,0,0,0-0.126,0c-0.254,0.094-0.254,0.094-0.254,0.094h0.126l0,0c0.127,0,0.127,0,0.253,0c0.126,0.185,0.379,0.323,0.379,0.509
		c0,0.093,0,0.139-0.126,0.139c0.126,0,0.126,0,0.252-0.046c0.126,0,0.126-0.093,0.126-0.185
		C23.261,38.864,23.135,38.586,22.882,38.493"/>
	<path style="fill-rule:evenodd;clip-rule:evenodd;fill:#CEC3D4;" d="M22.882,38.586c0.126,0.139,0.379,0.277,0.379,0.463
		c0,0.139-0.253,0.185-0.379,0.139c-0.316-0.093-0.633-0.232-0.633-0.463C22.25,38.586,22.566,38.493,22.882,38.586L22.882,38.586"
		/>
	<polygon style="fill-rule:evenodd;clip-rule:evenodd;fill:#37477D;" points="17.636,36.273 17.193,36.413 17.193,37.245 
		19.026,37.753 19.216,37.661 19.216,36.828 17.636,36.273 17.636,36.273 	"/>
	<polygon style="fill-rule:evenodd;clip-rule:evenodd;fill:#37457B;" points="17.193,36.643 17.446,36.273 18.205,36.643 
		17.698,37.013 17.193,36.643 17.193,36.643 17.193,36.643 	"/>
	<polygon style="fill-rule:evenodd;clip-rule:evenodd;fill:#2E3D6F;" points="18.205,37.106 19.216,37.013 19.216,37.569 
		18.205,37.753 18.205,37.106 18.205,37.106 18.205,37.106 	"/>
	<polygon style="fill-rule:evenodd;clip-rule:evenodd;fill:#465894;" points="17.888,36.413 17.888,36.689 18.205,36.828 
		18.205,37.753 17.193,37.245 17.193,36.273 17.572,36.413 17.572,36.273 17.888,36.413 17.888,36.413 17.888,36.413 	"/>
	<path style="fill-rule:evenodd;clip-rule:evenodd;fill:#2A3174;" d="M19.848,37.106c0-0.093-0.126-0.093-0.126-0.093l0,0l0,0
		c-0.127,0-0.127,0-0.127,0l0,0c0,0,0,0-0.126,0c-0.252,0.185-0.252,0.185-0.252,0.185c0-0.092,0.126-0.092,0.126-0.092l0,0
		c0.126,0,0.126,0.092,0.252,0.092c0.127,0.047,0.38,0.277,0.38,0.417c0,0.093,0,0.139-0.126,0.139
		c0.126-0.046,0.126-0.046,0.252-0.046c0.126-0.093,0.126-0.139,0.126-0.232C20.227,37.336,20.101,37.198,19.848,37.106"/>
	<path style="fill-rule:evenodd;clip-rule:evenodd;fill:#4A5D9C;" d="M19.848,37.845c0.126,0.093,0.379,0.278,0.379,0.463
		c0,0.139-0.252,0.185-0.379,0.139c-0.316-0.092-0.632-0.323-0.632-0.462C19.216,37.845,19.532,37.753,19.848,37.845L19.848,37.845"
		/>
	<path style="fill-rule:evenodd;clip-rule:evenodd;fill:#2A3174;" d="M19.848,37.845l-0.126-0.092l0,0c0,0,0,0-0.127,0l0,0l0,0
		c0,0,0,0-0.126,0c-0.252,0.185-0.252,0.185-0.252,0.185h0.126l0,0c0.126,0,0.126,0,0.252,0c0.127,0.047,0.38,0.278,0.38,0.417
		c0,0.092,0,0.138-0.126,0.138c0.126,0,0.126-0.046,0.252-0.046c0.126-0.092,0.126-0.092,0.126-0.139
		C20.227,38.078,20.101,37.938,19.848,37.845"/>
	<path style="fill-rule:evenodd;clip-rule:evenodd;fill:#CEC3D4;" d="M19.848,37.106c0.126,0.092,0.379,0.277,0.379,0.463
		c0,0.139-0.252,0.185-0.379,0.139c-0.316-0.093-0.632-0.324-0.632-0.463S19.532,37.013,19.848,37.106L19.848,37.106"/>
	<polygon style="fill-rule:evenodd;clip-rule:evenodd;fill:#37477D;" points="14.412,34.792 14.159,34.792 14.159,35.764 
		15.992,36.273 16.182,36.18 16.182,35.347 14.412,34.792 14.412,34.792 	"/>
	<polygon style="fill-rule:evenodd;clip-rule:evenodd;fill:#37457B;" points="14.159,35.301 14.665,34.792 15.17,35.301 
		14.665,35.533 14.159,35.301 14.159,35.301 14.159,35.301 	"/>
	<polygon style="fill-rule:evenodd;clip-rule:evenodd;fill:#37457B;" points="14.159,35.301 14.665,34.792 15.17,35.301 
		14.665,35.533 14.159,35.301 14.159,35.301 14.159,35.301 	"/>
	<polygon style="fill-rule:evenodd;clip-rule:evenodd;fill:#465894;" points="14.791,35.625 14.791,35.717 15.17,35.764 
		15.17,36.273 14.159,35.996 14.159,35.533 14.476,35.625 14.476,35.533 14.791,35.625 14.791,35.625 14.791,35.625 	"/>
	<polygon style="fill-rule:evenodd;clip-rule:evenodd;fill:#37477D;" points="11.567,33.312 11.125,33.452 11.125,34.284 
		12.958,34.792 13.148,34.792 13.148,33.867 11.567,33.312 11.567,33.312 	"/>
	<polygon style="fill-rule:evenodd;clip-rule:evenodd;fill:#37457B;" points="11.125,33.821 11.378,33.312 12.136,33.821 
		11.63,34.052 11.125,33.821 11.125,33.821 11.125,33.821 	"/>
	<polygon style="fill-rule:evenodd;clip-rule:evenodd;fill:#465894;" points="11.883,34.145 11.883,34.237 12.136,34.284 
		12.136,34.792 11.125,34.515 11.125,34.052 11.567,34.145 11.567,34.052 11.883,34.145 11.883,34.145 11.883,34.145 	"/>
	<path style="fill-rule:evenodd;clip-rule:evenodd;fill:#4A5D9C;" d="M12.768,34.978c0.126,0.046,0.38,0.185,0.38,0.369
		c0,0.14-0.253,0.186-0.38,0.14c-0.316-0.094-0.632-0.231-0.632-0.463C12.136,34.884,12.452,34.792,12.768,34.978L12.768,34.978"/>
	<path style="fill-rule:evenodd;clip-rule:evenodd;fill:#CEC3D4;" d="M12.768,34.145c0.126,0.092,0.38,0.276,0.38,0.463
		c0,0.138-0.253,0.185-0.38,0.138c-0.316-0.092-0.632-0.324-0.632-0.462C12.136,34.145,12.452,34.052,12.768,34.145L12.768,34.145"
		/>
</g>
</svg>
