<?xml version="1.0" encoding="utf-8"?>
<!DOCTYPE svg PUBLIC "-//W3C//DTD SVG 1.1//EN" "http://www.w3.org/Graphics/SVG/1.1/DTD/svg11.dtd">
<svg version="1.1" xmlns="http://www.w3.org/2000/svg" xmlns:xlink="http://www.w3.org/1999/xlink" width="65" height="48" viewBox="0 0 65 48">
<g>
	<polygon fill-rule="evenodd" clip-rule="evenodd" fill="#3E4980" points="64.972,18.839 64.882,28.437 32.486,47.274 
		32.666,37.677 64.972,18.839 	"/>
	<polygon fill-rule="evenodd" clip-rule="evenodd" fill="#5768A0" points="32.755,37.677 32.576,47.274 0,28.437 0,18.839 
		32.755,37.677 	"/>
	<polygon fill-rule="evenodd" clip-rule="evenodd" fill="#7089C0" points="64.972,18.928 32.666,37.677 0,18.928 32.397,0 
		64.972,18.928 	"/>
	<path fill-rule="evenodd" clip-rule="evenodd" fill="#FFFFFF" d="M36.154,16.327c0.448,0,0.448,0,0.448,0c0,6.817,0,6.817,0,6.817
		c-8.232,0-8.232,0-8.232,0c-0.179-6.817-0.179-6.817-0.179-6.817c0.446,0,0.446,0,0.446,0c0-0.628,0.18-1.973,1.433-2.691
		c0.626-0.269,1.432-0.538,2.327-0.538c0.895,0,1.611,0.269,2.327,0.538l0,0C36.065,14.443,36.154,15.878,36.154,16.327
		L36.154,16.327z M30.518,16.327c3.758,0,3.758,0,3.758,0c0-0.449-0.089-1.435-0.983-1.884l0,0c-0.358-0.089-0.626-0.27-0.895-0.27
		c-0.447,0-0.537,0.18-0.896,0.27C30.786,14.892,30.696,15.878,30.518,16.327L30.518,16.327z M36.065,21.619
		c0-0.538,0-0.538,0-0.538c-2.505,0-2.505,0-2.505,0c0,0.538,0,0.538,0,0.538C36.065,21.619,36.065,21.619,36.065,21.619
		L36.065,21.619z M36.065,18.301c0-0.719,0-0.719,0-0.719c-2.505,0-2.505,0-2.505,0c0,0.719,0,0.719,0,0.719
		C36.065,18.301,36.065,18.301,36.065,18.301L36.065,18.301z M36.065,19.915c0-0.628,0-0.628,0-0.628c-2.505,0-2.505,0-2.505,0
		c0,0.628,0,0.628,0,0.628C36.065,19.915,36.065,19.915,36.065,19.915L36.065,19.915z"/>
	<path fill-rule="evenodd" clip-rule="evenodd" fill="#3E4980" d="M40.271,19.466c0,8.253,0,8.253,0,8.253
		c-15.929,0-15.929,0-15.929,0c0-8.701,0-8.701,0-8.701c-6.265,3.588-6.265,3.588-6.265,3.588c-1.969-1.256-1.969-1.256-1.969-1.256
		c3.133-1.884,3.133-1.884,3.133-1.884c-9.308,0-9.308,0-9.308,0c0-1.973,0-1.973,0-1.973c9.308,0,9.308,0,9.308,0
		c-3.311-1.885-3.311-1.885-3.311-1.885c2.147-1.166,2.147-1.166,2.147-1.166c6.265,3.499,6.265,3.499,6.265,3.499
		c0-8.702,0-8.702,0-8.702c14.946,0,14.946,0,14.946,0c0.982,0,0.982,0,0.982,0c0,8.253,0,8.253,0,8.253c8.503,0,8.503,0,8.503,0
		c-3.311-1.885-3.311-1.885-3.311-1.885c2.146-1.166,2.146-1.166,2.146-1.166c7.07,4.037,7.07,4.037,7.07,4.037
		c-7.07,4.126-7.07,4.126-7.07,4.126c-2.146-1.256-2.146-1.256-2.146-1.256c3.311-1.884,3.311-1.884,3.311-1.884
		C40.271,19.466,40.271,19.466,40.271,19.466L40.271,19.466z M26.133,26.732c1.61,0,10.828,0,12.261,0c0-0.987,0-15.34,0-16.416
		c-1.612,0-10.829,0-12.261,0C26.133,11.393,26.133,25.745,26.133,26.732L26.133,26.732z"/>
	<path fill-rule="evenodd" clip-rule="evenodd" fill="#FFFFFF" d="M39.824,19.018c0.179,8.253,0.179,8.253,0.179,8.253
		c-16.019,0-16.019,0-16.019,0c-0.089-8.701-0.089-8.701-0.089-8.701c-6.086,3.588-6.086,3.588-6.086,3.588
		c-2.147-1.256-2.147-1.256-2.147-1.256c3.132-1.884,3.132-1.884,3.132-1.884c-9.396,0-9.396,0-9.396,0c0-2.063,0-2.063,0-2.063
		c9.396,0,9.396,0,9.396,0c-3.132-1.794-3.132-1.794-3.132-1.794c1.969-1.166,1.969-1.166,1.969-1.166
		c6.265,3.408,6.265,3.408,6.265,3.408c0-8.701,0-8.701,0-8.701c14.946,0,14.946,0,14.946,0c0.982,0,0.982,0,0.982,0
		c0,8.252,0,8.252,0,8.252c8.503,0,8.503,0,8.503,0c-3.132-1.794-3.132-1.794-3.132-1.794c1.967-1.166,1.967-1.166,1.967-1.166
		c7.249,4.037,7.249,4.037,7.249,4.037c-7.069,4.126-7.069,4.126-7.069,4.126c-2.146-1.256-2.146-1.256-2.146-1.256
		c3.132-1.884,3.132-1.884,3.132-1.884C39.824,19.018,39.824,19.018,39.824,19.018L39.824,19.018z M25.863,26.284
		c1.433,0,10.649,0,12.262,0c0-0.986-0.18-15.43-0.18-16.417c-1.522,0-10.649,0-12.171,0C25.774,10.854,25.863,25.298,25.863,26.284
		L25.863,26.284z"/>
	<polygon fill-rule="evenodd" clip-rule="evenodd" fill="#3E4980" points="64.972,18.839 64.882,28.437 32.486,47.274 
		32.666,37.677 64.972,18.839 	"/>
	<polygon fill-rule="evenodd" clip-rule="evenodd" fill="#5768A0" points="32.755,37.677 32.576,47.274 0,28.437 0,18.839 
		32.755,37.677 	"/>
	<polygon fill-rule="evenodd" clip-rule="evenodd" fill="#7089C0" points="64.972,18.928 32.666,37.677 0,18.928 32.397,0 
		64.972,18.928 	"/>
	<path fill-rule="evenodd" clip-rule="evenodd" fill="#FFFFFF" d="M36.154,16.327c0.448,0,0.448,0,0.448,0c0,6.817,0,6.817,0,6.817
		c-8.232,0-8.232,0-8.232,0c-0.179-6.817-0.179-6.817-0.179-6.817c0.446,0,0.446,0,0.446,0c0-0.628,0.18-1.973,1.433-2.691
		c0.626-0.269,1.432-0.538,2.327-0.538c0.895,0,1.611,0.269,2.327,0.538l0,0C36.065,14.443,36.154,15.878,36.154,16.327
		L36.154,16.327z M30.518,16.327c3.758,0,3.758,0,3.758,0c0-0.449-0.089-1.435-0.983-1.884l0,0c-0.358-0.089-0.626-0.27-0.895-0.27
		c-0.447,0-0.537,0.18-0.896,0.27C30.786,14.892,30.696,15.878,30.518,16.327L30.518,16.327z M36.065,21.619
		c0-0.538,0-0.538,0-0.538c-2.505,0-2.505,0-2.505,0c0,0.538,0,0.538,0,0.538C36.065,21.619,36.065,21.619,36.065,21.619
		L36.065,21.619z M36.065,18.301c0-0.719,0-0.719,0-0.719c-2.505,0-2.505,0-2.505,0c0,0.719,0,0.719,0,0.719
		C36.065,18.301,36.065,18.301,36.065,18.301L36.065,18.301z M36.065,19.915c0-0.628,0-0.628,0-0.628c-2.505,0-2.505,0-2.505,0
		c0,0.628,0,0.628,0,0.628C36.065,19.915,36.065,19.915,36.065,19.915L36.065,19.915z"/>
	<path fill-rule="evenodd" clip-rule="evenodd" fill="#3E4980" d="M40.271,19.466c0,8.253,0,8.253,0,8.253
		c-15.929,0-15.929,0-15.929,0c0-8.701,0-8.701,0-8.701c-6.265,3.588-6.265,3.588-6.265,3.588c-1.969-1.256-1.969-1.256-1.969-1.256
		c3.133-1.884,3.133-1.884,3.133-1.884c-9.308,0-9.308,0-9.308,0c0-1.973,0-1.973,0-1.973c9.308,0,9.308,0,9.308,0
		c-3.311-1.885-3.311-1.885-3.311-1.885c2.147-1.166,2.147-1.166,2.147-1.166c6.265,3.499,6.265,3.499,6.265,3.499
		c0-8.702,0-8.702,0-8.702c14.946,0,14.946,0,14.946,0c0.982,0,0.982,0,0.982,0c0,8.253,0,8.253,0,8.253c8.503,0,8.503,0,8.503,0
		c-3.311-1.885-3.311-1.885-3.311-1.885c2.146-1.166,2.146-1.166,2.146-1.166c7.07,4.037,7.07,4.037,7.07,4.037
		c-7.07,4.126-7.07,4.126-7.07,4.126c-2.146-1.256-2.146-1.256-2.146-1.256c3.311-1.884,3.311-1.884,3.311-1.884
		C40.271,19.466,40.271,19.466,40.271,19.466L40.271,19.466z M26.133,26.732c1.61,0,10.828,0,12.261,0c0-0.987,0-15.34,0-16.416
		c-1.612,0-10.829,0-12.261,0C26.133,11.393,26.133,25.745,26.133,26.732L26.133,26.732z"/>
	<path fill-rule="evenodd" clip-rule="evenodd" fill="#FFFFFF" d="M39.824,19.018c0.179,8.253,0.179,8.253,0.179,8.253
		c-16.019,0-16.019,0-16.019,0c-0.089-8.701-0.089-8.701-0.089-8.701c-6.086,3.588-6.086,3.588-6.086,3.588
		c-2.147-1.256-2.147-1.256-2.147-1.256c3.132-1.884,3.132-1.884,3.132-1.884c-9.396,0-9.396,0-9.396,0c0-2.063,0-2.063,0-2.063
		c9.396,0,9.396,0,9.396,0c-3.132-1.794-3.132-1.794-3.132-1.794c1.969-1.166,1.969-1.166,1.969-1.166
		c6.265,3.408,6.265,3.408,6.265,3.408c0-8.701,0-8.701,0-8.701c14.946,0,14.946,0,14.946,0c0.982,0,0.982,0,0.982,0
		c0,8.252,0,8.252,0,8.252c8.503,0,8.503,0,8.503,0c-3.132-1.794-3.132-1.794-3.132-1.794c1.967-1.166,1.967-1.166,1.967-1.166
		c7.249,4.037,7.249,4.037,7.249,4.037c-7.069,4.126-7.069,4.126-7.069,4.126c-2.146-1.256-2.146-1.256-2.146-1.256
		c3.132-1.884,3.132-1.884,3.132-1.884C39.824,19.018,39.824,19.018,39.824,19.018L39.824,19.018z M25.863,26.284
		c1.433,0,10.649,0,12.262,0c0-0.986-0.18-15.43-0.18-16.417c-1.522,0-10.649,0-12.171,0C25.774,10.854,25.863,25.298,25.863,26.284
		L25.863,26.284z"/>
</g>
</svg>
