<?xml version="1.0" encoding="iso-8859-1"?>
<!DOCTYPE svg PUBLIC "-//W3C//DTD SVG 1.1//EN" "http://www.w3.org/Graphics/SVG/1.1/DTD/svg11.dtd">
<svg version="1.1" xmlns="http://www.w3.org/2000/svg" xmlns:xlink="http://www.w3.org/1999/xlink" width="58" height="43" viewBox="0 0 58 43">
<g>
	<polygon style="fill-rule:evenodd;clip-rule:evenodd;fill:#26336E;" points="58.961,17.008 58.889,25.901 29.48,43.087 
		29.586,34.299 58.961,17.008 58.961,17.008 58.961,17.008 	"/>
	<polygon style="fill-rule:evenodd;clip-rule:evenodd;fill:#30498C;" points="29.48,34.299 29.409,43.087 0,25.901 0.106,17.008 
		29.48,34.299 29.48,34.299 29.48,34.299 	"/>
	<polygon style="fill-rule:evenodd;clip-rule:evenodd;fill:#4A66A8;" points="58.961,16.972 29.586,34.016 0,16.972 29.303,0 
		58.961,16.972 58.961,16.972 58.961,16.972 	"/>
	<path style="fill-rule:evenodd;clip-rule:evenodd;fill:#26336E;" d="M39.792,15.378c1.027,0.496,1.594,1.169,1.594,1.949
		c0,0.744-0.566,1.417-1.594,1.949c-1.807-0.886-1.807-0.886-1.807-0.886c0.531-0.283,0.85-0.708,0.85-1.063
		c0-0.39-0.318-0.779-0.85-1.099c1.807-0.921,1.807-0.921,1.807-0.921V15.378L39.792,15.378"/>
	<path style="fill-rule:evenodd;clip-rule:evenodd;fill:#26336E;" d="M43.051,13.039c1.877,1.134,2.834,2.658,2.834,4.252
		c0.035,1.63-0.957,3.154-2.764,4.252c-1.736-1.027-1.736-1.027-1.736-1.027c1.383-0.851,2.162-1.984,2.162-3.225
		c0-1.169-0.779-2.338-2.162-3.189C43.051,13.039,43.051,13.039,43.051,13.039L43.051,13.039"/>
	<path style="fill-rule:evenodd;clip-rule:evenodd;fill:#26336E;" d="M46.594,11.338c2.871,1.63,4.43,3.721,4.43,5.988
		c0,2.232-1.488,4.323-4.395,5.917c-1.771-0.992-1.771-0.992-1.771-0.992c2.375-1.311,3.65-3.047,3.615-4.925
		c0-1.842-1.313-3.614-3.686-4.96C46.594,11.338,46.594,11.338,46.594,11.338L46.594,11.338"/>
	<path style="fill-rule:evenodd;clip-rule:evenodd;fill:#26336E;" d="M20.09,17.327c0,0.39,0.319,0.744,0.886,1.027
		c-1.771,0.921-1.771,0.921-1.771,0.921c-1.027-0.496-1.559-1.205-1.63-1.949c0-0.744,0.603-1.453,1.594-2.02
		c1.772,0.957,1.772,0.957,1.772,0.957C20.409,16.547,20.09,16.901,20.09,17.327L20.09,17.327"/>
	<path style="fill-rule:evenodd;clip-rule:evenodd;fill:#26336E;" d="M15.909,21.543c-1.842-1.098-2.87-2.586-2.87-4.216
		c0-1.594,1.028-3.083,2.799-4.288c1.701,1.099,1.701,1.099,1.701,1.099c-1.346,0.851-2.09,1.984-2.09,3.189
		c0,1.169,0.744,2.303,2.126,3.154C15.909,21.543,15.909,21.543,15.909,21.543L15.909,21.543"/>
	<path style="fill-rule:evenodd;clip-rule:evenodd;fill:#26336E;" d="M14.705,12.366c-2.338,1.346-3.614,3.083-3.614,4.96
		c0,1.842,1.311,3.579,3.65,4.925c-1.736,0.992-1.736,0.992-1.736,0.992c-2.87-1.559-4.5-3.65-4.5-5.917
		c0-2.232,1.559-4.323,4.394-5.988C14.705,12.366,14.705,12.366,14.705,12.366L14.705,12.366"/>
	<path style="fill-rule:evenodd;clip-rule:evenodd;fill:#26336E;" d="M31.145,26.469c0-4.819,0-4.819,0-4.819
		c1.383-0.142,2.764-0.567,3.828-1.24c3.012-1.736,2.977-4.571-0.037-6.307c-1.098-0.638-2.408-1.063-3.791-1.24
		c0-1.347-0.07-3.154-0.07-4.181c3.33,1.949,3.33,1.949,3.33,1.949c2.162-1.276,2.162-1.276,2.162-1.276
		c-7.264-4.252-7.264-4.252-7.264-4.252c-7.299,4.252-7.299,4.252-7.299,4.252c2.232,1.276,2.232,1.276,2.232,1.276
		c3.26-1.949,3.26-1.949,3.26-1.949c0.071,4.216,0.071,4.216,0.071,4.216c-1.311,0.213-2.516,0.567-3.543,1.205
		c-3.047,1.736-2.976,4.571,0.036,6.307c0.992,0.638,2.197,0.992,3.508,1.205c0,4.854,0,4.854,0,4.854
		c-3.331-1.914-3.331-1.914-3.331-1.914c-2.162,1.24-2.162,1.24-2.162,1.24c7.264,4.252,7.264,4.252,7.264,4.252
		c7.264-4.252,7.264-4.252,7.264-4.252c-2.125-1.24-2.125-1.24-2.125-1.24C31.145,26.469,31.145,26.469,31.145,26.469L31.145,26.469
		z M26.22,15.378c1.807-1.028,4.712-1.028,6.521,0c1.771,1.027,1.842,2.729,0.035,3.756c-1.807,1.099-4.713,1.099-6.52,0
		C24.413,18.106,24.413,16.405,26.22,15.378L26.22,15.378z"/>
	<path style="fill-rule:evenodd;clip-rule:evenodd;fill:#FFFFFF;" d="M39.792,14.74c1.027,0.567,1.594,1.275,1.594,1.984
		c0,0.744-0.566,1.488-1.594,1.984c-1.807-0.921-1.807-0.921-1.807-0.921c0.531-0.248,0.85-0.638,0.85-1.063
		c0-0.39-0.318-0.779-0.85-1.027C39.792,14.74,39.792,14.74,39.792,14.74L39.792,14.74L39.792,14.74"/>
	<path style="fill-rule:evenodd;clip-rule:evenodd;fill:#FFFFFF;" d="M43.051,12.472c1.877,1.169,2.834,2.658,2.834,4.252
		c0.035,1.63-0.957,3.118-2.764,4.252c-1.736-1.027-1.736-1.027-1.736-1.027c1.383-0.851,2.162-1.984,2.162-3.225
		c0-1.205-0.779-2.303-2.162-3.189C43.051,12.472,43.051,12.472,43.051,12.472L43.051,12.472"/>
	<path style="fill-rule:evenodd;clip-rule:evenodd;fill:#FFFFFF;" d="M46.594,10.771c2.871,1.63,4.43,3.756,4.43,5.953
		c0,2.303-1.488,4.394-4.395,5.953c-1.771-0.992-1.771-0.992-1.771-0.992c2.375-1.311,3.65-3.083,3.615-4.961
		c0-1.842-1.313-3.614-3.686-4.925C46.594,10.771,46.594,10.771,46.594,10.771L46.594,10.771"/>
	<path style="fill-rule:evenodd;clip-rule:evenodd;fill:#FFFFFF;" d="M20.09,16.724c0,0.425,0.319,0.78,0.886,1.063
		c-1.771,0.921-1.771,0.921-1.771,0.921c-1.027-0.531-1.559-1.24-1.63-1.984c0-0.744,0.603-1.453,1.594-1.984
		c1.772,0.921,1.772,0.921,1.772,0.921C20.409,15.909,20.09,16.299,20.09,16.724L20.09,16.724"/>
	<path style="fill-rule:evenodd;clip-rule:evenodd;fill:#FFFFFF;" d="M15.909,20.409c-1.842-1.027-2.87-2.445-2.87-3.968
		c0-1.488,1.028-2.906,2.799-3.969c1.701,1.028,1.701,1.028,1.701,1.028c-1.346,0.815-2.09,1.842-2.09,2.941
		c0,1.169,0.744,2.232,2.126,3.047C15.909,20.409,15.909,20.409,15.909,20.409L15.909,20.409"/>
	<path style="fill-rule:evenodd;clip-rule:evenodd;fill:#FFFFFF;" d="M14.705,11.799c-2.338,1.311-3.614,3.083-3.614,4.925
		c0,1.914,1.311,3.65,3.65,4.996c-1.736,0.957-1.736,0.957-1.736,0.957c-2.87-1.559-4.5-3.685-4.5-5.953
		c0-2.232,1.559-4.358,4.394-5.953C14.705,11.799,14.705,11.799,14.705,11.799L14.705,11.799"/>
	<path style="fill-rule:evenodd;clip-rule:evenodd;fill:#FFFFFF;" d="M31.145,25.937c0-4.818,0-4.818,0-4.818
		c1.383-0.177,2.764-0.603,3.828-1.24c3.012-1.736,2.977-4.642-0.037-6.378c-1.098-0.638-2.408-1.063-3.791-1.205
		c0-1.382-0.07-3.188-0.07-4.181c3.33,1.913,3.33,1.913,3.33,1.913c2.162-1.24,2.162-1.24,2.162-1.24
		c-7.264-4.252-7.264-4.252-7.264-4.252c-7.299,4.252-7.299,4.252-7.299,4.252c2.232,1.24,2.232,1.24,2.232,1.24
		c3.26-1.913,3.26-1.913,3.26-1.913c0.071,4.252,0.071,4.252,0.071,4.252c-1.311,0.142-2.516,0.567-3.543,1.134
		c-3.047,1.736-2.976,4.642,0.036,6.378c0.992,0.567,2.197,0.992,3.508,1.134c0,4.925,0,4.925,0,4.925
		c-3.331-1.948-3.331-1.948-3.331-1.948c-2.162,1.275-2.162,1.275-2.162,1.275c7.264,4.217,7.264,4.217,7.264,4.217
		c7.264-4.217,7.264-4.217,7.264-4.217c-2.125-1.275-2.125-1.275-2.125-1.275C31.145,25.937,31.145,25.937,31.145,25.937
		L31.145,25.937z M26.22,14.775c1.807-1.027,4.712-1.027,6.521,0c1.771,1.099,1.842,2.799,0.035,3.827
		c-1.807,1.028-4.713,1.028-6.52,0C24.413,17.575,24.413,15.874,26.22,14.775L26.22,14.775z"/>
</g>
</svg>