<?xml version="1.0" encoding="iso-8859-1"?>
<!DOCTYPE svg PUBLIC "-//W3C//DTD SVG 1.1//EN" "http://www.w3.org/Graphics/SVG/1.1/DTD/svg11.dtd">
<svg version="1.1" xmlns="http://www.w3.org/2000/svg" xmlns:xlink="http://www.w3.org/1999/xlink" width="97" height="76" viewBox="0 0 97 76">
<g>
	<path style="fill-rule:evenodd;clip-rule:evenodd;fill:#2E4275;" d="M54.747,0.571c-3.22,0-3.22,0-3.22,0
		c0,27.549,0,27.549,0,27.549l0,0c0,0.207,0.2,0.414,0.502,0.663c0.604,0.332,1.661,0.332,2.263,0
		c0.302-0.249,0.455-0.457,0.455-0.663l0,0C54.747,0.571,54.747,0.571,54.747,0.571"/>
	<path style="fill-rule:evenodd;clip-rule:evenodd;fill:#415996;" d="M54.042,0.28c0.705,0.415,0.705,0.954,0,1.286
		s-1.864,0.332-2.568,0c-0.754-0.332-0.754-0.954,0-1.286C52.179-0.093,53.338-0.093,54.042,0.28L54.042,0.28"/>
	<path style="fill-rule:evenodd;clip-rule:evenodd;fill:#2E4275;" d="M82.12,15.839c-3.22,0-3.22,0-3.22,0
		c0,26.926,0,26.926,0,26.926l0,0c0.1,0.208,0.25,0.416,0.502,0.623c0.605,0.332,1.612,0.332,2.264,0
		c0.302-0.208,0.455-0.415,0.455-0.623l0,0C82.12,15.839,82.12,15.839,82.12,15.839"/>
	<path style="fill-rule:evenodd;clip-rule:evenodd;fill:#415996;" d="M82.27,14.885c0.654,0.414,0.654,0.954,0,1.286
		c-0.804,0.333-1.961,0.333-2.666,0c-0.705-0.332-0.705-0.954,0.1-1.286C80.409,14.511,81.565,14.511,82.27,14.885L82.27,14.885"/>
	<polygon style="fill-rule:evenodd;clip-rule:evenodd;fill:#0F1026;" points="22.14,47.786 22.14,52.764 38.14,60.357 38.14,55.42 
		59.576,65.459 59.576,74.255 0.805,46.582 0.805,37.745 22.14,47.786 22.14,47.786 22.14,47.786 	"/>
	<polygon style="fill-rule:evenodd;clip-rule:evenodd;fill:#26336E;" points="59.576,65.336 97.416,47.039 97.416,56 59.576,74.255 
		59.576,65.336 59.576,65.336 59.576,65.336 	"/>
	<polygon style="fill-rule:evenodd;clip-rule:evenodd;fill:#4A66A8;" points="0.805,37.33 38.896,19.158 97.416,46.831 
		59.273,64.962 0.805,37.33 0.805,37.33 0.805,37.33 	"/>
	<path style="fill-rule:evenodd;clip-rule:evenodd;fill:#30498C;" d="M87.805,42.558c0.755,0.539,0.755,0.539,0.755,0.539
		c-5.939,1.866-13.083,2.613-20.178,2.282c-7.145-0.373-13.888-1.909-18.97-4.316c-5.183-2.405-8.403-5.642-9.158-9.043
		c-0.806-3.32,0.855-6.68,4.579-9.543c1.309,0.374,1.309,0.374,1.309,0.374c-3.573,2.696-5.183,5.933-4.428,9.127
		c0.705,3.237,3.824,6.266,8.705,8.589c4.831,2.323,11.32,3.733,18.167,4.106C75.274,45.006,82.12,44.26,87.805,42.558
		L87.805,42.558"/>
	<path style="fill-rule:evenodd;clip-rule:evenodd;fill:#4965A8;" d="M22.492,56.623l15.851,7.509v-8.837l-15.851-7.386V56.623
		L22.492,56.623L22.492,56.623z M8.051,49.901l0.704,0.208v-8.796l-0.553-0.25L8.051,49.901L8.051,49.901L8.051,49.901z
		 M12.781,52.018l0.554,0.208v-8.713l-0.554-0.332V52.018L12.781,52.018L12.781,52.018z M17.359,54.217l0.554,0.207V45.71
		l-0.402-0.332L17.359,54.217L17.359,54.217L17.359,54.217z M42.367,66.123l0.554,0.332v-8.836l-0.402-0.208L42.367,66.123
		L42.367,66.123L42.367,66.123z M47.098,68.323L47.5,68.53l0.151-8.712l-0.553-0.332V68.323L47.098,68.323L47.098,68.323z
		 M51.677,70.521l0.502,0.207v-8.796l-0.502-0.248V70.521L51.677,70.521L51.677,70.521z M56.911,64.132v8.92l2.665,1.203v-8.796
		L56.911,64.132L56.911,64.132L56.911,64.132z"/>
	<polygon style="fill-rule:evenodd;clip-rule:evenodd;fill:#26336E;" points="58.772,73.342 59.576,72.927 59.576,73.882 
		58.772,74.255 58.772,73.342 58.772,73.342 58.772,73.342 	"/>
	<polygon style="fill-rule:evenodd;clip-rule:evenodd;fill:#4A66A8;" points="0,46.043 0.855,45.71 59.576,73.301 58.921,73.591 
		0,46.043 0,46.043 0,46.043 	"/>
	<polygon style="fill-rule:evenodd;clip-rule:evenodd;fill:#30498C;" points="58.772,73.508 58.772,74.255 0,46.5 0,45.71 
		58.772,73.508 58.772,73.508 58.772,73.508 	"/>
	<polygon style="fill-rule:evenodd;clip-rule:evenodd;fill:#26336E;" points="58.772,71.932 59.576,71.6 59.576,72.514 
		58.772,72.927 58.772,71.932 58.772,71.932 58.772,71.932 	"/>
	<polygon style="fill-rule:evenodd;clip-rule:evenodd;fill:#4A66A8;" points="0,44.051 0.855,43.719 59.576,71.393 58.921,71.6 
		0,44.051 0,44.051 0,44.051 	"/>
	<polygon style="fill-rule:evenodd;clip-rule:evenodd;fill:#30498C;" points="58.772,72.18 58.772,72.927 0,45.088 0,44.383 
		58.772,72.18 58.772,72.18 58.772,72.18 	"/>
	<polygon style="fill-rule:evenodd;clip-rule:evenodd;fill:#26336E;" points="58.772,70.48 59.576,70.272 59.576,70.771 
		58.772,70.937 58.772,70.48 58.772,70.48 58.772,70.48 	"/>
	<polygon style="fill-rule:evenodd;clip-rule:evenodd;fill:#4A66A8;" points="0,42.723 0.855,42.392 59.576,69.981 58.921,70.272 
		0,42.723 0,42.723 0,42.723 	"/>
	<polygon style="fill-rule:evenodd;clip-rule:evenodd;fill:#30498C;" points="58.772,70.19 58.772,70.937 0,43.18 0,42.392 
		58.772,70.19 58.772,70.19 58.772,70.19 	"/>
	<polygon style="fill-rule:evenodd;clip-rule:evenodd;fill:#26336E;" points="21.738,51.188 22.542,51.022 22.542,51.561 
		21.738,51.685 21.738,51.188 21.738,51.188 21.738,51.188 	"/>
	<polygon style="fill-rule:evenodd;clip-rule:evenodd;fill:#4A66A8;" points="0,40.772 0.855,40.399 22.542,50.813 21.989,51.022 
		0,40.772 0,40.772 0,40.772 	"/>
	<polygon style="fill-rule:evenodd;clip-rule:evenodd;fill:#30498C;" points="21.738,50.938 21.738,51.685 0,41.853 0,41.063 
		21.738,50.938 21.738,50.938 21.738,50.938 	"/>
	<polygon style="fill-rule:evenodd;clip-rule:evenodd;fill:#26336E;" points="21.738,49.486 22.542,49.03 22.542,50.066 
		21.738,50.357 21.738,49.486 21.738,49.486 21.738,49.486 	"/>
	<polygon style="fill-rule:evenodd;clip-rule:evenodd;fill:#4A66A8;" points="0,39.528 0.855,39.073 22.542,49.361 21.989,49.694 
		0,39.528 0,39.528 0,39.528 	"/>
	<polygon style="fill-rule:evenodd;clip-rule:evenodd;fill:#30498C;" points="21.738,49.735 21.738,50.357 0,40.399 0,39.737 
		21.738,49.735 21.738,49.735 21.738,49.735 	"/>
	<polygon style="fill-rule:evenodd;clip-rule:evenodd;fill:#26336E;" points="21.738,47.909 22.542,47.703 22.542,48.2 
		21.738,48.367 21.738,47.909 21.738,47.909 21.738,47.909 	"/>
	<polygon style="fill-rule:evenodd;clip-rule:evenodd;fill:#4A66A8;" points="0,37.994 0.855,37.745 22.542,47.412 21.989,47.703 
		0,37.994 0,37.994 0,37.994 	"/>
	<polygon style="fill-rule:evenodd;clip-rule:evenodd;fill:#30498C;" points="21.738,47.619 21.738,48.367 0,38.533 0,37.745 
		21.738,47.619 21.738,47.619 21.738,47.619 	"/>
	<polygon style="fill-rule:evenodd;clip-rule:evenodd;fill:#26336E;" points="58.772,68.613 59.576,68.281 59.576,69.194 
		58.772,69.609 58.772,68.613 58.772,68.613 58.772,68.613 	"/>
	<polygon style="fill-rule:evenodd;clip-rule:evenodd;fill:#4A66A8;" points="37.034,58.696 37.739,58.324 59.576,68.737 
		58.921,68.945 37.034,58.696 37.034,58.696 37.034,58.696 	"/>
	<polygon style="fill-rule:evenodd;clip-rule:evenodd;fill:#30498C;" points="58.772,68.82 58.772,69.609 37.034,59.153 
		37.034,58.324 58.772,68.82 58.772,68.82 58.772,68.82 	"/>
	<polygon style="fill-rule:evenodd;clip-rule:evenodd;fill:#26336E;" points="58.772,67.161 59.576,66.954 59.576,67.451 
		58.772,67.617 58.772,67.161 58.772,67.161 58.772,67.161 	"/>
	<polygon style="fill-rule:evenodd;clip-rule:evenodd;fill:#4A66A8;" points="37.034,57.245 37.739,56.997 59.576,66.664 
		58.921,66.954 37.034,57.245 37.034,57.245 37.034,57.245 	"/>
	<polygon style="fill-rule:evenodd;clip-rule:evenodd;fill:#30498C;" points="58.772,66.87 58.772,67.617 37.034,57.868 
		37.034,56.997 58.772,66.87 58.772,66.87 58.772,66.87 	"/>
	<polygon style="fill-rule:evenodd;clip-rule:evenodd;fill:#26336E;" points="58.772,65.501 59.576,64.962 59.576,65.917 
		58.772,66.29 58.772,65.501 58.772,65.501 58.772,65.501 	"/>
	<polygon style="fill-rule:evenodd;clip-rule:evenodd;fill:#4A66A8;" points="37.034,55.378 37.739,55.004 59.576,65.211 
		58.921,65.626 37.034,55.378 37.034,55.378 37.034,55.378 	"/>
	<polygon style="fill-rule:evenodd;clip-rule:evenodd;fill:#30498C;" points="58.772,65.667 58.772,66.29 37.034,56.457 
		37.034,55.669 58.772,65.667 58.772,65.667 58.772,65.667 	"/>
	<polygon style="fill-rule:evenodd;clip-rule:evenodd;fill:#0F1026;" points="25.763,49.113 25.763,51.685 24.153,50.979 
		24.153,48.367 25.763,49.113 25.763,49.113 25.763,49.113 	"/>
	<polygon style="fill-rule:evenodd;clip-rule:evenodd;fill:#0F1026;" points="30.593,51.644 30.593,53.677 28.983,53.096 
		28.983,51.022 30.593,51.644 30.593,51.644 30.593,51.644 	"/>
	<polygon style="fill-rule:evenodd;clip-rule:evenodd;fill:#0F1026;" points="36.229,54.299 36.229,56.332 34.619,55.751 
		34.619,53.677 36.229,54.299 36.229,54.299 36.229,54.299 	"/>
</g>
</svg>