<?xml version="1.0" encoding="iso-8859-1"?>
<!DOCTYPE svg PUBLIC "-//W3C//DTD SVG 1.1//EN" "http://www.w3.org/Graphics/SVG/1.1/DTD/svg11.dtd">
<svg version="1.1" xmlns="http://www.w3.org/2000/svg" xmlns:xlink="http://www.w3.org/1999/xlink" width="106" height="56" viewBox="0 0 106 56">
<g>
	<polygon style="fill-rule:evenodd;clip-rule:evenodd;fill:#26336E;" points="0,22.654 46.907,0 47.011,5.664 0.155,28.146 
		0,22.654 0,22.654 0,22.654 	"/>
	<polygon style="fill-rule:evenodd;clip-rule:evenodd;fill:#4A66A8;" points="0,27.931 46.599,5.492 105.567,33.766 59.021,56.292 
		0,27.931 0,27.931 0,27.931 	"/>
	<polygon style="fill-rule:evenodd;clip-rule:evenodd;fill:#30498C;" points="59.382,50.199 59.276,54.918 1.649,27.33 
		1.649,22.654 59.382,50.199 59.382,50.199 59.382,50.199 	"/>
	<polygon style="fill-rule:evenodd;clip-rule:evenodd;fill:#26336E;" points="59.382,50.584 105.567,28.146 105.567,33.766 
		59.382,56.292 59.382,50.584 59.382,50.584 59.382,50.584 	"/>
	<polygon style="fill-rule:evenodd;clip-rule:evenodd;fill:#4A66A8;" points="0,22.611 46.546,0 105.567,28.36 59.072,50.8 
		0,22.611 0,22.611 0,22.611 	"/>
	<polygon style="fill-rule:evenodd;clip-rule:evenodd;fill:#010101;" points="6.598,26.772 6.598,27.76 5.773,28.146 4.021,27.374 
		3.299,26.516 3.299,25.4 6.598,26.772 6.598,26.772 6.598,26.772 	"/>
	<polygon style="fill-rule:evenodd;clip-rule:evenodd;fill:#415894;" points="3.299,26.344 3.66,26.086 4.124,27.374 3.917,27.459 
		3.299,26.344 3.299,26.344 3.299,26.344 	"/>
	<polygon style="fill-rule:evenodd;clip-rule:evenodd;fill:#384F87;" points="4.124,27.631 4.33,27.459 5.773,28.575 5.516,28.832 
		4.124,27.631 4.124,27.631 4.124,27.631 	"/>
	<polygon style="fill-rule:evenodd;clip-rule:evenodd;fill:#A09FB3;" points="4.124,26.344 4.948,26.086 4.948,26.559 4.124,26.772 
		4.124,26.344 4.124,26.344 4.124,26.344 	"/>
	<polygon style="fill-rule:evenodd;clip-rule:evenodd;fill:#B7B2C6;" points="4.124,27.245 4.536,26.772 4.948,27.03 4.33,27.459 
		4.124,27.245 4.124,27.245 4.124,27.245 	"/>
	<polygon style="fill-rule:evenodd;clip-rule:evenodd;fill:#6B6D7F;" points="5.773,26.945 5.773,27.459 4.948,27.459 4.948,26.772 
		5.773,26.945 5.773,26.945 5.773,26.945 	"/>
	<path style="fill-rule:evenodd;clip-rule:evenodd;fill:#1D2E58;" d="M7.784,28.36c0.464-0.215,0.464-0.215,0.464-0.215
		c0,0.386-1.031,1.116-1.134,1.116c-0.515,0.257-0.515,0.257-0.515,0.257C6.598,29.433,7.784,28.789,7.784,28.36L7.784,28.36"/>
	<polygon style="fill-rule:evenodd;clip-rule:evenodd;fill:#384F87;" points="2.474,24.843 2.938,24.714 7.423,26.559 7.01,26.772 
		2.474,24.843 2.474,24.843 2.474,24.843 	"/>
	<path style="fill-rule:evenodd;clip-rule:evenodd;fill:#415996;" d="M6.598,27.03c0.618-0.257,0.618-0.257,0.618-0.257
		c0,0.086,1.031,1.544,1.031,1.932c-0.464,0.128-0.464,0.128-0.464,0.128C7.784,28.575,6.598,27.073,6.598,27.03L6.598,27.03"/>
	<path style="fill-rule:evenodd;clip-rule:evenodd;fill:#1F2F5B;" d="M6.649,26.858c0,0.086,0.773,1.458,0.773,1.759
		c0,0.343-0.773,0.859-0.773,0.902c-4.175-2.102-4.175-2.102-4.175-2.102c-0.103-0.087-0.825-1.331-0.825-1.674
		c0-0.386,0.722-1.029,0.825-1.029C6.649,26.858,6.649,26.858,6.649,26.858L6.649,26.858L6.649,26.858z M6.237,28.189
		c0-1.245,0-1.245,0-1.245c-3.351-1.716-3.351-1.716-3.351-1.716c0,1.287,0,1.287,0,1.287c0.722,1.2,0.722,1.2,0.722,1.2
		c1.907,0.988,1.907,0.988,1.907,0.988C6.237,28.189,6.237,28.189,6.237,28.189"/>
	<path style="fill-rule:evenodd;clip-rule:evenodd;fill:#9E9CB0;" d="M24.587,36.385c-0.051,0-0.154,0-0.154,0
		c-0.516,0.299-0.516,0.299-0.516,0.299c0.103-0.085,0.155-0.085,0.155,0c0.103,0.043,0.258,0.129,0.258,0.3
		c0,0.043-0.052,0.043-0.052,0.086c0.103-0.086,0.309-0.128,0.413-0.257l0,0c0.051,0,0.051-0.042,0.051-0.085
		C24.742,36.599,24.691,36.469,24.587,36.385"/>
	<path style="fill-rule:evenodd;clip-rule:evenodd;fill:#525768;" d="M24.278,36.469c0.258,0.087,0.464,0.215,0.464,0.43
		c0,0.129-0.206,0.171-0.464,0.043c-0.103-0.043-0.361-0.214-0.361-0.343C23.917,36.469,24.175,36.385,24.278,36.469L24.278,36.469"
		/>
	<path style="fill-rule:evenodd;clip-rule:evenodd;fill:#3C538D;" d="M28.866,37.5c0-0.042-0.154-0.087-0.309-0.129
		c-0.361-0.214-0.979-0.429-1.134-0.558c0,0,0,0-0.104,0c-0.309-0.129-1.031-0.428-1.082-0.344c-0.67,0.215-0.67,0.215-0.67,0.215
		c0.103,0,0.825,0.258,1.134,0.344c0.051,0,0.051,0.042,0.154,0.042c0.155,0.086,0.722,0.3,1.083,0.515
		c0.258,0.043,0.31,0.128,0.413,0.172l0,0C28.866,37.5,28.866,37.5,28.866,37.5L28.866,37.5"/>
	<path style="fill-rule:evenodd;clip-rule:evenodd;fill:#26336E;" d="M28.866,37.885v-0.042l0,0c0,0,0-0.085-0.051-0.085
		c-0.516,0.3-0.516,0.3-0.516,0.3l0,0c0,0,0,0,0,0.042l0,0c0,0.085,0,0.129,0,0.172c0,0.3-0.155,0.814-0.258,0.858
		c0.619-0.258,0.619-0.258,0.619-0.258s0.206-0.514,0.206-0.858C28.866,37.928,28.866,37.928,28.866,37.885"/>
	<path style="fill-rule:evenodd;clip-rule:evenodd;fill:#2A3E71;" d="M26.134,36.898c0.052,0,0.052,0.043,0.155,0.043
		c0.258,0.128,1.443,0.687,1.598,0.901c0.154,0.215-0.155,1.244-0.258,1.288c0,0-0.825-0.345-1.598-0.687
		c-0.412-0.171-0.825-0.386-0.928-0.515c-0.155-0.215-0.361-1.373-0.155-1.459l0,0C25,36.385,25.773,36.727,26.134,36.898
		L26.134,36.898"/>
	<path style="fill-rule:evenodd;clip-rule:evenodd;fill:#9E9CB0;" d="M29.33,38.443c-0.104,0-0.258,0-0.258,0
		c-1.031,0.3-1.031,0.3-1.031,0.3c0-0.085,0.155-0.085,0.258,0c0.258,0.042,0.516,0.215,0.516,0.3c0,0.042-0.103,0.042-0.103,0.087
		c0.258-0.087,0.515-0.13,0.876-0.172c0-0.086,0-0.086,0-0.086c0.104,0,0.104-0.043,0.104-0.086
		C29.691,38.658,29.587,38.572,29.33,38.443"/>
	<path style="fill-rule:evenodd;clip-rule:evenodd;fill:#525768;" d="M28.402,38.529c0.258,0.085,0.464,0.256,0.464,0.429
		c0,0.128-0.206,0.172-0.464,0.128c-0.206-0.128-0.361-0.3-0.361-0.428C28.041,38.529,28.196,38.443,28.402,38.529L28.402,38.529"/>
	<polygon style="fill-rule:evenodd;clip-rule:evenodd;fill:#CEC8DA;" points="57.731,51.229 53.041,49.041 53.041,49.041 
		50.825,47.881 50.825,47.881 48.454,46.853 48.454,46.853 46.083,45.694 46.083,45.694 43.712,44.622 43.712,46.853 46.083,48.01 
		46.083,48.01 48.298,49.041 50.669,50.199 50.669,50.199 57.731,53.546 57.731,51.229 57.731,51.229 	"/>
	<polygon style="fill-rule:evenodd;clip-rule:evenodd;fill:#26336E;" points="56.856,51.1 56.856,51.314 57.731,51.615 
		57.731,52.859 55.257,52.086 55.257,50.8 56.186,51.1 56.186,50.929 56.856,51.1 56.856,51.1 56.856,51.1 	"/>
	<polygon style="fill-rule:evenodd;clip-rule:evenodd;fill:#26336E;" points="54.793,49.728 54.793,49.941 55.257,50.242 
		55.257,51.485 53.607,50.714 53.607,49.427 54.228,49.728 54.228,49.557 54.793,49.728 54.793,49.728 54.793,49.728 	"/>
	<polygon style="fill-rule:evenodd;clip-rule:evenodd;fill:#26336E;" points="52.216,49.041 52.216,49.255 52.784,49.427 
		52.784,50.8 51.134,50.028 51.134,48.74 51.649,48.956 51.649,48.74 52.216,49.041 52.216,49.041 52.216,49.041 	"/>
	<polygon style="fill-rule:evenodd;clip-rule:evenodd;fill:#26336E;" points="49.742,47.667 49.742,47.881 50.309,48.182 
		50.309,49.427 48.659,48.654 48.815,47.367 49.278,47.667 49.278,47.496 49.742,47.667 49.742,47.667 49.742,47.667 	"/>
	<polygon style="fill-rule:evenodd;clip-rule:evenodd;fill:#26336E;" points="47.938,46.424 47.938,46.809 48.659,47.196 
		48.659,48.74 46.186,47.839 46.186,45.994 46.958,46.424 46.958,46.166 47.938,46.424 47.938,46.424 47.938,46.424 	"/>
	<polygon style="fill-rule:evenodd;clip-rule:evenodd;fill:#26336E;" points="45.619,45.608 45.619,45.823 46.186,46.123 
		46.186,47.367 44.536,46.595 44.536,45.307 45.051,45.608 45.051,45.307 45.619,45.608 45.619,45.608 45.619,45.608 	"/>
	<polygon style="fill-rule:evenodd;clip-rule:evenodd;fill:#CEC8DA;" points="35.464,40.331 35.464,42.562 32.99,41.532 
		32.99,39.13 35.464,40.331 35.464,40.331 35.464,40.331 	"/>
	<polygon style="fill-rule:evenodd;clip-rule:evenodd;fill:#26336E;" points="34.072,40.159 34.072,40.331 34.639,40.674 
		34.639,41.876 32.99,41.189 32.99,39.815 33.608,40.159 33.608,39.815 34.072,40.159 34.072,40.159 34.072,40.159 	"/>
	<polygon style="fill-rule:evenodd;clip-rule:evenodd;fill:#CEC8DA;" points="39.587,42.347 39.587,44.622 37.113,43.507 
		37.113,41.189 39.587,42.347 39.587,42.347 39.587,42.347 	"/>
	<polygon style="fill-rule:evenodd;clip-rule:evenodd;fill:#26336E;" points="38.865,42.176 38.865,42.39 39.587,42.69 
		39.587,43.935 37.113,43.162 37.113,41.876 38.093,42.09 38.093,41.876 38.865,42.176 38.865,42.176 38.865,42.176 	"/>
</g>
</svg>