<?xml version="1.0" encoding="iso-8859-1"?>
<!DOCTYPE svg PUBLIC "-//W3C//DTD SVG 1.1//EN" "http://www.w3.org/Graphics/SVG/1.1/DTD/svg11.dtd">
<svg version="1.1" xmlns="http://www.w3.org/2000/svg" xmlns:xlink="http://www.w3.org/1999/xlink" width="58" height="43" viewBox="0 0 58 43">
<g>
	<polygon style="fill-rule:evenodd;clip-rule:evenodd;fill:#26336E;" points="58.961,16.441 58.889,25.158 29.48,41.953 
		29.586,33.377 58.961,16.441 58.961,16.441 58.961,16.441 58.961,16.441 	"/>
	<polygon style="fill-rule:evenodd;clip-rule:evenodd;fill:#30498C;" points="29.48,33.377 29.409,41.953 0,25.158 0.106,16.441 
		29.48,33.377 29.48,33.377 29.48,33.377 29.48,33.377 	"/>
	<polygon style="fill-rule:evenodd;clip-rule:evenodd;fill:#4A66A8;" points="58.961,16.689 29.87,33.449 0.567,16.689 29.693,0 
		58.961,16.689 58.961,16.689 58.961,16.689 58.961,16.689 	"/>
	<polygon style="fill-rule:evenodd;clip-rule:evenodd;fill:#26336E;" points="30.047,18.142 27.319,18.142 27.212,15.874 
		30.047,15.874 30.047,18.142 30.047,18.142 30.047,18.142 30.047,18.142 	"/>
	<path style="fill-rule:evenodd;clip-rule:evenodd;fill:#26336E;" d="M47.622,17.008c0,0.603,0.391,1.134,1.135,1.523
		c-2.375,1.311-2.375,1.311-2.375,1.311c-1.381-0.779-2.16-1.771-2.16-2.834c0-1.099,0.744-2.09,2.125-2.834
		c2.375,1.346,2.375,1.346,2.375,1.346C48.012,15.909,47.622,16.441,47.622,17.008L47.622,17.008L47.622,17.008"/>
	<path style="fill-rule:evenodd;clip-rule:evenodd;fill:#26336E;" d="M11.161,14.173c1.205,0.744,1.843,1.807,1.843,2.834
		c0.035,1.063-0.638,2.126-1.843,2.834c-2.09-1.311-2.09-1.311-2.09-1.311c0.638-0.39,0.992-0.921,0.992-1.523
		c0-0.567-0.354-1.099-0.992-1.488c2.055-1.346,2.055-1.346,2.055-1.346S11.126,14.173,11.161,14.173L11.161,14.173L11.161,14.173"
		/>
	<path style="fill-rule:evenodd;clip-rule:evenodd;fill:#26336E;" d="M41.917,22.677c-2.516-1.488-3.932-3.508-3.932-5.669
		c0-2.126,1.381-4.146,3.861-5.669c2.375,1.417,2.375,1.417,2.375,1.417c-1.879,1.134-2.906,2.658-2.906,4.252
		c0,1.595,1.027,3.118,2.906,4.288C41.917,22.677,41.917,22.677,41.917,22.677L41.917,22.677L41.917,22.677"/>
	<path style="fill-rule:evenodd;clip-rule:evenodd;fill:#26336E;" d="M15.59,11.338c2.729,1.524,4.252,3.543,4.252,5.669
		c0,2.162-1.453,4.181-4.216,5.669c-2.516-1.382-2.516-1.382-2.516-1.382c2.055-1.134,3.189-2.658,3.189-4.288
		c0-1.594-1.134-3.118-3.26-4.252C15.59,11.338,15.59,11.338,15.59,11.338L15.59,11.338L15.59,11.338"/>
	<path style="fill-rule:evenodd;clip-rule:evenodd;fill:#26336E;" d="M40.145,10.417c-3.152,1.771-4.924,4.075-4.924,6.59
		c0.07,2.48,1.807,4.854,5.031,6.626c-2.41,1.311-2.41,1.311-2.41,1.311c-3.934-2.126-6.023-4.925-6.094-7.937
		c0-2.977,2.125-5.775,5.953-7.937C40.145,10.417,40.145,10.417,40.145,10.417L40.145,10.417L40.145,10.417"/>
	<path style="fill-rule:evenodd;clip-rule:evenodd;fill:#26336E;" d="M20.02,9.071c3.933,2.091,6.059,4.96,6.059,7.937
		c0,3.012-2.09,5.811-5.953,7.937c-2.41-1.311-2.41-1.311-2.41-1.311c3.154-1.772,4.925-4.146,4.925-6.626
		c0-2.516-1.807-4.819-5.067-6.59C20.02,9.071,20.02,9.071,20.02,9.071L20.02,9.071L20.02,9.071"/>
	<polygon style="fill-rule:evenodd;clip-rule:evenodd;fill:#FFFFFF;" points="30.047,17.575 27.319,17.575 27.212,15.307 
		30.047,15.307 30.047,17.575 30.047,17.575 30.047,17.575 30.047,17.575 	"/>
	<path style="fill-rule:evenodd;clip-rule:evenodd;fill:#FFFFFF;" d="M47.622,16.441c0,0.603,0.391,1.134,1.135,1.523
		c-2.375,1.311-2.375,1.311-2.375,1.311c-1.381-0.708-2.16-1.771-2.16-2.834c0-1.027,0.744-2.02,2.125-2.834
		c2.375,1.346,2.375,1.346,2.375,1.346C48.012,15.342,47.622,15.874,47.622,16.441L47.622,16.441L47.622,16.441"/>
	<path style="fill-rule:evenodd;clip-rule:evenodd;fill:#FFFFFF;" d="M11.161,13.606c1.205,0.815,1.843,1.807,1.843,2.834
		c0.035,1.134-0.638,2.126-1.843,2.834c-2.09-1.311-2.09-1.311-2.09-1.311c0.638-0.354,0.992-0.921,0.992-1.523
		c0-0.567-0.354-1.099-0.992-1.488c2.055-1.346,2.055-1.346,2.055-1.346S11.126,13.606,11.161,13.606L11.161,13.606L11.161,13.606"
		/>
	<path style="fill-rule:evenodd;clip-rule:evenodd;fill:#FFFFFF;" d="M41.917,21.543c-2.516-1.417-3.932-3.331-3.932-5.386
		c0-2.02,1.381-3.933,3.861-5.386c2.375,1.347,2.375,1.347,2.375,1.347c-1.879,1.134-2.906,2.551-2.906,4.039
		c0,1.559,1.027,3.012,2.906,4.075C41.917,21.543,41.917,21.543,41.917,21.543L41.917,21.543L41.917,21.543"/>
	<path style="fill-rule:evenodd;clip-rule:evenodd;fill:#FFFFFF;" d="M15.59,10.771c2.729,1.453,4.252,3.366,4.252,5.386
		c0,2.055-1.453,3.969-4.216,5.386c-2.516-1.311-2.516-1.311-2.516-1.311c2.055-1.063,3.189-2.516,3.189-4.075
		c0-1.523-1.134-2.976-3.26-4.039C15.59,10.771,15.59,10.771,15.59,10.771L15.59,10.771L15.59,10.771"/>
	<path style="fill-rule:evenodd;clip-rule:evenodd;fill:#FFFFFF;" d="M40.145,9.85c-3.152,1.772-4.924,4.146-4.924,6.591
		c0.07,2.551,1.807,4.854,5.031,6.626c-2.41,1.311-2.41,1.311-2.41,1.311c-3.934-2.126-6.023-4.925-6.094-7.937
		c0-2.977,2.125-5.775,5.953-7.937C40.145,9.85,40.145,9.85,40.145,9.85L40.145,9.85L40.145,9.85"/>
	<path style="fill-rule:evenodd;clip-rule:evenodd;fill:#FFFFFF;" d="M20.02,8.504c3.933,2.162,6.059,4.96,6.059,7.937
		c0,3.012-2.09,5.847-5.953,7.937c-2.41-1.311-2.41-1.311-2.41-1.311c3.154-1.771,4.925-4.075,4.925-6.626
		c0-2.445-1.807-4.819-5.067-6.591C20.02,8.504,20.02,8.504,20.02,8.504L20.02,8.504L20.02,8.504"/>
</g>
</svg>