<?xml version="1.0" encoding="UTF-8"?>
<svg xmlns="http://www.w3.org/2000/svg" xmlns:xlink="http://www.w3.org/1999/xlink" width="48" height="24" viewBox="0 0 48 24" version="1.1">
<g id="surface0">
<path style=" stroke:none;fill-rule:nonzero;fill:rgb(70.000763%,70.000763%,70.000763%);fill-opacity:1;" d="M 0.1875 12.394531 L 14.613281 0.726562 L 47.925781 0.726562 L 35.984375 12.394531 L 0.1875 12.394531 "/>
<path style=" stroke:none;fill-rule:nonzero;fill:rgb(0%,0%,0%);fill-opacity:1;" d="M 32.910156 6.890625 L 33.800781 6.003906 L 36.574219 7.261719 L 31.710938 8.660156 L 32.8125 7.207031 L 23.945312 7.207031 L 24.265625 6.890625 L 32.910156 6.890625 "/>
<path style=" stroke:none;fill-rule:nonzero;fill:rgb(0%,0%,0%);fill-opacity:1;" d="M 27.585938 3.914062 L 27.269531 4.234375 L 18.230469 4.234375 L 16.859375 5.296875 L 14.53125 4.15625 L 19.867188 2.59375 L 18.546875 3.914062 L 27.585938 3.914062 "/>
<path style=" stroke:none;fill-rule:nonzero;fill:rgb(0%,0%,0%);fill-opacity:1;" d="M 22.601562 8.945312 L 22.28125 9.265625 L 13.199219 9.265625 L 11.828125 10.28125 L 9.414062 9.144531 L 14.882812 7.625 L 13.648438 8.945312 L 22.601562 8.945312 "/>
<path style=" stroke:none;fill-rule:nonzero;fill:rgb(0%,0%,0%);fill-opacity:1;" d="M 38.03125 2.691406 L 38.917969 1.800781 L 41.691406 3.019531 L 36.828125 4.417969 L 37.886719 3.007812 L 28.976562 3.007812 L 29.296875 2.691406 L 38.03125 2.691406 "/>
<path style=" stroke:none;fill-rule:nonzero;fill:rgb(100%,100%,100%);fill-opacity:1;" d="M 32.953125 7.195312 L 33.84375 6.308594 L 36.269531 7.351562 L 31.402344 8.746094 L 32.636719 7.515625 L 23.726562 7.515625 L 24.046875 7.195312 L 32.953125 7.195312 "/>
<path style=" stroke:none;fill-rule:nonzero;fill:rgb(100%,100%,100%);fill-opacity:1;" d="M 27.28125 4.222656 L 26.964844 4.539062 L 18.054688 4.539062 L 17.164062 5.425781 L 14.75 4.375 L 19.605469 2.988281 L 18.371094 4.222656 L 27.28125 4.222656 "/>
<path style=" stroke:none;fill-rule:nonzero;fill:rgb(20%,20%,20%);fill-opacity:1;" d="M 35.984375 23.988281 L 47.925781 11.097656 L 47.925781 0.746094 L 35.984375 12.394531 L 35.984375 23.988281 "/>
<path style=" stroke:none;fill-rule:nonzero;fill:rgb(100%,100%,100%);fill-opacity:1;" d="M 22.25 9.253906 L 21.933594 9.570312 L 13.023438 9.570312 L 12.136719 10.457031 L 9.71875 9.40625 L 14.574219 8.019531 L 13.339844 9.253906 L 22.25 9.253906 "/>
<path style=" stroke:none;fill-rule:nonzero;fill:rgb(100%,100%,100%);fill-opacity:1;" d="M 38.03125 2.996094 L 38.917969 2.109375 L 41.34375 3.148438 L 36.476562 4.546875 L 37.710938 3.3125 L 28.804688 3.3125 L 29.121094 2.996094 L 38.03125 2.996094 "/>
<path style="fill:none;stroke-width:0.28;stroke-linecap:round;stroke-linejoin:miter;stroke:rgb(0%,0%,0%);stroke-opacity:1;stroke-miterlimit:4;" d="M 37.453125 20.632812 L 36.359375 19.539062 M 32.335938 16.390625 L 31.242188 15.296875 M 24.199219 16.957031 L 23.671875 16.519531 M 29.316406 21.203125 L 28.835938 20.765625 " transform="matrix(1,0,0,-1,0,24)"/>
<path style=" stroke:none;fill-rule:nonzero;fill:rgb(50.000763%,50.000763%,50.000763%);fill-opacity:1;" d="M 0.234375 12.394531 L 35.984375 12.394531 L 35.984375 23.941406 L 0.234375 23.941406 L 0.234375 12.394531 Z M 0.234375 12.394531 "/>
</g>
</svg>
