<?xml version="1.0" encoding="UTF-8"?>
<svg xmlns="http://www.w3.org/2000/svg" xmlns:xlink="http://www.w3.org/1999/xlink" width="37" height="16" viewBox="0 0 37 16" version="1.1">
<g id="surface0">
<path style=" stroke:none;fill-rule:nonzero;fill:rgb(71.200122%,71.200122%,71.200122%);fill-opacity:1;" d="M 0.71875 6.089844 L 8.410156 0.402344 L 36.515625 0.402344 L 30.921875 6.089844 L 0.71875 6.089844 "/>
<path style=" stroke:none;fill-rule:nonzero;fill:rgb(23.199817%,23.199817%,23.199817%);fill-opacity:1;" d="M 30.921875 15.871094 L 36.515625 10.203125 L 36.515625 0.417969 L 30.921875 6.089844 L 30.921875 15.871094 "/>
<path style=" stroke:none;fill-rule:nonzero;fill:rgb(51.999695%,51.999695%,51.999695%);fill-opacity:1;" d="M 0.757812 6.089844 L 30.921875 6.089844 L 30.921875 15.882812 L 0.757812 15.882812 L 0.757812 6.089844 Z M 0.757812 6.089844 "/>
<path style="fill:none;stroke-width:0.45;stroke-linecap:round;stroke-linejoin:miter;stroke:rgb(100%,100%,100%);stroke-opacity:1;stroke-miterlimit:1;" d="M 28.523438 4.941406 C 28.523438 4.941406 26.566406 -0.0898438 24.214844 4.953125 C 21.863281 9.996094 19.902344 4.964844 19.902344 4.964844 C 19.902344 4.964844 17.945312 -0.0664062 15.597656 4.976562 C 13.246094 10.019531 11.296875 4.945312 11.296875 4.945312 C 11.296875 4.945312 9.34375 -0.0898438 6.992188 4.953125 C 4.640625 9.996094 2.691406 4.96875 2.691406 4.96875 " transform="matrix(1,0,0,-1,0,16)"/>
<path style="fill:none;stroke-width:0.9;stroke-linecap:round;stroke-linejoin:miter;stroke:rgb(100%,100%,100%);stroke-opacity:1;stroke-miterlimit:1;" d="M 2.691406 4.941406 C 2.691406 4.941406 4.648438 -0.0898438 7 4.953125 C 9.351562 9.996094 11.3125 4.964844 11.3125 4.964844 C 11.3125 4.964844 13.269531 -0.0664062 15.617188 4.976562 C 17.96875 10.019531 19.917969 4.945312 19.917969 4.945312 C 19.917969 4.945312 21.871094 -0.0898438 24.222656 4.953125 C 26.570312 9.996094 28.523438 4.96875 28.523438 4.96875 " transform="matrix(1,0,0,-1,0,16)"/>
<path style="fill:none;stroke-width:0.45;stroke-linecap:round;stroke-linejoin:miter;stroke:rgb(13.730068%,12.159915%,12.54902%);stroke-opacity:1;stroke-miterlimit:1;" d="M 28.976562 4.941406 C 28.976562 4.941406 27.019531 -0.0898438 24.664062 4.953125 C 22.316406 9.996094 20.355469 4.964844 20.355469 4.964844 C 20.355469 4.964844 18.398438 -0.0703125 16.050781 4.976562 C 13.699219 10.019531 11.75 4.945312 11.75 4.945312 C 11.75 4.945312 9.796875 -0.0898438 7.445312 4.953125 C 5.09375 9.996094 3.144531 4.96875 3.144531 4.96875 " transform="matrix(1,0,0,-1,0,16)"/>
<path style="fill:none;stroke-width:0.9;stroke-linecap:round;stroke-linejoin:miter;stroke:rgb(13.730068%,12.159915%,12.54902%);stroke-opacity:1;stroke-miterlimit:1;" d="M 3.144531 4.941406 C 3.144531 4.941406 5.101562 -0.0898438 7.453125 4.953125 C 9.804688 9.996094 11.765625 4.964844 11.765625 4.964844 C 11.765625 4.964844 13.722656 -0.0703125 16.070312 4.976562 C 18.421875 10.019531 20.371094 4.945312 20.371094 4.945312 C 20.371094 4.945312 22.320312 -0.0898438 24.675781 4.953125 C 27.023438 9.996094 28.976562 4.96875 28.976562 4.96875 " transform="matrix(1,0,0,-1,0,16)"/>
<path style="fill:none;stroke-width:0.45;stroke-linecap:round;stroke-linejoin:miter;stroke:rgb(100%,100%,100%);stroke-opacity:1;stroke-miterlimit:1;" d="M 28.523438 4.941406 C 28.523438 4.941406 26.566406 -0.0898438 24.214844 4.953125 C 21.863281 9.996094 19.902344 4.964844 19.902344 4.964844 C 19.902344 4.964844 17.945312 -0.0664062 15.597656 4.976562 C 13.246094 10.019531 11.296875 4.945312 11.296875 4.945312 C 11.296875 4.945312 9.34375 -0.0898438 6.992188 4.953125 C 4.640625 9.996094 2.691406 4.96875 2.691406 4.96875 " transform="matrix(1,0,0,-1,0,16)"/>
<path style="fill:none;stroke-width:0.9;stroke-linecap:round;stroke-linejoin:miter;stroke:rgb(100%,100%,100%);stroke-opacity:1;stroke-miterlimit:1;" d="M 2.691406 4.941406 C 2.691406 4.941406 4.648438 -0.0898438 7 4.953125 C 9.351562 9.996094 11.3125 4.964844 11.3125 4.964844 C 11.3125 4.964844 13.269531 -0.0664062 15.617188 4.976562 C 17.96875 10.019531 19.917969 4.945312 19.917969 4.945312 C 19.917969 4.945312 21.871094 -0.0898438 24.222656 4.953125 C 26.570312 9.996094 28.523438 4.96875 28.523438 4.96875 " transform="matrix(1,0,0,-1,0,16)"/>
<path style="fill:none;stroke-width:0.45;stroke-linecap:round;stroke-linejoin:miter;stroke:rgb(13.730068%,12.159915%,12.54902%);stroke-opacity:1;stroke-miterlimit:1;" d="M 28.976562 4.941406 C 28.976562 4.941406 27.019531 -0.0898438 24.664062 4.953125 C 22.316406 9.996094 20.355469 4.964844 20.355469 4.964844 C 20.355469 4.964844 18.398438 -0.0703125 16.050781 4.976562 C 13.699219 10.019531 11.75 4.945312 11.75 4.945312 C 11.75 4.945312 9.796875 -0.0898438 7.445312 4.953125 C 5.09375 9.996094 3.144531 4.96875 3.144531 4.96875 " transform="matrix(1,0,0,-1,0,16)"/>
<path style="fill:none;stroke-width:0.9;stroke-linecap:round;stroke-linejoin:miter;stroke:rgb(13.730068%,12.159915%,12.54902%);stroke-opacity:1;stroke-miterlimit:1;" d="M 3.144531 4.941406 C 3.144531 4.941406 5.101562 -0.0898438 7.453125 4.953125 C 9.804688 9.996094 11.765625 4.964844 11.765625 4.964844 C 11.765625 4.964844 13.722656 -0.0703125 16.070312 4.976562 C 18.421875 10.019531 20.371094 4.945312 20.371094 4.945312 C 20.371094 4.945312 22.320312 -0.0898438 24.675781 4.953125 C 27.023438 9.996094 28.976562 4.96875 28.976562 4.96875 " transform="matrix(1,0,0,-1,0,16)"/>
<path style="fill:none;stroke-width:0.45;stroke-linecap:round;stroke-linejoin:miter;stroke:rgb(100%,100%,100%);stroke-opacity:1;stroke-miterlimit:1;" d="M 28.523438 4.941406 C 28.523438 4.941406 26.566406 -0.0898438 24.214844 4.953125 C 21.863281 9.996094 19.902344 4.964844 19.902344 4.964844 C 19.902344 4.964844 17.945312 -0.0664062 15.597656 4.976562 C 13.246094 10.019531 11.296875 4.945312 11.296875 4.945312 C 11.296875 4.945312 9.34375 -0.0898438 6.992188 4.953125 C 4.640625 9.996094 2.691406 4.96875 2.691406 4.96875 " transform="matrix(1,0,0,-1,0,16)"/>
<path style="fill:none;stroke-width:0.9;stroke-linecap:round;stroke-linejoin:miter;stroke:rgb(100%,100%,100%);stroke-opacity:1;stroke-miterlimit:1;" d="M 2.691406 4.941406 C 2.691406 4.941406 4.648438 -0.0898438 7 4.953125 C 9.351562 9.996094 11.3125 4.964844 11.3125 4.964844 C 11.3125 4.964844 13.269531 -0.0664062 15.617188 4.976562 C 17.96875 10.019531 19.917969 4.945312 19.917969 4.945312 C 19.917969 4.945312 21.871094 -0.0898438 24.222656 4.953125 C 26.570312 9.996094 28.523438 4.96875 28.523438 4.96875 " transform="matrix(1,0,0,-1,0,16)"/>
</g>
</svg>
