<?xml version="1.0" encoding="UTF-8"?>
<svg xmlns="http://www.w3.org/2000/svg" xmlns:xlink="http://www.w3.org/1999/xlink" width="52" height="30" viewBox="0 0 52 30" version="1.1">
<defs>
<clipPath id="clip1">
  <path d="M 46.023438 12.414062 C 46.023438 15.277344 40.054688 17.601562 32.691406 17.601562 C 25.328125 17.601562 19.359375 15.277344 19.359375 12.414062 L 19.359375 20.007812 C 19.359375 22.871094 25.328125 25.191406 32.691406 25.191406 C 40.054688 25.191406 46.023438 22.871094 46.023438 20.007812 L 46.023438 12.414062 "/>
</clipPath>
<clipPath id="clip2">
  <path d="M 29.773438 10.339844 L 30.890625 12.011719 L 26.667969 12.988281 L 27.589844 12.21875 L 21.066406 11.105469 L 22.703125 9.878906 L 28.996094 10.945312 L 29.773438 10.339844 "/>
</clipPath>
<clipPath id="clip3">
  <path d="M 35.710938 14.398438 L 34.949219 12.671875 L 38.757812 11.910156 L 38.097656 12.503906 L 44.445312 13.585938 L 42.921875 14.804688 L 36.613281 13.621094 L 35.710938 14.398438 "/>
</clipPath>
<clipPath id="clip4">
  <path d="M 33.632812 9.425781 L 37.894531 8.257812 L 37.945312 10.085938 L 36.878906 9.882812 L 34.796875 11.605469 L 32.8125 11.316406 L 34.960938 9.628906 L 33.632812 9.425781 "/>
</clipPath>
<clipPath id="clip5">
  <path d="M 31.804688 15.972656 L 27.742188 16.734375 L 27.589844 14.855469 L 28.757812 15.109375 L 30.992188 13.199219 L 32.96875 13.535156 L 30.585938 15.617188 L 31.804688 15.972656 "/>
</clipPath>
</defs>
<g id="surface0">
<path style="fill:none;stroke-width:0.8;stroke-linecap:round;stroke-linejoin:round;stroke:rgb(0%,0%,0%);stroke-opacity:1;stroke-miterlimit:4;" d="M 42.785156 1.222656 L 15.109375 1.222656 L 22.847656 5.886719 L 50.769531 5.925781 L 42.785156 1.222656 Z M 22.847656 5.886719 L 15.109375 1.222656 L 15.105469 24.148438 L 22.847656 28.636719 L 22.847656 5.886719 Z M 22.847656 5.886719 " transform="matrix(1,0,0,-1,0,30)"/>
<path style="fill-rule:nonzero;fill:rgb(13.730068%,12.159915%,12.54902%);fill-opacity:1;stroke-width:0.42;stroke-linecap:butt;stroke-linejoin:miter;stroke:rgb(100%,100%,100%);stroke-opacity:1;stroke-miterlimit:4;" d="M 46.023438 17.585938 C 46.023438 14.722656 40.054688 12.398438 32.691406 12.398438 C 25.328125 12.398438 19.359375 14.722656 19.359375 17.585938 L 19.359375 9.992188 C 19.359375 7.128906 25.328125 4.808594 32.691406 4.808594 C 40.054688 4.808594 46.023438 7.128906 46.023438 9.992188 L 46.023438 17.585938 Z M 46.023438 17.585938 " transform="matrix(1,0,0,-1,0,30)"/>
<g clip-path="url(#clip1)" clip-rule="nonzero">
<path style=" stroke:none;fill-rule:nonzero;fill:rgb(48.317693%,47.377737%,47.6112%);fill-opacity:1;" d="M 19.359375 12.414062 L 19.359375 25.191406 L 19.566406 25.191406 L 19.566406 12.414062 L 19.359375 12.414062 Z M 19.359375 12.414062 "/>
<path style=" stroke:none;fill-rule:nonzero;fill:rgb(49.069963%,48.142214%,48.372625%);fill-opacity:1;" d="M 19.566406 12.414062 L 19.566406 25.191406 L 19.671875 25.191406 L 19.671875 12.414062 L 19.566406 12.414062 Z M 19.566406 12.414062 "/>
<path style=" stroke:none;fill-rule:nonzero;fill:rgb(49.742885%,48.82887%,49.056229%);fill-opacity:1;" d="M 19.671875 12.414062 L 19.671875 25.191406 L 19.773438 25.191406 L 19.773438 12.414062 L 19.671875 12.414062 Z M 19.671875 12.414062 "/>
<path style=" stroke:none;fill-rule:nonzero;fill:rgb(50.417334%,49.515526%,49.739834%);fill-opacity:1;" d="M 19.773438 12.414062 L 19.773438 25.191406 L 19.878906 25.191406 L 19.878906 12.414062 L 19.773438 12.414062 Z M 19.773438 12.414062 "/>
<path style=" stroke:none;fill-rule:nonzero;fill:rgb(51.091783%,50.200656%,50.421912%);fill-opacity:1;" d="M 19.878906 12.414062 L 19.878906 25.191406 L 19.984375 25.191406 L 19.984375 12.414062 L 19.878906 12.414062 Z M 19.878906 12.414062 "/>
<path style=" stroke:none;fill-rule:nonzero;fill:rgb(51.764706%,50.887312%,51.105516%);fill-opacity:1;" d="M 19.984375 12.414062 L 19.984375 25.191406 L 20.085938 25.191406 L 20.085938 12.414062 L 19.984375 12.414062 Z M 19.984375 12.414062 "/>
<path style=" stroke:none;fill-rule:nonzero;fill:rgb(52.439155%,51.573968%,51.78912%);fill-opacity:1;" d="M 20.085938 12.414062 L 20.085938 25.191406 L 20.191406 25.191406 L 20.191406 12.414062 L 20.085938 12.414062 Z M 20.085938 12.414062 "/>
<path style=" stroke:none;fill-rule:nonzero;fill:rgb(53.113603%,52.260624%,52.472724%);fill-opacity:1;" d="M 20.191406 12.414062 L 20.191406 25.191406 L 20.296875 25.191406 L 20.296875 12.414062 L 20.191406 12.414062 Z M 20.191406 12.414062 "/>
<path style=" stroke:none;fill-rule:nonzero;fill:rgb(53.788052%,52.945754%,53.154803%);fill-opacity:1;" d="M 20.296875 12.414062 L 20.296875 25.191406 L 20.398438 25.191406 L 20.398438 12.414062 L 20.296875 12.414062 Z M 20.296875 12.414062 "/>
<path style=" stroke:none;fill-rule:nonzero;fill:rgb(54.460975%,53.63241%,53.838407%);fill-opacity:1;" d="M 20.398438 12.414062 L 20.398438 25.191406 L 20.503906 25.191406 L 20.503906 12.414062 L 20.398438 12.414062 Z M 20.398438 12.414062 "/>
<path style=" stroke:none;fill-rule:nonzero;fill:rgb(55.135424%,54.319066%,54.522011%);fill-opacity:1;" d="M 20.503906 12.414062 L 20.503906 25.191406 L 20.609375 25.191406 L 20.609375 12.414062 L 20.503906 12.414062 Z M 20.503906 12.414062 "/>
<path style=" stroke:none;fill-rule:nonzero;fill:rgb(55.809873%,55.005722%,55.205615%);fill-opacity:1;" d="M 20.609375 12.414062 L 20.609375 25.191406 L 20.710938 25.191406 L 20.710938 12.414062 L 20.609375 12.414062 Z M 20.609375 12.414062 "/>
<path style=" stroke:none;fill-rule:nonzero;fill:rgb(56.482795%,55.690852%,55.887694%);fill-opacity:1;" d="M 20.710938 12.414062 L 20.710938 25.191406 L 20.816406 25.191406 L 20.816406 12.414062 L 20.710938 12.414062 Z M 20.710938 12.414062 "/>
<path style=" stroke:none;fill-rule:nonzero;fill:rgb(57.157244%,56.377508%,56.571298%);fill-opacity:1;" d="M 20.816406 12.414062 L 20.816406 25.191406 L 20.921875 25.191406 L 20.921875 12.414062 L 20.816406 12.414062 Z M 20.816406 12.414062 "/>
<path style=" stroke:none;fill-rule:nonzero;fill:rgb(57.831693%,57.064164%,57.254902%);fill-opacity:1;" d="M 20.921875 12.414062 L 20.921875 25.191406 L 21.023438 25.191406 L 21.023438 12.414062 L 20.921875 12.414062 Z M 20.921875 12.414062 "/>
<path style=" stroke:none;fill-rule:nonzero;fill:rgb(58.504616%,57.75082%,57.938506%);fill-opacity:1;" d="M 21.023438 12.414062 L 21.023438 25.191406 L 21.128906 25.191406 L 21.128906 12.414062 L 21.023438 12.414062 Z M 21.023438 12.414062 "/>
<path style=" stroke:none;fill-rule:nonzero;fill:rgb(59.179065%,58.43595%,58.620584%);fill-opacity:1;" d="M 21.128906 12.414062 L 21.128906 25.191406 L 21.234375 25.191406 L 21.234375 12.414062 L 21.128906 12.414062 Z M 21.128906 12.414062 "/>
<path style=" stroke:none;fill-rule:nonzero;fill:rgb(59.853513%,59.122606%,59.304189%);fill-opacity:1;" d="M 21.234375 12.414062 L 21.234375 25.191406 L 21.335938 25.191406 L 21.335938 12.414062 L 21.234375 12.414062 Z M 21.234375 12.414062 "/>
<path style=" stroke:none;fill-rule:nonzero;fill:rgb(60.527962%,59.809262%,59.987793%);fill-opacity:1;" d="M 21.335938 12.414062 L 21.335938 25.191406 L 21.441406 25.191406 L 21.441406 12.414062 L 21.335938 12.414062 Z M 21.335938 12.414062 "/>
<path style=" stroke:none;fill-rule:nonzero;fill:rgb(61.200885%,60.495918%,60.669871%);fill-opacity:1;" d="M 21.441406 12.414062 L 21.441406 25.191406 L 21.546875 25.191406 L 21.546875 12.414062 L 21.441406 12.414062 Z M 21.441406 12.414062 "/>
<path style=" stroke:none;fill-rule:nonzero;fill:rgb(61.875334%,61.181048%,61.353475%);fill-opacity:1;" d="M 21.546875 12.414062 L 21.546875 25.191406 L 21.648438 25.191406 L 21.648438 12.414062 L 21.546875 12.414062 Z M 21.546875 12.414062 "/>
<path style=" stroke:none;fill-rule:nonzero;fill:rgb(62.549783%,61.867704%,62.037079%);fill-opacity:1;" d="M 21.648438 12.414062 L 21.648438 25.191406 L 21.753906 25.191406 L 21.753906 12.414062 L 21.648438 12.414062 Z M 21.648438 12.414062 "/>
<path style=" stroke:none;fill-rule:nonzero;fill:rgb(63.222705%,62.55436%,62.720684%);fill-opacity:1;" d="M 21.753906 12.414062 L 21.753906 25.191406 L 21.859375 25.191406 L 21.859375 12.414062 L 21.753906 12.414062 Z M 21.753906 12.414062 "/>
<path style=" stroke:none;fill-rule:nonzero;fill:rgb(63.897154%,63.241016%,63.402762%);fill-opacity:1;" d="M 21.859375 12.414062 L 21.859375 25.191406 L 21.960938 25.191406 L 21.960938 12.414062 L 21.859375 12.414062 Z M 21.859375 12.414062 "/>
<path style=" stroke:none;fill-rule:nonzero;fill:rgb(64.571603%,63.926146%,64.086366%);fill-opacity:1;" d="M 21.960938 12.414062 L 21.960938 25.191406 L 22.066406 25.191406 L 22.066406 12.414062 L 21.960938 12.414062 Z M 21.960938 12.414062 "/>
<path style=" stroke:none;fill-rule:nonzero;fill:rgb(65.244526%,64.612802%,64.76997%);fill-opacity:1;" d="M 22.066406 12.414062 L 22.066406 25.191406 L 22.171875 25.191406 L 22.171875 12.414062 L 22.066406 12.414062 Z M 22.066406 12.414062 "/>
<path style=" stroke:none;fill-rule:nonzero;fill:rgb(65.918975%,65.299458%,65.453574%);fill-opacity:1;" d="M 22.171875 12.414062 L 22.171875 25.191406 L 22.273438 25.191406 L 22.273438 12.414062 L 22.171875 12.414062 Z M 22.171875 12.414062 "/>
<path style=" stroke:none;fill-rule:nonzero;fill:rgb(66.593423%,65.984588%,66.135653%);fill-opacity:1;" d="M 22.273438 12.414062 L 22.273438 25.191406 L 22.378906 25.191406 L 22.378906 12.414062 L 22.273438 12.414062 Z M 22.273438 12.414062 "/>
<path style=" stroke:none;fill-rule:nonzero;fill:rgb(67.267872%,66.671244%,66.819257%);fill-opacity:1;" d="M 22.378906 12.414062 L 22.378906 25.191406 L 22.484375 25.191406 L 22.484375 12.414062 L 22.378906 12.414062 Z M 22.378906 12.414062 "/>
<path style=" stroke:none;fill-rule:nonzero;fill:rgb(67.940795%,67.3579%,67.502861%);fill-opacity:1;" d="M 22.484375 12.414062 L 22.484375 25.191406 L 22.585938 25.191406 L 22.585938 12.414062 L 22.484375 12.414062 Z M 22.484375 12.414062 "/>
<path style=" stroke:none;fill-rule:nonzero;fill:rgb(68.615244%,68.044556%,68.186465%);fill-opacity:1;" d="M 22.585938 12.414062 L 22.585938 25.191406 L 22.691406 25.191406 L 22.691406 12.414062 L 22.585938 12.414062 Z M 22.585938 12.414062 "/>
<path style=" stroke:none;fill-rule:nonzero;fill:rgb(69.289693%,68.729686%,68.868544%);fill-opacity:1;" d="M 22.691406 12.414062 L 22.691406 25.191406 L 22.796875 25.191406 L 22.796875 12.414062 L 22.691406 12.414062 Z M 22.691406 12.414062 "/>
<path style=" stroke:none;fill-rule:nonzero;fill:rgb(69.962615%,69.416342%,69.552148%);fill-opacity:1;" d="M 22.796875 12.414062 L 22.796875 25.191406 L 22.898438 25.191406 L 22.898438 12.414062 L 22.796875 12.414062 Z M 22.796875 12.414062 "/>
<path style=" stroke:none;fill-rule:nonzero;fill:rgb(70.637064%,70.102998%,70.235752%);fill-opacity:1;" d="M 22.898438 12.414062 L 22.898438 25.191406 L 23.003906 25.191406 L 23.003906 12.414062 L 22.898438 12.414062 Z M 22.898438 12.414062 "/>
<path style=" stroke:none;fill-rule:nonzero;fill:rgb(71.311513%,70.789654%,70.919356%);fill-opacity:1;" d="M 23.003906 12.414062 L 23.003906 25.191406 L 23.109375 25.191406 L 23.109375 12.414062 L 23.003906 12.414062 Z M 23.003906 12.414062 "/>
<path style=" stroke:none;fill-rule:nonzero;fill:rgb(71.985962%,71.474784%,71.601434%);fill-opacity:1;" d="M 23.109375 12.414062 L 23.109375 25.191406 L 23.210938 25.191406 L 23.210938 12.414062 L 23.109375 12.414062 Z M 23.109375 12.414062 "/>
<path style=" stroke:none;fill-rule:nonzero;fill:rgb(72.658885%,72.16144%,72.285039%);fill-opacity:1;" d="M 23.210938 12.414062 L 23.210938 25.191406 L 23.316406 25.191406 L 23.316406 12.414062 L 23.210938 12.414062 Z M 23.210938 12.414062 "/>
<path style=" stroke:none;fill-rule:nonzero;fill:rgb(73.333333%,72.848096%,72.968643%);fill-opacity:1;" d="M 23.316406 12.414062 L 23.316406 25.191406 L 23.421875 25.191406 L 23.421875 12.414062 L 23.316406 12.414062 Z M 23.316406 12.414062 "/>
<path style=" stroke:none;fill-rule:nonzero;fill:rgb(74.007782%,73.534752%,73.652247%);fill-opacity:1;" d="M 23.421875 12.414062 L 23.421875 25.191406 L 23.523438 25.191406 L 23.523438 12.414062 L 23.421875 12.414062 Z M 23.421875 12.414062 "/>
<path style=" stroke:none;fill-rule:nonzero;fill:rgb(74.680705%,74.219883%,74.334325%);fill-opacity:1;" d="M 23.523438 12.414062 L 23.523438 25.191406 L 23.628906 25.191406 L 23.628906 12.414062 L 23.523438 12.414062 Z M 23.523438 12.414062 "/>
<path style=" stroke:none;fill-rule:nonzero;fill:rgb(75.355154%,74.906538%,75.017929%);fill-opacity:1;" d="M 23.628906 12.414062 L 23.628906 25.191406 L 23.734375 25.191406 L 23.734375 12.414062 L 23.628906 12.414062 Z M 23.628906 12.414062 "/>
<path style=" stroke:none;fill-rule:nonzero;fill:rgb(76.029603%,75.593194%,75.701534%);fill-opacity:1;" d="M 23.734375 12.414062 L 23.734375 25.191406 L 23.835938 25.191406 L 23.835938 12.414062 L 23.734375 12.414062 Z M 23.734375 12.414062 "/>
<path style=" stroke:none;fill-rule:nonzero;fill:rgb(76.702525%,76.27985%,76.385138%);fill-opacity:1;" d="M 23.835938 12.414062 L 23.835938 25.191406 L 23.941406 25.191406 L 23.941406 12.414062 L 23.835938 12.414062 Z M 23.835938 12.414062 "/>
<path style=" stroke:none;fill-rule:nonzero;fill:rgb(77.376974%,76.964981%,77.067216%);fill-opacity:1;" d="M 23.941406 12.414062 L 23.941406 25.191406 L 24.046875 25.191406 L 24.046875 12.414062 L 23.941406 12.414062 Z M 23.941406 12.414062 "/>
<path style=" stroke:none;fill-rule:nonzero;fill:rgb(78.051423%,77.651637%,77.75082%);fill-opacity:1;" d="M 24.046875 12.414062 L 24.046875 25.191406 L 24.148438 25.191406 L 24.148438 12.414062 L 24.046875 12.414062 Z M 24.046875 12.414062 "/>
<path style=" stroke:none;fill-rule:nonzero;fill:rgb(78.725872%,78.338293%,78.434424%);fill-opacity:1;" d="M 24.148438 12.414062 L 24.148438 25.191406 L 24.253906 25.191406 L 24.253906 12.414062 L 24.148438 12.414062 Z M 24.148438 12.414062 "/>
<path style=" stroke:none;fill-rule:nonzero;fill:rgb(79.398795%,79.024949%,79.118029%);fill-opacity:1;" d="M 24.253906 12.414062 L 24.253906 25.191406 L 24.359375 25.191406 L 24.359375 12.414062 L 24.253906 12.414062 Z M 24.253906 12.414062 "/>
<path style=" stroke:none;fill-rule:nonzero;fill:rgb(80.073243%,79.710079%,79.800107%);fill-opacity:1;" d="M 24.359375 12.414062 L 24.359375 25.191406 L 24.460938 25.191406 L 24.460938 12.414062 L 24.359375 12.414062 Z M 24.359375 12.414062 "/>
<path style=" stroke:none;fill-rule:nonzero;fill:rgb(80.747692%,80.396735%,80.483711%);fill-opacity:1;" d="M 24.460938 12.414062 L 24.460938 25.191406 L 24.566406 25.191406 L 24.566406 12.414062 L 24.460938 12.414062 Z M 24.460938 12.414062 "/>
<path style=" stroke:none;fill-rule:nonzero;fill:rgb(81.420615%,81.083391%,81.167315%);fill-opacity:1;" d="M 24.566406 12.414062 L 24.566406 25.191406 L 24.671875 25.191406 L 24.671875 12.414062 L 24.566406 12.414062 Z M 24.566406 12.414062 "/>
<path style=" stroke:none;fill-rule:nonzero;fill:rgb(82.095064%,81.770047%,81.850919%);fill-opacity:1;" d="M 24.671875 12.414062 L 24.671875 25.191406 L 24.773438 25.191406 L 24.773438 12.414062 L 24.671875 12.414062 Z M 24.671875 12.414062 "/>
<path style=" stroke:none;fill-rule:nonzero;fill:rgb(82.769512%,82.455177%,82.532998%);fill-opacity:1;" d="M 24.773438 12.414062 L 24.773438 25.191406 L 24.878906 25.191406 L 24.878906 12.414062 L 24.773438 12.414062 Z M 24.773438 12.414062 "/>
<path style=" stroke:none;fill-rule:nonzero;fill:rgb(83.442435%,83.141833%,83.216602%);fill-opacity:1;" d="M 24.878906 12.414062 L 24.878906 25.191406 L 24.984375 25.191406 L 24.984375 12.414062 L 24.878906 12.414062 Z M 24.878906 12.414062 "/>
<path style=" stroke:none;fill-rule:nonzero;fill:rgb(84.116884%,83.828489%,83.900206%);fill-opacity:1;" d="M 24.984375 12.414062 L 24.984375 25.191406 L 25.085938 25.191406 L 25.085938 12.414062 L 24.984375 12.414062 Z M 24.984375 12.414062 "/>
<path style=" stroke:none;fill-rule:nonzero;fill:rgb(84.791333%,84.513619%,84.58381%);fill-opacity:1;" d="M 25.085938 12.414062 L 25.085938 25.191406 L 25.191406 25.191406 L 25.191406 12.414062 L 25.085938 12.414062 Z M 25.085938 12.414062 "/>
<path style=" stroke:none;fill-rule:nonzero;fill:rgb(85.465782%,85.200275%,85.265888%);fill-opacity:1;" d="M 25.191406 12.414062 L 25.191406 25.191406 L 25.292969 25.191406 L 25.292969 12.414062 L 25.191406 12.414062 Z M 25.191406 12.414062 "/>
<path style=" stroke:none;fill-rule:nonzero;fill:rgb(86.138705%,85.886931%,85.949493%);fill-opacity:1;" d="M 25.292969 12.414062 L 25.292969 25.191406 L 25.398438 25.191406 L 25.398438 12.414062 L 25.292969 12.414062 Z M 25.292969 12.414062 "/>
<path style=" stroke:none;fill-rule:nonzero;fill:rgb(86.813153%,86.573587%,86.633097%);fill-opacity:1;" d="M 25.398438 12.414062 L 25.398438 25.191406 L 25.503906 25.191406 L 25.503906 12.414062 L 25.398438 12.414062 Z M 25.398438 12.414062 "/>
<path style=" stroke:none;fill-rule:nonzero;fill:rgb(87.487602%,87.258717%,87.316701%);fill-opacity:1;" d="M 25.503906 12.414062 L 25.503906 25.191406 L 25.605469 25.191406 L 25.605469 12.414062 L 25.503906 12.414062 Z M 25.503906 12.414062 "/>
<path style=" stroke:none;fill-rule:nonzero;fill:rgb(88.160525%,87.945373%,87.998779%);fill-opacity:1;" d="M 25.605469 12.414062 L 25.605469 25.191406 L 25.710938 25.191406 L 25.710938 12.414062 L 25.605469 12.414062 Z M 25.605469 12.414062 "/>
<path style=" stroke:none;fill-rule:nonzero;fill:rgb(88.834974%,88.632029%,88.682383%);fill-opacity:1;" d="M 25.710938 12.414062 L 25.710938 25.191406 L 25.816406 25.191406 L 25.816406 12.414062 L 25.710938 12.414062 Z M 25.710938 12.414062 "/>
<path style=" stroke:none;fill-rule:nonzero;fill:rgb(89.509422%,89.318685%,89.365988%);fill-opacity:1;" d="M 25.816406 12.414062 L 25.816406 25.191406 L 25.917969 25.191406 L 25.917969 12.414062 L 25.816406 12.414062 Z M 25.816406 12.414062 "/>
<path style=" stroke:none;fill-rule:nonzero;fill:rgb(90.182345%,90.003815%,90.048066%);fill-opacity:1;" d="M 25.917969 12.414062 L 25.917969 25.191406 L 26.023438 25.191406 L 26.023438 12.414062 L 25.917969 12.414062 Z M 25.917969 12.414062 "/>
<path style=" stroke:none;fill-rule:nonzero;fill:rgb(90.856794%,90.690471%,90.73167%);fill-opacity:1;" d="M 26.023438 12.414062 L 26.023438 25.191406 L 26.128906 25.191406 L 26.128906 12.414062 L 26.023438 12.414062 Z M 26.023438 12.414062 "/>
<path style=" stroke:none;fill-rule:nonzero;fill:rgb(91.531243%,91.377127%,91.415274%);fill-opacity:1;" d="M 26.128906 12.414062 L 26.128906 25.191406 L 26.230469 25.191406 L 26.230469 12.414062 L 26.128906 12.414062 Z M 26.128906 12.414062 "/>
<path style=" stroke:none;fill-rule:nonzero;fill:rgb(92.205692%,92.063783%,92.098878%);fill-opacity:1;" d="M 26.230469 12.414062 L 26.230469 25.191406 L 26.335938 25.191406 L 26.335938 12.414062 L 26.230469 12.414062 Z M 26.230469 12.414062 "/>
<path style=" stroke:none;fill-rule:nonzero;fill:rgb(92.878614%,92.748913%,92.780957%);fill-opacity:1;" d="M 26.335938 12.414062 L 26.335938 25.191406 L 26.441406 25.191406 L 26.441406 12.414062 L 26.335938 12.414062 Z M 26.335938 12.414062 "/>
<path style=" stroke:none;fill-rule:nonzero;fill:rgb(93.553063%,93.435569%,93.464561%);fill-opacity:1;" d="M 26.441406 12.414062 L 26.441406 25.191406 L 26.542969 25.191406 L 26.542969 12.414062 L 26.441406 12.414062 Z M 26.441406 12.414062 "/>
<path style=" stroke:none;fill-rule:nonzero;fill:rgb(94.227512%,94.122225%,94.148165%);fill-opacity:1;" d="M 26.542969 12.414062 L 26.542969 25.191406 L 26.648438 25.191406 L 26.648438 12.414062 L 26.542969 12.414062 Z M 26.542969 12.414062 "/>
<path style=" stroke:none;fill-rule:nonzero;fill:rgb(94.900435%,94.808881%,94.831769%);fill-opacity:1;" d="M 26.648438 12.414062 L 26.648438 25.191406 L 26.753906 25.191406 L 26.753906 12.414062 L 26.648438 12.414062 Z M 26.648438 12.414062 "/>
<path style=" stroke:none;fill-rule:nonzero;fill:rgb(95.574884%,95.494011%,95.513848%);fill-opacity:1;" d="M 26.753906 12.414062 L 26.753906 25.191406 L 26.855469 25.191406 L 26.855469 12.414062 L 26.753906 12.414062 Z M 26.753906 12.414062 "/>
<path style=" stroke:none;fill-rule:nonzero;fill:rgb(96.249332%,96.180667%,96.197452%);fill-opacity:1;" d="M 26.855469 12.414062 L 26.855469 25.191406 L 26.960938 25.191406 L 26.960938 12.414062 L 26.855469 12.414062 Z M 26.855469 12.414062 "/>
<path style=" stroke:none;fill-rule:nonzero;fill:rgb(96.923781%,96.867323%,96.881056%);fill-opacity:1;" d="M 26.960938 12.414062 L 26.960938 25.191406 L 27.066406 25.191406 L 27.066406 12.414062 L 26.960938 12.414062 Z M 26.960938 12.414062 "/>
<path style=" stroke:none;fill-rule:nonzero;fill:rgb(97.596704%,97.553979%,97.56466%);fill-opacity:1;" d="M 27.066406 12.414062 L 27.066406 25.191406 L 27.167969 25.191406 L 27.167969 12.414062 L 27.066406 12.414062 Z M 27.066406 12.414062 "/>
<path style=" stroke:none;fill-rule:nonzero;fill:rgb(98.271153%,98.239109%,98.246738%);fill-opacity:1;" d="M 27.167969 12.414062 L 27.167969 25.191406 L 27.273438 25.191406 L 27.273438 12.414062 L 27.167969 12.414062 Z M 27.167969 12.414062 "/>
<path style=" stroke:none;fill-rule:nonzero;fill:rgb(98.945602%,98.925765%,98.930343%);fill-opacity:1;" d="M 27.273438 12.414062 L 27.273438 25.191406 L 27.378906 25.191406 L 27.378906 12.414062 L 27.273438 12.414062 Z M 27.273438 12.414062 "/>
<path style=" stroke:none;fill-rule:nonzero;fill:rgb(99.618524%,99.612421%,99.613947%);fill-opacity:1;" d="M 27.378906 12.414062 L 27.378906 25.191406 L 27.480469 25.191406 L 27.480469 12.414062 L 27.378906 12.414062 Z M 27.378906 12.414062 "/>
<path style=" stroke:none;fill-rule:nonzero;fill:rgb(99.5346%,99.52697%,99.528496%);fill-opacity:1;" d="M 27.480469 12.414062 L 27.480469 25.191406 L 27.691406 25.191406 L 27.691406 12.414062 L 27.480469 12.414062 Z M 27.480469 12.414062 "/>
<path style=" stroke:none;fill-rule:nonzero;fill:rgb(99.064622%,99.047837%,99.052415%);fill-opacity:1;" d="M 27.691406 12.414062 L 27.691406 25.191406 L 27.792969 25.191406 L 27.792969 12.414062 L 27.691406 12.414062 Z M 27.691406 12.414062 "/>
<path style=" stroke:none;fill-rule:nonzero;fill:rgb(98.678569%,98.65568%,98.661784%);fill-opacity:1;" d="M 27.792969 12.414062 L 27.792969 25.191406 L 27.898438 25.191406 L 27.898438 12.414062 L 27.792969 12.414062 Z M 27.792969 12.414062 "/>
<path style=" stroke:none;fill-rule:nonzero;fill:rgb(98.294041%,98.263523%,98.271153%);fill-opacity:1;" d="M 27.898438 12.414062 L 27.898438 25.191406 L 28.003906 25.191406 L 28.003906 12.414062 L 27.898438 12.414062 Z M 27.898438 12.414062 "/>
<path style=" stroke:none;fill-rule:nonzero;fill:rgb(97.909514%,97.871366%,97.880522%);fill-opacity:1;" d="M 28.003906 12.414062 L 28.003906 25.191406 L 28.105469 25.191406 L 28.105469 12.414062 L 28.003906 12.414062 Z M 28.003906 12.414062 "/>
<path style=" stroke:none;fill-rule:nonzero;fill:rgb(97.524987%,97.47921%,97.491417%);fill-opacity:1;" d="M 28.105469 12.414062 L 28.105469 25.191406 L 28.210938 25.191406 L 28.210938 12.414062 L 28.105469 12.414062 Z M 28.105469 12.414062 "/>
<path style=" stroke:none;fill-rule:nonzero;fill:rgb(97.138933%,97.087053%,97.09926%);fill-opacity:1;" d="M 28.210938 12.414062 L 28.210938 25.191406 L 28.316406 25.191406 L 28.316406 12.414062 L 28.210938 12.414062 Z M 28.210938 12.414062 "/>
<path style=" stroke:none;fill-rule:nonzero;fill:rgb(96.754406%,96.694896%,96.710155%);fill-opacity:1;" d="M 28.316406 12.414062 L 28.316406 25.191406 L 28.417969 25.191406 L 28.417969 12.414062 L 28.316406 12.414062 Z M 28.316406 12.414062 "/>
<path style=" stroke:none;fill-rule:nonzero;fill:rgb(96.368353%,96.302739%,96.319524%);fill-opacity:1;" d="M 28.417969 12.414062 L 28.417969 25.191406 L 28.523438 25.191406 L 28.523438 12.414062 L 28.417969 12.414062 Z M 28.417969 12.414062 "/>
<path style=" stroke:none;fill-rule:nonzero;fill:rgb(95.983825%,95.912108%,95.928893%);fill-opacity:1;" d="M 28.523438 12.414062 L 28.523438 25.191406 L 28.628906 25.191406 L 28.628906 12.414062 L 28.523438 12.414062 Z M 28.523438 12.414062 "/>
<path style=" stroke:none;fill-rule:nonzero;fill:rgb(95.599298%,95.518425%,95.538262%);fill-opacity:1;" d="M 28.628906 12.414062 L 28.628906 25.191406 L 28.730469 25.191406 L 28.730469 12.414062 L 28.628906 12.414062 Z M 28.628906 12.414062 "/>
<path style=" stroke:none;fill-rule:nonzero;fill:rgb(95.214771%,95.127794%,95.149157%);fill-opacity:1;" d="M 28.730469 12.414062 L 28.730469 25.191406 L 28.835938 25.191406 L 28.835938 12.414062 L 28.730469 12.414062 Z M 28.730469 12.414062 "/>
<path style=" stroke:none;fill-rule:nonzero;fill:rgb(94.828717%,94.734112%,94.758526%);fill-opacity:1;" d="M 28.835938 12.414062 L 28.835938 25.191406 L 28.941406 25.191406 L 28.941406 12.414062 L 28.835938 12.414062 Z M 28.835938 12.414062 "/>
<path style=" stroke:none;fill-rule:nonzero;fill:rgb(94.44419%,94.343481%,94.367895%);fill-opacity:1;" d="M 28.941406 12.414062 L 28.941406 25.191406 L 29.042969 25.191406 L 29.042969 12.414062 L 28.941406 12.414062 Z M 28.941406 12.414062 "/>
<path style=" stroke:none;fill-rule:nonzero;fill:rgb(94.058137%,93.949798%,93.977264%);fill-opacity:1;" d="M 29.042969 12.414062 L 29.042969 25.191406 L 29.148438 25.191406 L 29.148438 12.414062 L 29.042969 12.414062 Z M 29.042969 12.414062 "/>
<path style=" stroke:none;fill-rule:nonzero;fill:rgb(93.67361%,93.557641%,93.586633%);fill-opacity:1;" d="M 29.148438 12.414062 L 29.148438 25.191406 L 29.253906 25.191406 L 29.253906 12.414062 L 29.148438 12.414062 Z M 29.148438 12.414062 "/>
<path style=" stroke:none;fill-rule:nonzero;fill:rgb(93.287556%,93.165484%,93.196002%);fill-opacity:1;" d="M 29.253906 12.414062 L 29.253906 25.191406 L 29.355469 25.191406 L 29.355469 12.414062 L 29.253906 12.414062 Z M 29.253906 12.414062 "/>
<path style=" stroke:none;fill-rule:nonzero;fill:rgb(92.903029%,92.773327%,92.805371%);fill-opacity:1;" d="M 29.355469 12.414062 L 29.355469 25.191406 L 29.460938 25.191406 L 29.460938 12.414062 L 29.355469 12.414062 Z M 29.355469 12.414062 "/>
<path style=" stroke:none;fill-rule:nonzero;fill:rgb(92.516976%,92.38117%,92.41474%);fill-opacity:1;" d="M 29.460938 12.414062 L 29.460938 25.191406 L 29.566406 25.191406 L 29.566406 12.414062 L 29.460938 12.414062 Z M 29.460938 12.414062 "/>
<path style=" stroke:none;fill-rule:nonzero;fill:rgb(92.132448%,91.989014%,92.025635%);fill-opacity:1;" d="M 29.566406 12.414062 L 29.566406 25.191406 L 29.667969 25.191406 L 29.667969 12.414062 L 29.566406 12.414062 Z M 29.566406 12.414062 "/>
<path style=" stroke:none;fill-rule:nonzero;fill:rgb(91.746395%,91.596857%,91.633478%);fill-opacity:1;" d="M 29.667969 12.414062 L 29.667969 25.191406 L 29.773438 25.191406 L 29.773438 12.414062 L 29.667969 12.414062 Z M 29.667969 12.414062 "/>
<path style=" stroke:none;fill-rule:nonzero;fill:rgb(91.361868%,91.2047%,91.244373%);fill-opacity:1;" d="M 29.773438 12.414062 L 29.773438 25.191406 L 29.878906 25.191406 L 29.878906 12.414062 L 29.773438 12.414062 Z M 29.773438 12.414062 "/>
<path style=" stroke:none;fill-rule:nonzero;fill:rgb(90.97734%,90.812543%,90.853742%);fill-opacity:1;" d="M 29.878906 12.414062 L 29.878906 25.191406 L 29.980469 25.191406 L 29.980469 12.414062 L 29.878906 12.414062 Z M 29.878906 12.414062 "/>
<path style=" stroke:none;fill-rule:nonzero;fill:rgb(90.592813%,90.421912%,90.463111%);fill-opacity:1;" d="M 29.980469 12.414062 L 29.980469 25.191406 L 30.085938 25.191406 L 30.085938 12.414062 L 29.980469 12.414062 Z M 29.980469 12.414062 "/>
<path style=" stroke:none;fill-rule:nonzero;fill:rgb(90.20676%,90.028229%,90.07248%);fill-opacity:1;" d="M 30.085938 12.414062 L 30.085938 25.191406 L 30.191406 25.191406 L 30.191406 12.414062 L 30.085938 12.414062 Z M 30.085938 12.414062 "/>
<path style=" stroke:none;fill-rule:nonzero;fill:rgb(89.822232%,89.637598%,89.683375%);fill-opacity:1;" d="M 30.191406 12.414062 L 30.191406 25.191406 L 30.292969 25.191406 L 30.292969 12.414062 L 30.191406 12.414062 Z M 30.191406 12.414062 "/>
<path style=" stroke:none;fill-rule:nonzero;fill:rgb(89.436179%,89.243915%,89.292744%);fill-opacity:1;" d="M 30.292969 12.414062 L 30.292969 25.191406 L 30.398438 25.191406 L 30.398438 12.414062 L 30.292969 12.414062 Z M 30.292969 12.414062 "/>
<path style=" stroke:none;fill-rule:nonzero;fill:rgb(89.051652%,88.853285%,88.902113%);fill-opacity:1;" d="M 30.398438 12.414062 L 30.398438 25.191406 L 30.503906 25.191406 L 30.503906 12.414062 L 30.398438 12.414062 Z M 30.398438 12.414062 "/>
<path style=" stroke:none;fill-rule:nonzero;fill:rgb(88.667124%,88.459602%,88.511482%);fill-opacity:1;" d="M 30.503906 12.414062 L 30.503906 25.191406 L 30.605469 25.191406 L 30.605469 12.414062 L 30.503906 12.414062 Z M 30.503906 12.414062 "/>
<path style=" stroke:none;fill-rule:nonzero;fill:rgb(88.282597%,88.068971%,88.122377%);fill-opacity:1;" d="M 30.605469 12.414062 L 30.605469 25.191406 L 30.710938 25.191406 L 30.710938 12.414062 L 30.605469 12.414062 Z M 30.605469 12.414062 "/>
<path style=" stroke:none;fill-rule:nonzero;fill:rgb(87.896544%,87.676814%,87.73022%);fill-opacity:1;" d="M 30.710938 12.414062 L 30.710938 25.191406 L 30.816406 25.191406 L 30.816406 12.414062 L 30.710938 12.414062 Z M 30.710938 12.414062 "/>
<path style=" stroke:none;fill-rule:nonzero;fill:rgb(87.512016%,87.284657%,87.341115%);fill-opacity:1;" d="M 30.816406 12.414062 L 30.816406 25.191406 L 30.917969 25.191406 L 30.917969 12.414062 L 30.816406 12.414062 Z M 30.816406 12.414062 "/>
<path style=" stroke:none;fill-rule:nonzero;fill:rgb(87.125963%,86.8925%,86.950484%);fill-opacity:1;" d="M 30.917969 12.414062 L 30.917969 25.191406 L 31.023438 25.191406 L 31.023438 12.414062 L 30.917969 12.414062 Z M 30.917969 12.414062 "/>
<path style=" stroke:none;fill-rule:nonzero;fill:rgb(86.741436%,86.498817%,86.559854%);fill-opacity:1;" d="M 31.023438 12.414062 L 31.023438 25.191406 L 31.128906 25.191406 L 31.128906 12.414062 L 31.023438 12.414062 Z M 31.023438 12.414062 "/>
<path style=" stroke:none;fill-rule:nonzero;fill:rgb(86.355383%,86.106661%,86.167697%);fill-opacity:1;" d="M 31.128906 12.414062 L 31.128906 25.191406 L 31.230469 25.191406 L 31.230469 12.414062 L 31.128906 12.414062 Z M 31.128906 12.414062 "/>
<path style=" stroke:none;fill-rule:nonzero;fill:rgb(85.970855%,85.71603%,85.778592%);fill-opacity:1;" d="M 31.230469 12.414062 L 31.230469 25.191406 L 31.335938 25.191406 L 31.335938 12.414062 L 31.230469 12.414062 Z M 31.230469 12.414062 "/>
<path style=" stroke:none;fill-rule:nonzero;fill:rgb(85.584802%,85.322347%,85.387961%);fill-opacity:1;" d="M 31.335938 12.414062 L 31.335938 25.191406 L 31.441406 25.191406 L 31.441406 12.414062 L 31.335938 12.414062 Z M 31.335938 12.414062 "/>
<path style=" stroke:none;fill-rule:nonzero;fill:rgb(85.200275%,84.931716%,84.99733%);fill-opacity:1;" d="M 31.441406 12.414062 L 31.441406 25.191406 L 31.542969 25.191406 L 31.542969 12.414062 L 31.441406 12.414062 Z M 31.441406 12.414062 "/>
<path style=" stroke:none;fill-rule:nonzero;fill:rgb(84.814221%,84.538033%,84.606699%);fill-opacity:1;" d="M 31.542969 12.414062 L 31.542969 25.191406 L 31.648438 25.191406 L 31.648438 12.414062 L 31.542969 12.414062 Z M 31.542969 12.414062 "/>
<path style=" stroke:none;fill-rule:nonzero;fill:rgb(84.429694%,84.147402%,84.217594%);fill-opacity:1;" d="M 31.648438 12.414062 L 31.648438 25.191406 L 31.753906 25.191406 L 31.753906 12.414062 L 31.648438 12.414062 Z M 31.648438 12.414062 "/>
<path style=" stroke:none;fill-rule:nonzero;fill:rgb(84.045167%,83.753719%,83.826963%);fill-opacity:1;" d="M 31.753906 12.414062 L 31.753906 25.191406 L 31.855469 25.191406 L 31.855469 12.414062 L 31.753906 12.414062 Z M 31.753906 12.414062 "/>
<path style=" stroke:none;fill-rule:nonzero;fill:rgb(83.660639%,83.363088%,83.436332%);fill-opacity:1;" d="M 31.855469 12.414062 L 31.855469 25.191406 L 31.960938 25.191406 L 31.960938 12.414062 L 31.855469 12.414062 Z M 31.855469 12.414062 "/>
<path style=" stroke:none;fill-rule:nonzero;fill:rgb(83.274586%,82.970932%,83.045701%);fill-opacity:1;" d="M 31.960938 12.414062 L 31.960938 25.191406 L 32.066406 25.191406 L 32.066406 12.414062 L 31.960938 12.414062 Z M 31.960938 12.414062 "/>
<path style=" stroke:none;fill-rule:nonzero;fill:rgb(82.890059%,82.578775%,82.656596%);fill-opacity:1;" d="M 32.066406 12.414062 L 32.066406 25.191406 L 32.167969 25.191406 L 32.167969 12.414062 L 32.066406 12.414062 Z M 32.066406 12.414062 "/>
<path style=" stroke:none;fill-rule:nonzero;fill:rgb(82.504005%,82.186618%,82.265965%);fill-opacity:1;" d="M 32.167969 12.414062 L 32.167969 25.191406 L 32.273438 25.191406 L 32.273438 12.414062 L 32.167969 12.414062 Z M 32.167969 12.414062 "/>
<path style=" stroke:none;fill-rule:nonzero;fill:rgb(82.119478%,81.794461%,81.875334%);fill-opacity:1;" d="M 32.273438 12.414062 L 32.273438 25.191406 L 32.378906 25.191406 L 32.378906 12.414062 L 32.273438 12.414062 Z M 32.273438 12.414062 "/>
<path style=" stroke:none;fill-rule:nonzero;fill:rgb(81.734951%,81.402304%,81.484703%);fill-opacity:1;" d="M 32.378906 12.414062 L 32.378906 25.191406 L 32.480469 25.191406 L 32.480469 12.414062 L 32.378906 12.414062 Z M 32.378906 12.414062 "/>
<path style=" stroke:none;fill-rule:nonzero;fill:rgb(81.350423%,81.010147%,81.095598%);fill-opacity:1;" d="M 32.480469 12.414062 L 32.480469 25.191406 L 32.585938 25.191406 L 32.585938 12.414062 L 32.480469 12.414062 Z M 32.480469 12.414062 "/>
<path style=" stroke:none;fill-rule:nonzero;fill:rgb(80.96437%,80.61799%,80.703441%);fill-opacity:1;" d="M 32.585938 12.414062 L 32.585938 25.191406 L 32.691406 25.191406 L 32.691406 12.414062 L 32.585938 12.414062 Z M 32.585938 12.414062 "/>
<path style=" stroke:none;fill-rule:nonzero;fill:rgb(80.579843%,80.225834%,80.314336%);fill-opacity:1;" d="M 32.691406 12.414062 L 32.691406 25.191406 L 32.792969 25.191406 L 32.792969 12.414062 L 32.691406 12.414062 Z M 32.691406 12.414062 "/>
<path style=" stroke:none;fill-rule:nonzero;fill:rgb(80.19379%,79.833677%,79.923705%);fill-opacity:1;" d="M 32.792969 12.414062 L 32.792969 25.191406 L 32.898438 25.191406 L 32.898438 12.414062 L 32.792969 12.414062 Z M 32.792969 12.414062 "/>
<path style=" stroke:none;fill-rule:nonzero;fill:rgb(79.809262%,79.44152%,79.533074%);fill-opacity:1;" d="M 32.898438 12.414062 L 32.898438 25.191406 L 33.003906 25.191406 L 33.003906 12.414062 L 32.898438 12.414062 Z M 32.898438 12.414062 "/>
<path style=" stroke:none;fill-rule:nonzero;fill:rgb(79.423209%,79.047837%,79.140917%);fill-opacity:1;" d="M 33.003906 12.414062 L 33.003906 25.191406 L 33.105469 25.191406 L 33.105469 12.414062 L 33.003906 12.414062 Z M 33.003906 12.414062 "/>
<path style=" stroke:none;fill-rule:nonzero;fill:rgb(79.038682%,78.657206%,78.751812%);fill-opacity:1;" d="M 33.105469 12.414062 L 33.105469 25.191406 L 33.210938 25.191406 L 33.210938 12.414062 L 33.105469 12.414062 Z M 33.105469 12.414062 "/>
<path style=" stroke:none;fill-rule:nonzero;fill:rgb(78.652628%,78.263523%,78.361181%);fill-opacity:1;" d="M 33.210938 12.414062 L 33.210938 25.191406 L 33.316406 25.191406 L 33.316406 12.414062 L 33.210938 12.414062 Z M 33.210938 12.414062 "/>
<path style=" stroke:none;fill-rule:nonzero;fill:rgb(78.268101%,77.872892%,77.97055%);fill-opacity:1;" d="M 33.316406 12.414062 L 33.316406 25.191406 L 33.417969 25.191406 L 33.417969 12.414062 L 33.316406 12.414062 Z M 33.316406 12.414062 "/>
<path style=" stroke:none;fill-rule:nonzero;fill:rgb(77.882048%,77.480735%,77.579919%);fill-opacity:1;" d="M 33.417969 12.414062 L 33.417969 25.191406 L 33.523438 25.191406 L 33.523438 12.414062 L 33.417969 12.414062 Z M 33.417969 12.414062 "/>
<path style=" stroke:none;fill-rule:nonzero;fill:rgb(77.499046%,77.088579%,77.190814%);fill-opacity:1;" d="M 33.523438 12.414062 L 33.523438 25.191406 L 33.628906 25.191406 L 33.628906 12.414062 L 33.523438 12.414062 Z M 33.523438 12.414062 "/>
<path style=" stroke:none;fill-rule:nonzero;fill:rgb(77.112993%,76.696422%,76.800183%);fill-opacity:1;" d="M 33.628906 12.414062 L 33.628906 25.191406 L 33.730469 25.191406 L 33.730469 12.414062 L 33.628906 12.414062 Z M 33.628906 12.414062 "/>
<path style=" stroke:none;fill-rule:nonzero;fill:rgb(76.728466%,76.304265%,76.409552%);fill-opacity:1;" d="M 33.730469 12.414062 L 33.730469 25.191406 L 33.835938 25.191406 L 33.835938 12.414062 L 33.730469 12.414062 Z M 33.730469 12.414062 "/>
<path style=" stroke:none;fill-rule:nonzero;fill:rgb(76.342412%,75.912108%,76.018921%);fill-opacity:1;" d="M 33.835938 12.414062 L 33.835938 25.191406 L 33.941406 25.191406 L 33.941406 12.414062 L 33.835938 12.414062 Z M 33.835938 12.414062 "/>
<path style=" stroke:none;fill-rule:nonzero;fill:rgb(75.957885%,75.519951%,75.629816%);fill-opacity:1;" d="M 33.941406 12.414062 L 33.941406 25.191406 L 34.042969 25.191406 L 34.042969 12.414062 L 33.941406 12.414062 Z M 33.941406 12.414062 "/>
<path style=" stroke:none;fill-rule:nonzero;fill:rgb(75.571832%,75.127794%,75.237659%);fill-opacity:1;" d="M 34.042969 12.414062 L 34.042969 25.191406 L 34.148438 25.191406 L 34.148438 12.414062 L 34.042969 12.414062 Z M 34.042969 12.414062 "/>
<path style=" stroke:none;fill-rule:nonzero;fill:rgb(75.187304%,74.737163%,74.848554%);fill-opacity:1;" d="M 34.148438 12.414062 L 34.148438 25.191406 L 34.253906 25.191406 L 34.253906 12.414062 L 34.148438 12.414062 Z M 34.148438 12.414062 "/>
<path style=" stroke:none;fill-rule:nonzero;fill:rgb(74.802777%,74.343481%,74.457923%);fill-opacity:1;" d="M 34.253906 12.414062 L 34.253906 25.191406 L 34.355469 25.191406 L 34.355469 12.414062 L 34.253906 12.414062 Z M 34.253906 12.414062 "/>
<path style=" stroke:none;fill-rule:nonzero;fill:rgb(74.41825%,73.95285%,74.067292%);fill-opacity:1;" d="M 34.355469 12.414062 L 34.355469 25.191406 L 34.460938 25.191406 L 34.460938 12.414062 L 34.355469 12.414062 Z M 34.355469 12.414062 "/>
<path style=" stroke:none;fill-rule:nonzero;fill:rgb(74.032197%,73.559167%,73.676661%);fill-opacity:1;" d="M 34.460938 12.414062 L 34.460938 25.191406 L 34.566406 25.191406 L 34.566406 12.414062 L 34.460938 12.414062 Z M 34.460938 12.414062 "/>
<path style=" stroke:none;fill-rule:nonzero;fill:rgb(73.647669%,73.168536%,73.287556%);fill-opacity:1;" d="M 34.566406 12.414062 L 34.566406 25.191406 L 34.667969 25.191406 L 34.667969 12.414062 L 34.566406 12.414062 Z M 34.566406 12.414062 "/>
<path style=" stroke:none;fill-rule:nonzero;fill:rgb(73.261616%,72.774853%,72.896925%);fill-opacity:1;" d="M 34.667969 12.414062 L 34.667969 25.191406 L 34.773438 25.191406 L 34.773438 12.414062 L 34.667969 12.414062 Z M 34.667969 12.414062 "/>
<path style=" stroke:none;fill-rule:nonzero;fill:rgb(72.877089%,72.384222%,72.506294%);fill-opacity:1;" d="M 34.773438 12.414062 L 34.773438 25.191406 L 34.878906 25.191406 L 34.878906 12.414062 L 34.773438 12.414062 Z M 34.773438 12.414062 "/>
<path style=" stroke:none;fill-rule:nonzero;fill:rgb(72.492561%,71.992065%,72.115663%);fill-opacity:1;" d="M 34.878906 12.414062 L 34.878906 25.191406 L 34.980469 25.191406 L 34.980469 12.414062 L 34.878906 12.414062 Z M 34.878906 12.414062 "/>
<path style=" stroke:none;fill-rule:nonzero;fill:rgb(72.106508%,71.598383%,71.725032%);fill-opacity:1;" d="M 34.980469 12.414062 L 34.980469 25.191406 L 35.085938 25.191406 L 35.085938 12.414062 L 34.980469 12.414062 Z M 34.980469 12.414062 "/>
<path style=" stroke:none;fill-rule:nonzero;fill:rgb(71.720455%,71.206226%,71.334401%);fill-opacity:1;" d="M 35.085938 12.414062 L 35.085938 25.191406 L 35.191406 25.191406 L 35.191406 12.414062 L 35.085938 12.414062 Z M 35.085938 12.414062 "/>
<path style=" stroke:none;fill-rule:nonzero;fill:rgb(71.335927%,70.814069%,70.943771%);fill-opacity:1;" d="M 35.191406 12.414062 L 35.191406 25.191406 L 35.292969 25.191406 L 35.292969 12.414062 L 35.191406 12.414062 Z M 35.191406 12.414062 "/>
<path style=" stroke:none;fill-rule:nonzero;fill:rgb(70.949874%,70.421912%,70.55314%);fill-opacity:1;" d="M 35.292969 12.414062 L 35.292969 25.191406 L 35.398438 25.191406 L 35.398438 12.414062 L 35.292969 12.414062 Z M 35.292969 12.414062 "/>
<path style=" stroke:none;fill-rule:nonzero;fill:rgb(70.566873%,70.029755%,70.164034%);fill-opacity:1;" d="M 35.398438 12.414062 L 35.398438 25.191406 L 35.503906 25.191406 L 35.503906 12.414062 L 35.398438 12.414062 Z M 35.398438 12.414062 "/>
<path style=" stroke:none;fill-rule:nonzero;fill:rgb(70.180819%,69.637598%,69.771878%);fill-opacity:1;" d="M 35.503906 12.414062 L 35.503906 25.191406 L 35.605469 25.191406 L 35.605469 12.414062 L 35.503906 12.414062 Z M 35.503906 12.414062 "/>
<path style=" stroke:none;fill-rule:nonzero;fill:rgb(69.796292%,69.246967%,69.382773%);fill-opacity:1;" d="M 35.605469 12.414062 L 35.605469 25.191406 L 35.710938 25.191406 L 35.710938 12.414062 L 35.605469 12.414062 Z M 35.605469 12.414062 "/>
<path style=" stroke:none;fill-rule:nonzero;fill:rgb(69.410239%,68.853285%,68.992142%);fill-opacity:1;" d="M 35.710938 12.414062 L 35.710938 25.191406 L 35.816406 25.191406 L 35.816406 12.414062 L 35.710938 12.414062 Z M 35.710938 12.414062 "/>
<path style=" stroke:none;fill-rule:nonzero;fill:rgb(69.025711%,68.462654%,68.603037%);fill-opacity:1;" d="M 35.816406 12.414062 L 35.816406 25.191406 L 35.917969 25.191406 L 35.917969 12.414062 L 35.816406 12.414062 Z M 35.816406 12.414062 "/>
<path style=" stroke:none;fill-rule:nonzero;fill:rgb(68.639658%,68.068971%,68.21088%);fill-opacity:1;" d="M 35.917969 12.414062 L 35.917969 25.191406 L 36.023438 25.191406 L 36.023438 12.414062 L 35.917969 12.414062 Z M 35.917969 12.414062 "/>
<path style=" stroke:none;fill-rule:nonzero;fill:rgb(68.255131%,67.67834%,67.821775%);fill-opacity:1;" d="M 36.023438 12.414062 L 36.023438 25.191406 L 36.128906 25.191406 L 36.128906 12.414062 L 36.023438 12.414062 Z M 36.023438 12.414062 "/>
<path style=" stroke:none;fill-rule:nonzero;fill:rgb(67.870603%,67.286183%,67.431144%);fill-opacity:1;" d="M 36.128906 12.414062 L 36.128906 25.191406 L 36.230469 25.191406 L 36.230469 12.414062 L 36.128906 12.414062 Z M 36.128906 12.414062 "/>
<path style=" stroke:none;fill-rule:nonzero;fill:rgb(67.486076%,66.894026%,67.040513%);fill-opacity:1;" d="M 36.230469 12.414062 L 36.230469 25.191406 L 36.335938 25.191406 L 36.335938 12.414062 L 36.230469 12.414062 Z M 36.230469 12.414062 "/>
<path style=" stroke:none;fill-rule:nonzero;fill:rgb(67.100023%,66.501869%,66.649882%);fill-opacity:1;" d="M 36.335938 12.414062 L 36.335938 25.191406 L 36.441406 25.191406 L 36.441406 12.414062 L 36.335938 12.414062 Z M 36.335938 12.414062 "/>
<path style=" stroke:none;fill-rule:nonzero;fill:rgb(66.715496%,66.109712%,66.260777%);fill-opacity:1;" d="M 36.441406 12.414062 L 36.441406 25.191406 L 36.542969 25.191406 L 36.542969 12.414062 L 36.441406 12.414062 Z M 36.441406 12.414062 "/>
<path style=" stroke:none;fill-rule:nonzero;fill:rgb(66.329442%,65.717556%,65.870146%);fill-opacity:1;" d="M 36.542969 12.414062 L 36.542969 25.191406 L 36.648438 25.191406 L 36.648438 12.414062 L 36.542969 12.414062 Z M 36.542969 12.414062 "/>
<path style=" stroke:none;fill-rule:nonzero;fill:rgb(65.944915%,65.325399%,65.479515%);fill-opacity:1;" d="M 36.648438 12.414062 L 36.648438 25.191406 L 36.753906 25.191406 L 36.753906 12.414062 L 36.648438 12.414062 Z M 36.648438 12.414062 "/>
<path style=" stroke:none;fill-rule:nonzero;fill:rgb(65.560388%,64.933242%,65.088884%);fill-opacity:1;" d="M 36.753906 12.414062 L 36.753906 25.191406 L 36.855469 25.191406 L 36.855469 12.414062 L 36.753906 12.414062 Z M 36.753906 12.414062 "/>
<path style=" stroke:none;fill-rule:nonzero;fill:rgb(65.174334%,64.541085%,64.698253%);fill-opacity:1;" d="M 36.855469 12.414062 L 36.855469 25.191406 L 36.960938 25.191406 L 36.960938 12.414062 L 36.855469 12.414062 Z M 36.855469 12.414062 "/>
<path style=" stroke:none;fill-rule:nonzero;fill:rgb(64.788281%,64.147402%,64.306096%);fill-opacity:1;" d="M 36.960938 12.414062 L 36.960938 25.191406 L 37.066406 25.191406 L 37.066406 12.414062 L 36.960938 12.414062 Z M 36.960938 12.414062 "/>
<path style=" stroke:none;fill-rule:nonzero;fill:rgb(64.403754%,63.756771%,63.916991%);fill-opacity:1;" d="M 37.066406 12.414062 L 37.066406 25.191406 L 37.167969 25.191406 L 37.167969 12.414062 L 37.066406 12.414062 Z M 37.066406 12.414062 "/>
<path style=" stroke:none;fill-rule:nonzero;fill:rgb(64.0177%,63.363088%,63.52636%);fill-opacity:1;" d="M 37.167969 12.414062 L 37.167969 25.191406 L 37.273438 25.191406 L 37.273438 12.414062 L 37.167969 12.414062 Z M 37.167969 12.414062 "/>
<path style=" stroke:none;fill-rule:nonzero;fill:rgb(63.634699%,62.972457%,63.137255%);fill-opacity:1;" d="M 37.273438 12.414062 L 37.273438 25.191406 L 37.378906 25.191406 L 37.378906 12.414062 L 37.273438 12.414062 Z M 37.273438 12.414062 "/>
<path style=" stroke:none;fill-rule:nonzero;fill:rgb(63.248646%,62.578775%,62.745098%);fill-opacity:1;" d="M 37.378906 12.414062 L 37.378906 25.191406 L 37.480469 25.191406 L 37.480469 12.414062 L 37.378906 12.414062 Z M 37.378906 12.414062 "/>
<path style=" stroke:none;fill-rule:nonzero;fill:rgb(62.864118%,62.188144%,62.355993%);fill-opacity:1;" d="M 37.480469 12.414062 L 37.480469 25.191406 L 37.585938 25.191406 L 37.585938 12.414062 L 37.480469 12.414062 Z M 37.480469 12.414062 "/>
<path style=" stroke:none;fill-rule:nonzero;fill:rgb(62.478065%,61.795987%,61.965362%);fill-opacity:1;" d="M 37.585938 12.414062 L 37.585938 25.191406 L 37.691406 25.191406 L 37.691406 12.414062 L 37.585938 12.414062 Z M 37.585938 12.414062 "/>
<path style=" stroke:none;fill-rule:nonzero;fill:rgb(62.093538%,61.40383%,61.574731%);fill-opacity:1;" d="M 37.691406 12.414062 L 37.691406 25.191406 L 37.792969 25.191406 L 37.792969 12.414062 L 37.691406 12.414062 Z M 37.691406 12.414062 "/>
<path style=" stroke:none;fill-rule:nonzero;fill:rgb(61.707485%,61.011673%,61.1841%);fill-opacity:1;" d="M 37.792969 12.414062 L 37.792969 25.191406 L 37.898438 25.191406 L 37.898438 12.414062 L 37.792969 12.414062 Z M 37.792969 12.414062 "/>
<path style=" stroke:none;fill-rule:nonzero;fill:rgb(61.324483%,60.619516%,60.794995%);fill-opacity:1;" d="M 37.898438 12.414062 L 37.898438 25.191406 L 38.003906 25.191406 L 38.003906 12.414062 L 37.898438 12.414062 Z M 37.898438 12.414062 "/>
<path style=" stroke:none;fill-rule:nonzero;fill:rgb(60.93843%,60.227359%,60.404364%);fill-opacity:1;" d="M 38.003906 12.414062 L 38.003906 25.191406 L 38.105469 25.191406 L 38.105469 12.414062 L 38.003906 12.414062 Z M 38.003906 12.414062 "/>
<path style=" stroke:none;fill-rule:nonzero;fill:rgb(60.553902%,59.835203%,60.013733%);fill-opacity:1;" d="M 38.105469 12.414062 L 38.105469 25.191406 L 38.210938 25.191406 L 38.210938 12.414062 L 38.105469 12.414062 Z M 38.105469 12.414062 "/>
<path style=" stroke:none;fill-rule:nonzero;fill:rgb(60.167849%,59.443046%,59.623102%);fill-opacity:1;" d="M 38.210938 12.414062 L 38.210938 25.191406 L 38.3125 25.191406 L 38.3125 12.414062 L 38.210938 12.414062 Z M 38.210938 12.414062 "/>
<path style=" stroke:none;fill-rule:nonzero;fill:rgb(59.783322%,59.052415%,59.233997%);fill-opacity:1;" d="M 38.3125 12.414062 L 38.3125 25.191406 L 38.417969 25.191406 L 38.417969 12.414062 L 38.3125 12.414062 Z M 38.3125 12.414062 "/>
<path style=" stroke:none;fill-rule:nonzero;fill:rgb(59.397269%,58.658732%,58.84184%);fill-opacity:1;" d="M 38.417969 12.414062 L 38.417969 25.191406 L 38.523438 25.191406 L 38.523438 12.414062 L 38.417969 12.414062 Z M 38.417969 12.414062 "/>
<path style=" stroke:none;fill-rule:nonzero;fill:rgb(59.012741%,58.268101%,58.452735%);fill-opacity:1;" d="M 38.523438 12.414062 L 38.523438 25.191406 L 38.625 25.191406 L 38.625 12.414062 L 38.523438 12.414062 Z M 38.523438 12.414062 "/>
<path style=" stroke:none;fill-rule:nonzero;fill:rgb(58.628214%,57.874418%,58.062104%);fill-opacity:1;" d="M 38.625 12.414062 L 38.625 25.191406 L 38.730469 25.191406 L 38.730469 12.414062 L 38.625 12.414062 Z M 38.625 12.414062 "/>
<path style=" stroke:none;fill-rule:nonzero;fill:rgb(58.243687%,57.483787%,57.671473%);fill-opacity:1;" d="M 38.730469 12.414062 L 38.730469 25.191406 L 38.835938 25.191406 L 38.835938 12.414062 L 38.730469 12.414062 Z M 38.730469 12.414062 "/>
<path style=" stroke:none;fill-rule:nonzero;fill:rgb(57.857633%,57.090105%,57.280842%);fill-opacity:1;" d="M 38.835938 12.414062 L 38.835938 25.191406 L 38.9375 25.191406 L 38.9375 12.414062 L 38.835938 12.414062 Z M 38.835938 12.414062 "/>
<path style=" stroke:none;fill-rule:nonzero;fill:rgb(57.47158%,56.697948%,56.890211%);fill-opacity:1;" d="M 38.9375 12.414062 L 38.9375 25.191406 L 39.042969 25.191406 L 39.042969 12.414062 L 38.9375 12.414062 Z M 38.9375 12.414062 "/>
<path style=" stroke:none;fill-rule:nonzero;fill:rgb(57.085527%,56.305791%,56.49958%);fill-opacity:1;" d="M 39.042969 12.414062 L 39.042969 25.191406 L 39.148438 25.191406 L 39.148438 12.414062 L 39.042969 12.414062 Z M 39.042969 12.414062 "/>
<path style=" stroke:none;fill-rule:nonzero;fill:rgb(56.702525%,55.913634%,56.108949%);fill-opacity:1;" d="M 39.148438 12.414062 L 39.148438 25.191406 L 39.25 25.191406 L 39.25 12.414062 L 39.148438 12.414062 Z M 39.148438 12.414062 "/>
<path style=" stroke:none;fill-rule:nonzero;fill:rgb(56.316472%,55.521477%,55.718318%);fill-opacity:1;" d="M 39.25 12.414062 L 39.25 25.191406 L 39.355469 25.191406 L 39.355469 12.414062 L 39.25 12.414062 Z M 39.25 12.414062 "/>
<path style=" stroke:none;fill-rule:nonzero;fill:rgb(55.931945%,55.12932%,55.329213%);fill-opacity:1;" d="M 39.355469 12.414062 L 39.355469 25.191406 L 39.460938 25.191406 L 39.460938 12.414062 L 39.355469 12.414062 Z M 39.355469 12.414062 "/>
<path style=" stroke:none;fill-rule:nonzero;fill:rgb(55.545892%,54.737163%,54.938582%);fill-opacity:1;" d="M 39.460938 12.414062 L 39.460938 25.191406 L 39.5625 25.191406 L 39.5625 12.414062 L 39.460938 12.414062 Z M 39.460938 12.414062 "/>
<path style=" stroke:none;fill-rule:nonzero;fill:rgb(55.161364%,54.345006%,54.547951%);fill-opacity:1;" d="M 39.5625 12.414062 L 39.5625 25.191406 L 39.667969 25.191406 L 39.667969 12.414062 L 39.5625 12.414062 Z M 39.5625 12.414062 "/>
<path style=" stroke:none;fill-rule:nonzero;fill:rgb(54.775311%,53.95285%,54.157321%);fill-opacity:1;" d="M 39.667969 12.414062 L 39.667969 25.191406 L 39.773438 25.191406 L 39.773438 12.414062 L 39.667969 12.414062 Z M 39.667969 12.414062 "/>
<path style=" stroke:none;fill-rule:nonzero;fill:rgb(54.392309%,53.562219%,53.768215%);fill-opacity:1;" d="M 39.773438 12.414062 L 39.773438 25.191406 L 39.875 25.191406 L 39.875 12.414062 L 39.773438 12.414062 Z M 39.773438 12.414062 "/>
<path style=" stroke:none;fill-rule:nonzero;fill:rgb(54.006256%,53.168536%,53.376059%);fill-opacity:1;" d="M 39.875 12.414062 L 39.875 25.191406 L 39.980469 25.191406 L 39.980469 12.414062 L 39.875 12.414062 Z M 39.875 12.414062 "/>
<path style=" stroke:none;fill-rule:nonzero;fill:rgb(53.621729%,52.777905%,52.986954%);fill-opacity:1;" d="M 39.980469 12.414062 L 39.980469 25.191406 L 40.085938 25.191406 L 40.085938 12.414062 L 39.980469 12.414062 Z M 39.980469 12.414062 "/>
<path style=" stroke:none;fill-rule:nonzero;fill:rgb(53.235676%,52.384222%,52.596323%);fill-opacity:1;" d="M 40.085938 12.414062 L 40.085938 25.191406 L 40.1875 25.191406 L 40.1875 12.414062 L 40.085938 12.414062 Z M 40.085938 12.414062 "/>
<path style=" stroke:none;fill-rule:nonzero;fill:rgb(52.851148%,51.993591%,52.207218%);fill-opacity:1;" d="M 40.1875 12.414062 L 40.1875 25.191406 L 40.292969 25.191406 L 40.292969 12.414062 L 40.1875 12.414062 Z M 40.1875 12.414062 "/>
<path style=" stroke:none;fill-rule:nonzero;fill:rgb(52.465095%,51.599908%,51.815061%);fill-opacity:1;" d="M 40.292969 12.414062 L 40.292969 25.191406 L 40.398438 25.191406 L 40.398438 12.414062 L 40.292969 12.414062 Z M 40.292969 12.414062 "/>
<path style=" stroke:none;fill-rule:nonzero;fill:rgb(52.080568%,51.209277%,51.425956%);fill-opacity:1;" d="M 40.398438 12.414062 L 40.398438 25.191406 L 40.5 25.191406 L 40.5 12.414062 L 40.398438 12.414062 Z M 40.398438 12.414062 "/>
<path style=" stroke:none;fill-rule:nonzero;fill:rgb(51.69604%,50.817121%,51.035325%);fill-opacity:1;" d="M 40.5 12.414062 L 40.5 25.191406 L 40.605469 25.191406 L 40.605469 12.414062 L 40.5 12.414062 Z M 40.5 12.414062 "/>
<path style=" stroke:none;fill-rule:nonzero;fill:rgb(51.311513%,50.424964%,50.644694%);fill-opacity:1;" d="M 40.605469 12.414062 L 40.605469 25.191406 L 40.710938 25.191406 L 40.710938 12.414062 L 40.605469 12.414062 Z M 40.605469 12.414062 "/>
<path style=" stroke:none;fill-rule:nonzero;fill:rgb(50.92546%,50.032807%,50.254063%);fill-opacity:1;" d="M 40.710938 12.414062 L 40.710938 25.191406 L 40.8125 25.191406 L 40.8125 12.414062 L 40.710938 12.414062 Z M 40.710938 12.414062 "/>
<path style=" stroke:none;fill-rule:nonzero;fill:rgb(50.539406%,49.639124%,49.863432%);fill-opacity:1;" d="M 40.8125 12.414062 L 40.8125 25.191406 L 40.917969 25.191406 L 40.917969 12.414062 L 40.8125 12.414062 Z M 40.8125 12.414062 "/>
<path style=" stroke:none;fill-rule:nonzero;fill:rgb(50.154879%,49.246967%,49.472801%);fill-opacity:1;" d="M 40.917969 12.414062 L 40.917969 25.191406 L 41.023438 25.191406 L 41.023438 12.414062 L 40.917969 12.414062 Z M 40.917969 12.414062 "/>
<path style=" stroke:none;fill-rule:nonzero;fill:rgb(49.770352%,48.856336%,49.08217%);fill-opacity:1;" d="M 41.023438 12.414062 L 41.023438 25.191406 L 41.125 25.191406 L 41.125 12.414062 L 41.023438 12.414062 Z M 41.023438 12.414062 "/>
<path style=" stroke:none;fill-rule:nonzero;fill:rgb(49.384298%,48.462654%,48.691539%);fill-opacity:1;" d="M 41.125 12.414062 L 41.125 25.191406 L 41.230469 25.191406 L 41.230469 12.414062 L 41.125 12.414062 Z M 41.125 12.414062 "/>
<path style=" stroke:none;fill-rule:nonzero;fill:rgb(48.999771%,48.072023%,48.302434%);fill-opacity:1;" d="M 41.230469 12.414062 L 41.230469 25.191406 L 41.335938 25.191406 L 41.335938 12.414062 L 41.230469 12.414062 Z M 41.230469 12.414062 "/>
<path style=" stroke:none;fill-rule:nonzero;fill:rgb(48.613718%,47.67834%,47.911803%);fill-opacity:1;" d="M 41.335938 12.414062 L 41.335938 25.191406 L 41.4375 25.191406 L 41.4375 12.414062 L 41.335938 12.414062 Z M 41.335938 12.414062 "/>
<path style=" stroke:none;fill-rule:nonzero;fill:rgb(48.229191%,47.287709%,47.521172%);fill-opacity:1;" d="M 41.4375 12.414062 L 41.4375 25.191406 L 41.542969 25.191406 L 41.542969 12.414062 L 41.4375 12.414062 Z M 41.4375 12.414062 "/>
<path style=" stroke:none;fill-rule:nonzero;fill:rgb(47.843137%,46.894026%,47.130541%);fill-opacity:1;" d="M 41.542969 12.414062 L 41.542969 25.191406 L 41.648438 25.191406 L 41.648438 12.414062 L 41.542969 12.414062 Z M 41.542969 12.414062 "/>
<path style=" stroke:none;fill-rule:nonzero;fill:rgb(47.460136%,46.503395%,46.741436%);fill-opacity:1;" d="M 41.648438 12.414062 L 41.648438 25.191406 L 41.75 25.191406 L 41.75 12.414062 L 41.648438 12.414062 Z M 41.648438 12.414062 "/>
<path style=" stroke:none;fill-rule:nonzero;fill:rgb(47.074083%,46.111238%,46.349279%);fill-opacity:1;" d="M 41.75 12.414062 L 41.75 25.191406 L 41.855469 25.191406 L 41.855469 12.414062 L 41.75 12.414062 Z M 41.75 12.414062 "/>
<path style=" stroke:none;fill-rule:nonzero;fill:rgb(46.689555%,45.719081%,45.960174%);fill-opacity:1;" d="M 41.855469 12.414062 L 41.855469 25.191406 L 41.960938 25.191406 L 41.960938 12.414062 L 41.855469 12.414062 Z M 41.855469 12.414062 "/>
<path style=" stroke:none;fill-rule:nonzero;fill:rgb(46.303502%,45.326925%,45.569543%);fill-opacity:1;" d="M 41.960938 12.414062 L 41.960938 25.191406 L 42.0625 25.191406 L 42.0625 12.414062 L 41.960938 12.414062 Z M 41.960938 12.414062 "/>
<path style=" stroke:none;fill-rule:nonzero;fill:rgb(45.918975%,44.934768%,45.178912%);fill-opacity:1;" d="M 42.0625 12.414062 L 42.0625 25.191406 L 42.167969 25.191406 L 42.167969 12.414062 L 42.0625 12.414062 Z M 42.0625 12.414062 "/>
<path style=" stroke:none;fill-rule:nonzero;fill:rgb(45.532921%,44.542611%,44.788281%);fill-opacity:1;" d="M 42.167969 12.414062 L 42.167969 25.191406 L 42.273438 25.191406 L 42.273438 12.414062 L 42.167969 12.414062 Z M 42.167969 12.414062 "/>
<path style=" stroke:none;fill-rule:nonzero;fill:rgb(45.14992%,44.150454%,44.399176%);fill-opacity:1;" d="M 42.273438 12.414062 L 42.273438 25.191406 L 42.375 25.191406 L 42.375 12.414062 L 42.273438 12.414062 Z M 42.273438 12.414062 "/>
<path style=" stroke:none;fill-rule:nonzero;fill:rgb(44.763867%,43.758297%,44.008545%);fill-opacity:1;" d="M 42.375 12.414062 L 42.375 25.191406 L 42.480469 25.191406 L 42.480469 12.414062 L 42.375 12.414062 Z M 42.375 12.414062 "/>
<path style=" stroke:none;fill-rule:nonzero;fill:rgb(44.379339%,43.36614%,43.617914%);fill-opacity:1;" d="M 42.480469 12.414062 L 42.480469 25.191406 L 42.585938 25.191406 L 42.585938 12.414062 L 42.480469 12.414062 Z M 42.480469 12.414062 "/>
<path style=" stroke:none;fill-rule:nonzero;fill:rgb(43.993286%,42.973983%,43.227283%);fill-opacity:1;" d="M 42.585938 12.414062 L 42.585938 25.191406 L 42.6875 25.191406 L 42.6875 12.414062 L 42.585938 12.414062 Z M 42.585938 12.414062 "/>
<path style=" stroke:none;fill-rule:nonzero;fill:rgb(43.607233%,42.581827%,42.836652%);fill-opacity:1;" d="M 42.6875 12.414062 L 42.6875 25.191406 L 42.792969 25.191406 L 42.792969 12.414062 L 42.6875 12.414062 Z M 42.6875 12.414062 "/>
<path style=" stroke:none;fill-rule:nonzero;fill:rgb(43.222705%,42.188144%,42.446021%);fill-opacity:1;" d="M 42.792969 12.414062 L 42.792969 25.191406 L 42.898438 25.191406 L 42.898438 12.414062 L 42.792969 12.414062 Z M 42.792969 12.414062 "/>
<path style=" stroke:none;fill-rule:nonzero;fill:rgb(42.838178%,41.797513%,42.05539%);fill-opacity:1;" d="M 42.898438 12.414062 L 42.898438 25.191406 L 43 25.191406 L 43 12.414062 L 42.898438 12.414062 Z M 42.898438 12.414062 "/>
<path style=" stroke:none;fill-rule:nonzero;fill:rgb(42.452125%,41.40383%,41.664759%);fill-opacity:1;" d="M 43 12.414062 L 43 25.191406 L 43.105469 25.191406 L 43.105469 12.414062 L 43 12.414062 Z M 43 12.414062 "/>
<path style=" stroke:none;fill-rule:nonzero;fill:rgb(42.067597%,41.013199%,41.275654%);fill-opacity:1;" d="M 43.105469 12.414062 L 43.105469 25.191406 L 43.210938 25.191406 L 43.210938 12.414062 L 43.105469 12.414062 Z M 43.105469 12.414062 "/>
<path style=" stroke:none;fill-rule:nonzero;fill:rgb(41.681544%,40.621042%,40.883497%);fill-opacity:1;" d="M 43.210938 12.414062 L 43.210938 25.191406 L 43.3125 25.191406 L 43.3125 12.414062 L 43.210938 12.414062 Z M 43.210938 12.414062 "/>
<path style=" stroke:none;fill-rule:nonzero;fill:rgb(41.297017%,40.228885%,40.494392%);fill-opacity:1;" d="M 43.3125 12.414062 L 43.3125 25.191406 L 43.417969 25.191406 L 43.417969 12.414062 L 43.3125 12.414062 Z M 43.3125 12.414062 "/>
<path style=" stroke:none;fill-rule:nonzero;fill:rgb(40.910964%,39.836728%,40.103761%);fill-opacity:1;" d="M 43.417969 12.414062 L 43.417969 25.191406 L 43.523438 25.191406 L 43.523438 12.414062 L 43.417969 12.414062 Z M 43.417969 12.414062 "/>
<path style=" stroke:none;fill-rule:nonzero;fill:rgb(40.527962%,39.444572%,39.71313%);fill-opacity:1;" d="M 43.523438 12.414062 L 43.523438 25.191406 L 43.625 25.191406 L 43.625 12.414062 L 43.523438 12.414062 Z M 43.523438 12.414062 "/>
<path style=" stroke:none;fill-rule:nonzero;fill:rgb(40.141909%,39.052415%,39.322499%);fill-opacity:1;" d="M 43.625 12.414062 L 43.625 25.191406 L 43.730469 25.191406 L 43.730469 12.414062 L 43.625 12.414062 Z M 43.625 12.414062 "/>
<path style=" stroke:none;fill-rule:nonzero;fill:rgb(39.757382%,38.660258%,38.933394%);fill-opacity:1;" d="M 43.730469 12.414062 L 43.730469 25.191406 L 43.835938 25.191406 L 43.835938 12.414062 L 43.730469 12.414062 Z M 43.730469 12.414062 "/>
<path style=" stroke:none;fill-rule:nonzero;fill:rgb(39.371328%,38.268101%,38.542763%);fill-opacity:1;" d="M 43.835938 12.414062 L 43.835938 25.191406 L 43.9375 25.191406 L 43.9375 12.414062 L 43.835938 12.414062 Z M 43.835938 12.414062 "/>
<path style=" stroke:none;fill-rule:nonzero;fill:rgb(38.986801%,37.87747%,38.152132%);fill-opacity:1;" d="M 43.9375 12.414062 L 43.9375 25.191406 L 44.042969 25.191406 L 44.042969 12.414062 L 43.9375 12.414062 Z M 43.9375 12.414062 "/>
<path style=" stroke:none;fill-rule:nonzero;fill:rgb(38.600748%,37.483787%,37.761501%);fill-opacity:1;" d="M 44.042969 12.414062 L 44.042969 25.191406 L 44.148438 25.191406 L 44.148438 12.414062 L 44.042969 12.414062 Z M 44.042969 12.414062 "/>
<path style=" stroke:none;fill-rule:nonzero;fill:rgb(38.217746%,37.093156%,37.372396%);fill-opacity:1;" d="M 44.148438 12.414062 L 44.148438 25.191406 L 44.25 25.191406 L 44.25 12.414062 L 44.148438 12.414062 Z M 44.148438 12.414062 "/>
<path style=" stroke:none;fill-rule:nonzero;fill:rgb(37.831693%,36.699474%,36.98024%);fill-opacity:1;" d="M 44.25 12.414062 L 44.25 25.191406 L 44.355469 25.191406 L 44.355469 12.414062 L 44.25 12.414062 Z M 44.25 12.414062 "/>
<path style=" stroke:none;fill-rule:nonzero;fill:rgb(37.447166%,36.308843%,36.591135%);fill-opacity:1;" d="M 44.355469 12.414062 L 44.355469 25.191406 L 44.460938 25.191406 L 44.460938 12.414062 L 44.355469 12.414062 Z M 44.355469 12.414062 "/>
<path style=" stroke:none;fill-rule:nonzero;fill:rgb(37.061112%,35.91516%,36.200504%);fill-opacity:1;" d="M 44.460938 12.414062 L 44.460938 25.191406 L 44.5625 25.191406 L 44.5625 12.414062 L 44.460938 12.414062 Z M 44.460938 12.414062 "/>
<path style=" stroke:none;fill-rule:nonzero;fill:rgb(36.676585%,35.524529%,35.811398%);fill-opacity:1;" d="M 44.5625 12.414062 L 44.5625 25.191406 L 44.667969 25.191406 L 44.667969 12.414062 L 44.5625 12.414062 Z M 44.5625 12.414062 "/>
<path style=" stroke:none;fill-rule:nonzero;fill:rgb(36.290532%,35.132372%,35.419242%);fill-opacity:1;" d="M 44.667969 12.414062 L 44.667969 25.191406 L 44.773438 25.191406 L 44.773438 12.414062 L 44.667969 12.414062 Z M 44.667969 12.414062 "/>
<path style=" stroke:none;fill-rule:nonzero;fill:rgb(35.906004%,34.738689%,35.028611%);fill-opacity:1;" d="M 44.773438 12.414062 L 44.773438 25.191406 L 44.875 25.191406 L 44.875 12.414062 L 44.773438 12.414062 Z M 44.773438 12.414062 "/>
<path style=" stroke:none;fill-rule:nonzero;fill:rgb(35.519951%,34.346532%,34.63798%);fill-opacity:1;" d="M 44.875 12.414062 L 44.875 25.191406 L 44.980469 25.191406 L 44.980469 12.414062 L 44.875 12.414062 Z M 44.875 12.414062 "/>
<path style=" stroke:none;fill-rule:nonzero;fill:rgb(35.135424%,33.954376%,34.248875%);fill-opacity:1;" d="M 44.980469 12.414062 L 44.980469 25.191406 L 45.085938 25.191406 L 45.085938 12.414062 L 44.980469 12.414062 Z M 44.980469 12.414062 "/>
<path style=" stroke:none;fill-rule:nonzero;fill:rgb(34.749371%,33.562219%,33.856718%);fill-opacity:1;" d="M 45.085938 12.414062 L 45.085938 25.191406 L 45.1875 25.191406 L 45.1875 12.414062 L 45.085938 12.414062 Z M 45.085938 12.414062 "/>
<path style=" stroke:none;fill-rule:nonzero;fill:rgb(34.364843%,33.170062%,33.467613%);fill-opacity:1;" d="M 45.1875 12.414062 L 45.1875 25.191406 L 45.292969 25.191406 L 45.292969 12.414062 L 45.1875 12.414062 Z M 45.1875 12.414062 "/>
<path style=" stroke:none;fill-rule:nonzero;fill:rgb(33.980316%,32.777905%,33.076982%);fill-opacity:1;" d="M 45.292969 12.414062 L 45.292969 25.191406 L 45.398438 25.191406 L 45.398438 12.414062 L 45.292969 12.414062 Z M 45.292969 12.414062 "/>
<path style=" stroke:none;fill-rule:nonzero;fill:rgb(33.595789%,32.387274%,32.686351%);fill-opacity:1;" d="M 45.398438 12.414062 L 45.398438 25.191406 L 45.5 25.191406 L 45.5 12.414062 L 45.398438 12.414062 Z M 45.398438 12.414062 "/>
<path style=" stroke:none;fill-rule:nonzero;fill:rgb(33.209735%,31.993591%,32.29572%);fill-opacity:1;" d="M 45.5 12.414062 L 45.5 25.191406 L 45.605469 25.191406 L 45.605469 12.414062 L 45.5 12.414062 Z M 45.5 12.414062 "/>
<path style=" stroke:none;fill-rule:nonzero;fill:rgb(32.825208%,31.60296%,31.906615%);fill-opacity:1;" d="M 45.605469 12.414062 L 45.605469 25.191406 L 45.710938 25.191406 L 45.710938 12.414062 L 45.605469 12.414062 Z M 45.605469 12.414062 "/>
<path style=" stroke:none;fill-rule:nonzero;fill:rgb(32.439155%,31.209277%,31.515984%);fill-opacity:1;" d="M 45.710938 12.414062 L 45.710938 25.191406 L 45.8125 25.191406 L 45.8125 12.414062 L 45.710938 12.414062 Z M 45.710938 12.414062 "/>
<path style=" stroke:none;fill-rule:nonzero;fill:rgb(32.054627%,30.818647%,31.125353%);fill-opacity:1;" d="M 45.8125 12.414062 L 45.8125 25.191406 L 45.917969 25.191406 L 45.917969 12.414062 L 45.8125 12.414062 Z M 45.8125 12.414062 "/>
<path style=" stroke:none;fill-rule:nonzero;fill:rgb(31.668574%,30.42649%,30.734722%);fill-opacity:1;" d="M 45.917969 12.414062 L 45.917969 25.191406 L 46.023438 25.191406 L 46.023438 12.414062 L 45.917969 12.414062 Z M 45.917969 12.414062 "/>
</g>
<path style=" stroke:none;fill-rule:nonzero;fill:rgb(70.000763%,70.000763%,70.000763%);fill-opacity:1;" d="M 32.691406 17.601562 C 40.054688 17.601562 46.023438 15.277344 46.023438 12.414062 C 46.023438 9.550781 40.054688 7.230469 32.691406 7.230469 C 25.328125 7.230469 19.359375 9.550781 19.359375 12.414062 C 19.359375 15.277344 25.328125 17.601562 32.691406 17.601562 "/>
<path style=" stroke:none;fill-rule:nonzero;fill:rgb(100%,100%,100%);fill-opacity:1;" d="M 29.773438 10.339844 L 30.890625 12.011719 L 26.667969 12.988281 L 27.589844 12.21875 L 21.066406 11.105469 L 22.703125 9.878906 L 28.996094 10.945312 L 29.773438 10.339844 "/>
<g clip-path="url(#clip2)" clip-rule="nonzero">
<path style=" stroke:none;fill-rule:nonzero;fill:rgb(0%,0%,0%);fill-opacity:1;" d="M 26.667969 13.496094 L 27.589844 12.726562 L 27.589844 12.214844 L 26.777344 12.519531 L 26.117188 13.128906 L 26.667969 13.496094 "/>
<path style=" stroke:none;fill-rule:nonzero;fill:rgb(0%,0%,0%);fill-opacity:1;" d="M 31.242188 12.113281 L 30.179688 10.339844 L 29.621094 10.183594 L 28.960938 10.691406 L 22.714844 9.628906 L 20.734375 11.046875 L 21.066406 11.613281 L 22.703125 10.386719 L 28.996094 11.453125 L 29.773438 10.84375 L 30.890625 12.519531 L 31.242188 12.113281 "/>
</g>
<path style=" stroke:none;fill-rule:nonzero;fill:rgb(100%,100%,100%);fill-opacity:1;" d="M 35.710938 14.398438 L 34.949219 12.671875 L 38.757812 11.910156 L 38.097656 12.503906 L 44.445312 13.585938 L 42.921875 14.804688 L 36.613281 13.621094 L 35.710938 14.398438 "/>
<g clip-path="url(#clip3)" clip-rule="nonzero">
<path style=" stroke:none;fill-rule:nonzero;fill:rgb(0%,0%,0%);fill-opacity:1;" d="M 34.949219 13.28125 L 38.757812 12.519531 L 39.164062 11.859375 L 38.707031 11.554688 L 34.492188 12.519531 L 34.949219 13.28125 "/>
<path style=" stroke:none;fill-rule:nonzero;fill:rgb(0%,0%,0%);fill-opacity:1;" d="M 44.746094 13.382812 L 38.859375 12.265625 L 38.097656 12.570312 L 38.097656 13.113281 L 44.445312 14.195312 L 44.746094 13.382812 "/>
</g>
<path style=" stroke:none;fill-rule:nonzero;fill:rgb(100%,100%,100%);fill-opacity:1;" d="M 33.632812 9.425781 L 37.894531 8.257812 L 37.945312 10.085938 L 36.878906 9.882812 L 34.796875 11.605469 L 32.8125 11.316406 L 34.960938 9.628906 L 33.632812 9.425781 "/>
<g clip-path="url(#clip4)" clip-rule="nonzero">
<path style=" stroke:none;fill-rule:nonzero;fill:rgb(0%,0%,0%);fill-opacity:1;" d="M 33.832031 9.882812 L 38.046875 8.714844 L 38.351562 8.308594 L 37.996094 7.898438 L 33.121094 9.273438 L 33.832031 9.882812 "/>
<path style=" stroke:none;fill-rule:nonzero;fill:rgb(0%,0%,0%);fill-opacity:1;" d="M 34.949219 9.628906 L 34.949219 10.234375 L 32.714844 11.960938 L 32.515625 11.101562 L 34.140625 9.828125 L 34.949219 9.628906 "/>
</g>
<path style=" stroke:none;fill-rule:nonzero;fill:rgb(100%,100%,100%);fill-opacity:1;" d="M 31.804688 15.972656 L 27.742188 16.734375 L 27.589844 14.855469 L 28.757812 15.109375 L 30.992188 13.199219 L 32.96875 13.535156 L 30.585938 15.617188 L 31.804688 15.972656 "/>
<g clip-path="url(#clip5)" clip-rule="nonzero">
<path style=" stroke:none;fill-rule:nonzero;fill:rgb(0%,0%,0%);fill-opacity:1;" d="M 27.183594 14.398438 L 27.183594 15.414062 L 28.757812 15.71875 L 30.992188 13.808594 L 32.96875 14.144531 L 33.527344 13.382812 L 30.890625 12.875 L 28.65625 14.753906 L 27.183594 14.398438 "/>
<path style=" stroke:none;fill-rule:nonzero;fill:rgb(0%,0%,0%);fill-opacity:1;" d="M 31.902344 15.464844 L 30.585938 15.617188 L 30.585938 16.226562 L 31.804688 16.582031 L 32.515625 15.972656 L 31.902344 15.464844 "/>
</g>
<path style="fill:none;stroke-width:0.8;stroke-linecap:round;stroke-linejoin:round;stroke:rgb(0%,0%,0%);stroke-opacity:1;stroke-miterlimit:4;" d="M 42.785156 1.222656 L 15.109375 1.222656 L 15.105469 24.148438 L 42.78125 24.148438 L 42.785156 1.222656 Z M 50.769531 5.925781 L 42.785156 1.222656 L 42.78125 24.148438 L 50.761719 28.714844 L 50.769531 5.925781 Z M 42.78125 24.148438 L 15.105469 24.148438 L 22.847656 28.636719 L 50.761719 28.714844 L 42.78125 24.148438 Z M 0.757812 14.097656 L 13.757812 14.097656 M 4.925781 10.289062 L 13.59375 10.289062 M 13.757812 19.402344 L 6.589844 19.402344 M 3.257812 16 L 13.59375 16 " transform="matrix(1,0,0,-1,0,30)"/>
</g>
</svg>
