<?xml version="1.0" encoding="UTF-8"?>
<svg xmlns="http://www.w3.org/2000/svg" xmlns:xlink="http://www.w3.org/1999/xlink" width="15" height="33" viewBox="0 0 15 33" version="1.1">
<g id="surface0">
<path style=" stroke:none;fill-rule:nonzero;fill:rgb(50.000763%,50.000763%,50.000763%);fill-opacity:1;" d="M 0.503906 5.667969 L 8.429688 5.667969 L 8.429688 32.148438 L 0.503906 32.148438 L 0.503906 5.667969 Z M 0.503906 5.667969 "/>
<path style=" stroke:none;fill-rule:nonzero;fill:rgb(70.000763%,70.000763%,70.000763%);fill-opacity:1;" d="M 8.429688 5.667969 L 0.503906 5.667969 L 7.605469 0.0507812 L 14.519531 0.0507812 L 8.429688 5.667969 "/>
<path style=" stroke:none;fill-rule:nonzero;fill:rgb(20%,20%,20%);fill-opacity:1;" d="M 14.519531 0.0507812 L 14.519531 25.320312 L 8.429688 32.1875 L 8.429688 5.667969 L 14.519531 0.0507812 "/>
<path style="fill-rule:nonzero;fill:rgb(0%,0%,0%);fill-opacity:1;stroke-width:0.4;stroke-linecap:butt;stroke-linejoin:miter;stroke:rgb(90.000763%,90.000763%,90.000763%);stroke-opacity:1;stroke-miterlimit:4;" d="M 12.644531 27.019531 L 12.644531 31.269531 " transform="matrix(1,0,0,-1,0,33)"/>
<path style="fill-rule:nonzero;fill:rgb(0%,0%,0%);fill-opacity:1;stroke-width:0.4;stroke-linecap:butt;stroke-linejoin:miter;stroke:rgb(90.000763%,90.000763%,90.000763%);stroke-opacity:1;stroke-miterlimit:4;" d="M 12.644531 18.417969 L 12.644531 22.667969 " transform="matrix(1,0,0,-1,0,33)"/>
<path style="fill-rule:nonzero;fill:rgb(0%,0%,0%);fill-opacity:1;stroke-width:0.4;stroke-linecap:butt;stroke-linejoin:miter;stroke:rgb(90.000763%,90.000763%,90.000763%);stroke-opacity:1;stroke-miterlimit:4;" d="M 12.644531 9.8125 L 12.644531 14.0625 " transform="matrix(1,0,0,-1,0,33)"/>
<path style="fill-rule:nonzero;fill:rgb(0%,0%,0%);fill-opacity:1;stroke-width:0.4;stroke-linecap:butt;stroke-linejoin:miter;stroke:rgb(90.000763%,90.000763%,90.000763%);stroke-opacity:1;stroke-miterlimit:4;" d="M 14.519531 11.890625 L 8.429688 5.234375 " transform="matrix(1,0,0,-1,0,33)"/>
<path style="fill-rule:nonzero;fill:rgb(0%,0%,0%);fill-opacity:1;stroke-width:0.4;stroke-linecap:butt;stroke-linejoin:miter;stroke:rgb(90.000763%,90.000763%,90.000763%);stroke-opacity:1;stroke-miterlimit:4;" d="M 14.519531 16.101562 L 8.429688 9.652344 " transform="matrix(1,0,0,-1,0,33)"/>
<path style="fill-rule:nonzero;fill:rgb(0%,0%,0%);fill-opacity:1;stroke-width:0.4;stroke-linecap:butt;stroke-linejoin:miter;stroke:rgb(90.000763%,90.000763%,90.000763%);stroke-opacity:1;stroke-miterlimit:4;" d="M 14.519531 20.3125 L 8.429688 14.074219 " transform="matrix(1,0,0,-1,0,33)"/>
<path style="fill-rule:nonzero;fill:rgb(0%,0%,0%);fill-opacity:1;stroke-width:0.4;stroke-linecap:butt;stroke-linejoin:miter;stroke:rgb(90.000763%,90.000763%,90.000763%);stroke-opacity:1;stroke-miterlimit:4;" d="M 14.519531 24.523438 L 8.429688 18.492188 " transform="matrix(1,0,0,-1,0,33)"/>
<path style="fill-rule:nonzero;fill:rgb(0%,0%,0%);fill-opacity:1;stroke-width:0.4;stroke-linecap:butt;stroke-linejoin:miter;stroke:rgb(90.000763%,90.000763%,90.000763%);stroke-opacity:1;stroke-miterlimit:4;" d="M 14.519531 28.738281 L 8.429688 22.914062 " transform="matrix(1,0,0,-1,0,33)"/>
<path style="fill-rule:nonzero;fill:rgb(0%,0%,0%);fill-opacity:1;stroke-width:0.4;stroke-linecap:butt;stroke-linejoin:miter;stroke:rgb(90.000763%,90.000763%,90.000763%);stroke-opacity:1;stroke-miterlimit:4;" d="M 8.429688 5.265625 L 0.503906 5.265625 " transform="matrix(1,0,0,-1,0,33)"/>
<path style="fill-rule:nonzero;fill:rgb(0%,0%,0%);fill-opacity:1;stroke-width:0.4;stroke-linecap:butt;stroke-linejoin:miter;stroke:rgb(90.000763%,90.000763%,90.000763%);stroke-opacity:1;stroke-miterlimit:4;" d="M 8.429688 9.679688 L 0.503906 9.679688 " transform="matrix(1,0,0,-1,0,33)"/>
<path style="fill-rule:nonzero;fill:rgb(0%,0%,0%);fill-opacity:1;stroke-width:0.4;stroke-linecap:butt;stroke-linejoin:miter;stroke:rgb(90.000763%,90.000763%,90.000763%);stroke-opacity:1;stroke-miterlimit:4;" d="M 8.429688 14.089844 L 0.503906 14.089844 " transform="matrix(1,0,0,-1,0,33)"/>
<path style="fill-rule:nonzero;fill:rgb(0%,0%,0%);fill-opacity:1;stroke-width:0.4;stroke-linecap:butt;stroke-linejoin:miter;stroke:rgb(90.000763%,90.000763%,90.000763%);stroke-opacity:1;stroke-miterlimit:4;" d="M 8.429688 18.503906 L 0.503906 18.503906 " transform="matrix(1,0,0,-1,0,33)"/>
<path style="fill-rule:nonzero;fill:rgb(0%,0%,0%);fill-opacity:1;stroke-width:0.4;stroke-linecap:butt;stroke-linejoin:miter;stroke:rgb(90.000763%,90.000763%,90.000763%);stroke-opacity:1;stroke-miterlimit:4;" d="M 8.429688 22.917969 L 0.503906 22.917969 " transform="matrix(1,0,0,-1,0,33)"/>
<path style="fill-rule:nonzero;fill:rgb(0%,0%,0%);fill-opacity:1;stroke-width:0.4;stroke-linecap:butt;stroke-linejoin:miter;stroke:rgb(90.000763%,90.000763%,90.000763%);stroke-opacity:1;stroke-miterlimit:4;" d="M 10.582031 3.25 L 10.582031 7.519531 " transform="matrix(1,0,0,-1,0,33)"/>
<path style="fill-rule:nonzero;fill:rgb(0%,0%,0%);fill-opacity:1;stroke-width:0.4;stroke-linecap:butt;stroke-linejoin:miter;stroke:rgb(90.000763%,90.000763%,90.000763%);stroke-opacity:1;stroke-miterlimit:4;" d="M 10.582031 11.980469 L 10.582031 16.25 " transform="matrix(1,0,0,-1,0,33)"/>
<path style="fill-rule:nonzero;fill:rgb(0%,0%,0%);fill-opacity:1;stroke-width:0.4;stroke-linecap:butt;stroke-linejoin:miter;stroke:rgb(90.000763%,90.000763%,90.000763%);stroke-opacity:1;stroke-miterlimit:4;" d="M 10.582031 20.625 L 10.582031 24.894531 " transform="matrix(1,0,0,-1,0,33)"/>
</g>
</svg>
