<?xml version="1.0" encoding="UTF-8"?>
<svg xmlns="http://www.w3.org/2000/svg" xmlns:xlink="http://www.w3.org/1999/xlink" width="48" height="32" viewBox="0 0 48 32" version="1.1">
<g id="surface0">
<path style=" stroke:none;fill-rule:nonzero;fill:rgb(0%,0%,0%);fill-opacity:1;" d="M 13.457031 5.082031 C 16.734375 -2.8125 32.5625 -0.339844 33.855469 5.519531 C 39.460938 2.367188 44.824219 7.140625 43.660156 12.4375 C 49.179688 14.273438 48.546875 22.703125 42.261719 24.082031 C 41.640625 30.386719 34.117188 31.433594 30.003906 28.019531 C 27.464844 31.871094 16.171875 33.1875 13.019531 26.96875 C 8.289062 30.648438 2.601562 25.917969 4.175781 21.980469 C 0.5 21.453125 -1.429688 13.660156 4.175781 11.910156 C 1.921875 6.375 8.027344 2.277344 13.457031 5.082031 "/>
<path style=" stroke:none;fill-rule:nonzero;fill:rgb(1.599145%,1.599145%,1.599145%);fill-opacity:1;" d="M 13.457031 5.097656 C 16.738281 -2.796875 32.503906 -0.289062 33.796875 5.566406 C 39.398438 2.382812 44.757812 7.160156 43.597656 12.457031 C 49.121094 14.199219 48.496094 22.703125 42.234375 24.054688 C 41.6875 30.382812 34.089844 31.414062 30.019531 27.96875 C 27.515625 31.886719 16.207031 33.144531 13.054688 26.925781 C 8.367188 30.65625 2.625 25.914062 4.210938 21.964844 C 0.507812 21.46875 -1.382812 13.582031 4.230469 11.921875 C 1.9375 6.417969 8.050781 2.300781 13.457031 5.097656 "/>
<path style=" stroke:none;fill-rule:nonzero;fill:rgb(3.099107%,3.099107%,3.099107%);fill-opacity:1;" d="M 13.457031 5.113281 C 16.738281 -2.777344 32.441406 -0.246094 33.734375 5.613281 C 39.335938 2.394531 44.695312 7.183594 43.53125 12.480469 C 49.066406 14.125 48.449219 22.707031 42.210938 24.023438 C 41.734375 30.382812 34.058594 31.390625 30.035156 27.917969 C 27.570312 31.902344 16.242188 33.101562 13.089844 26.882812 C 8.445312 30.660156 2.648438 25.90625 4.246094 21.949219 C 0.519531 21.480469 -1.335938 13.503906 4.285156 11.9375 C 1.953125 6.464844 8.074219 2.324219 13.457031 5.113281 "/>
<path style=" stroke:none;fill-rule:nonzero;fill:rgb(4.699779%,4.699779%,4.699779%);fill-opacity:1;" d="M 13.457031 5.128906 C 16.738281 -2.761719 32.378906 -0.199219 33.671875 5.65625 C 39.273438 2.410156 44.628906 7.203125 43.464844 12.5 C 49.011719 14.050781 48.398438 22.707031 42.183594 23.996094 C 41.78125 30.378906 34.027344 31.367188 30.054688 27.863281 C 27.621094 31.917969 16.277344 33.054688 13.125 26.839844 C 8.523438 30.671875 2.675781 25.902344 4.28125 21.933594 C 0.53125 21.496094 -1.289062 13.421875 4.339844 11.949219 C 1.972656 6.507812 8.097656 2.347656 13.457031 5.128906 "/>
<path style=" stroke:none;fill-rule:nonzero;fill:rgb(6.298924%,6.298924%,6.298924%);fill-opacity:1;" d="M 13.460938 5.144531 C 16.738281 -2.746094 32.320312 -0.152344 33.609375 5.703125 C 39.210938 2.421875 44.5625 7.226562 43.402344 12.523438 C 48.957031 13.976562 48.347656 22.710938 42.160156 23.96875 C 41.828125 30.378906 33.996094 31.347656 30.070312 27.8125 C 27.671875 31.933594 16.3125 33.011719 13.160156 26.796875 C 8.601562 30.679688 2.699219 25.894531 4.316406 21.917969 C 0.542969 21.511719 -1.242188 13.34375 4.394531 11.960938 C 1.988281 6.550781 8.117188 2.371094 13.460938 5.144531 "/>
<path style=" stroke:none;fill-rule:nonzero;fill:rgb(7.798886%,7.798886%,7.798886%);fill-opacity:1;" d="M 13.460938 5.164062 C 16.738281 -2.730469 32.257812 -0.105469 33.550781 5.75 C 39.148438 2.4375 44.5 7.246094 43.335938 12.546875 C 48.902344 13.902344 48.300781 22.710938 42.132812 23.941406 C 41.875 30.375 33.96875 31.324219 30.085938 27.761719 C 27.726562 31.949219 16.351562 32.96875 13.199219 26.753906 C 8.679688 30.683594 2.726562 25.890625 4.351562 21.902344 C 0.554688 21.523438 -1.195312 13.265625 4.449219 11.972656 C 2.003906 6.597656 8.140625 2.394531 13.460938 5.164062 "/>
<path style=" stroke:none;fill-rule:nonzero;fill:rgb(9.399557%,9.399557%,9.399557%);fill-opacity:1;" d="M 13.460938 5.179688 C 16.738281 -2.714844 32.195312 -0.0585938 33.488281 5.796875 C 39.085938 2.449219 44.433594 7.269531 43.269531 12.566406 C 48.847656 13.828125 48.25 22.710938 42.105469 23.914062 C 41.921875 30.375 33.9375 31.300781 30.105469 27.710938 C 27.777344 31.964844 16.386719 32.925781 13.234375 26.710938 C 8.757812 30.691406 2.75 25.882812 4.386719 21.886719 C 0.5625 21.539062 -1.148438 13.183594 4.503906 11.988281 C 2.019531 6.640625 8.164062 2.417969 13.460938 5.179688 "/>
<path style=" stroke:none;fill-rule:nonzero;fill:rgb(10.998703%,10.998703%,10.998703%);fill-opacity:1;" d="M 13.460938 5.195312 C 16.742188 -2.695312 32.136719 -0.0117188 33.425781 5.84375 C 39.023438 2.464844 44.367188 7.292969 43.207031 12.589844 C 48.792969 13.753906 48.199219 22.714844 42.082031 23.886719 C 41.96875 30.371094 33.90625 31.277344 30.121094 27.65625 C 27.828125 31.976562 16.421875 32.882812 13.269531 26.664062 C 8.835938 30.699219 2.777344 25.878906 4.421875 21.871094 C 0.574219 21.550781 -1.105469 13.105469 4.558594 12 C 2.039062 6.683594 8.1875 2.441406 13.460938 5.195312 "/>
<path style=" stroke:none;fill-rule:nonzero;fill:rgb(12.500191%,12.500191%,12.500191%);fill-opacity:1;" d="M 13.460938 5.210938 C 16.742188 -2.679688 32.074219 0.03125 33.367188 5.890625 C 38.960938 2.480469 44.304688 7.3125 43.140625 12.609375 C 48.738281 13.675781 48.148438 22.714844 42.054688 23.859375 C 42.015625 30.371094 33.878906 31.257812 30.136719 27.605469 C 27.882812 31.992188 16.457031 32.839844 13.304688 26.621094 C 8.914062 30.707031 2.800781 25.871094 4.460938 21.855469 C 0.585938 21.566406 -1.058594 13.023438 4.613281 12.011719 C 2.054688 6.726562 8.210938 2.464844 13.460938 5.210938 "/>
<path style=" stroke:none;fill-rule:nonzero;fill:rgb(14.099336%,14.099336%,14.099336%);fill-opacity:1;" d="M 13.460938 5.226562 C 16.742188 -2.664062 32.011719 0.078125 33.304688 5.9375 C 38.898438 2.492188 44.238281 7.335938 43.074219 12.632812 C 48.683594 13.601562 48.097656 22.71875 42.03125 23.828125 C 42.0625 30.367188 33.847656 31.234375 30.152344 27.554688 C 27.933594 32.007812 16.492188 32.796875 13.339844 26.578125 C 8.992188 30.714844 2.828125 25.867188 4.492188 21.839844 C 0.597656 21.578125 -1.011719 12.945312 4.667969 12.027344 C 2.070312 6.773438 8.230469 2.484375 13.460938 5.226562 "/>
<path style=" stroke:none;fill-rule:nonzero;fill:rgb(15.700008%,15.700008%,15.700008%);fill-opacity:1;" d="M 13.464844 5.242188 C 16.742188 -2.648438 31.953125 0.125 33.242188 5.980469 C 38.835938 2.507812 44.171875 7.355469 43.011719 12.652344 C 48.628906 13.527344 48.050781 22.71875 42.003906 23.800781 C 42.109375 30.367188 33.816406 31.210938 30.171875 27.5 C 27.984375 32.023438 16.527344 32.753906 13.378906 26.535156 C 9.070312 30.722656 2.851562 25.859375 4.527344 21.824219 C 0.605469 21.59375 -0.964844 12.867188 4.722656 12.039062 C 2.089844 6.816406 8.253906 2.507812 13.464844 5.242188 "/>
<path style=" stroke:none;fill-rule:nonzero;fill:rgb(17.199969%,17.199969%,17.199969%);fill-opacity:1;" d="M 13.464844 5.261719 C 16.742188 -2.632812 31.890625 0.171875 33.183594 6.027344 C 38.773438 2.519531 44.109375 7.378906 42.945312 12.675781 C 48.574219 13.453125 48 22.71875 41.980469 23.773438 C 42.15625 30.367188 33.785156 31.191406 30.1875 27.449219 C 28.035156 32.039062 16.566406 32.710938 13.414062 26.492188 C 9.148438 30.730469 2.878906 25.855469 4.566406 21.808594 C 0.617188 21.609375 -0.917969 12.785156 4.777344 12.050781 C 2.105469 6.859375 8.277344 2.53125 13.464844 5.261719 "/>
<path style=" stroke:none;fill-rule:nonzero;fill:rgb(18.799115%,18.799115%,18.799115%);fill-opacity:1;" d="M 13.464844 5.277344 C 16.742188 -2.617188 31.828125 0.21875 33.121094 6.074219 C 38.710938 2.535156 44.042969 7.402344 42.878906 12.699219 C 48.519531 13.378906 47.949219 22.722656 41.953125 23.746094 C 42.203125 30.363281 33.757812 31.167969 30.203125 27.398438 C 28.089844 32.054688 16.601562 32.664062 13.449219 26.449219 C 9.226562 30.738281 2.902344 25.847656 4.601562 21.792969 C 0.628906 21.621094 -0.871094 12.707031 4.832031 12.0625 C 2.121094 6.902344 8.300781 2.554688 13.464844 5.277344 "/>
<path style=" stroke:none;fill-rule:nonzero;fill:rgb(20.399786%,20.399786%,20.399786%);fill-opacity:1;" d="M 13.464844 5.292969 C 16.746094 -2.597656 31.769531 0.265625 33.058594 6.121094 C 38.648438 2.546875 43.976562 7.421875 42.816406 12.71875 C 48.464844 13.304688 47.898438 22.722656 41.929688 23.71875 C 42.25 30.363281 33.726562 31.144531 30.222656 27.34375 C 28.140625 32.066406 16.636719 32.621094 13.484375 26.40625 C 9.300781 30.746094 2.925781 25.84375 4.636719 21.777344 C 0.640625 21.636719 -0.828125 12.628906 4.886719 12.078125 C 2.140625 6.949219 8.320312 2.578125 13.464844 5.292969 "/>
<path style=" stroke:none;fill-rule:nonzero;fill:rgb(21.998932%,21.998932%,21.998932%);fill-opacity:1;" d="M 13.464844 5.308594 C 16.746094 -2.582031 31.707031 0.3125 33 6.167969 C 38.585938 2.5625 43.914062 7.445312 42.75 12.742188 C 48.40625 13.230469 47.851562 22.726562 41.902344 23.691406 C 42.296875 30.359375 33.695312 31.121094 30.238281 27.292969 C 28.191406 32.082031 16.671875 32.578125 13.519531 26.363281 C 9.378906 30.753906 2.953125 25.835938 4.671875 21.761719 C 0.648438 21.648438 -0.78125 12.546875 4.941406 12.089844 C 2.15625 6.992188 8.34375 2.601562 13.464844 5.308594 "/>
<path style=" stroke:none;fill-rule:nonzero;fill:rgb(23.498894%,23.498894%,23.498894%);fill-opacity:1;" d="M 13.46875 5.324219 C 16.746094 -2.566406 31.644531 0.359375 32.9375 6.214844 C 38.523438 2.574219 43.847656 7.464844 42.683594 12.761719 C 48.351562 13.15625 47.800781 22.726562 41.878906 23.664062 C 42.34375 30.359375 33.664062 31.101562 30.253906 27.242188 C 28.246094 32.097656 16.707031 32.535156 13.554688 26.320312 C 9.457031 30.761719 2.976562 25.832031 4.707031 21.746094 C 0.660156 21.664062 -0.734375 12.46875 4.996094 12.101562 C 2.171875 7.035156 8.367188 2.621094 13.46875 5.324219 "/>
<path style=" stroke:none;fill-rule:nonzero;fill:rgb(25.099565%,25.099565%,25.099565%);fill-opacity:1;" d="M 13.46875 5.34375 C 16.746094 -2.550781 31.585938 0.402344 32.878906 6.261719 C 38.460938 2.589844 43.78125 7.488281 42.621094 12.785156 C 48.296875 13.082031 47.75 22.730469 41.851562 23.636719 C 42.390625 30.359375 33.636719 31.078125 30.269531 27.191406 C 28.296875 32.113281 16.742188 32.492188 13.59375 26.273438 C 9.535156 30.769531 3.003906 25.824219 4.742188 21.730469 C 0.671875 21.679688 -0.6875 12.390625 5.050781 12.113281 C 2.1875 7.078125 8.390625 2.644531 13.46875 5.34375 "/>
<path style=" stroke:none;fill-rule:nonzero;fill:rgb(26.700237%,26.700237%,26.700237%);fill-opacity:1;" d="M 13.46875 5.359375 C 16.746094 -2.535156 31.523438 0.449219 32.816406 6.308594 C 38.398438 2.605469 43.71875 7.511719 42.554688 12.804688 C 48.242188 13.007812 47.699219 22.730469 41.824219 23.609375 C 42.4375 30.355469 33.605469 31.054688 30.289062 27.136719 C 28.347656 32.128906 16.78125 32.449219 13.628906 26.230469 C 9.613281 30.777344 3.027344 25.820312 4.777344 21.714844 C 0.683594 21.691406 -0.640625 12.308594 5.105469 12.128906 C 2.207031 7.125 8.410156 2.667969 13.46875 5.359375 "/>
<path style=" stroke:none;fill-rule:nonzero;fill:rgb(28.200198%,28.200198%,28.200198%);fill-opacity:1;" d="M 13.46875 5.375 C 16.75 -2.519531 31.460938 0.496094 32.753906 6.351562 C 38.335938 2.617188 43.652344 7.53125 42.488281 12.828125 C 48.1875 12.929688 47.652344 22.730469 41.800781 23.578125 C 42.484375 30.355469 33.574219 31.035156 30.304688 27.085938 C 28.402344 32.144531 16.816406 32.40625 13.664062 26.1875 C 9.691406 30.785156 3.054688 25.8125 4.8125 21.699219 C 0.695312 21.707031 -0.597656 12.230469 5.160156 12.140625 C 2.222656 7.167969 8.433594 2.691406 13.46875 5.375 "/>
<path style=" stroke:none;fill-rule:nonzero;fill:rgb(29.799344%,29.799344%,29.799344%);fill-opacity:1;" d="M 13.46875 5.390625 C 16.75 -2.503906 31.402344 0.542969 32.691406 6.398438 C 38.273438 2.632812 43.585938 7.554688 42.425781 12.851562 C 48.132812 12.855469 47.601562 22.734375 41.773438 23.550781 C 42.53125 30.351562 33.546875 31.011719 30.320312 27.035156 C 28.453125 32.15625 16.851562 32.363281 13.699219 26.144531 C 9.769531 30.792969 3.078125 25.808594 4.847656 21.683594 C 0.703125 21.71875 -0.550781 12.152344 5.214844 12.152344 C 2.238281 7.210938 8.457031 2.714844 13.46875 5.390625 "/>
<path style=" stroke:none;fill-rule:nonzero;fill:rgb(31.400015%,31.400015%,31.400015%);fill-opacity:1;" d="M 13.46875 5.40625 C 16.75 -2.484375 31.339844 0.589844 32.632812 6.445312 C 38.210938 2.644531 43.523438 7.574219 42.359375 12.871094 C 48.078125 12.78125 47.550781 22.734375 41.75 23.523438 C 42.578125 30.351562 33.515625 30.988281 30.339844 26.980469 C 28.503906 32.171875 16.886719 32.316406 13.734375 26.101562 C 9.847656 30.800781 3.105469 25.800781 4.882812 21.667969 C 0.714844 21.734375 -0.503906 12.070312 5.269531 12.164062 C 2.257812 7.257812 8.480469 2.738281 13.46875 5.40625 "/>
<path style=" stroke:none;fill-rule:nonzero;fill:rgb(32.899977%,32.899977%,32.899977%);fill-opacity:1;" d="M 13.472656 5.421875 C 16.75 -2.46875 31.277344 0.636719 32.570312 6.492188 C 38.148438 2.660156 43.457031 7.597656 42.292969 12.894531 C 48.023438 12.707031 47.5 22.738281 41.722656 23.496094 C 42.625 30.347656 33.484375 30.96875 30.355469 26.929688 C 28.558594 32.1875 16.921875 32.273438 13.769531 26.058594 C 9.925781 30.808594 3.128906 25.796875 4.917969 21.652344 C 0.726562 21.746094 -0.457031 11.992188 5.324219 12.179688 C 2.273438 7.300781 8.503906 2.761719 13.472656 5.421875 "/>
<path style=" stroke:none;fill-rule:nonzero;fill:rgb(34.499123%,34.499123%,34.499123%);fill-opacity:1;" d="M 13.472656 5.441406 C 16.75 -2.453125 31.21875 0.683594 32.507812 6.539062 C 38.085938 2.675781 43.390625 7.617188 42.230469 12.914062 C 47.96875 12.632812 47.449219 22.738281 41.699219 23.46875 C 42.671875 30.347656 33.453125 30.945312 30.371094 26.878906 C 28.609375 32.203125 16.960938 32.230469 13.808594 26.015625 C 10.003906 30.816406 3.152344 25.789062 4.953125 21.636719 C 0.738281 21.761719 -0.410156 11.910156 5.378906 12.191406 C 2.289062 7.34375 8.523438 2.785156 13.472656 5.441406 "/>
<path style=" stroke:none;fill-rule:nonzero;fill:rgb(36.099794%,36.099794%,36.099794%);fill-opacity:1;" d="M 13.472656 5.457031 C 16.753906 -2.4375 31.15625 0.730469 32.449219 6.585938 C 38.023438 2.6875 43.328125 7.640625 42.164062 12.9375 C 47.914062 12.558594 47.402344 22.738281 41.671875 23.441406 C 42.71875 30.347656 33.425781 30.921875 30.390625 26.824219 C 28.660156 32.21875 16.996094 32.1875 13.84375 25.972656 C 10.082031 30.824219 3.179688 25.78125 4.988281 21.621094 C 0.746094 21.777344 -0.363281 11.832031 5.433594 12.203125 C 2.308594 7.386719 8.546875 2.808594 13.472656 5.457031 "/>
<path style=" stroke:none;fill-rule:nonzero;fill:rgb(37.700465%,37.700465%,37.700465%);fill-opacity:1;" d="M 13.472656 5.472656 C 16.753906 -2.421875 31.09375 0.773438 32.386719 6.632812 C 37.960938 2.703125 43.261719 7.664062 42.097656 12.960938 C 47.859375 12.484375 47.351562 22.742188 41.648438 23.414062 C 42.765625 30.34375 33.394531 30.898438 30.40625 26.773438 C 28.714844 32.234375 17.03125 32.144531 13.878906 25.929688 C 10.160156 30.832031 3.203125 25.777344 5.023438 21.605469 C 0.757812 21.789062 -0.320312 11.753906 5.488281 12.21875 C 2.324219 7.433594 8.570312 2.828125 13.472656 5.472656 "/>
<path style=" stroke:none;fill-rule:nonzero;fill:rgb(39.200427%,39.200427%,39.200427%);fill-opacity:1;" d="M 13.472656 5.488281 C 16.753906 -2.402344 31.035156 0.820312 32.324219 6.679688 C 37.898438 2.714844 43.195312 7.683594 42.035156 12.980469 C 47.804688 12.410156 47.300781 22.742188 41.621094 23.386719 C 42.8125 30.34375 33.363281 30.878906 30.421875 26.722656 C 28.765625 32.246094 17.066406 32.101562 13.914062 25.886719 C 10.234375 30.839844 3.230469 25.773438 5.058594 21.589844 C 0.769531 21.804688 -0.273438 11.675781 5.542969 12.230469 C 2.339844 7.476562 8.59375 2.851562 13.472656 5.488281 "/>
<path style=" stroke:none;fill-rule:nonzero;fill:rgb(40.799573%,40.799573%,40.799573%);fill-opacity:1;" d="M 13.472656 5.503906 C 16.753906 -2.386719 30.972656 0.867188 32.265625 6.722656 C 37.835938 2.730469 43.132812 7.707031 41.96875 13.003906 C 47.75 12.335938 47.253906 22.746094 41.597656 23.355469 C 42.859375 30.339844 33.335938 30.855469 30.4375 26.671875 C 28.816406 32.261719 17.101562 32.058594 13.949219 25.839844 C 10.3125 30.847656 3.253906 25.765625 5.09375 21.574219 C 0.78125 21.820312 -0.226562 11.59375 5.597656 12.242188 C 2.355469 7.519531 8.617188 2.875 13.472656 5.503906 "/>
<path style=" stroke:none;fill-rule:nonzero;fill:rgb(42.400244%,42.400244%,42.400244%);fill-opacity:1;" d="M 13.476562 5.519531 C 16.753906 -2.371094 30.910156 0.914062 32.203125 6.769531 C 37.773438 2.742188 43.066406 7.726562 41.902344 13.023438 C 47.695312 12.261719 47.203125 22.746094 41.570312 23.328125 C 42.90625 30.339844 33.304688 30.832031 30.457031 26.617188 C 28.867188 32.277344 17.136719 32.015625 13.984375 25.796875 C 10.390625 30.855469 3.28125 25.761719 5.128906 21.558594 C 0.792969 21.832031 -0.179688 11.515625 5.652344 12.257812 C 2.375 7.566406 8.636719 2.898438 13.476562 5.519531 "/>
<path style=" stroke:none;fill-rule:nonzero;fill:rgb(43.900206%,43.900206%,43.900206%);fill-opacity:1;" d="M 13.476562 5.535156 C 16.753906 -2.355469 30.851562 0.960938 32.140625 6.816406 C 37.710938 2.757812 43 7.75 41.839844 13.046875 C 47.640625 12.183594 47.152344 22.746094 41.546875 23.300781 C 42.953125 30.335938 33.273438 30.8125 30.472656 26.566406 C 28.921875 32.292969 17.175781 31.972656 14.023438 25.753906 C 10.46875 30.859375 3.304688 25.753906 5.164062 21.542969 C 0.800781 21.847656 -0.132812 11.433594 5.707031 12.269531 C 2.390625 7.609375 8.660156 2.921875 13.476562 5.535156 "/>
<path style=" stroke:none;fill-rule:nonzero;fill:rgb(45.499351%,45.499351%,45.499351%);fill-opacity:1;" d="M 13.476562 5.554688 C 16.757812 -2.339844 30.789062 1.007812 32.082031 6.863281 C 37.648438 2.773438 42.9375 7.773438 41.773438 13.066406 C 47.585938 12.109375 47.101562 22.75 41.519531 23.273438 C 43.003906 30.335938 33.246094 30.789062 30.488281 26.515625 C 28.972656 32.308594 17.210938 31.925781 14.058594 25.710938 C 10.546875 30.867188 3.332031 25.746094 5.199219 21.527344 C 0.8125 21.859375 -0.0898438 11.355469 5.761719 12.28125 C 2.40625 7.652344 8.683594 2.945312 13.476562 5.554688 "/>
<path style=" stroke:none;fill-rule:nonzero;fill:rgb(47.100023%,47.100023%,47.100023%);fill-opacity:1;" d="M 13.476562 5.570312 C 16.757812 -2.320312 30.726562 1.054688 32.019531 6.910156 C 37.585938 2.785156 42.871094 7.792969 41.707031 13.089844 C 47.527344 12.035156 47.054688 22.75 41.492188 23.246094 C 43.046875 30.335938 33.214844 30.765625 30.507812 26.460938 C 29.027344 32.324219 17.246094 31.882812 14.09375 25.667969 C 10.625 30.878906 3.355469 25.742188 5.234375 21.511719 C 0.824219 21.875 -0.0390625 11.277344 5.816406 12.292969 C 2.425781 7.695312 8.707031 2.96875 13.476562 5.570312 "/>
<path style=" stroke:none;fill-rule:nonzero;fill:rgb(48.599985%,48.599985%,48.599985%);fill-opacity:1;" d="M 13.476562 5.585938 C 16.757812 -2.304688 30.664062 1.097656 31.957031 6.957031 C 37.523438 2.800781 42.804688 7.816406 41.644531 13.113281 C 47.472656 11.960938 47.003906 22.753906 41.46875 23.21875 C 43.09375 30.332031 33.183594 30.742188 30.523438 26.410156 C 29.078125 32.339844 17.28125 31.839844 14.128906 25.625 C 10.703125 30.882812 3.382812 25.734375 5.273438 21.496094 C 0.835938 21.890625 0.00390625 11.195312 5.871094 12.308594 C 2.441406 7.742188 8.730469 2.988281 13.476562 5.585938 "/>
<path style=" stroke:none;fill-rule:nonzero;fill:rgb(50.200656%,50.200656%,50.200656%);fill-opacity:1;" d="M 13.476562 5.601562 C 16.757812 -2.289062 30.605469 1.144531 31.898438 7.003906 C 37.460938 2.8125 42.738281 7.835938 41.578125 13.132812 C 47.417969 11.886719 46.953125 22.753906 41.441406 23.191406 C 43.140625 30.328125 33.152344 30.722656 30.539062 26.359375 C 29.128906 32.351562 17.316406 31.796875 14.164062 25.582031 C 10.78125 30.890625 3.40625 25.730469 5.308594 21.480469 C 0.847656 21.902344 0.0507812 11.117188 5.925781 12.320312 C 2.457031 7.785156 8.75 3.011719 13.476562 5.601562 "/>
<path style=" stroke:none;fill-rule:nonzero;fill:rgb(51.799802%,51.799802%,51.799802%);fill-opacity:1;" d="M 13.480469 5.617188 C 16.757812 -2.273438 30.542969 1.191406 31.835938 7.046875 C 37.398438 2.828125 42.675781 7.859375 41.511719 13.15625 C 47.363281 11.8125 46.902344 22.757812 41.417969 23.164062 C 43.1875 30.328125 33.125 30.699219 30.554688 26.308594 C 29.183594 32.367188 17.351562 31.753906 14.199219 25.535156 C 10.859375 30.898438 3.429688 25.722656 5.34375 21.464844 C 0.855469 21.917969 0.0976562 11.039062 5.980469 12.332031 C 2.472656 7.828125 8.773438 3.035156 13.480469 5.617188 "/>
<path style=" stroke:none;fill-rule:nonzero;fill:rgb(53.299763%,53.299763%,53.299763%);fill-opacity:1;" d="M 13.480469 5.636719 C 16.761719 -2.257812 30.484375 1.238281 31.773438 7.09375 C 37.335938 2.84375 42.609375 7.882812 41.449219 13.175781 C 47.308594 11.738281 46.851562 22.757812 41.390625 23.136719 C 43.234375 30.328125 33.09375 30.675781 30.574219 26.253906 C 29.234375 32.382812 17.390625 31.710938 14.238281 25.492188 C 10.9375 30.90625 3.457031 25.71875 5.378906 21.449219 C 0.867188 21.929688 0.144531 10.957031 6.035156 12.34375 C 2.492188 7.871094 8.796875 3.058594 13.480469 5.636719 "/>
<path style=" stroke:none;fill-rule:nonzero;fill:rgb(54.900435%,54.900435%,54.900435%);fill-opacity:1;" d="M 13.480469 5.652344 C 16.761719 -2.242188 30.421875 1.285156 31.714844 7.140625 C 37.273438 2.855469 42.546875 7.902344 41.382812 13.199219 C 47.253906 11.664062 46.804688 22.757812 41.367188 23.105469 C 43.28125 30.324219 33.0625 30.65625 30.589844 26.203125 C 29.285156 32.398438 17.425781 31.667969 14.273438 25.449219 C 11.015625 30.914062 3.480469 25.710938 5.414062 21.433594 C 0.878906 21.945312 0.191406 10.878906 6.089844 12.359375 C 2.507812 7.917969 8.820312 3.082031 13.480469 5.652344 "/>
<path style=" stroke:none;fill-rule:nonzero;fill:rgb(56.49958%,56.49958%,56.49958%);fill-opacity:1;" d="M 13.480469 5.667969 C 16.761719 -2.226562 30.359375 1.332031 31.652344 7.1875 C 37.210938 2.871094 42.480469 7.925781 41.316406 13.222656 C 47.199219 11.589844 46.753906 22.761719 41.339844 23.078125 C 43.328125 30.324219 33.035156 30.632812 30.605469 26.152344 C 29.339844 32.414062 17.460938 31.625 14.308594 25.40625 C 11.09375 30.921875 3.507812 25.707031 5.449219 21.417969 C 0.890625 21.960938 0.234375 10.800781 6.144531 12.371094 C 2.523438 7.960938 8.84375 3.105469 13.480469 5.667969 "/>
<path style=" stroke:none;fill-rule:nonzero;fill:rgb(57.999542%,57.999542%,57.999542%);fill-opacity:1;" d="M 13.480469 5.683594 C 16.761719 -2.207031 30.300781 1.378906 31.589844 7.234375 C 37.148438 2.882812 42.414062 7.945312 41.253906 13.242188 C 47.144531 11.515625 46.703125 22.761719 41.3125 23.050781 C 43.378906 30.320312 33.003906 30.609375 30.621094 26.097656 C 29.390625 32.429688 17.496094 31.578125 14.34375 25.363281 C 11.171875 30.929688 3.53125 25.699219 5.484375 21.402344 C 0.898438 21.972656 0.28125 10.71875 6.199219 12.382812 C 2.539062 8.003906 8.863281 3.128906 13.480469 5.683594 "/>
<path style=" stroke:none;fill-rule:nonzero;fill:rgb(59.600214%,59.600214%,59.600214%);fill-opacity:1;" d="M 13.480469 5.699219 C 16.761719 -2.191406 30.238281 1.425781 31.53125 7.28125 C 37.089844 2.898438 42.351562 7.96875 41.1875 13.265625 C 47.089844 11.4375 46.652344 22.765625 41.289062 23.023438 C 43.425781 30.320312 32.972656 30.589844 30.640625 26.046875 C 29.441406 32.441406 17.53125 31.535156 14.378906 25.320312 C 11.246094 30.9375 3.558594 25.695312 5.519531 21.386719 C 0.910156 21.988281 0.328125 10.640625 6.253906 12.398438 C 2.558594 8.050781 8.886719 3.152344 13.480469 5.699219 "/>
<path style=" stroke:none;fill-rule:nonzero;fill:rgb(61.200885%,61.200885%,61.200885%);fill-opacity:1;" d="M 13.484375 5.71875 C 16.761719 -2.175781 30.175781 1.46875 31.46875 7.328125 C 37.023438 2.910156 42.285156 7.988281 41.121094 13.285156 C 47.035156 11.363281 46.605469 22.765625 41.261719 22.996094 C 43.472656 30.320312 32.941406 30.566406 30.65625 25.996094 C 29.492188 32.457031 17.566406 31.492188 14.414062 25.277344 C 11.324219 30.945312 3.582031 25.6875 5.554688 21.371094 C 0.921875 22 0.375 10.5625 6.308594 12.410156 C 2.574219 8.09375 8.910156 3.175781 13.484375 5.71875 "/>
<path style=" stroke:none;fill-rule:nonzero;fill:rgb(62.700847%,62.700847%,62.700847%);fill-opacity:1;" d="M 13.484375 5.734375 C 16.765625 -2.160156 30.113281 1.515625 31.40625 7.371094 C 36.964844 2.925781 42.21875 8.011719 41.058594 13.308594 C 46.980469 11.289062 46.554688 22.765625 41.238281 22.96875 C 43.519531 30.316406 32.914062 30.542969 30.671875 25.941406 C 29.546875 32.472656 17.605469 31.449219 14.453125 25.234375 C 11.402344 30.953125 3.609375 25.683594 5.589844 21.355469 C 0.933594 22.015625 0.421875 10.480469 6.363281 12.421875 C 2.59375 8.136719 8.933594 3.195312 13.484375 5.734375 "/>
<path style=" stroke:none;fill-rule:nonzero;fill:rgb(64.299992%,64.299992%,64.299992%);fill-opacity:1;" d="M 13.484375 5.75 C 16.765625 -2.144531 30.054688 1.5625 31.347656 7.417969 C 36.898438 2.941406 42.152344 8.035156 40.992188 13.328125 C 46.925781 11.214844 46.503906 22.769531 41.210938 22.941406 C 43.566406 30.316406 32.882812 30.519531 30.691406 25.890625 C 29.597656 32.488281 17.640625 31.40625 14.488281 25.191406 C 11.480469 30.960938 3.632812 25.675781 5.625 21.339844 C 0.945312 22.027344 0.46875 10.402344 6.417969 12.433594 C 2.609375 8.179688 8.953125 3.21875 13.484375 5.75 "/>
<path style=" stroke:none;fill-rule:nonzero;fill:rgb(65.900664%,65.900664%,65.900664%);fill-opacity:1;" d="M 13.484375 5.765625 C 16.765625 -2.128906 29.992188 1.609375 31.285156 7.464844 C 36.839844 2.953125 42.089844 8.054688 40.925781 13.351562 C 46.871094 11.140625 46.453125 22.769531 41.1875 22.910156 C 43.613281 30.3125 32.851562 30.5 30.707031 25.839844 C 29.648438 32.503906 17.675781 31.363281 14.523438 25.148438 C 11.558594 30.96875 3.65625 25.671875 5.660156 21.324219 C 0.953125 22.042969 0.511719 10.324219 6.472656 12.449219 C 2.625 8.226562 8.976562 3.242188 13.484375 5.765625 "/>
<path style=" stroke:none;fill-rule:nonzero;fill:rgb(67.400626%,67.400626%,67.400626%);fill-opacity:1;" d="M 13.484375 5.78125 C 16.765625 -2.109375 29.933594 1.65625 31.222656 7.511719 C 36.777344 2.96875 42.023438 8.078125 40.863281 13.375 C 46.816406 11.066406 46.40625 22.773438 41.160156 22.886719 C 43.660156 30.3125 32.824219 30.476562 30.722656 25.785156 C 29.703125 32.519531 17.710938 31.320312 14.558594 25.101562 C 11.636719 30.976562 3.683594 25.664062 5.695312 21.308594 C 0.964844 22.058594 0.558594 10.242188 6.527344 12.460938 C 2.640625 8.269531 9 3.265625 13.484375 5.78125 "/>
<path style=" stroke:none;fill-rule:nonzero;fill:rgb(68.999771%,68.999771%,68.999771%);fill-opacity:1;" d="M 13.488281 5.796875 C 16.765625 -2.09375 29.871094 1.703125 31.160156 7.558594 C 36.714844 2.980469 41.960938 8.097656 40.796875 13.394531 C 46.761719 10.992188 46.355469 22.773438 41.136719 22.855469 C 43.707031 30.308594 32.792969 30.453125 30.738281 25.734375 C 29.753906 32.53125 17.746094 31.277344 14.59375 25.058594 C 11.714844 30.984375 3.707031 25.660156 5.730469 21.292969 C 0.976562 22.070312 0.605469 10.164062 6.582031 12.472656 C 2.660156 8.3125 9.023438 3.289062 13.488281 5.796875 "/>
<path style=" stroke:none;fill-rule:nonzero;fill:rgb(70.600443%,70.600443%,70.600443%);fill-opacity:1;" d="M 13.488281 5.8125 C 16.765625 -2.078125 29.808594 1.746094 31.101562 7.605469 C 36.652344 2.996094 41.894531 8.121094 40.730469 13.417969 C 46.703125 10.917969 46.304688 22.777344 41.109375 22.828125 C 43.753906 30.308594 32.761719 30.433594 30.757812 25.683594 C 29.804688 32.546875 17.78125 31.234375 14.632812 25.015625 C 11.792969 30.992188 3.734375 25.652344 5.765625 21.277344 C 0.988281 22.085938 0.652344 10.085938 6.636719 12.484375 C 2.675781 8.355469 9.046875 3.3125 13.488281 5.8125 "/>
<path style=" stroke:none;fill-rule:nonzero;fill:rgb(72.199588%,72.199588%,72.199588%);fill-opacity:1;" d="M 13.488281 5.832031 C 16.769531 -2.0625 29.746094 1.796875 31.039062 7.652344 C 36.589844 3.011719 41.828125 8.144531 40.664062 13.4375 C 46.648438 10.84375 46.253906 22.777344 41.085938 22.800781 C 43.800781 30.308594 32.730469 30.410156 30.773438 25.632812 C 29.859375 32.5625 17.820312 31.191406 14.667969 24.972656 C 11.871094 31 3.757812 25.648438 5.800781 21.261719 C 0.996094 22.097656 0.699219 10.003906 6.691406 12.5 C 2.691406 8.402344 9.066406 3.335938 13.488281 5.832031 "/>
<path style=" stroke:none;fill-rule:nonzero;fill:rgb(73.701076%,73.701076%,73.701076%);fill-opacity:1;" d="M 13.488281 5.847656 C 16.769531 -2.046875 29.6875 1.839844 30.980469 7.695312 C 36.527344 3.023438 41.765625 8.164062 40.601562 13.460938 C 46.59375 10.769531 46.203125 22.777344 41.058594 22.773438 C 43.847656 30.304688 32.703125 30.386719 30.789062 25.578125 C 29.910156 32.578125 17.855469 31.144531 14.703125 24.929688 C 11.949219 31.007812 3.785156 25.640625 5.835938 21.246094 C 1.007812 22.113281 0.742188 9.925781 6.746094 12.511719 C 2.710938 8.445312 9.089844 3.355469 13.488281 5.847656 "/>
<path style=" stroke:none;fill-rule:nonzero;fill:rgb(75.300221%,75.300221%,75.300221%);fill-opacity:1;" d="M 13.488281 5.863281 C 16.769531 -2.027344 29.625 1.886719 30.917969 7.742188 C 36.464844 3.039062 41.699219 8.1875 40.535156 13.484375 C 46.539062 10.691406 46.15625 22.78125 41.03125 22.746094 C 43.894531 30.304688 32.671875 30.363281 30.808594 25.527344 C 29.960938 32.59375 17.890625 31.101562 14.738281 24.886719 C 12.027344 31.015625 3.808594 25.636719 5.871094 21.230469 C 1.019531 22.128906 0.789062 9.84375 6.800781 12.523438 C 2.726562 8.488281 9.113281 3.378906 13.488281 5.863281 "/>
<path style=" stroke:none;fill-rule:nonzero;fill:rgb(76.900893%,76.900893%,76.900893%);fill-opacity:1;" d="M 13.488281 5.878906 C 16.769531 -2.011719 29.566406 1.933594 30.855469 7.789062 C 36.402344 3.050781 41.632812 8.207031 40.472656 13.503906 C 46.484375 10.617188 46.105469 22.78125 41.007812 22.71875 C 43.941406 30.300781 32.640625 30.34375 30.824219 25.476562 C 30.015625 32.609375 17.925781 31.058594 14.773438 24.84375 C 12.105469 31.023438 3.835938 25.628906 5.90625 21.214844 C 1.03125 22.140625 0.835938 9.765625 6.855469 12.535156 C 2.742188 8.53125 9.136719 3.402344 13.488281 5.878906 "/>
<path style=" stroke:none;fill-rule:nonzero;fill:rgb(78.400855%,78.400855%,78.400855%);fill-opacity:1;" d="M 13.492188 5.894531 C 16.769531 -1.996094 29.503906 1.980469 30.796875 7.835938 C 36.339844 3.066406 41.566406 8.230469 40.40625 13.527344 C 46.429688 10.542969 46.054688 22.785156 40.980469 22.691406 C 43.988281 30.300781 32.613281 30.320312 30.839844 25.425781 C 30.066406 32.621094 17.960938 31.015625 14.808594 24.800781 C 12.183594 31.03125 3.859375 25.625 5.941406 21.199219 C 1.039062 22.15625 0.882812 9.6875 6.910156 12.550781 C 2.761719 8.578125 9.15625 3.425781 13.492188 5.894531 "/>
<path style=" stroke:none;fill-rule:nonzero;fill:rgb(80%,80%,80%);fill-opacity:1;" d="M 13.492188 5.910156 C 16.769531 -1.980469 29.441406 2.027344 30.734375 7.882812 C 36.277344 3.078125 41.503906 8.253906 40.339844 13.546875 C 46.375 10.46875 46.007812 22.785156 40.957031 22.660156 C 44.035156 30.296875 32.582031 30.296875 30.855469 25.371094 C 30.117188 32.636719 17.996094 30.972656 14.847656 24.757812 C 12.261719 31.035156 3.886719 25.617188 5.976562 21.183594 C 1.050781 22.167969 0.929688 9.605469 6.964844 12.5625 C 2.777344 8.621094 9.179688 3.449219 13.492188 5.910156 "/>
</g>
</svg>
