<?xml version="1.0" encoding="UTF-8"?>
<svg xmlns="http://www.w3.org/2000/svg" xmlns:xlink="http://www.w3.org/1999/xlink" width="28" height="28" viewBox="0 0 28 28" version="1.1">
<g id="surface0">
<path style=" stroke:none;fill-rule:nonzero;fill:rgb(50.000763%,50.000763%,50.000763%);fill-opacity:1;" d="M 0.542969 4.925781 L 23.222656 4.925781 L 23.222656 27.996094 L 0.542969 27.996094 L 0.542969 4.925781 Z M 0.542969 4.925781 "/>
<path style="fill:none;stroke-width:1.5;stroke-linecap:butt;stroke-linejoin:miter;stroke:rgb(0%,0%,0%);stroke-opacity:1;stroke-miterlimit:4;" d="M 12.40625 8.113281 C 14.625 8.113281 16.421875 9.910156 16.421875 12.128906 C 16.421875 14.347656 14.625 16.144531 12.40625 16.144531 C 10.191406 16.144531 8.390625 14.347656 8.390625 12.128906 C 8.390625 9.910156 10.191406 8.113281 12.40625 8.113281 Z M 12.40625 16.144531 L 19.378906 16.144531 " transform="matrix(1,0,0,-1,0,28)"/>
<path style=" stroke:none;fill-rule:nonzero;fill:rgb(0%,0%,0%);fill-opacity:1;" d="M 19.449219 9.242188 L 19.449219 14.289062 L 22.492188 11.863281 L 19.449219 9.242188 "/>
<path style="fill:none;stroke-width:1.5;stroke-linecap:butt;stroke-linejoin:miter;stroke:rgb(0%,0%,0%);stroke-opacity:1;stroke-miterlimit:4;" d="M 8.398438 12.101562 L 8.398438 19.074219 " transform="matrix(1,0,0,-1,0,28)"/>
<path style=" stroke:none;fill-rule:nonzero;fill:rgb(0%,0%,0%);fill-opacity:1;" d="M 5.832031 8.894531 L 10.878906 8.894531 L 8.457031 5.855469 L 5.832031 8.894531 "/>
<path style="fill:none;stroke-width:1.5;stroke-linecap:butt;stroke-linejoin:miter;stroke:rgb(0%,0%,0%);stroke-opacity:1;stroke-miterlimit:4;" d="M 16.429688 12.152344 L 16.429688 5.179688 " transform="matrix(1,0,0,-1,0,28)"/>
<path style=" stroke:none;fill-rule:nonzero;fill:rgb(0%,0%,0%);fill-opacity:1;" d="M 18.992188 22.832031 L 13.945312 22.832031 L 16.390625 25.871094 L 18.992188 22.832031 "/>
<path style="fill:none;stroke-width:1.5;stroke-linecap:butt;stroke-linejoin:miter;stroke:rgb(0%,0%,0%);stroke-opacity:1;stroke-miterlimit:4;" d="M 12.507812 8.121094 L 5.53125 8.121094 " transform="matrix(1,0,0,-1,0,28)"/>
<path style=" stroke:none;fill-rule:nonzero;fill:rgb(0%,0%,0%);fill-opacity:1;" d="M 5.5 22.507812 L 5.5 17.460938 L 2.457031 19.886719 L 5.5 22.507812 "/>
<path style="fill:none;stroke-width:1.5;stroke-linecap:butt;stroke-linejoin:miter;stroke:rgb(100%,100%,100%);stroke-opacity:1;stroke-miterlimit:4;" d="M 11.882812 7.589844 C 14.097656 7.589844 15.898438 9.386719 15.898438 11.605469 C 15.898438 13.820312 14.097656 15.617188 11.882812 15.617188 C 9.664062 15.617188 7.867188 13.820312 7.867188 11.605469 C 7.867188 9.386719 9.664062 7.589844 11.882812 7.589844 Z M 11.882812 15.617188 L 18.855469 15.617188 " transform="matrix(1,0,0,-1,0,28)"/>
<path style="fill-rule:nonzero;fill:rgb(100%,100%,100%);fill-opacity:1;stroke-width:0.2;stroke-linecap:butt;stroke-linejoin:miter;stroke:rgb(100%,100%,100%);stroke-opacity:1;stroke-miterlimit:4;" d="M 18.925781 18.234375 L 18.925781 13.1875 L 21.96875 15.613281 L 18.925781 18.234375 Z M 18.925781 18.234375 " transform="matrix(1,0,0,-1,0,28)"/>
<path style="fill:none;stroke-width:1.5;stroke-linecap:butt;stroke-linejoin:miter;stroke:rgb(100%,100%,100%);stroke-opacity:1;stroke-miterlimit:4;" d="M 7.871094 11.574219 L 7.871094 18.550781 " transform="matrix(1,0,0,-1,0,28)"/>
<path style="fill-rule:nonzero;fill:rgb(100%,100%,100%);fill-opacity:1;stroke-width:0.2;stroke-linecap:butt;stroke-linejoin:miter;stroke:rgb(100%,100%,100%);stroke-opacity:1;stroke-miterlimit:4;" d="M 5.308594 18.578125 L 10.355469 18.578125 L 7.929688 21.621094 L 5.308594 18.578125 Z M 5.308594 18.578125 " transform="matrix(1,0,0,-1,0,28)"/>
<path style="fill:none;stroke-width:1.5;stroke-linecap:butt;stroke-linejoin:miter;stroke:rgb(100%,100%,100%);stroke-opacity:1;stroke-miterlimit:4;" d="M 15.90625 11.628906 L 15.90625 4.652344 " transform="matrix(1,0,0,-1,0,28)"/>
<path style="fill-rule:nonzero;fill:rgb(100%,100%,100%);fill-opacity:1;stroke-width:0.2;stroke-linecap:butt;stroke-linejoin:miter;stroke:rgb(100%,100%,100%);stroke-opacity:1;stroke-miterlimit:4;" d="M 18.464844 4.644531 L 13.417969 4.644531 L 15.867188 1.601562 L 18.464844 4.644531 Z M 18.464844 4.644531 " transform="matrix(1,0,0,-1,0,28)"/>
<path style="fill:none;stroke-width:1.5;stroke-linecap:butt;stroke-linejoin:miter;stroke:rgb(100%,100%,100%);stroke-opacity:1;stroke-miterlimit:4;" d="M 11.980469 7.59375 L 5.007812 7.59375 " transform="matrix(1,0,0,-1,0,28)"/>
<path style="fill-rule:nonzero;fill:rgb(100%,100%,100%);fill-opacity:1;stroke-width:0.2;stroke-linecap:butt;stroke-linejoin:miter;stroke:rgb(100%,100%,100%);stroke-opacity:1;stroke-miterlimit:4;" d="M 4.910156 4.964844 L 4.910156 10.015625 L 1.867188 7.589844 L 4.910156 4.964844 Z M 4.910156 4.964844 " transform="matrix(1,0,0,-1,0,28)"/>
<path style=" stroke:none;fill-rule:nonzero;fill:rgb(70.000763%,70.000763%,70.000763%);fill-opacity:1;" d="M 23.144531 4.898438 L 0.566406 4.898438 L 6.289062 0.332031 L 27.867188 0.332031 L 27.867188 0.355469 L 27.800781 0.355469 L 23.195312 4.886719 L 23.195312 5.027344 L 23.144531 4.898438 "/>
<path style=" stroke:none;fill-rule:nonzero;fill:rgb(20%,20%,20%);fill-opacity:1;" d="M 27.816406 23.390625 L 27.816406 0.355469 L 23.222656 4.949219 L 23.222656 27.984375 L 27.816406 23.390625 "/>
</g>
</svg>
