<?xml version="1.0" encoding="UTF-8"?>
<svg xmlns="http://www.w3.org/2000/svg" xmlns:xlink="http://www.w3.org/1999/xlink" width="27" height="27" viewBox="0 0 27 27" version="1.1">
<defs>
<clipPath id="clip1">
  <path d="M 0.0585938 0.582031 L 26.601562 0.582031 L 26.601562 27 L 0.0585938 27 L 0.0585938 0.582031 Z M 0.0585938 0.582031 "/>
</clipPath>
<clipPath id="clip2">
  <path d="M 0.0585938 0.582031 L 26.601562 0.582031 L 26.601562 27 L 0.0585938 27 L 0.0585938 0.582031 Z M 0.0585938 0.582031 "/>
</clipPath>
</defs>
<g id="surface0">
<path style=" stroke:none;fill-rule:nonzero;fill:rgb(74.120699%,73.649195%,73.76669%);fill-opacity:1;" d="M 23.558594 3.25 L 0.199219 3.25 L 3.011719 1.007812 L 26.371094 1.007812 L 23.558594 3.25 "/>
<path style=" stroke:none;fill-rule:nonzero;fill:rgb(30.98497%,29.729152%,30.040436%);fill-opacity:1;" d="M 26.398438 24.351562 L 23.519531 26.589844 L 23.519531 3.230469 L 26.398438 0.992188 L 26.398438 24.351562 "/>
<g clip-path="url(#clip1)" clip-rule="nonzero">
<path style="fill:none;stroke-width:0.4;stroke-linecap:butt;stroke-linejoin:miter;stroke:rgb(100%,100%,100%);stroke-opacity:1;stroke-miterlimit:4;" d="M 26.398438 2.648438 L 23.519531 0.410156 L 23.519531 23.769531 L 26.398438 26.007812 L 26.398438 2.648438 Z M 26.398438 2.648438 " transform="matrix(1,0,0,-1,0,27)"/>
</g>
<path style=" stroke:none;fill-rule:nonzero;fill:rgb(56.865797%,56.079957%,56.275273%);fill-opacity:1;" d="M 0.199219 3.230469 L 23.558594 3.230469 L 23.558594 26.589844 L 0.199219 26.589844 L 0.199219 3.230469 Z M 0.199219 3.230469 "/>
<g clip-path="url(#clip2)" clip-rule="nonzero">
<path style="fill:none;stroke-width:0.4;stroke-linecap:butt;stroke-linejoin:miter;stroke:rgb(100%,100%,100%);stroke-opacity:1;stroke-miterlimit:4;" d="M 0.199219 23.769531 L 23.558594 23.769531 L 23.558594 0.410156 L 0.199219 0.410156 L 0.199219 23.769531 Z M 0.199219 23.769531 " transform="matrix(1,0,0,-1,0,27)"/>
</g>
<path style=" stroke:none;fill-rule:nonzero;fill:rgb(30.98497%,29.729152%,30.040436%);fill-opacity:1;" d="M 11.945312 14.382812 C 11.945312 14.46875 11.871094 14.542969 11.785156 14.542969 L 8.5 14.542969 C 8.410156 14.542969 8.339844 14.46875 8.339844 14.382812 L 8.339844 11.097656 C 8.339844 11.007812 8.410156 10.9375 8.5 10.9375 L 11.785156 10.9375 C 11.871094 10.9375 11.945312 11.007812 11.945312 11.097656 L 11.945312 14.382812 "/>
<path style=" stroke:none;fill-rule:nonzero;fill:rgb(30.98497%,29.729152%,30.040436%);fill-opacity:1;" d="M 16.199219 14.359375 C 16.199219 14.425781 16.148438 14.476562 16.082031 14.476562 L 13.691406 14.476562 C 13.628906 14.476562 13.574219 14.425781 13.574219 14.359375 L 13.574219 11.96875 C 13.574219 11.90625 13.628906 11.851562 13.691406 11.851562 L 16.082031 11.851562 C 16.148438 11.851562 16.199219 11.90625 16.199219 11.96875 L 16.199219 14.359375 "/>
<path style=" stroke:none;fill-rule:nonzero;fill:rgb(30.98497%,29.729152%,30.040436%);fill-opacity:1;" d="M 11.101562 18.171875 C 11.101562 18.238281 11.046875 18.289062 10.984375 18.289062 L 8.59375 18.289062 C 8.527344 18.289062 8.476562 18.238281 8.476562 18.171875 L 8.476562 15.78125 C 8.476562 15.71875 8.527344 15.667969 8.59375 15.667969 L 10.984375 15.667969 C 11.046875 15.667969 11.101562 15.71875 11.101562 15.78125 L 11.101562 18.171875 "/>
<path style=" stroke:none;fill-rule:nonzero;fill:rgb(30.98497%,29.729152%,30.040436%);fill-opacity:1;" d="M 15.871094 18.792969 C 15.871094 18.871094 15.804688 18.933594 15.726562 18.933594 L 12.800781 18.933594 C 12.722656 18.933594 12.660156 18.871094 12.660156 18.792969 L 12.660156 15.867188 C 12.660156 15.789062 12.722656 15.722656 12.800781 15.722656 L 15.726562 15.722656 C 15.804688 15.722656 15.871094 15.789062 15.871094 15.867188 L 15.871094 18.792969 "/>
<path style=" stroke:none;fill-rule:nonzero;fill:rgb(30.98497%,29.729152%,30.040436%);fill-opacity:1;" d="M 9.125 7.390625 L 4.539062 7.390625 L 4.539062 17.636719 L 6.679688 17.636719 L 6.679688 9.53125 L 9.125 9.53125 L 9.125 7.390625 "/>
<path style=" stroke:none;fill-rule:nonzero;fill:rgb(30.98497%,29.729152%,30.040436%);fill-opacity:1;" d="M 12.183594 7.390625 L 12.183594 9.53125 L 17.84375 9.53125 L 17.84375 15.648438 L 19.984375 15.648438 L 19.984375 7.390625 L 12.183594 7.390625 "/>
<path style=" stroke:none;fill-rule:nonzero;fill:rgb(30.98497%,29.729152%,30.040436%);fill-opacity:1;" d="M 17.84375 18.707031 L 17.84375 20.695312 L 4.539062 20.695312 L 4.539062 22.835938 L 19.984375 22.835938 L 19.984375 18.707031 L 17.84375 18.707031 "/>
<path style=" stroke:none;fill-rule:nonzero;fill:rgb(100%,100%,100%);fill-opacity:1;" d="M 11.625 14.0625 C 11.625 14.148438 11.554688 14.222656 11.464844 14.222656 L 8.179688 14.222656 C 8.09375 14.222656 8.019531 14.148438 8.019531 14.0625 L 8.019531 10.777344 C 8.019531 10.6875 8.09375 10.617188 8.179688 10.617188 L 11.464844 10.617188 C 11.554688 10.617188 11.625 10.6875 11.625 10.777344 L 11.625 14.0625 "/>
<path style=" stroke:none;fill-rule:nonzero;fill:rgb(100%,100%,100%);fill-opacity:1;" d="M 15.878906 14.039062 C 15.878906 14.105469 15.828125 14.15625 15.765625 14.15625 L 13.371094 14.15625 C 13.308594 14.15625 13.257812 14.105469 13.257812 14.039062 L 13.257812 11.648438 C 13.257812 11.585938 13.308594 11.535156 13.371094 11.535156 L 15.765625 11.535156 C 15.828125 11.535156 15.878906 11.585938 15.878906 11.648438 L 15.878906 14.039062 "/>
<path style=" stroke:none;fill-rule:nonzero;fill:rgb(100%,100%,100%);fill-opacity:1;" d="M 10.78125 17.855469 C 10.78125 17.917969 10.726562 17.96875 10.664062 17.96875 L 8.273438 17.96875 C 8.210938 17.96875 8.15625 17.917969 8.15625 17.855469 L 8.15625 15.464844 C 8.15625 15.398438 8.210938 15.347656 8.273438 15.347656 L 10.664062 15.347656 C 10.726562 15.347656 10.78125 15.398438 10.78125 15.464844 L 10.78125 17.855469 "/>
<path style=" stroke:none;fill-rule:nonzero;fill:rgb(100%,100%,100%);fill-opacity:1;" d="M 15.550781 18.472656 C 15.550781 18.550781 15.484375 18.613281 15.40625 18.613281 L 12.480469 18.613281 C 12.402344 18.613281 12.339844 18.550781 12.339844 18.472656 L 12.339844 15.546875 C 12.339844 15.46875 12.402344 15.402344 12.480469 15.402344 L 15.40625 15.402344 C 15.484375 15.402344 15.550781 15.46875 15.550781 15.546875 L 15.550781 18.472656 "/>
<path style=" stroke:none;fill-rule:nonzero;fill:rgb(30.98497%,29.729152%,30.040436%);fill-opacity:1;" d="M 14.324219 16.746094 C 14.324219 16.84375 14.246094 16.921875 14.148438 16.921875 L 10.527344 16.921875 C 10.429688 16.921875 10.351562 16.84375 10.351562 16.746094 L 10.351562 13.125 C 10.351562 13.027344 10.429688 12.949219 10.527344 12.949219 L 14.148438 12.949219 C 14.246094 12.949219 14.324219 13.027344 14.324219 13.125 L 14.324219 16.746094 "/>
<path style=" stroke:none;fill-rule:nonzero;fill:rgb(100%,100%,100%);fill-opacity:1;" d="M 14.007812 16.425781 C 14.007812 16.523438 13.929688 16.601562 13.828125 16.601562 L 10.207031 16.601562 C 10.109375 16.601562 10.03125 16.523438 10.03125 16.425781 L 10.03125 12.804688 C 10.03125 12.707031 10.109375 12.628906 10.207031 12.628906 L 13.828125 12.628906 C 13.929688 12.628906 14.007812 12.707031 14.007812 12.804688 L 14.007812 16.425781 "/>
<path style="fill:none;stroke-width:0.25;stroke-linecap:butt;stroke-linejoin:miter;stroke:rgb(56.865797%,56.079957%,56.275273%);stroke-opacity:1;stroke-miterlimit:4;" d="M 14.007812 10.574219 C 14.007812 10.476562 13.929688 10.398438 13.828125 10.398438 L 10.207031 10.398438 C 10.109375 10.398438 10.03125 10.476562 10.03125 10.574219 L 10.03125 14.195312 C 10.03125 14.292969 10.109375 14.371094 10.207031 14.371094 L 13.828125 14.371094 C 13.929688 14.371094 14.007812 14.292969 14.007812 14.195312 L 14.007812 10.574219 Z M 14.007812 10.574219 " transform="matrix(1,0,0,-1,0,27)"/>
<path style=" stroke:none;fill-rule:nonzero;fill:rgb(100%,100%,100%);fill-opacity:1;" d="M 8.808594 7.070312 L 4.21875 7.070312 L 4.21875 17.316406 L 6.359375 17.316406 L 6.359375 9.210938 L 8.808594 9.210938 L 8.808594 7.070312 "/>
<path style=" stroke:none;fill-rule:nonzero;fill:rgb(100%,100%,100%);fill-opacity:1;" d="M 11.863281 7.070312 L 11.863281 9.210938 L 17.523438 9.210938 L 17.523438 15.328125 L 19.664062 15.328125 L 19.664062 7.070312 L 11.863281 7.070312 "/>
<path style=" stroke:none;fill-rule:nonzero;fill:rgb(100%,100%,100%);fill-opacity:1;" d="M 17.523438 18.386719 L 17.523438 20.375 L 4.21875 20.375 L 4.21875 22.515625 L 19.664062 22.515625 L 19.664062 18.386719 L 17.523438 18.386719 "/>
</g>
</svg>
