<?xml version="1.0" encoding="UTF-8"?>
<svg xmlns="http://www.w3.org/2000/svg" xmlns:xlink="http://www.w3.org/1999/xlink" width="36" height="30" viewBox="0 0 36 30" version="1.1">
<g id="surface0">
<path style=" stroke:none;fill-rule:nonzero;fill:rgb(71.200122%,71.200122%,71.200122%);fill-opacity:1;" d="M 8.148438 1.996094 L 0.269531 6.070312 C 19.53125 18.304688 30.855469 5.289062 30.855469 5.289062 C 19.402344 12.1875 8.148438 1.996094 8.148438 1.996094 "/>
<path style=" stroke:none;fill-rule:nonzero;fill:rgb(23.199817%,23.199817%,23.199817%);fill-opacity:1;" d="M 35.804688 0.734375 C 34.5 3.335938 30.726562 5.417969 30.726562 5.417969 L 30.726562 29.757812 L 35.804688 25.59375 L 35.804688 0.734375 "/>
<path style=" stroke:none;fill-rule:nonzero;fill:rgb(51.999695%,51.999695%,51.999695%);fill-opacity:1;" d="M 30.726562 5.417969 C 30.726562 5.417969 19.53125 18.304688 0.269531 6.070312 L 0.269531 29.757812 L 30.726562 29.757812 L 30.726562 5.417969 "/>
<path style="fill:none;stroke-width:0.45;stroke-linecap:round;stroke-linejoin:miter;stroke:rgb(13.730068%,12.159915%,12.54902%);stroke-opacity:1;stroke-miterlimit:1;" d="M 28.5625 9.800781 C 28.5625 9.800781 26.605469 4.769531 24.253906 9.816406 C 21.898438 14.859375 19.941406 9.824219 19.941406 9.824219 C 19.941406 9.824219 17.984375 4.792969 15.636719 9.835938 C 13.285156 14.882812 11.335938 9.804688 11.335938 9.804688 C 11.335938 9.804688 9.382812 4.769531 7.03125 9.816406 C 4.679688 14.859375 2.730469 9.828125 2.730469 9.828125 " transform="matrix(1,0,0,-1,0,30)"/>
<path style="fill:none;stroke-width:0.9;stroke-linecap:round;stroke-linejoin:miter;stroke:rgb(13.730068%,12.159915%,12.54902%);stroke-opacity:1;stroke-miterlimit:1;" d="M 2.730469 9.800781 C 2.730469 9.800781 4.6875 4.769531 7.039062 9.816406 C 9.390625 14.859375 11.351562 9.824219 11.351562 9.824219 C 11.351562 9.824219 13.304688 4.792969 15.65625 9.835938 C 18.007812 14.882812 19.957031 9.804688 19.957031 9.804688 C 19.957031 9.804688 21.90625 4.769531 24.261719 9.816406 C 26.609375 14.859375 28.5625 9.828125 28.5625 9.828125 " transform="matrix(1,0,0,-1,0,30)"/>
<path style="fill:none;stroke-width:0.45;stroke-linecap:round;stroke-linejoin:miter;stroke:rgb(100%,100%,100%);stroke-opacity:1;stroke-miterlimit:1;" d="M 28.109375 9.800781 C 28.109375 9.800781 26.148438 4.769531 23.800781 9.816406 C 21.445312 14.859375 19.488281 9.824219 19.488281 9.824219 C 19.488281 9.824219 17.53125 4.792969 15.183594 9.835938 C 12.832031 14.882812 10.882812 9.808594 10.882812 9.808594 C 10.882812 9.808594 8.929688 4.769531 6.578125 9.816406 C 4.226562 14.859375 2.277344 9.828125 2.277344 9.828125 " transform="matrix(1,0,0,-1,0,30)"/>
<path style="fill:none;stroke-width:0.9;stroke-linecap:round;stroke-linejoin:miter;stroke:rgb(100%,100%,100%);stroke-opacity:1;stroke-miterlimit:1;" d="M 2.277344 9.800781 C 2.277344 9.800781 4.234375 4.769531 6.585938 9.816406 C 8.9375 14.859375 10.898438 9.824219 10.898438 9.824219 C 10.898438 9.824219 12.851562 4.792969 15.203125 9.835938 C 17.554688 14.882812 19.503906 9.808594 19.503906 9.808594 C 19.503906 9.808594 21.453125 4.769531 23.808594 9.816406 C 26.15625 14.859375 28.109375 9.828125 28.109375 9.828125 " transform="matrix(1,0,0,-1,0,30)"/>
</g>
</svg>
