<?xml version="1.0" encoding="UTF-8"?>
<svg xmlns="http://www.w3.org/2000/svg" xmlns:xlink="http://www.w3.org/1999/xlink" width="31" height="31" viewBox="0 0 31 31" version="1.1">
<g id="surface0">
<path style=" stroke:none;fill-rule:nonzero;fill:rgb(50.000763%,50.000763%,50.000763%);fill-opacity:1;" d="M 0.792969 3.816406 L 27.5 3.816406 L 27.5 30.5 L 0.792969 30.5 L 0.792969 3.816406 Z M 0.792969 3.816406 "/>
<path style=" stroke:none;fill-rule:nonzero;fill:rgb(20%,20%,20%);fill-opacity:1;" d="M 30.871094 27.160156 L 30.871094 0.476562 L 27.5 3.816406 L 27.5 30.5 L 30.871094 27.160156 "/>
<path style=" stroke:none;fill-rule:nonzero;fill:rgb(70.000763%,70.000763%,70.000763%);fill-opacity:1;" d="M 5.433594 0.285156 L 0.792969 3.625 L 27.5 3.625 L 30.871094 0.285156 L 5.433594 0.285156 "/>
<path style=" stroke:none;fill-rule:nonzero;fill:rgb(100%,100%,100%);fill-opacity:1;" d="M 14.726562 13.277344 L 14.726562 7.507812 L 15.703125 7.507812 L 14.257812 5.328125 L 12.8125 7.507812 L 13.792969 7.507812 L 13.792969 13.277344 L 14.726562 13.277344 "/>
<path style=" stroke:none;fill-rule:nonzero;fill:rgb(100%,100%,100%);fill-opacity:1;" d="M 11.777344 14.113281 L 7.695312 10.03125 L 8.390625 9.339844 L 5.828125 8.820312 L 6.347656 11.382812 L 7.039062 10.691406 L 11.121094 14.773438 L 11.777344 14.113281 "/>
<path style=" stroke:none;fill-rule:nonzero;fill:rgb(100%,100%,100%);fill-opacity:1;" d="M 10.285156 16.785156 L 4.511719 16.785156 L 4.511719 15.804688 L 2.335938 17.253906 L 4.511719 18.695312 L 4.511719 17.71875 L 10.285156 17.71875 L 10.285156 16.785156 "/>
<path style=" stroke:none;fill-rule:nonzero;fill:rgb(100%,100%,100%);fill-opacity:1;" d="M 11.121094 19.730469 L 7.039062 23.8125 L 6.347656 23.121094 L 5.828125 25.683594 L 8.390625 25.164062 L 7.695312 24.472656 L 11.777344 20.390625 L 11.121094 19.730469 "/>
<path style=" stroke:none;fill-rule:nonzero;fill:rgb(100%,100%,100%);fill-opacity:1;" d="M 13.792969 21.222656 L 13.792969 26.996094 L 12.8125 26.996094 L 14.257812 29.175781 L 15.703125 26.996094 L 14.726562 26.996094 L 14.726562 21.222656 L 13.792969 21.222656 "/>
<path style=" stroke:none;fill-rule:nonzero;fill:rgb(100%,100%,100%);fill-opacity:1;" d="M 16.738281 20.390625 L 20.820312 24.472656 L 20.128906 25.164062 L 22.691406 25.683594 L 22.171875 23.121094 L 21.480469 23.8125 L 17.398438 19.730469 L 16.738281 20.390625 "/>
<path style=" stroke:none;fill-rule:nonzero;fill:rgb(100%,100%,100%);fill-opacity:1;" d="M 18.230469 17.71875 L 24.003906 17.71875 L 24.003906 18.695312 L 26.183594 17.253906 L 24.003906 15.804688 L 24.003906 16.785156 L 18.230469 16.785156 L 18.230469 17.71875 "/>
<path style=" stroke:none;fill-rule:nonzero;fill:rgb(100%,100%,100%);fill-opacity:1;" d="M 17.398438 14.773438 L 21.480469 10.691406 L 22.171875 11.382812 L 22.691406 8.820312 L 20.128906 9.339844 L 20.820312 10.03125 L 16.738281 14.113281 L 17.398438 14.773438 "/>
<path style=" stroke:none;fill-rule:nonzero;fill:rgb(100%,100%,100%);fill-opacity:1;" d="M 17.800781 22.136719 C 20.527344 20.230469 21.1875 16.476562 19.28125 13.753906 C 17.375 11.027344 13.617188 10.367188 10.894531 12.273438 C 8.171875 14.179688 7.507812 17.933594 9.414062 20.660156 C 11.324219 23.382812 15.078125 24.046875 17.800781 22.136719 "/>
</g>
</svg>
