<?xml version="1.0" encoding="UTF-8"?>
<svg xmlns="http://www.w3.org/2000/svg" xmlns:xlink="http://www.w3.org/1999/xlink" width="31" height="35" viewBox="0 0 31 35" version="1.1">
<g id="surface0">
<path style=" stroke:none;fill-rule:nonzero;fill:rgb(20%,20%,20%);fill-opacity:1;" d="M 25.007812 35 L 30.121094 28.875 L 30.121094 0.625 L 25.007812 5.5 L 25.007812 35 "/>
<path style=" stroke:none;fill-rule:nonzero;fill:rgb(70.000763%,70.000763%,70.000763%);fill-opacity:1;" d="M 30.121094 0.625 L 25.007812 5.5 L 0.105469 5.5 L 6.5625 0.625 L 30.121094 0.625 "/>
<path style=" stroke:none;fill-rule:nonzero;fill:rgb(50.000763%,50.000763%,50.000763%);fill-opacity:1;" d="M 0.105469 5.5 L 25.007812 5.5 L 25.007812 34.941406 L 0.105469 34.941406 L 0.105469 5.5 Z M 0.105469 5.5 "/>
<path style=" stroke:none;fill-rule:nonzero;fill:rgb(0%,0%,0%);fill-opacity:1;" d="M 13.445312 10.035156 L 14.359375 10.035156 L 13.019531 8.015625 L 11.675781 10.035156 L 12.582031 10.035156 L 12.582031 31.503906 L 11.667969 31.503906 L 13.007812 33.527344 L 14.347656 31.503906 L 13.445312 31.503906 L 13.445312 10.035156 "/>
<path style=" stroke:none;fill-rule:nonzero;fill:rgb(0%,0%,0%);fill-opacity:1;" d="M 6.519531 10.035156 L 7.433594 10.035156 L 6.089844 8.015625 L 4.75 10.035156 L 5.652344 10.035156 L 5.652344 31.503906 L 4.738281 31.503906 L 6.082031 33.527344 L 7.421875 31.503906 L 6.519531 31.503906 L 6.519531 10.035156 "/>
<path style=" stroke:none;fill-rule:nonzero;fill:rgb(0%,0%,0%);fill-opacity:1;" d="M 20.066406 10.035156 L 20.980469 10.035156 L 19.636719 8.015625 L 18.296875 10.035156 L 19.199219 10.035156 L 19.199219 31.503906 L 18.285156 31.503906 L 19.628906 33.527344 L 20.96875 31.503906 L 20.066406 31.503906 L 20.066406 10.035156 "/>
<path style=" stroke:none;fill-rule:nonzero;fill:rgb(100%,100%,100%);fill-opacity:1;" d="M 13.070312 9.785156 L 13.984375 9.785156 L 12.644531 7.765625 L 11.300781 9.785156 L 12.207031 9.785156 L 12.207031 31.253906 L 11.292969 31.253906 L 12.632812 33.277344 L 13.972656 31.253906 L 13.070312 31.253906 L 13.070312 9.785156 "/>
<path style=" stroke:none;fill-rule:nonzero;fill:rgb(100%,100%,100%);fill-opacity:1;" d="M 6.144531 9.785156 L 7.058594 9.785156 L 5.714844 7.765625 L 4.375 9.785156 L 5.277344 9.785156 L 5.277344 31.253906 L 4.363281 31.253906 L 5.707031 33.277344 L 7.046875 31.253906 L 6.144531 31.253906 L 6.144531 9.785156 "/>
<path style=" stroke:none;fill-rule:nonzero;fill:rgb(100%,100%,100%);fill-opacity:1;" d="M 19.691406 9.785156 L 20.605469 9.785156 L 19.261719 7.765625 L 17.921875 9.785156 L 18.824219 9.785156 L 18.824219 31.253906 L 17.910156 31.253906 L 19.253906 33.277344 L 20.59375 31.253906 L 19.691406 31.253906 L 19.691406 9.785156 "/>
</g>
</svg>
