<?xml version="1.0" encoding="UTF-8"?>
<svg xmlns="http://www.w3.org/2000/svg" xmlns:xlink="http://www.w3.org/1999/xlink" width="31" height="42" viewBox="0 0 31 42" version="1.1">
<g id="surface0">
<path style=" stroke:none;fill-rule:nonzero;fill:rgb(45.000381%,45.000381%,45.000381%);fill-opacity:1;" d="M 0.285156 15.054688 L 27.109375 15.054688 L 27.109375 41.855469 L 0.285156 41.855469 L 0.285156 15.054688 Z M 0.285156 15.054688 "/>
<path style=" stroke:none;fill-rule:nonzero;fill:rgb(20%,20%,20%);fill-opacity:1;" d="M 30.5 38.5 L 30.5 11.699219 L 27.113281 15.054688 L 27.113281 41.855469 L 30.5 38.5 "/>
<path style=" stroke:none;fill-rule:nonzero;fill:rgb(70.000763%,70.000763%,70.000763%);fill-opacity:1;" d="M 5.191406 0.832031 L 0.285156 4.1875 L 27.113281 4.1875 L 30.5 0.832031 L 5.191406 0.832031 "/>
<path style=" stroke:none;fill-rule:nonzero;fill:rgb(45.000381%,45.000381%,45.000381%);fill-opacity:1;" d="M 0.285156 4.1875 L 27.109375 4.1875 L 27.109375 15.054688 L 0.285156 15.054688 L 0.285156 4.1875 Z M 0.285156 4.1875 "/>
<path style=" stroke:none;fill-rule:nonzero;fill:rgb(20%,20%,20%);fill-opacity:1;" d="M 30.5 11.699219 L 30.5 0.832031 L 27.113281 4.1875 L 27.113281 15.054688 L 30.5 11.699219 "/>
<path style="fill:none;stroke-width:0.4;stroke-linecap:butt;stroke-linejoin:miter;stroke:rgb(9.999237%,9.999237%,9.999237%);stroke-opacity:1;stroke-miterlimit:4;" d="M 27.113281 26.945312 L 0.285156 26.945312 M 27.113281 26.945312 L 30.5 30.300781 " transform="matrix(1,0,0,-1,0,42)"/>
<path style=" stroke:none;fill-rule:nonzero;fill:rgb(100%,100%,100%);fill-opacity:1;" d="M 4.664062 5.648438 L 8.988281 5.648438 L 8.988281 7.898438 L 4.664062 7.898438 L 4.664062 5.648438 Z M 4.664062 5.648438 "/>
<path style=" stroke:none;fill-rule:nonzero;fill:rgb(100%,100%,100%);fill-opacity:1;" d="M 18.878906 5.648438 L 23.203125 5.648438 L 23.203125 7.898438 L 18.878906 7.898438 L 18.878906 5.648438 Z M 18.878906 5.648438 "/>
<path style=" stroke:none;fill-rule:nonzero;fill:rgb(100%,100%,100%);fill-opacity:1;" d="M 4.664062 11.277344 L 8.988281 11.277344 L 8.988281 13.53125 L 4.664062 13.53125 L 4.664062 11.277344 Z M 4.664062 11.277344 "/>
<path style=" stroke:none;fill-rule:nonzero;fill:rgb(100%,100%,100%);fill-opacity:1;" d="M 18.878906 11.277344 L 23.203125 11.277344 L 23.203125 13.53125 L 18.878906 13.53125 L 18.878906 11.277344 Z M 18.878906 11.277344 "/>
<path style="fill:none;stroke-width:0.4;stroke-linecap:butt;stroke-linejoin:miter;stroke:rgb(100%,100%,100%);stroke-opacity:1;stroke-miterlimit:4;" d="M 7.597656 35.226562 L 20.886719 35.226562 M 7.597656 29.597656 L 20.886719 29.597656 M 6.824219 29.597656 L 20.886719 35.226562 M 6.824219 35.226562 L 20.886719 29.597656 " transform="matrix(1,0,0,-1,0,42)"/>
<path style=" stroke:none;fill-rule:nonzero;fill:rgb(100%,100%,100%);fill-opacity:1;" d="M 14.277344 24.558594 L 14.277344 18.757812 L 15.261719 18.757812 L 13.8125 16.570312 L 12.359375 18.757812 L 13.34375 18.757812 L 13.34375 24.558594 L 14.277344 24.558594 "/>
<path style=" stroke:none;fill-rule:nonzero;fill:rgb(100%,100%,100%);fill-opacity:1;" d="M 11.320312 25.394531 L 7.21875 21.292969 L 7.914062 20.597656 L 5.34375 20.078125 L 5.863281 22.652344 L 6.558594 21.957031 L 10.660156 26.058594 L 11.320312 25.394531 "/>
<path style=" stroke:none;fill-rule:nonzero;fill:rgb(100%,100%,100%);fill-opacity:1;" d="M 9.820312 28.078125 L 4.023438 28.078125 L 4.023438 27.097656 L 1.832031 28.546875 L 4.023438 30 L 4.023438 29.015625 L 9.820312 29.015625 L 9.820312 28.078125 "/>
<path style=" stroke:none;fill-rule:nonzero;fill:rgb(100%,100%,100%);fill-opacity:1;" d="M 10.660156 31.039062 L 6.558594 35.136719 L 5.863281 34.441406 L 5.34375 37.015625 L 7.914062 36.496094 L 7.21875 35.800781 L 11.320312 31.699219 L 10.660156 31.039062 "/>
<path style=" stroke:none;fill-rule:nonzero;fill:rgb(100%,100%,100%);fill-opacity:1;" d="M 13.34375 32.535156 L 13.34375 38.335938 L 12.359375 38.335938 L 13.8125 40.523438 L 15.261719 38.335938 L 14.277344 38.335938 L 14.277344 32.535156 L 13.34375 32.535156 "/>
<path style=" stroke:none;fill-rule:nonzero;fill:rgb(100%,100%,100%);fill-opacity:1;" d="M 16.300781 31.699219 L 20.402344 35.800781 L 19.707031 36.496094 L 22.28125 37.015625 L 21.761719 34.441406 L 21.0625 35.136719 L 16.964844 31.039062 L 16.300781 31.699219 "/>
<path style=" stroke:none;fill-rule:nonzero;fill:rgb(100%,100%,100%);fill-opacity:1;" d="M 17.800781 29.015625 L 23.601562 29.015625 L 23.601562 30 L 25.789062 28.546875 L 23.601562 27.097656 L 23.601562 28.078125 L 17.800781 28.078125 L 17.800781 29.015625 "/>
<path style=" stroke:none;fill-rule:nonzero;fill:rgb(100%,100%,100%);fill-opacity:1;" d="M 16.964844 26.058594 L 21.0625 21.957031 L 21.761719 22.652344 L 22.28125 20.078125 L 19.707031 20.597656 L 20.402344 21.292969 L 16.300781 25.394531 L 16.964844 26.058594 "/>
<path style=" stroke:none;fill-rule:nonzero;fill:rgb(20%,20%,20%);fill-opacity:1;" d="M 17.359375 33.40625 C 20.074219 31.503906 20.734375 27.761719 18.835938 25.046875 C 16.933594 22.328125 13.1875 21.667969 10.472656 23.570312 C 7.753906 25.472656 7.09375 29.21875 8.996094 31.933594 C 10.898438 34.648438 14.644531 35.308594 17.359375 33.40625 "/>
<path style="fill:none;stroke-width:0.63;stroke-linecap:butt;stroke-linejoin:miter;stroke:rgb(20%,20%,20%);stroke-opacity:1;stroke-miterlimit:4;" d="M 17.359375 8.59375 C 20.074219 10.496094 20.734375 14.238281 18.835938 16.953125 C 16.933594 19.671875 13.1875 20.332031 10.472656 18.429688 C 7.753906 16.527344 7.09375 12.78125 8.996094 10.066406 C 10.898438 7.351562 14.644531 6.691406 17.359375 8.59375 Z M 17.359375 8.59375 " transform="matrix(1,0,0,-1,0,42)"/>
<path style=" stroke:none;fill-rule:nonzero;fill:rgb(22.600137%,22.600137%,22.600137%);fill-opacity:1;" d="M 17.203125 33.167969 C 19.847656 31.3125 20.492188 27.664062 18.636719 25.023438 C 16.785156 22.382812 13.136719 21.746094 10.492188 23.605469 C 7.847656 25.464844 7.203125 29.113281 9.054688 31.753906 C 10.910156 34.394531 14.554688 35.027344 17.203125 33.167969 "/>
<path style=" stroke:none;fill-rule:nonzero;fill:rgb(25.200275%,25.200275%,25.200275%);fill-opacity:1;" d="M 17.042969 32.929688 C 19.621094 31.117188 20.246094 27.566406 18.441406 25.003906 C 16.640625 22.4375 13.089844 21.828125 10.511719 23.640625 C 7.9375 25.457031 7.3125 29.007812 9.113281 31.570312 C 10.917969 34.136719 14.46875 34.746094 17.042969 32.929688 "/>
<path style=" stroke:none;fill-rule:nonzero;fill:rgb(27.699702%,27.699702%,27.699702%);fill-opacity:1;" d="M 16.886719 32.691406 C 19.394531 30.921875 20.003906 27.46875 18.246094 24.980469 C 16.492188 22.488281 13.039062 21.90625 10.535156 23.675781 C 8.027344 25.449219 7.417969 28.902344 9.171875 31.390625 C 10.925781 33.882812 14.382812 34.464844 16.886719 32.691406 "/>
<path style=" stroke:none;fill-rule:nonzero;fill:rgb(30.29984%,30.29984%,30.29984%);fill-opacity:1;" d="M 16.730469 32.457031 C 19.164062 30.730469 19.757812 27.371094 18.050781 24.957031 C 16.347656 22.542969 12.988281 21.988281 10.554688 23.714844 C 8.117188 25.4375 7.527344 28.796875 9.230469 31.210938 C 10.9375 33.625 14.292969 34.183594 16.730469 32.457031 "/>
<path style=" stroke:none;fill-rule:nonzero;fill:rgb(32.899977%,32.899977%,32.899977%);fill-opacity:1;" d="M 16.570312 32.21875 C 18.9375 30.535156 19.511719 27.273438 17.855469 24.9375 C 16.199219 22.597656 12.941406 22.066406 10.574219 23.75 C 8.210938 25.429688 7.636719 28.691406 9.289062 31.03125 C 10.945312 33.367188 14.207031 33.898438 16.570312 32.21875 "/>
<path style=" stroke:none;fill-rule:nonzero;fill:rgb(35.500114%,35.500114%,35.500114%);fill-opacity:1;" d="M 16.414062 31.980469 C 18.710938 30.339844 19.269531 27.179688 17.660156 24.914062 C 16.054688 22.652344 12.890625 22.144531 10.597656 23.785156 C 8.300781 25.421875 7.742188 28.585938 9.347656 30.847656 C 10.957031 33.113281 14.117188 33.617188 16.414062 31.980469 "/>
<path style=" stroke:none;fill-rule:nonzero;fill:rgb(38.100252%,38.100252%,38.100252%);fill-opacity:1;" d="M 16.257812 31.742188 C 18.480469 30.148438 19.023438 27.082031 17.464844 24.894531 C 15.910156 22.707031 12.84375 22.226562 10.617188 23.820312 C 8.390625 25.414062 7.851562 28.480469 9.40625 30.667969 C 10.964844 32.855469 14.03125 33.335938 16.257812 31.742188 "/>
<path style=" stroke:none;fill-rule:nonzero;fill:rgb(40.59968%,40.59968%,40.59968%);fill-opacity:1;" d="M 16.097656 31.503906 C 18.253906 29.953125 18.777344 26.984375 17.269531 24.871094 C 15.761719 22.761719 12.792969 22.304688 10.636719 23.855469 C 8.484375 25.40625 7.960938 28.375 9.46875 30.488281 C 10.976562 32.601562 13.945312 33.054688 16.097656 31.503906 "/>
<path style=" stroke:none;fill-rule:nonzero;fill:rgb(43.199817%,43.199817%,43.199817%);fill-opacity:1;" d="M 15.941406 31.265625 C 18.027344 29.757812 18.535156 26.886719 17.074219 24.851562 C 15.617188 22.8125 12.742188 22.382812 10.660156 23.890625 C 8.574219 25.398438 8.066406 28.269531 9.527344 30.308594 C 10.984375 32.34375 13.855469 32.773438 15.941406 31.265625 "/>
<path style=" stroke:none;fill-rule:nonzero;fill:rgb(45.799954%,45.799954%,45.799954%);fill-opacity:1;" d="M 15.785156 31.027344 C 17.796875 29.566406 18.289062 26.789062 16.878906 24.828125 C 15.46875 22.867188 12.695312 22.464844 10.679688 23.925781 C 8.664062 25.390625 8.175781 28.164062 9.585938 30.125 C 10.992188 32.085938 13.769531 32.492188 15.785156 31.027344 "/>
<path style=" stroke:none;fill-rule:nonzero;fill:rgb(48.400092%,48.400092%,48.400092%);fill-opacity:1;" d="M 15.625 30.789062 C 17.570312 29.371094 18.042969 26.691406 16.683594 24.808594 C 15.324219 22.921875 12.644531 22.542969 10.699219 23.960938 C 8.757812 25.382812 8.28125 28.058594 9.644531 29.945312 C 11.003906 31.832031 13.683594 32.210938 15.625 30.789062 "/>
<path style=" stroke:none;fill-rule:nonzero;fill:rgb(51.000229%,51.000229%,51.000229%);fill-opacity:1;" d="M 15.46875 30.550781 C 17.34375 29.175781 17.800781 26.59375 16.488281 24.785156 C 15.179688 22.976562 12.597656 22.621094 10.722656 23.996094 C 8.847656 25.371094 8.390625 27.953125 9.703125 29.765625 C 11.011719 31.574219 13.59375 31.925781 15.46875 30.550781 "/>
<path style=" stroke:none;fill-rule:nonzero;fill:rgb(53.499657%,53.499657%,53.499657%);fill-opacity:1;" d="M 15.3125 30.3125 C 17.113281 28.984375 17.554688 26.496094 16.292969 24.765625 C 15.03125 23.03125 12.546875 22.703125 10.742188 24.035156 C 8.9375 25.363281 8.5 27.851562 9.761719 29.585938 C 11.023438 31.320312 13.507812 31.644531 15.3125 30.3125 "/>
<path style=" stroke:none;fill-rule:nonzero;fill:rgb(56.099794%,56.099794%,56.099794%);fill-opacity:1;" d="M 15.152344 30.074219 C 16.886719 28.789062 17.308594 26.402344 16.097656 24.742188 C 14.886719 23.082031 12.496094 22.78125 10.765625 24.070312 C 9.03125 25.355469 8.605469 27.746094 9.820312 29.402344 C 11.03125 31.0625 13.421875 31.363281 15.152344 30.074219 "/>
<path style=" stroke:none;fill-rule:nonzero;fill:rgb(58.699931%,58.699931%,58.699931%);fill-opacity:1;" d="M 14.996094 29.839844 C 16.660156 28.59375 17.066406 26.304688 15.902344 24.71875 C 14.738281 23.136719 12.449219 22.863281 10.785156 24.105469 C 9.121094 25.347656 8.714844 27.640625 9.878906 29.222656 C 11.039062 30.804688 13.332031 31.082031 14.996094 29.839844 "/>
<path style=" stroke:none;fill-rule:nonzero;fill:rgb(61.300069%,61.300069%,61.300069%);fill-opacity:1;" d="M 14.839844 29.601562 C 16.433594 28.402344 16.820312 26.207031 15.707031 24.699219 C 14.59375 23.191406 12.398438 22.941406 10.804688 24.140625 C 9.210938 25.339844 8.824219 27.535156 9.9375 29.042969 C 11.050781 30.550781 13.246094 30.800781 14.839844 29.601562 "/>
<path style=" stroke:none;fill-rule:nonzero;fill:rgb(63.900206%,63.900206%,63.900206%);fill-opacity:1;" d="M 14.679688 29.363281 C 16.203125 28.207031 16.574219 26.109375 15.511719 24.675781 C 14.449219 23.246094 12.351562 23.019531 10.824219 24.175781 C 9.304688 25.332031 8.929688 27.429688 9.996094 28.863281 C 11.058594 30.292969 13.15625 30.519531 14.679688 29.363281 "/>
<path style=" stroke:none;fill-rule:nonzero;fill:rgb(66.399634%,66.399634%,66.399634%);fill-opacity:1;" d="M 14.523438 29.125 C 15.976562 28.011719 16.332031 26.011719 15.316406 24.65625 C 14.300781 23.300781 12.300781 23.101562 10.847656 24.210938 C 9.394531 25.324219 9.039062 27.324219 10.054688 28.679688 C 11.070312 30.039062 13.070312 30.234375 14.523438 29.125 "/>
<path style=" stroke:none;fill-rule:nonzero;fill:rgb(68.999771%,68.999771%,68.999771%);fill-opacity:1;" d="M 14.367188 28.886719 C 15.75 27.820312 16.085938 25.914062 15.121094 24.632812 C 14.15625 23.351562 12.25 23.179688 10.867188 24.246094 C 9.484375 25.316406 9.148438 27.21875 10.113281 28.5 C 11.078125 29.78125 12.984375 29.953125 14.367188 28.886719 "/>
<path style=" stroke:none;fill-rule:nonzero;fill:rgb(71.599908%,71.599908%,71.599908%);fill-opacity:1;" d="M 14.207031 28.648438 C 15.519531 27.625 15.84375 25.816406 14.925781 24.613281 C 14.007812 23.40625 12.203125 23.261719 10.890625 24.285156 C 9.574219 25.308594 9.253906 27.113281 10.171875 28.320312 C 11.089844 29.523438 12.894531 29.671875 14.207031 28.648438 "/>
<path style=" stroke:none;fill-rule:nonzero;fill:rgb(74.200046%,74.200046%,74.200046%);fill-opacity:1;" d="M 14.050781 28.410156 C 15.292969 27.429688 15.597656 25.722656 14.730469 24.589844 C 13.863281 23.460938 12.152344 23.339844 10.910156 24.320312 C 9.667969 25.300781 9.363281 27.007812 10.230469 28.140625 C 11.097656 29.269531 12.808594 29.390625 14.050781 28.410156 "/>
<path style=" stroke:none;fill-rule:nonzero;fill:rgb(76.800183%,76.800183%,76.800183%);fill-opacity:1;" d="M 13.894531 28.171875 C 15.066406 27.238281 15.351562 25.621094 14.535156 24.570312 C 13.71875 23.515625 12.101562 23.417969 10.929688 24.355469 C 9.757812 25.289062 9.472656 26.902344 10.289062 27.960938 C 11.105469 29.011719 12.71875 29.109375 13.894531 28.171875 "/>
<path style=" stroke:none;fill-rule:nonzero;fill:rgb(79.40032%,79.40032%,79.40032%);fill-opacity:1;" d="M 13.734375 27.933594 C 14.835938 27.042969 15.109375 25.527344 14.339844 24.546875 C 13.570312 23.570312 12.054688 23.496094 10.953125 24.390625 C 9.851562 25.28125 9.578125 26.800781 10.347656 27.777344 C 11.117188 28.757812 12.632812 28.828125 13.734375 27.933594 "/>
<path style=" stroke:none;fill-rule:nonzero;fill:rgb(81.899748%,81.899748%,81.899748%);fill-opacity:1;" d="M 13.578125 27.695312 C 14.609375 26.847656 14.863281 25.429688 14.144531 24.527344 C 13.425781 23.621094 12.003906 23.578125 10.972656 24.425781 C 9.941406 25.273438 9.6875 26.695312 10.40625 27.597656 C 11.125 28.5 12.546875 28.546875 13.578125 27.695312 "/>
<path style=" stroke:none;fill-rule:nonzero;fill:rgb(84.499886%,84.499886%,84.499886%);fill-opacity:1;" d="M 13.421875 27.460938 C 14.382812 26.65625 14.617188 25.332031 13.949219 24.503906 C 13.277344 23.675781 11.953125 23.65625 10.992188 24.460938 C 10.03125 25.265625 9.796875 26.589844 10.464844 27.417969 C 11.136719 28.242188 12.457031 28.261719 13.421875 27.460938 "/>
<path style=" stroke:none;fill-rule:nonzero;fill:rgb(87.100023%,87.100023%,87.100023%);fill-opacity:1;" d="M 13.261719 27.222656 C 14.152344 26.460938 14.375 25.234375 13.753906 24.484375 C 13.132812 23.730469 11.90625 23.738281 11.015625 24.496094 C 10.121094 25.257812 9.902344 26.484375 10.523438 27.234375 C 11.144531 27.988281 12.371094 27.980469 13.261719 27.222656 "/>
<path style=" stroke:none;fill-rule:nonzero;fill:rgb(89.70016%,89.70016%,89.70016%);fill-opacity:1;" d="M 13.105469 26.984375 C 13.925781 26.265625 14.128906 25.136719 13.558594 24.460938 C 12.984375 23.785156 11.855469 23.816406 11.035156 24.53125 C 10.214844 25.25 10.011719 26.378906 10.582031 27.054688 C 11.152344 27.730469 12.28125 27.699219 13.105469 26.984375 "/>
<path style=" stroke:none;fill-rule:nonzero;fill:rgb(92.300298%,92.300298%,92.300298%);fill-opacity:1;" d="M 12.945312 26.746094 C 13.699219 26.074219 13.882812 25.039062 13.363281 24.441406 C 12.839844 23.839844 11.808594 23.894531 11.054688 24.570312 C 10.304688 25.242188 10.117188 26.273438 10.640625 26.875 C 11.164062 27.476562 12.195312 27.417969 12.945312 26.746094 "/>
<path style=" stroke:none;fill-rule:nonzero;fill:rgb(94.801251%,94.801251%,94.801251%);fill-opacity:1;" d="M 12.789062 26.507812 C 13.472656 25.878906 13.640625 24.941406 13.167969 24.417969 C 12.695312 23.890625 11.757812 23.976562 11.078125 24.605469 C 10.394531 25.234375 10.226562 26.167969 10.699219 26.695312 C 11.171875 27.21875 12.109375 27.136719 12.789062 26.507812 "/>
<path style=" stroke:none;fill-rule:nonzero;fill:rgb(97.401389%,97.401389%,97.401389%);fill-opacity:1;" d="M 12.632812 26.269531 C 13.242188 25.683594 13.394531 24.847656 12.972656 24.394531 C 12.546875 23.945312 11.710938 24.054688 11.097656 24.640625 C 10.488281 25.226562 10.335938 26.0625 10.757812 26.511719 C 11.183594 26.964844 12.019531 26.855469 12.632812 26.269531 "/>
<path style=" stroke:none;fill-rule:nonzero;fill:rgb(100%,100%,100%);fill-opacity:1;" d="M 12.476562 26.03125 C 13.015625 25.492188 13.148438 24.75 12.777344 24.375 C 12.402344 24 11.660156 24.136719 11.117188 24.675781 C 10.578125 25.214844 10.441406 25.957031 10.816406 26.332031 C 11.191406 26.707031 11.933594 26.570312 12.476562 26.03125 "/>
</g>
</svg>
