<?xml version="1.0" encoding="UTF-8"?>
<svg xmlns="http://www.w3.org/2000/svg" xmlns:xlink="http://www.w3.org/1999/xlink" width="38" height="25" viewBox="0 0 38 25" version="1.1">
<defs>
<clipPath id="clip1">
  <path d="M 37.386719 7.082031 C 37.386719 10.976562 29.269531 14.136719 19.25 14.136719 C 9.234375 14.136719 1.113281 10.976562 1.113281 7.082031 L 1.113281 17.410156 C 1.113281 21.308594 9.234375 24.464844 19.25 24.464844 C 29.269531 24.464844 37.386719 21.308594 37.386719 17.410156 L 37.386719 7.082031 "/>
</clipPath>
<clipPath id="clip2">
  <path d="M 15.277344 4.257812 L 16.800781 6.535156 L 11.054688 7.863281 L 12.308594 6.816406 L 3.4375 5.300781 L 5.660156 3.632812 L 14.226562 5.082031 L 15.277344 4.257812 "/>
</clipPath>
<clipPath id="clip3">
  <path d="M 23.359375 9.78125 L 22.324219 7.433594 L 27.503906 6.398438 L 26.605469 7.203125 L 35.238281 8.675781 L 33.167969 10.332031 L 24.585938 8.722656 L 23.359375 9.78125 "/>
</clipPath>
<clipPath id="clip4">
  <path d="M 20.527344 3.011719 L 26.328125 1.425781 L 26.398438 3.910156 L 24.949219 3.636719 L 22.117188 5.980469 L 19.414062 5.589844 L 22.335938 3.289062 L 20.527344 3.011719 "/>
</clipPath>
<clipPath id="clip5">
  <path d="M 18.042969 11.921875 L 12.519531 12.957031 L 12.308594 10.402344 L 13.898438 10.746094 L 16.941406 8.148438 L 19.632812 8.605469 L 16.386719 11.4375 L 18.042969 11.921875 "/>
</clipPath>
</defs>
<g id="surface0">
<path style="fill-rule:nonzero;fill:rgb(13.730068%,12.159915%,12.54902%);fill-opacity:1;stroke-width:0.42;stroke-linecap:butt;stroke-linejoin:miter;stroke:rgb(100%,100%,100%);stroke-opacity:1;stroke-miterlimit:4;" d="M 37.386719 17.917969 C 37.386719 14.023438 29.269531 10.863281 19.25 10.863281 C 9.234375 10.863281 1.113281 14.023438 1.113281 17.917969 L 1.113281 7.589844 C 1.113281 3.691406 9.234375 0.535156 19.25 0.535156 C 29.269531 0.535156 37.386719 3.691406 37.386719 7.589844 L 37.386719 17.917969 Z M 37.386719 17.917969 " transform="matrix(1,0,0,-1,0,25)"/>
<g clip-path="url(#clip1)" clip-rule="nonzero">
<path style=" stroke:none;fill-rule:nonzero;fill:rgb(48.973831%,48.044556%,48.274968%);fill-opacity:1;" d="M 1.113281 7.082031 L 1.113281 24.464844 L 1.253906 24.464844 L 1.253906 7.082031 L 1.113281 7.082031 Z M 1.113281 7.082031 "/>
<path style=" stroke:none;fill-rule:nonzero;fill:rgb(49.706264%,48.790723%,49.018082%);fill-opacity:1;" d="M 1.253906 7.082031 L 1.253906 24.464844 L 1.394531 24.464844 L 1.394531 7.082031 L 1.253906 7.082031 Z M 1.253906 7.082031 "/>
<path style=" stroke:none;fill-rule:nonzero;fill:rgb(50.432593%,49.530785%,49.755093%);fill-opacity:1;" d="M 1.394531 7.082031 L 1.394531 24.464844 L 1.539062 24.464844 L 1.539062 7.082031 L 1.394531 7.082031 Z M 1.394531 7.082031 "/>
<path style=" stroke:none;fill-rule:nonzero;fill:rgb(51.160449%,50.270848%,50.492103%);fill-opacity:1;" d="M 1.539062 7.082031 L 1.539062 24.464844 L 1.679688 24.464844 L 1.679688 7.082031 L 1.539062 7.082031 Z M 1.539062 7.082031 "/>
<path style=" stroke:none;fill-rule:nonzero;fill:rgb(51.879149%,51.003281%,51.219959%);fill-opacity:1;" d="M 1.679688 7.082031 L 1.679688 24.464844 L 1.820312 24.464844 L 1.820312 7.082031 L 1.679688 7.082031 Z M 1.679688 7.082031 "/>
<path style=" stroke:none;fill-rule:nonzero;fill:rgb(52.596323%,51.732662%,51.947814%);fill-opacity:1;" d="M 1.820312 7.082031 L 1.820312 24.464844 L 1.964844 24.464844 L 1.964844 7.082031 L 1.820312 7.082031 Z M 1.820312 7.082031 "/>
<path style=" stroke:none;fill-rule:nonzero;fill:rgb(53.307393%,52.457465%,52.66804%);fill-opacity:1;" d="M 1.964844 7.082031 L 1.964844 24.464844 L 2.105469 24.464844 L 2.105469 7.082031 L 1.964844 7.082031 Z M 1.964844 7.082031 "/>
<path style=" stroke:none;fill-rule:nonzero;fill:rgb(54.016938%,53.179217%,53.38674%);fill-opacity:1;" d="M 2.105469 7.082031 L 2.105469 24.464844 L 2.246094 24.464844 L 2.246094 7.082031 L 2.105469 7.082031 Z M 2.105469 7.082031 "/>
<path style=" stroke:none;fill-rule:nonzero;fill:rgb(54.717327%,53.893339%,54.099336%);fill-opacity:1;" d="M 2.246094 7.082031 L 2.246094 24.464844 L 2.386719 24.464844 L 2.386719 7.082031 L 2.246094 7.082031 Z M 2.246094 7.082031 "/>
<path style=" stroke:none;fill-rule:nonzero;fill:rgb(55.419242%,54.608988%,54.810407%);fill-opacity:1;" d="M 2.386719 7.082031 L 2.386719 24.464844 L 2.53125 24.464844 L 2.53125 7.082031 L 2.386719 7.082031 Z M 2.386719 7.082031 "/>
<path style=" stroke:none;fill-rule:nonzero;fill:rgb(56.113527%,55.31548%,55.513848%);fill-opacity:1;" d="M 2.53125 7.082031 L 2.53125 24.464844 L 2.671875 24.464844 L 2.671875 7.082031 L 2.53125 7.082031 Z M 2.53125 7.082031 "/>
<path style=" stroke:none;fill-rule:nonzero;fill:rgb(56.806287%,56.020447%,56.215763%);fill-opacity:1;" d="M 2.671875 7.082031 L 2.671875 24.464844 L 2.8125 24.464844 L 2.8125 7.082031 L 2.671875 7.082031 Z M 2.671875 7.082031 "/>
<path style=" stroke:none;fill-rule:nonzero;fill:rgb(57.491417%,56.717784%,56.910048%);fill-opacity:1;" d="M 2.8125 7.082031 L 2.8125 24.464844 L 2.957031 24.464844 L 2.957031 7.082031 L 2.8125 7.082031 Z M 2.8125 7.082031 "/>
<path style=" stroke:none;fill-rule:nonzero;fill:rgb(58.176547%,57.415122%,57.604334%);fill-opacity:1;" d="M 2.957031 7.082031 L 2.957031 24.464844 L 3.097656 24.464844 L 3.097656 7.082031 L 2.957031 7.082031 Z M 2.957031 7.082031 "/>
<path style=" stroke:none;fill-rule:nonzero;fill:rgb(58.852522%,58.103304%,58.289464%);fill-opacity:1;" d="M 3.097656 7.082031 L 3.097656 24.464844 L 3.238281 24.464844 L 3.238281 7.082031 L 3.097656 7.082031 Z M 3.097656 7.082031 "/>
<path style=" stroke:none;fill-rule:nonzero;fill:rgb(59.528496%,58.791485%,58.974594%);fill-opacity:1;" d="M 3.238281 7.082031 L 3.238281 24.464844 L 3.378906 24.464844 L 3.378906 7.082031 L 3.238281 7.082031 Z M 3.238281 7.082031 "/>
<path style=" stroke:none;fill-rule:nonzero;fill:rgb(60.195315%,59.470512%,59.650568%);fill-opacity:1;" d="M 3.378906 7.082031 L 3.378906 24.464844 L 3.523438 24.464844 L 3.523438 7.082031 L 3.378906 7.082031 Z M 3.378906 7.082031 "/>
<path style=" stroke:none;fill-rule:nonzero;fill:rgb(60.863661%,60.151064%,60.328069%);fill-opacity:1;" d="M 3.523438 7.082031 L 3.523438 24.464844 L 3.664062 24.464844 L 3.664062 7.082031 L 3.523438 7.082031 Z M 3.523438 7.082031 "/>
<path style=" stroke:none;fill-rule:nonzero;fill:rgb(61.52285%,60.822461%,60.996414%);fill-opacity:1;" d="M 3.664062 7.082031 L 3.664062 24.464844 L 3.804688 24.464844 L 3.804688 7.082031 L 3.664062 7.082031 Z M 3.664062 7.082031 "/>
<path style=" stroke:none;fill-rule:nonzero;fill:rgb(62.180514%,61.492332%,61.663233%);fill-opacity:1;" d="M 3.804688 7.082031 L 3.804688 24.464844 L 3.945312 24.464844 L 3.945312 7.082031 L 3.804688 7.082031 Z M 3.804688 7.082031 "/>
<path style=" stroke:none;fill-rule:nonzero;fill:rgb(62.830549%,62.154574%,62.322423%);fill-opacity:1;" d="M 3.945312 7.082031 L 3.945312 24.464844 L 4.089844 24.464844 L 4.089844 7.082031 L 3.945312 7.082031 Z M 3.945312 7.082031 "/>
<path style=" stroke:none;fill-rule:nonzero;fill:rgb(63.480583%,62.81529%,62.980087%);fill-opacity:1;" d="M 4.089844 7.082031 L 4.089844 24.464844 L 4.230469 24.464844 L 4.230469 7.082031 L 4.089844 7.082031 Z M 4.089844 7.082031 "/>
<path style=" stroke:none;fill-rule:nonzero;fill:rgb(64.122988%,63.469902%,63.631647%);fill-opacity:1;" d="M 4.230469 7.082031 L 4.230469 24.464844 L 4.371094 24.464844 L 4.371094 7.082031 L 4.230469 7.082031 Z M 4.230469 7.082031 "/>
<path style=" stroke:none;fill-rule:nonzero;fill:rgb(64.763867%,64.121462%,64.281682%);fill-opacity:1;" d="M 4.371094 7.082031 L 4.371094 24.464844 L 4.515625 24.464844 L 4.515625 7.082031 L 4.371094 7.082031 Z M 4.371094 7.082031 "/>
<path style=" stroke:none;fill-rule:nonzero;fill:rgb(65.39559%,64.765393%,64.92256%);fill-opacity:1;" d="M 4.515625 7.082031 L 4.515625 24.464844 L 4.65625 24.464844 L 4.65625 7.082031 L 4.515625 7.082031 Z M 4.515625 7.082031 "/>
<path style=" stroke:none;fill-rule:nonzero;fill:rgb(66.027314%,65.409323%,65.561913%);fill-opacity:1;" d="M 4.65625 7.082031 L 4.65625 24.464844 L 4.796875 24.464844 L 4.796875 7.082031 L 4.65625 7.082031 Z M 4.65625 7.082031 "/>
<path style=" stroke:none;fill-rule:nonzero;fill:rgb(66.651408%,66.044099%,66.195163%);fill-opacity:1;" d="M 4.796875 7.082031 L 4.796875 24.464844 L 4.9375 24.464844 L 4.9375 7.082031 L 4.796875 7.082031 Z M 4.796875 7.082031 "/>
<path style=" stroke:none;fill-rule:nonzero;fill:rgb(67.273976%,66.678874%,66.826886%);fill-opacity:1;" d="M 4.9375 7.082031 L 4.9375 24.464844 L 5.082031 24.464844 L 5.082031 7.082031 L 4.9375 7.082031 Z M 4.9375 7.082031 "/>
<path style=" stroke:none;fill-rule:nonzero;fill:rgb(67.888914%,67.304494%,67.449454%);fill-opacity:1;" d="M 5.082031 7.082031 L 5.082031 24.464844 L 5.222656 24.464844 L 5.222656 7.082031 L 5.082031 7.082031 Z M 5.082031 7.082031 "/>
<path style=" stroke:none;fill-rule:nonzero;fill:rgb(68.502327%,67.928588%,68.070497%);fill-opacity:1;" d="M 5.222656 7.082031 L 5.222656 24.464844 L 5.363281 24.464844 L 5.363281 7.082031 L 5.222656 7.082031 Z M 5.222656 7.082031 "/>
<path style=" stroke:none;fill-rule:nonzero;fill:rgb(69.10811%,68.545052%,68.685435%);fill-opacity:1;" d="M 5.363281 7.082031 L 5.363281 24.464844 L 5.503906 24.464844 L 5.503906 7.082031 L 5.363281 7.082031 Z M 5.363281 7.082031 "/>
<path style=" stroke:none;fill-rule:nonzero;fill:rgb(69.712367%,69.161517%,69.298848%);fill-opacity:1;" d="M 5.503906 7.082031 L 5.503906 24.464844 L 5.648438 24.464844 L 5.648438 7.082031 L 5.503906 7.082031 Z M 5.503906 7.082031 "/>
<path style=" stroke:none;fill-rule:nonzero;fill:rgb(70.308995%,69.768826%,69.903105%);fill-opacity:1;" d="M 5.648438 7.082031 L 5.648438 24.464844 L 5.789062 24.464844 L 5.789062 7.082031 L 5.648438 7.082031 Z M 5.648438 7.082031 "/>
<path style=" stroke:none;fill-rule:nonzero;fill:rgb(70.904097%,70.374609%,70.505837%);fill-opacity:1;" d="M 5.789062 7.082031 L 5.789062 24.464844 L 5.929688 24.464844 L 5.929688 7.082031 L 5.789062 7.082031 Z M 5.789062 7.082031 "/>
<path style=" stroke:none;fill-rule:nonzero;fill:rgb(71.491569%,70.972763%,71.100938%);fill-opacity:1;" d="M 5.929688 7.082031 L 5.929688 24.464844 L 6.074219 24.464844 L 6.074219 7.082031 L 5.929688 7.082031 Z M 5.929688 7.082031 "/>
<path style=" stroke:none;fill-rule:nonzero;fill:rgb(72.077516%,71.56939%,71.69604%);fill-opacity:1;" d="M 6.074219 7.082031 L 6.074219 24.464844 L 6.214844 24.464844 L 6.214844 7.082031 L 6.074219 7.082031 Z M 6.074219 7.082031 "/>
<path style=" stroke:none;fill-rule:nonzero;fill:rgb(72.655833%,72.156863%,72.281987%);fill-opacity:1;" d="M 6.214844 7.082031 L 6.214844 24.464844 L 6.355469 24.464844 L 6.355469 7.082031 L 6.214844 7.082031 Z M 6.214844 7.082031 "/>
<path style=" stroke:none;fill-rule:nonzero;fill:rgb(73.231098%,72.744335%,72.866407%);fill-opacity:1;" d="M 6.355469 7.082031 L 6.355469 24.464844 L 6.496094 24.464844 L 6.496094 7.082031 L 6.355469 7.082031 Z M 6.355469 7.082031 "/>
<path style=" stroke:none;fill-rule:nonzero;fill:rgb(73.800259%,73.324178%,73.441672%);fill-opacity:1;" d="M 6.496094 7.082031 L 6.496094 24.464844 L 6.640625 24.464844 L 6.640625 7.082031 L 6.496094 7.082031 Z M 6.496094 7.082031 "/>
<path style=" stroke:none;fill-rule:nonzero;fill:rgb(74.367895%,73.900969%,74.016938%);fill-opacity:1;" d="M 6.640625 7.082031 L 6.640625 24.464844 L 6.78125 24.464844 L 6.78125 7.082031 L 6.640625 7.082031 Z M 6.640625 7.082031 "/>
<path style=" stroke:none;fill-rule:nonzero;fill:rgb(74.926375%,74.47013%,74.583047%);fill-opacity:1;" d="M 6.78125 7.082031 L 6.78125 24.464844 L 6.921875 24.464844 L 6.921875 7.082031 L 6.78125 7.082031 Z M 6.78125 7.082031 "/>
<path style=" stroke:none;fill-rule:nonzero;fill:rgb(75.484855%,75.037766%,75.149157%);fill-opacity:1;" d="M 6.921875 7.082031 L 6.921875 24.464844 L 7.0625 24.464844 L 7.0625 7.082031 L 6.921875 7.082031 Z M 6.921875 7.082031 "/>
<path style=" stroke:none;fill-rule:nonzero;fill:rgb(76.032654%,75.596246%,75.704585%);fill-opacity:1;" d="M 7.0625 7.082031 L 7.0625 24.464844 L 7.207031 24.464844 L 7.207031 7.082031 L 7.0625 7.082031 Z M 7.0625 7.082031 "/>
<path style=" stroke:none;fill-rule:nonzero;fill:rgb(76.581979%,76.156252%,76.26154%);fill-opacity:1;" d="M 7.207031 7.082031 L 7.207031 24.464844 L 7.347656 24.464844 L 7.347656 7.082031 L 7.207031 7.082031 Z M 7.207031 7.082031 "/>
<path style=" stroke:none;fill-rule:nonzero;fill:rgb(77.120623%,76.704051%,76.807813%);fill-opacity:1;" d="M 7.347656 7.082031 L 7.347656 24.464844 L 7.488281 24.464844 L 7.488281 7.082031 L 7.347656 7.082031 Z M 7.347656 7.082031 "/>
<path style=" stroke:none;fill-rule:nonzero;fill:rgb(77.659266%,77.25185%,77.35256%);fill-opacity:1;" d="M 7.488281 7.082031 L 7.488281 24.464844 L 7.632812 24.464844 L 7.632812 7.082031 L 7.488281 7.082031 Z M 7.488281 7.082031 "/>
<path style=" stroke:none;fill-rule:nonzero;fill:rgb(78.188754%,77.790494%,77.889677%);fill-opacity:1;" d="M 7.632812 7.082031 L 7.632812 24.464844 L 7.773438 24.464844 L 7.773438 7.082031 L 7.632812 7.082031 Z M 7.632812 7.082031 "/>
<path style=" stroke:none;fill-rule:nonzero;fill:rgb(78.716716%,78.330663%,78.426795%);fill-opacity:1;" d="M 7.773438 7.082031 L 7.773438 24.464844 L 7.914062 24.464844 L 7.914062 7.082031 L 7.773438 7.082031 Z M 7.773438 7.082031 "/>
<path style=" stroke:none;fill-rule:nonzero;fill:rgb(79.235523%,78.858625%,78.951705%);fill-opacity:1;" d="M 7.914062 7.082031 L 7.914062 24.464844 L 8.054688 24.464844 L 8.054688 7.082031 L 7.914062 7.082031 Z M 7.914062 7.082031 "/>
<path style=" stroke:none;fill-rule:nonzero;fill:rgb(79.75433%,79.386587%,79.478141%);fill-opacity:1;" d="M 8.054688 7.082031 L 8.054688 24.464844 L 8.199219 24.464844 L 8.199219 7.082031 L 8.054688 7.082031 Z M 8.054688 7.082031 "/>
<path style=" stroke:none;fill-rule:nonzero;fill:rgb(80.263981%,79.905394%,79.993896%);fill-opacity:1;" d="M 8.199219 7.082031 L 8.199219 24.464844 L 8.339844 24.464844 L 8.339844 7.082031 L 8.199219 7.082031 Z M 8.199219 7.082031 "/>
<path style=" stroke:none;fill-rule:nonzero;fill:rgb(80.772107%,80.422675%,80.509651%);fill-opacity:1;" d="M 8.339844 7.082031 L 8.339844 24.464844 L 8.480469 24.464844 L 8.480469 7.082031 L 8.339844 7.082031 Z M 8.339844 7.082031 "/>
<path style=" stroke:none;fill-rule:nonzero;fill:rgb(81.271077%,80.9308%,81.014725%);fill-opacity:1;" d="M 8.480469 7.082031 L 8.480469 24.464844 L 8.625 24.464844 L 8.625 7.082031 L 8.480469 7.082031 Z M 8.480469 7.082031 "/>
<path style=" stroke:none;fill-rule:nonzero;fill:rgb(81.770047%,81.438926%,81.521324%);fill-opacity:1;" d="M 8.625 7.082031 L 8.625 24.464844 L 8.765625 24.464844 L 8.765625 7.082031 L 8.625 7.082031 Z M 8.625 7.082031 "/>
<path style=" stroke:none;fill-rule:nonzero;fill:rgb(82.258335%,81.934844%,82.015717%);fill-opacity:1;" d="M 8.765625 7.082031 L 8.765625 24.464844 L 8.90625 24.464844 L 8.90625 7.082031 L 8.765625 7.082031 Z M 8.765625 7.082031 "/>
<path style=" stroke:none;fill-rule:nonzero;fill:rgb(82.745098%,82.430762%,82.510109%);fill-opacity:1;" d="M 8.90625 7.082031 L 8.90625 24.464844 L 9.046875 24.464844 L 9.046875 7.082031 L 8.90625 7.082031 Z M 8.90625 7.082031 "/>
<path style=" stroke:none;fill-rule:nonzero;fill:rgb(83.222705%,82.917525%,82.99382%);fill-opacity:1;" d="M 9.046875 7.082031 L 9.046875 24.464844 L 9.191406 24.464844 L 9.191406 7.082031 L 9.046875 7.082031 Z M 9.046875 7.082031 "/>
<path style=" stroke:none;fill-rule:nonzero;fill:rgb(83.701839%,83.404288%,83.477531%);fill-opacity:1;" d="M 9.191406 7.082031 L 9.191406 24.464844 L 9.332031 24.464844 L 9.332031 7.082031 L 9.191406 7.082031 Z M 9.191406 7.082031 "/>
<path style=" stroke:none;fill-rule:nonzero;fill:rgb(84.168765%,83.880369%,83.952087%);fill-opacity:1;" d="M 9.332031 7.082031 L 9.332031 24.464844 L 9.472656 24.464844 L 9.472656 7.082031 L 9.332031 7.082031 Z M 9.332031 7.082031 "/>
<path style=" stroke:none;fill-rule:nonzero;fill:rgb(84.635691%,84.356451%,84.425116%);fill-opacity:1;" d="M 9.472656 7.082031 L 9.472656 24.464844 L 9.613281 24.464844 L 9.613281 7.082031 L 9.472656 7.082031 Z M 9.472656 7.082031 "/>
<path style=" stroke:none;fill-rule:nonzero;fill:rgb(85.091936%,84.821851%,84.888991%);fill-opacity:1;" d="M 9.613281 7.082031 L 9.613281 24.464844 L 9.757812 24.464844 L 9.757812 7.082031 L 9.613281 7.082031 Z M 9.613281 7.082031 "/>
<path style=" stroke:none;fill-rule:nonzero;fill:rgb(85.549706%,85.285725%,85.351339%);fill-opacity:1;" d="M 9.757812 7.082031 L 9.757812 24.464844 L 9.898438 24.464844 L 9.898438 7.082031 L 9.757812 7.082031 Z M 9.757812 7.082031 "/>
<path style=" stroke:none;fill-rule:nonzero;fill:rgb(85.99527%,85.740444%,85.804532%);fill-opacity:1;" d="M 9.898438 7.082031 L 9.898438 24.464844 L 10.039062 24.464844 L 10.039062 7.082031 L 9.898438 7.082031 Z M 9.898438 7.082031 "/>
<path style=" stroke:none;fill-rule:nonzero;fill:rgb(86.440833%,86.193637%,86.254673%);fill-opacity:1;" d="M 10.039062 7.082031 L 10.039062 24.464844 L 10.183594 24.464844 L 10.183594 7.082031 L 10.039062 7.082031 Z M 10.039062 7.082031 "/>
<path style=" stroke:none;fill-rule:nonzero;fill:rgb(86.875715%,86.636149%,86.695659%);fill-opacity:1;" d="M 10.183594 7.082031 L 10.183594 24.464844 L 10.324219 24.464844 L 10.324219 7.082031 L 10.183594 7.082031 Z M 10.183594 7.082031 "/>
<path style=" stroke:none;fill-rule:nonzero;fill:rgb(87.309071%,87.07866%,87.135119%);fill-opacity:1;" d="M 10.324219 7.082031 L 10.324219 24.464844 L 10.464844 24.464844 L 10.464844 7.082031 L 10.324219 7.082031 Z M 10.324219 7.082031 "/>
<path style=" stroke:none;fill-rule:nonzero;fill:rgb(87.733272%,87.510491%,87.565423%);fill-opacity:1;" d="M 10.464844 7.082031 L 10.464844 24.464844 L 10.605469 24.464844 L 10.605469 7.082031 L 10.464844 7.082031 Z M 10.464844 7.082031 "/>
<path style=" stroke:none;fill-rule:nonzero;fill:rgb(88.155947%,87.940795%,87.994202%);fill-opacity:1;" d="M 10.605469 7.082031 L 10.605469 24.464844 L 10.75 24.464844 L 10.75 7.082031 L 10.605469 7.082031 Z M 10.605469 7.082031 "/>
<path style=" stroke:none;fill-rule:nonzero;fill:rgb(88.567941%,88.360418%,88.410773%);fill-opacity:1;" d="M 10.75 7.082031 L 10.75 24.464844 L 10.890625 24.464844 L 10.890625 7.082031 L 10.75 7.082031 Z M 10.75 7.082031 "/>
<path style=" stroke:none;fill-rule:nonzero;fill:rgb(88.979934%,88.780041%,88.82887%);fill-opacity:1;" d="M 10.890625 7.082031 L 10.890625 24.464844 L 11.03125 24.464844 L 11.03125 7.082031 L 10.890625 7.082031 Z M 10.890625 7.082031 "/>
<path style=" stroke:none;fill-rule:nonzero;fill:rgb(89.379721%,89.187457%,89.23476%);fill-opacity:1;" d="M 11.03125 7.082031 L 11.03125 24.464844 L 11.171875 24.464844 L 11.171875 7.082031 L 11.03125 7.082031 Z M 11.03125 7.082031 "/>
<path style=" stroke:none;fill-rule:nonzero;fill:rgb(89.779507%,89.594873%,89.64065%);fill-opacity:1;" d="M 11.171875 7.082031 L 11.171875 24.464844 L 11.316406 24.464844 L 11.316406 7.082031 L 11.171875 7.082031 Z M 11.171875 7.082031 "/>
<path style=" stroke:none;fill-rule:nonzero;fill:rgb(90.168612%,89.990082%,90.034333%);fill-opacity:1;" d="M 11.316406 7.082031 L 11.316406 24.464844 L 11.457031 24.464844 L 11.457031 7.082031 L 11.316406 7.082031 Z M 11.316406 7.082031 "/>
<path style=" stroke:none;fill-rule:nonzero;fill:rgb(90.556191%,90.38529%,90.428016%);fill-opacity:1;" d="M 11.457031 7.082031 L 11.457031 24.464844 L 11.597656 24.464844 L 11.597656 7.082031 L 11.457031 7.082031 Z M 11.457031 7.082031 "/>
<path style=" stroke:none;fill-rule:nonzero;fill:rgb(90.934615%,90.769818%,90.811017%);fill-opacity:1;" d="M 11.597656 7.082031 L 11.597656 24.464844 L 11.742188 24.464844 L 11.742188 7.082031 L 11.597656 7.082031 Z M 11.597656 7.082031 "/>
<path style=" stroke:none;fill-rule:nonzero;fill:rgb(91.311513%,91.152819%,91.192493%);fill-opacity:1;" d="M 11.742188 7.082031 L 11.742188 24.464844 L 11.882812 24.464844 L 11.882812 7.082031 L 11.742188 7.082031 Z M 11.742188 7.082031 "/>
<path style=" stroke:none;fill-rule:nonzero;fill:rgb(91.676204%,91.523613%,91.561761%);fill-opacity:1;" d="M 11.882812 7.082031 L 11.882812 24.464844 L 12.023438 24.464844 L 12.023438 7.082031 L 11.882812 7.082031 Z M 11.882812 7.082031 "/>
<path style=" stroke:none;fill-rule:nonzero;fill:rgb(92.039368%,91.894408%,91.931029%);fill-opacity:1;" d="M 12.023438 7.082031 L 12.023438 24.464844 L 12.164062 24.464844 L 12.164062 7.082031 L 12.023438 7.082031 Z M 12.023438 7.082031 "/>
<path style=" stroke:none;fill-rule:nonzero;fill:rgb(92.391852%,92.252995%,92.28809%);fill-opacity:1;" d="M 12.164062 7.082031 L 12.164062 24.464844 L 12.308594 24.464844 L 12.308594 7.082031 L 12.164062 7.082031 Z M 12.164062 7.082031 "/>
<path style=" stroke:none;fill-rule:nonzero;fill:rgb(92.742809%,92.611582%,92.643626%);fill-opacity:1;" d="M 12.308594 7.082031 L 12.308594 24.464844 L 12.449219 24.464844 L 12.449219 7.082031 L 12.308594 7.082031 Z M 12.308594 7.082031 "/>
<path style=" stroke:none;fill-rule:nonzero;fill:rgb(93.083085%,92.957961%,92.988479%);fill-opacity:1;" d="M 12.449219 7.082031 L 12.449219 24.464844 L 12.589844 24.464844 L 12.589844 7.082031 L 12.449219 7.082031 Z M 12.449219 7.082031 "/>
<path style=" stroke:none;fill-rule:nonzero;fill:rgb(93.421836%,93.301289%,93.331807%);fill-opacity:1;" d="M 12.589844 7.082031 L 12.589844 24.464844 L 12.730469 24.464844 L 12.730469 7.082031 L 12.589844 7.082031 Z M 12.589844 7.082031 "/>
<path style=" stroke:none;fill-rule:nonzero;fill:rgb(93.748379%,93.633936%,93.662928%);fill-opacity:1;" d="M 12.730469 7.082031 L 12.730469 24.464844 L 12.875 24.464844 L 12.875 7.082031 L 12.730469 7.082031 Z M 12.730469 7.082031 "/>
<path style=" stroke:none;fill-rule:nonzero;fill:rgb(94.073396%,93.965057%,93.992523%);fill-opacity:1;" d="M 12.875 7.082031 L 12.875 24.464844 L 13.015625 24.464844 L 13.015625 7.082031 L 12.875 7.082031 Z M 12.875 7.082031 "/>
<path style=" stroke:none;fill-rule:nonzero;fill:rgb(94.386206%,94.28397%,94.309911%);fill-opacity:1;" d="M 13.015625 7.082031 L 13.015625 24.464844 L 13.15625 24.464844 L 13.15625 7.082031 L 13.015625 7.082031 Z M 13.015625 7.082031 "/>
<path style=" stroke:none;fill-rule:nonzero;fill:rgb(94.699016%,94.602884%,94.627298%);fill-opacity:1;" d="M 13.15625 7.082031 L 13.15625 24.464844 L 13.300781 24.464844 L 13.300781 7.082031 L 13.15625 7.082031 Z M 13.15625 7.082031 "/>
<path style=" stroke:none;fill-rule:nonzero;fill:rgb(94.998093%,94.908064%,94.929427%);fill-opacity:1;" d="M 13.300781 7.082031 L 13.300781 24.464844 L 13.441406 24.464844 L 13.441406 7.082031 L 13.300781 7.082031 Z M 13.300781 7.082031 "/>
<path style=" stroke:none;fill-rule:nonzero;fill:rgb(95.297169%,95.211719%,95.233082%);fill-opacity:1;" d="M 13.441406 7.082031 L 13.441406 24.464844 L 13.582031 24.464844 L 13.582031 7.082031 L 13.441406 7.082031 Z M 13.441406 7.082031 "/>
<path style=" stroke:none;fill-rule:nonzero;fill:rgb(95.582513%,95.503166%,95.523003%);fill-opacity:1;" d="M 13.582031 7.082031 L 13.582031 24.464844 L 13.722656 24.464844 L 13.722656 7.082031 L 13.582031 7.082031 Z M 13.582031 7.082031 "/>
<path style=" stroke:none;fill-rule:nonzero;fill:rgb(95.867857%,95.791562%,95.811398%);fill-opacity:1;" d="M 13.722656 7.082031 L 13.722656 24.464844 L 13.867188 24.464844 L 13.867188 7.082031 L 13.722656 7.082031 Z M 13.722656 7.082031 "/>
<path style=" stroke:none;fill-rule:nonzero;fill:rgb(96.137942%,96.06775%,96.086061%);fill-opacity:1;" d="M 13.867188 7.082031 L 13.867188 24.464844 L 14.007812 24.464844 L 14.007812 7.082031 L 13.867188 7.082031 Z M 13.867188 7.082031 "/>
<path style=" stroke:none;fill-rule:nonzero;fill:rgb(96.408026%,96.342412%,96.359197%);fill-opacity:1;" d="M 14.007812 7.082031 L 14.007812 24.464844 L 14.148438 24.464844 L 14.148438 7.082031 L 14.007812 7.082031 Z M 14.007812 7.082031 "/>
<path style=" stroke:none;fill-rule:nonzero;fill:rgb(96.664378%,96.604868%,96.620127%);fill-opacity:1;" d="M 14.148438 7.082031 L 14.148438 24.464844 L 14.292969 24.464844 L 14.292969 7.082031 L 14.148438 7.082031 Z M 14.148438 7.082031 "/>
<path style=" stroke:none;fill-rule:nonzero;fill:rgb(96.920729%,96.864271%,96.878004%);fill-opacity:1;" d="M 14.292969 7.082031 L 14.292969 24.464844 L 14.433594 24.464844 L 14.433594 7.082031 L 14.292969 7.082031 Z M 14.292969 7.082031 "/>
<path style=" stroke:none;fill-rule:nonzero;fill:rgb(97.161822%,97.109941%,97.122148%);fill-opacity:1;" d="M 14.433594 7.082031 L 14.433594 24.464844 L 14.574219 24.464844 L 14.574219 7.082031 L 14.433594 7.082031 Z M 14.433594 7.082031 "/>
<path style=" stroke:none;fill-rule:nonzero;fill:rgb(97.401389%,97.354086%,97.364767%);fill-opacity:1;" d="M 14.574219 7.082031 L 14.574219 24.464844 L 14.714844 24.464844 L 14.714844 7.082031 L 14.574219 7.082031 Z M 14.574219 7.082031 "/>
<path style=" stroke:none;fill-rule:nonzero;fill:rgb(97.62417%,97.581445%,97.592126%);fill-opacity:1;" d="M 14.714844 7.082031 L 14.714844 24.464844 L 14.859375 24.464844 L 14.859375 7.082031 L 14.714844 7.082031 Z M 14.714844 7.082031 "/>
<path style=" stroke:none;fill-rule:nonzero;fill:rgb(97.848478%,97.808804%,97.819486%);fill-opacity:1;" d="M 14.859375 7.082031 L 14.859375 24.464844 L 15 24.464844 L 15 7.082031 L 14.859375 7.082031 Z M 14.859375 7.082031 "/>
<path style=" stroke:none;fill-rule:nonzero;fill:rgb(98.056001%,98.020905%,98.03006%);fill-opacity:1;" d="M 15 7.082031 L 15 24.464844 L 15.140625 24.464844 L 15.140625 7.082031 L 15 7.082031 Z M 15 7.082031 "/>
<path style=" stroke:none;fill-rule:nonzero;fill:rgb(98.263523%,98.231479%,98.239109%);fill-opacity:1;" d="M 15.140625 7.082031 L 15.140625 24.464844 L 15.28125 24.464844 L 15.28125 7.082031 L 15.140625 7.082031 Z M 15.140625 7.082031 "/>
<path style=" stroke:none;fill-rule:nonzero;fill:rgb(98.454261%,98.425269%,98.432898%);fill-opacity:1;" d="M 15.28125 7.082031 L 15.28125 24.464844 L 15.425781 24.464844 L 15.425781 7.082031 L 15.28125 7.082031 Z M 15.28125 7.082031 "/>
<path style=" stroke:none;fill-rule:nonzero;fill:rgb(98.643473%,98.619059%,98.625162%);fill-opacity:1;" d="M 15.425781 7.082031 L 15.425781 24.464844 L 15.566406 24.464844 L 15.566406 7.082031 L 15.425781 7.082031 Z M 15.425781 7.082031 "/>
<path style=" stroke:none;fill-rule:nonzero;fill:rgb(98.814374%,98.793011%,98.799115%);fill-opacity:1;" d="M 15.566406 7.082031 L 15.566406 24.464844 L 15.707031 24.464844 L 15.707031 7.082031 L 15.566406 7.082031 Z M 15.566406 7.082031 "/>
<path style=" stroke:none;fill-rule:nonzero;fill:rgb(98.985275%,98.966964%,98.971542%);fill-opacity:1;" d="M 15.707031 7.082031 L 15.707031 24.464844 L 15.851562 24.464844 L 15.851562 7.082031 L 15.707031 7.082031 Z M 15.707031 7.082031 "/>
<path style=" stroke:none;fill-rule:nonzero;fill:rgb(99.137865%,99.12108%,99.125658%);fill-opacity:1;" d="M 15.851562 7.082031 L 15.851562 24.464844 L 16.132812 24.464844 L 16.132812 7.082031 L 15.851562 7.082031 Z M 15.851562 7.082031 "/>
<path style=" stroke:none;fill-rule:nonzero;fill:rgb(99.418631%,99.40795%,99.411002%);fill-opacity:1;" d="M 16.132812 7.082031 L 16.132812 24.464844 L 16.417969 24.464844 L 16.417969 7.082031 L 16.132812 7.082031 Z M 16.132812 7.082031 "/>
<path style=" stroke:none;fill-rule:nonzero;fill:rgb(99.655146%,99.647517%,99.650568%);fill-opacity:1;" d="M 16.417969 7.082031 L 16.417969 24.464844 L 16.699219 24.464844 L 16.699219 7.082031 L 16.417969 7.082031 Z M 16.417969 7.082031 "/>
<path style=" stroke:none;fill-rule:nonzero;fill:rgb(99.838254%,99.835203%,99.835203%);fill-opacity:1;" d="M 16.699219 7.082031 L 16.699219 24.464844 L 16.984375 24.464844 L 16.984375 7.082031 L 16.699219 7.082031 Z M 16.699219 7.082031 "/>
<path style=" stroke:none;fill-rule:nonzero;fill:rgb(99.923705%,99.923705%,99.923705%);fill-opacity:1;" d="M 16.984375 7.082031 L 16.984375 24.464844 L 17.550781 24.464844 L 17.550781 7.082031 L 16.984375 7.082031 Z M 16.984375 7.082031 "/>
<path style=" stroke:none;fill-rule:nonzero;fill:rgb(99.851987%,99.848936%,99.850462%);fill-opacity:1;" d="M 17.550781 7.082031 L 17.550781 24.464844 L 17.832031 24.464844 L 17.832031 7.082031 L 17.550781 7.082031 Z M 17.550781 7.082031 "/>
<path style=" stroke:none;fill-rule:nonzero;fill:rgb(99.66125%,99.655146%,99.656672%);fill-opacity:1;" d="M 17.832031 7.082031 L 17.832031 24.464844 L 18.117188 24.464844 L 18.117188 7.082031 L 17.832031 7.082031 Z M 17.832031 7.082031 "/>
<path style=" stroke:none;fill-rule:nonzero;fill:rgb(99.415579%,99.404898%,99.40795%);fill-opacity:1;" d="M 18.117188 7.082031 L 18.117188 24.464844 L 18.398438 24.464844 L 18.398438 7.082031 L 18.117188 7.082031 Z M 18.117188 7.082031 "/>
<path style=" stroke:none;fill-rule:nonzero;fill:rgb(99.124132%,99.107347%,99.111925%);fill-opacity:1;" d="M 18.398438 7.082031 L 18.398438 24.464844 L 18.683594 24.464844 L 18.683594 7.082031 L 18.398438 7.082031 Z M 18.398438 7.082031 "/>
<path style=" stroke:none;fill-rule:nonzero;fill:rgb(98.793011%,98.770123%,98.776226%);fill-opacity:1;" d="M 18.683594 7.082031 L 18.683594 24.464844 L 18.824219 24.464844 L 18.824219 7.082031 L 18.683594 7.082031 Z M 18.683594 7.082031 "/>
<path style=" stroke:none;fill-rule:nonzero;fill:rgb(98.616007%,98.590066%,98.597696%);fill-opacity:1;" d="M 18.824219 7.082031 L 18.824219 24.464844 L 18.96875 24.464844 L 18.96875 7.082031 L 18.824219 7.082031 Z M 18.824219 7.082031 "/>
<path style=" stroke:none;fill-rule:nonzero;fill:rgb(98.422217%,98.393225%,98.400855%);fill-opacity:1;" d="M 18.96875 7.082031 L 18.96875 24.464844 L 19.109375 24.464844 L 19.109375 7.082031 L 18.96875 7.082031 Z M 18.96875 7.082031 "/>
<path style=" stroke:none;fill-rule:nonzero;fill:rgb(98.226902%,98.194858%,98.204013%);fill-opacity:1;" d="M 19.109375 7.082031 L 19.109375 24.464844 L 19.25 24.464844 L 19.25 7.082031 L 19.109375 7.082031 Z M 19.109375 7.082031 "/>
<path style=" stroke:none;fill-rule:nonzero;fill:rgb(98.016327%,97.981231%,97.990387%);fill-opacity:1;" d="M 19.25 7.082031 L 19.25 24.464844 L 19.390625 24.464844 L 19.390625 7.082031 L 19.25 7.082031 Z M 19.25 7.082031 "/>
<path style=" stroke:none;fill-rule:nonzero;fill:rgb(97.805753%,97.766079%,97.776761%);fill-opacity:1;" d="M 19.390625 7.082031 L 19.390625 24.464844 L 19.535156 24.464844 L 19.535156 7.082031 L 19.390625 7.082031 Z M 19.390625 7.082031 "/>
<path style=" stroke:none;fill-rule:nonzero;fill:rgb(97.579919%,97.535668%,97.546349%);fill-opacity:1;" d="M 19.535156 7.082031 L 19.535156 24.464844 L 19.675781 24.464844 L 19.675781 7.082031 L 19.535156 7.082031 Z M 19.535156 7.082031 "/>
<path style=" stroke:none;fill-rule:nonzero;fill:rgb(97.354086%,97.305257%,97.317464%);fill-opacity:1;" d="M 19.675781 7.082031 L 19.675781 24.464844 L 19.816406 24.464844 L 19.816406 7.082031 L 19.675781 7.082031 Z M 19.675781 7.082031 "/>
<path style=" stroke:none;fill-rule:nonzero;fill:rgb(97.112993%,97.059586%,97.07332%);fill-opacity:1;" d="M 19.816406 7.082031 L 19.816406 24.464844 L 19.960938 24.464844 L 19.960938 7.082031 L 19.816406 7.082031 Z M 19.816406 7.082031 "/>
<path style=" stroke:none;fill-rule:nonzero;fill:rgb(96.870375%,96.813916%,96.827649%);fill-opacity:1;" d="M 19.960938 7.082031 L 19.960938 24.464844 L 20.101562 24.464844 L 20.101562 7.082031 L 19.960938 7.082031 Z M 19.960938 7.082031 "/>
<path style=" stroke:none;fill-rule:nonzero;fill:rgb(96.615549%,96.552987%,96.568246%);fill-opacity:1;" d="M 20.101562 7.082031 L 20.101562 24.464844 L 20.242188 24.464844 L 20.242188 7.082031 L 20.101562 7.082031 Z M 20.101562 7.082031 "/>
<path style=" stroke:none;fill-rule:nonzero;fill:rgb(96.357671%,96.292058%,96.308843%);fill-opacity:1;" d="M 20.242188 7.082031 L 20.242188 24.464844 L 20.382812 24.464844 L 20.382812 7.082031 L 20.242188 7.082031 Z M 20.242188 7.082031 "/>
<path style=" stroke:none;fill-rule:nonzero;fill:rgb(96.089113%,96.017395%,96.03418%);fill-opacity:1;" d="M 20.382812 7.082031 L 20.382812 24.464844 L 20.527344 24.464844 L 20.527344 7.082031 L 20.382812 7.082031 Z M 20.382812 7.082031 "/>
<path style=" stroke:none;fill-rule:nonzero;fill:rgb(95.819028%,95.742733%,95.761044%);fill-opacity:1;" d="M 20.527344 7.082031 L 20.527344 24.464844 L 20.667969 24.464844 L 20.667969 7.082031 L 20.527344 7.082031 Z M 20.527344 7.082031 "/>
<path style=" stroke:none;fill-rule:nonzero;fill:rgb(95.536736%,95.455863%,95.4757%);fill-opacity:1;" d="M 20.667969 7.082031 L 20.667969 24.464844 L 20.808594 24.464844 L 20.808594 7.082031 L 20.667969 7.082031 Z M 20.667969 7.082031 "/>
<path style=" stroke:none;fill-rule:nonzero;fill:rgb(95.254444%,95.167468%,95.18883%);fill-opacity:1;" d="M 20.808594 7.082031 L 20.808594 24.464844 L 20.949219 24.464844 L 20.949219 7.082031 L 20.808594 7.082031 Z M 20.808594 7.082031 "/>
<path style=" stroke:none;fill-rule:nonzero;fill:rgb(94.956893%,94.865339%,94.888228%);fill-opacity:1;" d="M 20.949219 7.082031 L 20.949219 24.464844 L 21.09375 24.464844 L 21.09375 7.082031 L 20.949219 7.082031 Z M 20.949219 7.082031 "/>
<path style=" stroke:none;fill-rule:nonzero;fill:rgb(94.660868%,94.564736%,94.589151%);fill-opacity:1;" d="M 21.09375 7.082031 L 21.09375 24.464844 L 21.234375 24.464844 L 21.234375 7.082031 L 21.09375 7.082031 Z M 21.09375 7.082031 "/>
<path style=" stroke:none;fill-rule:nonzero;fill:rgb(94.354162%,94.250401%,94.276341%);fill-opacity:1;" d="M 21.234375 7.082031 L 21.234375 24.464844 L 21.375 24.464844 L 21.375 7.082031 L 21.234375 7.082031 Z M 21.234375 7.082031 "/>
<path style=" stroke:none;fill-rule:nonzero;fill:rgb(94.04593%,93.937591%,93.963531%);fill-opacity:1;" d="M 21.375 7.082031 L 21.375 24.464844 L 21.519531 24.464844 L 21.519531 7.082031 L 21.375 7.082031 Z M 21.375 7.082031 "/>
<path style=" stroke:none;fill-rule:nonzero;fill:rgb(93.72549%,93.611048%,93.64004%);fill-opacity:1;" d="M 21.519531 7.082031 L 21.519531 24.464844 L 21.660156 24.464844 L 21.660156 7.082031 L 21.519531 7.082031 Z M 21.519531 7.082031 "/>
<path style=" stroke:none;fill-rule:nonzero;fill:rgb(93.405051%,93.28603%,93.315023%);fill-opacity:1;" d="M 21.660156 7.082031 L 21.660156 24.464844 L 21.800781 24.464844 L 21.800781 7.082031 L 21.660156 7.082031 Z M 21.660156 7.082031 "/>
<path style=" stroke:none;fill-rule:nonzero;fill:rgb(93.07393%,92.94728%,92.979324%);fill-opacity:1;" d="M 21.800781 7.082031 L 21.800781 24.464844 L 21.941406 24.464844 L 21.941406 7.082031 L 21.800781 7.082031 Z M 21.800781 7.082031 "/>
<path style=" stroke:none;fill-rule:nonzero;fill:rgb(92.741283%,92.60853%,92.6421%);fill-opacity:1;" d="M 21.941406 7.082031 L 21.941406 24.464844 L 22.085938 24.464844 L 22.085938 7.082031 L 21.941406 7.082031 Z M 21.941406 7.082031 "/>
<path style=" stroke:none;fill-rule:nonzero;fill:rgb(92.397955%,92.260624%,92.294194%);fill-opacity:1;" d="M 22.085938 7.082031 L 22.085938 24.464844 L 22.226562 24.464844 L 22.226562 7.082031 L 22.085938 7.082031 Z M 22.085938 7.082031 "/>
<path style=" stroke:none;fill-rule:nonzero;fill:rgb(92.054627%,91.909667%,91.946288%);fill-opacity:1;" d="M 22.226562 7.082031 L 22.226562 24.464844 L 22.367188 24.464844 L 22.367188 7.082031 L 22.226562 7.082031 Z M 22.226562 7.082031 "/>
<path style=" stroke:none;fill-rule:nonzero;fill:rgb(91.700618%,91.549554%,91.587701%);fill-opacity:1;" d="M 22.367188 7.082031 L 22.367188 24.464844 L 22.507812 24.464844 L 22.507812 7.082031 L 22.367188 7.082031 Z M 22.367188 7.082031 "/>
<path style=" stroke:none;fill-rule:nonzero;fill:rgb(91.346609%,91.189441%,91.229114%);fill-opacity:1;" d="M 22.507812 7.082031 L 22.507812 24.464844 L 22.652344 24.464844 L 22.652344 7.082031 L 22.507812 7.082031 Z M 22.507812 7.082031 "/>
<path style=" stroke:none;fill-rule:nonzero;fill:rgb(90.981918%,90.818647%,90.85832%);fill-opacity:1;" d="M 22.652344 7.082031 L 22.652344 24.464844 L 22.792969 24.464844 L 22.792969 7.082031 L 22.652344 7.082031 Z M 22.652344 7.082031 "/>
<path style=" stroke:none;fill-rule:nonzero;fill:rgb(90.615702%,90.4448%,90.487526%);fill-opacity:1;" d="M 22.792969 7.082031 L 22.792969 24.464844 L 22.933594 24.464844 L 22.933594 7.082031 L 22.792969 7.082031 Z M 22.792969 7.082031 "/>
<path style=" stroke:none;fill-rule:nonzero;fill:rgb(90.24033%,90.063325%,90.107576%);fill-opacity:1;" d="M 22.933594 7.082031 L 22.933594 24.464844 L 23.078125 24.464844 L 23.078125 7.082031 L 22.933594 7.082031 Z M 22.933594 7.082031 "/>
<path style=" stroke:none;fill-rule:nonzero;fill:rgb(89.864958%,89.680323%,89.726101%);fill-opacity:1;" d="M 23.078125 7.082031 L 23.078125 24.464844 L 23.21875 24.464844 L 23.21875 7.082031 L 23.078125 7.082031 Z M 23.078125 7.082031 "/>
<path style=" stroke:none;fill-rule:nonzero;fill:rgb(89.478904%,89.286641%,89.33547%);fill-opacity:1;" d="M 23.21875 7.082031 L 23.21875 24.464844 L 23.359375 24.464844 L 23.359375 7.082031 L 23.21875 7.082031 Z M 23.21875 7.082031 "/>
<path style=" stroke:none;fill-rule:nonzero;fill:rgb(89.091325%,88.892958%,88.943313%);fill-opacity:1;" d="M 23.359375 7.082031 L 23.359375 24.464844 L 23.5 24.464844 L 23.5 7.082031 L 23.359375 7.082031 Z M 23.359375 7.082031 "/>
<path style=" stroke:none;fill-rule:nonzero;fill:rgb(88.696117%,88.49012%,88.540475%);fill-opacity:1;" d="M 23.5 7.082031 L 23.5 24.464844 L 23.644531 24.464844 L 23.644531 7.082031 L 23.5 7.082031 Z M 23.5 7.082031 "/>
<path style=" stroke:none;fill-rule:nonzero;fill:rgb(88.299382%,88.085756%,88.139162%);fill-opacity:1;" d="M 23.644531 7.082031 L 23.644531 24.464844 L 23.785156 24.464844 L 23.785156 7.082031 L 23.644531 7.082031 Z M 23.644531 7.082031 "/>
<path style=" stroke:none;fill-rule:nonzero;fill:rgb(87.891966%,87.672236%,87.727169%);fill-opacity:1;" d="M 23.785156 7.082031 L 23.785156 24.464844 L 23.925781 24.464844 L 23.925781 7.082031 L 23.785156 7.082031 Z M 23.785156 7.082031 "/>
<path style=" stroke:none;fill-rule:nonzero;fill:rgb(87.486076%,87.258717%,87.315175%);fill-opacity:1;" d="M 23.925781 7.082031 L 23.925781 24.464844 L 24.066406 24.464844 L 24.066406 7.082031 L 23.925781 7.082031 Z M 23.925781 7.082031 "/>
<path style=" stroke:none;fill-rule:nonzero;fill:rgb(87.069505%,86.834516%,86.8925%);fill-opacity:1;" d="M 24.066406 7.082031 L 24.066406 24.464844 L 24.210938 24.464844 L 24.210938 7.082031 L 24.066406 7.082031 Z M 24.066406 7.082031 "/>
<path style=" stroke:none;fill-rule:nonzero;fill:rgb(86.654459%,86.410315%,86.471351%);fill-opacity:1;" d="M 24.210938 7.082031 L 24.210938 24.464844 L 24.351562 24.464844 L 24.351562 7.082031 L 24.210938 7.082031 Z M 24.210938 7.082031 "/>
<path style=" stroke:none;fill-rule:nonzero;fill:rgb(86.228733%,85.978485%,86.039521%);fill-opacity:1;" d="M 24.351562 7.082031 L 24.351562 24.464844 L 24.492188 24.464844 L 24.492188 7.082031 L 24.351562 7.082031 Z M 24.351562 7.082031 "/>
<path style=" stroke:none;fill-rule:nonzero;fill:rgb(85.80148%,85.543603%,85.607691%);fill-opacity:1;" d="M 24.492188 7.082031 L 24.492188 24.464844 L 24.636719 24.464844 L 24.636719 7.082031 L 24.492188 7.082031 Z M 24.492188 7.082031 "/>
<path style=" stroke:none;fill-rule:nonzero;fill:rgb(85.366598%,85.099565%,85.166705%);fill-opacity:1;" d="M 24.636719 7.082031 L 24.636719 24.464844 L 24.777344 24.464844 L 24.777344 7.082031 L 24.636719 7.082031 Z M 24.636719 7.082031 "/>
<path style=" stroke:none;fill-rule:nonzero;fill:rgb(84.93019%,84.657053%,84.724193%);fill-opacity:1;" d="M 24.777344 7.082031 L 24.777344 24.464844 L 24.917969 24.464844 L 24.917969 7.082031 L 24.777344 7.082031 Z M 24.777344 7.082031 "/>
<path style=" stroke:none;fill-rule:nonzero;fill:rgb(84.487678%,84.205386%,84.275578%);fill-opacity:1;" d="M 24.917969 7.082031 L 24.917969 24.464844 L 25.058594 24.464844 L 25.058594 7.082031 L 24.917969 7.082031 Z M 24.917969 7.082031 "/>
<path style=" stroke:none;fill-rule:nonzero;fill:rgb(84.042115%,83.752193%,83.823911%);fill-opacity:1;" d="M 25.058594 7.082031 L 25.058594 24.464844 L 25.203125 24.464844 L 25.203125 7.082031 L 25.058594 7.082031 Z M 25.058594 7.082031 "/>
<path style=" stroke:none;fill-rule:nonzero;fill:rgb(83.588922%,83.289845%,83.364614%);fill-opacity:1;" d="M 25.203125 7.082031 L 25.203125 24.464844 L 25.34375 24.464844 L 25.34375 7.082031 L 25.203125 7.082031 Z M 25.203125 7.082031 "/>
<path style=" stroke:none;fill-rule:nonzero;fill:rgb(83.135729%,82.827497%,82.903792%);fill-opacity:1;" d="M 25.34375 7.082031 L 25.34375 24.464844 L 25.484375 24.464844 L 25.484375 7.082031 L 25.34375 7.082031 Z M 25.34375 7.082031 "/>
<path style=" stroke:none;fill-rule:nonzero;fill:rgb(82.671855%,82.355993%,82.43534%);fill-opacity:1;" d="M 25.484375 7.082031 L 25.484375 24.464844 L 25.628906 24.464844 L 25.628906 7.082031 L 25.484375 7.082031 Z M 25.484375 7.082031 "/>
<path style=" stroke:none;fill-rule:nonzero;fill:rgb(82.20798%,81.884489%,81.965362%);fill-opacity:1;" d="M 25.628906 7.082031 L 25.628906 24.464844 L 25.769531 24.464844 L 25.769531 7.082031 L 25.628906 7.082031 Z M 25.628906 7.082031 "/>
<path style=" stroke:none;fill-rule:nonzero;fill:rgb(81.736477%,81.405356%,81.487755%);fill-opacity:1;" d="M 25.769531 7.082031 L 25.769531 24.464844 L 25.910156 24.464844 L 25.910156 7.082031 L 25.769531 7.082031 Z M 25.769531 7.082031 "/>
<path style=" stroke:none;fill-rule:nonzero;fill:rgb(81.266499%,80.924697%,81.010147%);fill-opacity:1;" d="M 25.910156 7.082031 L 25.910156 24.464844 L 26.050781 24.464844 L 26.050781 7.082031 L 25.910156 7.082031 Z M 25.910156 7.082031 "/>
<path style=" stroke:none;fill-rule:nonzero;fill:rgb(80.78584%,80.434882%,80.521859%);fill-opacity:1;" d="M 26.050781 7.082031 L 26.050781 24.464844 L 26.195312 24.464844 L 26.195312 7.082031 L 26.050781 7.082031 Z M 26.050781 7.082031 "/>
<path style=" stroke:none;fill-rule:nonzero;fill:rgb(80.30518%,79.946593%,80.035096%);fill-opacity:1;" d="M 26.195312 7.082031 L 26.195312 24.464844 L 26.335938 24.464844 L 26.335938 7.082031 L 26.195312 7.082031 Z M 26.195312 7.082031 "/>
<path style=" stroke:none;fill-rule:nonzero;fill:rgb(79.815366%,79.447623%,79.539178%);fill-opacity:1;" d="M 26.335938 7.082031 L 26.335938 24.464844 L 26.476562 24.464844 L 26.476562 7.082031 L 26.335938 7.082031 Z M 26.335938 7.082031 "/>
<path style=" stroke:none;fill-rule:nonzero;fill:rgb(79.325551%,78.948653%,79.043259%);fill-opacity:1;" d="M 26.476562 7.082031 L 26.476562 24.464844 L 26.617188 24.464844 L 26.617188 7.082031 L 26.476562 7.082031 Z M 26.476562 7.082031 "/>
<path style=" stroke:none;fill-rule:nonzero;fill:rgb(78.828107%,78.442054%,78.538186%);fill-opacity:1;" d="M 26.617188 7.082031 L 26.617188 24.464844 L 26.761719 24.464844 L 26.761719 7.082031 L 26.617188 7.082031 Z M 26.617188 7.082031 "/>
<path style=" stroke:none;fill-rule:nonzero;fill:rgb(78.330663%,77.935454%,78.033112%);fill-opacity:1;" d="M 26.761719 7.082031 L 26.761719 24.464844 L 26.902344 24.464844 L 26.902344 7.082031 L 26.761719 7.082031 Z M 26.761719 7.082031 "/>
<path style=" stroke:none;fill-rule:nonzero;fill:rgb(77.824063%,77.421225%,77.521935%);fill-opacity:1;" d="M 26.902344 7.082031 L 26.902344 24.464844 L 27.042969 24.464844 L 27.042969 7.082031 L 26.902344 7.082031 Z M 26.902344 7.082031 "/>
<path style=" stroke:none;fill-rule:nonzero;fill:rgb(77.317464%,76.90547%,77.007706%);fill-opacity:1;" d="M 27.042969 7.082031 L 27.042969 24.464844 L 27.1875 24.464844 L 27.1875 7.082031 L 27.042969 7.082031 Z M 27.042969 7.082031 "/>
<path style=" stroke:none;fill-rule:nonzero;fill:rgb(76.804761%,76.382086%,76.487373%);fill-opacity:1;" d="M 27.1875 7.082031 L 27.1875 24.464844 L 27.328125 24.464844 L 27.328125 7.082031 L 27.1875 7.082031 Z M 27.1875 7.082031 "/>
<path style=" stroke:none;fill-rule:nonzero;fill:rgb(76.290532%,75.858701%,75.965515%);fill-opacity:1;" d="M 27.328125 7.082031 L 27.328125 24.464844 L 27.46875 24.464844 L 27.46875 7.082031 L 27.328125 7.082031 Z M 27.328125 7.082031 "/>
<path style=" stroke:none;fill-rule:nonzero;fill:rgb(75.767147%,75.326162%,75.436027%);fill-opacity:1;" d="M 27.46875 7.082031 L 27.46875 24.464844 L 27.609375 24.464844 L 27.609375 7.082031 L 27.46875 7.082031 Z M 27.46875 7.082031 "/>
<path style=" stroke:none;fill-rule:nonzero;fill:rgb(75.245289%,74.793622%,74.906538%);fill-opacity:1;" d="M 27.609375 7.082031 L 27.609375 24.464844 L 27.753906 24.464844 L 27.753906 7.082031 L 27.609375 7.082031 Z M 27.609375 7.082031 "/>
<path style=" stroke:none;fill-rule:nonzero;fill:rgb(74.714275%,74.253452%,74.367895%);fill-opacity:1;" d="M 27.753906 7.082031 L 27.753906 24.464844 L 27.894531 24.464844 L 27.894531 7.082031 L 27.753906 7.082031 Z M 27.753906 7.082031 "/>
<path style=" stroke:none;fill-rule:nonzero;fill:rgb(74.181735%,73.711757%,73.829252%);fill-opacity:1;" d="M 27.894531 7.082031 L 27.894531 24.464844 L 28.035156 24.464844 L 28.035156 7.082031 L 27.894531 7.082031 Z M 27.894531 7.082031 "/>
<path style=" stroke:none;fill-rule:nonzero;fill:rgb(73.644617%,73.163958%,73.282979%);fill-opacity:1;" d="M 28.035156 7.082031 L 28.035156 24.464844 L 28.175781 24.464844 L 28.175781 7.082031 L 28.035156 7.082031 Z M 28.035156 7.082031 "/>
<path style=" stroke:none;fill-rule:nonzero;fill:rgb(73.104448%,72.614633%,72.736706%);fill-opacity:1;" d="M 28.175781 7.082031 L 28.175781 24.464844 L 28.320312 24.464844 L 28.320312 7.082031 L 28.175781 7.082031 Z M 28.175781 7.082031 "/>
<path style=" stroke:none;fill-rule:nonzero;fill:rgb(72.558175%,72.057679%,72.182803%);fill-opacity:1;" d="M 28.320312 7.082031 L 28.320312 24.464844 L 28.460938 24.464844 L 28.460938 7.082031 L 28.320312 7.082031 Z M 28.320312 7.082031 "/>
<path style=" stroke:none;fill-rule:nonzero;fill:rgb(72.011902%,71.502251%,71.628901%);fill-opacity:1;" d="M 28.460938 7.082031 L 28.460938 24.464844 L 28.601562 24.464844 L 28.601562 7.082031 L 28.460938 7.082031 Z M 28.460938 7.082031 "/>
<path style=" stroke:none;fill-rule:nonzero;fill:rgb(71.458%,70.937667%,71.067369%);fill-opacity:1;" d="M 28.601562 7.082031 L 28.601562 24.464844 L 28.746094 24.464844 L 28.746094 7.082031 L 28.601562 7.082031 Z M 28.601562 7.082031 "/>
<path style=" stroke:none;fill-rule:nonzero;fill:rgb(70.902571%,70.371557%,70.504311%);fill-opacity:1;" d="M 28.746094 7.082031 L 28.746094 24.464844 L 28.886719 24.464844 L 28.886719 7.082031 L 28.746094 7.082031 Z M 28.746094 7.082031 "/>
<path style=" stroke:none;fill-rule:nonzero;fill:rgb(70.339513%,69.799344%,69.933623%);fill-opacity:1;" d="M 28.886719 7.082031 L 28.886719 24.464844 L 29.027344 24.464844 L 29.027344 7.082031 L 28.886719 7.082031 Z M 28.886719 7.082031 "/>
<path style=" stroke:none;fill-rule:nonzero;fill:rgb(69.776455%,69.225605%,69.362936%);fill-opacity:1;" d="M 29.027344 7.082031 L 29.027344 24.464844 L 29.167969 24.464844 L 29.167969 7.082031 L 29.027344 7.082031 Z M 29.027344 7.082031 "/>
<path style=" stroke:none;fill-rule:nonzero;fill:rgb(69.205768%,68.645762%,68.784619%);fill-opacity:1;" d="M 29.167969 7.082031 L 29.167969 24.464844 L 29.3125 24.464844 L 29.3125 7.082031 L 29.167969 7.082031 Z M 29.167969 7.082031 "/>
<path style=" stroke:none;fill-rule:nonzero;fill:rgb(68.636606%,68.065919%,68.207828%);fill-opacity:1;" d="M 29.3125 7.082031 L 29.3125 24.464844 L 29.453125 24.464844 L 29.453125 7.082031 L 29.3125 7.082031 Z M 29.3125 7.082031 "/>
<path style=" stroke:none;fill-rule:nonzero;fill:rgb(68.058289%,67.476921%,67.621881%);fill-opacity:1;" d="M 29.453125 7.082031 L 29.453125 24.464844 L 29.59375 24.464844 L 29.59375 7.082031 L 29.453125 7.082031 Z M 29.453125 7.082031 "/>
<path style=" stroke:none;fill-rule:nonzero;fill:rgb(67.479973%,66.889448%,67.035935%);fill-opacity:1;" d="M 29.59375 7.082031 L 29.59375 24.464844 L 29.734375 24.464844 L 29.734375 7.082031 L 29.59375 7.082031 Z M 29.59375 7.082031 "/>
<path style=" stroke:none;fill-rule:nonzero;fill:rgb(66.895552%,66.292821%,66.443885%);fill-opacity:1;" d="M 29.734375 7.082031 L 29.734375 24.464844 L 29.878906 24.464844 L 29.878906 7.082031 L 29.734375 7.082031 Z M 29.734375 7.082031 "/>
<path style=" stroke:none;fill-rule:nonzero;fill:rgb(66.309606%,65.697719%,65.848783%);fill-opacity:1;" d="M 29.878906 7.082031 L 29.878906 24.464844 L 30.019531 24.464844 L 30.019531 7.082031 L 29.878906 7.082031 Z M 29.878906 7.082031 "/>
<path style=" stroke:none;fill-rule:nonzero;fill:rgb(65.717556%,65.093462%,65.249104%);fill-opacity:1;" d="M 30.019531 7.082031 L 30.019531 24.464844 L 30.160156 24.464844 L 30.160156 7.082031 L 30.019531 7.082031 Z M 30.019531 7.082031 "/>
<path style=" stroke:none;fill-rule:nonzero;fill:rgb(65.125505%,64.49073%,64.647898%);fill-opacity:1;" d="M 30.160156 7.082031 L 30.160156 24.464844 L 30.304688 24.464844 L 30.304688 7.082031 L 30.160156 7.082031 Z M 30.160156 7.082031 "/>
<path style=" stroke:none;fill-rule:nonzero;fill:rgb(64.525826%,63.878843%,64.040589%);fill-opacity:1;" d="M 30.304688 7.082031 L 30.304688 24.464844 L 30.445312 24.464844 L 30.445312 7.082031 L 30.304688 7.082031 Z M 30.304688 7.082031 "/>
<path style=" stroke:none;fill-rule:nonzero;fill:rgb(63.92462%,63.268482%,63.431754%);fill-opacity:1;" d="M 30.445312 7.082031 L 30.445312 24.464844 L 30.585938 24.464844 L 30.585938 7.082031 L 30.445312 7.082031 Z M 30.445312 7.082031 "/>
<path style=" stroke:none;fill-rule:nonzero;fill:rgb(63.318837%,62.650492%,62.816815%);fill-opacity:1;" d="M 30.585938 7.082031 L 30.585938 24.464844 L 30.726562 24.464844 L 30.726562 7.082031 L 30.585938 7.082031 Z M 30.585938 7.082031 "/>
<path style=" stroke:none;fill-rule:nonzero;fill:rgb(62.710002%,62.030976%,62.200351%);fill-opacity:1;" d="M 30.726562 7.082031 L 30.726562 24.464844 L 30.871094 24.464844 L 30.871094 7.082031 L 30.726562 7.082031 Z M 30.726562 7.082031 "/>
<path style=" stroke:none;fill-rule:nonzero;fill:rgb(62.095064%,61.405356%,61.576257%);fill-opacity:1;" d="M 30.871094 7.082031 L 30.871094 24.464844 L 31.011719 24.464844 L 31.011719 7.082031 L 30.871094 7.082031 Z M 30.871094 7.082031 "/>
<path style=" stroke:none;fill-rule:nonzero;fill:rgb(61.480125%,60.779736%,60.953689%);fill-opacity:1;" d="M 31.011719 7.082031 L 31.011719 24.464844 L 31.152344 24.464844 L 31.152344 7.082031 L 31.011719 7.082031 Z M 31.011719 7.082031 "/>
<path style=" stroke:none;fill-rule:nonzero;fill:rgb(60.859083%,60.146487%,60.323491%);fill-opacity:1;" d="M 31.152344 7.082031 L 31.152344 24.464844 L 31.296875 24.464844 L 31.296875 7.082031 L 31.152344 7.082031 Z M 31.152344 7.082031 "/>
<path style=" stroke:none;fill-rule:nonzero;fill:rgb(60.236515%,59.513237%,59.691768%);fill-opacity:1;" d="M 31.296875 7.082031 L 31.296875 24.464844 L 31.4375 24.464844 L 31.4375 7.082031 L 31.296875 7.082031 Z M 31.296875 7.082031 "/>
<path style=" stroke:none;fill-rule:nonzero;fill:rgb(59.607843%,58.872358%,59.053941%);fill-opacity:1;" d="M 31.4375 7.082031 L 31.4375 24.464844 L 31.578125 24.464844 L 31.578125 7.082031 L 31.4375 7.082031 Z M 31.4375 7.082031 "/>
<path style=" stroke:none;fill-rule:nonzero;fill:rgb(58.977646%,58.231479%,58.416114%);fill-opacity:1;" d="M 31.578125 7.082031 L 31.578125 24.464844 L 31.71875 24.464844 L 31.71875 7.082031 L 31.578125 7.082031 Z M 31.578125 7.082031 "/>
<path style=" stroke:none;fill-rule:nonzero;fill:rgb(58.341344%,57.584497%,57.772183%);fill-opacity:1;" d="M 31.71875 7.082031 L 31.71875 24.464844 L 31.863281 24.464844 L 31.863281 7.082031 L 31.71875 7.082031 Z M 31.71875 7.082031 "/>
<path style=" stroke:none;fill-rule:nonzero;fill:rgb(57.705043%,56.935988%,57.126726%);fill-opacity:1;" d="M 31.863281 7.082031 L 31.863281 24.464844 L 32.003906 24.464844 L 32.003906 7.082031 L 31.863281 7.082031 Z M 31.863281 7.082031 "/>
<path style=" stroke:none;fill-rule:nonzero;fill:rgb(57.062638%,56.281376%,56.475166%);fill-opacity:1;" d="M 32.003906 7.082031 L 32.003906 24.464844 L 32.144531 24.464844 L 32.144531 7.082031 L 32.003906 7.082031 Z M 32.003906 7.082031 "/>
<path style=" stroke:none;fill-rule:nonzero;fill:rgb(56.418708%,55.625238%,55.82208%);fill-opacity:1;" d="M 32.144531 7.082031 L 32.144531 24.464844 L 32.285156 24.464844 L 32.285156 7.082031 L 32.144531 7.082031 Z M 32.144531 7.082031 "/>
<path style=" stroke:none;fill-rule:nonzero;fill:rgb(55.768673%,54.962997%,55.16289%);fill-opacity:1;" d="M 32.285156 7.082031 L 32.285156 24.464844 L 32.429688 24.464844 L 32.429688 7.082031 L 32.285156 7.082031 Z M 32.285156 7.082031 "/>
<path style=" stroke:none;fill-rule:nonzero;fill:rgb(55.118639%,54.300755%,54.5037%);fill-opacity:1;" d="M 32.429688 7.082031 L 32.429688 24.464844 L 32.570312 24.464844 L 32.570312 7.082031 L 32.429688 7.082031 Z M 32.429688 7.082031 "/>
<path style=" stroke:none;fill-rule:nonzero;fill:rgb(54.460975%,53.63241%,53.838407%);fill-opacity:1;" d="M 32.570312 7.082031 L 32.570312 24.464844 L 32.710938 24.464844 L 32.710938 7.082031 L 32.570312 7.082031 Z M 32.570312 7.082031 "/>
<path style=" stroke:none;fill-rule:nonzero;fill:rgb(53.804837%,52.964065%,53.173114%);fill-opacity:1;" d="M 32.710938 7.082031 L 32.710938 24.464844 L 32.855469 24.464844 L 32.855469 7.082031 L 32.710938 7.082031 Z M 32.710938 7.082031 "/>
<path style=" stroke:none;fill-rule:nonzero;fill:rgb(53.14107%,52.28809%,52.500191%);fill-opacity:1;" d="M 32.855469 7.082031 L 32.855469 24.464844 L 32.996094 24.464844 L 32.996094 7.082031 L 32.855469 7.082031 Z M 32.855469 7.082031 "/>
<path style=" stroke:none;fill-rule:nonzero;fill:rgb(52.475776%,51.612116%,51.825742%);fill-opacity:1;" d="M 32.996094 7.082031 L 32.996094 24.464844 L 33.136719 24.464844 L 33.136719 7.082031 L 32.996094 7.082031 Z M 32.996094 7.082031 "/>
<path style=" stroke:none;fill-rule:nonzero;fill:rgb(51.805905%,50.928511%,51.146715%);fill-opacity:1;" d="M 33.136719 7.082031 L 33.136719 24.464844 L 33.277344 24.464844 L 33.277344 7.082031 L 33.136719 7.082031 Z M 33.136719 7.082031 "/>
<path style=" stroke:none;fill-rule:nonzero;fill:rgb(51.134508%,50.244907%,50.466163%);fill-opacity:1;" d="M 33.277344 7.082031 L 33.277344 24.464844 L 33.421875 24.464844 L 33.421875 7.082031 L 33.277344 7.082031 Z M 33.277344 7.082031 "/>
<path style=" stroke:none;fill-rule:nonzero;fill:rgb(50.458534%,49.556725%,49.781033%);fill-opacity:1;" d="M 33.421875 7.082031 L 33.421875 24.464844 L 33.5625 24.464844 L 33.5625 7.082031 L 33.421875 7.082031 Z M 33.421875 7.082031 "/>
<path style=" stroke:none;fill-rule:nonzero;fill:rgb(49.779507%,48.867018%,49.092851%);fill-opacity:1;" d="M 33.5625 7.082031 L 33.5625 24.464844 L 33.703125 24.464844 L 33.703125 7.082031 L 33.5625 7.082031 Z M 33.5625 7.082031 "/>
<path style=" stroke:none;fill-rule:nonzero;fill:rgb(49.097429%,48.171206%,48.400092%);fill-opacity:1;" d="M 33.703125 7.082031 L 33.703125 24.464844 L 33.84375 24.464844 L 33.84375 7.082031 L 33.703125 7.082031 Z M 33.703125 7.082031 "/>
<path style=" stroke:none;fill-rule:nonzero;fill:rgb(48.412299%,47.473869%,47.707332%);fill-opacity:1;" d="M 33.84375 7.082031 L 33.84375 24.464844 L 33.988281 24.464844 L 33.988281 7.082031 L 33.84375 7.082031 Z M 33.84375 7.082031 "/>
<path style=" stroke:none;fill-rule:nonzero;fill:rgb(47.721065%,46.770428%,47.006943%);fill-opacity:1;" d="M 33.988281 7.082031 L 33.988281 24.464844 L 34.128906 24.464844 L 34.128906 7.082031 L 33.988281 7.082031 Z M 33.988281 7.082031 "/>
<path style=" stroke:none;fill-rule:nonzero;fill:rgb(47.029831%,46.066987%,46.305028%);fill-opacity:1;" d="M 34.128906 7.082031 L 34.128906 24.464844 L 34.269531 24.464844 L 34.269531 7.082031 L 34.128906 7.082031 Z M 34.128906 7.082031 "/>
<path style=" stroke:none;fill-rule:nonzero;fill:rgb(46.33402%,45.357443%,45.600061%);fill-opacity:1;" d="M 34.269531 7.082031 L 34.269531 24.464844 L 34.414062 24.464844 L 34.414062 7.082031 L 34.269531 7.082031 Z M 34.269531 7.082031 "/>
<path style=" stroke:none;fill-rule:nonzero;fill:rgb(45.636683%,44.646372%,44.892042%);fill-opacity:1;" d="M 34.414062 7.082031 L 34.414062 24.464844 L 34.554688 24.464844 L 34.554688 7.082031 L 34.414062 7.082031 Z M 34.414062 7.082031 "/>
<path style=" stroke:none;fill-rule:nonzero;fill:rgb(44.931716%,43.929198%,44.179446%);fill-opacity:1;" d="M 34.554688 7.082031 L 34.554688 24.464844 L 34.695312 24.464844 L 34.695312 7.082031 L 34.554688 7.082031 Z M 34.554688 7.082031 "/>
<path style=" stroke:none;fill-rule:nonzero;fill:rgb(44.228275%,43.212024%,43.465324%);fill-opacity:1;" d="M 34.695312 7.082031 L 34.695312 24.464844 L 34.835938 24.464844 L 34.835938 7.082031 L 34.695312 7.082031 Z M 34.695312 7.082031 "/>
<path style=" stroke:none;fill-rule:nonzero;fill:rgb(43.51873%,42.490272%,42.745098%);fill-opacity:1;" d="M 34.835938 7.082031 L 34.835938 24.464844 L 34.980469 24.464844 L 34.980469 7.082031 L 34.835938 7.082031 Z M 34.835938 7.082031 "/>
<path style=" stroke:none;fill-rule:nonzero;fill:rgb(42.80766%,41.766995%,42.024872%);fill-opacity:1;" d="M 34.980469 7.082031 L 34.980469 24.464844 L 35.121094 24.464844 L 35.121094 7.082031 L 34.980469 7.082031 Z M 34.980469 7.082031 "/>
<path style=" stroke:none;fill-rule:nonzero;fill:rgb(42.090486%,41.037613%,41.298543%);fill-opacity:1;" d="M 35.121094 7.082031 L 35.121094 24.464844 L 35.261719 24.464844 L 35.261719 7.082031 L 35.121094 7.082031 Z M 35.121094 7.082031 "/>
<path style=" stroke:none;fill-rule:nonzero;fill:rgb(41.373312%,40.306706%,40.572213%);fill-opacity:1;" d="M 35.261719 7.082031 L 35.261719 24.464844 L 35.402344 24.464844 L 35.402344 7.082031 L 35.261719 7.082031 Z M 35.261719 7.082031 "/>
<path style=" stroke:none;fill-rule:nonzero;fill:rgb(40.65156%,39.571221%,39.83978%);fill-opacity:1;" d="M 35.402344 7.082031 L 35.402344 24.464844 L 35.546875 24.464844 L 35.546875 7.082031 L 35.402344 7.082031 Z M 35.402344 7.082031 "/>
<path style=" stroke:none;fill-rule:nonzero;fill:rgb(39.926757%,38.834211%,39.105821%);fill-opacity:1;" d="M 35.546875 7.082031 L 35.546875 24.464844 L 35.6875 24.464844 L 35.6875 7.082031 L 35.546875 7.082031 Z M 35.546875 7.082031 "/>
<path style=" stroke:none;fill-rule:nonzero;fill:rgb(39.197375%,38.091096%,38.365759%);fill-opacity:1;" d="M 35.6875 7.082031 L 35.6875 24.464844 L 35.828125 24.464844 L 35.828125 7.082031 L 35.6875 7.082031 Z M 35.6875 7.082031 "/>
<path style=" stroke:none;fill-rule:nonzero;fill:rgb(38.466468%,37.347982%,37.625696%);fill-opacity:1;" d="M 35.828125 7.082031 L 35.828125 24.464844 L 35.972656 24.464844 L 35.972656 7.082031 L 35.828125 7.082031 Z M 35.828125 7.082031 "/>
<path style=" stroke:none;fill-rule:nonzero;fill:rgb(37.730983%,36.598764%,36.87953%);fill-opacity:1;" d="M 35.972656 7.082031 L 35.972656 24.464844 L 36.113281 24.464844 L 36.113281 7.082031 L 35.972656 7.082031 Z M 35.972656 7.082031 "/>
<path style=" stroke:none;fill-rule:nonzero;fill:rgb(36.995499%,35.849546%,36.133364%);fill-opacity:1;" d="M 36.113281 7.082031 L 36.113281 24.464844 L 36.253906 24.464844 L 36.253906 7.082031 L 36.113281 7.082031 Z M 36.113281 7.082031 "/>
<path style=" stroke:none;fill-rule:nonzero;fill:rgb(36.252384%,35.092699%,35.381094%);fill-opacity:1;" d="M 36.253906 7.082031 L 36.253906 24.464844 L 36.394531 24.464844 L 36.394531 7.082031 L 36.253906 7.082031 Z M 36.253906 7.082031 "/>
<path style=" stroke:none;fill-rule:nonzero;fill:rgb(35.510796%,34.337377%,34.628824%);fill-opacity:1;" d="M 36.394531 7.082031 L 36.394531 24.464844 L 36.539062 24.464844 L 36.539062 7.082031 L 36.394531 7.082031 Z M 36.394531 7.082031 "/>
<path style=" stroke:none;fill-rule:nonzero;fill:rgb(34.763104%,33.575952%,33.870451%);fill-opacity:1;" d="M 36.539062 7.082031 L 36.539062 24.464844 L 36.679688 24.464844 L 36.679688 7.082031 L 36.539062 7.082031 Z M 36.539062 7.082031 "/>
<path style=" stroke:none;fill-rule:nonzero;fill:rgb(34.013886%,32.813001%,33.110552%);fill-opacity:1;" d="M 36.679688 7.082031 L 36.679688 24.464844 L 36.820312 24.464844 L 36.820312 7.082031 L 36.679688 7.082031 Z M 36.679688 7.082031 "/>
<path style=" stroke:none;fill-rule:nonzero;fill:rgb(33.26009%,32.045472%,32.346075%);fill-opacity:1;" d="M 36.820312 7.082031 L 36.820312 24.464844 L 36.964844 24.464844 L 36.964844 7.082031 L 36.820312 7.082031 Z M 36.820312 7.082031 "/>
<path style=" stroke:none;fill-rule:nonzero;fill:rgb(32.503243%,31.274891%,31.580072%);fill-opacity:1;" d="M 36.964844 7.082031 L 36.964844 24.464844 L 37.105469 24.464844 L 37.105469 7.082031 L 36.964844 7.082031 Z M 36.964844 7.082031 "/>
<path style=" stroke:none;fill-rule:nonzero;fill:rgb(31.744869%,30.502785%,30.811017%);fill-opacity:1;" d="M 37.105469 7.082031 L 37.105469 24.464844 L 37.246094 24.464844 L 37.246094 7.082031 L 37.105469 7.082031 Z M 37.105469 7.082031 "/>
<path style=" stroke:none;fill-rule:nonzero;fill:rgb(30.98497%,29.729152%,30.040436%);fill-opacity:1;" d="M 37.246094 7.082031 L 37.246094 24.464844 L 37.386719 24.464844 L 37.386719 7.082031 L 37.246094 7.082031 Z M 37.246094 7.082031 "/>
</g>
<path style=" stroke:none;fill-rule:nonzero;fill:rgb(70.000763%,70.000763%,70.000763%);fill-opacity:1;" d="M 19.25 14.136719 C 29.269531 14.136719 37.386719 10.976562 37.386719 7.082031 C 37.386719 3.183594 29.269531 0.0273438 19.25 0.0273438 C 9.234375 0.0273438 1.113281 3.183594 1.113281 7.082031 C 1.113281 10.976562 9.234375 14.136719 19.25 14.136719 "/>
<path style=" stroke:none;fill-rule:nonzero;fill:rgb(100%,100%,100%);fill-opacity:1;" d="M 15.277344 4.257812 L 16.800781 6.535156 L 11.054688 7.863281 L 12.308594 6.816406 L 3.4375 5.300781 L 5.660156 3.632812 L 14.226562 5.082031 L 15.277344 4.257812 "/>
<g clip-path="url(#clip2)" clip-rule="nonzero">
<path style=" stroke:none;fill-rule:nonzero;fill:rgb(0%,0%,0%);fill-opacity:1;" d="M 11.054688 8.554688 L 12.308594 7.507812 L 12.308594 6.8125 L 11.203125 7.226562 L 10.308594 8.054688 L 11.054688 8.554688 "/>
<path style=" stroke:none;fill-rule:nonzero;fill:rgb(0%,0%,0%);fill-opacity:1;" d="M 17.28125 6.671875 L 15.832031 4.257812 L 15.070312 4.050781 L 14.175781 4.738281 L 5.679688 3.289062 L 2.984375 5.222656 L 3.4375 5.992188 L 5.660156 4.320312 L 14.226562 5.773438 L 15.277344 4.945312 L 16.800781 7.226562 L 17.28125 6.671875 "/>
</g>
<path style=" stroke:none;fill-rule:nonzero;fill:rgb(100%,100%,100%);fill-opacity:1;" d="M 23.359375 9.78125 L 22.324219 7.433594 L 27.503906 6.398438 L 26.605469 7.203125 L 35.238281 8.675781 L 33.167969 10.332031 L 24.585938 8.722656 L 23.359375 9.78125 "/>
<g clip-path="url(#clip3)" clip-rule="nonzero">
<path style=" stroke:none;fill-rule:nonzero;fill:rgb(0%,0%,0%);fill-opacity:1;" d="M 22.324219 8.261719 L 27.503906 7.226562 L 28.054688 6.328125 L 27.433594 5.914062 L 21.703125 7.226562 L 22.324219 8.261719 "/>
<path style=" stroke:none;fill-rule:nonzero;fill:rgb(0%,0%,0%);fill-opacity:1;" d="M 35.652344 8.398438 L 27.640625 6.878906 L 26.605469 7.296875 L 26.605469 8.03125 L 35.238281 9.503906 L 35.652344 8.398438 "/>
</g>
<path style=" stroke:none;fill-rule:nonzero;fill:rgb(100%,100%,100%);fill-opacity:1;" d="M 20.527344 3.011719 L 26.328125 1.425781 L 26.398438 3.910156 L 24.949219 3.636719 L 22.117188 5.980469 L 19.414062 5.589844 L 22.335938 3.289062 L 20.527344 3.011719 "/>
<g clip-path="url(#clip4)" clip-rule="nonzero">
<path style=" stroke:none;fill-rule:nonzero;fill:rgb(0%,0%,0%);fill-opacity:1;" d="M 20.804688 3.636719 L 26.535156 2.046875 L 26.949219 1.492188 L 26.46875 0.941406 L 19.839844 2.804688 L 20.804688 3.636719 "/>
<path style=" stroke:none;fill-rule:nonzero;fill:rgb(0%,0%,0%);fill-opacity:1;" d="M 22.324219 3.289062 L 22.324219 4.117188 L 19.285156 6.464844 L 19.007812 5.292969 L 21.21875 3.566406 L 22.324219 3.289062 "/>
</g>
<path style=" stroke:none;fill-rule:nonzero;fill:rgb(100%,100%,100%);fill-opacity:1;" d="M 18.042969 11.921875 L 12.519531 12.957031 L 12.308594 10.402344 L 13.898438 10.746094 L 16.941406 8.148438 L 19.632812 8.605469 L 16.386719 11.4375 L 18.042969 11.921875 "/>
<g clip-path="url(#clip5)" clip-rule="nonzero">
<path style=" stroke:none;fill-rule:nonzero;fill:rgb(0%,0%,0%);fill-opacity:1;" d="M 11.757812 9.78125 L 11.757812 11.160156 L 13.898438 11.574219 L 16.941406 8.980469 L 19.632812 9.433594 L 20.390625 8.398438 L 16.800781 7.710938 L 13.761719 10.265625 L 11.757812 9.78125 "/>
<path style=" stroke:none;fill-rule:nonzero;fill:rgb(0%,0%,0%);fill-opacity:1;" d="M 18.179688 11.230469 L 16.386719 11.4375 L 16.386719 12.265625 L 18.042969 12.75 L 19.007812 11.921875 L 18.179688 11.230469 "/>
</g>
<path style=" stroke:none;fill-rule:nonzero;fill:rgb(0%,0%,0%);fill-opacity:1;" d="M 18.464844 19.582031 L 23.820312 19.582031 L 23.820312 20.488281 L 25.84375 19.148438 L 23.820312 17.808594 L 23.820312 18.71875 L 18.464844 18.71875 L 18.464844 19.582031 "/>
<path style=" stroke:none;fill-rule:nonzero;fill:rgb(0%,0%,0%);fill-opacity:1;" d="M 18.339844 18.09375 L 23.375 16.261719 L 23.683594 17.113281 L 25.128906 15.164062 L 22.769531 14.59375 L 23.078125 15.449219 L 18.046875 17.28125 L 18.339844 18.09375 "/>
<path style=" stroke:none;fill-rule:nonzero;fill:rgb(0%,0%,0%);fill-opacity:1;" d="M 18.339844 20.171875 L 23.375 22.003906 L 23.683594 21.148438 L 25.128906 23.101562 L 22.769531 23.671875 L 23.078125 22.816406 L 18.046875 20.984375 L 18.339844 20.171875 "/>
<path style=" stroke:none;fill-rule:nonzero;fill:rgb(0%,0%,0%);fill-opacity:1;" d="M 10.15625 19.582031 L 15.320312 19.582031 L 15.320312 20.488281 L 17.34375 19.148438 L 15.320312 17.808594 L 15.320312 18.71875 L 10.15625 18.71875 L 10.15625 19.582031 "/>
</g>
</svg>
