<?xml version="1.0" encoding="UTF-8"?>
<svg xmlns="http://www.w3.org/2000/svg" xmlns:xlink="http://www.w3.org/1999/xlink" width="43" height="51" viewBox="0 0 43 51" version="1.1">
<g id="surface0">
<path style=" stroke:none;fill-rule:nonzero;fill:rgb(90.000763%,90.000763%,90.000763%);fill-opacity:1;" d="M 21.40625 35.984375 C 32.878906 35.984375 42.179688 33.378906 42.179688 30.164062 C 42.179688 26.949219 32.878906 24.34375 21.40625 24.34375 C 9.929688 24.34375 0.628906 26.949219 0.628906 30.164062 C 0.628906 33.378906 9.929688 35.984375 21.40625 35.984375 "/>
<path style=" stroke:none;fill-rule:nonzero;fill:rgb(85.000381%,85.000381%,85.000381%);fill-opacity:1;" d="M 6.792969 27.65625 L 0.671875 30.230469 C 0.605469 31.976562 3.605469 33.15625 3.605469 33.15625 L 8.917969 29.765625 C 7.457031 28.902344 6.792969 27.65625 6.792969 27.65625 "/>
<path style=" stroke:none;fill-rule:nonzero;fill:rgb(70.000763%,70.000763%,70.000763%);fill-opacity:1;" d="M 8.917969 29.765625 L 3.582031 33.15625 C 6.253906 34.492188 10.246094 35.066406 10.246094 35.066406 L 13.390625 31.078125 C 10.988281 30.695312 8.917969 29.765625 8.917969 29.765625 "/>
<path style=" stroke:none;fill-rule:nonzero;fill:rgb(60%,60%,60%);fill-opacity:1;" d="M 13.367188 31.117188 C 16.425781 31.847656 21.316406 31.746094 21.316406 31.746094 L 21.925781 36.035156 C 16.457031 36.144531 10.222656 35.105469 10.222656 35.105469 L 13.367188 31.117188 "/>
<path style=" stroke:none;fill-rule:nonzero;fill:rgb(40%,40%,40%);fill-opacity:1;" d="M 28.566406 31.09375 C 29.921875 31.09375 33.515625 29.632812 33.515625 29.632812 L 38.996094 33.289062 C 35.835938 34.585938 32.414062 35.105469 32.414062 35.105469 L 28.566406 31.09375 "/>
<path style=" stroke:none;fill-rule:nonzero;fill:rgb(29.999237%,29.999237%,29.999237%);fill-opacity:1;" d="M 33.542969 29.621094 C 34.484375 29.308594 35.617188 27.90625 35.617188 27.90625 L 42.160156 29.804688 C 42.324219 32.121094 38.996094 33.289062 38.996094 33.289062 L 33.542969 29.621094 "/>
<path style=" stroke:none;fill-rule:nonzero;fill:rgb(45.000381%,45.000381%,45.000381%);fill-opacity:1;" d="M 42.199219 29.839844 L 42.199219 40.59375 C 41.714844 42.9375 38.933594 44.167969 38.933594 44.167969 L 38.933594 33.328125 C 42.628906 31.808594 42.199219 29.839844 42.199219 29.839844 "/>
<path style=" stroke:none;fill-rule:nonzero;fill:rgb(45.000381%,45.000381%,45.000381%);fill-opacity:1;" d="M 38.933594 33.328125 L 38.933594 44.183594 C 36.660156 45.371094 32.546875 45.964844 32.546875 45.964844 L 32.546875 35.105469 C 35.777344 34.476562 38.933594 33.328125 38.933594 33.328125 "/>
<path style=" stroke:none;fill-rule:nonzero;fill:rgb(50.000763%,50.000763%,50.000763%);fill-opacity:1;" d="M 21.925781 36.019531 L 21.925781 46.757812 C 15.242188 47 10.246094 45.964844 10.246094 45.964844 L 10.246094 35.066406 C 16.714844 36.199219 21.925781 36.019531 21.925781 36.019531 "/>
<path style=" stroke:none;fill-rule:nonzero;fill:rgb(50.000763%,50.000763%,50.000763%);fill-opacity:1;" d="M 10.246094 35.066406 L 10.246094 45.964844 C 4.871094 44.898438 3.605469 43.839844 3.605469 43.839844 L 3.605469 33.171875 C 6.515625 34.554688 10.246094 35.066406 10.246094 35.066406 "/>
<path style=" stroke:none;fill-rule:nonzero;fill:rgb(50.000763%,50.000763%,50.000763%);fill-opacity:1;" d="M 3.605469 33.171875 L 3.605469 43.839844 C 1.164062 42.421875 0.671875 40.917969 0.671875 40.917969 L 0.671875 30.230469 C 0.589844 31.863281 3.605469 33.171875 3.605469 33.171875 "/>
<path style=" stroke:none;fill-rule:nonzero;fill:rgb(9.999237%,9.999237%,9.999237%);fill-opacity:1;" d="M 42.160156 29.804688 L 35.601562 27.90625 L 35.601562 25.984375 C 41.710938 27.253906 42.160156 29.804688 42.160156 29.804688 "/>
<path style=" stroke:none;fill-rule:nonzero;fill:rgb(50.000763%,50.000763%,50.000763%);fill-opacity:1;" d="M 21.265625 8.859375 L 21.265625 31.757812 C 16.417969 31.878906 13.390625 31.078125 13.390625 31.078125 L 13.429688 8.261719 C 17.539062 9.039062 21.265625 8.859375 21.265625 8.859375 "/>
<path style=" stroke:none;fill-rule:nonzero;fill:rgb(60%,60%,60%);fill-opacity:1;" d="M 8.917969 7 C 8.917969 7 8.054688 6.535156 8.917969 7 C 9.78125 7.464844 13.429688 8.261719 13.429688 8.261719 L 13.429688 31.117188 C 10.511719 30.574219 8.917969 29.699219 8.917969 29.699219 L 8.917969 7 "/>
<path style=" stroke:none;fill-rule:nonzero;fill:rgb(75.001144%,75.001144%,75.001144%);fill-opacity:1;" d="M 6.792969 4.941406 C 6.808594 6.128906 8.917969 6.933594 8.917969 6.933594 L 8.917969 29.765625 C 7.769531 29.140625 6.792969 27.644531 6.792969 27.644531 L 6.792969 4.941406 "/>
<path style=" stroke:none;fill-rule:nonzero;fill:rgb(70.000763%,70.000763%,70.000763%);fill-opacity:1;" d="M 21.164062 8.90625 C 29.148438 8.90625 35.621094 7.058594 35.621094 4.777344 C 35.621094 2.496094 29.148438 0.644531 21.164062 0.644531 C 13.179688 0.644531 6.707031 2.496094 6.707031 4.777344 C 6.707031 7.058594 13.179688 8.90625 21.164062 8.90625 "/>
<path style=" stroke:none;fill-rule:nonzero;fill:rgb(9.999237%,9.999237%,9.999237%);fill-opacity:1;" d="M 20.996094 6.003906 L 21.265625 8.792969 L 21.265625 31.625 L 21.925781 36.035156 L 21.953125 41.957031 L 23.519531 41.957031 L 23.519531 5.804688 L 20.996094 6.003906 "/>
<path style=" stroke:none;fill-rule:nonzero;fill:rgb(20%,20%,20%);fill-opacity:1;" d="M 23.519531 5.738281 L 23.519531 41.980469 L 32.492188 45.84375 L 32.492188 35.121094 L 28.566406 31.09375 L 28.566406 8.285156 L 23.519531 5.738281 "/>
<path style=" stroke:none;fill-rule:nonzero;fill:rgb(20%,20%,20%);fill-opacity:1;" d="M 33.476562 6.933594 L 33.476562 29.632812 C 34.585938 29.273438 35.601562 27.933594 35.601562 27.933594 L 35.601562 4.808594 C 35.582031 6.144531 33.476562 6.933594 33.476562 6.933594 "/>
<path style=" stroke:none;fill-rule:nonzero;fill:rgb(29.999237%,29.999237%,29.999237%);fill-opacity:1;" d="M 28.566406 8.285156 L 28.566406 31.09375 C 30.554688 30.960938 33.476562 29.671875 33.476562 29.671875 L 33.476562 6.917969 C 32.148438 7.730469 28.566406 8.285156 28.566406 8.285156 "/>
<path style=" stroke:none;fill-rule:nonzero;fill:rgb(70.000763%,70.000763%,70.000763%);fill-opacity:1;" d="M 24.957031 12.359375 L 24.320312 9.15625 L 26.855469 8.796875 L 32.148438 11.445312 C 29.363281 12.109375 24.957031 12.359375 24.957031 12.359375 "/>
<path style=" stroke:none;fill-rule:nonzero;fill:rgb(65.000381%,65.000381%,65.000381%);fill-opacity:1;" d="M 25.019531 12.320312 C 28.195312 12.367188 32.148438 11.445312 32.148438 11.445312 L 32.148438 34.148438 C 29.421875 35.117188 24.980469 35.078125 24.980469 35.078125 L 25.019531 12.320312 "/>
<path style=" stroke:none;fill-rule:nonzero;fill:rgb(80%,80%,80%);fill-opacity:1;" d="M 32.148438 34.203125 L 36 38.261719 C 31.390625 39.765625 25.644531 39.722656 25.644531 39.722656 L 25.003906 35.078125 C 28.480469 35.210938 32.148438 34.203125 32.148438 34.203125 "/>
<path style=" stroke:none;fill-rule:nonzero;fill:rgb(50.000763%,50.000763%,50.000763%);fill-opacity:1;" d="M 35.976562 38.261719 L 35.976562 48.75 C 32.679688 49.945312 25.632812 50.101562 25.632812 50.101562 L 25.644531 39.75 C 32.675781 39.566406 35.976562 38.261719 35.976562 38.261719 "/>
<path style=" stroke:none;fill-rule:nonzero;fill:rgb(85.000381%,85.000381%,85.000381%);fill-opacity:1;" d="M 25.007812 12.386719 L 24.320312 9.171875 L 24.320312 45.148438 L 25.632812 50.140625 L 25.644531 39.789062 L 25.019531 35.210938 L 25.007812 12.386719 "/>
</g>
</svg>
