<?xml version="1.0" encoding="UTF-8"?>
<svg xmlns="http://www.w3.org/2000/svg" xmlns:xlink="http://www.w3.org/1999/xlink" width="37" height="33" viewBox="0 0 37 33" version="1.1">
<defs>
<clipPath id="clip1">
  <path d="M 36.773438 7.914062 C 36.773438 11.808594 28.652344 14.96875 18.636719 14.96875 C 8.617188 14.96875 0.5 11.808594 0.5 7.914062 L 0.5 25.246094 C 0.5 29.140625 8.617188 32.300781 18.636719 32.300781 C 28.652344 32.300781 36.773438 29.140625 36.773438 25.246094 L 36.773438 7.914062 "/>
</clipPath>
<clipPath id="clip2">
  <path d="M 14.664062 5.089844 L 16.183594 7.367188 L 10.441406 8.695312 L 11.695312 7.648438 L 2.820312 6.132812 L 5.046875 4.464844 L 13.613281 5.914062 L 14.664062 5.089844 "/>
</clipPath>
<clipPath id="clip3">
  <path d="M 22.746094 10.613281 L 21.710938 8.265625 L 26.890625 7.230469 L 25.992188 8.035156 L 34.625 9.507812 L 32.554688 11.164062 L 23.972656 9.554688 L 22.746094 10.613281 "/>
</clipPath>
<clipPath id="clip4">
  <path d="M 19.914062 3.847656 L 25.714844 2.257812 L 25.785156 4.742188 L 24.335938 4.46875 L 21.503906 6.816406 L 18.800781 6.421875 L 21.722656 4.125 L 19.914062 3.847656 "/>
</clipPath>
<clipPath id="clip5">
  <path d="M 17.429688 12.753906 L 11.902344 13.789062 L 11.695312 11.234375 L 13.285156 11.582031 L 16.324219 8.984375 L 19.015625 9.441406 L 15.769531 12.273438 L 17.429688 12.753906 "/>
</clipPath>
</defs>
<g id="surface0">
<path style="fill-rule:nonzero;fill:rgb(13.730068%,12.159915%,12.54902%);fill-opacity:1;stroke-width:0.42;stroke-linecap:butt;stroke-linejoin:miter;stroke:rgb(100%,100%,100%);stroke-opacity:1;stroke-miterlimit:4;" d="M 36.773438 25.085938 C 36.773438 21.191406 28.652344 18.03125 18.636719 18.03125 C 8.617188 18.03125 0.5 21.191406 0.5 25.085938 L 0.5 7.753906 C 0.5 3.859375 8.617188 0.699219 18.636719 0.699219 C 28.652344 0.699219 36.773438 3.859375 36.773438 7.753906 L 36.773438 25.085938 Z M 36.773438 25.085938 " transform="matrix(1,0,0,-1,0,33)"/>
<g clip-path="url(#clip1)" clip-rule="nonzero">
<path style=" stroke:none;fill-rule:nonzero;fill:rgb(51.305409%,50.41886%,50.63859%);fill-opacity:1;" d="M 0.5 7.914062 L 0.5 32.300781 L 0.640625 32.300781 L 0.640625 7.914062 L 0.5 7.914062 Z M 0.5 7.914062 "/>
<path style=" stroke:none;fill-rule:nonzero;fill:rgb(54.348058%,53.517967%,53.723964%);fill-opacity:1;" d="M 0.640625 7.914062 L 0.640625 32.300781 L 0.78125 32.300781 L 0.78125 7.914062 L 0.640625 7.914062 Z M 0.640625 7.914062 "/>
<path style=" stroke:none;fill-rule:nonzero;fill:rgb(57.267109%,56.488899%,56.682689%);fill-opacity:1;" d="M 0.78125 7.914062 L 0.78125 32.300781 L 0.925781 32.300781 L 0.925781 7.914062 L 0.78125 7.914062 Z M 0.78125 7.914062 "/>
<path style=" stroke:none;fill-rule:nonzero;fill:rgb(60.184634%,59.459831%,59.639887%);fill-opacity:1;" d="M 0.925781 7.914062 L 0.925781 32.300781 L 1.066406 32.300781 L 1.066406 7.914062 L 0.925781 7.914062 Z M 0.925781 7.914062 "/>
<path style=" stroke:none;fill-rule:nonzero;fill:rgb(62.972457%,62.298009%,62.465858%);fill-opacity:1;" d="M 1.066406 7.914062 L 1.066406 32.300781 L 1.207031 32.300781 L 1.207031 7.914062 L 1.066406 7.914062 Z M 1.066406 7.914062 "/>
<path style=" stroke:none;fill-rule:nonzero;fill:rgb(65.758755%,65.136187%,65.290303%);fill-opacity:1;" d="M 1.207031 7.914062 L 1.207031 32.300781 L 1.347656 32.300781 L 1.347656 7.914062 L 1.207031 7.914062 Z M 1.207031 7.914062 "/>
<path style=" stroke:none;fill-rule:nonzero;fill:rgb(68.406195%,67.83093%,67.974365%);fill-opacity:1;" d="M 1.347656 7.914062 L 1.347656 32.300781 L 1.492188 32.300781 L 1.492188 7.914062 L 1.347656 7.914062 Z M 1.347656 7.914062 "/>
<path style=" stroke:none;fill-rule:nonzero;fill:rgb(71.053635%,70.525673%,70.656901%);fill-opacity:1;" d="M 1.492188 7.914062 L 1.492188 32.300781 L 1.632812 32.300781 L 1.632812 7.914062 L 1.492188 7.914062 Z M 1.492188 7.914062 "/>
<path style=" stroke:none;fill-rule:nonzero;fill:rgb(73.553063%,73.072404%,73.191424%);fill-opacity:1;" d="M 1.632812 7.914062 L 1.632812 32.300781 L 1.773438 32.300781 L 1.773438 7.914062 L 1.632812 7.914062 Z M 1.632812 7.914062 "/>
<path style=" stroke:none;fill-rule:nonzero;fill:rgb(76.052491%,75.617609%,75.725948%);fill-opacity:1;" d="M 1.773438 7.914062 L 1.773438 32.300781 L 1.914062 32.300781 L 1.914062 7.914062 L 1.773438 7.914062 Z M 1.773438 7.914062 "/>
<path style=" stroke:none;fill-rule:nonzero;fill:rgb(78.394751%,78.001068%,78.098726%);fill-opacity:1;" d="M 1.914062 7.914062 L 1.914062 32.300781 L 2.058594 32.300781 L 2.058594 7.914062 L 1.914062 7.914062 Z M 1.914062 7.914062 "/>
<path style=" stroke:none;fill-rule:nonzero;fill:rgb(80.737011%,80.386053%,80.47303%);fill-opacity:1;" d="M 2.058594 7.914062 L 2.058594 32.300781 L 2.199219 32.300781 L 2.199219 7.914062 L 2.058594 7.914062 Z M 2.058594 7.914062 "/>
<path style=" stroke:none;fill-rule:nonzero;fill:rgb(82.906844%,82.59556%,82.673381%);fill-opacity:1;" d="M 2.199219 7.914062 L 2.199219 32.300781 L 2.339844 32.300781 L 2.339844 7.914062 L 2.199219 7.914062 Z M 2.199219 7.914062 "/>
<path style=" stroke:none;fill-rule:nonzero;fill:rgb(85.078202%,84.806592%,84.873732%);fill-opacity:1;" d="M 2.339844 7.914062 L 2.339844 32.300781 L 2.484375 32.300781 L 2.484375 7.914062 L 2.339844 7.914062 Z M 2.339844 7.914062 "/>
<path style=" stroke:none;fill-rule:nonzero;fill:rgb(87.061875%,86.826886%,86.884871%);fill-opacity:1;" d="M 2.484375 7.914062 L 2.484375 32.300781 L 2.625 32.300781 L 2.625 7.914062 L 2.484375 7.914062 Z M 2.484375 7.914062 "/>
<path style=" stroke:none;fill-rule:nonzero;fill:rgb(89.045548%,88.845655%,88.89601%);fill-opacity:1;" d="M 2.625 7.914062 L 2.625 32.300781 L 2.765625 32.300781 L 2.765625 7.914062 L 2.625 7.914062 Z M 2.625 7.914062 "/>
<path style=" stroke:none;fill-rule:nonzero;fill:rgb(90.820172%,90.653849%,90.695048%);fill-opacity:1;" d="M 2.765625 7.914062 L 2.765625 32.300781 L 2.90625 32.300781 L 2.90625 7.914062 L 2.765625 7.914062 Z M 2.765625 7.914062 "/>
<path style=" stroke:none;fill-rule:nonzero;fill:rgb(92.594797%,92.460517%,92.494087%);fill-opacity:1;" d="M 2.90625 7.914062 L 2.90625 32.300781 L 3.050781 32.300781 L 3.050781 7.914062 L 2.90625 7.914062 Z M 2.90625 7.914062 "/>
<path style=" stroke:none;fill-rule:nonzero;fill:rgb(94.128328%,94.021515%,94.047456%);fill-opacity:1;" d="M 3.050781 7.914062 L 3.050781 32.300781 L 3.191406 32.300781 L 3.191406 7.914062 L 3.050781 7.914062 Z M 3.050781 7.914062 "/>
<path style=" stroke:none;fill-rule:nonzero;fill:rgb(95.660334%,95.580987%,95.600824%);fill-opacity:1;" d="M 3.191406 7.914062 L 3.191406 32.300781 L 3.332031 32.300781 L 3.332031 7.914062 L 3.191406 7.914062 Z M 3.191406 7.914062 "/>
<path style=" stroke:none;fill-rule:nonzero;fill:rgb(96.900893%,96.844434%,96.858167%);fill-opacity:1;" d="M 3.332031 7.914062 L 3.332031 32.300781 L 3.472656 32.300781 L 3.472656 7.914062 L 3.332031 7.914062 Z M 3.332031 7.914062 "/>
<path style=" stroke:none;fill-rule:nonzero;fill:rgb(98.139925%,98.104829%,98.113985%);fill-opacity:1;" d="M 3.472656 7.914062 L 3.472656 32.300781 L 3.617188 32.300781 L 3.617188 7.914062 L 3.472656 7.914062 Z M 3.472656 7.914062 "/>
<path style=" stroke:none;fill-rule:nonzero;fill:rgb(98.966964%,98.948653%,98.953231%);fill-opacity:1;" d="M 3.617188 7.914062 L 3.617188 32.300781 L 3.757812 32.300781 L 3.757812 7.914062 L 3.617188 7.914062 Z M 3.617188 7.914062 "/>
<path style=" stroke:none;fill-rule:nonzero;fill:rgb(99.795529%,99.790951%,99.792477%);fill-opacity:1;" d="M 3.757812 7.914062 L 3.757812 32.300781 L 3.898438 32.300781 L 3.898438 7.914062 L 3.757812 7.914062 Z M 3.757812 7.914062 "/>
<path style=" stroke:none;fill-rule:nonzero;fill:rgb(99.517815%,99.508659%,99.511711%);fill-opacity:1;" d="M 3.898438 7.914062 L 3.898438 32.300781 L 4.042969 32.300781 L 4.042969 7.914062 L 3.898438 7.914062 Z M 3.898438 7.914062 "/>
<path style=" stroke:none;fill-rule:nonzero;fill:rgb(99.238575%,99.224842%,99.227893%);fill-opacity:1;" d="M 4.042969 7.914062 L 4.042969 32.300781 L 4.183594 32.300781 L 4.183594 7.914062 L 4.042969 7.914062 Z M 4.042969 7.914062 "/>
<path style=" stroke:none;fill-rule:nonzero;fill:rgb(98.706035%,98.681621%,98.687724%);fill-opacity:1;" d="M 4.183594 7.914062 L 4.183594 32.300781 L 4.324219 32.300781 L 4.324219 7.914062 L 4.183594 7.914062 Z M 4.183594 7.914062 "/>
<path style=" stroke:none;fill-rule:nonzero;fill:rgb(98.170443%,98.138399%,98.146029%);fill-opacity:1;" d="M 4.324219 7.914062 L 4.324219 32.300781 L 4.464844 32.300781 L 4.464844 7.914062 L 4.324219 7.914062 Z M 4.324219 7.914062 "/>
<path style=" stroke:none;fill-rule:nonzero;fill:rgb(97.640955%,97.59823%,97.608911%);fill-opacity:1;" d="M 4.464844 7.914062 L 4.464844 32.300781 L 4.609375 32.300781 L 4.609375 7.914062 L 4.464844 7.914062 Z M 4.464844 7.914062 "/>
<path style=" stroke:none;fill-rule:nonzero;fill:rgb(97.109941%,97.058061%,97.070268%);fill-opacity:1;" d="M 4.609375 7.914062 L 4.609375 32.300781 L 4.75 32.300781 L 4.75 7.914062 L 4.609375 7.914062 Z M 4.609375 7.914062 "/>
<path style=" stroke:none;fill-rule:nonzero;fill:rgb(96.583505%,96.520943%,96.536202%);fill-opacity:1;" d="M 4.75 7.914062 L 4.75 32.300781 L 4.890625 32.300781 L 4.890625 7.914062 L 4.75 7.914062 Z M 4.75 7.914062 "/>
<path style=" stroke:none;fill-rule:nonzero;fill:rgb(96.057069%,95.985351%,96.002136%);fill-opacity:1;" d="M 4.890625 7.914062 L 4.890625 32.300781 L 5.035156 32.300781 L 5.035156 7.914062 L 4.890625 7.914062 Z M 4.890625 7.914062 "/>
<path style=" stroke:none;fill-rule:nonzero;fill:rgb(95.533684%,95.452811%,95.472648%);fill-opacity:1;" d="M 5.035156 7.914062 L 5.035156 32.300781 L 5.175781 32.300781 L 5.175781 7.914062 L 5.035156 7.914062 Z M 5.035156 7.914062 "/>
<path style=" stroke:none;fill-rule:nonzero;fill:rgb(95.011826%,94.920272%,94.94316%);fill-opacity:1;" d="M 5.175781 7.914062 L 5.175781 32.300781 L 5.316406 32.300781 L 5.316406 7.914062 L 5.175781 7.914062 Z M 5.175781 7.914062 "/>
<path style=" stroke:none;fill-rule:nonzero;fill:rgb(94.493019%,94.392309%,94.41825%);fill-opacity:1;" d="M 5.316406 7.914062 L 5.316406 32.300781 L 5.457031 32.300781 L 5.457031 7.914062 L 5.316406 7.914062 Z M 5.316406 7.914062 "/>
<path style=" stroke:none;fill-rule:nonzero;fill:rgb(93.972686%,93.862821%,93.890288%);fill-opacity:1;" d="M 5.457031 7.914062 L 5.457031 32.300781 L 5.601562 32.300781 L 5.601562 7.914062 L 5.457031 7.914062 Z M 5.457031 7.914062 "/>
<path style=" stroke:none;fill-rule:nonzero;fill:rgb(93.458457%,93.339437%,93.368429%);fill-opacity:1;" d="M 5.601562 7.914062 L 5.601562 32.300781 L 5.742188 32.300781 L 5.742188 7.914062 L 5.601562 7.914062 Z M 5.601562 7.914062 "/>
<path style=" stroke:none;fill-rule:nonzero;fill:rgb(92.944228%,92.814527%,92.846571%);fill-opacity:1;" d="M 5.742188 7.914062 L 5.742188 32.300781 L 5.882812 32.300781 L 5.882812 7.914062 L 5.742188 7.914062 Z M 5.742188 7.914062 "/>
<path style=" stroke:none;fill-rule:nonzero;fill:rgb(92.433051%,92.29572%,92.32929%);fill-opacity:1;" d="M 5.882812 7.914062 L 5.882812 32.300781 L 6.023438 32.300781 L 6.023438 7.914062 L 5.882812 7.914062 Z M 5.882812 7.914062 "/>
<path style=" stroke:none;fill-rule:nonzero;fill:rgb(91.920348%,91.773861%,91.810483%);fill-opacity:1;" d="M 6.023438 7.914062 L 6.023438 32.300781 L 6.167969 32.300781 L 6.167969 7.914062 L 6.023438 7.914062 Z M 6.023438 7.914062 "/>
<path style=" stroke:none;fill-rule:nonzero;fill:rgb(91.412222%,91.25658%,91.294728%);fill-opacity:1;" d="M 6.167969 7.914062 L 6.167969 32.300781 L 6.308594 32.300781 L 6.308594 7.914062 L 6.167969 7.914062 Z M 6.167969 7.914062 "/>
<path style=" stroke:none;fill-rule:nonzero;fill:rgb(90.904097%,90.7393%,90.780499%);fill-opacity:1;" d="M 6.308594 7.914062 L 6.308594 32.300781 L 6.449219 32.300781 L 6.449219 7.914062 L 6.308594 7.914062 Z M 6.308594 7.914062 "/>
<path style=" stroke:none;fill-rule:nonzero;fill:rgb(90.402075%,90.226596%,90.270848%);fill-opacity:1;" d="M 6.449219 7.914062 L 6.449219 32.300781 L 6.59375 32.300781 L 6.59375 7.914062 L 6.449219 7.914062 Z M 6.449219 7.914062 "/>
<path style=" stroke:none;fill-rule:nonzero;fill:rgb(89.897002%,89.713893%,89.75967%);fill-opacity:1;" d="M 6.59375 7.914062 L 6.59375 32.300781 L 6.734375 32.300781 L 6.734375 7.914062 L 6.59375 7.914062 Z M 6.59375 7.914062 "/>
<path style=" stroke:none;fill-rule:nonzero;fill:rgb(89.396506%,89.204242%,89.251545%);fill-opacity:1;" d="M 6.734375 7.914062 L 6.734375 32.300781 L 6.875 32.300781 L 6.875 7.914062 L 6.734375 7.914062 Z M 6.734375 7.914062 "/>
<path style=" stroke:none;fill-rule:nonzero;fill:rgb(88.897536%,88.694591%,88.744945%);fill-opacity:1;" d="M 6.875 7.914062 L 6.875 32.300781 L 7.015625 32.300781 L 7.015625 7.914062 L 6.875 7.914062 Z M 6.875 7.914062 "/>
<path style=" stroke:none;fill-rule:nonzero;fill:rgb(88.401617%,88.191043%,88.242924%);fill-opacity:1;" d="M 7.015625 7.914062 L 7.015625 32.300781 L 7.160156 32.300781 L 7.160156 7.914062 L 7.015625 7.914062 Z M 7.015625 7.914062 "/>
<path style=" stroke:none;fill-rule:nonzero;fill:rgb(87.905699%,87.685969%,87.740902%);fill-opacity:1;" d="M 7.160156 7.914062 L 7.160156 32.300781 L 7.300781 32.300781 L 7.300781 7.914062 L 7.160156 7.914062 Z M 7.160156 7.914062 "/>
<path style=" stroke:none;fill-rule:nonzero;fill:rgb(87.412833%,87.183948%,87.241932%);fill-opacity:1;" d="M 7.300781 7.914062 L 7.300781 32.300781 L 7.441406 32.300781 L 7.441406 7.914062 L 7.300781 7.914062 Z M 7.300781 7.914062 "/>
<path style=" stroke:none;fill-rule:nonzero;fill:rgb(86.921492%,86.683452%,86.741436%);fill-opacity:1;" d="M 7.441406 7.914062 L 7.441406 32.300781 L 7.582031 32.300781 L 7.582031 7.914062 L 7.441406 7.914062 Z M 7.441406 7.914062 "/>
<path style=" stroke:none;fill-rule:nonzero;fill:rgb(86.433204%,86.186007%,86.247044%);fill-opacity:1;" d="M 7.582031 7.914062 L 7.582031 32.300781 L 7.726562 32.300781 L 7.726562 7.914062 L 7.582031 7.914062 Z M 7.582031 7.914062 "/>
<path style=" stroke:none;fill-rule:nonzero;fill:rgb(85.943389%,85.687037%,85.751125%);fill-opacity:1;" d="M 7.726562 7.914062 L 7.726562 32.300781 L 7.867188 32.300781 L 7.867188 7.914062 L 7.726562 7.914062 Z M 7.726562 7.914062 "/>
<path style=" stroke:none;fill-rule:nonzero;fill:rgb(85.458152%,85.194171%,85.259785%);fill-opacity:1;" d="M 7.867188 7.914062 L 7.867188 32.300781 L 8.007812 32.300781 L 8.007812 7.914062 L 7.867188 7.914062 Z M 7.867188 7.914062 "/>
<path style=" stroke:none;fill-rule:nonzero;fill:rgb(84.974441%,84.701305%,84.768444%);fill-opacity:1;" d="M 8.007812 7.914062 L 8.007812 32.300781 L 8.152344 32.300781 L 8.152344 7.914062 L 8.007812 7.914062 Z M 8.007812 7.914062 "/>
<path style=" stroke:none;fill-rule:nonzero;fill:rgb(84.493782%,84.21149%,84.281682%);fill-opacity:1;" d="M 8.152344 7.914062 L 8.152344 32.300781 L 8.292969 32.300781 L 8.292969 7.914062 L 8.152344 7.914062 Z M 8.152344 7.914062 "/>
<path style=" stroke:none;fill-rule:nonzero;fill:rgb(84.013123%,83.721675%,83.794919%);fill-opacity:1;" d="M 8.292969 7.914062 L 8.292969 32.300781 L 8.433594 32.300781 L 8.433594 7.914062 L 8.292969 7.914062 Z M 8.292969 7.914062 "/>
<path style=" stroke:none;fill-rule:nonzero;fill:rgb(83.537041%,83.236439%,83.311208%);fill-opacity:1;" d="M 8.433594 7.914062 L 8.433594 32.300781 L 8.574219 32.300781 L 8.574219 7.914062 L 8.433594 7.914062 Z M 8.433594 7.914062 "/>
<path style=" stroke:none;fill-rule:nonzero;fill:rgb(83.059434%,82.749676%,82.827497%);fill-opacity:1;" d="M 8.574219 7.914062 L 8.574219 32.300781 L 8.71875 32.300781 L 8.71875 7.914062 L 8.574219 7.914062 Z M 8.574219 7.914062 "/>
<path style=" stroke:none;fill-rule:nonzero;fill:rgb(82.586404%,82.269017%,82.348363%);fill-opacity:1;" d="M 8.71875 7.914062 L 8.71875 32.300781 L 8.859375 32.300781 L 8.859375 7.914062 L 8.71875 7.914062 Z M 8.71875 7.914062 "/>
<path style=" stroke:none;fill-rule:nonzero;fill:rgb(82.111849%,81.786831%,81.867704%);fill-opacity:1;" d="M 8.859375 7.914062 L 8.859375 32.300781 L 9 32.300781 L 9 7.914062 L 8.859375 7.914062 Z M 8.859375 7.914062 "/>
<path style=" stroke:none;fill-rule:nonzero;fill:rgb(81.643397%,81.309224%,81.393149%);fill-opacity:1;" d="M 9 7.914062 L 9 32.300781 L 9.140625 32.300781 L 9.140625 7.914062 L 9 7.914062 Z M 9 7.914062 "/>
<path style=" stroke:none;fill-rule:nonzero;fill:rgb(81.174945%,80.833143%,80.917067%);fill-opacity:1;" d="M 9.140625 7.914062 L 9.140625 32.300781 L 9.285156 32.300781 L 9.285156 7.914062 L 9.140625 7.914062 Z M 9.140625 7.914062 "/>
<path style=" stroke:none;fill-rule:nonzero;fill:rgb(80.709545%,80.358587%,80.447089%);fill-opacity:1;" d="M 9.285156 7.914062 L 9.285156 32.300781 L 9.425781 32.300781 L 9.425781 7.914062 L 9.285156 7.914062 Z M 9.285156 7.914062 "/>
<path style=" stroke:none;fill-rule:nonzero;fill:rgb(80.244144%,79.884031%,79.97406%);fill-opacity:1;" d="M 9.425781 7.914062 L 9.425781 32.300781 L 9.566406 32.300781 L 9.566406 7.914062 L 9.425781 7.914062 Z M 9.425781 7.914062 "/>
<path style=" stroke:none;fill-rule:nonzero;fill:rgb(79.783322%,79.415579%,79.507134%);fill-opacity:1;" d="M 9.566406 7.914062 L 9.566406 32.300781 L 9.710938 32.300781 L 9.710938 7.914062 L 9.566406 7.914062 Z M 9.566406 7.914062 "/>
<path style=" stroke:none;fill-rule:nonzero;fill:rgb(79.320974%,78.945602%,79.038682%);fill-opacity:1;" d="M 9.710938 7.914062 L 9.710938 32.300781 L 9.851562 32.300781 L 9.851562 7.914062 L 9.710938 7.914062 Z M 9.710938 7.914062 "/>
<path style=" stroke:none;fill-rule:nonzero;fill:rgb(78.863203%,78.478676%,78.574807%);fill-opacity:1;" d="M 9.851562 7.914062 L 9.851562 32.300781 L 9.992188 32.300781 L 9.992188 7.914062 L 9.851562 7.914062 Z M 9.851562 7.914062 "/>
<path style=" stroke:none;fill-rule:nonzero;fill:rgb(78.405432%,78.011749%,78.109407%);fill-opacity:1;" d="M 9.992188 7.914062 L 9.992188 32.300781 L 10.132812 32.300781 L 10.132812 7.914062 L 9.992188 7.914062 Z M 9.992188 7.914062 "/>
<path style=" stroke:none;fill-rule:nonzero;fill:rgb(77.952239%,77.550927%,77.650111%);fill-opacity:1;" d="M 10.132812 7.914062 L 10.132812 32.300781 L 10.277344 32.300781 L 10.277344 7.914062 L 10.132812 7.914062 Z M 10.132812 7.914062 "/>
<path style=" stroke:none;fill-rule:nonzero;fill:rgb(77.499046%,77.088579%,77.190814%);fill-opacity:1;" d="M 10.277344 7.914062 L 10.277344 32.300781 L 10.417969 32.300781 L 10.417969 7.914062 L 10.277344 7.914062 Z M 10.277344 7.914062 "/>
<path style=" stroke:none;fill-rule:nonzero;fill:rgb(77.048905%,76.632334%,76.736095%);fill-opacity:1;" d="M 10.417969 7.914062 L 10.417969 32.300781 L 10.558594 32.300781 L 10.558594 7.914062 L 10.417969 7.914062 Z M 10.417969 7.914062 "/>
<path style=" stroke:none;fill-rule:nonzero;fill:rgb(76.598764%,76.173037%,76.27985%);fill-opacity:1;" d="M 10.558594 7.914062 L 10.558594 32.300781 L 10.699219 32.300781 L 10.699219 7.914062 L 10.558594 7.914062 Z M 10.558594 7.914062 "/>
<path style=" stroke:none;fill-rule:nonzero;fill:rgb(76.154726%,75.719844%,75.828183%);fill-opacity:1;" d="M 10.699219 7.914062 L 10.699219 32.300781 L 10.84375 32.300781 L 10.84375 7.914062 L 10.699219 7.914062 Z M 10.699219 7.914062 "/>
<path style=" stroke:none;fill-rule:nonzero;fill:rgb(75.707637%,75.266651%,75.37499%);fill-opacity:1;" d="M 10.84375 7.914062 L 10.84375 32.300781 L 10.984375 32.300781 L 10.984375 7.914062 L 10.84375 7.914062 Z M 10.84375 7.914062 "/>
<path style=" stroke:none;fill-rule:nonzero;fill:rgb(75.266651%,74.81651%,74.929427%);fill-opacity:1;" d="M 10.984375 7.914062 L 10.984375 32.300781 L 11.125 32.300781 L 11.125 7.914062 L 10.984375 7.914062 Z M 10.984375 7.914062 "/>
<path style=" stroke:none;fill-rule:nonzero;fill:rgb(74.82414%,74.366369%,74.480812%);fill-opacity:1;" d="M 11.125 7.914062 L 11.125 32.300781 L 11.269531 32.300781 L 11.269531 7.914062 L 11.125 7.914062 Z M 11.125 7.914062 "/>
<path style=" stroke:none;fill-rule:nonzero;fill:rgb(74.386206%,73.920806%,74.035248%);fill-opacity:1;" d="M 11.269531 7.914062 L 11.269531 32.300781 L 11.410156 32.300781 L 11.410156 7.914062 L 11.269531 7.914062 Z M 11.269531 7.914062 "/>
<path style=" stroke:none;fill-rule:nonzero;fill:rgb(73.948272%,73.473716%,73.591211%);fill-opacity:1;" d="M 11.410156 7.914062 L 11.410156 32.300781 L 11.550781 32.300781 L 11.550781 7.914062 L 11.410156 7.914062 Z M 11.410156 7.914062 "/>
<path style=" stroke:none;fill-rule:nonzero;fill:rgb(73.514916%,73.032731%,73.153277%);fill-opacity:1;" d="M 11.550781 7.914062 L 11.550781 32.300781 L 11.691406 32.300781 L 11.691406 7.914062 L 11.550781 7.914062 Z M 11.550781 7.914062 "/>
<path style=" stroke:none;fill-rule:nonzero;fill:rgb(73.080034%,72.590219%,72.712291%);fill-opacity:1;" d="M 11.691406 7.914062 L 11.691406 32.300781 L 11.835938 32.300781 L 11.835938 7.914062 L 11.691406 7.914062 Z M 11.691406 7.914062 "/>
<path style=" stroke:none;fill-rule:nonzero;fill:rgb(72.651255%,72.153811%,72.277409%);fill-opacity:1;" d="M 11.835938 7.914062 L 11.835938 32.300781 L 11.976562 32.300781 L 11.976562 7.914062 L 11.835938 7.914062 Z M 11.835938 7.914062 "/>
<path style=" stroke:none;fill-rule:nonzero;fill:rgb(72.220951%,71.715877%,71.841001%);fill-opacity:1;" d="M 11.976562 7.914062 L 11.976562 32.300781 L 12.117188 32.300781 L 12.117188 7.914062 L 11.976562 7.914062 Z M 11.976562 7.914062 "/>
<path style=" stroke:none;fill-rule:nonzero;fill:rgb(71.793698%,71.280995%,71.409171%);fill-opacity:1;" d="M 12.117188 7.914062 L 12.117188 32.300781 L 12.257812 32.300781 L 12.257812 7.914062 L 12.117188 7.914062 Z M 12.117188 7.914062 "/>
<path style=" stroke:none;fill-rule:nonzero;fill:rgb(71.367971%,70.846113%,70.975814%);fill-opacity:1;" d="M 12.257812 7.914062 L 12.257812 32.300781 L 12.402344 32.300781 L 12.402344 7.914062 L 12.257812 7.914062 Z M 12.257812 7.914062 "/>
<path style=" stroke:none;fill-rule:nonzero;fill:rgb(70.946822%,70.417334%,70.548562%);fill-opacity:1;" d="M 12.402344 7.914062 L 12.402344 32.300781 L 12.542969 32.300781 L 12.542969 7.914062 L 12.402344 7.914062 Z M 12.402344 7.914062 "/>
<path style=" stroke:none;fill-rule:nonzero;fill:rgb(70.524147%,69.98703%,70.121309%);fill-opacity:1;" d="M 12.542969 7.914062 L 12.542969 32.300781 L 12.683594 32.300781 L 12.683594 7.914062 L 12.542969 7.914062 Z M 12.542969 7.914062 "/>
<path style=" stroke:none;fill-rule:nonzero;fill:rgb(70.10605%,69.562829%,69.697108%);fill-opacity:1;" d="M 12.683594 7.914062 L 12.683594 32.300781 L 12.828125 32.300781 L 12.828125 7.914062 L 12.683594 7.914062 Z M 12.683594 7.914062 "/>
<path style=" stroke:none;fill-rule:nonzero;fill:rgb(69.687953%,69.137102%,69.272908%);fill-opacity:1;" d="M 12.828125 7.914062 L 12.828125 32.300781 L 12.96875 32.300781 L 12.96875 7.914062 L 12.828125 7.914062 Z M 12.828125 7.914062 "/>
<path style=" stroke:none;fill-rule:nonzero;fill:rgb(69.274434%,68.715953%,68.85481%);fill-opacity:1;" d="M 12.96875 7.914062 L 12.96875 32.300781 L 13.109375 32.300781 L 13.109375 7.914062 L 12.96875 7.914062 Z M 12.96875 7.914062 "/>
<path style=" stroke:none;fill-rule:nonzero;fill:rgb(68.859388%,68.293278%,68.433661%);fill-opacity:1;" d="M 13.109375 7.914062 L 13.109375 32.300781 L 13.25 32.300781 L 13.25 7.914062 L 13.109375 7.914062 Z M 13.109375 7.914062 "/>
<path style=" stroke:none;fill-rule:nonzero;fill:rgb(68.450446%,67.876707%,68.018616%);fill-opacity:1;" d="M 13.25 7.914062 L 13.25 32.300781 L 13.394531 32.300781 L 13.394531 7.914062 L 13.25 7.914062 Z M 13.25 7.914062 "/>
<path style=" stroke:none;fill-rule:nonzero;fill:rgb(68.039979%,67.45861%,67.603571%);fill-opacity:1;" d="M 13.394531 7.914062 L 13.394531 32.300781 L 13.535156 32.300781 L 13.535156 7.914062 L 13.394531 7.914062 Z M 13.394531 7.914062 "/>
<path style=" stroke:none;fill-rule:nonzero;fill:rgb(67.634089%,67.04509%,67.191577%);fill-opacity:1;" d="M 13.535156 7.914062 L 13.535156 32.300781 L 13.675781 32.300781 L 13.675781 7.914062 L 13.535156 7.914062 Z M 13.535156 7.914062 "/>
<path style=" stroke:none;fill-rule:nonzero;fill:rgb(67.228199%,66.631571%,66.779583%);fill-opacity:1;" d="M 13.675781 7.914062 L 13.675781 32.300781 L 13.820312 32.300781 L 13.820312 7.914062 L 13.675781 7.914062 Z M 13.675781 7.914062 "/>
<path style=" stroke:none;fill-rule:nonzero;fill:rgb(66.826886%,66.222629%,66.372168%);fill-opacity:1;" d="M 13.820312 7.914062 L 13.820312 32.300781 L 13.960938 32.300781 L 13.960938 7.914062 L 13.820312 7.914062 Z M 13.820312 7.914062 "/>
<path style=" stroke:none;fill-rule:nonzero;fill:rgb(66.424048%,65.812161%,65.964752%);fill-opacity:1;" d="M 13.960938 7.914062 L 13.960938 32.300781 L 14.101562 32.300781 L 14.101562 7.914062 L 13.960938 7.914062 Z M 13.960938 7.914062 "/>
<path style=" stroke:none;fill-rule:nonzero;fill:rgb(66.025788%,65.407797%,65.561913%);fill-opacity:1;" d="M 14.101562 7.914062 L 14.101562 32.300781 L 14.242188 32.300781 L 14.242188 7.914062 L 14.101562 7.914062 Z M 14.101562 7.914062 "/>
<path style=" stroke:none;fill-rule:nonzero;fill:rgb(65.627527%,65.001907%,65.157549%);fill-opacity:1;" d="M 14.242188 7.914062 L 14.242188 32.300781 L 14.386719 32.300781 L 14.386719 7.914062 L 14.242188 7.914062 Z M 14.242188 7.914062 "/>
<path style=" stroke:none;fill-rule:nonzero;fill:rgb(65.233845%,64.600595%,64.757763%);fill-opacity:1;" d="M 14.386719 7.914062 L 14.386719 32.300781 L 14.527344 32.300781 L 14.527344 7.914062 L 14.386719 7.914062 Z M 14.386719 7.914062 "/>
<path style=" stroke:none;fill-rule:nonzero;fill:rgb(64.840162%,64.199283%,64.359503%);fill-opacity:1;" d="M 14.527344 7.914062 L 14.527344 32.300781 L 14.667969 32.300781 L 14.667969 7.914062 L 14.527344 7.914062 Z M 14.527344 7.914062 "/>
<path style=" stroke:none;fill-rule:nonzero;fill:rgb(64.449531%,63.802548%,63.964294%);fill-opacity:1;" d="M 14.667969 7.914062 L 14.667969 32.300781 L 14.808594 32.300781 L 14.808594 7.914062 L 14.667969 7.914062 Z M 14.667969 7.914062 "/>
<path style=" stroke:none;fill-rule:nonzero;fill:rgb(64.0589%,63.405814%,63.567559%);fill-opacity:1;" d="M 14.808594 7.914062 L 14.808594 32.300781 L 14.953125 32.300781 L 14.953125 7.914062 L 14.808594 7.914062 Z M 14.808594 7.914062 "/>
<path style=" stroke:none;fill-rule:nonzero;fill:rgb(63.672847%,63.012131%,63.176928%);fill-opacity:1;" d="M 14.953125 7.914062 L 14.953125 32.300781 L 15.09375 32.300781 L 15.09375 7.914062 L 14.953125 7.914062 Z M 14.953125 7.914062 "/>
<path style=" stroke:none;fill-rule:nonzero;fill:rgb(63.288319%,62.619974%,62.786297%);fill-opacity:1;" d="M 15.09375 7.914062 L 15.09375 32.300781 L 15.234375 32.300781 L 15.234375 7.914062 L 15.09375 7.914062 Z M 15.09375 7.914062 "/>
<path style=" stroke:none;fill-rule:nonzero;fill:rgb(62.905318%,62.230869%,62.398718%);fill-opacity:1;" d="M 15.234375 7.914062 L 15.234375 32.300781 L 15.378906 32.300781 L 15.378906 7.914062 L 15.234375 7.914062 Z M 15.234375 7.914062 "/>
<path style=" stroke:none;fill-rule:nonzero;fill:rgb(62.523842%,61.841764%,62.011139%);fill-opacity:1;" d="M 15.378906 7.914062 L 15.378906 32.300781 L 15.519531 32.300781 L 15.519531 7.914062 L 15.378906 7.914062 Z M 15.378906 7.914062 "/>
<path style=" stroke:none;fill-rule:nonzero;fill:rgb(62.146944%,61.457237%,61.628138%);fill-opacity:1;" d="M 15.519531 7.914062 L 15.519531 32.300781 L 15.660156 32.300781 L 15.660156 7.914062 L 15.519531 7.914062 Z M 15.519531 7.914062 "/>
<path style=" stroke:none;fill-rule:nonzero;fill:rgb(61.768521%,61.072709%,61.245136%);fill-opacity:1;" d="M 15.660156 7.914062 L 15.660156 32.300781 L 15.800781 32.300781 L 15.800781 7.914062 L 15.660156 7.914062 Z M 15.660156 7.914062 "/>
<path style=" stroke:none;fill-rule:nonzero;fill:rgb(61.396201%,60.694285%,60.868238%);fill-opacity:1;" d="M 15.800781 7.914062 L 15.800781 32.300781 L 15.945312 32.300781 L 15.945312 7.914062 L 15.800781 7.914062 Z M 15.800781 7.914062 "/>
<path style=" stroke:none;fill-rule:nonzero;fill:rgb(61.022354%,60.31281%,60.489815%);fill-opacity:1;" d="M 15.945312 7.914062 L 15.945312 32.300781 L 16.085938 32.300781 L 16.085938 7.914062 L 15.945312 7.914062 Z M 15.945312 7.914062 "/>
<path style=" stroke:none;fill-rule:nonzero;fill:rgb(60.653086%,59.935912%,60.114443%);fill-opacity:1;" d="M 16.085938 7.914062 L 16.085938 32.300781 L 16.226562 32.300781 L 16.226562 7.914062 L 16.085938 7.914062 Z M 16.085938 7.914062 "/>
<path style=" stroke:none;fill-rule:nonzero;fill:rgb(60.282292%,59.559014%,59.739071%);fill-opacity:1;" d="M 16.226562 7.914062 L 16.226562 32.300781 L 16.367188 32.300781 L 16.367188 7.914062 L 16.226562 7.914062 Z M 16.226562 7.914062 "/>
<path style=" stroke:none;fill-rule:nonzero;fill:rgb(59.917601%,59.18822%,59.369802%);fill-opacity:1;" d="M 16.367188 7.914062 L 16.367188 32.300781 L 16.511719 32.300781 L 16.511719 7.914062 L 16.367188 7.914062 Z M 16.367188 7.914062 "/>
<path style=" stroke:none;fill-rule:nonzero;fill:rgb(59.551385%,58.8159%,58.999008%);fill-opacity:1;" d="M 16.511719 7.914062 L 16.511719 32.300781 L 16.652344 32.300781 L 16.652344 7.914062 L 16.511719 7.914062 Z M 16.511719 7.914062 "/>
<path style=" stroke:none;fill-rule:nonzero;fill:rgb(59.191272%,58.448157%,58.632792%);fill-opacity:1;" d="M 16.652344 7.914062 L 16.652344 32.300781 L 16.792969 32.300781 L 16.792969 7.914062 L 16.652344 7.914062 Z M 16.652344 7.914062 "/>
<path style=" stroke:none;fill-rule:nonzero;fill:rgb(58.829633%,58.080415%,58.266575%);fill-opacity:1;" d="M 16.792969 7.914062 L 16.792969 32.300781 L 16.9375 32.300781 L 16.9375 7.914062 L 16.792969 7.914062 Z M 16.792969 7.914062 "/>
<path style=" stroke:none;fill-rule:nonzero;fill:rgb(58.472572%,57.71725%,57.904936%);fill-opacity:1;" d="M 16.9375 7.914062 L 16.9375 32.300781 L 17.078125 32.300781 L 17.078125 7.914062 L 16.9375 7.914062 Z M 16.9375 7.914062 "/>
<path style=" stroke:none;fill-rule:nonzero;fill:rgb(58.115511%,57.354086%,57.543297%);fill-opacity:1;" d="M 17.078125 7.914062 L 17.078125 32.300781 L 17.21875 32.300781 L 17.21875 7.914062 L 17.078125 7.914062 Z M 17.078125 7.914062 "/>
<path style=" stroke:none;fill-rule:nonzero;fill:rgb(57.763027%,56.993973%,57.18471%);fill-opacity:1;" d="M 17.21875 7.914062 L 17.21875 32.300781 L 17.359375 32.300781 L 17.359375 7.914062 L 17.21875 7.914062 Z M 17.21875 7.914062 "/>
<path style=" stroke:none;fill-rule:nonzero;fill:rgb(57.409018%,56.63386%,56.826123%);fill-opacity:1;" d="M 17.359375 7.914062 L 17.359375 32.300781 L 17.503906 32.300781 L 17.503906 7.914062 L 17.359375 7.914062 Z M 17.359375 7.914062 "/>
<path style=" stroke:none;fill-rule:nonzero;fill:rgb(57.059586%,56.278325%,56.472114%);fill-opacity:1;" d="M 17.503906 7.914062 L 17.503906 32.300781 L 17.644531 32.300781 L 17.644531 7.914062 L 17.503906 7.914062 Z M 17.503906 7.914062 "/>
<path style=" stroke:none;fill-rule:nonzero;fill:rgb(56.711681%,55.922789%,56.119631%);fill-opacity:1;" d="M 17.644531 7.914062 L 17.644531 32.300781 L 17.785156 32.300781 L 17.785156 7.914062 L 17.644531 7.914062 Z M 17.644531 7.914062 "/>
<path style=" stroke:none;fill-rule:nonzero;fill:rgb(56.366827%,55.573358%,55.770199%);fill-opacity:1;" d="M 17.785156 7.914062 L 17.785156 32.300781 L 17.925781 32.300781 L 17.925781 7.914062 L 17.785156 7.914062 Z M 17.785156 7.914062 "/>
<path style=" stroke:none;fill-rule:nonzero;fill:rgb(56.021973%,55.2224%,55.420768%);fill-opacity:1;" d="M 17.925781 7.914062 L 17.925781 32.300781 L 18.070312 32.300781 L 18.070312 7.914062 L 17.925781 7.914062 Z M 17.925781 7.914062 "/>
<path style=" stroke:none;fill-rule:nonzero;fill:rgb(55.681697%,54.874495%,55.075914%);fill-opacity:1;" d="M 18.070312 7.914062 L 18.070312 32.300781 L 18.210938 32.300781 L 18.210938 7.914062 L 18.070312 7.914062 Z M 18.070312 7.914062 "/>
<path style=" stroke:none;fill-rule:nonzero;fill:rgb(55.341421%,54.528115%,54.729534%);fill-opacity:1;" d="M 18.210938 7.914062 L 18.210938 32.300781 L 18.351562 32.300781 L 18.351562 7.914062 L 18.210938 7.914062 Z M 18.210938 7.914062 "/>
<path style=" stroke:none;fill-rule:nonzero;fill:rgb(55.005722%,54.186313%,54.389258%);fill-opacity:1;" d="M 18.351562 7.914062 L 18.351562 32.300781 L 18.496094 32.300781 L 18.496094 7.914062 L 18.351562 7.914062 Z M 18.351562 7.914062 "/>
<path style=" stroke:none;fill-rule:nonzero;fill:rgb(54.668498%,53.842985%,54.047456%);fill-opacity:1;" d="M 18.496094 7.914062 L 18.496094 32.300781 L 18.636719 32.300781 L 18.636719 7.914062 L 18.496094 7.914062 Z M 18.496094 7.914062 "/>
<path style=" stroke:none;fill-rule:nonzero;fill:rgb(54.335851%,53.50576%,53.711757%);fill-opacity:1;" d="M 18.636719 7.914062 L 18.636719 32.300781 L 18.777344 32.300781 L 18.777344 7.914062 L 18.636719 7.914062 Z M 18.636719 7.914062 "/>
<path style=" stroke:none;fill-rule:nonzero;fill:rgb(54.00473%,53.16701%,53.376059%);fill-opacity:1;" d="M 18.777344 7.914062 L 18.777344 32.300781 L 18.917969 32.300781 L 18.917969 7.914062 L 18.777344 7.914062 Z M 18.777344 7.914062 "/>
<path style=" stroke:none;fill-rule:nonzero;fill:rgb(53.676661%,52.834363%,53.043412%);fill-opacity:1;" d="M 18.917969 7.914062 L 18.917969 32.300781 L 19.0625 32.300781 L 19.0625 7.914062 L 18.917969 7.914062 Z M 18.917969 7.914062 "/>
<path style=" stroke:none;fill-rule:nonzero;fill:rgb(53.348592%,52.500191%,52.710765%);fill-opacity:1;" d="M 19.0625 7.914062 L 19.0625 32.300781 L 19.203125 32.300781 L 19.203125 7.914062 L 19.0625 7.914062 Z M 19.0625 7.914062 "/>
<path style=" stroke:none;fill-rule:nonzero;fill:rgb(53.025101%,52.170596%,52.382696%);fill-opacity:1;" d="M 19.203125 7.914062 L 19.203125 32.300781 L 19.34375 32.300781 L 19.34375 7.914062 L 19.203125 7.914062 Z M 19.203125 7.914062 "/>
<path style=" stroke:none;fill-rule:nonzero;fill:rgb(52.70161%,51.841001%,52.054627%);fill-opacity:1;" d="M 19.34375 7.914062 L 19.34375 32.300781 L 19.484375 32.300781 L 19.484375 7.914062 L 19.34375 7.914062 Z M 19.34375 7.914062 "/>
<path style=" stroke:none;fill-rule:nonzero;fill:rgb(52.382696%,51.515984%,51.731136%);fill-opacity:1;" d="M 19.484375 7.914062 L 19.484375 32.300781 L 19.628906 32.300781 L 19.628906 7.914062 L 19.484375 7.914062 Z M 19.484375 7.914062 "/>
<path style=" stroke:none;fill-rule:nonzero;fill:rgb(52.062257%,51.190967%,51.407645%);fill-opacity:1;" d="M 19.628906 7.914062 L 19.628906 32.300781 L 19.769531 32.300781 L 19.769531 7.914062 L 19.628906 7.914062 Z M 19.628906 7.914062 "/>
<path style=" stroke:none;fill-rule:nonzero;fill:rgb(51.747921%,50.870527%,51.088731%);fill-opacity:1;" d="M 19.769531 7.914062 L 19.769531 32.300781 L 19.910156 32.300781 L 19.910156 7.914062 L 19.769531 7.914062 Z M 19.769531 7.914062 "/>
<path style=" stroke:none;fill-rule:nonzero;fill:rgb(51.432059%,50.548562%,50.768292%);fill-opacity:1;" d="M 19.910156 7.914062 L 19.910156 32.300781 L 20.054688 32.300781 L 20.054688 7.914062 L 19.910156 7.914062 Z M 19.910156 7.914062 "/>
<path style=" stroke:none;fill-rule:nonzero;fill:rgb(51.122301%,50.2327%,50.45243%);fill-opacity:1;" d="M 20.054688 7.914062 L 20.054688 32.300781 L 20.195312 32.300781 L 20.195312 7.914062 L 20.054688 7.914062 Z M 20.054688 7.914062 "/>
<path style=" stroke:none;fill-rule:nonzero;fill:rgb(50.811017%,49.915312%,50.138094%);fill-opacity:1;" d="M 20.195312 7.914062 L 20.195312 32.300781 L 20.335938 32.300781 L 20.335938 7.914062 L 20.195312 7.914062 Z M 20.195312 7.914062 "/>
<path style=" stroke:none;fill-rule:nonzero;fill:rgb(50.504311%,49.604028%,49.82681%);fill-opacity:1;" d="M 20.335938 7.914062 L 20.335938 32.300781 L 20.476562 32.300781 L 20.476562 7.914062 L 20.335938 7.914062 Z M 20.335938 7.914062 "/>
<path style=" stroke:none;fill-rule:nonzero;fill:rgb(50.197604%,49.291218%,49.517052%);fill-opacity:1;" d="M 20.476562 7.914062 L 20.476562 32.300781 L 20.621094 32.300781 L 20.621094 7.914062 L 20.476562 7.914062 Z M 20.476562 7.914062 "/>
<path style=" stroke:none;fill-rule:nonzero;fill:rgb(49.895476%,48.984512%,49.210346%);fill-opacity:1;" d="M 20.621094 7.914062 L 20.621094 32.300781 L 20.761719 32.300781 L 20.761719 7.914062 L 20.621094 7.914062 Z M 20.621094 7.914062 "/>
<path style=" stroke:none;fill-rule:nonzero;fill:rgb(49.593347%,48.67628%,48.903639%);fill-opacity:1;" d="M 20.761719 7.914062 L 20.761719 32.300781 L 20.902344 32.300781 L 20.902344 7.914062 L 20.761719 7.914062 Z M 20.761719 7.914062 "/>
<path style=" stroke:none;fill-rule:nonzero;fill:rgb(49.295796%,48.372625%,48.603037%);fill-opacity:1;" d="M 20.902344 7.914062 L 20.902344 32.300781 L 21.042969 32.300781 L 21.042969 7.914062 L 20.902344 7.914062 Z M 20.902344 7.914062 "/>
<path style=" stroke:none;fill-rule:nonzero;fill:rgb(48.996719%,48.068971%,48.299382%);fill-opacity:1;" d="M 21.042969 7.914062 L 21.042969 32.300781 L 21.1875 32.300781 L 21.1875 7.914062 L 21.042969 7.914062 Z M 21.042969 7.914062 "/>
<path style=" stroke:none;fill-rule:nonzero;fill:rgb(48.703746%,47.769894%,48.001831%);fill-opacity:1;" d="M 21.1875 7.914062 L 21.1875 32.300781 L 21.328125 32.300781 L 21.328125 7.914062 L 21.1875 7.914062 Z M 21.1875 7.914062 "/>
<path style=" stroke:none;fill-rule:nonzero;fill:rgb(48.409247%,47.470817%,47.70428%);fill-opacity:1;" d="M 21.328125 7.914062 L 21.328125 32.300781 L 21.46875 32.300781 L 21.46875 7.914062 L 21.328125 7.914062 Z M 21.328125 7.914062 "/>
<path style=" stroke:none;fill-rule:nonzero;fill:rgb(48.120851%,47.177844%,47.411307%);fill-opacity:1;" d="M 21.46875 7.914062 L 21.46875 32.300781 L 21.613281 32.300781 L 21.613281 7.914062 L 21.46875 7.914062 Z M 21.46875 7.914062 "/>
<path style=" stroke:none;fill-rule:nonzero;fill:rgb(47.832456%,46.883345%,47.118334%);fill-opacity:1;" d="M 21.613281 7.914062 L 21.613281 32.300781 L 21.753906 32.300781 L 21.753906 7.914062 L 21.613281 7.914062 Z M 21.613281 7.914062 "/>
<path style=" stroke:none;fill-rule:nonzero;fill:rgb(47.547112%,46.593423%,46.829938%);fill-opacity:1;" d="M 21.753906 7.914062 L 21.753906 32.300781 L 21.894531 32.300781 L 21.894531 7.914062 L 21.753906 7.914062 Z M 21.753906 7.914062 "/>
<path style=" stroke:none;fill-rule:nonzero;fill:rgb(47.261769%,46.301976%,46.540017%);fill-opacity:1;" d="M 21.894531 7.914062 L 21.894531 32.300781 L 22.035156 32.300781 L 22.035156 7.914062 L 21.894531 7.914062 Z M 21.894531 7.914062 "/>
<path style=" stroke:none;fill-rule:nonzero;fill:rgb(46.981003%,46.016632%,46.256199%);fill-opacity:1;" d="M 22.035156 7.914062 L 22.035156 32.300781 L 22.179688 32.300781 L 22.179688 7.914062 L 22.035156 7.914062 Z M 22.035156 7.914062 "/>
<path style=" stroke:none;fill-rule:nonzero;fill:rgb(46.701762%,45.731289%,45.972381%);fill-opacity:1;" d="M 22.179688 7.914062 L 22.179688 32.300781 L 22.320312 32.300781 L 22.320312 7.914062 L 22.179688 7.914062 Z M 22.179688 7.914062 "/>
<path style=" stroke:none;fill-rule:nonzero;fill:rgb(46.424048%,45.448997%,45.691615%);fill-opacity:1;" d="M 22.320312 7.914062 L 22.320312 32.300781 L 22.460938 32.300781 L 22.460938 7.914062 L 22.320312 7.914062 Z M 22.320312 7.914062 "/>
<path style=" stroke:none;fill-rule:nonzero;fill:rgb(46.14786%,45.168231%,45.412375%);fill-opacity:1;" d="M 22.460938 7.914062 L 22.460938 32.300781 L 22.601562 32.300781 L 22.601562 7.914062 L 22.460938 7.914062 Z M 22.460938 7.914062 "/>
<path style=" stroke:none;fill-rule:nonzero;fill:rgb(45.877775%,44.892042%,45.136187%);fill-opacity:1;" d="M 22.601562 7.914062 L 22.601562 32.300781 L 22.746094 32.300781 L 22.746094 7.914062 L 22.601562 7.914062 Z M 22.601562 7.914062 "/>
<path style=" stroke:none;fill-rule:nonzero;fill:rgb(45.606165%,44.615854%,44.861524%);fill-opacity:1;" d="M 22.746094 7.914062 L 22.746094 32.300781 L 22.886719 32.300781 L 22.886719 7.914062 L 22.746094 7.914062 Z M 22.746094 7.914062 "/>
<path style=" stroke:none;fill-rule:nonzero;fill:rgb(45.339132%,44.344244%,44.59144%);fill-opacity:1;" d="M 22.886719 7.914062 L 22.886719 32.300781 L 23.027344 32.300781 L 23.027344 7.914062 L 22.886719 7.914062 Z M 22.886719 7.914062 "/>
<path style=" stroke:none;fill-rule:nonzero;fill:rgb(45.072099%,44.072633%,44.319829%);fill-opacity:1;" d="M 23.027344 7.914062 L 23.027344 32.300781 L 23.171875 32.300781 L 23.171875 7.914062 L 23.027344 7.914062 Z M 23.027344 7.914062 "/>
<path style=" stroke:none;fill-rule:nonzero;fill:rgb(44.808118%,43.804074%,44.052796%);fill-opacity:1;" d="M 23.171875 7.914062 L 23.171875 32.300781 L 23.3125 32.300781 L 23.3125 7.914062 L 23.171875 7.914062 Z M 23.171875 7.914062 "/>
<path style=" stroke:none;fill-rule:nonzero;fill:rgb(44.545663%,43.535515%,43.785763%);fill-opacity:1;" d="M 23.3125 7.914062 L 23.3125 32.300781 L 23.453125 32.300781 L 23.453125 7.914062 L 23.3125 7.914062 Z M 23.3125 7.914062 "/>
<path style=" stroke:none;fill-rule:nonzero;fill:rgb(44.286259%,43.27306%,43.524834%);fill-opacity:1;" d="M 23.453125 7.914062 L 23.453125 32.300781 L 23.59375 32.300781 L 23.59375 7.914062 L 23.453125 7.914062 Z M 23.453125 7.914062 "/>
<path style=" stroke:none;fill-rule:nonzero;fill:rgb(44.028382%,43.010605%,43.263905%);fill-opacity:1;" d="M 23.59375 7.914062 L 23.59375 32.300781 L 23.738281 32.300781 L 23.738281 7.914062 L 23.59375 7.914062 Z M 23.59375 7.914062 "/>
<path style=" stroke:none;fill-rule:nonzero;fill:rgb(43.775082%,42.751202%,43.006027%);fill-opacity:1;" d="M 23.738281 7.914062 L 23.738281 32.300781 L 23.878906 32.300781 L 23.878906 7.914062 L 23.738281 7.914062 Z M 23.738281 7.914062 "/>
<path style=" stroke:none;fill-rule:nonzero;fill:rgb(43.520256%,42.493324%,42.74815%);fill-opacity:1;" d="M 23.878906 7.914062 L 23.878906 32.300781 L 24.019531 32.300781 L 24.019531 7.914062 L 23.878906 7.914062 Z M 23.878906 7.914062 "/>
<path style=" stroke:none;fill-rule:nonzero;fill:rgb(43.271534%,42.240024%,42.496376%);fill-opacity:1;" d="M 24.019531 7.914062 L 24.019531 32.300781 L 24.164062 32.300781 L 24.164062 7.914062 L 24.019531 7.914062 Z M 24.019531 7.914062 "/>
<path style=" stroke:none;fill-rule:nonzero;fill:rgb(43.021286%,41.985199%,42.243076%);fill-opacity:1;" d="M 24.164062 7.914062 L 24.164062 32.300781 L 24.304688 32.300781 L 24.304688 7.914062 L 24.164062 7.914062 Z M 24.164062 7.914062 "/>
<path style=" stroke:none;fill-rule:nonzero;fill:rgb(42.778668%,41.736477%,41.99588%);fill-opacity:1;" d="M 24.304688 7.914062 L 24.304688 32.300781 L 24.445312 32.300781 L 24.445312 7.914062 L 24.304688 7.914062 Z M 24.304688 7.914062 "/>
<path style=" stroke:none;fill-rule:nonzero;fill:rgb(42.532998%,41.487755%,41.747158%);fill-opacity:1;" d="M 24.445312 7.914062 L 24.445312 32.300781 L 24.585938 32.300781 L 24.585938 7.914062 L 24.445312 7.914062 Z M 24.445312 7.914062 "/>
<path style=" stroke:none;fill-rule:nonzero;fill:rgb(42.293431%,41.24361%,41.50454%);fill-opacity:1;" d="M 24.585938 7.914062 L 24.585938 32.300781 L 24.730469 32.300781 L 24.730469 7.914062 L 24.585938 7.914062 Z M 24.585938 7.914062 "/>
<path style=" stroke:none;fill-rule:nonzero;fill:rgb(42.052338%,40.99794%,41.260395%);fill-opacity:1;" d="M 24.730469 7.914062 L 24.730469 32.300781 L 24.871094 32.300781 L 24.871094 7.914062 L 24.730469 7.914062 Z M 24.730469 7.914062 "/>
<path style=" stroke:none;fill-rule:nonzero;fill:rgb(41.81735%,40.758373%,41.020829%);fill-opacity:1;" d="M 24.871094 7.914062 L 24.871094 32.300781 L 25.011719 32.300781 L 25.011719 7.914062 L 24.871094 7.914062 Z M 24.871094 7.914062 "/>
<path style=" stroke:none;fill-rule:nonzero;fill:rgb(41.580835%,40.517281%,40.781262%);fill-opacity:1;" d="M 25.011719 7.914062 L 25.011719 32.300781 L 25.152344 32.300781 L 25.152344 7.914062 L 25.011719 7.914062 Z M 25.011719 7.914062 "/>
<path style=" stroke:none;fill-rule:nonzero;fill:rgb(41.350423%,40.282292%,40.547799%);fill-opacity:1;" d="M 25.152344 7.914062 L 25.152344 32.300781 L 25.296875 32.300781 L 25.296875 7.914062 L 25.152344 7.914062 Z M 25.152344 7.914062 "/>
<path style=" stroke:none;fill-rule:nonzero;fill:rgb(41.118486%,40.047303%,40.31281%);fill-opacity:1;" d="M 25.296875 7.914062 L 25.296875 32.300781 L 25.4375 32.300781 L 25.4375 7.914062 L 25.296875 7.914062 Z M 25.296875 7.914062 "/>
<path style=" stroke:none;fill-rule:nonzero;fill:rgb(40.892653%,39.816892%,40.083925%);fill-opacity:1;" d="M 25.4375 7.914062 L 25.4375 32.300781 L 25.578125 32.300781 L 25.578125 7.914062 L 25.4375 7.914062 Z M 25.4375 7.914062 "/>
<path style=" stroke:none;fill-rule:nonzero;fill:rgb(40.665293%,39.584955%,39.853513%);fill-opacity:1;" d="M 25.578125 7.914062 L 25.578125 32.300781 L 25.722656 32.300781 L 25.722656 7.914062 L 25.578125 7.914062 Z M 25.578125 7.914062 "/>
<path style=" stroke:none;fill-rule:nonzero;fill:rgb(40.444038%,39.360647%,39.629206%);fill-opacity:1;" d="M 25.722656 7.914062 L 25.722656 32.300781 L 25.863281 32.300781 L 25.863281 7.914062 L 25.722656 7.914062 Z M 25.722656 7.914062 "/>
<path style=" stroke:none;fill-rule:nonzero;fill:rgb(40.221256%,39.133288%,39.404898%);fill-opacity:1;" d="M 25.863281 7.914062 L 25.863281 32.300781 L 26.003906 32.300781 L 26.003906 7.914062 L 25.863281 7.914062 Z M 25.863281 7.914062 "/>
<path style=" stroke:none;fill-rule:nonzero;fill:rgb(40.004578%,38.913558%,39.183642%);fill-opacity:1;" d="M 26.003906 7.914062 L 26.003906 32.300781 L 26.144531 32.300781 L 26.144531 7.914062 L 26.003906 7.914062 Z M 26.003906 7.914062 "/>
<path style=" stroke:none;fill-rule:nonzero;fill:rgb(39.7879%,38.692302%,38.963912%);fill-opacity:1;" d="M 26.144531 7.914062 L 26.144531 32.300781 L 26.289062 32.300781 L 26.289062 7.914062 L 26.144531 7.914062 Z M 26.144531 7.914062 "/>
<path style=" stroke:none;fill-rule:nonzero;fill:rgb(39.575799%,38.475624%,38.74876%);fill-opacity:1;" d="M 26.289062 7.914062 L 26.289062 32.300781 L 26.429688 32.300781 L 26.429688 7.914062 L 26.289062 7.914062 Z M 26.289062 7.914062 "/>
<path style=" stroke:none;fill-rule:nonzero;fill:rgb(39.362173%,38.258946%,38.533608%);fill-opacity:1;" d="M 26.429688 7.914062 L 26.429688 32.300781 L 26.570312 32.300781 L 26.570312 7.914062 L 26.429688 7.914062 Z M 26.429688 7.914062 "/>
<path style=" stroke:none;fill-rule:nonzero;fill:rgb(39.156176%,38.048371%,38.323033%);fill-opacity:1;" d="M 26.570312 7.914062 L 26.570312 32.300781 L 26.710938 32.300781 L 26.710938 7.914062 L 26.570312 7.914062 Z M 26.570312 7.914062 "/>
<path style=" stroke:none;fill-rule:nonzero;fill:rgb(38.947127%,37.836271%,38.112459%);fill-opacity:1;" d="M 26.710938 7.914062 L 26.710938 32.300781 L 26.855469 32.300781 L 26.855469 7.914062 L 26.710938 7.914062 Z M 26.710938 7.914062 "/>
<path style=" stroke:none;fill-rule:nonzero;fill:rgb(38.744182%,37.630274%,37.906462%);fill-opacity:1;" d="M 26.855469 7.914062 L 26.855469 32.300781 L 26.996094 32.300781 L 26.996094 7.914062 L 26.855469 7.914062 Z M 26.855469 7.914062 "/>
<path style=" stroke:none;fill-rule:nonzero;fill:rgb(38.541238%,37.422751%,37.700465%);fill-opacity:1;" d="M 26.996094 7.914062 L 26.996094 32.300781 L 27.136719 32.300781 L 27.136719 7.914062 L 26.996094 7.914062 Z M 26.996094 7.914062 "/>
<path style=" stroke:none;fill-rule:nonzero;fill:rgb(38.34287%,37.221332%,37.500572%);fill-opacity:1;" d="M 27.136719 7.914062 L 27.136719 32.300781 L 27.28125 32.300781 L 27.28125 7.914062 L 27.136719 7.914062 Z M 27.136719 7.914062 "/>
<path style=" stroke:none;fill-rule:nonzero;fill:rgb(38.144503%,37.018387%,37.299153%);fill-opacity:1;" d="M 27.28125 7.914062 L 27.28125 32.300781 L 27.421875 32.300781 L 27.421875 7.914062 L 27.28125 7.914062 Z M 27.28125 7.914062 "/>
<path style=" stroke:none;fill-rule:nonzero;fill:rgb(37.950713%,36.821546%,37.102312%);fill-opacity:1;" d="M 27.421875 7.914062 L 27.421875 32.300781 L 27.5625 32.300781 L 27.5625 7.914062 L 27.421875 7.914062 Z M 27.421875 7.914062 "/>
<path style=" stroke:none;fill-rule:nonzero;fill:rgb(37.756924%,36.624704%,36.906996%);fill-opacity:1;" d="M 27.5625 7.914062 L 27.5625 32.300781 L 27.703125 32.300781 L 27.703125 7.914062 L 27.5625 7.914062 Z M 27.5625 7.914062 "/>
<path style=" stroke:none;fill-rule:nonzero;fill:rgb(37.569238%,36.433967%,36.714733%);fill-opacity:1;" d="M 27.703125 7.914062 L 27.703125 32.300781 L 27.847656 32.300781 L 27.847656 7.914062 L 27.703125 7.914062 Z M 27.703125 7.914062 "/>
<path style=" stroke:none;fill-rule:nonzero;fill:rgb(37.380026%,36.240177%,36.523995%);fill-opacity:1;" d="M 27.847656 7.914062 L 27.847656 32.300781 L 27.988281 32.300781 L 27.988281 7.914062 L 27.847656 7.914062 Z M 27.847656 7.914062 "/>
<path style=" stroke:none;fill-rule:nonzero;fill:rgb(37.196918%,36.054017%,36.337835%);fill-opacity:1;" d="M 27.988281 7.914062 L 27.988281 32.300781 L 28.128906 32.300781 L 28.128906 7.914062 L 27.988281 7.914062 Z M 27.988281 7.914062 "/>
<path style=" stroke:none;fill-rule:nonzero;fill:rgb(37.012284%,35.866331%,36.151675%);fill-opacity:1;" d="M 28.128906 7.914062 L 28.128906 32.300781 L 28.269531 32.300781 L 28.269531 7.914062 L 28.128906 7.914062 Z M 28.128906 7.914062 "/>
<path style=" stroke:none;fill-rule:nonzero;fill:rgb(36.833753%,35.683223%,35.970092%);fill-opacity:1;" d="M 28.269531 7.914062 L 28.269531 32.300781 L 28.414062 32.300781 L 28.414062 7.914062 L 28.269531 7.914062 Z M 28.269531 7.914062 "/>
<path style=" stroke:none;fill-rule:nonzero;fill:rgb(36.655222%,35.50164%,35.78851%);fill-opacity:1;" d="M 28.414062 7.914062 L 28.414062 32.300781 L 28.554688 32.300781 L 28.554688 7.914062 L 28.414062 7.914062 Z M 28.414062 7.914062 "/>
<path style=" stroke:none;fill-rule:nonzero;fill:rgb(36.48127%,35.324636%,35.611505%);fill-opacity:1;" d="M 28.554688 7.914062 L 28.554688 32.300781 L 28.695312 32.300781 L 28.695312 7.914062 L 28.554688 7.914062 Z M 28.554688 7.914062 "/>
<path style=" stroke:none;fill-rule:nonzero;fill:rgb(36.305791%,35.146105%,35.434501%);fill-opacity:1;" d="M 28.695312 7.914062 L 28.695312 32.300781 L 28.839844 32.300781 L 28.839844 7.914062 L 28.695312 7.914062 Z M 28.695312 7.914062 "/>
<path style=" stroke:none;fill-rule:nonzero;fill:rgb(36.136416%,34.975204%,35.2636%);fill-opacity:1;" d="M 28.839844 7.914062 L 28.839844 32.300781 L 28.980469 32.300781 L 28.980469 7.914062 L 28.839844 7.914062 Z M 28.839844 7.914062 "/>
<path style=" stroke:none;fill-rule:nonzero;fill:rgb(35.967041%,34.801251%,35.091173%);fill-opacity:1;" d="M 28.980469 7.914062 L 28.980469 32.300781 L 29.121094 32.300781 L 29.121094 7.914062 L 28.980469 7.914062 Z M 28.980469 7.914062 "/>
<path style=" stroke:none;fill-rule:nonzero;fill:rgb(35.803769%,34.636454%,34.926375%);fill-opacity:1;" d="M 29.121094 7.914062 L 29.121094 32.300781 L 29.40625 32.300781 L 29.40625 7.914062 L 29.121094 7.914062 Z M 29.121094 7.914062 "/>
<path style=" stroke:none;fill-rule:nonzero;fill:rgb(35.480278%,34.305333%,34.598306%);fill-opacity:1;" d="M 29.40625 7.914062 L 29.40625 32.300781 L 29.6875 32.300781 L 29.6875 7.914062 L 29.40625 7.914062 Z M 29.40625 7.914062 "/>
<path style=" stroke:none;fill-rule:nonzero;fill:rgb(35.167468%,33.986419%,34.280919%);fill-opacity:1;" d="M 29.6875 7.914062 L 29.6875 32.300781 L 29.972656 32.300781 L 29.972656 7.914062 L 29.6875 7.914062 Z M 29.6875 7.914062 "/>
<path style=" stroke:none;fill-rule:nonzero;fill:rgb(34.863813%,33.678187%,33.972686%);fill-opacity:1;" d="M 29.972656 7.914062 L 29.972656 32.300781 L 30.253906 32.300781 L 30.253906 7.914062 L 29.972656 7.914062 Z M 29.972656 7.914062 "/>
<path style=" stroke:none;fill-rule:nonzero;fill:rgb(34.57084%,33.380636%,33.675135%);fill-opacity:1;" d="M 30.253906 7.914062 L 30.253906 32.300781 L 30.539062 32.300781 L 30.539062 7.914062 L 30.253906 7.914062 Z M 30.253906 7.914062 "/>
<path style=" stroke:none;fill-rule:nonzero;fill:rgb(34.288548%,33.093767%,33.389792%);fill-opacity:1;" d="M 30.539062 7.914062 L 30.539062 32.300781 L 30.820312 32.300781 L 30.820312 7.914062 L 30.539062 7.914062 Z M 30.539062 7.914062 "/>
<path style=" stroke:none;fill-rule:nonzero;fill:rgb(34.016938%,32.816052%,33.113603%);fill-opacity:1;" d="M 30.820312 7.914062 L 30.820312 32.300781 L 31.105469 32.300781 L 31.105469 7.914062 L 30.820312 7.914062 Z M 30.820312 7.914062 "/>
<path style=" stroke:none;fill-rule:nonzero;fill:rgb(33.754482%,32.54902%,32.848096%);fill-opacity:1;" d="M 31.105469 7.914062 L 31.105469 32.300781 L 31.386719 32.300781 L 31.386719 7.914062 L 31.105469 7.914062 Z M 31.105469 7.914062 "/>
<path style=" stroke:none;fill-rule:nonzero;fill:rgb(33.502708%,32.292668%,32.593271%);fill-opacity:1;" d="M 31.386719 7.914062 L 31.386719 32.300781 L 31.671875 32.300781 L 31.671875 7.914062 L 31.386719 7.914062 Z M 31.386719 7.914062 "/>
<path style=" stroke:none;fill-rule:nonzero;fill:rgb(33.263142%,32.048524%,32.350652%);fill-opacity:1;" d="M 31.671875 7.914062 L 31.671875 32.300781 L 31.957031 32.300781 L 31.957031 7.914062 L 31.671875 7.914062 Z M 31.671875 7.914062 "/>
<path style=" stroke:none;fill-rule:nonzero;fill:rgb(33.032731%,31.815061%,32.117189%);fill-opacity:1;" d="M 31.957031 7.914062 L 31.957031 32.300781 L 32.238281 32.300781 L 32.238281 7.914062 L 31.957031 7.914062 Z M 31.957031 7.914062 "/>
<path style=" stroke:none;fill-rule:nonzero;fill:rgb(32.814527%,31.592279%,31.895933%);fill-opacity:1;" d="M 32.238281 7.914062 L 32.238281 32.300781 L 32.523438 32.300781 L 32.523438 7.914062 L 32.238281 7.914062 Z M 32.238281 7.914062 "/>
<path style=" stroke:none;fill-rule:nonzero;fill:rgb(32.60853%,31.381704%,31.685359%);fill-opacity:1;" d="M 32.523438 7.914062 L 32.523438 32.300781 L 32.804688 32.300781 L 32.804688 7.914062 L 32.523438 7.914062 Z M 32.523438 7.914062 "/>
<path style=" stroke:none;fill-rule:nonzero;fill:rgb(32.411688%,31.181811%,31.486992%);fill-opacity:1;" d="M 32.804688 7.914062 L 32.804688 32.300781 L 33.089844 32.300781 L 33.089844 7.914062 L 32.804688 7.914062 Z M 32.804688 7.914062 "/>
<path style=" stroke:none;fill-rule:nonzero;fill:rgb(32.225528%,30.992599%,31.299306%);fill-opacity:1;" d="M 33.089844 7.914062 L 33.089844 32.300781 L 33.371094 32.300781 L 33.371094 7.914062 L 33.089844 7.914062 Z M 33.089844 7.914062 "/>
<path style=" stroke:none;fill-rule:nonzero;fill:rgb(31.97528%,30.736248%,31.04448%);fill-opacity:1;" d="M 33.371094 7.914062 L 33.371094 32.300781 L 33.9375 32.300781 L 33.9375 7.914062 L 33.371094 7.914062 Z M 33.371094 7.914062 "/>
<path style=" stroke:none;fill-rule:nonzero;fill:rgb(31.676204%,30.432593%,30.740826%);fill-opacity:1;" d="M 33.9375 7.914062 L 33.9375 32.300781 L 34.507812 32.300781 L 34.507812 7.914062 L 33.9375 7.914062 Z M 33.9375 7.914062 "/>
<path style=" stroke:none;fill-rule:nonzero;fill:rgb(31.425956%,30.177768%,30.487526%);fill-opacity:1;" d="M 34.507812 7.914062 L 34.507812 32.300781 L 35.074219 32.300781 L 35.074219 7.914062 L 34.507812 7.914062 Z M 34.507812 7.914062 "/>
<path style=" stroke:none;fill-rule:nonzero;fill:rgb(31.227588%,29.976349%,30.287633%);fill-opacity:1;" d="M 35.074219 7.914062 L 35.074219 32.300781 L 35.640625 32.300781 L 35.640625 7.914062 L 35.074219 7.914062 Z M 35.074219 7.914062 "/>
<path style=" stroke:none;fill-rule:nonzero;fill:rgb(31.064317%,29.808499%,30.121309%);fill-opacity:1;" d="M 35.640625 7.914062 L 35.640625 32.300781 L 36.773438 32.300781 L 36.773438 7.914062 L 35.640625 7.914062 Z M 35.640625 7.914062 "/>
</g>
<path style=" stroke:none;fill-rule:nonzero;fill:rgb(70.000763%,70.000763%,70.000763%);fill-opacity:1;" d="M 18.636719 14.96875 C 28.652344 14.96875 36.773438 11.808594 36.773438 7.914062 C 36.773438 4.019531 28.652344 0.859375 18.636719 0.859375 C 8.617188 0.859375 0.5 4.019531 0.5 7.914062 C 0.5 11.808594 8.617188 14.96875 18.636719 14.96875 "/>
<path style=" stroke:none;fill-rule:nonzero;fill:rgb(100%,100%,100%);fill-opacity:1;" d="M 14.664062 5.089844 L 16.183594 7.367188 L 10.441406 8.695312 L 11.695312 7.648438 L 2.820312 6.132812 L 5.046875 4.464844 L 13.613281 5.914062 L 14.664062 5.089844 "/>
<g clip-path="url(#clip2)" clip-rule="nonzero">
<path style=" stroke:none;fill-rule:nonzero;fill:rgb(0%,0%,0%);fill-opacity:1;" d="M 10.441406 9.386719 L 11.695312 8.339844 L 11.695312 7.644531 L 10.589844 8.058594 L 9.691406 8.886719 L 10.441406 9.386719 "/>
<path style=" stroke:none;fill-rule:nonzero;fill:rgb(0%,0%,0%);fill-opacity:1;" d="M 16.667969 7.507812 L 15.21875 5.089844 L 14.457031 4.882812 L 13.558594 5.570312 L 5.066406 4.121094 L 2.371094 6.054688 L 2.820312 6.824219 L 5.046875 5.152344 L 13.613281 6.605469 L 14.664062 5.777344 L 16.183594 8.058594 L 16.667969 7.507812 "/>
</g>
<path style=" stroke:none;fill-rule:nonzero;fill:rgb(100%,100%,100%);fill-opacity:1;" d="M 22.746094 10.613281 L 21.710938 8.265625 L 26.890625 7.230469 L 25.992188 8.035156 L 34.625 9.507812 L 32.554688 11.164062 L 23.972656 9.554688 L 22.746094 10.613281 "/>
<g clip-path="url(#clip3)" clip-rule="nonzero">
<path style=" stroke:none;fill-rule:nonzero;fill:rgb(0%,0%,0%);fill-opacity:1;" d="M 21.710938 9.09375 L 26.890625 8.058594 L 27.441406 7.160156 L 26.820312 6.746094 L 21.089844 8.058594 L 21.710938 9.09375 "/>
<path style=" stroke:none;fill-rule:nonzero;fill:rgb(0%,0%,0%);fill-opacity:1;" d="M 35.039062 9.230469 L 27.027344 7.714844 L 25.992188 8.128906 L 25.992188 8.863281 L 34.625 10.339844 L 35.039062 9.230469 "/>
</g>
<path style=" stroke:none;fill-rule:nonzero;fill:rgb(100%,100%,100%);fill-opacity:1;" d="M 19.914062 3.847656 L 25.714844 2.257812 L 25.785156 4.742188 L 24.335938 4.46875 L 21.503906 6.816406 L 18.800781 6.421875 L 21.722656 4.125 L 19.914062 3.847656 "/>
<g clip-path="url(#clip4)" clip-rule="nonzero">
<path style=" stroke:none;fill-rule:nonzero;fill:rgb(0%,0%,0%);fill-opacity:1;" d="M 20.191406 4.46875 L 25.921875 2.878906 L 26.335938 2.324219 L 25.851562 1.773438 L 19.222656 3.640625 L 20.191406 4.46875 "/>
<path style=" stroke:none;fill-rule:nonzero;fill:rgb(0%,0%,0%);fill-opacity:1;" d="M 21.710938 4.121094 L 21.710938 4.949219 L 18.671875 7.300781 L 18.394531 6.125 L 20.605469 4.398438 L 21.710938 4.121094 "/>
</g>
<path style=" stroke:none;fill-rule:nonzero;fill:rgb(100%,100%,100%);fill-opacity:1;" d="M 17.429688 12.753906 L 11.902344 13.789062 L 11.695312 11.234375 L 13.285156 11.582031 L 16.324219 8.984375 L 19.015625 9.441406 L 15.769531 12.273438 L 17.429688 12.753906 "/>
<g clip-path="url(#clip5)" clip-rule="nonzero">
<path style=" stroke:none;fill-rule:nonzero;fill:rgb(0%,0%,0%);fill-opacity:1;" d="M 11.144531 10.613281 L 11.144531 11.996094 L 13.285156 12.410156 L 16.324219 9.8125 L 19.015625 10.269531 L 19.777344 9.230469 L 16.183594 8.542969 L 13.148438 11.097656 L 11.144531 10.613281 "/>
<path style=" stroke:none;fill-rule:nonzero;fill:rgb(0%,0%,0%);fill-opacity:1;" d="M 17.566406 12.066406 L 15.769531 12.273438 L 15.769531 13.101562 L 17.429688 13.582031 L 18.394531 12.753906 L 17.566406 12.066406 "/>
</g>
<path style="fill-rule:nonzero;fill:rgb(100%,100%,100%);fill-opacity:1;stroke-width:0.2;stroke-linecap:butt;stroke-linejoin:miter;stroke:rgb(0%,0%,0%);stroke-opacity:1;stroke-miterlimit:4;" d="M 24.894531 12.132812 L 26.566406 12.132812 L 26.566406 12.890625 L 24.894531 12.890625 L 24.894531 12.132812 Z M 24.894531 12.132812 " transform="matrix(1,0,0,-1,0,33)"/>
<path style="fill-rule:nonzero;fill:rgb(100%,100%,100%);fill-opacity:1;stroke-width:0.2;stroke-linecap:butt;stroke-linejoin:miter;stroke:rgb(0%,0%,0%);stroke-opacity:1;stroke-miterlimit:4;" d="M 27.148438 7.671875 L 29.238281 7.671875 L 29.238281 8.433594 L 27.148438 8.433594 L 27.148438 7.671875 Z M 27.148438 7.671875 " transform="matrix(1,0,0,-1,0,33)"/>
<path style="fill-rule:nonzero;fill:rgb(100%,100%,100%);fill-opacity:1;stroke-width:0.2;stroke-linecap:butt;stroke-linejoin:miter;stroke:rgb(0%,0%,0%);stroke-opacity:1;stroke-miterlimit:4;" d="M 6.976562 7.671875 L 9.203125 7.671875 L 9.203125 8.433594 L 6.976562 8.433594 L 6.976562 7.671875 Z M 6.976562 7.671875 " transform="matrix(1,0,0,-1,0,33)"/>
<path style="fill-rule:nonzero;fill:rgb(100%,100%,100%);fill-opacity:1;stroke-width:0.2;stroke-linecap:butt;stroke-linejoin:miter;stroke:rgb(0%,0%,0%);stroke-opacity:1;stroke-miterlimit:4;" d="M 9.300781 11.992188 L 11.390625 11.992188 L 11.390625 12.75 L 9.300781 12.75 L 9.300781 11.992188 Z M 9.300781 11.992188 " transform="matrix(1,0,0,-1,0,33)"/>
<path style="fill-rule:nonzero;fill:rgb(100%,100%,100%);fill-opacity:1;stroke-width:0.2;stroke-linecap:butt;stroke-linejoin:miter;stroke:rgb(0%,0%,0%);stroke-opacity:1;stroke-miterlimit:4;" d="M 23.058594 12.273438 L 23.046875 3.925781 L 13.371094 3.925781 L 13.359375 12.273438 L 23.058594 12.273438 Z M 23.058594 12.273438 " transform="matrix(1,0,0,-1,0,33)"/>
<path style="fill:none;stroke-width:0.152;stroke-linecap:butt;stroke-linejoin:miter;stroke:rgb(0.999466%,0.999466%,0.999466%);stroke-opacity:1;stroke-miterlimit:4;" d="M 14.425781 11.402344 L 22.027344 11.402344 L 22.027344 9.882812 L 14.425781 9.882812 L 14.425781 11.402344 Z M 14.425781 8.527344 L 22.027344 8.527344 L 22.027344 4.726562 L 14.425781 4.726562 L 14.425781 8.527344 Z M 14.425781 8.527344 " transform="matrix(1,0,0,-1,0,33)"/>
<path style="fill-rule:nonzero;fill:rgb(100%,100%,100%);fill-opacity:1;stroke-width:0.2;stroke-linecap:butt;stroke-linejoin:miter;stroke:rgb(0%,0%,0%);stroke-opacity:1;stroke-miterlimit:4;" d="M 20.195312 15.242188 C 20.195312 15.242188 20.675781 15.296875 20.78125 14.816406 L 20.890625 13.273438 L 24.082031 12.742188 L 24.398438 13.433594 L 23.601562 15.347656 C 19.507812 16.359375 18.070312 16.039062 18.070312 16.039062 L 18.226562 16.039062 C 18.226562 16.039062 16.792969 16.359375 12.695312 15.347656 L 11.898438 13.433594 L 12.21875 12.742188 L 15.410156 13.273438 L 15.515625 14.816406 C 15.621094 15.296875 16.101562 15.242188 16.101562 15.242188 L 20.195312 15.242188 Z M 20.195312 15.242188 " transform="matrix(1,0,0,-1,0,33)"/>
<path style="fill:none;stroke-width:0.152;stroke-linecap:butt;stroke-linejoin:miter;stroke:rgb(0.999466%,0.999466%,0.999466%);stroke-opacity:1;stroke-miterlimit:4;" d="M 22.023438 9.21875 L 14.425781 9.21875 " transform="matrix(1,0,0,-1,0,33)"/>
<path style="fill-rule:nonzero;fill:rgb(100%,100%,100%);fill-opacity:1;stroke-width:0.2;stroke-linecap:butt;stroke-linejoin:miter;stroke:rgb(0%,0%,0%);stroke-opacity:1;stroke-miterlimit:4;" d="M 28.03125 5.625 L 28.03125 10.222656 L 25.261719 8.015625 L 28.03125 5.625 Z M 28.03125 5.625 " transform="matrix(1,0,0,-1,0,33)"/>
<path style="fill-rule:nonzero;fill:rgb(100%,100%,100%);fill-opacity:1;stroke-width:0.2;stroke-linecap:butt;stroke-linejoin:miter;stroke:rgb(0%,0%,0%);stroke-opacity:1;stroke-miterlimit:4;" d="M 8.464844 5.625 L 8.464844 10.222656 L 11.230469 8.015625 L 8.464844 5.625 Z M 8.464844 5.625 " transform="matrix(1,0,0,-1,0,33)"/>
<path style="fill-rule:nonzero;fill:rgb(100%,100%,100%);fill-opacity:1;stroke-width:0.2;stroke-linecap:butt;stroke-linejoin:miter;stroke:rgb(0%,0%,0%);stroke-opacity:1;stroke-miterlimit:4;" d="M 10.320312 14.75 L 10.320312 10.152344 L 7.550781 12.359375 L 10.320312 14.75 Z M 10.320312 14.75 " transform="matrix(1,0,0,-1,0,33)"/>
<path style="fill-rule:nonzero;fill:rgb(100%,100%,100%);fill-opacity:1;stroke-width:0.2;stroke-linecap:butt;stroke-linejoin:miter;stroke:rgb(0%,0%,0%);stroke-opacity:1;stroke-miterlimit:4;" d="M 25.964844 14.75 L 25.964844 10.152344 L 28.730469 12.359375 L 25.964844 14.75 Z M 25.964844 14.75 " transform="matrix(1,0,0,-1,0,33)"/>
</g>
</svg>
