<?xml version="1.0" encoding="UTF-8"?>
<svg xmlns="http://www.w3.org/2000/svg" xmlns:xlink="http://www.w3.org/1999/xlink" width="28" height="29" viewBox="0 0 28 29" version="1.1">
<g id="surface0">
<path style=" stroke:none;fill-rule:nonzero;fill:rgb(50.000763%,50.000763%,50.000763%);fill-opacity:1;" d="M 0.492188 5.390625 L 23.167969 5.390625 L 23.167969 28.464844 L 0.492188 28.464844 L 0.492188 5.390625 Z M 0.492188 5.390625 "/>
<path style="fill:none;stroke-width:1.425;stroke-linecap:butt;stroke-linejoin:miter;stroke:rgb(0%,0%,0%);stroke-opacity:1;stroke-miterlimit:4;" d="M 4.570312 5.648438 L 9.359375 5.648438 L 15.96875 19.164062 L 20.539062 19.164062 " transform="matrix(1,0,0,-1,0,29)"/>
<path style=" stroke:none;fill-rule:nonzero;fill:rgb(0%,0%,0%);fill-opacity:1;" d="M 19.199219 7.414062 L 19.199219 12.210938 L 22.089844 9.90625 L 19.199219 7.414062 "/>
<path style=" stroke:none;fill-rule:nonzero;fill:rgb(0%,0%,0%);fill-opacity:1;" d="M 5.398438 25.820312 L 5.398438 21.023438 L 2.507812 23.328125 L 5.398438 25.820312 "/>
<path style=" stroke:none;fill-rule:nonzero;fill:rgb(100%,100%,100%);fill-opacity:1;" d="M 4.738281 26.273438 L 4.738281 21.476562 L 1.847656 23.78125 L 4.738281 26.273438 "/>
<path style=" stroke:none;fill-rule:nonzero;fill:rgb(100%,100%,100%);fill-opacity:1;" d="M 18.664062 7.804688 L 18.664062 12.597656 L 21.554688 10.296875 L 18.664062 7.804688 "/>
<path style=" stroke:none;fill-rule:nonzero;fill:rgb(0%,0%,0%);fill-opacity:1;" d="M 5.398438 12.320312 L 5.398438 7.523438 L 2.507812 9.828125 L 5.398438 12.320312 "/>
<path style=" stroke:none;fill-rule:nonzero;fill:rgb(100%,100%,100%);fill-opacity:1;" d="M 4.738281 12.773438 L 4.738281 7.976562 L 1.847656 10.28125 L 4.738281 12.773438 "/>
<path style="fill:none;stroke-width:1.425;stroke-linecap:butt;stroke-linejoin:miter;stroke:rgb(0%,0%,0%);stroke-opacity:1;stroke-miterlimit:4;" d="M 20.632812 5.597656 L 15.925781 5.597656 L 9.191406 19.179688 L 5.179688 19.179688 " transform="matrix(1,0,0,-1,0,29)"/>
<path style="fill:none;stroke-width:1.425;stroke-linecap:butt;stroke-linejoin:miter;stroke:rgb(100%,100%,100%);stroke-opacity:1;stroke-miterlimit:4;" d="M 20.519531 5.175781 L 15.558594 5.175781 L 8.828125 18.757812 L 3.691406 18.757812 " transform="matrix(1,0,0,-1,0,29)"/>
<path style=" stroke:none;fill-rule:nonzero;fill:rgb(70.000763%,70.000763%,70.000763%);fill-opacity:1;" d="M 27.757812 0.796875 L 23.167969 5.382812 L 0.464844 5.382812 L 5.367188 0.796875 L 27.757812 0.796875 "/>
<path style=" stroke:none;fill-rule:nonzero;fill:rgb(20%,20%,20%);fill-opacity:1;" d="M 27.789062 22.90625 L 27.789062 0.8125 L 23.167969 5.40625 L 23.167969 28.375 L 27.789062 22.90625 "/>
<path style="fill:none;stroke-width:1.425;stroke-linecap:butt;stroke-linejoin:miter;stroke:rgb(100%,100%,100%);stroke-opacity:1;stroke-miterlimit:4;" d="M 3.722656 5.195312 L 8.515625 5.195312 L 15.183594 18.710938 L 20.378906 18.710938 " transform="matrix(1,0,0,-1,0,29)"/>
<path style=" stroke:none;fill-rule:nonzero;fill:rgb(0%,0%,0%);fill-opacity:1;" d="M 19.199219 20.976562 L 19.199219 25.769531 L 22.089844 23.46875 L 19.199219 20.976562 "/>
<path style=" stroke:none;fill-rule:nonzero;fill:rgb(100%,100%,100%);fill-opacity:1;" d="M 18.664062 21.367188 L 18.664062 26.160156 L 21.554688 23.859375 L 18.664062 21.367188 "/>
</g>
</svg>