<?xml version="1.0" encoding="UTF-8"?>
<svg xmlns="http://www.w3.org/2000/svg" xmlns:xlink="http://www.w3.org/1999/xlink" width="35" height="32" viewBox="0 0 35 32" version="1.1">
<g id="surface0">
<path style="fill-rule:nonzero;fill:rgb(50.000763%,50.000763%,50.000763%);fill-opacity:1;stroke-width:0.385;stroke-linecap:butt;stroke-linejoin:miter;stroke:rgb(100%,100%,100%);stroke-opacity:1;stroke-miterlimit:4;" d="M 34.890625 24.476562 L 34.890625 7.632812 L 26.492188 0.914062 L 9.042969 0.914062 L 0.320312 7.632812 L 0.320312 24.476562 " transform="matrix(1,0,0,-1,0,32)"/>
<path style="fill-rule:nonzero;fill:rgb(70.000763%,70.000763%,70.000763%);fill-opacity:1;stroke-width:0.385;stroke-linecap:butt;stroke-linejoin:miter;stroke:rgb(100%,100%,100%);stroke-opacity:1;stroke-miterlimit:4;" d="M 26.328125 31.066406 L 9.210938 31.066406 L 0.320312 24.476562 L 9.042969 17.757812 L 26.492188 17.757812 L 34.890625 24.476562 L 26.328125 31.066406 Z M 26.328125 31.066406 " transform="matrix(1,0,0,-1,0,32)"/>
<path style="fill:none;stroke-width:0.385;stroke-linecap:butt;stroke-linejoin:miter;stroke:rgb(100%,100%,100%);stroke-opacity:1;stroke-miterlimit:4;" d="M 8.894531 1.023438 L 8.894531 17.757812 M 26.460938 1.023438 L 26.460938 17.757812 " transform="matrix(1,0,0,-1,0,32)"/>
<path style="fill:none;stroke-width:0.577;stroke-linecap:butt;stroke-linejoin:miter;stroke:rgb(100%,100%,100%);stroke-opacity:1;stroke-miterlimit:1;" d="M 17.839844 29.390625 L 17.839844 19.667969 M 27 24.527344 L 9.15625 24.527344 M 9.15625 28.902344 L 13.496094 28.902344 L 22.660156 19.667969 L 26.519531 19.667969 M 26.519531 28.902344 L 22.660156 28.902344 L 13.496094 19.667969 L 9.15625 19.667969 M 27 24.527344 L 9.15625 24.527344 M 9.15625 28.902344 L 13.496094 28.902344 L 22.660156 19.667969 L 26.519531 19.667969 M 26.519531 28.902344 L 22.660156 28.902344 L 13.496094 19.667969 L 9.15625 19.667969 M 17.839844 29.390625 L 17.839844 19.183594 M 17.839844 29.390625 L 17.839844 19.667969 M 27 24.527344 L 9.15625 24.527344 M 9.15625 28.902344 L 13.496094 28.902344 L 22.660156 19.667969 L 26.519531 19.667969 M 26.519531 28.902344 L 22.660156 28.902344 L 13.496094 19.667969 L 9.15625 19.667969 M 9.15625 28.902344 L 13.496094 28.902344 L 22.660156 19.667969 L 26.519531 19.667969 M 26.519531 28.902344 L 22.660156 28.902344 L 13.496094 19.667969 L 9.15625 19.667969 M 27 24.527344 L 9.15625 24.527344 M 9.15625 28.902344 L 13.496094 28.902344 L 22.660156 19.667969 L 26.519531 19.667969 M 26.519531 28.902344 L 22.660156 28.902344 L 13.496094 19.667969 L 9.15625 19.667969 M 9.15625 28.902344 L 13.496094 28.902344 L 22.660156 19.667969 L 26.519531 19.667969 M 26.519531 28.902344 L 22.660156 28.902344 L 13.496094 19.667969 L 9.15625 19.667969 M 17.839844 29.390625 L 17.839844 19.183594 " transform="matrix(1,0,0,-1,0,32)"/>
<path style=" stroke:none;fill-rule:nonzero;fill:rgb(100%,100%,100%);fill-opacity:1;" d="M 15.648438 20.953125 L 19.117188 20.953125 L 19.117188 23.96875 L 15.648438 23.96875 L 15.648438 20.953125 Z M 15.648438 20.953125 "/>
<path style="fill:none;stroke-width:1;stroke-linecap:butt;stroke-linejoin:miter;stroke:rgb(100%,100%,100%);stroke-opacity:1;stroke-miterlimit:4;" d="M 22.871094 9.796875 L 18.261719 9.796875 " transform="matrix(1,0,0,-1,0,32)"/>
<path style=" stroke:none;fill-rule:nonzero;fill:rgb(100%,100%,100%);fill-opacity:1;" d="M 25.289062 22.238281 L 21.046875 23.976562 L 22.054688 22.238281 L 21.046875 20.507812 L 25.289062 22.238281 "/>
<path style="fill:none;stroke-width:1;stroke-linecap:butt;stroke-linejoin:miter;stroke:rgb(100%,100%,100%);stroke-opacity:1;stroke-miterlimit:4;" d="M 12.207031 9.796875 L 16.011719 9.796875 " transform="matrix(1,0,0,-1,0,32)"/>
<path style=" stroke:none;fill-rule:nonzero;fill:rgb(100%,100%,100%);fill-opacity:1;" d="M 13.960938 20.40625 L 12.953125 22.140625 L 13.960938 23.875 L 9.71875 22.140625 L 13.960938 20.40625 "/>
<path style="fill:none;stroke-width:1;stroke-linecap:butt;stroke-linejoin:miter;stroke:rgb(100%,100%,100%);stroke-opacity:1;stroke-miterlimit:4;" d="M 17.398438 14.476562 L 17.398438 10.148438 " transform="matrix(1,0,0,-1,0,32)"/>
<path style=" stroke:none;fill-rule:nonzero;fill:rgb(100%,100%,100%);fill-opacity:1;" d="M 17.429688 15.15625 L 19.160156 19.398438 L 17.429688 18.394531 L 15.695312 19.398438 L 17.429688 15.15625 "/>
<path style="fill:none;stroke-width:1;stroke-linecap:butt;stroke-linejoin:miter;stroke:rgb(100%,100%,100%);stroke-opacity:1;stroke-miterlimit:4;" d="M 17.398438 4.261719 L 17.398438 8.523438 " transform="matrix(1,0,0,-1,0,32)"/>
<path style=" stroke:none;fill-rule:nonzero;fill:rgb(100%,100%,100%);fill-opacity:1;" d="M 15.660156 25.945312 L 17.394531 26.953125 L 19.128906 25.945312 L 17.394531 30.191406 L 15.660156 25.945312 "/>
</g>
</svg>
