<?xml version="1.0" encoding="UTF-8"?>
<svg xmlns="http://www.w3.org/2000/svg" xmlns:xlink="http://www.w3.org/1999/xlink" width="24" height="34" viewBox="0 0 24 34" version="1.1">
<defs>
<clipPath id="clip1">
  <path d="M 9.738281 6.253906 C 9.738281 6.253906 7.15625 7.773438 4.183594 7.433594 L 0.445312 7.113281 L 0.445312 33.757812 L 4.183594 33.914062 C 7.980469 34.246094 9.757812 32.882812 9.757812 32.882812 L 9.738281 6.253906 "/>
</clipPath>
<clipPath id="clip2">
  <path d="M 0 0.0390625 L 24 0.0390625 L 24 34 L 0 34 L 0 0.0390625 Z M 0 0.0390625 "/>
</clipPath>
</defs>
<g id="surface0">
<path style=" stroke:none;fill-rule:nonzero;fill:rgb(60%,60%,60%);fill-opacity:1;" d="M 18.679688 6.164062 L 9.753906 6.164062 L 9.804688 32.863281 L 18.679688 32.863281 L 18.679688 6.164062 "/>
<path style=" stroke:none;fill-rule:nonzero;fill:rgb(29.999237%,29.999237%,29.999237%);fill-opacity:1;" d="M 11.023438 9.851562 L 17.316406 9.851562 L 17.316406 15.894531 L 11.023438 15.894531 L 11.023438 9.851562 Z M 11.023438 9.851562 "/>
<path style=" stroke:none;fill-rule:nonzero;fill:rgb(20%,20%,20%);fill-opacity:1;" d="M 23.972656 0.785156 L 18.691406 6.273438 L 18.691406 32.867188 L 23.96875 26.613281 L 23.972656 0.785156 "/>
<path style="fill:none;stroke-width:0.132;stroke-linecap:butt;stroke-linejoin:miter;stroke:rgb(20%,20%,20%);stroke-opacity:1;stroke-miterlimit:4;" d="M 2.007812 27.992188 L 9.316406 27.992188 M 10.804688 28.878906 L 14.15625 32.550781 " transform="matrix(1,0,0,-1,0,34)"/>
<path style=" stroke:none;fill-rule:nonzero;fill:rgb(70.000763%,70.000763%,70.000763%);fill-opacity:1;" d="M 9.46875 6.5625 C 9.46875 6.5625 9.425781 8.328125 6.210938 8.292969 L 0.515625 7.421875 L 0.515625 7.078125 L 8.523438 0.695312 L 23.929688 0.710938 L 18.734375 6.160156 L 9.8125 6.160156 "/>
<g clip-path="url(#clip1)" clip-rule="nonzero">
<g clip-path="url(#clip2)" clip-rule="nonzero">
<path style=" stroke:none;fill-rule:nonzero;fill:rgb(87.606622%,87.380789%,87.437247%);fill-opacity:1;" d="M 0.445312 6.253906 L 0.445312 34 L 0.589844 34 L 0.589844 6.253906 L 0.445312 6.253906 Z M 0.445312 6.253906 "/>
<path style=" stroke:none;fill-rule:nonzero;fill:rgb(87.290761%,87.060349%,87.116808%);fill-opacity:1;" d="M 0.589844 6.253906 L 0.589844 34 L 0.734375 34 L 0.734375 6.253906 L 0.589844 6.253906 Z M 0.589844 6.253906 "/>
<path style=" stroke:none;fill-rule:nonzero;fill:rgb(86.961166%,86.724651%,86.784161%);fill-opacity:1;" d="M 0.734375 6.253906 L 0.734375 34 L 0.882812 34 L 0.882812 6.253906 L 0.734375 6.253906 Z M 0.734375 6.253906 "/>
<path style=" stroke:none;fill-rule:nonzero;fill:rgb(86.707866%,86.465248%,86.526284%);fill-opacity:1;" d="M 0.882812 6.253906 L 0.882812 34 L 0.953125 34 L 0.953125 6.253906 L 0.882812 6.253906 Z M 0.882812 6.253906 "/>
<path style=" stroke:none;fill-rule:nonzero;fill:rgb(86.535439%,86.289769%,86.350805%);fill-opacity:1;" d="M 0.953125 6.253906 L 0.953125 34 L 1.027344 34 L 1.027344 6.253906 L 0.953125 6.253906 Z M 0.953125 6.253906 "/>
<path style=" stroke:none;fill-rule:nonzero;fill:rgb(86.356909%,86.109712%,86.170748%);fill-opacity:1;" d="M 1.027344 6.253906 L 1.027344 34 L 1.101562 34 L 1.101562 6.253906 L 1.027344 6.253906 Z M 1.027344 6.253906 "/>
<path style=" stroke:none;fill-rule:nonzero;fill:rgb(86.178378%,85.926604%,85.989166%);fill-opacity:1;" d="M 1.101562 6.253906 L 1.101562 34 L 1.171875 34 L 1.171875 6.253906 L 1.101562 6.253906 Z M 1.101562 6.253906 "/>
<path style=" stroke:none;fill-rule:nonzero;fill:rgb(85.99527%,85.740444%,85.804532%);fill-opacity:1;" d="M 1.171875 6.253906 L 1.171875 34 L 1.246094 34 L 1.246094 6.253906 L 1.171875 6.253906 Z M 1.171875 6.253906 "/>
<path style=" stroke:none;fill-rule:nonzero;fill:rgb(85.810636%,85.551232%,85.61532%);fill-opacity:1;" d="M 1.246094 6.253906 L 1.246094 34 L 1.316406 34 L 1.316406 6.253906 L 1.246094 6.253906 Z M 1.246094 6.253906 "/>
<path style=" stroke:none;fill-rule:nonzero;fill:rgb(85.621424%,85.360494%,85.424582%);fill-opacity:1;" d="M 1.316406 6.253906 L 1.316406 34 L 1.390625 34 L 1.390625 6.253906 L 1.316406 6.253906 Z M 1.316406 6.253906 "/>
<path style=" stroke:none;fill-rule:nonzero;fill:rgb(85.42916%,85.163653%,85.230793%);fill-opacity:1;" d="M 1.390625 6.253906 L 1.390625 34 L 1.464844 34 L 1.464844 6.253906 L 1.390625 6.253906 Z M 1.390625 6.253906 "/>
<path style=" stroke:none;fill-rule:nonzero;fill:rgb(85.23537%,84.966812%,85.033951%);fill-opacity:1;" d="M 1.464844 6.253906 L 1.464844 34 L 1.535156 34 L 1.535156 6.253906 L 1.464844 6.253906 Z M 1.464844 6.253906 "/>
<path style=" stroke:none;fill-rule:nonzero;fill:rgb(85.037003%,84.765393%,84.832532%);fill-opacity:1;" d="M 1.535156 6.253906 L 1.535156 34 L 1.609375 34 L 1.609375 6.253906 L 1.535156 6.253906 Z M 1.535156 6.253906 "/>
<path style=" stroke:none;fill-rule:nonzero;fill:rgb(84.83711%,84.560922%,84.629587%);fill-opacity:1;" d="M 1.609375 6.253906 L 1.609375 34 L 1.679688 34 L 1.679688 6.253906 L 1.609375 6.253906 Z M 1.609375 6.253906 "/>
<path style=" stroke:none;fill-rule:nonzero;fill:rgb(84.632639%,84.353399%,84.42359%);fill-opacity:1;" d="M 1.679688 6.253906 L 1.679688 34 L 1.753906 34 L 1.753906 6.253906 L 1.679688 6.253906 Z M 1.679688 6.253906 "/>
<path style=" stroke:none;fill-rule:nonzero;fill:rgb(84.426642%,84.142824%,84.213016%);fill-opacity:1;" d="M 1.753906 6.253906 L 1.753906 34 L 1.828125 34 L 1.828125 6.253906 L 1.753906 6.253906 Z M 1.753906 6.253906 "/>
<path style=" stroke:none;fill-rule:nonzero;fill:rgb(84.216068%,83.929198%,83.99939%);fill-opacity:1;" d="M 1.828125 6.253906 L 1.828125 34 L 1.898438 34 L 1.898438 6.253906 L 1.828125 6.253906 Z M 1.828125 6.253906 "/>
<path style=" stroke:none;fill-rule:nonzero;fill:rgb(84.003967%,83.71252%,83.785763%);fill-opacity:1;" d="M 1.898438 6.253906 L 1.898438 34 L 1.972656 34 L 1.972656 6.253906 L 1.898438 6.253906 Z M 1.898438 6.253906 "/>
<path style=" stroke:none;fill-rule:nonzero;fill:rgb(83.787289%,83.49279%,83.566033%);fill-opacity:1;" d="M 1.972656 6.253906 L 1.972656 34 L 2.046875 34 L 2.046875 6.253906 L 1.972656 6.253906 Z M 1.972656 6.253906 "/>
<path style=" stroke:none;fill-rule:nonzero;fill:rgb(83.569085%,83.270008%,83.344778%);fill-opacity:1;" d="M 2.046875 6.253906 L 2.046875 34 L 2.117188 34 L 2.117188 6.253906 L 2.046875 6.253906 Z M 2.046875 6.253906 "/>
<path style=" stroke:none;fill-rule:nonzero;fill:rgb(83.346304%,83.044175%,83.118944%);fill-opacity:1;" d="M 2.117188 6.253906 L 2.117188 34 L 2.191406 34 L 2.191406 6.253906 L 2.117188 6.253906 Z M 2.117188 6.253906 "/>
<path style=" stroke:none;fill-rule:nonzero;fill:rgb(83.121996%,82.81529%,82.891585%);fill-opacity:1;" d="M 2.191406 6.253906 L 2.191406 34 L 2.261719 34 L 2.261719 6.253906 L 2.191406 6.253906 Z M 2.191406 6.253906 "/>
<path style=" stroke:none;fill-rule:nonzero;fill:rgb(82.894636%,82.583352%,82.659648%);fill-opacity:1;" d="M 2.261719 6.253906 L 2.261719 34 L 2.335938 34 L 2.335938 6.253906 L 2.261719 6.253906 Z M 2.261719 6.253906 "/>
<path style=" stroke:none;fill-rule:nonzero;fill:rgb(82.664225%,82.348363%,82.426184%);fill-opacity:1;" d="M 2.335938 6.253906 L 2.335938 34 L 2.410156 34 L 2.410156 6.253906 L 2.335938 6.253906 Z M 2.335938 6.253906 "/>
<path style=" stroke:none;fill-rule:nonzero;fill:rgb(82.429236%,82.110323%,82.18967%);fill-opacity:1;" d="M 2.410156 6.253906 L 2.410156 34 L 2.480469 34 L 2.480469 6.253906 L 2.410156 6.253906 Z M 2.410156 6.253906 "/>
<path style=" stroke:none;fill-rule:nonzero;fill:rgb(82.194247%,81.86923%,81.950103%);fill-opacity:1;" d="M 2.480469 6.253906 L 2.480469 34 L 2.554688 34 L 2.554688 6.253906 L 2.480469 6.253906 Z M 2.480469 6.253906 "/>
<path style=" stroke:none;fill-rule:nonzero;fill:rgb(81.953155%,81.625086%,81.705959%);fill-opacity:1;" d="M 2.554688 6.253906 L 2.554688 34 L 2.628906 34 L 2.628906 6.253906 L 2.554688 6.253906 Z M 2.554688 6.253906 "/>
<path style=" stroke:none;fill-rule:nonzero;fill:rgb(81.710536%,81.37789%,81.460288%);fill-opacity:1;" d="M 2.628906 6.253906 L 2.628906 34 L 2.699219 34 L 2.699219 6.253906 L 2.628906 6.253906 Z M 2.628906 6.253906 "/>
<path style=" stroke:none;fill-rule:nonzero;fill:rgb(81.464866%,81.127642%,81.211566%);fill-opacity:1;" d="M 2.699219 6.253906 L 2.699219 34 L 2.773438 34 L 2.773438 6.253906 L 2.699219 6.253906 Z M 2.699219 6.253906 "/>
<path style=" stroke:none;fill-rule:nonzero;fill:rgb(81.216144%,80.874342%,80.958267%);fill-opacity:1;" d="M 2.773438 6.253906 L 2.773438 34 L 2.84375 34 L 2.84375 6.253906 L 2.773438 6.253906 Z M 2.773438 6.253906 "/>
<path style=" stroke:none;fill-rule:nonzero;fill:rgb(80.962844%,80.616464%,80.701915%);fill-opacity:1;" d="M 2.84375 6.253906 L 2.84375 34 L 2.917969 34 L 2.917969 6.253906 L 2.84375 6.253906 Z M 2.84375 6.253906 "/>
<path style=" stroke:none;fill-rule:nonzero;fill:rgb(80.709545%,80.358587%,80.445563%);fill-opacity:1;" d="M 2.917969 6.253906 L 2.917969 34 L 2.992188 34 L 2.992188 6.253906 L 2.917969 6.253906 Z M 2.917969 6.253906 "/>
<path style=" stroke:none;fill-rule:nonzero;fill:rgb(80.451667%,80.094606%,80.183108%);fill-opacity:1;" d="M 2.992188 6.253906 L 2.992188 34 L 3.0625 34 L 3.0625 6.253906 L 2.992188 6.253906 Z M 2.992188 6.253906 "/>
<path style=" stroke:none;fill-rule:nonzero;fill:rgb(80.190738%,79.829099%,79.919127%);fill-opacity:1;" d="M 3.0625 6.253906 L 3.0625 34 L 3.136719 34 L 3.136719 6.253906 L 3.0625 6.253906 Z M 3.0625 6.253906 "/>
<path style=" stroke:none;fill-rule:nonzero;fill:rgb(79.925231%,79.56054%,79.650568%);fill-opacity:1;" d="M 3.136719 6.253906 L 3.136719 34 L 3.210938 34 L 3.210938 6.253906 L 3.136719 6.253906 Z M 3.136719 6.253906 "/>
<path style=" stroke:none;fill-rule:nonzero;fill:rgb(79.658198%,79.28893%,79.380484%);fill-opacity:1;" d="M 3.210938 6.253906 L 3.210938 34 L 3.28125 34 L 3.28125 6.253906 L 3.210938 6.253906 Z M 3.210938 6.253906 "/>
<path style=" stroke:none;fill-rule:nonzero;fill:rgb(79.388113%,79.014267%,79.107347%);fill-opacity:1;" d="M 3.28125 6.253906 L 3.28125 34 L 3.355469 34 L 3.355469 6.253906 L 3.28125 6.253906 Z M 3.28125 6.253906 "/>
<path style=" stroke:none;fill-rule:nonzero;fill:rgb(79.116503%,78.736553%,78.831159%);fill-opacity:1;" d="M 3.355469 6.253906 L 3.355469 34 L 3.425781 34 L 3.425781 6.253906 L 3.355469 6.253906 Z M 3.355469 6.253906 "/>
<path style=" stroke:none;fill-rule:nonzero;fill:rgb(78.840314%,78.455787%,78.551919%);fill-opacity:1;" d="M 3.425781 6.253906 L 3.425781 34 L 3.5 34 L 3.5 6.253906 L 3.425781 6.253906 Z M 3.425781 6.253906 "/>
<path style=" stroke:none;fill-rule:nonzero;fill:rgb(78.5626%,78.171969%,78.268101%);fill-opacity:1;" d="M 3.5 6.253906 L 3.5 34 L 3.574219 34 L 3.574219 6.253906 L 3.5 6.253906 Z M 3.5 6.253906 "/>
<path style=" stroke:none;fill-rule:nonzero;fill:rgb(78.280308%,77.8851%,77.982757%);fill-opacity:1;" d="M 3.574219 6.253906 L 3.574219 34 L 3.644531 34 L 3.644531 6.253906 L 3.574219 6.253906 Z M 3.574219 6.253906 "/>
<path style=" stroke:none;fill-rule:nonzero;fill:rgb(77.994965%,77.593652%,77.692836%);fill-opacity:1;" d="M 3.644531 6.253906 L 3.644531 34 L 3.71875 34 L 3.71875 6.253906 L 3.644531 6.253906 Z M 3.644531 6.253906 "/>
<path style=" stroke:none;fill-rule:nonzero;fill:rgb(77.706569%,77.300679%,77.401389%);fill-opacity:1;" d="M 3.71875 6.253906 L 3.71875 34 L 3.792969 34 L 3.792969 6.253906 L 3.71875 6.253906 Z M 3.71875 6.253906 "/>
<path style=" stroke:none;fill-rule:nonzero;fill:rgb(77.415122%,77.004654%,77.106889%);fill-opacity:1;" d="M 3.792969 6.253906 L 3.792969 34 L 3.863281 34 L 3.863281 6.253906 L 3.792969 6.253906 Z M 3.792969 6.253906 "/>
<path style=" stroke:none;fill-rule:nonzero;fill:rgb(77.122148%,76.705577%,76.809339%);fill-opacity:1;" d="M 3.863281 6.253906 L 3.863281 34 L 3.9375 34 L 3.9375 6.253906 L 3.863281 6.253906 Z M 3.863281 6.253906 "/>
<path style=" stroke:none;fill-rule:nonzero;fill:rgb(76.826123%,76.403449%,76.508736%);fill-opacity:1;" d="M 3.9375 6.253906 L 3.9375 34 L 4.007812 34 L 4.007812 6.253906 L 3.9375 6.253906 Z M 3.9375 6.253906 "/>
<path style=" stroke:none;fill-rule:nonzero;fill:rgb(76.525521%,76.098268%,76.205081%);fill-opacity:1;" d="M 4.007812 6.253906 L 4.007812 34 L 4.082031 34 L 4.082031 6.253906 L 4.007812 6.253906 Z M 4.007812 6.253906 "/>
<path style=" stroke:none;fill-rule:nonzero;fill:rgb(76.223392%,75.790036%,75.896849%);fill-opacity:1;" d="M 4.082031 6.253906 L 4.082031 34 L 4.15625 34 L 4.15625 6.253906 L 4.082031 6.253906 Z M 4.082031 6.253906 "/>
<path style=" stroke:none;fill-rule:nonzero;fill:rgb(75.916686%,75.478752%,75.588617%);fill-opacity:1;" d="M 4.15625 6.253906 L 4.15625 34 L 4.226562 34 L 4.226562 6.253906 L 4.15625 6.253906 Z M 4.15625 6.253906 "/>
<path style=" stroke:none;fill-rule:nonzero;fill:rgb(75.608453%,75.164416%,75.274281%);fill-opacity:1;" d="M 4.226562 6.253906 L 4.226562 34 L 4.300781 34 L 4.300781 6.253906 L 4.226562 6.253906 Z M 4.226562 6.253906 "/>
<path style=" stroke:none;fill-rule:nonzero;fill:rgb(75.295644%,74.847028%,74.958419%);fill-opacity:1;" d="M 4.300781 6.253906 L 4.300781 34 L 4.375 34 L 4.375 6.253906 L 4.300781 6.253906 Z M 4.300781 6.253906 "/>
<path style=" stroke:none;fill-rule:nonzero;fill:rgb(74.981308%,74.526589%,74.639506%);fill-opacity:1;" d="M 4.375 6.253906 L 4.375 34 L 4.445312 34 L 4.445312 6.253906 L 4.375 6.253906 Z M 4.375 6.253906 "/>
<path style=" stroke:none;fill-rule:nonzero;fill:rgb(74.66392%,74.203098%,74.31754%);fill-opacity:1;" d="M 4.445312 6.253906 L 4.445312 34 L 4.519531 34 L 4.519531 6.253906 L 4.445312 6.253906 Z M 4.445312 6.253906 "/>
<path style=" stroke:none;fill-rule:nonzero;fill:rgb(74.343481%,73.876555%,73.992523%);fill-opacity:1;" d="M 4.519531 6.253906 L 4.519531 34 L 4.589844 34 L 4.589844 6.253906 L 4.519531 6.253906 Z M 4.519531 6.253906 "/>
<path style=" stroke:none;fill-rule:nonzero;fill:rgb(74.019989%,73.54696%,73.664454%);fill-opacity:1;" d="M 4.589844 6.253906 L 4.589844 34 L 4.664062 34 L 4.664062 6.253906 L 4.589844 6.253906 Z M 4.589844 6.253906 "/>
<path style=" stroke:none;fill-rule:nonzero;fill:rgb(73.69192%,73.214313%,73.333333%);fill-opacity:1;" d="M 4.664062 6.253906 L 4.664062 34 L 4.738281 34 L 4.738281 6.253906 L 4.664062 6.253906 Z M 4.664062 6.253906 "/>
<path style=" stroke:none;fill-rule:nonzero;fill:rgb(73.363851%,72.878614%,72.999161%);fill-opacity:1;" d="M 4.738281 6.253906 L 4.738281 34 L 4.808594 34 L 4.808594 6.253906 L 4.738281 6.253906 Z M 4.738281 6.253906 "/>
<path style=" stroke:none;fill-rule:nonzero;fill:rgb(73.031205%,72.539864%,72.661936%);fill-opacity:1;" d="M 4.808594 6.253906 L 4.808594 34 L 4.882812 34 L 4.882812 6.253906 L 4.808594 6.253906 Z M 4.808594 6.253906 "/>
<path style=" stroke:none;fill-rule:nonzero;fill:rgb(72.695506%,72.198062%,72.32166%);fill-opacity:1;" d="M 4.882812 6.253906 L 4.882812 34 L 4.953125 34 L 4.953125 6.253906 L 4.882812 6.253906 Z M 4.882812 6.253906 "/>
<path style=" stroke:none;fill-rule:nonzero;fill:rgb(72.356756%,71.853208%,71.978332%);fill-opacity:1;" d="M 4.953125 6.253906 L 4.953125 34 L 4.992188 34 L 4.992188 6.253906 L 4.953125 6.253906 Z M 4.953125 6.253906 "/>
<path style=" stroke:none;fill-rule:nonzero;fill:rgb(72.187381%,71.680781%,71.805905%);fill-opacity:1;" d="M 4.992188 6.253906 L 4.992188 34 L 5.027344 34 L 5.027344 6.253906 L 4.992188 6.253906 Z M 4.992188 6.253906 "/>
<path style=" stroke:none;fill-rule:nonzero;fill:rgb(72.014954%,71.506828%,71.633478%);fill-opacity:1;" d="M 5.027344 6.253906 L 5.027344 34 L 5.0625 34 L 5.0625 6.253906 L 5.027344 6.253906 Z M 5.027344 6.253906 "/>
<path style=" stroke:none;fill-rule:nonzero;fill:rgb(71.842527%,71.33135%,71.458%);fill-opacity:1;" d="M 5.0625 6.253906 L 5.0625 34 L 5.101562 34 L 5.101562 6.253906 L 5.0625 6.253906 Z M 5.0625 6.253906 "/>
<path style=" stroke:none;fill-rule:nonzero;fill:rgb(71.6701%,71.154345%,71.282521%);fill-opacity:1;" d="M 5.101562 6.253906 L 5.101562 34 L 5.136719 34 L 5.136719 6.253906 L 5.101562 6.253906 Z M 5.101562 6.253906 "/>
<path style=" stroke:none;fill-rule:nonzero;fill:rgb(71.496147%,70.978866%,71.107042%);fill-opacity:1;" d="M 5.136719 6.253906 L 5.136719 34 L 5.171875 34 L 5.171875 6.253906 L 5.136719 6.253906 Z M 5.136719 6.253906 "/>
<path style=" stroke:none;fill-rule:nonzero;fill:rgb(71.32372%,70.801862%,70.931563%);fill-opacity:1;" d="M 5.171875 6.253906 L 5.171875 34 L 5.210938 34 L 5.210938 6.253906 L 5.171875 6.253906 Z M 5.171875 6.253906 "/>
<path style=" stroke:none;fill-rule:nonzero;fill:rgb(71.148241%,70.623331%,70.753033%);fill-opacity:1;" d="M 5.210938 6.253906 L 5.210938 34 L 5.246094 34 L 5.246094 6.253906 L 5.210938 6.253906 Z M 5.210938 6.253906 "/>
<path style=" stroke:none;fill-rule:nonzero;fill:rgb(70.971237%,70.443275%,70.574502%);fill-opacity:1;" d="M 5.246094 6.253906 L 5.246094 34 L 5.28125 34 L 5.28125 6.253906 L 5.246094 6.253906 Z M 5.246094 6.253906 "/>
<path style=" stroke:none;fill-rule:nonzero;fill:rgb(70.795758%,70.263218%,70.395972%);fill-opacity:1;" d="M 5.28125 6.253906 L 5.28125 34 L 5.320312 34 L 5.320312 6.253906 L 5.28125 6.253906 Z M 5.28125 6.253906 "/>
<path style=" stroke:none;fill-rule:nonzero;fill:rgb(70.618753%,70.084688%,70.217441%);fill-opacity:1;" d="M 5.320312 6.253906 L 5.320312 34 L 5.355469 34 L 5.355469 6.253906 L 5.320312 6.253906 Z M 5.320312 6.253906 "/>
<path style=" stroke:none;fill-rule:nonzero;fill:rgb(70.441749%,69.903105%,70.037385%);fill-opacity:1;" d="M 5.355469 6.253906 L 5.355469 34 L 5.390625 34 L 5.390625 6.253906 L 5.355469 6.253906 Z M 5.355469 6.253906 "/>
<path style=" stroke:none;fill-rule:nonzero;fill:rgb(70.261692%,69.721523%,69.855802%);fill-opacity:1;" d="M 5.390625 6.253906 L 5.390625 34 L 5.429688 34 L 5.429688 6.253906 L 5.390625 6.253906 Z M 5.390625 6.253906 "/>
<path style=" stroke:none;fill-rule:nonzero;fill:rgb(70.083162%,69.538415%,69.67422%);fill-opacity:1;" d="M 5.429688 6.253906 L 5.429688 34 L 5.464844 34 L 5.464844 6.253906 L 5.429688 6.253906 Z M 5.429688 6.253906 "/>
<path style=" stroke:none;fill-rule:nonzero;fill:rgb(69.903105%,69.355306%,69.491112%);fill-opacity:1;" d="M 5.464844 6.253906 L 5.464844 34 L 5.5 34 L 5.5 6.253906 L 5.464844 6.253906 Z M 5.464844 6.253906 "/>
<path style=" stroke:none;fill-rule:nonzero;fill:rgb(69.723049%,69.170672%,69.308003%);fill-opacity:1;" d="M 5.5 6.253906 L 5.5 34 L 5.535156 34 L 5.535156 6.253906 L 5.5 6.253906 Z M 5.5 6.253906 "/>
<path style=" stroke:none;fill-rule:nonzero;fill:rgb(69.53994%,68.986038%,69.123369%);fill-opacity:1;" d="M 5.535156 6.253906 L 5.535156 34 L 5.574219 34 L 5.574219 6.253906 L 5.535156 6.253906 Z M 5.535156 6.253906 "/>
<path style=" stroke:none;fill-rule:nonzero;fill:rgb(69.358358%,68.799878%,68.938735%);fill-opacity:1;" d="M 5.574219 6.253906 L 5.574219 34 L 5.609375 34 L 5.609375 6.253906 L 5.574219 6.253906 Z M 5.574219 6.253906 "/>
<path style=" stroke:none;fill-rule:nonzero;fill:rgb(69.17525%,68.613718%,68.752575%);fill-opacity:1;" d="M 5.609375 6.253906 L 5.609375 34 L 5.644531 34 L 5.644531 6.253906 L 5.609375 6.253906 Z M 5.609375 6.253906 "/>
<path style=" stroke:none;fill-rule:nonzero;fill:rgb(68.990616%,68.426032%,68.566415%);fill-opacity:1;" d="M 5.644531 6.253906 L 5.644531 34 L 5.683594 34 L 5.683594 6.253906 L 5.644531 6.253906 Z M 5.644531 6.253906 "/>
<path style=" stroke:none;fill-rule:nonzero;fill:rgb(68.805982%,68.238346%,68.378729%);fill-opacity:1;" d="M 5.683594 6.253906 L 5.683594 34 L 5.71875 34 L 5.71875 6.253906 L 5.683594 6.253906 Z M 5.683594 6.253906 "/>
<path style=" stroke:none;fill-rule:nonzero;fill:rgb(68.619821%,68.049134%,68.191043%);fill-opacity:1;" d="M 5.71875 6.253906 L 5.71875 34 L 5.753906 34 L 5.753906 6.253906 L 5.71875 6.253906 Z M 5.71875 6.253906 "/>
<path style=" stroke:none;fill-rule:nonzero;fill:rgb(68.435187%,67.859922%,68.003357%);fill-opacity:1;" d="M 5.753906 6.253906 L 5.753906 34 L 5.792969 34 L 5.792969 6.253906 L 5.753906 6.253906 Z M 5.753906 6.253906 "/>
<path style=" stroke:none;fill-rule:nonzero;fill:rgb(68.247501%,67.67071%,67.814145%);fill-opacity:1;" d="M 5.792969 6.253906 L 5.792969 34 L 5.828125 34 L 5.828125 6.253906 L 5.792969 6.253906 Z M 5.792969 6.253906 "/>
<path style=" stroke:none;fill-rule:nonzero;fill:rgb(68.059815%,67.478447%,67.623407%);fill-opacity:1;" d="M 5.828125 6.253906 L 5.828125 34 L 5.863281 34 L 5.863281 6.253906 L 5.828125 6.253906 Z M 5.828125 6.253906 "/>
<path style=" stroke:none;fill-rule:nonzero;fill:rgb(67.872129%,67.286183%,67.43267%);fill-opacity:1;" d="M 5.863281 6.253906 L 5.863281 34 L 5.902344 34 L 5.902344 6.253906 L 5.863281 6.253906 Z M 5.863281 6.253906 "/>
<path style=" stroke:none;fill-rule:nonzero;fill:rgb(67.682918%,67.095445%,67.241932%);fill-opacity:1;" d="M 5.902344 6.253906 L 5.902344 34 L 5.9375 34 L 5.9375 6.253906 L 5.902344 6.253906 Z M 5.902344 6.253906 "/>
<path style=" stroke:none;fill-rule:nonzero;fill:rgb(67.493706%,66.901656%,67.049668%);fill-opacity:1;" d="M 5.9375 6.253906 L 5.9375 34 L 5.972656 34 L 5.972656 6.253906 L 5.9375 6.253906 Z M 5.9375 6.253906 "/>
<path style=" stroke:none;fill-rule:nonzero;fill:rgb(67.302968%,66.707866%,66.855879%);fill-opacity:1;" d="M 5.972656 6.253906 L 5.972656 34 L 6.011719 34 L 6.011719 6.253906 L 5.972656 6.253906 Z M 5.972656 6.253906 "/>
<path style=" stroke:none;fill-rule:nonzero;fill:rgb(67.11223%,66.514076%,66.662089%);fill-opacity:1;" d="M 6.011719 6.253906 L 6.011719 34 L 6.046875 34 L 6.046875 6.253906 L 6.011719 6.253906 Z M 6.011719 6.253906 "/>
<path style=" stroke:none;fill-rule:nonzero;fill:rgb(66.919966%,66.317235%,66.466773%);fill-opacity:1;" d="M 6.046875 6.253906 L 6.046875 34 L 6.082031 34 L 6.082031 6.253906 L 6.046875 6.253906 Z M 6.046875 6.253906 "/>
<path style=" stroke:none;fill-rule:nonzero;fill:rgb(66.726177%,66.120394%,66.271458%);fill-opacity:1;" d="M 6.082031 6.253906 L 6.082031 34 L 6.117188 34 L 6.117188 6.253906 L 6.082031 6.253906 Z M 6.082031 6.253906 "/>
<path style=" stroke:none;fill-rule:nonzero;fill:rgb(66.532387%,65.923552%,66.074617%);fill-opacity:1;" d="M 6.117188 6.253906 L 6.117188 34 L 6.15625 34 L 6.15625 6.253906 L 6.117188 6.253906 Z M 6.117188 6.253906 "/>
<path style=" stroke:none;fill-rule:nonzero;fill:rgb(66.338598%,65.726711%,65.879301%);fill-opacity:1;" d="M 6.15625 6.253906 L 6.15625 34 L 6.191406 34 L 6.191406 6.253906 L 6.15625 6.253906 Z M 6.15625 6.253906 "/>
<path style=" stroke:none;fill-rule:nonzero;fill:rgb(66.144808%,65.528344%,65.680934%);fill-opacity:1;" d="M 6.191406 6.253906 L 6.191406 34 L 6.226562 34 L 6.226562 6.253906 L 6.191406 6.253906 Z M 6.191406 6.253906 "/>
<path style=" stroke:none;fill-rule:nonzero;fill:rgb(65.947967%,65.32845%,65.482567%);fill-opacity:1;" d="M 6.226562 6.253906 L 6.226562 34 L 6.265625 34 L 6.265625 6.253906 L 6.226562 6.253906 Z M 6.226562 6.253906 "/>
<path style=" stroke:none;fill-rule:nonzero;fill:rgb(65.752651%,65.128557%,65.284199%);fill-opacity:1;" d="M 6.265625 6.253906 L 6.265625 34 L 6.300781 34 L 6.300781 6.253906 L 6.265625 6.253906 Z M 6.265625 6.253906 "/>
<path style=" stroke:none;fill-rule:nonzero;fill:rgb(65.554284%,64.927138%,65.08278%);fill-opacity:1;" d="M 6.300781 6.253906 L 6.300781 34 L 6.335938 34 L 6.335938 6.253906 L 6.300781 6.253906 Z M 6.300781 6.253906 "/>
<path style=" stroke:none;fill-rule:nonzero;fill:rgb(65.357443%,64.727245%,64.882887%);fill-opacity:1;" d="M 6.335938 6.253906 L 6.335938 34 L 6.375 34 L 6.375 6.253906 L 6.335938 6.253906 Z M 6.335938 6.253906 "/>
<path style=" stroke:none;fill-rule:nonzero;fill:rgb(65.159075%,64.5243%,64.681468%);fill-opacity:1;" d="M 6.375 6.253906 L 6.375 34 L 6.410156 34 L 6.410156 6.253906 L 6.375 6.253906 Z M 6.375 6.253906 "/>
<path style=" stroke:none;fill-rule:nonzero;fill:rgb(64.957656%,64.319829%,64.478523%);fill-opacity:1;" d="M 6.410156 6.253906 L 6.410156 34 L 6.445312 34 L 6.445312 6.253906 L 6.410156 6.253906 Z M 6.410156 6.253906 "/>
<path style=" stroke:none;fill-rule:nonzero;fill:rgb(64.757763%,64.116884%,64.275578%);fill-opacity:1;" d="M 6.445312 6.253906 L 6.445312 34 L 6.484375 34 L 6.484375 6.253906 L 6.445312 6.253906 Z M 6.445312 6.253906 "/>
<path style=" stroke:none;fill-rule:nonzero;fill:rgb(64.556344%,63.912413%,64.072633%);fill-opacity:1;" d="M 6.484375 6.253906 L 6.484375 34 L 6.519531 34 L 6.519531 6.253906 L 6.484375 6.253906 Z M 6.484375 6.253906 "/>
<path style=" stroke:none;fill-rule:nonzero;fill:rgb(64.354925%,63.706416%,63.868162%);fill-opacity:1;" d="M 6.519531 6.253906 L 6.519531 34 L 6.554688 34 L 6.554688 6.253906 L 6.519531 6.253906 Z M 6.519531 6.253906 "/>
<path style=" stroke:none;fill-rule:nonzero;fill:rgb(64.15198%,63.50042%,63.662165%);fill-opacity:1;" d="M 6.554688 6.253906 L 6.554688 34 L 6.589844 34 L 6.589844 6.253906 L 6.554688 6.253906 Z M 6.554688 6.253906 "/>
<path style=" stroke:none;fill-rule:nonzero;fill:rgb(63.950561%,63.294423%,63.456168%);fill-opacity:1;" d="M 6.589844 6.253906 L 6.589844 34 L 6.628906 34 L 6.628906 6.253906 L 6.589844 6.253906 Z M 6.589844 6.253906 "/>
<path style=" stroke:none;fill-rule:nonzero;fill:rgb(63.74609%,63.085374%,63.250172%);fill-opacity:1;" d="M 6.628906 6.253906 L 6.628906 34 L 6.664062 34 L 6.664062 6.253906 L 6.628906 6.253906 Z M 6.628906 6.253906 "/>
<path style=" stroke:none;fill-rule:nonzero;fill:rgb(63.541619%,62.877852%,63.042649%);fill-opacity:1;" d="M 6.664062 6.253906 L 6.664062 34 L 6.699219 34 L 6.699219 6.253906 L 6.664062 6.253906 Z M 6.664062 6.253906 "/>
<path style=" stroke:none;fill-rule:nonzero;fill:rgb(63.337148%,62.668803%,62.835126%);fill-opacity:1;" d="M 6.699219 6.253906 L 6.699219 34 L 6.738281 34 L 6.738281 6.253906 L 6.699219 6.253906 Z M 6.699219 6.253906 "/>
<path style=" stroke:none;fill-rule:nonzero;fill:rgb(63.129625%,62.458228%,62.626078%);fill-opacity:1;" d="M 6.738281 6.253906 L 6.738281 34 L 6.773438 34 L 6.773438 6.253906 L 6.738281 6.253906 Z M 6.738281 6.253906 "/>
<path style=" stroke:none;fill-rule:nonzero;fill:rgb(62.923629%,62.247654%,62.415503%);fill-opacity:1;" d="M 6.773438 6.253906 L 6.773438 34 L 6.808594 34 L 6.808594 6.253906 L 6.773438 6.253906 Z M 6.773438 6.253906 "/>
<path style=" stroke:none;fill-rule:nonzero;fill:rgb(62.71458%,62.037079%,62.204929%);fill-opacity:1;" d="M 6.808594 6.253906 L 6.808594 34 L 6.847656 34 L 6.847656 6.253906 L 6.808594 6.253906 Z M 6.808594 6.253906 "/>
<path style=" stroke:none;fill-rule:nonzero;fill:rgb(62.507057%,61.824979%,61.994354%);fill-opacity:1;" d="M 6.847656 6.253906 L 6.847656 34 L 6.882812 34 L 6.882812 6.253906 L 6.847656 6.253906 Z M 6.847656 6.253906 "/>
<path style=" stroke:none;fill-rule:nonzero;fill:rgb(62.298009%,61.611353%,61.782254%);fill-opacity:1;" d="M 6.882812 6.253906 L 6.882812 34 L 6.917969 34 L 6.917969 6.253906 L 6.882812 6.253906 Z M 6.882812 6.253906 "/>
<path style=" stroke:none;fill-rule:nonzero;fill:rgb(62.08896%,61.399252%,61.570153%);fill-opacity:1;" d="M 6.917969 6.253906 L 6.917969 34 L 6.957031 34 L 6.957031 6.253906 L 6.917969 6.253906 Z M 6.917969 6.253906 "/>
<path style=" stroke:none;fill-rule:nonzero;fill:rgb(61.878386%,61.1841%,61.356527%);fill-opacity:1;" d="M 6.957031 6.253906 L 6.957031 34 L 6.992188 34 L 6.992188 6.253906 L 6.957031 6.253906 Z M 6.957031 6.253906 "/>
<path style=" stroke:none;fill-rule:nonzero;fill:rgb(61.666285%,60.968948%,61.141375%);fill-opacity:1;" d="M 6.992188 6.253906 L 6.992188 34 L 7.027344 34 L 7.027344 6.253906 L 6.992188 6.253906 Z M 6.992188 6.253906 "/>
<path style=" stroke:none;fill-rule:nonzero;fill:rgb(61.454185%,60.75227%,60.926223%);fill-opacity:1;" d="M 7.027344 6.253906 L 7.027344 34 L 7.066406 34 L 7.066406 6.253906 L 7.027344 6.253906 Z M 7.027344 6.253906 "/>
<path style=" stroke:none;fill-rule:nonzero;fill:rgb(61.240558%,60.535592%,60.71107%);fill-opacity:1;" d="M 7.066406 6.253906 L 7.066406 34 L 7.101562 34 L 7.101562 6.253906 L 7.066406 6.253906 Z M 7.066406 6.253906 "/>
<path style=" stroke:none;fill-rule:nonzero;fill:rgb(61.026932%,60.318914%,60.494392%);fill-opacity:1;" d="M 7.101562 6.253906 L 7.101562 34 L 7.136719 34 L 7.136719 6.253906 L 7.101562 6.253906 Z M 7.101562 6.253906 "/>
<path style=" stroke:none;fill-rule:nonzero;fill:rgb(60.813306%,60.099184%,60.277714%);fill-opacity:1;" d="M 7.136719 6.253906 L 7.136719 34 L 7.171875 34 L 7.171875 6.253906 L 7.136719 6.253906 Z M 7.136719 6.253906 "/>
<path style=" stroke:none;fill-rule:nonzero;fill:rgb(60.598154%,59.88098%,60.05951%);fill-opacity:1;" d="M 7.171875 6.253906 L 7.171875 34 L 7.210938 34 L 7.210938 6.253906 L 7.171875 6.253906 Z M 7.171875 6.253906 "/>
<path style=" stroke:none;fill-rule:nonzero;fill:rgb(60.383001%,59.66125%,59.841306%);fill-opacity:1;" d="M 7.210938 6.253906 L 7.210938 34 L 7.246094 34 L 7.246094 6.253906 L 7.210938 6.253906 Z M 7.210938 6.253906 "/>
<path style=" stroke:none;fill-rule:nonzero;fill:rgb(60.164797%,59.439994%,59.62005%);fill-opacity:1;" d="M 7.246094 6.253906 L 7.246094 34 L 7.28125 34 L 7.28125 6.253906 L 7.246094 6.253906 Z M 7.246094 6.253906 "/>
<path style=" stroke:none;fill-rule:nonzero;fill:rgb(59.948119%,59.218738%,59.40032%);fill-opacity:1;" d="M 7.28125 6.253906 L 7.28125 34 L 7.320312 34 L 7.320312 6.253906 L 7.28125 6.253906 Z M 7.28125 6.253906 "/>
<path style=" stroke:none;fill-rule:nonzero;fill:rgb(59.731441%,58.997482%,59.180591%);fill-opacity:1;" d="M 7.320312 6.253906 L 7.320312 34 L 7.355469 34 L 7.355469 6.253906 L 7.320312 6.253906 Z M 7.320312 6.253906 "/>
<path style=" stroke:none;fill-rule:nonzero;fill:rgb(59.511711%,58.776226%,58.959335%);fill-opacity:1;" d="M 7.355469 6.253906 L 7.355469 34 L 7.390625 34 L 7.390625 6.253906 L 7.355469 6.253906 Z M 7.355469 6.253906 "/>
<path style=" stroke:none;fill-rule:nonzero;fill:rgb(59.291981%,58.551919%,58.735027%);fill-opacity:1;" d="M 7.390625 6.253906 L 7.390625 34 L 7.429688 34 L 7.429688 6.253906 L 7.390625 6.253906 Z M 7.390625 6.253906 "/>
<path style=" stroke:none;fill-rule:nonzero;fill:rgb(59.072251%,58.327611%,58.512245%);fill-opacity:1;" d="M 7.429688 6.253906 L 7.429688 34 L 7.464844 34 L 7.464844 6.253906 L 7.429688 6.253906 Z M 7.429688 6.253906 "/>
<path style=" stroke:none;fill-rule:nonzero;fill:rgb(58.850996%,58.103304%,58.289464%);fill-opacity:1;" d="M 7.464844 6.253906 L 7.464844 34 L 7.5 34 L 7.5 6.253906 L 7.464844 6.253906 Z M 7.464844 6.253906 "/>
<path style=" stroke:none;fill-rule:nonzero;fill:rgb(58.62974%,57.875944%,58.06363%);fill-opacity:1;" d="M 7.5 6.253906 L 7.5 34 L 7.539062 34 L 7.539062 6.253906 L 7.5 6.253906 Z M 7.5 6.253906 "/>
<path style=" stroke:none;fill-rule:nonzero;fill:rgb(58.406958%,57.650111%,57.837797%);fill-opacity:1;" d="M 7.539062 6.253906 L 7.539062 34 L 7.574219 34 L 7.574219 6.253906 L 7.539062 6.253906 Z M 7.539062 6.253906 "/>
<path style=" stroke:none;fill-rule:nonzero;fill:rgb(58.184176%,57.422751%,57.611963%);fill-opacity:1;" d="M 7.574219 6.253906 L 7.574219 34 L 7.609375 34 L 7.609375 6.253906 L 7.574219 6.253906 Z M 7.574219 6.253906 "/>
<path style=" stroke:none;fill-rule:nonzero;fill:rgb(57.959869%,57.195392%,57.384604%);fill-opacity:1;" d="M 7.609375 6.253906 L 7.609375 34 L 7.644531 34 L 7.644531 6.253906 L 7.609375 6.253906 Z M 7.609375 6.253906 "/>
<path style=" stroke:none;fill-rule:nonzero;fill:rgb(57.735561%,56.966506%,57.157244%);fill-opacity:1;" d="M 7.644531 6.253906 L 7.644531 34 L 7.683594 34 L 7.683594 6.253906 L 7.644531 6.253906 Z M 7.644531 6.253906 "/>
<path style=" stroke:none;fill-rule:nonzero;fill:rgb(57.509728%,56.737621%,56.928359%);fill-opacity:1;" d="M 7.683594 6.253906 L 7.683594 34 L 7.71875 34 L 7.71875 6.253906 L 7.683594 6.253906 Z M 7.683594 6.253906 "/>
<path style=" stroke:none;fill-rule:nonzero;fill:rgb(57.283894%,56.505684%,56.699474%);fill-opacity:1;" d="M 7.71875 6.253906 L 7.71875 34 L 7.753906 34 L 7.753906 6.253906 L 7.71875 6.253906 Z M 7.71875 6.253906 "/>
<path style=" stroke:none;fill-rule:nonzero;fill:rgb(57.056535%,56.273747%,56.469062%);fill-opacity:1;" d="M 7.753906 6.253906 L 7.753906 34 L 7.792969 34 L 7.792969 6.253906 L 7.753906 6.253906 Z M 7.753906 6.253906 "/>
<path style=" stroke:none;fill-rule:nonzero;fill:rgb(56.827649%,56.04181%,56.237125%);fill-opacity:1;" d="M 7.792969 6.253906 L 7.792969 34 L 7.828125 34 L 7.828125 6.253906 L 7.792969 6.253906 Z M 7.792969 6.253906 "/>
<path style=" stroke:none;fill-rule:nonzero;fill:rgb(56.60029%,55.811398%,56.006714%);fill-opacity:1;" d="M 7.828125 6.253906 L 7.828125 34 L 7.863281 34 L 7.863281 6.253906 L 7.828125 6.253906 Z M 7.828125 6.253906 "/>
<path style=" stroke:none;fill-rule:nonzero;fill:rgb(56.371405%,55.577935%,55.774777%);fill-opacity:1;" d="M 7.863281 6.253906 L 7.863281 34 L 7.902344 34 L 7.902344 6.253906 L 7.863281 6.253906 Z M 7.863281 6.253906 "/>
<path style=" stroke:none;fill-rule:nonzero;fill:rgb(56.140993%,55.342947%,55.541314%);fill-opacity:1;" d="M 7.902344 6.253906 L 7.902344 34 L 7.9375 34 L 7.9375 6.253906 L 7.902344 6.253906 Z M 7.902344 6.253906 "/>
<path style=" stroke:none;fill-rule:nonzero;fill:rgb(55.910582%,55.107958%,55.307851%);fill-opacity:1;" d="M 7.9375 6.253906 L 7.9375 34 L 7.972656 34 L 7.972656 6.253906 L 7.9375 6.253906 Z M 7.9375 6.253906 "/>
<path style=" stroke:none;fill-rule:nonzero;fill:rgb(55.678645%,54.872969%,55.072862%);fill-opacity:1;" d="M 7.972656 6.253906 L 7.972656 34 L 8.011719 34 L 8.011719 6.253906 L 7.972656 6.253906 Z M 7.972656 6.253906 "/>
<path style=" stroke:none;fill-rule:nonzero;fill:rgb(55.446708%,54.636454%,54.837873%);fill-opacity:1;" d="M 8.011719 6.253906 L 8.011719 34 L 8.046875 34 L 8.046875 6.253906 L 8.011719 6.253906 Z M 8.011719 6.253906 "/>
<path style=" stroke:none;fill-rule:nonzero;fill:rgb(55.214771%,54.399939%,54.601358%);fill-opacity:1;" d="M 8.046875 6.253906 L 8.046875 34 L 8.082031 34 L 8.082031 6.253906 L 8.046875 6.253906 Z M 8.046875 6.253906 "/>
<path style=" stroke:none;fill-rule:nonzero;fill:rgb(54.981308%,54.161898%,54.364843%);fill-opacity:1;" d="M 8.082031 6.253906 L 8.082031 34 L 8.121094 34 L 8.121094 6.253906 L 8.082031 6.253906 Z M 8.082031 6.253906 "/>
<path style=" stroke:none;fill-rule:nonzero;fill:rgb(54.746319%,53.923857%,54.128328%);fill-opacity:1;" d="M 8.121094 6.253906 L 8.121094 34 L 8.15625 34 L 8.15625 6.253906 L 8.121094 6.253906 Z M 8.121094 6.253906 "/>
<path style=" stroke:none;fill-rule:nonzero;fill:rgb(54.51133%,53.684291%,53.888762%);fill-opacity:1;" d="M 8.15625 6.253906 L 8.15625 34 L 8.191406 34 L 8.191406 6.253906 L 8.15625 6.253906 Z M 8.15625 6.253906 "/>
<path style=" stroke:none;fill-rule:nonzero;fill:rgb(54.276341%,53.443198%,53.650721%);fill-opacity:1;" d="M 8.191406 6.253906 L 8.191406 34 L 8.226562 34 L 8.226562 6.253906 L 8.191406 6.253906 Z M 8.191406 6.253906 "/>
<path style=" stroke:none;fill-rule:nonzero;fill:rgb(54.0383%,53.202106%,53.409628%);fill-opacity:1;" d="M 8.226562 6.253906 L 8.226562 34 L 8.265625 34 L 8.265625 6.253906 L 8.226562 6.253906 Z M 8.226562 6.253906 "/>
<path style=" stroke:none;fill-rule:nonzero;fill:rgb(53.801785%,52.961013%,53.170062%);fill-opacity:1;" d="M 8.265625 6.253906 L 8.265625 34 L 8.300781 34 L 8.300781 6.253906 L 8.265625 6.253906 Z M 8.265625 6.253906 "/>
<path style=" stroke:none;fill-rule:nonzero;fill:rgb(53.563745%,52.718395%,52.928969%);fill-opacity:1;" d="M 8.300781 6.253906 L 8.300781 34 L 8.335938 34 L 8.335938 6.253906 L 8.300781 6.253906 Z M 8.300781 6.253906 "/>
<path style=" stroke:none;fill-rule:nonzero;fill:rgb(53.325704%,52.475776%,52.686351%);fill-opacity:1;" d="M 8.335938 6.253906 L 8.335938 34 L 8.375 34 L 8.375 6.253906 L 8.335938 6.253906 Z M 8.335938 6.253906 "/>
<path style=" stroke:none;fill-rule:nonzero;fill:rgb(53.086137%,52.231632%,52.443732%);fill-opacity:1;" d="M 8.375 6.253906 L 8.375 34 L 8.410156 34 L 8.410156 6.253906 L 8.375 6.253906 Z M 8.375 6.253906 "/>
<path style=" stroke:none;fill-rule:nonzero;fill:rgb(52.845045%,51.985962%,52.199588%);fill-opacity:1;" d="M 8.410156 6.253906 L 8.410156 34 L 8.445312 34 L 8.445312 6.253906 L 8.410156 6.253906 Z M 8.410156 6.253906 "/>
<path style=" stroke:none;fill-rule:nonzero;fill:rgb(52.603952%,51.741817%,51.955444%);fill-opacity:1;" d="M 8.445312 6.253906 L 8.445312 34 L 8.484375 34 L 8.484375 6.253906 L 8.445312 6.253906 Z M 8.445312 6.253906 "/>
<path style=" stroke:none;fill-rule:nonzero;fill:rgb(52.36286%,51.496147%,51.711299%);fill-opacity:1;" d="M 8.484375 6.253906 L 8.484375 34 L 8.519531 34 L 8.519531 6.253906 L 8.484375 6.253906 Z M 8.484375 6.253906 "/>
<path style=" stroke:none;fill-rule:nonzero;fill:rgb(52.120241%,51.248951%,51.465629%);fill-opacity:1;" d="M 8.519531 6.253906 L 8.519531 34 L 8.554688 34 L 8.554688 6.253906 L 8.519531 6.253906 Z M 8.519531 6.253906 "/>
<path style=" stroke:none;fill-rule:nonzero;fill:rgb(51.877623%,51.001755%,51.218433%);fill-opacity:1;" d="M 8.554688 6.253906 L 8.554688 34 L 8.59375 34 L 8.59375 6.253906 L 8.554688 6.253906 Z M 8.554688 6.253906 "/>
<path style=" stroke:none;fill-rule:nonzero;fill:rgb(51.633478%,50.753033%,50.972763%);fill-opacity:1;" d="M 8.59375 6.253906 L 8.59375 34 L 8.628906 34 L 8.628906 6.253906 L 8.59375 6.253906 Z M 8.59375 6.253906 "/>
<path style=" stroke:none;fill-rule:nonzero;fill:rgb(51.389334%,50.504311%,50.724041%);fill-opacity:1;" d="M 8.628906 6.253906 L 8.628906 34 L 8.664062 34 L 8.664062 6.253906 L 8.628906 6.253906 Z M 8.628906 6.253906 "/>
<path style=" stroke:none;fill-rule:nonzero;fill:rgb(51.142138%,50.254063%,50.473793%);fill-opacity:1;" d="M 8.664062 6.253906 L 8.664062 34 L 8.703125 34 L 8.703125 6.253906 L 8.664062 6.253906 Z M 8.664062 6.253906 "/>
<path style=" stroke:none;fill-rule:nonzero;fill:rgb(50.896468%,50.002289%,50.225071%);fill-opacity:1;" d="M 8.703125 6.253906 L 8.703125 34 L 8.738281 34 L 8.738281 6.253906 L 8.703125 6.253906 Z M 8.703125 6.253906 "/>
<path style=" stroke:none;fill-rule:nonzero;fill:rgb(50.650797%,49.752041%,49.974823%);fill-opacity:1;" d="M 8.738281 6.253906 L 8.738281 34 L 8.773438 34 L 8.773438 6.253906 L 8.738281 6.253906 Z M 8.738281 6.253906 "/>
<path style=" stroke:none;fill-rule:nonzero;fill:rgb(50.403601%,49.500267%,49.724575%);fill-opacity:1;" d="M 8.773438 6.253906 L 8.773438 34 L 8.808594 34 L 8.808594 6.253906 L 8.773438 6.253906 Z M 8.773438 6.253906 "/>
<path style=" stroke:none;fill-rule:nonzero;fill:rgb(50.154879%,49.246967%,49.472801%);fill-opacity:1;" d="M 8.808594 6.253906 L 8.808594 34 L 8.847656 34 L 8.847656 6.253906 L 8.808594 6.253906 Z M 8.808594 6.253906 "/>
<path style=" stroke:none;fill-rule:nonzero;fill:rgb(49.904631%,48.993668%,49.219501%);fill-opacity:1;" d="M 8.847656 6.253906 L 8.847656 34 L 8.882812 34 L 8.882812 6.253906 L 8.847656 6.253906 Z M 8.847656 6.253906 "/>
<path style=" stroke:none;fill-rule:nonzero;fill:rgb(49.655909%,48.738842%,48.966201%);fill-opacity:1;" d="M 8.882812 6.253906 L 8.882812 34 L 8.917969 34 L 8.917969 6.253906 L 8.882812 6.253906 Z M 8.882812 6.253906 "/>
<path style=" stroke:none;fill-rule:nonzero;fill:rgb(49.405661%,48.484016%,48.712902%);fill-opacity:1;" d="M 8.917969 6.253906 L 8.917969 34 L 8.957031 34 L 8.957031 6.253906 L 8.917969 6.253906 Z M 8.917969 6.253906 "/>
<path style=" stroke:none;fill-rule:nonzero;fill:rgb(49.153887%,48.227665%,48.458076%);fill-opacity:1;" d="M 8.957031 6.253906 L 8.957031 34 L 8.992188 34 L 8.992188 6.253906 L 8.957031 6.253906 Z M 8.957031 6.253906 "/>
<path style=" stroke:none;fill-rule:nonzero;fill:rgb(48.900587%,47.971313%,48.201724%);fill-opacity:1;" d="M 8.992188 6.253906 L 8.992188 34 L 9.027344 34 L 9.027344 6.253906 L 8.992188 6.253906 Z M 8.992188 6.253906 "/>
<path style=" stroke:none;fill-rule:nonzero;fill:rgb(48.648814%,47.713436%,47.945373%);fill-opacity:1;" d="M 9.027344 6.253906 L 9.027344 34 L 9.066406 34 L 9.066406 6.253906 L 9.027344 6.253906 Z M 9.027344 6.253906 "/>
<path style=" stroke:none;fill-rule:nonzero;fill:rgb(48.393988%,47.455558%,47.687495%);fill-opacity:1;" d="M 9.066406 6.253906 L 9.066406 34 L 9.101562 34 L 9.101562 6.253906 L 9.066406 6.253906 Z M 9.066406 6.253906 "/>
<path style=" stroke:none;fill-rule:nonzero;fill:rgb(48.140688%,47.196155%,47.431144%);fill-opacity:1;" d="M 9.101562 6.253906 L 9.101562 34 L 9.136719 34 L 9.136719 6.253906 L 9.101562 6.253906 Z M 9.101562 6.253906 "/>
<path style=" stroke:none;fill-rule:nonzero;fill:rgb(47.885863%,46.938277%,47.173266%);fill-opacity:1;" d="M 9.136719 6.253906 L 9.136719 34 L 9.175781 34 L 9.175781 6.253906 L 9.136719 6.253906 Z M 9.136719 6.253906 "/>
<path style=" stroke:none;fill-rule:nonzero;fill:rgb(47.629511%,46.675822%,46.912337%);fill-opacity:1;" d="M 9.175781 6.253906 L 9.175781 34 L 9.210938 34 L 9.210938 6.253906 L 9.175781 6.253906 Z M 9.175781 6.253906 "/>
<path style=" stroke:none;fill-rule:nonzero;fill:rgb(47.373159%,46.414893%,46.652934%);fill-opacity:1;" d="M 9.210938 6.253906 L 9.210938 34 L 9.246094 34 L 9.246094 6.253906 L 9.210938 6.253906 Z M 9.210938 6.253906 "/>
<path style=" stroke:none;fill-rule:nonzero;fill:rgb(47.115282%,46.153964%,46.392004%);fill-opacity:1;" d="M 9.246094 6.253906 L 9.246094 34 L 9.28125 34 L 9.28125 6.253906 L 9.246094 6.253906 Z M 9.246094 6.253906 "/>
<path style=" stroke:none;fill-rule:nonzero;fill:rgb(46.857404%,45.889982%,46.131075%);fill-opacity:1;" d="M 9.28125 6.253906 L 9.28125 34 L 9.320312 34 L 9.320312 6.253906 L 9.28125 6.253906 Z M 9.28125 6.253906 "/>
<path style=" stroke:none;fill-rule:nonzero;fill:rgb(46.598001%,45.626001%,45.86862%);fill-opacity:1;" d="M 9.320312 6.253906 L 9.320312 34 L 9.355469 34 L 9.355469 6.253906 L 9.320312 6.253906 Z M 9.320312 6.253906 "/>
<path style=" stroke:none;fill-rule:nonzero;fill:rgb(46.338598%,45.36202%,45.604639%);fill-opacity:1;" d="M 9.355469 6.253906 L 9.355469 34 L 9.390625 34 L 9.390625 6.253906 L 9.355469 6.253906 Z M 9.355469 6.253906 "/>
<path style=" stroke:none;fill-rule:nonzero;fill:rgb(46.079194%,45.096513%,45.340658%);fill-opacity:1;" d="M 9.390625 6.253906 L 9.390625 34 L 9.429688 34 L 9.429688 6.253906 L 9.390625 6.253906 Z M 9.390625 6.253906 "/>
<path style=" stroke:none;fill-rule:nonzero;fill:rgb(45.818265%,44.832532%,45.076677%);fill-opacity:1;" d="M 9.429688 6.253906 L 9.429688 34 L 9.464844 34 L 9.464844 6.253906 L 9.429688 6.253906 Z M 9.429688 6.253906 "/>
<path style=" stroke:none;fill-rule:nonzero;fill:rgb(45.55581%,44.565499%,44.81117%);fill-opacity:1;" d="M 9.464844 6.253906 L 9.464844 34 L 9.5 34 L 9.5 6.253906 L 9.464844 6.253906 Z M 9.464844 6.253906 "/>
<path style=" stroke:none;fill-rule:nonzero;fill:rgb(45.293355%,44.298466%,44.545663%);fill-opacity:1;" d="M 9.5 6.253906 L 9.5 34 L 9.539062 34 L 9.539062 6.253906 L 9.5 6.253906 Z M 9.5 6.253906 "/>
<path style=" stroke:none;fill-rule:nonzero;fill:rgb(45.0309%,44.029908%,44.27863%);fill-opacity:1;" d="M 9.539062 6.253906 L 9.539062 34 L 9.574219 34 L 9.574219 6.253906 L 9.539062 6.253906 Z M 9.539062 6.253906 "/>
<path style=" stroke:none;fill-rule:nonzero;fill:rgb(44.766918%,43.762875%,44.011597%);fill-opacity:1;" d="M 9.574219 6.253906 L 9.574219 34 L 9.609375 34 L 9.609375 6.253906 L 9.574219 6.253906 Z M 9.574219 6.253906 "/>
<path style=" stroke:none;fill-rule:nonzero;fill:rgb(44.502937%,43.49279%,43.743038%);fill-opacity:1;" d="M 9.609375 6.253906 L 9.609375 34 L 9.648438 34 L 9.648438 6.253906 L 9.609375 6.253906 Z M 9.609375 6.253906 "/>
<path style=" stroke:none;fill-rule:nonzero;fill:rgb(44.23743%,43.222705%,43.474479%);fill-opacity:1;" d="M 9.648438 6.253906 L 9.648438 34 L 9.683594 34 L 9.683594 6.253906 L 9.648438 6.253906 Z M 9.648438 6.253906 "/>
<path style=" stroke:none;fill-rule:nonzero;fill:rgb(43.970397%,42.951095%,43.204395%);fill-opacity:1;" d="M 9.683594 6.253906 L 9.683594 34 L 9.71875 34 L 9.71875 6.253906 L 9.683594 6.253906 Z M 9.683594 6.253906 "/>
<path style=" stroke:none;fill-rule:nonzero;fill:rgb(43.703365%,42.679484%,42.93431%);fill-opacity:1;" d="M 9.71875 6.253906 L 9.71875 34 L 9.757812 34 L 9.757812 6.253906 L 9.71875 6.253906 Z M 9.71875 6.253906 "/>
</g>
</g>
<path style="fill:none;stroke-width:0.132;stroke-linecap:butt;stroke-linejoin:miter;stroke:rgb(20%,20%,20%);stroke-opacity:1;stroke-miterlimit:4;" d="M 2.078125 28.113281 L 9.386719 28.113281 M 11.535156 28.996094 L 15.542969 32.695312 " transform="matrix(1,0,0,-1,0,34)"/>
</g>
</svg>
