<?xml version="1.0" encoding="UTF-8"?>
<svg xmlns="http://www.w3.org/2000/svg" xmlns:xlink="http://www.w3.org/1999/xlink" width="38" height="39" viewBox="0 0 38 39" version="1.1">
<defs>
<clipPath id="clip1">
  <path d="M 37.445312 21.28125 C 37.445312 25.175781 29.324219 28.335938 19.308594 28.335938 C 9.292969 28.335938 1.171875 25.175781 1.171875 21.28125 L 1.171875 31.613281 C 1.171875 35.507812 9.292969 38.667969 19.308594 38.667969 C 29.324219 38.667969 37.445312 35.507812 37.445312 31.613281 L 37.445312 21.28125 "/>
</clipPath>
<clipPath id="clip2">
  <path d="M 15.339844 18.457031 L 16.859375 20.734375 L 11.117188 22.0625 L 12.371094 21.015625 L 3.496094 19.5 L 5.722656 17.832031 L 14.285156 19.28125 L 15.339844 18.457031 "/>
</clipPath>
<clipPath id="clip3">
  <path d="M 23.417969 23.980469 L 22.382812 21.632812 L 27.5625 20.597656 L 26.664062 21.402344 L 35.296875 22.875 L 33.226562 24.535156 L 24.644531 22.921875 L 23.417969 23.980469 "/>
</clipPath>
<clipPath id="clip4">
  <path d="M 20.589844 17.214844 L 26.390625 15.625 L 26.457031 18.109375 L 25.007812 17.835938 L 22.175781 20.183594 L 19.472656 19.789062 L 22.398438 17.492188 L 20.589844 17.214844 "/>
</clipPath>
<clipPath id="clip5">
  <path d="M 18.101562 26.121094 L 12.578125 27.15625 L 12.371094 24.601562 L 13.957031 24.949219 L 17 22.351562 L 19.691406 22.808594 L 16.445312 25.640625 L 18.101562 26.121094 "/>
</clipPath>
</defs>
<g id="surface0">
<path style="fill:none;stroke-width:0.4;stroke-linecap:butt;stroke-linejoin:miter;stroke:rgb(0%,0%,0%);stroke-opacity:1;stroke-miterlimit:4;" d="M 31.109375 21.316406 L 31.109375 37.675781 " transform="matrix(1,0,0,-1,0,39)"/>
<path style="fill:none;stroke-width:2;stroke-linecap:butt;stroke-linejoin:miter;stroke:rgb(0%,0%,0%);stroke-opacity:1;stroke-miterlimit:4;" d="M 31.109375 21.578125 L 31.109375 32.800781 " transform="matrix(1,0,0,-1,0,39)"/>
<path style=" stroke:none;fill-rule:nonzero;fill:rgb(0%,0%,0%);fill-opacity:1;" d="M 30.585938 0.898438 L 31.585938 0.898438 L 31.585938 2.898438 L 30.585938 2.898438 L 30.585938 0.898438 Z M 30.585938 0.898438 "/>
<path style="fill:none;stroke-width:0.4;stroke-linecap:butt;stroke-linejoin:miter;stroke:rgb(0%,0%,0%);stroke-opacity:1;stroke-miterlimit:4;" d="M 6.859375 21.316406 L 6.859375 37.675781 " transform="matrix(1,0,0,-1,0,39)"/>
<path style="fill:none;stroke-width:2;stroke-linecap:butt;stroke-linejoin:miter;stroke:rgb(0%,0%,0%);stroke-opacity:1;stroke-miterlimit:4;" d="M 6.859375 21.578125 L 6.859375 32.800781 " transform="matrix(1,0,0,-1,0,39)"/>
<path style=" stroke:none;fill-rule:nonzero;fill:rgb(0%,0%,0%);fill-opacity:1;" d="M 6.335938 0.898438 L 7.335938 0.898438 L 7.335938 2.898438 L 6.335938 2.898438 L 6.335938 0.898438 Z M 6.335938 0.898438 "/>
<path style="fill-rule:nonzero;fill:rgb(13.730068%,12.159915%,12.54902%);fill-opacity:1;stroke-width:0.42;stroke-linecap:butt;stroke-linejoin:miter;stroke:rgb(100%,100%,100%);stroke-opacity:1;stroke-miterlimit:4;" d="M 37.445312 17.71875 C 37.445312 13.824219 29.324219 10.664062 19.308594 10.664062 C 9.292969 10.664062 1.171875 13.824219 1.171875 17.71875 L 1.171875 7.386719 C 1.171875 3.492188 9.292969 0.332031 19.308594 0.332031 C 29.324219 0.332031 37.445312 3.492188 37.445312 7.386719 L 37.445312 17.71875 Z M 37.445312 17.71875 " transform="matrix(1,0,0,-1,0,39)"/>
<g clip-path="url(#clip1)" clip-rule="nonzero">
<path style=" stroke:none;fill-rule:nonzero;fill:rgb(48.911269%,47.981994%,48.212406%);fill-opacity:1;" d="M 1.171875 21.28125 L 1.171875 38.667969 L 1.3125 38.667969 L 1.3125 21.28125 L 1.171875 21.28125 Z M 1.171875 21.28125 "/>
<path style=" stroke:none;fill-rule:nonzero;fill:rgb(49.584192%,48.667124%,48.894484%);fill-opacity:1;" d="M 1.3125 21.28125 L 1.3125 38.667969 L 1.457031 38.667969 L 1.457031 21.28125 L 1.3125 21.28125 Z M 1.3125 21.28125 "/>
<path style=" stroke:none;fill-rule:nonzero;fill:rgb(50.25864%,49.352255%,49.578088%);fill-opacity:1;" d="M 1.457031 21.28125 L 1.457031 38.667969 L 1.597656 38.667969 L 1.597656 21.28125 L 1.457031 21.28125 Z M 1.457031 21.28125 "/>
<path style=" stroke:none;fill-rule:nonzero;fill:rgb(50.931563%,50.038911%,50.261692%);fill-opacity:1;" d="M 1.597656 21.28125 L 1.597656 38.667969 L 1.738281 38.667969 L 1.738281 21.28125 L 1.597656 21.28125 Z M 1.597656 21.28125 "/>
<path style=" stroke:none;fill-rule:nonzero;fill:rgb(51.606012%,50.725566%,50.943771%);fill-opacity:1;" d="M 1.738281 21.28125 L 1.738281 38.667969 L 1.878906 38.667969 L 1.878906 21.28125 L 1.738281 21.28125 Z M 1.738281 21.28125 "/>
<path style=" stroke:none;fill-rule:nonzero;fill:rgb(52.280461%,51.412222%,51.627375%);fill-opacity:1;" d="M 1.878906 21.28125 L 1.878906 38.667969 L 2.023438 38.667969 L 2.023438 21.28125 L 1.878906 21.28125 Z M 1.878906 21.28125 "/>
<path style=" stroke:none;fill-rule:nonzero;fill:rgb(52.953384%,52.097353%,52.310979%);fill-opacity:1;" d="M 2.023438 21.28125 L 2.023438 38.667969 L 2.164062 38.667969 L 2.164062 21.28125 L 2.023438 21.28125 Z M 2.023438 21.28125 "/>
<path style=" stroke:none;fill-rule:nonzero;fill:rgb(53.627832%,52.784009%,52.993057%);fill-opacity:1;" d="M 2.164062 21.28125 L 2.164062 38.667969 L 2.304688 38.667969 L 2.304688 21.28125 L 2.164062 21.28125 Z M 2.164062 21.28125 "/>
<path style=" stroke:none;fill-rule:nonzero;fill:rgb(54.302281%,53.470665%,53.676661%);fill-opacity:1;" d="M 2.304688 21.28125 L 2.304688 38.667969 L 2.449219 38.667969 L 2.449219 21.28125 L 2.304688 21.28125 Z M 2.304688 21.28125 "/>
<path style=" stroke:none;fill-rule:nonzero;fill:rgb(54.97673%,54.157321%,54.360266%);fill-opacity:1;" d="M 2.449219 21.28125 L 2.449219 38.667969 L 2.589844 38.667969 L 2.589844 21.28125 L 2.449219 21.28125 Z M 2.449219 21.28125 "/>
<path style=" stroke:none;fill-rule:nonzero;fill:rgb(55.649653%,54.842451%,55.04387%);fill-opacity:1;" d="M 2.589844 21.28125 L 2.589844 38.667969 L 2.730469 38.667969 L 2.730469 21.28125 L 2.589844 21.28125 Z M 2.589844 21.28125 "/>
<path style=" stroke:none;fill-rule:nonzero;fill:rgb(56.324102%,55.529107%,55.725948%);fill-opacity:1;" d="M 2.730469 21.28125 L 2.730469 38.667969 L 2.871094 38.667969 L 2.871094 21.28125 L 2.730469 21.28125 Z M 2.730469 21.28125 "/>
<path style=" stroke:none;fill-rule:nonzero;fill:rgb(56.99855%,56.215763%,56.409552%);fill-opacity:1;" d="M 2.871094 21.28125 L 2.871094 38.667969 L 3.015625 38.667969 L 3.015625 21.28125 L 2.871094 21.28125 Z M 2.871094 21.28125 "/>
<path style=" stroke:none;fill-rule:nonzero;fill:rgb(57.671473%,56.902419%,57.093156%);fill-opacity:1;" d="M 3.015625 21.28125 L 3.015625 38.667969 L 3.15625 38.667969 L 3.15625 21.28125 L 3.015625 21.28125 Z M 3.015625 21.28125 "/>
<path style=" stroke:none;fill-rule:nonzero;fill:rgb(58.345922%,57.587549%,57.776761%);fill-opacity:1;" d="M 3.15625 21.28125 L 3.15625 38.667969 L 3.296875 38.667969 L 3.296875 21.28125 L 3.15625 21.28125 Z M 3.15625 21.28125 "/>
<path style=" stroke:none;fill-rule:nonzero;fill:rgb(59.020371%,58.274205%,58.458839%);fill-opacity:1;" d="M 3.296875 21.28125 L 3.296875 38.667969 L 3.4375 38.667969 L 3.4375 21.28125 L 3.296875 21.28125 Z M 3.296875 21.28125 "/>
<path style=" stroke:none;fill-rule:nonzero;fill:rgb(59.693294%,58.960861%,59.142443%);fill-opacity:1;" d="M 3.4375 21.28125 L 3.4375 38.667969 L 3.582031 38.667969 L 3.582031 21.28125 L 3.4375 21.28125 Z M 3.4375 21.28125 "/>
<path style=" stroke:none;fill-rule:nonzero;fill:rgb(60.367742%,59.647517%,59.826047%);fill-opacity:1;" d="M 3.582031 21.28125 L 3.582031 38.667969 L 3.722656 38.667969 L 3.722656 21.28125 L 3.582031 21.28125 Z M 3.582031 21.28125 "/>
<path style=" stroke:none;fill-rule:nonzero;fill:rgb(61.042191%,60.332647%,60.509651%);fill-opacity:1;" d="M 3.722656 21.28125 L 3.722656 38.667969 L 3.863281 38.667969 L 3.863281 21.28125 L 3.722656 21.28125 Z M 3.722656 21.28125 "/>
<path style=" stroke:none;fill-rule:nonzero;fill:rgb(61.71664%,61.019303%,61.19173%);fill-opacity:1;" d="M 3.863281 21.28125 L 3.863281 38.667969 L 4.007812 38.667969 L 4.007812 21.28125 L 3.863281 21.28125 Z M 3.863281 21.28125 "/>
<path style=" stroke:none;fill-rule:nonzero;fill:rgb(62.389563%,61.705959%,61.875334%);fill-opacity:1;" d="M 4.007812 21.28125 L 4.007812 38.667969 L 4.148438 38.667969 L 4.148438 21.28125 L 4.007812 21.28125 Z M 4.007812 21.28125 "/>
<path style=" stroke:none;fill-rule:nonzero;fill:rgb(63.064012%,62.391089%,62.558938%);fill-opacity:1;" d="M 4.148438 21.28125 L 4.148438 38.667969 L 4.289062 38.667969 L 4.289062 21.28125 L 4.148438 21.28125 Z M 4.148438 21.28125 "/>
<path style=" stroke:none;fill-rule:nonzero;fill:rgb(63.73846%,63.077745%,63.242542%);fill-opacity:1;" d="M 4.289062 21.28125 L 4.289062 38.667969 L 4.429688 38.667969 L 4.429688 21.28125 L 4.289062 21.28125 Z M 4.289062 21.28125 "/>
<path style=" stroke:none;fill-rule:nonzero;fill:rgb(64.411383%,63.764401%,63.92462%);fill-opacity:1;" d="M 4.429688 21.28125 L 4.429688 38.667969 L 4.574219 38.667969 L 4.574219 21.28125 L 4.429688 21.28125 Z M 4.429688 21.28125 "/>
<path style=" stroke:none;fill-rule:nonzero;fill:rgb(65.085832%,64.451057%,64.608225%);fill-opacity:1;" d="M 4.574219 21.28125 L 4.574219 38.667969 L 4.714844 38.667969 L 4.714844 21.28125 L 4.574219 21.28125 Z M 4.574219 21.28125 "/>
<path style=" stroke:none;fill-rule:nonzero;fill:rgb(65.760281%,65.136187%,65.291829%);fill-opacity:1;" d="M 4.714844 21.28125 L 4.714844 38.667969 L 4.855469 38.667969 L 4.855469 21.28125 L 4.714844 21.28125 Z M 4.714844 21.28125 "/>
<path style=" stroke:none;fill-rule:nonzero;fill:rgb(66.43473%,65.822843%,65.975433%);fill-opacity:1;" d="M 4.855469 21.28125 L 4.855469 38.667969 L 4.996094 38.667969 L 4.996094 21.28125 L 4.855469 21.28125 Z M 4.855469 21.28125 "/>
<path style=" stroke:none;fill-rule:nonzero;fill:rgb(67.107652%,66.509499%,66.657511%);fill-opacity:1;" d="M 4.996094 21.28125 L 4.996094 38.667969 L 5.140625 38.667969 L 5.140625 21.28125 L 4.996094 21.28125 Z M 4.996094 21.28125 "/>
<path style=" stroke:none;fill-rule:nonzero;fill:rgb(67.782101%,67.196155%,67.341115%);fill-opacity:1;" d="M 5.140625 21.28125 L 5.140625 38.667969 L 5.28125 38.667969 L 5.28125 21.28125 L 5.140625 21.28125 Z M 5.140625 21.28125 "/>
<path style=" stroke:none;fill-rule:nonzero;fill:rgb(68.45655%,67.881285%,68.02472%);fill-opacity:1;" d="M 5.28125 21.28125 L 5.28125 38.667969 L 5.421875 38.667969 L 5.421875 21.28125 L 5.28125 21.28125 Z M 5.28125 21.28125 "/>
<path style=" stroke:none;fill-rule:nonzero;fill:rgb(69.129473%,68.567941%,68.708324%);fill-opacity:1;" d="M 5.421875 21.28125 L 5.421875 38.667969 L 5.566406 38.667969 L 5.566406 21.28125 L 5.421875 21.28125 Z M 5.421875 21.28125 "/>
<path style=" stroke:none;fill-rule:nonzero;fill:rgb(69.803922%,69.254597%,69.390402%);fill-opacity:1;" d="M 5.566406 21.28125 L 5.566406 38.667969 L 5.707031 38.667969 L 5.707031 21.28125 L 5.566406 21.28125 Z M 5.566406 21.28125 "/>
<path style=" stroke:none;fill-rule:nonzero;fill:rgb(70.479896%,69.942779%,70.075532%);fill-opacity:1;" d="M 5.707031 21.28125 L 5.707031 38.667969 L 5.847656 38.667969 L 5.847656 21.28125 L 5.707031 21.28125 Z M 5.707031 21.28125 "/>
<path style=" stroke:none;fill-rule:nonzero;fill:rgb(71.152819%,70.627909%,70.759136%);fill-opacity:1;" d="M 5.847656 21.28125 L 5.847656 38.667969 L 5.988281 38.667969 L 5.988281 21.28125 L 5.847656 21.28125 Z M 5.847656 21.28125 "/>
<path style=" stroke:none;fill-rule:nonzero;fill:rgb(71.827268%,71.314565%,71.441215%);fill-opacity:1;" d="M 5.988281 21.28125 L 5.988281 38.667969 L 6.132812 38.667969 L 6.132812 21.28125 L 5.988281 21.28125 Z M 5.988281 21.28125 "/>
<path style=" stroke:none;fill-rule:nonzero;fill:rgb(72.501717%,72.001221%,72.124819%);fill-opacity:1;" d="M 6.132812 21.28125 L 6.132812 38.667969 L 6.273438 38.667969 L 6.273438 21.28125 L 6.132812 21.28125 Z M 6.132812 21.28125 "/>
<path style=" stroke:none;fill-rule:nonzero;fill:rgb(73.17464%,72.686351%,72.808423%);fill-opacity:1;" d="M 6.273438 21.28125 L 6.273438 38.667969 L 6.414062 38.667969 L 6.414062 21.28125 L 6.273438 21.28125 Z M 6.273438 21.28125 "/>
<path style=" stroke:none;fill-rule:nonzero;fill:rgb(73.849088%,73.373007%,73.492027%);fill-opacity:1;" d="M 6.414062 21.28125 L 6.414062 38.667969 L 6.554688 38.667969 L 6.554688 21.28125 L 6.414062 21.28125 Z M 6.414062 21.28125 "/>
<path style=" stroke:none;fill-rule:nonzero;fill:rgb(74.523537%,74.059663%,74.174105%);fill-opacity:1;" d="M 6.554688 21.28125 L 6.554688 38.667969 L 6.699219 38.667969 L 6.699219 21.28125 L 6.554688 21.28125 Z M 6.554688 21.28125 "/>
<path style=" stroke:none;fill-rule:nonzero;fill:rgb(75.197986%,74.746319%,74.85771%);fill-opacity:1;" d="M 6.699219 21.28125 L 6.699219 38.667969 L 6.839844 38.667969 L 6.839844 21.28125 L 6.699219 21.28125 Z M 6.699219 21.28125 "/>
<path style=" stroke:none;fill-rule:nonzero;fill:rgb(75.870909%,75.431449%,75.541314%);fill-opacity:1;" d="M 6.839844 21.28125 L 6.839844 38.667969 L 6.980469 38.667969 L 6.980469 21.28125 L 6.839844 21.28125 Z M 6.839844 21.28125 "/>
<path style=" stroke:none;fill-rule:nonzero;fill:rgb(76.545357%,76.118105%,76.224918%);fill-opacity:1;" d="M 6.980469 21.28125 L 6.980469 38.667969 L 7.125 38.667969 L 7.125 21.28125 L 6.980469 21.28125 Z M 6.980469 21.28125 "/>
<path style=" stroke:none;fill-rule:nonzero;fill:rgb(77.219806%,76.804761%,76.906996%);fill-opacity:1;" d="M 7.125 21.28125 L 7.125 38.667969 L 7.265625 38.667969 L 7.265625 21.28125 L 7.125 21.28125 Z M 7.125 21.28125 "/>
<path style=" stroke:none;fill-rule:nonzero;fill:rgb(77.892729%,77.491417%,77.5906%);fill-opacity:1;" d="M 7.265625 21.28125 L 7.265625 38.667969 L 7.40625 38.667969 L 7.40625 21.28125 L 7.265625 21.28125 Z M 7.265625 21.28125 "/>
<path style=" stroke:none;fill-rule:nonzero;fill:rgb(78.567178%,78.176547%,78.274205%);fill-opacity:1;" d="M 7.40625 21.28125 L 7.40625 38.667969 L 7.546875 38.667969 L 7.546875 21.28125 L 7.40625 21.28125 Z M 7.40625 21.28125 "/>
<path style=" stroke:none;fill-rule:nonzero;fill:rgb(79.241627%,78.863203%,78.957809%);fill-opacity:1;" d="M 7.546875 21.28125 L 7.546875 38.667969 L 7.691406 38.667969 L 7.691406 21.28125 L 7.546875 21.28125 Z M 7.546875 21.28125 "/>
<path style=" stroke:none;fill-rule:nonzero;fill:rgb(79.914549%,79.549859%,79.639887%);fill-opacity:1;" d="M 7.691406 21.28125 L 7.691406 38.667969 L 7.832031 38.667969 L 7.832031 21.28125 L 7.691406 21.28125 Z M 7.691406 21.28125 "/>
<path style=" stroke:none;fill-rule:nonzero;fill:rgb(80.588998%,80.236515%,80.323491%);fill-opacity:1;" d="M 7.832031 21.28125 L 7.832031 38.667969 L 7.972656 38.667969 L 7.972656 21.28125 L 7.832031 21.28125 Z M 7.832031 21.28125 "/>
<path style=" stroke:none;fill-rule:nonzero;fill:rgb(81.263447%,80.921645%,81.007095%);fill-opacity:1;" d="M 7.972656 21.28125 L 7.972656 38.667969 L 8.117188 38.667969 L 8.117188 21.28125 L 7.972656 21.28125 Z M 7.972656 21.28125 "/>
<path style=" stroke:none;fill-rule:nonzero;fill:rgb(81.937896%,81.608301%,81.6907%);fill-opacity:1;" d="M 8.117188 21.28125 L 8.117188 38.667969 L 8.257812 38.667969 L 8.257812 21.28125 L 8.117188 21.28125 Z M 8.117188 21.28125 "/>
<path style=" stroke:none;fill-rule:nonzero;fill:rgb(82.610819%,82.294957%,82.372778%);fill-opacity:1;" d="M 8.257812 21.28125 L 8.257812 38.667969 L 8.398438 38.667969 L 8.398438 21.28125 L 8.257812 21.28125 Z M 8.257812 21.28125 "/>
<path style=" stroke:none;fill-rule:nonzero;fill:rgb(83.285267%,82.981613%,83.056382%);fill-opacity:1;" d="M 8.398438 21.28125 L 8.398438 38.667969 L 8.539062 38.667969 L 8.539062 21.28125 L 8.398438 21.28125 Z M 8.398438 21.28125 "/>
<path style=" stroke:none;fill-rule:nonzero;fill:rgb(83.959716%,83.666743%,83.739986%);fill-opacity:1;" d="M 8.539062 21.28125 L 8.539062 38.667969 L 8.683594 38.667969 L 8.683594 21.28125 L 8.539062 21.28125 Z M 8.539062 21.28125 "/>
<path style=" stroke:none;fill-rule:nonzero;fill:rgb(84.632639%,84.353399%,84.42359%);fill-opacity:1;" d="M 8.683594 21.28125 L 8.683594 38.667969 L 8.824219 38.667969 L 8.824219 21.28125 L 8.683594 21.28125 Z M 8.683594 21.28125 "/>
<path style=" stroke:none;fill-rule:nonzero;fill:rgb(85.307088%,85.040055%,85.105669%);fill-opacity:1;" d="M 8.824219 21.28125 L 8.824219 38.667969 L 8.964844 38.667969 L 8.964844 21.28125 L 8.824219 21.28125 Z M 8.824219 21.28125 "/>
<path style=" stroke:none;fill-rule:nonzero;fill:rgb(85.981537%,85.726711%,85.789273%);fill-opacity:1;" d="M 8.964844 21.28125 L 8.964844 38.667969 L 9.105469 38.667969 L 9.105469 21.28125 L 8.964844 21.28125 Z M 8.964844 21.28125 "/>
<path style=" stroke:none;fill-rule:nonzero;fill:rgb(86.654459%,86.411841%,86.472877%);fill-opacity:1;" d="M 9.105469 21.28125 L 9.105469 38.667969 L 9.25 38.667969 L 9.25 21.28125 L 9.105469 21.28125 Z M 9.105469 21.28125 "/>
<path style=" stroke:none;fill-rule:nonzero;fill:rgb(87.328908%,87.098497%,87.156481%);fill-opacity:1;" d="M 9.25 21.28125 L 9.25 38.667969 L 9.390625 38.667969 L 9.390625 21.28125 L 9.25 21.28125 Z M 9.25 21.28125 "/>
<path style=" stroke:none;fill-rule:nonzero;fill:rgb(88.003357%,87.785153%,87.83856%);fill-opacity:1;" d="M 9.390625 21.28125 L 9.390625 38.667969 L 9.53125 38.667969 L 9.53125 21.28125 L 9.390625 21.28125 Z M 9.390625 21.28125 "/>
<path style=" stroke:none;fill-rule:nonzero;fill:rgb(88.677806%,88.471809%,88.522164%);fill-opacity:1;" d="M 9.53125 21.28125 L 9.53125 38.667969 L 9.675781 38.667969 L 9.675781 21.28125 L 9.53125 21.28125 Z M 9.53125 21.28125 "/>
<path style=" stroke:none;fill-rule:nonzero;fill:rgb(89.350729%,89.156939%,89.205768%);fill-opacity:1;" d="M 9.675781 21.28125 L 9.675781 38.667969 L 9.816406 38.667969 L 9.816406 21.28125 L 9.675781 21.28125 Z M 9.675781 21.28125 "/>
<path style=" stroke:none;fill-rule:nonzero;fill:rgb(90.025177%,89.843595%,89.889372%);fill-opacity:1;" d="M 9.816406 21.28125 L 9.816406 38.667969 L 9.957031 38.667969 L 9.957031 21.28125 L 9.816406 21.28125 Z M 9.816406 21.28125 "/>
<path style=" stroke:none;fill-rule:nonzero;fill:rgb(90.699626%,90.530251%,90.57145%);fill-opacity:1;" d="M 9.957031 21.28125 L 9.957031 38.667969 L 10.097656 38.667969 L 10.097656 21.28125 L 9.957031 21.28125 Z M 9.957031 21.28125 "/>
<path style=" stroke:none;fill-rule:nonzero;fill:rgb(91.372549%,91.215381%,91.255055%);fill-opacity:1;" d="M 10.097656 21.28125 L 10.097656 38.667969 L 10.242188 38.667969 L 10.242188 21.28125 L 10.097656 21.28125 Z M 10.097656 21.28125 "/>
<path style=" stroke:none;fill-rule:nonzero;fill:rgb(92.046998%,91.902037%,91.938659%);fill-opacity:1;" d="M 10.242188 21.28125 L 10.242188 38.667969 L 10.382812 38.667969 L 10.382812 21.28125 L 10.242188 21.28125 Z M 10.242188 21.28125 "/>
<path style=" stroke:none;fill-rule:nonzero;fill:rgb(92.721447%,92.588693%,92.622263%);fill-opacity:1;" d="M 10.382812 21.28125 L 10.382812 38.667969 L 10.523438 38.667969 L 10.523438 21.28125 L 10.382812 21.28125 Z M 10.382812 21.28125 "/>
<path style=" stroke:none;fill-rule:nonzero;fill:rgb(93.394369%,93.275349%,93.304341%);fill-opacity:1;" d="M 10.523438 21.28125 L 10.523438 38.667969 L 10.664062 38.667969 L 10.664062 21.28125 L 10.523438 21.28125 Z M 10.523438 21.28125 "/>
<path style=" stroke:none;fill-rule:nonzero;fill:rgb(94.068818%,93.960479%,93.987945%);fill-opacity:1;" d="M 10.664062 21.28125 L 10.664062 38.667969 L 10.808594 38.667969 L 10.808594 21.28125 L 10.664062 21.28125 Z M 10.664062 21.28125 "/>
<path style=" stroke:none;fill-rule:nonzero;fill:rgb(94.743267%,94.647135%,94.67155%);fill-opacity:1;" d="M 10.808594 21.28125 L 10.808594 38.667969 L 10.949219 38.667969 L 10.949219 21.28125 L 10.808594 21.28125 Z M 10.808594 21.28125 "/>
<path style=" stroke:none;fill-rule:nonzero;fill:rgb(95.417716%,95.333791%,95.353628%);fill-opacity:1;" d="M 10.949219 21.28125 L 10.949219 38.667969 L 11.089844 38.667969 L 11.089844 21.28125 L 10.949219 21.28125 Z M 10.949219 21.28125 "/>
<path style=" stroke:none;fill-rule:nonzero;fill:rgb(96.090639%,96.020447%,96.037232%);fill-opacity:1;" d="M 11.089844 21.28125 L 11.089844 38.667969 L 11.234375 38.667969 L 11.234375 21.28125 L 11.089844 21.28125 Z M 11.089844 21.28125 "/>
<path style=" stroke:none;fill-rule:nonzero;fill:rgb(96.765087%,96.705577%,96.720836%);fill-opacity:1;" d="M 11.234375 21.28125 L 11.234375 38.667969 L 11.375 38.667969 L 11.375 21.28125 L 11.234375 21.28125 Z M 11.234375 21.28125 "/>
<path style=" stroke:none;fill-rule:nonzero;fill:rgb(97.439536%,97.392233%,97.40444%);fill-opacity:1;" d="M 11.375 21.28125 L 11.375 38.667969 L 11.515625 38.667969 L 11.515625 21.28125 L 11.375 21.28125 Z M 11.375 21.28125 "/>
<path style=" stroke:none;fill-rule:nonzero;fill:rgb(98.112459%,98.078889%,98.086519%);fill-opacity:1;" d="M 11.515625 21.28125 L 11.515625 38.667969 L 11.65625 38.667969 L 11.65625 21.28125 L 11.515625 21.28125 Z M 11.515625 21.28125 "/>
<path style=" stroke:none;fill-rule:nonzero;fill:rgb(98.786908%,98.765545%,98.770123%);fill-opacity:1;" d="M 11.65625 21.28125 L 11.65625 38.667969 L 11.800781 38.667969 L 11.800781 21.28125 L 11.65625 21.28125 Z M 11.65625 21.28125 "/>
<path style=" stroke:none;fill-rule:nonzero;fill:rgb(99.461357%,99.450675%,99.453727%);fill-opacity:1;" d="M 11.800781 21.28125 L 11.800781 38.667969 L 11.941406 38.667969 L 11.941406 21.28125 L 11.800781 21.28125 Z M 11.800781 21.28125 "/>
<path style=" stroke:none;fill-rule:nonzero;fill:rgb(99.50103%,99.491875%,99.4934%);fill-opacity:1;" d="M 11.941406 21.28125 L 11.941406 38.667969 L 12.222656 38.667969 L 12.222656 21.28125 L 11.941406 21.28125 Z M 11.941406 21.28125 "/>
<path style=" stroke:none;fill-rule:nonzero;fill:rgb(99.156176%,99.140917%,99.143969%);fill-opacity:1;" d="M 12.222656 21.28125 L 12.222656 38.667969 L 12.367188 38.667969 L 12.367188 21.28125 L 12.222656 21.28125 Z M 12.222656 21.28125 "/>
<path style=" stroke:none;fill-rule:nonzero;fill:rgb(98.770123%,98.747234%,98.753338%);fill-opacity:1;" d="M 12.367188 21.28125 L 12.367188 38.667969 L 12.507812 38.667969 L 12.507812 21.28125 L 12.367188 21.28125 Z M 12.367188 21.28125 "/>
<path style=" stroke:none;fill-rule:nonzero;fill:rgb(98.385595%,98.356603%,98.362707%);fill-opacity:1;" d="M 12.507812 21.28125 L 12.507812 38.667969 L 12.648438 38.667969 L 12.648438 21.28125 L 12.507812 21.28125 Z M 12.507812 21.28125 "/>
<path style=" stroke:none;fill-rule:nonzero;fill:rgb(97.999542%,97.962921%,97.972076%);fill-opacity:1;" d="M 12.648438 21.28125 L 12.648438 38.667969 L 12.792969 38.667969 L 12.792969 21.28125 L 12.648438 21.28125 Z M 12.648438 21.28125 "/>
<path style=" stroke:none;fill-rule:nonzero;fill:rgb(97.615015%,97.57229%,97.582971%);fill-opacity:1;" d="M 12.792969 21.28125 L 12.792969 38.667969 L 12.933594 38.667969 L 12.933594 21.28125 L 12.792969 21.28125 Z M 12.792969 21.28125 "/>
<path style=" stroke:none;fill-rule:nonzero;fill:rgb(97.230488%,97.178607%,97.19234%);fill-opacity:1;" d="M 12.933594 21.28125 L 12.933594 38.667969 L 13.074219 38.667969 L 13.074219 21.28125 L 12.933594 21.28125 Z M 12.933594 21.28125 "/>
<path style=" stroke:none;fill-rule:nonzero;fill:rgb(96.84596%,96.787976%,96.801709%);fill-opacity:1;" d="M 13.074219 21.28125 L 13.074219 38.667969 L 13.214844 38.667969 L 13.214844 21.28125 L 13.074219 21.28125 Z M 13.074219 21.28125 "/>
<path style=" stroke:none;fill-rule:nonzero;fill:rgb(96.459907%,96.395819%,96.411078%);fill-opacity:1;" d="M 13.214844 21.28125 L 13.214844 38.667969 L 13.359375 38.667969 L 13.359375 21.28125 L 13.214844 21.28125 Z M 13.214844 21.28125 "/>
<path style=" stroke:none;fill-rule:nonzero;fill:rgb(96.073854%,96.002136%,96.020447%);fill-opacity:1;" d="M 13.359375 21.28125 L 13.359375 38.667969 L 13.5 38.667969 L 13.5 21.28125 L 13.359375 21.28125 Z M 13.359375 21.28125 "/>
<path style=" stroke:none;fill-rule:nonzero;fill:rgb(95.6878%,95.609979%,95.629816%);fill-opacity:1;" d="M 13.5 21.28125 L 13.5 38.667969 L 13.640625 38.667969 L 13.640625 21.28125 L 13.5 21.28125 Z M 13.5 21.28125 "/>
<path style=" stroke:none;fill-rule:nonzero;fill:rgb(95.303273%,95.217823%,95.239185%);fill-opacity:1;" d="M 13.640625 21.28125 L 13.640625 38.667969 L 13.785156 38.667969 L 13.785156 21.28125 L 13.640625 21.28125 Z M 13.640625 21.28125 "/>
<path style=" stroke:none;fill-rule:nonzero;fill:rgb(94.918746%,94.825666%,94.848554%);fill-opacity:1;" d="M 13.785156 21.28125 L 13.785156 38.667969 L 13.925781 38.667969 L 13.925781 21.28125 L 13.785156 21.28125 Z M 13.785156 21.28125 "/>
<path style=" stroke:none;fill-rule:nonzero;fill:rgb(94.534218%,94.435035%,94.459449%);fill-opacity:1;" d="M 13.925781 21.28125 L 13.925781 38.667969 L 14.066406 38.667969 L 14.066406 21.28125 L 13.925781 21.28125 Z M 13.925781 21.28125 "/>
<path style=" stroke:none;fill-rule:nonzero;fill:rgb(94.148165%,94.041352%,94.067292%);fill-opacity:1;" d="M 14.066406 21.28125 L 14.066406 38.667969 L 14.207031 38.667969 L 14.207031 21.28125 L 14.066406 21.28125 Z M 14.066406 21.28125 "/>
<path style=" stroke:none;fill-rule:nonzero;fill:rgb(93.763638%,93.650721%,93.678187%);fill-opacity:1;" d="M 14.207031 21.28125 L 14.207031 38.667969 L 14.351562 38.667969 L 14.351562 21.28125 L 14.207031 21.28125 Z M 14.207031 21.28125 "/>
<path style=" stroke:none;fill-rule:nonzero;fill:rgb(93.377584%,93.257038%,93.287556%);fill-opacity:1;" d="M 14.351562 21.28125 L 14.351562 38.667969 L 14.492188 38.667969 L 14.492188 21.28125 L 14.351562 21.28125 Z M 14.351562 21.28125 "/>
<path style=" stroke:none;fill-rule:nonzero;fill:rgb(92.993057%,92.866407%,92.898451%);fill-opacity:1;" d="M 14.492188 21.28125 L 14.492188 38.667969 L 14.632812 38.667969 L 14.632812 21.28125 L 14.492188 21.28125 Z M 14.492188 21.28125 "/>
<path style=" stroke:none;fill-rule:nonzero;fill:rgb(92.60853%,92.472724%,92.506294%);fill-opacity:1;" d="M 14.632812 21.28125 L 14.632812 38.667969 L 14.773438 38.667969 L 14.773438 21.28125 L 14.632812 21.28125 Z M 14.632812 21.28125 "/>
<path style=" stroke:none;fill-rule:nonzero;fill:rgb(92.224002%,92.082094%,92.117189%);fill-opacity:1;" d="M 14.773438 21.28125 L 14.773438 38.667969 L 14.917969 38.667969 L 14.917969 21.28125 L 14.773438 21.28125 Z M 14.773438 21.28125 "/>
<path style=" stroke:none;fill-rule:nonzero;fill:rgb(91.837949%,91.689937%,91.726558%);fill-opacity:1;" d="M 14.917969 21.28125 L 14.917969 38.667969 L 15.058594 38.667969 L 15.058594 21.28125 L 14.917969 21.28125 Z M 14.917969 21.28125 "/>
<path style=" stroke:none;fill-rule:nonzero;fill:rgb(91.453422%,91.29778%,91.335927%);fill-opacity:1;" d="M 15.058594 21.28125 L 15.058594 38.667969 L 15.199219 38.667969 L 15.199219 21.28125 L 15.058594 21.28125 Z M 15.058594 21.28125 "/>
<path style=" stroke:none;fill-rule:nonzero;fill:rgb(91.067369%,90.905623%,90.945296%);fill-opacity:1;" d="M 15.199219 21.28125 L 15.199219 38.667969 L 15.34375 38.667969 L 15.34375 21.28125 L 15.199219 21.28125 Z M 15.199219 21.28125 "/>
<path style=" stroke:none;fill-rule:nonzero;fill:rgb(90.681315%,90.51194%,90.554665%);fill-opacity:1;" d="M 15.34375 21.28125 L 15.34375 38.667969 L 15.484375 38.667969 L 15.484375 21.28125 L 15.34375 21.28125 Z M 15.34375 21.28125 "/>
<path style=" stroke:none;fill-rule:nonzero;fill:rgb(90.296788%,90.119783%,90.164034%);fill-opacity:1;" d="M 15.484375 21.28125 L 15.484375 38.667969 L 15.625 38.667969 L 15.625 21.28125 L 15.484375 21.28125 Z M 15.484375 21.28125 "/>
<path style=" stroke:none;fill-rule:nonzero;fill:rgb(89.912261%,89.727626%,89.773404%);fill-opacity:1;" d="M 15.625 21.28125 L 15.625 38.667969 L 15.765625 38.667969 L 15.765625 21.28125 L 15.625 21.28125 Z M 15.625 21.28125 "/>
<path style=" stroke:none;fill-rule:nonzero;fill:rgb(89.526207%,89.33547%,89.382773%);fill-opacity:1;" d="M 15.765625 21.28125 L 15.765625 38.667969 L 15.910156 38.667969 L 15.910156 21.28125 L 15.765625 21.28125 Z M 15.765625 21.28125 "/>
<path style=" stroke:none;fill-rule:nonzero;fill:rgb(89.14168%,88.944839%,88.993668%);fill-opacity:1;" d="M 15.910156 21.28125 L 15.910156 38.667969 L 16.050781 38.667969 L 16.050781 21.28125 L 15.910156 21.28125 Z M 15.910156 21.28125 "/>
<path style=" stroke:none;fill-rule:nonzero;fill:rgb(88.755627%,88.551156%,88.603037%);fill-opacity:1;" d="M 16.050781 21.28125 L 16.050781 38.667969 L 16.191406 38.667969 L 16.191406 21.28125 L 16.050781 21.28125 Z M 16.050781 21.28125 "/>
<path style=" stroke:none;fill-rule:nonzero;fill:rgb(88.371099%,88.160525%,88.212406%);fill-opacity:1;" d="M 16.191406 21.28125 L 16.191406 38.667969 L 16.332031 38.667969 L 16.332031 21.28125 L 16.191406 21.28125 Z M 16.191406 21.28125 "/>
<path style=" stroke:none;fill-rule:nonzero;fill:rgb(87.986572%,87.766842%,87.821775%);fill-opacity:1;" d="M 16.332031 21.28125 L 16.332031 38.667969 L 16.476562 38.667969 L 16.476562 21.28125 L 16.332031 21.28125 Z M 16.332031 21.28125 "/>
<path style=" stroke:none;fill-rule:nonzero;fill:rgb(87.602045%,87.376211%,87.43267%);fill-opacity:1;" d="M 16.476562 21.28125 L 16.476562 38.667969 L 16.617188 38.667969 L 16.617188 21.28125 L 16.476562 21.28125 Z M 16.476562 21.28125 "/>
<path style=" stroke:none;fill-rule:nonzero;fill:rgb(87.215991%,86.982528%,87.040513%);fill-opacity:1;" d="M 16.617188 21.28125 L 16.617188 38.667969 L 16.757812 38.667969 L 16.757812 21.28125 L 16.617188 21.28125 Z M 16.617188 21.28125 "/>
<path style=" stroke:none;fill-rule:nonzero;fill:rgb(86.831464%,86.591897%,86.651408%);fill-opacity:1;" d="M 16.757812 21.28125 L 16.757812 38.667969 L 16.902344 38.667969 L 16.902344 21.28125 L 16.757812 21.28125 Z M 16.757812 21.28125 "/>
<path style=" stroke:none;fill-rule:nonzero;fill:rgb(86.445411%,86.199741%,86.260777%);fill-opacity:1;" d="M 16.902344 21.28125 L 16.902344 38.667969 L 17.042969 38.667969 L 17.042969 21.28125 L 16.902344 21.28125 Z M 16.902344 21.28125 "/>
<path style=" stroke:none;fill-rule:nonzero;fill:rgb(86.060883%,85.807584%,85.870146%);fill-opacity:1;" d="M 17.042969 21.28125 L 17.042969 38.667969 L 17.183594 38.667969 L 17.183594 21.28125 L 17.042969 21.28125 Z M 17.042969 21.28125 "/>
<path style=" stroke:none;fill-rule:nonzero;fill:rgb(85.676356%,85.415427%,85.479515%);fill-opacity:1;" d="M 17.183594 21.28125 L 17.183594 38.667969 L 17.324219 38.667969 L 17.324219 21.28125 L 17.183594 21.28125 Z M 17.183594 21.28125 "/>
<path style=" stroke:none;fill-rule:nonzero;fill:rgb(85.290303%,85.021744%,85.088884%);fill-opacity:1;" d="M 17.324219 21.28125 L 17.324219 38.667969 L 17.46875 38.667969 L 17.46875 21.28125 L 17.324219 21.28125 Z M 17.324219 21.28125 "/>
<path style=" stroke:none;fill-rule:nonzero;fill:rgb(84.90425%,84.629587%,84.698253%);fill-opacity:1;" d="M 17.46875 21.28125 L 17.46875 38.667969 L 17.609375 38.667969 L 17.609375 21.28125 L 17.46875 21.28125 Z M 17.46875 21.28125 "/>
<path style=" stroke:none;fill-rule:nonzero;fill:rgb(84.519722%,84.238956%,84.307622%);fill-opacity:1;" d="M 17.609375 21.28125 L 17.609375 38.667969 L 17.75 38.667969 L 17.75 21.28125 L 17.609375 21.28125 Z M 17.609375 21.28125 "/>
<path style=" stroke:none;fill-rule:nonzero;fill:rgb(84.133669%,83.845274%,83.916991%);fill-opacity:1;" d="M 17.75 21.28125 L 17.75 38.667969 L 17.890625 38.667969 L 17.890625 21.28125 L 17.75 21.28125 Z M 17.75 21.28125 "/>
<path style=" stroke:none;fill-rule:nonzero;fill:rgb(83.749142%,83.454643%,83.527886%);fill-opacity:1;" d="M 17.890625 21.28125 L 17.890625 38.667969 L 18.035156 38.667969 L 18.035156 21.28125 L 17.890625 21.28125 Z M 17.890625 21.28125 "/>
<path style=" stroke:none;fill-rule:nonzero;fill:rgb(83.364614%,83.06096%,83.137255%);fill-opacity:1;" d="M 18.035156 21.28125 L 18.035156 38.667969 L 18.175781 38.667969 L 18.175781 21.28125 L 18.035156 21.28125 Z M 18.035156 21.28125 "/>
<path style=" stroke:none;fill-rule:nonzero;fill:rgb(82.980087%,82.670329%,82.746624%);fill-opacity:1;" d="M 18.175781 21.28125 L 18.175781 38.667969 L 18.316406 38.667969 L 18.316406 21.28125 L 18.175781 21.28125 Z M 18.175781 21.28125 "/>
<path style=" stroke:none;fill-rule:nonzero;fill:rgb(82.594034%,82.276646%,82.355993%);fill-opacity:1;" d="M 18.316406 21.28125 L 18.316406 38.667969 L 18.460938 38.667969 L 18.460938 21.28125 L 18.316406 21.28125 Z M 18.316406 21.28125 "/>
<path style=" stroke:none;fill-rule:nonzero;fill:rgb(82.209506%,81.886015%,81.966888%);fill-opacity:1;" d="M 18.460938 21.28125 L 18.460938 38.667969 L 18.601562 38.667969 L 18.601562 21.28125 L 18.460938 21.28125 Z M 18.460938 21.28125 "/>
<path style=" stroke:none;fill-rule:nonzero;fill:rgb(81.823453%,81.493858%,81.574731%);fill-opacity:1;" d="M 18.601562 21.28125 L 18.601562 38.667969 L 18.742188 38.667969 L 18.742188 21.28125 L 18.601562 21.28125 Z M 18.601562 21.28125 "/>
<path style=" stroke:none;fill-rule:nonzero;fill:rgb(81.438926%,81.101701%,81.185626%);fill-opacity:1;" d="M 18.742188 21.28125 L 18.742188 38.667969 L 18.882812 38.667969 L 18.882812 21.28125 L 18.742188 21.28125 Z M 18.742188 21.28125 "/>
<path style=" stroke:none;fill-rule:nonzero;fill:rgb(81.054398%,80.709545%,80.794995%);fill-opacity:1;" d="M 18.882812 21.28125 L 18.882812 38.667969 L 19.027344 38.667969 L 19.027344 21.28125 L 18.882812 21.28125 Z M 18.882812 21.28125 "/>
<path style=" stroke:none;fill-rule:nonzero;fill:rgb(80.669871%,80.317388%,80.404364%);fill-opacity:1;" d="M 19.027344 21.28125 L 19.027344 38.667969 L 19.167969 38.667969 L 19.167969 21.28125 L 19.027344 21.28125 Z M 19.027344 21.28125 "/>
<path style=" stroke:none;fill-rule:nonzero;fill:rgb(80.283818%,79.925231%,80.013733%);fill-opacity:1;" d="M 19.167969 21.28125 L 19.167969 38.667969 L 19.308594 38.667969 L 19.308594 21.28125 L 19.167969 21.28125 Z M 19.167969 21.28125 "/>
<path style=" stroke:none;fill-rule:nonzero;fill:rgb(79.897765%,79.531548%,79.623102%);fill-opacity:1;" d="M 19.308594 21.28125 L 19.308594 38.667969 L 19.453125 38.667969 L 19.453125 21.28125 L 19.308594 21.28125 Z M 19.308594 21.28125 "/>
<path style=" stroke:none;fill-rule:nonzero;fill:rgb(79.511711%,79.139391%,79.232471%);fill-opacity:1;" d="M 19.453125 21.28125 L 19.453125 38.667969 L 19.59375 38.667969 L 19.59375 21.28125 L 19.453125 21.28125 Z M 19.453125 21.28125 "/>
<path style=" stroke:none;fill-rule:nonzero;fill:rgb(79.12871%,78.74876%,78.84184%);fill-opacity:1;" d="M 19.59375 21.28125 L 19.59375 38.667969 L 19.734375 38.667969 L 19.734375 21.28125 L 19.59375 21.28125 Z M 19.59375 21.28125 "/>
<path style=" stroke:none;fill-rule:nonzero;fill:rgb(78.742657%,78.355077%,78.451209%);fill-opacity:1;" d="M 19.734375 21.28125 L 19.734375 38.667969 L 19.875 38.667969 L 19.875 21.28125 L 19.734375 21.28125 Z M 19.734375 21.28125 "/>
<path style=" stroke:none;fill-rule:nonzero;fill:rgb(78.358129%,77.964446%,78.062104%);fill-opacity:1;" d="M 19.875 21.28125 L 19.875 38.667969 L 20.019531 38.667969 L 20.019531 21.28125 L 19.875 21.28125 Z M 19.875 21.28125 "/>
<path style=" stroke:none;fill-rule:nonzero;fill:rgb(77.972076%,77.570764%,77.671473%);fill-opacity:1;" d="M 20.019531 21.28125 L 20.019531 38.667969 L 20.160156 38.667969 L 20.160156 21.28125 L 20.019531 21.28125 Z M 20.019531 21.28125 "/>
<path style=" stroke:none;fill-rule:nonzero;fill:rgb(77.587549%,77.180133%,77.280842%);fill-opacity:1;" d="M 20.160156 21.28125 L 20.160156 38.667969 L 20.300781 38.667969 L 20.300781 21.28125 L 20.160156 21.28125 Z M 20.160156 21.28125 "/>
<path style=" stroke:none;fill-rule:nonzero;fill:rgb(77.201495%,76.78645%,76.890211%);fill-opacity:1;" d="M 20.300781 21.28125 L 20.300781 38.667969 L 20.441406 38.667969 L 20.441406 21.28125 L 20.300781 21.28125 Z M 20.300781 21.28125 "/>
<path style=" stroke:none;fill-rule:nonzero;fill:rgb(76.816968%,76.395819%,76.501106%);fill-opacity:1;" d="M 20.441406 21.28125 L 20.441406 38.667969 L 20.585938 38.667969 L 20.585938 21.28125 L 20.441406 21.28125 Z M 20.441406 21.28125 "/>
<path style=" stroke:none;fill-rule:nonzero;fill:rgb(76.432441%,76.003662%,76.108949%);fill-opacity:1;" d="M 20.585938 21.28125 L 20.585938 38.667969 L 20.726562 38.667969 L 20.726562 21.28125 L 20.585938 21.28125 Z M 20.585938 21.28125 "/>
<path style=" stroke:none;fill-rule:nonzero;fill:rgb(76.047913%,75.611505%,75.719844%);fill-opacity:1;" d="M 20.726562 21.28125 L 20.726562 38.667969 L 20.867188 38.667969 L 20.867188 21.28125 L 20.726562 21.28125 Z M 20.726562 21.28125 "/>
<path style=" stroke:none;fill-rule:nonzero;fill:rgb(75.66186%,75.219348%,75.329213%);fill-opacity:1;" d="M 20.867188 21.28125 L 20.867188 38.667969 L 21.011719 38.667969 L 21.011719 21.28125 L 20.867188 21.28125 Z M 20.867188 21.28125 "/>
<path style=" stroke:none;fill-rule:nonzero;fill:rgb(75.277333%,74.827192%,74.940108%);fill-opacity:1;" d="M 21.011719 21.28125 L 21.011719 38.667969 L 21.152344 38.667969 L 21.152344 21.28125 L 21.011719 21.28125 Z M 21.011719 21.28125 "/>
<path style=" stroke:none;fill-rule:nonzero;fill:rgb(74.891279%,74.435035%,74.547951%);fill-opacity:1;" d="M 21.152344 21.28125 L 21.152344 38.667969 L 21.292969 38.667969 L 21.292969 21.28125 L 21.152344 21.28125 Z M 21.152344 21.28125 "/>
<path style=" stroke:none;fill-rule:nonzero;fill:rgb(74.506752%,74.042878%,74.157321%);fill-opacity:1;" d="M 21.292969 21.28125 L 21.292969 38.667969 L 21.433594 38.667969 L 21.433594 21.28125 L 21.292969 21.28125 Z M 21.292969 21.28125 "/>
<path style=" stroke:none;fill-rule:nonzero;fill:rgb(74.120699%,73.649195%,73.76669%);fill-opacity:1;" d="M 21.433594 21.28125 L 21.433594 38.667969 L 21.578125 38.667969 L 21.578125 21.28125 L 21.433594 21.28125 Z M 21.433594 21.28125 "/>
<path style=" stroke:none;fill-rule:nonzero;fill:rgb(73.736172%,73.258564%,73.376059%);fill-opacity:1;" d="M 21.578125 21.28125 L 21.578125 38.667969 L 21.71875 38.667969 L 21.71875 21.28125 L 21.578125 21.28125 Z M 21.578125 21.28125 "/>
<path style=" stroke:none;fill-rule:nonzero;fill:rgb(73.350118%,72.864881%,72.985428%);fill-opacity:1;" d="M 21.71875 21.28125 L 21.71875 38.667969 L 21.859375 38.667969 L 21.859375 21.28125 L 21.71875 21.28125 Z M 21.71875 21.28125 "/>
<path style=" stroke:none;fill-rule:nonzero;fill:rgb(72.965591%,72.47425%,72.596323%);fill-opacity:1;" d="M 21.859375 21.28125 L 21.859375 38.667969 L 22 38.667969 L 22 21.28125 L 21.859375 21.28125 Z M 21.859375 21.28125 "/>
<path style=" stroke:none;fill-rule:nonzero;fill:rgb(72.579538%,72.080568%,72.205692%);fill-opacity:1;" d="M 22 21.28125 L 22 38.667969 L 22.144531 38.667969 L 22.144531 21.28125 L 22 21.28125 Z M 22 21.28125 "/>
<path style=" stroke:none;fill-rule:nonzero;fill:rgb(72.196536%,71.689937%,71.815061%);fill-opacity:1;" d="M 22.144531 21.28125 L 22.144531 38.667969 L 22.285156 38.667969 L 22.285156 21.28125 L 22.144531 21.28125 Z M 22.144531 21.28125 "/>
<path style=" stroke:none;fill-rule:nonzero;fill:rgb(71.810483%,71.29778%,71.42443%);fill-opacity:1;" d="M 22.285156 21.28125 L 22.285156 38.667969 L 22.425781 38.667969 L 22.425781 21.28125 L 22.285156 21.28125 Z M 22.285156 21.28125 "/>
<path style=" stroke:none;fill-rule:nonzero;fill:rgb(71.425956%,70.905623%,71.035325%);fill-opacity:1;" d="M 22.425781 21.28125 L 22.425781 38.667969 L 22.570312 38.667969 L 22.570312 21.28125 L 22.425781 21.28125 Z M 22.425781 21.28125 "/>
<path style=" stroke:none;fill-rule:nonzero;fill:rgb(71.039902%,70.513466%,70.644694%);fill-opacity:1;" d="M 22.570312 21.28125 L 22.570312 38.667969 L 22.710938 38.667969 L 22.710938 21.28125 L 22.570312 21.28125 Z M 22.570312 21.28125 "/>
<path style=" stroke:none;fill-rule:nonzero;fill:rgb(70.655375%,70.121309%,70.254063%);fill-opacity:1;" d="M 22.710938 21.28125 L 22.710938 38.667969 L 22.851562 38.667969 L 22.851562 21.28125 L 22.710938 21.28125 Z M 22.710938 21.28125 "/>
<path style=" stroke:none;fill-rule:nonzero;fill:rgb(70.269322%,69.729152%,69.863432%);fill-opacity:1;" d="M 22.851562 21.28125 L 22.851562 38.667969 L 22.992188 38.667969 L 22.992188 21.28125 L 22.851562 21.28125 Z M 22.851562 21.28125 "/>
<path style=" stroke:none;fill-rule:nonzero;fill:rgb(69.88632%,69.336995%,69.474327%);fill-opacity:1;" d="M 22.992188 21.28125 L 22.992188 38.667969 L 23.136719 38.667969 L 23.136719 21.28125 L 22.992188 21.28125 Z M 22.992188 21.28125 "/>
<path style=" stroke:none;fill-rule:nonzero;fill:rgb(69.500267%,68.944839%,69.08217%);fill-opacity:1;" d="M 23.136719 21.28125 L 23.136719 38.667969 L 23.277344 38.667969 L 23.277344 21.28125 L 23.136719 21.28125 Z M 23.136719 21.28125 "/>
<path style=" stroke:none;fill-rule:nonzero;fill:rgb(69.114214%,68.552682%,68.691539%);fill-opacity:1;" d="M 23.277344 21.28125 L 23.277344 38.667969 L 23.417969 38.667969 L 23.417969 21.28125 L 23.277344 21.28125 Z M 23.277344 21.28125 "/>
<path style=" stroke:none;fill-rule:nonzero;fill:rgb(68.728161%,68.158999%,68.300908%);fill-opacity:1;" d="M 23.417969 21.28125 L 23.417969 38.667969 L 23.558594 38.667969 L 23.558594 21.28125 L 23.417969 21.28125 Z M 23.417969 21.28125 "/>
<path style=" stroke:none;fill-rule:nonzero;fill:rgb(68.343633%,67.768368%,67.911803%);fill-opacity:1;" d="M 23.558594 21.28125 L 23.558594 38.667969 L 23.703125 38.667969 L 23.703125 21.28125 L 23.558594 21.28125 Z M 23.558594 21.28125 "/>
<path style=" stroke:none;fill-rule:nonzero;fill:rgb(67.959106%,67.374685%,67.519646%);fill-opacity:1;" d="M 23.703125 21.28125 L 23.703125 38.667969 L 23.84375 38.667969 L 23.84375 21.28125 L 23.703125 21.28125 Z M 23.703125 21.28125 "/>
<path style=" stroke:none;fill-rule:nonzero;fill:rgb(67.574578%,66.984054%,67.130541%);fill-opacity:1;" d="M 23.84375 21.28125 L 23.84375 38.667969 L 23.984375 38.667969 L 23.984375 21.28125 L 23.84375 21.28125 Z M 23.84375 21.28125 "/>
<path style=" stroke:none;fill-rule:nonzero;fill:rgb(67.188525%,66.591897%,66.73991%);fill-opacity:1;" d="M 23.984375 21.28125 L 23.984375 38.667969 L 24.128906 38.667969 L 24.128906 21.28125 L 23.984375 21.28125 Z M 23.984375 21.28125 "/>
<path style=" stroke:none;fill-rule:nonzero;fill:rgb(66.803998%,66.199741%,66.349279%);fill-opacity:1;" d="M 24.128906 21.28125 L 24.128906 38.667969 L 24.269531 38.667969 L 24.269531 21.28125 L 24.128906 21.28125 Z M 24.128906 21.28125 "/>
<path style=" stroke:none;fill-rule:nonzero;fill:rgb(66.417945%,65.807584%,65.958648%);fill-opacity:1;" d="M 24.269531 21.28125 L 24.269531 38.667969 L 24.410156 38.667969 L 24.410156 21.28125 L 24.269531 21.28125 Z M 24.269531 21.28125 "/>
<path style=" stroke:none;fill-rule:nonzero;fill:rgb(66.033417%,65.415427%,65.569543%);fill-opacity:1;" d="M 24.410156 21.28125 L 24.410156 38.667969 L 24.550781 38.667969 L 24.550781 21.28125 L 24.410156 21.28125 Z M 24.410156 21.28125 "/>
<path style=" stroke:none;fill-rule:nonzero;fill:rgb(65.647364%,65.02327%,65.178912%);fill-opacity:1;" d="M 24.550781 21.28125 L 24.550781 38.667969 L 24.695312 38.667969 L 24.695312 21.28125 L 24.550781 21.28125 Z M 24.550781 21.28125 "/>
<path style=" stroke:none;fill-rule:nonzero;fill:rgb(65.264363%,64.631113%,64.788281%);fill-opacity:1;" d="M 24.695312 21.28125 L 24.695312 38.667969 L 24.835938 38.667969 L 24.835938 21.28125 L 24.695312 21.28125 Z M 24.695312 21.28125 "/>
<path style=" stroke:none;fill-rule:nonzero;fill:rgb(64.878309%,64.238956%,64.39765%);fill-opacity:1;" d="M 24.835938 21.28125 L 24.835938 38.667969 L 24.976562 38.667969 L 24.976562 21.28125 L 24.835938 21.28125 Z M 24.835938 21.28125 "/>
<path style=" stroke:none;fill-rule:nonzero;fill:rgb(64.493782%,63.846799%,64.008545%);fill-opacity:1;" d="M 24.976562 21.28125 L 24.976562 38.667969 L 25.121094 38.667969 L 25.121094 21.28125 L 24.976562 21.28125 Z M 24.976562 21.28125 "/>
<path style=" stroke:none;fill-rule:nonzero;fill:rgb(64.107729%,63.454643%,63.616388%);fill-opacity:1;" d="M 25.121094 21.28125 L 25.121094 38.667969 L 25.261719 38.667969 L 25.261719 21.28125 L 25.121094 21.28125 Z M 25.121094 21.28125 "/>
<path style=" stroke:none;fill-rule:nonzero;fill:rgb(63.721675%,63.062486%,63.225757%);fill-opacity:1;" d="M 25.261719 21.28125 L 25.261719 38.667969 L 25.402344 38.667969 L 25.402344 21.28125 L 25.261719 21.28125 Z M 25.261719 21.28125 "/>
<path style=" stroke:none;fill-rule:nonzero;fill:rgb(63.337148%,62.668803%,62.835126%);fill-opacity:1;" d="M 25.402344 21.28125 L 25.402344 38.667969 L 25.542969 38.667969 L 25.542969 21.28125 L 25.402344 21.28125 Z M 25.402344 21.28125 "/>
<path style=" stroke:none;fill-rule:nonzero;fill:rgb(62.952621%,62.278172%,62.446021%);fill-opacity:1;" d="M 25.542969 21.28125 L 25.542969 38.667969 L 25.6875 38.667969 L 25.6875 21.28125 L 25.542969 21.28125 Z M 25.542969 21.28125 "/>
<path style=" stroke:none;fill-rule:nonzero;fill:rgb(62.566567%,61.884489%,62.053864%);fill-opacity:1;" d="M 25.6875 21.28125 L 25.6875 38.667969 L 25.828125 38.667969 L 25.828125 21.28125 L 25.6875 21.28125 Z M 25.6875 21.28125 "/>
<path style=" stroke:none;fill-rule:nonzero;fill:rgb(62.18204%,61.493858%,61.664759%);fill-opacity:1;" d="M 25.828125 21.28125 L 25.828125 38.667969 L 25.96875 38.667969 L 25.96875 21.28125 L 25.828125 21.28125 Z M 25.828125 21.28125 "/>
<path style=" stroke:none;fill-rule:nonzero;fill:rgb(61.795987%,61.101701%,61.274128%);fill-opacity:1;" d="M 25.96875 21.28125 L 25.96875 38.667969 L 26.109375 38.667969 L 26.109375 21.28125 L 25.96875 21.28125 Z M 25.96875 21.28125 "/>
<path style=" stroke:none;fill-rule:nonzero;fill:rgb(61.41146%,60.709545%,60.883497%);fill-opacity:1;" d="M 26.109375 21.28125 L 26.109375 38.667969 L 26.253906 38.667969 L 26.253906 21.28125 L 26.109375 21.28125 Z M 26.109375 21.28125 "/>
<path style=" stroke:none;fill-rule:nonzero;fill:rgb(61.026932%,60.317388%,60.492866%);fill-opacity:1;" d="M 26.253906 21.28125 L 26.253906 38.667969 L 26.394531 38.667969 L 26.394531 21.28125 L 26.253906 21.28125 Z M 26.253906 21.28125 "/>
<path style=" stroke:none;fill-rule:nonzero;fill:rgb(60.642405%,59.925231%,60.103761%);fill-opacity:1;" d="M 26.394531 21.28125 L 26.394531 38.667969 L 26.535156 38.667969 L 26.535156 21.28125 L 26.394531 21.28125 Z M 26.394531 21.28125 "/>
<path style=" stroke:none;fill-rule:nonzero;fill:rgb(60.256352%,59.533074%,59.71313%);fill-opacity:1;" d="M 26.535156 21.28125 L 26.535156 38.667969 L 26.679688 38.667969 L 26.679688 21.28125 L 26.535156 21.28125 Z M 26.535156 21.28125 "/>
<path style=" stroke:none;fill-rule:nonzero;fill:rgb(59.871824%,59.140917%,59.322499%);fill-opacity:1;" d="M 26.679688 21.28125 L 26.679688 38.667969 L 26.820312 38.667969 L 26.820312 21.28125 L 26.679688 21.28125 Z M 26.679688 21.28125 "/>
<path style=" stroke:none;fill-rule:nonzero;fill:rgb(59.485771%,58.74876%,58.931868%);fill-opacity:1;" d="M 26.820312 21.28125 L 26.820312 38.667969 L 26.960938 38.667969 L 26.960938 21.28125 L 26.820312 21.28125 Z M 26.820312 21.28125 "/>
<path style=" stroke:none;fill-rule:nonzero;fill:rgb(59.101244%,58.356603%,58.542763%);fill-opacity:1;" d="M 26.960938 21.28125 L 26.960938 38.667969 L 27.101562 38.667969 L 27.101562 21.28125 L 26.960938 21.28125 Z M 26.960938 21.28125 "/>
<path style=" stroke:none;fill-rule:nonzero;fill:rgb(58.716716%,57.964446%,58.150607%);fill-opacity:1;" d="M 27.101562 21.28125 L 27.101562 38.667969 L 27.246094 38.667969 L 27.246094 21.28125 L 27.101562 21.28125 Z M 27.101562 21.28125 "/>
<path style=" stroke:none;fill-rule:nonzero;fill:rgb(58.330663%,57.57229%,57.759976%);fill-opacity:1;" d="M 27.246094 21.28125 L 27.246094 38.667969 L 27.386719 38.667969 L 27.386719 21.28125 L 27.246094 21.28125 Z M 27.246094 21.28125 "/>
<path style=" stroke:none;fill-rule:nonzero;fill:rgb(57.94461%,57.178607%,57.369345%);fill-opacity:1;" d="M 27.386719 21.28125 L 27.386719 38.667969 L 27.527344 38.667969 L 27.527344 21.28125 L 27.386719 21.28125 Z M 27.386719 21.28125 "/>
<path style=" stroke:none;fill-rule:nonzero;fill:rgb(57.560082%,56.787976%,56.98024%);fill-opacity:1;" d="M 27.527344 21.28125 L 27.527344 38.667969 L 27.667969 38.667969 L 27.667969 21.28125 L 27.527344 21.28125 Z M 27.527344 21.28125 "/>
<path style=" stroke:none;fill-rule:nonzero;fill:rgb(57.174029%,56.395819%,56.588083%);fill-opacity:1;" d="M 27.667969 21.28125 L 27.667969 38.667969 L 27.8125 38.667969 L 27.8125 21.28125 L 27.667969 21.28125 Z M 27.667969 21.28125 "/>
<path style=" stroke:none;fill-rule:nonzero;fill:rgb(56.789502%,56.003662%,56.198978%);fill-opacity:1;" d="M 27.8125 21.28125 L 27.8125 38.667969 L 27.953125 38.667969 L 27.953125 21.28125 L 27.8125 21.28125 Z M 27.8125 21.28125 "/>
<path style=" stroke:none;fill-rule:nonzero;fill:rgb(56.404974%,55.611505%,55.808347%);fill-opacity:1;" d="M 27.953125 21.28125 L 27.953125 38.667969 L 28.09375 38.667969 L 28.09375 21.28125 L 27.953125 21.28125 Z M 27.953125 21.28125 "/>
<path style=" stroke:none;fill-rule:nonzero;fill:rgb(56.020447%,55.219348%,55.417716%);fill-opacity:1;" d="M 28.09375 21.28125 L 28.09375 38.667969 L 28.238281 38.667969 L 28.238281 21.28125 L 28.09375 21.28125 Z M 28.09375 21.28125 "/>
<path style=" stroke:none;fill-rule:nonzero;fill:rgb(55.634394%,54.827192%,55.027085%);fill-opacity:1;" d="M 28.238281 21.28125 L 28.238281 38.667969 L 28.378906 38.667969 L 28.378906 21.28125 L 28.238281 21.28125 Z M 28.238281 21.28125 "/>
<path style=" stroke:none;fill-rule:nonzero;fill:rgb(55.249866%,54.435035%,54.63798%);fill-opacity:1;" d="M 28.378906 21.28125 L 28.378906 38.667969 L 28.519531 38.667969 L 28.519531 21.28125 L 28.378906 21.28125 Z M 28.378906 21.28125 "/>
<path style=" stroke:none;fill-rule:nonzero;fill:rgb(54.863813%,54.042878%,54.247349%);fill-opacity:1;" d="M 28.519531 21.28125 L 28.519531 38.667969 L 28.660156 38.667969 L 28.660156 21.28125 L 28.519531 21.28125 Z M 28.519531 21.28125 "/>
<path style=" stroke:none;fill-rule:nonzero;fill:rgb(54.479286%,53.650721%,53.856718%);fill-opacity:1;" d="M 28.660156 21.28125 L 28.660156 38.667969 L 28.804688 38.667969 L 28.804688 21.28125 L 28.660156 21.28125 Z M 28.660156 21.28125 "/>
<path style=" stroke:none;fill-rule:nonzero;fill:rgb(54.094759%,53.258564%,53.466087%);fill-opacity:1;" d="M 28.804688 21.28125 L 28.804688 38.667969 L 28.945312 38.667969 L 28.945312 21.28125 L 28.804688 21.28125 Z M 28.804688 21.28125 "/>
<path style=" stroke:none;fill-rule:nonzero;fill:rgb(53.710231%,52.867933%,53.076982%);fill-opacity:1;" d="M 28.945312 21.28125 L 28.945312 38.667969 L 29.085938 38.667969 L 29.085938 21.28125 L 28.945312 21.28125 Z M 28.945312 21.28125 "/>
<path style=" stroke:none;fill-rule:nonzero;fill:rgb(53.324178%,52.47425%,52.684825%);fill-opacity:1;" d="M 29.085938 21.28125 L 29.085938 38.667969 L 29.226562 38.667969 L 29.226562 21.28125 L 29.085938 21.28125 Z M 29.085938 21.28125 "/>
<path style=" stroke:none;fill-rule:nonzero;fill:rgb(52.938125%,52.082094%,52.294194%);fill-opacity:1;" d="M 29.226562 21.28125 L 29.226562 38.667969 L 29.371094 38.667969 L 29.371094 21.28125 L 29.226562 21.28125 Z M 29.226562 21.28125 "/>
<path style=" stroke:none;fill-rule:nonzero;fill:rgb(52.552071%,51.688411%,51.903563%);fill-opacity:1;" d="M 29.371094 21.28125 L 29.371094 38.667969 L 29.511719 38.667969 L 29.511719 21.28125 L 29.371094 21.28125 Z M 29.371094 21.28125 "/>
<path style=" stroke:none;fill-rule:nonzero;fill:rgb(52.167544%,51.29778%,51.514458%);fill-opacity:1;" d="M 29.511719 21.28125 L 29.511719 38.667969 L 29.652344 38.667969 L 29.652344 21.28125 L 29.511719 21.28125 Z M 29.511719 21.28125 "/>
<path style=" stroke:none;fill-rule:nonzero;fill:rgb(51.783017%,50.905623%,51.122301%);fill-opacity:1;" d="M 29.652344 21.28125 L 29.652344 38.667969 L 29.796875 38.667969 L 29.796875 21.28125 L 29.652344 21.28125 Z M 29.652344 21.28125 "/>
<path style=" stroke:none;fill-rule:nonzero;fill:rgb(51.398489%,50.513466%,50.733196%);fill-opacity:1;" d="M 29.796875 21.28125 L 29.796875 38.667969 L 29.9375 38.667969 L 29.9375 21.28125 L 29.796875 21.28125 Z M 29.796875 21.28125 "/>
<path style=" stroke:none;fill-rule:nonzero;fill:rgb(51.012436%,50.121309%,50.342565%);fill-opacity:1;" d="M 29.9375 21.28125 L 29.9375 38.667969 L 30.078125 38.667969 L 30.078125 21.28125 L 29.9375 21.28125 Z M 29.9375 21.28125 "/>
<path style=" stroke:none;fill-rule:nonzero;fill:rgb(50.627909%,49.729152%,49.95346%);fill-opacity:1;" d="M 30.078125 21.28125 L 30.078125 38.667969 L 30.21875 38.667969 L 30.21875 21.28125 L 30.078125 21.28125 Z M 30.078125 21.28125 "/>
<path style=" stroke:none;fill-rule:nonzero;fill:rgb(50.241855%,49.336995%,49.561303%);fill-opacity:1;" d="M 30.21875 21.28125 L 30.21875 38.667969 L 30.363281 38.667969 L 30.363281 21.28125 L 30.21875 21.28125 Z M 30.21875 21.28125 "/>
<path style=" stroke:none;fill-rule:nonzero;fill:rgb(49.857328%,48.944839%,49.172198%);fill-opacity:1;" d="M 30.363281 21.28125 L 30.363281 38.667969 L 30.503906 38.667969 L 30.503906 21.28125 L 30.363281 21.28125 Z M 30.363281 21.28125 "/>
<path style=" stroke:none;fill-rule:nonzero;fill:rgb(49.472801%,48.552682%,48.781567%);fill-opacity:1;" d="M 30.503906 21.28125 L 30.503906 38.667969 L 30.644531 38.667969 L 30.644531 21.28125 L 30.503906 21.28125 Z M 30.503906 21.28125 "/>
<path style=" stroke:none;fill-rule:nonzero;fill:rgb(49.088273%,48.162051%,48.390936%);fill-opacity:1;" d="M 30.644531 21.28125 L 30.644531 38.667969 L 30.789062 38.667969 L 30.789062 21.28125 L 30.644531 21.28125 Z M 30.644531 21.28125 "/>
<path style=" stroke:none;fill-rule:nonzero;fill:rgb(48.70222%,47.768368%,48.000305%);fill-opacity:1;" d="M 30.789062 21.28125 L 30.789062 38.667969 L 30.929688 38.667969 L 30.929688 21.28125 L 30.789062 21.28125 Z M 30.789062 21.28125 "/>
<path style=" stroke:none;fill-rule:nonzero;fill:rgb(48.316167%,47.376211%,47.609674%);fill-opacity:1;" d="M 30.929688 21.28125 L 30.929688 38.667969 L 31.070312 38.667969 L 31.070312 21.28125 L 30.929688 21.28125 Z M 30.929688 21.28125 "/>
<path style=" stroke:none;fill-rule:nonzero;fill:rgb(47.930114%,46.982528%,47.219043%);fill-opacity:1;" d="M 31.070312 21.28125 L 31.070312 38.667969 L 31.210938 38.667969 L 31.210938 21.28125 L 31.070312 21.28125 Z M 31.070312 21.28125 "/>
<path style=" stroke:none;fill-rule:nonzero;fill:rgb(47.545586%,46.591897%,46.828412%);fill-opacity:1;" d="M 31.210938 21.28125 L 31.210938 38.667969 L 31.355469 38.667969 L 31.355469 21.28125 L 31.210938 21.28125 Z M 31.210938 21.28125 "/>
<path style=" stroke:none;fill-rule:nonzero;fill:rgb(47.161059%,46.199741%,46.437781%);fill-opacity:1;" d="M 31.355469 21.28125 L 31.355469 38.667969 L 31.496094 38.667969 L 31.496094 21.28125 L 31.355469 21.28125 Z M 31.355469 21.28125 "/>
<path style=" stroke:none;fill-rule:nonzero;fill:rgb(46.776532%,45.807584%,46.048676%);fill-opacity:1;" d="M 31.496094 21.28125 L 31.496094 38.667969 L 31.636719 38.667969 L 31.636719 21.28125 L 31.496094 21.28125 Z M 31.496094 21.28125 "/>
<path style=" stroke:none;fill-rule:nonzero;fill:rgb(46.390478%,45.415427%,45.656519%);fill-opacity:1;" d="M 31.636719 21.28125 L 31.636719 38.667969 L 31.777344 38.667969 L 31.777344 21.28125 L 31.636719 21.28125 Z M 31.636719 21.28125 "/>
<path style=" stroke:none;fill-rule:nonzero;fill:rgb(46.005951%,45.02327%,45.267414%);fill-opacity:1;" d="M 31.777344 21.28125 L 31.777344 38.667969 L 31.921875 38.667969 L 31.921875 21.28125 L 31.777344 21.28125 Z M 31.777344 21.28125 "/>
<path style=" stroke:none;fill-rule:nonzero;fill:rgb(45.619898%,44.631113%,44.876783%);fill-opacity:1;" d="M 31.921875 21.28125 L 31.921875 38.667969 L 32.0625 38.667969 L 32.0625 21.28125 L 31.921875 21.28125 Z M 31.921875 21.28125 "/>
<path style=" stroke:none;fill-rule:nonzero;fill:rgb(45.23537%,44.238956%,44.487678%);fill-opacity:1;" d="M 32.0625 21.28125 L 32.0625 38.667969 L 32.203125 38.667969 L 32.203125 21.28125 L 32.0625 21.28125 Z M 32.0625 21.28125 "/>
<path style=" stroke:none;fill-rule:nonzero;fill:rgb(44.850843%,43.846799%,44.095521%);fill-opacity:1;" d="M 32.203125 21.28125 L 32.203125 38.667969 L 32.347656 38.667969 L 32.347656 21.28125 L 32.203125 21.28125 Z M 32.203125 21.28125 "/>
<path style=" stroke:none;fill-rule:nonzero;fill:rgb(44.466316%,43.454643%,43.706416%);fill-opacity:1;" d="M 32.347656 21.28125 L 32.347656 38.667969 L 32.488281 38.667969 L 32.488281 21.28125 L 32.347656 21.28125 Z M 32.347656 21.28125 "/>
<path style=" stroke:none;fill-rule:nonzero;fill:rgb(44.080262%,43.062486%,43.315785%);fill-opacity:1;" d="M 32.488281 21.28125 L 32.488281 38.667969 L 32.628906 38.667969 L 32.628906 21.28125 L 32.488281 21.28125 Z M 32.488281 21.28125 "/>
<path style=" stroke:none;fill-rule:nonzero;fill:rgb(43.695735%,42.671855%,42.925154%);fill-opacity:1;" d="M 32.628906 21.28125 L 32.628906 38.667969 L 32.769531 38.667969 L 32.769531 21.28125 L 32.628906 21.28125 Z M 32.628906 21.28125 "/>
<path style=" stroke:none;fill-rule:nonzero;fill:rgb(43.309682%,42.278172%,42.534524%);fill-opacity:1;" d="M 32.769531 21.28125 L 32.769531 38.667969 L 32.914062 38.667969 L 32.914062 21.28125 L 32.769531 21.28125 Z M 32.769531 21.28125 "/>
<path style=" stroke:none;fill-rule:nonzero;fill:rgb(42.925154%,41.886015%,42.143893%);fill-opacity:1;" d="M 32.914062 21.28125 L 32.914062 38.667969 L 33.054688 38.667969 L 33.054688 21.28125 L 32.914062 21.28125 Z M 32.914062 21.28125 "/>
<path style=" stroke:none;fill-rule:nonzero;fill:rgb(42.539101%,41.492332%,41.753262%);fill-opacity:1;" d="M 33.054688 21.28125 L 33.054688 38.667969 L 33.195312 38.667969 L 33.195312 21.28125 L 33.054688 21.28125 Z M 33.054688 21.28125 "/>
<path style=" stroke:none;fill-rule:nonzero;fill:rgb(42.154574%,41.101701%,41.362631%);fill-opacity:1;" d="M 33.195312 21.28125 L 33.195312 38.667969 L 33.335938 38.667969 L 33.335938 21.28125 L 33.195312 21.28125 Z M 33.195312 21.28125 "/>
<path style=" stroke:none;fill-rule:nonzero;fill:rgb(41.768521%,40.709545%,40.972%);fill-opacity:1;" d="M 33.335938 21.28125 L 33.335938 38.667969 L 33.480469 38.667969 L 33.480469 21.28125 L 33.335938 21.28125 Z M 33.335938 21.28125 "/>
<path style=" stroke:none;fill-rule:nonzero;fill:rgb(41.383993%,40.317388%,40.582895%);fill-opacity:1;" d="M 33.480469 21.28125 L 33.480469 38.667969 L 33.621094 38.667969 L 33.621094 21.28125 L 33.480469 21.28125 Z M 33.480469 21.28125 "/>
<path style=" stroke:none;fill-rule:nonzero;fill:rgb(40.99794%,39.925231%,40.192264%);fill-opacity:1;" d="M 33.621094 21.28125 L 33.621094 38.667969 L 33.761719 38.667969 L 33.761719 21.28125 L 33.621094 21.28125 Z M 33.621094 21.28125 "/>
<path style=" stroke:none;fill-rule:nonzero;fill:rgb(40.614939%,39.533074%,39.801633%);fill-opacity:1;" d="M 33.761719 21.28125 L 33.761719 38.667969 L 33.90625 38.667969 L 33.90625 21.28125 L 33.761719 21.28125 Z M 33.761719 21.28125 "/>
<path style=" stroke:none;fill-rule:nonzero;fill:rgb(40.228885%,39.140917%,39.411002%);fill-opacity:1;" d="M 33.90625 21.28125 L 33.90625 38.667969 L 34.046875 38.667969 L 34.046875 21.28125 L 33.90625 21.28125 Z M 33.90625 21.28125 "/>
<path style=" stroke:none;fill-rule:nonzero;fill:rgb(39.844358%,38.74876%,39.021897%);fill-opacity:1;" d="M 34.046875 21.28125 L 34.046875 38.667969 L 34.1875 38.667969 L 34.1875 21.28125 L 34.046875 21.28125 Z M 34.046875 21.28125 "/>
<path style=" stroke:none;fill-rule:nonzero;fill:rgb(39.458305%,38.356603%,38.62974%);fill-opacity:1;" d="M 34.1875 21.28125 L 34.1875 38.667969 L 34.328125 38.667969 L 34.328125 21.28125 L 34.1875 21.28125 Z M 34.1875 21.28125 "/>
<path style=" stroke:none;fill-rule:nonzero;fill:rgb(39.073777%,37.965972%,38.240635%);fill-opacity:1;" d="M 34.328125 21.28125 L 34.328125 38.667969 L 34.472656 38.667969 L 34.472656 21.28125 L 34.328125 21.28125 Z M 34.328125 21.28125 "/>
<path style=" stroke:none;fill-rule:nonzero;fill:rgb(38.687724%,37.57229%,37.850004%);fill-opacity:1;" d="M 34.472656 21.28125 L 34.472656 38.667969 L 34.613281 38.667969 L 34.613281 21.28125 L 34.472656 21.28125 Z M 34.472656 21.28125 "/>
<path style=" stroke:none;fill-rule:nonzero;fill:rgb(38.303197%,37.181659%,37.459373%);fill-opacity:1;" d="M 34.613281 21.28125 L 34.613281 38.667969 L 34.753906 38.667969 L 34.753906 21.28125 L 34.613281 21.28125 Z M 34.613281 21.28125 "/>
<path style=" stroke:none;fill-rule:nonzero;fill:rgb(37.918669%,36.787976%,37.068742%);fill-opacity:1;" d="M 34.753906 21.28125 L 34.753906 38.667969 L 34.894531 38.667969 L 34.894531 21.28125 L 34.753906 21.28125 Z M 34.753906 21.28125 "/>
<path style=" stroke:none;fill-rule:nonzero;fill:rgb(37.532616%,36.395819%,36.678111%);fill-opacity:1;" d="M 34.894531 21.28125 L 34.894531 38.667969 L 35.039062 38.667969 L 35.039062 21.28125 L 34.894531 21.28125 Z M 34.894531 21.28125 "/>
<path style=" stroke:none;fill-rule:nonzero;fill:rgb(37.146563%,36.003662%,36.28748%);fill-opacity:1;" d="M 35.039062 21.28125 L 35.039062 38.667969 L 35.179688 38.667969 L 35.179688 21.28125 L 35.039062 21.28125 Z M 35.039062 21.28125 "/>
<path style=" stroke:none;fill-rule:nonzero;fill:rgb(36.762036%,35.611505%,35.896849%);fill-opacity:1;" d="M 35.179688 21.28125 L 35.179688 38.667969 L 35.320312 38.667969 L 35.320312 21.28125 L 35.179688 21.28125 Z M 35.179688 21.28125 "/>
<path style=" stroke:none;fill-rule:nonzero;fill:rgb(36.375982%,35.219348%,35.506218%);fill-opacity:1;" d="M 35.320312 21.28125 L 35.320312 38.667969 L 35.464844 38.667969 L 35.464844 21.28125 L 35.320312 21.28125 Z M 35.320312 21.28125 "/>
<path style=" stroke:none;fill-rule:nonzero;fill:rgb(35.992981%,34.827192%,35.117113%);fill-opacity:1;" d="M 35.464844 21.28125 L 35.464844 38.667969 L 35.605469 38.667969 L 35.605469 21.28125 L 35.464844 21.28125 Z M 35.464844 21.28125 "/>
<path style=" stroke:none;fill-rule:nonzero;fill:rgb(35.606928%,34.435035%,34.726482%);fill-opacity:1;" d="M 35.605469 21.28125 L 35.605469 38.667969 L 35.746094 38.667969 L 35.746094 21.28125 L 35.605469 21.28125 Z M 35.605469 21.28125 "/>
<path style=" stroke:none;fill-rule:nonzero;fill:rgb(35.2224%,34.042878%,34.335851%);fill-opacity:1;" d="M 35.746094 21.28125 L 35.746094 38.667969 L 35.886719 38.667969 L 35.886719 21.28125 L 35.746094 21.28125 Z M 35.746094 21.28125 "/>
<path style=" stroke:none;fill-rule:nonzero;fill:rgb(34.836347%,33.650721%,33.94522%);fill-opacity:1;" d="M 35.886719 21.28125 L 35.886719 38.667969 L 36.03125 38.667969 L 36.03125 21.28125 L 35.886719 21.28125 Z M 35.886719 21.28125 "/>
<path style=" stroke:none;fill-rule:nonzero;fill:rgb(34.45182%,33.258564%,33.556115%);fill-opacity:1;" d="M 36.03125 21.28125 L 36.03125 38.667969 L 36.171875 38.667969 L 36.171875 21.28125 L 36.03125 21.28125 Z M 36.03125 21.28125 "/>
<path style=" stroke:none;fill-rule:nonzero;fill:rgb(34.065766%,32.866407%,33.163958%);fill-opacity:1;" d="M 36.171875 21.28125 L 36.171875 38.667969 L 36.3125 38.667969 L 36.3125 21.28125 L 36.171875 21.28125 Z M 36.171875 21.28125 "/>
<path style=" stroke:none;fill-rule:nonzero;fill:rgb(33.682765%,32.475776%,32.774853%);fill-opacity:1;" d="M 36.3125 21.28125 L 36.3125 38.667969 L 36.457031 38.667969 L 36.457031 21.28125 L 36.3125 21.28125 Z M 36.3125 21.28125 "/>
<path style=" stroke:none;fill-rule:nonzero;fill:rgb(33.296712%,32.082094%,32.384222%);fill-opacity:1;" d="M 36.457031 21.28125 L 36.457031 38.667969 L 36.597656 38.667969 L 36.597656 21.28125 L 36.457031 21.28125 Z M 36.457031 21.28125 "/>
<path style=" stroke:none;fill-rule:nonzero;fill:rgb(32.912184%,31.691463%,31.993591%);fill-opacity:1;" d="M 36.597656 21.28125 L 36.597656 38.667969 L 36.738281 38.667969 L 36.738281 21.28125 L 36.597656 21.28125 Z M 36.597656 21.28125 "/>
<path style=" stroke:none;fill-rule:nonzero;fill:rgb(32.526131%,31.29778%,31.60296%);fill-opacity:1;" d="M 36.738281 21.28125 L 36.738281 38.667969 L 36.878906 38.667969 L 36.878906 21.28125 L 36.738281 21.28125 Z M 36.738281 21.28125 "/>
<path style=" stroke:none;fill-rule:nonzero;fill:rgb(32.140078%,30.905623%,31.212329%);fill-opacity:1;" d="M 36.878906 21.28125 L 36.878906 38.667969 L 37.023438 38.667969 L 37.023438 21.28125 L 36.878906 21.28125 Z M 36.878906 21.28125 "/>
<path style=" stroke:none;fill-rule:nonzero;fill:rgb(31.75555%,30.513466%,30.821698%);fill-opacity:1;" d="M 37.023438 21.28125 L 37.023438 38.667969 L 37.164062 38.667969 L 37.164062 21.28125 L 37.023438 21.28125 Z M 37.023438 21.28125 "/>
<path style=" stroke:none;fill-rule:nonzero;fill:rgb(31.371023%,30.121309%,30.431067%);fill-opacity:1;" d="M 37.164062 21.28125 L 37.164062 38.667969 L 37.304688 38.667969 L 37.304688 21.28125 L 37.164062 21.28125 Z M 37.164062 21.28125 "/>
<path style=" stroke:none;fill-rule:nonzero;fill:rgb(30.98497%,29.729152%,30.040436%);fill-opacity:1;" d="M 37.304688 21.28125 L 37.304688 38.667969 L 37.445312 38.667969 L 37.445312 21.28125 L 37.304688 21.28125 Z M 37.304688 21.28125 "/>
</g>
<path style=" stroke:none;fill-rule:nonzero;fill:rgb(70.000763%,70.000763%,70.000763%);fill-opacity:1;" d="M 19.308594 28.335938 C 29.324219 28.335938 37.445312 25.175781 37.445312 21.28125 C 37.445312 17.386719 29.324219 14.226562 19.308594 14.226562 C 9.292969 14.226562 1.171875 17.386719 1.171875 21.28125 C 1.171875 25.175781 9.292969 28.335938 19.308594 28.335938 "/>
<path style=" stroke:none;fill-rule:nonzero;fill:rgb(100%,100%,100%);fill-opacity:1;" d="M 15.339844 18.457031 L 16.859375 20.734375 L 11.117188 22.0625 L 12.371094 21.015625 L 3.496094 19.5 L 5.722656 17.832031 L 14.285156 19.28125 L 15.339844 18.457031 "/>
<g clip-path="url(#clip2)" clip-rule="nonzero">
<path style=" stroke:none;fill-rule:nonzero;fill:rgb(0%,0%,0%);fill-opacity:1;" d="M 11.117188 22.753906 L 12.371094 21.707031 L 12.371094 21.011719 L 11.265625 21.425781 L 10.367188 22.253906 L 11.117188 22.753906 "/>
<path style=" stroke:none;fill-rule:nonzero;fill:rgb(0%,0%,0%);fill-opacity:1;" d="M 17.34375 20.875 L 15.890625 18.457031 L 15.132812 18.25 L 14.234375 18.941406 L 5.738281 17.488281 L 3.046875 19.421875 L 3.496094 20.191406 L 5.722656 18.523438 L 14.285156 19.972656 L 15.339844 19.148438 L 16.859375 21.425781 L 17.34375 20.875 "/>
</g>
<path style=" stroke:none;fill-rule:nonzero;fill:rgb(100%,100%,100%);fill-opacity:1;" d="M 23.417969 23.980469 L 22.382812 21.632812 L 27.5625 20.597656 L 26.664062 21.402344 L 35.296875 22.875 L 33.226562 24.535156 L 24.644531 22.921875 L 23.417969 23.980469 "/>
<g clip-path="url(#clip3)" clip-rule="nonzero">
<path style=" stroke:none;fill-rule:nonzero;fill:rgb(0%,0%,0%);fill-opacity:1;" d="M 22.382812 22.460938 L 27.5625 21.425781 L 28.113281 20.527344 L 27.492188 20.113281 L 21.761719 21.425781 L 22.382812 22.460938 "/>
<path style=" stroke:none;fill-rule:nonzero;fill:rgb(0%,0%,0%);fill-opacity:1;" d="M 35.710938 22.601562 L 27.699219 21.082031 L 26.664062 21.496094 L 26.664062 22.230469 L 35.296875 23.703125 L 35.710938 22.601562 "/>
</g>
<path style=" stroke:none;fill-rule:nonzero;fill:rgb(100%,100%,100%);fill-opacity:1;" d="M 20.589844 17.214844 L 26.390625 15.625 L 26.457031 18.109375 L 25.007812 17.835938 L 22.175781 20.183594 L 19.472656 19.789062 L 22.398438 17.492188 L 20.589844 17.214844 "/>
<g clip-path="url(#clip4)" clip-rule="nonzero">
<path style=" stroke:none;fill-rule:nonzero;fill:rgb(0%,0%,0%);fill-opacity:1;" d="M 20.863281 17.835938 L 26.597656 16.246094 L 27.011719 15.695312 L 26.527344 15.140625 L 19.898438 17.007812 L 20.863281 17.835938 "/>
<path style=" stroke:none;fill-rule:nonzero;fill:rgb(0%,0%,0%);fill-opacity:1;" d="M 22.382812 17.488281 L 22.382812 18.316406 L 19.34375 20.667969 L 19.070312 19.492188 L 21.277344 17.765625 L 22.382812 17.488281 "/>
</g>
<path style=" stroke:none;fill-rule:nonzero;fill:rgb(100%,100%,100%);fill-opacity:1;" d="M 18.101562 26.121094 L 12.578125 27.15625 L 12.371094 24.601562 L 13.957031 24.949219 L 17 22.351562 L 19.691406 22.808594 L 16.445312 25.640625 L 18.101562 26.121094 "/>
<g clip-path="url(#clip5)" clip-rule="nonzero">
<path style=" stroke:none;fill-rule:nonzero;fill:rgb(0%,0%,0%);fill-opacity:1;" d="M 11.816406 23.980469 L 11.816406 25.363281 L 13.957031 25.777344 L 17 23.179688 L 19.691406 23.636719 L 20.449219 22.601562 L 16.859375 21.910156 L 13.820312 24.464844 L 11.816406 23.980469 "/>
<path style=" stroke:none;fill-rule:nonzero;fill:rgb(0%,0%,0%);fill-opacity:1;" d="M 18.238281 25.433594 L 16.445312 25.640625 L 16.445312 26.46875 L 18.101562 26.949219 L 19.070312 26.121094 L 18.238281 25.433594 "/>
</g>
</g>
</svg>
