<?xml version="1.0" encoding="UTF-8"?>
<svg xmlns="http://www.w3.org/2000/svg" xmlns:xlink="http://www.w3.org/1999/xlink" width="44" height="24" viewBox="0 0 44 24" version="1.1">
<g id="surface0">
<path style=" stroke:none;fill-rule:nonzero;fill:rgb(50.000763%,50.000763%,50.000763%);fill-opacity:1;" d="M 0.125 7.203125 L 35.855469 7.203125 L 35.855469 23.136719 L 0.125 23.136719 L 0.125 7.203125 Z M 0.125 7.203125 "/>
<path style=" stroke:none;fill-rule:nonzero;fill:rgb(70.000763%,70.000763%,70.000763%);fill-opacity:1;" d="M 35.855469 7.203125 L 0.105469 7.203125 L 8.945312 0.464844 L 43.308594 0.4375 L 35.855469 7.203125 "/>
<path style=" stroke:none;fill-rule:nonzero;fill:rgb(20%,20%,20%);fill-opacity:1;" d="M 43.308594 0.4375 L 43.195312 15.945312 L 35.855469 23.179688 L 35.855469 7.203125 L 43.308594 0.4375 "/>
<path style=" stroke:none;fill-rule:nonzero;fill:rgb(100%,100%,100%);fill-opacity:1;" d="M 18.972656 13.371094 L 20.183594 13.367188 L 20.464844 13.648438 L 21.402344 13.648438 L 22.445312 12.886719 L 23.578125 12.886719 L 24.539062 13.953125 L 25.609375 13.949219 L 26.773438 12.878906 L 27.75 12.878906 L 28.59375 13.792969 L 29.5625 13.792969 L 29.925781 13.097656 L 32.75 14.816406 L 30.769531 16.484375 L 18.976562 16.503906 L 18.976562 16.886719 L 17.132812 16.890625 C 16.671875 16.894531 16.273438 17.164062 16.089844 17.558594 C 15.21875 18.9375 13.6875 19.855469 11.945312 19.855469 C 9.226562 19.859375 7.023438 17.648438 7.023438 14.910156 C 7.023438 12.175781 9.226562 9.953125 11.945312 9.949219 C 13.667969 9.945312 15.179688 10.835938 16.058594 12.179688 C 16.226562 12.605469 16.644531 12.910156 17.132812 12.910156 L 18.972656 12.90625 L 18.972656 13.371094 "/>
<path style="fill:none;stroke-width:0.512;stroke-linecap:butt;stroke-linejoin:round;stroke:rgb(0%,0%,0%);stroke-opacity:1;stroke-miterlimit:4;" d="M 31.648438 8.316406 L 18.976562 8.300781 C 18.476562 8.296875 17.78125 8.164062 17.140625 7.894531 C 17.78125 7.625 18.476562 7.496094 18.976562 7.496094 M 32.195312 9.472656 L 19.523438 9.453125 C 18.957031 9.453125 17.78125 9.566406 17.511719 9.675781 " transform="matrix(1,0,0,-1,0,24)"/>
<path style="fill-rule:nonzero;fill:rgb(100%,100%,100%);fill-opacity:1;stroke-width:0.366;stroke-linecap:butt;stroke-linejoin:round;stroke:rgb(0%,0%,0%);stroke-opacity:1;stroke-miterlimit:4;" d="M 11.945312 4.675781 C 14.371094 4.679688 16.339844 6.664062 16.339844 9.105469 C 16.339844 11.550781 14.371094 13.523438 11.945312 13.519531 C 9.519531 13.515625 7.550781 11.535156 7.550781 9.09375 C 7.550781 6.648438 9.519531 4.671875 11.945312 4.675781 Z M 11.945312 4.675781 " transform="matrix(1,0,0,-1,0,24)"/>
<path style="fill-rule:nonzero;fill:rgb(100%,100%,100%);fill-opacity:1;stroke-width:0.512;stroke-linecap:butt;stroke-linejoin:round;stroke:rgb(0%,0%,0%);stroke-opacity:1;stroke-miterlimit:4;" d="M 9.429688 7.933594 C 10.0625 7.933594 10.582031 8.453125 10.582031 9.09375 C 10.582031 9.734375 10.0625 10.253906 9.429688 10.253906 C 8.789062 10.253906 8.273438 9.730469 8.273438 9.09375 C 8.273438 8.449219 8.789062 7.933594 9.429688 7.933594 Z M 9.429688 7.933594 " transform="matrix(1,0,0,-1,0,24)"/>
</g>
</svg>
