<?xml version="1.0" encoding="UTF-8"?>
<svg xmlns="http://www.w3.org/2000/svg" xmlns:xlink="http://www.w3.org/1999/xlink" width="36" height="26" viewBox="0 0 36 26" version="1.1">
<defs>
<clipPath id="clip1">
  <path d="M 0 26 L 35.769531 26 L 35.769531 0.519531 L 0 0.519531 L 0 26 Z M 0 26 "/>
</clipPath>
</defs>
<g id="surface0">
<path style=" stroke:none;fill-rule:nonzero;fill:rgb(74.120699%,73.649195%,73.76669%);fill-opacity:1;" d="M 0.199219 3.75 L 4.335938 0.519531 L 35.769531 0.519531 L 31.53125 3.75 L 0.199219 3.75 "/>
<path style=" stroke:none;fill-rule:nonzero;fill:rgb(13.730068%,12.159915%,12.54902%);fill-opacity:1;" d="M 31.53125 25.800781 L 0.199219 25.800781 "/>
<g clip-path="url(#clip1)" clip-rule="nonzero">
<path style="fill:none;stroke-width:0.4;stroke-linecap:round;stroke-linejoin:round;stroke:rgb(100%,100%,100%);stroke-opacity:1;stroke-miterlimit:4;" d="M 31.53125 0.199219 L 0.199219 0.199219 " transform="matrix(1,0,0,-1,0,26)"/>
</g>
<path style=" stroke:none;fill-rule:nonzero;fill:rgb(56.865797%,56.079957%,56.275273%);fill-opacity:1;" d="M 31.644531 3.578125 L 31.644531 25.808594 L 0.078125 25.808594 L 0.078125 3.53125 L 31.644531 3.578125 "/>
<path style=" stroke:none;fill-rule:nonzero;fill:rgb(30.98497%,29.729152%,30.040436%);fill-opacity:1;" d="M 35.621094 22.402344 L 35.621094 0.597656 L 31.566406 3.65625 L 31.566406 25.664062 L 35.621094 22.402344 "/>
<path style=" stroke:none;fill-rule:nonzero;fill:rgb(100%,100%,100%);fill-opacity:1;" d="M 28.953125 17.324219 L 24.777344 17.324219 L 24.777344 16.699219 L 22.71875 17.949219 L 24.777344 19.230469 L 24.777344 18.605469 L 28.953125 18.605469 L 28.953125 17.324219 "/>
<path style=" stroke:none;fill-rule:nonzero;fill:rgb(100%,100%,100%);fill-opacity:1;" d="M 8.453125 10.238281 L 4.277344 10.238281 L 4.277344 9.617188 L 2.21875 10.863281 L 4.277344 12.148438 L 4.277344 11.523438 L 8.453125 11.523438 L 8.453125 10.238281 "/>
<path style=" stroke:none;fill-rule:nonzero;fill:rgb(100%,100%,100%);fill-opacity:1;" d="M 23.496094 11.605469 L 27.507812 11.605469 L 27.507812 12.230469 L 29.566406 10.980469 L 27.507812 9.699219 L 27.507812 10.324219 L 23.496094 10.324219 L 23.496094 11.605469 "/>
<path style=" stroke:none;fill-rule:nonzero;fill:rgb(100%,100%,100%);fill-opacity:1;" d="M 2.496094 18.640625 L 6.507812 18.640625 L 6.507812 19.265625 L 8.566406 18.015625 L 6.507812 16.734375 L 6.507812 17.359375 L 2.496094 17.359375 L 2.496094 18.640625 "/>
<path style=" stroke:none;fill-rule:nonzero;fill:rgb(100%,100%,100%);fill-opacity:1;" d="M 6.324219 23.792969 C 6.296875 23.367188 6.617188 23.003906 7.039062 22.976562 C 7.460938 22.949219 7.824219 23.269531 7.851562 23.6875 C 7.878906 24.109375 7.5625 24.476562 7.140625 24.507812 C 6.71875 24.53125 6.351562 24.210938 6.324219 23.792969 "/>
<path style="fill:none;stroke-width:0.2;stroke-linecap:butt;stroke-linejoin:miter;stroke:rgb(13.730068%,12.159915%,12.54902%);stroke-opacity:1;stroke-miterlimit:4;" d="M 6.324219 2.207031 C 6.296875 2.632812 6.617188 2.996094 7.039062 3.023438 C 7.460938 3.050781 7.824219 2.730469 7.851562 2.3125 C 7.878906 1.890625 7.5625 1.523438 7.140625 1.492188 C 6.71875 1.46875 6.351562 1.789062 6.324219 2.207031 Z M 6.324219 2.207031 " transform="matrix(1,0,0,-1,0,26)"/>
<path style=" stroke:none;fill-rule:nonzero;fill:rgb(100%,100%,100%);fill-opacity:1;" d="M 7.949219 24.339844 L 6.390625 22.945312 L 10.425781 18.4375 L 11.984375 19.835938 L 7.949219 24.339844 "/>
<path style="fill:none;stroke-width:0.2;stroke-linecap:butt;stroke-linejoin:miter;stroke:rgb(13.730068%,12.159915%,12.54902%);stroke-opacity:1;stroke-miterlimit:4;" d="M 7.949219 1.660156 L 6.390625 3.054688 L 10.425781 7.5625 L 11.984375 6.164062 L 7.949219 1.660156 Z M 7.949219 1.660156 " transform="matrix(1,0,0,-1,0,26)"/>
<path style=" stroke:none;fill-rule:nonzero;fill:rgb(100%,100%,100%);fill-opacity:1;" d="M 10.320312 12.84375 C 10.703125 9.507812 13.730469 7.105469 17.066406 7.484375 C 20.402344 7.871094 22.804688 10.894531 22.421875 14.230469 C 22.042969 17.566406 19.015625 19.972656 15.679688 19.589844 C 12.34375 19.207031 9.9375 16.179688 10.320312 12.84375 Z M 9.339844 12.734375 C 8.894531 16.613281 11.6875 20.128906 15.566406 20.570312 C 19.445312 21.015625 22.964844 18.222656 23.40625 14.34375 C 23.851562 10.464844 21.054688 6.945312 17.179688 6.503906 C 13.300781 6.058594 9.78125 8.855469 9.339844 12.734375 "/>
<path style="fill:none;stroke-width:0.2;stroke-linecap:butt;stroke-linejoin:miter;stroke:rgb(13.730068%,12.159915%,12.54902%);stroke-opacity:1;stroke-miterlimit:4;" d="M 10.320312 13.15625 C 10.703125 16.492188 13.730469 18.894531 17.066406 18.515625 C 20.402344 18.128906 22.804688 15.105469 22.421875 11.769531 C 22.042969 8.433594 19.015625 6.027344 15.679688 6.410156 C 12.34375 6.792969 9.9375 9.820312 10.320312 13.15625 Z M 9.339844 13.265625 C 8.894531 9.386719 11.6875 5.871094 15.566406 5.429688 C 19.445312 4.984375 22.964844 7.777344 23.40625 11.65625 C 23.851562 15.535156 21.054688 19.054688 17.179688 19.496094 C 13.300781 19.941406 9.78125 17.144531 9.339844 13.265625 Z M 9.339844 13.265625 " transform="matrix(1,0,0,-1,0,26)"/>
<path style=" stroke:none;fill-rule:nonzero;fill:rgb(100%,100%,100%);fill-opacity:1;" d="M 9.449219 13.15625 C 9.832031 9.820312 12.859375 7.414062 16.195312 7.796875 C 19.53125 8.179688 21.933594 11.207031 21.550781 14.542969 C 21.167969 17.878906 18.144531 20.28125 14.808594 19.898438 C 11.472656 19.519531 9.070312 16.492188 9.449219 13.15625 Z M 8.46875 13.042969 C 8.023438 16.921875 10.816406 20.441406 14.695312 20.882812 C 18.574219 21.328125 22.089844 18.535156 22.535156 14.65625 C 22.980469 10.773438 20.183594 7.257812 16.308594 6.8125 C 12.429688 6.371094 8.910156 9.167969 8.46875 13.042969 "/>
<path style="fill:none;stroke-width:0.2;stroke-linecap:butt;stroke-linejoin:miter;stroke:rgb(13.730068%,12.159915%,12.54902%);stroke-opacity:1;stroke-miterlimit:4;" d="M 9.449219 12.84375 C 9.832031 16.179688 12.859375 18.585938 16.195312 18.203125 C 19.53125 17.820312 21.933594 14.792969 21.550781 11.457031 C 21.167969 8.121094 18.144531 5.71875 14.808594 6.101562 C 11.472656 6.480469 9.070312 9.507812 9.449219 12.84375 Z M 8.46875 12.957031 C 8.023438 9.078125 10.816406 5.558594 14.695312 5.117188 C 18.574219 4.671875 22.089844 7.464844 22.535156 11.34375 C 22.980469 15.226562 20.183594 18.742188 16.308594 19.1875 C 12.429688 19.628906 8.910156 16.832031 8.46875 12.957031 Z M 8.46875 12.957031 " transform="matrix(1,0,0,-1,0,26)"/>
<path style=" stroke:none;fill-rule:nonzero;fill:rgb(13.730068%,12.159915%,12.54902%);fill-opacity:1;" d="M 18.335938 17.710938 C 18.496094 17.710938 18.625 17.582031 18.625 17.421875 L 18.625 13.894531 C 18.625 13.734375 18.496094 13.605469 18.335938 13.605469 L 12.863281 13.605469 C 12.707031 13.605469 12.578125 13.734375 12.578125 13.894531 L 12.578125 17.421875 C 12.578125 17.582031 12.707031 17.710938 12.863281 17.710938 L 18.335938 17.710938 "/>
<path style="fill:none;stroke-width:0.3;stroke-linecap:round;stroke-linejoin:round;stroke:rgb(100%,100%,100%);stroke-opacity:1;stroke-miterlimit:4;" d="M 18.335938 8.289062 C 18.496094 8.289062 18.625 8.417969 18.625 8.578125 L 18.625 12.105469 C 18.625 12.265625 18.496094 12.394531 18.335938 12.394531 L 12.863281 12.394531 C 12.707031 12.394531 12.578125 12.265625 12.578125 12.105469 L 12.578125 8.578125 C 12.578125 8.417969 12.707031 8.289062 12.863281 8.289062 L 18.335938 8.289062 Z M 18.335938 8.289062 " transform="matrix(1,0,0,-1,0,26)"/>
<path style=" stroke:none;fill-rule:nonzero;fill:rgb(13.730068%,12.159915%,12.54902%);fill-opacity:1;" d="M 18.625 13.597656 L 19.777344 12.445312 L 13.726562 12.445312 L 12.578125 13.597656 L 18.625 13.597656 "/>
<path style="fill:none;stroke-width:0.3;stroke-linecap:round;stroke-linejoin:round;stroke:rgb(100%,100%,100%);stroke-opacity:1;stroke-miterlimit:4;" d="M 18.625 12.402344 L 19.777344 13.554688 L 13.726562 13.554688 L 12.578125 12.402344 L 18.625 12.402344 Z M 18.625 12.402344 " transform="matrix(1,0,0,-1,0,26)"/>
<path style=" stroke:none;fill-rule:nonzero;fill:rgb(13.730068%,12.159915%,12.54902%);fill-opacity:1;" d="M 19.777344 16.550781 L 19.777344 12.445312 L 18.625 13.597656 L 18.625 17.703125 L 19.777344 16.550781 "/>
<path style="fill:none;stroke-width:0.3;stroke-linecap:round;stroke-linejoin:round;stroke:rgb(100%,100%,100%);stroke-opacity:1;stroke-miterlimit:4;" d="M 19.777344 9.449219 L 19.777344 13.554688 L 18.625 12.402344 L 18.625 8.296875 L 19.777344 9.449219 Z M 19.777344 9.449219 " transform="matrix(1,0,0,-1,0,26)"/>
<path style=" stroke:none;fill-rule:nonzero;fill:rgb(13.730068%,12.159915%,12.54902%);fill-opacity:1;" d="M 16.214844 9.910156 C 15.34375 9.910156 14.640625 10.617188 14.640625 11.488281 L 14.640625 12.886719 C 14.652344 13 14.539062 13.113281 14.375 13.132812 C 14.207031 13.148438 14.027344 13.066406 14.015625 12.953125 L 14.015625 11.5625 C 14.015625 10.371094 14.980469 9.402344 16.175781 9.402344 C 17.371094 9.402344 18.339844 10.371094 18.339844 11.5625 L 18.339844 13.082031 C 18.328125 13.191406 18.207031 13.269531 18.039062 13.261719 C 17.886719 13.257812 17.746094 13.058594 17.757812 12.945312 L 17.765625 11.488281 C 17.765625 10.617188 17.085938 9.910156 16.214844 9.910156 "/>
<path style="fill:none;stroke-width:0.3;stroke-linecap:round;stroke-linejoin:round;stroke:rgb(100%,100%,100%);stroke-opacity:1;stroke-miterlimit:4;" d="M 16.214844 16.089844 C 15.34375 16.089844 14.640625 15.382812 14.640625 14.511719 L 14.640625 13.113281 C 14.652344 13 14.539062 12.886719 14.375 12.867188 C 14.207031 12.851562 14.027344 12.933594 14.015625 13.046875 L 14.015625 14.4375 C 14.015625 15.628906 14.980469 16.597656 16.175781 16.597656 C 17.371094 16.597656 18.339844 15.628906 18.339844 14.4375 L 18.339844 12.917969 C 18.328125 12.808594 18.207031 12.730469 18.039062 12.738281 C 17.886719 12.742188 17.746094 12.941406 17.757812 13.054688 L 17.765625 14.511719 C 17.765625 15.382812 17.085938 16.089844 16.214844 16.089844 Z M 16.214844 16.089844 " transform="matrix(1,0,0,-1,0,26)"/>
<path style=" stroke:none;fill-rule:nonzero;fill:rgb(100%,100%,100%);fill-opacity:1;" d="M 15.59375 16.019531 C 15.867188 16.019531 16.089844 15.730469 16.089844 15.378906 C 16.089844 15.023438 15.867188 14.738281 15.59375 14.738281 C 15.320312 14.738281 15.097656 15.023438 15.097656 15.378906 C 15.097656 15.730469 15.320312 16.019531 15.59375 16.019531 "/>
<path style=" stroke:none;fill-rule:nonzero;fill:rgb(100%,100%,100%);fill-opacity:1;" d="M 15.742188 16.671875 L 15.742188 15.417969 L 15.433594 15.644531 L 15.433594 16.898438 L 15.742188 16.671875 "/>
</g>
</svg>
