<?xml version="1.0" encoding="iso-8859-1"?>
<!DOCTYPE svg PUBLIC "-//W3C//DTD SVG 1.1//EN" "http://www.w3.org/Graphics/SVG/1.1/DTD/svg11.dtd">
<svg version="1.1" xmlns="http://www.w3.org/2000/svg" xmlns:xlink="http://www.w3.org/1999/xlink" width="87" height="53" viewBox="0 0 87 53">
<g>
	<path style="fill-rule:evenodd;clip-rule:evenodd;fill:#E7ECEC;" d="M66.899,10.862c0,5.884-8.373,10.652-18.711,10.652
		c-10.332,0-18.706-4.768-18.706-10.652c0-5.885,8.374-10.653,18.706-10.653C58.526,0.209,66.899,4.978,66.899,10.862"/>
	<path style="fill-rule:evenodd;clip-rule:evenodd;fill:#E7ECEC;" d="M37.427,16.502c0,5.877-6.418,10.645-14.325,10.645
		c-7.908,0-14.318-4.768-14.318-10.645c0-5.884,6.411-10.652,14.318-10.652C31.009,5.85,37.427,10.618,37.427,16.502"/>
	<path style="fill-rule:evenodd;clip-rule:evenodd;fill:#E7ECEC;" d="M19.233,27.466c0,4.783-4.306,8.664-9.612,8.664
		c-5.313,0-9.619-3.881-9.619-8.664c0-4.791,4.306-8.671,9.619-8.671C14.927,18.794,19.233,22.675,19.233,27.466"/>
	<path style="fill-rule:evenodd;clip-rule:evenodd;fill:#E7ECEC;" d="M34.915,35.923c0,5.189-6.507,9.396-14.533,9.396
		c-8.019,0-14.525-4.206-14.525-9.396s6.507-9.396,14.525-9.396C28.408,26.527,34.915,30.733,34.915,35.923"/>
	<path style="fill-rule:evenodd;clip-rule:evenodd;fill:#E7ECEC;" d="M70.034,40.831c0,6.173-9.73,11.171-21.736,11.171
		c-12.012,0-21.743-4.998-21.743-11.171s9.731-11.177,21.743-11.177C60.304,29.654,70.034,34.658,70.034,40.831"/>
	<path style="fill-rule:evenodd;clip-rule:evenodd;fill:#E7ECEC;" d="M82.167,14.832c0,4.613-6.225,8.354-13.902,8.354
		S54.36,19.445,54.36,14.832c0-4.613,6.227-8.354,13.904-8.354S82.167,10.219,82.167,14.832"/>
	<path style="fill-rule:evenodd;clip-rule:evenodd;fill:#E7ECEC;" d="M86.14,25.691c0,4.613-6.182,8.354-13.799,8.354
		c-7.627,0-13.801-3.74-13.801-8.354c0-4.613,6.174-8.354,13.801-8.354C79.958,17.338,86.14,21.079,86.14,25.691"/>
	<path style="fill-rule:evenodd;clip-rule:evenodd;fill:#E7ECEC;" d="M83.419,34.666c0,7.614-6.129,13.787-13.695,13.787
		c-7.559,0-13.695-6.173-13.695-13.787c0-7.606,6.137-13.78,13.695-13.78C77.29,20.886,83.419,27.06,83.419,34.666"/>
	<path style="fill-rule:evenodd;clip-rule:evenodd;fill:#E7ECEC;" d="M71.503,26.313c0,7.614-12.496,13.787-27.91,13.787
		c-15.415,0-27.91-6.173-27.91-13.787c0-7.607,12.495-13.78,27.91-13.78C59.007,12.533,71.503,18.706,71.503,26.313"/>
	<path style="fill-rule:evenodd;clip-rule:evenodd;fill:#E7ECEC;" d="M66.032,6.855c-3.793-5.537-14.762-8.272-24.5-6.121
		c-5.269,1.168-9.337,3.607-11.109,6.661l17.98,3.364L66.032,6.855z"/>
	<path style="fill:none;stroke:#6C8F93;stroke-width:0.414;stroke-linecap:round;stroke-miterlimit:10;" d="M66.032,6.855
		c-3.793-5.537-14.762-8.272-24.5-6.121c-5.269,1.168-9.337,3.607-11.109,6.661"/>
	<path style="fill-rule:evenodd;clip-rule:evenodd;fill:#E7ECEC;" d="M30.905,7.299c-6.737-3.171-15.645-1.663-19.898,3.356
		C8.961,13.072,8.287,16,9.139,18.787l14.066-2.388L30.905,7.299z"/>
	<path style="fill:none;stroke:#6C8F93;stroke-width:0.414;stroke-linecap:round;stroke-miterlimit:10;" d="M30.905,7.299
		c-6.737-3.171-15.645-1.663-19.898,3.356C8.961,13.072,8.287,16,9.139,18.787"/>
	<path style="fill-rule:evenodd;clip-rule:evenodd;fill:#E7ECEC;" d="M5.656,35.442c-0.318,5.359,6.107,9.869,14.355,10.076
		c2.749,0.073,5.469-0.348,7.87-1.22l-7.285-8.479L5.656,35.442z"/>
	<path style="fill:none;stroke:#6C8F93;stroke-width:0.414;stroke-linecap:round;stroke-miterlimit:10;" d="M5.656,35.442
		c-0.318,5.359,6.107,9.869,14.355,10.076c2.749,0.073,5.469-0.348,7.87-1.22"/>
	<path style="fill-rule:evenodd;clip-rule:evenodd;fill:#E7ECEC;" d="M80.478,18.831c3.867-3.984,1.631-9.1-5.002-11.429
		c-2.943-1.027-6.418-1.375-9.762-0.968l2.758,8.184L80.478,18.831z"/>
	<path style="fill:none;stroke:#6C8F93;stroke-width:0.414;stroke-linecap:round;stroke-miterlimit:10;" d="M80.478,18.831
		c3.867-3.984,1.631-9.1-5.002-11.429c-2.943-1.027-6.418-1.375-9.762-0.968"/>
	<path style="fill-rule:evenodd;clip-rule:evenodd;fill:#E7ECEC;" d="M83.257,31.162c5.023-3.903,3.801-9.344-2.787-12.405
		l-10.115,7.038L83.257,31.162z"/>
	<path style="fill:none;stroke:#6C8F93;stroke-width:0.414;stroke-linecap:round;stroke-miterlimit:10;" d="M83.257,31.162
		c5.023-3.903,3.801-9.344-2.787-12.405"/>
	<path style="fill-rule:evenodd;clip-rule:evenodd;fill:#E7ECEC;" d="M65.233,48.15c7.389,2.439,15.393-1.479,17.867-8.753
		c0.918-2.684,0.979-5.589,0.17-8.31l-13.547,3.896L65.233,48.15z"/>
	<path style="fill:none;stroke:#6C8F93;stroke-width:0.414;stroke-linecap:round;stroke-miterlimit:10;" d="M65.233,48.15
		c7.389,2.439,15.393-1.479,17.867-8.753c0.918-2.684,0.979-5.589,0.17-8.31"/>
	<path style="fill-rule:evenodd;clip-rule:evenodd;fill:#E7ECEC;" d="M9.569,18.602c-5.588,0.273-9.864,4.465-9.553,9.359
		c0.215,3.349,2.564,6.306,6.077,7.644l4.046-8.139L9.569,18.602z"/>
	<path style="fill:none;stroke:#6C8F93;stroke-width:0.414;stroke-linecap:round;stroke-miterlimit:10;" d="M9.569,18.602
		c-5.588,0.273-9.864,4.465-9.553,9.359c0.215,3.349,2.564,6.306,6.077,7.644"/>
	<path style="fill-rule:evenodd;clip-rule:evenodd;fill:#E7ECEC;" d="M27.251,44.084c2.512,5.574,13.881,9.107,25.39,7.888
		c5.195-0.547,9.783-2.018,12.85-4.125l-17.408-5.973L27.251,44.084z"/>
	<path style="fill:none;stroke:#6C8F93;stroke-width:0.414;stroke-linecap:round;stroke-miterlimit:10;" d="M27.251,44.084
		c2.512,5.574,13.881,9.107,25.39,7.888c5.195-0.547,9.783-2.018,12.85-4.125"/>
	<polyline style="fill:none;stroke:#CF2032;stroke-width:0.6284;stroke-linecap:round;stroke-miterlimit:10;" points="
		30.735,16.288 63.974,16.288 44.949,35.295 26.132,16.502 	"/>
	<polygon style="fill-rule:evenodd;clip-rule:evenodd;fill:#C9C8B6;" points="59.585,21.929 61.468,20.051 74.638,20.051 
		72.962,21.929 	"/>
	<polygon style="fill-rule:evenodd;clip-rule:evenodd;fill:#C9C8B6;" points="59.585,21.929 61.468,20.051 74.638,20.051 
		72.962,21.929 	"/>
	<polygon style="fill:none;stroke:#4A4A37;stroke-width:0.207;stroke-linecap:round;stroke-miterlimit:10;" points="59.585,21.929 
		61.468,20.051 74.638,20.051 72.962,21.929 	"/>
	<polygon style="fill-rule:evenodd;clip-rule:evenodd;fill:#B8B79D;" points="59.585,21.929 59.585,24.228 72.962,24.228 
		72.962,21.929 59.585,21.929 	"/>
	<polygon style="fill-rule:evenodd;clip-rule:evenodd;fill:#B8B79D;" points="59.585,21.929 59.585,24.228 72.962,24.228 
		72.962,21.929 59.585,21.929 	"/>
	
		<rect x="59.585" y="21.929" style="fill:none;stroke:#4A4A37;stroke-width:0.207;stroke-linecap:round;stroke-miterlimit:10;" width="13.377" height="2.299"/>
	<polygon style="fill-rule:evenodd;clip-rule:evenodd;fill:#7A7B5B;" points="72.962,24.228 74.638,22.557 74.638,20.051 
		72.962,21.929 	"/>
	<polygon style="fill-rule:evenodd;clip-rule:evenodd;fill:#7A7B5B;" points="72.962,24.228 74.638,22.557 74.638,20.051 
		72.962,21.929 	"/>
	<polygon style="fill:none;stroke:#4A4A37;stroke-width:0.207;stroke-linecap:round;stroke-miterlimit:10;" points="72.962,24.228 
		74.638,22.557 74.638,20.051 72.962,21.929 	"/>
	<polygon style="fill-rule:evenodd;clip-rule:evenodd;fill:#010101;" points="60.001,21.515 61.468,20.051 74.431,20.051 
		73.177,21.515 	"/>
	<polygon style="fill-rule:evenodd;clip-rule:evenodd;fill:#010101;" points="60.001,21.515 61.468,20.051 74.431,20.051 
		73.177,21.515 	"/>
	<polygon style="fill:none;stroke:#010101;stroke-width:0.207;stroke-linecap:round;stroke-miterlimit:10;" points="60.001,21.515 
		61.468,20.051 74.431,20.051 73.177,21.515 	"/>
	<polygon style="fill-rule:evenodd;clip-rule:evenodd;fill:#C9C8B6;" points="59.794,10.862 61.046,9.398 74.431,9.398 
		72.962,10.862 	"/>
	<polygon style="fill-rule:evenodd;clip-rule:evenodd;fill:#C9C8B6;" points="59.794,10.862 61.046,9.398 74.431,9.398 
		72.962,10.862 	"/>
	<polygon style="fill:none;stroke:#4A4A37;stroke-width:0.207;stroke-linecap:round;stroke-miterlimit:10;" points="59.794,10.862 
		61.046,9.398 74.431,9.398 72.962,10.862 	"/>
	<polygon style="fill-rule:evenodd;clip-rule:evenodd;fill:#B8B79D;" points="59.794,10.862 59.794,21.093 72.962,21.093 
		72.962,10.862 59.794,10.862 	"/>
	
		<rect x="59.794" y="10.862" style="fill:none;stroke:#4A4A37;stroke-width:0.207;stroke-linecap:round;stroke-miterlimit:10;" width="13.168" height="10.231"/>
	<polygon style="fill-rule:evenodd;clip-rule:evenodd;fill:#FFFFFF;" points="60.839,12.111 60.839,20.051 71.71,20.051 
		71.71,12.111 60.839,12.111 	"/>
	
		<rect x="60.839" y="12.111" style="fill:none;stroke:#4A4A37;stroke-width:0.207;stroke-linecap:round;stroke-miterlimit:10;" width="10.871" height="7.939"/>
	<polygon style="fill-rule:evenodd;clip-rule:evenodd;fill:#7A7B5B;" points="72.962,21.093 74.431,19.844 74.431,9.398 
		72.962,10.862 	"/>
	<polygon style="fill-rule:evenodd;clip-rule:evenodd;fill:#7A7B5B;" points="72.962,21.093 74.431,19.844 74.431,9.398 
		72.962,10.862 	"/>
	<polygon style="fill:none;stroke:#4A4A37;stroke-width:0.207;stroke-linecap:round;stroke-miterlimit:10;" points="72.962,21.093 
		74.431,19.844 74.431,9.398 72.962,10.862 	"/>
	<polygon style="fill-rule:evenodd;clip-rule:evenodd;fill:#C9C8B6;" points="57.073,26.313 59.163,23.807 73.593,23.807 
		71.503,26.313 	"/>
	<polygon style="fill-rule:evenodd;clip-rule:evenodd;fill:#C9C8B6;" points="57.073,26.313 59.163,23.807 73.593,23.807 
		71.503,26.313 	"/>
	<polygon style="fill:none;stroke:#4A4A37;stroke-width:0.207;stroke-linecap:round;stroke-miterlimit:10;" points="57.073,26.313 
		59.163,23.807 73.593,23.807 71.503,26.313 	"/>
	<polygon style="fill-rule:evenodd;clip-rule:evenodd;fill:#7A7B5B;" points="71.503,26.94 73.593,24.856 73.593,23.807 
		71.503,26.527 	"/>
	<polygon style="fill-rule:evenodd;clip-rule:evenodd;fill:#7A7B5B;" points="71.503,26.94 73.593,24.856 73.593,23.807 
		71.503,26.527 	"/>
	<polygon style="fill:none;stroke:#4A4A37;stroke-width:0.207;stroke-linecap:round;stroke-miterlimit:10;" points="71.503,26.94 
		73.593,24.856 73.593,23.807 71.503,26.527 	"/>
	<polygon style="fill-rule:evenodd;clip-rule:evenodd;fill:#B8B79D;" points="57.073,26.313 57.073,26.94 71.503,26.94 
		71.503,26.313 57.073,26.313 	"/>
	<polygon style="fill-rule:evenodd;clip-rule:evenodd;fill:#B8B79D;" points="57.073,26.313 57.073,26.94 71.503,26.94 
		71.503,26.313 57.073,26.313 	"/>
	
		<rect x="57.073" y="26.313" style="fill:none;stroke:#4A4A37;stroke-width:0.207;stroke-linecap:round;stroke-miterlimit:10;" width="14.43" height="0.628"/>
	<path style="fill-rule:evenodd;clip-rule:evenodd;fill:#E7ECEC;" d="M68.989,14.514c0,0.636-0.889,1.153-1.984,1.153
		c-1.098,0-1.986-0.518-1.986-1.153c0-0.628,0.889-1.146,1.986-1.146C68.101,13.368,68.989,13.886,68.989,14.514"/>
	<path style="fill-rule:evenodd;clip-rule:evenodd;fill:#E7ECEC;" d="M65.647,15.143c0,0.636-0.652,1.146-1.459,1.146
		c-0.816,0-1.469-0.51-1.469-1.146s0.652-1.146,1.469-1.146C64.995,13.997,65.647,14.507,65.647,15.143"/>
	<path style="fill-rule:evenodd;clip-rule:evenodd;fill:#E7ECEC;" d="M63.558,16.288c0,0.466-0.422,0.835-0.941,0.835
		c-0.518,0-0.941-0.37-0.941-0.835c0-0.458,0.424-0.835,0.941-0.835C63.136,15.453,63.558,15.83,63.558,16.288"/>
	<path style="fill-rule:evenodd;clip-rule:evenodd;fill:#E7ECEC;" d="M65.44,17.234c0,0.518-0.705,0.939-1.572,0.939
		c-0.865,0-1.563-0.421-1.563-0.939c0-0.525,0.697-0.946,1.563-0.946C64.735,16.288,65.44,16.709,65.44,17.234"/>
	<path style="fill-rule:evenodd;clip-rule:evenodd;fill:#E7ECEC;" d="M69.413,17.855c0,0.636-1.074,1.153-2.408,1.153
		c-1.328,0-2.402-0.518-2.402-1.153c0-0.628,1.074-1.146,2.402-1.146C68.339,16.709,69.413,17.227,69.413,17.855"/>
	<path style="fill-rule:evenodd;clip-rule:evenodd;fill:#E7ECEC;" d="M70.665,14.832c0,0.458-0.652,0.835-1.461,0.835
		c-0.807,0-1.467-0.377-1.467-0.835c0-0.466,0.66-0.835,1.467-0.835C70.013,13.997,70.665,14.366,70.665,14.832"/>
	<path style="fill-rule:evenodd;clip-rule:evenodd;fill:#E7ECEC;" d="M71.079,16.081c0,0.466-0.65,0.835-1.459,0.835
		s-1.461-0.37-1.461-0.835c0-0.458,0.652-0.835,1.461-0.835S71.079,15.623,71.079,16.081"/>
	<path style="fill-rule:evenodd;clip-rule:evenodd;fill:#E7ECEC;" d="M70.872,17.124c0,0.813-0.652,1.464-1.459,1.464
		c-0.809,0-1.469-0.651-1.469-1.464c0-0.806,0.66-1.456,1.469-1.456C70.22,15.667,70.872,16.318,70.872,17.124"/>
	<path style="fill-rule:evenodd;clip-rule:evenodd;fill:#E7ECEC;" d="M69.413,16.288c0,0.813-1.357,1.464-3.031,1.464
		c-1.676,0-3.031-0.65-3.031-1.464c0-0.806,1.355-1.456,3.031-1.456C68.056,14.832,69.413,15.482,69.413,16.288"/>
	<path style="fill-rule:evenodd;clip-rule:evenodd;fill:#E7ECEC;" d="M68.849,14.085c-0.406-0.584-1.563-0.873-2.578-0.636
		c-0.541,0.125-0.957,0.377-1.141,0.695l1.875,0.37L68.849,14.085z"/>
	<path style="fill:none;stroke:#6C8F93;stroke-width:0.207;stroke-linecap:round;stroke-miterlimit:10;" d="M68.849,14.085
		c-0.406-0.584-1.563-0.873-2.578-0.636c-0.541,0.125-0.957,0.377-1.141,0.695"/>
	<path style="fill-rule:evenodd;clip-rule:evenodd;fill:#E7ECEC;" d="M64.95,14.167c-0.688-0.333-1.592-0.163-2.016,0.377
		c-0.199,0.251-0.266,0.562-0.178,0.858l1.432-0.259L64.95,14.167z"/>
	<path style="fill:none;stroke:#6C8F93;stroke-width:0.207;stroke-linecap:round;stroke-miterlimit:10;" d="M64.95,14.167
		c-0.688-0.333-1.592-0.163-2.016,0.377c-0.199,0.251-0.266,0.562-0.178,0.858"/>
	<path style="fill-rule:evenodd;clip-rule:evenodd;fill:#E7ECEC;" d="M62.306,17.19c-0.037,0.518,0.637,0.961,1.496,0.983
		c0.283,0.007,0.564-0.037,0.809-0.111l-0.742-0.828L62.306,17.19z"/>
	<path style="fill:none;stroke:#6C8F93;stroke-width:0.207;stroke-linecap:round;stroke-miterlimit:10;" d="M62.306,17.19
		c-0.037,0.518,0.637,0.961,1.496,0.983c0.283,0.007,0.564-0.037,0.809-0.111"/>
	<path style="fill-rule:evenodd;clip-rule:evenodd;fill:#E7ECEC;" d="M70.45,15.268c0.422-0.392,0.207-0.909-0.482-1.146
		c-0.311-0.111-0.689-0.155-1.053-0.111l0.289,0.821L70.45,15.268z"/>
	<path style="fill:none;stroke:#6C8F93;stroke-width:0.207;stroke-linecap:round;stroke-miterlimit:10;" d="M70.45,15.268
		c0.422-0.392,0.207-0.909-0.482-1.146c-0.311-0.111-0.689-0.155-1.053-0.111"/>
	<path style="fill-rule:evenodd;clip-rule:evenodd;fill:#E7ECEC;" d="M70.769,16.754c0.512-0.407,0.385-0.991-0.281-1.301
		l-0.971,0.731L70.769,16.754z"/>
	<path style="fill:none;stroke:#6C8F93;stroke-width:0.207;stroke-linecap:round;stroke-miterlimit:10;" d="M70.769,16.754
		c0.512-0.407,0.385-0.991-0.281-1.301"/>
	<path style="fill-rule:evenodd;clip-rule:evenodd;fill:#E7ECEC;" d="M68.938,18.513c0.764,0.259,1.6-0.147,1.859-0.917
		c0.098-0.288,0.104-0.606,0.016-0.895l-1.4,0.421L68.938,18.513z"/>
	<path style="fill:none;stroke:#6C8F93;stroke-width:0.207;stroke-linecap:round;stroke-miterlimit:10;" d="M68.938,18.513
		c0.764,0.259,1.6-0.147,1.859-0.917c0.098-0.288,0.104-0.606,0.016-0.895"/>
	<path style="fill-rule:evenodd;clip-rule:evenodd;fill:#E7ECEC;" d="M62.565,15.46c-0.52,0.022-0.92,0.414-0.891,0.879
		c0.023,0.311,0.238,0.591,0.564,0.717l0.377-0.769L62.565,15.46z"/>
	<path style="fill:none;stroke:#6C8F93;stroke-width:0.207;stroke-linecap:round;stroke-miterlimit:10;" d="M62.565,15.46
		c-0.52,0.022-0.92,0.414-0.891,0.879c0.023,0.311,0.238,0.591,0.564,0.717"/>
	<path style="fill-rule:evenodd;clip-rule:evenodd;fill:#E7ECEC;" d="M64.661,18.122c0.297,0.621,1.535,0.998,2.773,0.857
		c0.533-0.066,1-0.222,1.326-0.443l-1.861-0.68L64.661,18.122z"/>
	<path style="fill:none;stroke:#6C8F93;stroke-width:0.207;stroke-linecap:round;stroke-miterlimit:10;" d="M64.661,18.122
		c0.297,0.621,1.535,0.998,2.773,0.857c0.533-0.066,1-0.222,1.326-0.443"/>
	<polygon style="fill-rule:evenodd;clip-rule:evenodd;fill:#C9C8B6;" points="37.004,42.813 38.887,40.935 52.056,40.935 
		50.388,42.813 	"/>
	<polygon style="fill-rule:evenodd;clip-rule:evenodd;fill:#C9C8B6;" points="37.004,42.813 38.887,40.935 52.056,40.935 
		50.388,42.813 	"/>
	<polygon style="fill:none;stroke:#4A4A37;stroke-width:0.207;stroke-linecap:round;stroke-miterlimit:10;" points="37.004,42.813 
		38.887,40.935 52.056,40.935 50.388,42.813 	"/>
	<polygon style="fill-rule:evenodd;clip-rule:evenodd;fill:#B8B79D;" points="37.004,42.813 37.004,45.111 50.388,45.111 
		50.388,42.813 37.004,42.813 	"/>
	<polygon style="fill-rule:evenodd;clip-rule:evenodd;fill:#B8B79D;" points="37.004,42.813 37.004,45.111 50.388,45.111 
		50.388,42.813 37.004,42.813 	"/>
	
		<rect x="37.004" y="42.813" style="fill:none;stroke:#4A4A37;stroke-width:0.207;stroke-linecap:round;stroke-miterlimit:10;" width="13.383" height="2.299"/>
	<polygon style="fill-rule:evenodd;clip-rule:evenodd;fill:#7A7B5B;" points="50.388,45.111 52.056,43.441 52.056,40.935 
		50.388,42.813 	"/>
	<polygon style="fill-rule:evenodd;clip-rule:evenodd;fill:#7A7B5B;" points="50.388,45.111 52.056,43.441 52.056,40.935 
		50.388,42.813 	"/>
	<polygon style="fill:none;stroke:#4A4A37;stroke-width:0.207;stroke-linecap:round;stroke-miterlimit:10;" points="50.388,45.111 
		52.056,43.441 52.056,40.935 50.388,42.813 	"/>
	<polygon style="fill-rule:evenodd;clip-rule:evenodd;fill:#010101;" points="37.427,42.398 38.887,40.935 51.849,40.935 
		50.597,42.398 	"/>
	<polygon style="fill-rule:evenodd;clip-rule:evenodd;fill:#010101;" points="37.427,42.398 38.887,40.935 51.849,40.935 
		50.597,42.398 	"/>
	<polygon style="fill:none;stroke:#010101;stroke-width:0.207;stroke-linecap:round;stroke-miterlimit:10;" points="37.427,42.398 
		38.887,40.935 51.849,40.935 50.597,42.398 	"/>
	<polygon style="fill-rule:evenodd;clip-rule:evenodd;fill:#C9C8B6;" points="37.212,31.746 38.472,30.282 51.849,30.282 
		50.388,31.746 	"/>
	<polygon style="fill-rule:evenodd;clip-rule:evenodd;fill:#C9C8B6;" points="37.212,31.746 38.472,30.282 51.849,30.282 
		50.388,31.746 	"/>
	<polygon style="fill:none;stroke:#4A4A37;stroke-width:0.207;stroke-linecap:round;stroke-miterlimit:10;" points="37.212,31.746 
		38.472,30.282 51.849,30.282 50.388,31.746 	"/>
	<polygon style="fill-rule:evenodd;clip-rule:evenodd;fill:#B8B79D;" points="37.212,31.746 37.212,41.978 50.388,41.978 
		50.388,31.746 37.212,31.746 	"/>
	
		<rect x="37.212" y="31.746" style="fill:none;stroke:#4A4A37;stroke-width:0.207;stroke-linecap:round;stroke-miterlimit:10;" width="13.176" height="10.231"/>
	<polygon style="fill-rule:evenodd;clip-rule:evenodd;fill:#FFFFFF;" points="38.257,32.995 38.257,40.935 49.128,40.935 
		49.128,32.995 38.257,32.995 	"/>
	
		<rect x="38.257" y="32.995" style="fill:none;stroke:#4A4A37;stroke-width:0.207;stroke-linecap:round;stroke-miterlimit:10;" width="10.871" height="7.939"/>
	<polygon style="fill-rule:evenodd;clip-rule:evenodd;fill:#7A7B5B;" points="50.388,41.978 51.849,40.728 51.849,30.282 
		50.388,31.746 	"/>
	<polygon style="fill-rule:evenodd;clip-rule:evenodd;fill:#7A7B5B;" points="50.388,41.978 51.849,40.728 51.849,30.282 
		50.388,31.746 	"/>
	<polygon style="fill:none;stroke:#4A4A37;stroke-width:0.207;stroke-linecap:round;stroke-miterlimit:10;" points="50.388,41.978 
		51.849,40.728 51.849,30.282 50.388,31.746 	"/>
	<polygon style="fill-rule:evenodd;clip-rule:evenodd;fill:#C9C8B6;" points="34.5,47.196 36.589,44.69 51.011,44.69 48.921,47.196 
			"/>
	<polygon style="fill-rule:evenodd;clip-rule:evenodd;fill:#C9C8B6;" points="34.5,47.196 36.589,44.69 51.011,44.69 48.921,47.196 
			"/>
	<polygon style="fill:none;stroke:#4A4A37;stroke-width:0.207;stroke-linecap:round;stroke-miterlimit:10;" points="34.5,47.196 
		36.589,44.69 51.011,44.69 48.921,47.196 	"/>
	<polygon style="fill-rule:evenodd;clip-rule:evenodd;fill:#7A7B5B;" points="48.921,47.825 51.011,45.74 51.011,44.69 
		48.921,47.411 	"/>
	<polygon style="fill-rule:evenodd;clip-rule:evenodd;fill:#7A7B5B;" points="48.921,47.825 51.011,45.74 51.011,44.69 
		48.921,47.411 	"/>
	<polygon style="fill:none;stroke:#4A4A37;stroke-width:0.207;stroke-linecap:round;stroke-miterlimit:10;" points="48.921,47.825 
		51.011,45.74 51.011,44.69 48.921,47.411 	"/>
	<polygon style="fill-rule:evenodd;clip-rule:evenodd;fill:#B8B79D;" points="34.5,47.196 34.5,47.825 48.921,47.825 48.921,47.196 
		34.5,47.196 	"/>
	<polygon style="fill-rule:evenodd;clip-rule:evenodd;fill:#B8B79D;" points="34.5,47.196 34.5,47.825 48.921,47.825 48.921,47.196 
		34.5,47.196 	"/>
	
		<rect x="34.5" y="47.196" style="fill:none;stroke:#4A4A37;stroke-width:0.207;stroke-linecap:round;stroke-miterlimit:10;" width="14.421" height="0.629"/>
	<path style="fill-rule:evenodd;clip-rule:evenodd;fill:#E7ECEC;" d="M46.417,35.398c0,0.635-0.89,1.152-1.987,1.152
		s-1.986-0.518-1.986-1.152c0-0.629,0.89-1.146,1.986-1.146S46.417,34.77,46.417,35.398"/>
	<path style="fill-rule:evenodd;clip-rule:evenodd;fill:#E7ECEC;" d="M43.066,36.026c0,0.636-0.652,1.146-1.46,1.146
		c-0.808,0-1.467-0.51-1.467-1.146s0.66-1.146,1.467-1.146C42.415,34.881,43.066,35.391,43.066,36.026"/>
	<path style="fill-rule:evenodd;clip-rule:evenodd;fill:#E7ECEC;" d="M40.977,37.172c0,0.466-0.422,0.836-0.941,0.836
		c-0.519,0-0.941-0.37-0.941-0.836c0-0.458,0.422-0.835,0.941-0.835C40.554,36.337,40.977,36.714,40.977,37.172"/>
	<path style="fill-rule:evenodd;clip-rule:evenodd;fill:#E7ECEC;" d="M42.859,38.118c0,0.518-0.704,0.939-1.571,0.939
		c-0.86,0-1.564-0.422-1.564-0.939c0-0.524,0.704-0.946,1.564-0.946C42.155,37.172,42.859,37.594,42.859,38.118"/>
	<path style="fill-rule:evenodd;clip-rule:evenodd;fill:#E7ECEC;" d="M46.831,38.739c0,0.636-1.074,1.153-2.401,1.153
		c-1.334,0-2.409-0.518-2.409-1.153c0-0.628,1.075-1.146,2.409-1.146C45.757,37.594,46.831,38.111,46.831,38.739"/>
	<path style="fill-rule:evenodd;clip-rule:evenodd;fill:#E7ECEC;" d="M48.083,35.716c0,0.458-0.652,0.835-1.459,0.835
		c-0.809,0-1.467-0.377-1.467-0.835c0-0.466,0.659-0.835,1.467-0.835C47.431,34.881,48.083,35.25,48.083,35.716"/>
	<path style="fill-rule:evenodd;clip-rule:evenodd;fill:#E7ECEC;" d="M48.507,36.965c0,0.466-0.66,0.836-1.469,0.836
		c-0.807,0-1.459-0.37-1.459-0.836c0-0.458,0.653-0.835,1.459-0.835C47.847,36.13,48.507,36.507,48.507,36.965"/>
	<path style="fill-rule:evenodd;clip-rule:evenodd;fill:#E7ECEC;" d="M48.298,38.008c0,0.813-0.658,1.464-1.467,1.464
		c-0.807,0-1.459-0.651-1.459-1.464c0-0.806,0.653-1.457,1.459-1.457C47.64,36.551,48.298,37.202,48.298,38.008"/>
	<path style="fill-rule:evenodd;clip-rule:evenodd;fill:#E7ECEC;" d="M46.831,37.172c0,0.813-1.356,1.464-3.031,1.464
		s-3.031-0.65-3.031-1.464c0-0.806,1.356-1.456,3.031-1.456S46.831,36.366,46.831,37.172"/>
	<path style="fill-rule:evenodd;clip-rule:evenodd;fill:#E7ECEC;" d="M46.269,34.969c-0.408-0.584-1.564-0.872-2.58-0.636
		c-0.541,0.126-0.956,0.378-1.141,0.695l1.882,0.37L46.269,34.969z"/>
	<path style="fill:none;stroke:#6C8F93;stroke-width:0.207;stroke-linecap:round;stroke-miterlimit:10;" d="M46.269,34.969
		c-0.408-0.584-1.564-0.872-2.58-0.636c-0.541,0.126-0.956,0.378-1.141,0.695"/>
	<path style="fill-rule:evenodd;clip-rule:evenodd;fill:#E7ECEC;" d="M42.37,35.051c-0.689-0.333-1.586-0.163-2.009,0.377
		c-0.208,0.251-0.267,0.562-0.185,0.857l1.43-0.259L42.37,35.051z"/>
	<path style="fill:none;stroke:#6C8F93;stroke-width:0.207;stroke-linecap:round;stroke-miterlimit:10;" d="M42.37,35.051
		c-0.689-0.333-1.586-0.163-2.009,0.377c-0.208,0.251-0.267,0.562-0.185,0.857"/>
	<path style="fill-rule:evenodd;clip-rule:evenodd;fill:#E7ECEC;" d="M39.724,38.074c-0.037,0.518,0.637,0.961,1.504,0.983
		c0.274,0.007,0.556-0.037,0.8-0.111l-0.741-0.828L39.724,38.074z"/>
	<path style="fill:none;stroke:#6C8F93;stroke-width:0.207;stroke-linecap:round;stroke-miterlimit:10;" d="M39.724,38.074
		c-0.037,0.518,0.637,0.961,1.504,0.983c0.274,0.007,0.556-0.037,0.8-0.111"/>
	<path style="fill-rule:evenodd;clip-rule:evenodd;fill:#E7ECEC;" d="M47.868,36.152c0.424-0.393,0.209-0.909-0.473-1.146
		c-0.32-0.11-0.689-0.155-1.053-0.11l0.281,0.82L47.868,36.152z"/>
	<path style="fill:none;stroke:#6C8F93;stroke-width:0.207;stroke-linecap:round;stroke-miterlimit:10;" d="M47.868,36.152
		c0.424-0.393,0.209-0.909-0.473-1.146c-0.32-0.11-0.689-0.155-1.053-0.11"/>
	<path style="fill-rule:evenodd;clip-rule:evenodd;fill:#E7ECEC;" d="M48.188,37.638c0.51-0.406,0.393-0.99-0.283-1.301
		l-0.971,0.731L48.188,37.638z"/>
	<path style="fill:none;stroke:#6C8F93;stroke-width:0.207;stroke-linecap:round;stroke-miterlimit:10;" d="M48.188,37.638
		c0.51-0.406,0.393-0.99-0.283-1.301"/>
	<path style="fill-rule:evenodd;clip-rule:evenodd;fill:#E7ECEC;" d="M46.356,39.397c0.771,0.259,1.602-0.148,1.861-0.917
		c0.096-0.288,0.104-0.606,0.014-0.895l-1.4,0.422L46.356,39.397z"/>
	<path style="fill:none;stroke:#6C8F93;stroke-width:0.207;stroke-linecap:round;stroke-miterlimit:10;" d="M46.356,39.397
		c0.771,0.259,1.602-0.148,1.861-0.917c0.096-0.288,0.104-0.606,0.014-0.895"/>
	<path style="fill-rule:evenodd;clip-rule:evenodd;fill:#E7ECEC;" d="M39.983,36.344c-0.519,0.022-0.912,0.414-0.889,0.88
		c0.022,0.311,0.245,0.592,0.571,0.718l0.371-0.77L39.983,36.344z"/>
	<path style="fill:none;stroke:#6C8F93;stroke-width:0.207;stroke-linecap:round;stroke-miterlimit:10;" d="M39.983,36.344
		c-0.519,0.022-0.912,0.414-0.889,0.88c0.022,0.311,0.245,0.592,0.571,0.718"/>
	<path style="fill-rule:evenodd;clip-rule:evenodd;fill:#E7ECEC;" d="M42.088,39.006c0.289,0.621,1.526,0.998,2.765,0.857
		c0.533-0.066,1.007-0.222,1.326-0.443l-1.852-0.681L42.088,39.006z"/>
	<path style="fill:none;stroke:#6C8F93;stroke-width:0.207;stroke-linecap:round;stroke-miterlimit:10;" d="M42.088,39.006
		c0.289,0.621,1.526,0.998,2.765,0.857c0.533-0.066,1.007-0.222,1.326-0.443"/>
	<polygon style="fill-rule:evenodd;clip-rule:evenodd;fill:#C9C8B6;" points="17.773,21.929 19.655,20.051 32.825,20.051 
		31.15,21.929 	"/>
	<polygon style="fill-rule:evenodd;clip-rule:evenodd;fill:#C9C8B6;" points="17.773,21.929 19.655,20.051 32.825,20.051 
		31.15,21.929 	"/>
	<polygon style="fill:none;stroke:#4A4A37;stroke-width:0.207;stroke-linecap:round;stroke-miterlimit:10;" points="17.773,21.929 
		19.655,20.051 32.825,20.051 31.15,21.929 	"/>
	<polygon style="fill-rule:evenodd;clip-rule:evenodd;fill:#B8B79D;" points="17.773,21.929 17.773,24.228 31.15,24.228 
		31.15,21.929 17.773,21.929 	"/>
	<polygon style="fill-rule:evenodd;clip-rule:evenodd;fill:#B8B79D;" points="17.773,21.929 17.773,24.228 31.15,24.228 
		31.15,21.929 17.773,21.929 	"/>
	
		<rect x="17.773" y="21.929" style="fill:none;stroke:#4A4A37;stroke-width:0.207;stroke-linecap:round;stroke-miterlimit:10;" width="13.377" height="2.299"/>
	<polygon style="fill-rule:evenodd;clip-rule:evenodd;fill:#7A7B5B;" points="31.15,24.228 32.825,22.557 32.825,20.051 
		31.15,21.929 	"/>
	<polygon style="fill-rule:evenodd;clip-rule:evenodd;fill:#7A7B5B;" points="31.15,24.228 32.825,22.557 32.825,20.051 
		31.15,21.929 	"/>
	<polygon style="fill:none;stroke:#4A4A37;stroke-width:0.207;stroke-linecap:round;stroke-miterlimit:10;" points="31.15,24.228 
		32.825,22.557 32.825,20.051 31.15,21.929 	"/>
	<polygon style="fill-rule:evenodd;clip-rule:evenodd;fill:#010101;" points="18.188,21.515 19.655,20.051 32.617,20.051 
		31.357,21.515 	"/>
	<polygon style="fill-rule:evenodd;clip-rule:evenodd;fill:#010101;" points="18.188,21.515 19.655,20.051 32.617,20.051 
		31.357,21.515 	"/>
	<polygon style="fill:none;stroke:#010101;stroke-width:0.207;stroke-linecap:round;stroke-miterlimit:10;" points="18.188,21.515 
		19.655,20.051 32.617,20.051 31.357,21.515 	"/>
	<polygon style="fill-rule:evenodd;clip-rule:evenodd;fill:#C9C8B6;" points="17.98,10.862 19.233,9.398 32.617,9.398 31.15,10.862 
			"/>
	<polygon style="fill-rule:evenodd;clip-rule:evenodd;fill:#C9C8B6;" points="17.98,10.862 19.233,9.398 32.617,9.398 31.15,10.862 
			"/>
	<polygon style="fill:none;stroke:#4A4A37;stroke-width:0.207;stroke-linecap:round;stroke-miterlimit:10;" points="17.98,10.862 
		19.233,9.398 32.617,9.398 31.15,10.862 	"/>
	<polygon style="fill-rule:evenodd;clip-rule:evenodd;fill:#B8B79D;" points="17.98,10.862 17.98,21.093 31.15,21.093 31.15,10.862 
		17.98,10.862 	"/>
	
		<rect x="17.98" y="10.862" style="fill:none;stroke:#4A4A37;stroke-width:0.207;stroke-linecap:round;stroke-miterlimit:10;" width="13.169" height="10.231"/>
	<polygon style="fill-rule:evenodd;clip-rule:evenodd;fill:#FFFFFF;" points="19.025,12.111 19.025,20.051 29.897,20.051 
		29.897,12.111 19.025,12.111 	"/>
	
		<rect x="19.025" y="12.111" style="fill:none;stroke:#4A4A37;stroke-width:0.207;stroke-linecap:round;stroke-miterlimit:10;" width="10.872" height="7.939"/>
	<polygon style="fill-rule:evenodd;clip-rule:evenodd;fill:#7A7B5B;" points="31.15,21.093 32.617,19.844 32.617,9.398 
		31.15,10.862 	"/>
	<polygon style="fill-rule:evenodd;clip-rule:evenodd;fill:#7A7B5B;" points="31.15,21.093 32.617,19.844 32.617,9.398 
		31.15,10.862 	"/>
	<polygon style="fill:none;stroke:#4A4A37;stroke-width:0.207;stroke-linecap:round;stroke-miterlimit:10;" points="31.15,21.093 
		32.617,19.844 32.617,9.398 31.15,10.862 	"/>
	<polygon style="fill-rule:evenodd;clip-rule:evenodd;fill:#C9C8B6;" points="15.261,26.313 17.351,23.807 31.78,23.807 
		29.69,26.313 	"/>
	<polygon style="fill-rule:evenodd;clip-rule:evenodd;fill:#C9C8B6;" points="15.261,26.313 17.351,23.807 31.78,23.807 
		29.69,26.313 	"/>
	<polygon style="fill:none;stroke:#4A4A37;stroke-width:0.207;stroke-linecap:round;stroke-miterlimit:10;" points="15.261,26.313 
		17.351,23.807 31.78,23.807 29.69,26.313 	"/>
	<polygon style="fill-rule:evenodd;clip-rule:evenodd;fill:#7A7B5B;" points="29.69,26.94 31.78,24.856 31.78,23.807 29.69,26.527 	
		"/>
	<polygon style="fill-rule:evenodd;clip-rule:evenodd;fill:#7A7B5B;" points="29.69,26.94 31.78,24.856 31.78,23.807 29.69,26.527 	
		"/>
	<polygon style="fill:none;stroke:#4A4A37;stroke-width:0.207;stroke-linecap:round;stroke-miterlimit:10;" points="29.69,26.94 
		31.78,24.856 31.78,23.807 29.69,26.527 	"/>
	<polygon style="fill-rule:evenodd;clip-rule:evenodd;fill:#B8B79D;" points="15.261,26.313 15.261,26.94 29.69,26.94 29.69,26.313 
		15.261,26.313 	"/>
	<polygon style="fill-rule:evenodd;clip-rule:evenodd;fill:#B8B79D;" points="15.261,26.313 15.261,26.94 29.69,26.94 29.69,26.313 
		15.261,26.313 	"/>
	
		<rect x="15.261" y="26.313" style="fill:none;stroke:#4A4A37;stroke-width:0.207;stroke-linecap:round;stroke-miterlimit:10;" width="14.429" height="0.628"/>
	<path style="fill-rule:evenodd;clip-rule:evenodd;fill:#E7ECEC;" d="M27.177,14.514c0,0.636-0.889,1.153-1.986,1.153
		c-1.097,0-1.986-0.518-1.986-1.153c0-0.628,0.889-1.146,1.986-1.146C26.288,13.368,27.177,13.886,27.177,14.514"/>
	<path style="fill-rule:evenodd;clip-rule:evenodd;fill:#E7ECEC;" d="M23.835,15.143c0,0.636-0.66,1.146-1.467,1.146
		s-1.46-0.51-1.46-1.146s0.652-1.146,1.46-1.146S23.835,14.507,23.835,15.143"/>
	<path style="fill-rule:evenodd;clip-rule:evenodd;fill:#E7ECEC;" d="M21.745,16.288c0,0.466-0.422,0.835-0.941,0.835
		c-0.519,0-0.941-0.37-0.941-0.835c0-0.458,0.422-0.835,0.941-0.835C21.323,15.453,21.745,15.83,21.745,16.288"/>
	<path style="fill-rule:evenodd;clip-rule:evenodd;fill:#E7ECEC;" d="M23.627,17.234c0,0.518-0.704,0.939-1.571,0.939
		c-0.867,0-1.564-0.421-1.564-0.939c0-0.525,0.697-0.946,1.564-0.946C22.923,16.288,23.627,16.709,23.627,17.234"/>
	<path style="fill-rule:evenodd;clip-rule:evenodd;fill:#E7ECEC;" d="M27.6,17.855c0,0.636-1.082,1.153-2.409,1.153
		s-2.401-0.518-2.401-1.153c0-0.628,1.075-1.146,2.401-1.146S27.6,17.227,27.6,17.855"/>
	<path style="fill-rule:evenodd;clip-rule:evenodd;fill:#E7ECEC;" d="M28.852,14.832c0,0.458-0.652,0.835-1.467,0.835
		c-0.808,0-1.46-0.377-1.46-0.835c0-0.466,0.652-0.835,1.46-0.835C28.2,13.997,28.852,14.366,28.852,14.832"/>
	<path style="fill-rule:evenodd;clip-rule:evenodd;fill:#E7ECEC;" d="M29.267,16.081c0,0.466-0.652,0.835-1.46,0.835
		c-0.808,0-1.467-0.37-1.467-0.835c0-0.458,0.66-0.835,1.467-0.835C28.615,15.246,29.267,15.623,29.267,16.081"/>
	<path style="fill-rule:evenodd;clip-rule:evenodd;fill:#E7ECEC;" d="M29.06,17.124c0,0.813-0.652,1.464-1.459,1.464
		c-0.808,0-1.468-0.651-1.468-1.464c0-0.806,0.66-1.456,1.468-1.456C28.408,15.667,29.06,16.318,29.06,17.124"/>
	<path style="fill-rule:evenodd;clip-rule:evenodd;fill:#E7ECEC;" d="M27.6,16.288c0,0.813-1.356,1.464-3.031,1.464
		s-3.031-0.65-3.031-1.464c0-0.806,1.356-1.456,3.031-1.456S27.6,15.482,27.6,16.288"/>
	<path style="fill-rule:evenodd;clip-rule:evenodd;fill:#E7ECEC;" d="M27.037,14.085c-0.408-0.584-1.563-0.873-2.586-0.636
		c-0.534,0.125-0.949,0.377-1.134,0.695l1.875,0.37L27.037,14.085z"/>
	<path style="fill:none;stroke:#6C8F93;stroke-width:0.207;stroke-linecap:round;stroke-miterlimit:10;" d="M27.037,14.085
		c-0.408-0.584-1.563-0.873-2.586-0.636c-0.534,0.125-0.949,0.377-1.134,0.695"/>
	<path style="fill-rule:evenodd;clip-rule:evenodd;fill:#E7ECEC;" d="M23.138,14.167c-0.689-0.333-1.593-0.163-2.016,0.377
		c-0.2,0.251-0.267,0.562-0.178,0.858l1.423-0.259L23.138,14.167z"/>
	<path style="fill:none;stroke:#6C8F93;stroke-width:0.207;stroke-linecap:round;stroke-miterlimit:10;" d="M23.138,14.167
		c-0.689-0.333-1.593-0.163-2.016,0.377c-0.2,0.251-0.267,0.562-0.178,0.858"/>
	<path style="fill-rule:evenodd;clip-rule:evenodd;fill:#E7ECEC;" d="M20.493,17.19c-0.037,0.518,0.63,0.961,1.497,0.983
		c0.282,0.007,0.556-0.037,0.808-0.111l-0.741-0.828L20.493,17.19z"/>
	<path style="fill:none;stroke:#6C8F93;stroke-width:0.207;stroke-linecap:round;stroke-miterlimit:10;" d="M20.493,17.19
		c-0.037,0.518,0.63,0.961,1.497,0.983c0.282,0.007,0.556-0.037,0.808-0.111"/>
	<path style="fill-rule:evenodd;clip-rule:evenodd;fill:#E7ECEC;" d="M28.63,15.268c0.43-0.392,0.215-0.909-0.474-1.146
		c-0.312-0.111-0.689-0.155-1.052-0.111l0.281,0.821L28.63,15.268z"/>
	<path style="fill:none;stroke:#6C8F93;stroke-width:0.207;stroke-linecap:round;stroke-miterlimit:10;" d="M28.63,15.268
		c0.43-0.392,0.215-0.909-0.474-1.146c-0.312-0.111-0.689-0.155-1.052-0.111"/>
	<path style="fill-rule:evenodd;clip-rule:evenodd;fill:#E7ECEC;" d="M28.956,16.754c0.511-0.407,0.385-0.991-0.282-1.301
		l-0.971,0.731L28.956,16.754z"/>
	<path style="fill:none;stroke:#6C8F93;stroke-width:0.207;stroke-linecap:round;stroke-miterlimit:10;" d="M28.956,16.754
		c0.511-0.407,0.385-0.991-0.282-1.301"/>
	<path style="fill-rule:evenodd;clip-rule:evenodd;fill:#E7ECEC;" d="M27.125,18.513c0.763,0.259,1.593-0.147,1.86-0.917
		c0.096-0.288,0.104-0.606,0.015-0.895l-1.4,0.421L27.125,18.513z"/>
	<path style="fill:none;stroke:#6C8F93;stroke-width:0.207;stroke-linecap:round;stroke-miterlimit:10;" d="M27.125,18.513
		c0.763,0.259,1.593-0.147,1.86-0.917c0.096-0.288,0.104-0.606,0.015-0.895"/>
	<path style="fill-rule:evenodd;clip-rule:evenodd;fill:#E7ECEC;" d="M20.752,15.46c-0.519,0.022-0.919,0.414-0.889,0.879
		c0.022,0.311,0.237,0.591,0.563,0.717l0.378-0.769L20.752,15.46z"/>
	<path style="fill:none;stroke:#6C8F93;stroke-width:0.207;stroke-linecap:round;stroke-miterlimit:10;" d="M20.752,15.46
		c-0.519,0.022-0.919,0.414-0.889,0.879c0.022,0.311,0.237,0.591,0.563,0.717"/>
	<path style="fill-rule:evenodd;clip-rule:evenodd;fill:#E7ECEC;" d="M22.85,18.122c0.296,0.621,1.534,0.998,2.771,0.857
		c0.534-0.066,1-0.222,1.327-0.443l-1.86-0.68L22.85,18.122z"/>
	<path style="fill:none;stroke:#6C8F93;stroke-width:0.207;stroke-linecap:round;stroke-miterlimit:10;" d="M22.85,18.122
		c0.296,0.621,1.534,0.998,2.771,0.857c0.534-0.066,1-0.222,1.327-0.443"/>
</g>
</svg>