<?xml version="1.0" encoding="UTF-8"?>
<svg xmlns="http://www.w3.org/2000/svg" xmlns:xlink="http://www.w3.org/1999/xlink" width="49" height="24" viewBox="0 0 49 24" version="1.1">
<g id="surface0">
<path style=" stroke:none;fill-rule:nonzero;fill:rgb(70.000763%,70.000763%,70.000763%);fill-opacity:1;" d="M 0.585938 12.160156 L 15.015625 0.492188 L 48.324219 0.492188 L 36.386719 12.160156 L 0.585938 12.160156 "/>
<path style=" stroke:none;fill-rule:nonzero;fill:rgb(0%,0%,0%);fill-opacity:1;" d="M 33.3125 6.65625 L 34.199219 5.769531 L 36.976562 7.03125 L 32.109375 8.429688 L 33.214844 6.976562 L 24.347656 6.976562 L 24.664062 6.65625 L 33.3125 6.65625 "/>
<path style=" stroke:none;fill-rule:nonzero;fill:rgb(0%,0%,0%);fill-opacity:1;" d="M 27.984375 3.683594 L 27.671875 4 L 18.628906 4 L 17.257812 5.0625 L 14.929688 3.921875 L 20.269531 2.359375 L 18.945312 3.683594 L 27.984375 3.683594 "/>
<path style=" stroke:none;fill-rule:nonzero;fill:rgb(0%,0%,0%);fill-opacity:1;" d="M 23 8.714844 L 22.679688 9.03125 L 13.597656 9.03125 L 12.226562 10.050781 L 9.8125 8.910156 L 15.28125 7.390625 L 14.046875 8.714844 L 23 8.714844 "/>
<path style=" stroke:none;fill-rule:nonzero;fill:rgb(0%,0%,0%);fill-opacity:1;" d="M 38.429688 2.457031 L 39.316406 1.570312 L 42.09375 2.785156 L 37.226562 4.183594 L 38.285156 2.773438 L 29.378906 2.773438 L 29.695312 2.457031 L 38.429688 2.457031 "/>
<path style=" stroke:none;fill-rule:nonzero;fill:rgb(100%,100%,100%);fill-opacity:1;" d="M 33.355469 6.964844 L 34.242188 6.074219 L 36.667969 7.117188 L 31.804688 8.515625 L 33.035156 7.28125 L 24.128906 7.28125 L 24.445312 6.964844 L 33.355469 6.964844 "/>
<path style=" stroke:none;fill-rule:nonzero;fill:rgb(100%,100%,100%);fill-opacity:1;" d="M 27.683594 3.988281 L 27.363281 4.304688 L 18.453125 4.304688 L 17.566406 5.195312 L 15.148438 4.140625 L 20.003906 2.753906 L 18.769531 3.988281 L 27.683594 3.988281 "/>
<path style=" stroke:none;fill-rule:nonzero;fill:rgb(20%,20%,20%);fill-opacity:1;" d="M 36.386719 23.757812 L 48.324219 10.863281 L 48.324219 0.515625 L 36.386719 12.160156 L 36.386719 23.757812 "/>
<path style=" stroke:none;fill-rule:nonzero;fill:rgb(100%,100%,100%);fill-opacity:1;" d="M 22.648438 9.019531 L 22.332031 9.335938 L 13.421875 9.335938 L 12.535156 10.226562 L 10.117188 9.171875 L 14.972656 7.785156 L 13.738281 9.019531 L 22.648438 9.019531 "/>
<path style=" stroke:none;fill-rule:nonzero;fill:rgb(100%,100%,100%);fill-opacity:1;" d="M 38.429688 2.761719 L 39.316406 1.875 L 41.742188 2.917969 L 36.878906 4.316406 L 38.113281 3.082031 L 29.203125 3.082031 L 29.523438 2.761719 L 38.429688 2.761719 "/>
<path style="fill:none;stroke-width:0.28;stroke-linecap:round;stroke-linejoin:miter;stroke:rgb(0%,0%,0%);stroke-opacity:1;stroke-miterlimit:4;" d="M 37.855469 20.867188 L 36.761719 19.773438 M 32.734375 16.621094 L 31.644531 15.527344 M 24.597656 17.191406 L 24.070312 16.753906 M 29.71875 21.433594 L 29.234375 20.996094 " transform="matrix(1,0,0,-1,0,24)"/>
<path style=" stroke:none;fill-rule:nonzero;fill:rgb(50.000763%,50.000763%,50.000763%);fill-opacity:1;" d="M 0.636719 12.160156 L 36.386719 12.160156 L 36.386719 23.765625 L 0.636719 23.765625 L 0.636719 12.160156 Z M 0.636719 12.160156 "/>
<path style=" stroke:none;fill-rule:nonzero;fill:rgb(100%,100%,100%);fill-opacity:1;" d="M 7.367188 19.183594 L 5.726562 20.824219 L 5.449219 20.546875 L 5.242188 21.574219 L 6.273438 21.367188 L 5.992188 21.089844 L 7.632812 19.445312 L 7.367188 19.183594 "/>
<path style="fill:none;stroke-width:1;stroke-linecap:butt;stroke-linejoin:miter;stroke:rgb(100%,100%,100%);stroke-opacity:1;stroke-miterlimit:4;" d="M 11.324219 5.808594 L 26.59375 5.808594 " transform="matrix(1,0,0,-1,0,24)"/>
<path style=" stroke:none;fill-rule:nonzero;fill:rgb(100%,100%,100%);fill-opacity:1;" d="M 7.121094 18.425781 L 4.800781 18.425781 L 4.800781 18.816406 L 3.925781 18.238281 L 4.800781 17.65625 L 4.800781 18.050781 L 7.121094 18.050781 L 7.121094 18.425781 "/>
<path style=" stroke:none;fill-rule:nonzero;fill:rgb(100%,100%,100%);fill-opacity:1;" d="M 8.777344 16.640625 L 8.777344 14.320312 L 9.171875 14.320312 L 8.59375 13.445312 L 8.011719 14.320312 L 8.402344 14.320312 L 8.402344 16.640625 L 8.777344 16.640625 "/>
<path style=" stroke:none;fill-rule:nonzero;fill:rgb(100%,100%,100%);fill-opacity:1;" d="M 7.59375 16.976562 L 5.953125 15.335938 L 6.234375 15.058594 L 5.203125 14.851562 L 5.410156 15.878906 L 5.691406 15.601562 L 7.332031 17.242188 L 7.59375 16.976562 "/>
<path style=" stroke:none;fill-rule:nonzero;fill:rgb(100%,100%,100%);fill-opacity:1;" d="M 8.402344 19.832031 L 8.402344 22.152344 L 8.011719 22.152344 L 8.59375 23.027344 L 9.171875 22.152344 L 8.777344 22.152344 L 8.777344 19.832031 L 8.402344 19.832031 "/>
<path style=" stroke:none;fill-rule:nonzero;fill:rgb(100%,100%,100%);fill-opacity:1;" d="M 9.589844 19.496094 L 11.226562 21.140625 L 10.949219 21.417969 L 11.980469 21.625 L 11.769531 20.597656 L 11.492188 20.875 L 9.851562 19.234375 L 9.589844 19.496094 "/>
<path style=" stroke:none;fill-rule:nonzero;fill:rgb(100%,100%,100%);fill-opacity:1;" d="M 9.851562 17.242188 L 11.492188 15.601562 L 11.769531 15.878906 L 11.980469 14.851562 L 10.949219 15.058594 L 11.226562 15.335938 L 9.589844 16.976562 L 9.851562 17.242188 "/>
<path style=" stroke:none;fill-rule:nonzero;fill:rgb(20%,20%,20%);fill-opacity:1;" d="M 10.011719 20.183594 C 11.097656 19.421875 11.359375 17.921875 10.601562 16.835938 C 9.839844 15.75 8.34375 15.484375 7.253906 16.246094 C 6.167969 17.007812 5.90625 18.503906 6.664062 19.59375 C 7.425781 20.679688 8.925781 20.941406 10.011719 20.183594 "/>
<path style="fill:none;stroke-width:0.63;stroke-linecap:butt;stroke-linejoin:miter;stroke:rgb(20%,20%,20%);stroke-opacity:1;stroke-miterlimit:4;" d="M 10.011719 3.816406 C 11.097656 4.578125 11.359375 6.078125 10.601562 7.164062 C 9.839844 8.25 8.34375 8.515625 7.253906 7.753906 C 6.167969 6.992188 5.90625 5.496094 6.664062 4.40625 C 7.425781 3.320312 8.925781 3.058594 10.011719 3.816406 Z M 10.011719 3.816406 " transform="matrix(1,0,0,-1,0,24)"/>
<path style=" stroke:none;fill-rule:nonzero;fill:rgb(22.600137%,22.600137%,22.600137%);fill-opacity:1;" d="M 9.949219 20.085938 C 11.007812 19.34375 11.265625 17.882812 10.523438 16.828125 C 9.78125 15.773438 8.320312 15.519531 7.265625 16.261719 C 6.207031 17.003906 5.949219 18.464844 6.691406 19.519531 C 7.429688 20.574219 8.890625 20.828125 9.949219 20.085938 "/>
<path style=" stroke:none;fill-rule:nonzero;fill:rgb(25.200275%,25.200275%,25.200275%);fill-opacity:1;" d="M 9.886719 19.992188 C 10.914062 19.265625 11.164062 17.84375 10.445312 16.820312 C 9.722656 15.792969 8.304688 15.550781 7.273438 16.273438 C 6.242188 17 5.992188 18.421875 6.714844 19.445312 C 7.433594 20.472656 8.855469 20.71875 9.886719 19.992188 "/>
<path style=" stroke:none;fill-rule:nonzero;fill:rgb(27.699702%,27.699702%,27.699702%);fill-opacity:1;" d="M 9.820312 19.894531 C 10.824219 19.1875 11.066406 17.808594 10.367188 16.808594 C 9.664062 15.816406 8.28125 15.582031 7.28125 16.289062 C 6.277344 16.996094 6.035156 18.378906 6.734375 19.375 C 7.4375 20.371094 8.820312 20.601562 9.820312 19.894531 "/>
<path style=" stroke:none;fill-rule:nonzero;fill:rgb(30.29984%,30.29984%,30.29984%);fill-opacity:1;" d="M 9.757812 19.800781 C 10.734375 19.109375 10.96875 17.769531 10.289062 16.800781 C 9.605469 15.835938 8.261719 15.613281 7.289062 16.304688 C 6.316406 16.992188 6.078125 18.335938 6.761719 19.304688 C 7.441406 20.269531 8.785156 20.492188 9.757812 19.800781 "/>
<path style=" stroke:none;fill-rule:nonzero;fill:rgb(32.899977%,32.899977%,32.899977%);fill-opacity:1;" d="M 9.695312 19.703125 C 10.640625 19.03125 10.871094 17.730469 10.210938 16.792969 C 9.546875 15.855469 8.242188 15.644531 7.296875 16.316406 C 6.351562 16.992188 6.121094 18.296875 6.78125 19.230469 C 7.445312 20.164062 8.75 20.378906 9.695312 19.703125 "/>
<path style=" stroke:none;fill-rule:nonzero;fill:rgb(35.500114%,35.500114%,35.500114%);fill-opacity:1;" d="M 9.632812 19.609375 C 10.550781 18.953125 10.773438 17.691406 10.132812 16.785156 C 9.488281 15.878906 8.222656 15.675781 7.304688 16.332031 C 6.386719 16.988281 6.164062 18.253906 6.808594 19.15625 C 7.449219 20.0625 8.714844 20.265625 9.632812 19.609375 "/>
<path style=" stroke:none;fill-rule:nonzero;fill:rgb(38.100252%,38.100252%,38.100252%);fill-opacity:1;" d="M 9.570312 19.515625 C 10.460938 18.878906 10.675781 17.648438 10.054688 16.773438 C 9.429688 15.898438 8.203125 15.707031 7.3125 16.347656 C 6.425781 16.984375 6.207031 18.210938 6.828125 19.085938 C 7.453125 19.960938 8.679688 20.152344 9.570312 19.515625 "/>
<path style=" stroke:none;fill-rule:nonzero;fill:rgb(40.59968%,40.59968%,40.59968%);fill-opacity:1;" d="M 9.507812 19.421875 C 10.367188 18.800781 10.578125 17.613281 9.976562 16.769531 C 9.371094 15.921875 8.183594 15.738281 7.320312 16.359375 C 6.460938 16.980469 6.25 18.167969 6.851562 19.015625 C 7.457031 19.859375 8.644531 20.039062 9.507812 19.421875 "/>
<path style=" stroke:none;fill-rule:nonzero;fill:rgb(43.199817%,43.199817%,43.199817%);fill-opacity:1;" d="M 9.441406 19.324219 C 10.277344 18.722656 10.480469 17.574219 9.898438 16.757812 C 9.3125 15.945312 8.164062 15.773438 7.332031 16.375 C 6.496094 16.976562 6.292969 18.128906 6.878906 18.941406 C 7.460938 19.757812 8.609375 19.929688 9.441406 19.324219 "/>
<path style=" stroke:none;fill-rule:nonzero;fill:rgb(45.799954%,45.799954%,45.799954%);fill-opacity:1;" d="M 9.378906 19.230469 C 10.1875 18.644531 10.382812 17.535156 9.820312 16.75 C 9.253906 15.964844 8.144531 15.804688 7.339844 16.390625 C 6.53125 16.976562 6.335938 18.085938 6.902344 18.867188 C 7.464844 19.652344 8.574219 19.816406 9.378906 19.230469 "/>
<path style=" stroke:none;fill-rule:nonzero;fill:rgb(48.400092%,48.400092%,48.400092%);fill-opacity:1;" d="M 9.316406 19.136719 C 10.09375 18.566406 10.285156 17.496094 9.742188 16.742188 C 9.195312 15.988281 8.125 15.835938 7.347656 16.402344 C 6.570312 16.972656 6.378906 18.042969 6.925781 18.796875 C 7.46875 19.550781 8.539062 19.703125 9.316406 19.136719 "/>
<path style=" stroke:none;fill-rule:nonzero;fill:rgb(51.000229%,51.000229%,51.000229%);fill-opacity:1;" d="M 9.253906 19.039062 C 10.003906 18.488281 10.1875 17.457031 9.664062 16.730469 C 9.136719 16.007812 8.105469 15.867188 7.355469 16.417969 C 6.605469 16.96875 6.421875 18 6.949219 18.726562 C 7.472656 19.449219 8.503906 19.589844 9.253906 19.039062 "/>
<path style=" stroke:none;fill-rule:nonzero;fill:rgb(53.499657%,53.499657%,53.499657%);fill-opacity:1;" d="M 9.191406 18.945312 C 9.914062 18.410156 10.089844 17.417969 9.585938 16.722656 C 9.078125 16.03125 8.085938 15.898438 7.363281 16.433594 C 6.644531 16.964844 6.46875 17.957031 6.972656 18.652344 C 7.476562 19.347656 8.46875 19.476562 9.191406 18.945312 "/>
<path style=" stroke:none;fill-rule:nonzero;fill:rgb(56.099794%,56.099794%,56.099794%);fill-opacity:1;" d="M 9.128906 18.847656 C 9.820312 18.335938 9.992188 17.378906 9.507812 16.714844 C 9.023438 16.050781 8.066406 15.933594 7.371094 16.445312 C 6.679688 16.960938 6.511719 17.914062 6.996094 18.578125 C 7.480469 19.242188 8.433594 19.363281 9.128906 18.847656 "/>
<path style=" stroke:none;fill-rule:nonzero;fill:rgb(58.699931%,58.699931%,58.699931%);fill-opacity:1;" d="M 9.066406 18.753906 C 9.730469 18.257812 9.894531 17.339844 9.429688 16.707031 C 8.964844 16.074219 8.046875 15.964844 7.382812 16.460938 C 6.714844 16.957031 6.554688 17.875 7.019531 18.507812 C 7.484375 19.140625 8.398438 19.25 9.066406 18.753906 "/>
<path style=" stroke:none;fill-rule:nonzero;fill:rgb(61.300069%,61.300069%,61.300069%);fill-opacity:1;" d="M 9.003906 18.65625 C 9.640625 18.179688 9.796875 17.300781 9.351562 16.699219 C 8.902344 16.09375 8.027344 15.996094 7.390625 16.476562 C 6.753906 16.953125 6.597656 17.832031 7.042969 18.433594 C 7.488281 19.039062 8.363281 19.140625 9.003906 18.65625 "/>
<path style=" stroke:none;fill-rule:nonzero;fill:rgb(63.900206%,63.900206%,63.900206%);fill-opacity:1;" d="M 8.941406 18.5625 C 9.550781 18.101562 9.695312 17.261719 9.273438 16.691406 C 8.847656 16.117188 8.007812 16.027344 7.398438 16.488281 C 6.789062 16.949219 6.640625 17.789062 7.066406 18.363281 C 7.492188 18.9375 8.328125 19.023438 8.941406 18.5625 "/>
<path style=" stroke:none;fill-rule:nonzero;fill:rgb(66.399634%,66.399634%,66.399634%);fill-opacity:1;" d="M 8.875 18.46875 C 9.457031 18.023438 9.601562 17.222656 9.191406 16.679688 C 8.789062 16.136719 7.988281 16.058594 7.40625 16.503906 C 6.824219 16.949219 6.683594 17.746094 7.089844 18.289062 C 7.496094 18.832031 8.296875 18.914062 8.875 18.46875 "/>
<path style=" stroke:none;fill-rule:nonzero;fill:rgb(68.999771%,68.999771%,68.999771%);fill-opacity:1;" d="M 8.8125 18.371094 C 9.367188 17.945312 9.503906 17.183594 9.113281 16.671875 C 8.730469 16.160156 7.96875 16.089844 7.414062 16.519531 C 6.859375 16.945312 6.726562 17.707031 7.113281 18.21875 C 7.5 18.730469 8.261719 18.800781 8.8125 18.371094 "/>
<path style=" stroke:none;fill-rule:nonzero;fill:rgb(71.599908%,71.599908%,71.599908%);fill-opacity:1;" d="M 8.75 18.277344 C 9.273438 17.867188 9.402344 17.144531 9.035156 16.664062 C 8.671875 16.183594 7.949219 16.121094 7.421875 16.53125 C 6.898438 16.941406 6.769531 17.664062 7.136719 18.148438 C 7.503906 18.628906 8.226562 18.6875 8.75 18.277344 "/>
<path style=" stroke:none;fill-rule:nonzero;fill:rgb(74.200046%,74.200046%,74.200046%);fill-opacity:1;" d="M 8.6875 18.183594 C 9.183594 17.789062 9.304688 17.105469 8.960938 16.652344 C 8.613281 16.203125 7.929688 16.152344 7.429688 16.546875 C 6.933594 16.9375 6.8125 17.621094 7.160156 18.074219 C 7.507812 18.527344 8.191406 18.574219 8.6875 18.183594 "/>
<path style=" stroke:none;fill-rule:nonzero;fill:rgb(76.800183%,76.800183%,76.800183%);fill-opacity:1;" d="M 8.625 18.089844 C 9.09375 17.714844 9.207031 17.066406 8.882812 16.648438 C 8.554688 16.226562 7.90625 16.183594 7.441406 16.558594 C 6.96875 16.933594 6.855469 17.578125 7.183594 18.003906 C 7.511719 18.425781 8.15625 18.460938 8.625 18.089844 "/>
<path style=" stroke:none;fill-rule:nonzero;fill:rgb(79.40032%,79.40032%,79.40032%);fill-opacity:1;" d="M 8.5625 17.992188 C 9.003906 17.636719 9.109375 17.027344 8.804688 16.636719 C 8.496094 16.246094 7.890625 16.21875 7.449219 16.574219 C 7.007812 16.933594 6.898438 17.539062 7.207031 17.929688 C 7.515625 18.320312 8.121094 18.351562 8.5625 17.992188 "/>
<path style=" stroke:none;fill-rule:nonzero;fill:rgb(81.899748%,81.899748%,81.899748%);fill-opacity:1;" d="M 8.496094 17.898438 C 8.910156 17.558594 9.011719 16.988281 8.726562 16.628906 C 8.4375 16.269531 7.867188 16.25 7.457031 16.589844 C 7.042969 16.929688 6.941406 17.496094 7.230469 17.855469 C 7.519531 18.21875 8.085938 18.234375 8.496094 17.898438 "/>
<path style=" stroke:none;fill-rule:nonzero;fill:rgb(84.499886%,84.499886%,84.499886%);fill-opacity:1;" d="M 8.433594 17.800781 C 8.820312 17.480469 8.914062 16.949219 8.648438 16.621094 C 8.378906 16.289062 7.847656 16.28125 7.464844 16.605469 C 7.078125 16.925781 6.984375 17.453125 7.253906 17.785156 C 7.519531 18.117188 8.050781 18.125 8.433594 17.800781 "/>
<path style=" stroke:none;fill-rule:nonzero;fill:rgb(87.100023%,87.100023%,87.100023%);fill-opacity:1;" d="M 8.371094 17.707031 C 8.726562 17.402344 8.816406 16.910156 8.566406 16.609375 C 8.320312 16.3125 7.828125 16.3125 7.472656 16.617188 C 7.117188 16.921875 7.027344 17.410156 7.277344 17.714844 C 7.523438 18.015625 8.015625 18.011719 8.371094 17.707031 "/>
<path style=" stroke:none;fill-rule:nonzero;fill:rgb(89.70016%,89.70016%,89.70016%);fill-opacity:1;" d="M 8.308594 17.609375 C 8.636719 17.324219 8.71875 16.871094 8.488281 16.601562 C 8.261719 16.332031 7.808594 16.34375 7.480469 16.632812 C 7.152344 16.917969 7.070312 17.371094 7.300781 17.640625 C 7.527344 17.910156 7.980469 17.898438 8.308594 17.609375 "/>
<path style=" stroke:none;fill-rule:nonzero;fill:rgb(92.300298%,92.300298%,92.300298%);fill-opacity:1;" d="M 8.246094 17.515625 C 8.546875 17.246094 8.621094 16.835938 8.410156 16.59375 C 8.203125 16.351562 7.789062 16.378906 7.488281 16.644531 C 7.1875 16.914062 7.113281 17.328125 7.324219 17.566406 C 7.53125 17.808594 7.945312 17.785156 8.246094 17.515625 "/>
<path style=" stroke:none;fill-rule:nonzero;fill:rgb(94.801251%,94.801251%,94.801251%);fill-opacity:1;" d="M 8.183594 17.421875 C 8.453125 17.171875 8.523438 16.796875 8.332031 16.585938 C 8.144531 16.375 7.769531 16.40625 7.496094 16.660156 C 7.226562 16.910156 7.15625 17.285156 7.347656 17.496094 C 7.535156 17.707031 7.910156 17.671875 8.183594 17.421875 "/>
<path style=" stroke:none;fill-rule:nonzero;fill:rgb(97.401389%,97.401389%,97.401389%);fill-opacity:1;" d="M 8.121094 17.324219 C 8.363281 17.09375 8.425781 16.757812 8.253906 16.578125 C 8.085938 16.398438 7.75 16.441406 7.507812 16.675781 C 7.261719 16.90625 7.199219 17.242188 7.371094 17.425781 C 7.539062 17.601562 7.875 17.558594 8.121094 17.324219 "/>
<path style=" stroke:none;fill-rule:nonzero;fill:rgb(100%,100%,100%);fill-opacity:1;" d="M 8.058594 17.230469 C 8.273438 17.015625 8.328125 16.71875 8.175781 16.566406 C 8.027344 16.417969 7.730469 16.472656 7.515625 16.6875 C 7.296875 16.90625 7.242188 17.203125 7.394531 17.351562 C 7.542969 17.5 7.839844 17.445312 8.058594 17.230469 "/>
<path style=" stroke:none;fill-rule:nonzero;fill:rgb(100%,100%,100%);fill-opacity:1;" d="M 28.40625 17.699219 L 29.554688 16.550781 L 29.75 16.746094 L 29.894531 16.027344 L 29.175781 16.171875 L 29.367188 16.367188 L 28.222656 17.515625 L 28.40625 17.699219 "/>
<path style=" stroke:none;fill-rule:nonzero;fill:rgb(100%,100%,100%);fill-opacity:1;" d="M 28.578125 18.230469 L 30.203125 18.230469 L 30.203125 17.953125 L 30.816406 18.363281 L 30.203125 18.769531 L 30.203125 18.492188 L 28.578125 18.492188 L 28.578125 18.230469 "/>
<path style=" stroke:none;fill-rule:nonzero;fill:rgb(100%,100%,100%);fill-opacity:1;" d="M 27.417969 19.480469 L 27.417969 21.105469 L 27.144531 21.105469 L 27.550781 21.714844 L 27.957031 21.105469 L 27.683594 21.105469 L 27.683594 19.480469 L 27.417969 19.480469 "/>
<path style=" stroke:none;fill-rule:nonzero;fill:rgb(100%,100%,100%);fill-opacity:1;" d="M 28.246094 19.242188 L 29.394531 20.394531 L 29.199219 20.589844 L 29.921875 20.734375 L 29.773438 20.011719 L 29.582031 20.207031 L 28.433594 19.058594 L 28.246094 19.242188 "/>
<path style=" stroke:none;fill-rule:nonzero;fill:rgb(100%,100%,100%);fill-opacity:1;" d="M 27.683594 17.246094 L 27.683594 15.621094 L 27.957031 15.621094 L 27.550781 15.007812 L 27.144531 15.621094 L 27.417969 15.621094 L 27.417969 17.246094 L 27.683594 17.246094 "/>
<path style=" stroke:none;fill-rule:nonzero;fill:rgb(100%,100%,100%);fill-opacity:1;" d="M 26.851562 17.480469 L 25.703125 16.332031 L 25.898438 16.136719 L 25.179688 15.988281 L 25.324219 16.710938 L 25.519531 16.515625 L 26.667969 17.664062 L 26.851562 17.480469 "/>
<path style=" stroke:none;fill-rule:nonzero;fill:rgb(100%,100%,100%);fill-opacity:1;" d="M 26.667969 19.058594 L 25.519531 20.207031 L 25.324219 20.011719 L 25.179688 20.734375 L 25.898438 20.589844 L 25.703125 20.394531 L 26.851562 19.242188 L 26.667969 19.058594 "/>
<path style=" stroke:none;fill-rule:nonzero;fill:rgb(20%,20%,20%);fill-opacity:1;" d="M 26.558594 17 C 25.796875 17.535156 25.609375 18.582031 26.144531 19.34375 C 26.675781 20.101562 27.726562 20.289062 28.484375 19.757812 C 29.246094 19.222656 29.429688 18.175781 28.898438 17.414062 C 28.363281 16.652344 27.316406 16.46875 26.558594 17 "/>
<path style="fill:none;stroke-width:0.63;stroke-linecap:butt;stroke-linejoin:miter;stroke:rgb(20%,20%,20%);stroke-opacity:1;stroke-miterlimit:4;" d="M 26.558594 7 C 25.796875 6.464844 25.609375 5.417969 26.144531 4.65625 C 26.675781 3.898438 27.726562 3.710938 28.484375 4.242188 C 29.246094 4.777344 29.429688 5.824219 28.898438 6.585938 C 28.363281 7.347656 27.316406 7.53125 26.558594 7 Z M 26.558594 7 " transform="matrix(1,0,0,-1,0,24)"/>
<path style=" stroke:none;fill-rule:nonzero;fill:rgb(22.600137%,22.600137%,22.600137%);fill-opacity:1;" d="M 26.601562 17.066406 C 25.859375 17.589844 25.679688 18.609375 26.199219 19.347656 C 26.71875 20.089844 27.738281 20.265625 28.480469 19.746094 C 29.222656 19.226562 29.398438 18.203125 28.882812 17.464844 C 28.363281 16.726562 27.34375 16.546875 26.601562 17.066406 "/>
<path style=" stroke:none;fill-rule:nonzero;fill:rgb(25.200275%,25.200275%,25.200275%);fill-opacity:1;" d="M 26.644531 17.136719 C 25.925781 17.644531 25.746094 18.636719 26.253906 19.355469 C 26.757812 20.074219 27.753906 20.242188 28.472656 19.734375 C 29.195312 19.226562 29.371094 18.234375 28.863281 17.515625 C 28.359375 16.796875 27.367188 16.625 26.644531 17.136719 "/>
<path style=" stroke:none;fill-rule:nonzero;fill:rgb(27.699702%,27.699702%,27.699702%);fill-opacity:1;" d="M 26.691406 17.199219 C 25.988281 17.695312 25.816406 18.664062 26.308594 19.359375 C 26.800781 20.058594 27.765625 20.222656 28.46875 19.726562 C 29.171875 19.230469 29.339844 18.261719 28.847656 17.566406 C 28.355469 16.867188 27.390625 16.707031 26.691406 17.199219 "/>
<path style=" stroke:none;fill-rule:nonzero;fill:rgb(30.29984%,30.29984%,30.29984%);fill-opacity:1;" d="M 26.730469 17.269531 C 26.050781 17.753906 25.886719 18.691406 26.363281 19.367188 C 26.839844 20.042969 27.777344 20.199219 28.460938 19.714844 C 29.144531 19.230469 29.308594 18.292969 28.832031 17.617188 C 28.355469 16.941406 27.414062 16.785156 26.730469 17.269531 "/>
<path style=" stroke:none;fill-rule:nonzero;fill:rgb(32.899977%,32.899977%,32.899977%);fill-opacity:1;" d="M 26.777344 17.335938 C 26.113281 17.804688 25.953125 18.71875 26.417969 19.371094 C 26.882812 20.027344 27.792969 20.175781 28.457031 19.707031 C 29.117188 19.234375 29.277344 18.320312 28.816406 17.667969 C 28.351562 17.011719 27.441406 16.863281 26.777344 17.335938 "/>
<path style=" stroke:none;fill-rule:nonzero;fill:rgb(35.500114%,35.500114%,35.500114%);fill-opacity:1;" d="M 26.820312 17.402344 C 26.179688 17.859375 26.023438 18.746094 26.472656 19.378906 C 26.921875 20.011719 27.808594 20.152344 28.449219 19.695312 C 29.09375 19.238281 29.25 18.351562 28.800781 17.71875 C 28.351562 17.085938 27.464844 16.941406 26.820312 17.402344 "/>
<path style=" stroke:none;fill-rule:nonzero;fill:rgb(38.100252%,38.100252%,38.100252%);fill-opacity:1;" d="M 26.863281 17.46875 C 26.242188 17.914062 26.089844 18.773438 26.527344 19.386719 C 26.964844 19.996094 27.820312 20.132812 28.445312 19.6875 C 29.066406 19.238281 29.21875 18.382812 28.78125 17.769531 C 28.347656 17.15625 27.488281 17.023438 26.863281 17.46875 "/>
<path style=" stroke:none;fill-rule:nonzero;fill:rgb(40.59968%,40.59968%,40.59968%);fill-opacity:1;" d="M 26.910156 17.535156 C 26.308594 17.96875 26.160156 18.800781 26.582031 19.390625 C 27.003906 19.980469 27.835938 20.109375 28.4375 19.675781 C 29.042969 19.242188 29.191406 18.410156 28.765625 17.816406 C 28.34375 17.226562 27.515625 17.101562 26.910156 17.535156 "/>
<path style=" stroke:none;fill-rule:nonzero;fill:rgb(43.199817%,43.199817%,43.199817%);fill-opacity:1;" d="M 26.953125 17.601562 C 26.371094 18.023438 26.226562 18.828125 26.636719 19.398438 C 27.046875 19.96875 27.851562 20.089844 28.433594 19.664062 C 29.015625 19.242188 29.15625 18.441406 28.75 17.867188 C 28.34375 17.300781 27.535156 17.179688 26.953125 17.601562 "/>
<path style=" stroke:none;fill-rule:nonzero;fill:rgb(45.799954%,45.799954%,45.799954%);fill-opacity:1;" d="M 26.996094 17.667969 C 26.433594 18.078125 26.296875 18.855469 26.691406 19.402344 C 27.085938 19.953125 27.863281 20.066406 28.425781 19.65625 C 28.988281 19.246094 29.128906 18.46875 28.734375 17.921875 C 28.339844 17.371094 27.5625 17.257812 26.996094 17.667969 "/>
<path style=" stroke:none;fill-rule:nonzero;fill:rgb(48.400092%,48.400092%,48.400092%);fill-opacity:1;" d="M 27.042969 17.734375 C 26.496094 18.132812 26.363281 18.882812 26.746094 19.410156 C 27.128906 19.9375 27.878906 20.042969 28.421875 19.644531 C 28.964844 19.25 29.097656 18.496094 28.71875 17.972656 C 28.335938 17.441406 27.585938 17.335938 27.042969 17.734375 "/>
<path style=" stroke:none;fill-rule:nonzero;fill:rgb(51.000229%,51.000229%,51.000229%);fill-opacity:1;" d="M 27.085938 17.800781 C 26.5625 18.1875 26.433594 18.90625 26.800781 19.414062 C 27.167969 19.921875 27.890625 20.023438 28.414062 19.636719 C 28.941406 19.25 29.066406 18.527344 28.699219 18.019531 C 28.335938 17.515625 27.609375 17.414062 27.085938 17.800781 "/>
<path style=" stroke:none;fill-rule:nonzero;fill:rgb(53.499657%,53.499657%,53.499657%);fill-opacity:1;" d="M 27.132812 17.867188 C 26.625 18.238281 26.503906 18.9375 26.855469 19.421875 C 27.207031 19.90625 27.902344 20 28.410156 19.625 C 28.914062 19.253906 29.035156 18.558594 28.683594 18.070312 C 28.332031 17.585938 27.636719 17.492188 27.132812 17.867188 "/>
<path style=" stroke:none;fill-rule:nonzero;fill:rgb(56.099794%,56.099794%,56.099794%);fill-opacity:1;" d="M 27.175781 17.933594 C 26.691406 18.292969 26.570312 18.964844 26.910156 19.429688 C 27.25 19.890625 27.917969 19.976562 28.402344 19.617188 C 28.890625 19.257812 29.007812 18.585938 28.667969 18.121094 C 28.328125 17.65625 27.660156 17.574219 27.175781 17.933594 "/>
<path style=" stroke:none;fill-rule:nonzero;fill:rgb(58.699931%,58.699931%,58.699931%);fill-opacity:1;" d="M 27.21875 18 C 26.753906 18.347656 26.640625 18.988281 26.964844 19.433594 C 27.289062 19.878906 27.933594 19.953125 28.398438 19.605469 C 28.863281 19.257812 28.976562 18.613281 28.652344 18.171875 C 28.324219 17.730469 27.683594 17.652344 27.21875 18 "/>
<path style=" stroke:none;fill-rule:nonzero;fill:rgb(61.300069%,61.300069%,61.300069%);fill-opacity:1;" d="M 27.261719 18.066406 C 26.816406 18.402344 26.707031 19.019531 27.019531 19.441406 C 27.332031 19.863281 27.945312 19.933594 28.390625 19.597656 C 28.839844 19.261719 28.945312 18.644531 28.636719 18.222656 C 28.324219 17.800781 27.710938 17.730469 27.261719 18.066406 "/>
<path style=" stroke:none;fill-rule:nonzero;fill:rgb(63.900206%,63.900206%,63.900206%);fill-opacity:1;" d="M 27.308594 18.132812 C 26.878906 18.457031 26.773438 19.046875 27.074219 19.445312 C 27.371094 19.847656 27.960938 19.910156 28.386719 19.585938 C 28.8125 19.261719 28.914062 18.675781 28.617188 18.273438 C 28.320312 17.871094 27.730469 17.8125 27.308594 18.132812 "/>
<path style=" stroke:none;fill-rule:nonzero;fill:rgb(66.399634%,66.399634%,66.399634%);fill-opacity:1;" d="M 27.351562 18.199219 C 26.941406 18.511719 26.84375 19.070312 27.128906 19.453125 C 27.414062 19.832031 27.972656 19.886719 28.382812 19.574219 C 28.785156 19.265625 28.886719 18.703125 28.601562 18.324219 C 28.316406 17.945312 27.757812 17.890625 27.351562 18.199219 "/>
<path style=" stroke:none;fill-rule:nonzero;fill:rgb(68.999771%,68.999771%,68.999771%);fill-opacity:1;" d="M 27.394531 18.265625 C 27.007812 18.566406 26.914062 19.097656 27.183594 19.457031 C 27.453125 19.816406 27.988281 19.863281 28.375 19.566406 C 28.761719 19.269531 28.855469 18.734375 28.585938 18.375 C 28.316406 18.015625 27.78125 17.96875 27.394531 18.265625 "/>
<path style=" stroke:none;fill-rule:nonzero;fill:rgb(71.599908%,71.599908%,71.599908%);fill-opacity:1;" d="M 27.441406 18.335938 C 27.070312 18.621094 26.980469 19.125 27.238281 19.464844 C 27.492188 19.800781 28 19.84375 28.367188 19.558594 C 28.734375 19.269531 28.824219 18.765625 28.570312 18.425781 C 28.3125 18.089844 27.808594 18.046875 27.441406 18.335938 "/>
<path style=" stroke:none;fill-rule:nonzero;fill:rgb(74.200046%,74.200046%,74.200046%);fill-opacity:1;" d="M 27.484375 18.398438 C 27.136719 18.675781 27.050781 19.152344 27.292969 19.46875 C 27.535156 19.785156 28.015625 19.820312 28.363281 19.546875 C 28.710938 19.273438 28.796875 18.792969 28.554688 18.476562 C 28.308594 18.160156 27.832031 18.125 27.484375 18.398438 "/>
<path style=" stroke:none;fill-rule:nonzero;fill:rgb(76.800183%,76.800183%,76.800183%);fill-opacity:1;" d="M 27.527344 18.46875 C 27.199219 18.730469 27.117188 19.179688 27.347656 19.476562 C 27.574219 19.769531 28.027344 19.796875 28.355469 19.535156 C 28.683594 19.273438 28.765625 18.820312 28.535156 18.527344 C 28.308594 18.230469 27.855469 18.203125 27.527344 18.46875 "/>
<path style=" stroke:none;fill-rule:nonzero;fill:rgb(79.40032%,79.40032%,79.40032%);fill-opacity:1;" d="M 27.570312 18.53125 C 27.261719 18.78125 27.1875 19.207031 27.402344 19.480469 C 27.617188 19.757812 28.042969 19.773438 28.351562 19.527344 C 28.660156 19.277344 28.734375 18.851562 28.519531 18.578125 C 28.304688 18.304688 27.878906 18.28125 27.570312 18.53125 "/>
<path style=" stroke:none;fill-rule:nonzero;fill:rgb(81.899748%,81.899748%,81.899748%);fill-opacity:1;" d="M 27.613281 18.601562 C 27.324219 18.839844 27.257812 19.234375 27.457031 19.488281 C 27.65625 19.742188 28.058594 19.753906 28.34375 19.515625 C 28.632812 19.277344 28.703125 18.882812 28.503906 18.628906 C 28.300781 18.375 27.902344 18.363281 27.613281 18.601562 "/>
<path style=" stroke:none;fill-rule:nonzero;fill:rgb(84.499886%,84.499886%,84.499886%);fill-opacity:1;" d="M 27.660156 18.667969 C 27.390625 18.890625 27.324219 19.261719 27.511719 19.492188 C 27.699219 19.726562 28.070312 19.730469 28.339844 19.507812 C 28.609375 19.28125 28.675781 18.910156 28.488281 18.679688 C 28.300781 18.445312 27.929688 18.441406 27.660156 18.667969 "/>
<path style=" stroke:none;fill-rule:nonzero;fill:rgb(87.100023%,87.100023%,87.100023%);fill-opacity:1;" d="M 27.703125 18.734375 C 27.453125 18.945312 27.394531 19.289062 27.566406 19.5 C 27.738281 19.710938 28.085938 19.710938 28.335938 19.496094 C 28.582031 19.28125 28.644531 18.941406 28.472656 18.730469 C 28.296875 18.519531 27.953125 18.519531 27.703125 18.734375 "/>
<path style=" stroke:none;fill-rule:nonzero;fill:rgb(89.70016%,89.70016%,89.70016%);fill-opacity:1;" d="M 27.746094 18.800781 C 27.519531 19 27.460938 19.316406 27.621094 19.507812 C 27.78125 19.695312 28.097656 19.6875 28.328125 19.484375 C 28.558594 19.285156 28.613281 18.96875 28.453125 18.777344 C 28.292969 18.589844 27.976562 18.601562 27.746094 18.800781 "/>
<path style=" stroke:none;fill-rule:nonzero;fill:rgb(92.300298%,92.300298%,92.300298%);fill-opacity:1;" d="M 27.792969 18.867188 C 27.582031 19.054688 27.527344 19.34375 27.675781 19.511719 C 27.820312 19.679688 28.109375 19.664062 28.320312 19.476562 C 28.53125 19.289062 28.585938 18.996094 28.4375 18.828125 C 28.289062 18.660156 28.003906 18.679688 27.792969 18.867188 "/>
<path style=" stroke:none;fill-rule:nonzero;fill:rgb(94.801251%,94.801251%,94.801251%);fill-opacity:1;" d="M 27.835938 18.933594 C 27.644531 19.109375 27.597656 19.371094 27.730469 19.519531 C 27.863281 19.664062 28.125 19.644531 28.316406 19.464844 C 28.507812 19.289062 28.554688 19.027344 28.421875 18.882812 C 28.289062 18.734375 28.027344 18.757812 27.835938 18.933594 "/>
<path style=" stroke:none;fill-rule:nonzero;fill:rgb(97.401389%,97.401389%,97.401389%);fill-opacity:1;" d="M 27.878906 19 C 27.710938 19.164062 27.667969 19.398438 27.785156 19.523438 C 27.902344 19.648438 28.140625 19.621094 28.308594 19.457031 C 28.480469 19.292969 28.523438 19.058594 28.402344 18.933594 C 28.285156 18.804688 28.050781 18.835938 27.878906 19 "/>
<path style=" stroke:none;fill-rule:nonzero;fill:rgb(100%,100%,100%);fill-opacity:1;" d="M 27.925781 19.066406 C 27.773438 19.21875 27.734375 19.425781 27.839844 19.53125 C 27.945312 19.636719 28.152344 19.597656 28.304688 19.445312 C 28.453125 19.296875 28.492188 19.085938 28.390625 18.980469 C 28.28125 18.878906 28.074219 18.914062 27.925781 19.066406 "/>
</g>
</svg>
