<?xml version="1.0" encoding="UTF-8"?>
<svg xmlns="http://www.w3.org/2000/svg" xmlns:xlink="http://www.w3.org/1999/xlink" width="33" height="33" viewBox="0 0 33 33" version="1.1">
<defs>
<clipPath id="clip1">
  <path d="M 0.570312 6.625 C 0.570312 10.082031 7.777344 12.882812 16.664062 12.882812 C 25.554688 12.882812 32.757812 10.082031 32.757812 6.625 L 32.757812 26.492188 C 32.757812 29.945312 25.554688 32.75 16.664062 32.75 C 7.777344 32.75 0.570312 29.945312 0.570312 26.492188 L 0.570312 6.625 "/>
</clipPath>
<clipPath id="clip2">
  <path d="M 13.515625 3.929688 L 14.839844 5.921875 L 9.828125 7.078125 L 10.921875 6.164062 L 3.171875 4.84375 L 5.117188 3.382812 L 12.59375 4.652344 L 13.515625 3.929688 "/>
</clipPath>
<clipPath id="clip3">
  <path d="M 20.570312 8.753906 L 19.664062 6.703125 L 24.1875 5.800781 L 23.402344 6.503906 L 30.941406 7.789062 L 29.132812 9.238281 L 21.640625 7.832031 L 20.570312 8.753906 "/>
</clipPath>
<clipPath id="clip4">
  <path d="M 18.097656 2.84375 L 23.164062 1.460938 L 23.222656 3.628906 L 21.957031 3.386719 L 19.484375 5.4375 L 17.125 5.097656 L 19.679688 3.089844 L 18.097656 2.84375 "/>
</clipPath>
<clipPath id="clip5">
  <path d="M 15.925781 10.625 L 11.101562 11.527344 L 10.921875 9.296875 L 12.308594 9.597656 L 14.964844 7.332031 L 17.3125 7.730469 L 14.480469 10.203125 L 15.925781 10.625 "/>
</clipPath>
</defs>
<g id="surface0">
<g clip-path="url(#clip1)" clip-rule="nonzero">
<path style=" stroke:none;fill-rule:nonzero;fill:rgb(48.912795%,47.98352%,48.213931%);fill-opacity:1;" d="M 0.570312 6.625 L 0.570312 32.75 L 0.695312 32.75 L 0.695312 6.625 L 0.570312 6.625 Z M 0.570312 6.625 "/>
<path style=" stroke:none;fill-rule:nonzero;fill:rgb(49.585718%,48.66865%,48.89601%);fill-opacity:1;" d="M 0.695312 6.625 L 0.695312 32.75 L 0.824219 32.75 L 0.824219 6.625 L 0.695312 6.625 Z M 0.695312 6.625 "/>
<path style=" stroke:none;fill-rule:nonzero;fill:rgb(50.260166%,49.35378%,49.579614%);fill-opacity:1;" d="M 0.824219 6.625 L 0.824219 32.75 L 0.949219 32.75 L 0.949219 6.625 L 0.824219 6.625 Z M 0.824219 6.625 "/>
<path style=" stroke:none;fill-rule:nonzero;fill:rgb(50.933089%,50.040436%,50.261692%);fill-opacity:1;" d="M 0.949219 6.625 L 0.949219 32.75 L 1.074219 32.75 L 1.074219 6.625 L 0.949219 6.625 Z M 0.949219 6.625 "/>
<path style=" stroke:none;fill-rule:nonzero;fill:rgb(51.607538%,50.727092%,50.945296%);fill-opacity:1;" d="M 1.074219 6.625 L 1.074219 32.75 L 1.199219 32.75 L 1.199219 6.625 L 1.074219 6.625 Z M 1.074219 6.625 "/>
<path style=" stroke:none;fill-rule:nonzero;fill:rgb(52.281987%,51.413748%,51.628901%);fill-opacity:1;" d="M 1.199219 6.625 L 1.199219 32.75 L 1.324219 32.75 L 1.324219 6.625 L 1.199219 6.625 Z M 1.199219 6.625 "/>
<path style=" stroke:none;fill-rule:nonzero;fill:rgb(52.95491%,52.098878%,52.312505%);fill-opacity:1;" d="M 1.324219 6.625 L 1.324219 32.75 L 1.449219 32.75 L 1.449219 6.625 L 1.324219 6.625 Z M 1.324219 6.625 "/>
<path style=" stroke:none;fill-rule:nonzero;fill:rgb(53.629358%,52.785534%,52.994583%);fill-opacity:1;" d="M 1.449219 6.625 L 1.449219 32.75 L 1.578125 32.75 L 1.578125 6.625 L 1.449219 6.625 Z M 1.449219 6.625 "/>
<path style=" stroke:none;fill-rule:nonzero;fill:rgb(54.303807%,53.47219%,53.678187%);fill-opacity:1;" d="M 1.578125 6.625 L 1.578125 32.75 L 1.703125 32.75 L 1.703125 6.625 L 1.578125 6.625 Z M 1.578125 6.625 "/>
<path style=" stroke:none;fill-rule:nonzero;fill:rgb(54.97673%,54.157321%,54.361791%);fill-opacity:1;" d="M 1.703125 6.625 L 1.703125 32.75 L 1.828125 32.75 L 1.828125 6.625 L 1.703125 6.625 Z M 1.703125 6.625 "/>
<path style=" stroke:none;fill-rule:nonzero;fill:rgb(55.651179%,54.843977%,55.045396%);fill-opacity:1;" d="M 1.828125 6.625 L 1.828125 32.75 L 1.953125 32.75 L 1.953125 6.625 L 1.828125 6.625 Z M 1.828125 6.625 "/>
<path style=" stroke:none;fill-rule:nonzero;fill:rgb(56.325628%,55.530632%,55.727474%);fill-opacity:1;" d="M 1.953125 6.625 L 1.953125 32.75 L 2.078125 32.75 L 2.078125 6.625 L 1.953125 6.625 Z M 1.953125 6.625 "/>
<path style=" stroke:none;fill-rule:nonzero;fill:rgb(57.000076%,56.217288%,56.411078%);fill-opacity:1;" d="M 2.078125 6.625 L 2.078125 32.75 L 2.207031 32.75 L 2.207031 6.625 L 2.078125 6.625 Z M 2.078125 6.625 "/>
<path style=" stroke:none;fill-rule:nonzero;fill:rgb(57.672999%,56.902419%,57.094682%);fill-opacity:1;" d="M 2.207031 6.625 L 2.207031 32.75 L 2.332031 32.75 L 2.332031 6.625 L 2.207031 6.625 Z M 2.207031 6.625 "/>
<path style=" stroke:none;fill-rule:nonzero;fill:rgb(58.347448%,57.589075%,57.778286%);fill-opacity:1;" d="M 2.332031 6.625 L 2.332031 32.75 L 2.457031 32.75 L 2.457031 6.625 L 2.332031 6.625 Z M 2.332031 6.625 "/>
<path style=" stroke:none;fill-rule:nonzero;fill:rgb(59.021897%,58.275731%,58.460365%);fill-opacity:1;" d="M 2.457031 6.625 L 2.457031 32.75 L 2.582031 32.75 L 2.582031 6.625 L 2.457031 6.625 Z M 2.457031 6.625 "/>
<path style=" stroke:none;fill-rule:nonzero;fill:rgb(59.69482%,58.962387%,59.143969%);fill-opacity:1;" d="M 2.582031 6.625 L 2.582031 32.75 L 2.707031 32.75 L 2.707031 6.625 L 2.582031 6.625 Z M 2.582031 6.625 "/>
<path style=" stroke:none;fill-rule:nonzero;fill:rgb(60.369268%,59.647517%,59.827573%);fill-opacity:1;" d="M 2.707031 6.625 L 2.707031 32.75 L 2.835938 32.75 L 2.835938 6.625 L 2.707031 6.625 Z M 2.707031 6.625 "/>
<path style=" stroke:none;fill-rule:nonzero;fill:rgb(61.043717%,60.334173%,60.511177%);fill-opacity:1;" d="M 2.835938 6.625 L 2.835938 32.75 L 2.960938 32.75 L 2.960938 6.625 L 2.835938 6.625 Z M 2.835938 6.625 "/>
<path style=" stroke:none;fill-rule:nonzero;fill:rgb(61.71664%,61.020829%,61.193256%);fill-opacity:1;" d="M 2.960938 6.625 L 2.960938 32.75 L 3.085938 32.75 L 3.085938 6.625 L 2.960938 6.625 Z M 2.960938 6.625 "/>
<path style=" stroke:none;fill-rule:nonzero;fill:rgb(62.391089%,61.707485%,61.87686%);fill-opacity:1;" d="M 3.085938 6.625 L 3.085938 32.75 L 3.210938 32.75 L 3.210938 6.625 L 3.085938 6.625 Z M 3.085938 6.625 "/>
<path style=" stroke:none;fill-rule:nonzero;fill:rgb(63.065537%,62.392615%,62.560464%);fill-opacity:1;" d="M 3.210938 6.625 L 3.210938 32.75 L 3.335938 32.75 L 3.335938 6.625 L 3.210938 6.625 Z M 3.210938 6.625 "/>
<path style=" stroke:none;fill-rule:nonzero;fill:rgb(63.739986%,63.079271%,63.244068%);fill-opacity:1;" d="M 3.335938 6.625 L 3.335938 32.75 L 3.460938 32.75 L 3.460938 6.625 L 3.335938 6.625 Z M 3.335938 6.625 "/>
<path style=" stroke:none;fill-rule:nonzero;fill:rgb(64.412909%,63.765927%,63.926146%);fill-opacity:1;" d="M 3.460938 6.625 L 3.460938 32.75 L 3.589844 32.75 L 3.589844 6.625 L 3.460938 6.625 Z M 3.460938 6.625 "/>
<path style=" stroke:none;fill-rule:nonzero;fill:rgb(65.087358%,64.452583%,64.609751%);fill-opacity:1;" d="M 3.589844 6.625 L 3.589844 32.75 L 3.714844 32.75 L 3.714844 6.625 L 3.589844 6.625 Z M 3.589844 6.625 "/>
<path style=" stroke:none;fill-rule:nonzero;fill:rgb(65.761807%,65.137713%,65.293355%);fill-opacity:1;" d="M 3.714844 6.625 L 3.714844 32.75 L 3.839844 32.75 L 3.839844 6.625 L 3.714844 6.625 Z M 3.714844 6.625 "/>
<path style=" stroke:none;fill-rule:nonzero;fill:rgb(66.43473%,65.824369%,65.975433%);fill-opacity:1;" d="M 3.839844 6.625 L 3.839844 32.75 L 3.964844 32.75 L 3.964844 6.625 L 3.839844 6.625 Z M 3.839844 6.625 "/>
<path style=" stroke:none;fill-rule:nonzero;fill:rgb(67.109178%,66.511025%,66.659037%);fill-opacity:1;" d="M 3.964844 6.625 L 3.964844 32.75 L 4.089844 32.75 L 4.089844 6.625 L 3.964844 6.625 Z M 3.964844 6.625 "/>
<path style=" stroke:none;fill-rule:nonzero;fill:rgb(67.783627%,67.197681%,67.342641%);fill-opacity:1;" d="M 4.089844 6.625 L 4.089844 32.75 L 4.21875 32.75 L 4.21875 6.625 L 4.089844 6.625 Z M 4.089844 6.625 "/>
<path style=" stroke:none;fill-rule:nonzero;fill:rgb(68.45655%,67.882811%,68.026246%);fill-opacity:1;" d="M 4.21875 6.625 L 4.21875 32.75 L 4.34375 32.75 L 4.34375 6.625 L 4.21875 6.625 Z M 4.21875 6.625 "/>
<path style=" stroke:none;fill-rule:nonzero;fill:rgb(69.130999%,68.569467%,68.708324%);fill-opacity:1;" d="M 4.34375 6.625 L 4.34375 32.75 L 4.46875 32.75 L 4.46875 6.625 L 4.34375 6.625 Z M 4.34375 6.625 "/>
<path style=" stroke:none;fill-rule:nonzero;fill:rgb(69.805447%,69.256123%,69.391928%);fill-opacity:1;" d="M 4.46875 6.625 L 4.46875 32.75 L 4.59375 32.75 L 4.59375 6.625 L 4.46875 6.625 Z M 4.46875 6.625 "/>
<path style=" stroke:none;fill-rule:nonzero;fill:rgb(70.479896%,69.942779%,70.075532%);fill-opacity:1;" d="M 4.59375 6.625 L 4.59375 32.75 L 4.71875 32.75 L 4.71875 6.625 L 4.59375 6.625 Z M 4.59375 6.625 "/>
<path style=" stroke:none;fill-rule:nonzero;fill:rgb(71.152819%,70.627909%,70.759136%);fill-opacity:1;" d="M 4.71875 6.625 L 4.71875 32.75 L 4.847656 32.75 L 4.847656 6.625 L 4.71875 6.625 Z M 4.71875 6.625 "/>
<path style=" stroke:none;fill-rule:nonzero;fill:rgb(71.827268%,71.314565%,71.441215%);fill-opacity:1;" d="M 4.847656 6.625 L 4.847656 32.75 L 4.972656 32.75 L 4.972656 6.625 L 4.847656 6.625 Z M 4.847656 6.625 "/>
<path style=" stroke:none;fill-rule:nonzero;fill:rgb(72.501717%,72.001221%,72.124819%);fill-opacity:1;" d="M 4.972656 6.625 L 4.972656 32.75 L 5.097656 32.75 L 5.097656 6.625 L 4.972656 6.625 Z M 4.972656 6.625 "/>
<path style=" stroke:none;fill-rule:nonzero;fill:rgb(73.17464%,72.686351%,72.808423%);fill-opacity:1;" d="M 5.097656 6.625 L 5.097656 32.75 L 5.222656 32.75 L 5.222656 6.625 L 5.097656 6.625 Z M 5.097656 6.625 "/>
<path style=" stroke:none;fill-rule:nonzero;fill:rgb(73.849088%,73.373007%,73.492027%);fill-opacity:1;" d="M 5.222656 6.625 L 5.222656 32.75 L 5.347656 32.75 L 5.347656 6.625 L 5.222656 6.625 Z M 5.222656 6.625 "/>
<path style=" stroke:none;fill-rule:nonzero;fill:rgb(74.523537%,74.059663%,74.174105%);fill-opacity:1;" d="M 5.347656 6.625 L 5.347656 32.75 L 5.472656 32.75 L 5.472656 6.625 L 5.347656 6.625 Z M 5.347656 6.625 "/>
<path style=" stroke:none;fill-rule:nonzero;fill:rgb(75.197986%,74.746319%,74.85771%);fill-opacity:1;" d="M 5.472656 6.625 L 5.472656 32.75 L 5.601562 32.75 L 5.601562 6.625 L 5.472656 6.625 Z M 5.472656 6.625 "/>
<path style=" stroke:none;fill-rule:nonzero;fill:rgb(75.870909%,75.431449%,75.541314%);fill-opacity:1;" d="M 5.601562 6.625 L 5.601562 32.75 L 5.726562 32.75 L 5.726562 6.625 L 5.601562 6.625 Z M 5.601562 6.625 "/>
<path style=" stroke:none;fill-rule:nonzero;fill:rgb(76.545357%,76.118105%,76.224918%);fill-opacity:1;" d="M 5.726562 6.625 L 5.726562 32.75 L 5.851562 32.75 L 5.851562 6.625 L 5.726562 6.625 Z M 5.726562 6.625 "/>
<path style=" stroke:none;fill-rule:nonzero;fill:rgb(77.219806%,76.804761%,76.906996%);fill-opacity:1;" d="M 5.851562 6.625 L 5.851562 32.75 L 5.976562 32.75 L 5.976562 6.625 L 5.851562 6.625 Z M 5.851562 6.625 "/>
<path style=" stroke:none;fill-rule:nonzero;fill:rgb(77.892729%,77.491417%,77.5906%);fill-opacity:1;" d="M 5.976562 6.625 L 5.976562 32.75 L 6.101562 32.75 L 6.101562 6.625 L 5.976562 6.625 Z M 5.976562 6.625 "/>
<path style=" stroke:none;fill-rule:nonzero;fill:rgb(78.567178%,78.176547%,78.274205%);fill-opacity:1;" d="M 6.101562 6.625 L 6.101562 32.75 L 6.230469 32.75 L 6.230469 6.625 L 6.101562 6.625 Z M 6.101562 6.625 "/>
<path style=" stroke:none;fill-rule:nonzero;fill:rgb(79.241627%,78.863203%,78.957809%);fill-opacity:1;" d="M 6.230469 6.625 L 6.230469 32.75 L 6.355469 32.75 L 6.355469 6.625 L 6.230469 6.625 Z M 6.230469 6.625 "/>
<path style=" stroke:none;fill-rule:nonzero;fill:rgb(79.914549%,79.549859%,79.639887%);fill-opacity:1;" d="M 6.355469 6.625 L 6.355469 32.75 L 6.480469 32.75 L 6.480469 6.625 L 6.355469 6.625 Z M 6.355469 6.625 "/>
<path style=" stroke:none;fill-rule:nonzero;fill:rgb(80.588998%,80.236515%,80.323491%);fill-opacity:1;" d="M 6.480469 6.625 L 6.480469 32.75 L 6.605469 32.75 L 6.605469 6.625 L 6.480469 6.625 Z M 6.480469 6.625 "/>
<path style=" stroke:none;fill-rule:nonzero;fill:rgb(81.263447%,80.921645%,81.007095%);fill-opacity:1;" d="M 6.605469 6.625 L 6.605469 32.75 L 6.730469 32.75 L 6.730469 6.625 L 6.605469 6.625 Z M 6.605469 6.625 "/>
<path style=" stroke:none;fill-rule:nonzero;fill:rgb(81.937896%,81.608301%,81.6907%);fill-opacity:1;" d="M 6.730469 6.625 L 6.730469 32.75 L 6.859375 32.75 L 6.859375 6.625 L 6.730469 6.625 Z M 6.730469 6.625 "/>
<path style=" stroke:none;fill-rule:nonzero;fill:rgb(82.610819%,82.294957%,82.372778%);fill-opacity:1;" d="M 6.859375 6.625 L 6.859375 32.75 L 6.984375 32.75 L 6.984375 6.625 L 6.859375 6.625 Z M 6.859375 6.625 "/>
<path style=" stroke:none;fill-rule:nonzero;fill:rgb(83.285267%,82.981613%,83.056382%);fill-opacity:1;" d="M 6.984375 6.625 L 6.984375 32.75 L 7.109375 32.75 L 7.109375 6.625 L 6.984375 6.625 Z M 6.984375 6.625 "/>
<path style=" stroke:none;fill-rule:nonzero;fill:rgb(83.959716%,83.666743%,83.739986%);fill-opacity:1;" d="M 7.109375 6.625 L 7.109375 32.75 L 7.234375 32.75 L 7.234375 6.625 L 7.109375 6.625 Z M 7.109375 6.625 "/>
<path style=" stroke:none;fill-rule:nonzero;fill:rgb(84.632639%,84.353399%,84.42359%);fill-opacity:1;" d="M 7.234375 6.625 L 7.234375 32.75 L 7.359375 32.75 L 7.359375 6.625 L 7.234375 6.625 Z M 7.234375 6.625 "/>
<path style=" stroke:none;fill-rule:nonzero;fill:rgb(85.307088%,85.040055%,85.105669%);fill-opacity:1;" d="M 7.359375 6.625 L 7.359375 32.75 L 7.484375 32.75 L 7.484375 6.625 L 7.359375 6.625 Z M 7.359375 6.625 "/>
<path style=" stroke:none;fill-rule:nonzero;fill:rgb(85.981537%,85.726711%,85.789273%);fill-opacity:1;" d="M 7.484375 6.625 L 7.484375 32.75 L 7.613281 32.75 L 7.613281 6.625 L 7.484375 6.625 Z M 7.484375 6.625 "/>
<path style=" stroke:none;fill-rule:nonzero;fill:rgb(86.654459%,86.411841%,86.472877%);fill-opacity:1;" d="M 7.613281 6.625 L 7.613281 32.75 L 7.738281 32.75 L 7.738281 6.625 L 7.613281 6.625 Z M 7.613281 6.625 "/>
<path style=" stroke:none;fill-rule:nonzero;fill:rgb(87.328908%,87.098497%,87.156481%);fill-opacity:1;" d="M 7.738281 6.625 L 7.738281 32.75 L 7.863281 32.75 L 7.863281 6.625 L 7.738281 6.625 Z M 7.738281 6.625 "/>
<path style=" stroke:none;fill-rule:nonzero;fill:rgb(88.003357%,87.785153%,87.83856%);fill-opacity:1;" d="M 7.863281 6.625 L 7.863281 32.75 L 7.988281 32.75 L 7.988281 6.625 L 7.863281 6.625 Z M 7.863281 6.625 "/>
<path style=" stroke:none;fill-rule:nonzero;fill:rgb(88.677806%,88.471809%,88.522164%);fill-opacity:1;" d="M 7.988281 6.625 L 7.988281 32.75 L 8.113281 32.75 L 8.113281 6.625 L 7.988281 6.625 Z M 7.988281 6.625 "/>
<path style=" stroke:none;fill-rule:nonzero;fill:rgb(89.350729%,89.156939%,89.205768%);fill-opacity:1;" d="M 8.113281 6.625 L 8.113281 32.75 L 8.242188 32.75 L 8.242188 6.625 L 8.113281 6.625 Z M 8.113281 6.625 "/>
<path style=" stroke:none;fill-rule:nonzero;fill:rgb(90.025177%,89.843595%,89.889372%);fill-opacity:1;" d="M 8.242188 6.625 L 8.242188 32.75 L 8.367188 32.75 L 8.367188 6.625 L 8.242188 6.625 Z M 8.242188 6.625 "/>
<path style=" stroke:none;fill-rule:nonzero;fill:rgb(90.699626%,90.530251%,90.57145%);fill-opacity:1;" d="M 8.367188 6.625 L 8.367188 32.75 L 8.492188 32.75 L 8.492188 6.625 L 8.367188 6.625 Z M 8.367188 6.625 "/>
<path style=" stroke:none;fill-rule:nonzero;fill:rgb(91.372549%,91.215381%,91.255055%);fill-opacity:1;" d="M 8.492188 6.625 L 8.492188 32.75 L 8.617188 32.75 L 8.617188 6.625 L 8.492188 6.625 Z M 8.492188 6.625 "/>
<path style=" stroke:none;fill-rule:nonzero;fill:rgb(92.046998%,91.902037%,91.938659%);fill-opacity:1;" d="M 8.617188 6.625 L 8.617188 32.75 L 8.742188 32.75 L 8.742188 6.625 L 8.617188 6.625 Z M 8.617188 6.625 "/>
<path style=" stroke:none;fill-rule:nonzero;fill:rgb(92.721447%,92.588693%,92.622263%);fill-opacity:1;" d="M 8.742188 6.625 L 8.742188 32.75 L 8.871094 32.75 L 8.871094 6.625 L 8.742188 6.625 Z M 8.742188 6.625 "/>
<path style=" stroke:none;fill-rule:nonzero;fill:rgb(93.394369%,93.275349%,93.304341%);fill-opacity:1;" d="M 8.871094 6.625 L 8.871094 32.75 L 8.996094 32.75 L 8.996094 6.625 L 8.871094 6.625 Z M 8.871094 6.625 "/>
<path style=" stroke:none;fill-rule:nonzero;fill:rgb(94.068818%,93.960479%,93.987945%);fill-opacity:1;" d="M 8.996094 6.625 L 8.996094 32.75 L 9.121094 32.75 L 9.121094 6.625 L 8.996094 6.625 Z M 8.996094 6.625 "/>
<path style=" stroke:none;fill-rule:nonzero;fill:rgb(94.743267%,94.647135%,94.67155%);fill-opacity:1;" d="M 9.121094 6.625 L 9.121094 32.75 L 9.246094 32.75 L 9.246094 6.625 L 9.121094 6.625 Z M 9.121094 6.625 "/>
<path style=" stroke:none;fill-rule:nonzero;fill:rgb(95.417716%,95.333791%,95.353628%);fill-opacity:1;" d="M 9.246094 6.625 L 9.246094 32.75 L 9.371094 32.75 L 9.371094 6.625 L 9.246094 6.625 Z M 9.246094 6.625 "/>
<path style=" stroke:none;fill-rule:nonzero;fill:rgb(96.090639%,96.020447%,96.037232%);fill-opacity:1;" d="M 9.371094 6.625 L 9.371094 32.75 L 9.496094 32.75 L 9.496094 6.625 L 9.371094 6.625 Z M 9.371094 6.625 "/>
<path style=" stroke:none;fill-rule:nonzero;fill:rgb(96.765087%,96.705577%,96.720836%);fill-opacity:1;" d="M 9.496094 6.625 L 9.496094 32.75 L 9.625 32.75 L 9.625 6.625 L 9.496094 6.625 Z M 9.496094 6.625 "/>
<path style=" stroke:none;fill-rule:nonzero;fill:rgb(97.439536%,97.392233%,97.40444%);fill-opacity:1;" d="M 9.625 6.625 L 9.625 32.75 L 9.75 32.75 L 9.75 6.625 L 9.625 6.625 Z M 9.625 6.625 "/>
<path style=" stroke:none;fill-rule:nonzero;fill:rgb(98.112459%,98.078889%,98.086519%);fill-opacity:1;" d="M 9.75 6.625 L 9.75 32.75 L 9.875 32.75 L 9.875 6.625 L 9.75 6.625 Z M 9.75 6.625 "/>
<path style=" stroke:none;fill-rule:nonzero;fill:rgb(98.786908%,98.765545%,98.770123%);fill-opacity:1;" d="M 9.875 6.625 L 9.875 32.75 L 10 32.75 L 10 6.625 L 9.875 6.625 Z M 9.875 6.625 "/>
<path style=" stroke:none;fill-rule:nonzero;fill:rgb(99.461357%,99.450675%,99.453727%);fill-opacity:1;" d="M 10 6.625 L 10 32.75 L 10.125 32.75 L 10.125 6.625 L 10 6.625 Z M 10 6.625 "/>
<path style=" stroke:none;fill-rule:nonzero;fill:rgb(99.50103%,99.491875%,99.4934%);fill-opacity:1;" d="M 10.125 6.625 L 10.125 32.75 L 10.378906 32.75 L 10.378906 6.625 L 10.125 6.625 Z M 10.125 6.625 "/>
<path style=" stroke:none;fill-rule:nonzero;fill:rgb(99.156176%,99.140917%,99.143969%);fill-opacity:1;" d="M 10.378906 6.625 L 10.378906 32.75 L 10.503906 32.75 L 10.503906 6.625 L 10.378906 6.625 Z M 10.378906 6.625 "/>
<path style=" stroke:none;fill-rule:nonzero;fill:rgb(98.770123%,98.747234%,98.753338%);fill-opacity:1;" d="M 10.503906 6.625 L 10.503906 32.75 L 10.628906 32.75 L 10.628906 6.625 L 10.503906 6.625 Z M 10.503906 6.625 "/>
<path style=" stroke:none;fill-rule:nonzero;fill:rgb(98.38407%,98.355077%,98.362707%);fill-opacity:1;" d="M 10.628906 6.625 L 10.628906 32.75 L 10.753906 32.75 L 10.753906 6.625 L 10.628906 6.625 Z M 10.628906 6.625 "/>
<path style=" stroke:none;fill-rule:nonzero;fill:rgb(97.998016%,97.961395%,97.97055%);fill-opacity:1;" d="M 10.753906 6.625 L 10.753906 32.75 L 10.882812 32.75 L 10.882812 6.625 L 10.753906 6.625 Z M 10.753906 6.625 "/>
<path style=" stroke:none;fill-rule:nonzero;fill:rgb(97.613489%,97.570764%,97.581445%);fill-opacity:1;" d="M 10.882812 6.625 L 10.882812 32.75 L 11.007812 32.75 L 11.007812 6.625 L 10.882812 6.625 Z M 10.882812 6.625 "/>
<path style=" stroke:none;fill-rule:nonzero;fill:rgb(97.228962%,97.178607%,97.190814%);fill-opacity:1;" d="M 11.007812 6.625 L 11.007812 32.75 L 11.132812 32.75 L 11.132812 6.625 L 11.007812 6.625 Z M 11.007812 6.625 "/>
<path style=" stroke:none;fill-rule:nonzero;fill:rgb(96.844434%,96.78645%,96.800183%);fill-opacity:1;" d="M 11.132812 6.625 L 11.132812 32.75 L 11.257812 32.75 L 11.257812 6.625 L 11.132812 6.625 Z M 11.132812 6.625 "/>
<path style=" stroke:none;fill-rule:nonzero;fill:rgb(96.458381%,96.394293%,96.409552%);fill-opacity:1;" d="M 11.257812 6.625 L 11.257812 32.75 L 11.382812 32.75 L 11.382812 6.625 L 11.257812 6.625 Z M 11.257812 6.625 "/>
<path style=" stroke:none;fill-rule:nonzero;fill:rgb(96.073854%,96.002136%,96.020447%);fill-opacity:1;" d="M 11.382812 6.625 L 11.382812 32.75 L 11.507812 32.75 L 11.507812 6.625 L 11.382812 6.625 Z M 11.382812 6.625 "/>
<path style=" stroke:none;fill-rule:nonzero;fill:rgb(95.6878%,95.609979%,95.629816%);fill-opacity:1;" d="M 11.507812 6.625 L 11.507812 32.75 L 11.636719 32.75 L 11.636719 6.625 L 11.507812 6.625 Z M 11.507812 6.625 "/>
<path style=" stroke:none;fill-rule:nonzero;fill:rgb(95.303273%,95.217823%,95.239185%);fill-opacity:1;" d="M 11.636719 6.625 L 11.636719 32.75 L 11.761719 32.75 L 11.761719 6.625 L 11.636719 6.625 Z M 11.636719 6.625 "/>
<path style=" stroke:none;fill-rule:nonzero;fill:rgb(94.918746%,94.825666%,94.848554%);fill-opacity:1;" d="M 11.761719 6.625 L 11.761719 32.75 L 11.886719 32.75 L 11.886719 6.625 L 11.761719 6.625 Z M 11.761719 6.625 "/>
<path style=" stroke:none;fill-rule:nonzero;fill:rgb(94.534218%,94.435035%,94.459449%);fill-opacity:1;" d="M 11.886719 6.625 L 11.886719 32.75 L 12.011719 32.75 L 12.011719 6.625 L 11.886719 6.625 Z M 11.886719 6.625 "/>
<path style=" stroke:none;fill-rule:nonzero;fill:rgb(94.148165%,94.041352%,94.067292%);fill-opacity:1;" d="M 12.011719 6.625 L 12.011719 32.75 L 12.136719 32.75 L 12.136719 6.625 L 12.011719 6.625 Z M 12.011719 6.625 "/>
<path style=" stroke:none;fill-rule:nonzero;fill:rgb(93.763638%,93.650721%,93.678187%);fill-opacity:1;" d="M 12.136719 6.625 L 12.136719 32.75 L 12.265625 32.75 L 12.265625 6.625 L 12.136719 6.625 Z M 12.136719 6.625 "/>
<path style=" stroke:none;fill-rule:nonzero;fill:rgb(93.377584%,93.257038%,93.287556%);fill-opacity:1;" d="M 12.265625 6.625 L 12.265625 32.75 L 12.390625 32.75 L 12.390625 6.625 L 12.265625 6.625 Z M 12.265625 6.625 "/>
<path style=" stroke:none;fill-rule:nonzero;fill:rgb(92.991531%,92.864881%,92.896925%);fill-opacity:1;" d="M 12.390625 6.625 L 12.390625 32.75 L 12.515625 32.75 L 12.515625 6.625 L 12.390625 6.625 Z M 12.390625 6.625 "/>
<path style=" stroke:none;fill-rule:nonzero;fill:rgb(92.607004%,92.472724%,92.504768%);fill-opacity:1;" d="M 12.515625 6.625 L 12.515625 32.75 L 12.640625 32.75 L 12.640625 6.625 L 12.515625 6.625 Z M 12.515625 6.625 "/>
<path style=" stroke:none;fill-rule:nonzero;fill:rgb(92.222477%,92.080568%,92.115663%);fill-opacity:1;" d="M 12.640625 6.625 L 12.640625 32.75 L 12.765625 32.75 L 12.765625 6.625 L 12.640625 6.625 Z M 12.640625 6.625 "/>
<path style=" stroke:none;fill-rule:nonzero;fill:rgb(91.836423%,91.688411%,91.725032%);fill-opacity:1;" d="M 12.765625 6.625 L 12.765625 32.75 L 12.894531 32.75 L 12.894531 6.625 L 12.765625 6.625 Z M 12.765625 6.625 "/>
<path style=" stroke:none;fill-rule:nonzero;fill:rgb(91.451896%,91.296254%,91.334401%);fill-opacity:1;" d="M 12.894531 6.625 L 12.894531 32.75 L 13.019531 32.75 L 13.019531 6.625 L 12.894531 6.625 Z M 12.894531 6.625 "/>
<path style=" stroke:none;fill-rule:nonzero;fill:rgb(91.065843%,90.904097%,90.943771%);fill-opacity:1;" d="M 13.019531 6.625 L 13.019531 32.75 L 13.144531 32.75 L 13.144531 6.625 L 13.019531 6.625 Z M 13.019531 6.625 "/>
<path style=" stroke:none;fill-rule:nonzero;fill:rgb(90.681315%,90.51194%,90.554665%);fill-opacity:1;" d="M 13.144531 6.625 L 13.144531 32.75 L 13.269531 32.75 L 13.269531 6.625 L 13.144531 6.625 Z M 13.144531 6.625 "/>
<path style=" stroke:none;fill-rule:nonzero;fill:rgb(90.296788%,90.119783%,90.164034%);fill-opacity:1;" d="M 13.269531 6.625 L 13.269531 32.75 L 13.394531 32.75 L 13.394531 6.625 L 13.269531 6.625 Z M 13.269531 6.625 "/>
<path style=" stroke:none;fill-rule:nonzero;fill:rgb(89.912261%,89.727626%,89.773404%);fill-opacity:1;" d="M 13.394531 6.625 L 13.394531 32.75 L 13.519531 32.75 L 13.519531 6.625 L 13.394531 6.625 Z M 13.394531 6.625 "/>
<path style=" stroke:none;fill-rule:nonzero;fill:rgb(89.526207%,89.33547%,89.382773%);fill-opacity:1;" d="M 13.519531 6.625 L 13.519531 32.75 L 13.648438 32.75 L 13.648438 6.625 L 13.519531 6.625 Z M 13.519531 6.625 "/>
<path style=" stroke:none;fill-rule:nonzero;fill:rgb(89.14168%,88.944839%,88.993668%);fill-opacity:1;" d="M 13.648438 6.625 L 13.648438 32.75 L 13.773438 32.75 L 13.773438 6.625 L 13.648438 6.625 Z M 13.648438 6.625 "/>
<path style=" stroke:none;fill-rule:nonzero;fill:rgb(88.755627%,88.551156%,88.603037%);fill-opacity:1;" d="M 13.773438 6.625 L 13.773438 32.75 L 13.898438 32.75 L 13.898438 6.625 L 13.773438 6.625 Z M 13.773438 6.625 "/>
<path style=" stroke:none;fill-rule:nonzero;fill:rgb(88.371099%,88.158999%,88.21088%);fill-opacity:1;" d="M 13.898438 6.625 L 13.898438 32.75 L 14.023438 32.75 L 14.023438 6.625 L 13.898438 6.625 Z M 13.898438 6.625 "/>
<path style=" stroke:none;fill-rule:nonzero;fill:rgb(87.985046%,87.765316%,87.820249%);fill-opacity:1;" d="M 14.023438 6.625 L 14.023438 32.75 L 14.148438 32.75 L 14.148438 6.625 L 14.023438 6.625 Z M 14.023438 6.625 "/>
<path style=" stroke:none;fill-rule:nonzero;fill:rgb(87.600519%,87.374685%,87.431144%);fill-opacity:1;" d="M 14.148438 6.625 L 14.148438 32.75 L 14.277344 32.75 L 14.277344 6.625 L 14.148438 6.625 Z M 14.148438 6.625 "/>
<path style=" stroke:none;fill-rule:nonzero;fill:rgb(87.214466%,86.982528%,87.038987%);fill-opacity:1;" d="M 14.277344 6.625 L 14.277344 32.75 L 14.402344 32.75 L 14.402344 6.625 L 14.277344 6.625 Z M 14.277344 6.625 "/>
<path style=" stroke:none;fill-rule:nonzero;fill:rgb(86.829938%,86.590372%,86.649882%);fill-opacity:1;" d="M 14.402344 6.625 L 14.402344 32.75 L 14.527344 32.75 L 14.527344 6.625 L 14.402344 6.625 Z M 14.402344 6.625 "/>
<path style=" stroke:none;fill-rule:nonzero;fill:rgb(86.443885%,86.198215%,86.259251%);fill-opacity:1;" d="M 14.527344 6.625 L 14.527344 32.75 L 14.652344 32.75 L 14.652344 6.625 L 14.527344 6.625 Z M 14.527344 6.625 "/>
<path style=" stroke:none;fill-rule:nonzero;fill:rgb(86.060883%,85.806058%,85.870146%);fill-opacity:1;" d="M 14.652344 6.625 L 14.652344 32.75 L 14.777344 32.75 L 14.777344 6.625 L 14.652344 6.625 Z M 14.652344 6.625 "/>
<path style=" stroke:none;fill-rule:nonzero;fill:rgb(85.67483%,85.413901%,85.477989%);fill-opacity:1;" d="M 14.777344 6.625 L 14.777344 32.75 L 14.902344 32.75 L 14.902344 6.625 L 14.777344 6.625 Z M 14.777344 6.625 "/>
<path style=" stroke:none;fill-rule:nonzero;fill:rgb(85.290303%,85.021744%,85.088884%);fill-opacity:1;" d="M 14.902344 6.625 L 14.902344 32.75 L 15.03125 32.75 L 15.03125 6.625 L 14.902344 6.625 Z M 14.902344 6.625 "/>
<path style=" stroke:none;fill-rule:nonzero;fill:rgb(84.90425%,84.629587%,84.698253%);fill-opacity:1;" d="M 15.03125 6.625 L 15.03125 32.75 L 15.15625 32.75 L 15.15625 6.625 L 15.03125 6.625 Z M 15.03125 6.625 "/>
<path style=" stroke:none;fill-rule:nonzero;fill:rgb(84.519722%,84.238956%,84.307622%);fill-opacity:1;" d="M 15.15625 6.625 L 15.15625 32.75 L 15.28125 32.75 L 15.28125 6.625 L 15.15625 6.625 Z M 15.15625 6.625 "/>
<path style=" stroke:none;fill-rule:nonzero;fill:rgb(84.133669%,83.845274%,83.916991%);fill-opacity:1;" d="M 15.28125 6.625 L 15.28125 32.75 L 15.40625 32.75 L 15.40625 6.625 L 15.28125 6.625 Z M 15.28125 6.625 "/>
<path style=" stroke:none;fill-rule:nonzero;fill:rgb(83.749142%,83.454643%,83.527886%);fill-opacity:1;" d="M 15.40625 6.625 L 15.40625 32.75 L 15.53125 32.75 L 15.53125 6.625 L 15.40625 6.625 Z M 15.40625 6.625 "/>
<path style=" stroke:none;fill-rule:nonzero;fill:rgb(83.364614%,83.06096%,83.137255%);fill-opacity:1;" d="M 15.53125 6.625 L 15.53125 32.75 L 15.660156 32.75 L 15.660156 6.625 L 15.53125 6.625 Z M 15.53125 6.625 "/>
<path style=" stroke:none;fill-rule:nonzero;fill:rgb(82.978561%,82.668803%,82.745098%);fill-opacity:1;" d="M 15.660156 6.625 L 15.660156 32.75 L 15.785156 32.75 L 15.785156 6.625 L 15.660156 6.625 Z M 15.660156 6.625 "/>
<path style=" stroke:none;fill-rule:nonzero;fill:rgb(82.592508%,82.276646%,82.354467%);fill-opacity:1;" d="M 15.785156 6.625 L 15.785156 32.75 L 15.910156 32.75 L 15.910156 6.625 L 15.785156 6.625 Z M 15.785156 6.625 "/>
<path style=" stroke:none;fill-rule:nonzero;fill:rgb(82.20798%,81.884489%,81.965362%);fill-opacity:1;" d="M 15.910156 6.625 L 15.910156 32.75 L 16.035156 32.75 L 16.035156 6.625 L 15.910156 6.625 Z M 15.910156 6.625 "/>
<path style=" stroke:none;fill-rule:nonzero;fill:rgb(81.821927%,81.492332%,81.574731%);fill-opacity:1;" d="M 16.035156 6.625 L 16.035156 32.75 L 16.160156 32.75 L 16.160156 6.625 L 16.035156 6.625 Z M 16.035156 6.625 "/>
<path style=" stroke:none;fill-rule:nonzero;fill:rgb(81.438926%,81.100175%,81.1841%);fill-opacity:1;" d="M 16.160156 6.625 L 16.160156 32.75 L 16.289062 32.75 L 16.289062 6.625 L 16.160156 6.625 Z M 16.160156 6.625 "/>
<path style=" stroke:none;fill-rule:nonzero;fill:rgb(81.052873%,80.708019%,80.793469%);fill-opacity:1;" d="M 16.289062 6.625 L 16.289062 32.75 L 16.414062 32.75 L 16.414062 6.625 L 16.289062 6.625 Z M 16.289062 6.625 "/>
<path style=" stroke:none;fill-rule:nonzero;fill:rgb(80.668345%,80.315862%,80.404364%);fill-opacity:1;" d="M 16.414062 6.625 L 16.414062 32.75 L 16.539062 32.75 L 16.539062 6.625 L 16.414062 6.625 Z M 16.414062 6.625 "/>
<path style=" stroke:none;fill-rule:nonzero;fill:rgb(80.282292%,79.923705%,80.012207%);fill-opacity:1;" d="M 16.539062 6.625 L 16.539062 32.75 L 16.664062 32.75 L 16.664062 6.625 L 16.539062 6.625 Z M 16.539062 6.625 "/>
<path style=" stroke:none;fill-rule:nonzero;fill:rgb(79.897765%,79.531548%,79.623102%);fill-opacity:1;" d="M 16.664062 6.625 L 16.664062 32.75 L 16.789062 32.75 L 16.789062 6.625 L 16.664062 6.625 Z M 16.664062 6.625 "/>
<path style=" stroke:none;fill-rule:nonzero;fill:rgb(79.511711%,79.139391%,79.232471%);fill-opacity:1;" d="M 16.789062 6.625 L 16.789062 32.75 L 16.914062 32.75 L 16.914062 6.625 L 16.789062 6.625 Z M 16.789062 6.625 "/>
<path style=" stroke:none;fill-rule:nonzero;fill:rgb(79.12871%,78.74876%,78.84184%);fill-opacity:1;" d="M 16.914062 6.625 L 16.914062 32.75 L 17.042969 32.75 L 17.042969 6.625 L 16.914062 6.625 Z M 16.914062 6.625 "/>
<path style=" stroke:none;fill-rule:nonzero;fill:rgb(78.742657%,78.355077%,78.451209%);fill-opacity:1;" d="M 17.042969 6.625 L 17.042969 32.75 L 17.167969 32.75 L 17.167969 6.625 L 17.042969 6.625 Z M 17.042969 6.625 "/>
<path style=" stroke:none;fill-rule:nonzero;fill:rgb(78.358129%,77.964446%,78.062104%);fill-opacity:1;" d="M 17.167969 6.625 L 17.167969 32.75 L 17.292969 32.75 L 17.292969 6.625 L 17.167969 6.625 Z M 17.167969 6.625 "/>
<path style=" stroke:none;fill-rule:nonzero;fill:rgb(77.972076%,77.570764%,77.671473%);fill-opacity:1;" d="M 17.292969 6.625 L 17.292969 32.75 L 17.417969 32.75 L 17.417969 6.625 L 17.292969 6.625 Z M 17.292969 6.625 "/>
<path style=" stroke:none;fill-rule:nonzero;fill:rgb(77.586023%,77.178607%,77.279316%);fill-opacity:1;" d="M 17.417969 6.625 L 17.417969 32.75 L 17.542969 32.75 L 17.542969 6.625 L 17.417969 6.625 Z M 17.417969 6.625 "/>
<path style=" stroke:none;fill-rule:nonzero;fill:rgb(77.201495%,76.78645%,76.888685%);fill-opacity:1;" d="M 17.542969 6.625 L 17.542969 32.75 L 17.671875 32.75 L 17.671875 6.625 L 17.542969 6.625 Z M 17.542969 6.625 "/>
<path style=" stroke:none;fill-rule:nonzero;fill:rgb(76.816968%,76.394293%,76.49958%);fill-opacity:1;" d="M 17.671875 6.625 L 17.671875 32.75 L 17.796875 32.75 L 17.796875 6.625 L 17.671875 6.625 Z M 17.671875 6.625 "/>
<path style=" stroke:none;fill-rule:nonzero;fill:rgb(76.430915%,76.002136%,76.108949%);fill-opacity:1;" d="M 17.796875 6.625 L 17.796875 32.75 L 17.921875 32.75 L 17.921875 6.625 L 17.796875 6.625 Z M 17.796875 6.625 "/>
<path style=" stroke:none;fill-rule:nonzero;fill:rgb(76.046387%,75.609979%,75.718318%);fill-opacity:1;" d="M 17.921875 6.625 L 17.921875 32.75 L 18.046875 32.75 L 18.046875 6.625 L 17.921875 6.625 Z M 17.921875 6.625 "/>
<path style=" stroke:none;fill-rule:nonzero;fill:rgb(75.660334%,75.217823%,75.327687%);fill-opacity:1;" d="M 18.046875 6.625 L 18.046875 32.75 L 18.171875 32.75 L 18.171875 6.625 L 18.046875 6.625 Z M 18.046875 6.625 "/>
<path style=" stroke:none;fill-rule:nonzero;fill:rgb(75.275807%,74.825666%,74.938582%);fill-opacity:1;" d="M 18.171875 6.625 L 18.171875 32.75 L 18.300781 32.75 L 18.300781 6.625 L 18.171875 6.625 Z M 18.171875 6.625 "/>
<path style=" stroke:none;fill-rule:nonzero;fill:rgb(74.889754%,74.433509%,74.546426%);fill-opacity:1;" d="M 18.300781 6.625 L 18.300781 32.75 L 18.425781 32.75 L 18.425781 6.625 L 18.300781 6.625 Z M 18.300781 6.625 "/>
<path style=" stroke:none;fill-rule:nonzero;fill:rgb(74.506752%,74.042878%,74.157321%);fill-opacity:1;" d="M 18.425781 6.625 L 18.425781 32.75 L 18.550781 32.75 L 18.550781 6.625 L 18.425781 6.625 Z M 18.425781 6.625 "/>
<path style=" stroke:none;fill-rule:nonzero;fill:rgb(74.120699%,73.649195%,73.76669%);fill-opacity:1;" d="M 18.550781 6.625 L 18.550781 32.75 L 18.675781 32.75 L 18.675781 6.625 L 18.550781 6.625 Z M 18.550781 6.625 "/>
<path style=" stroke:none;fill-rule:nonzero;fill:rgb(73.736172%,73.258564%,73.376059%);fill-opacity:1;" d="M 18.675781 6.625 L 18.675781 32.75 L 18.800781 32.75 L 18.800781 6.625 L 18.675781 6.625 Z M 18.675781 6.625 "/>
<path style=" stroke:none;fill-rule:nonzero;fill:rgb(73.350118%,72.864881%,72.985428%);fill-opacity:1;" d="M 18.800781 6.625 L 18.800781 32.75 L 18.925781 32.75 L 18.925781 6.625 L 18.800781 6.625 Z M 18.800781 6.625 "/>
<path style=" stroke:none;fill-rule:nonzero;fill:rgb(72.964065%,72.472724%,72.594797%);fill-opacity:1;" d="M 18.925781 6.625 L 18.925781 32.75 L 19.054688 32.75 L 19.054688 6.625 L 18.925781 6.625 Z M 18.925781 6.625 "/>
<path style=" stroke:none;fill-rule:nonzero;fill:rgb(72.579538%,72.080568%,72.204166%);fill-opacity:1;" d="M 19.054688 6.625 L 19.054688 32.75 L 19.179688 32.75 L 19.179688 6.625 L 19.054688 6.625 Z M 19.054688 6.625 "/>
<path style=" stroke:none;fill-rule:nonzero;fill:rgb(72.19501%,71.688411%,71.813535%);fill-opacity:1;" d="M 19.179688 6.625 L 19.179688 32.75 L 19.304688 32.75 L 19.304688 6.625 L 19.179688 6.625 Z M 19.179688 6.625 "/>
<path style=" stroke:none;fill-rule:nonzero;fill:rgb(71.808957%,71.296254%,71.422904%);fill-opacity:1;" d="M 19.304688 6.625 L 19.304688 32.75 L 19.429688 32.75 L 19.429688 6.625 L 19.304688 6.625 Z M 19.304688 6.625 "/>
<path style=" stroke:none;fill-rule:nonzero;fill:rgb(71.42443%,70.904097%,71.033799%);fill-opacity:1;" d="M 19.429688 6.625 L 19.429688 32.75 L 19.554688 32.75 L 19.554688 6.625 L 19.429688 6.625 Z M 19.429688 6.625 "/>
<path style=" stroke:none;fill-rule:nonzero;fill:rgb(71.038376%,70.51194%,70.643168%);fill-opacity:1;" d="M 19.554688 6.625 L 19.554688 32.75 L 19.683594 32.75 L 19.683594 6.625 L 19.554688 6.625 Z M 19.554688 6.625 "/>
<path style=" stroke:none;fill-rule:nonzero;fill:rgb(70.653849%,70.119783%,70.252537%);fill-opacity:1;" d="M 19.683594 6.625 L 19.683594 32.75 L 19.808594 32.75 L 19.808594 6.625 L 19.683594 6.625 Z M 19.683594 6.625 "/>
<path style=" stroke:none;fill-rule:nonzero;fill:rgb(70.269322%,69.727626%,69.861906%);fill-opacity:1;" d="M 19.808594 6.625 L 19.808594 32.75 L 19.933594 32.75 L 19.933594 6.625 L 19.808594 6.625 Z M 19.808594 6.625 "/>
<path style=" stroke:none;fill-rule:nonzero;fill:rgb(69.884794%,69.33547%,69.472801%);fill-opacity:1;" d="M 19.933594 6.625 L 19.933594 32.75 L 20.058594 32.75 L 20.058594 6.625 L 19.933594 6.625 Z M 19.933594 6.625 "/>
<path style=" stroke:none;fill-rule:nonzero;fill:rgb(69.498741%,68.943313%,69.080644%);fill-opacity:1;" d="M 20.058594 6.625 L 20.058594 32.75 L 20.183594 32.75 L 20.183594 6.625 L 20.058594 6.625 Z M 20.058594 6.625 "/>
<path style=" stroke:none;fill-rule:nonzero;fill:rgb(69.114214%,68.552682%,68.691539%);fill-opacity:1;" d="M 20.183594 6.625 L 20.183594 32.75 L 20.3125 32.75 L 20.3125 6.625 L 20.183594 6.625 Z M 20.183594 6.625 "/>
<path style=" stroke:none;fill-rule:nonzero;fill:rgb(68.728161%,68.158999%,68.300908%);fill-opacity:1;" d="M 20.3125 6.625 L 20.3125 32.75 L 20.4375 32.75 L 20.4375 6.625 L 20.3125 6.625 Z M 20.3125 6.625 "/>
<path style=" stroke:none;fill-rule:nonzero;fill:rgb(68.343633%,67.768368%,67.911803%);fill-opacity:1;" d="M 20.4375 6.625 L 20.4375 32.75 L 20.5625 32.75 L 20.5625 6.625 L 20.4375 6.625 Z M 20.4375 6.625 "/>
<path style=" stroke:none;fill-rule:nonzero;fill:rgb(67.959106%,67.374685%,67.519646%);fill-opacity:1;" d="M 20.5625 6.625 L 20.5625 32.75 L 20.6875 32.75 L 20.6875 6.625 L 20.5625 6.625 Z M 20.5625 6.625 "/>
<path style=" stroke:none;fill-rule:nonzero;fill:rgb(67.573053%,66.982528%,67.129015%);fill-opacity:1;" d="M 20.6875 6.625 L 20.6875 32.75 L 20.8125 32.75 L 20.8125 6.625 L 20.6875 6.625 Z M 20.6875 6.625 "/>
<path style=" stroke:none;fill-rule:nonzero;fill:rgb(67.186999%,66.590372%,66.738384%);fill-opacity:1;" d="M 20.8125 6.625 L 20.8125 32.75 L 20.9375 32.75 L 20.9375 6.625 L 20.8125 6.625 Z M 20.8125 6.625 "/>
<path style=" stroke:none;fill-rule:nonzero;fill:rgb(66.802472%,66.198215%,66.347753%);fill-opacity:1;" d="M 20.9375 6.625 L 20.9375 32.75 L 21.066406 32.75 L 21.066406 6.625 L 20.9375 6.625 Z M 20.9375 6.625 "/>
<path style=" stroke:none;fill-rule:nonzero;fill:rgb(66.416419%,65.806058%,65.957122%);fill-opacity:1;" d="M 21.066406 6.625 L 21.066406 32.75 L 21.191406 32.75 L 21.191406 6.625 L 21.066406 6.625 Z M 21.066406 6.625 "/>
<path style=" stroke:none;fill-rule:nonzero;fill:rgb(66.031891%,65.413901%,65.568017%);fill-opacity:1;" d="M 21.191406 6.625 L 21.191406 32.75 L 21.316406 32.75 L 21.316406 6.625 L 21.191406 6.625 Z M 21.191406 6.625 "/>
<path style=" stroke:none;fill-rule:nonzero;fill:rgb(65.647364%,65.021744%,65.177386%);fill-opacity:1;" d="M 21.316406 6.625 L 21.316406 32.75 L 21.441406 32.75 L 21.441406 6.625 L 21.316406 6.625 Z M 21.316406 6.625 "/>
<path style=" stroke:none;fill-rule:nonzero;fill:rgb(65.262837%,64.629587%,64.786755%);fill-opacity:1;" d="M 21.441406 6.625 L 21.441406 32.75 L 21.566406 32.75 L 21.566406 6.625 L 21.441406 6.625 Z M 21.441406 6.625 "/>
<path style=" stroke:none;fill-rule:nonzero;fill:rgb(64.876783%,64.23743%,64.396124%);fill-opacity:1;" d="M 21.566406 6.625 L 21.566406 32.75 L 21.695312 32.75 L 21.695312 6.625 L 21.566406 6.625 Z M 21.566406 6.625 "/>
<path style=" stroke:none;fill-rule:nonzero;fill:rgb(64.492256%,63.846799%,64.007019%);fill-opacity:1;" d="M 21.695312 6.625 L 21.695312 32.75 L 21.820312 32.75 L 21.820312 6.625 L 21.695312 6.625 Z M 21.695312 6.625 "/>
<path style=" stroke:none;fill-rule:nonzero;fill:rgb(64.106203%,63.453117%,63.616388%);fill-opacity:1;" d="M 21.820312 6.625 L 21.820312 32.75 L 21.945312 32.75 L 21.945312 6.625 L 21.820312 6.625 Z M 21.820312 6.625 "/>
<path style=" stroke:none;fill-rule:nonzero;fill:rgb(63.721675%,63.062486%,63.225757%);fill-opacity:1;" d="M 21.945312 6.625 L 21.945312 32.75 L 22.070312 32.75 L 22.070312 6.625 L 21.945312 6.625 Z M 21.945312 6.625 "/>
<path style=" stroke:none;fill-rule:nonzero;fill:rgb(63.337148%,62.668803%,62.835126%);fill-opacity:1;" d="M 22.070312 6.625 L 22.070312 32.75 L 22.195312 32.75 L 22.195312 6.625 L 22.070312 6.625 Z M 22.070312 6.625 "/>
<path style=" stroke:none;fill-rule:nonzero;fill:rgb(62.951095%,62.276646%,62.444495%);fill-opacity:1;" d="M 22.195312 6.625 L 22.195312 32.75 L 22.324219 32.75 L 22.324219 6.625 L 22.195312 6.625 Z M 22.195312 6.625 "/>
<path style=" stroke:none;fill-rule:nonzero;fill:rgb(62.565042%,61.884489%,62.052338%);fill-opacity:1;" d="M 22.324219 6.625 L 22.324219 32.75 L 22.449219 32.75 L 22.449219 6.625 L 22.324219 6.625 Z M 22.324219 6.625 "/>
<path style=" stroke:none;fill-rule:nonzero;fill:rgb(62.180514%,61.492332%,61.663233%);fill-opacity:1;" d="M 22.449219 6.625 L 22.449219 32.75 L 22.574219 32.75 L 22.574219 6.625 L 22.449219 6.625 Z M 22.449219 6.625 "/>
<path style=" stroke:none;fill-rule:nonzero;fill:rgb(61.794461%,61.100175%,61.272602%);fill-opacity:1;" d="M 22.574219 6.625 L 22.574219 32.75 L 22.699219 32.75 L 22.699219 6.625 L 22.574219 6.625 Z M 22.574219 6.625 "/>
<path style=" stroke:none;fill-rule:nonzero;fill:rgb(61.409934%,60.708019%,60.883497%);fill-opacity:1;" d="M 22.699219 6.625 L 22.699219 32.75 L 22.824219 32.75 L 22.824219 6.625 L 22.699219 6.625 Z M 22.699219 6.625 "/>
<path style=" stroke:none;fill-rule:nonzero;fill:rgb(61.025406%,60.315862%,60.491341%);fill-opacity:1;" d="M 22.824219 6.625 L 22.824219 32.75 L 22.949219 32.75 L 22.949219 6.625 L 22.824219 6.625 Z M 22.824219 6.625 "/>
<path style=" stroke:none;fill-rule:nonzero;fill:rgb(60.640879%,59.923705%,60.102235%);fill-opacity:1;" d="M 22.949219 6.625 L 22.949219 32.75 L 23.078125 32.75 L 23.078125 6.625 L 22.949219 6.625 Z M 22.949219 6.625 "/>
<path style=" stroke:none;fill-rule:nonzero;fill:rgb(60.254826%,59.531548%,59.711604%);fill-opacity:1;" d="M 23.078125 6.625 L 23.078125 32.75 L 23.203125 32.75 L 23.203125 6.625 L 23.078125 6.625 Z M 23.078125 6.625 "/>
<path style=" stroke:none;fill-rule:nonzero;fill:rgb(59.870298%,59.139391%,59.320974%);fill-opacity:1;" d="M 23.203125 6.625 L 23.203125 32.75 L 23.328125 32.75 L 23.328125 6.625 L 23.203125 6.625 Z M 23.203125 6.625 "/>
<path style=" stroke:none;fill-rule:nonzero;fill:rgb(59.484245%,58.747234%,58.930343%);fill-opacity:1;" d="M 23.328125 6.625 L 23.328125 32.75 L 23.453125 32.75 L 23.453125 6.625 L 23.328125 6.625 Z M 23.328125 6.625 "/>
<path style=" stroke:none;fill-rule:nonzero;fill:rgb(59.099718%,58.356603%,58.541238%);fill-opacity:1;" d="M 23.453125 6.625 L 23.453125 32.75 L 23.578125 32.75 L 23.578125 6.625 L 23.453125 6.625 Z M 23.453125 6.625 "/>
<path style=" stroke:none;fill-rule:nonzero;fill:rgb(58.71519%,57.962921%,58.150607%);fill-opacity:1;" d="M 23.578125 6.625 L 23.578125 32.75 L 23.707031 32.75 L 23.707031 6.625 L 23.578125 6.625 Z M 23.578125 6.625 "/>
<path style=" stroke:none;fill-rule:nonzero;fill:rgb(58.330663%,57.57229%,57.759976%);fill-opacity:1;" d="M 23.707031 6.625 L 23.707031 32.75 L 23.832031 32.75 L 23.832031 6.625 L 23.707031 6.625 Z M 23.707031 6.625 "/>
<path style=" stroke:none;fill-rule:nonzero;fill:rgb(57.94461%,57.178607%,57.369345%);fill-opacity:1;" d="M 23.832031 6.625 L 23.832031 32.75 L 23.957031 32.75 L 23.957031 6.625 L 23.832031 6.625 Z M 23.832031 6.625 "/>
<path style=" stroke:none;fill-rule:nonzero;fill:rgb(57.558556%,56.78645%,56.978714%);fill-opacity:1;" d="M 23.957031 6.625 L 23.957031 32.75 L 24.082031 32.75 L 24.082031 6.625 L 23.957031 6.625 Z M 23.957031 6.625 "/>
<path style=" stroke:none;fill-rule:nonzero;fill:rgb(57.172503%,56.394293%,56.588083%);fill-opacity:1;" d="M 24.082031 6.625 L 24.082031 32.75 L 24.207031 32.75 L 24.207031 6.625 L 24.082031 6.625 Z M 24.082031 6.625 "/>
<path style=" stroke:none;fill-rule:nonzero;fill:rgb(56.789502%,56.002136%,56.197452%);fill-opacity:1;" d="M 24.207031 6.625 L 24.207031 32.75 L 24.335938 32.75 L 24.335938 6.625 L 24.207031 6.625 Z M 24.207031 6.625 "/>
<path style=" stroke:none;fill-rule:nonzero;fill:rgb(56.403449%,55.609979%,55.806821%);fill-opacity:1;" d="M 24.335938 6.625 L 24.335938 32.75 L 24.460938 32.75 L 24.460938 6.625 L 24.335938 6.625 Z M 24.335938 6.625 "/>
<path style=" stroke:none;fill-rule:nonzero;fill:rgb(56.018921%,55.217823%,55.417716%);fill-opacity:1;" d="M 24.460938 6.625 L 24.460938 32.75 L 24.585938 32.75 L 24.585938 6.625 L 24.460938 6.625 Z M 24.460938 6.625 "/>
<path style=" stroke:none;fill-rule:nonzero;fill:rgb(55.632868%,54.825666%,55.025559%);fill-opacity:1;" d="M 24.585938 6.625 L 24.585938 32.75 L 24.710938 32.75 L 24.710938 6.625 L 24.585938 6.625 Z M 24.585938 6.625 "/>
<path style=" stroke:none;fill-rule:nonzero;fill:rgb(55.248341%,54.433509%,54.636454%);fill-opacity:1;" d="M 24.710938 6.625 L 24.710938 32.75 L 24.835938 32.75 L 24.835938 6.625 L 24.710938 6.625 Z M 24.710938 6.625 "/>
<path style=" stroke:none;fill-rule:nonzero;fill:rgb(54.862287%,54.041352%,54.245823%);fill-opacity:1;" d="M 24.835938 6.625 L 24.835938 32.75 L 24.960938 32.75 L 24.960938 6.625 L 24.835938 6.625 Z M 24.835938 6.625 "/>
<path style=" stroke:none;fill-rule:nonzero;fill:rgb(54.47776%,53.650721%,53.855192%);fill-opacity:1;" d="M 24.960938 6.625 L 24.960938 32.75 L 25.089844 32.75 L 25.089844 6.625 L 24.960938 6.625 Z M 24.960938 6.625 "/>
<path style=" stroke:none;fill-rule:nonzero;fill:rgb(54.093233%,53.257038%,53.464561%);fill-opacity:1;" d="M 25.089844 6.625 L 25.089844 32.75 L 25.214844 32.75 L 25.214844 6.625 L 25.089844 6.625 Z M 25.089844 6.625 "/>
<path style=" stroke:none;fill-rule:nonzero;fill:rgb(53.708705%,52.866407%,53.075456%);fill-opacity:1;" d="M 25.214844 6.625 L 25.214844 32.75 L 25.339844 32.75 L 25.339844 6.625 L 25.214844 6.625 Z M 25.214844 6.625 "/>
<path style=" stroke:none;fill-rule:nonzero;fill:rgb(53.322652%,52.472724%,52.684825%);fill-opacity:1;" d="M 25.339844 6.625 L 25.339844 32.75 L 25.464844 32.75 L 25.464844 6.625 L 25.339844 6.625 Z M 25.339844 6.625 "/>
<path style=" stroke:none;fill-rule:nonzero;fill:rgb(52.936599%,52.080568%,52.292668%);fill-opacity:1;" d="M 25.464844 6.625 L 25.464844 32.75 L 25.589844 32.75 L 25.589844 6.625 L 25.464844 6.625 Z M 25.464844 6.625 "/>
<path style=" stroke:none;fill-rule:nonzero;fill:rgb(52.550546%,51.688411%,51.902037%);fill-opacity:1;" d="M 25.589844 6.625 L 25.589844 32.75 L 25.71875 32.75 L 25.71875 6.625 L 25.589844 6.625 Z M 25.589844 6.625 "/>
<path style=" stroke:none;fill-rule:nonzero;fill:rgb(52.167544%,51.296254%,51.512932%);fill-opacity:1;" d="M 25.71875 6.625 L 25.71875 32.75 L 25.84375 32.75 L 25.84375 6.625 L 25.71875 6.625 Z M 25.71875 6.625 "/>
<path style=" stroke:none;fill-rule:nonzero;fill:rgb(51.781491%,50.904097%,51.122301%);fill-opacity:1;" d="M 25.84375 6.625 L 25.84375 32.75 L 25.96875 32.75 L 25.96875 6.625 L 25.84375 6.625 Z M 25.84375 6.625 "/>
<path style=" stroke:none;fill-rule:nonzero;fill:rgb(51.396963%,50.51194%,50.73167%);fill-opacity:1;" d="M 25.96875 6.625 L 25.96875 32.75 L 26.09375 32.75 L 26.09375 6.625 L 25.96875 6.625 Z M 25.96875 6.625 "/>
<path style=" stroke:none;fill-rule:nonzero;fill:rgb(51.01091%,50.119783%,50.341039%);fill-opacity:1;" d="M 26.09375 6.625 L 26.09375 32.75 L 26.21875 32.75 L 26.21875 6.625 L 26.09375 6.625 Z M 26.09375 6.625 "/>
<path style=" stroke:none;fill-rule:nonzero;fill:rgb(50.626383%,49.727626%,49.951934%);fill-opacity:1;" d="M 26.21875 6.625 L 26.21875 32.75 L 26.347656 32.75 L 26.347656 6.625 L 26.21875 6.625 Z M 26.21875 6.625 "/>
<path style=" stroke:none;fill-rule:nonzero;fill:rgb(50.24033%,49.33547%,49.559777%);fill-opacity:1;" d="M 26.347656 6.625 L 26.347656 32.75 L 26.472656 32.75 L 26.472656 6.625 L 26.347656 6.625 Z M 26.347656 6.625 "/>
<path style=" stroke:none;fill-rule:nonzero;fill:rgb(49.857328%,48.943313%,49.170672%);fill-opacity:1;" d="M 26.472656 6.625 L 26.472656 32.75 L 26.597656 32.75 L 26.597656 6.625 L 26.472656 6.625 Z M 26.472656 6.625 "/>
<path style=" stroke:none;fill-rule:nonzero;fill:rgb(49.471275%,48.551156%,48.780041%);fill-opacity:1;" d="M 26.597656 6.625 L 26.597656 32.75 L 26.722656 32.75 L 26.722656 6.625 L 26.597656 6.625 Z M 26.597656 6.625 "/>
<path style=" stroke:none;fill-rule:nonzero;fill:rgb(49.086748%,48.160525%,48.38941%);fill-opacity:1;" d="M 26.722656 6.625 L 26.722656 32.75 L 26.847656 32.75 L 26.847656 6.625 L 26.722656 6.625 Z M 26.722656 6.625 "/>
<path style=" stroke:none;fill-rule:nonzero;fill:rgb(48.700694%,47.766842%,47.998779%);fill-opacity:1;" d="M 26.847656 6.625 L 26.847656 32.75 L 26.972656 32.75 L 26.972656 6.625 L 26.847656 6.625 Z M 26.847656 6.625 "/>
<path style=" stroke:none;fill-rule:nonzero;fill:rgb(48.316167%,47.376211%,47.609674%);fill-opacity:1;" d="M 26.972656 6.625 L 26.972656 32.75 L 27.101562 32.75 L 27.101562 6.625 L 26.972656 6.625 Z M 26.972656 6.625 "/>
<path style=" stroke:none;fill-rule:nonzero;fill:rgb(47.930114%,46.982528%,47.219043%);fill-opacity:1;" d="M 27.101562 6.625 L 27.101562 32.75 L 27.226562 32.75 L 27.226562 6.625 L 27.101562 6.625 Z M 27.101562 6.625 "/>
<path style=" stroke:none;fill-rule:nonzero;fill:rgb(47.545586%,46.590372%,46.826886%);fill-opacity:1;" d="M 27.226562 6.625 L 27.226562 32.75 L 27.351562 32.75 L 27.351562 6.625 L 27.226562 6.625 Z M 27.226562 6.625 "/>
<path style=" stroke:none;fill-rule:nonzero;fill:rgb(47.159533%,46.198215%,46.436255%);fill-opacity:1;" d="M 27.351562 6.625 L 27.351562 32.75 L 27.476562 32.75 L 27.476562 6.625 L 27.351562 6.625 Z M 27.351562 6.625 "/>
<path style=" stroke:none;fill-rule:nonzero;fill:rgb(46.775006%,45.806058%,46.04715%);fill-opacity:1;" d="M 27.476562 6.625 L 27.476562 32.75 L 27.601562 32.75 L 27.601562 6.625 L 27.476562 6.625 Z M 27.476562 6.625 "/>
<path style=" stroke:none;fill-rule:nonzero;fill:rgb(46.388952%,45.413901%,45.656519%);fill-opacity:1;" d="M 27.601562 6.625 L 27.601562 32.75 L 27.730469 32.75 L 27.730469 6.625 L 27.601562 6.625 Z M 27.601562 6.625 "/>
<path style=" stroke:none;fill-rule:nonzero;fill:rgb(46.004425%,45.021744%,45.265888%);fill-opacity:1;" d="M 27.730469 6.625 L 27.730469 32.75 L 27.855469 32.75 L 27.855469 6.625 L 27.730469 6.625 Z M 27.730469 6.625 "/>
<path style=" stroke:none;fill-rule:nonzero;fill:rgb(45.619898%,44.629587%,44.875257%);fill-opacity:1;" d="M 27.855469 6.625 L 27.855469 32.75 L 27.980469 32.75 L 27.980469 6.625 L 27.855469 6.625 Z M 27.855469 6.625 "/>
<path style=" stroke:none;fill-rule:nonzero;fill:rgb(45.23537%,44.23743%,44.486152%);fill-opacity:1;" d="M 27.980469 6.625 L 27.980469 32.75 L 28.105469 32.75 L 28.105469 6.625 L 27.980469 6.625 Z M 27.980469 6.625 "/>
<path style=" stroke:none;fill-rule:nonzero;fill:rgb(44.849317%,43.845274%,44.093996%);fill-opacity:1;" d="M 28.105469 6.625 L 28.105469 32.75 L 28.230469 32.75 L 28.230469 6.625 L 28.105469 6.625 Z M 28.105469 6.625 "/>
<path style=" stroke:none;fill-rule:nonzero;fill:rgb(44.46479%,43.454643%,43.704891%);fill-opacity:1;" d="M 28.230469 6.625 L 28.230469 32.75 L 28.359375 32.75 L 28.359375 6.625 L 28.230469 6.625 Z M 28.230469 6.625 "/>
<path style=" stroke:none;fill-rule:nonzero;fill:rgb(44.078737%,43.06096%,43.31426%);fill-opacity:1;" d="M 28.359375 6.625 L 28.359375 32.75 L 28.484375 32.75 L 28.484375 6.625 L 28.359375 6.625 Z M 28.359375 6.625 "/>
<path style=" stroke:none;fill-rule:nonzero;fill:rgb(43.694209%,42.670329%,42.925154%);fill-opacity:1;" d="M 28.484375 6.625 L 28.484375 32.75 L 28.609375 32.75 L 28.609375 6.625 L 28.484375 6.625 Z M 28.484375 6.625 "/>
<path style=" stroke:none;fill-rule:nonzero;fill:rgb(43.308156%,42.276646%,42.532998%);fill-opacity:1;" d="M 28.609375 6.625 L 28.609375 32.75 L 28.734375 32.75 L 28.734375 6.625 L 28.609375 6.625 Z M 28.609375 6.625 "/>
<path style=" stroke:none;fill-rule:nonzero;fill:rgb(42.925154%,41.886015%,42.143893%);fill-opacity:1;" d="M 28.734375 6.625 L 28.734375 32.75 L 28.859375 32.75 L 28.859375 6.625 L 28.734375 6.625 Z M 28.734375 6.625 "/>
<path style=" stroke:none;fill-rule:nonzero;fill:rgb(42.539101%,41.492332%,41.753262%);fill-opacity:1;" d="M 28.859375 6.625 L 28.859375 32.75 L 28.984375 32.75 L 28.984375 6.625 L 28.859375 6.625 Z M 28.859375 6.625 "/>
<path style=" stroke:none;fill-rule:nonzero;fill:rgb(42.153048%,41.100175%,41.361105%);fill-opacity:1;" d="M 28.984375 6.625 L 28.984375 32.75 L 29.113281 32.75 L 29.113281 6.625 L 28.984375 6.625 Z M 28.984375 6.625 "/>
<path style=" stroke:none;fill-rule:nonzero;fill:rgb(41.766995%,40.708019%,40.970474%);fill-opacity:1;" d="M 29.113281 6.625 L 29.113281 32.75 L 29.238281 32.75 L 29.238281 6.625 L 29.113281 6.625 Z M 29.113281 6.625 "/>
<path style=" stroke:none;fill-rule:nonzero;fill:rgb(41.382467%,40.315862%,40.581369%);fill-opacity:1;" d="M 29.238281 6.625 L 29.238281 32.75 L 29.363281 32.75 L 29.363281 6.625 L 29.238281 6.625 Z M 29.238281 6.625 "/>
<path style=" stroke:none;fill-rule:nonzero;fill:rgb(40.99794%,39.923705%,40.190738%);fill-opacity:1;" d="M 29.363281 6.625 L 29.363281 32.75 L 29.488281 32.75 L 29.488281 6.625 L 29.363281 6.625 Z M 29.363281 6.625 "/>
<path style=" stroke:none;fill-rule:nonzero;fill:rgb(40.613413%,39.531548%,39.800107%);fill-opacity:1;" d="M 29.488281 6.625 L 29.488281 32.75 L 29.613281 32.75 L 29.613281 6.625 L 29.488281 6.625 Z M 29.488281 6.625 "/>
<path style=" stroke:none;fill-rule:nonzero;fill:rgb(40.227359%,39.139391%,39.409476%);fill-opacity:1;" d="M 29.613281 6.625 L 29.613281 32.75 L 29.742188 32.75 L 29.742188 6.625 L 29.613281 6.625 Z M 29.613281 6.625 "/>
<path style=" stroke:none;fill-rule:nonzero;fill:rgb(39.842832%,38.747234%,39.020371%);fill-opacity:1;" d="M 29.742188 6.625 L 29.742188 32.75 L 29.867188 32.75 L 29.867188 6.625 L 29.742188 6.625 Z M 29.742188 6.625 "/>
<path style=" stroke:none;fill-rule:nonzero;fill:rgb(39.456779%,38.355077%,38.628214%);fill-opacity:1;" d="M 29.867188 6.625 L 29.867188 32.75 L 29.992188 32.75 L 29.992188 6.625 L 29.867188 6.625 Z M 29.867188 6.625 "/>
<path style=" stroke:none;fill-rule:nonzero;fill:rgb(39.072251%,37.964446%,38.239109%);fill-opacity:1;" d="M 29.992188 6.625 L 29.992188 32.75 L 30.117188 32.75 L 30.117188 6.625 L 29.992188 6.625 Z M 29.992188 6.625 "/>
<path style=" stroke:none;fill-rule:nonzero;fill:rgb(38.687724%,37.570764%,37.848478%);fill-opacity:1;" d="M 30.117188 6.625 L 30.117188 32.75 L 30.242188 32.75 L 30.242188 6.625 L 30.117188 6.625 Z M 30.117188 6.625 "/>
<path style=" stroke:none;fill-rule:nonzero;fill:rgb(38.303197%,37.180133%,37.459373%);fill-opacity:1;" d="M 30.242188 6.625 L 30.242188 32.75 L 30.367188 32.75 L 30.367188 6.625 L 30.242188 6.625 Z M 30.242188 6.625 "/>
<path style=" stroke:none;fill-rule:nonzero;fill:rgb(37.917144%,36.78645%,37.067216%);fill-opacity:1;" d="M 30.367188 6.625 L 30.367188 32.75 L 30.496094 32.75 L 30.496094 6.625 L 30.367188 6.625 Z M 30.367188 6.625 "/>
<path style=" stroke:none;fill-rule:nonzero;fill:rgb(37.53109%,36.394293%,36.676585%);fill-opacity:1;" d="M 30.496094 6.625 L 30.496094 32.75 L 30.621094 32.75 L 30.621094 6.625 L 30.496094 6.625 Z M 30.496094 6.625 "/>
<path style=" stroke:none;fill-rule:nonzero;fill:rgb(37.145037%,36.002136%,36.285954%);fill-opacity:1;" d="M 30.621094 6.625 L 30.621094 32.75 L 30.746094 32.75 L 30.746094 6.625 L 30.621094 6.625 Z M 30.621094 6.625 "/>
<path style=" stroke:none;fill-rule:nonzero;fill:rgb(36.76051%,35.609979%,35.896849%);fill-opacity:1;" d="M 30.746094 6.625 L 30.746094 32.75 L 30.871094 32.75 L 30.871094 6.625 L 30.746094 6.625 Z M 30.746094 6.625 "/>
<path style=" stroke:none;fill-rule:nonzero;fill:rgb(36.375982%,35.217823%,35.504692%);fill-opacity:1;" d="M 30.871094 6.625 L 30.871094 32.75 L 30.996094 32.75 L 30.996094 6.625 L 30.871094 6.625 Z M 30.871094 6.625 "/>
<path style=" stroke:none;fill-rule:nonzero;fill:rgb(35.991455%,34.825666%,35.115587%);fill-opacity:1;" d="M 30.996094 6.625 L 30.996094 32.75 L 31.125 32.75 L 31.125 6.625 L 30.996094 6.625 Z M 30.996094 6.625 "/>
<path style=" stroke:none;fill-rule:nonzero;fill:rgb(35.605402%,34.433509%,34.724956%);fill-opacity:1;" d="M 31.125 6.625 L 31.125 32.75 L 31.25 32.75 L 31.25 6.625 L 31.125 6.625 Z M 31.125 6.625 "/>
<path style=" stroke:none;fill-rule:nonzero;fill:rgb(35.220874%,34.041352%,34.334325%);fill-opacity:1;" d="M 31.25 6.625 L 31.25 32.75 L 31.375 32.75 L 31.375 6.625 L 31.25 6.625 Z M 31.25 6.625 "/>
<path style=" stroke:none;fill-rule:nonzero;fill:rgb(34.834821%,33.649195%,33.943694%);fill-opacity:1;" d="M 31.375 6.625 L 31.375 32.75 L 31.5 32.75 L 31.5 6.625 L 31.375 6.625 Z M 31.375 6.625 "/>
<path style=" stroke:none;fill-rule:nonzero;fill:rgb(34.450294%,33.258564%,33.554589%);fill-opacity:1;" d="M 31.5 6.625 L 31.5 32.75 L 31.625 32.75 L 31.625 6.625 L 31.5 6.625 Z M 31.5 6.625 "/>
<path style=" stroke:none;fill-rule:nonzero;fill:rgb(34.065766%,32.864881%,33.163958%);fill-opacity:1;" d="M 31.625 6.625 L 31.625 32.75 L 31.753906 32.75 L 31.753906 6.625 L 31.625 6.625 Z M 31.625 6.625 "/>
<path style=" stroke:none;fill-rule:nonzero;fill:rgb(33.681239%,32.47425%,32.773327%);fill-opacity:1;" d="M 31.753906 6.625 L 31.753906 32.75 L 31.878906 32.75 L 31.878906 6.625 L 31.753906 6.625 Z M 31.753906 6.625 "/>
<path style=" stroke:none;fill-rule:nonzero;fill:rgb(33.295186%,32.080568%,32.382696%);fill-opacity:1;" d="M 31.878906 6.625 L 31.878906 32.75 L 32.003906 32.75 L 32.003906 6.625 L 31.878906 6.625 Z M 31.878906 6.625 "/>
<path style=" stroke:none;fill-rule:nonzero;fill:rgb(32.910658%,31.689937%,31.993591%);fill-opacity:1;" d="M 32.003906 6.625 L 32.003906 32.75 L 32.128906 32.75 L 32.128906 6.625 L 32.003906 6.625 Z M 32.003906 6.625 "/>
<path style=" stroke:none;fill-rule:nonzero;fill:rgb(32.524605%,31.296254%,31.601434%);fill-opacity:1;" d="M 32.128906 6.625 L 32.128906 32.75 L 32.253906 32.75 L 32.253906 6.625 L 32.128906 6.625 Z M 32.128906 6.625 "/>
<path style=" stroke:none;fill-rule:nonzero;fill:rgb(32.138552%,30.904097%,31.210803%);fill-opacity:1;" d="M 32.253906 6.625 L 32.253906 32.75 L 32.378906 32.75 L 32.378906 6.625 L 32.253906 6.625 Z M 32.253906 6.625 "/>
<path style=" stroke:none;fill-rule:nonzero;fill:rgb(31.754025%,30.51194%,30.820172%);fill-opacity:1;" d="M 32.378906 6.625 L 32.378906 32.75 L 32.507812 32.75 L 32.507812 6.625 L 32.378906 6.625 Z M 32.378906 6.625 "/>
<path style=" stroke:none;fill-rule:nonzero;fill:rgb(31.369497%,30.119783%,30.431067%);fill-opacity:1;" d="M 32.507812 6.625 L 32.507812 32.75 L 32.632812 32.75 L 32.632812 6.625 L 32.507812 6.625 Z M 32.507812 6.625 "/>
<path style=" stroke:none;fill-rule:nonzero;fill:rgb(30.98497%,29.729152%,30.040436%);fill-opacity:1;" d="M 32.632812 6.625 L 32.632812 32.75 L 32.757812 32.75 L 32.757812 6.625 L 32.632812 6.625 Z M 32.632812 6.625 "/>
</g>
<path style="fill:none;stroke-width:0.7;stroke-linecap:butt;stroke-linejoin:miter;stroke:rgb(0%,0%,0%);stroke-opacity:1;stroke-miterlimit:4;" d="M 7.496094 10.835938 L 26.308594 10.835938 M 8.261719 4.710938 L 25.648438 16.851562 M 25.320312 4.710938 L 7.933594 16.851562 " transform="matrix(1,0,0,-1,0,33)"/>
<path style="fill:none;stroke-width:0.7;stroke-linecap:butt;stroke-linejoin:miter;stroke:rgb(100%,100%,100%);stroke-opacity:1;stroke-miterlimit:4;" d="M 7.496094 11.289062 L 26.308594 11.289062 " transform="matrix(1,0,0,-1,0,33)"/>
<path style="fill:none;stroke-width:0.7;stroke-linecap:butt;stroke-linejoin:miter;stroke:rgb(0%,0%,0%);stroke-opacity:1;stroke-miterlimit:4;" d="M 17.035156 16.976562 L 17.035156 5.164062 " transform="matrix(1,0,0,-1,0,33)"/>
<path style="fill:none;stroke-width:0.7;stroke-linecap:butt;stroke-linejoin:miter;stroke:rgb(100%,100%,100%);stroke-opacity:1;stroke-miterlimit:4;" d="M 16.683594 16.976562 L 16.683594 5.164062 M 8.261719 5.164062 L 25.648438 17.304688 M 25.320312 5.164062 L 7.933594 17.304688 " transform="matrix(1,0,0,-1,0,33)"/>
<path style=" stroke:none;fill-rule:nonzero;fill:rgb(70.000763%,70.000763%,70.000763%);fill-opacity:1;" d="M 16.730469 12.808594 C 25.621094 12.808594 32.824219 10.007812 32.824219 6.550781 C 32.824219 3.09375 25.621094 0.292969 16.730469 0.292969 C 7.84375 0.292969 0.640625 3.09375 0.640625 6.550781 C 0.640625 10.007812 7.84375 12.808594 16.730469 12.808594 "/>
<path style=" stroke:none;fill-rule:nonzero;fill:rgb(100%,100%,100%);fill-opacity:1;" d="M 13.515625 3.929688 L 14.839844 5.921875 L 9.828125 7.078125 L 10.921875 6.164062 L 3.171875 4.84375 L 5.117188 3.382812 L 12.59375 4.652344 L 13.515625 3.929688 "/>
<g clip-path="url(#clip2)" clip-rule="nonzero">
<path style=" stroke:none;fill-rule:nonzero;fill:rgb(14.229038%,35.300221%,35.071336%);fill-opacity:1;" d="M 9.828125 7.683594 L 10.921875 6.769531 L 10.921875 6.160156 L 9.957031 6.523438 L 9.171875 7.246094 L 9.828125 7.683594 "/>
<path style=" stroke:none;fill-rule:nonzero;fill:rgb(0%,0%,0%);fill-opacity:1;" d="M 15.261719 6.042969 L 13.996094 3.929688 L 13.332031 3.75 L 12.550781 4.351562 L 5.132812 3.085938 L 2.78125 4.773438 L 3.171875 5.445312 L 5.117188 3.988281 L 12.59375 5.253906 L 13.515625 4.53125 L 14.839844 6.523438 L 15.261719 6.042969 "/>
</g>
<path style=" stroke:none;fill-rule:nonzero;fill:rgb(100%,100%,100%);fill-opacity:1;" d="M 20.570312 8.753906 L 19.664062 6.703125 L 24.1875 5.800781 L 23.402344 6.503906 L 30.941406 7.789062 L 29.132812 9.238281 L 21.640625 7.832031 L 20.570312 8.753906 "/>
<g clip-path="url(#clip3)" clip-rule="nonzero">
<path style=" stroke:none;fill-rule:nonzero;fill:rgb(0%,0%,0%);fill-opacity:1;" d="M 19.664062 7.429688 L 24.1875 6.523438 L 24.671875 5.738281 L 24.128906 5.378906 L 19.125 6.523438 L 19.664062 7.429688 "/>
<path style=" stroke:none;fill-rule:nonzero;fill:rgb(0%,0%,0%);fill-opacity:1;" d="M 31.304688 7.546875 L 24.308594 6.222656 L 23.402344 6.585938 L 23.402344 7.226562 L 30.941406 8.511719 L 31.304688 7.546875 "/>
</g>
<path style=" stroke:none;fill-rule:nonzero;fill:rgb(100%,100%,100%);fill-opacity:1;" d="M 18.097656 2.84375 L 23.164062 1.460938 L 23.222656 3.628906 L 21.957031 3.386719 L 19.484375 5.4375 L 17.125 5.097656 L 19.679688 3.089844 L 18.097656 2.84375 "/>
<g clip-path="url(#clip4)" clip-rule="nonzero">
<path style=" stroke:none;fill-rule:nonzero;fill:rgb(0%,0%,0%);fill-opacity:1;" d="M 18.339844 3.386719 L 23.34375 2 L 23.703125 1.519531 L 23.28125 1.035156 L 17.492188 2.664062 L 18.339844 3.386719 "/>
<path style=" stroke:none;fill-rule:nonzero;fill:rgb(0%,0%,0%);fill-opacity:1;" d="M 19.664062 3.085938 L 19.664062 3.808594 L 17.011719 5.859375 L 16.769531 4.835938 L 18.699219 3.328125 L 19.664062 3.085938 "/>
</g>
<path style=" stroke:none;fill-rule:nonzero;fill:rgb(100%,100%,100%);fill-opacity:1;" d="M 15.925781 10.625 L 11.101562 11.527344 L 10.921875 9.296875 L 12.308594 9.597656 L 14.964844 7.332031 L 17.3125 7.730469 L 14.480469 10.203125 L 15.925781 10.625 "/>
<g clip-path="url(#clip5)" clip-rule="nonzero">
<path style=" stroke:none;fill-rule:nonzero;fill:rgb(0%,0%,0%);fill-opacity:1;" d="M 10.4375 8.753906 L 10.4375 9.960938 L 12.308594 10.324219 L 14.964844 8.054688 L 17.3125 8.453125 L 17.976562 7.550781 L 14.839844 6.945312 L 12.1875 9.175781 L 10.4375 8.753906 "/>
<path style=" stroke:none;fill-rule:nonzero;fill:rgb(0%,0%,0%);fill-opacity:1;" d="M 16.046875 10.023438 L 14.480469 10.203125 L 14.480469 10.925781 L 15.925781 11.347656 L 16.769531 10.625 L 16.046875 10.023438 "/>
</g>
<path style="fill-rule:nonzero;fill:rgb(100%,100%,100%);fill-opacity:1;stroke-width:0.35;stroke-linecap:butt;stroke-linejoin:miter;stroke:rgb(0%,0%,0%);stroke-opacity:1;stroke-miterlimit:4;" d="M 13.773438 14.378906 L 19.796875 14.378906 L 19.796875 8.351562 L 13.773438 8.351562 L 13.773438 14.378906 Z M 13.773438 14.378906 " transform="matrix(1,0,0,-1,0,33)"/>
<path style="fill-rule:nonzero;fill:rgb(100%,100%,100%);fill-opacity:1;stroke-width:0.35;stroke-linecap:butt;stroke-linejoin:miter;stroke:rgb(0%,0%,0%);stroke-opacity:1;stroke-miterlimit:4;" d="M 9.652344 18.648438 L 9.65625 16.148438 L 5.121094 16.144531 L 5.117188 18.640625 L 9.652344 18.648438 Z M 9.652344 18.648438 " transform="matrix(1,0,0,-1,0,33)"/>
<path style="fill-rule:nonzero;fill:rgb(100%,100%,100%);fill-opacity:1;stroke-width:0.35;stroke-linecap:butt;stroke-linejoin:miter;stroke:rgb(0%,0%,0%);stroke-opacity:1;stroke-miterlimit:4;" d="M 9.652344 12.398438 L 9.65625 9.898438 L 5.121094 9.898438 L 5.117188 12.394531 L 9.652344 12.398438 Z M 9.652344 12.398438 " transform="matrix(1,0,0,-1,0,33)"/>
<path style="fill-rule:nonzero;fill:rgb(100%,100%,100%);fill-opacity:1;stroke-width:0.35;stroke-linecap:butt;stroke-linejoin:miter;stroke:rgb(0%,0%,0%);stroke-opacity:1;stroke-miterlimit:4;" d="M 9.652344 6.511719 L 9.65625 4.015625 L 5.121094 4.011719 L 5.117188 6.507812 L 9.652344 6.511719 Z M 9.652344 6.511719 " transform="matrix(1,0,0,-1,0,33)"/>
<path style="fill-rule:nonzero;fill:rgb(100%,100%,100%);fill-opacity:1;stroke-width:0.35;stroke-linecap:butt;stroke-linejoin:miter;stroke:rgb(0%,0%,0%);stroke-opacity:1;stroke-miterlimit:4;" d="M 18.984375 6.511719 L 18.988281 4.015625 L 14.453125 4.011719 L 14.453125 6.507812 L 18.984375 6.511719 Z M 18.984375 6.511719 " transform="matrix(1,0,0,-1,0,33)"/>
<path style="fill-rule:nonzero;fill:rgb(100%,100%,100%);fill-opacity:1;stroke-width:0.35;stroke-linecap:butt;stroke-linejoin:miter;stroke:rgb(0%,0%,0%);stroke-opacity:1;stroke-miterlimit:4;" d="M 28.609375 18.648438 L 28.613281 16.148438 L 24.078125 16.144531 L 24.074219 18.640625 L 28.609375 18.648438 Z M 28.609375 18.648438 " transform="matrix(1,0,0,-1,0,33)"/>
<path style="fill-rule:nonzero;fill:rgb(100%,100%,100%);fill-opacity:1;stroke-width:0.35;stroke-linecap:butt;stroke-linejoin:miter;stroke:rgb(0%,0%,0%);stroke-opacity:1;stroke-miterlimit:4;" d="M 18.984375 18.648438 L 18.988281 16.148438 L 14.453125 16.144531 L 14.453125 18.640625 L 18.984375 18.648438 Z M 18.984375 18.648438 " transform="matrix(1,0,0,-1,0,33)"/>
<path style="fill-rule:nonzero;fill:rgb(100%,100%,100%);fill-opacity:1;stroke-width:0.35;stroke-linecap:butt;stroke-linejoin:miter;stroke:rgb(0%,0%,0%);stroke-opacity:1;stroke-miterlimit:4;" d="M 28.609375 12.398438 L 28.613281 9.898438 L 24.078125 9.898438 L 24.074219 12.394531 L 28.609375 12.398438 Z M 28.609375 12.398438 " transform="matrix(1,0,0,-1,0,33)"/>
<path style="fill-rule:nonzero;fill:rgb(100%,100%,100%);fill-opacity:1;stroke-width:0.35;stroke-linecap:butt;stroke-linejoin:miter;stroke:rgb(0%,0%,0%);stroke-opacity:1;stroke-miterlimit:4;" d="M 28.609375 6.511719 L 28.613281 4.015625 L 24.078125 4.011719 L 24.074219 6.507812 L 28.609375 6.511719 Z M 28.609375 6.511719 " transform="matrix(1,0,0,-1,0,33)"/>
</g>
</svg>
