<?xml version="1.0" encoding="UTF-8"?>
<svg xmlns="http://www.w3.org/2000/svg" xmlns:xlink="http://www.w3.org/1999/xlink" width="22" height="28" viewBox="0 0 22 28" version="1.1">
<g id="surface0">
<path style=" stroke:none;fill-rule:nonzero;fill:rgb(50.000763%,50.000763%,50.000763%);fill-opacity:1;" d="M 0.0585938 5.347656 L 17.089844 5.347656 L 17.089844 27.054688 L 0.0585938 27.054688 L 0.0585938 5.347656 Z M 0.0585938 5.347656 "/>
<path style=" stroke:none;fill-rule:nonzero;fill:rgb(70.000763%,70.000763%,70.000763%);fill-opacity:1;" d="M 4.027344 1.324219 L 21.113281 1.324219 L 17.089844 5.347656 L 0.00390625 5.347656 L 4.027344 1.324219 "/>
<path style=" stroke:none;fill-rule:nonzero;fill:rgb(20%,20%,20%);fill-opacity:1;" d="M 17.089844 5.347656 L 21.113281 1.324219 L 21.113281 23.03125 L 17.089844 27.054688 L 17.089844 5.347656 "/>
<path style=" stroke:none;fill-rule:nonzero;fill:rgb(29.999237%,29.999237%,29.999237%);fill-opacity:1;" d="M 12.121094 6.105469 L 16.230469 6.105469 L 16.230469 9.152344 L 12.121094 9.152344 L 12.121094 6.105469 Z M 12.121094 6.105469 "/>
<path style=" stroke:none;fill-rule:nonzero;fill:rgb(29.999237%,29.999237%,29.999237%);fill-opacity:1;" d="M 12.121094 9.816406 L 16.230469 9.816406 L 16.230469 12.863281 L 12.121094 12.863281 L 12.121094 9.816406 Z M 12.121094 9.816406 "/>
<path style=" stroke:none;fill-rule:nonzero;fill:rgb(29.999237%,29.999237%,29.999237%);fill-opacity:1;" d="M 12.121094 23.070312 L 16.230469 23.070312 L 16.230469 26.117188 L 12.121094 26.117188 L 12.121094 23.070312 Z M 12.121094 23.070312 "/>
<path style="fill:none;stroke-width:0.3;stroke-linecap:butt;stroke-linejoin:miter;stroke:rgb(20%,20%,20%);stroke-opacity:1;stroke-miterlimit:4;" d="M 5.703125 22.652344 L 9.714844 26.675781 M 11.238281 22.652344 L 15.25 26.675781 M 5.703125 0.945312 L 5.703125 22.652344 M 11.238281 0.945312 L 11.238281 22.652344 " transform="matrix(1,0,0,-1,0,28)"/>
<path style=" stroke:none;fill-rule:nonzero;fill:rgb(100%,100%,100%);fill-opacity:1;" d="M 2.152344 0.800781 L 21.496094 0.800781 L 21.496094 1.324219 L 2.152344 1.324219 L 2.152344 0.800781 Z M 2.152344 0.800781 "/>
</g>
</svg>
