<?xml version="1.0" encoding="UTF-8"?>
<svg xmlns="http://www.w3.org/2000/svg" xmlns:xlink="http://www.w3.org/1999/xlink" width="60" height="29" viewBox="0 0 60 29" version="1.1">
<g id="surface0">
<path style=" stroke:none;fill-rule:nonzero;fill:rgb(50.000763%,50.000763%,50.000763%);fill-opacity:1;" d="M 0.460938 15.40625 L 40.234375 15.40625 L 40.234375 28.527344 L 0.460938 28.527344 L 0.460938 15.40625 Z M 0.460938 15.40625 "/>
<path style=" stroke:none;fill-rule:nonzero;fill:rgb(70.000763%,70.000763%,70.000763%);fill-opacity:1;" d="M 0.460938 15.40625 L 40.234375 15.40625 L 46.546875 9.097656 L 8.15625 9.097656 L 0.460938 15.40625 "/>
<path style=" stroke:none;fill-rule:nonzero;fill:rgb(20%,20%,20%);fill-opacity:1;" d="M 40.234375 28.527344 L 46.546875 21.367188 L 46.546875 9.097656 L 40.234375 15.40625 L 40.234375 28.527344 "/>
<path style=" stroke:none;fill-rule:nonzero;fill:rgb(50.000763%,50.000763%,50.000763%);fill-opacity:1;" d="M 11.371094 7.605469 L 10.859375 10.320312 L 15.757812 10.320312 L 15.25 7.605469 L 11.371094 7.605469 "/>
<path style=" stroke:none;fill-rule:nonzero;fill:rgb(50.000763%,50.000763%,50.000763%);fill-opacity:1;" d="M 5.304688 11.984375 L 4.796875 14.699219 L 9.695312 14.699219 L 9.183594 11.984375 L 5.304688 11.984375 "/>
<path style=" stroke:none;fill-rule:nonzero;fill:rgb(50.000763%,50.000763%,50.000763%);fill-opacity:1;" d="M 11.957031 10.910156 L 14.941406 10.910156 L 14.234375 9.289062 L 11.957031 10.910156 "/>
<path style=" stroke:none;fill-rule:nonzero;fill:rgb(90.000763%,90.000763%,90.000763%);fill-opacity:1;" d="M 11.371094 7.605469 C 8.117188 7.269531 5.1875 11.105469 5.304688 11.984375 L 9.183594 11.984375 C 9.066406 11.105469 12 7.269531 15.25 7.605469 L 11.371094 7.605469 "/>
<path style=" stroke:none;fill-rule:nonzero;fill:rgb(20%,20%,20%);fill-opacity:1;" d="M 15.757812 10.320312 L 14.941406 10.910156 L 14.234375 9.289062 L 11.804688 11.046875 L 11.550781 13.359375 L 9.695312 14.699219 L 9.183594 11.984375 C 9.066406 11.105469 12 7.269531 15.25 7.605469 L 15.757812 10.320312 "/>
<path style=" stroke:none;fill-rule:nonzero;fill:rgb(70.000763%,70.000763%,70.000763%);fill-opacity:1;" d="M 20.675781 0.472656 L 14.363281 6.785156 L 15.226562 6.785156 L 21.535156 0.472656 L 20.675781 0.472656 "/>
<path style=" stroke:none;fill-rule:nonzero;fill:rgb(20%,20%,20%);fill-opacity:1;" d="M 26.96875 9.097656 L 20.660156 15.40625 L 15.226562 6.785156 L 21.535156 0.472656 L 26.96875 9.097656 "/>
<path style=" stroke:none;fill-rule:nonzero;fill:rgb(50.000763%,50.000763%,50.000763%);fill-opacity:1;" d="M 19.796875 15.40625 L 14.363281 6.785156 L 15.226562 6.785156 L 20.660156 15.40625 L 19.796875 15.40625 "/>
<path style=" stroke:none;fill-rule:nonzero;fill:rgb(70.000763%,70.000763%,70.000763%);fill-opacity:1;" d="M 59.988281 11.09375 L 53.59375 17.535156 L 40.183594 22.316406 L 46.578125 15.871094 L 59.988281 11.09375 "/>
<path style=" stroke:none;fill-rule:nonzero;fill:rgb(20%,20%,20%);fill-opacity:1;" d="M 60.039062 12.207031 L 53.644531 18.652344 L 53.59375 17.535156 L 59.988281 11.09375 L 60.039062 12.207031 "/>
<path style=" stroke:none;fill-rule:nonzero;fill:rgb(50.000763%,50.000763%,50.000763%);fill-opacity:1;" d="M 40.183594 22.316406 L 40.183594 23.046875 L 53.644531 18.652344 L 53.644531 17.535156 L 40.183594 22.316406 "/>
<path style="fill:none;stroke-width:0.4;stroke-linecap:round;stroke-linejoin:miter;stroke:rgb(100%,100%,100%);stroke-opacity:1;stroke-miterlimit:4;" d="M 20.410156 27.050781 L 25.570312 18.855469 M 19.148438 25.785156 L 24.308594 17.59375 M 17.886719 24.523438 L 23.046875 16.332031 M 16.625 23.261719 L 21.785156 15.070312 " transform="matrix(1,0,0,-1,0,29)"/>
<path style="fill:none;stroke-width:0.5;stroke-linecap:butt;stroke-linejoin:miter;stroke:rgb(0%,0%,0%);stroke-opacity:1;stroke-miterlimit:4;" d="M 39.621094 16.265625 L 37.863281 16.265625 L 38.78125 17.175781 M 41.886719 16.265625 L 40.132812 16.265625 L 41.046875 17.175781 M 37.765625 14.421875 L 36.011719 14.421875 L 36.925781 15.328125 M 40.03125 14.421875 L 38.277344 14.421875 L 39.191406 15.328125 M 37.355469 16.265625 L 35.597656 16.265625 L 36.511719 17.175781 M 35.5 14.421875 L 33.742188 14.421875 L 34.660156 15.328125 M 41.476562 18.109375 L 39.71875 18.109375 L 40.632812 19.019531 M 43.742188 18.109375 L 41.984375 18.109375 L 42.902344 19.019531 M 39.207031 18.109375 L 37.453125 18.109375 L 38.367188 19.019531 M 35.085938 16.265625 L 33.332031 16.265625 L 34.246094 17.175781 M 33.234375 14.421875 L 31.476562 14.421875 L 32.390625 15.328125 M 36.941406 18.109375 L 35.183594 18.109375 L 36.101562 19.019531 " transform="matrix(1,0,0,-1,0,29)"/>
<path style=" stroke:none;fill-rule:nonzero;fill:rgb(50.000763%,50.000763%,50.000763%);fill-opacity:1;" d="M 27.722656 9.980469 L 32.9375 9.980469 L 28.3125 14.578125 L 23.097656 14.578125 L 27.722656 9.980469 "/>
</g>
</svg>
