<?xml version="1.0" encoding="UTF-8"?>
<svg xmlns="http://www.w3.org/2000/svg" xmlns:xlink="http://www.w3.org/1999/xlink" width="44" height="32" viewBox="0 0 44 32" version="1.1">
<g id="surface0">
<path style=" stroke:none;fill-rule:nonzero;fill:rgb(50.000763%,50.000763%,50.000763%);fill-opacity:1;" d="M 0.828125 6.007812 L 38.976562 6.007812 L 38.976562 31.074219 L 0.828125 31.074219 L 0.828125 6.007812 Z M 0.828125 6.007812 "/>
<path style=" stroke:none;fill-rule:nonzero;fill:rgb(20%,20%,20%);fill-opacity:1;" d="M 43.367188 24.652344 L 38.976562 31.070312 L 38.976562 6.007812 L 43.367188 0.6875 L 43.367188 24.652344 "/>
<path style=" stroke:none;fill-rule:nonzero;fill:rgb(70.000763%,70.000763%,70.000763%);fill-opacity:1;" d="M 7.414062 0.6875 L 43.367188 0.6875 L 38.976562 6.007812 L 0.828125 6.007812 L 7.414062 0.6875 "/>
<path style=" stroke:none;fill-rule:nonzero;fill:rgb(100%,100%,100%);fill-opacity:1;" d="M 33.734375 18.949219 L 27.347656 18.953125 L 27.347656 17.9375 L 33.734375 17.933594 L 33.738281 16.347656 L 37.4375 18.441406 L 33.738281 20.535156 L 33.734375 18.949219 "/>
<path style=" stroke:none;fill-rule:nonzero;fill:rgb(100%,100%,100%);fill-opacity:1;" d="M 8.175781 18.949219 L 1.785156 18.953125 L 1.785156 17.9375 L 8.175781 17.933594 L 8.175781 16.347656 L 11.875 18.441406 L 8.175781 20.535156 L 8.175781 18.949219 "/>
<path style=" stroke:none;fill-rule:nonzero;fill:rgb(100%,100%,100%);fill-opacity:1;" d="M 32.632812 12.207031 L 27.277344 15.691406 L 26.726562 14.839844 L 32.082031 11.355469 L 31.21875 10.023438 L 35.464844 9.765625 L 33.5 13.535156 L 32.632812 12.207031 "/>
<path style=" stroke:none;fill-rule:nonzero;fill:rgb(100%,100%,100%);fill-opacity:1;" d="M 32.632812 24.734375 L 27.277344 21.253906 L 26.726562 22.105469 L 32.082031 25.585938 L 31.21875 26.917969 L 35.464844 27.175781 L 33.5 23.40625 L 32.632812 24.734375 "/>
<path style="fill-rule:nonzero;fill:rgb(50.000763%,50.000763%,50.000763%);fill-opacity:1;stroke-width:1;stroke-linecap:butt;stroke-linejoin:round;stroke:rgb(100%,100%,100%);stroke-opacity:1;stroke-miterlimit:4;" d="M 25.976562 13.6875 C 25.976562 10.207031 23.152344 7.386719 19.675781 7.386719 C 16.195312 7.386719 13.375 10.207031 13.375 13.6875 C 13.375 17.167969 16.195312 19.988281 19.675781 19.988281 C 23.152344 19.988281 25.976562 17.167969 25.976562 13.6875 Z M 25.976562 13.6875 " transform="matrix(1,0,0,-1,0,32)"/>
</g>
</svg>
