<?xml version="1.0" encoding="UTF-8"?>
<svg xmlns="http://www.w3.org/2000/svg" xmlns:xlink="http://www.w3.org/1999/xlink" width="38" height="26" viewBox="0 0 38 26" version="1.1">
<defs>
<clipPath id="clip1">
  <path d="M 37.117188 7.757812 C 37.117188 11.65625 29 14.8125 18.984375 14.8125 C 8.96875 14.8125 0.847656 11.65625 0.847656 7.757812 L 0.847656 18.089844 C 0.847656 21.984375 8.96875 25.144531 18.984375 25.144531 C 29 25.144531 37.117188 21.984375 37.117188 18.089844 L 37.117188 7.757812 "/>
</clipPath>
<clipPath id="clip2">
  <path d="M 15.011719 4.933594 L 16.53125 7.214844 L 10.789062 8.539062 L 12.042969 7.496094 L 3.167969 5.976562 L 5.394531 4.308594 L 13.960938 5.757812 L 15.011719 4.933594 "/>
</clipPath>
<clipPath id="clip3">
  <path d="M 23.09375 10.460938 L 22.058594 8.109375 L 27.234375 7.074219 L 26.339844 7.878906 L 34.972656 9.355469 L 32.898438 11.011719 L 24.316406 9.402344 L 23.09375 10.460938 "/>
</clipPath>
<clipPath id="clip4">
  <path d="M 20.261719 3.691406 L 26.0625 2.101562 L 26.132812 4.589844 L 24.679688 4.3125 L 21.851562 6.660156 L 19.148438 6.265625 L 22.070312 3.96875 L 20.261719 3.691406 "/>
</clipPath>
<clipPath id="clip5">
  <path d="M 17.773438 12.601562 L 12.25 13.636719 L 12.042969 11.082031 L 13.632812 11.425781 L 16.671875 8.828125 L 19.363281 9.285156 L 16.117188 12.117188 L 17.773438 12.601562 "/>
</clipPath>
</defs>
<g id="surface0">
<path style="fill-rule:nonzero;fill:rgb(13.730068%,12.159915%,12.54902%);fill-opacity:1;stroke-width:0.42;stroke-linecap:butt;stroke-linejoin:miter;stroke:rgb(100%,100%,100%);stroke-opacity:1;stroke-miterlimit:4;" d="M 37.117188 18.242188 C 37.117188 14.34375 29 11.1875 18.984375 11.1875 C 8.96875 11.1875 0.847656 14.34375 0.847656 18.242188 L 0.847656 7.910156 C 0.847656 4.015625 8.96875 0.855469 18.984375 0.855469 C 29 0.855469 37.117188 4.015625 37.117188 7.910156 L 37.117188 18.242188 Z M 37.117188 18.242188 " transform="matrix(1,0,0,-1,0,26)"/>
<g clip-path="url(#clip1)" clip-rule="nonzero">
<path style=" stroke:none;fill-rule:nonzero;fill:rgb(48.912795%,47.98352%,48.213931%);fill-opacity:1;" d="M 0.847656 7.757812 L 0.847656 25.144531 L 0.988281 25.144531 L 0.988281 7.757812 L 0.847656 7.757812 Z M 0.847656 7.757812 "/>
<path style=" stroke:none;fill-rule:nonzero;fill:rgb(49.585718%,48.66865%,48.89601%);fill-opacity:1;" d="M 0.988281 7.757812 L 0.988281 25.144531 L 1.128906 25.144531 L 1.128906 7.757812 L 0.988281 7.757812 Z M 0.988281 7.757812 "/>
<path style=" stroke:none;fill-rule:nonzero;fill:rgb(50.260166%,49.35378%,49.579614%);fill-opacity:1;" d="M 1.128906 7.757812 L 1.128906 25.144531 L 1.269531 25.144531 L 1.269531 7.757812 L 1.128906 7.757812 Z M 1.128906 7.757812 "/>
<path style=" stroke:none;fill-rule:nonzero;fill:rgb(50.933089%,50.040436%,50.261692%);fill-opacity:1;" d="M 1.269531 7.757812 L 1.269531 25.144531 L 1.414062 25.144531 L 1.414062 7.757812 L 1.269531 7.757812 Z M 1.269531 7.757812 "/>
<path style=" stroke:none;fill-rule:nonzero;fill:rgb(51.607538%,50.727092%,50.945296%);fill-opacity:1;" d="M 1.414062 7.757812 L 1.414062 25.144531 L 1.554688 25.144531 L 1.554688 7.757812 L 1.414062 7.757812 Z M 1.414062 7.757812 "/>
<path style=" stroke:none;fill-rule:nonzero;fill:rgb(52.281987%,51.413748%,51.628901%);fill-opacity:1;" d="M 1.554688 7.757812 L 1.554688 25.144531 L 1.695312 25.144531 L 1.695312 7.757812 L 1.554688 7.757812 Z M 1.554688 7.757812 "/>
<path style=" stroke:none;fill-rule:nonzero;fill:rgb(52.95491%,52.098878%,52.312505%);fill-opacity:1;" d="M 1.695312 7.757812 L 1.695312 25.144531 L 1.835938 25.144531 L 1.835938 7.757812 L 1.695312 7.757812 Z M 1.695312 7.757812 "/>
<path style=" stroke:none;fill-rule:nonzero;fill:rgb(53.629358%,52.785534%,52.994583%);fill-opacity:1;" d="M 1.835938 7.757812 L 1.835938 25.144531 L 1.980469 25.144531 L 1.980469 7.757812 L 1.835938 7.757812 Z M 1.835938 7.757812 "/>
<path style=" stroke:none;fill-rule:nonzero;fill:rgb(54.303807%,53.47219%,53.678187%);fill-opacity:1;" d="M 1.980469 7.757812 L 1.980469 25.144531 L 2.121094 25.144531 L 2.121094 7.757812 L 1.980469 7.757812 Z M 1.980469 7.757812 "/>
<path style=" stroke:none;fill-rule:nonzero;fill:rgb(54.97673%,54.157321%,54.361791%);fill-opacity:1;" d="M 2.121094 7.757812 L 2.121094 25.144531 L 2.261719 25.144531 L 2.261719 7.757812 L 2.121094 7.757812 Z M 2.121094 7.757812 "/>
<path style=" stroke:none;fill-rule:nonzero;fill:rgb(55.651179%,54.843977%,55.045396%);fill-opacity:1;" d="M 2.261719 7.757812 L 2.261719 25.144531 L 2.40625 25.144531 L 2.40625 7.757812 L 2.261719 7.757812 Z M 2.261719 7.757812 "/>
<path style=" stroke:none;fill-rule:nonzero;fill:rgb(56.325628%,55.530632%,55.727474%);fill-opacity:1;" d="M 2.40625 7.757812 L 2.40625 25.144531 L 2.546875 25.144531 L 2.546875 7.757812 L 2.40625 7.757812 Z M 2.40625 7.757812 "/>
<path style=" stroke:none;fill-rule:nonzero;fill:rgb(57.000076%,56.217288%,56.411078%);fill-opacity:1;" d="M 2.546875 7.757812 L 2.546875 25.144531 L 2.6875 25.144531 L 2.6875 7.757812 L 2.546875 7.757812 Z M 2.546875 7.757812 "/>
<path style=" stroke:none;fill-rule:nonzero;fill:rgb(57.672999%,56.902419%,57.094682%);fill-opacity:1;" d="M 2.6875 7.757812 L 2.6875 25.144531 L 2.828125 25.144531 L 2.828125 7.757812 L 2.6875 7.757812 Z M 2.6875 7.757812 "/>
<path style=" stroke:none;fill-rule:nonzero;fill:rgb(58.347448%,57.589075%,57.778286%);fill-opacity:1;" d="M 2.828125 7.757812 L 2.828125 25.144531 L 2.972656 25.144531 L 2.972656 7.757812 L 2.828125 7.757812 Z M 2.828125 7.757812 "/>
<path style=" stroke:none;fill-rule:nonzero;fill:rgb(59.021897%,58.275731%,58.460365%);fill-opacity:1;" d="M 2.972656 7.757812 L 2.972656 25.144531 L 3.113281 25.144531 L 3.113281 7.757812 L 2.972656 7.757812 Z M 2.972656 7.757812 "/>
<path style=" stroke:none;fill-rule:nonzero;fill:rgb(59.69482%,58.962387%,59.143969%);fill-opacity:1;" d="M 3.113281 7.757812 L 3.113281 25.144531 L 3.253906 25.144531 L 3.253906 7.757812 L 3.113281 7.757812 Z M 3.113281 7.757812 "/>
<path style=" stroke:none;fill-rule:nonzero;fill:rgb(60.369268%,59.647517%,59.827573%);fill-opacity:1;" d="M 3.253906 7.757812 L 3.253906 25.144531 L 3.394531 25.144531 L 3.394531 7.757812 L 3.253906 7.757812 Z M 3.253906 7.757812 "/>
<path style=" stroke:none;fill-rule:nonzero;fill:rgb(61.043717%,60.334173%,60.511177%);fill-opacity:1;" d="M 3.394531 7.757812 L 3.394531 25.144531 L 3.539062 25.144531 L 3.539062 7.757812 L 3.394531 7.757812 Z M 3.394531 7.757812 "/>
<path style=" stroke:none;fill-rule:nonzero;fill:rgb(61.71664%,61.020829%,61.193256%);fill-opacity:1;" d="M 3.539062 7.757812 L 3.539062 25.144531 L 3.679688 25.144531 L 3.679688 7.757812 L 3.539062 7.757812 Z M 3.539062 7.757812 "/>
<path style=" stroke:none;fill-rule:nonzero;fill:rgb(62.391089%,61.707485%,61.87686%);fill-opacity:1;" d="M 3.679688 7.757812 L 3.679688 25.144531 L 3.820312 25.144531 L 3.820312 7.757812 L 3.679688 7.757812 Z M 3.679688 7.757812 "/>
<path style=" stroke:none;fill-rule:nonzero;fill:rgb(63.065537%,62.392615%,62.560464%);fill-opacity:1;" d="M 3.820312 7.757812 L 3.820312 25.144531 L 3.964844 25.144531 L 3.964844 7.757812 L 3.820312 7.757812 Z M 3.820312 7.757812 "/>
<path style=" stroke:none;fill-rule:nonzero;fill:rgb(63.739986%,63.079271%,63.244068%);fill-opacity:1;" d="M 3.964844 7.757812 L 3.964844 25.144531 L 4.105469 25.144531 L 4.105469 7.757812 L 3.964844 7.757812 Z M 3.964844 7.757812 "/>
<path style=" stroke:none;fill-rule:nonzero;fill:rgb(64.412909%,63.765927%,63.926146%);fill-opacity:1;" d="M 4.105469 7.757812 L 4.105469 25.144531 L 4.246094 25.144531 L 4.246094 7.757812 L 4.105469 7.757812 Z M 4.105469 7.757812 "/>
<path style=" stroke:none;fill-rule:nonzero;fill:rgb(65.087358%,64.452583%,64.609751%);fill-opacity:1;" d="M 4.246094 7.757812 L 4.246094 25.144531 L 4.386719 25.144531 L 4.386719 7.757812 L 4.246094 7.757812 Z M 4.246094 7.757812 "/>
<path style=" stroke:none;fill-rule:nonzero;fill:rgb(65.761807%,65.137713%,65.293355%);fill-opacity:1;" d="M 4.386719 7.757812 L 4.386719 25.144531 L 4.53125 25.144531 L 4.53125 7.757812 L 4.386719 7.757812 Z M 4.386719 7.757812 "/>
<path style=" stroke:none;fill-rule:nonzero;fill:rgb(66.43473%,65.824369%,65.975433%);fill-opacity:1;" d="M 4.53125 7.757812 L 4.53125 25.144531 L 4.671875 25.144531 L 4.671875 7.757812 L 4.53125 7.757812 Z M 4.53125 7.757812 "/>
<path style=" stroke:none;fill-rule:nonzero;fill:rgb(67.109178%,66.511025%,66.659037%);fill-opacity:1;" d="M 4.671875 7.757812 L 4.671875 25.144531 L 4.8125 25.144531 L 4.8125 7.757812 L 4.671875 7.757812 Z M 4.671875 7.757812 "/>
<path style=" stroke:none;fill-rule:nonzero;fill:rgb(67.783627%,67.197681%,67.342641%);fill-opacity:1;" d="M 4.8125 7.757812 L 4.8125 25.144531 L 4.953125 25.144531 L 4.953125 7.757812 L 4.8125 7.757812 Z M 4.8125 7.757812 "/>
<path style=" stroke:none;fill-rule:nonzero;fill:rgb(68.45655%,67.882811%,68.026246%);fill-opacity:1;" d="M 4.953125 7.757812 L 4.953125 25.144531 L 5.097656 25.144531 L 5.097656 7.757812 L 4.953125 7.757812 Z M 4.953125 7.757812 "/>
<path style=" stroke:none;fill-rule:nonzero;fill:rgb(69.130999%,68.569467%,68.708324%);fill-opacity:1;" d="M 5.097656 7.757812 L 5.097656 25.144531 L 5.238281 25.144531 L 5.238281 7.757812 L 5.097656 7.757812 Z M 5.097656 7.757812 "/>
<path style=" stroke:none;fill-rule:nonzero;fill:rgb(69.805447%,69.256123%,69.391928%);fill-opacity:1;" d="M 5.238281 7.757812 L 5.238281 25.144531 L 5.378906 25.144531 L 5.378906 7.757812 L 5.238281 7.757812 Z M 5.238281 7.757812 "/>
<path style=" stroke:none;fill-rule:nonzero;fill:rgb(70.479896%,69.942779%,70.075532%);fill-opacity:1;" d="M 5.378906 7.757812 L 5.378906 25.144531 L 5.523438 25.144531 L 5.523438 7.757812 L 5.378906 7.757812 Z M 5.378906 7.757812 "/>
<path style=" stroke:none;fill-rule:nonzero;fill:rgb(71.152819%,70.627909%,70.759136%);fill-opacity:1;" d="M 5.523438 7.757812 L 5.523438 25.144531 L 5.664062 25.144531 L 5.664062 7.757812 L 5.523438 7.757812 Z M 5.523438 7.757812 "/>
<path style=" stroke:none;fill-rule:nonzero;fill:rgb(71.827268%,71.314565%,71.441215%);fill-opacity:1;" d="M 5.664062 7.757812 L 5.664062 25.144531 L 5.804688 25.144531 L 5.804688 7.757812 L 5.664062 7.757812 Z M 5.664062 7.757812 "/>
<path style=" stroke:none;fill-rule:nonzero;fill:rgb(72.501717%,72.001221%,72.124819%);fill-opacity:1;" d="M 5.804688 7.757812 L 5.804688 25.144531 L 5.945312 25.144531 L 5.945312 7.757812 L 5.804688 7.757812 Z M 5.804688 7.757812 "/>
<path style=" stroke:none;fill-rule:nonzero;fill:rgb(73.17464%,72.686351%,72.808423%);fill-opacity:1;" d="M 5.945312 7.757812 L 5.945312 25.144531 L 6.089844 25.144531 L 6.089844 7.757812 L 5.945312 7.757812 Z M 5.945312 7.757812 "/>
<path style=" stroke:none;fill-rule:nonzero;fill:rgb(73.847562%,73.371481%,73.490501%);fill-opacity:1;" d="M 6.089844 7.757812 L 6.089844 25.144531 L 6.230469 25.144531 L 6.230469 7.757812 L 6.089844 7.757812 Z M 6.089844 7.757812 "/>
<path style=" stroke:none;fill-rule:nonzero;fill:rgb(74.522011%,74.058137%,74.174105%);fill-opacity:1;" d="M 6.230469 7.757812 L 6.230469 25.144531 L 6.371094 25.144531 L 6.371094 7.757812 L 6.230469 7.757812 Z M 6.230469 7.757812 "/>
<path style=" stroke:none;fill-rule:nonzero;fill:rgb(75.19646%,74.744793%,74.856184%);fill-opacity:1;" d="M 6.371094 7.757812 L 6.371094 25.144531 L 6.511719 25.144531 L 6.511719 7.757812 L 6.371094 7.757812 Z M 6.371094 7.757812 "/>
<path style=" stroke:none;fill-rule:nonzero;fill:rgb(75.869383%,75.431449%,75.539788%);fill-opacity:1;" d="M 6.511719 7.757812 L 6.511719 25.144531 L 6.65625 25.144531 L 6.65625 7.757812 L 6.511719 7.757812 Z M 6.511719 7.757812 "/>
<path style=" stroke:none;fill-rule:nonzero;fill:rgb(76.543832%,76.116579%,76.223392%);fill-opacity:1;" d="M 6.65625 7.757812 L 6.65625 25.144531 L 6.796875 25.144531 L 6.796875 7.757812 L 6.65625 7.757812 Z M 6.65625 7.757812 "/>
<path style=" stroke:none;fill-rule:nonzero;fill:rgb(77.21828%,76.803235%,76.906996%);fill-opacity:1;" d="M 6.796875 7.757812 L 6.796875 25.144531 L 6.9375 25.144531 L 6.9375 7.757812 L 6.796875 7.757812 Z M 6.796875 7.757812 "/>
<path style=" stroke:none;fill-rule:nonzero;fill:rgb(77.891203%,77.489891%,77.589075%);fill-opacity:1;" d="M 6.9375 7.757812 L 6.9375 25.144531 L 7.082031 25.144531 L 7.082031 7.757812 L 6.9375 7.757812 Z M 6.9375 7.757812 "/>
<path style=" stroke:none;fill-rule:nonzero;fill:rgb(78.565652%,78.176547%,78.272679%);fill-opacity:1;" d="M 7.082031 7.757812 L 7.082031 25.144531 L 7.222656 25.144531 L 7.222656 7.757812 L 7.082031 7.757812 Z M 7.082031 7.757812 "/>
<path style=" stroke:none;fill-rule:nonzero;fill:rgb(79.240101%,78.861677%,78.956283%);fill-opacity:1;" d="M 7.222656 7.757812 L 7.222656 25.144531 L 7.363281 25.144531 L 7.363281 7.757812 L 7.222656 7.757812 Z M 7.222656 7.757812 "/>
<path style=" stroke:none;fill-rule:nonzero;fill:rgb(79.914549%,79.548333%,79.639887%);fill-opacity:1;" d="M 7.363281 7.757812 L 7.363281 25.144531 L 7.503906 25.144531 L 7.503906 7.757812 L 7.363281 7.757812 Z M 7.363281 7.757812 "/>
<path style=" stroke:none;fill-rule:nonzero;fill:rgb(80.587472%,80.234989%,80.321965%);fill-opacity:1;" d="M 7.503906 7.757812 L 7.503906 25.144531 L 7.648438 25.144531 L 7.648438 7.757812 L 7.503906 7.757812 Z M 7.503906 7.757812 "/>
<path style=" stroke:none;fill-rule:nonzero;fill:rgb(81.261921%,80.920119%,81.00557%);fill-opacity:1;" d="M 7.648438 7.757812 L 7.648438 25.144531 L 7.789062 25.144531 L 7.789062 7.757812 L 7.648438 7.757812 Z M 7.648438 7.757812 "/>
<path style=" stroke:none;fill-rule:nonzero;fill:rgb(81.93637%,81.606775%,81.689174%);fill-opacity:1;" d="M 7.789062 7.757812 L 7.789062 25.144531 L 7.929688 25.144531 L 7.929688 7.757812 L 7.789062 7.757812 Z M 7.789062 7.757812 "/>
<path style=" stroke:none;fill-rule:nonzero;fill:rgb(82.609293%,82.293431%,82.371252%);fill-opacity:1;" d="M 7.929688 7.757812 L 7.929688 25.144531 L 8.070312 25.144531 L 8.070312 7.757812 L 7.929688 7.757812 Z M 7.929688 7.757812 "/>
<path style=" stroke:none;fill-rule:nonzero;fill:rgb(83.283742%,82.980087%,83.054856%);fill-opacity:1;" d="M 8.070312 7.757812 L 8.070312 25.144531 L 8.214844 25.144531 L 8.214844 7.757812 L 8.070312 7.757812 Z M 8.070312 7.757812 "/>
<path style=" stroke:none;fill-rule:nonzero;fill:rgb(83.95819%,83.665217%,83.73846%);fill-opacity:1;" d="M 8.214844 7.757812 L 8.214844 25.144531 L 8.355469 25.144531 L 8.355469 7.757812 L 8.214844 7.757812 Z M 8.214844 7.757812 "/>
<path style=" stroke:none;fill-rule:nonzero;fill:rgb(84.631113%,84.351873%,84.422065%);fill-opacity:1;" d="M 8.355469 7.757812 L 8.355469 25.144531 L 8.496094 25.144531 L 8.496094 7.757812 L 8.355469 7.757812 Z M 8.355469 7.757812 "/>
<path style=" stroke:none;fill-rule:nonzero;fill:rgb(85.305562%,85.038529%,85.104143%);fill-opacity:1;" d="M 8.496094 7.757812 L 8.496094 25.144531 L 8.640625 25.144531 L 8.640625 7.757812 L 8.496094 7.757812 Z M 8.496094 7.757812 "/>
<path style=" stroke:none;fill-rule:nonzero;fill:rgb(85.980011%,85.725185%,85.787747%);fill-opacity:1;" d="M 8.640625 7.757812 L 8.640625 25.144531 L 8.78125 25.144531 L 8.78125 7.757812 L 8.640625 7.757812 Z M 8.640625 7.757812 "/>
<path style=" stroke:none;fill-rule:nonzero;fill:rgb(86.654459%,86.410315%,86.471351%);fill-opacity:1;" d="M 8.78125 7.757812 L 8.78125 25.144531 L 8.921875 25.144531 L 8.921875 7.757812 L 8.78125 7.757812 Z M 8.78125 7.757812 "/>
<path style=" stroke:none;fill-rule:nonzero;fill:rgb(87.327382%,87.096971%,87.154955%);fill-opacity:1;" d="M 8.921875 7.757812 L 8.921875 25.144531 L 9.0625 25.144531 L 9.0625 7.757812 L 8.921875 7.757812 Z M 8.921875 7.757812 "/>
<path style=" stroke:none;fill-rule:nonzero;fill:rgb(88.001831%,87.783627%,87.837034%);fill-opacity:1;" d="M 9.0625 7.757812 L 9.0625 25.144531 L 9.207031 25.144531 L 9.207031 7.757812 L 9.0625 7.757812 Z M 9.0625 7.757812 "/>
<path style=" stroke:none;fill-rule:nonzero;fill:rgb(88.67628%,88.470283%,88.520638%);fill-opacity:1;" d="M 9.207031 7.757812 L 9.207031 25.144531 L 9.347656 25.144531 L 9.347656 7.757812 L 9.207031 7.757812 Z M 9.207031 7.757812 "/>
<path style=" stroke:none;fill-rule:nonzero;fill:rgb(89.349203%,89.155413%,89.204242%);fill-opacity:1;" d="M 9.347656 7.757812 L 9.347656 25.144531 L 9.488281 25.144531 L 9.488281 7.757812 L 9.347656 7.757812 Z M 9.347656 7.757812 "/>
<path style=" stroke:none;fill-rule:nonzero;fill:rgb(90.023651%,89.842069%,89.887846%);fill-opacity:1;" d="M 9.488281 7.757812 L 9.488281 25.144531 L 9.632812 25.144531 L 9.632812 7.757812 L 9.488281 7.757812 Z M 9.488281 7.757812 "/>
<path style=" stroke:none;fill-rule:nonzero;fill:rgb(90.6981%,90.528725%,90.569924%);fill-opacity:1;" d="M 9.632812 7.757812 L 9.632812 25.144531 L 9.773438 25.144531 L 9.773438 7.757812 L 9.632812 7.757812 Z M 9.632812 7.757812 "/>
<path style=" stroke:none;fill-rule:nonzero;fill:rgb(91.372549%,91.215381%,91.253529%);fill-opacity:1;" d="M 9.773438 7.757812 L 9.773438 25.144531 L 9.914062 25.144531 L 9.914062 7.757812 L 9.773438 7.757812 Z M 9.773438 7.757812 "/>
<path style=" stroke:none;fill-rule:nonzero;fill:rgb(92.045472%,91.900511%,91.937133%);fill-opacity:1;" d="M 9.914062 7.757812 L 9.914062 25.144531 L 10.054688 25.144531 L 10.054688 7.757812 L 9.914062 7.757812 Z M 9.914062 7.757812 "/>
<path style=" stroke:none;fill-rule:nonzero;fill:rgb(92.719921%,92.587167%,92.620737%);fill-opacity:1;" d="M 10.054688 7.757812 L 10.054688 25.144531 L 10.199219 25.144531 L 10.199219 7.757812 L 10.054688 7.757812 Z M 10.054688 7.757812 "/>
<path style=" stroke:none;fill-rule:nonzero;fill:rgb(93.394369%,93.273823%,93.302815%);fill-opacity:1;" d="M 10.199219 7.757812 L 10.199219 25.144531 L 10.339844 25.144531 L 10.339844 7.757812 L 10.199219 7.757812 Z M 10.199219 7.757812 "/>
<path style=" stroke:none;fill-rule:nonzero;fill:rgb(94.067292%,93.960479%,93.986419%);fill-opacity:1;" d="M 10.339844 7.757812 L 10.339844 25.144531 L 10.480469 25.144531 L 10.480469 7.757812 L 10.339844 7.757812 Z M 10.339844 7.757812 "/>
<path style=" stroke:none;fill-rule:nonzero;fill:rgb(94.741741%,94.645609%,94.670024%);fill-opacity:1;" d="M 10.480469 7.757812 L 10.480469 25.144531 L 10.621094 25.144531 L 10.621094 7.757812 L 10.480469 7.757812 Z M 10.480469 7.757812 "/>
<path style=" stroke:none;fill-rule:nonzero;fill:rgb(95.41619%,95.332265%,95.353628%);fill-opacity:1;" d="M 10.621094 7.757812 L 10.621094 25.144531 L 10.765625 25.144531 L 10.765625 7.757812 L 10.621094 7.757812 Z M 10.621094 7.757812 "/>
<path style=" stroke:none;fill-rule:nonzero;fill:rgb(96.089113%,96.018921%,96.035706%);fill-opacity:1;" d="M 10.765625 7.757812 L 10.765625 25.144531 L 10.90625 25.144531 L 10.90625 7.757812 L 10.765625 7.757812 Z M 10.765625 7.757812 "/>
<path style=" stroke:none;fill-rule:nonzero;fill:rgb(96.763561%,96.705577%,96.71931%);fill-opacity:1;" d="M 10.90625 7.757812 L 10.90625 25.144531 L 11.046875 25.144531 L 11.046875 7.757812 L 10.90625 7.757812 Z M 10.90625 7.757812 "/>
<path style=" stroke:none;fill-rule:nonzero;fill:rgb(97.43801%,97.390707%,97.402914%);fill-opacity:1;" d="M 11.046875 7.757812 L 11.046875 25.144531 L 11.191406 25.144531 L 11.191406 7.757812 L 11.046875 7.757812 Z M 11.046875 7.757812 "/>
<path style=" stroke:none;fill-rule:nonzero;fill:rgb(98.112459%,98.077363%,98.086519%);fill-opacity:1;" d="M 11.191406 7.757812 L 11.191406 25.144531 L 11.332031 25.144531 L 11.332031 7.757812 L 11.191406 7.757812 Z M 11.191406 7.757812 "/>
<path style=" stroke:none;fill-rule:nonzero;fill:rgb(98.785382%,98.764019%,98.768597%);fill-opacity:1;" d="M 11.332031 7.757812 L 11.332031 25.144531 L 11.472656 25.144531 L 11.472656 7.757812 L 11.332031 7.757812 Z M 11.332031 7.757812 "/>
<path style=" stroke:none;fill-rule:nonzero;fill:rgb(99.459831%,99.449149%,99.452201%);fill-opacity:1;" d="M 11.472656 7.757812 L 11.472656 25.144531 L 11.613281 25.144531 L 11.613281 7.757812 L 11.472656 7.757812 Z M 11.472656 7.757812 "/>
<path style=" stroke:none;fill-rule:nonzero;fill:rgb(99.50103%,99.491875%,99.4934%);fill-opacity:1;" d="M 11.613281 7.757812 L 11.613281 25.144531 L 11.898438 25.144531 L 11.898438 7.757812 L 11.613281 7.757812 Z M 11.613281 7.757812 "/>
<path style=" stroke:none;fill-rule:nonzero;fill:rgb(99.157702%,99.140917%,99.145495%);fill-opacity:1;" d="M 11.898438 7.757812 L 11.898438 25.144531 L 12.039062 25.144531 L 12.039062 7.757812 L 11.898438 7.757812 Z M 11.898438 7.757812 "/>
<path style=" stroke:none;fill-rule:nonzero;fill:rgb(98.771649%,98.74876%,98.754864%);fill-opacity:1;" d="M 12.039062 7.757812 L 12.039062 25.144531 L 12.179688 25.144531 L 12.179688 7.757812 L 12.039062 7.757812 Z M 12.039062 7.757812 "/>
<path style=" stroke:none;fill-rule:nonzero;fill:rgb(98.385595%,98.356603%,98.362707%);fill-opacity:1;" d="M 12.179688 7.757812 L 12.179688 25.144531 L 12.324219 25.144531 L 12.324219 7.757812 L 12.179688 7.757812 Z M 12.179688 7.757812 "/>
<path style=" stroke:none;fill-rule:nonzero;fill:rgb(97.999542%,97.962921%,97.972076%);fill-opacity:1;" d="M 12.324219 7.757812 L 12.324219 25.144531 L 12.464844 25.144531 L 12.464844 7.757812 L 12.324219 7.757812 Z M 12.324219 7.757812 "/>
<path style=" stroke:none;fill-rule:nonzero;fill:rgb(97.615015%,97.57229%,97.582971%);fill-opacity:1;" d="M 12.464844 7.757812 L 12.464844 25.144531 L 12.605469 25.144531 L 12.605469 7.757812 L 12.464844 7.757812 Z M 12.464844 7.757812 "/>
<path style=" stroke:none;fill-rule:nonzero;fill:rgb(97.230488%,97.178607%,97.19234%);fill-opacity:1;" d="M 12.605469 7.757812 L 12.605469 25.144531 L 12.75 25.144531 L 12.75 7.757812 L 12.605469 7.757812 Z M 12.605469 7.757812 "/>
<path style=" stroke:none;fill-rule:nonzero;fill:rgb(96.84596%,96.787976%,96.801709%);fill-opacity:1;" d="M 12.75 7.757812 L 12.75 25.144531 L 12.890625 25.144531 L 12.890625 7.757812 L 12.75 7.757812 Z M 12.75 7.757812 "/>
<path style=" stroke:none;fill-rule:nonzero;fill:rgb(96.459907%,96.395819%,96.411078%);fill-opacity:1;" d="M 12.890625 7.757812 L 12.890625 25.144531 L 13.03125 25.144531 L 13.03125 7.757812 L 12.890625 7.757812 Z M 12.890625 7.757812 "/>
<path style=" stroke:none;fill-rule:nonzero;fill:rgb(96.07538%,96.003662%,96.021973%);fill-opacity:1;" d="M 13.03125 7.757812 L 13.03125 25.144531 L 13.171875 25.144531 L 13.171875 7.757812 L 13.03125 7.757812 Z M 13.03125 7.757812 "/>
<path style=" stroke:none;fill-rule:nonzero;fill:rgb(95.689326%,95.611505%,95.631342%);fill-opacity:1;" d="M 13.171875 7.757812 L 13.171875 25.144531 L 13.316406 25.144531 L 13.316406 7.757812 L 13.171875 7.757812 Z M 13.171875 7.757812 "/>
<path style=" stroke:none;fill-rule:nonzero;fill:rgb(95.304799%,95.219348%,95.240711%);fill-opacity:1;" d="M 13.316406 7.757812 L 13.316406 25.144531 L 13.457031 25.144531 L 13.457031 7.757812 L 13.316406 7.757812 Z M 13.316406 7.757812 "/>
<path style=" stroke:none;fill-rule:nonzero;fill:rgb(94.918746%,94.827192%,94.85008%);fill-opacity:1;" d="M 13.457031 7.757812 L 13.457031 25.144531 L 13.597656 25.144531 L 13.597656 7.757812 L 13.457031 7.757812 Z M 13.457031 7.757812 "/>
<path style=" stroke:none;fill-rule:nonzero;fill:rgb(94.535744%,94.435035%,94.460975%);fill-opacity:1;" d="M 13.597656 7.757812 L 13.597656 25.144531 L 13.738281 25.144531 L 13.738281 7.757812 L 13.597656 7.757812 Z M 13.597656 7.757812 "/>
<path style=" stroke:none;fill-rule:nonzero;fill:rgb(94.149691%,94.042878%,94.068818%);fill-opacity:1;" d="M 13.738281 7.757812 L 13.738281 25.144531 L 13.882812 25.144531 L 13.882812 7.757812 L 13.738281 7.757812 Z M 13.738281 7.757812 "/>
<path style=" stroke:none;fill-rule:nonzero;fill:rgb(93.765164%,93.652247%,93.679713%);fill-opacity:1;" d="M 13.882812 7.757812 L 13.882812 25.144531 L 14.023438 25.144531 L 14.023438 7.757812 L 13.882812 7.757812 Z M 13.882812 7.757812 "/>
<path style=" stroke:none;fill-rule:nonzero;fill:rgb(93.37911%,93.258564%,93.289082%);fill-opacity:1;" d="M 14.023438 7.757812 L 14.023438 25.144531 L 14.164062 25.144531 L 14.164062 7.757812 L 14.023438 7.757812 Z M 14.023438 7.757812 "/>
<path style=" stroke:none;fill-rule:nonzero;fill:rgb(92.994583%,92.867933%,92.898451%);fill-opacity:1;" d="M 14.164062 7.757812 L 14.164062 25.144531 L 14.308594 25.144531 L 14.308594 7.757812 L 14.164062 7.757812 Z M 14.164062 7.757812 "/>
<path style=" stroke:none;fill-rule:nonzero;fill:rgb(92.60853%,92.47425%,92.50782%);fill-opacity:1;" d="M 14.308594 7.757812 L 14.308594 25.144531 L 14.449219 25.144531 L 14.449219 7.757812 L 14.308594 7.757812 Z M 14.308594 7.757812 "/>
<path style=" stroke:none;fill-rule:nonzero;fill:rgb(92.224002%,92.082094%,92.117189%);fill-opacity:1;" d="M 14.449219 7.757812 L 14.449219 25.144531 L 14.589844 25.144531 L 14.589844 7.757812 L 14.449219 7.757812 Z M 14.449219 7.757812 "/>
<path style=" stroke:none;fill-rule:nonzero;fill:rgb(91.837949%,91.689937%,91.726558%);fill-opacity:1;" d="M 14.589844 7.757812 L 14.589844 25.144531 L 14.730469 25.144531 L 14.730469 7.757812 L 14.589844 7.757812 Z M 14.589844 7.757812 "/>
<path style=" stroke:none;fill-rule:nonzero;fill:rgb(91.453422%,91.29778%,91.335927%);fill-opacity:1;" d="M 14.730469 7.757812 L 14.730469 25.144531 L 14.875 25.144531 L 14.875 7.757812 L 14.730469 7.757812 Z M 14.730469 7.757812 "/>
<path style=" stroke:none;fill-rule:nonzero;fill:rgb(91.067369%,90.905623%,90.945296%);fill-opacity:1;" d="M 14.875 7.757812 L 14.875 25.144531 L 15.015625 25.144531 L 15.015625 7.757812 L 14.875 7.757812 Z M 14.875 7.757812 "/>
<path style=" stroke:none;fill-rule:nonzero;fill:rgb(90.682841%,90.513466%,90.556191%);fill-opacity:1;" d="M 15.015625 7.757812 L 15.015625 25.144531 L 15.15625 25.144531 L 15.15625 7.757812 L 15.015625 7.757812 Z M 15.015625 7.757812 "/>
<path style=" stroke:none;fill-rule:nonzero;fill:rgb(90.298314%,90.121309%,90.16556%);fill-opacity:1;" d="M 15.15625 7.757812 L 15.15625 25.144531 L 15.296875 25.144531 L 15.296875 7.757812 L 15.15625 7.757812 Z M 15.15625 7.757812 "/>
<path style=" stroke:none;fill-rule:nonzero;fill:rgb(89.913787%,89.729152%,89.774929%);fill-opacity:1;" d="M 15.296875 7.757812 L 15.296875 25.144531 L 15.441406 25.144531 L 15.441406 7.757812 L 15.296875 7.757812 Z M 15.296875 7.757812 "/>
<path style=" stroke:none;fill-rule:nonzero;fill:rgb(89.527733%,89.336995%,89.384298%);fill-opacity:1;" d="M 15.441406 7.757812 L 15.441406 25.144531 L 15.582031 25.144531 L 15.582031 7.757812 L 15.441406 7.757812 Z M 15.441406 7.757812 "/>
<path style=" stroke:none;fill-rule:nonzero;fill:rgb(89.143206%,88.944839%,88.995193%);fill-opacity:1;" d="M 15.582031 7.757812 L 15.582031 25.144531 L 15.722656 25.144531 L 15.722656 7.757812 L 15.582031 7.757812 Z M 15.582031 7.757812 "/>
<path style=" stroke:none;fill-rule:nonzero;fill:rgb(88.757153%,88.552682%,88.603037%);fill-opacity:1;" d="M 15.722656 7.757812 L 15.722656 25.144531 L 15.867188 25.144531 L 15.867188 7.757812 L 15.722656 7.757812 Z M 15.722656 7.757812 "/>
<path style=" stroke:none;fill-rule:nonzero;fill:rgb(88.372625%,88.162051%,88.213931%);fill-opacity:1;" d="M 15.867188 7.757812 L 15.867188 25.144531 L 16.007812 25.144531 L 16.007812 7.757812 L 15.867188 7.757812 Z M 15.867188 7.757812 "/>
<path style=" stroke:none;fill-rule:nonzero;fill:rgb(87.986572%,87.768368%,87.823301%);fill-opacity:1;" d="M 16.007812 7.757812 L 16.007812 25.144531 L 16.148438 25.144531 L 16.148438 7.757812 L 16.007812 7.757812 Z M 16.007812 7.757812 "/>
<path style=" stroke:none;fill-rule:nonzero;fill:rgb(87.603571%,87.377737%,87.43267%);fill-opacity:1;" d="M 16.148438 7.757812 L 16.148438 25.144531 L 16.289062 25.144531 L 16.289062 7.757812 L 16.148438 7.757812 Z M 16.148438 7.757812 "/>
<path style=" stroke:none;fill-rule:nonzero;fill:rgb(87.217517%,86.984054%,87.042039%);fill-opacity:1;" d="M 16.289062 7.757812 L 16.289062 25.144531 L 16.433594 25.144531 L 16.433594 7.757812 L 16.289062 7.757812 Z M 16.289062 7.757812 "/>
<path style=" stroke:none;fill-rule:nonzero;fill:rgb(86.83299%,86.593423%,86.652934%);fill-opacity:1;" d="M 16.433594 7.757812 L 16.433594 25.144531 L 16.574219 25.144531 L 16.574219 7.757812 L 16.433594 7.757812 Z M 16.433594 7.757812 "/>
<path style=" stroke:none;fill-rule:nonzero;fill:rgb(86.446937%,86.199741%,86.262303%);fill-opacity:1;" d="M 16.574219 7.757812 L 16.574219 25.144531 L 16.714844 25.144531 L 16.714844 7.757812 L 16.574219 7.757812 Z M 16.574219 7.757812 "/>
<path style=" stroke:none;fill-rule:nonzero;fill:rgb(86.060883%,85.807584%,85.870146%);fill-opacity:1;" d="M 16.714844 7.757812 L 16.714844 25.144531 L 16.855469 25.144531 L 16.855469 7.757812 L 16.714844 7.757812 Z M 16.714844 7.757812 "/>
<path style=" stroke:none;fill-rule:nonzero;fill:rgb(85.676356%,85.415427%,85.479515%);fill-opacity:1;" d="M 16.855469 7.757812 L 16.855469 25.144531 L 17 25.144531 L 17 7.757812 L 16.855469 7.757812 Z M 16.855469 7.757812 "/>
<path style=" stroke:none;fill-rule:nonzero;fill:rgb(85.291829%,85.02327%,85.09041%);fill-opacity:1;" d="M 17 7.757812 L 17 25.144531 L 17.140625 25.144531 L 17.140625 7.757812 L 17 7.757812 Z M 17 7.757812 "/>
<path style=" stroke:none;fill-rule:nonzero;fill:rgb(84.905776%,84.631113%,84.699779%);fill-opacity:1;" d="M 17.140625 7.757812 L 17.140625 25.144531 L 17.28125 25.144531 L 17.28125 7.757812 L 17.140625 7.757812 Z M 17.140625 7.757812 "/>
<path style=" stroke:none;fill-rule:nonzero;fill:rgb(84.521248%,84.238956%,84.309148%);fill-opacity:1;" d="M 17.28125 7.757812 L 17.28125 25.144531 L 17.425781 25.144531 L 17.425781 7.757812 L 17.28125 7.757812 Z M 17.28125 7.757812 "/>
<path style=" stroke:none;fill-rule:nonzero;fill:rgb(84.135195%,83.846799%,83.918517%);fill-opacity:1;" d="M 17.425781 7.757812 L 17.425781 25.144531 L 17.566406 25.144531 L 17.566406 7.757812 L 17.425781 7.757812 Z M 17.425781 7.757812 "/>
<path style=" stroke:none;fill-rule:nonzero;fill:rgb(83.750668%,83.456168%,83.529412%);fill-opacity:1;" d="M 17.566406 7.757812 L 17.566406 25.144531 L 17.707031 25.144531 L 17.707031 7.757812 L 17.566406 7.757812 Z M 17.566406 7.757812 "/>
<path style=" stroke:none;fill-rule:nonzero;fill:rgb(83.36614%,83.062486%,83.137255%);fill-opacity:1;" d="M 17.707031 7.757812 L 17.707031 25.144531 L 17.847656 25.144531 L 17.847656 7.757812 L 17.707031 7.757812 Z M 17.707031 7.757812 "/>
<path style=" stroke:none;fill-rule:nonzero;fill:rgb(82.981613%,82.671855%,82.74815%);fill-opacity:1;" d="M 17.847656 7.757812 L 17.847656 25.144531 L 17.992188 25.144531 L 17.992188 7.757812 L 17.847656 7.757812 Z M 17.847656 7.757812 "/>
<path style=" stroke:none;fill-rule:nonzero;fill:rgb(82.59556%,82.278172%,82.357519%);fill-opacity:1;" d="M 17.992188 7.757812 L 17.992188 25.144531 L 18.132812 25.144531 L 18.132812 7.757812 L 17.992188 7.757812 Z M 17.992188 7.757812 "/>
<path style=" stroke:none;fill-rule:nonzero;fill:rgb(82.211032%,81.887541%,81.968414%);fill-opacity:1;" d="M 18.132812 7.757812 L 18.132812 25.144531 L 18.273438 25.144531 L 18.273438 7.757812 L 18.132812 7.757812 Z M 18.132812 7.757812 "/>
<path style=" stroke:none;fill-rule:nonzero;fill:rgb(81.824979%,81.493858%,81.576257%);fill-opacity:1;" d="M 18.273438 7.757812 L 18.273438 25.144531 L 18.414062 25.144531 L 18.414062 7.757812 L 18.273438 7.757812 Z M 18.273438 7.757812 "/>
<path style=" stroke:none;fill-rule:nonzero;fill:rgb(81.440452%,81.103227%,81.187152%);fill-opacity:1;" d="M 18.414062 7.757812 L 18.414062 25.144531 L 18.558594 25.144531 L 18.558594 7.757812 L 18.414062 7.757812 Z M 18.414062 7.757812 "/>
<path style=" stroke:none;fill-rule:nonzero;fill:rgb(81.055924%,80.71107%,80.796521%);fill-opacity:1;" d="M 18.558594 7.757812 L 18.558594 25.144531 L 18.699219 25.144531 L 18.699219 7.757812 L 18.558594 7.757812 Z M 18.558594 7.757812 "/>
<path style=" stroke:none;fill-rule:nonzero;fill:rgb(80.671397%,80.318914%,80.40589%);fill-opacity:1;" d="M 18.699219 7.757812 L 18.699219 25.144531 L 18.839844 25.144531 L 18.839844 7.757812 L 18.699219 7.757812 Z M 18.699219 7.757812 "/>
<path style=" stroke:none;fill-rule:nonzero;fill:rgb(80.285344%,79.926757%,80.015259%);fill-opacity:1;" d="M 18.839844 7.757812 L 18.839844 25.144531 L 18.984375 25.144531 L 18.984375 7.757812 L 18.839844 7.757812 Z M 18.839844 7.757812 "/>
<path style=" stroke:none;fill-rule:nonzero;fill:rgb(79.89929%,79.533074%,79.624628%);fill-opacity:1;" d="M 18.984375 7.757812 L 18.984375 25.144531 L 19.125 25.144531 L 19.125 7.757812 L 18.984375 7.757812 Z M 18.984375 7.757812 "/>
<path style=" stroke:none;fill-rule:nonzero;fill:rgb(79.513237%,79.140917%,79.233997%);fill-opacity:1;" d="M 19.125 7.757812 L 19.125 25.144531 L 19.265625 25.144531 L 19.265625 7.757812 L 19.125 7.757812 Z M 19.125 7.757812 "/>
<path style=" stroke:none;fill-rule:nonzero;fill:rgb(79.12871%,78.74876%,78.843366%);fill-opacity:1;" d="M 19.265625 7.757812 L 19.265625 25.144531 L 19.40625 25.144531 L 19.40625 7.757812 L 19.265625 7.757812 Z M 19.265625 7.757812 "/>
<path style=" stroke:none;fill-rule:nonzero;fill:rgb(78.744182%,78.356603%,78.452735%);fill-opacity:1;" d="M 19.40625 7.757812 L 19.40625 25.144531 L 19.550781 25.144531 L 19.550781 7.757812 L 19.40625 7.757812 Z M 19.40625 7.757812 "/>
<path style=" stroke:none;fill-rule:nonzero;fill:rgb(78.359655%,77.965972%,78.06363%);fill-opacity:1;" d="M 19.550781 7.757812 L 19.550781 25.144531 L 19.691406 25.144531 L 19.691406 7.757812 L 19.550781 7.757812 Z M 19.550781 7.757812 "/>
<path style=" stroke:none;fill-rule:nonzero;fill:rgb(77.973602%,77.57229%,77.671473%);fill-opacity:1;" d="M 19.691406 7.757812 L 19.691406 25.144531 L 19.832031 25.144531 L 19.832031 7.757812 L 19.691406 7.757812 Z M 19.691406 7.757812 "/>
<path style=" stroke:none;fill-rule:nonzero;fill:rgb(77.589075%,77.181659%,77.282368%);fill-opacity:1;" d="M 19.832031 7.757812 L 19.832031 25.144531 L 19.972656 25.144531 L 19.972656 7.757812 L 19.832031 7.757812 Z M 19.832031 7.757812 "/>
<path style=" stroke:none;fill-rule:nonzero;fill:rgb(77.203021%,76.787976%,76.891737%);fill-opacity:1;" d="M 19.972656 7.757812 L 19.972656 25.144531 L 20.117188 25.144531 L 20.117188 7.757812 L 19.972656 7.757812 Z M 19.972656 7.757812 "/>
<path style=" stroke:none;fill-rule:nonzero;fill:rgb(76.818494%,76.397345%,76.502632%);fill-opacity:1;" d="M 20.117188 7.757812 L 20.117188 25.144531 L 20.257812 25.144531 L 20.257812 7.757812 L 20.117188 7.757812 Z M 20.117188 7.757812 "/>
<path style=" stroke:none;fill-rule:nonzero;fill:rgb(76.433967%,76.005188%,76.110475%);fill-opacity:1;" d="M 20.257812 7.757812 L 20.257812 25.144531 L 20.398438 25.144531 L 20.398438 7.757812 L 20.257812 7.757812 Z M 20.257812 7.757812 "/>
<path style=" stroke:none;fill-rule:nonzero;fill:rgb(76.049439%,75.613031%,75.72137%);fill-opacity:1;" d="M 20.398438 7.757812 L 20.398438 25.144531 L 20.542969 25.144531 L 20.542969 7.757812 L 20.398438 7.757812 Z M 20.398438 7.757812 "/>
<path style=" stroke:none;fill-rule:nonzero;fill:rgb(75.663386%,75.220874%,75.330739%);fill-opacity:1;" d="M 20.542969 7.757812 L 20.542969 25.144531 L 20.683594 25.144531 L 20.683594 7.757812 L 20.542969 7.757812 Z M 20.542969 7.757812 "/>
<path style=" stroke:none;fill-rule:nonzero;fill:rgb(75.278859%,74.828717%,74.940108%);fill-opacity:1;" d="M 20.683594 7.757812 L 20.683594 25.144531 L 20.824219 25.144531 L 20.824219 7.757812 L 20.683594 7.757812 Z M 20.683594 7.757812 "/>
<path style=" stroke:none;fill-rule:nonzero;fill:rgb(74.892805%,74.436561%,74.549477%);fill-opacity:1;" d="M 20.824219 7.757812 L 20.824219 25.144531 L 20.964844 25.144531 L 20.964844 7.757812 L 20.824219 7.757812 Z M 20.824219 7.757812 "/>
<path style=" stroke:none;fill-rule:nonzero;fill:rgb(74.508278%,74.044404%,74.160372%);fill-opacity:1;" d="M 20.964844 7.757812 L 20.964844 25.144531 L 21.109375 25.144531 L 21.109375 7.757812 L 20.964844 7.757812 Z M 20.964844 7.757812 "/>
<path style=" stroke:none;fill-rule:nonzero;fill:rgb(74.123751%,73.652247%,73.769741%);fill-opacity:1;" d="M 21.109375 7.757812 L 21.109375 25.144531 L 21.25 25.144531 L 21.25 7.757812 L 21.109375 7.757812 Z M 21.109375 7.757812 "/>
<path style=" stroke:none;fill-rule:nonzero;fill:rgb(73.739223%,73.26009%,73.37911%);fill-opacity:1;" d="M 21.25 7.757812 L 21.25 25.144531 L 21.390625 25.144531 L 21.390625 7.757812 L 21.25 7.757812 Z M 21.25 7.757812 "/>
<path style=" stroke:none;fill-rule:nonzero;fill:rgb(73.35317%,72.867933%,72.988479%);fill-opacity:1;" d="M 21.390625 7.757812 L 21.390625 25.144531 L 21.53125 25.144531 L 21.53125 7.757812 L 21.390625 7.757812 Z M 21.390625 7.757812 "/>
<path style=" stroke:none;fill-rule:nonzero;fill:rgb(72.967117%,72.475776%,72.597848%);fill-opacity:1;" d="M 21.53125 7.757812 L 21.53125 25.144531 L 21.675781 25.144531 L 21.675781 7.757812 L 21.53125 7.757812 Z M 21.53125 7.757812 "/>
<path style=" stroke:none;fill-rule:nonzero;fill:rgb(72.581064%,72.082094%,72.207218%);fill-opacity:1;" d="M 21.675781 7.757812 L 21.675781 25.144531 L 21.816406 25.144531 L 21.816406 7.757812 L 21.675781 7.757812 Z M 21.675781 7.757812 "/>
<path style=" stroke:none;fill-rule:nonzero;fill:rgb(72.196536%,71.691463%,71.816587%);fill-opacity:1;" d="M 21.816406 7.757812 L 21.816406 25.144531 L 21.957031 25.144531 L 21.957031 7.757812 L 21.816406 7.757812 Z M 21.816406 7.757812 "/>
<path style=" stroke:none;fill-rule:nonzero;fill:rgb(71.812009%,71.29778%,71.425956%);fill-opacity:1;" d="M 21.957031 7.757812 L 21.957031 25.144531 L 22.101562 25.144531 L 22.101562 7.757812 L 21.957031 7.757812 Z M 21.957031 7.757812 "/>
<path style=" stroke:none;fill-rule:nonzero;fill:rgb(71.427481%,70.907149%,71.036851%);fill-opacity:1;" d="M 22.101562 7.757812 L 22.101562 25.144531 L 22.242188 25.144531 L 22.242188 7.757812 L 22.101562 7.757812 Z M 22.101562 7.757812 "/>
<path style=" stroke:none;fill-rule:nonzero;fill:rgb(71.041428%,70.514992%,70.644694%);fill-opacity:1;" d="M 22.242188 7.757812 L 22.242188 25.144531 L 22.382812 25.144531 L 22.382812 7.757812 L 22.242188 7.757812 Z M 22.242188 7.757812 "/>
<path style=" stroke:none;fill-rule:nonzero;fill:rgb(70.656901%,70.122835%,70.255589%);fill-opacity:1;" d="M 22.382812 7.757812 L 22.382812 25.144531 L 22.523438 25.144531 L 22.523438 7.757812 L 22.382812 7.757812 Z M 22.382812 7.757812 "/>
<path style=" stroke:none;fill-rule:nonzero;fill:rgb(70.270848%,69.730678%,69.864958%);fill-opacity:1;" d="M 22.523438 7.757812 L 22.523438 25.144531 L 22.667969 25.144531 L 22.667969 7.757812 L 22.523438 7.757812 Z M 22.523438 7.757812 "/>
<path style=" stroke:none;fill-rule:nonzero;fill:rgb(69.88632%,69.338521%,69.474327%);fill-opacity:1;" d="M 22.667969 7.757812 L 22.667969 25.144531 L 22.808594 25.144531 L 22.808594 7.757812 L 22.667969 7.757812 Z M 22.667969 7.757812 "/>
<path style=" stroke:none;fill-rule:nonzero;fill:rgb(69.501793%,68.946365%,69.083696%);fill-opacity:1;" d="M 22.808594 7.757812 L 22.808594 25.144531 L 22.949219 25.144531 L 22.949219 7.757812 L 22.808594 7.757812 Z M 22.808594 7.757812 "/>
<path style=" stroke:none;fill-rule:nonzero;fill:rgb(69.117266%,68.554208%,68.694591%);fill-opacity:1;" d="M 22.949219 7.757812 L 22.949219 25.144531 L 23.089844 25.144531 L 23.089844 7.757812 L 22.949219 7.757812 Z M 22.949219 7.757812 "/>
<path style=" stroke:none;fill-rule:nonzero;fill:rgb(68.731212%,68.162051%,68.30396%);fill-opacity:1;" d="M 23.089844 7.757812 L 23.089844 25.144531 L 23.234375 25.144531 L 23.234375 7.757812 L 23.089844 7.757812 Z M 23.089844 7.757812 "/>
<path style=" stroke:none;fill-rule:nonzero;fill:rgb(68.346685%,67.769894%,67.913329%);fill-opacity:1;" d="M 23.234375 7.757812 L 23.234375 25.144531 L 23.375 25.144531 L 23.375 7.757812 L 23.234375 7.757812 Z M 23.234375 7.757812 "/>
<path style=" stroke:none;fill-rule:nonzero;fill:rgb(67.960632%,67.377737%,67.522698%);fill-opacity:1;" d="M 23.375 7.757812 L 23.375 25.144531 L 23.515625 25.144531 L 23.515625 7.757812 L 23.375 7.757812 Z M 23.375 7.757812 "/>
<path style=" stroke:none;fill-rule:nonzero;fill:rgb(67.576104%,66.987106%,67.133593%);fill-opacity:1;" d="M 23.515625 7.757812 L 23.515625 25.144531 L 23.660156 25.144531 L 23.660156 7.757812 L 23.515625 7.757812 Z M 23.515625 7.757812 "/>
<path style=" stroke:none;fill-rule:nonzero;fill:rgb(67.191577%,66.593423%,66.741436%);fill-opacity:1;" d="M 23.660156 7.757812 L 23.660156 25.144531 L 23.800781 25.144531 L 23.800781 7.757812 L 23.660156 7.757812 Z M 23.660156 7.757812 "/>
<path style=" stroke:none;fill-rule:nonzero;fill:rgb(66.805524%,66.201266%,66.350805%);fill-opacity:1;" d="M 23.800781 7.757812 L 23.800781 25.144531 L 23.941406 25.144531 L 23.941406 7.757812 L 23.800781 7.757812 Z M 23.800781 7.757812 "/>
<path style=" stroke:none;fill-rule:nonzero;fill:rgb(66.419471%,65.80911%,65.960174%);fill-opacity:1;" d="M 23.941406 7.757812 L 23.941406 25.144531 L 24.082031 25.144531 L 24.082031 7.757812 L 23.941406 7.757812 Z M 23.941406 7.757812 "/>
<path style=" stroke:none;fill-rule:nonzero;fill:rgb(66.034943%,65.416953%,65.571069%);fill-opacity:1;" d="M 24.082031 7.757812 L 24.082031 25.144531 L 24.226562 25.144531 L 24.226562 7.757812 L 24.082031 7.757812 Z M 24.082031 7.757812 "/>
<path style=" stroke:none;fill-rule:nonzero;fill:rgb(65.64889%,65.024796%,65.178912%);fill-opacity:1;" d="M 24.226562 7.757812 L 24.226562 25.144531 L 24.367188 25.144531 L 24.367188 7.757812 L 24.226562 7.757812 Z M 24.226562 7.757812 "/>
<path style=" stroke:none;fill-rule:nonzero;fill:rgb(65.264363%,64.632639%,64.789807%);fill-opacity:1;" d="M 24.367188 7.757812 L 24.367188 25.144531 L 24.507812 25.144531 L 24.507812 7.757812 L 24.367188 7.757812 Z M 24.367188 7.757812 "/>
<path style=" stroke:none;fill-rule:nonzero;fill:rgb(64.879835%,64.240482%,64.399176%);fill-opacity:1;" d="M 24.507812 7.757812 L 24.507812 25.144531 L 24.648438 25.144531 L 24.648438 7.757812 L 24.507812 7.757812 Z M 24.507812 7.757812 "/>
<path style=" stroke:none;fill-rule:nonzero;fill:rgb(64.495308%,63.848325%,64.008545%);fill-opacity:1;" d="M 24.648438 7.757812 L 24.648438 25.144531 L 24.792969 25.144531 L 24.792969 7.757812 L 24.648438 7.757812 Z M 24.648438 7.757812 "/>
<path style=" stroke:none;fill-rule:nonzero;fill:rgb(64.109255%,63.456168%,63.617914%);fill-opacity:1;" d="M 24.792969 7.757812 L 24.792969 25.144531 L 24.933594 25.144531 L 24.933594 7.757812 L 24.792969 7.757812 Z M 24.792969 7.757812 "/>
<path style=" stroke:none;fill-rule:nonzero;fill:rgb(63.724727%,63.064012%,63.228809%);fill-opacity:1;" d="M 24.933594 7.757812 L 24.933594 25.144531 L 25.074219 25.144531 L 25.074219 7.757812 L 24.933594 7.757812 Z M 24.933594 7.757812 "/>
<path style=" stroke:none;fill-rule:nonzero;fill:rgb(63.338674%,62.671855%,62.838178%);fill-opacity:1;" d="M 25.074219 7.757812 L 25.074219 25.144531 L 25.21875 25.144531 L 25.21875 7.757812 L 25.074219 7.757812 Z M 25.074219 7.757812 "/>
<path style=" stroke:none;fill-rule:nonzero;fill:rgb(62.954147%,62.281224%,62.447547%);fill-opacity:1;" d="M 25.21875 7.757812 L 25.21875 25.144531 L 25.359375 25.144531 L 25.359375 7.757812 L 25.21875 7.757812 Z M 25.21875 7.757812 "/>
<path style=" stroke:none;fill-rule:nonzero;fill:rgb(62.569619%,61.887541%,62.056916%);fill-opacity:1;" d="M 25.359375 7.757812 L 25.359375 25.144531 L 25.5 25.144531 L 25.5 7.757812 L 25.359375 7.757812 Z M 25.359375 7.757812 "/>
<path style=" stroke:none;fill-rule:nonzero;fill:rgb(62.185092%,61.49691%,61.667811%);fill-opacity:1;" d="M 25.5 7.757812 L 25.5 25.144531 L 25.640625 25.144531 L 25.640625 7.757812 L 25.5 7.757812 Z M 25.5 7.757812 "/>
<path style=" stroke:none;fill-rule:nonzero;fill:rgb(61.799039%,61.103227%,61.27718%);fill-opacity:1;" d="M 25.640625 7.757812 L 25.640625 25.144531 L 25.785156 25.144531 L 25.785156 7.757812 L 25.640625 7.757812 Z M 25.640625 7.757812 "/>
<path style=" stroke:none;fill-rule:nonzero;fill:rgb(61.414511%,60.712596%,60.886549%);fill-opacity:1;" d="M 25.785156 7.757812 L 25.785156 25.144531 L 25.925781 25.144531 L 25.925781 7.757812 L 25.785156 7.757812 Z M 25.785156 7.757812 "/>
<path style=" stroke:none;fill-rule:nonzero;fill:rgb(61.028458%,60.318914%,60.495918%);fill-opacity:1;" d="M 25.925781 7.757812 L 25.925781 25.144531 L 26.066406 25.144531 L 26.066406 7.757812 L 25.925781 7.757812 Z M 25.925781 7.757812 "/>
<path style=" stroke:none;fill-rule:nonzero;fill:rgb(60.642405%,59.926757%,60.105287%);fill-opacity:1;" d="M 26.066406 7.757812 L 26.066406 25.144531 L 26.207031 25.144531 L 26.207031 7.757812 L 26.066406 7.757812 Z M 26.066406 7.757812 "/>
<path style=" stroke:none;fill-rule:nonzero;fill:rgb(60.257877%,59.5346%,59.71313%);fill-opacity:1;" d="M 26.207031 7.757812 L 26.207031 25.144531 L 26.351562 25.144531 L 26.351562 7.757812 L 26.207031 7.757812 Z M 26.207031 7.757812 "/>
<path style=" stroke:none;fill-rule:nonzero;fill:rgb(59.87335%,59.142443%,59.324025%);fill-opacity:1;" d="M 26.351562 7.757812 L 26.351562 25.144531 L 26.492188 25.144531 L 26.492188 7.757812 L 26.351562 7.757812 Z M 26.351562 7.757812 "/>
<path style=" stroke:none;fill-rule:nonzero;fill:rgb(59.487297%,58.750286%,58.933394%);fill-opacity:1;" d="M 26.492188 7.757812 L 26.492188 25.144531 L 26.632812 25.144531 L 26.632812 7.757812 L 26.492188 7.757812 Z M 26.492188 7.757812 "/>
<path style=" stroke:none;fill-rule:nonzero;fill:rgb(59.10277%,58.358129%,58.544289%);fill-opacity:1;" d="M 26.632812 7.757812 L 26.632812 25.144531 L 26.777344 25.144531 L 26.777344 7.757812 L 26.632812 7.757812 Z M 26.632812 7.757812 "/>
<path style=" stroke:none;fill-rule:nonzero;fill:rgb(58.716716%,57.965972%,58.152132%);fill-opacity:1;" d="M 26.777344 7.757812 L 26.777344 25.144531 L 26.917969 25.144531 L 26.917969 7.757812 L 26.777344 7.757812 Z M 26.777344 7.757812 "/>
<path style=" stroke:none;fill-rule:nonzero;fill:rgb(58.332189%,57.575341%,57.763027%);fill-opacity:1;" d="M 26.917969 7.757812 L 26.917969 25.144531 L 27.058594 25.144531 L 27.058594 7.757812 L 26.917969 7.757812 Z M 26.917969 7.757812 "/>
<path style=" stroke:none;fill-rule:nonzero;fill:rgb(57.947662%,57.181659%,57.372396%);fill-opacity:1;" d="M 27.058594 7.757812 L 27.058594 25.144531 L 27.199219 25.144531 L 27.199219 7.757812 L 27.058594 7.757812 Z M 27.058594 7.757812 "/>
<path style=" stroke:none;fill-rule:nonzero;fill:rgb(57.563134%,56.791028%,56.981765%);fill-opacity:1;" d="M 27.199219 7.757812 L 27.199219 25.144531 L 27.34375 25.144531 L 27.34375 7.757812 L 27.199219 7.757812 Z M 27.199219 7.757812 "/>
<path style=" stroke:none;fill-rule:nonzero;fill:rgb(57.177081%,56.397345%,56.591135%);fill-opacity:1;" d="M 27.34375 7.757812 L 27.34375 25.144531 L 27.484375 25.144531 L 27.484375 7.757812 L 27.34375 7.757812 Z M 27.34375 7.757812 "/>
<path style=" stroke:none;fill-rule:nonzero;fill:rgb(56.792554%,56.006714%,56.202029%);fill-opacity:1;" d="M 27.484375 7.757812 L 27.484375 25.144531 L 27.625 25.144531 L 27.625 7.757812 L 27.484375 7.757812 Z M 27.484375 7.757812 "/>
<path style=" stroke:none;fill-rule:nonzero;fill:rgb(56.4065%,55.613031%,55.811398%);fill-opacity:1;" d="M 27.625 7.757812 L 27.625 25.144531 L 27.765625 25.144531 L 27.765625 7.757812 L 27.625 7.757812 Z M 27.625 7.757812 "/>
<path style=" stroke:none;fill-rule:nonzero;fill:rgb(56.021973%,55.2224%,55.420768%);fill-opacity:1;" d="M 27.765625 7.757812 L 27.765625 25.144531 L 27.910156 25.144531 L 27.910156 7.757812 L 27.765625 7.757812 Z M 27.765625 7.757812 "/>
<path style=" stroke:none;fill-rule:nonzero;fill:rgb(55.637446%,54.830243%,55.030137%);fill-opacity:1;" d="M 27.910156 7.757812 L 27.910156 25.144531 L 28.050781 25.144531 L 28.050781 7.757812 L 27.910156 7.757812 Z M 27.910156 7.757812 "/>
<path style=" stroke:none;fill-rule:nonzero;fill:rgb(55.252918%,54.438087%,54.641032%);fill-opacity:1;" d="M 28.050781 7.757812 L 28.050781 25.144531 L 28.191406 25.144531 L 28.191406 7.757812 L 28.050781 7.757812 Z M 28.050781 7.757812 "/>
<path style=" stroke:none;fill-rule:nonzero;fill:rgb(54.866865%,54.04593%,54.248875%);fill-opacity:1;" d="M 28.191406 7.757812 L 28.191406 25.144531 L 28.335938 25.144531 L 28.335938 7.757812 L 28.191406 7.757812 Z M 28.191406 7.757812 "/>
<path style=" stroke:none;fill-rule:nonzero;fill:rgb(54.480812%,53.652247%,53.858244%);fill-opacity:1;" d="M 28.335938 7.757812 L 28.335938 25.144531 L 28.476562 25.144531 L 28.476562 7.757812 L 28.335938 7.757812 Z M 28.335938 7.757812 "/>
<path style=" stroke:none;fill-rule:nonzero;fill:rgb(54.094759%,53.26009%,53.467613%);fill-opacity:1;" d="M 28.476562 7.757812 L 28.476562 25.144531 L 28.617188 25.144531 L 28.617188 7.757812 L 28.476562 7.757812 Z M 28.476562 7.757812 "/>
<path style=" stroke:none;fill-rule:nonzero;fill:rgb(53.711757%,52.867933%,53.078508%);fill-opacity:1;" d="M 28.617188 7.757812 L 28.617188 25.144531 L 28.757812 25.144531 L 28.757812 7.757812 L 28.617188 7.757812 Z M 28.617188 7.757812 "/>
<path style=" stroke:none;fill-rule:nonzero;fill:rgb(53.325704%,52.475776%,52.686351%);fill-opacity:1;" d="M 28.757812 7.757812 L 28.757812 25.144531 L 28.902344 25.144531 L 28.902344 7.757812 L 28.757812 7.757812 Z M 28.757812 7.757812 "/>
<path style=" stroke:none;fill-rule:nonzero;fill:rgb(52.941176%,52.085145%,52.297246%);fill-opacity:1;" d="M 28.902344 7.757812 L 28.902344 25.144531 L 29.042969 25.144531 L 29.042969 7.757812 L 28.902344 7.757812 Z M 28.902344 7.757812 "/>
<path style=" stroke:none;fill-rule:nonzero;fill:rgb(52.555123%,51.691463%,51.906615%);fill-opacity:1;" d="M 29.042969 7.757812 L 29.042969 25.144531 L 29.183594 25.144531 L 29.183594 7.757812 L 29.042969 7.757812 Z M 29.042969 7.757812 "/>
<path style=" stroke:none;fill-rule:nonzero;fill:rgb(52.170596%,51.300832%,51.515984%);fill-opacity:1;" d="M 29.183594 7.757812 L 29.183594 25.144531 L 29.324219 25.144531 L 29.324219 7.757812 L 29.183594 7.757812 Z M 29.183594 7.757812 "/>
<path style=" stroke:none;fill-rule:nonzero;fill:rgb(51.784543%,50.907149%,51.125353%);fill-opacity:1;" d="M 29.324219 7.757812 L 29.324219 25.144531 L 29.46875 25.144531 L 29.46875 7.757812 L 29.324219 7.757812 Z M 29.324219 7.757812 "/>
<path style=" stroke:none;fill-rule:nonzero;fill:rgb(51.400015%,50.516518%,50.736248%);fill-opacity:1;" d="M 29.46875 7.757812 L 29.46875 25.144531 L 29.609375 25.144531 L 29.609375 7.757812 L 29.46875 7.757812 Z M 29.46875 7.757812 "/>
<path style=" stroke:none;fill-rule:nonzero;fill:rgb(51.015488%,50.122835%,50.345617%);fill-opacity:1;" d="M 29.609375 7.757812 L 29.609375 25.144531 L 29.75 25.144531 L 29.75 7.757812 L 29.609375 7.757812 Z M 29.609375 7.757812 "/>
<path style=" stroke:none;fill-rule:nonzero;fill:rgb(50.630961%,49.732204%,49.954986%);fill-opacity:1;" d="M 29.75 7.757812 L 29.75 25.144531 L 29.894531 25.144531 L 29.894531 7.757812 L 29.75 7.757812 Z M 29.75 7.757812 "/>
<path style=" stroke:none;fill-rule:nonzero;fill:rgb(50.244907%,49.340047%,49.564355%);fill-opacity:1;" d="M 29.894531 7.757812 L 29.894531 25.144531 L 30.035156 25.144531 L 30.035156 7.757812 L 29.894531 7.757812 Z M 29.894531 7.757812 "/>
<path style=" stroke:none;fill-rule:nonzero;fill:rgb(49.86038%,48.94789%,49.17525%);fill-opacity:1;" d="M 30.035156 7.757812 L 30.035156 25.144531 L 30.175781 25.144531 L 30.175781 7.757812 L 30.035156 7.757812 Z M 30.035156 7.757812 "/>
<path style=" stroke:none;fill-rule:nonzero;fill:rgb(49.474327%,48.555734%,48.783093%);fill-opacity:1;" d="M 30.175781 7.757812 L 30.175781 25.144531 L 30.316406 25.144531 L 30.316406 7.757812 L 30.175781 7.757812 Z M 30.175781 7.757812 "/>
<path style=" stroke:none;fill-rule:nonzero;fill:rgb(49.089799%,48.163577%,48.393988%);fill-opacity:1;" d="M 30.316406 7.757812 L 30.316406 25.144531 L 30.460938 25.144531 L 30.460938 7.757812 L 30.316406 7.757812 Z M 30.316406 7.757812 "/>
<path style=" stroke:none;fill-rule:nonzero;fill:rgb(48.705272%,47.77142%,48.003357%);fill-opacity:1;" d="M 30.460938 7.757812 L 30.460938 25.144531 L 30.601562 25.144531 L 30.601562 7.757812 L 30.460938 7.757812 Z M 30.460938 7.757812 "/>
<path style=" stroke:none;fill-rule:nonzero;fill:rgb(48.319219%,47.379263%,47.612726%);fill-opacity:1;" d="M 30.601562 7.757812 L 30.601562 25.144531 L 30.742188 25.144531 L 30.742188 7.757812 L 30.601562 7.757812 Z M 30.601562 7.757812 "/>
<path style=" stroke:none;fill-rule:nonzero;fill:rgb(47.933165%,46.98558%,47.220569%);fill-opacity:1;" d="M 30.742188 7.757812 L 30.742188 25.144531 L 30.882812 25.144531 L 30.882812 7.757812 L 30.742188 7.757812 Z M 30.742188 7.757812 "/>
<path style=" stroke:none;fill-rule:nonzero;fill:rgb(47.548638%,46.594949%,46.831464%);fill-opacity:1;" d="M 30.882812 7.757812 L 30.882812 25.144531 L 31.027344 25.144531 L 31.027344 7.757812 L 30.882812 7.757812 Z M 30.882812 7.757812 "/>
<path style=" stroke:none;fill-rule:nonzero;fill:rgb(47.162585%,46.201266%,46.440833%);fill-opacity:1;" d="M 31.027344 7.757812 L 31.027344 25.144531 L 31.167969 25.144531 L 31.167969 7.757812 L 31.027344 7.757812 Z M 31.027344 7.757812 "/>
<path style=" stroke:none;fill-rule:nonzero;fill:rgb(46.779583%,45.810636%,46.050202%);fill-opacity:1;" d="M 31.167969 7.757812 L 31.167969 25.144531 L 31.308594 25.144531 L 31.308594 7.757812 L 31.167969 7.757812 Z M 31.167969 7.757812 "/>
<path style=" stroke:none;fill-rule:nonzero;fill:rgb(46.39353%,45.416953%,45.659571%);fill-opacity:1;" d="M 31.308594 7.757812 L 31.308594 25.144531 L 31.453125 25.144531 L 31.453125 7.757812 L 31.308594 7.757812 Z M 31.308594 7.757812 "/>
<path style=" stroke:none;fill-rule:nonzero;fill:rgb(46.009003%,45.026322%,45.270466%);fill-opacity:1;" d="M 31.453125 7.757812 L 31.453125 25.144531 L 31.59375 25.144531 L 31.59375 7.757812 L 31.453125 7.757812 Z M 31.453125 7.757812 "/>
<path style=" stroke:none;fill-rule:nonzero;fill:rgb(45.62295%,44.634165%,44.879835%);fill-opacity:1;" d="M 31.59375 7.757812 L 31.59375 25.144531 L 31.734375 25.144531 L 31.734375 7.757812 L 31.59375 7.757812 Z M 31.59375 7.757812 "/>
<path style=" stroke:none;fill-rule:nonzero;fill:rgb(45.238422%,44.242008%,44.489204%);fill-opacity:1;" d="M 31.734375 7.757812 L 31.734375 25.144531 L 31.875 25.144531 L 31.875 7.757812 L 31.734375 7.757812 Z M 31.734375 7.757812 "/>
<path style=" stroke:none;fill-rule:nonzero;fill:rgb(44.852369%,43.849851%,44.098573%);fill-opacity:1;" d="M 31.875 7.757812 L 31.875 25.144531 L 32.019531 25.144531 L 32.019531 7.757812 L 31.875 7.757812 Z M 31.875 7.757812 "/>
<path style=" stroke:none;fill-rule:nonzero;fill:rgb(44.469368%,43.457694%,43.709468%);fill-opacity:1;" d="M 32.019531 7.757812 L 32.019531 25.144531 L 32.160156 25.144531 L 32.160156 7.757812 L 32.019531 7.757812 Z M 32.019531 7.757812 "/>
<path style=" stroke:none;fill-rule:nonzero;fill:rgb(44.083314%,43.065537%,43.317311%);fill-opacity:1;" d="M 32.160156 7.757812 L 32.160156 25.144531 L 32.300781 25.144531 L 32.300781 7.757812 L 32.160156 7.757812 Z M 32.160156 7.757812 "/>
<path style=" stroke:none;fill-rule:nonzero;fill:rgb(43.698787%,42.673381%,42.928206%);fill-opacity:1;" d="M 32.300781 7.757812 L 32.300781 25.144531 L 32.441406 25.144531 L 32.441406 7.757812 L 32.300781 7.757812 Z M 32.300781 7.757812 "/>
<path style=" stroke:none;fill-rule:nonzero;fill:rgb(43.312734%,42.281224%,42.537575%);fill-opacity:1;" d="M 32.441406 7.757812 L 32.441406 25.144531 L 32.585938 25.144531 L 32.585938 7.757812 L 32.441406 7.757812 Z M 32.441406 7.757812 "/>
<path style=" stroke:none;fill-rule:nonzero;fill:rgb(42.928206%,41.889067%,42.14847%);fill-opacity:1;" d="M 32.585938 7.757812 L 32.585938 25.144531 L 32.726562 25.144531 L 32.726562 7.757812 L 32.585938 7.757812 Z M 32.585938 7.757812 "/>
<path style=" stroke:none;fill-rule:nonzero;fill:rgb(42.542153%,41.49691%,41.756313%);fill-opacity:1;" d="M 32.726562 7.757812 L 32.726562 25.144531 L 32.867188 25.144531 L 32.867188 7.757812 L 32.726562 7.757812 Z M 32.726562 7.757812 "/>
<path style=" stroke:none;fill-rule:nonzero;fill:rgb(42.157626%,41.106279%,41.367208%);fill-opacity:1;" d="M 32.867188 7.757812 L 32.867188 25.144531 L 33.011719 25.144531 L 33.011719 7.757812 L 32.867188 7.757812 Z M 32.867188 7.757812 "/>
<path style=" stroke:none;fill-rule:nonzero;fill:rgb(41.773098%,40.712596%,40.976577%);fill-opacity:1;" d="M 33.011719 7.757812 L 33.011719 25.144531 L 33.152344 25.144531 L 33.152344 7.757812 L 33.011719 7.757812 Z M 33.011719 7.757812 "/>
<path style=" stroke:none;fill-rule:nonzero;fill:rgb(41.387045%,40.320439%,40.585946%);fill-opacity:1;" d="M 33.152344 7.757812 L 33.152344 25.144531 L 33.292969 25.144531 L 33.292969 7.757812 L 33.152344 7.757812 Z M 33.152344 7.757812 "/>
<path style=" stroke:none;fill-rule:nonzero;fill:rgb(41.000992%,39.926757%,40.19379%);fill-opacity:1;" d="M 33.292969 7.757812 L 33.292969 25.144531 L 33.433594 25.144531 L 33.433594 7.757812 L 33.292969 7.757812 Z M 33.292969 7.757812 "/>
<path style=" stroke:none;fill-rule:nonzero;fill:rgb(40.616464%,39.536126%,39.804685%);fill-opacity:1;" d="M 33.433594 7.757812 L 33.433594 25.144531 L 33.578125 25.144531 L 33.578125 7.757812 L 33.433594 7.757812 Z M 33.433594 7.757812 "/>
<path style=" stroke:none;fill-rule:nonzero;fill:rgb(40.230411%,39.143969%,39.414054%);fill-opacity:1;" d="M 33.578125 7.757812 L 33.578125 25.144531 L 33.71875 25.144531 L 33.71875 7.757812 L 33.578125 7.757812 Z M 33.578125 7.757812 "/>
<path style=" stroke:none;fill-rule:nonzero;fill:rgb(39.84741%,38.751812%,39.023423%);fill-opacity:1;" d="M 33.71875 7.757812 L 33.71875 25.144531 L 33.859375 25.144531 L 33.859375 7.757812 L 33.71875 7.757812 Z M 33.71875 7.757812 "/>
<path style=" stroke:none;fill-rule:nonzero;fill:rgb(39.461357%,38.359655%,38.632792%);fill-opacity:1;" d="M 33.859375 7.757812 L 33.859375 25.144531 L 34 25.144531 L 34 7.757812 L 33.859375 7.757812 Z M 33.859375 7.757812 "/>
<path style=" stroke:none;fill-rule:nonzero;fill:rgb(39.076829%,37.967498%,38.243687%);fill-opacity:1;" d="M 34 7.757812 L 34 25.144531 L 34.144531 25.144531 L 34.144531 7.757812 L 34 7.757812 Z M 34 7.757812 "/>
<path style=" stroke:none;fill-rule:nonzero;fill:rgb(38.690776%,37.575341%,37.853056%);fill-opacity:1;" d="M 34.144531 7.757812 L 34.144531 25.144531 L 34.285156 25.144531 L 34.285156 7.757812 L 34.144531 7.757812 Z M 34.144531 7.757812 "/>
<path style=" stroke:none;fill-rule:nonzero;fill:rgb(38.306249%,37.183185%,37.462425%);fill-opacity:1;" d="M 34.285156 7.757812 L 34.285156 25.144531 L 34.425781 25.144531 L 34.425781 7.757812 L 34.285156 7.757812 Z M 34.285156 7.757812 "/>
<path style=" stroke:none;fill-rule:nonzero;fill:rgb(37.920195%,36.791028%,37.071794%);fill-opacity:1;" d="M 34.425781 7.757812 L 34.425781 25.144531 L 34.570312 25.144531 L 34.570312 7.757812 L 34.425781 7.757812 Z M 34.425781 7.757812 "/>
<path style=" stroke:none;fill-rule:nonzero;fill:rgb(37.537194%,36.400397%,36.682689%);fill-opacity:1;" d="M 34.570312 7.757812 L 34.570312 25.144531 L 34.710938 25.144531 L 34.710938 7.757812 L 34.570312 7.757812 Z M 34.570312 7.757812 "/>
<path style=" stroke:none;fill-rule:nonzero;fill:rgb(37.151141%,36.006714%,36.290532%);fill-opacity:1;" d="M 34.710938 7.757812 L 34.710938 25.144531 L 34.851562 25.144531 L 34.851562 7.757812 L 34.710938 7.757812 Z M 34.710938 7.757812 "/>
<path style=" stroke:none;fill-rule:nonzero;fill:rgb(36.766613%,35.616083%,35.901427%);fill-opacity:1;" d="M 34.851562 7.757812 L 34.851562 25.144531 L 34.992188 25.144531 L 34.992188 7.757812 L 34.851562 7.757812 Z M 34.851562 7.757812 "/>
<path style=" stroke:none;fill-rule:nonzero;fill:rgb(36.38056%,35.2224%,35.510796%);fill-opacity:1;" d="M 34.992188 7.757812 L 34.992188 25.144531 L 35.136719 25.144531 L 35.136719 7.757812 L 34.992188 7.757812 Z M 34.992188 7.757812 "/>
<path style=" stroke:none;fill-rule:nonzero;fill:rgb(35.996033%,34.831769%,35.120165%);fill-opacity:1;" d="M 35.136719 7.757812 L 35.136719 25.144531 L 35.277344 25.144531 L 35.277344 7.757812 L 35.136719 7.757812 Z M 35.136719 7.757812 "/>
<path style=" stroke:none;fill-rule:nonzero;fill:rgb(35.609979%,34.438087%,34.729534%);fill-opacity:1;" d="M 35.277344 7.757812 L 35.277344 25.144531 L 35.417969 25.144531 L 35.417969 7.757812 L 35.277344 7.757812 Z M 35.277344 7.757812 "/>
<path style=" stroke:none;fill-rule:nonzero;fill:rgb(35.225452%,34.04593%,34.338903%);fill-opacity:1;" d="M 35.417969 7.757812 L 35.417969 25.144531 L 35.558594 25.144531 L 35.558594 7.757812 L 35.417969 7.757812 Z M 35.417969 7.757812 "/>
<path style=" stroke:none;fill-rule:nonzero;fill:rgb(34.839399%,33.653773%,33.948272%);fill-opacity:1;" d="M 35.558594 7.757812 L 35.558594 25.144531 L 35.703125 25.144531 L 35.703125 7.757812 L 35.558594 7.757812 Z M 35.558594 7.757812 "/>
<path style=" stroke:none;fill-rule:nonzero;fill:rgb(34.454871%,33.261616%,33.557641%);fill-opacity:1;" d="M 35.703125 7.757812 L 35.703125 25.144531 L 35.84375 25.144531 L 35.84375 7.757812 L 35.703125 7.757812 Z M 35.703125 7.757812 "/>
<path style=" stroke:none;fill-rule:nonzero;fill:rgb(34.068818%,32.869459%,33.16701%);fill-opacity:1;" d="M 35.84375 7.757812 L 35.84375 25.144531 L 35.984375 25.144531 L 35.984375 7.757812 L 35.84375 7.757812 Z M 35.84375 7.757812 "/>
<path style=" stroke:none;fill-rule:nonzero;fill:rgb(33.684291%,32.477302%,32.777905%);fill-opacity:1;" d="M 35.984375 7.757812 L 35.984375 25.144531 L 36.128906 25.144531 L 36.128906 7.757812 L 35.984375 7.757812 Z M 35.984375 7.757812 "/>
<path style=" stroke:none;fill-rule:nonzero;fill:rgb(33.298238%,32.085145%,32.387274%);fill-opacity:1;" d="M 36.128906 7.757812 L 36.128906 25.144531 L 36.269531 25.144531 L 36.269531 7.757812 L 36.128906 7.757812 Z M 36.128906 7.757812 "/>
<path style=" stroke:none;fill-rule:nonzero;fill:rgb(32.915236%,31.692988%,31.996643%);fill-opacity:1;" d="M 36.269531 7.757812 L 36.269531 25.144531 L 36.410156 25.144531 L 36.410156 7.757812 L 36.269531 7.757812 Z M 36.269531 7.757812 "/>
<path style=" stroke:none;fill-rule:nonzero;fill:rgb(32.529183%,31.300832%,31.606012%);fill-opacity:1;" d="M 36.410156 7.757812 L 36.410156 25.144531 L 36.550781 25.144531 L 36.550781 7.757812 L 36.410156 7.757812 Z M 36.410156 7.757812 "/>
<path style=" stroke:none;fill-rule:nonzero;fill:rgb(32.144656%,30.910201%,31.216907%);fill-opacity:1;" d="M 36.550781 7.757812 L 36.550781 25.144531 L 36.695312 25.144531 L 36.695312 7.757812 L 36.550781 7.757812 Z M 36.550781 7.757812 "/>
<path style=" stroke:none;fill-rule:nonzero;fill:rgb(31.758602%,30.516518%,30.82475%);fill-opacity:1;" d="M 36.695312 7.757812 L 36.695312 25.144531 L 36.835938 25.144531 L 36.835938 7.757812 L 36.695312 7.757812 Z M 36.695312 7.757812 "/>
<path style=" stroke:none;fill-rule:nonzero;fill:rgb(31.374075%,30.125887%,30.435645%);fill-opacity:1;" d="M 36.835938 7.757812 L 36.835938 25.144531 L 36.976562 25.144531 L 36.976562 7.757812 L 36.835938 7.757812 Z M 36.835938 7.757812 "/>
<path style=" stroke:none;fill-rule:nonzero;fill:rgb(30.988022%,29.732204%,30.045014%);fill-opacity:1;" d="M 36.976562 7.757812 L 36.976562 25.144531 L 37.117188 25.144531 L 37.117188 7.757812 L 36.976562 7.757812 Z M 36.976562 7.757812 "/>
</g>
<path style=" stroke:none;fill-rule:nonzero;fill:rgb(70.000763%,70.000763%,70.000763%);fill-opacity:1;" d="M 18.984375 14.8125 C 29 14.8125 37.117188 11.65625 37.117188 7.757812 C 37.117188 3.863281 29 0.707031 18.984375 0.707031 C 8.96875 0.707031 0.847656 3.863281 0.847656 7.757812 C 0.847656 11.65625 8.96875 14.8125 18.984375 14.8125 "/>
<path style=" stroke:none;fill-rule:nonzero;fill:rgb(100%,100%,100%);fill-opacity:1;" d="M 15.011719 4.933594 L 16.53125 7.214844 L 10.789062 8.539062 L 12.042969 7.496094 L 3.167969 5.976562 L 5.394531 4.308594 L 13.960938 5.757812 L 15.011719 4.933594 "/>
<g clip-path="url(#clip2)" clip-rule="nonzero">
<path style=" stroke:none;fill-rule:nonzero;fill:rgb(0%,0%,0%);fill-opacity:1;" d="M 10.789062 9.230469 L 12.042969 8.183594 L 12.042969 7.488281 L 10.9375 7.902344 L 10.039062 8.734375 L 10.789062 9.230469 "/>
<path style=" stroke:none;fill-rule:nonzero;fill:rgb(0%,0%,0%);fill-opacity:1;" d="M 17.015625 7.351562 L 15.566406 4.933594 L 14.804688 4.726562 L 13.90625 5.417969 L 5.414062 3.96875 L 2.71875 5.902344 L 3.167969 6.667969 L 5.394531 5 L 13.960938 6.449219 L 15.011719 5.625 L 16.53125 7.902344 L 17.015625 7.351562 "/>
</g>
<path style=" stroke:none;fill-rule:nonzero;fill:rgb(100%,100%,100%);fill-opacity:1;" d="M 23.09375 10.460938 L 22.058594 8.109375 L 27.234375 7.074219 L 26.339844 7.878906 L 34.972656 9.355469 L 32.898438 11.011719 L 24.316406 9.402344 L 23.09375 10.460938 "/>
<g clip-path="url(#clip3)" clip-rule="nonzero">
<path style=" stroke:none;fill-rule:nonzero;fill:rgb(0%,0%,0%);fill-opacity:1;" d="M 22.058594 8.941406 L 27.234375 7.902344 L 27.789062 7.007812 L 27.164062 6.589844 L 21.433594 7.902344 L 22.058594 8.941406 "/>
<path style=" stroke:none;fill-rule:nonzero;fill:rgb(0%,0%,0%);fill-opacity:1;" d="M 35.386719 9.078125 L 27.375 7.558594 L 26.339844 7.972656 L 26.339844 8.710938 L 34.972656 10.183594 L 35.386719 9.078125 "/>
</g>
<path style=" stroke:none;fill-rule:nonzero;fill:rgb(100%,100%,100%);fill-opacity:1;" d="M 20.261719 3.691406 L 26.0625 2.101562 L 26.132812 4.589844 L 24.679688 4.3125 L 21.851562 6.660156 L 19.148438 6.265625 L 22.070312 3.96875 L 20.261719 3.691406 "/>
<g clip-path="url(#clip4)" clip-rule="nonzero">
<path style=" stroke:none;fill-rule:nonzero;fill:rgb(0%,0%,0%);fill-opacity:1;" d="M 20.539062 4.3125 L 26.269531 2.722656 L 26.683594 2.171875 L 26.199219 1.621094 L 19.570312 3.484375 L 20.539062 4.3125 "/>
<path style=" stroke:none;fill-rule:nonzero;fill:rgb(0%,0%,0%);fill-opacity:1;" d="M 22.058594 3.96875 L 22.058594 4.796875 L 19.019531 7.144531 L 18.742188 5.96875 L 20.949219 4.242188 L 22.058594 3.96875 "/>
</g>
<path style=" stroke:none;fill-rule:nonzero;fill:rgb(100%,100%,100%);fill-opacity:1;" d="M 17.773438 12.601562 L 12.25 13.636719 L 12.042969 11.082031 L 13.632812 11.425781 L 16.671875 8.828125 L 19.363281 9.285156 L 16.117188 12.117188 L 17.773438 12.601562 "/>
<g clip-path="url(#clip5)" clip-rule="nonzero">
<path style=" stroke:none;fill-rule:nonzero;fill:rgb(0%,0%,0%);fill-opacity:1;" d="M 11.492188 10.460938 L 11.492188 11.839844 L 13.632812 12.253906 L 16.671875 9.65625 L 19.363281 10.113281 L 20.125 9.078125 L 16.53125 8.386719 L 13.492188 10.941406 L 11.492188 10.460938 "/>
<path style=" stroke:none;fill-rule:nonzero;fill:rgb(0%,0%,0%);fill-opacity:1;" d="M 17.914062 11.910156 L 16.117188 12.117188 L 16.117188 12.945312 L 17.773438 13.429688 L 18.742188 12.601562 L 17.914062 11.910156 "/>
</g>
<path style=" stroke:none;fill-rule:nonzero;fill:rgb(0%,0%,0%);fill-opacity:1;" d="M 27.140625 20.304688 C 27.140625 22.570312 23.566406 24.410156 19.164062 24.410156 C 14.757812 24.410156 11.183594 22.570312 11.183594 20.304688 C 11.183594 18.039062 14.757812 16.199219 19.164062 16.199219 C 23.566406 16.199219 27.140625 18.039062 27.140625 20.304688 "/>
<path style=" stroke:none;fill-rule:nonzero;fill:rgb(100%,100%,100%);fill-opacity:1;" d="M 14.273438 20.964844 L 16.742188 18.496094 L 15.535156 17.289062 L 19.261719 17.027344 L 19.054688 20.808594 L 17.738281 19.496094 L 15.273438 21.964844 L 14.273438 20.964844 "/>
<path style=" stroke:none;fill-rule:nonzero;fill:rgb(100%,100%,100%);fill-opacity:1;" d="M 18.710938 22.957031 L 21.175781 20.488281 L 19.96875 19.28125 L 23.691406 19.019531 L 23.484375 22.800781 L 22.171875 21.488281 L 19.707031 23.953125 L 18.710938 22.957031 "/>
</g>
</svg>
