<?xml version="1.0" encoding="iso-8859-1"?>
<!DOCTYPE svg PUBLIC "-//W3C//DTD SVG 1.1//EN" "http://www.w3.org/Graphics/SVG/1.1/DTD/svg11.dtd">
<svg version="1.1" xmlns="http://www.w3.org/2000/svg" xmlns:xlink="http://www.w3.org/1999/xlink" width="128" height="32" viewBox="0 0 128 32">
<g>
	<polygon style="fill-rule:evenodd;clip-rule:evenodd;fill:#59668F;" points="1,12.64 1,32 128,32 128,12.64 105.89,0 23.11,0 	"/>
	<polygon style="fill-rule:evenodd;clip-rule:evenodd;fill:#8E99AC;" points="1,12.64 128,12.64 105.89,0 23.11,0 	"/>
	<polygon style="fill-rule:evenodd;clip-rule:evenodd;fill:#ABC0D7;" points="1,12.64 128,12.64 127.946,13.36 127.684,14 
		127.365,14.48 126.941,14.96 126.201,15.36 125.513,15.68 124.615,15.841 123.556,15.921 5.496,15.921 4.385,15.841 3.486,15.68 
		2.798,15.36 2.058,14.96 1.634,14.48 1.371,14 1.106,13.36 	"/>
	<polygon style="fill-rule:evenodd;clip-rule:evenodd;fill:#49465B;" points="1,32 128,32 127.946,31.361 127.684,30.801 
		127.365,30.241 126.941,29.681 126.201,29.281 125.513,29.041 124.615,28.88 123.556,28.88 5.496,28.88 4.385,28.88 3.486,29.041 
		2.798,29.281 2.058,29.681 1.634,30.241 1.371,30.801 1.106,31.361 	"/>
	<path style="fill-rule:evenodd;clip-rule:evenodd;fill:#49465B;" d="M86.106,21.36l0.266,1.12l0.104,0.96v7.202h0.582V14h-0.952
		V21.36L86.106,21.36z M84.573,19.521l0.528,0.4l0.477,0.4V14h-1.005V19.521L84.573,19.521z M82.933,19.36h0.74h0.266V14h-1.005
		V19.36L82.933,19.36z M81.347,19.36h1.059V14h-1.059V19.36L81.347,19.36z M79.813,19.36h1.005V14h-1.005V19.36L79.813,19.36z
		 M78.227,19.36h0.952V14h-0.952V19.36L78.227,19.36z M76.586,19.36h1.11V14h-1.11V19.36L76.586,19.36z M75.053,19.36h1.006V14
		h-1.006V19.36L75.053,19.36z M73.466,19.36h1.005V14h-1.005V19.36L73.466,19.36z M71.931,19.36h1.005V14h-1.005V19.36L71.931,19.36
		z M70.344,19.36h0.954V14h-0.954V19.36L70.344,19.36z M68.706,19.36h1.002V14h-1.002V19.36L68.706,19.36z M67.17,19.36h1.005V14
		H67.17V19.36L67.17,19.36z M65.584,19.36h1.005V14h-1.005V19.36L65.584,19.36z M63.945,19.36h1.11V14h-1.11V19.36L63.945,19.36z
		 M62.463,19.36h0.952V14h-0.952V19.36L62.463,19.36z M60.823,19.36h1.005V14h-1.005V19.36L60.823,19.36z M59.29,19.36h1.005V14
		H59.29V19.36L59.29,19.36z M57.703,19.36h1.005V14h-1.005V19.36L57.703,19.36z M56.063,19.36h1.005V14h-1.005V19.36L56.063,19.36z
		 M54.582,19.36h0.952V14h-0.952V19.36L54.582,19.36z M52.943,19.36h1.004V14h-1.004V19.36L52.943,19.36z M51.355,19.36h1.058V14
		h-1.058V19.36L51.355,19.36z M49.821,19.36h1.005V14h-1.005V19.36L49.821,19.36z M48.182,19.36h1.005V14h-1.005V19.36L48.182,19.36
		z M46.595,19.36h1.058V14h-1.058V19.36L46.595,19.36z M45.062,19.36h1.005V14h-1.005V19.36L45.062,19.36z M43.475,19.36h0.951V14
		h-0.951V19.36L43.475,19.36z M41.94,19.36h0.952V14H41.94V19.36L41.94,19.36z M40.3,19.521l1.005-0.16V14H40.3V19.521L40.3,19.521z
		 M38.713,21.761l0.424-0.88l0.582-0.879V14h-1.005V21.761L38.713,21.761z M7.189,14v16.642h0.952V14H7.189L7.189,14z M8.723,14
		v16.642h0.952V14H8.723L8.723,14z M10.309,14v16.642h1.005V14H10.309L10.309,14z M11.843,14v16.642h1.059V14H11.843L11.843,14z
		 M13.43,14v16.642h1.005V14H13.43L13.43,14z M15.07,14v16.642h0.951V14H15.07L15.07,14z M16.604,14v16.642h1.058V14H16.604
		L16.604,14z M18.191,14v16.642h1.005V14H18.191L18.191,14z M19.83,14v16.642h0.953V14H19.83L19.83,14z M21.311,14v16.642h1.005V14
		H21.311L21.311,14z M22.951,14v16.642h0.953V14H22.951L22.951,14z M24.539,14v16.642h1.004V14H24.539L24.539,14z M26.072,14v16.642
		h1.005V14H26.072L26.072,14z M27.711,14v16.642h0.953V14H27.711L27.711,14z M29.193,14v16.642h1.111V14H29.193L29.193,14z
		 M30.832,14v16.642h1.005V14H30.832L30.832,14z M32.419,14v16.642h1.005V14H32.419L32.419,14z M33.954,14v16.642h1.057V14H33.954
		L33.954,14z M35.593,14v16.642h0.952V14H35.593L35.593,14z M37.18,14v16.642h1.005V14H37.18L37.18,14z M87.693,14v16.642h1.005V14
		H87.693L87.693,14z M89.334,14v16.642h0.951V14H89.334L89.334,14z M90.867,14v16.642h0.954V14H90.867L90.867,14z M92.454,14v16.642
		h1.005V14H92.454L92.454,14z M93.99,14v16.642h1.056V14H93.99L93.99,14z M95.576,14v16.642h1.005V14H95.576L95.576,14z M97.214,14
		v16.642h0.954V14H97.214L97.214,14z M98.75,14v16.642h1.056V14H98.75L98.75,14z M100.336,14v16.642h1.005V14H100.336L100.336,14z
		 M101.923,14v16.642h1.005V14H101.923L101.923,14z M103.457,14v16.642h1.005V14H103.457L103.457,14z M105.097,14v16.642h0.951V14
		H105.097L105.097,14z M106.683,14v16.642h1.005V14H106.683L106.683,14z M108.216,14v16.642h1.005V14H108.216L108.216,14z
		 M109.857,14v16.642h0.951V14H109.857L109.857,14z M111.339,14v16.642h1.109V14H111.339L111.339,14z M112.977,14v16.642h0.955V14
		H112.977L112.977,14z M114.563,14v16.642h1.005V14H114.563L114.563,14z M116.099,14v16.642h1.056V14H116.099L116.099,14z
		 M117.74,14v16.642h0.951V14H117.74L117.74,14z M119.326,14v16.642h1.005V14H119.326L119.326,14z M120.859,14v16.642h0.951V14
		H120.859L120.859,14z"/>
	<polygon style="fill-rule:evenodd;clip-rule:evenodd;fill:#59668F;" points="122.923,23.6 122.974,23.44 123.082,23.281 
		123.082,23.121 123.186,23.04 123.186,22.88 123.186,22.721 123.186,22.64 123.293,22.48 123.186,22.32 123.186,22.239 
		123.186,21.92 123.186,21.761 123.082,21.681 123.082,21.52 122.974,21.52 122.923,21.36 122.923,21.281 122.816,21.119 
		122.712,20.96 122.658,20.96 122.658,20.881 122.55,20.881 122.446,20.721 122.393,20.721 122.288,20.562 122.288,20.562 
		122.181,20.4 122.023,20.4 121.918,20.32 121.811,20.159 121.757,20.159 121.545,20.001 121.495,20.001 121.283,19.92 
		121.229,19.761 121.018,19.761 120.859,19.601 120.647,19.601 120.594,19.521 120.382,19.36 120.224,19.36 120.12,19.36 
		119.958,19.201 119.747,19.201 119.696,19.04 119.484,19.04 119.431,19.04 119.219,18.96 119.061,18.96 118.954,18.96 
		118.795,18.8 118.691,18.8 118.533,18.8 118.321,18.8 118.267,18.641 118.056,18.641 118.002,18.641 117.791,18.641 117.632,18.56 
		117.528,18.56 117.367,18.56 117.155,18.56 117.104,18.56 116.893,18.56 116.735,18.56 116.574,18.4 116.362,18.4 116.204,18.4 
		115.992,18.4 115.834,18.4 115.729,18.4 115.568,18.4 115.41,18.4 115.199,18.4 115.041,18.4 114.829,18.4 114.67,18.4 
		114.563,18.4 114.405,18.4 114.193,18.4 114.036,18.56 113.931,18.56 113.77,18.56 113.612,18.56 113.507,18.56 113.349,18.56 
		113.242,18.56 113.03,18.641 112.977,18.641 112.872,18.641 112.714,18.641 112.607,18.641 112.502,18.8 112.449,18.8 
		112.344,18.8 112.237,18.8 112.184,18.96 112.079,18.96 111.971,18.96 111.867,19.04 111.813,19.04 111.709,19.04 111.602,19.201 
		111.602,19.201 111.551,19.36 111.443,19.36 111.339,19.521 111.286,19.521 111.178,19.601 111.073,19.601 111.073,19.761 
		111.02,19.761 110.916,19.92 110.808,19.92 110.808,20.001 110.704,20.001 110.704,20.159 110.65,20.159 110.65,20.32 
		110.546,20.4 110.546,20.4 110.438,20.562 110.438,20.562 110.385,20.721 110.385,20.721 110.28,20.881 110.28,20.96 
		110.173,20.96 110.173,21.119 110.173,21.281 110.122,21.36 110.122,21.36 110.122,21.52 110.122,21.681 110.015,21.681 
		110.015,21.761 110.015,21.92 110.015,21.92 110.015,22.08 110.015,22.239 110.015,22.239 110.015,22.32 110.015,22.32 
		110.015,22.48 110.015,22.48 110.015,22.64 110.015,22.64 110.015,22.721 110.015,22.88 110.015,22.88 110.015,23.04 
		110.015,23.121 110.015,23.121 110.122,23.281 110.122,23.44 110.122,23.44 110.122,23.6 110.173,23.681 110.173,23.681 
		110.173,23.84 110.28,24 110.28,24.082 110.385,24.082 110.385,24.241 110.438,24.241 110.438,24.4 110.546,24.481 110.546,24.481 
		110.65,24.641 110.65,24.641 110.704,24.801 110.704,24.801 110.808,24.961 110.808,24.961 110.916,25.042 111.02,25.042 
		111.073,25.201 111.073,25.201 111.178,25.36 111.286,25.44 111.339,25.44 111.443,25.602 111.551,25.602 111.602,25.761 
		111.602,25.761 111.709,25.761 111.813,25.921 111.867,25.921 111.971,25.921 112.079,26 112.184,26 112.237,26 112.344,26.161 
		112.449,26.161 112.502,26.161 112.607,26.161 112.714,26.161 112.872,26.321 112.977,26.321 113.03,26.321 113.242,26.321 
		113.349,26.321 113.507,26.4 113.612,26.4 113.77,26.4 113.931,26.4 114.036,26.4 114.193,26.4 114.405,26.4 114.563,26.4 
		114.67,26.4 114.829,26.56 115.041,26.56 115.199,26.56 115.41,26.56 115.568,26.56 115.729,26.56 115.834,26.56 115.992,26.4 
		116.204,26.4 116.362,26.4 116.574,26.4 116.735,26.4 116.893,26.4 117.104,26.4 117.155,26.4 117.367,26.4 117.528,26.321 
		117.632,26.321 117.791,26.321 118.002,26.321 118.056,26.321 118.267,26.161 118.321,26.161 118.533,26.161 118.691,26.161 
		118.795,26 118.954,26 119.061,26 119.219,25.921 119.431,25.921 119.484,25.921 119.696,25.761 119.747,25.761 119.958,25.761 
		120.12,25.602 120.224,25.602 120.382,25.44 120.594,25.44 120.647,25.36 120.859,25.36 121.018,25.201 121.229,25.042 
		121.283,25.042 121.495,24.961 121.545,24.961 121.757,24.801 121.811,24.641 121.918,24.641 122.023,24.481 122.181,24.481 
		122.288,24.4 122.288,24.4 122.393,24.241 122.446,24.082 122.55,24.082 122.658,24 122.658,24 122.712,23.84 122.816,23.84 
		122.923,23.681 	"/>
	<polygon style="fill-rule:evenodd;clip-rule:evenodd;fill:#78A0B6;" points="122.658,23.121 122.658,23.04 122.712,22.721 
		122.712,22.64 122.712,22.239 122.712,22.08 122.658,21.92 122.55,21.681 122.393,21.52 122.288,21.36 122.023,21.119 
		121.811,20.96 121.652,20.881 121.229,20.562 120.859,20.32 120.594,20.159 119.958,19.92 119.696,19.761 119.431,19.761 
		118.795,19.521 118.426,19.521 118.056,19.36 117.74,19.36 117.42,19.201 117.155,19.201 116.574,19.04 116.204,19.04 
		115.834,19.04 115.094,19.04 114.67,19.04 114.193,19.04 113.931,19.201 113.666,19.201 113.4,19.201 112.872,19.36 112.714,19.36 
		112.502,19.521 112.184,19.601 112.079,19.601 111.867,19.761 111.602,19.92 111.551,20.001 111.339,20.159 111.178,20.4 
		111.02,20.562 111.02,20.721 110.808,20.96 110.704,21.119 110.65,21.36 110.546,21.52 110.546,21.681 110.438,21.761 
		110.438,22.08 110.438,22.239 110.438,22.32 110.438,22.64 110.438,22.64 110.438,22.721 110.438,23.04 110.546,23.281 
		110.546,23.44 110.704,23.681 110.808,24 110.916,24.082 111.02,24.241 111.02,24.4 111.178,24.481 111.339,24.641 111.551,24.801 
		111.602,24.961 111.867,25.201 112.079,25.201 112.184,25.36 112.502,25.44 112.714,25.44 112.872,25.602 113.4,25.761 
		113.666,25.761 113.931,25.761 114.67,25.921 115.094,25.921 115.568,25.921 115.834,25.921 116.204,25.761 116.574,25.761 
		117.155,25.761 117.42,25.761 117.74,25.602 118.426,25.44 118.795,25.36 119.166,25.36 119.431,25.201 119.696,25.042 
		119.958,24.961 120.594,24.641 120.859,24.481 121.229,24.4 121.652,24.082 121.811,24 122.023,23.84 122.288,23.6 122.393,23.44 
		122.55,23.281 	"/>
	<polygon style="fill-rule:evenodd;clip-rule:evenodd;fill:#78A0B6;" points="13.166,25.44 13.166,27.68 13.377,27.52 
		25.279,25.761 25.438,25.44 	"/>
	<polygon style="fill-rule:evenodd;clip-rule:evenodd;fill:#49465B;" points="13.166,27.68 25.438,27.68 25.438,25.44 
		25.279,25.761 13.377,27.52 	"/>
	<polygon style="fill-rule:evenodd;clip-rule:evenodd;fill:#59668F;" points="13.377,25.761 13.377,27.52 25.279,27.52 
		25.279,25.761 13.377,25.761 	"/>
	<polygon style="fill-rule:evenodd;clip-rule:evenodd;fill:#49465B;" points="85.895,32 85.895,23.44 85.737,22.239 85.313,21.119 
		84.573,20.4 83.673,20.159 41.306,20.159 40.406,20.4 39.719,21.119 39.242,22.239 39.084,23.44 39.084,32 	"/>
	<polygon style="fill-rule:evenodd;clip-rule:evenodd;fill:#645769;" points="39.772,30.001 39.772,23.681 39.983,22.64 
		40.406,21.681 41.041,20.96 41.729,20.721 83.252,20.721 83.938,20.96 84.678,21.681 84.997,22.64 85.209,23.681 85.209,30.001 	
		"/>
	<polygon style="fill-rule:evenodd;clip-rule:evenodd;fill:#FFFFFF;" points="49.081,25.36 48.922,26 48.447,26.56 47.917,26.56 
		47.494,26 47.389,25.36 47.494,24.481 47.917,24 48.447,24 48.922,24.481 	"/>
	<polygon style="fill-rule:evenodd;clip-rule:evenodd;fill:#FFFFFF;" points="53.207,25.36 53.048,26 52.572,26.56 52.043,26.56 
		51.62,26 51.408,25.36 51.62,24.481 52.043,24 52.572,24 53.048,24.481 	"/>
	<polygon style="fill-rule:evenodd;clip-rule:evenodd;fill:#FFFFFF;" points="57.228,25.36 57.174,26 56.698,26.56 56.169,26.56 
		55.746,26 55.534,25.36 55.746,24.481 56.169,24 56.698,24 57.174,24.481 	"/>
	<polygon style="fill-rule:evenodd;clip-rule:evenodd;fill:#FFFFFF;" points="61.353,25.36 61.194,26 60.717,26.56 60.189,26.56 
		59.766,26 59.554,25.36 59.766,24.481 60.189,24 60.717,24 61.194,24.481 	"/>
	<polygon style="fill-rule:evenodd;clip-rule:evenodd;fill:#FFFFFF;" points="65.479,25.36 65.32,26 64.843,26.56 64.314,26.56 
		63.892,26 63.68,25.36 63.892,24.481 64.314,24 64.843,24 65.32,24.481 	"/>
	<polygon style="fill-rule:evenodd;clip-rule:evenodd;fill:#FFFFFF;" points="69.5,25.36 69.339,26 68.916,26.56 68.333,26.56 
		67.913,26 67.806,25.36 67.913,24.481 68.333,24 68.916,24 69.339,24.481 	"/>
	<polygon style="fill-rule:evenodd;clip-rule:evenodd;fill:#FFFFFF;" points="73.625,25.36 73.466,26 73.043,26.56 72.461,26.56 
		72.038,26 71.826,25.36 72.038,24.481 72.461,24 73.043,24 73.466,24.481 	"/>
	<path style="fill-rule:evenodd;clip-rule:evenodd;fill:#FFFFFF;" d="M111.709,23.6l-0.37-0.561h-0.054l0,0l0,0l0,0V22.88h0.054l0,0
		l0,0l0,0l0,0h0.104l0,0L111.709,23.6L111.709,23.6z M111.286,22.64L111.286,22.64v-0.16l0,0l0,0l0,0l0,0v-0.16l0,0l0,0l0,0l0,0l0,0
		l0,0h0.054l0,0l0,0v0.16l0,0l0.474,0.96L111.286,22.64L111.286,22.64z M111.286,22.08L111.286,22.08L111.286,22.08L111.286,22.08
		L111.286,22.08L111.286,22.08L111.286,22.08v-0.16l0,0l0,0l0,0l0,0h0.054l0,0l0,0l0,0l0,0l0,0l0,0h0.104l0,0l0,0v0.16l0,0
		l0.423,1.36L111.286,22.08L111.286,22.08z M111.443,21.761L111.443,21.761L111.443,21.761L111.443,21.761h-0.104v-0.08l0,0l0,0
		V21.52l0,0h0.104l0,0l0,0l0,0l0,0l0,0h0.107l0,0l0,0v0.162l0,0l0.42,1.6L111.443,21.761L111.443,21.761z M111.602,21.52
		L111.602,21.52h-0.051l0,0l0,0l0,0V21.36l0,0l0,0v-0.079l0,0l0,0h0.051l0,0l0,0l0,0l0,0h0.107l0,0l0,0l0,0v0.079l0,0h0.104
		l0.265,1.92L111.602,21.52L111.602,21.52z M111.813,21.281L111.813,21.281L111.813,21.281L111.813,21.281L111.813,21.281
		L111.813,21.281l-0.104-0.162l0,0l0.104-0.159l0,0l0,0l0,0h0.053l0,0l0,0l0.104,0.159l0,0l0,0v0.162l0,0l0.212,2L111.813,21.281
		L111.813,21.281z M111.971,21.119L111.971,21.119L111.971,21.119L111.971,21.119L111.971,21.119L111.971,21.119L111.971,21.119
		V20.96l0,0l0,0v-0.079l0,0h0.107l0,0l0,0h0.105l0,0l0,0v0.079l0,0l0,0l0,0v0.159l0,0l0,0l0.053,2.002L111.971,21.119
		L111.971,21.119z M112.237,20.96L112.237,20.96v-0.079l0,0l0,0l0,0h0.107l0,0l0,0l0,0l0,0h0.104l0,0l0,0l0,0l0,0l0,0v0.079l0,0
		v0.159l-0.104,2.002L112.237,20.96L112.237,20.96z M112.502,21.119V20.96l0,0l0,0v-0.079l0,0l0,0l0,0l0,0h0.104l0,0l0,0l0,0l0,0
		l0,0h0.107l0,0v0.079l0,0v0.159l0,0l-0.211,2.002V21.119L112.502,21.119z M112.714,21.281v-0.162l0,0l0,0l0,0l0,0V20.96h0.051l0,0
		l0,0h0.107l0,0l0,0l0,0l0,0l0,0l0.104,0.159l0,0l-0.104,0.162l0,0l-0.265,2L112.714,21.281L112.714,21.281z M112.977,21.36
		L112.977,21.36L112.977,21.36L112.977,21.36v-0.079l0,0l0,0l0,0l0,0v-0.162h0.054v0.162l0,0l0,0h0.107l0,0l0,0v0.079l0,0
		l-0.424,1.92L112.977,21.36L112.977,21.36z M113.138,21.681L113.138,21.681L113.138,21.681V21.52l0,0l0,0l0,0l0,0h0.104l0,0l0,0
		l0,0h0.107l0,0v0.162l0,0l0,0l-0.107,0.08l-0.478,1.52L113.138,21.681L113.138,21.681z M113.242,22.08L113.242,22.08L113.242,22.08
		v-0.16l0,0l0,0l0,0h0.107l0,0l0,0h0.051l0,0l0,0l0,0l0,0l0,0v0.16l0,0l0,0l0,0v0.16l-0.528,1.201L113.242,22.08l0.107,0.4v-0.16
		l0,0l0,0l0,0l0,0h0.051l0,0l0,0l0,0l0,0h0.107l0,0l0,0v0.16l0,0l0,0l0,0H113.4l-0.423,0.96l0.373-0.96L113.242,22.08L113.242,22.08
		z M113.349,22.88L113.349,22.88L113.349,22.88L113.349,22.88h0.051l0,0l0,0l0,0v0.159l0,0l0,0v0.082l-0.37,0.479L113.349,22.88
		L113.349,22.88z"/>
	<path style="fill:none;stroke:#FFFFFF;stroke-width:0.2568;stroke-linecap:round;stroke-miterlimit:10;" d="M111.709,23.6
		l-0.37-0.561h-0.054l0,0l0,0l0,0V22.88h0.054l0,0l0,0l0,0l0,0h0.104l0,0L111.709,23.6L111.709,23.6z M111.286,22.64L111.286,22.64
		v-0.16l0,0l0,0l0,0l0,0v-0.16l0,0l0,0l0,0l0,0l0,0l0,0h0.054l0,0l0,0v0.16l0,0l0.474,0.96L111.286,22.64L111.286,22.64z
		 M111.286,22.08L111.286,22.08L111.286,22.08L111.286,22.08L111.286,22.08L111.286,22.08L111.286,22.08v-0.16l0,0l0,0l0,0l0,0
		h0.054l0,0l0,0l0,0l0,0l0,0l0,0h0.104l0,0l0,0v0.16l0,0l0.423,1.36L111.286,22.08L111.286,22.08z M111.443,21.761L111.443,21.761
		L111.443,21.761L111.443,21.761h-0.104v-0.08l0,0l0,0V21.52l0,0h0.104l0,0l0,0l0,0l0,0l0,0h0.107l0,0l0,0v0.162l0,0l0.42,1.6
		L111.443,21.761L111.443,21.761z M111.602,21.52L111.602,21.52h-0.051l0,0l0,0l0,0V21.36l0,0l0,0v-0.079l0,0l0,0h0.051l0,0l0,0l0,0
		l0,0h0.107l0,0l0,0l0,0v0.079l0,0h0.104l0.265,1.92L111.602,21.52L111.602,21.52z M111.813,21.281L111.813,21.281L111.813,21.281
		L111.813,21.281L111.813,21.281L111.813,21.281l-0.104-0.162l0,0l0.104-0.159l0,0l0,0l0,0h0.053l0,0l0,0l0.104,0.159l0,0l0,0v0.162
		l0,0l0.212,2L111.813,21.281L111.813,21.281z M111.971,21.119L111.971,21.119L111.971,21.119L111.971,21.119L111.971,21.119
		L111.971,21.119L111.971,21.119V20.96l0,0l0,0v-0.079l0,0h0.107l0,0l0,0h0.105l0,0l0,0v0.079l0,0l0,0l0,0v0.159l0,0l0,0
		l0.053,2.002L111.971,21.119L111.971,21.119z M112.237,20.96L112.237,20.96v-0.079l0,0l0,0l0,0h0.107l0,0l0,0l0,0l0,0h0.104l0,0
		l0,0l0,0l0,0l0,0v0.079l0,0v0.159l-0.104,2.002L112.237,20.96L112.237,20.96z M112.502,21.119V20.96l0,0l0,0v-0.079l0,0l0,0l0,0
		l0,0h0.104l0,0l0,0l0,0l0,0l0,0h0.107l0,0v0.079l0,0v0.159l0,0l-0.211,2.002V21.119L112.502,21.119z M112.714,21.281v-0.162l0,0
		l0,0l0,0l0,0V20.96h0.051l0,0l0,0h0.107l0,0l0,0l0,0l0,0l0,0l0.104,0.159l0,0l-0.104,0.162l0,0l-0.265,2L112.714,21.281
		L112.714,21.281z M112.977,21.36L112.977,21.36L112.977,21.36L112.977,21.36v-0.079l0,0l0,0l0,0l0,0v-0.162h0.054v0.162l0,0l0,0
		h0.107l0,0l0,0v0.079l0,0l-0.424,1.92L112.977,21.36L112.977,21.36z M113.138,21.681L113.138,21.681L113.138,21.681V21.52l0,0l0,0
		l0,0l0,0h0.104l0,0l0,0l0,0h0.107l0,0v0.162l0,0l0,0l-0.107,0.08l-0.478,1.52L113.138,21.681L113.138,21.681z M113.242,22.08
		L113.242,22.08L113.242,22.08v-0.16l0,0l0,0l0,0h0.107l0,0l0,0h0.051l0,0l0,0l0,0l0,0l0,0v0.16l0,0l0,0l0,0v0.16l-0.528,1.201
		L113.242,22.08l0.107,0.4v-0.16l0,0l0,0l0,0l0,0h0.051l0,0l0,0l0,0l0,0h0.107l0,0l0,0v0.16l0,0l0,0l0,0H113.4l-0.423,0.96
		l0.373-0.96L113.242,22.08L113.242,22.08z M113.349,22.88L113.349,22.88L113.349,22.88L113.349,22.88h0.051l0,0l0,0l0,0v0.159l0,0
		l0,0v0.082l-0.37,0.479L113.349,22.88L113.349,22.88z"/>
	<polygon style="fill-rule:evenodd;clip-rule:evenodd;fill:#FFFFFF;" points="115.199,23.281 114.829,23.281 114.829,22.64 
		114.405,22.64 114.405,23.281 114.036,23.281 114.036,21.52 114.405,21.52 114.405,22.239 114.829,22.239 114.829,21.52 
		115.199,21.52 	"/>
	<polygon style="fill-rule:evenodd;clip-rule:evenodd;fill:#FFFFFF;" points="116.469,23.121 116.469,23.281 116.362,23.281 
		116.257,23.281 116.257,23.281 116.204,23.44 116.099,23.44 116.099,23.44 115.992,23.44 115.941,23.44 115.834,23.44 
		115.834,23.281 115.729,23.281 115.676,23.281 115.676,23.281 115.568,23.121 115.568,23.121 115.464,23.04 115.464,23.04 
		115.464,22.88 115.464,22.721 115.464,22.721 115.464,22.64 115.464,21.52 115.834,21.52 115.834,22.64 115.834,22.721 
		115.834,22.88 115.834,22.88 115.941,22.88 115.992,23.04 115.992,23.04 116.099,22.88 116.204,22.88 116.204,22.88 
		116.204,22.721 116.204,22.721 116.204,22.64 116.204,21.52 116.627,21.52 116.627,22.64 116.627,22.721 116.627,22.88 
		116.574,22.88 116.574,23.04 116.574,23.121 	"/>
	<path style="fill-rule:evenodd;clip-rule:evenodd;fill:#FFFFFF;" d="M117.262,22.64l0.104-0.72l0.161,0.72H117.262L117.262,22.64z
		 M118.056,23.281l-0.423-1.761h-0.477l-0.42,1.761h0.369l0.051-0.241h0.477v0.241H118.056L118.056,23.281z"/>
	<polygon style="fill-rule:evenodd;clip-rule:evenodd;fill:#FFFFFF;" points="119.219,22.64 119.431,21.52 119.747,21.52 
		119.484,23.281 119.166,23.281 118.903,22.239 118.691,23.281 118.321,23.281 118.056,21.52 118.426,21.52 118.533,22.64 
		118.691,21.52 119.061,21.52 	"/>
	<polygon style="fill-rule:evenodd;clip-rule:evenodd;fill:#FFFFFF;" points="120.224,22.88 120.859,22.88 120.859,23.281 
		119.854,23.281 119.854,21.52 120.859,21.52 120.859,21.92 120.224,21.92 120.224,22.239 120.859,22.239 120.224,22.239 
		120.859,22.239 120.859,22.64 120.224,22.64 	"/>
	<polygon style="fill-rule:evenodd;clip-rule:evenodd;fill:#FFFFFF;" points="121.495,21.52 121.495,23.281 121.125,23.281 
		121.125,21.52 121.495,21.52 121.125,21.52 	"/>
</g>
</svg>