<?xml version="1.0" encoding="iso-8859-1"?>
<!DOCTYPE svg PUBLIC "-//W3C//DTD SVG 1.1//EN" "http://www.w3.org/Graphics/SVG/1.1/DTD/svg11.dtd">
<svg version="1.1" xmlns="http://www.w3.org/2000/svg" xmlns:xlink="http://www.w3.org/1999/xlink" width="122" height="36" viewBox="0 0 122 36">
<g>
	<polygon style="fill-rule:evenodd;clip-rule:evenodd;fill:#D4D4D6;" points="0,22.578 122.409,22.578 102.578,1.72 99.469,0 
		22.942,0 19.832,1.72 	"/>
	<path style="fill-rule:evenodd;clip-rule:evenodd;fill:#9EA1A4;" d="M122.409,22.578L102.578,1.72L99.469,0l20.901,22.578H122.409
		L122.409,22.578z M112.416,20.67L95.388,0h-0.611l16.62,20.67H112.416L112.416,20.67z M9.992,20.67h1.071L27.633,0h-0.612
		L9.992,20.67L9.992,20.67z M0,22.578h2.091L22.942,0l-3.11,1.72L0,22.578L0,22.578z"/>
	<polygon style="fill-rule:evenodd;clip-rule:evenodd;fill:#D4D4D6;" points="0,22.578 0,31.49 6.322,34.93 116.138,34.93 
		122.409,31.49 122.409,22.578 117.668,19.701 4.742,19.701 	"/>
	<path style="fill-rule:evenodd;clip-rule:evenodd;fill:#7E8387;" d="M0.969,23.266l4.283-2.596h111.906l4.336,2.596v8.006
		l-5.712,3.283H6.628l-5.659-3.283V23.266L0.969,23.266z M0,22.578v8.912l6.322,3.439h109.816l6.271-3.439v-8.912l-4.741-2.877
		H4.742L0,22.578L0,22.578z"/>
	<polygon style="fill-rule:evenodd;clip-rule:evenodd;fill:#6D7377;" points="11.369,34.555 11.369,34.93 110.685,34.93 
		110.685,34.555 11.369,34.555 	"/>
	<polygon style="fill-rule:evenodd;clip-rule:evenodd;fill:#B4B5B8;" points="11.369,19.701 11.369,20.67 110.685,20.67 
		110.685,19.701 11.369,19.701 	"/>
	<path style="fill-rule:evenodd;clip-rule:evenodd;fill:#5A6165;" d="M11.828,34.93V19.701H4.742L0,22.578v8.912l6.322,3.439H11.828
		L11.828,34.93z M110.581,34.93h5.557l6.271-3.439v-8.912l-4.741-2.877h-7.087V34.93L110.581,34.93z"/>
	<polygon style="fill-rule:evenodd;clip-rule:evenodd;fill:#6D7377;" points="9.431,22.358 4.589,25.58 4.589,29.238 10.809,32.553 
		111.652,32.553 117.872,29.238 117.872,25.58 113.027,22.358 	"/>
	<polygon style="fill-rule:evenodd;clip-rule:evenodd;fill:#944C2A;" points="9.992,22.922 5.251,25.799 5.251,28.957 
		10.859,32.084 111.549,32.084 117.157,28.957 117.157,25.799 112.416,22.922 	"/>
	<polygon style="fill-rule:evenodd;clip-rule:evenodd;fill:#0F688A;" points="10.197,23.141 5.608,25.893 5.608,28.863 
		11.063,31.803 111.396,31.803 116.801,28.863 116.801,25.893 112.212,23.141 	"/>
	<polygon style="fill-rule:evenodd;clip-rule:evenodd;fill:#9EA1A4;" points="11.828,32.084 11.828,32.553 110.581,32.553 
		110.581,32.084 11.828,32.084 	"/>
	<polygon style="fill-rule:evenodd;clip-rule:evenodd;fill:#352B70;" points="11.216,29.488 11.216,31.24 111.192,31.24 
		111.192,29.488 11.216,29.488 	"/>
	<path style="fill-rule:evenodd;clip-rule:evenodd;fill:#7E8387;" d="M22.534,29.646v1.376h3.11v-1.376H22.534L22.534,29.646z
		 M28.244,29.646v1.376h3.11v-1.376H28.244L28.244,29.646z M33.903,29.646v1.376h3.11v-1.376H33.903L33.903,29.646z M39.613,29.646
		v1.376h3.212v-1.376H39.613L39.613,29.646z M45.426,29.646v1.376h3.109v-1.376H45.426L45.426,29.646z M51.084,29.646v1.376h3.11
		v-1.376H51.084L51.084,29.646z M56.794,29.646v1.376h3.11v-1.376H56.794L56.794,29.646z"/>
	<polygon style="fill-rule:evenodd;clip-rule:evenodd;fill:#213B2C;" points="65.004,31.24 64.9,31.771 65.104,32.303 65.512,32.71 
		66.228,33.022 67.091,33.179 67.958,33.179 68.726,32.99 69.337,32.647 69.745,32.178 69.846,31.646 69.693,31.115 69.997,30.614 
		69.949,30.021 69.59,29.488 68.978,29.052 68.114,28.738 67.247,28.707 66.328,28.801 65.512,29.113 64.9,29.582 64.645,30.114 
		64.645,30.708 	"/>
	<polygon style="fill-rule:evenodd;clip-rule:evenodd;fill:#ABAB85;" points="66.328,30.646 66.124,30.428 66.636,30.27 
		67.091,30.333 66.991,30.552 	"/>
	<polygon style="fill-rule:evenodd;clip-rule:evenodd;fill:#AFD3C1;" points="68.57,30.552 68.726,30.333 69.082,30.489 
		69.337,30.803 68.826,30.771 	"/>
	<polygon style="fill-rule:evenodd;clip-rule:evenodd;fill:#213B2C;" points="74.334,31.24 74.229,31.771 74.435,32.303 
		74.842,32.71 75.558,33.022 76.425,33.179 77.288,33.179 78.056,32.99 78.667,32.647 79.074,32.178 79.175,31.646 78.971,31.115 
		79.33,30.614 79.33,30.021 78.971,29.488 78.308,29.052 77.544,28.738 76.577,28.707 75.605,28.801 74.842,29.113 74.229,29.582 
		73.975,30.114 73.975,30.708 	"/>
	<polygon style="fill-rule:evenodd;clip-rule:evenodd;fill:#ABAB85;" points="75.605,30.646 75.558,30.428 76.065,30.27 
		76.425,30.333 76.321,30.552 	"/>
	<polygon style="fill-rule:evenodd;clip-rule:evenodd;fill:#AFD3C1;" points="77.852,30.552 78.056,30.333 78.411,30.489 
		78.667,30.803 78.207,30.771 	"/>
	<polygon style="fill-rule:evenodd;clip-rule:evenodd;fill:#213B2C;" points="83.764,31.24 83.56,31.771 83.764,32.303 
		84.275,32.71 84.887,33.022 85.755,33.179 86.618,33.179 87.385,32.99 88.048,32.647 88.404,32.178 88.556,31.646 88.404,31.115 
		88.66,30.614 88.66,30.021 88.301,29.488 87.641,29.052 86.874,28.738 85.906,28.707 84.938,28.801 84.172,29.113 83.56,29.582 
		83.304,30.114 83.304,30.708 	"/>
	<polygon style="fill-rule:evenodd;clip-rule:evenodd;fill:#ABAB85;" points="84.938,30.646 84.887,30.428 85.395,30.27 
		85.755,30.333 85.651,30.552 	"/>
	<polygon style="fill-rule:evenodd;clip-rule:evenodd;fill:#AFD3C1;" points="87.182,30.552 87.385,30.333 87.741,30.489 
		87.997,30.803 87.537,30.771 	"/>
	<polygon style="fill-rule:evenodd;clip-rule:evenodd;fill:#213B2C;" points="93.094,31.24 92.89,31.771 93.094,32.303 
		93.605,32.71 94.217,33.022 95.032,33.179 95.899,33.179 96.715,32.99 97.378,32.647 97.734,32.178 97.886,31.646 97.734,31.115 
		97.989,30.614 97.989,30.021 97.63,29.488 96.97,29.052 96.155,28.738 95.235,28.707 94.269,28.801 93.501,29.113 92.89,29.582 
		92.634,30.114 92.737,30.708 	"/>
	<polygon style="fill-rule:evenodd;clip-rule:evenodd;fill:#ABAB85;" points="94.369,30.646 94.217,30.428 94.724,30.27 
		95.032,30.333 94.979,30.552 	"/>
	<polygon style="fill-rule:evenodd;clip-rule:evenodd;fill:#AFD3C1;" points="96.51,30.552 96.715,30.333 97.019,30.489 
		97.274,30.803 96.866,30.771 	"/>
</g>
</svg>