<?xml version="1.0" encoding="iso-8859-1"?>
<!DOCTYPE svg PUBLIC "-//W3C//DTD SVG 1.1//EN" "http://www.w3.org/Graphics/SVG/1.1/DTD/svg11.dtd">
<svg version="1.1" xmlns="http://www.w3.org/2000/svg" xmlns:xlink="http://www.w3.org/1999/xlink" width="108" height="57" viewBox="0 0 108 57">
<g>
	<polygon style="fill-rule:evenodd;clip-rule:evenodd;fill:#919999;" points="70.841,56.242 70.841,34.529 24.033,20.937 
		24.033,38.817 	"/>
	<polygon style="fill-rule:evenodd;clip-rule:evenodd;fill:#7B8383;" points="70.975,34.529 68.369,32.066 21.921,18.976 
		23.943,20.937 	"/>
	<polygon style="fill-rule:evenodd;clip-rule:evenodd;fill:#919999;" points="68.369,32.066 68.1,31.747 67.92,31.2 67.875,30.652 
		67.875,29.649 67.92,29.146 68.146,28.646 68.459,28.372 21.966,15.736 21.697,15.965 21.472,16.421 21.382,16.786 21.203,17.333 
		21.382,17.79 21.382,18.246 21.517,18.656 21.742,18.976 	"/>
	<polygon style="fill-rule:evenodd;clip-rule:evenodd;fill:#E0E8E8;" points="68.459,28.372 75.063,24.176 28.839,12.498 
		21.966,15.736 	"/>
	<polygon style="fill-rule:evenodd;clip-rule:evenodd;fill:#E0E8E8;" points="75.063,24.176 105.069,11.175 61.002,2.919 
		28.839,12.498 	"/>
	<polygon style="fill-rule:evenodd;clip-rule:evenodd;fill:#AEB5B5;" points="70.841,56.242 70.841,34.529 68.369,32.066 
		68.1,31.747 67.92,31.2 67.875,30.652 67.875,29.649 67.92,29.146 68.146,28.646 68.459,28.372 75.063,24.176 105.069,11.175 
		105.069,15.007 105.206,15.235 105.294,15.417 105.519,15.554 105.743,15.646 105.879,15.736 106.102,15.736 106.507,15.874 
		106.733,15.874 107.046,15.965 107.27,15.965 107.496,16.102 107.809,16.421 107.809,16.558 107.855,16.968 107.855,34.302 	"/>
	<polygon style="fill-rule:evenodd;clip-rule:evenodd;fill:#C4CCCC;" points="70.75,34.621 70.75,34.529 70.75,56.242 
		71.064,56.242 71.064,34.302 71.064,34.529 71.064,34.302 	"/>
	<polygon style="fill-rule:evenodd;clip-rule:evenodd;fill:#C4CCCC;" points="68.146,32.204 70.75,34.621 71.064,34.302 
		68.459,31.976 	"/>
	<polygon style="fill-rule:evenodd;clip-rule:evenodd;fill:#C4CCCC;" points="67.92,31.747 67.92,31.838 68.146,32.204 
		68.459,31.976 68.235,31.656 67.92,31.747 67.92,31.838 	"/>
	<polygon style="fill-rule:evenodd;clip-rule:evenodd;fill:#C4CCCC;" points="67.695,31.383 67.92,31.747 68.235,31.656 68.1,31.2 	
		"/>
	<polygon style="fill-rule:evenodd;clip-rule:evenodd;fill:#C4CCCC;" points="67.606,30.652 67.606,30.836 67.695,31.383 68.1,31.2 
		67.92,30.652 67.606,30.652 67.606,30.836 	"/>
	<polygon style="fill-rule:evenodd;clip-rule:evenodd;fill:#C4CCCC;" points="67.606,30.197 67.606,30.652 67.92,30.652 
		67.92,30.197 67.606,30.197 	"/>
	<polygon style="fill-rule:evenodd;clip-rule:evenodd;fill:#C4CCCC;" points="67.606,29.513 67.606,30.197 67.92,30.197 
		68.1,29.649 	"/>
	<polygon style="fill-rule:evenodd;clip-rule:evenodd;fill:#C4CCCC;" points="67.875,28.965 67.606,29.513 68.1,29.649 
		68.146,29.146 	"/>
	<polygon style="fill-rule:evenodd;clip-rule:evenodd;fill:#C4CCCC;" points="68.1,28.509 68.1,28.601 67.875,28.965 68.146,29.146 
		68.369,28.646 68.235,28.828 68.1,28.509 68.1,28.601 	"/>
	<polygon style="fill-rule:evenodd;clip-rule:evenodd;fill:#C4CCCC;" points="68.459,28.372 68.369,28.28 68.1,28.509 
		68.235,28.828 68.548,28.509 	"/>
	<polygon style="fill-rule:evenodd;clip-rule:evenodd;fill:#C4CCCC;" points="28.615,12.727 32.028,8.803 71.29,18.2 68.1,22.898 	
		"/>
	<polygon style="fill-rule:evenodd;clip-rule:evenodd;fill:#AEB5B5;" points="98.645,9.944 98.645,6.933 71.29,18.2 68.1,22.898 	
		"/>
	<polygon style="fill-rule:evenodd;clip-rule:evenodd;fill:#E0E8E8;" points="61.542,0 32.028,8.803 71.29,18.2 98.645,6.933 	"/>
	<polygon style="fill-rule:evenodd;clip-rule:evenodd;fill:#AEB5B5;" points="44.517,7.024 61.317,2.098 61.317,7.526 	"/>
	<polygon style="fill-rule:evenodd;clip-rule:evenodd;fill:#EDF6F6;" points="44.517,7.024 72.817,13.501 78.521,11.267 
		61.317,7.526 	"/>
	<polygon style="fill-rule:evenodd;clip-rule:evenodd;fill:#7B8383;" points="61.317,2.098 88.718,7.024 78.521,11.267 
		61.317,7.526 	"/>
	<polygon style="fill-rule:evenodd;clip-rule:evenodd;fill:#121919;" points="61.317,4.333 84.81,8.712 78.521,11.267 61.317,7.526 
			"/>
	<polygon style="fill-rule:evenodd;clip-rule:evenodd;fill:#2C3333;" points="25.65,25.954 60.552,36.354 60.552,45.067 
		25.65,33.115 	"/>
	<polygon style="fill-rule:evenodd;clip-rule:evenodd;fill:#7B8383;" points="17.878,32.523 17.878,31.063 17.025,30.607 
		17.025,32.204 	"/>
	<polygon style="fill-rule:evenodd;clip-rule:evenodd;fill:#C4CCCC;" points="17.878,31.063 18.193,30.836 18.777,30.517 
		19.001,30.379 19.63,30.06 20.079,29.832 20.708,29.513 21.068,29.375 21.382,29.146 21.966,28.828 22.28,28.601 22.595,28.509 
		22.91,28.28 23.494,27.916 23.898,27.733 24.481,27.414 24.707,27.368 25.021,27.141 25.335,27.049 25.65,26.912 25.874,26.821 
		26.234,26.821 26.414,26.729 26.638,26.593 27.177,26.593 27.401,26.502 25.874,26.183 25.425,26.183 25.156,26.273 25.021,26.273 
		24.707,26.41 24.257,26.593 23.943,26.729 23.718,26.821 23.449,26.912 23.179,27.049 22.91,27.277 22.73,27.368 22.371,27.414 
		21.742,27.916 21.517,27.962 21.203,28.28 20.933,28.372 20.304,28.828 20.079,28.965 19.72,29.146 19.406,29.375 18.193,29.969 
		17.878,30.197 17.654,30.288 17.339,30.517 17.025,30.607 	"/>
	<polygon style="fill-rule:evenodd;clip-rule:evenodd;fill:#AEB5B5;" points="27.401,26.502 27.401,33.07 17.878,32.523 
		17.878,31.063 18.193,30.836 18.777,30.517 19.001,30.379 19.63,30.06 20.079,29.832 20.708,29.513 21.068,29.375 21.382,29.146 
		21.966,28.828 22.28,28.601 22.595,28.509 22.91,28.28 23.494,27.916 23.898,27.733 24.481,27.414 24.707,27.368 25.021,27.141 
		25.335,27.049 25.65,26.912 25.874,26.821 26.234,26.821 26.414,26.729 26.638,26.593 27.177,26.593 	"/>
	<polygon style="fill-rule:evenodd;clip-rule:evenodd;fill:#E0E8E8;" points="60.552,43.06 32.567,42.604 2.111,31.155 
		26.548,31.838 	"/>
	<polygon style="fill-rule:evenodd;clip-rule:evenodd;fill:#919999;" points="32.567,42.604 32.478,43.287 2.066,31.747 
		2.111,31.155 	"/>
	<polygon style="fill-rule:evenodd;clip-rule:evenodd;fill:#C4CCCC;" points="32.478,43.287 30.052,43.287 0.09,31.656 
		2.066,31.747 	"/>
	<polygon style="fill-rule:evenodd;clip-rule:evenodd;fill:#7B8383;" points="30.052,43.287 30.052,43.606 0,31.976 0.09,31.656 	
		"/>
	<polygon style="fill-rule:evenodd;clip-rule:evenodd;fill:#7B8383;" points="30.052,43.606 32.792,43.79 32.882,42.924 
		60.552,43.562 60.552,43.06 32.567,42.604 32.478,43.287 30.052,43.287 	"/>
	<polygon style="fill-rule:evenodd;clip-rule:evenodd;fill:#FFFFFF;" points="26.638,40.551 33.376,40.551 34.455,40.596 
		43.663,40.596 44.786,40.551 45.864,40.551 46.853,40.369 47.93,40.369 48.829,40.323 49.908,40.141 50.895,40.095 51.973,40.004 
		52.872,39.775 53.86,39.685 54.758,39.456 55.613,39.228 56.509,39 57.455,38.681 58.262,38.452 29.962,29.74 29.154,29.832 
		28.3,29.969 27.401,30.197 25.65,30.379 24.707,30.379 23.898,30.517 22.91,30.607 22.056,30.652 21.158,30.652 20.304,30.836 
		19.316,30.836 18.328,30.881 16.576,30.881 15.722,31.063 4.806,31.063 3.818,30.881 1.078,30.881 	"/>
	<polygon style="fill-rule:evenodd;clip-rule:evenodd;fill:#7B8383;" points="49.818,43.926 49.818,42.057 48.829,41.554 
		48.829,43.562 	"/>
	<polygon style="fill-rule:evenodd;clip-rule:evenodd;fill:#C4CCCC;" points="49.818,42.057 50.446,41.601 50.895,41.554 
		51.479,41.008 51.973,40.824 52.557,40.369 53.321,40.004 53.725,39.685 54.309,39.228 55.522,38.59 56.152,38.133 56.466,38.088 
		56.826,37.859 57.183,37.587 57.588,37.54 57.903,37.313 58.488,37.13 58.801,36.902 59.027,36.855 59.341,36.855 59.656,36.674 
		59.878,36.583 60.417,36.583 58.801,36.081 58.577,36.126 58.037,36.126 57.588,36.354 57.183,36.445 56.96,36.583 56.689,36.674 
		56.375,36.902 55.972,36.993 55.835,37.222 55.522,37.313 55.163,37.54 54.535,37.997 54.219,38.133 53.635,38.59 52.872,39 
		51.973,39.685 51.209,40.095 50.491,40.551 50.221,40.688 49.908,40.915 48.829,41.554 	"/>
	<polygon style="fill-rule:evenodd;clip-rule:evenodd;fill:#AEB5B5;" points="60.417,36.583 60.417,44.611 49.818,43.926 
		49.818,42.057 50.446,41.601 50.895,41.554 51.479,41.008 51.973,40.824 52.557,40.369 53.321,40.004 53.725,39.685 54.309,39.228 
		55.522,38.59 56.152,38.133 56.466,38.088 56.826,37.859 57.183,37.587 57.588,37.54 57.903,37.313 58.488,37.13 58.801,36.902 
		59.027,36.855 59.341,36.855 59.656,36.674 59.878,36.583 	"/>
	<polygon style="fill-rule:evenodd;clip-rule:evenodd;fill:#7B8383;" points="70.841,46.8 70.975,46.8 61.631,44.154 61.631,44.383 
		70.841,46.937 70.975,46.937 70.841,46.937 70.975,46.937 	"/>
	<polygon style="fill-rule:evenodd;clip-rule:evenodd;fill:#7B8383;" points="106.642,27.733 70.841,46.8 70.975,46.937 
		106.733,27.916 	"/>
	<polygon style="fill-rule:evenodd;clip-rule:evenodd;fill:#7B8383;" points="70.841,49.081 70.975,49.081 61.676,46.298 
		61.676,46.39 70.841,49.309 70.975,49.309 70.841,49.309 70.975,49.309 	"/>
	<polygon style="fill-rule:evenodd;clip-rule:evenodd;fill:#7B8383;" points="106.642,29.74 106.642,29.649 70.841,49.081 
		70.975,49.309 106.733,29.74 	"/>
	<polygon style="fill-rule:evenodd;clip-rule:evenodd;fill:#7B8383;" points="70.841,48.032 70.975,47.94 61.631,45.067 
		61.631,45.294 70.841,48.169 70.975,48.169 70.841,48.169 70.975,48.169 	"/>
	<polygon style="fill-rule:evenodd;clip-rule:evenodd;fill:#7B8383;" points="106.642,28.828 106.642,28.646 70.841,48.032 
		70.975,48.169 106.733,28.919 	"/>
	<polygon style="fill-rule:evenodd;clip-rule:evenodd;fill:#7B8383;" points="106.733,17.88 106.733,17.972 107.855,17.424 
		107.855,17.333 106.642,17.79 106.642,17.88 106.642,17.79 106.642,17.88 	"/>
	<polygon style="fill-rule:evenodd;clip-rule:evenodd;fill:#7B8383;" points="106.642,17.88 106.642,34.986 106.733,34.986 
		106.733,17.88 106.642,17.88 	"/>
	<polygon style="fill-rule:evenodd;clip-rule:evenodd;fill:#7B8383;" points="98.645,13.866 98.645,26.912 98.736,26.912 
		98.736,13.866 98.645,13.866 	"/>
	<polygon style="fill-rule:evenodd;clip-rule:evenodd;fill:#FFFFFF;" points="75.063,23.947 68.369,28.053 68.548,28.509 
		75.243,24.267 	"/>
	<polygon style="fill-rule:evenodd;clip-rule:evenodd;fill:#FFFFFF;" points="105.069,11.175 104.98,11.038 75.063,23.947 
		75.243,24.267 105.069,11.312 	"/>
	<polygon style="fill-rule:evenodd;clip-rule:evenodd;fill:#AEB5B5;" points="51.434,8.712 44.562,10.947 57.14,13.775 
		63.429,11.312 	"/>
	<polygon style="fill-rule:evenodd;clip-rule:evenodd;fill:#C4CCCC;" points="51.434,9.032 45.416,11.038 57.14,13.775 
		62.53,11.631 	"/>
	<polygon style="fill-rule:evenodd;clip-rule:evenodd;fill:#AEB5B5;" points="45.505,14.87 47.032,12.407 51.434,13.501 
		49.997,16.102 	"/>
	<polygon style="fill-rule:evenodd;clip-rule:evenodd;fill:#7B8383;" points="50.715,20.435 53.006,19.431 61.317,21.667 
		59.341,22.579 	"/>
	<polygon style="fill-rule:evenodd;clip-rule:evenodd;fill:#067878;" points="51.479,20.481 53.096,19.979 60.689,21.94 
		59.341,22.579 	"/>
	<path style="fill-rule:evenodd;clip-rule:evenodd;fill:#121919;" d="M95.413,18.2l-0.091-0.091l-1.753,0.685l0.092,0.319
		l1.752-0.684V18.2L95.413,18.2z M95.413,17.105l-0.091-0.091l-1.753,0.775l0.092,0.183l1.752-0.73V17.105L95.413,17.105z
		 M96.984,18.656l-0.089-0.183l-1.214,0.502l0.18,0.273l1.123-0.456V18.656L96.984,18.656z M96.984,17.561l-0.089-0.137
		l-1.214,0.456l0.18,0.319l1.123-0.41V17.561L96.984,17.561z M96.984,16.467l-0.089-0.229l-1.214,0.548l0.18,0.319l1.123-0.548
		V16.467L96.984,16.467z M91.054,21.119v-0.183l-1.751,0.776l0.089,0.319l1.796-0.776L91.054,21.119L91.054,21.119z M91.054,20.116
		v-0.229l-1.751,0.775l0.089,0.273l1.796-0.729L91.054,20.116L91.054,20.116z M91.054,18.976v-0.183l-1.751,0.775l0.089,0.319
		l1.796-0.776L91.054,18.976L91.054,18.976z M93.255,21.348l-0.089-0.092l-1.662,0.685l0.089,0.319l1.753-0.775L93.255,21.348
		L93.255,21.348z M93.255,20.207l-0.089-0.091l-1.662,0.592l0.089,0.32l1.753-0.776L93.255,20.207L93.255,20.207z M93.255,19.112
		l-0.089-0.136l-1.662,0.684l0.089,0.319l1.753-0.73L93.255,19.112L93.255,19.112z M93.255,18.108l-0.089-0.228l-1.662,0.776
		l0.089,0.319l1.753-0.776L93.255,18.108L93.255,18.108z M95.413,20.481l-0.091-0.229l-1.753,0.776l0.092,0.319l1.752-0.685V20.481
		L95.413,20.481z M95.413,19.249l-0.091-0.137l-1.753,0.776l0.092,0.319l1.752-0.776V19.249L95.413,19.249z M96.984,20.937
		L96.895,20.8l-1.214,0.456l0.18,0.411l1.123-0.548V20.937L96.984,20.937z M96.984,19.888l-0.089-0.228l-1.214,0.547l0.18,0.274
		l1.123-0.502V19.888L96.984,19.888z M95.413,22.716l-0.091-0.137l-1.753,0.592l0.092,0.412l1.752-0.685V22.716L95.413,22.716z
		 M95.413,21.667l-0.091-0.319l-1.753,0.866l0.092,0.273l1.752-0.775V21.667L95.413,21.667z M96.984,23.035l-0.089-0.229
		l-1.214,0.548l0.18,0.319l1.123-0.548V23.035L96.984,23.035z M96.984,22.032l-0.089-0.091l-1.214,0.411l0.18,0.365l1.123-0.456
		V22.032L96.984,22.032z M93.255,24.586l-0.089-0.137l-1.662,0.685l0.089,0.273l1.753-0.685L93.255,24.586L93.255,24.586z
		 M93.255,23.583l-0.089-0.138l-1.662,0.73l0.089,0.319l1.753-0.776L93.255,23.583L93.255,23.583z M91.054,30.06l-0.089-0.228
		l-1.662,0.82l0.089,0.41l1.796-0.865L91.054,30.06L91.054,30.06z M91.054,28.919l-0.089-0.091l-1.662,0.821l0.089,0.319
		l1.796-0.822L91.054,28.919L91.054,28.919z M91.054,27.643l-0.089-0.046l-1.662,0.775l0.089,0.273l1.796-0.729L91.054,27.643
		L91.054,27.643z M91.054,26.593l-0.089-0.091l-1.662,0.775l0.089,0.319l1.796-0.775L91.054,26.593L91.054,26.593z M91.054,25.589
		l-0.089-0.228l-1.662,0.821l0.089,0.319l1.796-0.821L91.054,25.589L91.054,25.589z M91.054,24.495v-0.046l-1.751,0.593l0.089,0.319
		l1.796-0.775L91.054,24.495L91.054,24.495z M91.054,23.445v-0.274l-1.751,0.776l0.089,0.319l1.796-0.684L91.054,23.445
		L91.054,23.445z M93.255,30.06l-0.089-0.228l-1.662,0.82l0.089,0.41l1.753-0.865L93.255,30.06L93.255,30.06z M93.255,28.965
		l-0.089-0.137l-1.662,0.821l0.089,0.319l1.753-0.822L93.255,28.965L93.255,28.965z M93.255,27.733l-0.089-0.091l-1.662,0.958
		l0.089,0.318l1.753-0.957L93.255,27.733L93.255,27.733z M93.255,26.729l-0.089-0.137l-1.662,0.775l0.089,0.274l1.753-0.73
		L93.255,26.729L93.255,26.729z M93.255,25.681l-0.089-0.092l-1.662,0.685l0.089,0.319l1.753-0.685L93.255,25.681L93.255,25.681z
		 M91.054,22.351v-0.137l-1.751,0.685l0.089,0.273l1.796-0.684L91.054,22.351L91.054,22.351z M93.255,22.487l-0.089-0.136
		l-1.662,0.684l0.089,0.319l1.753-0.639L93.255,22.487L93.255,22.487z M96.984,25.134l-0.089-0.092l-1.214,0.365l0.18,0.319
		l1.123-0.365V25.134L96.984,25.134z M96.984,24.038l-0.089-0.091l-1.214,0.502l0.18,0.273l1.123-0.456V24.038L96.984,24.038z
		 M95.413,28.965l-0.091-0.046l-1.753,0.821l0.092,0.319l1.752-0.866V28.965L95.413,28.965z M95.413,27.916l-0.091-0.183
		l-1.753,0.867l0.092,0.318l1.752-0.866V27.916L95.413,27.916z M95.413,26.821l-0.091-0.092l-1.753,0.685l0.092,0.319l1.752-0.685
		V26.821L95.413,26.821z M95.413,25.908l-0.091-0.228l-1.753,0.729l0.092,0.319l1.752-0.775V25.908L95.413,25.908z M95.413,24.723
		l-0.091-0.137l-1.753,0.775l0.092,0.319l1.752-0.775V24.723L95.413,24.723z M95.413,23.674l-0.091-0.091l-1.753,0.684l0.092,0.319
		l1.752-0.685V23.674L95.413,23.674z M96.984,28.28l-0.089-0.228l-1.214,0.593l0.18,0.319l1.123-0.456V28.28L96.984,28.28z
		 M96.984,27.141l-0.089-0.092l-1.214,0.548l0.18,0.319l1.123-0.548V27.141L96.984,27.141z M96.984,26.046l-0.089-0.092
		l-1.214,0.548l0.18,0.319l1.123-0.548V26.046L96.984,26.046z M91.054,31.155l-0.089-0.274l-1.662,0.866l0.089,0.319l1.796-0.866
		L91.054,31.155L91.054,31.155z"/>
	<path style="fill-rule:evenodd;clip-rule:evenodd;fill:#7B8383;" d="M101.925,28.646h0.314l-0.089-0.137l-0.226,0.092V28.646
		L101.925,28.646z M102.24,28.646l0.225-0.045l-0.091-0.229l-0.223,0.137L102.24,28.646L102.24,28.646z M102.464,28.601l4.269-2.418
		l-0.091-0.137l-4.269,2.326L102.464,28.601L102.464,28.601z M100.803,28.646l0.313,0.183v-0.228l-0.313-0.092V28.646
		L100.803,28.646z M101.117,28.828h0.226l0.044-0.228h-0.27V28.828L101.117,28.828z M101.342,28.828h0.269v-0.228h-0.225
		L101.342,28.828h0.044H101.342L101.342,28.828z M99.276,27.962l0.223,0.318l0.091-0.318l-0.225-0.046L99.276,27.962L99.276,27.962z
		 M98.645,27.141l0.091,0.228h0.135v-0.228H98.645L98.645,27.141z M98.645,26.912v0.229h0.226l-0.135-0.319v0.091H98.645
		L98.645,26.912z M98.736,27.368l0.135,0.274l0.18-0.046l-0.18-0.229H98.736L98.736,27.368z M98.871,27.643l0.18,0.091l0.135-0.091
		l-0.224-0.229l0.089,0.183L98.871,27.643L98.871,27.643z M99.05,27.733l0.226,0.229l0.089-0.046l-0.18-0.273L99.05,27.733
		L99.05,27.733z M99.499,28.28l0.316,0.092l0.043-0.092l-0.269-0.318L99.499,28.28L99.499,28.28z M99.815,28.372l0.314,0.137v-0.137
		l-0.271-0.092L99.815,28.372L99.815,28.372z M100.129,28.509l0.359,0.092v-0.092l-0.359-0.137V28.509L100.129,28.509z
		 M100.489,28.601l0.314,0.045v-0.137h-0.314V28.601L100.489,28.601z M101.611,28.828l0.314-0.183v-0.045h-0.314V28.828
		L101.611,28.828z"/>
</g>
</svg>