<?xml version="1.0" encoding="iso-8859-1"?>
<!DOCTYPE svg PUBLIC "-//W3C//DTD SVG 1.1//EN" "http://www.w3.org/Graphics/SVG/1.1/DTD/svg11.dtd">
<svg version="1.1" xmlns="http://www.w3.org/2000/svg" xmlns:xlink="http://www.w3.org/1999/xlink" width="125" height="42" viewBox="0 0 125 42">
<g>
	<polygon style="fill-rule:evenodd;clip-rule:evenodd;fill:#707362;" points="124.87,9.677 69.535,0 0,8.957 14.51,14.722 0,8.957 
		0,24.4 39.058,41.129 124.87,22.496 	"/>
	<polygon style="fill-rule:evenodd;clip-rule:evenodd;fill:#888970;" points="39.058,41.129 124.87,22.496 124.87,9.677 
		39.058,24.4 	"/>
	<polygon style="fill-rule:evenodd;clip-rule:evenodd;fill:#B5B69F;" points="39.058,24.4 124.87,9.677 69.535,0 0,8.957 	"/>
	<path style="fill-rule:evenodd;clip-rule:evenodd;fill:#4F513F;" d="M13.158,16.833l-4.577-2.007v1.184l4.577,2.11V16.833
		L13.158,16.833z M13.158,19.355l-4.577-2.008v1.287l4.577,2.008V19.355L13.158,19.355z M13.158,21.981l-4.577-2.008v1.287
		l4.577,2.008V21.981L13.158,21.981z M13.158,24.554l-4.577-2.059v1.287l4.577,2.008V24.554L13.158,24.554z M13.158,27.127
		l-4.577-2.007v1.286l4.577,2.008V27.127L13.158,27.127z M6.761,14.001l-4.472-2.007v1.338l4.472,2.008V14.001L6.761,14.001z
		 M6.761,16.626L2.289,14.62v1.338l4.472,2.008V16.626L6.761,16.626z M6.761,19.252l-4.472-2.111v1.339l4.472,2.06V19.252
		L6.761,19.252z M6.761,21.775l-4.472-2.008v1.338l4.472,2.008V21.775L6.761,21.775z M6.761,24.4l-4.472-2.008v1.286l4.472,2.008
		V24.4L6.761,24.4z M26.679,22.547l-5.148-2.266v1.236l5.148,2.367V22.547L26.679,22.547z M26.679,25.171l-5.148-2.315v1.286
		l5.148,2.369V25.171L26.679,25.171z M26.679,27.797l-5.148-2.368v1.339l5.148,2.265V27.797L26.679,27.797z M26.679,30.32
		l-5.148-2.265v1.235l5.148,2.367V30.32L26.679,30.32z M26.679,32.944l-5.148-2.367v1.338l5.148,2.318V32.944L26.679,32.944z
		 M19.555,19.509l-4.525-2.008v1.339l4.525,2.008V19.509L19.555,19.509z M19.555,22.134l-4.525-2.007v1.286l4.525,2.008V22.134
		L19.555,22.134z M19.555,24.76l-4.525-2.111v1.34l4.525,2.008V24.76L19.555,24.76z M19.555,27.283l-4.525-2.007v1.286l4.525,2.008
		V27.283L19.555,27.283z M19.555,29.908L15.03,27.9v1.185l4.525,2.109V29.908L19.555,29.908z M35.105,26.253l-6.501-2.883v1.184
		l6.501,2.986V26.253L35.105,26.253z M35.105,28.827l-6.501-2.935v1.287l6.501,2.883V28.827L35.105,28.827z M35.105,31.4
		l-6.501-2.882v1.287l6.501,2.882V31.4L35.105,31.4z M35.105,33.975l-6.501-2.935v1.287l6.501,2.985V33.975L35.105,33.975z
		 M35.105,36.498l-6.501-2.832v1.288l6.501,2.882V36.498L35.105,36.498z"/>
	<path style="fill-rule:evenodd;clip-rule:evenodd;fill:#4F513F;" d="M109.892,14.105v2.007l11.649-2.161v-2.008L109.892,14.105
		L109.892,14.105z M92.989,17.347v2.008l13.626-2.625v-2.008L92.989,17.347L92.989,17.347z"/>
	<path style="fill:none;stroke:#D2CDB5;stroke-width:0.2202;stroke-linecap:round;stroke-miterlimit:10;" d="M109.892,14.105v2.007
		l11.649-2.161v-2.008L109.892,14.105L109.892,14.105z M92.989,17.347v2.008l13.626-2.625v-2.008L92.989,17.347L92.989,17.347z"/>
	<polygon style="fill-rule:evenodd;clip-rule:evenodd;fill:#3E4035;" points="55.336,27.026 55.336,31.555 55.96,30.834 
		55.96,27.541 60.225,26.665 61.109,25.686 	"/>
	<polygon style="fill-rule:evenodd;clip-rule:evenodd;fill:#A6A897;" points="55.336,31.555 61.109,30.269 61.109,25.686 
		60.225,26.665 60.225,29.96 55.96,30.834 	"/>
	<polygon style="fill-rule:evenodd;clip-rule:evenodd;fill:#3E4035;" points="63.656,25.121 63.656,29.65 64.385,28.929 
		64.385,25.635 68.598,24.657 69.483,23.783 	"/>
	<polygon style="fill-rule:evenodd;clip-rule:evenodd;fill:#3E4035;" points="72.083,23.164 72.083,27.642 72.708,27.026 
		72.708,23.678 77.024,22.753 77.907,21.877 	"/>
	<polygon style="fill-rule:evenodd;clip-rule:evenodd;fill:#A6A897;" points="72.083,27.642 77.907,26.407 77.907,21.877 
		77.024,22.753 77.024,26.047 72.708,27.026 	"/>
	<polygon style="fill-rule:evenodd;clip-rule:evenodd;fill:#A6A897;" points="63.656,29.65 69.483,28.312 69.483,23.783 
		68.598,24.657 68.598,27.951 64.385,28.929 	"/>
</g>
</svg>