<?xml version="1.0" encoding="utf-8"?>
<!DOCTYPE svg PUBLIC "-//W3C//DTD SVG 1.1//EN" "http://www.w3.org/Graphics/SVG/1.1/DTD/svg11.dtd">
<svg version="1.1" xmlns="http://www.w3.org/2000/svg" xmlns:xlink="http://www.w3.org/1999/xlink" width="25" height="25" viewBox="0 0 25 25">
<g>
	<polygon fill-rule="evenodd" clip-rule="evenodd" fill="#FFFFFF" points="0,0 0,23.003 24.052,23.003 24.052,0 0,0 	"/>
	
		<polygon fill="none" stroke="#010101" stroke-width="0.5315" stroke-linecap="round" stroke-linejoin="round" stroke-miterlimit="10" points="
		0,23.003 24.052,23.003 24.052,0 0,0 0,23.003 	"/>
	<polygon fill-rule="evenodd" clip-rule="evenodd" fill="#0F8140" points="6.493,2.028 8.282,2.028 8.282,5.259 10.535,3.105 
		11.794,4.245 9.541,6.527 12.589,6.527 12.589,8.302 9.475,8.302 11.794,10.456 10.535,11.723 8.282,9.568 8.282,12.8 6.361,12.8 
		6.361,9.568 4.108,11.723 2.783,10.456 5.036,8.174 2.054,8.174 2.054,6.527 5.234,6.527 2.783,4.183 4.108,3.105 6.361,5.259 
		6.493,2.028 	"/>
	
		<polygon fill="none" stroke="#0F8140" stroke-width="0.1772" stroke-linecap="round" stroke-linejoin="round" stroke-miterlimit="10" points="
		6.493,2.028 8.282,2.028 8.282,5.259 10.535,3.105 11.794,4.245 9.541,6.527 12.589,6.527 12.589,8.302 9.475,8.302 11.794,10.456 
		10.535,11.723 8.282,9.568 8.282,12.8 6.361,12.8 6.361,9.568 4.108,11.723 2.783,10.456 5.036,8.174 2.054,8.174 2.054,6.527 
		5.234,6.527 2.783,4.183 4.108,3.105 6.361,5.259 6.493,2.028 	"/>
	<polygon fill-rule="evenodd" clip-rule="evenodd" fill="#808233" points="15.835,10.266 17.624,10.266 17.624,13.497 
		19.877,11.343 21.203,12.484 18.95,14.765 21.93,14.765 21.93,16.539 18.884,16.539 21.203,18.692 19.877,19.96 17.624,17.806 
		17.624,21.038 15.769,21.038 15.769,17.806 13.517,19.96 12.191,18.692 14.444,16.475 11.462,16.475 11.462,14.765 14.644,14.765 
		12.191,12.419 13.517,11.343 15.769,13.497 15.835,10.266 	"/>
	
		<polygon fill="none" stroke="#808233" stroke-width="0.1772" stroke-linecap="round" stroke-linejoin="round" stroke-miterlimit="10" points="
		15.835,10.266 17.624,10.266 17.624,13.497 19.877,11.343 21.203,12.484 18.95,14.765 21.93,14.765 21.93,16.539 18.884,16.539 
		21.203,18.692 19.877,19.96 17.624,17.806 17.624,21.038 15.769,21.038 15.769,17.806 13.517,19.96 12.191,18.692 14.444,16.475 
		11.462,16.475 11.462,14.765 14.644,14.765 12.191,12.419 13.517,11.343 15.769,13.497 15.835,10.266 	"/>
</g>
</svg>
