<?xml version="1.0" encoding="utf-8"?>
<!DOCTYPE svg PUBLIC "-//W3C//DTD SVG 1.1//EN" "http://www.w3.org/Graphics/SVG/1.1/DTD/svg11.dtd">
<svg version="1.1" xmlns="http://www.w3.org/2000/svg" xmlns:xlink="http://www.w3.org/1999/xlink" width="57" height="36" viewBox="0 0 57 36">
<g>
	<rect x="3.078" y="17.217" fill-rule="evenodd" clip-rule="evenodd" fill="#D0D3DC" width="50.315" height="13.506"/>
	<rect x="3.419" y="18.126" fill-rule="evenodd" clip-rule="evenodd" fill="#728FA9" width="49.633" height="12.265"/>
	<linearGradient id="SVGID_1_" gradientUnits="userSpaceOnUse" x1="28.2349" y1="18.2305" x2="28.2349" y2="-35.2937">
		<stop  offset="0" style="stop-color:#ECEBEE"/>
		<stop  offset="1" style="stop-color:#FFFFFF"/>
	</linearGradient>
	<path fill-rule="evenodd" clip-rule="evenodd" fill="url(#SVGID_1_)" d="M3.078,17.217c8.378,0,16.765,0,25.148,0
		c8.382,0,16.775,0,25.167,0c-1.717-3.845-3.216-7.204-4.535-10.158C47.69,4.444,46.645,2.104,45.706,0c-5.828,0-11.657,0-17.478,0
		c-5.821,0-11.646,0-17.464,0C9.827,2.101,8.781,4.442,7.614,7.058C6.294,10.015,4.795,13.374,3.078,17.217z"/>
	<path fill="#899EA8" d="M3.301,17.441c-0.042,0-0.076-0.034-0.076-0.076c0-0.042,0.034-0.075,0.076-0.075h50.018
		c0.042,0,0.076,0.034,0.076,0.075c0,0.042-0.034,0.076-0.076,0.076H3.301z"/>
	<polygon fill-rule="evenodd" clip-rule="evenodd" fill="#FFFFFF" points="3.419,18.096 53.052,18.096 53.052,18.318 3.642,18.318 
		3.642,30.504 3.419,30.504 	"/>
	<polygon fill-rule="evenodd" clip-rule="evenodd" fill="#899095" points="2.908,25.501 54.516,25.501 54.516,34.943 30.165,34.943 
		30.165,34.489 9.302,34.489 9.302,34.943 2.908,34.943 	"/>
	<linearGradient id="SVGID_2_" gradientUnits="userSpaceOnUse" x1="2.7715" y1="30.7407" x2="55.5182" y2="30.7407">
		<stop  offset="0" style="stop-color:#A8A8A9"/>
		<stop  offset="0.03" style="stop-color:#3B413F"/>
		<stop  offset="0.16" style="stop-color:#3B413F"/>
		<stop  offset="0.84" style="stop-color:#3B413F"/>
		<stop  offset="0.94" style="stop-color:#3B413F"/>
		<stop  offset="1" style="stop-color:#A8A8A9"/>
	</linearGradient>
	<polygon fill-rule="evenodd" clip-rule="evenodd" fill="url(#SVGID_2_)" points="2.908,26.539 54.516,26.539 54.516,34.943 
		30.165,34.943 30.165,34.489 9.302,34.489 9.302,34.943 2.908,34.943 	"/>
	<linearGradient id="SVGID_3_" gradientUnits="userSpaceOnUse" x1="28.8232" y1="19.1187" x2="28.7169" y2="25.211">
		<stop  offset="0" style="stop-color:#9CADBE"/>
		<stop  offset="0.36" style="stop-color:#CAD3D7"/>
		<stop  offset="1" style="stop-color:#FFFFFF"/>
	</linearGradient>
	<path fill-rule="evenodd" clip-rule="evenodd" fill="url(#SVGID_3_)" d="M2.908,25.501c8.593,0,17.196,0,25.793,0
		s17.206,0,25.814,0c-1.204-2.601-2.303-4.977-3.31-7.154H6.218C5.211,20.525,4.112,22.901,2.908,25.501z"/>
	<path fill="#899EA8" d="M3.137,25.723c-0.043,0-0.077-0.034-0.077-0.075c0-0.041,0.034-0.075,0.077-0.075H54.44
		c0.042,0,0.077,0.034,0.077,0.075c0,0.042-0.035,0.075-0.077,0.075H3.137z"/>
	<path fill-rule="evenodd" clip-rule="evenodd" fill="#D4DCE2" d="M48.366,18.347l0.159,0.334c-0.956,0-4.74-0.028-5.519,0.025
		c-3.777,0.257-3.149,2.199,1.005,2.42c0.724,0.039,4.718,0.015,5.674,0.015c0.305,0.643,0.62,1.309,0.953,1.998
		c-1.358,0.595-2.746,1.202-4.167,1.822c-2.907,0-5.81,0-8.712,0c-2.902,0-5.805,0-8.703,0c-2.902,0-5.809,0-8.707,0
		c-2.898,0-5.801,0-8.704,0c-1.426-0.62-2.81-1.226-4.154-1.82c0.451-0.967,0.891-1.894,1.311-2.785
		c0.325-0.69,0.644-1.36,0.951-2.009H48.366z"/>
	<path fill-rule="evenodd" clip-rule="evenodd" fill="#5B7A95" d="M40.494,18.347c-1.721,0.593-0.727,1.867,2.524,2.041
		c0.692,0.037,4.515,0.014,5.43,0.014c0.292,0.615,0.593,1.252,0.912,1.912c-1.3,0.569-2.628,1.15-3.988,1.743
		c-2.783,0-5.561,0-8.339,0c-2.777,0-5.555,0-8.33,0c-2.778,0-5.56,0-8.334,0s-5.552,0-8.33,0c-1.365-0.593-2.689-1.172-3.977-1.742
		c0.432-0.924,0.853-1.813,1.254-2.665c0.209-0.443,0.415-0.878,0.617-1.303H40.494z"/>
	<g>
		<linearGradient id="SVGID_4_" gradientUnits="userSpaceOnUse" x1="42.3223" y1="18.5884" x2="47.28" y2="18.5018">
			<stop  offset="0" style="stop-color:#CCD6DC"/>
			<stop  offset="1" style="stop-color:#4E6884"/>
		</linearGradient>
		<polygon fill-rule="evenodd" clip-rule="evenodd" fill="url(#SVGID_4_)" points="40.197,18.347 40.123,18.383 39.987,18.465 
			39.876,18.551 39.789,18.641 39.723,18.733 39.681,18.827 39.662,18.923 39.662,18.347 		"/>
		<linearGradient id="SVGID_5_" gradientUnits="userSpaceOnUse" x1="45.541" y1="22.7495" x2="49.2713" y2="22.3574">
			<stop  offset="0" style="stop-color:#CCD6DC"/>
			<stop  offset="1" style="stop-color:#4E6884"/>
		</linearGradient>
		<polygon fill-rule="evenodd" clip-rule="evenodd" fill="url(#SVGID_5_)" points="49.36,21.18 49.36,22.19 49.239,22.244 
			49.117,22.297 48.994,22.351 48.872,22.404 48.749,22.458 48.626,22.512 48.503,22.565 48.38,22.62 48.257,22.673 48.133,22.727 
			48.01,22.781 47.886,22.836 47.762,22.89 47.638,22.944 47.514,22.998 47.389,23.053 47.264,23.107 47.139,23.162 47.014,23.216 
			46.889,23.271 46.764,23.326 46.638,23.381 46.512,23.436 46.386,23.491 46.26,23.546 46.134,23.601 46.007,23.656 45.88,23.711 
			45.753,23.767 45.626,23.823 45.5,23.878 45.372,23.934 45.372,22.923 45.5,22.868 45.626,22.812 45.753,22.756 45.88,22.701 
			46.007,22.646 46.134,22.591 46.26,22.536 46.386,22.48 46.512,22.426 46.638,22.371 46.764,22.315 46.889,22.261 47.014,22.206 
			47.139,22.151 47.264,22.097 47.389,22.042 47.514,21.988 47.638,21.934 47.762,21.879 47.886,21.825 48.01,21.771 48.133,21.717 
			48.257,21.663 48.38,21.609 48.503,21.555 48.626,21.501 48.749,21.448 48.872,21.394 48.994,21.34 49.117,21.287 49.239,21.233 
					"/>
		<linearGradient id="SVGID_6_" gradientUnits="userSpaceOnUse" x1="13.7583" y1="23.4287" x2="44.7364" y2="23.4287">
			<stop  offset="0" style="stop-color:#CCD6DC"/>
			<stop  offset="1" style="stop-color:#4E6884"/>
		</linearGradient>
		<polygon fill-rule="evenodd" clip-rule="evenodd" fill="url(#SVGID_6_)" points="45.372,22.923 45.372,23.934 45.111,23.934 
			44.851,23.934 44.589,23.934 44.329,23.934 44.068,23.934 43.807,23.934 43.546,23.934 43.286,23.934 43.025,23.934 
			42.765,23.934 42.504,23.934 42.243,23.934 41.983,23.934 41.722,23.934 41.462,23.934 41.201,23.934 40.941,23.934 40.68,23.934 
			40.42,23.934 40.159,23.934 39.898,23.934 39.638,23.934 39.377,23.934 39.117,23.934 38.856,23.934 38.597,23.934 38.336,23.934 
			38.076,23.934 37.815,23.934 37.555,23.934 37.294,23.934 37.033,23.934 36.773,23.934 36.513,23.934 36.252,23.934 
			35.992,23.934 35.731,23.934 35.471,23.934 35.211,23.934 34.95,23.934 34.69,23.934 34.429,23.934 34.169,23.934 33.909,23.934 
			33.648,23.934 33.388,23.934 33.127,23.934 32.867,23.934 32.606,23.934 32.347,23.934 32.086,23.934 31.826,23.934 
			31.565,23.934 31.305,23.934 31.045,23.934 30.785,23.934 30.524,23.934 30.265,23.934 30.004,23.934 29.744,23.934 
			29.484,23.934 29.224,23.934 28.964,23.934 28.704,23.934 28.443,23.934 28.183,23.934 27.922,23.934 27.662,23.934 
			27.401,23.934 27.141,23.934 26.88,23.934 26.62,23.934 26.359,23.934 26.099,23.934 25.838,23.934 25.578,23.934 25.317,23.934 
			25.056,23.934 24.795,23.934 24.535,23.934 24.274,23.934 24.014,23.934 23.753,23.934 23.493,23.934 23.233,23.934 
			22.973,23.934 22.712,23.934 22.451,23.934 22.191,23.934 21.931,23.934 21.671,23.934 21.41,23.934 21.15,23.934 20.89,23.934 
			20.63,23.934 20.37,23.934 20.109,23.934 19.85,23.934 19.589,23.934 19.329,23.934 19.069,23.934 18.809,23.934 18.549,23.934 
			18.289,23.934 18.029,23.934 17.768,23.934 17.508,23.934 17.248,23.934 16.987,23.934 16.727,23.934 16.467,23.934 
			16.207,23.934 15.946,23.934 15.686,23.934 15.425,23.934 15.165,23.934 14.905,23.934 14.644,23.934 14.384,23.934 
			14.123,23.934 13.863,23.934 13.603,23.934 13.342,23.934 13.082,23.934 12.821,23.934 12.561,23.934 12.3,23.934 12.04,23.934 
			12.04,22.923 12.3,22.923 12.561,22.923 12.821,22.923 13.082,22.923 13.342,22.923 13.603,22.923 13.863,22.923 14.123,22.923 
			14.384,22.923 14.644,22.923 14.905,22.923 15.165,22.923 15.425,22.923 15.686,22.923 15.946,22.923 16.207,22.923 
			16.467,22.923 16.727,22.923 16.987,22.923 17.248,22.923 17.508,22.923 17.768,22.923 18.029,22.923 18.289,22.923 
			18.549,22.923 18.809,22.923 19.069,22.923 19.329,22.923 19.589,22.923 19.85,22.923 20.109,22.923 20.37,22.923 20.63,22.923 
			20.89,22.923 21.15,22.923 21.41,22.923 21.671,22.923 21.931,22.923 22.191,22.923 22.451,22.923 22.712,22.923 22.973,22.923 
			23.233,22.923 23.493,22.923 23.753,22.923 24.014,22.923 24.274,22.923 24.535,22.923 24.795,22.923 25.056,22.923 
			25.317,22.923 25.578,22.923 25.838,22.923 26.099,22.923 26.359,22.923 26.62,22.923 26.88,22.923 27.141,22.923 27.401,22.923 
			27.662,22.923 27.922,22.923 28.183,22.923 28.443,22.923 28.704,22.923 28.964,22.923 29.224,22.923 29.484,22.923 
			29.744,22.923 30.004,22.923 30.265,22.923 30.524,22.923 30.785,22.923 31.045,22.923 31.305,22.923 31.565,22.923 
			31.826,22.923 32.086,22.923 32.347,22.923 32.606,22.923 32.867,22.923 33.127,22.923 33.388,22.923 33.648,22.923 
			33.909,22.923 34.169,22.923 34.429,22.923 34.69,22.923 34.95,22.923 35.211,22.923 35.471,22.923 35.731,22.923 35.992,22.923 
			36.252,22.923 36.513,22.923 36.773,22.923 37.033,22.923 37.294,22.923 37.555,22.923 37.815,22.923 38.076,22.923 
			38.336,22.923 38.597,22.923 38.856,22.923 39.117,22.923 39.377,22.923 39.638,22.923 39.898,22.923 40.159,22.923 40.42,22.923 
			40.68,22.923 40.941,22.923 41.201,22.923 41.462,22.923 41.722,22.923 41.983,22.923 42.243,22.923 42.504,22.923 42.765,22.923 
			43.025,22.923 43.286,22.923 43.546,22.923 43.807,22.923 44.068,22.923 44.329,22.923 44.589,22.923 44.851,22.923 
			45.111,22.923 		"/>
		<linearGradient id="SVGID_7_" gradientUnits="userSpaceOnUse" x1="8.2305" y1="22.749" x2="11.9516" y2="22.3579">
			<stop  offset="0" style="stop-color:#CCD6DC"/>
			<stop  offset="1" style="stop-color:#4E6884"/>
		</linearGradient>
		<polygon fill-rule="evenodd" clip-rule="evenodd" fill="url(#SVGID_7_)" points="12.04,22.923 12.04,23.934 11.912,23.878 
			11.785,23.823 11.657,23.767 11.53,23.711 11.403,23.656 11.276,23.601 11.15,23.546 11.024,23.491 10.898,23.437 10.772,23.381 
			10.646,23.326 10.521,23.272 10.396,23.217 10.271,23.163 10.147,23.108 10.022,23.053 9.899,22.999 9.774,22.945 9.651,22.891 
			9.527,22.837 9.404,22.782 9.281,22.729 9.159,22.675 9.036,22.62 8.914,22.567 8.792,22.513 8.67,22.459 8.548,22.405 
			8.427,22.352 8.305,22.299 8.184,22.245 8.063,22.192 8.063,21.182 8.184,21.235 8.305,21.288 8.427,21.342 8.548,21.396 
			8.67,21.449 8.792,21.503 8.914,21.556 9.036,21.61 9.159,21.664 9.281,21.718 9.404,21.772 9.527,21.826 9.651,21.88 
			9.774,21.935 9.899,21.989 10.022,22.043 10.147,22.098 10.271,22.152 10.396,22.207 10.521,22.261 10.646,22.316 10.772,22.371 
			10.898,22.426 11.024,22.481 11.15,22.536 11.276,22.591 11.403,22.646 11.53,22.701 11.657,22.756 11.785,22.812 11.912,22.868 
					"/>
	</g>
	<g>
		<linearGradient id="SVGID_8_" gradientUnits="userSpaceOnUse" x1="28.7119" y1="17.561" x2="28.7119" y2="23.1178">
			<stop  offset="0" style="stop-color:#9CADBE"/>
			<stop  offset="1" style="stop-color:#FFFFFF"/>
		</linearGradient>
		<path fill-rule="evenodd" clip-rule="evenodd" fill="url(#SVGID_8_)" d="M39.847,18.347c0.41,0.433,1.488,0.817,3.171,0.907
			c0.692,0.037,4.515,0.014,5.43,0.014c0.292,0.616,0.593,1.253,0.912,1.913c-1.3,0.569-2.628,1.15-3.988,1.743
			c-2.783,0-5.561,0-8.339,0c-2.777,0-5.555,0-8.33,0c-2.778,0-5.56,0-8.334,0s-5.552,0-8.33,0
			c-1.365-0.593-2.689-1.173-3.977-1.742c0.432-0.925,0.853-1.813,1.254-2.666l0.08-0.169H39.847z"/>
		<linearGradient id="SVGID_9_" gradientUnits="userSpaceOnUse" x1="28.7119" y1="17.5703" x2="28.7119" y2="23.0607">
			<stop  offset="0" style="stop-color:#99AABC"/>
			<stop  offset="1" style="stop-color:#FFFFFF"/>
		</linearGradient>
		<path fill-rule="evenodd" clip-rule="evenodd" fill="url(#SVGID_9_)" d="M9.385,18.5l0.09-0.154h30.34
			c0.415,0.437,1.485,0.823,3.15,0.912c0.69,0.037,4.497,0.014,5.408,0.014c0.291,0.614,0.585,1.2,0.903,1.858
			c-1.294,0.567-2.617,1.146-3.972,1.738c-2.771,0-5.538,0-8.305,0c-2.766,0-5.532,0-8.295,0c-2.767,0-5.537,0-8.3,0
			s-5.529,0-8.296,0c-1.359-0.592-2.678-1.169-3.96-1.737C8.573,20.219,8.989,19.343,9.385,18.5z"/>
		<linearGradient id="SVGID_10_" gradientUnits="userSpaceOnUse" x1="28.7124" y1="17.5796" x2="28.7124" y2="23.003">
			<stop  offset="0" style="stop-color:#95A7BA"/>
			<stop  offset="1" style="stop-color:#FFFFFF"/>
		</linearGradient>
		<path fill-rule="evenodd" clip-rule="evenodd" fill="url(#SVGID_10_)" d="M9.452,18.485l0.1-0.139h30.231
			c0.419,0.441,1.483,0.829,3.13,0.917c0.687,0.037,4.479,0.014,5.386,0.014c0.29,0.612,0.578,1.147,0.894,1.803
			c-1.29,0.565-2.606,1.144-3.956,1.733c-2.76,0-5.515,0-8.271,0c-2.755,0-5.51,0-8.262,0c-2.755,0-5.515,0-8.266,0
			c-2.751,0-5.506,0-8.262,0c-1.354-0.589-2.667-1.166-3.944-1.731C8.651,20.182,9.061,19.316,9.452,18.485z"/>
		<linearGradient id="SVGID_11_" gradientUnits="userSpaceOnUse" x1="28.7119" y1="17.5889" x2="28.7119" y2="22.9459">
			<stop  offset="0" style="stop-color:#92A5B9"/>
			<stop  offset="1" style="stop-color:#FFFFFF"/>
		</linearGradient>
		<path fill-rule="evenodd" clip-rule="evenodd" fill="url(#SVGID_11_)" d="M9.519,18.47l0.109-0.123H39.75
			c0.424,0.445,1.481,0.835,3.109,0.922c0.684,0.037,4.46,0.014,5.364,0.014c0.289,0.61,0.57,1.095,0.885,1.749
			c-1.284,0.563-2.596,1.14-3.939,1.728c-2.749,0-5.493,0-8.237,0c-2.743,0-5.487,0-8.228,0c-2.744,0-5.492,0-8.232,0
			c-2.74,0-5.483,0-8.228,0c-1.348-0.588-2.656-1.163-3.928-1.726C8.729,20.144,9.133,19.291,9.519,18.47z"/>
		<linearGradient id="SVGID_12_" gradientUnits="userSpaceOnUse" x1="28.7119" y1="17.5986" x2="28.7119" y2="22.8893">
			<stop  offset="0" style="stop-color:#8FA3B7"/>
			<stop  offset="1" style="stop-color:#FFFFFF"/>
		</linearGradient>
		<path fill-rule="evenodd" clip-rule="evenodd" fill="url(#SVGID_12_)" d="M9.585,18.455l0.119-0.108h30.013
			c0.43,0.449,1.479,0.841,3.089,0.927c0.681,0.037,4.441,0.014,5.341,0.014c0.288,0.608,0.562,1.042,0.875,1.694
			c-1.278,0.562-2.585,1.136-3.923,1.723c-2.737,0-5.47,0-8.203,0c-2.732,0-5.465,0-8.194,0c-2.732,0-5.469,0-8.198,0
			c-2.729,0-5.461,0-8.193,0c-1.342-0.586-2.645-1.159-3.912-1.721C8.808,20.106,9.206,19.265,9.585,18.455z"/>
		<linearGradient id="SVGID_13_" gradientUnits="userSpaceOnUse" x1="28.7119" y1="17.6079" x2="28.7119" y2="22.8322">
			<stop  offset="0" style="stop-color:#8CA0B5"/>
			<stop  offset="1" style="stop-color:#FFFFFF"/>
		</linearGradient>
		<path fill-rule="evenodd" clip-rule="evenodd" fill="url(#SVGID_13_)" d="M9.652,18.439l0.129-0.092h29.904
			c0.434,0.453,1.477,0.847,3.068,0.933c0.679,0.036,4.423,0.013,5.319,0.013c0.286,0.607,0.554,0.989,0.866,1.639
			c-1.273,0.561-2.574,1.133-3.907,1.718c-2.726,0-5.447,0-8.168,0c-2.721,0-5.442,0-8.16,0c-2.721,0-5.446,0-8.164,0
			s-5.438,0-8.16,0c-1.336-0.585-2.634-1.156-3.895-1.716C8.886,20.069,9.278,19.238,9.652,18.439z"/>
		<linearGradient id="SVGID_14_" gradientUnits="userSpaceOnUse" x1="28.7124" y1="17.6172" x2="28.7124" y2="22.7745">
			<stop  offset="0" style="stop-color:#889EB4"/>
			<stop  offset="1" style="stop-color:#FFFFFF"/>
		</linearGradient>
		<path fill-rule="evenodd" clip-rule="evenodd" fill="url(#SVGID_14_)" d="M9.719,18.424l0.139-0.077h29.794
			c0.439,0.458,1.475,0.853,3.048,0.938c0.675,0.037,4.405,0.014,5.297,0.014c0.285,0.604,0.545,0.936,0.857,1.584
			c-1.268,0.559-2.563,1.13-3.891,1.712c-2.714,0-5.424,0-8.134,0c-2.709,0-5.42,0-8.125,0c-2.71,0-5.424,0-8.13,0s-5.416,0-8.125,0
			c-1.332-0.583-2.624-1.152-3.879-1.711C8.964,20.032,9.35,19.212,9.719,18.424z"/>
		<linearGradient id="SVGID_15_" gradientUnits="userSpaceOnUse" x1="28.7124" y1="17.6265" x2="28.7124" y2="22.7174">
			<stop  offset="0" style="stop-color:#859BB2"/>
			<stop  offset="1" style="stop-color:#FFFFFF"/>
		</linearGradient>
		<path fill-rule="evenodd" clip-rule="evenodd" fill="url(#SVGID_15_)" d="M9.786,18.408l0.149-0.062H39.62
			c0.444,0.461,1.473,0.859,3.027,0.943c0.673,0.036,4.387,0.013,5.275,0.013c0.283,0.603,0.538,0.883,0.848,1.529
			c-1.263,0.557-2.553,1.126-3.875,1.708c-2.703,0-5.401,0-8.1,0c-2.698,0-5.397,0-8.091,0c-2.699,0-5.401,0-8.096,0
			c-2.695,0-5.393,0-8.092,0c-1.326-0.581-2.612-1.148-3.862-1.706C9.042,19.994,9.422,19.186,9.786,18.408z"/>
		<linearGradient id="SVGID_16_" gradientUnits="userSpaceOnUse" x1="28.7124" y1="17.6357" x2="28.7124" y2="22.6603">
			<stop  offset="0" style="stop-color:#8299B1"/>
			<stop  offset="1" style="stop-color:#FFFFFF"/>
		</linearGradient>
		<path fill-rule="evenodd" clip-rule="evenodd" fill="url(#SVGID_16_)" d="M9.853,18.393l0.159-0.046h29.576
			c0.449,0.466,1.471,0.865,3.007,0.948c0.67,0.036,4.368,0.013,5.253,0.013c0.282,0.601,0.53,0.831,0.838,1.475
			c-1.257,0.556-2.542,1.123-3.858,1.703c-2.691,0-5.379,0-8.066,0s-5.375,0-8.058,0c-2.688,0-5.378,0-8.062,0
			c-2.684,0-5.371,0-8.058,0c-1.32-0.58-2.602-1.145-3.846-1.701C9.121,19.957,9.495,19.16,9.853,18.393z"/>
		<linearGradient id="SVGID_17_" gradientUnits="userSpaceOnUse" x1="28.7119" y1="17.6455" x2="28.7119" y2="22.6036">
			<stop  offset="0" style="stop-color:#7F97AF"/>
			<stop  offset="1" style="stop-color:#FFFFFF"/>
		</linearGradient>
		<path fill-rule="evenodd" clip-rule="evenodd" fill="url(#SVGID_17_)" d="M9.92,18.377l0.168-0.031h29.467
			c0.454,0.47,1.468,0.871,2.986,0.953c0.667,0.036,4.35,0.013,5.231,0.013c0.281,0.6,0.522,0.778,0.829,1.42
			c-1.251,0.554-2.531,1.119-3.841,1.697c-2.68,0-5.356,0-8.032,0c-2.675,0-5.352,0-8.023,0c-2.676,0-5.355,0-8.028,0
			c-2.672,0-5.348,0-8.023,0c-1.314-0.578-2.59-1.142-3.83-1.696C9.199,19.919,9.567,19.134,9.92,18.377z"/>
		<linearGradient id="SVGID_18_" gradientUnits="userSpaceOnUse" x1="28.7124" y1="17.6548" x2="28.7124" y2="22.5459">
			<stop  offset="0" style="stop-color:#7B95AD"/>
			<stop  offset="1" style="stop-color:#FFFFFF"/>
		</linearGradient>
		<path fill-rule="evenodd" clip-rule="evenodd" fill="url(#SVGID_18_)" d="M9.987,18.362l0.178-0.016h29.357
			c0.459,0.474,1.466,0.877,2.966,0.958c0.664,0.036,4.331,0.013,5.208,0.013c0.28,0.597,0.514,0.725,0.82,1.365
			c-1.247,0.552-2.521,1.116-3.826,1.692c-2.668,0-5.333,0-7.998,0c-2.665,0-5.33,0-7.99,0c-2.665,0-5.333,0-7.994,0
			s-5.325,0-7.989,0c-1.309-0.576-2.58-1.138-3.814-1.69C9.277,19.882,9.639,19.108,9.987,18.362z"/>
		<linearGradient id="SVGID_19_" gradientUnits="userSpaceOnUse" x1="28.7124" y1="17.6641" x2="28.7124" y2="22.4888">
			<stop  offset="0" style="stop-color:#7892AC"/>
			<stop  offset="1" style="stop-color:#FFFFFF"/>
		</linearGradient>
		<path fill-rule="evenodd" clip-rule="evenodd" fill="url(#SVGID_19_)" d="M39.49,18.347c0.464,0.478,1.464,0.883,2.945,0.963
			c0.662,0.036,4.313,0.013,5.187,0.013c0.279,0.596,0.506,0.672,0.811,1.311c-1.241,0.55-2.51,1.113-3.809,1.687
			c-2.657,0-5.311,0-7.964,0s-5.307,0-7.956,0c-2.653,0-5.31,0-7.959,0s-5.302,0-7.956,0c-1.303-0.574-2.568-1.135-3.797-1.686
			c0.363-0.791,0.72-1.553,1.062-2.288H39.49z"/>
	</g>
	<path fill-rule="evenodd" clip-rule="evenodd" fill="#FFFFFF" d="M38.091,18.347l0.305,1.368c0.147,0.658,0.298,1.336,0.455,2.037
		c-2.065,0-4.132,0-6.195,0c-2.063,0-4.125,0-6.184,0c-2.063,0-4.125,0-6.188,0c-2.063,0-4.125,0-6.188,0
		c-1.24-0.479-2.451-0.953-3.631-1.416c0.296-0.682,0.588-1.347,0.87-1.989H38.091z"/>
	<linearGradient id="SVGID_20_" gradientUnits="userSpaceOnUse" x1="24.6572" y1="17.9146" x2="24.6572" y2="22.8508">
		<stop  offset="0" style="stop-color:#9CADBE"/>
		<stop  offset="1" style="stop-color:#ECEDED"/>
	</linearGradient>
	<path fill-rule="evenodd" clip-rule="evenodd" fill="url(#SVGID_20_)" d="M38.147,18.347l0.249,1.113
		c0.147,0.658,0.298,1.337,0.455,2.036c-2.065,0-4.132,0-6.195,0c-2.063,0-4.125,0-6.184,0c-2.063,0-4.125,0-6.188,0
		c-2.063,0-4.125,0-6.188,0c-1.24-0.479-2.451-0.952-3.631-1.415c0.258-0.593,0.511-1.172,0.758-1.735H38.147z"/>
	<path fill-rule="evenodd" clip-rule="evenodd" d="M18.209,19.773c0.273,0,0.546,0,0.819,0c-0.041,0.123-0.08,0.248-0.112,0.37
		c-0.032,0.12-0.064,0.24-0.099,0.362c-0.037,0.129-0.074,0.257-0.112,0.386c-0.036,0.125-0.072,0.251-0.109,0.378
		c-0.287,0.003-0.573,0.003-0.853,0.003c0.04-0.129,0.079-0.254,0.119-0.38c0.041-0.129,0.082-0.256,0.122-0.386
		c0.039-0.124,0.072-0.241,0.108-0.362C18.127,20.021,18.17,19.896,18.209,19.773L18.209,19.773z M28.521,19.771
		c0.262,0,0.524,0,0.782,0c0.003,0.118,0.004,0.241,0.005,0.361c0.001,0.118,0.005,0.233,0.006,0.354
		c0.001,0.126,0.008,0.25,0.006,0.378c-0.001,0.12,0.002,0.244,0.006,0.368c-0.274,0-0.543,0-0.817,0.003
		c0.004-0.126,0.006-0.248,0.008-0.37c0.001-0.127,0-0.252,0.003-0.38c0.001-0.117,0-0.234,0.002-0.354
		C28.525,20.012,28.521,19.889,28.521,19.771L28.521,19.771z M22.588,19.773c0.268,0,0.536,0,0.803,0
		c-0.019,0.12-0.038,0.244-0.057,0.365c-0.018,0.119-0.035,0.238-0.054,0.358c-0.02,0.127-0.045,0.255-0.064,0.383
		c-0.019,0.123-0.038,0.248-0.057,0.376c-0.28,0-0.561,0.001-0.841,0.001c0.028-0.127,0.051-0.252,0.073-0.375
		c0.022-0.127,0.045-0.255,0.068-0.381c0.021-0.122,0.042-0.239,0.063-0.358C22.545,20.017,22.567,19.893,22.588,19.773
		L22.588,19.773z M34.907,19.769c0.075,0,0.15,0,0.23,0c0.02,0.119,0.045,0.237,0.065,0.358c0.019,0.114,0.044,0.231,0.069,0.348
		c0.021,0.125,0.044,0.248,0.068,0.373c0.023,0.12,0.046,0.239,0.073,0.365c-0.084,0-0.168,0-0.246,0
		c-0.02-0.125-0.042-0.244-0.064-0.365c-0.022-0.123-0.048-0.248-0.071-0.373c-0.021-0.116-0.042-0.23-0.061-0.348
		C34.951,20.006,34.926,19.887,34.907,19.769L34.907,19.769z M27.937,19.771c0.081,0,0.161,0,0.241,0
		c0,0.121-0.001,0.241-0.007,0.364c-0.006,0.116-0.003,0.233-0.006,0.354c-0.003,0.125-0.001,0.25-0.007,0.377
		c-0.006,0.122-0.006,0.244-0.006,0.37c-0.084,0.002-0.168,0.002-0.247,0.002c0.001-0.126,0.005-0.248,0.01-0.372
		c0.003-0.125,0.005-0.252,0.01-0.377c0.004-0.12,0.008-0.237,0.008-0.354C27.934,20.012,27.936,19.892,27.937,19.771L27.937,19.771
		z M25.678,19.771c0.081,0,0.161,0,0.241,0c-0.009,0.121-0.021,0.242-0.033,0.366c-0.011,0.116-0.017,0.235-0.025,0.355
		c-0.009,0.126-0.022,0.254-0.034,0.38c-0.012,0.124-0.023,0.247-0.033,0.373c-0.084,0.002-0.168,0.002-0.252,0.002
		c0.011-0.128,0.021-0.251,0.036-0.375c0.016-0.125,0.027-0.252,0.037-0.38c0.01-0.12,0.017-0.236,0.029-0.355
		C25.655,20.013,25.663,19.892,25.678,19.771L25.678,19.771z M20.613,19.773c0.08,0,0.166,0,0.246,0
		c-0.028,0.12-0.06,0.245-0.086,0.368c-0.025,0.121-0.055,0.24-0.083,0.36c-0.03,0.129-0.06,0.257-0.09,0.386
		c-0.028,0.123-0.057,0.248-0.087,0.377c-0.09,0-0.173,0-0.263,0c0.03-0.129,0.063-0.254,0.095-0.377
		c0.033-0.128,0.062-0.257,0.092-0.385c0.029-0.122,0.058-0.241,0.086-0.359C20.553,20.018,20.584,19.893,20.613,19.773
		L20.613,19.773z M26.138,19.771c0.263,0,0.525,0,0.787,0c-0.005,0.121-0.013,0.242-0.021,0.364
		c-0.007,0.117-0.01,0.235-0.015,0.355c-0.011,0.125-0.014,0.252-0.022,0.38c-0.007,0.122-0.015,0.244-0.026,0.371
		c-0.274,0-0.543,0.003-0.823,0.003c0.014-0.126,0.025-0.251,0.036-0.373c0.011-0.126,0.017-0.254,0.031-0.38
		c0.008-0.12,0.018-0.239,0.028-0.355C26.125,20.013,26.13,19.892,26.138,19.771L26.138,19.771z M31.396,19.771
		c0.08,0,0.16,0,0.235,0c0.012,0.118,0.027,0.24,0.038,0.36c0.009,0.116,0.021,0.23,0.031,0.349c0.01,0.125,0.018,0.251,0.028,0.375
		c0.009,0.122,0.02,0.244,0.033,0.37c-0.083,0-0.168,0-0.251,0c-0.006-0.126-0.019-0.247-0.025-0.368
		c-0.006-0.125-0.016-0.25-0.025-0.375c-0.009-0.117-0.026-0.235-0.035-0.351C31.416,20.011,31.407,19.889,31.396,19.771
		L31.396,19.771z M29.174,19.771c0.003,0.118,0.001,0.241,0.004,0.361c0.003,0.118,0.005,0.233,0.005,0.354
		c0,0.126,0.006,0.25,0.004,0.378c-0.002,0.12,0.001,0.244,0.005,0.368c0.079,0,0.163,0,0.247-0.001
		c-0.005-0.123-0.006-0.248-0.007-0.369c-0.001-0.125-0.003-0.25-0.008-0.377c0.001-0.119-0.006-0.234-0.007-0.353
		c-0.001-0.12-0.003-0.243-0.007-0.361C29.329,19.771,29.254,19.771,29.174,19.771L29.174,19.771z M24.19,19.771
		c0.08,0,0.166,0,0.241,0c-0.015,0.121-0.03,0.246-0.044,0.366c-0.014,0.119-0.028,0.237-0.042,0.358
		c-0.021,0.127-0.037,0.254-0.052,0.381c-0.015,0.123-0.035,0.247-0.05,0.374c-0.084,0-0.168,0-0.252,0
		c0.016-0.126,0.032-0.251,0.048-0.374c0.016-0.127,0.038-0.254,0.055-0.381c0.015-0.121,0.03-0.238,0.045-0.356
		C24.152,20.017,24.174,19.893,24.19,19.771L24.19,19.771z M27.23,19.771c0.128,0,0.262,0,0.391,0
		c-0.002,0.121-0.002,0.241-0.008,0.364c-0.004,0.116-0.01,0.235-0.012,0.354c-0.003,0.126-0.009,0.252-0.014,0.38
		c-0.005,0.121-0.01,0.242-0.013,0.369c-0.14,0.002-0.275,0.002-0.415,0.002c0.01-0.126,0.017-0.248,0.023-0.371
		c0.007-0.126,0.011-0.254,0.019-0.378c0.006-0.12,0.005-0.239,0.011-0.355C27.219,20.012,27.227,19.892,27.23,19.771L27.23,19.771z
		 M24.795,19.771c0.134,0,0.262,0,0.396,0c-0.012,0.121-0.024,0.242-0.036,0.366c-0.012,0.119-0.023,0.237-0.034,0.355
		c-0.013,0.128-0.031,0.255-0.043,0.383c-0.012,0.124-0.029,0.245-0.042,0.374c-0.14,0-0.28,0-0.42,0
		c0.019-0.126,0.036-0.25,0.052-0.374c0.016-0.126,0.027-0.252,0.042-0.38c0.013-0.121,0.031-0.239,0.044-0.358
		C24.768,20.013,24.781,19.892,24.795,19.771L24.795,19.771z M23.568,19.773c-0.018,0.12-0.036,0.244-0.054,0.365
		c-0.018,0.119-0.035,0.238-0.052,0.358c-0.019,0.127-0.043,0.255-0.063,0.383c-0.018,0.123-0.036,0.248-0.06,0.375
		c0.14,0,0.28,0,0.415,0c0.022-0.129,0.04-0.254,0.056-0.375c0.017-0.128,0.041-0.255,0.058-0.384
		c0.016-0.119,0.035-0.238,0.047-0.356c0.014-0.122,0.039-0.245,0.055-0.367C23.836,19.771,23.703,19.771,23.568,19.773
		L23.568,19.773z M21.528,19.773c0.139,0,0.268,0,0.407,0c-0.024,0.12-0.049,0.245-0.073,0.368c-0.024,0.12-0.046,0.237-0.07,0.358
		c-0.026,0.129-0.058,0.257-0.083,0.383c-0.024,0.124-0.049,0.25-0.074,0.377c-0.146,0-0.286,0.001-0.426,0.001
		c0.027-0.127,0.059-0.252,0.084-0.375c0.027-0.129,0.055-0.257,0.082-0.384c0.025-0.12,0.059-0.24,0.081-0.36
		C21.479,20.018,21.508,19.893,21.528,19.773L21.528,19.773z M19.306,19.773c-0.034,0.123-0.064,0.248-0.098,0.37
		c-0.034,0.12-0.067,0.239-0.101,0.362c-0.036,0.127-0.07,0.257-0.108,0.386c-0.038,0.124-0.075,0.248-0.112,0.378
		c0.141-0.001,0.287-0.001,0.427-0.001c0.034-0.129,0.076-0.253,0.106-0.378c0.031-0.127,0.063-0.257,0.098-0.387
		c0.032-0.121,0.064-0.239,0.096-0.359c0.034-0.125,0.067-0.247,0.1-0.37C19.579,19.773,19.445,19.773,19.306,19.773L19.306,19.773z
		 M19.917,19.773c-0.032,0.123-0.064,0.245-0.097,0.37c-0.031,0.119-0.063,0.239-0.094,0.359c-0.028,0.13-0.068,0.256-0.101,0.387
		c-0.032,0.124-0.064,0.248-0.099,0.378c0.141-0.003,0.281-0.003,0.421-0.003c0.032-0.128,0.068-0.252,0.099-0.378
		c0.032-0.128,0.064-0.257,0.096-0.385c0.03-0.121,0.06-0.241,0.089-0.359c0.031-0.125,0.062-0.247,0.087-0.37
		C20.185,19.773,20.051,19.773,19.917,19.773L19.917,19.773z M33.184,19.769c0.22,0,0.439,0,0.659,0
		c0.015,0.119,0.034,0.239,0.051,0.358c0.018,0.118,0.035,0.233,0.056,0.349c0.021,0.125,0.034,0.25,0.053,0.375
		c0.018,0.119,0.036,0.239,0.058,0.365c-0.229,0-0.458,0.001-0.688,0.001c-0.014-0.126-0.029-0.245-0.045-0.367
		c-0.016-0.123-0.035-0.248-0.051-0.375c-0.015-0.117-0.028-0.231-0.043-0.349C33.218,20.007,33.202,19.887,33.184,19.769
		L33.184,19.769z M32.686,19.769c0.069,0,0.134,0,0.203,0c0.017,0.119,0.032,0.239,0.046,0.359c0.014,0.117,0.031,0.233,0.045,0.349
		c0.015,0.127,0.03,0.251,0.043,0.377c0.011,0.119,0.029,0.241,0.042,0.364c-0.067,0.003-0.134,0.003-0.207,0.003
		c-0.012-0.126-0.026-0.246-0.039-0.367c-0.015-0.126-0.029-0.25-0.046-0.377c-0.016-0.115-0.027-0.231-0.042-0.349
		C32.713,20.007,32.702,19.887,32.686,19.769L32.686,19.769z M30.78,19.771c0.07,0,0.134,0,0.208,0
		c0.005,0.118,0.012,0.24,0.02,0.36c0.007,0.116,0.018,0.233,0.024,0.351c0.007,0.126,0.021,0.251,0.026,0.375
		c0.004,0.122,0.015,0.244,0.02,0.37c-0.067,0-0.14,0-0.207,0c-0.009-0.126-0.02-0.248-0.023-0.367
		c-0.004-0.127-0.017-0.252-0.023-0.378c-0.006-0.117-0.016-0.235-0.022-0.351C30.796,20.011,30.79,19.889,30.78,19.771
		L30.78,19.771z M33.729,19.769c0.021,0.119,0.038,0.239,0.056,0.359c0.017,0.116,0.037,0.231,0.054,0.348
		c0.019,0.125,0.034,0.25,0.053,0.375c0.018,0.119,0.036,0.241,0.051,0.365c0.073,0,0.14,0,0.213,0
		c-0.022-0.126-0.038-0.247-0.054-0.367c-0.016-0.124-0.036-0.25-0.055-0.374c-0.018-0.116-0.044-0.231-0.062-0.349
		c-0.018-0.119-0.037-0.239-0.052-0.358C33.863,19.769,33.799,19.769,33.729,19.769L33.729,19.769z M29.527,19.771
		c0.069,0,0.139,0,0.209,0c0,0.118,0.01,0.24,0.01,0.361c0,0.118,0.006,0.233,0.011,0.353c0.005,0.125,0.011,0.252,0.011,0.377
		c0,0.121,0.006,0.243,0.006,0.369c-0.073,0-0.14,0-0.213,0c-0.005-0.126-0.007-0.248-0.009-0.369
		c-0.002-0.125-0.007-0.25-0.009-0.377c-0.002-0.119-0.002-0.235-0.003-0.353C29.539,20.012,29.532,19.889,29.527,19.771
		L29.527,19.771z M32.092,19.771c0.107,0,0.22,0,0.332-0.002c0.01,0.119,0.022,0.239,0.035,0.359
		c0.012,0.117,0.031,0.233,0.04,0.352c0.016,0.125,0.029,0.251,0.042,0.374c0.013,0.121,0.026,0.242,0.037,0.367
		c-0.112,0-0.224,0.001-0.341,0.001c-0.015-0.126-0.029-0.245-0.038-0.367c-0.009-0.125-0.021-0.25-0.034-0.375
		c-0.011-0.119-0.022-0.235-0.036-0.352C32.114,20.007,32.105,19.887,32.092,19.771L32.092,19.771z M30.042,19.771
		c0.112,0,0.219,0,0.332,0c0.008,0.118,0.016,0.24,0.018,0.36c0.002,0.116,0.01,0.233,0.018,0.354
		c0.008,0.125,0.016,0.249,0.019,0.375c0.002,0.121,0.01,0.244,0.013,0.37c-0.112,0-0.229,0-0.341,0
		c-0.007-0.126-0.014-0.247-0.015-0.368c-0.007-0.128-0.008-0.253-0.015-0.377c-0.006-0.119-0.01-0.235-0.014-0.353
		C30.052,20.011,30.042,19.889,30.042,19.771z"/>
	<linearGradient id="SVGID_21_" gradientUnits="userSpaceOnUse" x1="2.7715" y1="25.7305" x2="55.5182" y2="25.7305">
		<stop  offset="0" style="stop-color:#A8A8A9"/>
		<stop  offset="0.03" style="stop-color:#3B413F"/>
		<stop  offset="0.16" style="stop-color:#3B413F"/>
		<stop  offset="0.42" style="stop-color:#000101"/>
		<stop  offset="0.84" style="stop-color:#3B413F"/>
		<stop  offset="0.94" style="stop-color:#3B413F"/>
		<stop  offset="1" style="stop-color:#A8A8A9"/>
	</linearGradient>
	<rect x="2.908" y="25.437" fill-rule="evenodd" clip-rule="evenodd" fill="url(#SVGID_21_)" width="51.607" height="0.588"/>
	<g>
		<path fill-rule="evenodd" clip-rule="evenodd" fill="#FFFFFF" d="M5.891,23.522c0.833,0,1.408,0.337,1.275,0.771
			s-0.948,0.796-1.81,0.796s-1.428-0.362-1.266-0.796S5.058,23.522,5.891,23.522z"/>
		<path fill-rule="evenodd" clip-rule="evenodd" fill="#B8C2C5" d="M5.79,23.522c0.778,0,1.308,0.317,1.183,0.719
			s-0.88,0.741-1.684,0.741S3.96,24.643,4.11,24.241C4.261,23.839,5.012,23.522,5.79,23.522z"/>
		<path fill-rule="evenodd" clip-rule="evenodd" fill="#051211" d="M5.744,23.605c0.674,0,1.136,0.281,1.026,0.628
			c-0.109,0.346-0.768,0.639-1.461,0.639c-0.692,0-1.146-0.292-1.018-0.639C4.418,23.886,5.07,23.605,5.744,23.605z"/>
		<path fill-rule="evenodd" clip-rule="evenodd" fill="#767C7B" d="M5.79,23.752c0.46,0.021,0.774,0.21,0.755,0.444
			c-0.019,0.045,0.04,0.061-0.021,0.093c-0.104,0.255-0.574,0.471-1.087,0.496c-0.001,0.007-0.004,0.013-0.005,0.015
			c-0.033,0.003-0.068,0.003-0.1,0.003s-0.059,0-0.085-0.003c0.001-0.002,0.003-0.008,0.005-0.015
			c-0.501-0.021-0.827-0.239-0.756-0.494c-0.031,0-0.063,0-0.094,0c0.003-0.022,0.011-0.043,0.016-0.058
			c0.006-0.016,0.009-0.023,0.018-0.035c0.031,0,0.062,0,0.098,0c0.149-0.24,0.596-0.429,1.074-0.446
			c0.009-0.026,0.019-0.053,0.028-0.081c0.026,0,0.054-0.002,0.084-0.002s0.065,0.002,0.096,0.002
			C5.809,23.7,5.799,23.726,5.79,23.752z"/>
		<g>
			<path fill-rule="evenodd" clip-rule="evenodd" fill="#FFFFFF" d="M5.821,23.664c0.013,0,0.031,0,0.048,0
				c-0.062,0.178-0.122,0.357-0.182,0.535c-0.017,0-0.035,0-0.049,0C5.698,24.021,5.759,23.841,5.821,23.664L5.821,23.664z
				 M5.656,24.292c-0.065,0.191-0.13,0.382-0.197,0.578c-0.014-0.013-0.028-0.026-0.036-0.042c0.063-0.183,0.124-0.361,0.184-0.537
				C5.621,24.292,5.638,24.292,5.656,24.292z"/>
			<path fill-rule="evenodd" clip-rule="evenodd" fill="#FFFFFF" d="M4.331,24.329c0.004-0.011,0.009-0.024,0.015-0.038
				c0.356,0,0.717,0,1.078,0c-0.005,0.013-0.009,0.026-0.013,0.038C5.049,24.329,4.688,24.329,4.331,24.329L4.331,24.329z
				 M6.606,24.329c-0.339,0-0.679,0-1.013,0c0.004-0.011,0.008-0.024,0.013-0.038c0.32-0.002,0.641-0.002,0.962-0.002
				C6.578,24.305,6.592,24.318,6.606,24.329z"/>
		</g>
		<g>
			<path fill-rule="evenodd" clip-rule="evenodd" fill="#051211" d="M4.333,24.216c0.002-0.006,0.005-0.015,0.009-0.024
				c0.302,0,0.609,0,0.916,0c-0.003,0.01-0.006,0.019-0.008,0.024C4.942,24.216,4.635,24.216,4.333,24.216L4.333,24.216z
				 M5.44,24.191c0.4,0,0.8,0,1.201,0c-0.01,0.034-0.02,0.064-0.03,0.092c-0.026,0-0.053,0-0.076,0
				c0.007-0.021,0.015-0.043,0.022-0.068c-0.378,0-0.752,0-1.125,0C5.434,24.21,5.438,24.201,5.44,24.191z"/>
			<path fill-rule="evenodd" clip-rule="evenodd" fill="#051211" d="M5.284,24.866c-0.027,0-0.055,0-0.077,0
				c0.066-0.189,0.13-0.376,0.193-0.558c0.022,0,0.049,0,0.076,0C5.413,24.49,5.349,24.677,5.284,24.866L5.284,24.866z
				 M5.711,23.623c-0.068,0.198-0.136,0.396-0.204,0.593c-0.027,0-0.054,0-0.076,0c0.064-0.189,0.131-0.38,0.197-0.571
				C5.653,23.639,5.682,23.63,5.711,23.623z"/>
		</g>
		<path fill-rule="evenodd" clip-rule="evenodd" fill="#FFFFFF" d="M5.014,23.902c0.197-0.075,0.387-0.096,0.422-0.045
			c0.041,0.049-0.092,0.15-0.287,0.225c-0.2,0.074-0.387,0.095-0.424,0.045C4.689,24.077,4.818,23.977,5.014,23.902z"/>
		<path fill-rule="evenodd" clip-rule="evenodd" fill="#FFFFFF" d="M5.912,24.447c0.179-0.067,0.352-0.085,0.388-0.04
			s-0.081,0.139-0.261,0.208c-0.179,0.069-0.356,0.087-0.391,0.04C5.615,24.609,5.733,24.514,5.912,24.447z"/>
	</g>
	<g>
		<path fill-rule="evenodd" clip-rule="evenodd" fill="#FFFFFF" d="M51.592,23.692c0.833,0.077,1.408,0.469,1.275,0.89
			s-0.948,0.708-1.81,0.628c-0.862-0.081-1.428-0.495-1.266-0.914C49.954,23.877,50.759,23.615,51.592,23.692z"/>
		<path fill-rule="evenodd" clip-rule="evenodd" fill="#B8C2C5" d="M51.491,23.683c0.778,0.072,1.308,0.438,1.184,0.829
			c-0.125,0.39-0.881,0.659-1.684,0.584s-1.329-0.463-1.179-0.851C49.962,23.857,50.713,23.61,51.491,23.683z"/>
		<path fill-rule="evenodd" clip-rule="evenodd" fill="#051211" d="M51.445,23.761c0.674,0.063,1.135,0.387,1.026,0.723
			c-0.109,0.337-0.768,0.567-1.461,0.503c-0.693-0.064-1.146-0.399-1.018-0.734C50.12,23.919,50.771,23.699,51.445,23.761z"/>
		<path fill-rule="evenodd" clip-rule="evenodd" fill="#767C7B" d="M51.491,23.913c0.46,0.063,0.774,0.282,0.756,0.515
			c-0.019,0.044,0.039,0.064-0.021,0.091c-0.103,0.246-0.574,0.417-1.086,0.395c-0.002,0.007-0.004,0.012-0.005,0.014
			c-0.032,0.001-0.069-0.002-0.1-0.005s-0.059-0.005-0.084-0.012c0.001-0.002,0.003-0.007,0.005-0.015
			c-0.501-0.067-0.828-0.315-0.756-0.563c-0.031-0.003-0.063-0.006-0.093-0.009c0.002-0.022,0.01-0.042,0.016-0.057
			c0.005-0.015,0.009-0.022,0.018-0.033c0.031,0.003,0.063,0.006,0.098,0.009c0.149-0.226,0.597-0.374,1.074-0.346
			c0.009-0.025,0.019-0.051,0.028-0.079c0.027,0.002,0.054,0.003,0.084,0.006c0.031,0.003,0.065,0.008,0.096,0.011
			C51.51,23.862,51.5,23.888,51.491,23.913z"/>
		<g>
			<path fill-rule="evenodd" clip-rule="evenodd" fill="#FFFFFF" d="M51.522,23.827c0.013,0.001,0.03,0.003,0.048,0.005
				c-0.061,0.172-0.122,0.346-0.182,0.518c-0.018-0.002-0.036-0.004-0.049-0.004C51.399,24.173,51.461,24,51.522,23.827
				L51.522,23.827z M51.357,24.44c-0.065,0.185-0.13,0.37-0.197,0.56c-0.014-0.015-0.028-0.029-0.036-0.045
				c0.063-0.178,0.124-0.35,0.184-0.52C51.322,24.437,51.339,24.438,51.357,24.44z"/>
			<path fill-rule="evenodd" clip-rule="evenodd" fill="#FFFFFF" d="M50.033,24.354c0.004-0.011,0.009-0.023,0.014-0.036
				c0.357,0.033,0.718,0.067,1.079,0.1c-0.005,0.013-0.009,0.026-0.014,0.037C50.75,24.421,50.389,24.387,50.033,24.354
				L50.033,24.354z M52.307,24.566c-0.338-0.032-0.678-0.063-1.012-0.094c0.004-0.011,0.008-0.023,0.013-0.037
				c0.321,0.028,0.642,0.058,0.963,0.087C52.279,24.539,52.293,24.553,52.307,24.566z"/>
		</g>
		<g>
			<path fill-rule="evenodd" clip-rule="evenodd" fill="#051211" d="M50.034,24.241c0.002-0.006,0.006-0.015,0.009-0.024
				c0.303,0.028,0.609,0.057,0.916,0.085c-0.003,0.009-0.006,0.019-0.008,0.024C50.644,24.297,50.337,24.269,50.034,24.241
				L50.034,24.241z M51.142,24.319c0.4,0.037,0.8,0.074,1.201,0.112c-0.01,0.033-0.02,0.063-0.029,0.09
				c-0.027-0.002-0.054-0.005-0.076-0.007c0.007-0.02,0.015-0.042,0.022-0.065c-0.378-0.036-0.751-0.07-1.125-0.105
				C51.135,24.337,51.139,24.329,51.142,24.319z"/>
			<path fill-rule="evenodd" clip-rule="evenodd" fill="#051211" d="M50.985,24.979c-0.027-0.002-0.054-0.005-0.076-0.007
				c0.065-0.183,0.129-0.364,0.193-0.54c0.022,0.001,0.049,0.004,0.076,0.007C51.114,24.616,51.051,24.796,50.985,24.979
				L50.985,24.979z M51.413,23.775c-0.069,0.192-0.136,0.385-0.204,0.575c-0.026-0.002-0.053-0.004-0.076-0.007
				c0.065-0.183,0.131-0.368,0.197-0.553C51.354,23.787,51.383,23.78,51.413,23.775z"/>
		</g>
		<path fill-rule="evenodd" clip-rule="evenodd" fill="#FFFFFF" d="M50.716,23.991c0.197-0.057,0.387-0.061,0.422-0.006
			c0.041,0.053-0.092,0.141-0.286,0.199c-0.2,0.055-0.387,0.059-0.424,0.005C50.39,24.135,50.519,24.047,50.716,23.991z"/>
		<path fill-rule="evenodd" clip-rule="evenodd" fill="#FFFFFF" d="M51.613,24.618c0.179-0.05,0.351-0.052,0.388-0.003
			c0.037,0.049-0.08,0.131-0.26,0.184c-0.18,0.052-0.357,0.053-0.391,0.003C51.317,24.753,51.434,24.669,51.613,24.618z"/>
	</g>
	<linearGradient id="SVGID_22_" gradientUnits="userSpaceOnUse" x1="28.1973" y1="28.709" x2="28.2738" y2="29.8032">
		<stop  offset="0" style="stop-color:#ECEBEE"/>
		<stop  offset="1" style="stop-color:#FFFFFF"/>
	</linearGradient>
	<rect y="28.939" fill-rule="evenodd" clip-rule="evenodd" fill="url(#SVGID_22_)" width="56.471" height="0.639"/>
</g>
</svg>
