<?xml version="1.0" encoding="utf-8"?>
<!DOCTYPE svg PUBLIC "-//W3C//DTD SVG 1.1//EN" "http://www.w3.org/Graphics/SVG/1.1/DTD/svg11.dtd">
<svg version="1.1" xmlns="http://www.w3.org/2000/svg" xmlns:xlink="http://www.w3.org/1999/xlink" width="70" height="70" viewBox="0 0 70 70">
<g>
	<g>
		<radialGradient id="SVGID_1_" cx="46.3008" cy="21.8276" r="43.1584" gradientUnits="userSpaceOnUse">
			<stop  offset="0" style="stop-color:#57AADD"/>
			<stop  offset="0.1128" style="stop-color:#53A2D6"/>
			<stop  offset="0.3109" style="stop-color:#4B8EC6"/>
			<stop  offset="0.5708" style="stop-color:#3C71B0"/>
			<stop  offset="0.8795" style="stop-color:#294E96"/>
			<stop  offset="1" style="stop-color:#233F8D"/>
		</radialGradient>
		<ellipse fill="url(#SVGID_1_)" cx="34.578" cy="34.551" rx="34.578" ry="34.551"/>
		<g>
			<g>
				<radialGradient id="SVGID_2_" cx="45.8232" cy="20.3193" r="34.2199" gradientUnits="userSpaceOnUse">
					<stop  offset="0" style="stop-color:#FFFFFF"/>
					<stop  offset="0.6218" style="stop-color:#CFD3E6"/>
					<stop  offset="1" style="stop-color:#B4BBD8"/>
				</radialGradient>
				<path fill="url(#SVGID_2_)" d="M34.399,10.828c0.403,0.209-0.054-0.702-0.091-0.538c-0.844,0.627-0.33-0.264-0.32-0.506
					c-1.415,0.617,0.087-0.019-0.57-0.041c0.022-0.273,0.81,0.452,1.016,0.408c0.748-0.161-0.426-1.131-0.704-1.131
					c-0.004,0.07,1.218-0.508,1.229-0.509c-0.28,0.088-0.384-0.027-0.31-0.344c0.197,0.279,0.369,0.284,0.513,0.016
					c-0.256-0.096-0.368-0.875-0.407-0.787C34.506,7.016,34.99,7.111,35.146,7.1c-0.187-0.106-0.316-0.254-0.389-0.444
					c0.146-0.204-0.297-1.717,0.566-1.781c-0.302-0.437-0.768,0.184-0.995,0.289c0.144-0.066-1.531-0.387,0.143-0.41
					c0.007,0.044-0.865,0.267-0.713,0.084c0.13-0.159,0.534-0.44,0.75-0.272c-0.509-0.394-0.415-1.047-1.182-0.307
					c0.292-0.282-0.648,0.127-0.312,0.178c-0.026,0.043,0.167-0.373-0.021-0.143c-0.078,0.035-0.26,0.353-0.125,0.051
					c-0.137,0.04-0.404,0.519-0.313,0.599c0.007,0.006-0.449-0.563-0.021-0.598c-0.088,0.007-0.482,0.441-0.476,0.463
					c-0.023-0.079-0.009-0.118-0.01-0.179c-0.184-0.006-0.25,0.038-0.202,0.134c0.045-0.147,0.104-0.156,0.259-0.314
					c-0.019-0.001-0.01-0.011,0.021-0.029c-0.232-0.049-1.009,0.49-1.118,0.411c0.13,0.095-1.083-0.704-1.049-0.137
					c0.008,0.168,0.404,0.525,0.401,0.447c0.016,0.421-2.885,0.513-1.325,1.017c-0.104,0.034-0.985,0.144-0.75-0.002
					c-0.357,0.05-0.255,0.404-0.428,0.556c0.371,0.042,1.043-0.183,1.162,0.236c0.233,0.831-0.4,1.68-0.836,2.352
					c0.125-0.12,0.523-0.23,0.625,0.138c0.138,0.505-1.199,0.675-1.357,0.542c0.597,0.503,0.809-0.483,0.856,0.623
					c0.013,0.288-0.554,0.413-0.988,0.724c-0.185,0.133,0.646,0.181,0.48,0.171c-0.23-0.013-1.002,1.409-0.949,1.638
					c-0.012-0.053,0.235-0.027,0.315,0.045c-0.183-0.166-0.464,0.382-0.349,0.34c-0.3,0.384,0.313,0.758,0.376,0.809
					c0.353,0.29-0.478,0.989,0.616,0.752c0.022,0.079,0.419,0.599,0.454,0.57c0.25-0.21,1.436-2.216,1.307-1.475
					c0.025-0.146,0.147-0.941,0.089-0.724c0.819,0.075,2.287-1.482,2.968-1.903C33.16,11.218,33.869,11.37,34.399,10.828
					L34.399,10.828z M34.584,7.821C34.954,7.821,34.423,7.825,34.584,7.821L34.584,7.821z M34.205,5.143
					c0.003,0.004,0.003,0.008,0.005,0.012C34.191,5.138,34.189,5.134,34.205,5.143L34.205,5.143z M34.144,5.171
					c0.004,0,0.01-0.001,0.015-0.001C34.131,5.215,34.126,5.215,34.144,5.171L34.144,5.171z M33.943,5.334
					C33.977,5.013,33.883,5.419,33.943,5.334L33.943,5.334z M33.807,4.237c0.091-0.144,0.212-0.244,0.364-0.301
					C34.266,4,33.924,4.42,33.865,4.459C33.747,4.538,33.815,4.224,33.807,4.237L33.807,4.237z M33.756,4.616
					C33.695,4.556,33.798,4.636,33.756,4.616L33.756,4.616z M33.664,4.232C33.845,4.236,33.674,4.217,33.664,4.232L33.664,4.232z
					 M33.514,4.324C33.635,4.014,33.507,4.338,33.514,4.324L33.514,4.324z M27.946,15.116
					C27.868,15.325,27.984,15.012,27.946,15.116L27.946,15.116z M29.314,6.098c0.058-0.054,0.117-0.107,0.174-0.16
					C29.431,5.991,29.373,6.044,29.314,6.098z M30.99,12.489C30.668,13.159,31.113,12.219,30.99,12.489L30.99,12.489z
					 M33.695,10.392C33.423,10.628,33.699,10.386,33.695,10.392L33.695,10.392z"/>
				<radialGradient id="SVGID_3_" cx="45.8237" cy="20.3193" r="34.2209" gradientUnits="userSpaceOnUse">
					<stop  offset="0" style="stop-color:#FFFFFF"/>
					<stop  offset="0.6218" style="stop-color:#CFD3E6"/>
					<stop  offset="1" style="stop-color:#B4BBD8"/>
				</radialGradient>
				<path fill="url(#SVGID_3_)" d="M20.046,19.696c1.12,0.063,1.344,0.184,2.429-0.353c2.308-1.144-0.697-0.824-0.705-0.857
					c-0.045-0.172,1.138-0.188,1.247-0.449c-0.125-0.029-0.155-0.1-0.088-0.211c-0.101,0.021-0.203,0.041-0.305,0.058
					c-0.034-0.056-0.979-1.353-0.259-1.253c-0.174-0.024-0.026-0.811,0.125-0.962c-0.074-0.048-0.152-0.076-0.239-0.082
					c0.182-0.385,0.084-0.711,0.423-1.163c-0.257-0.171-1.097,0.814-1.348,0.907c0-0.001-0.526-1.844,0.406-1.531
					c-0.122-0.034-0.274-0.101-0.372-0.03c0.237-0.171,0.099-0.503-0.06-1.022c-0.291,0.175-0.573,0.057-0.778-0.145
					c-0.185-0.182-1.02,1.042-1.136,1.188c-0.161-0.161-1.29,1.909-0.952,1.708c-0.145,0.331-2.388,2.332-2.675,2.167
					c0.247-0.249,0.308-1.059,0.517-1.414c0.737,0.346-0.274-1.342-0.198-1.19c-0.079-0.159,0.098-1.637-0.477-1.438
					c0.085-0.247,0.501-1.213,0.564-1.284c0.286-0.319,2.74-1.813,3.066-1.621c-0.006,0.005,0.033,0.137,0.008,0.201
					c0.641-0.451,0.836-0.11,0.264-0.69c0.191-0.124,0.213,0.017,0.402-0.144c-0.054,0.203,0.336,0.25,0.098,0.471
					c0.138,0.077,0.504-0.394,0.69-0.394c-0.053,0.099-0.057,0.199-0.01,0.297c0.154,0.062,0.303-0.372,0.342-0.407
					c0.013,0.125-0.061,0.18-0.061,0.359c0.005-0.005,1.553-0.558,1.149-0.741c0.336-0.31,0.413-0.275,0.792-0.604
					c-0.269,0.016-0.241-0.084,0.083-0.3c-0.574-0.477-1.363,1.34-2.096,0.975c0.05-0.04,0.045-0.057-0.013-0.052
					c0.145-0.658,0.797-0.536,1.132-1.106c-0.313-0.09-0.675,0.279-0.888,0.444c-0.289-0.455,2.98-2.536,3.336-2.746
					c-0.884,0.252-2.128,0.922-3.152,1.596c0.136-0.04,0.148-0.029,0.038,0.031c0.089-0.028,0.17-0.071,0.244-0.13
					c-0.033,0.035-0.031,0.06,0.003,0.074c-0.258,0.301-0.062,0.071-0.202,0.229c0.113,0.016,0.222,0.004,0.329-0.034
					c0.024,0.091-0.484,0.124-0.375,0.207c0.122-0.088-0.939,0.311-0.319,0.181c-0.083,0.072-1.271,0.646-1.335,0.646
					c0.044-0.401,0.606-0.631,0.682-0.687c-0.014-0.008-0.01-0.017,0.018-0.023c-0.096-0.02-0.163,0.016-0.2,0.108
					c0.38-0.665-0.063-0.19-0.271-0.047c-0.188-0.079-0.112-0.246-0.391-0.183c0.05-0.145,0.027-0.265,0.167-0.353
					c0.069,0.009-0.235-0.14-0.164-0.06c0.179-0.083,0.307-0.12,0.099-0.11c-0.021-0.051,0.367-0.342,0.402-0.417
					c-0.098,0.057-0.443-0.178-0.671,0.09c0.063-0.007,0.069,0.011,0.018,0.054c0.241-0.088,0.17,0.085,0.475-0.085
					c-0.001,0.048-1.202,0.512-1.399,0.638c0.06-0.068,0.811-0.68,0.775-0.758c-0.221,0.128-0.34-0.076-0.42-0.151
					c0.125-0.229,0.624-0.382,0.811-0.523c-0.073-0.044-0.134-0.027-0.184,0.047c0.231-0.274,0.894-0.85,0.583-1.185
					c0.006,0.14-0.056,0.219-0.188,0.238c0.057-0.226,1.13-0.779,1.302-0.847c-0.247,0.074-0.493,0.152-0.735,0.238
					c0.131-0.154-0.386,0.015-0.365,0.007c0.043-0.136-0.059-0.024-0.317,0.015c0.196-0.029,0.728-0.252,0.818-0.441
					c-0.155,0.056-0.282,0.07-0.417,0.127c0.042-0.091,0.084-0.07,0.106-0.091c0.141-0.035-0.367,0.171-0.459,0.222
					c0.297-0.485,1.07-0.833,1.571-1.054c-0.198,0.054-0.048-0.011-0.06-0.028c0.448-0.448,1.13-0.688,1.562-0.969
					c-0.104,0.016-0.021-0.04-0.069,0.001c0.024-0.013,0.022-0.015-0.006-0.004c-0.011,0.028,0.711-0.339,0.404-0.163
					c-0.043,0.013-0.051,0.012-0.021-0.003c-0.019,0.002-0.058-0.007-0.073,0.004c0.029-0.012,0.022-0.017-0.021-0.017
					c0.231-0.14-0.097,0.002,0.133-0.078c-0.055,0.016-0.062,0.009-0.021-0.023c-0.086,0.023-0.069,0.008,0.054-0.046
					c-0.139-0.031-0.417,0.061-0.568,0.108c0.065-0.034,0.077-0.044,0.037-0.029c0.029-0.013,0.029-0.014,0-0.003
					c0.088-0.045,0.119-0.066,0.248-0.123c-0.048,0.017-0.03,0.007,0.059-0.026c-0.548,0.18-1.041,0.449-1.542,0.636
					c0.131-0.069,0.012-0.015-0.357,0.161c-0.103,0.054,0.539-0.239-0.18,0.06c0.132-0.061,0.145-0.071,0.041-0.03
					c0.199-0.104,0.809-0.376,0.843-0.393c-0.028,0.011-0.025,0.009,0.006-0.004c-0.041,0.016-0.079,0.031-0.12,0.045
					c0.564-0.274-0.022,0.011,0.165-0.076c-0.013-0.001-0.006-0.004,0.021-0.012c-0.039,0.016-0.034,0.013,0.014-0.007
					c-0.419,0.161-0.816,0.381-1.228,0.558c0.28-0.13-0.2,0.101-0.305,0.158c0.101-0.046-0.571,0.273-0.615,0.295
					c-0.996,0.545-2.263,1.216-3.285,1.913c-0.072,0.046,0.237-0.158,0.13-0.08c0.002,0.001,0.412-0.261,0.463-0.291
					c-0.133,0.087-0.102,0.073,0.094-0.043c-0.214,0.15,0.085-0.021,0.102-0.031c-0.05,0.036-0.007,0.021,0.128-0.042
					c-0.402,0.207,0.272-0.15-0.421,0.27c0.621-0.471,0.078-0.068,0.179-0.146c-0.043,0.025-0.044,0.023-0.002-0.007
					c-0.328,0.187-0.522,0.286-0.749,0.45c0.042-0.017,0.03-0.004-0.036,0.035c0.302-0.143-0.129,0.108,0.153-0.071
					c-0.107,0.073-0.093,0.072,0.04-0.006c-0.303,0.179,0.258-0.119-0.176,0.133c0.555-0.271-1.74,0.972,0.536-0.321
					c-0.206,0.153-0.154,0.145-0.36,0.287c0.083-0.076-0.042,0.032,0.021-0.026c0.036-0.022-0.98,0.8-0.819,0.649
					c-0.135,0.15-0.423,0.446-0.479,0.481c-0.332,0.408-0.916,0.725-1.485,1.255c0.15-0.101,0.13-0.067-0.061,0.101
					c0.116-0.035,0.682-0.606,0.701-0.596c-0.081,0.037-0.15,0.088-0.209,0.153c0.158,0.057-0.657,0.513,0.264-0.107
					c-0.306,0.558-1.238,1.129-1.747,1.524c0.047,0.004,0.084-0.014,0.111-0.056c-0.046,0.086-0.057,0.101-0.033,0.046
					c-0.104,0.074-0.243,0.146-0.306,0.284c0.183-0.147-0.918,0.716,0.199-0.167c0.021-0.022-0.817,0.694-0.333,0.365
					c-0.195,0.292-0.646,0.529-0.907,0.798c0.463-0.296-0.042,0.021,0.13-0.078c-0.017,0.037-0.013,0.041,0.013,0.011
					c-0.309,0.982-0.196-0.376-0.413,0.406c0.082-0.073-0.092,0.083,0.063-0.057c-0.167,0.563-0.824,0.567-0.925,1.081
					c-0.001,0.002-1.137,1.553-1.143,1.706c0.151-0.913-0.549,0.407-0.548,0.396c-0.541,0.652-1.172,1.322-1.597,2.027
					c-0.013,0.259-0.722,1.102-0.894,1.464c-0.403,0.849-1.172,2.332-1.499,3.67c-0.078,0.319-0.613,2.437-0.729,2.119
					c-0.248,0.655-0.876,2.529-0.48,3.176c0.537-1.607,0.526-3.349,1.276-4.892c0.066,0.437-0.084,1.204-0.383,1.858
					c0.141,0.329-0.426,1.816-0.502,2.248c-0.208,1.186-0.34,2.404-0.244,3.609c0.075,0.914,0.288,1.863,0.835,2.619
					c0.249,0.344,0.665,0.525,0.767,0.774c0.413,1.003,0.739,1.962,1.667,2.436c-0.148,0.214,0.062,1.353,0.299,1.484
					c-0.185,0.43,0.595,1.378,0.598,1.357c0.142,0.411,1.249,1.546,1.326,0.477c0.547,0.822,0.596,1.254,0.517,2.278
					c-0.058,0.746-0.398,0.805-0.391,1.333c-0.397-0.164-0.385,0.328-0.441,0.613c-0.141,0.702,0.104,0.891,0.143,1.542
					c-0.303-0.15-0.013,0.022-0.129-0.029c0.12,1.591,1.119,2.877,1.763,4.282c0.607,1.323,1.129,2.343,2.088,3.591
					c0.485,0.631,1.856,4.111,1.875,4.117c0.872,1.382,0.648,2.458,1.445,3.46c0.232,0.293,1.202,1.582,1.105,1.54
					c0.149,0.078,0.172,0.104,0.07,0.08c0.188,0.196,0.274,0.31,0.467,0.522c-0.228-0.046-0.233-0.191-0.564-0.232
					c0.143,0.417,0.2,0.152,0.218,0.171c0.127,0.044,0.564,0.334,0.632,0.441c-0.21-0.025-0.068-0.021-0.111-0.038
					c0.585,0.585,0.716,0.648,1.298,1.099c-0.281-0.087,0.255,0.151-0.149-0.037c0.023,0.016,0.021,0.018-0.004,0.006
					c0.111,0.068,0.735,0.29,0.305,0.167c0.516,0.369,1.104,0.638,1.025,0.633c0.287,0.197,1.089,0.483,1.503,0.502
					c-0.045-0.024-0.091-0.046-0.137-0.07c0.161,0.033,0.316,0.083,0.465,0.155c-0.079-0.167-1.521-0.818-1.482-0.805
					c-0.086-0.01-0.076-0.015,0.006,0.029c-0.286-0.197-0.669-0.342-0.74-0.637c0.258,0.075-0.121,0.254,0.355,0.131
					c-0.108-0.285-0.233-0.37,0.081-0.333c-0.095-0.026-1.117-0.591-1.104-0.785c0.318-0.024,0.029-0.185,0.455-0.061
					c-0.081-0.103-0.417-0.581-0.096-0.534c-0.085-0.053,0.037-0.045,0.18,0.023c-0.027-0.121-0.097-0.194-0.21-0.219
					c0.069,0.11-0.551-0.394-0.614-0.462c0.034,0.015,0.034,0.005,0.001-0.028c0.215-0.101,0.564,0.302,0.799,0.271
					c-0.063-0.063-0.034-0.091,0.086-0.082c-0.097-0.196-0.211-0.541-0.412-0.646c-0.055-0.009,2.05,0.559,1.78-0.196
					c-0.373-0.061-0.997-1.39-1.176-1.427c0.337,0.854,2.288,0.766,2.192,0.509c0.066,0.009,0.16-1.063,0.616-0.729
					c0.17,0.124,1.049-0.822,0.287-1.492c-0.107-0.017,1.256-0.61,1.259-0.591c0.113,0.061,1.053-0.193,1.297-0.192
					c0.13,0.271,1.233-1.013,1.305-1.158c0.232-0.474,0.4-1.363,0.287-1.828c-0.312-1.287,0.762-1.376,1.681-2.203
					c1.682-1.513-4.147-3.217-4.164-3.549c-0.746-0.082-0.316,0.037-0.959-0.436c-0.235-0.174-1.565-1.142-1.537-0.365
					c-0.119-0.011-0.85,0.03-0.847,0.119c-0.323-0.043-0.3-0.478-0.571-0.519c-0.001-0.038-0.204,0.292-0.232-0.357
					c0.057,0.008,0.072-0.076,0.069-0.135c0.321,0.049,0.317-0.01,0.699,0.045c-0.056-0.094-0.107-0.189-0.155-0.289
					c0.112,0.115,0.182,0.067,0.208-0.145c-0.229-0.082-0.201,0.12-0.357,0.093c0.274-0.393,0.025-0.427,0.024-0.589
					c-0.149-0.022-0.209-0.766-0.237-0.832c-0.213-0.516-0.782-0.717-1.125-1.117c-0.306-0.355-0.539-0.37-0.886-0.537
					c-0.006,0.505-1.605-0.611-1.608-0.396c0.413-1.163-1.093-1.039-1.629-1.175c-0.054,0.063,1.269-0.447,0.465-0.617
					c-0.014-0.146-0.573-0.561-0.897-0.639c0.176,0.051-0.7-0.064-0.965-0.153c-0.172-0.059-1.482-0.447-2.216,0
					c-0.25,0.151-0.004-0.986-0.181-1.052c0.75-0.768,0.022-0.237-0.184-0.305c-0.004,0.045-0.105,0.029-0.151,0.011
					c-0.003,0.146-0.132,0.168-0.387,0.066c-0.625,0.216-0.21,0.201-0.607,0.678c-1.477,1.771-2.827-3.679-2.42-3.466
					c0.123-0.851-0.312-0.914-1.01-1.388c-0.322-0.218-0.306-1.49,0.075-1.275c0.011-0.108,0.396-1.179,0.449-1.148
					c0.18-0.735-0.099-0.282-0.576-0.6c0.007-0.032-0.895,0.867-0.912,0.946c-0.032-0.119-0.289-0.405-0.353-0.108
					c-0.494-0.282-0.657-1.026-0.714-1.539c-0.094-0.85,0.206-1.441,0.497-2.313c0.106-0.316,0.313-1.493,0.674-1.651
					c0.239-0.105,0.602,0.082,0.76-0.339c0.1,0.207,0.979,1.045,1.098,0.724c0.057,0.191,0.133,0.374,0.228,0.549
					c0.1-0.135,0.163-0.558-0.04-0.671c0.234-0.022,0.511,0.239,0.575,0.071c0.021,0.083,0.048,0.166,0.08,0.247
					c0.265-0.729,0.872,1.793,0.897,1.919c0.114-0.08,0.317,1.163,0.229,1.503c0.688-0.734,0.885-2.405,0.912-3.236
					c0.308-0.131,1.417-0.937,1.729-0.821c0.004-0.034,0.175-0.435,0.237-0.46c0.054-0.021,0.176,0.452,0.299,0.123
					c-0.273-0.102,0.165-1.866,0.435-2.077c0.279-0.219-0.313,1.235-0.139,0.819c0.167,0.063,0.241-0.127,0.12,0.173
					c0.447-0.073,0.337-0.493,0.49-0.8c0.346,0.377,0.862-0.682,1.32-0.741c0.325-0.041,0.569-0.05,0.869,0.042
					c-0.284-0.855,1.882-1.274,2.121-1.457c-0.098,0.472,0.452,0.164,0.493,0.037c-0.124,0.385-0.837-0.064,0.311,0.256
					c-0.142,0.38-1.165-0.232-1.203,0.503c-0.047,0.9,0.665-0.042,0.84-0.042c0,0.381,0.695-0.323,1.016-0.249
					c0.031-0.421-0.383,0.46,0.006-0.324c-0.255,0.012-0.505-0.019-0.749-0.09c0.088-0.161-0.01-0.792-0.129-0.775
					c0.328-0.304,0.317-0.354-0.132-0.39c0.058-0.13,1.061-0.337,0.882-0.819c-0.285-0.766-2.263,0.919-2.655,0.785
					c0.542-0.338,1.049-0.588,1.506-0.975C18.707,19.803,20.151,19.43,20.046,19.696L20.046,19.696z M23.346,6.729
					C23.346,6.771,23.139,6.812,23.346,6.729L23.346,6.729z M20.016,5.111C20.154,5.052,20.01,5.124,20.016,5.111L20.016,5.111z
					 M14.615,7.675C14.779,7.565,14.495,7.757,14.615,7.675L14.615,7.675z M14.354,7.821c-0.253,0.182,0.25-0.228,0.24-0.221
					c-0.011,0.016-0.005,0.013,0.017-0.006C14.525,7.669,14.439,7.745,14.354,7.821L14.354,7.821z M11.624,10.505
					C11.744,10.402,11.613,10.543,11.624,10.505L11.624,10.505z M8.952,13.833C9.195,13.58,8.942,13.846,8.952,13.833L8.952,13.833z
					 M7.745,26.505C7.748,26.737,7.748,26.737,7.745,26.505L7.745,26.505z M21.342,64.409
					C21.451,64.446,21.774,64.499,21.342,64.409L21.342,64.409z M20.279,63.98C20.311,63.986,20.389,64.033,20.279,63.98
					L20.279,63.98z M19.804,63.723C19.789,63.718,19.495,63.6,19.804,63.723L19.804,63.723z"/>
			</g>
			<g>
				<radialGradient id="SVGID_4_" cx="45.8223" cy="20.3218" r="34.2193" gradientUnits="userSpaceOnUse">
					<stop  offset="0" style="stop-color:#FFFFFF"/>
					<stop  offset="0.6218" style="stop-color:#CFD3E6"/>
					<stop  offset="1" style="stop-color:#B4BBD8"/>
				</radialGradient>
				<path fill="url(#SVGID_4_)" d="M65.813,45.056c0.023-0.291-0.112-0.32-0.073-0.528c-0.111,0.393-0.424,1.571-0.776,1.846
					c-0.059,0.27-0.805,1.083-0.991,1.588c0.032-0.021-0.388,1.166-0.399,1.199c-0.483,0.333-0.304,1.003-0.431,1.327
					c0.053-0.037-0.105,0.363,0.053,0.25c0.046,0.304,0.964-1.041,1.001-1.118c0.526-1.061,0.794-3.053,1.386-3.816
					c-0.03-0.006,0.223-0.025,0.046,0.123C65.927,45.678,65.66,45.188,65.813,45.056L65.813,45.056z"/>
				<radialGradient id="SVGID_5_" cx="45.8228" cy="20.3198" r="34.2171" gradientUnits="userSpaceOnUse">
					<stop  offset="0" style="stop-color:#FFFFFF"/>
					<stop  offset="0.6218" style="stop-color:#CFD3E6"/>
					<stop  offset="1" style="stop-color:#B4BBD8"/>
				</radialGradient>
				<path fill="url(#SVGID_5_)" d="M43.152,18.66c-0.194-0.55-1.471-0.675-1.586-1.076c0.124-0.019,0.011-0.851,0.086-0.862
					c0.001-0.168-1.046-0.571-1.145-0.54c0.089,0.342-0.05,0.52-0.136,0.748c-0.004,0.013,0.498,0.853,0.29,0.82
					c0.162,0.034,0.222,0.004,0.178-0.089c0.232,0.029,0.114,0.432,0.125,0.536c0.045,0.483,0.691-0.248,0.763,0.036
					c-0.427,0.059,0.193,0.374,0.148,0.222c0.113-0.016,0.104,0.513,0.106,0.472c-0.315,0.043-0.767-0.041-0.633,0.473
					c0.637-0.14,0.013,0.415,0.069,0.649c0.336-0.057,0.622-0.187,0.921-0.267c0.166,0.311-1.01,0.369-0.835,1.143
					c0.541-0.251,1.085-0.67,1.583-0.728c0.159-0.019,0.781-0.091,0.794-0.372c-0.096-0.031-0.192-0.02-0.286,0.034
					c0.026-0.401,0.67-1.132-0.255-0.707c-0.109-0.148-0.397-0.396-0.443-0.556C42.983,18.617,43.068,18.639,43.152,18.66
					L43.152,18.66z"/>
				<radialGradient id="SVGID_6_" cx="45.8252" cy="20.3193" r="34.2314" gradientUnits="userSpaceOnUse">
					<stop  offset="0" style="stop-color:#FFFFFF"/>
					<stop  offset="0.6218" style="stop-color:#CFD3E6"/>
					<stop  offset="1" style="stop-color:#B4BBD8"/>
				</radialGradient>
				<path fill="url(#SVGID_6_)" d="M40.918,18.613c-0.07-0.012-0.803-0.405-0.799-0.385c-0.43,0.052-0.088,0.551-0.688,0.61
					c0.025,0.177,0.323,0.235-0.033,0.272c0.006,0.081,0.787,1.06,0.02,0.894c0.229,0.77,1.168-0.255,1.369-0.235
					c-0.191-0.115-0.142-0.785-0.149-1.014C40.83,18.828,40.924,18.779,40.918,18.613L40.918,18.613z M39.903,19.636
					C39.85,20.023,39.918,19.524,39.903,19.636L39.903,19.636z"/>
				<radialGradient id="SVGID_7_" cx="45.8232" cy="20.3193" r="34.2211" gradientUnits="userSpaceOnUse">
					<stop  offset="0" style="stop-color:#FFFFFF"/>
					<stop  offset="0.6218" style="stop-color:#CFD3E6"/>
					<stop  offset="1" style="stop-color:#B4BBD8"/>
				</radialGradient>
				<path fill="url(#SVGID_7_)" d="M68.798,29.541c-0.478-6.675-4.338-13.637-8.866-18.528C54.69,5.348,47.576,1.472,39.899,0.453
					c0.038,0.008,0.48,0.056,0.105,0.023c0.157,0.022,0.202,0.031,0.136,0.026c0.313,0.048,0.393,0.09,0.853,0.147
					c-0.366-0.076-0.188-0.05,0.533,0.077c-0.272-0.038-0.143-0.012,0.386,0.08c-0.375-0.055,2.908,0.64,0.52,0.126
					c-0.824-0.021-0.049,0.005-0.172-0.012c0.305,0.064,0.614,0.122,0.921,0.172C42.621,1,43.842,1.245,42.995,1.106
					c0.247,0.073,0.2,0.054,0.08,0.035c0.256,0.075-1.637-0.504,0.318,0.074c-0.351-0.04,0.178,0.081-0.229,0.024
					c0.416,0.145,0.279,0.185,0.606,0.231c-0.043,0.013-0.04,0.024,0.009,0.033c-0.044-0.009-0.044,0,0,0.024
					c-0.04-0.007-0.045-0.005-0.016,0.005c-0.243-0.034,1.529,0.202-0.277-0.019c0.201,0.064,0.258,0.094,0.168,0.09
					c0.4,0.131,0.854,0.104,1.235,0.299c-0.262-0.042-0.638-0.016-0.874-0.133c0.406,0.057,0.421,0.109,0.188,0.087
					c-1.297-0.816,0.795,0.462,0.029,0.037c0.504,0.139,0.984,0.193,1.455,0.513c-0.875-0.189-1.917-0.692-2.668-0.779
					c-0.306,0.023-0.607-0.01-0.884,0c0.16-0.089,0.586,0.154,0.729,0.236c-0.602-0.068-0.327,0.051-0.335,0.046
					c-1.206-0.09,0.046,0.006-0.434-0.025c0.164,0.234,1.166,0.386,1.304,0.386c0.074-0.014,0.359-0.03,0.464,0.054
					c-0.414-0.094-0.354-0.037,0.179,0.17c-0.974-0.147,1.145,0.694,1.309,0.732c-0.287,0.055,0.708,0.16,0.612,0.138
					c-0.066,0.011-0.162,0.012-0.195,0.003c1.07,0.811,2.397,0.748,3.307,1.079c-0.224,0.056-0.134,0.197-0.515,0.054
					c0.079,0.035,0.149,0.082,0.21,0.141c-0.646-0.328-1.28-0.345-1.634-0.459c0.012,0.027,0.003,0.032-0.025,0.013
					c-0.059,0.272,0.523,0.101,0.523,0.299c-0.541-0.08,0.483,0.174,0.524,0.192c-0.123-0.015,0.054,0.144-0.014,0.119
					c-0.382,0.083,0.267-0.187-1.622-0.254c0.179,0.743,1.847,1.062,2.477,1.354c-0.171-0.289,0.927,0.424,0.912,0.45
					c-0.414-0.189-0.652-0.112-0.692-0.033c-0.04-0.018-0.684-0.198-0.705-0.152c-0.112,0.254,0.785,0.735,0.982,0.87
					c-0.011,0.011-0.005,0.018,0.02,0.021c-0.041-0.005-0.527-0.148-0.523-0.12c0.034,0.203-0.161,0.298,0.182,0.505
					c-0.092-0.003-0.16,0.186-0.26,0.067c0.174-0.11-0.116-0.051-0.348-0.218c0.046,0.135,0.131,0.238,0.258,0.309
					c-0.319,0.32,0.286,0.832,0.459,1.248c-0.335,0.252-0.998-1.23-1.649-0.783c0.578,0.366,1.002,0.745,1.57,1.188
					c-0.154,0.001-0.298-0.035-0.435-0.106c0.483,0.358,0.004-0.036-0.071,0.013c0.241,0.331,0.495,0.596,0.813,0.852
					c-0.019,0.006-0.502,0.021-0.343,0.115c0.013-0.014-0.396-0.184-0.471-0.184c0.089,0.318,0.604,0.41,0.876,0.644
					c-0.082,0.022-0.08,0.054,0.005,0.094c-0.482,0.271-2.272-0.762-2.68-1.123c0.232,0.078,0.471,0.125,0.715,0.139
					c-0.261-0.222,0.751-0.071,0.928-0.148c-0.041-0.033-0.003-0.109-0.037-0.136c0.52-0.347-2.082-0.965-1.955-0.868
					c-0.205-0.18-2.35-0.891-2.133-0.362c-0.057,0.144,0.094,0.601,0.167,0.65c-0.251-0.167-0.999-0.44-0.51,0.05
					c-0.005,0.002-0.249,0.102-0.124,0.14c-0.295,0.02-0.304,0.043-0.147,0.072c-0.38-0.072-0.077,0.035-0.056,0.192
					c0.001,0.014-0.243-0.115-0.204-0.072c-0.072,0.031,0.627,2.013,0.648,2.122c0.041,0.2-0.282,1.031-0.323,0.967
					c-0.057,0.015,0.215,0.33,0.207,0.432c-0.04,0.035-0.079,0.068-0.119,0.103c-0.458-0.065-0.526,0.066-0.201,0.391
					c0.045-0.55-0.505,0.645-0.371,0.329c-0.062,0.148,0.058,0.569,0.125,0.397c0.031-0.083,0.018-0.156-0.039-0.218
					c-0.913,0.025,0.137,0.782,0.096,0.698c-0.426-0.11-0.182,0.107-0.383,0.085c0.222-0.249,0.599,0.797,0.655,0.908
					c0.126-0.023-0.181-0.233,0.127-0.197c-0.328-0.039,1.088,1.057,0.838,0.603c0.021-0.004,0.646-0.716,0.686-0.694
					c0.305,0.177,1.485,1.703,1.609,1.648c0.176-0.078,0.608-0.97,0.576-1.019c-0.064,0.082-0.47-0.569-0.681-0.916
					c1.28-0.294-0.514-1.293-0.841-1.772c0.183-0.057-0.276-2.063-0.449-2.29c0.34,0.186,0.61-0.07,1.001,0.36
					c-0.27,0.201,0.566,2.409,1.128,2.199c-0.327-0.311,0.246-0.03,0.297,0.034c-0.228,0.131-0.101,0.136-0.009,0.259
					c0.102-0.076,0.078-0.071,0.006-0.172c0.024-0.002,0.024-0.013,0-0.03c-0.014,0.005,0.476,0.275,0.349,0.1
					c0.087-0.036,0.37-0.97,0.587-0.73c-0.064,0.027,0.644,0.19,0.795,0.216c-0.269,0.048-0.438,0.238-0.333,0.444
					c-0.102,0.009-0.204,0.012-0.306,0.009c0.133,0.17-0.632,0.327-0.516,0.55c0.065,0.124,0.953,1.003,0.581,1.145
					c-0.177,0.068-0.339-0.144-0.506-0.137c-0.119,0.004,0.453,1.058,0.532,1.182c-0.228,0.076,0.061,0.363-0.153-0.007
					c-0.181,0.377,0.173,0.306,0.023,0.683c-0.033-0.01-0.424,0.089-0.325-0.034c0.015,0.044,0.038,0.037,0.067-0.021
					c0.09,0.196-2.126,0.737-1.938,0.983c-0.427,0.172-0.622-0.362-0.793-0.533c-0.163-0.196-0.058-0.394-0.052-0.728
					c0.002-0.146-0.358-0.372-0.484-0.386c0.015,0.035,0.004,0.038-0.03,0.008c0.139-0.109,0.102-0.287-0.004-0.464
					c-0.007,0.141-0.251,0.416-0.394,0.45c0.193,0.381,0.193-0.158,0.415,0.311c-0.141,0.032-0.278,0.076-0.412,0.13
					c-0.069,0.266,0.667,0.925,0.8,1.22c0.241-0.053-0.165,0.722-0.1,0.808c-0.66-0.186-1.253,0.169-0.97,0.963
					c-0.338,0.12-0.567,0.197-0.922,0.312c0.344,1.042-0.94,0.779-1.137,0.916c0.103,0.177,0.153,0.366,0.152,0.567
					c0-0.012-1.032,0.303-1.115,0.294c0.342,0.059,0.117,0.266,0.025,0.287c-0.006-0.006,1.105,0.361,1.019,0.329
					c0.212,0.08,1.588,1.402,0.965,1.841c-0.401,0.284-1.348,0.134-1.826,0.156c-0.713,0.032-0.989,0.372-1.531,0.434
					c0.548,1.141,0.108,2.087,0.558,3.063c1.094-0.382,2.431,0.383,3.362-0.457c0.761-0.685,0.349-2.564,1.631-2.806
					c0.024-0.322-0.285-0.774,0.259-0.814c0.162-0.012,1.292-0.113,1.181-0.426c0.487-0.098-0.132-0.446,0.519-0.35
					c0.522,0.077,0.988,0.466,1.392,0.777c0.439,0.338,0.879,0.735,1.399,0.946c0.794,0.323,0.312,0.236,0.759,0.917
					c0.853-0.107-0.158-1.342-0.178-1.563c0.017,0.179,0.4,0.331,0.716,0.229c-0.269-0.676-1.828-0.705-2.371-1.197
					c-0.29-0.263-0.675-0.613-0.828-0.986c0.033-0.008,0.449-0.174,0.416-0.258c0.008,0.024,0.344,0.565,0.338,0.536
					c-0.056-0.143,0.081-0.186,0.035-0.429c0.008,0.001,1.097,0.893,1.042,0.758c0.407-0.279,1.423,0.604,1.583,0.552
					c0.197,0.464,1.169,1.663,1.902,1.407c-0.203,0.063-0.936,0.633-0.168,0.627c0.039,0.097,0.381-0.357,0.524-0.409
					c-0.097-0.029-0.17-0.086-0.218-0.172c0.168-0.064,0.122-0.005,0.326,0.004c-0.154-0.166-0.325-0.313-0.51-0.443
					c0.236,0.063,0.472,0.134,0.704,0.211c-0.02-0.022-0.015-0.034,0.013-0.036c-0.228-0.25-0.918-0.262-0.874-0.181
					c0.02,0.037-0.052-0.213-0.083-0.284c0.07,0.012,0.14,0.018,0.211,0.017c-0.223-0.243-0.333-0.432-0.48-0.65
					c0.105,0.109,0.23,0.18,0.378,0.213C54,23.451,54.212,23.307,54.263,23.3c-0.034-0.063-0.381-0.156-0.308-0.289
					c0.135-0.245,0.875-0.058,0.956,0.104c0.955-0.956,0.136-1.168-0.184-2.308c-0.069-0.249,0.15-1.427,0.115-1.485
					c0.198,0.107,0.195,0.137,0.047,0.205c0.248,0.396,0.472-0.38,0.773,0.018c-0.16,0.086-0.231,0.219-0.217,0.4
					c0.308-0.154,0.321,0.118,0.494,0.318c1.011-1.383,0.09-0.205-0.431-1.004c0.256-0.066,1.004-0.957,1.01-1.089
					c-0.006,0.134-0.129,0.454-0.218,0.564c0.528,0.299,0.004,0.405,0.219,0.757c0.116-0.168,2.779,0.449,1.698,1.451
					c-0.215,0.199-1.092,0.405-1.275,0.136c-0.259,0.401-1.803,1.005-1.11,1.259c-0.274,0.024-0.891,0.839-0.748,1.154
					c0.298-0.265,0.622,0.479,0.311,0.43c0.161,0.744,1.193,0.374,1.236,0.696c0.648-0.288,1.319-0.943,1.799-1.199
					c0.581,0.823,0.833,2.067,0.446,3.099c-0.002,0.005-2.908,1.481-3.032,0.801c-0.055,0.013-2.292,0.246-1.437,0.78
					c0.669,0.418-0.278,0.85-0.725,0.725c-0.465-0.131-0.904,0.072-1.303-0.349c-0.011-0.013-2.364-0.488-2.168-0.535
					c-0.101-0.373,0.295-0.221,0.04-0.682c-0.088,0.006-0.219-0.605-0.254-0.733c-0.985,0.074-2.37,0.778-3.179,0.716
					c-0.366-0.028-3.158,1.582-3.211,1.278c-0.428,0.188-1.06-0.581-1.035,0.492c0.003,0.138-0.283,0.542-0.449,0.56
					c-0.027-0.198-0.821,0.829-0.854,0.933c-0.461,0.507,0.36,0.918-0.179,1.244c-0.552,0.333-2.626,2.766-2.579,3.444
					c-1.25,0.065,0.929,4.241-0.577,4.371c0.366,0.388,0.407,1.37,1.036,1.303c0.008,0.256,0.716,0.817,0.881,1.03
					c0.391,0.506,3.097,2.322,3.094,2.244c0.357,0.156,1.662-0.604,2.19-0.5c0.505,0.099,2.767-0.791,2.377-0.973
					c0.412-0.005,0.446-0.151,0.458,0.165c0.325,0.002,0.82-0.558,1.214-0.644c-0.034,0.028-0.058,0.063-0.074,0.104
					c0.296-0.06,1.136-0.133,1.244,0.3c-0.646,0.526,1.212,0.239,1.201,0.131c0.133-0.029,0.224-0.136,0.403-0.181
					c-0.042,0.383,0.124,0.181,0.381,0.122c0.394,1.037-0.431,1.735-0.396,2.696c0.084-0.02,0.311,0.193,0.411,0.166
					c-0.035,0.078-0.096,0.112-0.185,0.102c1.798,1.286,2.633,3.02,1.395,5.068c-1.156,1.914,0.502,2.606,0.025,4.51
					c-0.077,0.023,0.031,0.506,0.013,0.569c0.606,0.799,0.594,1.055,0.184,2.079c0.668-0.281,1.665-0.694,2.441-1.133
					c0.954-0.541,1.956-1.079,2.672-1.933c0.63-0.748,0.673-1.573,1.431-2.229c0.43-0.371,0.783-1.651,0.871-1.702
					c0.447-1.581,1.651-2.47,2.319-3.969c0.399-0.896,0.027-1.478,0.122-2.258c0.167-0.099,0.321-2.499,0.381-2.866
					c0.289-1.803,0.603-3.604,0.992-5.388c0.202-0.931,0.347-2.702,1.091-3.406c-0.607-0.041-0.941,1.648-1.428,1.585
					c-0.075,0.053-0.65-1.156-0.886-1.359c-0.016-0.014-1.536-0.576-1.058-0.862c-0.093-0.386-0.12-0.312-0.456-0.4
					c-0.321-0.085-0.815-2.384-1.388-2.077c-0.197-0.428-1.995-1.849-1.081-2.327c0.011,0.046,1.906,1.801,1.973,1.762
					c0.477,1.473,1.625,1.98,2.171,3.592c0.888-0.605,1.731-2.271,2.115-3.667c0.159-0.581,0.267-1.189,0.243-1.795
					c-0.001-0.055-0.383-1.584-0.496-1.432c-0.349-0.286-0.578-0.1-0.873-0.813c0.058,0.838-0.073,1.058-0.474,1.579
					c-0.056-0.081-0.375-0.622-0.323-0.67c-0.024,0.161-0.022,0.323,0.003,0.483c-0.286-0.111-1.699-1.762-1.303-2.082
					c0.37-0.298,0.965,0.707,1.025,0.647c0.483,1.087,0.766-0.2,0.943-0.417c0.07,0.156,0.279,0.259,0.361,0.418
					c0.409-0.523,0.837-0.731,1.075-1.355c0.14,0.285,0.323,0.497,0.409,0.234c0.195,0.942,0.203,0.07,0.222-0.118
					c0.125,0.492,0.133,0.85,0.434,1.281c-0.039-0.388-0.114-0.77-0.221-1.146C67.878,25.962,68.653,27.596,68.798,29.541
					L68.798,29.541z M44.434,1.919C44.383,1.895,44.674,1.966,44.434,1.919L44.434,1.919z M44.174,2.255
					c-0.314-0.117,0.336,0.32-0.38-0.039c-0.125-0.025-0.114-0.03,0.033-0.015c0.404,0.231-0.506-0.22-0.476-0.148
					c0.105,0.022,0.134,0.019,0.088-0.009C43.556,2.062,44.155,2.241,44.174,2.255L44.174,2.255z M46.246,2.649
					C46.13,2.656,46.411,2.706,46.246,2.649L46.246,2.649z M48.165,4.689C48.164,4.685,48.53,4.784,48.165,4.689L48.165,4.689z
					 M43.654,13.462C43.642,13.465,43.523,13.43,43.654,13.462L43.654,13.462z M44.154,10.809
					C44.187,10.801,43.996,10.809,44.154,10.809L44.154,10.809z M44.199,11.484c-0.011-0.015-0.021-0.028-0.031-0.043
					C44.245,11.462,44.256,11.475,44.199,11.484L44.199,11.484z M47.031,14.349C47.175,14.565,47.04,14.347,47.031,14.349
					L47.031,14.349z M46.822,14.386C46.966,14.338,46.789,14.394,46.822,14.386L46.822,14.386z M46.343,18.099
					C46.348,18.097,46.174,18.079,46.343,18.099L46.343,18.099z M54.048,52.776C54.022,52.984,54.047,52.778,54.048,52.776
					L54.048,52.776z M58.983,27.409C58.943,27.208,58.943,27.208,58.983,27.409L58.983,27.409z M58.182,9.246
					C58.594,9.604,58.141,9.259,58.182,9.246L58.182,9.246z M62.131,20.774c-1.146,1.235-1.302-0.519-1.752-1.204
					c-0.242,0.208-2.563-1.81-2.074-2.222c0.104,0.135,0.112,0.014,0.166,0.127c0.071-0.214-0.087-0.127-0.141-0.262
					c0.146,0.133,0.243-0.537,0.103-0.716c0.379-0.232,1.953,0.503,1.28,1.175c-0.008-0.026-0.018-0.029-0.028-0.01
					c-0.177-0.254,0.204-0.327-0.302-0.483c-0.036,0.044,0.003,0.29-0.082,0.402c-0.163,0.216,0.241,0.097,0.25,0.087
					c0.033,0.162,0,0.219-0.097,0.171c-0.264,0.298,2.098,0.583,1.472,1.254c0.037-0.002-0.142-0.171-0.111-0.135
					c-0.121,0.113,0.123,0.629,0.421,0.312C61.363,19.457,62.128,20.776,62.131,20.774L62.131,20.774z"/>
			</g>
		</g>
	</g>
</g>
</svg>
