<?xml version="1.0" encoding="utf-8"?>
<!DOCTYPE svg PUBLIC "-//W3C//DTD SVG 1.1//EN" "http://www.w3.org/Graphics/SVG/1.1/DTD/svg11.dtd">
<svg version="1.1" xmlns="http://www.w3.org/2000/svg" xmlns:xlink="http://www.w3.org/1999/xlink" width="88" height="24" viewBox="0 0 88 24">
<g>
	<g>
		<defs>
			<polygon id="SVGID_1_" points="1.153,1.202 87.163,1.202 87.163,22.384 1.153,22.384 1.153,1.202 			"/>
		</defs>
	</g>
	
		<polygon fill="#C0C0C0" stroke="#010101" stroke-width="0.0709" stroke-linecap="round" stroke-linejoin="round" stroke-miterlimit="10" points="
		1,22.211 86.878,22.211 86.878,1 1,1 1,22.211 	"/>
	<g>
		<defs>
			<polygon id="SVGID_3_" points="9.195,18.24 9.195,20.542 11.992,20.542 11.992,18.24 13.74,18.24 13.74,14.095 7.097,14.095 
				7.097,18.24 9.195,18.24 			"/>
		</defs>
		<clipPath id="SVGID_4_">
			<use xlink:href="#SVGID_3_"  overflow="visible"/>
		</clipPath>
	</g>
	
		<polygon fill="#E2E2E2" stroke="#010101" stroke-width="0.0709" stroke-linecap="round" stroke-linejoin="round" stroke-miterlimit="10" points="
		9.042,18.125 9.042,20.571 11.729,20.571 11.729,18.125 13.74,18.125 13.74,14.038 7.031,14.038 7.031,18.125 9.042,18.125 	"/>
	<g>
		<defs>
			<path id="SVGID_5_" d="M38.564,9.951c0-0.46-0.35-1.381-1.049-1.381c-0.7,0-1.399,0.921-1.399,1.381
				c0,0.921,0.699,1.842,1.399,1.842C38.214,11.792,38.564,10.872,38.564,9.951"/>
		</defs>
	</g>
	<circle cx="37.4" cy="10" r="1.4" fill="#37B84F" />
	<g>
		<defs>
			<path id="SVGID_7_" d="M11.642,5.346c0-0.921-0.35-1.842-1.049-1.842S9.195,4.425,9.195,5.346s0.699,1.382,1.398,1.382
				S11.642,6.267,11.642,5.346"/>
		</defs>
	</g>
	<circle cx="10.6" cy="5.2" r="1.4" fill="#E41D2C" />
	<g>
		<defs>
			<polygon id="SVGID_9_" points="22.481,18.24 22.481,20.542 25.278,20.542 25.278,18.24 27.375,18.24 27.375,14.095 
				20.732,14.095 20.732,18.24 22.481,18.24 			"/>
		</defs>
	</g>
		<polygon fill="#E2E2E2" stroke="#010101" stroke-width="0.0709" stroke-linecap="round" stroke-linejoin="round" stroke-miterlimit="10" points="
		22.458,18.125 22.458,20.571 25.146,20.571 25.146,18.125 27.157,18.125 27.157,14.038 20.448,14.038 20.448,18.125 22.458,18.125 
			"/>
	<g>
		<defs>
			<polygon id="SVGID_11_" points="36.116,18.24 36.116,20.542 38.564,20.542 38.564,18.24 40.662,18.24 40.662,14.095 
				34.019,14.095 34.019,18.24 36.116,18.24 			"/>
		</defs>
	</g>
	
		<polygon fill="#E2E2E2" stroke="#010101" stroke-width="0.0709" stroke-linecap="round" stroke-linejoin="round" stroke-miterlimit="10" points="
		35.876,18.125 35.876,20.571 38.564,20.571 38.564,18.125 40.574,18.125 40.574,14.038 33.866,14.038 33.866,18.125 35.876,18.125 
			"/>
	<g>
		<defs>
			<polygon id="SVGID_13_" points="49.402,18.24 49.402,20.542 52.199,20.542 52.199,18.24 54.297,18.24 54.297,14.095 
				47.305,14.095 47.305,18.24 49.402,18.24 			"/>
		</defs>
	</g>
	
		<polygon fill="#E2E2E2" stroke="#010101" stroke-width="0.0709" stroke-linecap="round" stroke-linejoin="round" stroke-miterlimit="10" points="
		49.315,18.125 49.315,20.571 51.981,20.571 51.981,18.125 54.013,18.125 54.013,14.038 47.283,14.038 47.283,18.125 49.315,18.125 
			"/>
	<g>
		<defs>
			<polygon id="SVGID_15_" points="63.038,18.24 63.038,20.542 65.486,20.542 65.486,18.24 67.583,18.24 67.583,14.095 
				60.94,14.095 60.94,18.24 63.038,18.24 			"/>
		</defs>
	</g>
	
		<polygon fill="#E2E2E2" stroke="#010101" stroke-width="0.0709" stroke-linecap="round" stroke-linejoin="round" stroke-miterlimit="10" points="
		62.732,18.125 62.732,20.571 65.419,20.571 65.419,18.125 67.43,18.125 67.43,14.038 60.722,14.038 60.722,18.125 62.732,18.125 	
		"/>
	<g>
		<defs>
			<polygon id="SVGID_17_" points="76.324,18.24 76.324,20.542 79.121,20.542 79.121,18.24 80.869,18.24 80.869,14.095 
				74.226,14.095 74.226,18.24 76.324,18.24 			"/>
		</defs>
	</g>
	
		<polygon fill="#E2E2E2" stroke="#010101" stroke-width="0.0709" stroke-linecap="round" stroke-linejoin="round" stroke-miterlimit="10" points="
		76.15,18.125 76.15,20.571 78.836,20.571 78.836,18.125 80.847,18.125 80.847,14.038 74.139,14.038 74.139,18.125 76.15,18.125 	
		"/>
	<g>
		<defs>
			<path id="SVGID_19_" d="M11.992,9.951c0-0.46-0.699-1.381-1.398-1.381S9.195,9.49,9.195,9.951c0,0.921,0.699,1.842,1.398,1.842
				S11.992,10.872,11.992,9.951"/>
		</defs>
	</g>
	<circle cx="10.6" cy="10" r="1.4" fill="#E41D2C" />
	<g>
		<defs>
			<path id="SVGID_21_" d="M38.564,5.346c0-0.921-0.35-1.842-1.049-1.842c-1.049,0-1.399,0.921-1.399,1.842s0.35,1.382,1.399,1.382
				C38.214,6.728,38.564,6.267,38.564,5.346"/>
		</defs>
	</g>
	<circle cx="37.4" cy="5.2" r="1.4" fill="#37B84F" />
	<g>
		<defs>
			<path id="SVGID_23_" d="M25.278,5.346c0-0.921-0.699-1.842-1.398-1.842s-1.398,0.921-1.398,1.842s0.699,1.382,1.398,1.382
				S25.278,6.267,25.278,5.346"/>
		</defs>
	</g>
	<circle cx="23.8" cy="5.2" r="1.4" fill="#E41D2C" />
	<g>
		<defs>
			<path id="SVGID_25_" d="M25.278,9.951c0-0.46-0.699-1.381-1.398-1.381s-1.398,0.921-1.398,1.381c0,0.921,0.699,1.842,1.398,1.842
				S25.278,10.872,25.278,9.951"/>
		</defs>
	</g>
	<circle cx="23.8" cy="10" r="1.4" fill="#E41D2C" />
	<g>
		<defs>
			<path id="SVGID_27_" d="M52.199,9.951c0-0.46-0.699-1.381-1.398-1.381c-0.699,0-1.398,0.921-1.398,1.381
				c0,0.921,0.7,1.842,1.398,1.842C51.5,11.792,52.199,10.872,52.199,9.951"/>
		</defs>
	</g>
	<circle cx="50.8" cy="10" r="1.4" fill="#37B84F" />
	<g>
		<defs>
			<path id="SVGID_29_" d="M52.199,5.346c0-0.921-0.699-1.842-1.398-1.842c-0.699,0-1.398,0.921-1.398,1.842s0.7,1.382,1.398,1.382
				C51.5,6.728,52.199,6.267,52.199,5.346"/>
		</defs>
	</g>
	<circle cx="50.8" cy="5.2" r="1.4" fill="#37B84F" />
	<g>
		<defs>
			<path id="SVGID_31_" d="M65.486,5.346c0-0.921-0.351-1.842-1.398-1.842c-0.7,0-1.049,0.921-1.049,1.842s0.35,1.382,1.049,1.382
				C65.135,6.728,65.486,6.267,65.486,5.346"/>
		</defs>
	</g>
	<circle cx="64.2" cy="5.2" r="1.4" fill="#E41D2C" />
	<g>
		<defs>
			<path id="SVGID_33_" d="M65.486,9.951c0-0.46-0.351-1.381-1.398-1.381c-0.7,0-1.049,0.921-1.049,1.381
				c0,0.921,0.35,1.842,1.049,1.842C65.135,11.792,65.486,10.872,65.486,9.951"/>
		</defs>
	</g>
	<circle cx="64.2" cy="10" r="1.4" fill="#E41D2C" />
	<g>
		<defs>
			<path id="SVGID_35_" d="M79.121,9.951c0-0.46-0.698-1.381-1.398-1.381c-0.699,0-1.398,0.921-1.398,1.381
				c0,0.921,0.699,1.842,1.398,1.842C78.422,11.792,79.121,10.872,79.121,9.951"/>
		</defs>
	</g>
	<circle cx="77.4" cy="10" r="1.4" fill="#37B84F" />
	<g>
		<defs>
			<path id="SVGID_37_" d="M79.121,5.346c0-0.921-0.698-1.842-1.398-1.842c-0.699,0-1.398,0.921-1.398,1.842
				s0.699,1.382,1.398,1.382C78.422,6.728,79.121,6.267,79.121,5.346"/>
		</defs>
	</g>
	<circle cx="77.4" cy="5.2" r="1.4" fill="#37B84F" />
</g>
</svg>
