<?xml version="1.0" encoding="utf-8"?>
<!DOCTYPE svg PUBLIC "-//W3C//DTD SVG 1.1//EN" "http://www.w3.org/Graphics/SVG/1.1/DTD/svg11.dtd">
<svg version="1.1" xmlns="http://www.w3.org/2000/svg" xmlns:xlink="http://www.w3.org/1999/xlink" width="77" height="18" viewBox="0 0 77 18">
<g>
	<g>
		<polygon fill-rule="evenodd" clip-rule="evenodd" fill="#1B5844" points="73.103,6.441 73.103,8.456 73.082,8.456 73.062,8.456 
			73.042,8.456 73.022,8.456 73.003,8.456 72.985,8.456 72.966,8.456 72.948,8.456 72.841,8.462 72.747,8.482 72.666,8.514 
			72.602,8.555 72.555,8.604 72.527,8.662 72.519,8.725 72.519,6.711 72.527,6.648 72.555,6.59 72.602,6.54 72.666,6.499 
			72.747,6.468 72.841,6.448 72.948,6.441 72.966,6.441 72.985,6.441 73.003,6.441 73.022,6.441 73.042,6.441 73.062,6.441 
			73.082,6.441 		"/>
		<polygon fill-rule="evenodd" clip-rule="evenodd" fill="#1B5844" points="74.54,10.263 74.54,12.278 74.518,12.278 74.498,12.278 
			74.477,12.278 74.457,12.278 74.437,12.278 74.417,12.278 74.398,12.278 74.379,12.278 74.268,12.285 74.17,12.307 74.087,12.34 
			74.021,12.384 73.972,12.438 73.944,12.5 73.937,12.569 73.937,10.554 73.944,10.486 73.972,10.424 74.021,10.37 74.087,10.326 
			74.17,10.292 74.268,10.271 74.379,10.263 74.398,10.263 74.417,10.263 74.437,10.263 74.457,10.263 74.477,10.263 74.498,10.263 
			74.518,10.263 		"/>
		<polygon fill-rule="evenodd" clip-rule="evenodd" fill="#1B5844" points="25.92,14.527 25.92,16.542 25.908,16.439 25.879,16.346 
			25.836,16.266 25.78,16.198 25.715,16.148 25.64,16.116 25.558,16.105 25.504,16.105 25.449,16.105 25.396,16.105 25.342,16.105 
			25.288,16.105 25.233,16.105 25.18,16.105 25.125,16.105 25.039,16.116 24.955,16.148 24.876,16.198 24.804,16.266 24.741,16.346 
			24.69,16.439 24.652,16.542 24.628,16.651 24.619,16.727 24.608,16.802 24.599,16.878 24.588,16.954 24.579,17.029 24.568,17.105 
			24.558,17.181 24.548,17.257 24.548,15.243 24.558,15.167 24.568,15.091 24.579,15.015 24.588,14.939 24.599,14.864 
			24.608,14.788 24.619,14.713 24.628,14.637 24.652,14.527 24.69,14.424 24.741,14.332 24.804,14.25 24.876,14.184 24.955,14.133 
			25.039,14.102 25.125,14.091 25.18,14.091 25.233,14.091 25.288,14.091 25.342,14.091 25.396,14.091 25.449,14.091 25.504,14.091 
			25.558,14.091 25.64,14.102 25.715,14.133 25.78,14.184 25.836,14.25 25.879,14.332 25.908,14.424 		"/>
		<polygon fill-rule="evenodd" clip-rule="evenodd" fill="#1B5844" points="73.485,13.991 73.485,16.005 73.504,15.919 
			73.545,15.843 73.603,15.781 73.679,15.734 73.771,15.705 73.877,15.695 73.991,15.705 74.105,15.734 74.216,15.781 74.32,15.843 
			74.415,15.919 74.498,16.005 74.564,16.101 74.613,16.204 74.639,16.307 74.641,16.404 74.641,14.39 74.639,14.292 74.613,14.189 
			74.564,14.087 74.498,13.991 74.415,13.904 74.32,13.829 74.216,13.767 74.105,13.72 73.991,13.69 73.877,13.68 73.771,13.69 
			73.679,13.72 73.603,13.767 73.545,13.829 73.504,13.904 		"/>
		<polygon fill-rule="evenodd" clip-rule="evenodd" fill="#1B5844" points="0.612,14.391 0.612,16.405 0.617,16.309 0.644,16.206 
			0.693,16.102 0.76,16.006 0.842,15.92 0.936,15.844 1.04,15.782 1.149,15.734 1.263,15.705 1.376,15.695 1.483,15.705 
			1.575,15.734 1.652,15.782 1.712,15.844 1.752,15.92 1.772,16.006 1.772,13.992 1.752,13.905 1.712,13.83 1.652,13.768 
			1.575,13.72 1.483,13.69 1.376,13.68 1.263,13.69 1.149,13.72 1.04,13.768 0.936,13.83 0.842,13.905 0.76,13.992 0.693,14.088 
			0.644,14.191 0.617,14.294 		"/>
		<polygon fill-rule="evenodd" clip-rule="evenodd" fill="#1B5844" points="2.266,10.554 2.266,12.569 2.259,12.5 2.229,12.438 
			2.18,12.384 2.113,12.34 2.03,12.307 1.933,12.285 1.823,12.278 1.796,12.278 1.77,12.278 1.743,12.278 1.716,12.278 1.69,12.278 
			1.666,12.278 1.642,12.278 1.62,12.278 1.62,10.263 1.642,10.263 1.666,10.263 1.69,10.263 1.716,10.263 1.743,10.263 
			1.77,10.263 1.796,10.263 1.823,10.263 1.933,10.271 2.03,10.292 2.113,10.326 2.18,10.37 2.229,10.424 2.259,10.486 		"/>
		<polygon fill-rule="evenodd" clip-rule="evenodd" fill="#1B5844" points="3.683,6.709 3.683,8.724 3.674,8.661 3.645,8.603 
			3.597,8.553 3.533,8.512 3.452,8.48 3.358,8.461 3.253,8.454 3.227,8.454 3.202,8.454 3.176,8.454 3.15,8.454 3.126,8.454 
			3.102,8.454 3.08,8.454 3.057,8.454 3.057,6.44 3.08,6.44 3.102,6.44 3.126,6.44 3.15,6.44 3.176,6.44 3.202,6.44 3.227,6.44 
			3.253,6.44 3.358,6.446 3.452,6.466 3.533,6.498 3.597,6.539 3.645,6.589 3.674,6.646 		"/>
		<polygon fill-rule="evenodd" clip-rule="evenodd" fill="#1B5844" points="24.548,15.243 24.548,17.257 24.174,17.257 
			23.799,17.257 23.425,17.257 23.05,17.257 22.676,17.257 22.302,17.257 21.927,17.257 21.553,17.257 21.178,17.257 20.804,17.257 
			20.429,17.257 20.055,17.257 19.681,17.257 19.306,17.257 18.932,17.257 18.558,17.257 18.184,17.257 17.809,17.257 
			17.435,17.257 17.061,17.257 16.687,17.257 16.313,17.257 15.938,17.257 15.564,17.257 15.19,17.257 14.816,17.257 14.442,17.257 
			14.068,17.257 13.694,17.257 13.32,17.257 12.947,17.257 12.573,17.257 12.199,17.257 11.825,17.257 11.451,17.257 11.078,17.257 
			10.704,17.257 10.33,17.257 9.956,17.257 9.582,17.257 9.208,17.257 8.834,17.257 8.459,17.257 8.085,17.257 7.711,17.257 
			7.337,17.257 6.963,17.257 6.589,17.257 6.215,17.257 5.841,17.257 5.467,17.257 5.093,17.257 4.718,17.257 4.345,17.257 
			3.97,17.257 3.596,17.257 3.223,17.257 2.849,17.257 2.475,17.257 2.101,17.257 1.727,17.257 1.353,17.257 0.979,17.257 
			0.605,17.257 0.438,17.241 0.294,17.193 0.177,17.118 0.088,17.018 0.028,16.897 0.001,16.759 0.001,14.745 0.028,14.883 
			0.088,15.003 0.177,15.103 0.294,15.178 0.438,15.226 0.605,15.243 0.979,15.243 1.353,15.243 1.727,15.243 2.101,15.243 
			2.475,15.243 2.849,15.243 3.223,15.243 3.596,15.243 3.97,15.243 4.345,15.243 4.718,15.243 5.093,15.243 5.467,15.243 
			5.841,15.243 6.215,15.243 6.589,15.243 6.963,15.243 7.337,15.243 7.711,15.243 8.085,15.243 8.459,15.243 8.834,15.243 
			9.208,15.243 9.582,15.243 9.956,15.243 10.33,15.243 10.704,15.243 11.078,15.243 11.451,15.243 11.825,15.243 12.199,15.243 
			12.573,15.243 12.947,15.243 13.32,15.243 13.694,15.243 14.068,15.243 14.442,15.243 14.816,15.243 15.19,15.243 15.564,15.243 
			15.938,15.243 16.313,15.243 16.687,15.243 17.061,15.243 17.435,15.243 17.809,15.243 18.184,15.243 18.558,15.243 
			18.932,15.243 19.306,15.243 19.681,15.243 20.055,15.243 20.429,15.243 20.804,15.243 21.178,15.243 21.553,15.243 
			21.927,15.243 22.302,15.243 22.676,15.243 23.05,15.243 23.425,15.243 23.799,15.243 24.174,15.243 		"/>
		<polygon fill-rule="evenodd" clip-rule="evenodd" fill="#1B5844" points="76.154,14.745 76.154,16.759 76.123,16.897 
			76.06,17.018 75.967,17.118 75.846,17.193 75.699,17.241 75.531,17.257 74.754,17.257 73.977,17.257 73.201,17.257 72.424,17.257 
			71.646,17.257 70.87,17.257 70.094,17.257 69.317,17.257 68.54,17.257 67.764,17.257 66.987,17.257 66.21,17.257 65.434,17.257 
			64.657,17.257 63.881,17.257 63.105,17.257 62.328,17.257 61.552,17.257 60.775,17.257 59.999,17.257 59.223,17.257 
			58.446,17.257 57.67,17.257 56.894,17.257 56.118,17.257 55.341,17.257 54.565,17.257 53.789,17.257 53.013,17.257 52.236,17.257 
			51.46,17.257 50.684,17.257 49.907,17.257 49.131,17.257 48.355,17.257 47.579,17.257 46.802,17.257 46.026,17.257 45.25,17.257 
			44.474,17.257 43.697,17.257 42.921,17.257 42.145,17.257 41.369,17.257 40.593,17.257 39.816,17.257 39.04,17.257 38.264,17.257 
			37.488,17.257 36.711,17.257 35.935,17.257 35.159,17.257 34.383,17.257 33.606,17.257 32.83,17.257 32.054,17.257 31.277,17.257 
			30.501,17.257 29.725,17.257 28.949,17.257 28.172,17.257 27.396,17.257 26.62,17.257 25.844,17.257 25.844,15.243 26.62,15.243 
			27.396,15.243 28.172,15.243 28.949,15.243 29.725,15.243 30.501,15.243 31.277,15.243 32.054,15.243 32.83,15.243 33.606,15.243 
			34.383,15.243 35.159,15.243 35.935,15.243 36.711,15.243 37.488,15.243 38.264,15.243 39.04,15.243 39.816,15.243 40.593,15.243 
			41.369,15.243 42.145,15.243 42.921,15.243 43.697,15.243 44.474,15.243 45.25,15.243 46.026,15.243 46.802,15.243 47.579,15.243 
			48.355,15.243 49.131,15.243 49.907,15.243 50.684,15.243 51.46,15.243 52.236,15.243 53.013,15.243 53.789,15.243 54.565,15.243 
			55.341,15.243 56.118,15.243 56.894,15.243 57.67,15.243 58.446,15.243 59.223,15.243 59.999,15.243 60.775,15.243 61.552,15.243 
			62.328,15.243 63.105,15.243 63.881,15.243 64.657,15.243 65.434,15.243 66.21,15.243 66.987,15.243 67.764,15.243 68.54,15.243 
			69.317,15.243 70.094,15.243 70.87,15.243 71.646,15.243 72.424,15.243 73.201,15.243 73.977,15.243 74.754,15.243 75.531,15.243 
			75.699,15.226 75.846,15.178 75.967,15.103 76.06,15.003 76.123,14.883 		"/>
	</g>
	<path fill-rule="evenodd" clip-rule="evenodd" fill="#157447" d="M5.906,0.827c10.716,0,21.445,0,32.161,0
		c10.715,0,21.445,0,32.167,0c0.408,0,0.86,0.274,0.987,0.61c0.3,0.797,0.604,1.608,0.915,2.433
		c0.316,0.841,0.639,1.697,0.967,2.571c-0.056,0-0.105,0-0.155,0c-0.301,0-0.483,0.152-0.415,0.338
		c0.043,0.116,0.086,0.232,0.128,0.347c0.07,0.188,0.367,0.342,0.671,0.342c0.049,0,0.1,0,0.156,0
		c0.344,0.914,0.694,1.844,1.051,2.795c-0.058,0-0.109,0-0.16,0c-0.313,0-0.501,0.163-0.427,0.364
		c0.046,0.127,0.093,0.253,0.139,0.378c0.074,0.203,0.387,0.37,0.704,0.37c0.052,0,0.104,0,0.162,0
		c0.375,0.998,0.758,2.016,1.148,3.054c0.167,0.446-0.1,0.813-0.575,0.813c-8.287,0-16.567,0-24.848,0c-8.28,0-16.56,0-24.84,0
		c0.024-0.203,0.049-0.404,0.073-0.605c0.036-0.302-0.131-0.546-0.359-0.546c-0.144,0-0.288,0-0.432,0
		c-0.235,0-0.457,0.245-0.497,0.546c-0.026,0.201-0.053,0.403-0.08,0.605c-3.995,0-7.989,0-11.976,0s-7.981,0-11.968,0
		c-0.475,0-0.72-0.367-0.552-0.813c0.391-1.037,0.773-2.055,1.148-3.054c0.059,0,0.133,0,0.206,0c0.31,0,0.629-0.166,0.705-0.37
		c0.045-0.124,0.093-0.251,0.139-0.378c0.074-0.201-0.121-0.364-0.428-0.364c-0.072,0-0.146,0-0.204,0
		c0.357-0.951,0.708-1.881,1.052-2.796c0.056,0,0.127,0,0.198,0c0.297,0,0.602-0.154,0.671-0.343
		c0.042-0.115,0.085-0.231,0.127-0.346C3.737,6.591,3.548,6.44,3.253,6.44c-0.07,0-0.14,0-0.196,0
		c0.329-0.874,0.651-1.73,0.968-2.57C4.335,3.045,4.64,2.233,4.939,1.436C5.066,1.1,5.498,0.827,5.906,0.827L5.906,0.827z
		 M1.376,13.68c-0.302,0-0.627,0.229-0.732,0.511c-0.105,0.283,0.054,0.513,0.358,0.513c0.305,0,0.64-0.23,0.742-0.513
		C1.846,13.909,1.678,13.68,1.376,13.68L1.376,13.68z M73.877,13.68c-0.302,0-0.463,0.227-0.364,0.509
		c0.1,0.283,0.424,0.515,0.73,0.515c0.305,0,0.472-0.232,0.37-0.515C74.51,13.907,74.179,13.68,73.877,13.68z"/>
	<g>
		<path fill-rule="evenodd" clip-rule="evenodd" fill="#157447" d="M6.8,1.478c10.418,0,20.849,0,31.267,0
			c10.418,0,20.85,0,31.274,0c0.396,0,0.85,0.246,0.989,0.549c0.733,1.59,1.5,3.251,2.303,4.992
			c0.842,1.824,1.727,3.742,2.658,5.758c0.188,0.407-0.056,0.741-0.521,0.741c-12.235,0-24.478,0-36.705,0
			c-12.228,0-24.47,0-36.698,0c-0.465,0-0.687-0.334-0.499-0.741c0.93-2.016,1.815-3.934,2.657-5.759
			c0.804-1.74,1.571-3.402,2.304-4.99C5.97,1.724,6.403,1.478,6.8,1.478z"/>
		<path fill-rule="evenodd" clip-rule="evenodd" fill="#187047" d="M6.911,1.451c10.381,0,20.774,0,31.155,0s20.774,0,31.161,0
			c0.396,0,0.846,0.246,0.985,0.549c0.73,1.589,1.494,3.249,2.294,4.988c0.839,1.823,1.72,3.739,2.647,5.752
			c0.187,0.407-0.055,0.74-0.52,0.74c-12.19,0-24.388,0-36.57,0c-12.184,0-24.38,0-36.563,0c-0.464,0-0.686-0.333-0.498-0.74
			c0.926-2.014,1.808-3.93,2.646-5.754C4.449,5.248,5.213,3.587,5.943,2C6.083,1.697,6.516,1.451,6.911,1.451z"/>
		<path fill-rule="evenodd" clip-rule="evenodd" fill="#1A6D47" d="M7.022,1.424c10.344,0,20.699,0,31.042,0
			c10.344,0,20.699,0,31.049,0c0.395,0,0.843,0.246,0.981,0.549c0.728,1.587,1.488,3.246,2.285,4.983
			c0.835,1.821,1.713,3.736,2.636,5.748c0.186,0.406-0.054,0.74-0.517,0.74c-12.146,0-24.298,0-36.437,0
			c-12.139,0-24.291,0-36.429,0c-0.463,0-0.684-0.334-0.498-0.74c0.922-2.012,1.8-3.927,2.636-5.75
			C4.568,5.218,5.33,3.559,6.057,1.973C6.196,1.67,6.628,1.424,7.022,1.424z"/>
		<path fill-rule="evenodd" clip-rule="evenodd" fill="#1C6A47" d="M7.134,1.397c10.307,0,20.624,0,30.93,0
			c10.307,0,20.624,0,30.937,0c0.394,0,0.839,0.246,0.977,0.548c0.725,1.586,1.482,3.244,2.275,4.98
			c0.832,1.82,1.706,3.732,2.625,5.743c0.186,0.406-0.052,0.739-0.514,0.739c-12.102,0-24.208,0-36.302,0
			c-12.095,0-24.201,0-36.295,0c-0.462,0-0.684-0.333-0.498-0.739c0.919-2.01,1.793-3.923,2.626-5.744
			C4.688,5.188,5.446,3.53,6.17,1.946C6.309,1.644,6.74,1.397,7.134,1.397z"/>
		<path fill-rule="evenodd" clip-rule="evenodd" fill="#1D6647" d="M7.245,1.371c10.269,0,20.548,0,30.817,0s20.549,0,30.824,0
			c0.393,0,0.835,0.246,0.973,0.548c0.722,1.585,1.476,3.241,2.266,4.976c0.829,1.819,1.699,3.729,2.614,5.738
			c0.185,0.406-0.052,0.739-0.512,0.739c-12.057,0-24.118,0-36.167,0c-12.05,0-24.111,0-36.161,0c-0.46,0-0.683-0.333-0.498-0.739
			c0.915-2.009,1.786-3.919,2.615-5.739c0.791-1.735,1.546-3.392,2.268-4.975C6.422,1.617,6.853,1.371,7.245,1.371z"/>
		<path fill-rule="evenodd" clip-rule="evenodd" fill="#1E6347" d="M7.356,1.344c10.232,0,20.473,0,30.705,0
			c10.232,0,20.474,0,30.711,0c0.392,0,0.832,0.247,0.969,0.548c0.719,1.583,1.47,3.238,2.257,4.972
			c0.825,1.817,1.692,3.726,2.603,5.732c0.184,0.406-0.05,0.739-0.51,0.739c-12.012,0-24.028,0-36.033,0
			c-12.005,0-24.021,0-36.026,0c-0.459,0-0.681-0.333-0.497-0.738c0.911-2.007,1.779-3.916,2.604-5.734
			c0.788-1.733,1.54-3.389,2.258-4.97C6.535,1.59,6.965,1.344,7.356,1.344z"/>
		<path fill-rule="evenodd" clip-rule="evenodd" fill="#1E6047" d="M7.468,1.317c10.194,0,20.398,0,30.592,0
			c10.195,0,20.398,0,30.599,0c0.391,0,0.829,0.247,0.965,0.548c0.716,1.582,1.464,3.235,2.248,4.967
			c0.821,1.816,1.685,3.723,2.592,5.728c0.183,0.405-0.05,0.738-0.508,0.738c-11.968,0-23.939,0-35.899,0s-23.931,0-35.892,0
			c-0.458,0-0.68-0.333-0.497-0.738c0.908-2.005,1.771-3.913,2.594-5.729C5.046,5.1,5.795,3.446,6.511,1.865
			C6.648,1.563,7.077,1.317,7.468,1.317z"/>
		<path fill-rule="evenodd" clip-rule="evenodd" fill="#1F5C47" d="M7.579,1.29c10.157,0,20.323,0,30.479,0
			c10.158,0,20.323,0,30.486,0c0.39,0,0.826,0.247,0.961,0.548c0.713,1.581,1.458,3.233,2.239,4.963
			c0.818,1.814,1.678,3.719,2.581,5.723c0.183,0.405-0.048,0.738-0.505,0.738c-11.923,0-23.849,0-35.765,0s-23.841,0-35.758,0
			c-0.457,0-0.679-0.333-0.496-0.737C2.705,10.521,3.565,8.616,4.384,6.8c0.782-1.73,1.528-3.383,2.24-4.962
			C6.761,1.537,7.189,1.29,7.579,1.29z"/>
		<path fill-rule="evenodd" clip-rule="evenodd" fill="#1F5947" d="M7.69,1.263c10.12,0,20.248,0,30.367,0
			c10.12,0,20.248,0,30.374,0c0.389,0,0.822,0.247,0.957,0.548c0.71,1.579,1.452,3.23,2.229,4.959
			c0.814,1.813,1.671,3.716,2.57,5.718c0.182,0.405-0.047,0.738-0.503,0.738c-11.878,0-23.759,0-35.631,0
			c-11.871,0-23.751,0-35.624,0c-0.455,0-0.678-0.333-0.496-0.737c0.9-2.002,1.756-3.906,2.572-5.72
			c0.779-1.729,1.521-3.38,2.231-4.958C6.874,1.51,7.302,1.263,7.69,1.263z"/>
		<path fill-rule="evenodd" clip-rule="evenodd" fill="#1F5646" d="M7.802,1.236c10.083,0,20.172,0,30.255,0s20.173,0,30.261,0
			c0.388,0,0.818,0.247,0.953,0.548c0.707,1.578,1.446,3.228,2.22,4.956c0.811,1.812,1.664,3.713,2.56,5.712
			c0.181,0.405-0.046,0.737-0.501,0.737c-11.834,0-23.669,0-35.496,0s-23.662,0-35.489,0c-0.454,0-0.677-0.333-0.496-0.736
			c0.896-2,1.75-3.902,2.563-5.714C5.405,5.01,6.145,3.361,6.852,1.784C6.987,1.483,7.414,1.236,7.802,1.236z"/>
		<path fill-rule="evenodd" clip-rule="evenodd" fill="#1F5346" d="M7.913,1.209c10.045,0,20.097,0,30.142,0
			c10.046,0,20.098,0,30.149,0c0.387,0,0.815,0.248,0.949,0.548c0.704,1.577,1.439,3.225,2.211,4.951
			c0.808,1.81,1.657,3.71,2.548,5.708c0.181,0.404-0.045,0.737-0.499,0.737c-11.79,0-23.58,0-35.362,0c-11.782,0-23.572,0-35.355,0
			c-0.453,0-0.676-0.333-0.496-0.736c0.893-1.999,1.742-3.899,2.552-5.71c0.772-1.727,1.509-3.375,2.213-4.95
			C7.1,1.457,7.526,1.209,7.913,1.209z"/>
		<path fill-rule="evenodd" clip-rule="evenodd" fill="#1F4F45" d="M8.024,1.183c10.008,0,20.022,0,30.03,0
			c10.008,0,20.022,0,30.036,0c0.386,0,0.812,0.248,0.945,0.548c0.701,1.575,1.434,3.222,2.202,4.947
			c0.804,1.809,1.65,3.707,2.538,5.703c0.18,0.404-0.044,0.736-0.497,0.736c-11.745,0-23.49,0-35.228,0c-11.738,0-23.482,0-35.221,0
			c-0.452,0-0.675-0.333-0.495-0.735c0.889-1.997,1.735-3.895,2.541-5.705C5.644,4.951,6.377,3.304,7.079,1.73
			C7.213,1.43,7.639,1.183,8.024,1.183z"/>
	</g>
	<linearGradient id="SVGID_1_" gradientUnits="userSpaceOnUse" x1="72.521" y1="7.0181" x2="5.578" y2="5.8496">
		<stop  offset="0" style="stop-color:#C5CFD3"/>
		<stop  offset="1" style="stop-color:#FFFFFF"/>
	</linearGradient>
	<path fill-rule="evenodd" clip-rule="evenodd" fill="url(#SVGID_1_)" d="M7.524,0.418c10.181,0,20.362,0,30.543,0
		s20.362,0,30.549,0c0.386,0,0.798,0.251,0.908,0.559c0.579,1.612,1.179,3.287,1.801,5.021c0.647,1.803,1.319,3.677,2.019,5.627
		c0.14,0.391-0.108,0.715-0.548,0.715c-11.582,0-23.156,0-34.731,0c-11.574,0-23.149,0.001-34.724,0.001
		c-0.439,0-0.688-0.324-0.548-0.716c0.7-1.951,1.374-3.826,2.02-5.627c0.624-1.735,1.224-3.41,1.803-5.021
		C6.726,0.669,7.138,0.418,7.524,0.418z"/>
	<linearGradient id="SVGID_2_" gradientUnits="userSpaceOnUse" x1="0.2603" y1="6.6953" x2="63.6159" y2="6.6953">
		<stop  offset="0" style="stop-color:#C5CFD3"/>
		<stop  offset="1" style="stop-color:#FFFFFF"/>
	</linearGradient>
	<path fill-rule="evenodd" clip-rule="evenodd" fill="url(#SVGID_2_)" d="M7.427,0.694c10.213,0,20.426,0,30.64,0
		c10.213,0,20.426,0,30.646,0c0.388,0,0.801,0.252,0.912,0.563c0.583,1.623,1.187,3.307,1.813,5.052
		c0.651,1.814,1.328,3.703,2.032,5.667c0.142,0.395-0.108,0.72-0.55,0.72c-11.623,0-23.239,0-34.855,0s-23.232,0-34.849,0
		c-0.441,0-0.69-0.324-0.549-0.719C3.372,10.013,4.05,8.124,4.702,6.31c0.626-1.747,1.23-3.431,1.813-5.054
		C6.626,0.946,7.039,0.694,7.427,0.694z"/>
	<path fill-rule="evenodd" clip-rule="evenodd" fill="#52707D" d="M19.427,1.163c1.566,0,3.132,0,4.705,0
		c0.165,0,0.288,0.101,0.269,0.226c-0.179,1.15-0.363,2.335-0.551,3.546c-0.194,1.245-0.393,2.528-0.598,3.844
		c-0.022,0.147-0.192,0.268-0.373,0.268c-1.714,0-3.42,0-5.127,0c-0.18,0-0.305-0.121-0.273-0.268
		c0.284-1.316,0.561-2.599,0.83-3.844c0.262-1.211,0.518-2.396,0.766-3.546C19.101,1.264,19.262,1.163,19.427,1.163z"/>
	<path fill-rule="evenodd" clip-rule="evenodd" fill="#52707D" d="M52.828,1.163c1.566,0,3.132,0,4.698,0
		c0.171,0,0.334,0.102,0.362,0.226c0.259,1.15,0.525,2.336,0.797,3.548c0.28,1.244,0.568,2.527,0.864,3.843
		c0.033,0.147-0.091,0.268-0.278,0.268c-1.707,0-3.413,0-5.12,0c-0.187,0-0.351-0.121-0.375-0.268
		c-0.216-1.315-0.428-2.599-0.632-3.843c-0.199-1.212-0.394-2.397-0.583-3.548C52.541,1.265,52.656,1.163,52.828,1.163z"/>
	<path fill-rule="evenodd" clip-rule="evenodd" fill="#F4F4F5" d="M16.54,6.023c2.887,0,5.773,0,8.661,0
		c0.509,0,0.887,0.365,0.829,0.816c-0.113,0.878-0.228,1.772-0.346,2.682c-0.062,0.482-0.559,0.878-1.092,0.878
		c-3.022,0-6.046,0-9.069,0c-0.54,0-0.882-0.396-0.766-0.878c0.221-0.91,0.438-1.804,0.65-2.682
		C15.517,6.389,16.024,6.023,16.54,6.023z"/>
	<path fill-rule="evenodd" clip-rule="evenodd" fill="#8099A6" d="M16.526,5.902c2.835,0,5.676,0,8.517,0
		c0.509,0,0.874,0.347,0.818,0.776c-0.109,0.835-0.22,1.687-0.333,2.549c-0.06,0.458-0.539,0.834-1.07,0.834
		c-2.969,0-5.938,0-8.899,0c-0.532,0-0.87-0.376-0.758-0.834c0.21-0.863,0.416-1.715,0.619-2.549
		C15.523,6.25,16.018,5.902,16.526,5.902z"/>
	<linearGradient id="SVGID_3_" gradientUnits="userSpaceOnUse" x1="20.4409" y1="6.4995" x2="20.4409" y2="10.7924">
		<stop  offset="0" style="stop-color:#C5CFD3"/>
		<stop  offset="1" style="stop-color:#FFFFFF"/>
	</linearGradient>
	<path fill-rule="evenodd" clip-rule="evenodd" fill="url(#SVGID_3_)" d="M16.706,6.15c2.772,0,5.551,0,8.331,0
		c0.496,0,0.85,0.329,0.798,0.731c-0.103,0.786-0.208,1.586-0.314,2.399c-0.056,0.427-0.518,0.782-1.034,0.782
		c-2.896,0-5.792,0-8.681,0c-0.517,0-0.847-0.354-0.744-0.782c0.195-0.813,0.387-1.613,0.575-2.399
		C15.733,6.479,16.21,6.15,16.706,6.15z"/>
	<path fill-rule="evenodd" clip-rule="evenodd" fill="#F4F4F5" d="M51.238,6.023c2.887,0,5.774,0,8.661,0
		c0.516,0,1.024,0.365,1.134,0.816c0.216,0.879,0.435,1.772,0.658,2.682c0.118,0.482-0.223,0.878-0.763,0.878
		c-3.023,0-6.046,0-9.07,0c-0.533,0-1.031-0.396-1.094-0.878c-0.12-0.91-0.238-1.804-0.354-2.682
		C50.352,6.389,50.729,6.023,51.238,6.023z"/>
	<path fill-rule="evenodd" clip-rule="evenodd" fill="#8099A6" d="M51.179,5.902c2.841,0,5.683,0,8.524,0
		c0.501,0,1.004,0.347,1.108,0.776c0.203,0.836,0.411,1.687,0.62,2.549c0.111,0.458-0.233,0.834-0.757,0.834
		c-2.969,0-5.938,0-8.907,0c-0.524,0-1.01-0.376-1.07-0.834c-0.113-0.863-0.226-1.713-0.335-2.549
		C50.306,6.25,50.678,5.902,51.179,5.902z"/>
	<linearGradient id="SVGID_4_" gradientUnits="userSpaceOnUse" x1="56.0996" y1="6.4995" x2="56.0996" y2="10.7924">
		<stop  offset="0" style="stop-color:#C5CFD3"/>
		<stop  offset="1" style="stop-color:#FFFFFF"/>
	</linearGradient>
	<path fill-rule="evenodd" clip-rule="evenodd" fill="url(#SVGID_4_)" d="M51.528,6.15c2.751,0,5.502,0,8.261,0
		c0.489,0,0.973,0.329,1.072,0.733c0.191,0.785,0.386,1.584,0.584,2.397c0.104,0.427-0.232,0.782-0.742,0.782
		c-2.875,0-5.742,0-8.608,0c-0.509,0-0.972-0.355-1.03-0.782c-0.109-0.813-0.218-1.612-0.324-2.397
		C50.686,6.479,51.039,6.15,51.528,6.15z"/>
	<path fill="#FFFFFF" d="M4.314,11.935c-0.111,0-0.172-0.082-0.137-0.186c0.035-0.101,0.152-0.183,0.263-0.183
		c11.366,0,22.731,0,34.097,0s22.732,0,34.105,0c0.111,0,0.229,0.082,0.264,0.183c0.037,0.104-0.024,0.186-0.135,0.186
		c-11.416,0-22.824,0-34.233,0C27.131,11.935,15.723,11.935,4.314,11.935z"/>
	<path fill="#52707D" d="M4.28,12.034c-0.111,0-0.171-0.083-0.137-0.186c0.036-0.103,0.153-0.185,0.263-0.185
		c11.377,0,22.754,0,34.131,0s22.755,0,34.139,0c0.111,0,0.229,0.082,0.265,0.185c0.036,0.101-0.024,0.184-0.135,0.184
		c-11.427,0-22.847,0.001-34.267,0.001C27.12,12.035,15.7,12.034,4.28,12.034z"/>
	<path fill-rule="evenodd" clip-rule="evenodd" fill="#52707D" d="M23.777,6.076c-0.145,0.943-0.294,1.909-0.445,2.888
		c-0.023,0.147-0.193,0.27-0.38,0.27c-1.71,0-3.42,0-5.13,0c-0.188,0-0.306-0.123-0.274-0.27c0.211-0.979,0.417-1.945,0.62-2.888
		C20.038,6.076,21.907,6.076,23.777,6.076z"/>
	<path fill-rule="evenodd" clip-rule="evenodd" fill="#52707D" d="M59.039,6.076c0.213,0.944,0.431,1.908,0.653,2.888
		c0.033,0.147-0.091,0.27-0.271,0.27c-1.717,0-3.427,0-5.136,0c-0.181,0-0.353-0.123-0.377-0.27
		c-0.163-0.979-0.321-1.944-0.478-2.888C55.299,6.076,57.169,6.076,59.039,6.076z"/>
	<path fill-rule="evenodd" clip-rule="evenodd" fill="#A6B5BC" d="M19.462,0.138c1.548,0,3.095,0,4.643,0
		c0.17,0,0.291,0.099,0.272,0.219c-0.204,1.3-0.415,2.638-0.632,4.017c-0.225,1.423-0.456,2.891-0.694,4.406
		c-0.023,0.147-0.193,0.268-0.38,0.268c-1.707,0-3.413,0-5.12,0c-0.187,0-0.312-0.121-0.28-0.268c0.33-1.515,0.65-2.983,0.96-4.406
		c0.3-1.378,0.592-2.719,0.875-4.017C19.133,0.237,19.292,0.138,19.462,0.138z"/>
	<path fill-rule="evenodd" clip-rule="evenodd" fill="#A6B5BC" d="M52.466,0.138c1.548,0,3.095,0,4.649,0
		c0.163,0,0.323,0.099,0.35,0.219c0.29,1.3,0.588,2.638,0.895,4.018c0.316,1.421,0.644,2.89,0.981,4.404
		c0.032,0.147-0.092,0.268-0.271,0.268c-1.714,0-3.42,0-5.127,0c-0.18,0-0.351-0.121-0.375-0.268
		c-0.246-1.515-0.485-2.983-0.715-4.404c-0.224-1.38-0.441-2.718-0.652-4.018C52.182,0.237,52.303,0.138,52.466,0.138z"/>
	<path fill-rule="evenodd" clip-rule="evenodd" fill="#FFFFFF" d="M19.198,0c1.545,0,3.09,0,4.636,0
		c0.169,0,0.284,0.101,0.264,0.223c-0.208,1.294-0.423,2.628-0.644,4.003c-0.228,1.418-0.463,2.881-0.707,4.391
		c-0.024,0.147-0.187,0.268-0.374,0.268c-1.703,0-3.407,0-5.111,0c-0.187,0-0.311-0.121-0.278-0.268
		c0.334-1.51,0.659-2.974,0.972-4.391c0.304-1.375,0.599-2.709,0.886-4.003C18.869,0.101,19.028,0,19.198,0z"/>
	<path fill-rule="evenodd" clip-rule="evenodd" fill="#FFFFFF" d="M52.15,0c1.546,0,3.091,0,4.643,0
		c0.163,0,0.322,0.101,0.348,0.223c0.285,1.296,0.578,2.628,0.879,4.003c0.31,1.418,0.631,2.881,0.962,4.391
		c0.032,0.147-0.092,0.268-0.272,0.268c-1.711,0-3.415,0-5.118,0c-0.18,0-0.35-0.121-0.373-0.268
		c-0.24-1.51-0.472-2.973-0.697-4.391c-0.218-1.375-0.431-2.708-0.636-4.003C51.866,0.101,51.987,0,52.15,0z"/>
	<linearGradient id="SVGID_5_" gradientUnits="userSpaceOnUse" x1="20.7461" y1="8.5771" x2="20.7461" y2="-2.6685">
		<stop  offset="0" style="stop-color:#C5CFD3"/>
		<stop  offset="1" style="stop-color:#FFFFFF"/>
	</linearGradient>
	<path fill-rule="evenodd" clip-rule="evenodd" fill="url(#SVGID_5_)" d="M19.449,0.138c1.496,0,2.991,0,4.493,0
		c0.163,0,0.278,0.097,0.259,0.217c-0.205,1.285-0.416,2.607-0.633,3.969c-0.224,1.405-0.455,2.854-0.694,4.35
		c-0.022,0.145-0.185,0.263-0.365,0.263c-1.654,0-3.301,0-4.948,0c-0.172,0-0.298-0.118-0.266-0.263
		c0.325-1.495,0.642-2.945,0.948-4.35c0.297-1.361,0.585-2.684,0.865-3.969C19.133,0.235,19.292,0.138,19.449,0.138z"/>
	<linearGradient id="SVGID_6_" gradientUnits="userSpaceOnUse" x1="56.4585" y1="9" x2="54.0379" y2="-1.4846">
		<stop  offset="0" style="stop-color:#C5CFD3"/>
		<stop  offset="1" style="stop-color:#FFFFFF"/>
	</linearGradient>
	<path fill-rule="evenodd" clip-rule="evenodd" fill="url(#SVGID_6_)" d="M52.459,0.138c1.496,0,2.991,0,4.493,0
		c0.157,0,0.316,0.097,0.342,0.217c0.284,1.285,0.576,2.608,0.877,3.971c0.309,1.405,0.629,2.853,0.959,4.348
		c0.033,0.145-0.092,0.263-0.265,0.263c-1.654,0-3.301,0-4.948,0c-0.18,0-0.343-0.118-0.366-0.263
		c-0.243-1.495-0.478-2.943-0.705-4.348c-0.221-1.363-0.436-2.686-0.645-3.971C52.182,0.235,52.296,0.138,52.459,0.138z"/>
	<path fill-rule="evenodd" clip-rule="evenodd" fill="#FFFFFF" d="M20.995,3.812c0.47,0,0.793,0.317,0.723,0.715
		c-0.072,0.398-0.518,0.727-0.995,0.727c-0.477,0-0.799-0.329-0.72-0.727S20.525,3.812,20.995,3.812z"/>
	<path fill-rule="evenodd" clip-rule="evenodd" fill="#B8C2C5" d="M20.94,3.812c0.439,0,0.736,0.295,0.669,0.666
		c-0.067,0.371-0.478,0.676-0.924,0.676c-0.445,0-0.748-0.306-0.674-0.676C20.086,4.106,20.502,3.812,20.94,3.812z"/>
	<path fill-rule="evenodd" clip-rule="evenodd" fill="#051211" d="M20.919,3.892c0.378,0,0.641,0.259,0.583,0.579
		s-0.421,0.587-0.804,0.587c-0.383,0-0.645-0.267-0.582-0.587C20.18,4.151,20.541,3.892,20.919,3.892z"/>
	<path fill-rule="evenodd" clip-rule="evenodd" fill="#767C7B" d="M20.94,4.028c0.262,0.021,0.442,0.19,0.437,0.411
		c-0.015,0.04,0.017,0.054-0.016,0.085c-0.057,0.237-0.313,0.43-0.601,0.455c-0.001,0.005-0.002,0.01-0.002,0.014
		c-0.014,0.002-0.032,0.003-0.049,0.003s-0.035-0.001-0.048-0.001c0.001-0.005,0.002-0.011,0.003-0.016
		c-0.279-0.021-0.469-0.215-0.435-0.455c-0.021,0-0.035,0-0.048,0c-0.004-0.017,0-0.038,0.003-0.053
		c0.003-0.015,0.005-0.023,0.007-0.032c0.021,0,0.041,0,0.062,0c0.078-0.222,0.323-0.392,0.592-0.411
		c0.005-0.024,0.01-0.049,0.015-0.074c0.014-0.002,0.031-0.002,0.048-0.002s0.033,0.002,0.047,0.002
		C20.95,3.979,20.945,4.004,20.94,4.028z"/>
	<g>
		<path fill-rule="evenodd" clip-rule="evenodd" fill="#FFFFFF" d="M20.956,3.947c0.007,0,0.013,0,0.027,0
			c-0.031,0.165-0.062,0.327-0.093,0.492c-0.014,0-0.021,0-0.027,0C20.894,4.274,20.925,4.112,20.956,3.947L20.956,3.947z
			 M20.874,4.524c-0.033,0.176-0.066,0.353-0.1,0.53c-0.012-0.013-0.016-0.023-0.021-0.036c0.031-0.164,0.062-0.33,0.093-0.494
			C20.854,4.524,20.861,4.524,20.874,4.524z"/>
		<path fill-rule="evenodd" clip-rule="evenodd" fill="#FFFFFF" d="M20.14,4.561c0.003-0.013,0.005-0.023,0.007-0.037
			c0.199,0,0.398,0,0.604,0c-0.003,0.014-0.005,0.024-0.007,0.037C20.538,4.561,20.339,4.561,20.14,4.561L20.14,4.561z M21.41,4.561
			c-0.192,0-0.385,0-0.569,0c0.002-0.013,0.004-0.023,0.006-0.037c0.178,0,0.357,0,0.542,0C21.393,4.538,21.398,4.548,21.41,4.561z"
			/>
	</g>
	<g>
		<path fill-rule="evenodd" clip-rule="evenodd" fill="#051211" d="M20.133,4.456c0.001-0.007,0.002-0.015,0.004-0.023
			c0.171,0,0.343,0,0.514,0c-0.001,0.008-0.003,0.016-0.005,0.023C20.476,4.456,20.305,4.456,20.133,4.456L20.133,4.456z
			 M20.755,4.433c0.219,0,0.445,0,0.671,0c-0.005,0.029-0.011,0.057-0.016,0.085c-0.014,0-0.028,0-0.041,0
			c0.003-0.02,0.007-0.04,0.011-0.062c-0.213,0-0.425,0-0.631,0C20.751,4.448,20.752,4.44,20.755,4.433z"/>
		<path fill-rule="evenodd" clip-rule="evenodd" fill="#051211" d="M20.678,5.05c-0.013,0-0.027,0-0.041,0
			c0.033-0.17,0.065-0.339,0.097-0.51c0.014,0,0.028,0,0.042,0C20.743,4.711,20.711,4.88,20.678,5.05L20.678,5.05z M20.896,3.907
			c-0.035,0.183-0.069,0.366-0.104,0.548c-0.014,0-0.027,0-0.042,0c0.034-0.176,0.066-0.35,0.1-0.525
			C20.865,3.923,20.88,3.915,20.896,3.907z"/>
	</g>
	<path fill-rule="evenodd" clip-rule="evenodd" fill="#FFFFFF" d="M20.512,4.164c0.108-0.068,0.215-0.086,0.233-0.04
		c0.025,0.046-0.047,0.138-0.156,0.206c-0.109,0.069-0.212,0.089-0.234,0.042C20.333,4.326,20.403,4.233,20.512,4.164z"/>
	<path fill-rule="evenodd" clip-rule="evenodd" fill="#FFFFFF" d="M21.019,4.671c0.097-0.064,0.2-0.08,0.22-0.037
		c0.02,0.043-0.047,0.125-0.145,0.188c-0.099,0.064-0.195,0.081-0.214,0.039C20.86,4.818,20.92,4.734,21.019,4.671z"/>
	<path fill-rule="evenodd" clip-rule="evenodd" fill="#FFFFFF" d="M55.403,3.812c0.47,0,0.915,0.318,0.995,0.717
		c0.08,0.398-0.242,0.726-0.719,0.725c-0.477-0.001-0.923-0.328-0.997-0.727C54.61,4.128,54.933,3.812,55.403,3.812z"/>
	<path fill-rule="evenodd" clip-rule="evenodd" fill="#B8C2C5" d="M55.342,3.812c0.439,0,0.855,0.295,0.93,0.667
		c0.074,0.372-0.228,0.677-0.673,0.677s-0.857-0.307-0.924-0.678C54.606,4.105,54.903,3.812,55.342,3.812z"/>
	<path fill-rule="evenodd" clip-rule="evenodd" fill="#051211" d="M55.351,3.894c0.381,0,0.739,0.258,0.803,0.579
		c0.063,0.321-0.195,0.585-0.581,0.585s-0.746-0.264-0.804-0.585S54.969,3.894,55.351,3.894z"/>
	<path fill-rule="evenodd" clip-rule="evenodd" fill="#767C7B" d="M55.431,4.028c0.263,0.021,0.508,0.192,0.585,0.411
		c0.001,0.04,0.045,0.055,0.024,0.086c0.033,0.237-0.149,0.43-0.428,0.454c0.001,0.007,0.002,0.011,0.003,0.016
		c-0.02,0.001-0.037,0.001-0.055,0.001c-0.017,0-0.035,0-0.048,0c0-0.005-0.002-0.01-0.003-0.017
		c-0.287-0.02-0.55-0.213-0.607-0.454c-0.021,0-0.035,0-0.048,0c-0.003-0.019-0.007-0.038-0.009-0.053
		c-0.003-0.015-0.004-0.023-0.006-0.034c0.014,0,0.034,0,0.055,0c-0.006-0.22,0.173-0.392,0.436-0.411
		c-0.004-0.024-0.009-0.049-0.014-0.073c0.013-0.001,0.03-0.001,0.047-0.001s0.034,0.001,0.055,0.001
		C55.421,3.979,55.426,4.004,55.431,4.028z"/>
	<g>
		<path fill-rule="evenodd" clip-rule="evenodd" fill="#FFFFFF" d="M55.416,3.947c0.006,0,0.013,0,0.026,0
			c0.032,0.165,0.063,0.327,0.095,0.492c-0.014,0-0.021,0-0.028,0C55.478,4.274,55.447,4.112,55.416,3.947L55.416,3.947z
			 M55.554,4.525c0.034,0.175,0.067,0.353,0.101,0.528c-0.016-0.011-0.025-0.023-0.034-0.035c-0.032-0.164-0.063-0.33-0.095-0.494
			C55.533,4.525,55.54,4.525,55.554,4.525z"/>
		<path fill-rule="evenodd" clip-rule="evenodd" fill="#FFFFFF" d="M54.826,4.561c-0.002-0.011-0.005-0.023-0.007-0.036
			c0.199,0,0.397,0,0.604,0c0.003,0.012,0.005,0.024,0.007,0.036C55.224,4.561,55.025,4.561,54.826,4.561L54.826,4.561z
			 M56.096,4.561c-0.193,0-0.378,0-0.563,0c-0.002-0.011-0.005-0.023-0.007-0.036c0.179,0,0.357,0,0.535,0
			C56.071,4.538,56.08,4.55,56.096,4.561z"/>
	</g>
	<g>
		<path fill-rule="evenodd" clip-rule="evenodd" fill="#051211" d="M54.786,4.456c-0.001-0.006-0.003-0.014-0.004-0.023
			c0.171,0,0.343,0,0.514,0c0.002,0.009,0.003,0.017,0.004,0.023C55.129,4.456,54.958,4.456,54.786,4.456L54.786,4.456z
			 M55.399,4.433c0.219,0,0.445,0,0.672,0c0.005,0.029,0.011,0.059,0.017,0.086c-0.02,0-0.034,0-0.048,0
			c-0.004-0.02-0.008-0.04-0.013-0.063c-0.212,0-0.418,0-0.624,0C55.402,4.45,55.4,4.442,55.399,4.433z"/>
		<path fill-rule="evenodd" clip-rule="evenodd" fill="#051211" d="M55.558,5.052c-0.014,0-0.028,0-0.042,0
			c-0.032-0.17-0.064-0.341-0.097-0.51c0.014,0,0.027,0,0.041,0C55.493,4.711,55.525,4.882,55.558,5.052L55.558,5.052z
			 M55.339,3.907c0.035,0.183,0.07,0.366,0.105,0.548c-0.014,0-0.028,0-0.042,0c-0.033-0.175-0.066-0.35-0.1-0.525
			C55.315,3.923,55.328,3.915,55.339,3.907z"/>
	</g>
	<path fill-rule="evenodd" clip-rule="evenodd" fill="#FFFFFF" d="M55.047,4.164c0.08-0.068,0.182-0.085,0.225-0.04
		c0.036,0.046,0.006,0.14-0.077,0.206c-0.083,0.071-0.186,0.09-0.225,0.044C54.93,4.328,54.968,4.233,55.047,4.164z"/>
	<path fill-rule="evenodd" clip-rule="evenodd" fill="#FFFFFF" d="M55.753,4.672c0.077-0.063,0.163-0.08,0.198-0.039
		c0.036,0.042,0.008,0.127-0.066,0.19c-0.073,0.063-0.17,0.081-0.206,0.037C55.645,4.82,55.676,4.736,55.753,4.672z"/>
	<path fill="#52707D" d="M2.742,13.091c-0.116,0-0.18-0.083-0.143-0.186c0.037-0.102,0.159-0.184,0.275-0.184
		c11.888,0,23.776,0,35.664,0s23.776,0,35.672,0c0.116,0,0.238,0.082,0.276,0.184c0.038,0.101-0.024,0.185-0.141,0.185
		c-11.94,0-23.874,0.001-35.806,0.001S14.674,13.091,2.742,13.091z"/>
	<linearGradient id="SVGID_7_" gradientUnits="userSpaceOnUse" x1="113.3281" y1="-7.8096" x2="10.9721" y2="17.7106">
		<stop  offset="0" style="stop-color:#FFFFFF"/>
		<stop  offset="1" style="stop-color:#DDDCAF"/>
	</linearGradient>
	<path fill-rule="evenodd" clip-rule="evenodd" fill="url(#SVGID_7_)" d="M72.933,5.99l0.17,0.452c-0.056,0-0.105,0-0.155,0
		c-0.145,0-0.263,0.035-0.337,0.093l-0.077-0.207C72.466,6.145,72.641,5.995,72.933,5.99L72.933,5.99z M74.37,9.812l0.169,0.451
		c-0.058,0-0.109,0-0.16,0c-0.155,0-0.28,0.04-0.357,0.105l-0.07-0.192C73.879,9.977,74.062,9.816,74.37,9.812L74.37,9.812z
		 M76.115,14.453c0.149,0.436-0.117,0.79-0.584,0.79c-8.287,0-16.567,0-24.848,0c-8.28,0-16.56,0-24.84,0l0.054-0.451h24.786
		c8.28,0,16.561,0,24.848,0C75.818,14.792,76.029,14.658,76.115,14.453L76.115,14.453z M25.895,14.374l0.022-0.188
		c0.036-0.302-0.131-0.547-0.359-0.547c-0.144,0-0.288,0-0.432,0c-0.235,0-0.457,0.245-0.497,0.547
		c-0.026,0.201-0.053,0.403-0.08,0.605c-3.995,0-7.989,0-11.976,0s-7.981,0-11.968,0c-0.282,0-0.482-0.129-0.564-0.328
		c-0.143,0.431,0.101,0.779,0.564,0.779c3.987,0,7.981,0,11.968,0s7.981,0,11.976,0c0.027-0.203,0.054-0.404,0.08-0.605
		c0.041-0.302,0.262-0.546,0.497-0.546c0.144,0,0.289,0,0.432,0C25.713,14.091,25.84,14.205,25.895,14.374L25.895,14.374z
		 M2.18,10.37c-0.078-0.066-0.203-0.106-0.356-0.106c-0.072,0-0.146,0-0.204,0l0.169-0.451h0.034c0.307,0,0.502,0.163,0.428,0.364
		L2.18,10.37L2.18,10.37z M3.592,6.535C3.516,6.476,3.397,6.44,3.253,6.44c-0.07,0-0.14,0-0.196,0l0.17-0.452h0.026
		c0.294,0,0.483,0.152,0.415,0.338L3.592,6.535L3.592,6.535z M1.376,13.68c-0.274,0-0.567,0.188-0.698,0.434
		c-0.073-0.094-0.089-0.227-0.035-0.374c0.105-0.282,0.431-0.511,0.732-0.511c0.302,0,0.47,0.229,0.368,0.511
		c-0.01,0.028-0.022,0.056-0.038,0.083C1.639,13.734,1.523,13.68,1.376,13.68L1.376,13.68z M73.877,13.68
		c0.272,0,0.568,0.184,0.699,0.427c0.072-0.094,0.089-0.225,0.037-0.369c-0.103-0.283-0.434-0.51-0.736-0.51
		c-0.302,0-0.463,0.227-0.364,0.51c0.01,0.028,0.022,0.056,0.037,0.083C73.616,13.734,73.73,13.68,73.877,13.68z"/>
	<linearGradient id="SVGID_8_" gradientUnits="userSpaceOnUse" x1="16.8374" y1="13.8906" x2="43.8861" y2="14.8352">
		<stop  offset="0" style="stop-color:#CCD6DC"/>
		<stop  offset="1" style="stop-color:#FFFFFF"/>
	</linearGradient>
	<path fill-rule="evenodd" clip-rule="evenodd" fill="url(#SVGID_8_)" d="M2.741,13.71c0.234,0,0.475,0,0.717,0
		c-0.203,0.585-0.407,1.178-0.614,1.777c-0.246,0-0.492,0-0.73,0C2.325,14.888,2.534,14.295,2.741,13.71L2.741,13.71z M3.715,13.706
		c-0.201,0.587-0.405,1.182-0.61,1.781c0.246,0,0.484,0,0.73,0c0.201-0.6,0.401-1.194,0.598-1.781
		C4.19,13.706,3.957,13.706,3.715,13.706L3.715,13.706z M4.689,13.706c0.242,0,0.476,0,0.717,0c-0.191,0.587-0.384,1.182-0.58,1.781
		c-0.246,0-0.484,0-0.73,0C4.296,14.888,4.494,14.293,4.689,13.706L4.689,13.706z M5.664,13.706
		c-0.189,0.587-0.382,1.182-0.576,1.781c0.246,0,0.492,0,0.73,0c0.189-0.6,0.377-1.194,0.563-1.781
		C6.146,13.706,5.905,13.706,5.664,13.706L5.664,13.706z M6.645,13.706c0.234,0,0.476,0,0.71,0c-0.18,0.587-0.362,1.182-0.546,1.781
		c-0.238,0-0.484,0-0.722,0C6.275,14.888,6.461,14.293,6.645,13.706L6.645,13.706z M7.619,13.706
		c-0.178,0.587-0.359,1.182-0.541,1.781c0.238,0,0.484,0,0.729,0c0.178-0.6,0.354-1.194,0.528-1.781
		C8.095,13.706,7.853,13.706,7.619,13.706L7.619,13.706z M8.593,13.706c0.242,0,0.476,0,0.717,0
		c-0.168,0.587-0.339,1.182-0.51,1.781c-0.246,0-0.484,0-0.73,0C8.246,14.888,8.421,14.293,8.593,13.706L8.593,13.706z
		 M9.567,13.706c-0.167,0.587-0.336,1.182-0.506,1.781c0.246,0,0.484,0,0.73,0c0.166-0.6,0.331-1.194,0.494-1.781
		C10.043,13.706,9.809,13.706,9.567,13.706L9.567,13.706z M10.542,13.706c0.241,0,0.483,0,0.717,0
		c-0.157,0.587-0.316,1.182-0.477,1.781c-0.238,0-0.484,0-0.73,0C10.217,14.888,10.38,14.293,10.542,13.706L10.542,13.706z
		 M11.523,13.706c-0.156,0.587-0.313,1.182-0.471,1.781c0.238,0,0.484,0,0.722,0c0.155-0.6,0.308-1.194,0.459-1.781
		C11.999,13.706,11.757,13.706,11.523,13.706L11.523,13.706z M12.497,13.706c0.234,0,0.476,0,0.717,0
		c-0.146,0.587-0.293,1.182-0.442,1.781c-0.246,0-0.492,0-0.729,0C12.196,14.888,12.347,14.293,12.497,13.706L12.497,13.706z
		 M13.471,13.706c-0.144,0.587-0.289,1.182-0.437,1.781c0.246,0,0.484,0,0.73,0c0.143-0.6,0.284-1.194,0.423-1.781
		C13.947,13.706,13.712,13.706,13.471,13.706L13.471,13.706z M14.445,13.706c0.241,0,0.476,0,0.717,0
		c-0.134,0.587-0.27,1.182-0.407,1.781c-0.246,0-0.484,0-0.73,0C14.167,14.888,14.307,14.293,14.445,13.706L14.445,13.706z
		 M15.419,13.706c-0.132,0.587-0.267,1.182-0.402,1.781c0.246,0,0.492,0,0.73,0c0.131-0.6,0.261-1.194,0.39-1.781
		C15.902,13.706,15.661,13.706,15.419,13.706L15.419,13.706z M16.401,13.706c0.234,0,0.476,0,0.717,0
		c-0.123,0.587-0.247,1.182-0.372,1.781c-0.246,0-0.492,0-0.73,0C16.146,14.888,16.274,14.293,16.401,13.706L16.401,13.706z
		 M17.375,13.706c-0.122,0.587-0.244,1.182-0.368,1.781c0.238,0,0.484,0,0.73,0c0.119-0.6,0.238-1.194,0.355-1.781
		C17.851,13.706,17.609,13.706,17.375,13.706L17.375,13.706z M18.349,13.706c0.241,0,0.476,0,0.717,0
		c-0.111,0.587-0.224,1.182-0.337,1.781c-0.246,0-0.485,0-0.73,0C18.117,14.888,18.233,14.293,18.349,13.706L18.349,13.706z
		 M19.323,13.706c-0.11,0.587-0.221,1.182-0.333,1.781c0.246,0,0.484,0,0.73,0c0.108-0.6,0.215-1.194,0.32-1.781
		C19.799,13.706,19.564,13.706,19.323,13.706L19.323,13.706z M20.297,13.706c0.242,0,0.483,0,0.718,0
		c-0.1,0.587-0.201,1.182-0.303,1.781c-0.238,0-0.484,0-0.73,0C20.088,14.888,20.193,14.293,20.297,13.706L20.297,13.706z
		 M21.279,13.706c-0.098,0.587-0.198,1.182-0.298,1.781c0.238,0,0.484,0,0.73,0c0.096-0.6,0.191-1.194,0.286-1.781
		C21.754,13.706,21.513,13.706,21.279,13.706L21.279,13.706z M22.252,13.706c0.234,0,0.476,0,0.717,0
		c-0.088,0.587-0.177,1.182-0.268,1.781c-0.246,0-0.492,0-0.73,0C22.066,14.888,22.161,14.293,22.252,13.706L22.252,13.706z
		 M23.227,13.708c-0.087,0.587-0.175,1.18-0.264,1.779c0.238,0,0.484,0,0.73,0c0.084-0.6,0.168-1.192,0.251-1.779
		C23.702,13.708,23.461,13.708,23.227,13.708L23.227,13.708z M26.414,13.708c0.233,0,0.475,0,0.717,0
		c-0.064,0.587-0.128,1.18-0.194,1.779c-0.246,0-0.492,0-0.73,0C26.276,14.888,26.345,14.295,26.414,13.708L26.414,13.708z
		 M27.388,13.706c0.241,0,0.483,0,0.717,0c-0.058,0.587-0.118,1.182-0.177,1.781c-0.238,0-0.484,0-0.73,0
		C27.262,14.888,27.325,14.293,27.388,13.706L27.388,13.706z M28.369,13.706c0.234,0,0.476,0,0.717,0
		c-0.053,0.587-0.106,1.182-0.16,1.781c-0.246,0-0.492,0-0.729,0C28.255,14.888,28.313,14.293,28.369,13.706L28.369,13.706z
		 M29.343,13.706c0.242,0,0.476,0,0.717,0c-0.047,0.587-0.095,1.182-0.143,1.781c-0.246,0-0.484,0-0.729,0
		C29.24,14.888,29.292,14.293,29.343,13.706L29.343,13.706z M30.317,13.706c0.242,0,0.484,0,0.718,0
		c-0.042,0.587-0.083,1.182-0.125,1.781c-0.238,0-0.484,0-0.73,0C30.226,14.888,30.272,14.293,30.317,13.706L30.317,13.706z
		 M31.299,13.706c0.233,0,0.475,0,0.717,0c-0.036,0.587-0.072,1.182-0.108,1.781c-0.246,0-0.492,0-0.729,0
		C31.219,14.888,31.259,14.293,31.299,13.706L31.299,13.706z M32.273,13.706c0.242,0,0.476,0,0.717,0
		c-0.03,0.587-0.06,1.182-0.09,1.781c-0.246,0-0.484,0-0.73,0C32.205,14.888,32.239,14.293,32.273,13.706L32.273,13.706z
		 M33.247,13.706c0.242,0,0.483,0,0.717,0c-0.024,0.587-0.048,1.182-0.073,1.781c-0.238,0-0.484,0-0.73,0
		C33.19,14.888,33.219,14.293,33.247,13.706L33.247,13.706z M34.229,13.706c0.234,0,0.476,0,0.709,0
		c-0.018,0.587-0.037,1.182-0.055,1.781c-0.239,0-0.485,0-0.723,0C34.183,14.888,34.206,14.293,34.229,13.706L34.229,13.706z
		 M35.203,13.706c0.234,0,0.476,0,0.717,0c-0.013,0.587-0.025,1.182-0.039,1.781c-0.246,0-0.492,0-0.729,0
		C35.169,14.888,35.186,14.293,35.203,13.706L35.203,13.706z M36.177,13.706c0.241,0,0.475,0,0.717,0
		c-0.007,0.587-0.015,1.182-0.021,1.781c-0.246,0-0.484,0-0.73,0C36.154,14.888,36.166,14.293,36.177,13.706L36.177,13.706z
		 M37.151,13.706c0.242,0,0.483,0,0.717,0c-0.001,0.587-0.002,1.182-0.003,1.781c-0.239,0-0.484,0-0.73,0
		C37.14,14.888,37.145,14.293,37.151,13.706L37.151,13.706z M38.133,13.706c0.234,0,0.476,0,0.717,0
		c0.004,0.587,0.009,1.182,0.014,1.781c-0.246,0-0.492,0-0.73,0C38.133,14.888,38.133,14.293,38.133,13.706L38.133,13.706z
		 M39.106,13.706c0.242,0,0.476,0,0.717,0c0.01,0.587,0.021,1.182,0.031,1.781c-0.246,0-0.484,0-0.73,0
		C39.119,14.888,39.113,14.293,39.106,13.706L39.106,13.706z M40.081,13.706c0.241,0,0.483,0,0.717,0
		c0.015,0.587,0.032,1.182,0.048,1.781c-0.238,0-0.485,0-0.73,0C40.104,14.888,40.092,14.293,40.081,13.706L40.081,13.706z
		 M41.063,13.706c0.234,0,0.476,0,0.717,0c0.021,0.587,0.043,1.182,0.066,1.781c-0.246,0-0.492,0-0.73,0
		C41.097,14.888,41.08,14.293,41.063,13.706L41.063,13.706z M42.037,13.706c0.242,0,0.476,0,0.717,0
		c0.027,0.587,0.055,1.182,0.083,1.781c-0.246,0-0.484,0-0.73,0C42.083,14.888,42.059,14.293,42.037,13.706L42.037,13.706z
		 M43.01,13.706c0.242,0,0.476,0,0.717,0c0.033,0.587,0.066,1.182,0.101,1.781c-0.246,0-0.484,0-0.729,0
		C43.068,14.888,43.039,14.293,43.01,13.706L43.01,13.706z M43.985,13.706c0.241,0,0.483,0,0.717,0
		c0.039,0.587,0.078,1.182,0.117,1.781c-0.238,0-0.484,0-0.729,0C44.054,14.888,44.019,14.293,43.985,13.706L43.985,13.706z
		 M44.966,13.706c0.234,0,0.476,0,0.717,0c0.044,0.587,0.089,1.182,0.135,1.781c-0.246,0-0.492,0-0.729,0
		C45.047,14.888,45.006,14.293,44.966,13.706L44.966,13.706z M45.94,13.706c0.241,0,0.476,0,0.717,0
		c0.05,0.587,0.101,1.182,0.152,1.781c-0.246,0-0.484,0-0.73,0C46.033,14.888,45.986,14.293,45.94,13.706L45.94,13.706z
		 M46.915,13.706c0.242,0,0.483,0,0.717,0c0.056,0.587,0.112,1.182,0.169,1.781c-0.238,0-0.484,0-0.73,0
		C47.018,14.888,46.966,14.293,46.915,13.706L46.915,13.706z M47.896,13.706c0.234,0,0.476,0,0.717,0
		c0.062,0.587,0.124,1.182,0.187,1.781c-0.246,0-0.492,0-0.729,0C48.012,14.888,47.953,14.293,47.896,13.706L47.896,13.706z
		 M48.87,13.706c0.242,0,0.476,0,0.718,0c0.067,0.587,0.135,1.182,0.204,1.781c-0.246,0-0.484,0-0.729,0
		C48.997,14.888,48.933,14.293,48.87,13.706L48.87,13.706z M49.844,13.706c0.241,0,0.483,0,0.717,0
		c0.073,0.587,0.146,1.182,0.222,1.781c-0.238,0-0.484,0-0.73,0C49.982,14.888,49.913,14.293,49.844,13.706L49.844,13.706z
		 M50.826,13.706c0.234,0,0.476,0,0.71,0c0.078,0.587,0.158,1.182,0.239,1.781c-0.238,0-0.484,0-0.722,0
		C50.976,14.888,50.9,14.293,50.826,13.706L50.826,13.706z M51.8,13.706c0.234,0,0.476,0,0.717,0
		c0.084,0.587,0.17,1.182,0.256,1.781c-0.246,0-0.492,0-0.73,0C51.961,14.888,51.88,14.293,51.8,13.706L51.8,13.706z M52.774,13.706
		c0.242,0,0.476,0,0.717,0c0.09,0.587,0.182,1.182,0.273,1.781c-0.246,0-0.484,0-0.73,0C52.947,14.888,52.859,14.293,52.774,13.706
		L52.774,13.706z M53.748,13.706c0.091,0.587,0.185,1.182,0.278,1.781c0.246,0,0.492,0,0.73,0c-0.099-0.6-0.196-1.194-0.292-1.781
		C54.231,13.706,53.989,13.706,53.748,13.706L53.748,13.706z M54.73,13.706c0.234,0,0.476,0,0.717,0
		c0.102,0.587,0.205,1.182,0.308,1.781c-0.246,0-0.492,0-0.729,0C54.926,14.888,54.827,14.293,54.73,13.706L54.73,13.706z
		 M55.704,13.706c0.103,0.587,0.208,1.182,0.313,1.781c0.246,0,0.485,0,0.73,0c-0.11-0.6-0.219-1.194-0.326-1.781
		C56.179,13.706,55.946,13.706,55.704,13.706L55.704,13.706z M56.678,13.706c0.242,0,0.483,0,0.717,0
		c0.113,0.587,0.227,1.182,0.343,1.781c-0.239,0-0.484,0-0.73,0C56.896,14.888,56.787,14.293,56.678,13.706L56.678,13.706z
		 M57.659,13.706c0.114,0.587,0.231,1.182,0.348,1.781c0.238,0,0.484,0,0.73,0c-0.122-0.6-0.242-1.194-0.361-1.781
		C58.135,13.706,57.894,13.706,57.659,13.706L57.659,13.706z M58.634,13.706c0.241,0,0.476,0,0.717,0
		c0.124,0.587,0.25,1.182,0.377,1.781c-0.246,0-0.484,0-0.73,0C58.875,14.888,58.753,14.293,58.634,13.706L58.634,13.706z
		 M59.607,13.706c0.126,0.587,0.254,1.182,0.383,1.781c0.245,0,0.484,0,0.73,0c-0.133-0.6-0.265-1.194-0.396-1.781
		C60.083,13.706,59.85,13.706,59.607,13.706L59.607,13.706z M60.582,13.706c0.242,0,0.483,0,0.717,0
		c0.136,0.587,0.273,1.182,0.413,1.781c-0.238,0-0.484,0-0.73,0C60.846,14.888,60.713,14.293,60.582,13.706L60.582,13.706z
		 M61.563,13.706c0.137,0.587,0.276,1.182,0.417,1.781c0.238,0,0.484,0,0.73,0c-0.145-0.6-0.289-1.194-0.43-1.781
		C62.039,13.706,61.797,13.706,61.563,13.706L61.563,13.706z M62.538,13.706c0.241,0,0.476,0,0.717,0
		c0.147,0.587,0.296,1.182,0.447,1.781c-0.246,0-0.484,0-0.729,0C62.825,14.888,62.68,14.293,62.538,13.706L62.538,13.706z
		 M63.512,13.706c0.148,0.587,0.299,1.182,0.452,1.781c0.246,0,0.492,0,0.73,0c-0.157-0.6-0.312-1.194-0.464-1.781
		C63.995,13.706,63.753,13.706,63.512,13.706L63.512,13.706z M64.493,13.706c0.234,0,0.476,0,0.717,0
		c0.159,0.587,0.319,1.182,0.482,1.781c-0.246,0-0.492,0-0.73,0C64.804,14.888,64.647,14.293,64.493,13.706L64.493,13.706z
		 M65.467,13.706c0.16,0.587,0.322,1.182,0.486,1.781c0.246,0,0.484,0,0.73,0c-0.168-0.6-0.334-1.194-0.5-1.781
		C65.943,13.706,65.709,13.706,65.467,13.706L65.467,13.706z M66.441,13.706c0.242,0,0.484,0,0.717,0
		c0.17,0.587,0.343,1.182,0.517,1.781c-0.238,0-0.484,0-0.73,0C66.775,14.888,66.607,14.293,66.441,13.706L66.441,13.706z
		 M67.423,13.706c0.171,0.587,0.345,1.182,0.521,1.781c0.238,0,0.484,0,0.722,0c-0.18-0.6-0.358-1.194-0.533-1.781
		C67.899,13.706,67.657,13.706,67.423,13.706L67.423,13.706z M68.397,13.706c0.234,0,0.476,0,0.717,0
		c0.181,0.587,0.366,1.182,0.551,1.781c-0.246,0-0.492,0-0.729,0C68.754,14.888,68.574,14.293,68.397,13.706L68.397,13.706z
		 M69.371,13.706c0.183,0.587,0.368,1.182,0.556,1.781c0.246,0,0.484,0,0.73,0c-0.191-0.6-0.381-1.194-0.568-1.781
		C69.847,13.706,69.613,13.706,69.371,13.706L69.371,13.706z M70.345,13.706c0.242,0,0.484,0,0.718,0
		c0.193,0.587,0.388,1.182,0.586,1.781c-0.239,0-0.485,0-0.73,0C70.725,14.888,70.533,14.293,70.345,13.706L70.345,13.706z
		 M71.327,13.708c0.194,0.587,0.391,1.18,0.59,1.779c0.238,0,0.484,0,0.73,0c-0.203-0.6-0.404-1.192-0.602-1.779
		C71.803,13.708,71.561,13.708,71.327,13.708z"/>
	<linearGradient id="SVGID_9_" gradientUnits="userSpaceOnUse" x1="37.3892" y1="15.6738" x2="37.3892" y2="18.5722">
		<stop  offset="0" style="stop-color:#9DACB4"/>
		<stop  offset="1" style="stop-color:#FFFFFF"/>
	</linearGradient>
	<path fill-rule="evenodd" clip-rule="evenodd" fill="url(#SVGID_9_)" d="M2.123,15.477h0.73v1.831h-0.73V15.477L2.123,15.477z
		 M3.115,15.476c0.244,0,0.487,0,0.73,0c0,0.61,0,1.22,0,1.831c-0.243,0-0.487,0-0.73,0C3.115,16.696,3.115,16.086,3.115,15.476
		L3.115,15.476z M4.109,15.476c0.243,0,0.486,0,0.729,0c0,0.61,0,1.22,0,1.831c-0.243,0-0.486,0-0.729,0
		C4.109,16.696,4.109,16.086,4.109,15.476L4.109,15.476z M5.102,15.476c0.244,0,0.487,0,0.729,0c0,0.61,0,1.22,0,1.831
		c-0.243,0-0.486,0-0.729,0C5.102,16.696,5.102,16.086,5.102,15.476L5.102,15.476z M6.095,15.476c0.243,0,0.486,0,0.73,0
		c0,0.61,0,1.22,0,1.831c-0.244,0-0.487,0-0.73,0C6.095,16.696,6.095,16.086,6.095,15.476L6.095,15.476z M7.088,15.476
		c0.243,0,0.486,0,0.729,0c0,0.61,0,1.22,0,1.831c-0.244,0-0.487,0-0.729,0C7.088,16.696,7.088,16.086,7.088,15.476L7.088,15.476z
		 M8.081,15.476c0.244,0,0.486,0,0.73,0c0,0.61,0,1.22,0,1.831c-0.244,0-0.486,0-0.73,0C8.081,16.696,8.081,16.086,8.081,15.476
		L8.081,15.476z M9.074,15.476c0.243,0,0.486,0,0.73,0c0,0.61,0,1.22,0,1.831c-0.244,0-0.487,0-0.73,0
		C9.074,16.696,9.074,16.086,9.074,15.476L9.074,15.476z M10.066,15.476c0.244,0,0.487,0,0.73,0c0,0.61,0,1.22,0,1.831
		c-0.243,0-0.486,0-0.73,0C10.066,16.696,10.066,16.086,10.066,15.476L10.066,15.476z M11.06,15.476c0.243,0,0.486,0,0.729,0
		c0,0.61,0,1.22,0,1.831c-0.243,0-0.486,0-0.729,0C11.06,16.696,11.06,16.086,11.06,15.476L11.06,15.476z M12.052,15.476
		c0.244,0,0.487,0,0.73,0c0,0.61,0,1.22,0,1.831c-0.243,0-0.486,0-0.73,0C12.052,16.696,12.052,16.086,12.052,15.476L12.052,15.476z
		 M13.045,15.476c0.243,0,0.487,0,0.73,0c0,0.61,0,1.22,0,1.831c-0.243,0-0.487,0-0.73,0C13.045,16.696,13.045,16.086,13.045,15.476
		L13.045,15.476z M14.039,15.476c0.243,0,0.486,0,0.729,0c0,0.61,0,1.22,0,1.831c-0.243,0-0.487,0-0.729,0
		C14.039,16.696,14.039,16.086,14.039,15.476L14.039,15.476z M15.031,15.476c0.244,0,0.486,0,0.729,0c0,0.61,0,1.22,0,1.831
		c-0.243,0-0.486,0-0.729,0C15.031,16.696,15.031,16.086,15.031,15.476L15.031,15.476z M16.024,15.476c0.243,0,0.487,0,0.729,0
		c0,0.61,0,1.22,0,1.831c-0.243,0-0.486,0-0.729,0C16.024,16.696,16.024,16.086,16.024,15.476L16.024,15.476z M17.017,15.476
		c0.244,0,0.487,0,0.73,0c0,0.61,0,1.22,0,1.831c-0.243,0-0.486,0-0.73,0C17.017,16.696,17.017,16.086,17.017,15.476L17.017,15.476z
		 M18.01,15.476c0.243,0,0.486,0,0.73,0c0,0.61,0,1.22,0,1.831c-0.244,0-0.487,0-0.73,0C18.01,16.696,18.01,16.086,18.01,15.476
		L18.01,15.476z M19.003,15.476c0.243,0,0.486,0,0.729,0c0,0.61,0,1.22,0,1.831c-0.244,0-0.486,0-0.729,0
		C19.003,16.696,19.003,16.086,19.003,15.476L19.003,15.476z M19.996,15.476c0.243,0,0.486,0,0.73,0c0,0.61,0,1.22,0,1.831
		c-0.244,0-0.487,0-0.73,0C19.996,16.696,19.996,16.086,19.996,15.476L19.996,15.476z M20.99,15.476c0.243,0,0.486,0,0.729,0
		c0,0.61,0,1.22,0,1.831c-0.244,0-0.487,0-0.729,0C20.99,16.696,20.99,16.086,20.99,15.476L20.99,15.476z M21.982,15.476
		c0.243,0,0.486,0,0.729,0c0,0.61,0,1.22,0,1.831c-0.244,0-0.486,0-0.729,0C21.982,16.696,21.982,16.086,21.982,15.476
		L21.982,15.476z M22.975,15.477h0.729v1.831h-0.729V15.477L22.975,15.477z M26.219,15.477h0.729v1.831h-0.729V15.477L26.219,15.477
		z M27.213,15.476c0.243,0,0.487,0,0.73,0c0,0.61,0,1.22,0,1.831c-0.243,0-0.487,0-0.73,0
		C27.213,16.696,27.213,16.086,27.213,15.476L27.213,15.476z M28.207,15.476c0.244,0,0.487,0,0.73,0c0,0.61,0,1.22,0,1.831
		c-0.243,0-0.486,0-0.73,0C28.207,16.696,28.207,16.086,28.207,15.476L28.207,15.476z M29.2,15.476c0.243,0,0.487,0,0.729,0
		c0,0.61,0,1.22,0,1.831c-0.243,0-0.486,0-0.729,0C29.2,16.696,29.2,16.086,29.2,15.476L29.2,15.476z M30.194,15.476
		c0.243,0,0.487,0,0.73,0c0,0.61,0,1.22,0,1.831c-0.243,0-0.487,0-0.73,0C30.194,16.696,30.194,16.086,30.194,15.476L30.194,15.476z
		 M31.188,15.476c0.244,0,0.486,0,0.729,0c0,0.61,0,1.22,0,1.831c-0.243,0-0.486,0-0.729,0
		C31.188,16.696,31.188,16.086,31.188,15.476L31.188,15.476z M32.181,15.476c0.243,0,0.487,0,0.73,0c0,0.61,0,1.22,0,1.831
		c-0.243,0-0.487,0-0.73,0C32.181,16.696,32.181,16.086,32.181,15.476L32.181,15.476z M33.175,15.476c0.243,0,0.486,0,0.73,0
		c0,0.61,0,1.22,0,1.831c-0.244,0-0.487,0-0.73,0C33.175,16.696,33.175,16.086,33.175,15.476L33.175,15.476z M34.168,15.476
		c0.244,0,0.486,0,0.729,0c0,0.61,0,1.22,0,1.831c-0.243,0-0.486,0-0.729,0C34.168,16.696,34.168,16.086,34.168,15.476
		L34.168,15.476z M35.162,15.476c0.243,0,0.487,0,0.729,0c0,0.61,0,1.22,0,1.831c-0.243,0-0.486,0-0.729,0
		C35.162,16.696,35.162,16.086,35.162,15.476L35.162,15.476z M36.155,15.476c0.243,0,0.487,0,0.73,0c0,0.61,0,1.22,0,1.831
		c-0.243,0-0.487,0-0.73,0C36.155,16.696,36.155,16.086,36.155,15.476L36.155,15.476z M37.149,15.476c0.243,0,0.486,0,0.729,0
		c0,0.61,0,1.22,0,1.831c-0.243,0-0.486,0-0.729,0C37.149,16.696,37.149,16.086,37.149,15.476L37.149,15.476z M38.143,15.476
		c0.243,0,0.487,0,0.73,0c0,0.61,0,1.22,0,1.831c-0.243,0-0.487,0-0.73,0C38.143,16.696,38.143,16.086,38.143,15.476L38.143,15.476z
		 M39.137,15.476c0.243,0,0.486,0,0.729,0c0,0.61,0,1.22,0,1.831c-0.243,0-0.487,0-0.729,0
		C39.137,16.696,39.137,16.086,39.137,15.476L39.137,15.476z M40.13,15.476c0.243,0,0.487,0,0.729,0c0,0.61,0,1.22,0,1.831
		c-0.243,0-0.486,0-0.729,0C40.13,16.696,40.13,16.086,40.13,15.476L40.13,15.476z M41.124,15.476c0.244,0,0.487,0,0.73,0
		c0,0.61,0,1.22,0,1.831c-0.243,0-0.486,0-0.73,0C41.124,16.696,41.124,16.086,41.124,15.476L41.124,15.476z M42.118,15.476
		c0.243,0,0.486,0,0.729,0c0,0.61,0,1.22,0,1.831c-0.243,0-0.486,0-0.729,0C42.118,16.696,42.118,16.086,42.118,15.476
		L42.118,15.476z M43.111,15.476c0.243,0,0.486,0,0.729,0c0,0.61,0,1.22,0,1.831c-0.243,0-0.486,0-0.729,0
		C43.111,16.696,43.111,16.086,43.111,15.476L43.111,15.476z M44.104,15.476c0.244,0,0.487,0,0.73,0c0,0.61,0,1.22,0,1.831
		c-0.244,0-0.487,0-0.73,0C44.104,16.696,44.104,16.086,44.104,15.476L44.104,15.476z M45.099,15.476c0.243,0,0.486,0,0.729,0
		c0,0.61,0,1.22,0,1.831c-0.243,0-0.487,0-0.729,0C45.099,16.696,45.099,16.086,45.099,15.476L45.099,15.476z M46.092,15.476
		c0.243,0,0.486,0,0.729,0c0,0.61,0,1.22,0,1.831c-0.243,0-0.486,0-0.729,0C46.092,16.696,46.092,16.086,46.092,15.476
		L46.092,15.476z M47.085,15.476c0.244,0,0.487,0,0.73,0c0,0.61,0,1.22,0,1.831c-0.243,0-0.486,0-0.73,0
		C47.085,16.696,47.085,16.086,47.085,15.476L47.085,15.476z M48.08,15.476c0.243,0,0.486,0,0.729,0c0,0.61,0,1.22,0,1.831
		c-0.243,0-0.487,0-0.729,0C48.08,16.696,48.08,16.086,48.08,15.476L48.08,15.476z M49.073,15.476c0.243,0,0.486,0,0.729,0
		c0,0.61,0,1.22,0,1.831c-0.243,0-0.486,0-0.729,0C49.073,16.696,49.073,16.086,49.073,15.476L49.073,15.476z M50.066,15.476
		c0.243,0,0.487,0,0.73,0c0,0.61,0,1.22,0,1.831c-0.243,0-0.487,0-0.73,0C50.066,16.696,50.066,16.086,50.066,15.476L50.066,15.476z
		 M51.061,15.476c0.243,0,0.486,0,0.729,0c0,0.61,0,1.22,0,1.831c-0.243,0-0.486,0-0.729,0
		C51.061,16.696,51.061,16.086,51.061,15.476L51.061,15.476z M52.054,15.476c0.244,0,0.487,0,0.729,0c0,0.61,0,1.22,0,1.831
		c-0.243,0-0.486,0-0.729,0C52.054,16.696,52.054,16.086,52.054,15.476L52.054,15.476z M53.047,15.476c0.244,0,0.487,0,0.73,0
		c0,0.61,0,1.22,0,1.831c-0.243,0-0.486,0-0.73,0C53.047,16.696,53.047,16.086,53.047,15.476L53.047,15.476z M54.042,15.476
		c0.243,0,0.486,0,0.729,0c0,0.61,0,1.22,0,1.831c-0.244,0-0.486,0-0.729,0C54.042,16.696,54.042,16.086,54.042,15.476
		L54.042,15.476z M55.035,15.476c0.243,0,0.487,0,0.729,0c0,0.61,0,1.22,0,1.831c-0.243,0-0.486,0-0.729,0
		C55.035,16.696,55.035,16.086,55.035,15.476L55.035,15.476z M56.028,15.476c0.243,0,0.486,0,0.73,0c0,0.61,0,1.22,0,1.831
		c-0.244,0-0.487,0-0.73,0C56.028,16.696,56.028,16.086,56.028,15.476L56.028,15.476z M57.022,15.476c0.244,0,0.486,0,0.729,0
		c0,0.61,0,1.22,0,1.831c-0.243,0-0.486,0-0.729,0C57.022,16.696,57.022,16.086,57.022,15.476L57.022,15.476z M58.016,15.476
		c0.243,0,0.487,0,0.729,0c0,0.61,0,1.22,0,1.831c-0.243,0-0.486,0-0.729,0C58.016,16.696,58.016,16.086,58.016,15.476
		L58.016,15.476z M59.009,15.476c0.244,0,0.487,0,0.73,0c0,0.61,0,1.22,0,1.831c-0.244,0-0.487,0-0.73,0
		C59.009,16.696,59.009,16.086,59.009,15.476L59.009,15.476z M60.003,15.476c0.243,0,0.486,0,0.729,0c0,0.61,0,1.22,0,1.831
		c-0.243,0-0.486,0-0.729,0C60.003,16.696,60.003,16.086,60.003,15.476L60.003,15.476z M60.997,15.476c0.243,0,0.486,0,0.73,0
		c0,0.61,0,1.22,0,1.831c-0.244,0-0.487,0-0.73,0C60.997,16.696,60.997,16.086,60.997,15.476L60.997,15.476z M61.99,15.476
		c0.243,0,0.486,0,0.73,0c0,0.61,0,1.22,0,1.831c-0.244,0-0.487,0-0.73,0C61.99,16.696,61.99,16.086,61.99,15.476L61.99,15.476z
		 M62.984,15.476c0.243,0,0.487,0,0.729,0c0,0.61,0,1.22,0,1.831c-0.243,0-0.486,0-0.729,0
		C62.984,16.696,62.984,16.086,62.984,15.476L62.984,15.476z M63.978,15.476c0.243,0,0.486,0,0.73,0c0,0.61,0,1.22,0,1.831
		c-0.244,0-0.487,0-0.73,0C63.978,16.696,63.978,16.086,63.978,15.476L63.978,15.476z M64.971,15.476c0.243,0,0.486,0,0.73,0
		c0,0.61,0,1.22,0,1.831c-0.244,0-0.487,0-0.73,0C64.971,16.696,64.971,16.086,64.971,15.476L64.971,15.476z M65.965,15.476
		c0.243,0,0.487,0,0.729,0c0,0.61,0,1.22,0,1.831c-0.243,0-0.486,0-0.729,0C65.965,16.696,65.965,16.086,65.965,15.476
		L65.965,15.476z M66.958,15.476c0.243,0,0.486,0,0.73,0c0,0.61,0,1.22,0,1.831c-0.244,0-0.487,0-0.73,0
		C66.958,16.696,66.958,16.086,66.958,15.476L66.958,15.476z M67.952,15.476c0.243,0,0.486,0,0.729,0c0,0.61,0,1.22,0,1.831
		c-0.243,0-0.487,0-0.729,0C67.952,16.696,67.952,16.086,67.952,15.476L67.952,15.476z M68.946,15.476c0.243,0,0.486,0,0.729,0
		c0,0.61,0,1.22,0,1.831c-0.244,0-0.486,0-0.729,0C68.946,16.696,68.946,16.086,68.946,15.476L68.946,15.476z M69.939,15.476
		c0.244,0,0.487,0,0.73,0c0,0.61,0,1.22,0,1.831c-0.243,0-0.486,0-0.73,0C69.939,16.696,69.939,16.086,69.939,15.476L69.939,15.476z
		 M70.933,15.476c0.243,0,0.486,0,0.729,0c0,0.61,0,1.22,0,1.831c-0.243,0-0.487,0-0.729,0
		C70.933,16.696,70.933,16.086,70.933,15.476L70.933,15.476z M71.927,15.477h0.729v1.831h-0.729V15.477z"/>
</g>
</svg>
