<?xml version="1.0" encoding="utf-8"?>
<!DOCTYPE svg PUBLIC "-//W3C//DTD SVG 1.0//EN" "http://www.w3.org/TR/2001/REC-SVG-20010904/DTD/svg10.dtd">
<svg version="1.0" xmlns="http://www.w3.org/2000/svg" xmlns:xlink="http://www.w3.org/1999/xlink" width="91" height="55" viewBox="0 0 91 55">
<g>
	<linearGradient id="SVGID_1_" gradientUnits="userSpaceOnUse" x1="64.7212" y1="16.8867" x2="70.0278" y2="16.8867">
		<stop  offset="0" style="stop-color:#1C3665"/>
		<stop  offset="1" style="stop-color:#5587C6"/>
	</linearGradient>
	<polygon fill="url(#SVGID_1_)" points="70.028,15.169 69.337,18.103 64.721,18.604 65.285,15.665 	"/>
	<linearGradient id="SVGID_2_" gradientUnits="userSpaceOnUse" x1="20.4551" y1="13.9043" x2="65.2852" y2="13.9043">
		<stop  offset="0" style="stop-color:#1C3665"/>
		<stop  offset="0.2573" style="stop-color:#3A71B8"/>
		<stop  offset="1" style="stop-color:#0B131C"/>
	</linearGradient>
	<path fill="url(#SVGID_2_)" d="M65.285,15.665l-0.564,2.939c-1.229-1.086-2.67-2.056-4.255-2.897
		c-1.488-0.79-3.117-1.475-4.842-2.048c-1.64-0.544-3.386-0.993-5.208-1.337c-1.756-0.333-3.607-0.572-5.536-0.708
		c-2.127-0.151-4.23-0.167-6.277-0.067c-2.04,0.099-4.064,0.315-6.029,0.636c-1.999,0.327-3.972,0.769-5.87,1.317
		c-1.967,0.569-3.888,1.266-5.699,2.088l-0.55-2.462c1.867-0.773,3.841-1.429,5.858-1.968c1.945-0.519,3.965-0.939,6.006-1.252
		c2.008-0.308,4.074-0.521,6.156-0.624c2.088-0.105,4.234-0.103,6.405,0.021c1.969,0.113,3.86,0.322,5.657,0.618
		c1.865,0.307,3.655,0.71,5.339,1.204c1.772,0.52,3.451,1.145,4.987,1.869C62.503,13.765,64.001,14.659,65.285,15.665L65.285,15.665
		z"/>
	<linearGradient id="SVGID_3_" gradientUnits="userSpaceOnUse" x1="8.4595" y1="17.4121" x2="24.6182" y2="17.4121">
		<stop  offset="0" style="stop-color:#5690CC"/>
		<stop  offset="1" style="stop-color:#1C3665"/>
	</linearGradient>
	<polygon fill="url(#SVGID_3_)" points="24.14,13.462 24.618,15.976 9.438,21.362 8.459,18.573 	"/>
	<radialGradient id="SVGID_4_" cx="30.2451" cy="36.8408" r="63.5671" gradientUnits="userSpaceOnUse">
		<stop  offset="0" style="stop-color:#EDF8FC"/>
		<stop  offset="0.2121" style="stop-color:#A0DBEA"/>
		<stop  offset="0.5394" style="stop-color:#3C82C4"/>
		<stop  offset="1" style="stop-color:#292666"/>
	</radialGradient>
	<path fill="url(#SVGID_4_)" d="M45.707,8.176c0.752,0.038,1.499,0.088,2.237,0.15c0.746,0.062,1.487,0.137,2.222,0.224
		c0.745,0.088,1.484,0.188,2.22,0.302c0.747,0.115,1.49,0.245,2.229,0.388c0.727,0.141,1.443,0.293,2.149,0.459
		c0.72,0.168,1.43,0.35,2.131,0.546c0.715,0.2,1.421,0.414,2.116,0.643c0.712,0.234,1.415,0.484,2.107,0.751
		c0.616,0.237,1.219,0.485,1.806,0.744c0.601,0.265,1.187,0.541,1.757,0.83c0.584,0.295,1.152,0.604,1.704,0.925
		c0.565,0.33,1.113,0.673,1.643,1.031l-4.743,0.496c-1.284-1.006-2.782-1.9-4.421-2.672c-1.536-0.724-3.215-1.35-4.987-1.869
		c-1.684-0.494-3.474-0.897-5.339-1.204c-1.797-0.295-3.688-0.504-5.657-0.618c-2.171-0.125-4.317-0.126-6.405-0.021
		c-2.082,0.104-4.148,0.316-6.156,0.624c-2.041,0.313-4.061,0.733-6.006,1.252c-2.017,0.539-3.992,1.195-5.858,1.968l3.685,0.338
		l-15.681,5.11l3.718-6.209l4.791,0.44c0.251-0.104,0.503-0.207,0.757-0.307c0.251-0.1,0.505-0.198,0.76-0.294
		c0.253-0.095,0.509-0.19,0.765-0.282c0.255-0.093,0.512-0.183,0.771-0.272c0.69-0.237,1.384-0.463,2.083-0.675
		c0.689-0.208,1.385-0.406,2.085-0.592c0.692-0.184,1.391-0.356,2.096-0.518c0.698-0.161,1.403-0.312,2.117-0.452
		c0.706-0.139,1.413-0.266,2.12-0.383c0.702-0.115,1.405-0.22,2.108-0.314c0.701-0.093,1.405-0.177,2.11-0.249
		c0.705-0.073,1.413-0.136,2.125-0.188c0.737-0.054,1.471-0.098,2.204-0.129s1.466-0.051,2.197-0.06
		c0.735-0.009,1.471-0.006,2.208,0.008C44.216,8.112,44.96,8.138,45.707,8.176z"/>
	<linearGradient id="SVGID_5_" gradientUnits="userSpaceOnUse" x1="51.0742" y1="23.5269" x2="51.0742" y2="18.3677">
		<stop  offset="0" style="stop-color:#B4B4B4"/>
		<stop  offset="1" style="stop-color:#333333"/>
	</linearGradient>
	<rect x="48.245" y="18.368" fill="url(#SVGID_5_)" width="5.658" height="5.159"/>
	<linearGradient id="SVGID_6_" gradientUnits="userSpaceOnUse" x1="32.272" y1="38.5835" x2="32.272" y2="33.4248">
		<stop  offset="0" style="stop-color:#B4B4B4"/>
		<stop  offset="1" style="stop-color:#333333"/>
	</linearGradient>
	<rect x="29.443" y="33.425" fill="url(#SVGID_6_)" width="5.658" height="5.159"/>
	<rect x="44.833" y="23.382" fill="#CDCCCC" width="12.482" height="1.332"/>
	<linearGradient id="SVGID_7_" gradientUnits="userSpaceOnUse" x1="38.3013" y1="-2.0381" x2="63.8469" y2="23.5075">
		<stop  offset="0" style="stop-color:#E6E6E5"/>
		<stop  offset="1" style="stop-color:#B4B4B4"/>
	</linearGradient>
	<rect x="36.262" fill="url(#SVGID_7_)" stroke="#676767" stroke-width="0.3386" width="29.623" height="21.469"/>
	<linearGradient id="SVGID_8_" gradientUnits="userSpaceOnUse" x1="51.0737" y1="17.5933" x2="51.0737" y2="1.5815">
		<stop  offset="0" style="stop-color:#CEEBEA"/>
		<stop  offset="0.5029" style="stop-color:#2F67B2"/>
		<stop  offset="1" style="stop-color:#1C3665"/>
	</linearGradient>
	<rect x="38.093" y="1.582" fill="url(#SVGID_8_)" width="25.962" height="16.012"/>
	<rect x="25.813" y="38.583" fill="#CDCCCC" width="12.481" height="1.331"/>
	<g>
		<path fill="#D2EDF3" d="M24.14,13.462c0,0-0.053,0.106-7.814,2.635c-7.762,2.53-7.867,2.475-7.867,2.475s0.052-0.106,7.814-2.636
			C24.034,13.408,24.14,13.462,24.14,13.462z"/>
	</g>
	<linearGradient id="SVGID_9_" gradientUnits="userSpaceOnUse" x1="19.2822" y1="13.1636" x2="44.8278" y2="38.7092">
		<stop  offset="0" style="stop-color:#E6E6E5"/>
		<stop  offset="1" style="stop-color:#B4B4B4"/>
	</linearGradient>
	<rect x="17.243" y="15.202" fill="url(#SVGID_9_)" stroke="#676767" stroke-width="0.3386" width="29.623" height="21.468"/>
	<linearGradient id="SVGID_10_" gradientUnits="userSpaceOnUse" x1="32.0542" y1="32.7944" x2="32.0542" y2="16.7822">
		<stop  offset="0" style="stop-color:#CEEBEA"/>
		<stop  offset="0.5029" style="stop-color:#2F67B2"/>
		<stop  offset="1" style="stop-color:#1C3665"/>
	</linearGradient>
	<rect x="19.073" y="16.782" fill="url(#SVGID_10_)" width="25.962" height="16.012"/>
	<linearGradient id="SVGID_11_" gradientUnits="userSpaceOnUse" x1="7.5332" y1="27.8003" x2="11.5055" y2="26.5458">
		<stop  offset="0" style="stop-color:#1C3665"/>
		<stop  offset="1" style="stop-color:#5587C6"/>
	</linearGradient>
	<path fill="url(#SVGID_11_)" d="M9.438,20.947L10.47,23.9c-0.448,0.708-0.819,1.432-1.107,2.168
		c-0.3,0.767-0.511,1.548-0.627,2.336c-0.12,0.822-0.138,1.652-0.044,2.483c0.097,0.867,0.313,1.733,0.656,2.591l-1.376-3.442
		c-0.327-0.819-0.522-1.644-0.593-2.47c-0.068-0.79-0.023-1.578,0.129-2.358c0.145-0.747,0.388-1.486,0.722-2.212
		C8.55,22.3,8.956,21.616,9.438,20.947L9.438,20.947z"/>
	<linearGradient id="SVGID_12_" gradientUnits="userSpaceOnUse" x1="60.585" y1="28.2627" x2="69.3882" y2="28.2627">
		<stop  offset="0" style="stop-color:#669FD5"/>
		<stop  offset="1" style="stop-color:#1D427D"/>
	</linearGradient>
	<polygon fill="url(#SVGID_12_)" points="69.388,27.015 68.452,30.647 60.585,29.41 61.184,25.878 	"/>
	<linearGradient id="SVGID_13_" gradientUnits="userSpaceOnUse" x1="76.4492" y1="31.0288" x2="90.9546" y2="31.0288">
		<stop  offset="0" style="stop-color:#1C3665"/>
		<stop  offset="1" style="stop-color:#5690CC"/>
	</linearGradient>
	<polygon fill="url(#SVGID_13_)" points="90.955,30.004 89.015,33.883 76.449,31.906 77.755,28.174 	"/>
	<radialGradient id="SVGID_14_" cx="30.2451" cy="36.8403" r="63.5662" gradientUnits="userSpaceOnUse">
		<stop  offset="0" style="stop-color:#EDF8FC"/>
		<stop  offset="0.2121" style="stop-color:#A0DBEA"/>
		<stop  offset="0.5394" style="stop-color:#3C82C4"/>
		<stop  offset="1" style="stop-color:#292666"/>
	</radialGradient>
	<path fill="url(#SVGID_14_)" d="M71.695,17.832l19.26,12.172l-13.2-1.83c-0.023,0.361-0.065,0.725-0.124,1.089
		c-0.06,0.371-0.139,0.744-0.236,1.117c-0.099,0.381-0.217,0.762-0.356,1.145c-0.141,0.39-0.303,0.779-0.485,1.17
		c-0.426,0.912-0.963,1.818-1.61,2.712c-0.67,0.926-1.459,1.836-2.368,2.726c-0.938,0.919-2.001,1.813-3.19,2.675
		c-1.224,0.888-2.576,1.739-4.053,2.547c-1.516,0.828-3.138,1.596-4.859,2.298c-1.756,0.715-3.606,1.357-5.54,1.919
		c-1.962,0.571-3.999,1.057-6.099,1.452c-2.118,0.399-4.286,0.704-6.49,0.911c-2.288,0.214-4.575,0.32-6.844,0.316
		c-2.258-0.003-4.484-0.116-6.661-0.334c-2.152-0.215-4.244-0.533-6.26-0.949c-1.981-0.408-3.878-0.908-5.682-1.494
		c-1.76-0.572-3.396-1.215-4.903-1.922c-1.464-0.688-2.8-1.431-4.007-2.226c-1.167-0.769-2.208-1.583-3.124-2.435
		c-0.883-0.822-1.646-1.676-2.292-2.558c-0.6-0.819-1.091-1.652-1.477-2.493c-0.373-0.81-0.646-1.627-0.827-2.447
		c-0.174-0.789-0.261-1.58-0.267-2.37c-0.004-0.761,0.067-1.52,0.211-2.275c0.131-0.688,0.32-1.365,0.563-2.03
		c0.235-0.641,0.521-1.272,0.855-1.891c0.322-0.598,0.689-1.185,1.098-1.761c0.396-0.558,0.83-1.104,1.301-1.64l5.41-0.479
		c-1.033,1.429-1.707,2.934-1.969,4.468c-0.286,1.68-0.077,3.395,0.696,5.072c0.846,1.834,2.36,3.604,4.601,5.193
		c2.425,1.719,5.649,3.19,9.659,4.251c4.785,1.265,10.078,1.791,15.467,1.6c5.421-0.191,10.646-1.098,15.302-2.58
		c4.452-1.418,8.188-3.3,11.01-5.478c2.6-2.006,4.344-4.203,5.183-6.458l-8.204-1.137L71.695,17.832z"/>
	<linearGradient id="SVGID_15_" gradientUnits="userSpaceOnUse" x1="1.312" y1="42.8906" x2="77.0674" y2="42.8906">
		<stop  offset="0" style="stop-color:#1C3665"/>
		<stop  offset="0.2573" style="stop-color:#3A71B8"/>
		<stop  offset="1" style="stop-color:#0B131C"/>
	</linearGradient>
	<path fill="url(#SVGID_15_)" d="M77.067,31.444l-1.372,3.864c-0.038,0.107-0.078,0.214-0.118,0.321
		c-0.041,0.107-0.083,0.215-0.127,0.323c-0.044,0.107-0.09,0.216-0.136,0.324c-0.047,0.108-0.095,0.217-0.145,0.326
		c-0.434,0.943-0.969,1.876-1.61,2.795c-0.663,0.951-1.436,1.882-2.322,2.792c-0.914,0.938-1.943,1.848-3.09,2.723
		c-1.179,0.901-2.476,1.761-3.89,2.576c-1.449,0.835-2.994,1.607-4.631,2.31c-1.669,0.717-3.423,1.358-5.254,1.918
		c-1.856,0.567-3.782,1.048-5.764,1.438c-1.999,0.394-4.043,0.691-6.123,0.89c-2.158,0.207-4.315,0.304-6.456,0.291
		c-2.132-0.013-4.235-0.135-6.294-0.362c-2.037-0.226-4.02-0.554-5.935-0.982c-1.884-0.419-3.691-0.932-5.415-1.532
		c-1.685-0.587-3.255-1.246-4.706-1.969c-1.413-0.705-2.707-1.469-3.881-2.284c-1.138-0.792-2.16-1.628-3.063-2.505
		c-0.874-0.847-1.635-1.729-2.286-2.639c-0.125-0.176-0.247-0.352-0.364-0.529c-0.116-0.175-0.228-0.351-0.334-0.528
		c-0.107-0.175-0.209-0.352-0.307-0.527c-0.098-0.176-0.191-0.351-0.279-0.527l-1.853-3.659c0.086,0.17,0.176,0.339,0.271,0.508
		c0.096,0.17,0.196,0.339,0.3,0.509c0.104,0.171,0.214,0.34,0.329,0.51c0.115,0.171,0.235,0.342,0.359,0.511
		c0.646,0.882,1.409,1.736,2.292,2.558c0.916,0.852,1.957,1.666,3.124,2.435c1.207,0.795,2.542,1.539,4.007,2.226
		c1.507,0.707,3.143,1.35,4.903,1.922c1.803,0.586,3.7,1.086,5.682,1.494c2.017,0.416,4.108,0.733,6.26,0.949
		c2.177,0.218,4.403,0.331,6.661,0.334c2.269,0.003,4.556-0.102,6.844-0.316c2.205-0.207,4.373-0.511,6.49-0.911
		c2.1-0.395,4.137-0.881,6.099-1.452c1.934-0.563,3.784-1.204,5.54-1.919c1.721-0.702,3.343-1.47,4.859-2.298
		c1.478-0.808,2.83-1.659,4.053-2.547c1.189-0.862,2.252-1.755,3.19-2.675c0.909-0.89,1.698-1.8,2.368-2.726
		c0.647-0.894,1.184-1.8,1.61-2.712c0.049-0.105,0.097-0.21,0.143-0.315c0.045-0.104,0.09-0.209,0.132-0.314
		c0.043-0.104,0.084-0.208,0.124-0.312C76.993,31.651,77.031,31.546,77.067,31.444L77.067,31.444z"/>
	<g>
		<path fill="#D2EDF3" d="M0.267,33.393c0.006-0.002,0.014,0.029,0.251,0.751c0.124,0.358,0.311,0.891,0.673,1.638
			c0.365,0.743,0.912,1.703,1.821,2.836c1.797,2.254,5.189,5.208,11.232,7.578c3.011,1.179,6.658,2.226,10.999,2.909
			c4.337,0.681,9.375,1.006,15.09,0.63c5.715-0.385,10.668-1.36,14.879-2.604c4.214-1.245,7.69-2.766,10.514-4.342
			c5.668-3.162,8.621-6.559,10.079-9.046c0.74-1.25,1.138-2.281,1.39-3.069c0.248-0.792,0.354-1.346,0.424-1.719
			c0.125-0.75,0.129-0.782,0.135-0.781c-0.006,0,0.035,0.031-0.024,0.795c-0.036,0.382-0.105,0.95-0.317,1.768
			c-0.216,0.814-0.581,1.884-1.297,3.185c-1.41,2.587-4.374,6.127-10.093,9.394c-2.848,1.629-6.359,3.195-10.615,4.473
			c-4.253,1.277-9.256,2.272-15.027,2.661c-5.771,0.379-10.86,0.04-15.244-0.667c-4.387-0.71-8.071-1.796-11.113-3.023
			c-6.106-2.464-9.528-5.557-11.292-7.917c-0.894-1.186-1.413-2.19-1.746-2.964c-0.33-0.777-0.482-1.33-0.575-1.701
			C0.236,33.43,0.273,33.393,0.267,33.393z"/>
	</g>
	<g>
		<path fill="#D2EDF3" d="M90.955,30.004c0,0-0.084,0.126-6.619-0.78c-6.534-0.905-6.581-1.05-6.581-1.05s0.085-0.126,6.619,0.779
			C90.906,29.859,90.955,30.004,90.955,30.004z"/>
	</g>
	<g>
		<path fill="#D2EDF3" d="M69.388,27.015c0,0-0.053,0.079-4.113-0.484c-4.062-0.563-4.091-0.652-4.091-0.652
			s0.053-0.078,4.114,0.484C69.358,26.925,69.388,27.015,69.388,27.015z"/>
	</g>
	
		<linearGradient id="SVGID_16_" gradientUnits="userSpaceOnUse" x1="-193.7866" y1="929.4033" x2="-193.759" y2="929.4033" gradientTransform="matrix(-2.500000e-005 -578.1973 -578.1973 2.500000e-005 537429.0625 -112029.9375)">
		<stop  offset="0" style="stop-color:#DDF1F0"/>
		<stop  offset="0.5029" style="stop-color:#5393CF"/>
		<stop  offset="1" style="stop-color:#4E7295"/>
	</linearGradient>
	<path fill="url(#SVGID_16_)" d="M64.055,1.582H38.093v6.507c3.86,2.096,8.281,3.285,12.981,3.285s9.122-1.19,12.981-3.285V1.582
		L64.055,1.582z"/>
	
		<linearGradient id="SVGID_17_" gradientUnits="userSpaceOnUse" x1="-192.8638" y1="928.248" x2="-192.8359" y2="928.248" gradientTransform="matrix(-2.500000e-005 -578.1973 -578.1973 2.500000e-005 536742.0625 -111480.9375)">
		<stop  offset="0" style="stop-color:#DDF1F0"/>
		<stop  offset="0.5029" style="stop-color:#5393CF"/>
		<stop  offset="1" style="stop-color:#4E7295"/>
	</linearGradient>
	<path fill="url(#SVGID_17_)" d="M45.035,16.782H19.073v5.688c3.91,2.17,8.411,3.405,13.199,3.405c4.612,0,8.956-1.146,12.763-3.168
		V16.782L45.035,16.782z"/>
</g>
</svg>
