<?xml version="1.0" encoding="utf-8"?>
<!DOCTYPE svg PUBLIC "-//W3C//DTD SVG 1.1//EN" "http://www.w3.org/Graphics/SVG/1.1/DTD/svg11.dtd">
<svg version="1.1" xmlns="http://www.w3.org/2000/svg" xmlns:xlink="http://www.w3.org/1999/xlink" width="27" height="33" viewBox="0 0 27 33">
<g>
	<path fill-rule="evenodd" clip-rule="evenodd" fill="#4A66A8" d="M0.295,19.146C0.246,19.293,0.147,19.44,0,19.638
		c1.719,0.984,1.719,0.984,1.719,0.984c0.098-0.148,0.245-0.345,0.344-0.492c1.473-2.658,1.375-5.759-0.049-8.269
		c-1.718,1.034-1.718,1.034-1.718,1.034C1.375,14.765,1.473,17.127,0.295,19.146L0.295,19.146"/>
	<path fill-rule="evenodd" clip-rule="evenodd" fill="#4A66A8" d="M4.321,21.507c-0.049,0.148-0.147,0.295-0.294,0.443
		c1.718,0.984,1.718,0.984,1.718,0.984c0.147-0.147,0.246-0.295,0.295-0.443c2.406-4.134,2.258-9.056,0-12.944
		c-1.719,0.984-1.719,0.984-1.719,0.984C6.187,13.83,6.334,17.964,4.321,21.507L4.321,21.507"/>
	<path fill-rule="evenodd" clip-rule="evenodd" fill="#4A66A8" d="M14.632,10.68c1.424,5.266,0.687,10.778-2.014,15.503
		c-0.049,0.147-0.196,0.345-0.245,0.492c1.718,0.984,1.718,0.984,1.718,0.984c0.049-0.147,0.147-0.345,0.246-0.492
		c2.946-5.168,3.732-11.222,2.21-16.98c-0.491-1.969-1.277-3.79-2.21-5.463c-1.719,0.984-1.719,0.984-1.719,0.984
		C13.502,7.234,14.19,8.908,14.632,10.68L14.632,10.68"/>
	<path fill-rule="evenodd" clip-rule="evenodd" fill="#4A66A8" d="M8.495,23.821c-0.098,0.147-0.197,0.345-0.295,0.492
		c1.719,0.984,1.719,0.984,1.719,0.984c0.147-0.147,0.196-0.345,0.344-0.492c3.29-5.61,3.044-12.304-0.049-17.619
		C8.445,8.219,8.445,8.219,8.445,8.219C11.195,12.845,11.44,18.801,8.495,23.821L8.495,23.821"/>
	<path fill-rule="evenodd" clip-rule="evenodd" fill="#4A66A8" d="M19.247,9.499c1.669,6.447,0.835,13.239-2.554,19.046
		c-0.097,0.099-0.195,0.295-0.293,0.443c1.718,0.984,1.718,0.984,1.718,0.984c0.098-0.148,0.196-0.296,0.295-0.443
		c3.633-6.3,4.614-13.584,2.699-20.573c-0.588-2.362-1.521-4.528-2.699-6.595c-1.72,0.984-1.72,0.984-1.72,0.984
		C17.774,5.266,18.608,7.284,19.247,9.499L19.247,9.499"/>
	<path fill-rule="evenodd" clip-rule="evenodd" fill="#4A66A8" d="M20.867,30.859c-0.147,0.147-0.196,0.344-0.295,0.492
		c1.671,0.984,1.671,0.984,1.671,0.984c0.098-0.148,0.196-0.295,0.293-0.492C28.332,21.655,27.938,9.548,22.489,0
		c-1.671,0.984-1.671,0.984-1.671,0.984C25.876,9.991,26.319,21.311,20.867,30.859L20.867,30.859"/>
	<path fill-rule="evenodd" clip-rule="evenodd" fill="#4A66A8" d="M0.295,19.146C0.246,19.293,0.147,19.44,0,19.638
		c1.719,0.984,1.719,0.984,1.719,0.984c0.098-0.148,0.245-0.345,0.344-0.492c1.473-2.658,1.375-5.759-0.049-8.269
		c-1.718,1.034-1.718,1.034-1.718,1.034C1.375,14.765,1.473,17.127,0.295,19.146L0.295,19.146"/>
	<path fill-rule="evenodd" clip-rule="evenodd" fill="#4A66A8" d="M4.321,21.507c-0.049,0.148-0.147,0.295-0.294,0.443
		c1.718,0.984,1.718,0.984,1.718,0.984c0.147-0.147,0.246-0.295,0.295-0.443c2.406-4.134,2.258-9.056,0-12.944
		c-1.719,0.984-1.719,0.984-1.719,0.984C6.187,13.83,6.334,17.964,4.321,21.507L4.321,21.507"/>
	<path fill-rule="evenodd" clip-rule="evenodd" fill="#4A66A8" d="M14.632,10.68c1.424,5.266,0.687,10.778-2.014,15.503
		c-0.049,0.147-0.196,0.345-0.245,0.492c1.718,0.984,1.718,0.984,1.718,0.984c0.049-0.147,0.147-0.345,0.246-0.492
		c2.946-5.168,3.732-11.222,2.21-16.98c-0.491-1.969-1.277-3.79-2.21-5.463c-1.719,0.984-1.719,0.984-1.719,0.984
		C13.502,7.234,14.19,8.908,14.632,10.68L14.632,10.68"/>
	<path fill-rule="evenodd" clip-rule="evenodd" fill="#4A66A8" d="M8.495,23.821c-0.098,0.147-0.197,0.345-0.295,0.492
		c1.719,0.984,1.719,0.984,1.719,0.984c0.147-0.147,0.196-0.345,0.344-0.492c3.29-5.61,3.044-12.304-0.049-17.619
		C8.445,8.219,8.445,8.219,8.445,8.219C11.195,12.845,11.44,18.801,8.495,23.821L8.495,23.821"/>
	<path fill-rule="evenodd" clip-rule="evenodd" fill="#4A66A8" d="M19.247,9.499c1.669,6.447,0.835,13.239-2.554,19.046
		c-0.097,0.099-0.195,0.295-0.293,0.443c1.718,0.984,1.718,0.984,1.718,0.984c0.098-0.148,0.196-0.296,0.295-0.443
		c3.633-6.3,4.614-13.584,2.699-20.573c-0.588-2.362-1.521-4.528-2.699-6.595c-1.72,0.984-1.72,0.984-1.72,0.984
		C17.774,5.266,18.608,7.284,19.247,9.499L19.247,9.499"/>
	<path fill-rule="evenodd" clip-rule="evenodd" fill="#4A66A8" d="M20.867,30.859c-0.147,0.147-0.196,0.344-0.295,0.492
		c1.671,0.984,1.671,0.984,1.671,0.984c0.098-0.148,0.196-0.295,0.293-0.492C28.332,21.655,27.938,9.548,22.489,0
		c-1.671,0.984-1.671,0.984-1.671,0.984C25.876,9.991,26.319,21.311,20.867,30.859L20.867,30.859"/>
</g>
</svg>
